<?xml version="1.0" encoding="UTF-8" standalone="no"?>
<!-- Created with Inkscape (http://www.inkscape.org/) -->

<svg
   xmlns:dc="http://purl.org/dc/elements/1.1/"
   xmlns:cc="http://creativecommons.org/ns#"
   xmlns:rdf="http://www.w3.org/1999/02/22-rdf-syntax-ns#"
   xmlns:svg="http://www.w3.org/2000/svg"
   xmlns="http://www.w3.org/2000/svg"
   xmlns:sodipodi="http://sodipodi.sourceforge.net/DTD/sodipodi-0.dtd"
   xmlns:inkscape="http://www.inkscape.org/namespaces/inkscape"
   version="1.1"
   id="svg10"
   xml:space="preserve"
   width="321.26001"
   height="245.66933"
   viewBox="0 0 321.26001 245.66933"
   sodipodi:docname="Stud height.ai_1.svg"
   inkscape:version="0.92.4 (5da689c313, 2019-01-14)"><metadata
     id="metadata16"><rdf:RDF><cc:Work
         rdf:about=""><dc:format>image/svg+xml</dc:format><dc:type
           rdf:resource="http://purl.org/dc/dcmitype/StillImage" /><dc:title></dc:title></cc:Work></rdf:RDF></metadata><defs
     id="defs14"><clipPath
       clipPathUnits="userSpaceOnUse"
       id="clipPath46"><path
         d="M 0,184.252 H 240.945 V 0 H 0 Z"
         id="path44"
         inkscape:connector-curvature="0" /></clipPath></defs><sodipodi:namedview
     pagecolor="#ffffff"
     bordercolor="#666666"
     borderopacity="1"
     objecttolerance="10"
     gridtolerance="10"
     guidetolerance="10"
     inkscape:pageopacity="0"
     inkscape:pageshadow="2"
     inkscape:window-width="640"
     inkscape:window-height="480"
     id="namedview12"
     showgrid="false"
     inkscape:zoom="3.329679"
     inkscape:cx="160.63"
     inkscape:cy="122.83466"
     inkscape:window-x="0"
     inkscape:window-y="0"
     inkscape:window-maximized="1"
     inkscape:current-layer="g18" /><g
     id="g18"
     inkscape:groupmode="layer"
     inkscape:label="Stud height.ai_1"
     transform="matrix(1.3333333,0,0,-1.3333333,0,245.66933)"><g
       id="g20"
       transform="translate(182.376,66.189)"><path
         d="M 0,0 H 0.299"
         style="fill:none;stroke:#000000;stroke-width:0.5;stroke-linecap:round;stroke-linejoin:round;stroke-miterlimit:10;stroke-dasharray:none;stroke-opacity:1"
         id="path22"
         inkscape:connector-curvature="0" /></g><g
       id="g24"
       transform="translate(50.4307,66.189)"><path
         d="M 0,0 H 131.945"
         style="fill:none;stroke:#000000;stroke-width:0.5;stroke-linecap:round;stroke-linejoin:round;stroke-miterlimit:10;stroke-dasharray:none;stroke-opacity:1"
         id="path26"
         inkscape:connector-curvature="0" /></g><g
       id="g28"
       transform="translate(43.9307,70.8633)"><path
         d="M 0,0 V -4.674 H 6.5"
         style="fill:none;stroke:#000000;stroke-width:1;stroke-linecap:round;stroke-linejoin:round;stroke-miterlimit:10;stroke-dasharray:none;stroke-opacity:1"
         id="path30"
         inkscape:connector-curvature="0" /></g><g
       id="g32"
       transform="translate(189.3262,71.1319)"><path
         d="M 0,0 -145.396,-0.269"
         style="fill:none;stroke:#000000;stroke-width:0.5;stroke-linecap:round;stroke-linejoin:round;stroke-miterlimit:10;stroke-dasharray:none;stroke-opacity:1"
         id="path34"
         inkscape:connector-curvature="0" /></g><g
       id="g36"
       transform="translate(182.6748,66.189)"><path
         d="M 0,0 H 6.651 V 4.943"
         style="fill:none;stroke:#000000;stroke-width:1;stroke-linecap:round;stroke-linejoin:round;stroke-miterlimit:10;stroke-dasharray:none;stroke-opacity:1"
         id="path38"
         inkscape:connector-curvature="0" /></g><g
       id="g40"><g
         id="g42"
         clip-path="url(#clipPath46)"><g
           id="g48"
           transform="translate(50.7461,65.6519)"><path
             d="m 0,0 c 0,0 1.201,-0.932 1.201,-1.602 0,-0.669 0.937,-20.312 0.937,-20.312 0,0 0.402,-1.607 1.47,-1.607 1.07,0 22.184,0.133 22.184,0.133 0,0 1.068,0.404 1.604,0.67 0.535,0.267 0.936,1.474 1.336,1.607 0.402,0.131 3.209,0.537 4.01,-0.133 0.801,-0.67 1.468,-2.006 1.468,-2.006 0,0 0.27,-0.537 1.071,-0.537 0.802,0 3.609,0.266 3.609,0.266 0,0 1.337,-0.133 1.602,0.803 0.267,0.937 0.535,13.232 0.535,13.232 0,0 1.332,2.535 2.939,2.535 h 11.495 l 0.8,-14.83 c 0,0 1.069,-1.873 2.941,-1.873 1.871,0 13.496,-0.133 13.496,-0.133 0,0 2.677,0.537 2.81,1.739 0.132,1.202 0.669,15.097 0.669,15.097 l 11.359,0.139 c 0,0 2.797,-0.531 2.936,-2.941 0.137,-2.407 0.537,-12.294 0.537,-12.294 0,0 0.537,-1.208 2.005,-1.341 1.467,-0.133 6.546,-0.133 6.546,-0.133 0,0 1.34,0.666 1.739,1.203 0.397,0.537 0.936,0.936 0.936,0.936 0,0 1.339,0 1.872,-1.069 0.531,-1.069 0.936,-1.334 0.936,-1.334 h 1.733 c 1.069,0 21.65,0.133 21.65,0.133 0,0 1.207,0.397 1.472,2.27 0.267,1.871 0.803,19.644 0.803,19.644 0,0 0.537,1.336 1.201,1.739"
             style="fill:none;stroke:#000000;stroke-width:1;stroke-linecap:round;stroke-linejoin:round;stroke-miterlimit:10;stroke-dasharray:none;stroke-opacity:1"
             id="path50"
             inkscape:connector-curvature="0" /></g><g
           id="g52"
           transform="translate(60.0996,41.8648)"><path
             d="m 0,0 -0.801,1.605 -0.537,20.311 -0.8,2.137"
             style="fill:none;stroke:#000000;stroke-width:0.5;stroke-linecap:round;stroke-linejoin:round;stroke-miterlimit:10;stroke-dasharray:none;stroke-opacity:1"
             id="path54"
             inkscape:connector-curvature="0" /></g><g
           id="g56"
           transform="translate(65.9805,66.0562)"><path
             d="m 0,0 c 0,0 -1.201,-0.941 -1.47,-2.41 -0.268,-1.467 -0.803,-20.042 -0.803,-20.042 l -0.402,-0.937"
             style="fill:none;stroke:#000000;stroke-width:0.5;stroke-linecap:round;stroke-linejoin:round;stroke-miterlimit:10;stroke-dasharray:none;stroke-opacity:1"
             id="path58"
             inkscape:connector-curvature="0" /></g><g
           id="g60"
           transform="translate(52.8828,43.7369)"><path
             d="m 0,0 h 24.991 c 0,0 1.736,2.669 2.805,2.536 1.069,-0.133 4.01,-0.531 4.01,-0.531 0,0 2.672,-1.201 2.539,-3.074"
             style="fill:none;stroke:#000000;stroke-width:0.5;stroke-linecap:round;stroke-linejoin:round;stroke-miterlimit:10;stroke-dasharray:none;stroke-opacity:1"
             id="path62"
             inkscape:connector-curvature="0" /></g><g
           id="g64"
           transform="translate(107.6758,44.0035)"><path
             d="M 0,0 17.771,-0.133"
             style="fill:none;stroke:#000000;stroke-width:0.5;stroke-linecap:round;stroke-linejoin:round;stroke-miterlimit:10;stroke-dasharray:none;stroke-opacity:1"
             id="path66"
             inkscape:connector-curvature="0" /></g><g
           id="g68"
           transform="translate(109.9463,41.9976)"><path
             d="M 0,0 -0.266,1.606 0.186,24.523"
             style="fill:none;stroke:#000000;stroke-width:0.5;stroke-linecap:round;stroke-linejoin:round;stroke-miterlimit:10;stroke-dasharray:none;stroke-opacity:1"
             id="path70"
             inkscape:connector-curvature="0" /></g><g
           id="g72"
           transform="translate(123.4424,41.8648)"><path
             d="M 0,0 -0.265,2.139 0,23.92"
             style="fill:none;stroke:#000000;stroke-width:0.5;stroke-linecap:round;stroke-linejoin:round;stroke-miterlimit:10;stroke-dasharray:none;stroke-opacity:1"
             id="path74"
             inkscape:connector-curvature="0" /></g><g
           id="g76"
           transform="translate(51.9463,64.0503)"><path
             d="m 0,0 6.815,-0.27 1.338,-0.4 4.412,0.266"
             style="fill:none;stroke:#000000;stroke-width:0.5;stroke-linecap:round;stroke-linejoin:round;stroke-miterlimit:10;stroke-dasharray:none;stroke-opacity:1"
             id="path78"
             inkscape:connector-curvature="0" /></g><g
           id="g80"
           transform="translate(89.6348,65.7847)"><path
             d="m 0,0 -0.135,-4.674 c 0,0 -0.133,-1.336 0.803,-2.941 L 0.536,-22.314 h -4.68"
             style="fill:none;stroke:#000000;stroke-width:0.5;stroke-linecap:round;stroke-linejoin:round;stroke-miterlimit:10;stroke-dasharray:none;stroke-opacity:1"
             id="path82"
             inkscape:connector-curvature="0" /></g><g
           id="g84"
           transform="translate(93.376,66.3218)"><path
             d="M 0,0 C 0,0 0,-4.01 0.133,-5.078 0.266,-6.146 0.8,-7.084 0.8,-7.084 c -1.739,0.67 -3.874,-1.068 -3.874,-1.068 0,0 -0.803,1.341 -0.803,2.941 l 16.572,0.266"
             style="fill:none;stroke:#000000;stroke-width:0.5;stroke-linecap:round;stroke-linejoin:round;stroke-miterlimit:10;stroke-dasharray:none;stroke-opacity:1"
             id="path86"
             inkscape:connector-curvature="0" /></g><g
           id="g88"
           transform="translate(106.3379,59.2378)"><path
             d="m 0,0 -0.133,4.408 c 0,0 -0.002,2.278 -1.205,2.41"
             style="fill:none;stroke:#000000;stroke-width:0.5;stroke-linecap:round;stroke-linejoin:round;stroke-miterlimit:10;stroke-dasharray:none;stroke-opacity:1"
             id="path90"
             inkscape:connector-curvature="0" /></g><g
           id="g92"
           transform="translate(106.2061,63.646)"><path
             d="m 0,0 3.339,0.135 14.034,0.402 3.342,-0.803 c -0.133,1.069 1.335,2.405 1.335,2.405"
             style="fill:none;stroke:#000000;stroke-width:0.5;stroke-linecap:round;stroke-linejoin:round;stroke-miterlimit:10;stroke-dasharray:none;stroke-opacity:1"
             id="path94"
             inkscape:connector-curvature="0" /></g><g
           id="g96"
           transform="translate(126.9209,63.3804)"><path
             d="M 0,0 V -4.68"
             style="fill:none;stroke:#000000;stroke-width:0.5;stroke-linecap:round;stroke-linejoin:round;stroke-miterlimit:10;stroke-dasharray:none;stroke-opacity:1"
             id="path98"
             inkscape:connector-curvature="0" /></g><g
           id="g100"
           transform="translate(80.0127,44.4078)"><path
             d="M 0,0 C 0,0 0.8,-2.41 3.741,-2.41"
             style="fill:none;stroke:#000000;stroke-width:0.5;stroke-linecap:round;stroke-linejoin:round;stroke-miterlimit:10;stroke-dasharray:none;stroke-opacity:1"
             id="path102"
             inkscape:connector-curvature="0" /></g><g
           id="g104"
           transform="translate(141.753,56.2964)"><path
             d="m 0,0 c 0,0 2.005,2.41 2.005,4.947 0,2.535 0.133,4.945 0.133,4.945"
             style="fill:none;stroke:#000000;stroke-width:0.5;stroke-linecap:round;stroke-linejoin:round;stroke-miterlimit:10;stroke-dasharray:none;stroke-opacity:1"
             id="path106"
             inkscape:connector-curvature="0" /></g><g
           id="g108"
           transform="translate(127.0537,61.3765)"><path
             d="m 0,0 h 12.827 3.207"
             style="fill:none;stroke:#000000;stroke-width:0.5;stroke-linecap:round;stroke-linejoin:round;stroke-miterlimit:10;stroke-dasharray:none;stroke-opacity:1"
             id="path110"
             inkscape:connector-curvature="0" /></g><g
           id="g112"
           transform="translate(139.7481,65.7847)"><path
             d="m 0,0 0.133,-4.408 c 0,0 -0.272,-1.734 -0.803,-2.404"
             style="fill:none;stroke:#000000;stroke-width:0.5;stroke-linecap:round;stroke-linejoin:round;stroke-miterlimit:10;stroke-dasharray:none;stroke-opacity:1"
             id="path114"
             inkscape:connector-curvature="0" /></g><g
           id="g116"
           transform="translate(139.7481,59.5035)"><path
             d="M 0,0 C 0,0 2.275,-0.26 2.808,-1.732 L 3.473,-15.767"
             style="fill:none;stroke:#000000;stroke-width:0.5;stroke-linecap:round;stroke-linejoin:round;stroke-miterlimit:10;stroke-dasharray:none;stroke-opacity:1"
             id="path118"
             inkscape:connector-curvature="0" /></g><g
           id="g120"
           transform="translate(142.2852,43.604)"><path
             d="m 0,0 3.742,0.133 c 0,0 0.67,2.138 2.809,2.138 2.137,0 4.009,0.132 4.009,0.132 0,0 2.133,-0.397 2.537,-2.269 h 24.324"
             style="fill:none;stroke:#000000;stroke-width:0.5;stroke-linecap:round;stroke-linejoin:round;stroke-miterlimit:10;stroke-dasharray:none;stroke-opacity:1"
             id="path122"
             inkscape:connector-curvature="0" /></g><g
           id="g124"
           transform="translate(170.086,42.5347)"><path
             d="m 0,0 -0.803,1.069 -0.671,21.113 c 0,0 -1.201,0.531 -1.067,0.935"
             style="fill:none;stroke:#000000;stroke-width:0.5;stroke-linecap:round;stroke-linejoin:round;stroke-miterlimit:10;stroke-dasharray:none;stroke-opacity:1"
             id="path126"
             inkscape:connector-curvature="0" /></g><g
           id="g128"
           transform="translate(175.5625,65.6519)"><path
             d="m 0,0 c 0,0 -0.537,-0.266 -0.67,-1.068 -0.132,-0.803 -1.201,-20.847 -1.201,-20.847 l -0.804,-1.069"
             style="fill:none;stroke:#000000;stroke-width:0.5;stroke-linecap:round;stroke-linejoin:round;stroke-miterlimit:10;stroke-dasharray:none;stroke-opacity:1"
             id="path130"
             inkscape:connector-curvature="0" /></g><g
           id="g132"
           transform="translate(175.0254,63.9136)"><path
             d="M 0,0 6.016,-0.133"
             style="fill:none;stroke:#000000;stroke-width:0.5;stroke-linecap:round;stroke-linejoin:round;stroke-miterlimit:10;stroke-dasharray:none;stroke-opacity:1"
             id="path134"
             inkscape:connector-curvature="0" /></g><g
           id="g136"
           transform="translate(147.7676,43.0669)"><path
             d="M 0,0 -1.07,0.265"
             style="fill:none;stroke:#000000;stroke-width:0.5;stroke-linecap:round;stroke-linejoin:round;stroke-miterlimit:10;stroke-dasharray:none;stroke-opacity:1"
             id="path138"
             inkscape:connector-curvature="0" /></g><g
           id="g140"
           transform="translate(148.836,45.8746)"><path
             d="M 0,0 0.803,-1.467"
             style="fill:none;stroke:#000000;stroke-width:0.5;stroke-linecap:round;stroke-linejoin:round;stroke-miterlimit:10;stroke-dasharray:none;stroke-opacity:1"
             id="path142"
             inkscape:connector-curvature="0" /></g><g
           id="g144"
           transform="translate(152.3086,45.6089)"><path
             d="m 0,0 0.268,-0.937 c 0,0 -2.942,0.804 -3.341,-0.133 -0.399,-0.936 -1.335,-1.201 -1.335,-2.004"
             style="fill:none;stroke:#000000;stroke-width:0.5;stroke-linecap:round;stroke-linejoin:round;stroke-miterlimit:10;stroke-dasharray:none;stroke-opacity:1"
             id="path146"
             inkscape:connector-curvature="0" /></g><g
           id="g148"
           transform="translate(189.3262,71.1319)"><path
             d="m 0,0 c 0,0 0.271,1.337 -1.733,1.337 -2.004,0 -4.01,0.133 -4.01,0.133 0,0 -2.01,-0.003 -2.276,1.736 -0.266,1.739 -0.532,4.677 -0.532,4.677 h -7.348 l -0.267,15.903 -8.558,0.136 -0.132,-15.637"
             style="fill:none;stroke:#000000;stroke-width:1;stroke-linecap:round;stroke-linejoin:round;stroke-miterlimit:10;stroke-dasharray:none;stroke-opacity:1"
             id="path150"
             inkscape:connector-curvature="0" /></g><g
           id="g152"
           transform="translate(164.4707,81.69)"><path
             d="m 0,0 -15.502,0.133 -1.334,13.765 c 0,0 -0.532,2.941 -4.275,3.074 -3.743,0.133 -54.659,-0.401 -54.659,-0.401 0,0 -3.078,-0.404 -3.209,-2.808 -0.134,-2.404 -1.468,-13.364 -1.468,-13.364 h -15.105 v 12.829 h -8.82 V -2.808 h -8.152 v -3.874 c 0,0 -0.532,-2.672 -2.403,-2.539 -1.872,0.133 -4.009,0.133 -4.009,0.133 0,0 -1.871,-0.404 -1.605,-1.739"
             style="fill:none;stroke:#000000;stroke-width:1;stroke-linecap:round;stroke-linejoin:round;stroke-miterlimit:10;stroke-dasharray:none;stroke-opacity:1"
             id="path154"
             inkscape:connector-curvature="0" /></g><g
           id="g156"
           transform="translate(78.0078,81.69)"><path
             d="m 0,0 c 0,0 0.401,-1.473 0.401,-2.273 h -18.31"
             style="fill:none;stroke:#000000;stroke-width:0.5;stroke-linecap:round;stroke-linejoin:round;stroke-miterlimit:10;stroke-dasharray:none;stroke-opacity:1"
             id="path158"
             inkscape:connector-curvature="0" /></g><g
           id="g160"
           transform="translate(68.919,82.0889)"><path
             d="M 0,0 V -2.805"
             style="fill:none;stroke:#000000;stroke-width:0.5;stroke-linecap:round;stroke-linejoin:round;stroke-miterlimit:10;stroke-dasharray:none;stroke-opacity:1"
             id="path162"
             inkscape:connector-curvature="0" /></g><g
           id="g164"
           transform="translate(112.2168,79.1509)"><path
             d="M 0,0 V 15.903 H 9.089 V 0"
             style="fill:none;stroke:#000000;stroke-width:1;stroke-linecap:round;stroke-linejoin:round;stroke-miterlimit:10;stroke-dasharray:none;stroke-opacity:1"
             id="path166"
             inkscape:connector-curvature="0" /></g><g
           id="g168"
           transform="translate(128.5215,78.7491)"><path
             d="M 0,0 H -23.92"
             style="fill:none;stroke:#000000;stroke-width:0.5;stroke-linecap:round;stroke-linejoin:round;stroke-miterlimit:10;stroke-dasharray:none;stroke-opacity:1"
             id="path170"
             inkscape:connector-curvature="0" /></g><g
           id="g172"
           transform="translate(173.4268,79.0152)"><path
             d="M 0,0 H -18.045 V 2.274"
             style="fill:none;stroke:#000000;stroke-width:0.5;stroke-linecap:round;stroke-linejoin:round;stroke-miterlimit:10;stroke-dasharray:none;stroke-opacity:1"
             id="path174"
             inkscape:connector-curvature="0" /></g><g
           id="g176"
           transform="translate(164.4707,81.69)"><path
             d="M 0,0 V -2.808"
             style="fill:none;stroke:#000000;stroke-width:0.5;stroke-linecap:round;stroke-linejoin:round;stroke-miterlimit:10;stroke-dasharray:none;stroke-opacity:1"
             id="path178"
             inkscape:connector-curvature="0" /></g><g
           id="g180"
           transform="translate(51.9463,75.0079)"><path
             d="M 0,0 9.355,-0.135 9.49,3.34"
             style="fill:none;stroke:#000000;stroke-width:0.5;stroke-linecap:round;stroke-linejoin:round;stroke-miterlimit:10;stroke-dasharray:none;stroke-opacity:1"
             id="path182"
             inkscape:connector-curvature="0" /></g><g
           id="g184"
           transform="translate(61.836,74.8731)"><path
             d="m 0,0 3.342,0.535 c 0,0 0.532,-2.002 1.202,-2.271 0.67,-0.269 2.272,1.072 2.94,1.872 0.667,0.8 0.937,1.335 0.937,1.335 0,0 -1.473,1.205 -1.205,2.406"
             style="fill:none;stroke:#000000;stroke-width:0.5;stroke-linecap:round;stroke-linejoin:round;stroke-miterlimit:10;stroke-dasharray:none;stroke-opacity:1"
             id="path186"
             inkscape:connector-curvature="0" /></g><g
           id="g188"
           transform="translate(66.1133,77.0113)"><path
             d="M 0,0 C 0,0 1.602,-1.202 3.341,-1.335"
             style="fill:none;stroke:#000000;stroke-width:0.5;stroke-linecap:round;stroke-linejoin:round;stroke-miterlimit:10;stroke-dasharray:none;stroke-opacity:1"
             id="path190"
             inkscape:connector-curvature="0" /></g><g
           id="g192"
           transform="translate(50.6114,72.0679)"><path
             d="M 0,0 H 130.833"
             style="fill:none;stroke:#000000;stroke-width:0.5;stroke-linecap:round;stroke-linejoin:round;stroke-miterlimit:10;stroke-dasharray:none;stroke-opacity:1"
             id="path194"
             inkscape:connector-curvature="0" /></g><g
           id="g196"
           transform="translate(107.2735,71.9352)"><path
             d="M 0,0 0.135,6.28"
             style="fill:none;stroke:#000000;stroke-width:0.5;stroke-linecap:round;stroke-linejoin:round;stroke-miterlimit:10;stroke-dasharray:none;stroke-opacity:1"
             id="path198"
             inkscape:connector-curvature="0" /></g><g
           id="g200"
           transform="translate(125.9844,72.4693)"><path
             d="M 0,0 -0.27,5.879"
             style="fill:none;stroke:#000000;stroke-width:0.5;stroke-linecap:round;stroke-linejoin:round;stroke-miterlimit:10;stroke-dasharray:none;stroke-opacity:1"
             id="path202"
             inkscape:connector-curvature="0" /></g><g
           id="g204"
           transform="translate(126.6494,79.2842)"><path
             d="M 0,0 C 0,0 0.531,2.138 -2.005,2.138 H -5.212"
             style="fill:none;stroke:#000000;stroke-width:0.5;stroke-linecap:round;stroke-linejoin:round;stroke-miterlimit:10;stroke-dasharray:none;stroke-opacity:1"
             id="path206"
             inkscape:connector-curvature="0" /></g><g
           id="g208"
           transform="translate(111.2842,81.4219)"><path
             d="m 0,0 h -3.744 c 0,0 -1.337,-0.939 -1.069,-1.872"
             style="fill:none;stroke:#000000;stroke-width:0.5;stroke-linecap:round;stroke-linejoin:round;stroke-miterlimit:10;stroke-dasharray:none;stroke-opacity:1"
             id="path210"
             inkscape:connector-curvature="0" /></g><g
           id="g212"
           transform="translate(80.2774,77.5479)"><path
             d="m 0,0 v 2.002 c 0,0 -0.533,1.337 -0.667,1.739"
             style="fill:none;stroke:#000000;stroke-width:0.5;stroke-linecap:round;stroke-linejoin:round;stroke-miterlimit:10;stroke-dasharray:none;stroke-opacity:1"
             id="path214"
             inkscape:connector-curvature="0" /></g><g
           id="g216"
           transform="translate(84.0215,82.0889)"><path
             d="m 0,0 2.806,-0.266 c 0,0 1.47,-1.736 0.4,-3.608"
             style="fill:none;stroke:#000000;stroke-width:0.5;stroke-linecap:round;stroke-linejoin:round;stroke-miterlimit:10;stroke-dasharray:none;stroke-opacity:1"
             id="path218"
             inkscape:connector-curvature="0" /></g><g
           id="g220"
           transform="translate(70.2569,76.3428)"><path
             d="m 0,0 31.938,-0.133 c 0,0 0.533,-2.406 -0.268,-2.941"
             style="fill:none;stroke:#000000;stroke-width:0.5;stroke-linecap:round;stroke-linejoin:round;stroke-miterlimit:10;stroke-dasharray:none;stroke-opacity:1"
             id="path222"
             inkscape:connector-curvature="0" /></g><g
           id="g224"
           transform="translate(87.2285,78.2149)"><path
             d="M 0,0 -0.269,-1.872"
             style="fill:none;stroke:#000000;stroke-width:0.5;stroke-linecap:round;stroke-linejoin:round;stroke-miterlimit:10;stroke-dasharray:none;stroke-opacity:1"
             id="path226"
             inkscape:connector-curvature="0" /></g><g
           id="g228"
           transform="translate(69.3203,75.0079)"><path
             d="M 0,0 32.742,-0.135"
             style="fill:none;stroke:#000000;stroke-width:0.5;stroke-linecap:round;stroke-linejoin:round;stroke-miterlimit:10;stroke-dasharray:none;stroke-opacity:1"
             id="path230"
             inkscape:connector-curvature="0" /></g><g
           id="g232"
           transform="translate(63.3057,74.7403)"><path
             d="M 0,0 C 0,0 0.266,-1.739 -0.534,-2.539"
             style="fill:none;stroke:#000000;stroke-width:0.5;stroke-linecap:round;stroke-linejoin:round;stroke-miterlimit:10;stroke-dasharray:none;stroke-opacity:1"
             id="path234"
             inkscape:connector-curvature="0" /></g><g
           id="g236"
           transform="translate(61.3008,74.8731)"><path
             d="M 0,0 C 0,0 -0.399,-2.138 -1.334,-2.672"
             style="fill:none;stroke:#000000;stroke-width:0.5;stroke-linecap:round;stroke-linejoin:round;stroke-miterlimit:10;stroke-dasharray:none;stroke-opacity:1"
             id="path238"
             inkscape:connector-curvature="0" /></g><g
           id="g240"
           transform="translate(102.5977,72.4693)"><path
             d="M 0,0 C 1.47,0.936 2.004,2.539 2.004,2.539 L 4.544,2.27 23.249,2.137"
             style="fill:none;stroke:#000000;stroke-width:0.5;stroke-linecap:round;stroke-linejoin:round;stroke-miterlimit:10;stroke-dasharray:none;stroke-opacity:1"
             id="path242"
             inkscape:connector-curvature="0" /></g><g
           id="g244"
           transform="translate(104.6016,78.7491)"><path
             d="M 0,0 -16.839,0.269 -29.134,-2.406"
             style="fill:none;stroke:#000000;stroke-width:0.5;stroke-linecap:round;stroke-linejoin:round;stroke-miterlimit:10;stroke-dasharray:none;stroke-opacity:1"
             id="path246"
             inkscape:connector-curvature="0" /></g><g
           id="g248"
           transform="translate(78.4092,79.417)"><path
             d="M 0,0 C 0,0 0.534,-2.002 0.534,-2.404"
             style="fill:none;stroke:#000000;stroke-width:0.5;stroke-linecap:round;stroke-linejoin:round;stroke-miterlimit:10;stroke-dasharray:none;stroke-opacity:1"
             id="path250"
             inkscape:connector-curvature="0" /></g><g
           id="g252"
           transform="translate(104.6016,75.0079)"><path
             d="M 0,0 V 3.074"
             style="fill:none;stroke:#000000;stroke-width:0.5;stroke-linecap:round;stroke-linejoin:round;stroke-miterlimit:10;stroke-dasharray:none;stroke-opacity:1"
             id="path254"
             inkscape:connector-curvature="0" /></g><g
           id="g256"
           transform="translate(102.1953,76.21)"><path
             d="M 0,0 C 0,0 1.602,0.399 2.271,1.069"
             style="fill:none;stroke:#000000;stroke-width:0.5;stroke-linecap:round;stroke-linejoin:round;stroke-miterlimit:10;stroke-dasharray:none;stroke-opacity:1"
             id="path258"
             inkscape:connector-curvature="0" /></g><g
           id="g260"
           transform="translate(129.4317,78.9703)"><path
             d="M 0,0 H 16.07"
             style="fill:none;stroke:#000000;stroke-width:0.5;stroke-linecap:round;stroke-linejoin:round;stroke-miterlimit:10;stroke-dasharray:none;stroke-opacity:1"
             id="path262"
             inkscape:connector-curvature="0" /></g><g
           id="g264"
           transform="translate(146.4366,81.6661)"><path
             d="M 0,0 2.532,0.157"
             style="fill:none;stroke:#000000;stroke-width:0.5;stroke-linecap:round;stroke-linejoin:round;stroke-miterlimit:10;stroke-dasharray:none;stroke-opacity:1"
             id="path266"
             inkscape:connector-curvature="0" /></g><g
           id="g268"
           transform="translate(145.709,79.6963)"><path
             d="M 0,0 C 1.659,0 8.816,-0.104 8.816,-0.104 L 9.019,-2.593"
             style="fill:none;stroke:#000000;stroke-width:0.5;stroke-linecap:round;stroke-linejoin:round;stroke-miterlimit:10;stroke-dasharray:none;stroke-opacity:1"
             id="path270"
             inkscape:connector-curvature="0" /></g><g
           id="g272"
           transform="translate(146.4366,81.6661)"><path
             d="m 0,0 c 0,0 -1.244,-0.829 -1.036,-1.555 0.207,-0.726 0.308,-1.556 0.308,-1.556 l 11.514,-2.074"
             style="fill:none;stroke:#000000;stroke-width:0.5;stroke-linecap:round;stroke-linejoin:round;stroke-miterlimit:10;stroke-dasharray:none;stroke-opacity:1"
             id="path274"
             inkscape:connector-curvature="0" /></g><g
           id="g276"
           transform="translate(145.916,76.792)"><path
             d="M 0,0 0.416,1.452"
             style="fill:none;stroke:#000000;stroke-width:0.5;stroke-linecap:round;stroke-linejoin:round;stroke-miterlimit:10;stroke-dasharray:none;stroke-opacity:1"
             id="path278"
             inkscape:connector-curvature="0" /></g><g
           id="g280"
           transform="translate(153.9033,81.044)"><path
             d="m 0,0 c 0,0 -0.729,-1.037 -0.729,-1.452 0,-0.415 -0.207,-2.281 -0.207,-2.281"
             style="fill:none;stroke:#000000;stroke-width:0.5;stroke-linecap:round;stroke-linejoin:round;stroke-miterlimit:10;stroke-dasharray:none;stroke-opacity:1"
             id="path282"
             inkscape:connector-curvature="0" /></g><g
           id="g284"
           transform="translate(128.8086,78.2442)"><path
             d="m 0,0 v -3.318 c 0,0 0.83,-1.97 1.659,-2.281"
             style="fill:none;stroke:#000000;stroke-width:0.5;stroke-linecap:round;stroke-linejoin:round;stroke-miterlimit:10;stroke-dasharray:none;stroke-opacity:1"
             id="path286"
             inkscape:connector-curvature="0" /></g><g
           id="g288"
           transform="translate(129.0166,77.4151)"><path
             d="m 0,0 2.074,-0.934 36.187,0.208"
             style="fill:none;stroke:#000000;stroke-width:0.5;stroke-linecap:round;stroke-linejoin:round;stroke-miterlimit:10;stroke-dasharray:none;stroke-opacity:1"
             id="path290"
             inkscape:connector-curvature="0" /></g><g
           id="g292"
           transform="translate(86.1836,95.565)"><path
             d="M 0,0 H 60.877"
             style="fill:none;stroke:#000000;stroke-width:0.5;stroke-linecap:round;stroke-linejoin:round;stroke-miterlimit:10;stroke-dasharray:none;stroke-opacity:1"
             id="path294"
             inkscape:connector-curvature="0" /></g><g
           id="g296"
           transform="translate(65.6504,75.3409)"><path
             d="M 0,0 -0.103,3.111"
             style="fill:none;stroke:#000000;stroke-width:0.5;stroke-linecap:round;stroke-linejoin:round;stroke-miterlimit:10;stroke-dasharray:none;stroke-opacity:1"
             id="path298"
             inkscape:connector-curvature="0" /></g><g
           id="g300"
           transform="translate(67.4151,78.6592)"><path
             d="M 0,0 -1.765,-1.867"
             style="fill:none;stroke:#000000;stroke-width:0.5;stroke-linecap:round;stroke-linejoin:round;stroke-miterlimit:10;stroke-dasharray:none;stroke-opacity:1"
             id="path302"
             inkscape:connector-curvature="0" /></g><g
           id="g304"
           transform="translate(131.3975,72.7481)"><path
             d="M 0,0 -0.307,3.733"
             style="fill:none;stroke:#000000;stroke-width:0.5;stroke-linecap:round;stroke-linejoin:round;stroke-miterlimit:10;stroke-dasharray:none;stroke-opacity:1"
             id="path306"
             inkscape:connector-curvature="0" /></g><g
           id="g308"
           transform="translate(161.0567,76.17)"><path
             d="m 0,0 c -0.622,-0.311 2.079,-1.452 2.803,-1.348 l -35.465,0.311 -1.973,-0.519"
             style="fill:none;stroke:#000000;stroke-width:0.5;stroke-linecap:round;stroke-linejoin:round;stroke-miterlimit:10;stroke-dasharray:none;stroke-opacity:1"
             id="path310"
             inkscape:connector-curvature="0" /></g><g
           id="g312"
           transform="translate(173.293,72.333)"><path
             d="M 0,0 C 0,0 -1.659,1.556 -1.659,2.489 V 6.326"
             style="fill:none;stroke:#000000;stroke-width:0.5;stroke-linecap:round;stroke-linejoin:round;stroke-miterlimit:10;stroke-dasharray:none;stroke-opacity:1"
             id="path314"
             inkscape:connector-curvature="0" /></g><g
           id="g316"
           transform="translate(167.5869,75.4449)"><path
             d="m 0,0 0.936,-0.104 0.623,-0.208 1.552,-0.104 0.937,-0.208 h 9.024"
             style="fill:none;stroke:#000000;stroke-width:0.5;stroke-linecap:round;stroke-linejoin:round;stroke-miterlimit:10;stroke-dasharray:none;stroke-opacity:1"
             id="path318"
             inkscape:connector-curvature="0" /></g><g
           id="g320"
           transform="translate(163.8584,74.8223)"><path
             d="M 0,0 C 0,0 2.584,0.104 3.729,0.623"
             style="fill:none;stroke:#000000;stroke-width:0.5;stroke-linecap:round;stroke-linejoin:round;stroke-miterlimit:10;stroke-dasharray:none;stroke-opacity:1"
             id="path322"
             inkscape:connector-curvature="0" /></g><g
           id="g324"
           transform="translate(167.2774,76.689)"><path
             d="M 0,0 C 0,0 -2.181,-1.452 -3.425,-1.452"
             style="fill:none;stroke:#000000;stroke-width:0.5;stroke-linecap:round;stroke-linejoin:round;stroke-miterlimit:10;stroke-dasharray:none;stroke-opacity:1"
             id="path326"
             inkscape:connector-curvature="0" /></g><g
           id="g328"
           transform="translate(170.1826,74.9258)"><path
             d="M 0,0 C 0,0 -0.628,-2.281 0.309,-2.696"
             style="fill:none;stroke:#000000;stroke-width:0.5;stroke-linecap:round;stroke-linejoin:round;stroke-miterlimit:10;stroke-dasharray:none;stroke-opacity:1"
             id="path330"
             inkscape:connector-curvature="0" /></g></g></g><g
       id="g332"
       transform="translate(116.8235,146.6893)"><path
         d="M 0,0 0.547,-53.407"
         style="fill:none;stroke:#ffffff;stroke-width:3;stroke-linecap:round;stroke-linejoin:miter;stroke-miterlimit:4;stroke-dasharray:none;stroke-opacity:1"
         id="path334"
         inkscape:connector-curvature="0" /></g><g
       id="g336"
       transform="translate(117.3706,93.2819)"><path
         d="M 0,0 V 0"
         style="fill:none;stroke:#ffffff;stroke-width:3.75;stroke-linecap:round;stroke-linejoin:miter;stroke-miterlimit:4;stroke-dasharray:none;stroke-opacity:1"
         id="path338"
         inkscape:connector-curvature="0" /></g><g
       id="g340"
       transform="translate(116.8235,146.6893)"><path
         d="M 0,0 0.547,-53.407"
         style="fill:none;stroke:#000000;stroke-width:0.5;stroke-linecap:round;stroke-linejoin:miter;stroke-miterlimit:4;stroke-dasharray:none;stroke-opacity:1"
         id="path342"
         inkscape:connector-curvature="0" /></g><g
       id="g344"
       transform="translate(117.3706,93.2819)"><path
         d="M 0,0 V 0"
         style="fill:none;stroke:#000000;stroke-width:1.5;stroke-linecap:round;stroke-linejoin:miter;stroke-miterlimit:4;stroke-dasharray:none;stroke-opacity:1"
         id="path346"
         inkscape:connector-curvature="0" /></g><text
       transform="matrix(1,0,0,-1,113.7407,150.3735)"
       style="font-variant:normal;font-weight:bold;font-stretch:normal;font-size:10px;font-family:'Swiss 721 SWA';-inkscape-font-specification:Helvetica-Bold;writing-mode:lr-tb;fill:#000000;fill-opacity:1;fill-rule:nonzero;stroke:none"
       id="text350"><tspan
         x="0"
         y="0"
         id="tspan348">1</tspan></text>
<g
       id="g352"
       transform="translate(122.9841,140.426)"><path
         d="M 0,0 45.669,-47.726"
         style="fill:none;stroke:#ffffff;stroke-width:3;stroke-linecap:round;stroke-linejoin:miter;stroke-miterlimit:4;stroke-dasharray:none;stroke-opacity:1"
         id="path354"
         inkscape:connector-curvature="0" /></g><g
       id="g356"
       transform="translate(168.6527,92.7003)"><path
         d="M 0,0 V 0"
         style="fill:none;stroke:#ffffff;stroke-width:3.75;stroke-linecap:round;stroke-linejoin:miter;stroke-miterlimit:4;stroke-dasharray:none;stroke-opacity:1"
         id="path358"
         inkscape:connector-curvature="0" /></g><g
       id="g360"
       transform="translate(116.8127,146.5974)"><path
         d="M 0,0 51.84,-53.897"
         style="fill:none;stroke:#000000;stroke-width:0.5;stroke-linecap:round;stroke-linejoin:miter;stroke-miterlimit:4;stroke-dasharray:none;stroke-opacity:1"
         id="path362"
         inkscape:connector-curvature="0" /></g><g
       id="g364"
       transform="translate(168.6527,92.7003)"><path
         d="M 0,0 V 0"
         style="fill:none;stroke:#000000;stroke-width:1.5;stroke-linecap:round;stroke-linejoin:miter;stroke-miterlimit:4;stroke-dasharray:none;stroke-opacity:1"
         id="path366"
         inkscape:connector-curvature="0" /></g><g
       id="g368"
       transform="translate(109.8184,139.3974)"><path
         d="M 0,0 -45.48,-46.779"
         style="fill:none;stroke:#ffffff;stroke-width:3;stroke-linecap:round;stroke-linejoin:miter;stroke-miterlimit:4;stroke-dasharray:none;stroke-opacity:1"
         id="path370"
         inkscape:connector-curvature="0" /></g><g
       id="g372"
       transform="translate(64.3387,92.6184)"><path
         d="M 0,0 V 0"
         style="fill:none;stroke:#ffffff;stroke-width:3.75;stroke-linecap:round;stroke-linejoin:miter;stroke-miterlimit:4;stroke-dasharray:none;stroke-opacity:1"
         id="path374"
         inkscape:connector-curvature="0" /></g><g
       id="g376"
       transform="translate(116.607,146.3917)"><path
         d="M 0,0 -52.268,-53.773"
         style="fill:none;stroke:#000000;stroke-width:0.5;stroke-linecap:round;stroke-linejoin:miter;stroke-miterlimit:4;stroke-dasharray:none;stroke-opacity:1"
         id="path378"
         inkscape:connector-curvature="0" /></g><g
       id="g380"
       transform="translate(64.3387,92.6184)"><path
         d="M 0,0 V 0"
         style="fill:none;stroke:#000000;stroke-width:1.5;stroke-linecap:round;stroke-linejoin:miter;stroke-miterlimit:4;stroke-dasharray:none;stroke-opacity:1"
         id="path382"
         inkscape:connector-curvature="0" /></g></g></svg>