<?xml version="1.0" encoding="UTF-8" standalone="no"?>
<!-- Created with Inkscape (http://www.inkscape.org/) -->

<svg
   xmlns:dc="http://purl.org/dc/elements/1.1/"
   xmlns:cc="http://creativecommons.org/ns#"
   xmlns:rdf="http://www.w3.org/1999/02/22-rdf-syntax-ns#"
   xmlns:svg="http://www.w3.org/2000/svg"
   xmlns="http://www.w3.org/2000/svg"
   xmlns:sodipodi="http://sodipodi.sourceforge.net/DTD/sodipodi-0.dtd"
   xmlns:inkscape="http://www.inkscape.org/namespaces/inkscape"
   id="svg6098"
   version="1.1"
   inkscape:version="0.91 r13725"
   xml:space="preserve"
   width="301.18124"
   height="230.315"
   viewBox="0 0 301.18124 230.315"
   sodipodi:docname="cjqz.svg"><metadata
     id="metadata6104"><rdf:RDF><cc:Work
         rdf:about=""><dc:format>image/svg+xml</dc:format><dc:type
           rdf:resource="http://purl.org/dc/dcmitype/StillImage" /><dc:title></dc:title></cc:Work></rdf:RDF></metadata><defs
     id="defs6102"><clipPath
       clipPathUnits="userSpaceOnUse"
       id="clipPath6112"><path
         d="M 0,184.252 0,7.25 l 10.249,0 0,-7.25 230.696,0 0,184.252 -240.945,0 z"
         id="path6114"
         inkscape:connector-curvature="0" /></clipPath></defs><sodipodi:namedview
     pagecolor="#ffffff"
     bordercolor="#666666"
     borderopacity="1"
     objecttolerance="10"
     gridtolerance="10"
     guidetolerance="10"
     inkscape:pageopacity="0"
     inkscape:pageshadow="2"
     inkscape:window-width="640"
     inkscape:window-height="480"
     id="namedview6100"
     showgrid="false"
     inkscape:zoom="3.4517942"
     inkscape:cx="150.59062"
     inkscape:cy="115.1575"
     inkscape:window-x="0"
     inkscape:window-y="0"
     inkscape:window-maximized="1"
     inkscape:current-layer="g6106" /><g
     id="g6106"
     inkscape:groupmode="layer"
     inkscape:label="cjqz"
     transform="matrix(1.25,0,0,-1.25,0,230.315)"><g
       id="g6108"><g
         id="g6110"
         clip-path="url(#clipPath6112)"><g
           id="g6116"
           transform="translate(-10.4893,37.2656)"><path
             d="m 0,0 56.745,-4.04 c 0,0 5.273,2.558 8.869,3.151 3.596,0.594 13.514,-1.137 20.252,-1.734 6.738,-0.597 7.758,0.464 12.641,0.477 4.883,0.012 8.993,-0.225 12.641,-1.193 3.649,-0.968 9.302,-5.237 9.302,-5.237 l 107.332,-7.643 c 0,0 0.717,2.624 8.349,1.908 7.632,-0.715 10.018,-0.955 12.88,0.715 2.861,1.67 7.87,2.386 7.87,2.386"
             style="fill:none;stroke:#000000;stroke-width:0.5;stroke-linecap:round;stroke-linejoin:round;stroke-miterlimit:10;stroke-dasharray:none;stroke-opacity:1"
             id="path6118"
             inkscape:connector-curvature="0" /></g><g
           id="g6120"
           transform="translate(46.2554,33.2256)"><path
             d="m 0,0 c 0.912,-1.641 4.911,-2.307 9.245,-2.474 4.333,-0.167 5,-0.668 11.167,-1.334 6.166,-0.666 6.333,-0.166 13,-0.666 6.666,-0.5 8.166,-0.5 13.166,-1.167 5,-0.667 17.089,-2.958 17.128,1.105"
             style="fill:none;stroke:#000000;stroke-width:0.25;stroke-linecap:round;stroke-linejoin:round;stroke-miterlimit:10;stroke-dasharray:none;stroke-opacity:1"
             id="path6122"
             inkscape:connector-curvature="0" /></g><g
           id="g6124"
           transform="translate(217.293,21.0469)"><path
             d="m 0,0 c -0.126,-1.962 1.374,-2.628 4.874,-2.628 3.5,0 8.166,-0.334 10.333,-0.334 l 13.334,0"
             style="fill:none;stroke:#000000;stroke-width:0.25;stroke-linecap:round;stroke-linejoin:round;stroke-miterlimit:10;stroke-dasharray:none;stroke-opacity:1"
             id="path6126"
             inkscape:connector-curvature="0" /></g><g
           id="g6128"
           transform="translate(39.001,65.374)"><path
             d="m 0,0 c -11.295,0.435 -18.751,0.711 -19.501,0.711 -3.333,0 -3.5,6.167 -4,11.5 -0.5,5.333 -1.333,38.167 -1.5,42.667 -0.166,4.5 -2.333,5.5 -6.166,5.666 -3.834,0.167 -12,0.334 -12,0.334"
             style="fill:none;stroke:#000000;stroke-width:1;stroke-linecap:round;stroke-linejoin:round;stroke-miterlimit:10;stroke-dasharray:none;stroke-opacity:1"
             id="path6130"
             inkscape:connector-curvature="0" /></g><g
           id="g6132"
           transform="translate(77.9697,64.8799)"><path
             d="M 0,0 C -5.093,0.193 -10.089,0.385 -14.95,0.575"
             style="fill:none;stroke:#000000;stroke-width:0.5;stroke-linecap:round;stroke-linejoin:round;stroke-miterlimit:10;stroke-dasharray:none;stroke-opacity:1"
             id="path6134"
             inkscape:connector-curvature="0" /></g><g
           id="g6136"
           transform="translate(112.5,63.5625)"><path
             d="M 0,0 C -11.69,0.458 -23.342,0.894 -34.53,1.317"
             style="fill:none;stroke:#000000;stroke-width:0.5;stroke-linecap:round;stroke-linejoin:round;stroke-miterlimit:10;stroke-dasharray:none;stroke-opacity:1"
             id="path6138"
             inkscape:connector-curvature="0" /></g><g
           id="g6140"
           transform="translate(112.0762,60.4854)"><path
             d="M 0,0 C -11.691,0.458 -23.343,0.894 -34.531,1.317"
             style="fill:none;stroke:#000000;stroke-width:1;stroke-linecap:round;stroke-linejoin:round;stroke-miterlimit:10;stroke-dasharray:none;stroke-opacity:1"
             id="path6142"
             inkscape:connector-curvature="0" /></g><g
           id="g6144"
           transform="translate(147.334,61.168)"><path
             d="M 0,0 C 0,0 -0.084,-4.249 -0.167,-5.916 -0.25,-7.583 -1,-8.749 -2.75,-8.666 c -1.75,0.083 -24.437,0.924 -27.103,1.257 -2.666,0.333 -3.25,1.5 -3.25,3.333 0,0.574 -1.964,1.588 -1.942,2.376 0.05,1.726 0.128,3.534 0.128,3.534"
             style="fill:none;stroke:#000000;stroke-width:1;stroke-linecap:round;stroke-linejoin:round;stroke-miterlimit:10;stroke-dasharray:none;stroke-opacity:1"
             id="path6146"
             inkscape:connector-curvature="0" /></g><g
           id="g6148"
           transform="translate(112.5,63.335)"><path
             d="m 0,0 4.25,-0.083 c 0,0 -0.084,2.916 0.25,6.333 0.334,3.417 1.583,4.416 5.5,4.333 3.917,-0.083 11.416,-0.5 14.25,-0.833 2.834,-0.333 4.25,-2.499 4.25,-5.583 0,-3.084 -0.087,-6.078 -0.087,-6.078 17.515,-0.689 29.754,-1.172 29.754,-1.172 0,0 0.333,3.167 0.5,7.667 0.167,4.5 2.5,70.166 2.666,73.833 0.166,3.666 3.167,3.166 7.167,3.166 4,0 19.833,-0.5 26.167,-1 6.334,-0.5 8.166,-1 13.166,-1.166 5,-0.167 8.834,4 9.167,9.5 0.333,5.5 1.667,35.333 1.667,35.333"
             style="fill:none;stroke:#000000;stroke-width:1;stroke-linecap:round;stroke-linejoin:round;stroke-miterlimit:10;stroke-dasharray:none;stroke-opacity:1"
             id="path6150"
             inkscape:connector-curvature="0" /></g><g
           id="g6152"
           transform="translate(116.75,63.252)"><path
             d="M 0,0 C 0,0 0.125,-4.125 3.25,-5.25"
             style="fill:none;stroke:#000000;stroke-width:0.5;stroke-linecap:round;stroke-linejoin:round;stroke-miterlimit:10;stroke-dasharray:none;stroke-opacity:1"
             id="path6154"
             inkscape:connector-curvature="0" /></g><g
           id="g6156"
           transform="translate(140.9131,61.4238)"><path
             d="M 0,0 C 0,0 -0.788,-4.214 -4.038,-4.089"
             style="fill:none;stroke:#000000;stroke-width:0.5;stroke-linecap:round;stroke-linejoin:round;stroke-miterlimit:10;stroke-dasharray:none;stroke-opacity:1"
             id="path6158"
             inkscape:connector-curvature="0" /></g><g
           id="g6160"
           transform="translate(63.875,64.252)"><path
             d="m 0,0 c -0.125,-1.625 -0.375,-2.625 -3.875,-2.625 -3.5,0 -14.375,0.25 -17.25,0.25 -2.875,0 -3.25,1.875 -3.625,5.5 -0.375,3.625 -2.125,24.25 -2.125,27.375 0,3.125 2.125,6.375 1.375,6.75"
             style="fill:none;stroke:#000000;stroke-width:1;stroke-linecap:round;stroke-linejoin:round;stroke-miterlimit:10;stroke-dasharray:none;stroke-opacity:1"
             id="path6162"
             inkscape:connector-curvature="0" /></g><g
           id="g6164"
           transform="translate(89.2349,80.6831)"><path
             d="m 0,0 c 0,0 -1.549,0.775 -1.463,2.324 0.086,1.55 -0.172,9.383 -0.172,13.514 0,4.131 -0.603,10.557 -0.603,10.557 l 3.357,-0.056 c 0,0 0.172,-5.939 0.172,-6.714 0,-0.775 -2.152,-7.402 -2.065,-13.427 0.086,-6.025 1.807,-7.231 1.807,-7.231 l 30.47,-0.774 0.086,1.549 c -0.602,0.429 -1.119,4.476 -0.257,8.177 0.861,3.701 2.151,8.435 2.237,10.243 0.086,1.808 0.087,7.144 0.087,7.144 L 36.84,25.22 c 0,0 0.086,-7.746 0,-10.759 -0.086,-3.013 -0.43,-11.793 -0.516,-14.03 -0.086,-2.238 -1.119,-2.755 -3.099,-2.669 -1.979,0.086 -22.293,0.892 -22.293,0.892"
             style="fill:none;stroke:#000000;stroke-width:1;stroke-linecap:round;stroke-linejoin:round;stroke-miterlimit:10;stroke-dasharray:none;stroke-opacity:1"
             id="path6166"
             inkscape:connector-curvature="0" /></g><g
           id="g6168"
           transform="translate(122.2881,99.7056)"><path
             d="M 0,0 -30.987,0.517"
             style="fill:none;stroke:#000000;stroke-width:0.5;stroke-linecap:round;stroke-linejoin:round;stroke-miterlimit:10;stroke-dasharray:none;stroke-opacity:1"
             id="path6170"
             inkscape:connector-curvature="0" /></g><g
           id="g6172"
           transform="translate(121.7715,97.9839)"><path
             d="M 0,0 -30.987,0.517"
             style="fill:none;stroke:#000000;stroke-width:0.5;stroke-linecap:round;stroke-linejoin:round;stroke-miterlimit:10;stroke-dasharray:none;stroke-opacity:1"
             id="path6174"
             inkscape:connector-curvature="0" /></g><g
           id="g6176"
           transform="translate(126.167,94.252)"><path
             d="M 0,0 -4,0.167"
             style="fill:none;stroke:#000000;stroke-width:1;stroke-linecap:round;stroke-linejoin:round;stroke-miterlimit:10;stroke-dasharray:none;stroke-opacity:1"
             id="path6178"
             inkscape:connector-curvature="0" /></g><g
           id="g6180"
           transform="translate(89.667,96.752)"><path
             d="M 0,0 -2.067,-0.231"
             style="fill:none;stroke:#000000;stroke-width:1;stroke-linecap:round;stroke-linejoin:round;stroke-miterlimit:10;stroke-dasharray:none;stroke-opacity:1"
             id="path6182"
             inkscape:connector-curvature="0" /></g><g
           id="g6184"
           transform="translate(126.834,95.252)"><path
             d="m 0,0 c 0,0 14.167,-0.833 18.5,-0.833 4.333,0 7.332,4.333 8.166,13.666 0.834,9.334 1.834,25 2.334,29.167 0.5,4.167 2.334,6 6.5,5.833 4.166,-0.166 11.166,-0.5 11.166,-0.5"
             style="fill:none;stroke:#000000;stroke-width:0.5;stroke-linecap:round;stroke-linejoin:round;stroke-miterlimit:10;stroke-dasharray:none;stroke-opacity:1"
             id="path6186"
             inkscape:connector-curvature="0" /></g><g
           id="g6188"
           transform="translate(149.334,95.4185)"><path
             d="m 0,0 c 5,4.167 6.688,10.673 7.203,16.43 0.515,5.757 1.443,22.838 1.752,25.408 0.309,2.57 1.44,3.702 4.009,3.599 2.569,-0.104 11.202,-0.77 11.202,-0.77"
             style="fill:none;stroke:#000000;stroke-width:0.5;stroke-linecap:round;stroke-linejoin:round;stroke-miterlimit:10;stroke-dasharray:none;stroke-opacity:1"
             id="path6190"
             inkscape:connector-curvature="0" /></g><g
           id="g6192"
           transform="translate(146,95.502)"><path
             d="m 0,0 c -0.75,12.25 -0.75,35.25 0.5,44.25 1.25,9 7.25,11.25 15,11.25 7.75,0 52.5,-1.75 56.25,-1.75 3.75,0 5.25,0.25 5.5,6 0.25,5.75 1.25,33.5 1.25,33.5"
             style="fill:none;stroke:#000000;stroke-width:0.5;stroke-linecap:round;stroke-linejoin:round;stroke-miterlimit:10;stroke-dasharray:none;stroke-opacity:1"
             id="path6194"
             inkscape:connector-curvature="0" /></g><g
           id="g6196"
           transform="translate(150.25,97.252)"><path
             d="m 0,0 c -0.638,10.408 -1.174,32.306 -0.111,39.953 1.062,7.647 6.16,9.559 12.745,9.559 6.585,0 53.444,-2.324 56.63,-2.324 4.202,0 8.125,2.24 8.424,9.099 C 77.9,61.172 78.75,91.5 78.75,91.5"
             style="fill:none;stroke:#000000;stroke-width:0.5;stroke-linecap:round;stroke-linejoin:round;stroke-miterlimit:10;stroke-dasharray:none;stroke-opacity:1"
             id="path6198"
             inkscape:connector-curvature="0" /></g><g
           id="g6200"
           transform="translate(86.25,96.502)"><path
             d="m 0,0 -24.5,0.75 c 0,0 0.233,-21.164 0.233,-25.753 0,-4.589 -0.147,-6.956 0.593,-7.104"
             style="fill:none;stroke:#000000;stroke-width:0.5;stroke-linecap:round;stroke-linejoin:round;stroke-miterlimit:10;stroke-dasharray:none;stroke-opacity:1"
             id="path6202"
             inkscape:connector-curvature="0" /></g><g
           id="g6204"
           transform="translate(38.75,100.6001)"><path
             d="m 0,0 c 0.884,0.648 1.179,1.826 4.301,1.826 l 13.905,0 c 1.826,0 4.344,-1.334 4.794,-5.174"
             style="fill:none;stroke:#000000;stroke-width:0.5;stroke-linecap:round;stroke-linejoin:round;stroke-miterlimit:10;stroke-dasharray:none;stroke-opacity:1"
             id="path6206"
             inkscape:connector-curvature="0" /></g><g
           id="g6208"
           transform="translate(37.8335,98.3354)"><path
             d="m 0,0 c 1,1.417 2,2 4.5,2 l 13.75,0 c 3.333,0 4.083,-2.667 4.167,-4.417 0.083,-1.75 1,-27.666 1,-29.5 0,-1.833 2.25,-2.666 2.25,-2.666"
             style="fill:none;stroke:#000000;stroke-width:0.5;stroke-linecap:round;stroke-linejoin:round;stroke-miterlimit:10;stroke-dasharray:none;stroke-opacity:1"
             id="path6210"
             inkscape:connector-curvature="0" /></g><g
           id="g6212"
           transform="translate(43.1543,67.9844)"><path
             d="m 0,0 c -0.561,0.01 -1.024,0.442 -1.072,1.002 l -1.895,22.062 c -0.027,0.308 0.078,0.613 0.288,0.839 0.211,0.227 0.507,0.354 0.816,0.35 l 11.888,-0.14 c 0.561,-0.007 1.026,-0.436 1.078,-0.995 L 13.149,0.985 C 13.178,0.676 13.074,0.367 12.862,0.14 12.65,-0.089 12.351,-0.217 12.039,-0.211 L 0,0 Z"
             style="fill:none;stroke:#000000;stroke-width:0.5;stroke-linecap:round;stroke-linejoin:round;stroke-miterlimit:10;stroke-dasharray:none;stroke-opacity:1"
             id="path6214"
             inkscape:connector-curvature="0" /></g><g
           id="g6216"
           transform="translate(55.167,99.9185)"><path
             d="M 0,0 C -0.667,-2.667 -0.334,-5.167 -2.667,-5.333 -5,-5.5 -11,-5.167 -13.833,-5.167 c -2.834,0 -2.834,1.667 -1.667,4.667"
             style="fill:none;stroke:#000000;stroke-width:0.5;stroke-linecap:round;stroke-linejoin:round;stroke-miterlimit:10;stroke-dasharray:none;stroke-opacity:1"
             id="path6218"
             inkscape:connector-curvature="0" /></g><g
           id="g6220"
           transform="translate(60.25,95.9185)"><path
             d="m 0,0 c 0,0 -3.25,-4.333 -3.083,-6.333 0.166,-2 1.5,-20 1.833,-21.834 0.333,-1.833 1.667,-5.167 4.167,-5.333"
             style="fill:none;stroke:#000000;stroke-width:0.5;stroke-linecap:round;stroke-linejoin:round;stroke-miterlimit:10;stroke-dasharray:none;stroke-opacity:1"
             id="path6222"
             inkscape:connector-curvature="0" /></g><g
           id="g6224"
           transform="translate(-2.333,148.9185)"><path
             d="m 0,0 c 2.167,-2.833 3.167,-4 7.5,-4.333 4.333,-0.334 14.833,0 17.833,0 3,0 4.667,-2.167 4.834,-5.334 0.166,-3.166 -0.167,-9.666 0.666,-20.666 0.834,-11 3.333,-20.5 5.5,-20.5 l 2.834,0"
             style="fill:none;stroke:#000000;stroke-width:0.5;stroke-linecap:round;stroke-linejoin:round;stroke-miterlimit:10;stroke-dasharray:none;stroke-opacity:1"
             id="path6226"
             inkscape:connector-curvature="0" /></g><g
           id="g6228"
           transform="translate(-1.833,150.4185)"><path
             d="m 0,0 c 2,-1.833 1.333,-2.167 5,-2.167 l 16.667,0 c 4.333,0 10,-2.5 10.333,-9.833 0.333,-7.333 3,-31.833 2.5,-38.5"
             style="fill:none;stroke:#000000;stroke-width:0.5;stroke-linecap:round;stroke-linejoin:round;stroke-miterlimit:10;stroke-dasharray:none;stroke-opacity:1"
             id="path6230"
             inkscape:connector-curvature="0" /></g><g
           id="g6232"
           transform="translate(-6.2451,154.0815)"><path
             d="m 0,0 c 2.466,-2.26 1.645,-2.67 6.163,-2.67 l 20.543,0 c 5.342,0 12.327,-3.082 12.737,-12.121 0.411,-9.039 2.252,-31.822 1.636,-40.039"
             style="fill:none;stroke:#000000;stroke-width:0.5;stroke-linecap:round;stroke-linejoin:round;stroke-miterlimit:10;stroke-dasharray:none;stroke-opacity:1"
             id="path6234"
             inkscape:connector-curvature="0" /></g><g
           id="g6236"
           transform="translate(16,72.252)"><path
             d="M 0,0 -21.667,1.333"
             style="fill:none;stroke:#000000;stroke-width:0.5;stroke-linecap:round;stroke-linejoin:round;stroke-miterlimit:10;stroke-dasharray:none;stroke-opacity:1"
             id="path6238"
             inkscape:connector-curvature="0" /></g><g
           id="g6240"
           transform="translate(171.5,66.252)"><path
             d="m 0,0 c 0,0 25.25,-1 29.25,-1 4,0 5.75,1.5 8,3.75 C 39.5,5 40,6 40.5,9.5 41,13 46.75,76.25 46.75,76.25"
             style="fill:none;stroke:#000000;stroke-width:0.5;stroke-linecap:round;stroke-linejoin:round;stroke-miterlimit:10;stroke-dasharray:none;stroke-opacity:1"
             id="path6242"
             inkscape:connector-curvature="0" /></g><g
           id="g6244"
           transform="translate(213.8955,142.8848)"><path
             d="m 0,0 c 0,0 -5.021,-62.554 -5.563,-67.303 -0.543,-4.749 -1.221,-9.362 -4.885,-10.176"
             style="fill:none;stroke:#000000;stroke-width:0.25;stroke-linecap:round;stroke-linejoin:round;stroke-miterlimit:10;stroke-dasharray:none;stroke-opacity:1"
             id="path6246"
             inkscape:connector-curvature="0" /></g><g
           id="g6248"
           transform="translate(190.1494,65.541)"><path
             d="M 0,0 C 13.568,-21.71 25.781,-44.099 25.781,-44.099"
             style="fill:none;stroke:#000000;stroke-width:0.5;stroke-linecap:round;stroke-linejoin:round;stroke-miterlimit:10;stroke-dasharray:none;stroke-opacity:1"
             id="path6250"
             inkscape:connector-curvature="0" /></g><g
           id="g6252"
           transform="translate(178.8877,65.6768)"><path
             d="M 0,0 C 13.568,-21.71 25.272,-43.285 25.272,-43.285"
             style="fill:none;stroke:#000000;stroke-width:0.5;stroke-linecap:round;stroke-linejoin:round;stroke-miterlimit:10;stroke-dasharray:none;stroke-opacity:1"
             id="path6254"
             inkscape:connector-curvature="0" /></g><g
           id="g6256"
           transform="translate(218.5,23.502)"><path
             d="M 0,0 4.75,119"
             style="fill:none;stroke:#000000;stroke-width:0.5;stroke-linecap:round;stroke-linejoin:round;stroke-miterlimit:10;stroke-dasharray:none;stroke-opacity:1"
             id="path6258"
             inkscape:connector-curvature="0" /></g><g
           id="g6260"
           transform="translate(223.25,24.002)"><path
             d="M 0,0 9.25,161.5"
             style="fill:none;stroke:#000000;stroke-width:0.25;stroke-linecap:round;stroke-linejoin:round;stroke-miterlimit:10;stroke-dasharray:none;stroke-opacity:1"
             id="path6262"
             inkscape:connector-curvature="0" /></g><g
           id="g6264"
           transform="translate(37.1445,50.3252)"><path
             d="m 0,0 c -0.002,0.229 0.09,0.447 0.256,0.604 0.167,0.158 0.391,0.238 0.619,0.221 l 32.154,-2.253 c 0.429,-0.03 0.761,-0.386 0.761,-0.816 l 0,-4.226 c 0,-0.226 -0.094,-0.442 -0.26,-0.597 -0.165,-0.155 -0.387,-0.234 -0.613,-0.219 l -32.1,2.138 C 0.391,-5.12 0.059,-4.77 0.054,-4.343 L 0,0 Z"
             style="fill:none;stroke:#000000;stroke-width:1;stroke-linecap:round;stroke-linejoin:round;stroke-miterlimit:10;stroke-dasharray:none;stroke-opacity:1"
             id="path6266"
             inkscape:connector-curvature="0" /></g><g
           id="g6268"
           transform="translate(108.2207,46.1055)"><path
             d="m 0,0 c 0.002,0.225 0.097,0.439 0.262,0.593 0.165,0.153 0.385,0.231 0.61,0.216 L 34.525,-1.45 c 0.436,-0.029 0.772,-0.396 0.763,-0.831 L 35.195,-7.009 C 35.191,-7.232 35.096,-7.443 34.932,-7.595 34.768,-7.746 34.549,-7.823 34.326,-7.809 L 0.727,-5.667 c -0.433,0.027 -0.769,0.389 -0.766,0.822 L 0,0 Z"
             style="fill:none;stroke:#000000;stroke-width:1;stroke-linecap:round;stroke-linejoin:round;stroke-miterlimit:10;stroke-dasharray:none;stroke-opacity:1"
             id="path6270"
             inkscape:connector-curvature="0" /></g><g
           id="g6272"
           transform="translate(39.0044,53.334)"><path
             d="m 0,0 c -2.744,0.125 -4.116,-1.247 -4.116,-3.118 l 0,-4.614 c 0,-1.372 0.498,-2.121 1.995,-2.246 1.497,-0.125 30.309,-2.12 32.055,-2.245 1.746,-0.125 3.742,0.374 3.867,2.994 0.124,2.619 0.373,3.493 0.249,4.615 -0.125,1.122 -0.874,2.245 -3.118,2.494 C 28.687,-1.871 0,0 0,0 Z"
             style="fill:none;stroke:#000000;stroke-width:0.5;stroke-linecap:round;stroke-linejoin:round;stroke-miterlimit:10;stroke-dasharray:none;stroke-opacity:1"
             id="path6274"
             inkscape:connector-curvature="0" /></g><g
           id="g6276"
           transform="translate(108.7266,49.2188)"><path
             d="m 0,0 c -1.872,0.124 -3.119,-0.998 -3.119,-2.869 l 0,-4.864 c 0,-1.122 0.375,-3.243 3.867,-3.742 3.492,-0.499 30.308,-1.996 33.177,-1.996 2.869,0 3.368,1.497 3.742,3.742 0.374,2.246 0.232,3.765 0.232,4.763 0,0.998 -1.23,2.653 -3.101,2.778 C 32.927,-2.063 0,0 0,0 Z"
             style="fill:none;stroke:#000000;stroke-width:0.5;stroke-linecap:round;stroke-linejoin:round;stroke-miterlimit:10;stroke-dasharray:none;stroke-opacity:1"
             id="path6278"
             inkscape:connector-curvature="0" /></g><g
           id="g6280"
           transform="translate(154.9473,79.5586)"><path
             d="m 0,0 7.665,-0.196 c 0,0 -0.327,-2.49 -1.048,-2.49 -0.721,0 -6.027,0.131 -6.355,0.131 C -0.066,-2.555 0,0 0,0 Z"
             style="fill:none;stroke:#000000;stroke-width:1;stroke-linecap:round;stroke-linejoin:round;stroke-miterlimit:10;stroke-dasharray:none;stroke-opacity:1"
             id="path6282"
             inkscape:connector-curvature="0" /></g><g
           id="g6284"
           transform="translate(151.8682,71.4355)"><path
             d="m 0,0 c 0.262,-0.066 0.852,-0.394 0.982,-0.983 0.131,-0.59 0.721,-0.917 1.376,-0.983 0.656,-0.065 6.094,-0.196 6.683,-0.196 0.589,0 1.637,-0.066 2.686,1.441 1.048,1.507 1.769,1.834 1.769,1.834"
             style="fill:none;stroke:#000000;stroke-width:1;stroke-linecap:round;stroke-linejoin:round;stroke-miterlimit:10;stroke-dasharray:none;stroke-opacity:1"
             id="path6286"
             inkscape:connector-curvature="0" /></g><g
           id="g6288"
           transform="translate(151.4746,79.3623)"><path
             d="m 0,0 c 0.394,0 1.18,-0.852 1.311,-1.572 0.13,-0.721 0.327,-2.032 2.358,-2.162 2.031,-0.131 5.109,-0.197 6.289,-0.197 1.18,0 1.573,0.458 2.359,1.638 0.787,1.18 1.311,2.162 2.228,2.162"
             style="fill:none;stroke:#000000;stroke-width:0.5;stroke-linecap:round;stroke-linejoin:round;stroke-miterlimit:10;stroke-dasharray:none;stroke-opacity:1"
             id="path6290"
             inkscape:connector-curvature="0" /></g><g
           id="g6292"
           transform="translate(151.54,72.0898)"><path
             d="m 0,0 c 0,0 0,6.093 0.065,6.748 0.066,0.655 0.065,1.18 0.917,1.18 0.853,0 12.121,-0.197 12.645,-0.197 0.524,0 0.983,-0.72 0.983,-1.572 0,-0.851 -0.328,-5.045 -0.328,-5.045"
             style="fill:none;stroke:#000000;stroke-width:0.5;stroke-linecap:round;stroke-linejoin:round;stroke-miterlimit:10;stroke-dasharray:none;stroke-opacity:1"
             id="path6294"
             inkscape:connector-curvature="0" /></g><g
           id="g6296"
           transform="translate(152.75,77.127)"><path
             d="M 0,0 0,-6.125"
             style="fill:none;stroke:#000000;stroke-width:0.5;stroke-linecap:round;stroke-linejoin:round;stroke-miterlimit:10;stroke-dasharray:none;stroke-opacity:1"
             id="path6298"
             inkscape:connector-curvature="0" /></g><g
           id="g6300"
           transform="translate(163.125,70.127)"><path
             d="M 0,0 0.25,6.375"
             style="fill:none;stroke:#000000;stroke-width:0.5;stroke-linecap:round;stroke-linejoin:round;stroke-miterlimit:10;stroke-dasharray:none;stroke-opacity:1"
             id="path6302"
             inkscape:connector-curvature="0" /></g><g
           id="g6304"
           transform="translate(161.25,69.002)"><path
             d="M 0,0 0.25,6.375"
             style="fill:none;stroke:#000000;stroke-width:0.5;stroke-linecap:round;stroke-linejoin:round;stroke-miterlimit:10;stroke-dasharray:none;stroke-opacity:1"
             id="path6306"
             inkscape:connector-curvature="0" /></g><g
           id="g6308"
           transform="translate(154,75.627)"><path
             d="M 0,0 0,-6.125"
             style="fill:none;stroke:#000000;stroke-width:0.5;stroke-linecap:round;stroke-linejoin:round;stroke-miterlimit:10;stroke-dasharray:none;stroke-opacity:1"
             id="path6310"
             inkscape:connector-curvature="0" /></g><g
           id="g6312"
           transform="translate(20.4849,83.748)"><path
             d="m 0,0 c 0,0 0.2,-0.118 0.075,-0.743 -0.125,-0.625 -0.287,-0.553 -0.31,-1.437 -0.025,-0.967 0.158,-4.974 0.158,-5.599 0,-0.625 0.717,-0.967 1.717,-1.092 1,-0.125 3.625,0 4.875,0 1.25,0 2.375,0.625 3,1 0.625,0.375 1.5,0.75 1.625,0.375"
             style="fill:none;stroke:#000000;stroke-width:1;stroke-linecap:round;stroke-linejoin:round;stroke-miterlimit:10;stroke-dasharray:none;stroke-opacity:1"
             id="path6314"
             inkscape:connector-curvature="0" /></g><g
           id="g6316"
           transform="translate(21.8965,82.1138)"><path
             d="m 0,0 5.832,0.037 1.745,1.597 c 0,0 -0.223,0.818 -0.631,0.818 -0.409,0 -5.758,-0.149 -5.758,-0.149 L 1.293,0.372"
             style="fill:none;stroke:#000000;stroke-width:1;stroke-linecap:round;stroke-linejoin:round;stroke-miterlimit:10;stroke-dasharray:none;stroke-opacity:1"
             id="path6318"
             inkscape:connector-curvature="0" /></g><g
           id="g6320"
           transform="translate(20.2251,81.7422)"><path
             d="m 0,0 c -0.074,-0.706 0.891,-0.891 1.894,-0.891 1.003,0 3.38,0.074 4.754,0.037 1.375,-0.037 1.635,-0.186 3.195,1.077 1.56,1.263 1.523,1.672 2.043,1.672"
             style="fill:none;stroke:#000000;stroke-width:0.5;stroke-linecap:round;stroke-linejoin:round;stroke-miterlimit:10;stroke-dasharray:none;stroke-opacity:1"
             id="path6322"
             inkscape:connector-curvature="0" /></g><g
           id="g6324"
           transform="translate(29.5854,84.1567)"><path
             d="M 0,0 C 0,0 1.337,-0.074 1.857,-0.037 2.377,0 2.563,-0.669 2.525,-1.412 2.488,-2.154 2.451,-7.243 2.451,-7.243"
             style="fill:none;stroke:#000000;stroke-width:0.5;stroke-linecap:round;stroke-linejoin:round;stroke-miterlimit:10;stroke-dasharray:none;stroke-opacity:1"
             id="path6326"
             inkscape:connector-curvature="0" /></g><g
           id="g6328"
           transform="translate(29.1396,81.1851)"><path
             d="M 0,0 0.074,-5.572"
             style="fill:none;stroke:#000000;stroke-width:0.5;stroke-linecap:round;stroke-linejoin:round;stroke-miterlimit:10;stroke-dasharray:none;stroke-opacity:1"
             id="path6330"
             inkscape:connector-curvature="0" /></g><g
           id="g6332"
           transform="translate(27.2451,80.7026)"><path
             d="M 0,0 0.074,-5.572"
             style="fill:none;stroke:#000000;stroke-width:0.5;stroke-linecap:round;stroke-linejoin:round;stroke-miterlimit:10;stroke-dasharray:none;stroke-opacity:1"
             id="path6334"
             inkscape:connector-curvature="0" /></g><g
           id="g6336"
           transform="translate(21.8965,80.8882)"><path
             d="M 0,0 0.074,-5.572"
             style="fill:none;stroke:#000000;stroke-width:0.5;stroke-linecap:round;stroke-linejoin:round;stroke-miterlimit:10;stroke-dasharray:none;stroke-opacity:1"
             id="path6338"
             inkscape:connector-curvature="0" /></g><g
           id="g6340"
           transform="translate(20.8564,83.8223)"><path
             d="M 0,0 1.746,0.074"
             style="fill:none;stroke:#000000;stroke-width:0.5;stroke-linecap:round;stroke-linejoin:round;stroke-miterlimit:10;stroke-dasharray:none;stroke-opacity:1"
             id="path6342"
             inkscape:connector-curvature="0" /></g><g
           id="g6344"
           transform="translate(145.5137,52.5596)"><path
             d="M 0,0 35.111,-2.183"
             style="fill:none;stroke:#000000;stroke-width:1;stroke-linecap:round;stroke-linejoin:round;stroke-miterlimit:10;stroke-dasharray:none;stroke-opacity:1"
             id="path6346"
             inkscape:connector-curvature="0" /></g><g
           id="g6348"
           transform="translate(75.5361,56.9092)"><path
             d="M 0,0 39.926,-2.524"
             style="fill:none;stroke:#000000;stroke-width:1;stroke-linecap:round;stroke-linejoin:round;stroke-miterlimit:10;stroke-dasharray:none;stroke-opacity:1"
             id="path6350"
             inkscape:connector-curvature="0" /></g><g
           id="g6352"
           transform="translate(-4.375,61.877)"><path
             d="M 0,0 49.248,-3.061"
             style="fill:none;stroke:#000000;stroke-width:1;stroke-linecap:round;stroke-linejoin:round;stroke-miterlimit:10;stroke-dasharray:none;stroke-opacity:1"
             id="path6354"
             inkscape:connector-curvature="0" /></g><g
           id="g6356"
           transform="translate(159.7656,25.0938)"><path
             d="m 0,0 c 0.782,1.426 2.297,2.392 4.037,2.392 1.906,0 3.543,-1.16 4.242,-2.812"
             style="fill:none;stroke:#000000;stroke-width:0.25;stroke-linecap:round;stroke-linejoin:round;stroke-miterlimit:10;stroke-dasharray:none;stroke-opacity:1"
             id="path6358"
             inkscape:connector-curvature="0" /></g><g
           id="g6360"
           transform="translate(145.3877,26.3096)"><path
             d="m 0,0 c 0,0 2.154,3.036 6.562,8.326 4.409,5.29 9.435,7.302 15.282,6.858 5.51,-0.418 9.502,-3.527 10.579,-6.368 0.529,-1.395 2.448,-2.351 4.015,-2.449 1.568,-0.097 9.405,-0.685 9.405,-0.685"
             style="fill:none;stroke:#000000;stroke-width:0.25;stroke-linecap:round;stroke-linejoin:round;stroke-miterlimit:10;stroke-dasharray:none;stroke-opacity:1"
             id="path6362"
             inkscape:connector-curvature="0" /></g><g
           id="g6364"
           transform="translate(143.625,26.3096)"><path
             d="m 0,0 c 0,0 3.917,5.484 8.325,10.774 4.408,5.29 9.435,7.302 15.281,6.858 5.511,-0.418 9.6,-3.624 10.58,-6.367 0.502,-1.407 2.448,-2.352 4.015,-2.45 1.568,-0.097 7.053,-0.489 7.053,-0.489"
             style="fill:none;stroke:#000000;stroke-width:0.5;stroke-linecap:round;stroke-linejoin:round;stroke-miterlimit:10;stroke-dasharray:none;stroke-opacity:1"
             id="path6366"
             inkscape:connector-curvature="0" /></g><g
           id="g6368"
           transform="translate(180.4551,49.8184)"><path
             d="M 0,0 C 0.979,-0.293 1.37,-1.958 1.077,-3.722 0.784,-5.485 0.489,-7.149 0.392,-7.934 0.294,-8.718 -0.293,-12.831 -0.489,-13.419"
             style="fill:none;stroke:#000000;stroke-width:0.5;stroke-linecap:round;stroke-linejoin:round;stroke-miterlimit:10;stroke-dasharray:none;stroke-opacity:1"
             id="path6370"
             inkscape:connector-curvature="0" /></g><g
           id="g6372"
           transform="translate(180.1611,51.2881)"><path
             d="M 0,0 C 0.784,0.588 2.547,0.293 3.232,-0.49 3.918,-1.273 4.213,-3.526 3.037,-6.759 1.861,-9.991 1.763,-11.95 1.665,-12.93 c -0.098,-0.979 0,-3.233 0,-3.233"
             style="fill:none;stroke:#000000;stroke-width:0.5;stroke-linecap:round;stroke-linejoin:round;stroke-miterlimit:10;stroke-dasharray:none;stroke-opacity:1"
             id="path6374"
             inkscape:connector-curvature="0" /></g><g
           id="g6376"
           transform="translate(189.6631,35.2236)"><path
             d="m 0,0 c 0.979,0.783 2.939,0.49 3.82,-0.979 0.881,-1.47 3.233,-8.718 3.233,-11.265"
             style="fill:none;stroke:#000000;stroke-width:0.25;stroke-linecap:round;stroke-linejoin:round;stroke-miterlimit:10;stroke-dasharray:none;stroke-opacity:1"
             id="path6378"
             inkscape:connector-curvature="0" /></g><g
           id="g6380"
           transform="translate(190.4463,31.5996)"><path
             d="m 0,0 c 0,-1.078 0.882,-1.96 1.176,-3.723 0.294,-1.762 0,-4.799 0,-4.799"
             style="fill:none;stroke:#000000;stroke-width:0.25;stroke-linecap:round;stroke-linejoin:round;stroke-miterlimit:10;stroke-dasharray:none;stroke-opacity:1"
             id="path6382"
             inkscape:connector-curvature="0" /></g><g
           id="g6384"
           transform="translate(155.4766,25.5264)"><path
             d="m 0,0 c 0,0 -0.392,0.393 0.49,1.176 0.882,0.783 3.624,3.036 4.604,3.036 0.979,0 6.171,-0.392 6.759,-0.392 0.587,0 0.98,-0.392 1.763,-0.882 0.783,-0.489 3.821,-2.644 3.821,-3.82"
             style="fill:none;stroke:#000000;stroke-width:0.25;stroke-linecap:round;stroke-linejoin:round;stroke-miterlimit:10;stroke-dasharray:none;stroke-opacity:1"
             id="path6386"
             inkscape:connector-curvature="0" /></g><g
           id="g6388"
           transform="translate(154.0078,26.2119)"><path
             d="m 0,0 c 0,0 0.392,1.763 -0.294,3.624 -0.685,1.861 -0.587,3.624 1.176,5.094 1.763,1.47 3.135,2.937 4.212,3.624 1.077,0.686 0.784,1.273 4.8,1.273 4.015,0 4.506,-0.392 6.073,-1.273 1.566,-0.881 1.272,0.098 2.742,-1.763 1.47,-1.861 2.645,-1.86 2.938,-3.918 0.294,-2.057 0.588,-2.253 0.588,-3.82 0,-1.568 -1.567,-4.017 -1.567,-4.017"
             style="fill:none;stroke:#000000;stroke-width:0.25;stroke-linecap:round;stroke-linejoin:round;stroke-miterlimit:10;stroke-dasharray:none;stroke-opacity:1"
             id="path6390"
             inkscape:connector-curvature="0" /></g><g
           id="g6392"
           transform="translate(154.3018,27.2891)"><path
             d="m 0,0 c 2.057,2.253 1.665,1.96 3.526,3.037 1.862,1.077 1.176,1.86 4.212,1.469 3.036,-0.392 3.429,-0.195 5.682,-0.195 2.253,0 3.624,-0.099 4.701,-1.176 1.077,-1.077 1.47,-4.016 1.47,-5.583"
             style="fill:none;stroke:#000000;stroke-width:0.25;stroke-linecap:round;stroke-linejoin:round;stroke-miterlimit:10;stroke-dasharray:none;stroke-opacity:1"
             id="path6394"
             inkscape:connector-curvature="0" /></g><g
           id="g6396"
           transform="translate(10.9546,35.6045)"><path
             d="M 0,0 C -0.637,1.496 -2.048,2.607 -3.778,2.781 -5.675,2.971 -7.42,1.979 -8.28,0.406"
             style="fill:none;stroke:#000000;stroke-width:0.25;stroke-linecap:round;stroke-linejoin:round;stroke-miterlimit:10;stroke-dasharray:none;stroke-opacity:1"
             id="path6398"
             inkscape:connector-curvature="0" /></g><g
           id="g6400"
           transform="translate(29.0488,34.2168)"><path
             d="m 0,0 c 0,0 -1.841,3.235 -5.701,8.938 -3.861,5.703 -8.661,8.204 -14.525,8.343 -5.524,0.133 -9.804,-2.564 -11.159,-5.283 -0.665,-1.336 -2.671,-2.096 -4.24,-2.038 -1.569,0.06 -9.426,0.254 -9.426,0.254"
             style="fill:none;stroke:#000000;stroke-width:0.25;stroke-linecap:round;stroke-linejoin:round;stroke-miterlimit:10;stroke-dasharray:none;stroke-opacity:1"
             id="path6402"
             inkscape:connector-curvature="0" /></g><g
           id="g6404"
           transform="translate(30.8027,34.041)"><path
             d="m 0,0 c 0,0 -3.352,5.848 -7.212,11.55 -3.86,5.702 -8.661,8.204 -14.523,8.343 -5.526,0.132 -9.912,-2.651 -11.161,-5.284 -0.638,-1.349 -2.669,-2.095 -4.239,-2.037 -1.569,0.059 -7.066,0.215 -7.066,0.215"
             style="fill:none;stroke:#000000;stroke-width:0.5;stroke-linecap:round;stroke-linejoin:round;stroke-miterlimit:10;stroke-dasharray:none;stroke-opacity:1"
             id="path6406"
             inkscape:connector-curvature="0" /></g><g
           id="g6408"
           transform="translate(15.2661,35.6074)"><path
             d="M 0,0 C 0,0 0.429,0.353 -0.371,1.219 -1.17,2.086 -3.676,4.601 -4.65,4.698 -5.625,4.796 -10.829,4.923 -11.414,4.981 -11.999,5.04 -12.429,4.688 -13.257,4.278 -14.085,3.87 -17.321,2.027 -17.438,0.857"
             style="fill:none;stroke:#000000;stroke-width:0.25;stroke-linecap:round;stroke-linejoin:round;stroke-miterlimit:10;stroke-dasharray:none;stroke-opacity:1"
             id="path6410"
             inkscape:connector-curvature="0" /></g><g
           id="g6412"
           transform="translate(18.5,35.4189)"><path
             d="M 0,0 C 0,0 -0.535,1.881 0.333,3.666 1.2,5.449 0.607,8.194 -1,9.833 c -1.608,1.637 -3.542,2.89 -4.545,3.679 -1.004,0.791 -0.654,1.345 -4.65,1.746 -3.995,0.398 -2.325,-0.371 -3.972,-1.092 -1.646,-0.721 -1.018,0.373 -2.666,-1.333 -1.647,-1.705 -4.335,-2.147 -4.834,-4.167 -0.496,-2.018 -1.724,-1.342 -1.88,-2.902 -0.156,-1.561 1.16,-4.153 1.16,-4.153"
             style="fill:none;stroke:#000000;stroke-width:0.25;stroke-linecap:round;stroke-linejoin:round;stroke-miterlimit:10;stroke-dasharray:none;stroke-opacity:1"
             id="path6414"
             inkscape:connector-curvature="0" /></g><g
           id="g6416"
           transform="translate(17.6665,35.252)"><path
             d="m 0,0 c -1.822,2.446 -2.519,4.109 -4.263,5.366 -1.745,1.258 -0.985,1.969 -4.046,1.881 -3.059,-0.088 -3.43,0.147 -5.671,0.371 -2.243,0.224 -3.618,0.262 -4.795,-0.703 -1.18,-0.965 -1.863,-3.85 -2.019,-5.409"
             style="fill:none;stroke:#000000;stroke-width:0.25;stroke-linecap:round;stroke-linejoin:round;stroke-miterlimit:10;stroke-dasharray:none;stroke-opacity:1"
             id="path6418"
             inkscape:connector-curvature="0" /></g><g
           id="g6420"
           transform="translate(175.7949,95.5605)"><path
             d="M 0,0 -0.072,-2.107 -3.585,-2.171"
             style="fill:none;stroke:#000000;stroke-width:0.5;stroke-linecap:round;stroke-linejoin:round;stroke-miterlimit:10;stroke-dasharray:none;stroke-opacity:1"
             id="path6422"
             inkscape:connector-curvature="0" /></g><g
           id="g6424"
           transform="translate(173.1035,119.6396)"><path
             d="M 0,0 3.514,-0.127 3.253,-7.728"
             style="fill:none;stroke:#000000;stroke-width:0.5;stroke-linecap:round;stroke-linejoin:round;stroke-miterlimit:10;stroke-dasharray:none;stroke-opacity:1"
             id="path6426"
             inkscape:connector-curvature="0" /></g><g
           id="g6428"
           transform="translate(173.1035,111.9756)"><path
             d="M 0,0 20.503,0.063 19.673,-15.968 -0.83,-16.351"
             style="fill:none;stroke:#000000;stroke-width:0.5;stroke-linecap:round;stroke-linejoin:round;stroke-miterlimit:10;stroke-dasharray:none;stroke-opacity:1"
             id="path6430"
             inkscape:connector-curvature="0" /></g><g
           id="g6432"
           transform="translate(43.917,62.0137)"><path
             d="m 0,0 c 0,0 0,-3.396 1.909,-3.714 1.91,-0.317 25.036,-1.59 27.37,-1.803 2.334,-0.212 3.82,0.955 3.82,2.44 0,1.485 0.106,4.561 0.106,4.561"
             style="fill:none;stroke:#000000;stroke-width:1;stroke-linecap:round;stroke-linejoin:round;stroke-miterlimit:10;stroke-dasharray:none;stroke-opacity:1"
             id="path6434"
             inkscape:connector-curvature="0" /></g><g
           id="g6436"
           transform="translate(56.7529,60.4219)"><path
             d="m 0,0 c 0,0 15.701,-0.636 16.443,-0.742 0.743,-0.107 1.379,0.105 1.592,1.272 0.212,1.167 0.318,3.82 0.318,3.82"
             style="fill:none;stroke:#000000;stroke-width:1;stroke-linecap:round;stroke-linejoin:round;stroke-miterlimit:10;stroke-dasharray:none;stroke-opacity:1"
             id="path6438"
             inkscape:connector-curvature="0" /></g><g
           id="g6440"
           transform="translate(72.8779,64.8779)"><path
             d="M 0,0 C 0,0 -0.212,-5.41 0.318,-5.198"
             style="fill:none;stroke:#000000;stroke-width:0.5;stroke-linecap:round;stroke-linejoin:round;stroke-miterlimit:10;stroke-dasharray:none;stroke-opacity:1"
             id="path6442"
             inkscape:connector-curvature="0" /></g><g
           id="g6444"
           transform="translate(114.792,57.002)"><path
             d="M 0,0 31.792,-1.375"
             style="fill:none;stroke:#000000;stroke-width:0.5;stroke-linecap:round;stroke-linejoin:round;stroke-miterlimit:10;stroke-dasharray:none;stroke-opacity:1"
             id="path6446"
             inkscape:connector-curvature="0" /></g></g></g><text
       transform="matrix(1,0,0,-1,2.2393,2.3896)"
       style="font-variant:normal;font-weight:normal;font-stretch:normal;font-size:4px;font-family:'Swiss 721 SWA';-inkscape-font-specification:Helvetica;writing-mode:lr-tb;fill:#231f20;fill-opacity:1;fill-rule:nonzero;stroke:none"
       id="text6448"><tspan
         x="0 2 2.888 5.112"
         y="0"
         sodipodi:role="line"
         id="tspan6450">cjqz</tspan></text>
<g
       id="g6452"
       transform="translate(200.6064,115.6436)"><path
         d="M 0,0 -20.856,37.608"
         style="fill:none;stroke:#ffffff;stroke-width:3;stroke-linecap:round;stroke-linejoin:miter;stroke-miterlimit:4;stroke-dasharray:none;stroke-opacity:1"
         id="path6454"
         inkscape:connector-curvature="0" /></g><g
       id="g6456"
       transform="translate(179.75,153.252)"><path
         d="M 0,0 0,0"
         style="fill:none;stroke:#ffffff;stroke-width:3.75;stroke-linecap:round;stroke-linejoin:miter;stroke-miterlimit:4;stroke-dasharray:none;stroke-opacity:1"
         id="path6458"
         inkscape:connector-curvature="0" /></g><g
       id="g6460"
       transform="translate(200.6064,115.6436)"><path
         d="M 0,0 -20.856,37.608"
         style="fill:none;stroke:#211f1f;stroke-width:0.5;stroke-linecap:round;stroke-linejoin:miter;stroke-miterlimit:4;stroke-dasharray:none;stroke-opacity:1"
         id="path6462"
         inkscape:connector-curvature="0" /></g><g
       id="g6464"
       transform="translate(179.75,153.252)"><path
         d="M 0,0 0,0"
         style="fill:none;stroke:#211f1f;stroke-width:1.5;stroke-linecap:round;stroke-linejoin:miter;stroke-miterlimit:4;stroke-dasharray:none;stroke-opacity:1"
         id="path6466"
         inkscape:connector-curvature="0" /></g><g
       id="g6468"
       transform="translate(148,17.752)"><path
         d="M 0,0 -17.5,25.25"
         style="fill:none;stroke:#ffffff;stroke-width:3;stroke-linecap:round;stroke-linejoin:miter;stroke-miterlimit:4;stroke-dasharray:none;stroke-opacity:1"
         id="path6470"
         inkscape:connector-curvature="0" /></g><g
       id="g6472"
       transform="translate(130.5,43.002)"><path
         d="M 0,0 0,0"
         style="fill:none;stroke:#ffffff;stroke-width:3.75;stroke-linecap:round;stroke-linejoin:miter;stroke-miterlimit:4;stroke-dasharray:none;stroke-opacity:1"
         id="path6474"
         inkscape:connector-curvature="0" /></g><g
       id="g6476"
       transform="translate(148,17.752)"><path
         d="M 0,0 -17.5,25.25"
         style="fill:none;stroke:#211f1f;stroke-width:0.5;stroke-linecap:round;stroke-linejoin:miter;stroke-miterlimit:4;stroke-dasharray:none;stroke-opacity:1"
         id="path6478"
         inkscape:connector-curvature="0" /></g><g
       id="g6480"
       transform="translate(130.5,43.002)"><path
         d="M 0,0 0,0"
         style="fill:none;stroke:#211f1f;stroke-width:1.5;stroke-linecap:round;stroke-linejoin:miter;stroke-miterlimit:4;stroke-dasharray:none;stroke-opacity:1"
         id="path6482"
         inkscape:connector-curvature="0" /></g><g
       id="g6484"
       transform="translate(86,15.502)"><path
         d="M 0,0 -29.167,44.75"
         style="fill:none;stroke:#ffffff;stroke-width:3;stroke-linecap:round;stroke-linejoin:miter;stroke-miterlimit:4;stroke-dasharray:none;stroke-opacity:1"
         id="path6486"
         inkscape:connector-curvature="0" /></g><g
       id="g6488"
       transform="translate(56.8335,60.252)"><path
         d="M 0,0 0,0"
         style="fill:none;stroke:#ffffff;stroke-width:3.75;stroke-linecap:round;stroke-linejoin:miter;stroke-miterlimit:4;stroke-dasharray:none;stroke-opacity:1"
         id="path6490"
         inkscape:connector-curvature="0" /></g><g
       id="g6492"
       transform="translate(56.8335,60.252)"><path
         d="M 0,0 0,0"
         style="fill:none;stroke:#211f1f;stroke-width:1.5;stroke-linecap:round;stroke-linejoin:miter;stroke-miterlimit:4;stroke-dasharray:none;stroke-opacity:1"
         id="path6494"
         inkscape:connector-curvature="0" /></g><g
       id="g6496"
       transform="translate(86,15.502)"><path
         d="M 0,0 39.833,40.583"
         style="fill:none;stroke:#ffffff;stroke-width:3;stroke-linecap:round;stroke-linejoin:miter;stroke-miterlimit:4;stroke-dasharray:none;stroke-opacity:1"
         id="path6498"
         inkscape:connector-curvature="0" /></g><g
       id="g6500"
       transform="translate(86,15.502)"><path
         d="M 0,0 -29.167,44.75"
         style="fill:none;stroke:#211f1f;stroke-width:0.5;stroke-linecap:round;stroke-linejoin:miter;stroke-miterlimit:4;stroke-dasharray:none;stroke-opacity:1"
         id="path6502"
         inkscape:connector-curvature="0" /></g><g
       id="g6504"
       transform="translate(125.833,56.085)"><path
         d="M 0,0 0,0"
         style="fill:none;stroke:#ffffff;stroke-width:3.75;stroke-linecap:round;stroke-linejoin:miter;stroke-miterlimit:4;stroke-dasharray:none;stroke-opacity:1"
         id="path6506"
         inkscape:connector-curvature="0" /></g><g
       id="g6508"
       transform="translate(86,15.502)"><path
         d="M 0,0 39.833,40.583"
         style="fill:none;stroke:#211f1f;stroke-width:0.5;stroke-linecap:round;stroke-linejoin:miter;stroke-miterlimit:4;stroke-dasharray:none;stroke-opacity:1"
         id="path6510"
         inkscape:connector-curvature="0" /></g><g
       id="g6512"
       transform="translate(125.833,56.085)"><path
         d="M 0,0 0,0"
         style="fill:none;stroke:#211f1f;stroke-width:1.5;stroke-linecap:round;stroke-linejoin:miter;stroke-miterlimit:4;stroke-dasharray:none;stroke-opacity:1"
         id="path6514"
         inkscape:connector-curvature="0" /></g><g
       id="g6516"
       transform="translate(33.5,19.252)"><path
         d="M 0,0 8,28.25"
         style="fill:none;stroke:#ffffff;stroke-width:3;stroke-linecap:round;stroke-linejoin:miter;stroke-miterlimit:4;stroke-dasharray:none;stroke-opacity:1"
         id="path6518"
         inkscape:connector-curvature="0" /></g><g
       id="g6520"
       transform="translate(41.5,47.502)"><path
         d="M 0,0 0,0"
         style="fill:none;stroke:#ffffff;stroke-width:3.75;stroke-linecap:round;stroke-linejoin:miter;stroke-miterlimit:4;stroke-dasharray:none;stroke-opacity:1"
         id="path6522"
         inkscape:connector-curvature="0" /></g><g
       id="g6524"
       transform="translate(33.5,19.252)"><path
         d="M 0,0 8,28.25"
         style="fill:none;stroke:#211f1f;stroke-width:0.5;stroke-linecap:round;stroke-linejoin:miter;stroke-miterlimit:4;stroke-dasharray:none;stroke-opacity:1"
         id="path6526"
         inkscape:connector-curvature="0" /></g><g
       id="g6528"
       transform="translate(41.5,47.502)"><path
         d="M 0,0 0,0"
         style="fill:none;stroke:#211f1f;stroke-width:1.5;stroke-linecap:round;stroke-linejoin:miter;stroke-miterlimit:4;stroke-dasharray:none;stroke-opacity:1"
         id="path6530"
         inkscape:connector-curvature="0" /></g><text
       transform="matrix(1,0,0,-1,199.7437,106.4541)"
       style="font-variant:normal;font-weight:bold;font-stretch:normal;font-size:10px;font-family:'Swiss 721 SWA';-inkscape-font-specification:Helvetica-Bold;writing-mode:lr-tb;fill:#231f20;fill-opacity:1;fill-rule:nonzero;stroke:none"
       id="text6532"><tspan
         x="0"
         y="0"
         id="tspan6534">3</tspan><tspan
         x="-52"
         y="97"
         id="tspan6536">2</tspan><tspan
         x="-116.75"
         y="100.25"
         id="tspan6538">1</tspan><tspan
         x="-170.25"
         y="96.5"
         id="tspan6540">2</tspan></text>
</g></svg>