<?xml version="1.0" encoding="UTF-8" standalone="no"?>
<!-- Created with Inkscape (http://www.inkscape.org/) -->

<svg
   xmlns:dc="http://purl.org/dc/elements/1.1/"
   xmlns:cc="http://creativecommons.org/ns#"
   xmlns:rdf="http://www.w3.org/1999/02/22-rdf-syntax-ns#"
   xmlns:svg="http://www.w3.org/2000/svg"
   xmlns="http://www.w3.org/2000/svg"
   xmlns:sodipodi="http://sodipodi.sourceforge.net/DTD/sodipodi-0.dtd"
   xmlns:inkscape="http://www.inkscape.org/namespaces/inkscape"
   id="svg4220"
   version="1.1"
   inkscape:version="0.91 r13725"
   xml:space="preserve"
   width="301.18124"
   height="230.315"
   viewBox="0 0 301.18124 230.315"
   sodipodi:docname="cjps.svg"><metadata
     id="metadata4226"><rdf:RDF><cc:Work
         rdf:about=""><dc:format>image/svg+xml</dc:format><dc:type
           rdf:resource="http://purl.org/dc/dcmitype/StillImage" /><dc:title></dc:title></cc:Work></rdf:RDF></metadata><defs
     id="defs4224"><clipPath
       clipPathUnits="userSpaceOnUse"
       id="clipPath4234"><path
         d="M 0,184.252 0,7 l 11.435,0 0,-7 229.51,0 0,184.252 -240.945,0 z"
         id="path4236"
         inkscape:connector-curvature="0" /></clipPath></defs><sodipodi:namedview
     pagecolor="#ffffff"
     bordercolor="#666666"
     borderopacity="1"
     objecttolerance="10"
     gridtolerance="10"
     guidetolerance="10"
     inkscape:pageopacity="0"
     inkscape:pageshadow="2"
     inkscape:window-width="640"
     inkscape:window-height="480"
     id="namedview4222"
     showgrid="false"
     inkscape:zoom="4.2072813"
     inkscape:cx="150.59062"
     inkscape:cy="115.1575"
     inkscape:window-x="0"
     inkscape:window-y="0"
     inkscape:window-maximized="1"
     inkscape:current-layer="g4228" /><g
     id="g4228"
     inkscape:groupmode="layer"
     inkscape:label="cjps"
     transform="matrix(1.25,0,0,-1.25,0,230.315)"><g
       id="g4230"><g
         id="g4232"
         clip-path="url(#clipPath4234)"><g
           id="g4238"
           transform="translate(115.7881,132.4707)"><path
             d="m 0,0 c 0,-10.301 -8.351,-18.651 -18.651,-18.651 -10.301,0 -18.652,8.35 -18.652,18.651 0,10.301 8.351,18.651 18.652,18.651 C -8.351,18.651 0,10.301 0,0 Z"
             style="fill:none;stroke:#000000;stroke-width:1;stroke-linecap:round;stroke-linejoin:round;stroke-miterlimit:10;stroke-dasharray:none;stroke-opacity:1"
             id="path4240"
             inkscape:connector-curvature="0" /></g><g
           id="g4242"
           transform="translate(90.709,138.8672)"><path
             d="m 0,0 c 1.588,1.404 3.675,2.257 5.961,2.257 4.973,0 9.003,-4.03 9.003,-9.003 0,-3.28 -1.755,-6.151 -4.376,-7.726"
             style="fill:none;stroke:#000000;stroke-width:1;stroke-linecap:round;stroke-linejoin:round;stroke-miterlimit:10;stroke-dasharray:none;stroke-opacity:1"
             id="path4244"
             inkscape:connector-curvature="0" /></g><g
           id="g4246"
           transform="translate(104.1577,131.0718)"><path
             d="m 0,0 c 0,-4.972 -4.031,-9.003 -9.003,-9.003 -4.972,0 -9.003,4.031 -9.003,9.003 0,4.973 4.031,9.003 9.003,9.003 C -4.031,9.003 0,4.973 0,0 Z"
             style="fill:none;stroke:#000000;stroke-width:1;stroke-linecap:round;stroke-linejoin:round;stroke-miterlimit:10;stroke-dasharray:none;stroke-opacity:1"
             id="path4248"
             inkscape:connector-curvature="0" /></g><g
           id="g4250"
           transform="translate(-1.5645,164.9673)"><path
             d="M 0,0 245.833,-1.667"
             style="fill:none;stroke:#000000;stroke-width:0.5;stroke-linecap:round;stroke-linejoin:round;stroke-miterlimit:10;stroke-dasharray:none;stroke-opacity:1"
             id="path4252"
             inkscape:connector-curvature="0" /></g><g
           id="g4254"
           transform="translate(169.1436,103.4258)"><path
             d="m 0,0 c 0,0 -1.25,0 -2.25,0.875 -1,0.875 -44.625,41.75 -50.875,47.875 -6.25,6.125 -8.25,5.75 -14.75,5.75 l -14.75,0 c -13.5,0 -16.5,-10.75 -16.5,-18.625 l 0,-16.375 c 0,-11.25 -2.652,-18.372 -5.208,-23.98 -2.555,-5.609 -3.266,-6.461 -4.898,-6.461 -1.633,0 -9.585,-0.285 -9.585,-0.285 -1.309,-0.149 -0.309,-3.399 -3.059,-3.899 -2.75,-0.5 -41.5,-2 -41.5,-2"
             style="fill:none;stroke:#000000;stroke-width:1;stroke-linecap:round;stroke-linejoin:round;stroke-miterlimit:10;stroke-dasharray:none;stroke-opacity:1"
             id="path4256"
             inkscape:connector-curvature="0" /></g><g
           id="g4258"
           transform="translate(100.2686,157.8008)"><path
             d="m 0,0 c 5.125,0 7.75,-1.375 11.625,-4.875 3.875,-3.5 53,-50.875 54,-51.75 1,-0.875 1.875,-1.125 4,-1.125 2.125,0 11.125,-0.375 11.125,-0.375"
             style="fill:none;stroke:#000000;stroke-width:0.5;stroke-linecap:round;stroke-linejoin:round;stroke-miterlimit:10;stroke-dasharray:none;stroke-opacity:1"
             id="path4260"
             inkscape:connector-curvature="0" /></g><g
           id="g4262"
           transform="translate(92.6445,134.1392)"><path
             d="m 0,0 c -0.21,-0.104 -0.409,-0.228 -0.598,-0.364 0.011,-0.594 0.262,-1.527 -0.01,-1.999 -0.272,-0.469 -1.2,-0.716 -1.714,-1.003 -0.016,-0.145 -0.044,-0.286 -0.044,-0.436 0,-0.148 0.028,-0.29 0.044,-0.434 0.516,-0.289 1.444,-0.535 1.714,-1.006 0.272,-0.472 0.021,-1.403 0.01,-1.998 0.233,-0.167 0.479,-0.314 0.744,-0.432 0.51,0.309 1.193,0.991 1.74,0.991 0.547,0 1.228,-0.682 1.738,-0.991 0.237,0.108 0.461,0.237 0.671,0.384"
             style="fill:none;stroke:#231f20;stroke-width:0.5;stroke-linecap:round;stroke-linejoin:round;stroke-miterlimit:4;stroke-dasharray:none;stroke-opacity:1"
             id="path4264"
             inkscape:connector-curvature="0" /></g><g
           id="g4266"
           transform="translate(96.9395,126.8516)"><path
             d="M 0,0 C 0.024,0.017 0.048,0.033 0.071,0.05 0.061,0.645 -0.19,1.576 0.082,2.048 0.354,2.516 1.28,2.763 1.796,3.051 1.81,3.197 1.84,3.337 1.84,3.486 1.84,3.636 1.81,3.777 1.796,3.922 1.279,4.211 0.353,4.458 0.082,4.926 -0.19,5.398 0.061,6.33 0.07,6.923 -0.162,7.091 -0.408,7.238 -0.671,7.356 -1.183,7.048 -1.864,6.365 -2.412,6.365 -2.957,6.365 -3.64,7.048 -4.149,7.356 -4.198,7.334 -4.247,7.311 -4.295,7.288"
             style="fill:none;stroke:#231f20;stroke-width:1;stroke-linecap:round;stroke-linejoin:round;stroke-miterlimit:4;stroke-dasharray:none;stroke-opacity:1"
             id="path4268"
             inkscape:connector-curvature="0" /></g><g
           id="g4270"
           transform="translate(91.7197,131.5239)"><path
             d="m 0,0 c -0.016,-0.145 -0.044,-0.286 -0.044,-0.436 0,-0.148 0.028,-0.29 0.044,-0.434 0.517,-0.289 1.444,-0.535 1.714,-1.006 0.272,-0.472 0.021,-1.402 0.011,-1.998 0.093,-0.067 0.189,-0.131 0.287,-0.191"
             style="fill:none;stroke:#231f20;stroke-width:0.5;stroke-linecap:round;stroke-linejoin:round;stroke-miterlimit:4;stroke-dasharray:none;stroke-opacity:1"
             id="path4272"
             inkscape:connector-curvature="0" /></g><g
           id="g4274"
           transform="translate(90.3223,130.7729)"><path
             d="M 0,0 3.026,1.495"
             style="fill:none;stroke:#231f20;stroke-width:1;stroke-linecap:round;stroke-linejoin:round;stroke-miterlimit:4;stroke-dasharray:none;stroke-opacity:1"
             id="path4276"
             inkscape:connector-curvature="0" /></g><g
           id="g4278"
           transform="translate(92.79,126.4673)"><path
             d="M 0,0 2.563,1.637"
             style="fill:none;stroke:#231f20;stroke-width:1;stroke-linecap:round;stroke-linejoin:round;stroke-miterlimit:4;stroke-dasharray:none;stroke-opacity:1"
             id="path4280"
             inkscape:connector-curvature="0" /></g><g
           id="g4282"
           transform="translate(93.5332,133.6099)"><path
             d="M 0,0 C 0.042,-0.412 0.053,-0.819 -0.1,-1.083"
             style="fill:none;stroke:#231f20;stroke-width:0.5;stroke-linecap:round;stroke-linejoin:round;stroke-miterlimit:4;stroke-dasharray:none;stroke-opacity:1"
             id="path4284"
             inkscape:connector-curvature="0" /></g><g
           id="g4286"
           transform="translate(95.9277,128.2095)"><path
             d="M 0,0 C 0.273,0 0.581,-0.17 0.883,-0.379"
             style="fill:none;stroke:#231f20;stroke-width:0.5;stroke-linecap:round;stroke-linejoin:round;stroke-miterlimit:4;stroke-dasharray:none;stroke-opacity:1"
             id="path4288"
             inkscape:connector-curvature="0" /></g><g
           id="g4290"
           transform="translate(181.2363,99.4692)"><path
             d="m 0,0 c -2.673,-6.237 -4.158,-11.584 -4.158,-16.534 0,-4.95 0.152,-4.88 1.992,-9.005 1.981,-4.442 29.294,-64.161 29.294,-64.161 2.404,-4.968 8.738,-13.968 8.738,-13.968"
             style="fill:none;stroke:#000000;stroke-width:1;stroke-linecap:round;stroke-linejoin:round;stroke-miterlimit:10;stroke-dasharray:none;stroke-opacity:1"
             id="path4292"
             inkscape:connector-curvature="0" /></g><g
           id="g4294"
           transform="translate(231.7402,72.1523)"><path
             d="m 0,0 c 0.714,0.484 1.024,1.463 1.278,2.898 0.375,2.125 1.5,10.125 2.5,17 1,6.875 4.875,8.625 8.875,9.75"
             style="fill:none;stroke:#000000;stroke-width:1;stroke-linecap:round;stroke-linejoin:round;stroke-miterlimit:10;stroke-dasharray:none;stroke-opacity:1"
             id="path4296"
             inkscape:connector-curvature="0" /></g><g
           id="g4298"
           transform="translate(177.1562,79.8081)"><path
             d="m 0,0 c 0.41,-3.144 4.169,-5.467 12.165,-5.877 7.996,-0.411 39.322,-2.13 41.072,-2.13 0.568,0 1.004,0.119 1.347,0.351"
             style="fill:none;stroke:#000000;stroke-width:0.5;stroke-linecap:round;stroke-linejoin:round;stroke-miterlimit:10;stroke-dasharray:none;stroke-opacity:1"
             id="path4300"
             inkscape:connector-curvature="0" /></g><g
           id="g4302"
           transform="translate(183.5957,80.1938)"><path
             d="m 0,0 c -0.312,1.165 -0.278,2.548 0.173,4.107 1.375,4.75 8.125,14.125 8.125,14.125"
             style="fill:none;stroke:#000000;stroke-width:0.5;stroke-linecap:round;stroke-linejoin:round;stroke-miterlimit:10;stroke-dasharray:none;stroke-opacity:1"
             id="path4304"
             inkscape:connector-curvature="0" /></g><g
           id="g4306"
           transform="translate(232.3936,73.9258)"><path
             d="m 0,0 c 0,0 -38.75,2 -43.125,2.25 -2.939,0.168 -5.032,1.634 -5.673,4.018"
             style="fill:none;stroke:#000000;stroke-width:1;stroke-linecap:round;stroke-linejoin:round;stroke-miterlimit:10;stroke-dasharray:none;stroke-opacity:1"
             id="path4308"
             inkscape:connector-curvature="0" /></g><g
           id="g4310"
           transform="translate(188.6436,76.4258)"><path
             d="m 0,0 c -7.125,1 -8.125,5 -5.625,11 2.5,6 7.875,13.25 8.25,13.375 C 3,24.5 15.625,24.5 20.125,24.25 24.625,24 29.5,22 33.5,14.5"
             style="fill:none;stroke:#000000;stroke-width:0.5;stroke-linecap:round;stroke-linejoin:round;stroke-miterlimit:10;stroke-dasharray:none;stroke-opacity:1"
             id="path4312"
             inkscape:connector-curvature="0" /></g><g
           id="g4314"
           transform="translate(192.5186,98.8008)"><path
             d="m 0,0 c 0,0 12.125,-0.5 16.625,-0.75 4.5,-0.25 10.25,-8.5 11.25,-12.5"
             style="fill:none;stroke:#000000;stroke-width:0.5;stroke-linecap:round;stroke-linejoin:round;stroke-miterlimit:10;stroke-dasharray:none;stroke-opacity:1"
             id="path4316"
             inkscape:connector-curvature="0" /></g><g
           id="g4318"
           transform="translate(192.6436,98.0508)"><path
             d="M 0,0 6.125,-15.5 5.625,-22"
             style="fill:none;stroke:#000000;stroke-width:0.5;stroke-linecap:round;stroke-linejoin:round;stroke-miterlimit:10;stroke-dasharray:none;stroke-opacity:1"
             id="path4320"
             inkscape:connector-curvature="0" /></g><g
           id="g4322"
           transform="translate(199.7686,82.4258)"><path
             d="m 0,0 c 0,0 15.25,0.625 18.5,0.875 3.25,0.25 3.875,2 3.875,2 L 23,-7.625"
             style="fill:none;stroke:#000000;stroke-width:0.5;stroke-linecap:round;stroke-linejoin:round;stroke-miterlimit:10;stroke-dasharray:none;stroke-opacity:1"
             id="path4324"
             inkscape:connector-curvature="0" /></g><g
           id="g4326"
           transform="translate(233.2881,79.7544)"><path
             d="m 0,0 -26.711,40.539 c 0,0 31.425,26.24 32.996,27.654 1.571,1.414 4.714,2.514 4.714,2.514"
             style="fill:none;stroke:#000000;stroke-width:0.5;stroke-linecap:round;stroke-linejoin:round;stroke-miterlimit:10;stroke-dasharray:none;stroke-opacity:1"
             id="path4328"
             inkscape:connector-curvature="0" /></g><g
           id="g4330"
           transform="translate(145.377,124.7036)"><path
             d="m 0,0 c 0,0 21.637,-1.031 25.17,-1.178 3.533,-0.147 5.151,0.295 7.507,1.178 2.355,0.883 24.729,9.715 24.729,9.715 1.486,0.049 1.819,2.049 1.819,2.049"
             style="fill:none;stroke:#000000;stroke-width:0.5;stroke-linecap:round;stroke-linejoin:round;stroke-miterlimit:10;stroke-dasharray:none;stroke-opacity:1"
             id="path4332"
             inkscape:connector-curvature="0" /></g><g
           id="g4334"
           transform="translate(202.7686,111.9258)"><path
             d="m 0,0 c 0,0 2.369,29.853 2.369,30.883 0,1.03 -0.702,3.659 -0.869,5.492 L -9.666,32.708"
             style="fill:none;stroke:#000000;stroke-width:0.5;stroke-linecap:round;stroke-linejoin:round;stroke-miterlimit:10;stroke-dasharray:none;stroke-opacity:1"
             id="path4336"
             inkscape:connector-curvature="0" /></g><g
           id="g4338"
           transform="translate(202.4355,142.6343)"><path
             d="m 0,0 c 0,0 -22.909,-8.068 -25.117,-8.657 -2.208,-0.589 -4.269,-2.356 -10.893,-2.061 -6.624,0.294 -30.028,1.325 -30.028,1.325"
             style="fill:none;stroke:#000000;stroke-width:0.5;stroke-linecap:round;stroke-linejoin:round;stroke-miterlimit:10;stroke-dasharray:none;stroke-opacity:1"
             id="path4340"
             inkscape:connector-curvature="0" /></g><g
           id="g4342"
           transform="translate(140.8135,128.5308)"><path
             d="m 0,0 c 0,0 28.703,-2.208 31.353,-2.208 2.649,0 3.973,1.178 4.268,2.797 0.295,1.619 0.589,2.502 1.325,2.944 0.737,0.441 23.405,8.389 24.876,8.831 1.472,0.442 2.649,1.766 2.502,1.914"
             style="fill:none;stroke:#000000;stroke-width:0.25;stroke-linecap:round;stroke-linejoin:round;stroke-miterlimit:10;stroke-dasharray:none;stroke-opacity:1"
             id="path4344"
             inkscape:connector-curvature="0" /></g><g
           id="g4346"
           transform="translate(137.5752,132.0635)"><path
             d="m 0,0 c 0,0 28.702,-1.914 32.383,-1.914 3.68,0 6.476,1.767 6.476,1.767"
             style="fill:none;stroke:#000000;stroke-width:0.25;stroke-linecap:round;stroke-linejoin:round;stroke-miterlimit:10;stroke-dasharray:none;stroke-opacity:1"
             id="path4348"
             inkscape:connector-curvature="0" /></g><g
           id="g4350"
           transform="translate(194.376,108.0615)"><path
             d="m 0,0 c -0.004,0.041 -0.014,0.08 -0.029,0.118 -0.344,0.84 -4.812,11.961 -5.842,14.611 -1.03,2.649 -21.529,-6.022 -20.651,-8.312 0.614,-1.604 2.251,-4.936 2.251,-4.936"
             style="fill:none;stroke:#000000;stroke-width:1;stroke-linecap:round;stroke-linejoin:round;stroke-miterlimit:10;stroke-dasharray:none;stroke-opacity:1"
             id="path4352"
             inkscape:connector-curvature="0" /></g><g
           id="g4354"
           transform="translate(170.1055,109.5425)"><path
             d="m 0,0 c 0,0 0.441,-1.325 11.334,-2.502 10.402,-1.124 13.021,0.171 12.937,1.021"
             style="fill:none;stroke:#000000;stroke-width:0.5;stroke-linecap:round;stroke-linejoin:round;stroke-miterlimit:10;stroke-dasharray:none;stroke-opacity:1"
             id="path4356"
             inkscape:connector-curvature="0" /></g><g
           id="g4358"
           transform="translate(167.8535,114.478)"><path
             d="M 0,0 C 0.764,-1.871 21.225,5.687 20.767,8.055"
             style="fill:none;stroke:#000000;stroke-width:0.5;stroke-linecap:round;stroke-linejoin:round;stroke-miterlimit:10;stroke-dasharray:none;stroke-opacity:1"
             id="path4360"
             inkscape:connector-curvature="0" /></g><g
           id="g4362"
           transform="translate(171.5752,116.1719)"><path
             d="m 0,0 c -0.013,0.016 -0.022,0.033 -0.029,0.052 -0.232,0.589 2.508,2.216 6.119,3.635 3.611,1.418 6.725,2.09 6.957,1.501"
             style="fill:none;stroke:#000000;stroke-width:0.5;stroke-linecap:round;stroke-linejoin:round;stroke-miterlimit:10;stroke-dasharray:none;stroke-opacity:1"
             id="path4364"
             inkscape:connector-curvature="0" /></g><g
           id="g4366"
           transform="translate(184.6221,121.3604)"><path
             d="m 0,0 c 0.231,-0.589 -2.508,-2.216 -6.119,-3.635 -3.498,-1.374 -6.531,-2.048 -6.928,-1.553"
             style="fill:none;stroke:#000000;stroke-width:1;stroke-linecap:round;stroke-linejoin:round;stroke-miterlimit:10;stroke-dasharray:none;stroke-opacity:1"
             id="path4368"
             inkscape:connector-curvature="0" /></g><g
           id="g4370"
           transform="translate(192.8496,112.354)"><path
             d="m 0,0 c 0,0 11.084,-0.605 13.502,-0.605 2.418,0 5.037,-0.604 7.053,-2.216"
             style="fill:none;stroke:#000000;stroke-width:1;stroke-linecap:round;stroke-linejoin:round;stroke-miterlimit:10;stroke-dasharray:none;stroke-opacity:1"
             id="path4372"
             inkscape:connector-curvature="0" /></g><g
           id="g4374"
           transform="translate(205.2686,137.8008)"><path
             d="M 0,0 13.5,-6.5"
             style="fill:none;stroke:#000000;stroke-width:0.5;stroke-linecap:round;stroke-linejoin:round;stroke-miterlimit:10;stroke-dasharray:none;stroke-opacity:1"
             id="path4376"
             inkscape:connector-curvature="0" /></g><g
           id="g4378"
           transform="translate(204.2686,127.1338)"><path
             d="M 0,0 8.167,-2"
             style="fill:none;stroke:#000000;stroke-width:0.5;stroke-linecap:round;stroke-linejoin:round;stroke-miterlimit:10;stroke-dasharray:none;stroke-opacity:1"
             id="path4380"
             inkscape:connector-curvature="0" /></g><g
           id="g4382"
           transform="translate(191.1025,138.6343)"><path
             d="M 0,0 -0.001,24.5"
             style="fill:none;stroke:#000000;stroke-width:0.5;stroke-linecap:round;stroke-linejoin:round;stroke-miterlimit:10;stroke-dasharray:none;stroke-opacity:1"
             id="path4384"
             inkscape:connector-curvature="0" /></g><g
           id="g4386"
           transform="translate(183.1016,135.9673)"><path
             d="m 0,0 c 0,0 1.834,6.333 2.167,13.667 0.333,7.333 0.5,13.5 0.5,13.5"
             style="fill:none;stroke:#000000;stroke-width:0.5;stroke-linecap:round;stroke-linejoin:round;stroke-miterlimit:10;stroke-dasharray:none;stroke-opacity:1"
             id="path4388"
             inkscape:connector-curvature="0" /></g><g
           id="g4390"
           transform="translate(165.6016,131.8008)"><path
             d="M 0,0 0.167,32"
             style="fill:none;stroke:#000000;stroke-width:0.5;stroke-linecap:round;stroke-linejoin:round;stroke-miterlimit:10;stroke-dasharray:none;stroke-opacity:1"
             id="path4392"
             inkscape:connector-curvature="0" /></g><g
           id="g4394"
           transform="translate(166.1016,139.9673)"><path
             d="M 0,0 C 2.667,1.5 5.5,3 7.667,3.833 9.834,4.667 18.667,7 18.667,7"
             style="fill:none;stroke:#000000;stroke-width:0.5;stroke-linecap:round;stroke-linejoin:round;stroke-miterlimit:10;stroke-dasharray:none;stroke-opacity:1"
             id="path4396"
             inkscape:connector-curvature="0" /></g><g
           id="g4398"
           transform="translate(191.2686,145.3008)"><path
             d="M 0,0 5.834,-4.167"
             style="fill:none;stroke:#000000;stroke-width:0.5;stroke-linecap:round;stroke-linejoin:round;stroke-miterlimit:10;stroke-dasharray:none;stroke-opacity:1"
             id="path4400"
             inkscape:connector-curvature="0" /></g><g
           id="g4402"
           transform="translate(168.9355,141.8008)"><path
             d="M 0,0 0.167,21.667"
             style="fill:none;stroke:#000000;stroke-width:0.5;stroke-linecap:round;stroke-linejoin:round;stroke-miterlimit:10;stroke-dasharray:none;stroke-opacity:1"
             id="path4404"
             inkscape:connector-curvature="0" /></g><g
           id="g4406"
           transform="translate(169.1025,154.4673)"><path
             d="M 0,0 8.833,-8.833"
             style="fill:none;stroke:#000000;stroke-width:0.5;stroke-linecap:round;stroke-linejoin:round;stroke-miterlimit:10;stroke-dasharray:none;stroke-opacity:1"
             id="path4408"
             inkscape:connector-curvature="0" /></g><g
           id="g4410"
           transform="translate(174.7686,144.3008)"><path
             d="M 0,0 -5.5,5.333"
             style="fill:none;stroke:#000000;stroke-width:0.25;stroke-linecap:round;stroke-linejoin:round;stroke-miterlimit:10;stroke-dasharray:none;stroke-opacity:1"
             id="path4412"
             inkscape:connector-curvature="0" /></g><g
           id="g4414"
           transform="translate(150.9355,163.6343)"><path
             d="M 0,0 -0.5,-30.833"
             style="fill:none;stroke:#000000;stroke-width:0.5;stroke-linecap:round;stroke-linejoin:round;stroke-miterlimit:10;stroke-dasharray:none;stroke-opacity:1"
             id="path4416"
             inkscape:connector-curvature="0" /></g><g
           id="g4418"
           transform="translate(115.1021,163.9673)"><path
             d="M 0,0 -0.167,-10.5"
             style="fill:none;stroke:#000000;stroke-width:0.5;stroke-linecap:round;stroke-linejoin:round;stroke-miterlimit:10;stroke-dasharray:none;stroke-opacity:1"
             id="path4420"
             inkscape:connector-curvature="0" /></g><g
           id="g4422"
           transform="translate(128.2686,163.8008)"><path
             d="m 0,0 -0.166,-14.333 c 0,-3.834 -2.167,-6.334 -2.167,-6.334"
             style="fill:none;stroke:#000000;stroke-width:0.5;stroke-linecap:round;stroke-linejoin:round;stroke-miterlimit:10;stroke-dasharray:none;stroke-opacity:1"
             id="path4424"
             inkscape:connector-curvature="0" /></g><g
           id="g4426"
           transform="translate(125.4355,163.8008)"><path
             d="m 0,0 -0.166,-14.333 c 0,-2.087 -0.643,-3.779 -1.228,-4.887"
             style="fill:none;stroke:#000000;stroke-width:0.25;stroke-linecap:round;stroke-linejoin:round;stroke-miterlimit:10;stroke-dasharray:none;stroke-opacity:1"
             id="path4428"
             inkscape:connector-curvature="0" /></g><g
           id="g4430"
           transform="translate(1.7686,164.6338)"><path
             d="M 0,0 -0.833,-13.167"
             style="fill:none;stroke:#000000;stroke-width:0.5;stroke-linecap:round;stroke-linejoin:round;stroke-miterlimit:10;stroke-dasharray:none;stroke-opacity:1"
             id="path4432"
             inkscape:connector-curvature="0" /></g><g
           id="g4434"
           transform="translate(1.7686,-2.1992)"><path
             d="m 0,0 c 0.5,43 5,127 8.25,139.25 3.25,12.25 3.365,13.492 4.245,17.103 2.067,8.48 -7.911,11.33 -9.977,5.985 -2.066,-5.344 -5.772,-13.112 -7.197,-26.438"
             style="fill:none;stroke:#000000;stroke-width:0.5;stroke-linecap:round;stroke-linejoin:round;stroke-miterlimit:10;stroke-dasharray:none;stroke-opacity:1"
             id="path4436"
             inkscape:connector-curvature="0" /></g><g
           id="g4438"
           transform="translate(15.0474,155.792)"><path
             d="M 0,0 C 0,0 19.881,0.784 24.585,0.855 29.289,0.927 32.709,1.14 35.274,-1.283 37.84,-3.706 39.693,-7.482 34.633,-12.328 29.574,-17.174 6.221,-40.616 -9.404,-62.491"
             style="fill:none;stroke:#000000;stroke-width:0.5;stroke-linecap:round;stroke-linejoin:round;stroke-miterlimit:10;stroke-dasharray:none;stroke-opacity:1"
             id="path4440"
             inkscape:connector-curvature="0" /></g><g
           id="g4442"
           transform="translate(7.5186,117.1758)"><path
             d="M 0,0 C 10.125,13.25 35.25,35 35.25,35"
             style="fill:none;stroke:#000000;stroke-width:0.5;stroke-linecap:round;stroke-linejoin:round;stroke-miterlimit:10;stroke-dasharray:none;stroke-opacity:1"
             id="path4444"
             inkscape:connector-curvature="0" /></g><g
           id="g4446"
           transform="translate(36.3936,146.6758)"><path
             d="M 0,0 -23.875,-1.25"
             style="fill:none;stroke:#000000;stroke-width:0.5;stroke-linecap:round;stroke-linejoin:round;stroke-miterlimit:10;stroke-dasharray:none;stroke-opacity:1"
             id="path4448"
             inkscape:connector-curvature="0" /></g><g
           id="g4450"
           transform="translate(9.2686,132.6758)"><path
             d="M 0,0 12.5,0.625"
             style="fill:none;stroke:#000000;stroke-width:0.5;stroke-linecap:round;stroke-linejoin:round;stroke-miterlimit:10;stroke-dasharray:none;stroke-opacity:1"
             id="path4452"
             inkscape:connector-curvature="0" /></g><g
           id="g4454"
           transform="translate(40.0186,133.3008)"><path
             d="m 0,0 c 0,0 14.5,0.625 19.125,0.625 4.625,0 6.25,-3.125 6.25,-3.125"
             style="fill:none;stroke:#000000;stroke-width:0.5;stroke-linecap:round;stroke-linejoin:round;stroke-miterlimit:10;stroke-dasharray:none;stroke-opacity:1"
             id="path4456"
             inkscape:connector-curvature="0" /></g><g
           id="g4458"
           transform="translate(3.7466,53.5732)"><path
             d="m 0,0 8.123,-6.689 c 0,0 -2.508,-2.15 -8.601,-5.734"
             style="fill:none;stroke:#000000;stroke-width:0.5;stroke-linecap:round;stroke-linejoin:round;stroke-miterlimit:10;stroke-dasharray:none;stroke-opacity:1"
             id="path4460"
             inkscape:connector-curvature="0" /></g><g
           id="g4462"
           transform="translate(8.1665,44.0166)"><path
             d="M 0,0 1.553,-4.3"
             style="fill:none;stroke:#000000;stroke-width:0.5;stroke-linecap:round;stroke-linejoin:round;stroke-miterlimit:10;stroke-dasharray:none;stroke-opacity:1"
             id="path4464"
             inkscape:connector-curvature="0" /></g><g
           id="g4466"
           transform="translate(9.4805,41.3887)"><path
             d="M 0,0 C 0,0 1.433,0.359 1.911,-0.955 2.389,-2.27 4.3,-5.613 4.659,-6.569 5.017,-7.525 4.3,-9.078 3.464,-9.556 2.628,-10.033 -1.911,-12.781 -6.928,-15.528"
             style="fill:none;stroke:#000000;stroke-width:0.5;stroke-linecap:round;stroke-linejoin:round;stroke-miterlimit:10;stroke-dasharray:none;stroke-opacity:1"
             id="path4468"
             inkscape:connector-curvature="0" /></g><g
           id="g4470"
           transform="translate(10.7944,40.792)"><path
             d="M 0,0 C 0.836,-2.031 -0.717,-2.747 -2.031,-3.703 -3.345,-4.659 -7.884,-6.929 -7.884,-6.929"
             style="fill:none;stroke:#000000;stroke-width:0.25;stroke-linecap:round;stroke-linejoin:round;stroke-miterlimit:10;stroke-dasharray:none;stroke-opacity:1"
             id="path4472"
             inkscape:connector-curvature="0" /></g><g
           id="g4474"
           transform="translate(9.2412,39.1191)"><path
             d="M 0,0 C 0,0 -2.509,-2.27 -5.973,-3.464"
             style="fill:none;stroke:#000000;stroke-width:0.25;stroke-linecap:round;stroke-linejoin:round;stroke-miterlimit:10;stroke-dasharray:none;stroke-opacity:1"
             id="path4476"
             inkscape:connector-curvature="0" /></g><g
           id="g4478"
           transform="translate(13.7803,32.3105)"><path
             d="M 0,0 2.389,-5.614"
             style="fill:none;stroke:#000000;stroke-width:0.5;stroke-linecap:round;stroke-linejoin:round;stroke-miterlimit:10;stroke-dasharray:none;stroke-opacity:1"
             id="path4480"
             inkscape:connector-curvature="0" /></g><g
           id="g4482"
           transform="translate(2.4326,18.9316)"><path
             d="m 0,0 c 0,0 10.272,6.213 12.423,7.168 2.15,0.955 2.151,0.836 3.823,0.597 1.671,-0.24 5.255,-1.552 6.45,-2.031 1.194,-0.478 2.031,-0.836 2.389,-1.792 0.358,-0.956 2.628,-6.212 3.942,-10.034 1.314,-3.822 1.433,-7.524 -8.123,-13.378"
             style="fill:none;stroke:#000000;stroke-width:0.5;stroke-linecap:round;stroke-linejoin:round;stroke-miterlimit:10;stroke-dasharray:none;stroke-opacity:1"
             id="path4484"
             inkscape:connector-curvature="0" /></g><g
           id="g4486"
           transform="translate(5.2993,26.8154)"><path
             d="M 0,0 2.389,-4.181"
             style="fill:none;stroke:#000000;stroke-width:0.25;stroke-linecap:round;stroke-linejoin:round;stroke-miterlimit:10;stroke-dasharray:none;stroke-opacity:1"
             id="path4488"
             inkscape:connector-curvature="0" /></g><g
           id="g4490"
           transform="translate(2.1938,10.6895)"><path
             d="m 0,0 c 0,0 20.306,11.708 21.501,12.424 1.195,0.716 0.836,1.432 0.836,1.432"
             style="fill:none;stroke:#000000;stroke-width:0.25;stroke-linecap:round;stroke-linejoin:round;stroke-miterlimit:10;stroke-dasharray:none;stroke-opacity:1"
             id="path4492"
             inkscape:connector-curvature="0" /></g><g
           id="g4494"
           transform="translate(2.1938,8.4199)"><path
             d="m 0,0 c 0,0 21.262,12.064 22.098,12.662 0.837,0.598 1.912,0.238 2.27,-0.358 0.358,-0.597 5.017,-12.423 5.017,-12.423"
             style="fill:none;stroke:#000000;stroke-width:0.25;stroke-linecap:round;stroke-linejoin:round;stroke-miterlimit:10;stroke-dasharray:none;stroke-opacity:1"
             id="path4496"
             inkscape:connector-curvature="0" /></g><g
           id="g4498"
           transform="translate(42.3296,16.0654)"><path
             d="M 0,0 -8.362,-6.331"
             style="fill:none;stroke:#000000;stroke-width:0.5;stroke-linecap:round;stroke-linejoin:round;stroke-miterlimit:10;stroke-dasharray:none;stroke-opacity:1"
             id="path4500"
             inkscape:connector-curvature="0" /></g><g
           id="g4502"
           transform="translate(29.0703,19.4102)"><path
             d="m 0,0 11.467,1.194 1.792,-4.539"
             style="fill:none;stroke:#000000;stroke-width:0.25;stroke-linecap:round;stroke-linejoin:round;stroke-miterlimit:10;stroke-dasharray:none;stroke-opacity:1"
             id="path4504"
             inkscape:connector-curvature="0" /></g><g
           id="g4506"
           transform="translate(40.5376,20.6045)"><path
             d="M 0,0 -9.078,-7.765"
             style="fill:none;stroke:#000000;stroke-width:0.25;stroke-linecap:round;stroke-linejoin:round;stroke-miterlimit:10;stroke-dasharray:none;stroke-opacity:1"
             id="path4508"
             inkscape:connector-curvature="0" /></g><g
           id="g4510"
           transform="translate(32.0566,10.4512)"><path
             d="m 0,0 c 0,0 1.075,-1.314 2.628,-1.792 1.553,-0.478 3.345,-10e-4 4.3,-0.956 0.956,-0.955 2.27,-1.434 2.389,-4.181 0.12,-2.747 2.986,-5.852 2.986,-5.852"
             style="fill:none;stroke:#000000;stroke-width:0.5;stroke-linecap:round;stroke-linejoin:round;stroke-miterlimit:10;stroke-dasharray:none;stroke-opacity:1"
             id="path4512"
             inkscape:connector-curvature="0" /></g><g
           id="g4514"
           transform="translate(54.2686,91.6338)"><path
             d="m 0,0 c 3.333,-1.5 3.667,-5.167 5.667,-9.167 2,-4 4,-7.833 10.5,-7.666 C 22.667,-16.667 122,-9.5 122,-9.5"
             style="fill:none;stroke:#000000;stroke-width:0.5;stroke-linecap:round;stroke-linejoin:round;stroke-miterlimit:10;stroke-dasharray:none;stroke-opacity:1"
             id="path4516"
             inkscape:connector-curvature="0" /></g><g
           id="g4518"
           transform="translate(176.4355,78.3008)"><path
             d="m 0,0 c 0,0 -98,-6 -105.5,-6.5 -7.5,-0.5 -11.834,2.333 -13.5,7.333 -1.667,5 -2,7.167 -3.333,2.167 -1.334,-5 -3.5,-14.834 3,-14.667 6.5,0.167 121.666,5.334 121.666,5.334"
             style="fill:none;stroke:#000000;stroke-width:0.5;stroke-linecap:round;stroke-linejoin:round;stroke-miterlimit:10;stroke-dasharray:none;stroke-opacity:1"
             id="path4520"
             inkscape:connector-curvature="0" /></g><g
           id="g4522"
           transform="translate(51.4351,90.1338)"><path
             d="M 0,0 C -6.667,-16 -6.333,-31.499 5.333,-30.833 17,-30.167 117.667,-26 117.667,-26"
             style="fill:none;stroke:#000000;stroke-width:0.5;stroke-linecap:round;stroke-linejoin:round;stroke-miterlimit:10;stroke-dasharray:none;stroke-opacity:1"
             id="path4524"
             inkscape:connector-curvature="0" /></g><g
           id="g4526"
           transform="translate(165.6025,52.9492)"><path
             d="m 0,0 c 1.413,3.731 6.002,5.595 10.437,4.172 4.559,-1.463 7.23,-5.846 5.964,-9.79"
             style="fill:none;stroke:#000000;stroke-width:0.5;stroke-linecap:round;stroke-linejoin:round;stroke-miterlimit:10;stroke-dasharray:none;stroke-opacity:1"
             id="path4528"
             inkscape:connector-curvature="0" /></g><g
           id="g4530"
           transform="translate(169.6855,64.7168)"><path
             d="m 0,0 c 0,0 1.583,2.834 6.333,2.167 4.75,-0.667 6.583,-2.417 7.5,-2.75"
             style="fill:none;stroke:#000000;stroke-width:0.5;stroke-linecap:round;stroke-linejoin:round;stroke-miterlimit:10;stroke-dasharray:none;stroke-opacity:1"
             id="path4532"
             inkscape:connector-curvature="0" /></g><g
           id="g4534"
           transform="translate(185.6025,58.0508)"><path
             d="m 0,0 -3.599,-10.72 c -1.265,-3.944 -5.987,-5.956 -10.547,-4.493 -4.559,1.463 -7.23,5.847 -5.964,9.791 0.034,0.109 0.071,0.215 0.11,0.32 l 4.083,11.768"
             style="fill:none;stroke:#000000;stroke-width:1;stroke-linecap:round;stroke-linejoin:round;stroke-miterlimit:10;stroke-dasharray:none;stroke-opacity:1"
             id="path4536"
             inkscape:connector-curvature="0" /></g><g
           id="g4538"
           transform="translate(169.6572,51.292)"><path
             d="M 0,0 C 0.628,1.954 2.967,2.95 5.226,2.226 7.484,1.501 8.808,-0.671 8.181,-2.624"
             style="fill:none;stroke:#000000;stroke-width:1;stroke-linecap:round;stroke-linejoin:round;stroke-miterlimit:10;stroke-dasharray:none;stroke-opacity:1"
             id="path4540"
             inkscape:connector-curvature="0" /></g><g
           id="g4542"
           transform="translate(177.8379,48.668)"><path
             d="M 0,0 C -0.627,-1.955 -2.966,-2.951 -5.226,-2.227 -7.483,-1.502 -8.808,0.67 -8.181,2.624"
             style="fill:none;stroke:#000000;stroke-width:0.5;stroke-linecap:round;stroke-linejoin:round;stroke-miterlimit:10;stroke-dasharray:none;stroke-opacity:1"
             id="path4544"
             inkscape:connector-curvature="0" /></g><g
           id="g4546"
           transform="translate(144.4492,49.79)"><path
             d="m 0,0 c 0,0 -2.251,-3.441 -2.516,-4.038 -0.264,-0.597 -0.264,-0.927 0,-2.251 0.265,-1.324 2.98,-16.219 3.443,-17.874 0.463,-1.655 3.772,-1.655 4.898,-0.729 1.126,0.927 1.523,1.391 1.523,1.391"
             style="fill:none;stroke:#000000;stroke-width:1;stroke-linecap:round;stroke-linejoin:round;stroke-miterlimit:10;stroke-dasharray:none;stroke-opacity:1"
             id="path4548"
             inkscape:connector-curvature="0" /></g><g
           id="g4550"
           transform="translate(144.9121,50.1865)"><path
             d="m 0,0 c 1.258,0.596 4.237,0.927 4.436,-1.258 0.198,-2.184 2.78,-21.846 2.78,-21.846"
             style="fill:none;stroke:#000000;stroke-width:0.5;stroke-linecap:round;stroke-linejoin:round;stroke-miterlimit:10;stroke-dasharray:none;stroke-opacity:1"
             id="path4552"
             inkscape:connector-curvature="0" /></g><g
           id="g4554"
           transform="translate(141.8008,44.6924)"><path
             d="M 0,0 C -0.066,1.191 4.038,1.787 4.369,-0.397 4.7,-2.582 7.878,-19.794 7.878,-19.794"
             style="fill:none;stroke:#000000;stroke-width:0.5;stroke-linecap:round;stroke-linejoin:round;stroke-miterlimit:10;stroke-dasharray:none;stroke-opacity:1"
             id="path4556"
             inkscape:connector-curvature="0" /></g><g
           id="g4558"
           transform="translate(208.3643,9.7695)"><path
             d="M 0,0 -73.262,-13.636"
             style="fill:none;stroke:#000000;stroke-width:0.5;stroke-linecap:round;stroke-linejoin:round;stroke-miterlimit:10;stroke-dasharray:none;stroke-opacity:1"
             id="path4560"
             inkscape:connector-curvature="0" /></g><g
           id="g4562"
           transform="translate(11.1641,100.4204)"><path
             d="M 0,0 C 0,0 13.55,0.99 18.001,1.286 22.452,1.583 25.519,0.89 25.519,0.89 l 16.715,0.594 7.121,-2.869 -0.099,-6.231"
             style="fill:none;stroke:#000000;stroke-width:0.5;stroke-linecap:round;stroke-linejoin:round;stroke-miterlimit:10;stroke-dasharray:none;stroke-opacity:1"
             id="path4564"
             inkscape:connector-curvature="0" /></g><g
           id="g4566"
           transform="translate(36.6826,101.3105)"><path
             d="M 0,0 C -2.374,-1.088 -2.869,-9.891 -3.166,-13.748"
             style="fill:none;stroke:#000000;stroke-width:0.25;stroke-linecap:round;stroke-linejoin:round;stroke-miterlimit:10;stroke-dasharray:none;stroke-opacity:1"
             id="path4568"
             inkscape:connector-curvature="0" /></g><g
           id="g4570"
           transform="translate(34.7041,101.7065)"><path
             d="m 0,0 c 0,0 14.638,3.462 18.892,4.55 4.253,1.088 9.001,3.264 8.506,4.055 -0.495,0.791 -5.242,11.078 -5.737,11.869 -0.494,0.791 -1.78,0.891 -4.747,-0.198"
             style="fill:none;stroke:#000000;stroke-width:0.5;stroke-linecap:round;stroke-linejoin:round;stroke-miterlimit:10;stroke-dasharray:none;stroke-opacity:1"
             id="path4572"
             inkscape:connector-curvature="0" /></g><g
           id="g4574"
           transform="translate(20.6436,112.1758)"><path
             d="m 0,0 c 0,0 39.25,16.375 40.75,16.875 1.5,0.5 2.75,1 3.125,-0.125 C 44.25,15.625 47.125,9.25 48,7.375 48.875,5.5 44.375,3.625 39.875,1.75"
             style="fill:none;stroke:#000000;stroke-width:0.5;stroke-linecap:round;stroke-linejoin:round;stroke-miterlimit:10;stroke-dasharray:none;stroke-opacity:1"
             id="path4576"
             inkscape:connector-curvature="0" /></g><g
           id="g4578"
           transform="translate(56.3652,122.1807)"><path
             d="m 0,0 c 0.403,-1.13 -4.722,-2.755 -9.347,-4.505 -4.625,-1.75 -31.75,-11.625 -31.75,-11.625"
             style="fill:none;stroke:#000000;stroke-width:0.25;stroke-linecap:round;stroke-linejoin:round;stroke-miterlimit:10;stroke-dasharray:none;stroke-opacity:1"
             id="path4580"
             inkscape:connector-curvature="0" /></g><g
           id="g4582"
           transform="translate(64.5186,128.9258)"><path
             d="M 0,0 C -0.125,-1.25 -8.75,-4.75 -12.125,-6.375"
             style="fill:none;stroke:#000000;stroke-width:0.25;stroke-linecap:round;stroke-linejoin:round;stroke-miterlimit:10;stroke-dasharray:none;stroke-opacity:1"
             id="path4584"
             inkscape:connector-curvature="0" /></g><g
           id="g4586"
           transform="translate(70.1021,128.4673)"><path
             d="M 0,0 C -4.833,1.833 -8.667,2.667 -12.833,2.833 -17,3 -17.667,3.167 -20.833,2.167 -24,1.167 -36,-4.667 -36,-4.667"
             style="fill:none;stroke:#000000;stroke-width:0.5;stroke-linecap:round;stroke-linejoin:round;stroke-miterlimit:10;stroke-dasharray:none;stroke-opacity:1"
             id="path4588"
             inkscape:connector-curvature="0" /></g><g
           id="g4590"
           transform="translate(34.2686,127.3008)"><path
             d="M 0,0 C -0.167,-2.167 -0.333,-6.833 -2.833,-10.333"
             style="fill:none;stroke:#000000;stroke-width:0.5;stroke-linecap:round;stroke-linejoin:round;stroke-miterlimit:10;stroke-dasharray:none;stroke-opacity:1"
             id="path4592"
             inkscape:connector-curvature="0" /></g><g
           id="g4594"
           transform="translate(66.1021,163.9673)"><path
             d="M 0,0 C 0,0 -0.333,-4.167 -0.333,-5.5 -0.333,-6.833 5,-15.167 5,-15.167"
             style="fill:none;stroke:#000000;stroke-width:1;stroke-linecap:round;stroke-linejoin:round;stroke-miterlimit:10;stroke-dasharray:none;stroke-opacity:1"
             id="path4596"
             inkscape:connector-curvature="0" /></g><g
           id="g4598"
           transform="translate(71.9351,163.9673)"><path
             d="m 0,0 c 0,0 1.5,-5 6.667,-5 5.166,0 20.5,-1 20.5,-1"
             style="fill:none;stroke:#000000;stroke-width:1;stroke-linecap:round;stroke-linejoin:round;stroke-miterlimit:10;stroke-dasharray:none;stroke-opacity:1"
             id="path4600"
             inkscape:connector-curvature="0" /></g><g
           id="g4602"
           transform="translate(169.1025,111.4673)"><path
             d="M 0,0 -9.667,0"
             style="fill:none;stroke:#000000;stroke-width:0.5;stroke-linecap:round;stroke-linejoin:round;stroke-miterlimit:10;stroke-dasharray:none;stroke-opacity:1"
             id="path4604"
             inkscape:connector-curvature="0" /></g></g></g><text
       transform="matrix(1,0,0,-1,2.6748,2.6875)"
       style="font-variant:normal;font-weight:normal;font-stretch:normal;font-size:4px;font-family:'Swiss 721 SWA';-inkscape-font-specification:Helvetica;writing-mode:lr-tb;fill:#231f20;fill-opacity:1;fill-rule:nonzero;stroke:none"
       id="text4606"><tspan
         x="0 2 2.888 5.112"
         y="0"
         sodipodi:role="line"
         id="tspan4608">cjps</tspan></text>
<g
       id="g4610"
       transform="translate(139.7686,170.4673)"><path
         d="M 0,0 -39,-34.667"
         style="fill:none;stroke:#ffffff;stroke-width:3;stroke-linecap:round;stroke-linejoin:miter;stroke-miterlimit:4;stroke-dasharray:none;stroke-opacity:1"
         id="path4612"
         inkscape:connector-curvature="0" /></g><g
       id="g4614"
       transform="translate(100.7686,135.8008)"><path
         d="M 0,0 0,0"
         style="fill:none;stroke:#ffffff;stroke-width:3.75;stroke-linecap:round;stroke-linejoin:miter;stroke-miterlimit:4;stroke-dasharray:none;stroke-opacity:1"
         id="path4616"
         inkscape:connector-curvature="0" /></g><g
       id="g4618"
       transform="translate(139.7686,170.4673)"><path
         d="M 0,0 -39,-34.667"
         style="fill:none;stroke:#211f1f;stroke-width:0.5;stroke-linecap:round;stroke-linejoin:miter;stroke-miterlimit:4;stroke-dasharray:none;stroke-opacity:1"
         id="path4620"
         inkscape:connector-curvature="0" /></g><g
       id="g4622"
       transform="translate(100.7686,135.8008)"><path
         d="M 0,0 0,0"
         style="fill:none;stroke:#211f1f;stroke-width:1.5;stroke-linecap:round;stroke-linejoin:miter;stroke-miterlimit:4;stroke-dasharray:none;stroke-opacity:1"
         id="path4624"
         inkscape:connector-curvature="0" /></g><g
       id="g4626"
       transform="translate(154.4355,151.1343)"><path
         d="M 0,0 -43.333,-23.667"
         style="fill:none;stroke:#ffffff;stroke-width:3;stroke-linecap:round;stroke-linejoin:miter;stroke-miterlimit:4;stroke-dasharray:none;stroke-opacity:1"
         id="path4628"
         inkscape:connector-curvature="0" /></g><g
       id="g4630"
       transform="translate(111.1021,127.4673)"><path
         d="M 0,0 0,0"
         style="fill:none;stroke:#ffffff;stroke-width:3.75;stroke-linecap:round;stroke-linejoin:miter;stroke-miterlimit:4;stroke-dasharray:none;stroke-opacity:1"
         id="path4632"
         inkscape:connector-curvature="0" /></g><g
       id="g4634"
       transform="translate(154.4355,151.1343)"><path
         d="M 0,0 -43.333,-23.667"
         style="fill:none;stroke:#211f1f;stroke-width:0.5;stroke-linecap:round;stroke-linejoin:miter;stroke-miterlimit:4;stroke-dasharray:none;stroke-opacity:1"
         id="path4636"
         inkscape:connector-curvature="0" /></g><g
       id="g4638"
       transform="translate(111.1021,127.4673)"><path
         d="M 0,0 0,0"
         style="fill:none;stroke:#211f1f;stroke-width:1.5;stroke-linecap:round;stroke-linejoin:miter;stroke-miterlimit:4;stroke-dasharray:none;stroke-opacity:1"
         id="path4640"
         inkscape:connector-curvature="0" /></g><g
       id="g4642"
       transform="translate(175.4355,135.1343)"><path
         d="M 0,0 -23.333,-36.333"
         style="fill:none;stroke:#ffffff;stroke-width:3;stroke-linecap:round;stroke-linejoin:miter;stroke-miterlimit:4;stroke-dasharray:none;stroke-opacity:1"
         id="path4644"
         inkscape:connector-curvature="0" /></g><g
       id="g4646"
       transform="translate(152.1025,98.8008)"><path
         d="M 0,0 0,0"
         style="fill:none;stroke:#ffffff;stroke-width:3.75;stroke-linecap:round;stroke-linejoin:miter;stroke-miterlimit:4;stroke-dasharray:none;stroke-opacity:1"
         id="path4648"
         inkscape:connector-curvature="0" /></g><g
       id="g4650"
       transform="translate(175.4355,135.1343)"><path
         d="M 0,0 -23.333,-36.333"
         style="fill:none;stroke:#211f1f;stroke-width:0.5;stroke-linecap:round;stroke-linejoin:miter;stroke-miterlimit:4;stroke-dasharray:none;stroke-opacity:1"
         id="path4652"
         inkscape:connector-curvature="0" /></g><g
       id="g4654"
       transform="translate(152.1025,98.8008)"><path
         d="M 0,0 0,0"
         style="fill:none;stroke:#211f1f;stroke-width:1.5;stroke-linecap:round;stroke-linejoin:miter;stroke-miterlimit:4;stroke-dasharray:none;stroke-opacity:1"
         id="path4656"
         inkscape:connector-curvature="0" /></g><text
       transform="matrix(1,0,0,-1,140.5728,171.2778)"
       style="font-variant:normal;font-weight:bold;font-stretch:normal;font-size:10px;font-family:'Swiss 721 SWA';-inkscape-font-specification:Helvetica-Bold;writing-mode:lr-tb;fill:#231f20;fill-opacity:1;fill-rule:nonzero;stroke:none"
       id="text4658"><tspan
         x="0"
         y="0"
         id="tspan4660">1</tspan><tspan
         x="15"
         y="20.67"
         id="tspan4662">2</tspan><tspan
         x="34.330002"
         y="34.669998"
         id="tspan4664">3</tspan></text>
</g></svg>