<?xml version="1.0" encoding="UTF-8" standalone="no"?>
<!-- Created with Inkscape (http://www.inkscape.org/) -->

<svg
   xmlns:dc="http://purl.org/dc/elements/1.1/"
   xmlns:cc="http://creativecommons.org/ns#"
   xmlns:rdf="http://www.w3.org/1999/02/22-rdf-syntax-ns#"
   xmlns:svg="http://www.w3.org/2000/svg"
   xmlns="http://www.w3.org/2000/svg"
   xmlns:sodipodi="http://sodipodi.sourceforge.net/DTD/sodipodi-0.dtd"
   xmlns:inkscape="http://www.inkscape.org/namespaces/inkscape"
   id="svg3670"
   version="1.1"
   inkscape:version="0.91 r13725"
   xml:space="preserve"
   width="301.18124"
   height="230.315"
   viewBox="0 0 301.18124 230.315"
   sodipodi:docname="cjrh_1.svg"><metadata
     id="metadata3676"><rdf:RDF><cc:Work
         rdf:about=""><dc:format>image/svg+xml</dc:format><dc:type
           rdf:resource="http://purl.org/dc/dcmitype/StillImage" /><dc:title></dc:title></cc:Work></rdf:RDF></metadata><defs
     id="defs3674"><clipPath
       clipPathUnits="userSpaceOnUse"
       id="clipPath3684"><path
         d="m 0,0 240.945,0 0,184.252 L 0,184.252 0,0 Z"
         id="path3686"
         inkscape:connector-curvature="0" /></clipPath><clipPath
       clipPathUnits="userSpaceOnUse"
       id="clipPath3872"><path
         d="m 0,184.252 240.945,0 L 240.945,0 0,0 0,184.252 Z"
         id="path3874"
         inkscape:connector-curvature="0" /></clipPath></defs><sodipodi:namedview
     pagecolor="#ffffff"
     bordercolor="#666666"
     borderopacity="1"
     objecttolerance="10"
     gridtolerance="10"
     guidetolerance="10"
     inkscape:pageopacity="0"
     inkscape:pageshadow="2"
     inkscape:window-width="640"
     inkscape:window-height="480"
     id="namedview3672"
     showgrid="false"
     inkscape:zoom="3.3779823"
     inkscape:cx="150.59062"
     inkscape:cy="115.1575"
     inkscape:window-x="0"
     inkscape:window-y="0"
     inkscape:window-maximized="1"
     inkscape:current-layer="g3678" /><g
     id="g3678"
     inkscape:groupmode="layer"
     inkscape:label="cjrh_1"
     transform="matrix(1.25,0,0,-1.25,0,230.315)"><g
       id="g3680"><g
         id="g3682"
         clip-path="url(#clipPath3684)"><g
           id="g3688"
           transform="translate(228.0693,87.0889)"><path
             d="m 0,0 c -2.719,7.662 -7.909,12.853 -13.1,19.032 -5.19,6.179 -15.077,20.761 -16.56,38.557 -1.468,17.606 -2.833,31.367 8.524,34.505"
             style="fill:none;stroke:#000000;stroke-width:0.5;stroke-linecap:round;stroke-linejoin:round;stroke-miterlimit:10;stroke-dasharray:none;stroke-opacity:1"
             id="path3690"
             inkscape:connector-curvature="0" /></g><g
           id="g3692"
           transform="translate(214.9687,178.0449)"><path
             d="M 0,0 C 0,0 -2.719,2.472 -7.662,1.236 -7.788,1.204 -7.912,1.171 -8.035,1.138 l -20.028,-6.063 -6.745,-0.262 -82.842,18.04"
             style="fill:none;stroke:#000000;stroke-width:1;stroke-linecap:round;stroke-linejoin:round;stroke-miterlimit:10;stroke-dasharray:none;stroke-opacity:1"
             id="path3694"
             inkscape:connector-curvature="0" /></g><g
           id="g3696"
           transform="translate(212.25,177.0562)"><path
             d="M 0,0 40.288,12.111"
             style="fill:none;stroke:#000000;stroke-width:0.5;stroke-linecap:round;stroke-linejoin:round;stroke-miterlimit:10;stroke-dasharray:none;stroke-opacity:1"
             id="path3698"
             inkscape:connector-curvature="0" /></g><g
           id="g3700"
           transform="translate(233.5059,97.2222)"><path
             d="m 0,0 c -3.955,8.404 -10.381,14.335 -17.054,24.716 -4.791,7.453 -7.909,23.975 -8.404,36.828 -0.495,12.852 0,16.807 4.202,18.29"
             style="fill:none;stroke:#000000;stroke-width:0.5;stroke-linecap:round;stroke-linejoin:round;stroke-miterlimit:10;stroke-dasharray:none;stroke-opacity:1"
             id="path3702"
             inkscape:connector-curvature="0" /></g><g
           id="g3704"
           transform="translate(49.0215,142.7754)"><path
             d="m 0,0 c 0,0 71.856,-8.781 76.979,-9.805 5.122,-1.025 5.415,-7.318 3.073,-11.562"
             style="fill:none;stroke:#000000;stroke-width:1;stroke-linecap:round;stroke-linejoin:round;stroke-miterlimit:10;stroke-dasharray:none;stroke-opacity:1"
             id="path3706"
             inkscape:connector-curvature="0" /></g><g
           id="g3708"
           transform="translate(55.7534,190.6309)"><path
             d="M 0,0 -10.485,-70.852"
             style="fill:none;stroke:#000000;stroke-width:0.5;stroke-linecap:round;stroke-linejoin:round;stroke-miterlimit:10;stroke-dasharray:none;stroke-opacity:1"
             id="path3710"
             inkscape:connector-curvature="0" /></g><g
           id="g3712"
           transform="translate(-13.2314,128.7793)"><path
             d="m 0,0 c 0,0 14.75,-0.25 26.5,-1.25 11.75,-1 22.75,-4.25 34.25,-9.25 11.5,-5 20,-7.25 18.5,-21.75 -1.5,-14.5 -3,-20.25 -4.25,-30 -1.072,-8.365 -37.5,-16.5 -66.5,-4.25"
             style="fill:none;stroke:#000000;stroke-width:0.5;stroke-linecap:round;stroke-linejoin:round;stroke-miterlimit:10;stroke-dasharray:none;stroke-opacity:1"
             id="path3714"
             inkscape:connector-curvature="0" /></g><g
           id="g3716"
           transform="translate(265.7686,93.2793)"><path
             d="m 0,0 -35.75,-6.5 c 0,0 -5.25,1.5 -9.25,0.75 -4,-0.75 -31.775,-5.01 -35.25,-5.5 -16.309,-2.303 -37.08,19.069 -42.482,47.524"
             style="fill:none;stroke:#000000;stroke-width:1;stroke-linecap:round;stroke-linejoin:round;stroke-miterlimit:10;stroke-dasharray:none;stroke-opacity:1"
             id="path3718"
             inkscape:connector-curvature="0" /></g><g
           id="g3720"
           transform="translate(229.0186,110.7793)"><path
             d="M 0,0 C 3.25,-3.25 4,-12.25 5.25,-22.5"
             style="fill:none;stroke:#000000;stroke-width:1;stroke-linecap:round;stroke-linejoin:round;stroke-miterlimit:10;stroke-dasharray:none;stroke-opacity:1"
             id="path3722"
             inkscape:connector-curvature="0" /></g><g
           id="g3724"
           transform="translate(228.5186,112.5293)"><path
             d="M 0,0 C 0,8.25 5,14 22,16.75"
             style="fill:none;stroke:#000000;stroke-width:0.5;stroke-linecap:round;stroke-linejoin:round;stroke-miterlimit:10;stroke-dasharray:none;stroke-opacity:1"
             id="path3726"
             inkscape:connector-curvature="0" /></g><g
           id="g3728"
           transform="translate(232.0186,105.5293)"><path
             d="M 0,0 C 0.5,9.25 6.25,11.5 15,13.75"
             style="fill:none;stroke:#000000;stroke-width:0.5;stroke-linecap:round;stroke-linejoin:round;stroke-miterlimit:10;stroke-dasharray:none;stroke-opacity:1"
             id="path3730"
             inkscape:connector-curvature="0" /></g><g
           id="g3732"
           transform="translate(223.5186,88.0293)"><path
             d="m 0,0 c -18.75,-3 -17.5,-28 -17,-36.25 1.007,-16.608 7.888,-36.707 18,-45.5 5.75,-5 9.5,-7.5 9.25,-12.75"
             style="fill:none;stroke:#000000;stroke-width:0.25;stroke-linecap:round;stroke-linejoin:round;stroke-miterlimit:10;stroke-dasharray:none;stroke-opacity:1"
             id="path3734"
             inkscape:connector-curvature="0" /></g><g
           id="g3736"
           transform="translate(230.0186,86.7793)"><path
             d="m 0,0 c -5,-2 -9.5,-14.75 -6,-40.5 3.5,-25.75 10,-33.75 19.25,-42"
             style="fill:none;stroke:#000000;stroke-width:0.25;stroke-linecap:round;stroke-linejoin:round;stroke-miterlimit:10;stroke-dasharray:none;stroke-opacity:1"
             id="path3738"
             inkscape:connector-curvature="0" /></g><g
           id="g3740"
           transform="translate(153.8154,62.1797)"><path
             d="m 0,0 c 1.309,-1.32 2.018,-3.806 1.827,-7.787 -1.207,-25.338 5.71,-38.1 27.255,-45.745 7.443,-2.642 11.045,-9.244 11.525,-12.487"
             style="fill:none;stroke:#000000;stroke-width:1;stroke-linecap:round;stroke-linejoin:round;stroke-miterlimit:10;stroke-dasharray:none;stroke-opacity:1"
             id="path3742"
             inkscape:connector-curvature="0" /></g><g
           id="g3744"
           transform="translate(115.4204,50.791)"><path
             d="m 0,0 c 0.12,1.08 6.363,4.083 14.408,6.724 8.045,2.64 15.129,4.681 19.211,5.642 1.933,0.455 3.597,0.21 4.776,-0.977"
             style="fill:none;stroke:#000000;stroke-width:1;stroke-linecap:round;stroke-linejoin:round;stroke-miterlimit:10;stroke-dasharray:none;stroke-opacity:1"
             id="path3746"
             inkscape:connector-curvature="0" /></g><g
           id="g3748"
           transform="translate(113.1387,43.707)"><path
             d="M 0,0 C 0,2.918 8.332,5.283 18.61,5.283 28.889,5.283 37.221,2.918 37.221,0"
             style="fill:none;stroke:#000000;stroke-width:0.5;stroke-linecap:round;stroke-linejoin:round;stroke-miterlimit:10;stroke-dasharray:none;stroke-opacity:1"
             id="path3750"
             inkscape:connector-curvature="0" /></g><g
           id="g3752"
           transform="translate(145.8672,40.2637)"><path
             d="m 0,0 c 2.8,0.926 4.492,2.129 4.492,3.443 l 0,4.683 c 0,0.63 -0.388,1.234 -1.101,1.795"
             style="fill:none;stroke:#000000;stroke-width:1;stroke-linecap:round;stroke-linejoin:round;stroke-miterlimit:10;stroke-dasharray:none;stroke-opacity:1"
             id="path3754"
             inkscape:connector-curvature="0" /></g><g
           id="g3756"
           transform="translate(143.4893,52.4883)"><path
             d="m 0,0 c -3.203,0.74 -7.289,1.185 -11.74,1.185 -10.279,0 -18.611,-2.366 -18.611,-5.284 l 0,-4.682 c 0,-1.311 1.682,-2.51 4.465,-3.434"
             style="fill:none;stroke:#000000;stroke-width:1;stroke-linecap:round;stroke-linejoin:round;stroke-miterlimit:10;stroke-dasharray:none;stroke-opacity:1"
             id="path3758"
             inkscape:connector-curvature="0" /></g><g
           id="g3760"
           transform="translate(117.7441,28.5566)"><path
             d="M 0,0 C 0,2.195 6.271,3.977 14.005,3.977 21.739,3.977 28.01,2.195 28.01,0"
             style="fill:none;stroke:#000000;stroke-width:0.25;stroke-linecap:round;stroke-linejoin:round;stroke-miterlimit:10;stroke-dasharray:none;stroke-opacity:1"
             id="path3762"
             inkscape:connector-curvature="0" /></g><g
           id="g3764"
           transform="translate(131.749,47.542)"><path
             d="m 0,0 c -7.734,0 -14.005,-1.781 -14.005,-3.977 l 0,-15.008 c 0,-2.196 4.209,-4.901 14.038,-4.901 9.828,0 13.972,2.705 13.972,4.901 l 0,15.008 C 14.005,-1.781 7.734,0 0,0 Z"
             style="fill:none;stroke:#000000;stroke-width:1;stroke-linecap:round;stroke-linejoin:round;stroke-miterlimit:10;stroke-dasharray:none;stroke-opacity:1"
             id="path3766"
             inkscape:connector-curvature="0" /></g><g
           id="g3768"
           transform="translate(143.207,27.1104)"><path
             d="m 0,0 c 0,-1.797 -5.13,-3.253 -11.458,-3.253 -6.328,0 -11.458,1.456 -11.458,3.253 0,1.796 5.13,3.253 11.458,3.253 C -5.13,3.253 0,1.796 0,0 Z"
             style="fill:none;stroke:#000000;stroke-width:0.25;stroke-linecap:round;stroke-linejoin:round;stroke-miterlimit:10;stroke-dasharray:none;stroke-opacity:1"
             id="path3770"
             inkscape:connector-curvature="0" /></g><g
           id="g3772"
           transform="translate(141.7148,55.7129)"><path
             d="m 0,0 c 1.081,-0.12 1.801,-1.319 1.801,-2.521 0,-1.201 0.361,-1.8 3.602,-2.521 3.242,-0.721 7.804,-2.161 7.804,-2.161"
             style="fill:none;stroke:#000000;stroke-width:0.5;stroke-linecap:round;stroke-linejoin:round;stroke-miterlimit:10;stroke-dasharray:none;stroke-opacity:1"
             id="path3774"
             inkscape:connector-curvature="0" /></g><g
           id="g3776"
           transform="translate(144.2363,52.1113)"><path
             d="m 0,0 c 0.601,1.32 1.44,1.32 3.722,2.161 2.281,0.841 4.682,0.6 7.564,-0.721"
             style="fill:none;stroke:#000000;stroke-width:0.25;stroke-linecap:round;stroke-linejoin:round;stroke-miterlimit:10;stroke-dasharray:none;stroke-opacity:1"
             id="path3778"
             inkscape:connector-curvature="0" /></g><g
           id="g3780"
           transform="translate(142.1953,56.0732)"><path
             d="m 0,0 c 0.24,1.441 0.119,0.841 3.121,2.521 3.002,1.681 5.764,2.282 9.726,0.721"
             style="fill:none;stroke:#000000;stroke-width:0.25;stroke-linecap:round;stroke-linejoin:round;stroke-miterlimit:10;stroke-dasharray:none;stroke-opacity:1"
             id="path3782"
             inkscape:connector-curvature="0" /></g><g
           id="g3784"
           transform="translate(143.4092,54.3496)"><path
             d="m 0,0 c 0.225,1.291 0.11,0.754 2.907,2.26 2.796,1.505 5.369,2.043 9.059,0.644"
             style="fill:none;stroke:#000000;stroke-width:0.25;stroke-linecap:round;stroke-linejoin:round;stroke-miterlimit:10;stroke-dasharray:none;stroke-opacity:1"
             id="path3786"
             inkscape:connector-curvature="0" /></g><g
           id="g3788"
           transform="translate(139.7344,27.1377)"><path
             d="m 0,0 -3.993,-2.024 -7.985,0 -3.66,1.855"
             style="fill:none;stroke:#000000;stroke-width:0.25;stroke-linecap:round;stroke-linejoin:round;stroke-miterlimit:10;stroke-dasharray:none;stroke-opacity:1"
             id="path3790"
             inkscape:connector-curvature="0" /></g><g
           id="g3792"
           transform="translate(124.0967,26.9688)"><path
             d="m 0,0 -0.333,0.169 3.993,2.024 7.985,0 3.993,-2.024"
             style="fill:none;stroke:#000000;stroke-width:0.5;stroke-linecap:butt;stroke-linejoin:round;stroke-miterlimit:10;stroke-dasharray:none;stroke-opacity:1"
             id="path3794"
             inkscape:connector-curvature="0" /></g><g
           id="g3796"
           transform="translate(135.7412,25.1133)"><path
             d="M 0,0 0,4.049"
             style="fill:none;stroke:#000000;stroke-width:0.25;stroke-linecap:round;stroke-linejoin:round;stroke-miterlimit:10;stroke-dasharray:none;stroke-opacity:1"
             id="path3798"
             inkscape:connector-curvature="0" /></g><g
           id="g3800"
           transform="translate(127.9072,25.1133)"><path
             d="M 0,0 0,4.049"
             style="fill:none;stroke:#000000;stroke-width:0.25;stroke-linecap:round;stroke-linejoin:round;stroke-miterlimit:10;stroke-dasharray:none;stroke-opacity:1"
             id="path3802"
             inkscape:connector-curvature="0" /></g><g
           id="g3804"
           transform="translate(113.8604,50.1914)"><path
             d="m 0,0 c -2.041,2.041 -2.161,3.122 -2.161,6.844 l 0,7.803 c 0,0.961 0.48,2.521 3.602,4.082 3.121,1.562 30.617,14.529 34.699,16.209 4.082,1.681 5.402,3.243 8.524,3.243 3.122,0 8.525,-0.602 8.525,-0.602"
             style="fill:none;stroke:#000000;stroke-width:1;stroke-linecap:round;stroke-linejoin:round;stroke-miterlimit:10;stroke-dasharray:none;stroke-opacity:1"
             id="path3806"
             inkscape:connector-curvature="0" /></g><g
           id="g3808"
           transform="translate(51.2686,158.7793)"><path
             d="m 0,0 c 0,0 122.605,-19.418 126.25,-19.75 2.75,-0.25 3.375,1.125 3.375,2.875 0,3.384 -0.625,20.5 -0.875,22.75 -0.25,2.25 0.25,7.75 0.25,7.75"
             style="fill:none;stroke:#000000;stroke-width:0.5;stroke-linecap:round;stroke-linejoin:round;stroke-miterlimit:10;stroke-dasharray:none;stroke-opacity:1"
             id="path3810"
             inkscape:connector-curvature="0" /></g><g
           id="g3812"
           transform="translate(187.6436,172.6543)"><path
             d="M 0,0 C -0.75,-1.5 -1.25,-4.75 -1.125,-6.875 -1,-9 0.625,-29.75 0.625,-32.375 0.625,-35 -1.5,-39.125 -6.25,-41.5 -11,-43.875 -41.125,-46.375 -41.125,-46.375"
             style="fill:none;stroke:#000000;stroke-width:0.5;stroke-linecap:round;stroke-linejoin:round;stroke-miterlimit:10;stroke-dasharray:none;stroke-opacity:1"
             id="path3814"
             inkscape:connector-curvature="0" /></g><g
           id="g3816"
           transform="translate(50.6436,154.7793)"><path
             d="m 0,0 c 0,0 120,-18.5 122.625,-19.125 2.625,-0.625 4.25,-1.75 0.25,-2.25 -4,-0.5 -27.125,-3.625 -29.125,-3.75 -2,-0.125 -12.625,1.625 -12.625,1.625"
             style="fill:none;stroke:#000000;stroke-width:0.5;stroke-linecap:round;stroke-linejoin:round;stroke-miterlimit:10;stroke-dasharray:none;stroke-opacity:1"
             id="path3818"
             inkscape:connector-curvature="0" /></g><g
           id="g3820"
           transform="translate(91.0186,185.7793)"><path
             d="M 0,0 88.125,-20.125"
             style="fill:none;stroke:#000000;stroke-width:0.5;stroke-linecap:round;stroke-linejoin:round;stroke-miterlimit:10;stroke-dasharray:none;stroke-opacity:1"
             id="path3822"
             inkscape:connector-curvature="0" /></g><g
           id="g3824"
           transform="translate(187.6436,165.5293)"><path
             d="M 0,0 8.875,1.875"
             style="fill:none;stroke:#000000;stroke-width:0.5;stroke-linecap:round;stroke-linejoin:round;stroke-miterlimit:10;stroke-dasharray:none;stroke-opacity:1"
             id="path3826"
             inkscape:connector-curvature="0" /></g><g
           id="g3828"
           transform="translate(112.1436,66.9043)"><path
             d="M 0,0 C 0,0 -1.375,-0.125 -1.75,4.875 -2.125,9.875 -5.875,68.5 -5.875,68.5"
             style="fill:none;stroke:#000000;stroke-width:1;stroke-linecap:round;stroke-linejoin:round;stroke-miterlimit:10;stroke-dasharray:none;stroke-opacity:1"
             id="path3830"
             inkscape:connector-curvature="0" /></g><g
           id="g3832"
           transform="translate(69.0396,97.5791)"><path
             d="m 0,0 c -1.57,1.194 -2.438,2.508 -2.438,3.886 l 0,25.897 c 0,1.667 -1,4.167 -1.833,5.334"
             style="fill:none;stroke:#000000;stroke-width:0.5;stroke-linecap:round;stroke-linejoin:round;stroke-miterlimit:10;stroke-dasharray:none;stroke-opacity:1"
             id="path3834"
             inkscape:connector-curvature="0" /></g><g
           id="g3836"
           transform="translate(66.6021,101.4653)"><path
             d="M 0,0 C 0,5.515 13.891,9.986 31.028,9.986 34.643,9.987 38.113,9.788 41.339,9.421"
             style="fill:none;stroke:#000000;stroke-width:0.5;stroke-linecap:round;stroke-linejoin:round;stroke-miterlimit:10;stroke-dasharray:none;stroke-opacity:1"
             id="path3838"
             inkscape:connector-curvature="0" /></g><g
           id="g3840"
           transform="translate(48.3359,66.2295)"><path
             d="m 0,0 c -0.684,-5.221 -14.487,-7.722 -30.828,-5.582 -16.342,2.14 -29.035,8.108 -28.351,13.331 0.015,0.117 0.037,0.233 0.066,0.349"
             style="fill:none;stroke:#000000;stroke-width:0.25;stroke-linecap:round;stroke-linejoin:round;stroke-miterlimit:10;stroke-dasharray:none;stroke-opacity:1"
             id="path3842"
             inkscape:connector-curvature="0" /></g><g
           id="g3844"
           transform="translate(-10.7773,74.3271)"><path
             d="M 0,0 C 1.239,4.986 14.788,7.328 30.762,5.236 47.104,3.098 59.798,-2.872 59.113,-8.098"
             style="fill:none;stroke:#000000;stroke-width:0.5;stroke-linecap:round;stroke-linejoin:round;stroke-miterlimit:10;stroke-dasharray:none;stroke-opacity:1"
             id="path3846"
             inkscape:connector-curvature="0" /></g><g
           id="g3848"
           transform="translate(-11.0649,88.8623)"><path
             d="M 0,0 C 0,0 10.5,-0.5 17.833,-1 25.167,-1.5 33.5,-4.167 41.167,-6.167 48.833,-8.167 55.333,-10 61,-11.5 66.667,-13 74.167,-18.499 72.333,-23.833"
             style="fill:none;stroke:#000000;stroke-width:0.25;stroke-linecap:round;stroke-linejoin:round;stroke-miterlimit:10;stroke-dasharray:none;stroke-opacity:1"
             id="path3850"
             inkscape:connector-curvature="0" /></g><g
           id="g3852"
           transform="translate(5.9351,58.1953)"><path
             d="m 0,0 c 0,0 1.5,-2.166 0.833,-6.166 -0.666,-4 -0.999,-19.667 -1.166,-27.167 -0.167,-7.5 -4,-13.999 -9.5,-19.333"
             style="fill:none;stroke:#000000;stroke-width:0.5;stroke-linecap:round;stroke-linejoin:round;stroke-miterlimit:10;stroke-dasharray:none;stroke-opacity:1"
             id="path3854"
             inkscape:connector-curvature="0" /></g><g
           id="g3856"
           transform="translate(6.1021,34.1953)"><path
             d="m 0,0 c 2.333,4.167 10.5,8.666 15.333,11 4.834,2.334 7.834,3.5 10.334,4 0.85,0.17 1.894,0.089 2.895,-0.342"
             style="fill:none;stroke:#000000;stroke-width:0.25;stroke-linecap:round;stroke-linejoin:round;stroke-miterlimit:10;stroke-dasharray:none;stroke-opacity:1"
             id="path3858"
             inkscape:connector-curvature="0" /></g><g
           id="g3860"
           transform="translate(37.6021,-3.6377)"><path
             d="m 0,0 c 0,0 0.5,39 0.667,45.333 0.109,4.178 -1.748,6.156 -3.605,7.158 C -4.5,53.333 -4.667,54 -4.667,55.5 c 0,1.5 -0.166,3.5 -0.166,3.5"
             style="fill:none;stroke:#000000;stroke-width:0.5;stroke-linecap:round;stroke-linejoin:round;stroke-miterlimit:10;stroke-dasharray:none;stroke-opacity:1"
             id="path3862"
             inkscape:connector-curvature="0" /></g><g
           id="g3864"
           transform="translate(32.1021,-2.9707)"><path
             d="m 0,0 c 0,0 1,37.832 1,41.166 0,3.334 -3.167,2.167 -6.667,0.167 -3.5,-2 -8.333,-7.167 -8.666,-17.167 -0.334,-10 0,-25.5 0,-25.5"
             style="fill:none;stroke:#000000;stroke-width:0.25;stroke-linecap:round;stroke-linejoin:round;stroke-miterlimit:10;stroke-dasharray:none;stroke-opacity:1"
             id="path3866"
             inkscape:connector-curvature="0" /></g></g></g><g
       id="g3868"><g
         id="g3870"
         clip-path="url(#clipPath3872)"><g
           id="g3876"
           transform="translate(108.4873,97.8789)"><path
             d="m 0,0 c -4.24,-1.456 -9.575,-2.582 -15.42,-3.125 -14.332,-1.332 -26.298,1.343 -26.728,5.975 -0.43,4.63 10.838,9.464 25.169,10.796 6.181,0.574 11.922,0.403 16.488,-0.349"
             style="fill:none;stroke:#000000;stroke-width:0.5;stroke-linecap:round;stroke-linejoin:round;stroke-miterlimit:10;stroke-dasharray:none;stroke-opacity:1"
             id="path3878"
             inkscape:connector-curvature="0" /></g><g
           id="g3880"
           transform="translate(100.5928,103.4497)"><path
             d="m 0,0 c 0.222,-2.009 -3.996,-4.125 -9.421,-4.726 -5.426,-0.6 -10.004,0.542 -10.227,2.551 -0.223,2.01 3.996,4.126 9.421,4.726 C -4.801,3.152 -0.222,2.01 0,0 Z"
             style="fill:none;stroke:#000000;stroke-width:0.5;stroke-linecap:round;stroke-linejoin:round;stroke-miterlimit:10;stroke-dasharray:none;stroke-opacity:1"
             id="path3882"
             inkscape:connector-curvature="0" /></g></g></g><text
       transform="matrix(1,0,0,-1,2.3403,2.583)"
       style="font-variant:normal;font-weight:normal;font-stretch:normal;font-size:4px;font-family:'Swiss 721 SWA';-inkscape-font-specification:Helvetica;writing-mode:lr-tb;fill:#231f20;fill-opacity:1;fill-rule:nonzero;stroke:none"
       id="text3884"><tspan
         x="0 2 2.888 4.2199998 6.4439998 8.6680002"
         y="0"
         sodipodi:role="line"
         id="tspan3886">cjrh_1</tspan></text>
<g
       id="g3888"
       transform="translate(60.4355,42.6953)"><path
         d="M 0,0 54.333,4.667"
         style="fill:none;stroke:#ffffff;stroke-width:3;stroke-linecap:round;stroke-linejoin:miter;stroke-miterlimit:4;stroke-dasharray:none;stroke-opacity:1"
         id="path3890"
         inkscape:connector-curvature="0" /></g><g
       id="g3892"
       transform="translate(114.7686,47.3623)"><path
         d="M 0,0 0,0"
         style="fill:none;stroke:#ffffff;stroke-width:3.75;stroke-linecap:round;stroke-linejoin:miter;stroke-miterlimit:4;stroke-dasharray:none;stroke-opacity:1"
         id="path3894"
         inkscape:connector-curvature="0" /></g><g
       id="g3896"
       transform="translate(60.4355,42.6953)"><path
         d="M 0,0 54.333,4.667"
         style="fill:none;stroke:#211f1f;stroke-width:0.5;stroke-linecap:round;stroke-linejoin:miter;stroke-miterlimit:4;stroke-dasharray:none;stroke-opacity:1"
         id="path3898"
         inkscape:connector-curvature="0" /></g><g
       id="g3900"
       transform="translate(114.7686,47.3623)"><path
         d="M 0,0 0,0"
         style="fill:none;stroke:#211f1f;stroke-width:1.5;stroke-linecap:round;stroke-linejoin:miter;stroke-miterlimit:4;stroke-dasharray:none;stroke-opacity:1"
         id="path3902"
         inkscape:connector-curvature="0" /></g><text
       transform="matrix(1,0,0,-1,53.4287,39.3975)"
       style="font-variant:normal;font-weight:bold;font-stretch:normal;font-size:10px;font-family:'Swiss 721 SWA';-inkscape-font-specification:Helvetica-Bold;writing-mode:lr-tb;fill:#231f20;fill-opacity:1;fill-rule:nonzero;stroke:none"
       id="text3904"><tspan
         x="0"
         y="0"
         id="tspan3906">2</tspan><tspan
         x="-6"
         y="-43.669998"
         id="tspan3908">3</tspan></text>
<g
       id="g3910"
       transform="translate(60.7686,15.0293)"><path
         d="M 0,0 64.333,22.667"
         style="fill:none;stroke:#ffffff;stroke-width:3;stroke-linecap:round;stroke-linejoin:miter;stroke-miterlimit:4;stroke-dasharray:none;stroke-opacity:1"
         id="path3912"
         inkscape:connector-curvature="0" /></g><g
       id="g3914"
       transform="translate(125.1016,37.6963)"><path
         d="M 0,0 0,0"
         style="fill:none;stroke:#ffffff;stroke-width:3.75;stroke-linecap:round;stroke-linejoin:miter;stroke-miterlimit:4;stroke-dasharray:none;stroke-opacity:1"
         id="path3916"
         inkscape:connector-curvature="0" /></g><g
       id="g3918"
       transform="translate(60.7686,15.0293)"><path
         d="M 0,0 64.333,22.667"
         style="fill:none;stroke:#211f1f;stroke-width:0.5;stroke-linecap:round;stroke-linejoin:miter;stroke-miterlimit:4;stroke-dasharray:none;stroke-opacity:1"
         id="path3920"
         inkscape:connector-curvature="0" /></g><g
       id="g3922"
       transform="translate(125.1016,37.6963)"><path
         d="M 0,0 0,0"
         style="fill:none;stroke:#211f1f;stroke-width:1.5;stroke-linecap:round;stroke-linejoin:miter;stroke-miterlimit:4;stroke-dasharray:none;stroke-opacity:1"
         id="path3924"
         inkscape:connector-curvature="0" /></g><g
       id="g3926"
       transform="translate(54.4351,84.9883)"><path
         d="M 0,0 60,-25.959"
         style="fill:none;stroke:#ffffff;stroke-width:3;stroke-linecap:round;stroke-linejoin:miter;stroke-miterlimit:4;stroke-dasharray:none;stroke-opacity:1"
         id="path3928"
         inkscape:connector-curvature="0" /></g><g
       id="g3930"
       transform="translate(114.4355,59.0293)"><path
         d="M 0,0 0,0"
         style="fill:none;stroke:#ffffff;stroke-width:3.75;stroke-linecap:round;stroke-linejoin:miter;stroke-miterlimit:4;stroke-dasharray:none;stroke-opacity:1"
         id="path3932"
         inkscape:connector-curvature="0" /></g><g
       id="g3934"
       transform="translate(54.4351,84.9883)"><path
         d="M 0,0 60,-25.959"
         style="fill:none;stroke:#211f1f;stroke-width:0.5;stroke-linecap:round;stroke-linejoin:miter;stroke-miterlimit:4;stroke-dasharray:none;stroke-opacity:1"
         id="path3936"
         inkscape:connector-curvature="0" /></g><g
       id="g3938"
       transform="translate(114.4355,59.0293)"><path
         d="M 0,0 0,0"
         style="fill:none;stroke:#211f1f;stroke-width:1.5;stroke-linecap:round;stroke-linejoin:miter;stroke-miterlimit:4;stroke-dasharray:none;stroke-opacity:1"
         id="path3940"
         inkscape:connector-curvature="0" /></g><text
       transform="matrix(1,0,0,-1,54.0952,11.3965)"
       style="font-variant:normal;font-weight:bold;font-stretch:normal;font-size:10px;font-family:'Swiss 721 SWA';-inkscape-font-specification:Helvetica-Bold;writing-mode:lr-tb;fill:#231f20;fill-opacity:1;fill-rule:nonzero;stroke:none"
       id="text3942"><tspan
         x="0"
         y="0"
         id="tspan3944">1</tspan><tspan
         x="1.67"
         y="-118"
         id="tspan3946">4</tspan></text>
<g
       id="g3948"
       transform="translate(63.4355,131.3218)"><path
         d="M 0,0 60,-25.959"
         style="fill:none;stroke:#ffffff;stroke-width:3;stroke-linecap:round;stroke-linejoin:miter;stroke-miterlimit:4;stroke-dasharray:none;stroke-opacity:1"
         id="path3950"
         inkscape:connector-curvature="0" /></g><g
       id="g3952"
       transform="translate(123.436,105.3628)"><path
         d="M 0,0 0,0"
         style="fill:none;stroke:#ffffff;stroke-width:3.75;stroke-linecap:round;stroke-linejoin:miter;stroke-miterlimit:4;stroke-dasharray:none;stroke-opacity:1"
         id="path3954"
         inkscape:connector-curvature="0" /></g><g
       id="g3956"
       transform="translate(63.4355,131.3218)"><path
         d="M 0,0 60,-25.959"
         style="fill:none;stroke:#211f1f;stroke-width:0.5;stroke-linecap:round;stroke-linejoin:miter;stroke-miterlimit:4;stroke-dasharray:none;stroke-opacity:1"
         id="path3958"
         inkscape:connector-curvature="0" /></g><g
       id="g3960"
       transform="translate(123.436,105.3628)"><path
         d="M 0,0 0,0"
         style="fill:none;stroke:#211f1f;stroke-width:1.5;stroke-linecap:round;stroke-linejoin:miter;stroke-miterlimit:4;stroke-dasharray:none;stroke-opacity:1"
         id="path3962"
         inkscape:connector-curvature="0" /></g></g></svg>