<?xml version="1.0" encoding="UTF-8" standalone="no"?>
<svg
   xmlns:dc="http://purl.org/dc/elements/1.1/"
   xmlns:cc="http://creativecommons.org/ns#"
   xmlns:rdf="http://www.w3.org/1999/02/22-rdf-syntax-ns#"
   xmlns:svg="http://www.w3.org/2000/svg"
   xmlns="http://www.w3.org/2000/svg"
   xmlns:sodipodi="http://sodipodi.sourceforge.net/DTD/sodipodi-0.dtd"
   xmlns:inkscape="http://www.inkscape.org/namespaces/inkscape"
   viewBox="0 0 590.31494 416.69312"
   height="416.69312"
   width="590.31494"
   xml:space="preserve"
   version="1.1"
   id="svg2"
   inkscape:version="0.91 r13725"
   sodipodi:docname="1520768011.svg"><sodipodi:namedview
     pagecolor="#ffffff"
     bordercolor="#666666"
     borderopacity="1"
     objecttolerance="10"
     gridtolerance="10"
     guidetolerance="10"
     inkscape:pageopacity="0"
     inkscape:pageshadow="2"
     inkscape:window-width="640"
     inkscape:window-height="480"
     id="namedview72"
     showgrid="false"
     inkscape:zoom="0.22422803"
     inkscape:cx="338.13965"
     inkscape:cy="199.63563"
     inkscape:window-x="0"
     inkscape:window-y="0"
     inkscape:window-maximized="0"
     inkscape:current-layer="svg2" /><metadata
     id="metadata8"><rdf:RDF><cc:Work
         rdf:about=""><dc:format>image/svg+xml</dc:format><dc:type
           rdf:resource="http://purl.org/dc/dcmitype/StillImage" /><dc:title></dc:title></cc:Work></rdf:RDF></metadata><defs
     id="defs6"><clipPath
       id="clipPath12"
       clipPathUnits="userSpaceOnUse"><path
         id="path14"
         d="m 8,-25 595,0 0,842 -595,0 0,-842 z"
         inkscape:connector-curvature="0" /></clipPath></defs><g
     clip-path="url(#clipPath12)"
     transform="matrix(1.25,0,0,-1.25,-43.73535,712.0575)"
     id="g10"><path
       id="path16"
       style="fill:#ffffff;fill-opacity:1;fill-rule:nonzero;stroke:none"
       d="m 507.24023,236.2915 -472.25195,0 0,333.3545 472.25195,0 0,-333.3545 z"
       inkscape:connector-curvature="0" /><path
       id="path18"
       style="fill:#000000;fill-opacity:1;fill-rule:nonzero;stroke:none"
       d="m 359.03711,405.03857 c -0.69141,-0.0146 -1.62305,0.52344 -2.31348,0.29297 l -40.43164,8.60254 c -3.93261,-4.6709 -4.30176,-11.42871 -6.51367,-17.08203 l -5.03809,-24.20996 -2.94921,-21.50684 0.36816,-6.51269 21.26074,-4.42383 22.12012,-4.4248 c 1.22949,-0.61426 0,-2.21192 0,-3.19434 -1.7207,-0.24609 -3.93164,0.12207 -5.65332,0.85937 l -16.83594,3.19532 c -6.02148,1.22851 -11.9209,2.33496 -17.94238,3.56445 -2.33496,-3.81055 -2.08887,-10.69238 -7.98828,-10.9375 -1.35157,-2.08984 -1.59668,-5.16211 -4.17774,-6.14453 -4.4248,-0.36914 -8.84863,1.59668 -13.51855,1.7207 l -14.99317,2.94922 c -1.7207,-4.05566 -2.82617,-8.48047 -3.56347,-12.90332 0.61426,-1.59863 -0.9834,-2.33496 -1.22852,-3.56445 -1.59765,-6.26758 -7.61914,-11.55176 -13.27246,-13.8877 -8.47949,-1.84277 -17.08203,0.36914 -22.36719,7.37403 0.90528,-0.96778 0.94336,27.96093 1.0918,26.91503 l -5.51562,1.1045 c -6.14454,-4.54688 -11.67383,-12.41211 -20.64551,-9.70801 l -17.08203,2.94922 -17.45118,3.56445 c -5.40722,-7.49707 -12.6582,-14.50195 -11.55175,-24.21094 l -3.19532,-13.88574 -5.28418,-23.5957 c -0.24511,-1.10645 -0.61425,-2.7041 -1.84375,-2.9502 l 1.2295,6.75977 8.60254,38.34277 c -0.61524,1.84278 1.10546,4.17871 -0.36914,5.89844 -3.44043,0.36816 -6.75879,1.47461 -9.95411,2.33496 3.68653,0.24609 7.49707,-0.86035 11.1836,-1.7207 2.58105,4.42383 5.28418,8.9707 8.84863,13.02734 -3.19629,2.21094 -2.45898,7.49609 -2.7041,10.56836 -2.82715,-0.9834 -6.51367,-2.95019 -10.32324,-1.7207 -3.68653,1.47461 -6.14453,4.91601 -6.75879,8.84863 0,4.66895 1.71972,9.70801 6.14453,11.42871 3.19531,1.10645 6.14453,0.73633 8.84863,-0.86035 l 2.94824,-2.9502 c 1.10645,2.21192 1.72071,5.28516 0.61426,7.61914 l -24.20898,4.79297 -0.49121,-0.61425 -2.9502,-14.99317 c -3.19434,-13.02637 7.62012,-21.87402 7.00586,-34.53222 0.12207,-5.28418 -1.10645,-9.95411 -2.08984,-14.74708 l -7.86524,-36.62207 c -1.35156,-1.10546 -2.45801,-2.33496 -2.94922,-4.05566 l -0.9834,0 0,1.47461 4.79297,22.36719 5.89942,29.49414 c 0.86035,10.07715 -7.25098,18.80273 -6.75977,29.74023 l -0.36816,5.03809 c -4.42383,4.17773 -10.07715,1.10644 -14.99317,0.36914 l -23.59472,-4.17871 -8.84864,0.24512 -14.74707,2.95019 c -3.68652,0.73731 -7.49658,0.86035 -10.32324,3.31738 0.12305,1.72071 2.33496,1.59864 3.56397,1.10645 12.41259,-0.73633 24.0874,-7.86426 36.86767,-3.44043 l 4.42383,0.24512 22.12109,4.42382 0.2461,0 c 0,2.70411 -0.73828,5.77637 -0.86035,8.84961 l 0,18.55567 2.08886,19.17187 c 0.86036,5.03809 1.71973,10.07715 2.58008,15.11524 l 3.81055,17.69629 5.03808,16.71386 c 2.70411,7.4961 4.91602,15.11524 10.69141,21.26075 l -3.56348,3.31835 -27.15918,19.41602 -4.17871,1.7207 -30.96777,5.65332 c -1.47559,0 -2.7041,-1.7207 -3.19629,-2.95019 L 74.19434,486.80908 70.01563,472.30811 67.3125,462.354 63.25635,444.65674 c -1.59717,-4.54688 -1.72071,-9.46289 -3.31787,-13.88672 l -1.10645,-0.61426 c -0.73682,1.96582 -1.47461,4.54688 -0.36865,6.51367 l 4.42432,20.64453 c 0.86035,2.33497 1.10644,4.91602 1.84326,7.37403 l 6.14404,22.36719 c 2.58105,5.40722 3.07324,11.79687 6.51367,16.83593 l -1.22851,1.22852 c 1.35254,0 2.82714,-0.36817 3.56347,1.10644 7.61914,-0.86035 14.99317,-2.33496 22.48926,-3.56347 l 15.23926,-3.44239 3.31836,-2.45703 31.58301,-22.6123 c 5.89843,-3.56348 4.17773,4.66992 7.00488,6.75879 l 5.65234,6.14551 12.04395,10.32226 2.33594,2.94922 3.5625,17.08203 5.28515,23.96485 1.84277,7.0039 1.10645,0.61426 c 0,-1.10547 1.10645,-1.10547 1.84277,-1.47461 l -3.80957,-19.1709 -6.88183,-30.1084 0,-0.49218 11.79785,-2.45704 c 2.95019,3.6875 1.59766,9.09473 3.56445,13.02637 l 1.22852,6.5127 3.56445,14.99316 c 0.98242,3.93359 1.35059,8.23438 3.19434,11.79785 -0.12207,-4.42383 -1.96582,-9.33886 -2.7041,-14.13183 -2.58008,-13.02735 -8.11036,-25.5625 -6.75782,-39.57129 0.49024,-1.22949 0.24512,-2.82715 1.47461,-3.81055 l 35.14649,-6.51367 c 6.75879,-1.84277 9.94531,-14.11817 14.36914,-18.54199 3.56445,5.40722 6.88965,13.38867 13.77148,13.51269 7.37402,-0.12402 13.39649,-0.13183 18.68164,-4.30957 6.38965,-6.88281 6.51367,-17.69726 4.42383,-26.5459 l 7.37305,-1.84277 16.59179,-3.19434 c 2.70313,-1.10644 7.25,0.12207 7.61817,-4.17871 1.22949,-2.08886 -1.35156,-6.63574 2.7041,-6.75976 1.10644,-2.58008 0.36816,-5.89844 0.61426,-8.84766 l 0.86035,-0.61426 14.13281,-2.58105 25.07031,-5.40723 c 0.36817,0.12305 0.61426,-0.36816 0.86036,-0.49219 l -0.88184,-2.75 z"
       inkscape:connector-curvature="0" /><path
       id="path20"
       style="fill:#ffffff;fill-opacity:1;fill-rule:nonzero;stroke:none"
       d="m 310.63867,408.03467 c -2.08984,-8.35645 -4.30078,-16.58985 -5.89844,-25.07031 l -3.19531,-17.94141 -1.7207,-15.11621 c 0.49121,-2.45801 -1.47461,-6.5127 1.7207,-7.37305 -0.73828,-3.07226 -1.96679,-6.02148 -3.56445,-8.84863 l 0,10.07715 2.33496,20.03222 c -1.59766,0.24414 -0.61426,-2.7041 -1.7207,-3.81054 l -2.33496,-21.01465 -0.36817,-4.91602 c -1.47461,-0.12207 -0.61426,1.72071 -1.10644,2.58106 -0.36817,7.49609 1.59863,14.00976 1.7207,21.26074 l 3.56445,20.8916 5.89844,26.05371 4.42383,14.99219 c 0.7373,1.22949 0.9834,2.94922 2.08887,3.80957 l 0.86035,0 c -1.10547,-4.17871 -3.07227,-8.72559 -4.17774,-13.27246 -1.35156,-5.28418 -3.19531,-10.81445 -3.4414,-16.22168 3.19531,9.21777 5.53027,18.67969 9.70898,27.40527 0.36816,-1.59765 0.36816,-3.80957 0,-5.53027 -2.82617,-1.59766 -3.44141,-5.16113 -4.79297,-7.98828 z"
       inkscape:connector-curvature="0" /><path
       id="path22"
       style="fill:#ffffff;fill-opacity:1;fill-rule:nonzero;stroke:none"
       d="m 309.16406,423.64209 c -1.96582,-6.02148 -3.93261,-12.16602 -5.89843,-18.31055 l -6.14551,-30.35449 -2.94922,-16.83594 c -0.12305,1.35059 0.36914,2.58008 0,3.56348 -0.86035,-0.24609 -0.2461,-1.22852 -0.86035,-1.7207 l 0.24609,-0.36817 -0.24609,0 -1.47364,-8.23437 -2.08984,-18.55664 -0.24609,-5.89844 c -3.07129,0.36816 -6.75879,0.24512 -8.60254,2.33496 l 0.24609,10.32324 1.84375,14.7461 3.19531,20.64648 6.26758,29.86328 c 2.33399,9.83008 4.42285,19.78516 8.84766,28.87891 2.33496,0.9834 5.65332,-0.61426 8.47949,-0.86035 -1.47461,-4.54688 -2.94922,-9.83106 -4.42383,-14.74707 l -3.80957,-14.7461 c 0.49121,-3.19629 -2.08984,-5.40722 -1.22949,-8.35742 1.47559,1.10547 0.9834,2.82617 1.47559,4.17871 l 2.08886,8.2334 5.28418,18.06445 c 1.10547,1.84473 1.35157,4.05664 2.70313,5.89942 2.21289,-3.19532 -1.35156,-5.28418 -2.70313,-7.74219 z"
       inkscape:connector-curvature="0" /><path
       id="path24"
       style="fill:#ffffff;fill-opacity:1;fill-rule:nonzero;stroke:none"
       d="m 287.41211,391.56689 -3.80957,-19.53906 -2.9502,-19.41797 -1.84277,-20.03027 0,-3.93359 c -5.40723,1.10644 -11.18262,1.35254 -16.22168,3.31836 -0.86035,8.84863 0.73633,15.97656 1.47461,24.70214 l 3.56445,22.48926 2.94922,14.99219 3.8086,17.45117 4.17871,15.36133 c 1.35254,3.68652 1.96679,8.11035 5.03906,10.81445 l 15.23828,-2.94922 c -5.16113,-13.88769 -8.9707,-28.26562 -11.42871,-43.25879 z"
       inkscape:connector-curvature="0" /><path
       id="path26"
       style="fill:#ffffff;fill-opacity:1;fill-rule:nonzero;stroke:none"
       d="m 292.08203,327.54053 c -1.84375,1.7207 -0.12305,6.02148 -0.61523,8.84765 l 0.98437,7.98828 c 0.24512,-4.17773 -0.73828,-7.74218 0.85938,-11.30566 l 1.47461,0 c -1.84278,-1.47559 -1.35157,-3.80957 -2.70313,-5.53027 z"
       inkscape:connector-curvature="0" /><path
       id="path28"
       style="fill:#ffffff;fill-opacity:1;fill-rule:nonzero;stroke:none"
       d="m 293.55664,354.69971 0.36816,0 0,-1.2295 -0.36816,0 0,1.2295 z"
       inkscape:connector-curvature="0" /><path
       id="path30"
       style="fill:#ffffff;fill-opacity:1;fill-rule:nonzero;stroke:none"
       d="m 280.03809,439.61865 0.61425,-0.86035 -3.31738,-8.35644 -5.53027,-20.03223 -6.88184,-33.30371 -3.4414,-21.875 -1.84278,-20.8916 c 0,-2.58008 0.86035,-4.91504 2.70313,-6.5127 -3.19532,-7.98828 -2.82617,-17.32812 -9.46192,-23.8418 6.02149,6.26758 7.61914,15.85352 5.03711,24.20997 l -1.22851,1.47558 -0.61426,-0.98437 -0.24512,0.36914 c -0.12305,-2.21192 0.24512,-5.53028 0,-6.75879 -1.10644,3.07129 -2.58105,6.02148 -3.19531,9.33886 l 1.10644,1.2295 1.22852,15.3623 c 1.47461,1.47461 -0.49219,3.31738 0.61328,5.03711 l 2.33496,15.23926 5.89942,31.58301 2.95019,14.74804 5.5293,20.64551 c 0.49219,1.59766 1.84375,3.56445 0.61426,5.03809 0.36914,0.24609 1.22949,0.61426 1.47461,0.24609 0.73828,0.98242 3.31836,1.59766 2.95019,2.94922 1.22852,0.86035 0.12305,2.58105 0.86035,3.56445 0.12207,3.19532 0.98242,5.89844 1.47461,8.84766 1.22852,-2.94922 -0.86035,-9.09375 -1.10644,-12.41211 1.7207,1.47461 3.19531,3.56445 3.80957,5.65332 -0.24512,-0.98242 -0.61426,-2.33496 -0.24512,-3.19531 l 0.49121,0.49219 c -0.36816,-2.45801 0,-5.89942 -2.58105,-7.00489 z"
       inkscape:connector-curvature="0" /><path
       id="path32"
       style="fill:#ffffff;fill-opacity:1;fill-rule:nonzero;stroke:none"
       d="m 276.47461,459.40381 c 0,-5.77637 -0.24512,-13.76367 -6.5127,-16.83692 -2.58105,-0.86035 -4.91601,-2.70312 -7.98828,-2.70312 0.2461,-0.49121 -0.24609,-1.35156 -1.10644,-1.47461 -1.22852,-0.36914 -1.59766,0.9834 -2.33496,1.47461 l 0.24609,0.36914 c -4.30176,1.35156 -6.02246,5.53027 -10.07715,7.86523 1.35156,3.07227 1.22852,6.75879 1.84375,10.07618 0.12207,2.33496 1.59668,4.4248 1.47461,6.51367 4.66895,1.9668 9.70801,5.03906 14.99219,3.80957 2.82617,-2.70313 6.63672,-4.17774 8.60254,-7.61914 0.12304,0.12304 0.36914,0.24609 0.24609,0.49121 1.35156,0.24609 1.35156,-1.59668 0.86035,-2.33496 l -0.24609,0.36914 z"
       inkscape:connector-curvature="0" /><path
       id="path34"
       style="fill:#ffffff;fill-opacity:1;fill-rule:nonzero;stroke:none"
       d="m 269.10156,470.21924 c 2.45703,-0.37012 5.77539,-2.33594 7.37305,-5.28516 -2.45801,1.84278 -5.16113,2.94922 -7.37305,5.28516 z"
       inkscape:connector-curvature="0" /><path
       id="path36"
       style="fill:#ffffff;fill-opacity:1;fill-rule:nonzero;stroke:none"
       d="m 274.38477,444.90283 -0.61426,0 0.98437,0.86035 c 0,-0.24609 0,-0.7373 -0.37011,-0.86035 z"
       inkscape:connector-curvature="0" /><path
       id="path38"
       style="fill:#000000;fill-opacity:1;fill-rule:nonzero;stroke:none"
       d="m 268.85547,448.46631 c -2.33496,-2.08887 -5.53125,-2.94922 -8.60254,-2.08887 -3.07227,0.86035 -5.16113,4.17774 -5.89941,7.12793 -0.49122,2.82617 0.49218,5.16113 2.08984,7.37305 1.96582,2.21191 5.28418,3.19531 8.47949,2.33496 2.7041,-1.47461 5.89942,-3.80957 6.26758,-7.12793 -0.24609,-2.7041 -0.49219,-5.53027 -2.33496,-7.61914 z"
       inkscape:connector-curvature="0" /><path
       id="path40"
       style="fill:#ffffff;fill-opacity:1;fill-rule:nonzero;stroke:none"
       d="m 265.29102,447.23779 c -2.21094,-0.86035 -4.30079,0.36817 -6.26758,1.22852 -2.45703,1.84375 -2.70313,4.91504 -1.96582,7.61914 0.49121,2.45801 2.7041,4.05566 4.66992,5.28418 2.08887,0.7373 4.30176,0 5.89941,-1.47461 2.08887,-2.21191 3.07129,-5.65332 1.72071,-8.47949 -0.86036,-1.84278 -2.21289,-3.19532 -4.05664,-4.17774 z"
       inkscape:connector-curvature="0" /><path
       id="path42"
       style="fill:#ffffff;fill-opacity:1;fill-rule:nonzero;stroke:none"
       d="m 263.20215,413.07373 -2.08887,-11.18359 -5.53125,-28.63379 -0.98242,-4.42481 -2.9502,-25.4375 c 0.37012,-3.80957 -1.96484,-7.62011 0,-11.18359 l -1.71972,0 -16.22168,4.17773 c -2.70313,-3.68652 -6.26758,-5.77539 -9.70899,-8.84765 -2.33496,11.06054 0.36914,22.98047 1.10645,34.16406 l 4.79297,29.8623 5.89941,29.74024 5.03711,19.1709 c 1.22949,4.66992 2.58203,9.09472 4.91699,13.27343 0.12207,-2.45898 -1.59863,-6.88281 1.47461,-8.84863 1.35157,-0.12304 1.96582,-1.59765 2.94824,-2.33594 l -4.42285,-15.11523 c -2.21289,-8.2334 -3.81054,-16.83594 -5.53125,-25.31543 l -4.42285,-23.5957 -2.95019,-20.03125 -1.47461,-21.01465 c 0,-0.61426 -0.12305,-1.35254 0.61425,-1.7207 l 1.10645,1.22851 c 0.24512,11.06055 1.71973,21.62891 2.94922,32.44336 l 6.26758,34.41016 c 3.07129,12.78125 4.79199,24.94824 9.33886,36.86816 2.58204,-0.86035 5.65332,-3.80957 7.98926,-5.89844 l 10.32324,4.17871 -0.86035,-3.81054 -5.89941,-22.12012 z"
       inkscape:connector-curvature="0" /><path
       id="path44"
       style="fill:#ffffff;fill-opacity:1;fill-rule:nonzero;stroke:none"
       d="m 253.74023,313.40869 c -0.24609,0 -0.36914,-0.24609 -0.61523,-0.37012 -0.36914,0.37012 0,1.10645 0.36914,1.47461 l 0.24609,0 0,-1.10449 z"
       inkscape:connector-curvature="0" /><path
       id="path46"
       style="fill:#ffffff;fill-opacity:1;fill-rule:nonzero;stroke:none"
       d="m 245.75195,305.41943 c -4.17871,-2.94922 -11.42871,-1.10547 -15.85351,1.72168 0,-0.73828 -0.36817,-0.49218 -1.22852,-0.61523 -1.10644,4.42383 -2.58105,9.33984 -4.05664,13.88672 l 0,2.33496 c 5.03906,2.95019 8.35742,11.18359 15.23926,8.84765 4.91504,-0.98242 11.06055,-3.07128 12.16699,-8.84765 1.84277,-6.63574 -0.12402,-13.51758 -6.26758,-17.32813 z"
       inkscape:connector-curvature="0" /><path
       id="path48"
       style="fill:#ffffff;fill-opacity:1;fill-rule:nonzero;stroke:none"
       d="m 245.75195,301.2417 c 0.61426,1.22851 4.30078,3.19531 6.26758,5.28418 -1.10644,-2.82715 -3.6875,-3.93164 -6.26758,-5.28418 z"
       inkscape:connector-curvature="0" /><path
       id="path50"
       style="fill:#ffffff;fill-opacity:1;fill-rule:nonzero;stroke:none"
       d="m 246.36621,456.08545 c -0.36816,0.49219 0,1.84375 0.36817,2.70312 l -0.36817,-2.70312 z"
       inkscape:connector-curvature="0" /><path
       id="path52"
       style="fill:#000000;fill-opacity:1;fill-rule:nonzero;stroke:none"
       d="m 242.31055,309.84424 c -2.33594,-1.47461 -5.89844,-0.98242 -7.98731,0.61426 -3.56445,2.21191 -3.93261,6.63574 -3.56445,10.32226 0.86035,2.82715 3.68652,5.65332 6.75879,6.14551 3.56347,0.24512 6.26758,-2.33496 8.23437,-5.03906 1.96582,-4.17774 0.61426,-9.83106 -3.4414,-12.04297 z"
       inkscape:connector-curvature="0" /><path
       id="path54"
       style="fill:#ffffff;fill-opacity:1;fill-rule:nonzero;stroke:none"
       d="m 242.31055,310.70459 c -2.7041,-0.36914 -6.02246,-0.73828 -7.98731,1.47461 -1.96679,1.96582 -2.08984,5.03809 -1.47558,7.61914 0.61523,1.59766 1.96582,3.19531 3.56445,4.17871 1.71973,0.73633 4.42285,0.98242 6.14453,0 2.21094,-1.10644 2.70313,-3.44141 3.56348,-5.28516 0,-3.19433 -0.73828,-6.38964 -3.80957,-7.9873 z"
       inkscape:connector-curvature="0" /><path
       id="path56"
       style="fill:#ffffff;fill-opacity:1;fill-rule:nonzero;stroke:none"
       d="m 244.14063,448.6001 c -3.19434,0.12304 -7.23731,7.48535 -9.20313,8.71386 -2.33496,-2.82617 1.59668,-5.89843 -2.08984,-8.23339 -3.6875,-11.55078 -7.12793,-23.71778 -9.2168,-35.14649 l 0.36816,-1.47461 c 1.72071,2.58106 1.35254,6.02149 2.58106,8.84766 l 5.40722,17.45117 -4.42382,-17.45117 -3.31836,-17.94141 0.61426,-0.61523 c 1.96679,1.59765 0.98339,5.03808 2.08984,7.37305 l 6.75879,26.79101 c 0.85937,4.17774 2.94922,8.11133 3.80957,11.79785 0.61426,-0.24609 1.59765,-0.36816 1.22851,-1.47461 -0.61425,-3.56445 -2.458,-6.63672 -2.94824,-10.32324 -3.6875,-14.74707 -7.00586,-30.47754 -9.70898,-45.96191 l -3.93262,-24.45508 -2.33496,-26.05274 0,-0.49218 c -3.31836,0.7373 -7.61914,0.24609 -9.9541,-3.31836 -0.36914,-0.73633 0.49121,-0.73633 0.86035,-1.10645 1.59668,2.21289 3.68652,0.86035 5.5293,0 -4.79297,-5.77539 -11.05957,-11.18262 -19.41602,-8.84765 l -28.88086,5.53027 c -1.7207,0.61426 -4.54687,-0.24609 -5.03808,2.08887 l 0.24609,13.02734 3.93164,26.79004 5.53125,30.10937 c 1.22852,3.31739 1.22852,7.25 2.33496,10.56836 l 6.51367,27.77246 4.42285,15.60743 c 2.08985,7.98828 5.03907,15.60839 8.60352,22.98144 l 28.63281,-5.28418 c 2.58106,-0.36914 5.40723,-0.36914 7.62012,-2.08887 2.33496,0.49122 3.80859,-1.7207 5.03906,-3.19531 2.33399,-3.6875 7.11719,-10.56054 9.69824,-14.12402 l 1.1045,-2.2041 c -0.61426,-2.70313 -0.61621,-3.81543 -2.45996,-5.65918 z"
       inkscape:connector-curvature="0" /><path
       id="path58"
       style="fill:#ffffff;fill-opacity:1;fill-rule:nonzero;stroke:none"
       d="m 231.61914,301.85596 -1.47461,1.22851 c 3.44043,-0.49023 7.74219,-1.84277 11.55078,-2.94922 -3.68554,-0.98339 -6.63574,1.22852 -10.07617,1.72071 z"
       inkscape:connector-curvature="0" /><path
       id="path60"
       style="fill:#ffffff;fill-opacity:1;fill-rule:nonzero;stroke:none"
       d="m 235.42773,449.08057 0.37012,-0.12207 -0.37012,-1.2295 -0.24511,0.12305 0.24511,1.22852 z"
       inkscape:connector-curvature="0" /><path
       id="path62"
       style="fill:#ffffff;fill-opacity:1;fill-rule:nonzero;stroke:none"
       d="m 232.2334,439.61865 c 0.61426,2.21192 1.10547,4.79297 2.33398,6.5127 l -2.33398,-6.5127 z"
       inkscape:connector-curvature="0" /><path
       id="path64"
       style="fill:#000000;fill-opacity:1;fill-rule:nonzero;stroke:none"
       d="m 224.24512,448.46631 -6.14356,-23.96387 c -1.59863,-8.84765 -3.93359,-17.45019 -5.89941,-26.17578 0.12207,0.61426 -0.36817,1.84277 0.61426,2.58008 -1.47461,0.9834 0.12207,2.21289 0,3.31933 0.36816,6.26661 2.58105,11.91993 3.44043,17.94141 l 3.56445,15.97656 3.56348,12.90332 5.65332,16.22168 c 0.12207,0.9834 0.61425,1.72071 1.47461,2.45801 l 1.7207,-0.9834 c -4.42383,-5.77636 -5.77637,-13.39551 -7.98828,-20.27734 z"
       inkscape:connector-curvature="0" /><path
       id="path66"
       style="fill:#000000;fill-opacity:1;fill-rule:nonzero;stroke:none"
       d="m 224.61328,401.27588 0,-0.49121 0.36914,0 0,0.49121 -0.36914,0 z"
       inkscape:connector-curvature="0" /><path
       id="path68"
       style="fill:#000000;fill-opacity:1;fill-rule:nonzero;stroke:none"
       d="m 217.73145,342.53369 c -0.12207,-0.36914 -0.49024,-0.24609 -0.86036,-0.24609 l -0.61425,2.08886 0.98437,14.74708 c 0.98242,5.53027 1.22852,12.4121 3.19434,16.71386 l -1.47461,-12.6582 -1.22949,-20.64551 z"
       inkscape:connector-curvature="0" /><path
       id="path70"
       style="fill:#000000;fill-opacity:1;fill-rule:nonzero;stroke:none"
       d="m 214.53711,341.05908 c -0.49219,0.12207 -0.61426,-0.49219 -1.22852,-0.24609 l 0,9.9541 2.08887,15.73047 0.61426,1.96582 c -0.49121,-9.46192 -1.47461,-18.06445 -1.47461,-27.4043 z"
       inkscape:connector-curvature="0" /><path
       id="path72"
       style="fill:#000000;fill-opacity:1;fill-rule:nonzero;stroke:none"
       d="m 211.83398,395.9917 0.36817,1.7207 -0.36817,-1.47461 0,-0.24609 z"
       inkscape:connector-curvature="0" /><path
       id="path74"
       style="fill:#000000;fill-opacity:1;fill-rule:nonzero;stroke:none"
       d="m 204.82813,329.87549 c -0.86036,-0.24512 -0.86036,0.9834 -1.22852,1.47461 -0.49121,13.27246 1.84277,26.05273 3.80957,38.58789 -1.22852,-13.14942 -3.44141,-26.29883 -2.58105,-40.0625 z"
       inkscape:connector-curvature="0" /><path
       id="path76"
       style="fill:#000000;fill-opacity:1;fill-rule:nonzero;stroke:none"
       d="m 190.69531,338.47803 c -5.2832,-1.72071 -11.79687,-0.2461 -15.36133,4.42383 0,1.10644 -1.4746,1.59765 -1.84277,2.58105 3.93262,-4.66992 9.33984,-7.86523 15.72949,-6.51367 3.56446,0.9834 5.89942,4.79297 7.00586,7.9873 1.71973,6.3916 -1.10644,11.9209 -5.28515,15.97754 -3.19532,2.8252 -7.37403,4.30078 -11.79688,3.19434 -4.79297,-1.96582 -7.98828,-6.2666 -7.98828,-11.42871 -0.36914,4.05566 1.47461,8.72461 5.03809,11.42871 4.66992,2.94922 11.30664,2.33496 15.60742,-0.85938 4.66992,-4.91699 8.84765,-11.55273 6.26758,-18.55664 -1.22852,-3.31836 -3.6875,-7.37402 -7.37403,-8.23437 z"
       inkscape:connector-curvature="0" /><path
       id="path78"
       style="fill:#ffffff;fill-opacity:1;fill-rule:nonzero;stroke:none"
       d="m 190.69531,481.77002 c -2.21093,-2.21191 -1.47461,-6.14356 -4.17773,-7.61914 -1.84375,2.82617 -4.66992,4.4248 -7.61914,5.28418 -4.17871,0 -8.11133,-1.84375 -10.07813,-5.65235 -1.59668,-2.33496 -1.7207,-5.65332 -1.22851,-8.48046 1.59765,-3.44043 4.54687,-7.61914 8.60254,-7.98829 1.84375,-0.12207 3.44043,0 5.03906,0.61524 0.49121,-2.21191 -0.86035,-3.56348 -1.22852,-5.4082 l -4.05664,0 -20.39941,3.31933 c 2.45703,11.30567 3.19531,23.96387 14.50097,31.21485 4.42383,2.08886 7.98829,6.75781 12.28907,9.21679 l 11.55273,-1.84375 c 0,-3.31836 1.22852,-6.14453 1.22852,-9.46289 -2.08985,0.2461 -3.81055,-1.59668 -4.42481,-3.19531 z"
       inkscape:connector-curvature="0" /><path
       id="path80"
       style="fill:#ffffff;fill-opacity:1;fill-rule:nonzero;stroke:none"
       d="m 182.09375,462.354 c -1.7207,-1.59863 -3.56348,-3.07324 -5.89941,-3.31933 -2.45704,0.12402 -4.42383,1.84375 -5.89844,3.56445 -1.59766,2.33496 -1.7207,5.65332 -1.22949,8.60254 1.47461,2.33496 2.95019,4.79297 5.65332,5.89941 2.7041,0.86036 5.40722,-0.24609 7.37402,-2.08984 2.94824,-3.19531 2.94824,-9.46289 0,-12.65723 z"
       inkscape:connector-curvature="0" /><path
       id="path82"
       style="fill:#ffffff;fill-opacity:1;fill-rule:nonzero;stroke:none"
       d="m 171.77051,418.11182 c -3.31836,-11.42871 -4.6709,-22.61231 -7.37403,-34.28614 l -2.94824,-18.55664 c -0.37011,-0.12402 -0.24609,-0.61523 -0.24609,-0.86035 l -14.74707,2.94824 c -3.6875,0.86036 -9.09473,0.12403 -10.32324,4.05567 l -0.61524,10.69238 1.10645,14.99316 0.9834,4.792 3.80957,19.66308 4.42382,15.73047 c 1.84375,5.77539 4.05567,11.79688 8.23438,16.46777 l 4.42383,-0.24609 20.64648,-3.56445 -7.37402,-31.8291 z"
       inkscape:connector-curvature="0" /><path
       id="path84"
       style="fill:#000000;fill-opacity:1;fill-rule:nonzero;stroke:none"
       d="m 171.15625,353.47021 0.36816,0 0,-1.22851 -0.36816,0 0,1.22851 z"
       inkscape:connector-curvature="0" /><path
       id="path86"
       style="fill:#ffffff;fill-opacity:1;fill-rule:nonzero;stroke:none"
       d="m 153.82813,340.44482 c -1.72071,-0.61523 -3.93262,-1.47558 -5.65333,-0.24609 -2.7041,1.59668 -5.16113,4.30078 -5.28417,7.37305 -0.61426,4.30176 2.21191,7.61914 5.53027,9.70898 1.59668,0.86035 4.17773,0.86035 5.65332,0 2.82617,-1.7207 4.05469,-4.54687 4.66992,-7.37402 0,-3.80957 -1.22949,-7.61914 -4.91601,-9.46192 z"
       inkscape:connector-curvature="0" /><path
       id="path88"
       style="fill:#ffffff;fill-opacity:1;fill-rule:nonzero;stroke:none"
       d="m 152.84473,456.08545 c -0.86035,0.12305 -1.72071,-0.12305 -2.33496,-0.85938 l 0.36816,-0.24609 c -6.14355,-9.33984 -8.60156,-20.1543 -11.55078,-30.72363 l -3.56445,-17.69629 -2.08887,-19.17188 c -0.49219,-6.14355 -0.49219,-12.90332 1.22851,-18.55664 l -2.94921,-14.74707 c -1.59766,0.61524 -1.84375,4.17871 -2.08887,6.51367 -0.36914,6.75879 -0.36914,12.9043 0,19.66309 l 2.08887,19.54004 c 0.49218,5.77539 2.70312,11.9209 2.70312,17.94238 l 3.44141,15.11524 c 3.68652,12.16699 6.88281,24.5791 13.88672,35.39355 0.24609,1.10547 1.84375,0 1.4746,1.47461 l 2.33594,0 -2.95019,-13.6416 z"
       inkscape:connector-curvature="0" /><path
       id="path90"
       style="fill:#000000;fill-opacity:1;fill-rule:nonzero;stroke:none"
       d="m 154.93457,469.35791 0,-0.36816 0.49023,0 0,0.36816 -0.49023,0 z"
       inkscape:connector-curvature="0" /><path
       id="path92"
       style="fill:#ffffff;fill-opacity:1;fill-rule:nonzero;stroke:none"
       d="m 141.41602,449.57275 -5.03907,-17.32812 -3.80957,-18.06445 c -2.33496,-19.54004 -6.51269,-36.25391 -4.42383,-56.53125 l 1.10547,-3.93262 c -1.84277,0.24609 -2.33496,1.7207 -2.94922,3.31836 -1.4746,8.23437 -0.7373,17.69629 -0.49121,26.17578 l 2.58008,21.875 4.42481,22.98047 4.79297,17.08203 c 2.94921,9.09375 5.28418,18.55762 12.04296,25.68555 l 1.47461,0 c -4.91504,-6.39161 -7.0039,-13.8877 -9.708,-21.26075 z"
       inkscape:connector-curvature="0" /><path
       id="path94"
       style="fill:#000000;fill-opacity:1;fill-rule:nonzero;stroke:none"
       d="m 112.78223,484.96533 -5.03809,-15.60742 -2.08984,-8.2334 -4.05567,-16.83691 c -0.86035,-3.31739 -1.84277,-7.86426 -2.70312,-11.18262 1.22851,8.47949 3.31738,16.09863 5.03808,24.82422 l 4.17871,15.23828 c 2.21192,6.14453 2.70411,13.02734 7.00489,18.31152 0.24609,0.85938 0.98242,-0.12304 1.47461,-0.24609 -1.9668,-1.84277 -1.72071,-4.42383 -3.80957,-6.26758 z"
       inkscape:connector-curvature="0" /><path
       id="path96"
       style="fill:#000000;fill-opacity:1;fill-rule:nonzero;stroke:none"
       d="M 93.85645,403.61084 90.41602,372.396 c 0,-3.56446 -1.35254,-7.25098 0,-10.69141 l 0,-9.95508 c -0.73829,-0.12207 -1.72071,0 -1.84473,0.86035 -0.36816,9.09473 0.61621,19.41797 1.47656,28.2666 l 2.70313,18.55665 c 0.61425,2.82617 1.10547,6.75878 1.71972,9.46191 -0.49121,-1.84277 -0.24609,-3.80957 -0.61425,-5.28418 z"
       inkscape:connector-curvature="0" /><path
       id="path98"
       style="fill:#000000;fill-opacity:1;fill-rule:nonzero;stroke:none"
       d="m 79.47852,369.69189 c -3.44141,-2.08886 -8.4795,-1.10546 -11.79786,0.61426 -0.61425,0.61524 -1.47461,0.98438 -2.08935,1.72168 2.82666,-1.35156 7.61865,-4.05664 11.55127,-1.72168 3.81055,0.98438 5.65332,4.79297 6.75976,8.23438 1.10645,6.88281 -1.22851,13.27246 -7.12793,17.45117 -2.58007,1.35156 -5.65332,2.21191 -8.84765,1.47461 -3.44141,-1.47461 -7.25147,-4.6709 -7.98828,-8.60254 -0.12256,-2.21191 -0.73731,-5.40723 -0.49219,-6.51367 -1.22852,6.14453 1.229,11.9209 6.14502,15.6084 3.81006,1.71972 8.84814,2.08789 12.41162,-0.2461 5.16211,-3.19531 8.35742,-8.84863 8.84863,-14.74804 -0.24511,-5.28418 -2.33496,-10.69141 -7.37304,-13.27247 z"
       inkscape:connector-curvature="0" /><path
       id="path100"
       style="fill:#ffffff;fill-opacity:1;fill-rule:nonzero;stroke:none"
       d="m 247.20801,466.80029 -2.93946,-14.70019 -5.87988,-2.93946 -12.74023,-49.98046 -6.86035,-55.86036 4.41015,-11.26953 42.62989,-3.91992 21.07031,111.71973 -39.69043,26.95019 z"
       inkscape:connector-curvature="0" /><path
       id="path102"
       style="fill:#000000;fill-opacity:1;fill-rule:nonzero;stroke:none"
       d="m 223.29004,308.46143 c -2.88086,7.91503 0.29101,17.40429 1.01367,25.8164 -4.53808,2.05274 -10.24902,2.42676 -14.28027,-0.50781 -0.55274,1.85449 1.89648,2.93262 2.84082,4.02246 l 4.32031,1 61.46387,-10.40625 c 0.93652,2.47266 0.0449,5.26563 0.51562,7.94531 l 1.71289,14.76953 3.31446,23.90528 5.48047,29.80469 5.74511,22.72656 c 0.93555,2.47363 2.31641,4.61719 2.8086,7.41894 l -3.69141,1.14942 -23.52734,4.75683 -25.49219,5.72754 c -3.47559,0.23242 -8.84277,0.4209 -10.04297,5.02735 0.25,0.70898 -0.27441,1.30371 0.12012,2.11328 2.71386,1.15722 2.71777,-3.11426 5.01074,-3.6416 1.26172,0.0303 2.71777,-0.97852 3.64062,-0.0107 1.08594,10.4834 4.70899,20.39649 15.30957,23.55957 5.57227,2.41309 13.58497,0.12793 18.11036,-3.42773 8.84765,-6.82715 9.21777,-18.31934 6.40429,-28.62598 l 0.50293,-0.71582 c 7.61035,-1.71191 13.48047,-2.61621 20.88379,-4.79394 -0.60058,-1.27539 1.08985,-0.94434 1.44922,-1.76172 -2.34863,-1.2207 -5.94238,1.92187 -7.67383,-0.78906 -4.53027,-11.51075 -6.76074,-24.9336 -10.09472,-36.78028 l -5.64063,-34.29785 -2.58789,-19.76367 -0.53906,-13.0918 c -1.02149,-2.95996 5.74316,-3.76953 1.2373,-5.11426 l -15.83789,2.77832 c -1.70508,0.29981 -0.64941,-2.2705 -1.65137,-2.9746 -1.57324,-10.39747 -2.94335,-23.21778 -14.2666,-27.63575 -5.77343,-2.12695 -14.27148,-1.8916 -19.46289,2.15918 -3.23437,2.3252 -5.60156,6.00586 -7.0957,9.65821 z"
       inkscape:connector-curvature="0" /><path
       id="path104"
       style="fill:#ffffff;fill-opacity:1;fill-rule:nonzero;stroke:none"
       d="m 226.38477,308.92334 -1.45997,5.2793 2.57618,18.25879 0.21386,1.21875 33.98926,-5.96289 -4.18652,-18.85547 c -2.75391,-5.6709 -9.11914,-10.45606 -15.42383,-10.60645 -6.97168,0.34473 -12.57129,4.21484 -15.70898,10.66797 z"
       inkscape:connector-curvature="0" /><path
       id="path106"
       style="fill:#000000;fill-opacity:1;fill-rule:nonzero;stroke:none"
       d="m 232.83105,311.30811 c -0.51855,3.48242 -0.40234,7.73144 2.4043,10.12695 2.49219,1.32129 4.72656,3.31543 7.42676,2.9668 3.5332,-0.62012 6.2373,-3.10254 7.4082,-6.44825 1.07715,-2.44922 -0.0811,-4.75781 -0.79492,-7.3955 -1.1582,-2.3086 -3.63574,-4.25977 -6.26465,-4.92872 -4.09082,-0.4121 -8.52734,1.49707 -10.17969,5.67872 z"
       inkscape:connector-curvature="0" /><path
       id="path108"
       style="fill:#ffffff;fill-opacity:1;fill-rule:nonzero;stroke:none"
       d="m 234.40039,311.66162 c -0.46191,3.09473 -0.63086,7.14258 1.68848,9.62402 1.8457,1.93555 4.74023,2.68457 7.24902,1.23926 2.12305,-1.50293 3.15723,-4.19531 3.36035,-6.61719 -0.51953,-3.67578 -2.13476,-7.15917 -5.9248,-8.00097 -2.97949,-1.23633 -5.31739,1.18359 -6.37305,3.75488 z"
       inkscape:connector-curvature="0" /><path
       id="path110"
       style="fill:#ffffff;fill-opacity:1;fill-rule:nonzero;stroke:none"
       d="m 268.29492,444.729 c 3.92383,2.3252 7.14453,5.65235 6.37305,10.56055 -0.46777,2.34277 -1.35938,5.13574 -3.60352,6.65918 -2.54492,1.9541 -6.73047,2.43652 -9.53027,0.79395 -3.43652,-2.41114 -5.46094,-6.07422 -5.1123,-10.53125 0.41015,-1.95508 1.37207,-3.63086 2.69921,-5.3711 -3.87793,0.80567 -8.08398,1.16797 -12.24023,2.52442 0.25684,8.61914 3.90332,16.51953 11.70215,20.1748 4.69726,2.44043 11.69043,2.21777 15.97168,-1.2959 5.72851,-3.14062 7.76367,-10.15234 7.73242,-16.0498 l -1.68848,-9.62403 c -3.74609,-0.59765 -8.18261,1.31055 -12.30371,2.15918 z"
       inkscape:connector-curvature="0" /><path
       id="path112"
       style="fill:#ffffff;fill-opacity:1;fill-rule:nonzero;stroke:none"
       d="m 259.18262,449.34131 c -1.4209,2.63574 -1.45313,6.03125 -0.16602,9.07031 1.1084,1.3125 2.38281,2.84766 4.23828,3.40039 1.52637,0.10938 3.33789,0.41895 4.69336,-0.44531 1.83594,-1.7041 2.93457,-4.03223 3.15918,-6.33203 -0.14746,-2.98828 -1.52832,-5.13184 -3.35351,-6.94629 -2.56348,-2.43848 -6.86328,-1.18164 -8.57129,1.25293 z"
       inkscape:connector-curvature="0" /><path
       id="path114"
       style="fill:#000000;fill-opacity:1;fill-rule:nonzero;stroke:none"
       d="m 284.4834,418.85498 c 0.60058,2.61133 0.85547,5.41504 1.33008,8.07227 l 3.56347,19.17187 1.84375,9.33887 3.80957,21.01465 c -8.47949,6.39062 -12.53515,16.59179 -10.6914,27.16015 1.84375,6.14356 3.56347,12.41114 5.65234,18.55664 3.19531,8.4795 5.53125,17.32715 8.23438,25.92969 l 0.86035,-2.08887 -0.2461,-16.46777 c -0.24609,-6.26758 -1.22851,-13.51855 2.08985,-18.55664 l 0.24511,0 1.84375,7.00488 3.44043,19.78614 c 0.9834,4.05468 0.61426,7.74121 1.47461,11.79687 1.47461,2.7041 6.02149,-1.7207 5.40723,2.7041 -0.49023,2.58106 0.36914,5.65332 2.58106,7.37403 l 0.61425,-15.36231 c -3.19531,-10.20019 -5.89843,-22.12012 -6.75879,-33.91894 1.84278,-10.07618 12.90332,-6.63575 20.03125,-8.60157 10.2002,2.21192 13.02637,13.64063 17.69629,21.25977 2.45801,4.17871 1.84375,9.58594 -0.61425,13.51758 -1.9668,3.07324 -5.03907,3.4414 -7.37403,5.65332 -4.79297,3.19531 -10.81445,3.4414 -16.4668,4.4248 l -2.33496,-0.86035 c 5.77539,2.82715 14.625,-0.12305 20.89161,-2.7041 4.17773,-1.59668 7.86523,-5.89746 8.60253,-10.32227 0.9834,-7.62011 -3.68652,-13.76367 -6.26757,-20.27734 -4.17871,-5.53027 -8.4795,-12.28906 -16.22168,-11.79785 -3.81055,0.36914 -7.61914,1.47461 -11.1836,1.47461 l 0,-0.61426 c -0.86035,-0.12305 -1.59668,1.22949 -2.33496,0.61426 6.14551,-6.5127 16.09961,-6.26758 24.45606,-4.792 l 7.37304,3.8086 11.55274,9.83203 c 10.07617,9.83105 13.27148,22.48926 21.13672,33.30371 l 1.84277,0 c 1.7207,-2.33594 -3.93164,-7.00488 2.08984,-6.26758 2.94922,0.86035 3.80957,-2.21191 2.94922,-4.42383 -0.49121,-1.84375 -0.98242,-3.80957 -1.22851,-5.89941 2.58105,-1.47461 5.40722,0.36914 8.23437,0 3.19434,-0.12207 6.14356,-0.73633 9.46192,-0.49121 l -0.61426,-0.61523 c 4.05566,-1.71973 8.47949,-2.33399 12.41113,-4.17774 l 15.97754,-6.75879 c 2.58105,-1.59765 5.65234,-2.94922 7.61816,-5.65332 -3.68652,-0.73633 -6.26757,3.68652 -10.07714,4.17871 -12.78028,5.16114 -25.80762,11.79688 -40.67676,10.32227 -1.22852,-0.36817 -2.82617,-0.98242 -3.56348,-2.08887 -1.72168,-12.6582 -4.66992,-24.82422 -6.39062,-37.48242 l 0.49121,-0.49121 c 14.25586,-1.72071 27.03711,1.84375 41.0459,1.47461 5.65332,0.24609 10.69238,1.47558 15.60742,3.4414 1.22851,-1.59765 -0.61426,-3.31836 -2.08887,-3.81054 -9.9541,-3.19434 -20.40039,-2.33399 -31.46094,-2.94825 -7.86523,-0.86035 -15.97558,-1.84472 -23.96386,-1.4746 -2.21192,-4.05665 -1.47364,-9.34083 -2.94922,-13.8877 12.04394,-5.53027 24.20898,-17.08203 28.38769,-29.74023 0.12403,-5.7754 2.58106,-12.90332 -2.08886,-17.4502 -6.14454,-5.03906 -14.74708,-0.49219 -21.50586,0.61426 -3.93262,1.35254 -8.11036,2.08984 -12.167,3.31836 l -0.86035,-1.47461 -3.19433,-19.54004 -3.56348,-18.80274 c 0,-4.05468 -2.58106,-7.74218 -1.22949,-11.55175 8.47949,1.47558 16.46777,-2.70313 21.01465,-9.09473 5.16113,-8.11035 6.75878,-17.57227 8.84765,-26.91211 -0.36816,-1.59863 0.49219,-2.7041 0.86035,-4.05566 4.54688,7.61914 6.02246,16.58984 12.41211,23.59472 2.45899,1.84375 5.77637,2.9502 9.09473,1.96582 6.14453,-1.10449 10.93652,-7.49609 12.04297,-12.90332 4.05566,-12.41211 4.91601,-25.92968 3.31836,-38.95703 -1.9668,-3.07226 -0.9834,-7.25 -3.56446,-10.07617 0,-1.9668 2.33594,-3.19531 2.9502,-4.91602 3.93262,-10.32324 5.2832,-21.6289 7.9873,-32.44335 l -0.36816,-0.36915 c -3.07227,3.44043 -2.21191,8.4795 -4.66992,12.167 -2.82715,7.86523 -1.7207,19.29394 -11.79785,22.36621 l 0,0.61426 c 0.49121,0.12207 1.10644,-0.2461 1.47461,0.24609 -1.22852,1.96582 -3.80957,1.7207 -5.28418,2.08887 0.36914,-0.12305 0.61425,0.36816 0.85937,0.61425 -1.84277,0.61426 -2.94824,2.82618 -5.03711,2.94922 4.17774,-0.12304 9.83008,-6.63574 12.41114,-0.36914 6.02148,13.39551 1.35253,29.74121 -0.61426,43.38184 -1.9668,5.28418 -4.79297,12.6582 -11.42871,13.27246 -5.03907,0.49121 -8.35645,-4.79297 -10.32227,-8.48047 -1.7207,-8.35644 -7.25195,-15.4834 -8.84863,-23.96387 l 0.24512,-17.32812 c 2.82617,-5.89746 5.28515,-11.91992 5.89941,-18.67871 l 1.47363,-17.08203 c -0.73633,-0.73731 0.2461,-2.33594 -0.85937,-2.9502 -0.73731,0.24609 -0.36914,0.73828 -0.86035,1.23047 0.24609,10.69043 -2.58106,20.52246 -4.42383,30.10742 -1.22949,1.96582 -1.72071,5.03906 -4.42481,5.53027 -0.49121,0.12305 -0.86035,-0.61425 -1.22851,0 0.98242,0.49219 0.7373,1.47461 0.24609,2.33497 -2.21191,-2.21192 -5.16113,-0.2461 -7.37402,-2.58106 3.80957,3.31934 11.06054,5.77637 8.60254,12.6582 l -0.86036,12.04395 -2.33496,14.74707 c -2.458,7.25 -3.07226,15.23828 -8.84765,21.01367 -4.91602,3.93262 -9.33985,7.00586 -15.97559,6.51367 -0.37012,-0.36816 -0.73828,-0.73632 -0.61523,-1.22851 -0.12305,0.36816 -0.49121,0.24609 -0.86035,0.24609 l -0.61426,-0.49219 -3.80957,-21.875 c 0.49219,-1.22851 2.08886,-2.45703 3.19531,-3.19531 4.17871,-4.42383 7.25098,-9.21582 7.12695,-15.36133 10.07813,-10.93652 6.75977,-26.17578 6.14551,-40.43164 l 13.64063,-11.79687 c 0.86035,-2.21192 2.94921,-3.93262 4.42382,-5.89942 l 20.03223,-10.56836 c 2.8252,-2.7041 7.12793,-3.81054 8.84766,-7.12793 -9.46289,4.54688 -18.55762,9.70899 -28.26563,13.51758 l -0.98242,0 c -0.9834,-0.98242 0.73633,-1.96582 -0.24609,-2.94824 -0.2461,0.12207 -0.36817,-0.12402 -0.61426,-0.24609 -1.7207,4.05468 -3.31836,8.47949 -7.00488,11.55175 l -9.46289,8.2334 -18.92579,14.74707 c -8.72461,7.12793 -18.80273,11.9209 -30.35351,11.42871 0.12207,-0.36816 0.61426,-0.24511 0.86035,-0.24511 -3.81055,0.49121 -8.23438,0.49121 -11.42969,-1.22949 11.30567,-0.73633 23.22656,-7.25 27.40528,-18.55665 l 0.86035,-0.61425 -4.17871,-9.9541 -8.23438,-13.64063 c -3.07129,-3.07324 -6.14355,-9.46289 -11.42871,-7.37402 -1.35156,0 -2.08887,1.22851 -3.56348,0.9834 0.36914,-3.56446 3.80957,-6.39063 5.89844,-9.4629 0.86035,-2.33496 4.17871,-3.6875 4.42481,-6.26757 -2.94922,1.10547 -5.16114,3.93261 -7.74219,5.89843 -0.9834,1.47461 -1.22949,3.56348 -3.19531,4.42481 l -31.58301,5.40723 -20.27832,3.80957 c -0.61426,0.12207 -1.10547,0.73632 -1.47461,1.10644 l 7.37402,39.3252 3.19531,18.1875 3.19532,17.45117 c 1.47461,2.94922 0.7373,6.88183 1.84277,10.07715 1.10645,6.39062 2.33496,12.53515 3.56445,19.41699 l -3.31836,1.22851 -15.36132,2.94922 c -3.80957,1.47559 -9.46289,2.21192 -10.56836,7.37305 -0.61426,3.07324 -1.59864,6.75977 0.86035,9.34082 5.89844,5.40723 14.25488,4.91504 22.12012,5.65234 l 10.9375,0 0.61425,0.86036 2.95606,16.94043 1.24414,6.32519 z"
       inkscape:connector-curvature="0" /><path
       id="path116"
       style="fill:#000000;fill-opacity:1;fill-rule:nonzero;stroke:none"
       d="m 410.91797,295.92432 0,-0.49219 0.49121,0 0,0.49219 -0.49121,0 z"
       inkscape:connector-curvature="0" /><path
       id="path118"
       style="fill:#ffffff;fill-opacity:1;fill-rule:nonzero;stroke:none"
       d="m 396.16992,421.88916 c -10.56836,-1.47559 -20.15429,2.82617 -29.24707,6.75879 l 0.36817,3.19434 3.80957,21.01464 2.08984,10.56934 c 12.65723,-5.77637 25.06934,-17.94238 26.54395,-32.44434 -0.61426,-3.31738 0.36914,-7.74121 -3.56446,-9.09277 z"
       inkscape:connector-curvature="0" /><path
       id="path120"
       style="fill:#ffffff;fill-opacity:1;fill-rule:nonzero;stroke:none"
       d="m 377.61426,507.66748 -4.42383,-23.22656 -6.51367,-34.90137 -5.28418,-29.74023 c -1.47461,-8.84766 -2.94922,-16.58985 -4.42383,-25.31543 l -3.56445,-19.1709 -5.89942,-33.67285 -3.56347,-20.03125 c -1.10645,-4.30176 -0.9834,-8.97071 -2.58008,-13.02735 -11.18457,6.26758 -27.65137,6.02246 -38.95703,0.36914 -6.3916,-5.89843 -10.07813,-13.39453 -12.167,-21.26074 -0.61425,-7.12695 4.17872,-11.91992 7.37403,-17.45019 l 9.46191,-12.9043 0,-0.61426 -44.85449,7.62012 c -0.73828,0.61426 -2.08984,0 -2.9502,0.61426 l 0,2.94824 2.9502,14.99316 c 0.86035,1.47461 2.45703,-0.24511 3.93164,0.36914 5.28418,-0.61425 10.2002,-2.45703 15.60742,-2.94922 0.86035,1.22852 1.84375,-0.12304 2.58106,1.47461 l 2.70312,15.36133 3.56348,19.66309 c 0,0.7373 0.12402,1.47461 -0.61426,1.84375 l -19.78516,3.19433 c -0.85937,1.84375 0.49122,4.66993 0.61426,7.12793 l 3.80957,0 15.11621,-2.70312 c 2.08887,-1.10547 2.21192,2.08887 2.94922,3.31738 l 2.94922,16.71387 c 0.61426,3.07226 0.9834,6.14453 1.47461,9.2168 l -1.84277,0.86035 -18.55664,3.19531 c -0.49219,2.45703 0.7373,4.91602 1.22851,7.37305 l 2.94922,0 16.46777,-2.94922 c 0.86036,0 1.72071,0.9834 1.72071,1.84375 0.86035,7.37402 3.07226,14.50195 3.93261,21.50586 -2.08886,0.61425 -4.05566,1.22851 -6.26757,1.47461 l -14.13282,2.7041 c -0.12304,1.47461 0.12305,4.79297 0.86036,7.0039 l 4.17871,0 15.36132,-2.58007 c 2.58008,0.98339 2.08887,3.93261 2.58008,6.14453 1.10645,4.4248 2.7041,9.83203 1.47461,14.13281 l -4.66894,0.86035 -14.74707,2.70313 c 0,3.07226 0.98242,5.65332 1.47461,8.60254 l 3.19433,0 15.97656,-3.31739 c 1.10547,-0.36914 1.59766,0.61426 2.33497,1.22852 l 2.33496,14.99316 c 0.36816,0.2461 0.36816,0.61426 0.36816,0.86035 -0.61426,1.59668 -1.47461,-0.49218 -2.08887,0.61426 l -18.55664,3.8086 c 0.49121,2.58105 0,5.53125 1.47461,7.74316 l 19.1709,-3.56445 c 3.31836,2.94922 2.21289,8.23437 4.05566,12.04297 l -0.86035,0.98437 c -6.75879,0.73633 -13.02636,2.45703 -19.78515,3.44043 -0.2461,2.21289 0.24609,4.91602 0.86035,7.12793 l 3.31836,0 15.60644,-2.94922 c 1.10547,-0.61523 1.84375,0.86035 2.33594,1.7207 0.36816,2.94922 1.96582,6.14454 0.86035,8.84766 l -4.4248,0.36914 -14.99317,2.94922 -0.24511,0 c -0.49219,2.58008 0.73632,5.28418 1.10546,7.9873 l 2.33497,0 15.97656,-3.31738 0.61426,-0.61426 c 1.84277,0.98243 2.33398,2.70313 2.94921,4.792 12.65821,-4.17774 25.43848,2.21289 34.53321,12.41308 l 6.75781,8.2334 8.84961,12.90332 c 3.19434,2.33496 2.45703,11.30664 8.84766,7.12793 -0.61524,-9.46289 -3.44043,-17.94238 -4.42383,-27.15918 z"
       inkscape:connector-curvature="0" /><path
       id="path122"
       style="fill:#ffffff;fill-opacity:1;fill-rule:nonzero;stroke:none"
       d="m 364.58691,292.11475 -2.33496,1.10546 -17.45019,13.27247 5.03808,26.91406 c 8.11133,-0.36914 12.65821,-9.46289 14.74707,-15.97656 0.36914,-2.21192 0.61426,-4.54688 0.86036,-6.75879 l -0.2461,-15.36133 -0.61426,-3.19531 z"
       inkscape:connector-curvature="0" /><path
       id="path124"
       style="fill:#ffffff;fill-opacity:1;fill-rule:nonzero;stroke:none"
       d="m 359.05762,333.40674 c -2.94922,1.35156 -5.53125,3.19531 -8.60254,4.05469 l 1.22851,6.26757 c 3.80957,-0.85937 5.03907,-5.65234 7.00586,-8.60156 -0.24609,-0.73828 0.61426,-0.9834 0.36817,-1.7207 z"
       inkscape:connector-curvature="0" /><path
       id="path126"
       style="fill:#ffffff;fill-opacity:1;fill-rule:nonzero;stroke:none"
       d="m 324.76953,267.04443 c -3.80859,-3.19531 -6.63574,-10.32324 -12.65723,-7.12793 -4.17871,1.59766 -7.37304,6.14454 -10.56835,9.46289 -3.81055,7.12793 -11.55274,14.87012 -5.89942,23.59571 2.08887,5.16113 5.65332,12.16601 12.04297,13.02539 10.69238,1.47558 19.54004,-5.16113 25.93066,-13.02539 4.54688,-9.9541 -5.03808,-17.69727 -8.84863,-25.93067 z"
       inkscape:connector-curvature="0" /><path
       id="path128"
       style="fill:#ffffff;fill-opacity:1;fill-rule:nonzero;stroke:none"
       d="m 307.44238,522.41455 c -0.49121,-1.10547 -0.24511,-2.82617 -1.22949,-3.56348 l 0,2.70313 2.7041,14.99219 1.9668,10.07812 c 1.22851,0.98242 1.35059,-0.49219 2.08887,-1.22949 -0.12207,-8.35645 -5.53028,-14.5 -5.53028,-22.98047 z"
       inkscape:connector-curvature="0" /><path
       id="path130"
       style="fill:#ffffff;fill-opacity:1;fill-rule:nonzero;stroke:none"
       d="m 303.01855,502.99756 c 0.2461,2.45801 0.36817,4.91601 1.47461,7.00488 3.31836,0.12305 2.94922,-4.05566 4.42383,-6.14355 l 1.9668,-2.33594 -7.86524,1.47461 z"
       inkscape:connector-curvature="0" /><path
       id="path132"
       style="fill:#ffffff;fill-opacity:1;fill-rule:nonzero;stroke:none"
       d="m 295.64453,480.87744 c -0.24609,-0.24609 -0.49121,-0.36914 -0.36816,-0.61426 -4.54688,5.5293 -9.58594,12.53516 -7.98828,19.78516 0.24609,10.32227 5.03808,19.66211 8.35644,29.125 0.2461,-6.88184 -1.35156,-17.32715 4.66992,-23.84082 l -4.66992,-24.45508 z"
       inkscape:connector-curvature="0" /><path
       id="path134"
       style="fill:#ffffff;fill-opacity:1;fill-rule:nonzero;stroke:none"
       d="m 274.99902,369.65967 c -8.35644,2.82617 -17.81933,2.45801 -25.43945,7.12793 -2.33398,2.21191 -2.70312,5.65234 -2.08887,8.84765 2.45801,6.02149 9.46289,5.89942 14.74805,7.37403 l 17.2041,0 c -1.7207,-8.11035 -2.58105,-15.36231 -4.42383,-23.34961 z"
       inkscape:connector-curvature="0" /><path
       id="path136"
       style="fill:#000000;fill-opacity:1;fill-rule:nonzero;stroke:none"
       d="m 49.1123,245.0415 c -0.30224,-0.66992 -0.8247,-1.00488 -1.56738,-1.00488 -0.47461,0 -0.85303,0.18067 -1.13428,0.54297 -0.28125,0.36133 -0.42187,0.88867 -0.42187,1.58203 0,0.58984 0.0708,1.06641 0.2124,1.42969 0.26807,0.68164 0.76563,1.02246 1.49268,1.02246 0.48633,0 0.88623,-0.18457 1.20019,-0.55176 0.31397,-0.36719 0.47119,-0.93164 0.47119,-1.69336 0,-0.50586 -0.08447,-0.94824 -0.25293,-1.32715 m -3.43066,3.61817 c -0.50342,-0.57813 -0.75537,-1.38184 -0.75537,-2.41211 0,-1.09082 0.25,-1.87305 0.74951,-2.3457 0.49951,-0.47266 1.08252,-0.70899 1.74854,-0.70899 0.47851,0 0.86328,0.0762 1.15381,0.22949 0.29101,0.15332 0.54003,0.38672 0.74658,0.7002 0.01172,-0.8457 -0.05518,-1.4336 -0.20069,-1.7627 -0.24511,-0.55761 -0.76367,-0.83789 -1.55615,-0.83789 -0.50146,0 -0.86914,0.11426 -1.10254,0.34473 -0.14941,0.14844 -0.24902,0.36133 -0.29883,0.63672 l -1.05078,0 c 0.05371,-0.63184 0.30616,-1.09571 0.7583,-1.39258 0.45166,-0.2959 1.0083,-0.44434 1.6709,-0.44434 1.19043,0 2,0.41797 2.42871,1.25196 0.22998,0.45117 0.34473,1.06738 0.34473,1.84863 l 0,5.59277 -0.95313,0 0,-0.77539 c -0.20312,0.25684 -0.40234,0.45215 -0.59716,0.58594 -0.35987,0.2373 -0.78125,0.35645 -1.26368,0.35645 -0.71191,0 -1.31933,-0.28907 -1.82275,-0.86719"
       inkscape:connector-curvature="0" /><path
       id="path138"
       style="fill:#000000;fill-opacity:1;fill-rule:nonzero;stroke:none"
       d="m 53.14063,245.76514 c 0.1875,0.10742 0.46875,0.18554 0.84423,0.23535 l 0.62549,0.081 c 0.19141,0.0225 0.38672,0.0606 0.58594,0.11426 0.19922,0.0537 0.36182,0.12109 0.48779,0.20117 l 0,-0.83301 c 0,-0.63476 -0.28711,-1.09277 -0.86133,-1.37207 -0.34033,-0.16796 -0.69287,-0.25293 -1.05615,-0.25293 -0.29883,0 -0.55713,0.0859 -0.77539,0.25879 -0.21826,0.17188 -0.32715,0.40723 -0.32715,0.70606 0,0.39453 0.15869,0.68164 0.47657,0.86133 m -1.02198,0.44238 c -0.35644,-0.31445 -0.53418,-0.75586 -0.53418,-1.32617 0,-0.52149 0.18067,-0.9541 0.54248,-1.30078 0.36182,-0.34668 0.82813,-0.51953 1.39844,-0.51953 0.47461,0 0.90918,0.10156 1.30322,0.30371 0.39453,0.20312 0.69678,0.44238 0.90723,0.71777 0.03467,-0.24512 0.09375,-0.43457 0.17822,-0.56836 0.16065,-0.25293 0.41895,-0.37891 0.7749,-0.37891 0.14551,0 0.26075,0.006 0.34473,0.0176 0.08447,0.0107 0.20654,0.04 0.36768,0.0859 l 0,0.76367 c -0.06543,-0.0117 -0.12647,-0.0205 -0.18408,-0.0254 -0.05713,-0.006 -0.10889,-0.009 -0.15479,-0.009 -0.1416,0 -0.23437,0.0322 -0.27832,0.0977 -0.04443,0.0644 -0.06641,0.15039 -0.06641,0.25781 l 0,3.54297 c 0,0.58203 -0.22363,1.01074 -0.67187,1.28613 -0.45166,0.27637 -1.03906,0.41406 -1.7627,0.41406 -0.62402,0 -1.17236,-0.14843 -1.64502,-0.44531 -0.47265,-0.29687 -0.71875,-0.82422 -0.73779,-1.58203 l 0.96436,0 c 0.03857,0.31738 0.1206,0.55664 0.24707,0.71777 0.22607,0.29102 0.60888,0.43653 1.14843,0.43653 0.4668,0 0.82569,-0.0791 1.07666,-0.23828 0.25098,-0.15918 0.37598,-0.41407 0.37598,-0.76661 0,-0.17187 -0.02295,-0.30468 -0.06885,-0.39648 -0.08008,-0.16797 -0.23925,-0.26758 -0.47656,-0.29883 l -1.64795,-0.20605 c -0.57812,-0.0732 -1.04492,-0.2666 -1.40088,-0.58008"
       inkscape:connector-curvature="0" /><path
       id="path140"
       style="fill:#000000;fill-opacity:1;fill-rule:nonzero;stroke:none"
       d="m 62.1875,245.0415 c -0.30273,-0.66992 -0.8252,-1.00488 -1.56787,-1.00488 -0.47461,0 -0.85254,0.18067 -1.13379,0.54297 -0.28174,0.36133 -0.42236,0.88867 -0.42236,1.58203 0,0.58984 0.0708,1.06641 0.2124,1.42969 0.26807,0.68164 0.76562,1.02246 1.49316,1.02246 0.48633,0 0.88623,-0.18457 1.2002,-0.55176 0.31396,-0.36719 0.4707,-0.93164 0.4707,-1.69336 0,-0.50586 -0.08398,-0.94824 -0.25244,-1.32715 m -3.43115,3.61817 c -0.50342,-0.57813 -0.75489,-1.38184 -0.75489,-2.41211 0,-1.09082 0.24952,-1.87305 0.74903,-2.3457 0.49951,-0.47266 1.08252,-0.70899 1.74853,-0.70899 0.47852,0 0.86328,0.0762 1.1543,0.22949 0.29102,0.15332 0.53955,0.38672 0.74658,0.7002 0.01123,-0.8457 -0.05566,-1.4336 -0.20117,-1.7627 -0.24512,-0.55761 -0.76367,-0.83789 -1.55615,-0.83789 -0.50147,0 -0.86865,0.11426 -1.10254,0.34473 -0.14893,0.14844 -0.24854,0.36133 -0.29834,0.63672 l -1.05078,0 c 0.05322,-0.63184 0.30615,-1.09571 0.75781,-1.39258 0.45166,-0.2959 1.00879,-0.44434 1.6709,-0.44434 1.19043,0 2.00049,0.41797 2.4292,1.25196 0.22949,0.45117 0.34424,1.06738 0.34424,1.84863 l 0,5.59277 -0.95313,0 0,-0.77539 c -0.20264,0.25684 -0.40185,0.45215 -0.59717,0.58594 -0.35986,0.2373 -0.78076,0.35645 -1.26318,0.35645 -0.71191,0 -1.31982,-0.28907 -1.82324,-0.86719"
       inkscape:connector-curvature="0" /><path
       id="path142"
       style="fill:#000000;fill-opacity:1;fill-rule:nonzero;stroke:none"
       d="m 66.08643,248.02783 c 0.32324,0.39844 0.7456,0.59668 1.26611,0.59668 0.4668,0 0.85937,-0.18652 1.17676,-0.55957 0.31836,-0.37305 0.47656,-0.94824 0.47656,-1.72558 0,-0.76954 -0.15332,-1.35938 -0.46191,-1.77149 -0.3086,-0.41113 -0.70118,-0.61719 -1.17969,-0.61719 -0.61621,0 -1.06446,0.22168 -1.34424,0.66602 -0.2793,0.44434 -0.41895,0.99512 -0.41895,1.6543 0,0.77246 0.16163,1.35839 0.48536,1.75683 m -0.89014,0.51367 c -0.45752,-0.65625 -0.68604,-1.43261 -0.68604,-2.32812 0,-0.95703 0.25049,-1.72363 0.75196,-2.29981 0.50146,-0.57617 1.09472,-0.86425 1.77978,-0.86425 0.42578,0 0.80274,0.085 1.13184,0.25293 0.3291,0.16796 0.61426,0.4414 0.85547,0.82031 l 0,-0.85547 0.92968,0 0,8.46387 -0.99316,0 0,-3.10645 c -0.2334,0.28711 -0.44238,0.48828 -0.62598,0.60352 -0.31738,0.19922 -0.71191,0.29883 -1.18261,0.29883 -0.8501,0 -1.50342,-0.32911 -1.96094,-0.98536 z"
       inkscape:connector-curvature="0" /></g></svg>