<?xml version="1.0" encoding="UTF-8" standalone="no"?>
<svg
   xmlns:dc="http://purl.org/dc/elements/1.1/"
   xmlns:cc="http://creativecommons.org/ns#"
   xmlns:rdf="http://www.w3.org/1999/02/22-rdf-syntax-ns#"
   xmlns:svg="http://www.w3.org/2000/svg"
   xmlns="http://www.w3.org/2000/svg"
   xmlns:sodipodi="http://sodipodi.sourceforge.net/DTD/sodipodi-0.dtd"
   xmlns:inkscape="http://www.inkscape.org/namespaces/inkscape"
   viewBox="0 0 301.06018 213.09081"
   height="213.09081"
   width="301.06018"
   xml:space="preserve"
   version="1.1"
   id="svg2"
   inkscape:version="0.91 r13725"
   sodipodi:docname="1521214987.svg"><sodipodi:namedview
     pagecolor="#ffffff"
     bordercolor="#666666"
     borderopacity="1"
     objecttolerance="10"
     gridtolerance="10"
     guidetolerance="10"
     inkscape:pageopacity="0"
     inkscape:pageshadow="2"
     inkscape:window-width="640"
     inkscape:window-height="480"
     id="namedview71"
     showgrid="false"
     inkscape:zoom="0.23838384"
     inkscape:cx="172.099"
     inkscape:cy="110.86914"
     inkscape:window-x="0"
     inkscape:window-y="0"
     inkscape:window-maximized="0"
     inkscape:current-layer="svg2" /><metadata
     id="metadata8"><rdf:RDF><cc:Work
         rdf:about=""><dc:format>image/svg+xml</dc:format><dc:type
           rdf:resource="http://purl.org/dc/dcmitype/StillImage" /><dc:title></dc:title></cc:Work></rdf:RDF></metadata><defs
     id="defs6"><clipPath
       id="clipPath12"
       clipPathUnits="userSpaceOnUse"><path
         id="path14"
         d="m -152.5,-229.5 612,0 0,792 -612,0 0,-792 z"
         inkscape:connector-curvature="0" /></clipPath></defs><g
     clip-path="url(#clipPath12)"
     transform="matrix(1.25,0,0,-1.25,-19.776,310.34667)"
     id="g10"><path
       id="path16"
       style="fill:#ffffff;fill-opacity:1;fill-rule:nonzero;stroke:none"
       d="m 256.66895,78.2666 -240.84815,0 0,170.01074 240.84815,0 0,-170.01074 z"
       inkscape:connector-curvature="0" /><path
       id="path18"
       style="fill:#000000;fill-opacity:1;fill-rule:nonzero;stroke:none"
       d="m 188.05566,77.80469 c -3.03711,5.66113 -9.05957,9.36816 -14.30957,12.19922 -1.95605,-0.97754 -3.86035,-2.16114 -5.71386,-3.44825 1.4414,-1.03027 3.80859,-2.26562 3.86132,-4.32421 -2.1621,-2.625 -6.02246,-1.23438 -8.80175,-0.72071 -3.60352,2.83008 -6.58789,-1.64648 -10.50098,-1.13281 -5.0957,-0.66895 -9.57324,2.57324 -12.45557,6.94922 -2.26513,2.57422 -4.11865,5.45605 -6.43408,7.875 -0.92676,-1.28711 0.10303,-2.67578 0.61719,-3.8086 2.88281,-4.42675 7.46338,-7.36132 11.47852,-10.24316 -4.8379,2.67676 -10.70606,6.38281 -13.07422,11.58106 -0.97803,-2.16114 -1.95557,-5.09571 -0.15381,-7.1543 1.64697,-2.57324 4.16943,-4.375 5.9707,-6.53711 -3.24267,1.5957 -6.07373,4.94141 -7.66943,8.0293 -0.875,-1.80079 -1.23535,-3.8086 -2.21338,-5.5586 l -0.25684,0.25781 c -0.10302,-0.25781 -0.36084,-0.10351 -0.51513,-0.15527 1.18359,5.09668 3.13964,9.83106 4.83789,14.72168 -1.80127,2.625 -3.85938,5.19824 -3.70606,8.64746 0.30957,4.78711 1.18408,9.36719 2.31641,13.84571 -9.41895,-0.875 -21.97852,-5.09571 -28.77246,4.16894 l -0.25733,0.25781 c -1.28662,-11.11816 -2.36767,-21.82422 -3.29443,-33.09668 6.17676,-3.1914 12.66211,-5.9707 18.63281,-9.52246 l 0,-0.10254 c -1.54394,0.05078 -3.08789,0.46387 -4.58105,1.23535 -5.35303,1.95606 -10.44873,4.8379 -15.54492,7 -3.13965,2.00684 -6.48487,3.44825 -9.77881,5.09571 -2.36817,0.77148 -4.73584,1.64648 -7.2583,1.95605 -0.05079,0.3086 0.66992,0.46289 0.20605,0.77149 5.50781,2.72851 10.24316,8.39062 10.29443,14.66894 -0.05127,6.69239 -5.19873,12.25098 -10.75732,15.44239 -0.51465,0.10253 -1.28711,0.0517 -1.38965,0.61718 -3.14062,1.85352 -6.84668,2.93457 -10.50098,3.86133 -0.20605,0.1543 -0.05175,0.46289 -0.10253,0.7207 1.02929,0.875 2.21289,-0.10351 3.3457,-0.10351 2.57373,-0.46289 4.68359,-2.0586 7.25781,-2.4707 1.23486,4.73632 -0.87549,11.2207 4.2207,14.05273 2.2129,1.69824 1.80127,4.68359 2.72754,7.05078 -1.4414,-0.10254 -2.88183,-0.77148 -4.47754,-0.875 -4.53027,-0.25684 -9.26562,0.61719 -13.17773,2.625 l 0.10352,0.36133 c 5.0957,-2.00781 11.99316,-3.65527 17.29443,-0.97852 1.02978,0.51465 0.875,1.59571 1.13232,2.47071 -2.52197,-0.72071 -5.45507,-1.33789 -8.18408,-1.0293 -1.90478,0.46289 -3.91162,0.56641 -5.66162,1.38965 3.44824,-0.36035 9.98535,-2.21387 13.8457,0.61719 0.72071,0.875 1.13282,2.21386 0.61768,3.3457 -1.3374,2.57324 -4.06641,4.375 -6.43408,5.76465 -1.38965,-1.49219 -1.08008,-4.27246 -3.24219,-5.30078 -3.60352,-0.61817 -7.30908,0.7207 -9.47168,3.44824 l 0,0.51465 c 2.21387,-2.47071 5.50781,-3.75782 8.75098,-3.34571 2.3164,1.13282 1.59521,4.11719 2.72851,6.07373 -0.20703,1.33838 1.4917,2.93409 0,4.16895 -2.11133,1.69873 -4.47949,2.83105 -7.30957,2.88232 -0.20605,-0.35937 -0.87597,0.0518 -1.23535,-0.25683 -0.77197,-0.41162 -0.56641,-1.08106 -0.25732,-1.59571 2.10986,-2.4707 5.04443,-2.88281 7.92675,-3.5 l 0,-0.10302 c -3.14013,-0.35987 -6.07373,1.28662 -8.64746,2.98584 l -0.61816,-1.49268 c 0,0.25635 0.05176,0.56592 -0.25733,0.72022 -0.10253,0 -0.30859,0.0513 -0.36035,-0.10352 -0.41113,1.18408 0.1543,2.62549 0.51514,3.80957 1.69873,1.64648 4.16943,1.38965 6.2793,0.77246 l 0.36084,0.35938 c 1.23486,2.98584 1.49218,6.38281 3.08789,9.26513 2.83105,2.00733 6.43408,2.21387 10.14062,2.21387 l 0,0.51416 c -5.40527,7.00098 -13.12597,13.07422 -14.56738,21.72168 -2.31592,9.31641 -0.56592,20.07373 1.33887,29.1333 1.49218,5.19873 6.79394,9.31641 12.0957,9.77881 0.61816,0.51514 -0.61816,0.92725 0.1543,1.33887 0.82324,-0.46289 1.28662,-2.0586 1.95605,-3.08789 3.60254,-5.35352 6.8457,-10.91211 9.26514,-16.78028 0.25732,0.10254 0.10303,0.30908 0.15478,0.51465 0.51416,-0.92627 0.77149,-1.95605 1.33789,-2.88281 1.33838,2.36816 3.44825,4.78711 5.91944,6.17676 1.38916,1.02929 2.72802,2.41894 3.96338,3.50048 -2.83106,-4.22119 -8.59668,-5.40478 -9.62598,-10.50048 2.67676,-6.69141 9.41992,-11.63233 12.35352,-18.16895 2.11035,-3.55225 3.08789,-7.72168 5.91894,-10.86133 0.10352,0.92676 -0.87451,1.69922 -0.72021,2.83106 -0.1543,0.41211 -0.41163,0.77197 -0.41163,1.23535 0.46387,0.875 0.72071,1.80127 1.13184,2.72754 2.41992,5.81689 8.59668,7.66992 13.22852,10.70703 2.77929,0.51416 5.09668,-1.02979 6.79492,-3.1919 3.08789,-4.68408 5.09521,-9.93457 5.66113,-15.54443 l 0.25781,-0.25781 0.51465,1.08105 c 0,-0.15381 -0.10254,-0.36035 0.10254,-0.46289 0.92725,0.10254 0.66992,1.13282 1.23535,1.59571 2.26563,4.52929 1.80274,9.88281 1.85352,15.18408 -1.23535,7.10303 -4.11817,13.48584 -7.05176,19.92041 -2.10986,4.42627 -4.5293,8.75 -7.25732,12.9707 0.0513,0.97754 -0.56592,2.00684 -1.0293,2.9336 0.1543,-0.36036 0.77197,-1.3379 1.23486,-1.85254 0.25782,0.35986 -0.35986,0.66894 -0.20556,1.13183 1.4414,0.10303 1.69873,-1.59521 2.57373,-2.36767 5.25,-9.88282 10.80859,-19.6626 13.22754,-30.72852 0.61816,-0.56641 1.69921,0 2.57421,0 2.0586,0.25684 4.22071,0.35986 6.17676,0.82324 2.57324,-0.51513 0.72071,2.57324 1.59571,3.86084 0.82421,3.96289 1.23535,8.0293 3.24316,11.47754 -0.56641,4.2207 -1.33887,8.33887 -1.75098,12.61133 0.10352,0.1543 0.36035,0.72021 0.61817,0.35937 0.15429,-0.10253 0.15429,-0.82226 0.51465,-0.35937 l 0.10253,0.10254 c 0.0518,-1.23486 0.30957,-2.36817 0.77247,-3.44873 0.97753,-5.19824 1.28613,-11.22022 6.63964,-14.10303 l 0.875,-0.82324 c -0.41113,0.41113 -1.13183,0.20557 -1.5957,0.4624 -1.69824,1.18408 -2.93359,2.98584 -4.58105,4.0669 -2.47071,-4.01514 -3.39649,-8.64747 -3.44825,-13.69141 0.61719,-0.61816 1.33789,0.10254 2.11036,-0.10352 1.69824,-0.10254 4.0664,0.77246 5.40429,-0.61718 -0.875,-4.16993 0.10352,-8.44239 0.1543,-12.61133 l 0.97851,-12.86817 c 1.08106,-1.64648 2.36719,-3.85937 4.6836,-3.80859 1.5957,-0.25684 2.36816,1.13232 3.1914,2.21387 2.00782,5.81592 3.86036,11.68359 6.94922,17.03711 6.53614,6.6914 7.35938,16.31689 6.89649,25.68408 0.41211,2.47119 0.41211,4.68408 0.77246,7.20654 0.7207,0.10254 0.36035,0.92676 0.97754,1.23487 l 0.25781,-0.25635 c -0.51465,-6.22852 -1.18457,-12.86865 -0.41211,-19.14844 -0.20605,-3.75732 -1.75,-7.30908 -3.44824,-10.6543 -0.97754,-1.80175 -3.24317,-3.44922 -3.96387,-5.40478 -1.38965,-1.33887 -1.08008,-2.16162 -2.21289,-3.70606 -0.97851,-2.3164 -1.54492,-4.78711 -2.31641,-7.15478 l 0.10352,-0.77246 8.13281,-8.13233 19.04395,-19.66162 c 2.41894,-2.00781 3.96387,-4.89062 6.89746,-6.17773 2.72754,-0.3086 5.35254,-0.77149 7.92676,-1.49219 l 0,-1.33789 c -4.42676,1.54394 -10.50098,0.0508 -13.22852,5.19824 l -26.19922,26.91992 c -1.02929,0.77246 -1.80176,2.41944 -3.1914,2.98536 -0.92676,-2.0586 -1.64746,-4.6836 -3.96289,-5.71338 -0.87598,-0.20557 -1.75098,-0.56592 -2.72852,-0.61768 0.20605,-0.25732 0.61816,-0.51465 1.03027,-0.61719 3.65332,-3.60351 7.25684,-7.77246 10.60254,-11.58105 0.56543,-1.75049 -3.13965,-2.00781 -0.97754,-3.50098 1.64649,-0.72021 3.91114,0 5.4043,-1.08008 3.86035,-3.75781 7.51465,-7.66992 11.01465,-11.73632 0.20605,0 0.25683,-0.20606 0.51465,-0.1543 0.20605,-0.51465 0.5664,-1.28613 0.10351,-1.85254 -0.92675,-1.08106 -2.62597,-0.92676 -3.96386,-1.33789 2.05859,-2.83203 4.63281,-5.45703 6.17675,-8.54492 0.61817,-1.28711 0.77149,-2.7793 1.38965,-4.06641 4.06641,1.13281 8.85352,0.25684 12.45703,-1.5957 1.95508,-1.44141 4.11719,-3.55176 5.45508,-5.45703 l -0.41211,-0.10157 c -3.19043,3.5 -6.89746,6.84571 -11.73437,7.05176 -1.90528,0.56543 -4.01563,0.0518 -5.76563,-0.51562 l 0.10352,-2.21289 c 2.05761,-2.21387 3.65332,-4.27246 5.55859,-6.53711 l 0.51465,0.46386 c 0.77148,2.41797 1.95605,4.63184 1.85254,7.41211 l 0.36133,0.15332 c -0.0527,-3.08789 -1.18457,-5.66211 -2.36817,-8.28613 1.13282,-3.14062 2.83106,-6.02246 2.83106,-9.62598 0.5664,-9.05957 -4.37598,-16.625 -10.86035,-22.85351 -7.36133,-5.76465 -16.57422,-10.19141 -26.40528,-7.56641 4.16895,-2.88281 9.00684,-6.07324 11.32324,-10.86035 l 0,-0.7207 -1.33789,0 z"
       inkscape:connector-curvature="0" /><path
       id="path20"
       style="fill:#ffffff;fill-opacity:1;fill-rule:nonzero;stroke:none"
       d="m 161.59863,83.10645 5.35352,2.83105 c 1.4414,-0.87598 3.80859,-1.69824 3.91211,-3.80859 -3.08789,-1.18457 -6.48633,-0.10352 -9.26563,0.97754 z"
       inkscape:connector-curvature="0" /><path
       id="path22"
       style="fill:#ffffff;fill-opacity:1;fill-rule:nonzero;stroke:none"
       d="m 143.58398,85.9375 c -3.80957,6.69141 0.66895,13.89746 1.85254,20.53711 3.08887,9.88281 7.66944,19.19922 12.86817,28.25879 2.26465,3.39648 5.76465,6.74219 8.75097,9.41894 l -0.10351,0.10254 c -10.03711,-6.43359 -13.84619,-17.39746 -18.42676,-27.07422 -3.50098,-8.49218 -6.12549,-17.3457 -7.41211,-26.76562 0.36035,-0.61719 0.3086,-1.33789 0.51416,-2.00684 -3.24267,4.58106 -7.87549,8.54395 -10.39697,13.33106 -1.23535,6.74219 0.92676,12.8164 2.57373,18.9414 3.50049,10.34668 7.92627,20.28028 14.36084,29.39063 8.33887,9.67676 19.4043,16.52246 32.58203,14.66992 8.13184,-0.92676 12.04395,-9.4707 17.44922,-14.92676 -6.89844,3.80957 -15.90625,3.03614 -22.59766,-0.61816 3.24317,0.97754 6.74414,2.11035 10.50098,2.36816 6.125,0.36035 12.30176,-1.33789 16.16211,-6.6914 1.13281,-1.64649 1.75,-3.55176 2.36816,-5.45606 -0.51562,-0.36035 -0.5664,-1.13281 -0.51562,-1.4414 -1.23438,0.51464 -1.74903,1.4414 -2.72754,2.3164 -3.29395,3.60254 -8.13281,4.63281 -12.81641,3.70606 7.56641,0.82324 13.58789,-3.91211 17.6543,-9.72852 l 0.97852,-1.38965 c -3.03614,1.23535 -7.66895,2.47071 -11.63282,1.23535 2.36817,-0.30859 4.375,0.1543 6.79492,-0.36035 2.83106,-0.66894 5.66211,-1.64648 7.66895,-4.0664 -3.70605,3.03711 -8.95605,3.91211 -13.69141,3.08886 0,-0.15527 0,-0.30957 -0.15429,-0.36035 5.96972,0.61719 13.17675,-1.23535 16.3164,-7.41211 3.6543,-8.69824 -0.61816,-17.50097 -6.28027,-23.98633 -7.7207,-7.66992 -18.78711,-13.28027 -29.28613,-8.90429 -4.06739,1.80078 -7.00098,6.02148 -7.30957,10.39648 -0.72071,9.83106 4.94043,17.80957 12.50781,23.93457 -0.61817,0.20703 -0.92676,-0.41113 -1.49317,-0.71972 -7.77246,-6.02344 -13.6914,-15.39063 -11.63281,-25.83985 -2.52148,9.67774 2.47071,18.22168 8.90528,24.96485 l -0.10254,0.15429 c -4.01563,-3.39746 -7.30957,-7.875 -9.00782,-12.76562 -1.18457,-4.01465 -2.00781,-8.44141 -0.77343,-12.71289 -2.46973,1.90429 -2.72754,4.99218 -5.66114,6.07324 -3.96386,4.2207 -4.42675,11.32324 -2.4707,16.67676 1.49316,4.32324 4.11816,8.28711 7.25684,11.83886 l -0.35938,0 c -5.14746,-4.99316 -8.33887,-11.01464 -9.00781,-18.01562 -0.36035,-5.4043 1.9043,-9.98535 5.91894,-13.33106 -0.0508,-1.33789 1.49317,-1.95507 1.85352,-3.08789 l 5.30176,-9.16211 c -7.30957,-3.9121 -14.46387,-10.65429 -23.67774,-7.4121 -1.33789,0.66894 -2.67675,1.54394 -3.60254,2.83105 z"
       inkscape:connector-curvature="0" /><path
       id="path24"
       style="fill:#000000;fill-opacity:1;fill-rule:nonzero;stroke:none"
       d="m 67.50781,89.64355 0,0.61719 c 3.96289,0.05176 7.56641,-0.875 10.86035,-2.4707 l 0,-0.35938 c -3.44824,1.13184 -6.89746,2.41895 -10.86035,2.21289 z"
       inkscape:connector-curvature="0" /><path
       id="path26"
       style="fill:#ffffff;fill-opacity:1;fill-rule:nonzero;stroke:none"
       d="m 94.27344,92.73145 c -0.05176,-0.05079 -0.10303,-0.1543 -0.20606,-0.10254 l -0.25781,0.25683 -1.13184,21.36133 c -1.08056,6.07324 -6.74218,11.375 -12.0957,14.30957 0.35986,2.26465 0.35986,4.375 0.51416,6.53711 4.63281,-6.28027 13.02246,-7.41211 20.12549,-6.38379 -0.97803,-1.54394 -0.25684,-3.34473 -0.61719,-5.09473 -1.02929,-10.86132 -2.05908,-21.92675 -3.24316,-32.583 -1.08008,0.41211 -2.0586,1.08203 -3.08789,1.69922 z"
       inkscape:connector-curvature="0" /><path
       id="path28"
       style="fill:#ffffff;fill-opacity:1;fill-rule:nonzero;stroke:none"
       d="m 83.05273,96.79785 -0.10351,0.1543 c 3.60351,2.36816 6.69141,6.17676 8.13281,9.88281 0.1543,-4.27148 0.1543,-8.54394 0.51514,-12.71289 -2.78028,1.08008 -5.61084,2.05762 -8.54444,2.67578 z"
       inkscape:connector-curvature="0" /><path
       id="path30"
       style="fill:#000000;fill-opacity:1;fill-rule:nonzero;stroke:none"
       d="m 69.82422,101.01855 c 3.24267,0.875 6.07422,3.34571 8.28711,6.17676 -0.82324,5.14649 -6.28028,8.80176 -10.60352,10.75782 l 0,0.36035 c 4.63282,-1.54395 9.41944,-5.25 11.11817,-10.14063 1.38965,1.95703 1.85254,4.78809 1.08105,7.15528 -1.5957,4.7871 -6.58887,8.02929 -10.86133,9.88281 4.52979,-1.18457 9.26563,-4.63281 11.37598,-9.11133 1.64697,-3.96289 0.46289,-8.54395 -2.4707,-11.47852 -2.77979,-3.29394 -6.58789,-4.52929 -10.14063,-6.17578 -1.08008,2.00684 1.28711,1.69824 2.21387,2.57324 z"
       inkscape:connector-curvature="0" /><path
       id="path32"
       style="fill:#000000;fill-opacity:1;fill-rule:nonzero;stroke:none"
       d="m 187.69531,102.51074 2.83106,0.25781 c -0.51563,0.10352 -2.0586,-0.7207 -2.83106,-0.25781 z"
       inkscape:connector-curvature="0" /><path
       id="path34"
       style="fill:#000000;fill-opacity:1;fill-rule:nonzero;stroke:none"
       d="m 182.23926,105.3418 c -1.9043,4.06738 0.5664,7.97851 3.08789,10.86133 3.1914,3.13964 7.875,4.94042 12.0957,3.24218 2.00781,-0.97754 2.98633,-3.03613 3.24317,-5.0957 -0.0518,-2.98535 -1.49317,-5.9707 -3.96289,-7.875 2.21289,2.41894 3.91113,5.45605 3.3457,9.00684 -0.46387,1.80273 -1.95606,3.19238 -3.86035,3.44921 l -0.10352,-0.10253 c 1.33789,-0.82325 2.41895,-2.16114 2.4707,-3.70606 0.72071,-3.80859 -2.67675,-7.77246 -5.91894,-9.88281 -2.41895,-1.23438 -5.50781,-1.85254 -8.18457,-1.38965 0.66894,-0.7207 1.75,-0.56641 2.36816,-1.49316 -1.85254,0.25781 -3.55176,1.2871 -4.58105,2.98535 z"
       inkscape:connector-curvature="0" /><path
       id="path36"
       style="fill:#ffffff;fill-opacity:1;fill-rule:nonzero;stroke:none"
       d="m 184.0918,105.85645 c 0.10351,1.03027 -1.44043,0.7207 -1.23535,1.85351 0.25781,1.54492 0.36132,3.19141 1.39062,4.42676 0,-1.64746 -0.20605,-3.50098 1.23438,-4.42676 1.69921,-1.49316 4.68457,-1.18359 6.5371,-0.25781 1.90528,0.87598 3.24317,2.88281 3.70606,4.78711 0.41211,2.3164 -0.92676,4.27246 -2.72754,5.35351 -0.77246,0.10352 -1.64746,0.77149 -2.36719,0.36036 0.71973,0.5664 2.26465,0.92675 3.49903,1.08105 1.80175,-0.20605 3.24316,-1.69922 3.70605,-3.44922 0.56641,-4.27148 -2.41894,-8.08105 -6.07324,-10.13965 -2.26465,-0.97754 -5.71387,-1.95605 -7.66992,0.41114 z"
       inkscape:connector-curvature="0" /><path
       id="path38"
       style="fill:#000000;fill-opacity:1;fill-rule:nonzero;stroke:none"
       d="m 161.23828,107.55566 c -3.75683,6.33106 -1.75,14.77247 2.11035,20.38379 1.33887,1.85254 2.72852,3.85938 4.42774,5.30078 -5.40528,-6.33105 -10.24317,-15.13281 -6.79492,-23.93457 0.36035,-1.02929 1.2871,-1.85351 1.49218,-2.98535 -0.61718,0.10254 -0.82324,0.82324 -1.23535,1.23535 z"
       inkscape:connector-curvature="0" /><path
       id="path40"
       style="fill:#ffffff;fill-opacity:1;fill-rule:nonzero;stroke:none"
       d="m 185.22461,109.76953 c -0.77246,2.36719 0.66894,4.47754 2.4707,5.96973 1.38965,0.92773 2.98535,1.75 4.78711,1.23535 1.1836,-0.0518 1.33789,-1.33789 2.00684,-2.00684 0.51465,-2.36816 -0.36035,-4.58105 -2.36817,-5.91992 -1.33691,-0.77148 -3.03613,-1.54394 -4.68359,-0.875 -0.97754,0.25781 -1.54395,0.92676 -2.21289,1.59668 z"
       inkscape:connector-curvature="0" /><path
       id="path42"
       style="fill:#000000;fill-opacity:1;fill-rule:nonzero;stroke:none"
       d="m 188.93066,110.38672 c -0.10351,1.18359 0.82325,2.05859 1.69922,2.72754 0.56543,0.41308 1.49121,0.25781 2.10938,0.15429 0.5664,-0.5664 0.97754,-1.33789 0.61816,-2.10937 -0.15527,-0.1543 -0.15527,-0.36133 -0.36035,-0.51563 -0.10254,0.36133 0.36035,1.59571 -0.61816,1.75098 -1.13184,0.1543 -2.00684,-0.61816 -2.57325,-1.49316 -0.41211,-0.51465 0.1543,-1.08106 0,-1.49219 -0.5664,0 -0.7207,0.61719 -0.875,0.97754 z"
       inkscape:connector-curvature="0" /><path
       id="path44"
       style="fill:#000000;fill-opacity:1;fill-rule:nonzero;stroke:none"
       d="m 191.24707,110.54102 0,0.25683 0.25684,-0.41113 c -0.0518,0.10254 -0.10254,0.20605 -0.25684,0.1543 z"
       inkscape:connector-curvature="0" /><path
       id="path46"
       style="fill:#ffffff;fill-opacity:1;fill-rule:nonzero;stroke:none"
       d="m 102.71484,124.59277 c -0.30859,1.54395 0.3086,3.03711 1.23487,4.22071 1.80224,1.85351 4.01513,2.77929 6.38281,3.19043 l 26.09619,6.43457 c 0.51514,-0.82325 1.49268,-1.64649 1.08106,-2.72754 -2.47071,-5.04395 -3.96289,-10.5 -5.91895,-15.80176 -5.45605,-0.875 -10.86035,-2.31641 -16.67725,-2.11035 -4.73535,0.7207 -10.08837,1.90332 -12.19873,6.79394 z"
       inkscape:connector-curvature="0" /><path
       id="path48"
       style="fill:#000000;fill-opacity:1;fill-rule:nonzero;stroke:none"
       d="m 107.50195,124.74805 c -0.20605,0.71972 -0.61767,1.69726 -0.10351,2.4707 0.77246,1.64551 2.52246,2.16113 4.0664,2.57324 -1.02929,-0.77246 -4.01464,-1.64746 -3.60302,-3.96386 4.01513,-3.75782 10.14013,-3.8086 14.979,-1.85352 1.08057,0.61816 2.31543,1.54492 2.21289,2.98633 -2.57373,2.98535 -6.43408,3.39648 -10.39746,3.3457 3.96338,0.46289 8.75098,0.20606 11.27246,-3.3457 0.36035,-0.92676 0.36035,-1.80176 0,-2.72852 -3.19141,-4.0664 -9.72851,-3.80859 -14.36084,-2.4707 -1.44092,0.7207 -3.03662,1.38965 -4.06592,2.98633 z"
       inkscape:connector-curvature="0" /><path
       id="path50"
       style="fill:#000000;fill-opacity:1;fill-rule:nonzero;stroke:none"
       d="m 178.07031,125.10742 -0.10351,0.10352 0.10351,0.10254 0.10254,-0.10254 -0.10254,-0.10352 z"
       inkscape:connector-curvature="0" /><path
       id="path52"
       style="fill:#000000;fill-opacity:1;fill-rule:nonzero;stroke:none"
       d="m 183.62891,127.47559 -1.23536,-0.87598 0.82422,0.7207 0.41114,0.15528 z"
       inkscape:connector-curvature="0" /><path
       id="path54"
       style="fill:#000000;fill-opacity:1;fill-rule:nonzero;stroke:none"
       d="m 217.60059,136.32813 0.20605,0 c -0.41211,-3.39649 -1.80176,-6.48536 -3.19141,-9.47071 0.82422,3.24317 2.36719,6.17676 2.98536,9.47071 z"
       inkscape:connector-curvature="0" /><path
       id="path56"
       style="fill:#ffffff;fill-opacity:1;fill-rule:nonzero;stroke:none"
       d="m 81.81689,135.96875 c -0.875,1.9043 -0.1538,4.01367 1.23584,5.45508 0.3086,-0.71973 -0.10351,-1.75 -0.10351,-2.625 -0.1543,-2.36719 1.38965,-4.27149 3.19189,-5.66211 4.6836,-2.98438 11.22022,-3.70508 16.77979,-2.21289 -0.56641,-1.95508 -2.62549,-1.38867 -4.06641,-1.85254 -6.43359,0.0508 -13.53711,0.97754 -17.0376,6.89746 z"
       inkscape:connector-curvature="0" /><path
       id="path58"
       style="fill:#000000;fill-opacity:1;fill-rule:nonzero;stroke:none"
       d="m 114.4502,130.30664 -0.20508,0 0,-0.20605 0.20508,0 0,0.20605 z"
       inkscape:connector-curvature="0" /><path
       id="path60"
       style="fill:#ffffff;fill-opacity:1;fill-rule:nonzero;stroke:none"
       d="m 85.00879,135.09375 c -1.75098,1.64648 -1.59619,4.27148 -0.82422,6.33008 3.24316,4.63379 8.75098,5.30176 14.20606,4.78711 1.03027,-0.3086 2.26464,-0.25684 3.19189,-0.97754 l -0.36084,-1.33887 c -1.59473,2.52246 -4.73535,1.38965 -7.05127,2.21387 -0.66846,-1.08106 -2.10986,-1.33887 -2.72803,-2.36817 0.97852,-0.77148 1.69873,-2.00683 2.625,-2.83007 2.21387,0.46289 5.09571,-1.13282 6.63965,1.38964 -0.97754,-3.24316 -0.46338,-7.5664 1.49317,-10.39746 -5.97071,-1.69921 -12.50782,-0.46386 -17.19141,3.19141 z"
       inkscape:connector-curvature="0" /><path
       id="path62"
       style="fill:#000000;fill-opacity:1;fill-rule:nonzero;stroke:none"
       d="m 194.84961,132.15918 c 0.0518,0.1543 0.25781,0.10352 0.36035,0.10352 -0.0518,-0.1543 -0.20605,-0.10352 -0.36035,-0.10352 z"
       inkscape:connector-curvature="0" /><path
       id="path64"
       style="fill:#ffffff;fill-opacity:1;fill-rule:nonzero;stroke:none"
       d="m 103.33252,134.47559 c -2.52246,6.48535 1.23486,12.45605 2.47021,18.42675 3.96387,12.35352 10.96387,23.41993 19.86866,33.71485 0.30908,0.10254 0.5664,0.56592 0.87451,0.25683 2.26562,-2.16162 4.68457,-3.91211 7.77246,-4.0664 2.57422,0.0518 4.99268,1.18408 7.30908,2.3164 l 0.46338,-5.14746 -0.36035,-0.41162 -0.10303,0.15479 c -2.77881,-2.31641 -6.02197,-4.32422 -8.18408,-7.30909 -0.77148,-0.77246 -1.54395,-1.54443 -1.95557,-2.47119 l 0.10303,-0.10254 c 3.13965,3.34571 6.79395,6.64014 10.5,8.90479 -0.10254,-1.90479 0.7207,-3.70606 0.25732,-5.45606 -7.30908,-6.07373 -12.55908,-14.00048 -11.11767,-23.729 0.82324,-3.3457 2.31641,-6.43359 4.06641,-9.36719 -7.05176,-1.95605 -14.25831,-3.55175 -21.36133,-5.30273 1.90429,8.03027 5.25049,15.18457 9.00781,22.44238 l -0.10254,0.1543 c -3.55176,-4.88965 -5.71387,-10.60352 -7.77246,-16.21289 l -2.11133,-6.53711 c -2.52148,-1.08106 -5.50683,-0.87598 -7.77148,-2.4707 -0.77246,0.46289 -1.44141,1.38964 -1.85303,2.21289 z"
       inkscape:connector-curvature="0" /><path
       id="path66"
       style="fill:#000000;fill-opacity:1;fill-rule:nonzero;stroke:none"
       d="m 196.08496,132.41699 0,-0.15429 -0.36035,0 0,0.15429 0.36035,0 z"
       inkscape:connector-curvature="0" /><path
       id="path68"
       style="fill:#000000;fill-opacity:1;fill-rule:nonzero;stroke:none"
       d="m 195.36426,134.01172 -0.20606,0 0,-0.20508 0.20606,0 0,0.20508 z"
       inkscape:connector-curvature="0" /><path
       id="path70"
       style="fill:#ffffff;fill-opacity:1;fill-rule:nonzero;stroke:none"
       d="m 138.38477,139.05664 c -0.20606,0.61719 1.08105,0.30859 0.25732,0.875 l -0.7207,-0.10254 c -4.06592,4.21973 -7.30909,9.16113 -6.07373,15.54395 1.18457,6.58789 4.83886,12.66259 10.50048,16.78027 0.77247,-1.5957 -0.10253,-3.91211 1.23584,-5.30176 3.60254,0.36035 7.36036,0.97754 11.01465,1.59571 1.95606,-1.75 4.83789,-1.80176 6.2793,-4.32422 0.20605,-0.35938 0.7207,-1.1836 -0.10254,-1.33789 -9.77978,-4.94141 -17.50049,-14.51465 -21.87598,-24.08887 -0.20556,0 -0.35986,0.25781 -0.51464,0.36035 z"
       inkscape:connector-curvature="0" /><path
       id="path72"
       style="fill:#000000;fill-opacity:1;fill-rule:nonzero;stroke:none"
       d="m 203.60059,139.21094 c -3.86133,5.86816 -11.01563,7.15429 -17.39844,6.02246 4.9414,1.54394 10.24219,0.66894 14.30957,-2.11035 1.39062,-1.1836 2.67676,-2.31641 3.3457,-3.91211 l -0.25683,0 z"
       inkscape:connector-curvature="0" /><path
       id="path74"
       style="fill:#000000;fill-opacity:1;fill-rule:nonzero;stroke:none"
       d="m 211.26953,146.46875 c -0.25781,0.97754 -0.10254,2.05859 0.61719,2.72754 0.30957,0.36035 0.72168,0.61816 1.13281,0.7207 -0.61816,-0.66894 -1.85254,-1.49219 -1.38965,-2.57324 3.03711,-3.6543 8.59571,-4.375 12.86817,-3.19141 l 0,-1.49218 c -4.88965,-1.33887 -10.29395,-0.25782 -13.22852,3.80859 z"
       inkscape:connector-curvature="0" /><path
       id="path76"
       style="fill:#ffffff;fill-opacity:1;fill-rule:nonzero;stroke:none"
       d="m 94.68506,143.12305 0,1.85351 4.16943,-0.10351 c 0,-0.875 0.20606,-2.16211 -0.97803,-2.21289 -1.08056,0.10254 -2.41943,-0.30957 -3.1914,0.46289 z"
       inkscape:connector-curvature="0" /><path
       id="path78"
       style="fill:#ffffff;fill-opacity:1;fill-rule:nonzero;stroke:none"
       d="m 92.93555,144.15234 c 0.15381,0.20606 0.51465,0.46289 0.87402,0.46289 l -0.1543,-0.97753 -0.71972,0.51464 z"
       inkscape:connector-curvature="0" /><path
       id="path80"
       style="fill:#000000;fill-opacity:1;fill-rule:nonzero;stroke:none"
       d="m 185.94531,145.13086 0,-0.1543 -0.36035,0 0,0.1543 0.36035,0 z"
       inkscape:connector-curvature="0" /><path
       id="path82"
       style="fill:#ffffff;fill-opacity:1;fill-rule:nonzero;stroke:none"
       d="m 87.63379,160.8291 c -1.90479,2.05957 -4.06641,3.91211 -6.43359,5.04492 0.25683,0.82325 0.51416,1.64649 0.71972,2.46973 7.1543,-5.14648 15.08154,-8.33789 23.47119,-10.39648 -1.02978,-3.55176 -2.26416,-7.05274 -3.29443,-10.60352 -5.30078,1.54395 -10.60254,1.54395 -15.44141,-0.97852 0.3086,4.5293 4.16944,9.83204 0.97852,14.46387 z"
       inkscape:connector-curvature="0" /><path
       id="path84"
       style="fill:#000000;fill-opacity:1;fill-rule:nonzero;stroke:none"
       d="m 214.87305,150.53516 c 3.03711,1.08007 6.6914,0.20507 9.52148,-1.08203 l 0.10352,-0.61719 c -2.83106,1.49316 -6.48535,2.26562 -9.625,1.69922 z"
       inkscape:connector-curvature="0" /><path
       id="path86"
       style="fill:#ffffff;fill-opacity:1;fill-rule:nonzero;stroke:none"
       d="m 197.83496,152.7998 c -4.16894,4.27247 -7.66894,10.70606 -13.48535,12.81641 -0.20606,0.97754 0.36035,1.69873 0.61816,2.36768 1.1836,-0.875 2.67578,-1.08057 4.22071,-1.13233 0.35937,-0.77246 -0.20703,-1.85351 -0.15528,-2.57422 0.72071,0.66993 0.56641,1.95704 0.77246,2.57422 l 0.97852,-0.36035 11.21973,-12.0957 0,-0.77149 c -1.44043,-0.15527 -2.83106,-0.46386 -4.16895,-0.82422 z"
       inkscape:connector-curvature="0" /><path
       id="path88"
       style="fill:#000000;fill-opacity:1;fill-rule:nonzero;stroke:none"
       d="m 123.30322,158.2041 -0.35986,-0.61816 0.15478,0.36133 0.20508,0.25683 z"
       inkscape:connector-curvature="0" /><path
       id="path90"
       style="fill:#ffffff;fill-opacity:1;fill-rule:nonzero;stroke:none"
       d="m 79.96387,171.94727 c -0.97852,1.28711 -1.75,2.93359 -1.23487,4.52978 l 0.61768,1.74951 c 3.03662,-5.30078 8.85352,-8.23535 13.94873,-10.75683 4.42725,-2.31739 9.31641,-3.50098 14.20654,-4.68457 l -1.69922,-3.8086 c -9.47021,2.26465 -18.63232,5.45606 -25.83886,12.97071 z"
       inkscape:connector-curvature="0" /><path
       id="path92"
       style="fill:#ffffff;fill-opacity:1;fill-rule:nonzero;stroke:none"
       d="m 158.92285,167.00586 c -1.18457,0.30908 -2.26465,0.7207 -3.08887,1.69873 1.75,-0.10254 4.16895,1.69824 5.30176,-0.36084 0.3086,-0.77148 0.0508,-1.54297 0.25781,-2.36719 l 1.44043,-1.95605 c -0.10253,-0.3086 -0.66894,-0.56641 -0.97753,-0.10254 -0.77247,1.18359 -1.59571,2.41943 -2.9336,3.08789 z"
       inkscape:connector-curvature="0" /><path
       id="path94"
       style="fill:#ffffff;fill-opacity:1;fill-rule:nonzero;stroke:none"
       d="m 83.66992,174.26318 c -1.90429,1.80225 -4.16943,3.86084 -3.60303,6.6919 0.61768,1.59521 2.47071,1.80176 3.86084,2.31592 3.9629,0.66943 8.23536,0.92675 11.73536,-0.97803 2.11035,-1.0293 4.68359,-0.97754 7.05175,-1.49219 1.54493,-1.5957 2.7793,-3.60303 4.16944,-5.40527 -3.14014,1.18408 -7.82373,3.44873 -11.73584,1.85303 -0.46338,-0.51416 -0.72071,-1.38916 -0.25733,-2.00733 2.72803,-3.55127 7.10303,-4.58105 11.01514,-5.4043 1.38965,-0.20556 3.55127,-0.41211 4.42627,1.08106 l 0,0.1543 c 1.69873,-0.56641 -0.0513,-1.75 -0.10303,-2.625 -1.13281,-1.44141 -1.49267,-3.24317 -2.36767,-4.78711 -8.80127,1.69922 -16.93409,5.0957 -24.1919,10.60302 z"
       inkscape:connector-curvature="0" /><path
       id="path96"
       style="fill:#ffffff;fill-opacity:1;fill-rule:nonzero;stroke:none"
       d="m 161.75293,169.21875 c 2.11035,0.2583 4.58105,0.36084 6.79492,0.87598 0.92578,-1.08106 2.36719,-2.05909 2.9336,-3.34571 -2.57325,-0.82422 -5.30176,-1.28808 -7.77247,-2.47168 -1.95605,1.08204 -0.77148,3.50098 -1.95605,4.94141 z"
       inkscape:connector-curvature="0" /><path
       id="path98"
       style="fill:#000000;fill-opacity:1;fill-rule:nonzero;stroke:none"
       d="m 190.62988,165.87402 0.1543,0 c 0.20508,-0.51464 -0.36133,-0.97754 -0.51563,-1.49316 0,0.56641 0.10352,1.0293 0.36133,1.49316 z"
       inkscape:connector-curvature="0" /><path
       id="path100"
       style="fill:#ffffff;fill-opacity:1;fill-rule:nonzero;stroke:none"
       d="m 179.15137,166.85156 c -0.41211,5.45606 -1.9043,10.55176 -6.28028,14.20606 l -0.15429,1.75 c 4.99316,0.20605 7,-5.50782 10.50097,-8.28711 l 2.72754,-2.83057 c -0.30957,-0.92627 -1.75,-1.13232 -1.95605,-2.11035 0.15429,-1.18408 -0.36035,-2.4707 0,-3.70557 -1.59571,0.3086 -3.14063,0.82325 -4.83789,0.97754 z"
       inkscape:connector-curvature="0" /><path
       id="path102"
       style="fill:#ffffff;fill-opacity:1;fill-rule:nonzero;stroke:none"
       d="m 170.6582,170.71191 c 0.25684,2.72803 1.33789,5.19825 1.85254,7.87549 3.13965,-2.98535 4.375,-7.00049 4.78711,-11.22119 -0.66894,-0.66894 -2.05859,-0.25732 -3.08789,-0.36035 l -3.55176,3.70605 z"
       inkscape:connector-curvature="0" /><path
       id="path104"
       style="fill:#ffffff;fill-opacity:1;fill-rule:nonzero;stroke:none"
       d="m 144.92139,169.06543 c 0.51513,2.00684 0.97802,4.01367 1.64795,5.97021 7.61718,1.13233 15.4414,1.69874 23.05957,2.83057 0.15429,-1.95605 -0.87598,-3.75732 -1.08106,-5.71289 -1.0293,-0.30908 -2.21387,-0.30908 -3.3457,-0.46338 0.0508,1.38916 1.13183,2.83057 0.36035,4.06641 -0.41211,0.0513 -0.56641,-0.51514 -0.875,-0.61768 -1.49316,-0.30859 -3.65527,0.25684 -4.53027,-0.97851 -0.46289,-1.1836 -0.56641,-2.57325 -1.38965,-3.44825 -1.44141,0.20606 -2.57324,-0.46337 -3.96289,-0.41211 0.0518,0.30958 -0.10254,0.7212 0.25683,0.875 -0.20507,0.875 0.56641,1.9043 0.15528,2.72901 -1.75098,0.15381 -3.70606,-0.20654 -5.19873,-0.61817 -0.15479,-0.20654 -0.15479,-0.46337 0.10254,-0.61767 l 0.35986,0 c -0.61719,-1.13281 -0.10254,-3.3457 -1.85254,-3.3457 -1.23535,-0.0518 -2.7793,-0.36036 -3.70654,-0.25684 z"
       inkscape:connector-curvature="0" /><path
       id="path106"
       style="fill:#ffffff;fill-opacity:1;fill-rule:nonzero;stroke:none"
       d="m 150.63477,169.68213 c 0,1.13232 0.41211,2.00781 0.7207,2.98584 0.87598,0.36035 2.16211,0.30859 3.24316,0.51465 0.0518,-0.97754 -0.46338,-2.00782 -0.61767,-2.98535 -1.18311,0 -2.16162,-0.51514 -3.34619,-0.51514 z"
       inkscape:connector-curvature="0" /><path
       id="path108"
       style="fill:#ffffff;fill-opacity:1;fill-rule:nonzero;stroke:none"
       d="m 96.02344,174.88086 c -0.20606,0.46387 -0.82324,0.77246 -0.61817,1.39014 1.23633,0.82373 3.1919,0.41162 4.68457,0.36084 3.5,-0.82422 7.15381,-2.11133 9.41944,-5.19922 0,-0.30908 -0.0518,-0.72071 -0.4126,-0.72071 -4.94043,-0.46337 -9.31641,1.28711 -13.07324,4.16895 z"
       inkscape:connector-curvature="0" /><path
       id="path110"
       style="fill:#ffffff;fill-opacity:1;fill-rule:nonzero;stroke:none"
       d="m 143.48047,186.51367 c 0.56592,1.39014 2.11035,2.00781 2.31641,3.55176 0.25683,-4.27246 0.5664,-8.69824 0.61767,-12.9707 -0.66846,-2.00782 -1.08057,-4.11817 -1.69873,-6.17676 -0.36035,5.4043 -0.97754,10.19092 -1.23535,15.5957 z"
       inkscape:connector-curvature="0" /><path
       id="path112"
       style="fill:#ffffff;fill-opacity:1;fill-rule:nonzero;stroke:none"
       d="m 161.23828,174.00586 c 1.18457,0.1543 2.31641,0.25732 3.44922,0.41211 -0.25781,-1.0293 -0.36133,-2.05859 -0.82422,-2.98535 -1.08008,-0.10254 -2.52148,-0.36035 -3.24316,-0.25782 l 0.61816,2.83106 z"
       inkscape:connector-curvature="0" /><path
       id="path114"
       style="fill:#ffffff;fill-opacity:1;fill-rule:nonzero;stroke:none"
       d="m 97.15576,191.09473 c -3.03711,6.28027 -1.23584,14.30957 3.19092,19.35351 1.49316,1.75 2.41992,4.16895 4.42725,5.19873 5.09521,-5.97021 8.85302,-12.50732 12.14697,-19.25049 1.75,-3.39746 5.30176,-5.40478 7.77246,-8.18359 -5.04395,-4.94189 -8.95606,-10.65527 -12.61133,-16.26562 -4.78613,6.53711 -10.13965,12.55957 -14.92627,19.14746 z"
       inkscape:connector-curvature="0" /><path
       id="path116"
       style="fill:#ffffff;fill-opacity:1;fill-rule:nonzero;stroke:none"
       d="m 77.59668,173.54297 0.1543,0.10254 0.25732,-0.61719 c -0.25732,0.10254 -0.51514,0.1543 -0.41162,0.51465 z"
       inkscape:connector-curvature="0" /><path
       id="path118"
       style="fill:#000000;fill-opacity:1;fill-rule:nonzero;stroke:none"
       d="m 155.67969,173.54297 -0.1543,0 0,-0.20557 0.1543,0 0,0.20557 z"
       inkscape:connector-curvature="0" /><path
       id="path120"
       style="fill:#ffffff;fill-opacity:1;fill-rule:nonzero;stroke:none"
       d="m 146.77441,176.01367 c 0.10352,0.51465 0.30957,0.97754 0.61817,1.33789 7.77246,0.77246 15.28711,1.95606 23.00781,2.72803 0,-0.92627 -0.56543,-1.49219 -1.49219,-1.49219 -7.36035,-0.87549 -14.87597,-1.69873 -22.13379,-2.57373 z"
       inkscape:connector-curvature="0" /><path
       id="path122"
       style="fill:#ffffff;fill-opacity:1;fill-rule:nonzero;stroke:none"
       d="m 147.28906,178.22656 c 0.25782,4.78711 -0.71972,9.93457 -0.35986,14.82422 1.38916,2.31641 3.3457,4.27246 3.55127,6.89746 0.61816,4.01465 0.30957,8.08106 0.77246,11.99268 5.61035,0.61816 11.11816,1.23535 16.93457,1.85303 0.92578,-10.5 1.54395,-21.82422 2.31641,-32.73633 -5.04493,-0.66895 -10.19141,-1.13184 -15.18555,-1.95508 -2.57227,0.20508 -5.19775,-0.92676 -8.0293,-0.87598 z"
       inkscape:connector-curvature="0" /><path
       id="path124"
       style="fill:#ffffff;fill-opacity:1;fill-rule:nonzero;stroke:none"
       d="m 86.50049,194.18359 c -2.57276,9.57325 -0.51416,19.86768 1.49316,29.13282 1.28711,3.55175 4.68408,6.43359 8.2876,7.30859 l 0.61719,-0.15332 c 1.85254,-4.7876 4.47754,-9.26563 7.25781,-13.69238 l 0,-0.35987 c -6.94873,-6.27929 -11.32422,-14.82373 -8.64795,-23.8833 0.82422,-1.49267 1.18408,-3.19092 2.36816,-4.52978 0.51417,-1.85303 1.90381,-3.34522 2.57374,-5.09522 -6.07422,0.56592 -12.09668,5.35254 -13.94971,11.27246 z"
       inkscape:connector-curvature="0" /><path
       id="path126"
       style="fill:#ffffff;fill-opacity:1;fill-rule:nonzero;stroke:none"
       d="m 172.7168,183.78613 0,0.25733 0.77246,-0.36084 c -0.25781,0 -0.56641,-0.10254 -0.77246,0.10351 z"
       inkscape:connector-curvature="0" /><path
       id="path128"
       style="fill:#ffffff;fill-opacity:1;fill-rule:nonzero;stroke:none"
       d="m 123.45801,192.53613 c -1.9043,3.29395 -6.22852,6.74317 -3.34571,10.75782 2.41944,4.83789 7.66944,6.63964 11.73536,9.41943 1.5957,1.08057 3.60351,0.10303 5.04492,-0.61768 2.72754,-2.05957 3.60254,-5.0957 5.19824,-7.66894 1.02979,-3.50098 2.88281,-6.58887 2.4707,-10.65528 0.25782,-2.05908 -0.61718,-4.32324 -2.57324,-5.6621 -3.24316,-2.0586 -7.41211,-4.99317 -11.27246,-2.2129 -2.72852,1.75 -5.09619,4.32325 -7.25781,6.63965 z"
       inkscape:connector-curvature="0" /><path
       id="path130"
       style="fill:#ffffff;fill-opacity:1;fill-rule:nonzero;stroke:none"
       d="m 76.00098,211.32324 c -0.56592,0.56641 -0.41211,1.64746 -0.61768,2.47071 -0.46338,7.82373 0.56592,16.26513 2.4707,23.72851 1.59522,4.11817 5.91846,7.41211 10.24268,7.77246 l 0.77246,-0.10351 c 3.29395,-4.22022 4.42627,-9.31543 7.1543,-13.74219 -3.91211,-1.28711 -7.875,-4.83789 -9.00733,-8.85352 -2.36816,-8.08105 -3.24365,-17.55175 -2.11084,-26.35351 0.51514,-0.61817 0.46338,-1.54444 0.61768,-2.31641 -4.83838,5.19824 -9.52197,10.19092 -9.52197,17.39746 z"
       inkscape:connector-curvature="0" /><path
       id="path132"
       style="fill:#000000;fill-opacity:1;fill-rule:nonzero;stroke:none"
       d="m 121.7085,202.21289 c 3.91113,1.23535 7.87451,4.06641 10.24267,7.87549 -1.85303,-4.22022 -6.27978,-6.48584 -10.24267,-7.87549 z"
       inkscape:connector-curvature="0" /><path
       id="path134"
       style="fill:#000000;fill-opacity:1;fill-rule:nonzero;stroke:none"
       d="m 109.71484,230.625 c 2.67676,1.69922 5.35352,3.34619 8.18409,4.68457 -2.93409,-3.44824 -7.61768,-4.375 -11.01465,-7.56641 l -2.57373,-3.08837 c 0,2.77978 3.39697,4.47802 5.40429,5.97021 z"
       inkscape:connector-curvature="0" /><path
       id="path136"
       style="fill:#000000;fill-opacity:1;fill-rule:nonzero;stroke:none"
       d="m 108.0166,225.06641 c 0.35938,1.13281 1.5957,1.54492 2.4707,2.21338 -0.30908,-0.875 -1.4414,-1.95557 -2.4707,-2.21338 z"
       inkscape:connector-curvature="0" /><text
       id="text138"
       style="font-variant:normal;font-weight:normal;font-size:4px;font-family:Helvetica;-inkscape-font-specification:Helvetica;writing-mode:lr-tb;fill:#000000;fill-opacity:1;fill-rule:nonzero;stroke:none"
       transform="matrix(1,0,0,-1,19.81836,82.01074)"><tspan
         id="tspan140"
         y="0"
         x="0 2 4 5.3319998">ccrw</tspan></text>
</g></svg>