<?xml version="1.0" encoding="UTF-8" standalone="no"?>
<!-- Created with Inkscape (http://www.inkscape.org/) -->

<svg
   xmlns:dc="http://purl.org/dc/elements/1.1/"
   xmlns:cc="http://creativecommons.org/ns#"
   xmlns:rdf="http://www.w3.org/1999/02/22-rdf-syntax-ns#"
   xmlns:svg="http://www.w3.org/2000/svg"
   xmlns="http://www.w3.org/2000/svg"
   xmlns:sodipodi="http://sodipodi.sourceforge.net/DTD/sodipodi-0.dtd"
   xmlns:inkscape="http://www.inkscape.org/namespaces/inkscape"
   id="svg8810"
   version="1.1"
   inkscape:version="0.91 r13725"
   xml:space="preserve"
   width="301.18124"
   height="212.59875"
   viewBox="0 0 301.18124 212.59875"
   sodipodi:docname="ccoj_1.svg"><metadata
     id="metadata8816"><rdf:RDF><cc:Work
         rdf:about=""><dc:format>image/svg+xml</dc:format><dc:type
           rdf:resource="http://purl.org/dc/dcmitype/StillImage" /><dc:title></dc:title></cc:Work></rdf:RDF></metadata><defs
     id="defs8814"><clipPath
       clipPathUnits="userSpaceOnUse"
       id="clipPath8824"><path
         d="m 0,170.079 240.945,0 L 240.945,0 0,0 0,170.079 Z"
         id="path8826"
         inkscape:connector-curvature="0" /></clipPath><clipPath
       clipPathUnits="userSpaceOnUse"
       id="clipPath8832"><path
         d="m 224.44,-0.017 -207.363,0 0,170.096 207.363,0 0,-170.096 z"
         id="path8834"
         inkscape:connector-curvature="0" /></clipPath><clipPath
       clipPathUnits="userSpaceOnUse"
       id="clipPath8898"><path
         d="m 0,170.079 240.945,0 L 240.945,0 0,0 0,170.079 Z"
         id="path8900"
         inkscape:connector-curvature="0" /></clipPath></defs><sodipodi:namedview
     pagecolor="#ffffff"
     bordercolor="#666666"
     borderopacity="1"
     objecttolerance="10"
     gridtolerance="10"
     guidetolerance="10"
     inkscape:pageopacity="0"
     inkscape:pageshadow="2"
     inkscape:window-width="640"
     inkscape:window-height="480"
     id="namedview8812"
     showgrid="false"
     inkscape:zoom="1.4628496"
     inkscape:cx="150.59062"
     inkscape:cy="106.29938"
     inkscape:window-x="0"
     inkscape:window-y="0"
     inkscape:window-maximized="1"
     inkscape:current-layer="g8818" /><g
     id="g8818"
     inkscape:groupmode="layer"
     inkscape:label="ccoj_1"
     transform="matrix(1.25,0,0,-1.25,0,212.59875)"><g
       id="g8820"><g
         id="g8822"
         clip-path="url(#clipPath8824)"><g
           id="g8828"><g
             id="g8830"
             clip-path="url(#clipPath8832)"><path
               d="m 122.936,100.495 -2.322,12.422 c -0.694,3.74 -4.298,6.209 -8.04,5.512 -3.737,-0.695 -6.209,-4.296 -5.512,-8.038 l 2.28,-12.234"
               style="fill:none;stroke:#231f20;stroke-width:0.75;stroke-linecap:round;stroke-linejoin:round;stroke-miterlimit:4;stroke-dasharray:none;stroke-opacity:1"
               id="path8836"
               inkscape:connector-curvature="0" /><path
               d="m 110.971,75.997 -4.083,21.929 18.383,3.422 4.079,-21.927"
               style="fill:none;stroke:#231f20;stroke-width:0.75;stroke-linecap:round;stroke-linejoin:round;stroke-miterlimit:4;stroke-dasharray:none;stroke-opacity:1"
               id="path8838"
               inkscape:connector-curvature="0" /><path
               d="m 129.35,79.421 3.918,-7.682 -23.186,-4.317 0.889,8.575"
               style="fill:none;stroke:#231f20;stroke-width:0.75;stroke-linecap:round;stroke-linejoin:round;stroke-miterlimit:4;stroke-dasharray:none;stroke-opacity:1"
               id="path8840"
               inkscape:connector-curvature="0" /><path
               d="m 131.742,68.529 -19.086,-3.552 -0.525,2.827 19.086,3.554 0.525,-2.829 z"
               style="fill:none;stroke:#231f20;stroke-width:0.75;stroke-linecap:round;stroke-linejoin:round;stroke-miterlimit:4;stroke-dasharray:none;stroke-opacity:1"
               id="path8842"
               inkscape:connector-curvature="0" /><path
               d="m 135.861,63.992 -25.092,-4.67"
               style="fill:none;stroke:#231f20;stroke-width:0.25;stroke-linecap:round;stroke-linejoin:round;stroke-miterlimit:4;stroke-dasharray:none;stroke-opacity:1"
               id="path8844"
               inkscape:connector-curvature="0" /><path
               d="m 110.769,59.322 -2.193,-0.41 -0.953,5.123 29.157,5.437 0.954,-5.128 -1.873,-0.352"
               style="fill:none;stroke:#231f20;stroke-width:0.75;stroke-linecap:round;stroke-linejoin:round;stroke-miterlimit:4;stroke-dasharray:none;stroke-opacity:1"
               id="path8846"
               inkscape:connector-curvature="0" /><path
               d="m 109.455,58.53 -2.393,-4.834 12.723,2.367"
               style="fill:none;stroke:#231f20;stroke-width:0.75;stroke-linecap:round;stroke-linejoin:round;stroke-miterlimit:4;stroke-dasharray:none;stroke-opacity:1"
               id="path8848"
               inkscape:connector-curvature="0" /><path
               d="m 137.734,64.344 2.995,-2.918 -7.491,-1.028"
               style="fill:none;stroke:#231f20;stroke-width:0.75;stroke-linecap:round;stroke-linejoin:round;stroke-miterlimit:4;stroke-dasharray:none;stroke-opacity:1"
               id="path8850"
               inkscape:connector-curvature="0" /><path
               d="m 134,60.275 3.734,4.069"
               style="fill:none;stroke:#231f20;stroke-width:0.25;stroke-linecap:round;stroke-linejoin:round;stroke-miterlimit:4;stroke-dasharray:none;stroke-opacity:1"
               id="path8852"
               inkscape:connector-curvature="0" /><path
               d="m 119.652,56.771 13.43,2.5 0.918,1.004"
               style="fill:none;stroke:#231f20;stroke-width:0.75;stroke-linecap:round;stroke-linejoin:round;stroke-miterlimit:4;stroke-dasharray:none;stroke-opacity:1"
               id="path8854"
               inkscape:connector-curvature="0" /><path
               d="m 110.949,54.417 2.39,4.835 6.313,-2.481"
               style="fill:none;stroke:#231f20;stroke-width:0.25;stroke-linecap:round;stroke-linejoin:round;stroke-miterlimit:4;stroke-dasharray:none;stroke-opacity:1"
               id="path8856"
               inkscape:connector-curvature="0" /><path
               d="m 110.971,75.997 18.379,3.424"
               style="fill:none;stroke:#231f20;stroke-width:0.25;stroke-linecap:round;stroke-linejoin:round;stroke-miterlimit:4;stroke-dasharray:none;stroke-opacity:1"
               id="path8858"
               inkscape:connector-curvature="0" /><path
               d="m 184.725,13.676 c 0,0 -4.678,3.521 -9.174,9.995 -4.5,6.475 -25.664,16.064 -33.233,19.407 -7.568,3.34 -16.423,5.708 -23.697,-0.393 -7.273,-6.11 -1.913,-18.478 4.848,-27.986 1.909,-2.684 9.48,-13.844 9.48,-13.844 l 2.119,-3.121"
               style="fill:none;stroke:#231f20;stroke-width:0.75;stroke-linecap:round;stroke-linejoin:round;stroke-miterlimit:4;stroke-dasharray:none;stroke-opacity:1"
               id="path8860"
               inkscape:connector-curvature="0" /><path
               d="m 132.343,45.602 c 0,0 5.423,-5.567 6.813,-7.136 1.741,-1.506 2.334,-4.684 0.41,-6.14 -1.923,-1.459 -8.605,-10.745 -9.136,-13.768 -0.535,-3.027 -2.589,-3.778 -4.819,-1.629 -2.224,2.147 -9.017,11.116 -10.475,13.04"
               style="fill:none;stroke:#231f20;stroke-width:0.25;stroke-linecap:round;stroke-linejoin:round;stroke-miterlimit:4;stroke-dasharray:none;stroke-opacity:1"
               id="path8862"
               inkscape:connector-curvature="0" /><path
               d="m 129.107,55.916 c 2.632,1.653 5.297,3.086 7.578,3.661 5.588,1.409 11.879,2.944 20.167,5.585 8.285,2.643 13.076,2.438 18.549,0.533 5.477,-1.906 39.849,-14.827 50.712,-20.12"
               style="fill:none;stroke:#231f20;stroke-width:0.75;stroke-linecap:round;stroke-linejoin:round;stroke-miterlimit:4;stroke-dasharray:none;stroke-opacity:1"
               id="path8864"
               inkscape:connector-curvature="0" /><path
               d="m 122.803,51.683 c 0.907,0.623 1.879,1.295 2.885,1.982"
               style="fill:none;stroke:#231f20;stroke-width:0.75;stroke-linecap:round;stroke-linejoin:round;stroke-miterlimit:4;stroke-dasharray:none;stroke-opacity:1"
               id="path8866"
               inkscape:connector-curvature="0" /><path
               d="m 114.347,34.212 c -2.111,5.454 0.882,12.956 4.858,15.16 0.304,0.171 0.632,0.369 0.991,0.584"
               style="fill:none;stroke:#231f20;stroke-width:0.75;stroke-linecap:round;stroke-linejoin:round;stroke-miterlimit:4;stroke-dasharray:none;stroke-opacity:1"
               id="path8868"
               inkscape:connector-curvature="0" /><path
               d="m 139.01,64.765 c 3.117,0.945 11.085,1.334 15.039,1.706 3.951,0.368 7.423,1.384 10.801,0.913"
               style="fill:none;stroke:#231f20;stroke-width:0.75;stroke-linecap:round;stroke-linejoin:round;stroke-miterlimit:4;stroke-dasharray:none;stroke-opacity:1"
               id="path8870"
               inkscape:connector-curvature="0" /><path
               d="m 158.164,36.521 c 5.172,1.694 7.994,2.221 10.238,11.781"
               style="fill:none;stroke:#231f20;stroke-width:0.75;stroke-linecap:round;stroke-linejoin:round;stroke-miterlimit:4;stroke-dasharray:none;stroke-opacity:1"
               id="path8872"
               inkscape:connector-curvature="0" /><path
               d="m 161.921,37.953 4.659,0.505 c 0,0 -1.021,-2.387 4.233,-5.062 5.253,-2.678 8.06,-3.987 12.143,-4.321"
               style="fill:none;stroke:#231f20;stroke-width:0.75;stroke-linecap:round;stroke-linejoin:round;stroke-miterlimit:4;stroke-dasharray:none;stroke-opacity:1"
               id="path8874"
               inkscape:connector-curvature="0" /><path
               d="m 149.572,53.203 c 0.608,-7.197 -1.78,-12.031 -1.78,-12.031"
               style="fill:none;stroke:#231f20;stroke-width:0.25;stroke-linecap:round;stroke-linejoin:round;stroke-miterlimit:4;stroke-dasharray:none;stroke-opacity:1"
               id="path8876"
               inkscape:connector-curvature="0" /><path
               d="m 167.642,38.651 c 2.407,0.815 4.771,3.816 4.771,3.816"
               style="fill:none;stroke:#231f20;stroke-width:0.25;stroke-linecap:round;stroke-linejoin:round;stroke-miterlimit:4;stroke-dasharray:none;stroke-opacity:1"
               id="path8878"
               inkscape:connector-curvature="0" /><path
               d="m 203.598,43.884 c -4.974,-2.751 -10.874,-6.408 -13.393,-10.535 -2.525,-4.126 -6.505,-6.333 -6.505,-6.333 0,0 -1.618,-5.053 3.544,-9.21"
               style="fill:none;stroke:#231f20;stroke-width:0.25;stroke-linecap:round;stroke-linejoin:round;stroke-miterlimit:4;stroke-dasharray:none;stroke-opacity:1"
               id="path8880"
               inkscape:connector-curvature="0" /><path
               d="m 183.7,27.016 c 0,0 -1.915,-1.454 -2.982,-1.653 -1.06,-0.197 0.663,-3.533 -1.261,-4.989"
               style="fill:none;stroke:#231f20;stroke-width:0.25;stroke-linecap:round;stroke-linejoin:round;stroke-miterlimit:4;stroke-dasharray:none;stroke-opacity:1"
               id="path8882"
               inkscape:connector-curvature="0" /><path
               d="m 180.718,25.363 c 0,0 -9.515,0.057 -18.112,10.888"
               style="fill:none;stroke:#231f20;stroke-width:0.25;stroke-linecap:round;stroke-linejoin:round;stroke-miterlimit:4;stroke-dasharray:none;stroke-opacity:1"
               id="path8884"
               inkscape:connector-curvature="0" /><path
               d="m 119.371,55.622 1.785,-11.257"
               style="fill:none;stroke:#231f20;stroke-width:0.75;stroke-linecap:round;stroke-linejoin:round;stroke-miterlimit:4;stroke-dasharray:none;stroke-opacity:1"
               id="path8886"
               inkscape:connector-curvature="0" /><path
               d="m 121.912,56.824 1.783,-11.255"
               style="fill:none;stroke:#231f20;stroke-width:0.75;stroke-linecap:round;stroke-linejoin:round;stroke-miterlimit:4;stroke-dasharray:none;stroke-opacity:1"
               id="path8888"
               inkscape:connector-curvature="0" /><path
               d="M 126.673,57.604 124.26,46.458"
               style="fill:none;stroke:#231f20;stroke-width:0.75;stroke-linecap:round;stroke-linejoin:round;stroke-miterlimit:4;stroke-dasharray:none;stroke-opacity:1"
               id="path8890"
               inkscape:connector-curvature="0" /><path
               d="M 129.436,58.174 127.029,47.027"
               style="fill:none;stroke:#231f20;stroke-width:0.75;stroke-linecap:round;stroke-linejoin:round;stroke-miterlimit:4;stroke-dasharray:none;stroke-opacity:1"
               id="path8892"
               inkscape:connector-curvature="0" /></g></g></g></g><g
       id="g8894"><g
         id="g8896"
         clip-path="url(#clipPath8898)"><path
           d="m 113.937,108.676 -41.088,0.3"
           style="fill:none;stroke:#ffffff;stroke-width:3;stroke-linecap:round;stroke-linejoin:round;stroke-miterlimit:4;stroke-dasharray:none;stroke-opacity:1"
           id="path8902"
           inkscape:connector-curvature="0" /><path
           d="m 113.814,107.443 c 0.681,0 1.234,0.552 1.234,1.233 0,0.682 -0.553,1.234 -1.234,1.234 -0.68,0 -1.233,-0.552 -1.233,-1.234 0,-0.681 0.553,-1.233 1.233,-1.233"
           style="fill:#231f20;fill-opacity:1;fill-rule:nonzero;stroke:none"
           id="path8904"
           inkscape:connector-curvature="0" /><path
           d="m 113.814,107.443 c 0.681,0 1.234,0.552 1.234,1.233 0,0.682 -0.553,1.234 -1.234,1.234 -0.68,0 -1.233,-0.552 -1.233,-1.234 0,-0.681 0.553,-1.233 1.233,-1.233 z"
           style="fill:none;stroke:#ffffff;stroke-width:1;stroke-linecap:butt;stroke-linejoin:miter;stroke-miterlimit:4;stroke-dasharray:none;stroke-opacity:1"
           id="path8906"
           inkscape:connector-curvature="0" /><path
           d="m 113.937,108.676 -41.088,0.3"
           style="fill:none;stroke:#231f20;stroke-width:0.5;stroke-linecap:round;stroke-linejoin:round;stroke-miterlimit:4;stroke-dasharray:none;stroke-opacity:1"
           id="path8908"
           inkscape:connector-curvature="0" /><path
           d="m 113.437,89.676 -31,-23.5"
           style="fill:none;stroke:#ffffff;stroke-width:3;stroke-linecap:round;stroke-linejoin:round;stroke-miterlimit:4;stroke-dasharray:none;stroke-opacity:1"
           id="path8910"
           inkscape:connector-curvature="0" /><path
           d="m 113.314,88.443 c 0.681,0 1.234,0.551 1.234,1.233 0,0.681 -0.553,1.234 -1.234,1.234 -0.68,0 -1.233,-0.553 -1.233,-1.234 0,-0.682 0.553,-1.233 1.233,-1.233"
           style="fill:#231f20;fill-opacity:1;fill-rule:nonzero;stroke:none"
           id="path8912"
           inkscape:connector-curvature="0" /><path
           d="m 113.314,88.443 c 0.681,0 1.234,0.551 1.234,1.233 0,0.681 -0.553,1.234 -1.234,1.234 -0.68,0 -1.233,-0.553 -1.233,-1.234 0,-0.682 0.553,-1.233 1.233,-1.233 z"
           style="fill:none;stroke:#ffffff;stroke-width:1;stroke-linecap:butt;stroke-linejoin:miter;stroke-miterlimit:4;stroke-dasharray:none;stroke-opacity:1"
           id="path8914"
           inkscape:connector-curvature="0" /><path
           d="m 113.437,89.676 -31,-23.5"
           style="fill:none;stroke:#231f20;stroke-width:0.5;stroke-linecap:round;stroke-linejoin:round;stroke-miterlimit:4;stroke-dasharray:none;stroke-opacity:1"
           id="path8916"
           inkscape:connector-curvature="0" /><text
           transform="matrix(1,0,0,-0.9983278,1.9727,2.2596)"
           style="font-variant:normal;font-weight:normal;font-stretch:normal;font-size:4.00670004px;font-family:Arial;-inkscape-font-specification:ArialMT;writing-mode:lr-tb;fill:#231f20;fill-opacity:1;fill-rule:nonzero;stroke:none"
           id="text8918"><tspan
             x="0 2.00335 4.0067 6.2344251"
             y="0"
             sodipodi:role="line"
             id="tspan8920">ccoj</tspan></text>
<text
           transform="matrix(1,0,0,-0.99834275,75.6328,61.2266)"
           style="font-variant:normal;font-weight:bold;font-stretch:normal;font-size:10.01659966px;font-family:Helvetica;-inkscape-font-specification:Helvetica-Bold;writing-mode:lr-tb;fill:#231f20;fill-opacity:1;fill-rule:nonzero;stroke:none"
           id="text8922"><tspan
             x="0"
             y="0"
             id="tspan8924">1</tspan></text>
<text
           transform="matrix(1,0,0,-0.99834275,65.0449,105.5264)"
           style="font-variant:normal;font-weight:bold;font-stretch:normal;font-size:10.01659966px;font-family:Helvetica;-inkscape-font-specification:Helvetica-Bold;writing-mode:lr-tb;fill:#231f20;fill-opacity:1;fill-rule:nonzero;stroke:none"
           id="text8926"><tspan
             x="0"
             y="0"
             id="tspan8928">2</tspan></text>
</g></g></g></svg>