<?xml version="1.0" encoding="UTF-8" standalone="no"?>
<!-- Created with Inkscape (http://www.inkscape.org/) -->

<svg
   xmlns:dc="http://purl.org/dc/elements/1.1/"
   xmlns:cc="http://creativecommons.org/ns#"
   xmlns:rdf="http://www.w3.org/1999/02/22-rdf-syntax-ns#"
   xmlns:svg="http://www.w3.org/2000/svg"
   xmlns="http://www.w3.org/2000/svg"
   xmlns:sodipodi="http://sodipodi.sourceforge.net/DTD/sodipodi-0.dtd"
   xmlns:inkscape="http://www.inkscape.org/namespaces/inkscape"
   id="svg3336"
   version="1.1"
   inkscape:version="0.91 r13725"
   xml:space="preserve"
   width="301.18124"
   height="230.315"
   viewBox="0 0 301.18124 230.315"
   sodipodi:docname="MK_headlight_screw.svg"><metadata
     id="metadata3342"><rdf:RDF><cc:Work
         rdf:about=""><dc:format>image/svg+xml</dc:format><dc:type
           rdf:resource="http://purl.org/dc/dcmitype/StillImage" /><dc:title></dc:title></cc:Work></rdf:RDF></metadata><defs
     id="defs3340"><clipPath
       clipPathUnits="userSpaceOnUse"
       id="clipPath3350"><path
         d="m 0,184.252 240.945,0 L 240.945,0 0,0 0,184.252 Z"
         id="path3352"
         inkscape:connector-curvature="0" /></clipPath><clipPath
       clipPathUnits="userSpaceOnUse"
       id="clipPath3488"><path
         d="m 0,184.252 240.945,0 L 240.945,0 0,0 0,184.252 Z"
         id="path3490"
         inkscape:connector-curvature="0" /></clipPath><clipPath
       clipPathUnits="userSpaceOnUse"
       id="clipPath3510"><path
         d="m 0,184.252 240.945,0 L 240.945,0 0,0 0,184.252 Z"
         id="path3512"
         inkscape:connector-curvature="0" /></clipPath></defs><sodipodi:namedview
     pagecolor="#ffffff"
     bordercolor="#666666"
     borderopacity="1"
     objecttolerance="10"
     gridtolerance="10"
     guidetolerance="10"
     inkscape:pageopacity="0"
     inkscape:pageshadow="2"
     inkscape:window-width="640"
     inkscape:window-height="480"
     id="namedview3338"
     showgrid="false"
     inkscape:zoom="4.2072813"
     inkscape:cx="150.59062"
     inkscape:cy="115.1575"
     inkscape:window-x="0"
     inkscape:window-y="0"
     inkscape:window-maximized="1"
     inkscape:current-layer="g3344" /><g
     id="g3344"
     inkscape:groupmode="layer"
     inkscape:label="MK_headlight_screw"
     transform="matrix(1.25,0,0,-1.25,0,230.315)"><g
       id="g3346"><g
         id="g3348"
         clip-path="url(#clipPath3350)"><g
           id="g3354"
           transform="translate(124.6465,182.5083)"><path
             d="m 0,0 c -1.853,-13.319 -2.591,-26.781 -2.328,-39.027 1.186,-72.307 31.457,-130.447 67.612,-129.854"
             style="fill:none;stroke:#231f20;stroke-width:0.50999999;stroke-linecap:round;stroke-linejoin:miter;stroke-miterlimit:4;stroke-dasharray:none;stroke-opacity:1"
             id="path3356"
             inkscape:connector-curvature="0" /></g><g
           id="g3358"
           transform="translate(132.8945,182.5166)"><path
             d="M 0,0 C -1.84,-13.277 -2.574,-26.696 -2.312,-38.9 -1.125,-111.208 29.145,-169.348 65.3,-168.753"
             style="fill:none;stroke:#231f20;stroke-width:0.50999999;stroke-linecap:round;stroke-linejoin:miter;stroke-miterlimit:4;stroke-dasharray:none;stroke-opacity:1"
             id="path3360"
             inkscape:connector-curvature="0" /></g><g
           id="g3362"
           transform="translate(198.1943,13.7637)"><path
             d="M 0,0 C 10.307,0.168 19.979,5.091 28.133,13.372"
             style="fill:none;stroke:#231f20;stroke-width:1.13399994;stroke-linecap:round;stroke-linejoin:miter;stroke-miterlimit:4;stroke-dasharray:none;stroke-opacity:1"
             id="path3364"
             inkscape:connector-curvature="0" /></g><g
           id="g3366"
           transform="translate(151.3984,51.6084)"><path
             d="m 0,0 c 13.165,-25.284 30.074,-37.317 46.783,-37.044 l 0.027,-1.604 C 30.008,-38.924 12.991,-25.94 -0.246,-0.516 L 0,0"
             style="fill:#231f20;fill-opacity:1;fill-rule:nonzero;stroke:none"
             id="path3368"
             inkscape:connector-curvature="0" /></g><g
           id="g3370"
           transform="translate(189.9229,13.627)"><path
             d="M 0,0 8.264,0.134"
             style="fill:none;stroke:#231f20;stroke-width:1.13399994;stroke-linecap:round;stroke-linejoin:miter;stroke-miterlimit:4;stroke-dasharray:none;stroke-opacity:1"
             id="path3372"
             inkscape:connector-curvature="0" /></g><g
           id="g3374"
           transform="translate(119.166,182.522)"><path
             d="m 0,0 c -4.891,-38.503 -0.285,-76.836 8.527,-109.713 2.692,-10.039 8.548,-22.626 8.548,-22.626 14.471,-31.445 34.194,-47.341 53.863,-47.085"
             style="fill:none;stroke:#231f20;stroke-width:0.50999999;stroke-linecap:round;stroke-linejoin:miter;stroke-miterlimit:4;stroke-dasharray:none;stroke-opacity:1"
             id="path3376"
             inkscape:connector-curvature="0" /></g><g
           id="g3378"
           transform="translate(190.1035,3.0977)"><path
             d="M 0,0 C 13.503,0.221 25.997,7.996 36.211,20.944"
             style="fill:none;stroke:#231f20;stroke-width:1.13399994;stroke-linecap:round;stroke-linejoin:miter;stroke-miterlimit:4;stroke-dasharray:none;stroke-opacity:1"
             id="path3380"
             inkscape:connector-curvature="0" /></g><g
           id="g3382"
           transform="translate(139.5352,43.9658)"><path
             d="m 0,0 c 14.227,-27.324 32.499,-40.362 50.555,-40.067 l 0.026,-1.605 C 32.434,-41.969 14.053,-27.98 -0.249,-0.515 L 0,0"
             style="fill:#231f20;fill-opacity:1;fill-rule:nonzero;stroke:none"
             id="path3384"
             inkscape:connector-curvature="0" /></g><g
           id="g3386"
           transform="translate(82.6465,182.522)"><path
             d="M 0,0 C -1.82,-13.583 -2.542,-27.287 -2.275,-39.726 -1.07,-113.154 28.7,-172.664 65.167,-175.942"
             style="fill:none;stroke:#231f20;stroke-width:1.13399994;stroke-linecap:round;stroke-linejoin:miter;stroke-miterlimit:4;stroke-dasharray:none;stroke-opacity:1"
             id="path3388"
             inkscape:connector-curvature="0" /></g><g
           id="g3390"
           transform="translate(186.4434,3.2256)"><path
             d="M 0,0 -38.639,3.354"
             style="fill:none;stroke:#231f20;stroke-width:1.13399994;stroke-linecap:round;stroke-linejoin:miter;stroke-miterlimit:4;stroke-dasharray:none;stroke-opacity:1"
             id="path3392"
             inkscape:connector-curvature="0" /></g><g
           id="g3394"
           transform="translate(29.5146,182.4224)"><path
             d="m 0,0 c -2.79,-9.171 -4.281,-16.766 -4.949,-21.302 -0.182,-1.228 -0.344,-2.467 -0.518,-3.717 -5.032,-36.204 15.529,-70.023 15.529,-70.023 0.468,-0.837 0.949,-1.682 1.443,-2.538 19.723,-34.135 60.627,-60.741 93.296,-74.483"
             style="fill:none;stroke:#231f20;stroke-width:1.13399994;stroke-linecap:round;stroke-linejoin:miter;stroke-miterlimit:4;stroke-dasharray:none;stroke-opacity:1"
             id="path3396"
             inkscape:connector-curvature="0" /></g><g
           id="g3398"
           transform="translate(139.0859,182.5215)"><path
             d="m 0,0 c -1.956,-13.197 -2.743,-26.583 -2.479,-38.807 1.12,-68.271 29.702,-123.167 63.837,-122.605 9.457,0.154 18.347,4.551 25.869,11.949"
             style="fill:none;stroke:#231f20;stroke-width:0.50999999;stroke-linecap:round;stroke-linejoin:miter;stroke-miterlimit:4;stroke-dasharray:none;stroke-opacity:1"
             id="path3400"
             inkscape:connector-curvature="0" /></g><g
           id="g3402"
           transform="translate(150.2871,89.4688)"><path
             d="M 0,0 C 2.247,29.884 1.96,63.465 -0.323,93.058"
             style="fill:none;stroke:#231f20;stroke-width:0.50999999;stroke-linecap:round;stroke-linejoin:miter;stroke-miterlimit:4;stroke-dasharray:none;stroke-opacity:1"
             id="path3404"
             inkscape:connector-curvature="0" /></g><g
           id="g3406"
           transform="translate(157.8086,69.1406)"><path
             d="M 0,0 C 4.194,32.542 4.62,75.496 1.744,113.376"
             style="fill:none;stroke:#231f20;stroke-width:0.50999999;stroke-linecap:round;stroke-linejoin:miter;stroke-miterlimit:4;stroke-dasharray:none;stroke-opacity:1"
             id="path3408"
             inkscape:connector-curvature="0" /></g><g
           id="g3410"
           transform="translate(165.2129,55.3428)"><path
             d="M 0,0 C 5.985,31.983 7.297,82.506 3.925,127.171"
             style="fill:none;stroke:#231f20;stroke-width:0.50999999;stroke-linecap:round;stroke-linejoin:miter;stroke-miterlimit:4;stroke-dasharray:none;stroke-opacity:1"
             id="path3412"
             inkscape:connector-curvature="0" /></g><g
           id="g3414"
           transform="translate(172.1445,43.833)"><path
             d="M 0,0 C 7.938,28.682 10.497,86.821 6.581,138.686"
             style="fill:none;stroke:#231f20;stroke-width:0.50999999;stroke-linecap:round;stroke-linejoin:miter;stroke-miterlimit:4;stroke-dasharray:none;stroke-opacity:1"
             id="path3416"
             inkscape:connector-curvature="0" /></g><g
           id="g3418"
           transform="translate(145.2471,182.5195)"><path
             d="m 0,0 c -2.083,-13.106 -2.927,-26.46 -2.663,-38.707 1.056,-64.393 28.014,-116.166 60.211,-115.64 8.58,0.143 16.664,3.984 23.53,10.457"
             style="fill:none;stroke:#231f20;stroke-width:0.50999999;stroke-linecap:round;stroke-linejoin:miter;stroke-miterlimit:4;stroke-dasharray:none;stroke-opacity:1"
             id="path3420"
             inkscape:connector-curvature="0" /></g><g
           id="g3422"
           transform="translate(104.127,33.4971)"><path
             d="m 0,0 c 0.558,0.903 -1.82,3.382 -5.31,5.538 -3.49,2.153 -6.773,3.169 -7.331,2.266"
             style="fill:none;stroke:#231f20;stroke-width:0.50999999;stroke-linecap:round;stroke-linejoin:miter;stroke-miterlimit:4;stroke-dasharray:none;stroke-opacity:1"
             id="path3424"
             inkscape:connector-curvature="0" /></g><g
           id="g3426"
           transform="translate(98.1133,42.5371)"><path
             d="M 0,0 C -2.739,1.368 -4.758,1.751 -5.198,1.076"
             style="fill:none;stroke:#231f20;stroke-width:0.50999999;stroke-linecap:round;stroke-linejoin:miter;stroke-miterlimit:4;stroke-dasharray:none;stroke-opacity:1"
             id="path3428"
             inkscape:connector-curvature="0" /></g><g
           id="g3430"
           transform="translate(105.5547,35.8105)"><path
             d="M 0,0 -1.428,-2.313"
             style="fill:none;stroke:#231f20;stroke-width:1.13399994;stroke-linecap:round;stroke-linejoin:miter;stroke-miterlimit:4;stroke-dasharray:none;stroke-opacity:1"
             id="path3432"
             inkscape:connector-curvature="0" /></g><g
           id="g3434"
           transform="translate(92.9141,43.6123)"><path
             d="M 0,0 -1.428,-2.313"
             style="fill:none;stroke:#231f20;stroke-width:1.13399994;stroke-linecap:round;stroke-linejoin:miter;stroke-miterlimit:4;stroke-dasharray:none;stroke-opacity:1"
             id="path3436"
             inkscape:connector-curvature="0" /></g><g
           id="g3438"
           transform="translate(91.4863,41.3008)"><path
             d="m 0,0 c -0.665,-1.08 1.625,-3.7 5.115,-5.855 3.49,-2.155 6.859,-3.029 7.526,-1.949"
             style="fill:none;stroke:#231f20;stroke-width:1.13399994;stroke-linecap:round;stroke-linejoin:miter;stroke-miterlimit:4;stroke-dasharray:none;stroke-opacity:1"
             id="path3440"
             inkscape:connector-curvature="0" /></g><g
           id="g3442"
           transform="translate(105.8271,31.7754)"><path
             d="M 0,0 C 0.954,0.307 1.468,0.632 1.499,1.199"
             style="fill:none;stroke:#231f20;stroke-width:0.50999999;stroke-linecap:round;stroke-linejoin:miter;stroke-miterlimit:4;stroke-dasharray:none;stroke-opacity:1"
             id="path3444"
             inkscape:connector-curvature="0" /></g><g
           id="g3446"
           transform="translate(107.3257,32.9746)"><path
             d="M 0,0 C 0.017,0.311 -0.106,0.689 -0.377,1.179 -1.15,2.569 -14.104,15.721 -16.776,11.971"
             style="fill:none;stroke:#231f20;stroke-width:1.13399994;stroke-linecap:round;stroke-linejoin:miter;stroke-miterlimit:4;stroke-dasharray:none;stroke-opacity:1"
             id="path3448"
             inkscape:connector-curvature="0" /></g><g
           id="g3450"
           transform="translate(179.5664,37.3418)"><path
             d="M 0,0 C 9.371,24.439 13.09,87.825 8.745,145.167"
             style="fill:none;stroke:#231f20;stroke-width:0.50999999;stroke-linecap:round;stroke-linejoin:miter;stroke-miterlimit:4;stroke-dasharray:none;stroke-opacity:1"
             id="path3452"
             inkscape:connector-curvature="0" /></g><g
           id="g3454"
           transform="translate(186.835,32.5205)"><path
             d="m 0,0 c 8.57,14.846 13.558,61.112 12.774,112.229 -0.22,13.533 -0.836,26.521 -1.712,37.777"
             style="fill:none;stroke:#231f20;stroke-width:0.50999999;stroke-linecap:round;stroke-linejoin:miter;stroke-miterlimit:4;stroke-dasharray:none;stroke-opacity:1"
             id="path3456"
             inkscape:connector-curvature="0" /></g><g
           id="g3458"
           transform="translate(193.9082,29.3867)"><path
             d="m 0,0 c 9.832,9.005 16.169,58.505 15.277,115.519 -0.22,13.474 -0.831,26.407 -1.701,37.618"
             style="fill:none;stroke:#231f20;stroke-width:0.50999999;stroke-linecap:round;stroke-linejoin:miter;stroke-miterlimit:4;stroke-dasharray:none;stroke-opacity:1"
             id="path3460"
             inkscape:connector-curvature="0" /></g><g
           id="g3462"
           transform="translate(201.2041,28.2363)"><path
             d="m 0,0 c 10.859,2.6 18.567,54.349 17.557,116.827 -0.22,13.411 -0.828,26.287 -1.691,37.451"
             style="fill:none;stroke:#231f20;stroke-width:0.50999999;stroke-linecap:round;stroke-linejoin:miter;stroke-miterlimit:4;stroke-dasharray:none;stroke-opacity:1"
             id="path3464"
             inkscape:connector-curvature="0" /></g><g
           id="g3466"
           transform="translate(213.79,30.4551)"><path
             d="M 0,0 C 5.678,6.502 10.081,26.566 12.528,53.432"
             style="fill:none;stroke:#231f20;stroke-width:0.50999999;stroke-linecap:round;stroke-linejoin:miter;stroke-miterlimit:4;stroke-dasharray:none;stroke-opacity:1"
             id="path3468"
             inkscape:connector-curvature="0" /></g><g
           id="g3470"
           transform="translate(93.9063,37.4814)"><path
             d="M 0,0 6.436,-1.014"
             style="fill:none;stroke:#231f20;stroke-width:0.50999999;stroke-linecap:round;stroke-linejoin:miter;stroke-miterlimit:4;stroke-dasharray:none;stroke-opacity:1"
             id="path3472"
             inkscape:connector-curvature="0" /></g><g
           id="g3474"
           transform="translate(101.6865,33.3125)"><path
             d="M 0,0 -7.467,6.437"
             style="fill:none;stroke:#231f20;stroke-width:0.50999999;stroke-linecap:round;stroke-linejoin:miter;stroke-miterlimit:4;stroke-dasharray:none;stroke-opacity:1"
             id="path3476"
             inkscape:connector-curvature="0" /></g><path
           d="m 79.161,2.486 8.499,0 0,16.998 -8.499,0 0,-16.998 z"
           style="fill:#ffffff;fill-opacity:1;fill-rule:nonzero;stroke:none"
           id="path3478"
           inkscape:connector-curvature="0" /></g></g><text
       transform="matrix(1,0,0,-1,82.9824,6.9756)"
       style="font-variant:normal;font-weight:bold;font-stretch:normal;font-size:10px;font-family:Helvetica;-inkscape-font-specification:Helvetica-Bold;writing-mode:lr-tb;fill:#231f20;fill-opacity:1;fill-rule:nonzero;stroke:none"
       id="text3480"><tspan
         x="0"
         y="0"
         id="tspan3482">1</tspan></text>
<g
       id="g3484"><g
         id="g3486"
         clip-path="url(#clipPath3488)"><g
           id="g3492"
           transform="translate(89.2822,16.041)"><path
             d="M 0,0 6.256,16.604"
             style="fill:none;stroke:#ffffff;stroke-width:2.83500004;stroke-linecap:round;stroke-linejoin:miter;stroke-miterlimit:4;stroke-dasharray:none;stroke-opacity:1"
             id="path3494"
             inkscape:connector-curvature="0" /></g><g
           id="g3496"
           transform="translate(88.4072,14.1504)"><path
             d="M 0,0 8.816,21.622"
             style="fill:none;stroke:#231f20;stroke-width:0.28299999;stroke-linecap:round;stroke-linejoin:miter;stroke-miterlimit:4;stroke-dasharray:none;stroke-opacity:1"
             id="path3498"
             inkscape:connector-curvature="0" /></g><path
           d="m 17.92,30.75 9.916,0 0,17 -9.916,0 0,-17 z"
           style="fill:#ffffff;fill-opacity:1;fill-rule:nonzero;stroke:none"
           id="path3500"
           inkscape:connector-curvature="0" /></g></g><text
       transform="matrix(1,0,0,-1,21.7427,35.2412)"
       style="font-variant:normal;font-weight:bold;font-stretch:normal;font-size:10px;font-family:Helvetica;-inkscape-font-specification:Helvetica-Bold;writing-mode:lr-tb;fill:#231f20;fill-opacity:1;fill-rule:nonzero;stroke:none"
       id="text3502"><tspan
         x="0"
         y="0"
         id="tspan3504">2</tspan></text>
<g
       id="g3506"><g
         id="g3508"
         clip-path="url(#clipPath3510)"><g
           id="g3514"
           transform="translate(30.1489,42.4111)"><path
             d="M 0,0 28.867,15.62"
             style="fill:none;stroke:#ffffff;stroke-width:2.83500004;stroke-linecap:round;stroke-linejoin:miter;stroke-miterlimit:4;stroke-dasharray:none;stroke-opacity:1"
             id="path3516"
             inkscape:connector-curvature="0" /></g><g
           id="g3518"
           transform="translate(28.2061,41.3604)"><path
             d="M 0,0 32.752,17.722"
             style="fill:none;stroke:#231f20;stroke-width:0.28299999;stroke-linecap:round;stroke-linejoin:miter;stroke-miterlimit:4;stroke-dasharray:none;stroke-opacity:1"
             id="path3520"
             inkscape:connector-curvature="0" /></g></g></g></g></svg>