<?xml version="1.0" encoding="UTF-8" standalone="no"?>
<!-- Created with Inkscape (http://www.inkscape.org/) -->

<svg
   xmlns:dc="http://purl.org/dc/elements/1.1/"
   xmlns:cc="http://creativecommons.org/ns#"
   xmlns:rdf="http://www.w3.org/1999/02/22-rdf-syntax-ns#"
   xmlns:svg="http://www.w3.org/2000/svg"
   xmlns="http://www.w3.org/2000/svg"
   xmlns:sodipodi="http://sodipodi.sourceforge.net/DTD/sodipodi-0.dtd"
   xmlns:inkscape="http://www.inkscape.org/namespaces/inkscape"
   id="svg7492"
   version="1.1"
   inkscape:version="0.91 r13725"
   xml:space="preserve"
   width="301.18124"
   height="230.315"
   viewBox="0 0 301.18124 230.315"
   sodipodi:docname="cdoa3.svg"><metadata
     id="metadata7498"><rdf:RDF><cc:Work
         rdf:about=""><dc:format>image/svg+xml</dc:format><dc:type
           rdf:resource="http://purl.org/dc/dcmitype/StillImage" /><dc:title></dc:title></cc:Work></rdf:RDF></metadata><defs
     id="defs7496"><clipPath
       clipPathUnits="userSpaceOnUse"
       id="clipPath7506"><path
         d="m 0,184.252 240.945,0 L 240.945,0 0,0 0,184.252 Z"
         id="path7508"
         inkscape:connector-curvature="0" /></clipPath><clipPath
       clipPathUnits="userSpaceOnUse"
       id="clipPath7554"><path
         d="m 0,184.252 240.945,0 L 240.945,0 0,0 0,184.252 Z"
         id="path7556"
         inkscape:connector-curvature="0" /></clipPath></defs><sodipodi:namedview
     pagecolor="#ffffff"
     bordercolor="#666666"
     borderopacity="1"
     objecttolerance="10"
     gridtolerance="10"
     guidetolerance="10"
     inkscape:pageopacity="0"
     inkscape:pageshadow="2"
     inkscape:window-width="640"
     inkscape:window-height="480"
     id="namedview7494"
     showgrid="false"
     inkscape:zoom="4.2072813"
     inkscape:cx="150.59062"
     inkscape:cy="115.1575"
     inkscape:window-x="0"
     inkscape:window-y="0"
     inkscape:window-maximized="1"
     inkscape:current-layer="g7500" /><g
     id="g7500"
     inkscape:groupmode="layer"
     inkscape:label="cdoa3"
     transform="matrix(1.25,0,0,-1.25,0,230.315)"><g
       id="g7502"><g
         id="g7504"
         clip-path="url(#clipPath7506)"><g
           id="g7510"
           transform="translate(98.897,124.1143)"><path
             d="M 0,0 C -2.636,3.448 -4.172,7.592 -4.172,12.055"
             style="fill:none;stroke:#231f20;stroke-width:0.454;stroke-linecap:round;stroke-linejoin:round;stroke-miterlimit:4;stroke-dasharray:none;stroke-opacity:1"
             id="path7512"
             inkscape:connector-curvature="0" /></g><g
           id="g7514"
           transform="translate(98.897,135.9341)"><path
             d="m 0,0 c 2.117,-2.77 4.943,-5.087 8.25,-6.752 l 0,-11.821 c 3.618,-1.821 7.81,-2.863 12.279,-2.863 13.63,0 24.689,9.703 24.689,21.671"
             style="fill:none;stroke:#231f20;stroke-width:0.454;stroke-linecap:round;stroke-linejoin:round;stroke-miterlimit:4;stroke-dasharray:none;stroke-opacity:1"
             id="path7516"
             inkscape:connector-curvature="0" /></g><g
           id="g7518"
           transform="translate(144.1152,69.7129)"><path
             d="m 0,0 c 0,-11.968 -11.059,-21.671 -24.689,-21.671 -13.642,0 -24.701,9.703 -24.701,21.671"
             style="fill:none;stroke:#231f20;stroke-width:0.454;stroke-linecap:round;stroke-linejoin:round;stroke-miterlimit:4;stroke-dasharray:none;stroke-opacity:1"
             id="path7520"
             inkscape:connector-curvature="0" /></g><g
           id="g7522"
           transform="translate(107.1475,124.8105)"><path
             d="M 0,0 32.31,31.475"
             style="fill:none;stroke:#231f20;stroke-width:0.454;stroke-linecap:round;stroke-linejoin:round;stroke-miterlimit:4;stroke-dasharray:none;stroke-opacity:1"
             id="path7524"
             inkscape:connector-curvature="0" /></g><g
           id="g7526"
           transform="translate(107.1475,117.3613)"><path
             d="M 0,0 32.31,31.475"
             style="fill:none;stroke:#231f20;stroke-width:0.454;stroke-linecap:round;stroke-linejoin:round;stroke-miterlimit:4;stroke-dasharray:none;stroke-opacity:1"
             id="path7528"
             inkscape:connector-curvature="0" /></g><g
           id="g7530"
           transform="translate(98.9673,124.8032)"><path
             d="m 0,0 0,11.214 32.851,30.715 c 3.008,-1.535 5.612,-3.611 7.639,-6.076 l 0,-11.82 c 2.931,-3.563 4.658,-7.938 4.658,-12.667 l 0,-66.456"
             style="fill:none;stroke:#231f20;stroke-width:0.90700001;stroke-linecap:round;stroke-linejoin:round;stroke-miterlimit:4;stroke-dasharray:none;stroke-opacity:1"
             id="path7532"
             inkscape:connector-curvature="0" /></g><g
           id="g7534"
           transform="translate(122.1553,157.708)"><path
             d="m 0,0 c -0.895,0.086 -1.806,0.131 -2.729,0.131 -13.642,0 -24.701,-9.703 -24.701,-21.67 l 0,-66.456"
             style="fill:none;stroke:#231f20;stroke-width:0.90700001;stroke-linecap:round;stroke-linejoin:round;stroke-miterlimit:4;stroke-dasharray:none;stroke-opacity:1"
             id="path7536"
             inkscape:connector-curvature="0" /></g><g
           id="g7538"
           transform="translate(157.8379,64.4326)"><path
             d="m 0,0 -19.287,-23.121 -38.564,0 L -77.138,0"
             style="fill:none;stroke:#231f20;stroke-width:0.5;stroke-linecap:round;stroke-linejoin:round;stroke-miterlimit:4;stroke-dasharray:none;stroke-opacity:1"
             id="path7540"
             inkscape:connector-curvature="0" /></g><g
           id="g7542"
           transform="translate(94.3423,80.8184)"><path
             d="m 0,0 -13.643,-16.386 0,-24.549 19.288,-23.121 38.563,0 19.288,23.121 0,24.549 -13.197,15.478"
             style="fill:none;stroke:#231f20;stroke-width:1;stroke-linecap:round;stroke-linejoin:round;stroke-miterlimit:4;stroke-dasharray:none;stroke-opacity:1"
             id="path7544"
             inkscape:connector-curvature="0" /></g></g></g><text
       transform="matrix(1,0,0,-1,76.8379,16.8496)"
       style="font-variant:normal;font-weight:normal;font-stretch:normal;font-size:4.37099981px;font-family:Helvetica;-inkscape-font-specification:Helvetica;writing-mode:lr-tb;fill:#231f20;fill-opacity:1;fill-rule:nonzero;stroke:none"
       id="text7546"><tspan
         x="0 2.1854999 4.6157761 7.046052 9.4763279"
         y="0"
         sodipodi:role="line"
         id="tspan7548">cdoa1</tspan></text>
<g
       id="g7550"><g
         id="g7552"
         clip-path="url(#clipPath7554)"><g
           id="g7558"
           transform="translate(138.5508,41.3115)"><path
             d="M 0,0 0,-24.549"
             style="fill:none;stroke:#231f20;stroke-width:0.5;stroke-linecap:round;stroke-linejoin:round;stroke-miterlimit:4;stroke-dasharray:none;stroke-opacity:1"
             id="path7560"
             inkscape:connector-curvature="0" /></g><g
           id="g7562"
           transform="translate(100.0718,41.3115)"><path
             d="M 0,0 0,-24.549"
             style="fill:none;stroke:#231f20;stroke-width:0.5;stroke-linecap:round;stroke-linejoin:round;stroke-miterlimit:4;stroke-dasharray:none;stroke-opacity:1"
             id="path7564"
             inkscape:connector-curvature="0" /></g></g></g></g></svg>