<?xml version="1.0" encoding="UTF-8" standalone="no"?>
<!-- Created with Inkscape (http://www.inkscape.org/) -->

<svg
   xmlns:dc="http://purl.org/dc/elements/1.1/"
   xmlns:cc="http://creativecommons.org/ns#"
   xmlns:rdf="http://www.w3.org/1999/02/22-rdf-syntax-ns#"
   xmlns:svg="http://www.w3.org/2000/svg"
   xmlns="http://www.w3.org/2000/svg"
   xmlns:sodipodi="http://sodipodi.sourceforge.net/DTD/sodipodi-0.dtd"
   xmlns:inkscape="http://www.inkscape.org/namespaces/inkscape"
   id="svg7418"
   version="1.1"
   inkscape:version="0.91 r13725"
   xml:space="preserve"
   width="301.18124"
   height="230.315"
   viewBox="0 0 301.18124 230.315"
   sodipodi:docname="3880096.svg"><metadata
     id="metadata7424"><rdf:RDF><cc:Work
         rdf:about=""><dc:format>image/svg+xml</dc:format><dc:type
           rdf:resource="http://purl.org/dc/dcmitype/StillImage" /><dc:title></dc:title></cc:Work></rdf:RDF></metadata><defs
     id="defs7422"><clipPath
       clipPathUnits="userSpaceOnUse"
       id="clipPath7432"><path
         d="m 0,184.252 240.945,0 L 240.945,0 0,0 0,184.252 Z"
         id="path7434"
         inkscape:connector-curvature="0" /></clipPath></defs><sodipodi:namedview
     pagecolor="#ffffff"
     bordercolor="#666666"
     borderopacity="1"
     objecttolerance="10"
     gridtolerance="10"
     guidetolerance="10"
     inkscape:pageopacity="0"
     inkscape:pageshadow="2"
     inkscape:window-width="640"
     inkscape:window-height="480"
     id="namedview7420"
     showgrid="false"
     inkscape:zoom="4.2072813"
     inkscape:cx="150.59062"
     inkscape:cy="115.1575"
     inkscape:window-x="0"
     inkscape:window-y="0"
     inkscape:window-maximized="1"
     inkscape:current-layer="g7426" /><g
     id="g7426"
     inkscape:groupmode="layer"
     inkscape:label="3880096"
     transform="matrix(1.25,0,0,-1.25,0,230.315)"><g
       id="g7428"><g
         id="g7430"
         clip-path="url(#clipPath7432)"><g
           id="g7436"
           transform="translate(76.4116,79.0957)"><path
             d="m 0,0 c 0.234,-1.562 -1.335,-3.091 -3.506,-3.416 -2.171,-0.326 -4.12,0.675 -4.355,2.236 -0.234,1.559 1.336,3.088 3.507,3.414 C -2.184,2.56 -0.234,1.56 0,0 Z"
             style="fill:none;stroke:#373535;stroke-width:0.5;stroke-linecap:round;stroke-linejoin:round;stroke-miterlimit:4;stroke-dasharray:none;stroke-opacity:1"
             id="path7438"
             inkscape:connector-curvature="0" /></g><g
           id="g7440"
           transform="translate(77.522,78.7656)"><path
             d="m 0,0 c 0.021,-0.086 0.04,-0.176 0.054,-0.266 0.297,-1.979 -1.692,-3.917 -4.444,-4.33 -2.75,-0.413 -5.221,0.856 -5.519,2.834"
             style="fill:none;stroke:#373535;stroke-width:0.5;stroke-linecap:round;stroke-linejoin:round;stroke-miterlimit:4;stroke-dasharray:none;stroke-opacity:1"
             id="path7442"
             inkscape:connector-curvature="0" /></g><g
           id="g7444"
           transform="translate(78.6685,71.127)"><path
             d="m 0,0 -1.146,7.639 c -0.47,1.821 -2.84,2.958 -5.465,2.564 -2.75,-0.413 -4.741,-2.35 -4.444,-4.326 l 1.106,-7.37"
             style="fill:none;stroke:#373535;stroke-width:1;stroke-linecap:round;stroke-linejoin:round;stroke-miterlimit:4;stroke-dasharray:none;stroke-opacity:1"
             id="path7446"
             inkscape:connector-curvature="0" /></g><g
           id="g7448"
           transform="translate(78.6821,71.1289)"><path
             d="m 0,0 c 0.297,-1.977 -1.692,-3.916 -4.444,-4.33 -2.749,-0.412 -5.222,0.857 -5.518,2.835"
             style="fill:none;stroke:#373535;stroke-width:0.5;stroke-linecap:round;stroke-linejoin:round;stroke-miterlimit:4;stroke-dasharray:none;stroke-opacity:1"
             id="path7450"
             inkscape:connector-curvature="0" /></g><g
           id="g7452"
           transform="translate(30.7876,55.0381)"><path
             d="M 0,0 C 0.234,-1.561 -1.335,-3.089 -3.506,-3.414 -5.677,-3.74 -7.626,-2.74 -7.86,-1.18 -8.095,0.38 -6.525,1.909 -4.354,2.235 -2.184,2.561 -0.234,1.561 0,0 Z"
             style="fill:none;stroke:#373535;stroke-width:0.5;stroke-linecap:round;stroke-linejoin:round;stroke-miterlimit:4;stroke-dasharray:none;stroke-opacity:1"
             id="path7454"
             inkscape:connector-curvature="0" /></g><g
           id="g7456"
           transform="translate(31.8975,54.708)"><path
             d="m 0,0 c 0.022,-0.085 0.041,-0.174 0.054,-0.266 0.297,-1.978 -1.692,-3.917 -4.443,-4.33 -2.751,-0.413 -5.222,0.857 -5.519,2.834"
             style="fill:none;stroke:#373535;stroke-width:0.5;stroke-linecap:round;stroke-linejoin:round;stroke-miterlimit:4;stroke-dasharray:none;stroke-opacity:1"
             id="path7458"
             inkscape:connector-curvature="0" /></g><g
           id="g7460"
           transform="translate(33.0439,47.0703)"><path
             d="m 0,0 -1.146,7.638 c -0.47,1.823 -2.839,2.959 -5.464,2.565 -2.751,-0.413 -4.741,-2.35 -4.444,-4.327 l 1.106,-7.369"
             style="fill:none;stroke:#373535;stroke-width:1;stroke-linecap:round;stroke-linejoin:round;stroke-miterlimit:4;stroke-dasharray:none;stroke-opacity:1"
             id="path7462"
             inkscape:connector-curvature="0" /></g><g
           id="g7464"
           transform="translate(33.0581,47.0723)"><path
             d="m 0,0 c 0.297,-1.978 -1.692,-3.917 -4.443,-4.329 -2.751,-0.413 -5.222,0.855 -5.519,2.834"
             style="fill:none;stroke:#373535;stroke-width:0.5;stroke-linecap:round;stroke-linejoin:round;stroke-miterlimit:4;stroke-dasharray:none;stroke-opacity:1"
             id="path7466"
             inkscape:connector-curvature="0" /></g><g
           id="g7468"
           transform="translate(76.3525,80.7842)"><path
             d="m 0,0 130.261,66.245 c 1.167,0.634 2.566,1.106 4.099,1.336 4.618,0.693 8.712,-1.074 9.144,-3.947 l 0.474,-3.154 c 0.286,-1.904 -1.109,-3.815 -3.425,-5.09 L -41.687,-45.784 c -1.402,-0.668 -2.98,-1.158 -4.675,-1.412 -6.784,-1.019 -12.874,2.105 -13.607,6.982 l -0.608,4.05 c -0.512,3.415 1.74,6.78 5.466,8.842"
             style="fill:none;stroke:#373535;stroke-width:1;stroke-linecap:round;stroke-linejoin:round;stroke-miterlimit:4;stroke-dasharray:none;stroke-opacity:1"
             id="path7470"
             inkscape:connector-curvature="0" /></g><g
           id="g7472"
           transform="translate(29.9482,57.1836)"><path
             d="m 0,0 3.271,1.665 c 3.133,-1.09 6.838,-1.463 10.71,-0.881 9.272,1.392 16.074,7.695 15.752,14.338 l 7.955,4.046"
             style="fill:none;stroke:#373535;stroke-width:1;stroke-linecap:round;stroke-linejoin:round;stroke-miterlimit:4;stroke-dasharray:none;stroke-opacity:1"
             id="path7474"
             inkscape:connector-curvature="0" /></g><g
           id="g7476"
           transform="translate(15.7759,44.6201)"><path
             d="m 0,0 c 0.732,-4.876 6.823,-8.003 13.607,-6.984 1.695,0.255 3.273,0.744 4.675,1.412 l 182.374,100.28 c 2.316,1.275 3.711,3.188 3.425,5.09"
             style="fill:none;stroke:#373535;stroke-width:0.5;stroke-linecap:round;stroke-linejoin:round;stroke-miterlimit:4;stroke-dasharray:none;stroke-opacity:1"
             id="path7478"
             inkscape:connector-curvature="0" /></g></g></g><text
       transform="matrix(1,0,0,-1,2.9141,4.209)"
       style="font-variant:normal;font-weight:normal;font-stretch:normal;font-size:6px;font-family:Helvetica;-inkscape-font-specification:Helvetica;writing-mode:lr-tb;fill:#373535;fill-opacity:1;fill-rule:nonzero;stroke:none"
       id="text7480"><tspan
         x="0 3.6659999 7.0019999 10.338 13.674 17.01 20.346001 23.681999"
         y="0"
         sodipodi:role="line"
         id="tspan7482">T3880096</tspan></text>
</g></svg>