<?xml version="1.0" encoding="UTF-8" standalone="no"?>
<!-- Created with Inkscape (http://www.inkscape.org/) -->

<svg
   xmlns:dc="http://purl.org/dc/elements/1.1/"
   xmlns:cc="http://creativecommons.org/ns#"
   xmlns:rdf="http://www.w3.org/1999/02/22-rdf-syntax-ns#"
   xmlns:svg="http://www.w3.org/2000/svg"
   xmlns="http://www.w3.org/2000/svg"
   xmlns:sodipodi="http://sodipodi.sourceforge.net/DTD/sodipodi-0.dtd"
   xmlns:inkscape="http://www.inkscape.org/namespaces/inkscape"
   id="svg3336"
   version="1.1"
   inkscape:version="0.91 r13725"
   xml:space="preserve"
   width="301.18124"
   height="230.31375"
   viewBox="0 0 301.18124 230.31375"
   sodipodi:docname="cixi_1.svg"><metadata
     id="metadata3342"><rdf:RDF><cc:Work
         rdf:about=""><dc:format>image/svg+xml</dc:format><dc:type
           rdf:resource="http://purl.org/dc/dcmitype/StillImage" /><dc:title></dc:title></cc:Work></rdf:RDF></metadata><defs
     id="defs3340"><clipPath
       clipPathUnits="userSpaceOnUse"
       id="clipPath3350"><path
         d="m 84.959,161.753 c -13.337,-12.124 -17.565,-29.2 -9.44,-38.138 l 0,0 c 8.125,-8.936 25.526,-6.349 38.862,5.776 l 0,0 c 13.339,12.127 17.566,29.202 9.44,38.139 l 0,0 c -3.264,3.589 -8.023,5.32 -13.415,5.32 l 0,0 c -8.032,0 -17.466,-3.84 -25.447,-11.097"
         id="path3352"
         inkscape:connector-curvature="0" /></clipPath><clipPath
       clipPathUnits="userSpaceOnUse"
       id="clipPath3374"><path
         d="m 0,184.251 240.945,0 L 240.945,0 0,0 0,184.251 Z"
         id="path3376"
         inkscape:connector-curvature="0" /></clipPath><clipPath
       clipPathUnits="userSpaceOnUse"
       id="clipPath3738"><path
         d="m 0,184.251 240.945,0 L 240.945,0 0,0 0,184.251 Z"
         id="path3740"
         inkscape:connector-curvature="0" /></clipPath></defs><sodipodi:namedview
     pagecolor="#ffffff"
     bordercolor="#666666"
     borderopacity="1"
     objecttolerance="10"
     gridtolerance="10"
     guidetolerance="10"
     inkscape:pageopacity="0"
     inkscape:pageshadow="2"
     inkscape:window-width="640"
     inkscape:window-height="480"
     id="namedview3338"
     showgrid="false"
     inkscape:zoom="3.3128721"
     inkscape:cx="150.59062"
     inkscape:cy="115.15688"
     inkscape:window-x="0"
     inkscape:window-y="0"
     inkscape:window-maximized="1"
     inkscape:current-layer="g3344" /><g
     id="g3344"
     inkscape:groupmode="layer"
     inkscape:label="cixi_1"
     transform="matrix(1.25,0,0,-1.25,0,230.31375)"><g
       id="g3346"><g
         id="g3348"
         clip-path="url(#clipPath3350)"><g
           id="g3354"
           transform="translate(112.9648,135.2812)"><path
             d="m 0,0 c -9.455,-12.156 -24.766,-16.065 -34.197,-8.73 -9.433,7.335 -9.412,23.138 0.043,35.294 9.456,12.159 24.765,16.067 34.197,8.731 C 9.476,27.96 9.456,12.157 0,0 Z"
             style="fill:none;stroke:#000000;stroke-width:0.5;stroke-linecap:round;stroke-linejoin:round;stroke-miterlimit:10;stroke-dasharray:none;stroke-opacity:1"
             id="path3356"
             inkscape:connector-curvature="0" /></g><g
           id="g3358"
           transform="translate(113.3442,164.9722)"><path
             d="m 0,0 -2.75,2.5 c -8.102,6.301 -21.253,2.944 -29.376,-7.5 -8.122,-10.442 -8.139,-24.016 -0.037,-30.318 l 2.75,-2.5 c 8.102,-6.301 21.254,-2.943 29.376,7.5 C 8.085,-19.875 8.102,-6.301 0,0"
             style="fill:#ffffff;fill-opacity:1;fill-rule:nonzero;stroke:none"
             id="path3360"
             inkscape:connector-curvature="0" /></g><g
           id="g3362"
           transform="translate(113.3442,164.9722)"><path
             d="m 0,0 -2.75,2.5 c -8.102,6.301 -21.253,2.944 -29.376,-7.5 -8.122,-10.442 -8.139,-24.016 -0.037,-30.318 l 2.75,-2.5 c 8.102,-6.301 21.254,-2.943 29.376,7.5 C 8.085,-19.875 8.102,-6.301 0,0 Z"
             style="fill:none;stroke:#000000;stroke-width:1;stroke-linecap:round;stroke-linejoin:round;stroke-miterlimit:10;stroke-dasharray:none;stroke-opacity:1"
             id="path3364"
             inkscape:connector-curvature="0" /></g><g
           id="g3366"
           transform="translate(83.9312,127.1543)"><path
             d="m 0,0 c -8.102,6.302 -8.085,19.876 0.037,30.318 8.123,10.444 21.274,13.801 29.376,7.5"
             style="fill:none;stroke:#000000;stroke-width:0.5;stroke-linecap:round;stroke-linejoin:round;stroke-miterlimit:10;stroke-dasharray:none;stroke-opacity:1"
             id="path3368"
             inkscape:connector-curvature="0" /></g></g></g><g
       id="g3370"><g
         id="g3372"
         clip-path="url(#clipPath3374)"><g
           id="g3378"
           transform="translate(114.3809,129.3911)"><path
             d="m 0,0 c -13.336,-12.125 -30.736,-14.712 -38.862,-5.776 -8.125,8.938 -3.897,26.013 9.44,38.138 C -16.083,44.49 1.315,47.076 9.44,38.139 17.566,29.202 13.339,12.126 0,0 Z"
             style="fill:none;stroke:#000000;stroke-width:0.5;stroke-linecap:round;stroke-linejoin:round;stroke-miterlimit:10;stroke-dasharray:none;stroke-opacity:1"
             id="path3380"
             inkscape:connector-curvature="0" /></g><g
           id="g3382"
           transform="translate(161.1631,109.0864)"><path
             d="M 0,0 C 1.198,-0.178 2.509,-1.417 3.238,-3.2 4.15,-5.432 3.814,-7.69 2.497,-8.308"
             style="fill:none;stroke:#000000;stroke-width:0.5;stroke-linecap:round;stroke-linejoin:round;stroke-miterlimit:10;stroke-dasharray:none;stroke-opacity:1"
             id="path3384"
             inkscape:connector-curvature="0" /></g><g
           id="g3386"
           transform="translate(161.2334,101.2891)"><path
             d="m 0,0 c 0.781,-0.607 1.631,-0.838 2.349,-0.545 0.026,0.011 0.052,0.023 0.078,0.035 L 5.599,0.83 C 6.98,1.394 7.348,3.697 6.418,5.972 5.84,7.388 4.896,8.459 3.931,8.931"
             style="fill:none;stroke:#000000;stroke-width:1;stroke-linecap:round;stroke-linejoin:round;stroke-miterlimit:10;stroke-dasharray:none;stroke-opacity:1"
             id="path3388"
             inkscape:connector-curvature="0" /></g><g
           id="g3390"
           transform="translate(159.5576,108.5073)"><path
             d="M 0,0 C -0.289,-0.329 -0.488,-0.775 -0.593,-1.296"
             style="fill:none;stroke:#000000;stroke-width:1;stroke-linecap:round;stroke-linejoin:round;stroke-miterlimit:10;stroke-dasharray:none;stroke-opacity:1"
             id="path3392"
             inkscape:connector-curvature="0" /></g><g
           id="g3394"
           transform="translate(159.7617,107.2861)"><path
             d="M 0,0 C 0.948,0.387 2.233,-0.563 2.869,-2.122 3.507,-3.682 3.256,-5.26 2.31,-5.646"
             style="fill:none;stroke:#000000;stroke-width:0.5;stroke-linecap:round;stroke-linejoin:round;stroke-miterlimit:10;stroke-dasharray:none;stroke-opacity:1"
             id="path3396"
             inkscape:connector-curvature="0" /></g><g
           id="g3398"
           transform="translate(155.1611,105.1729)"><path
             d="M 0,0 C 0.948,0.388 2.232,-0.563 2.869,-2.122 3.507,-3.682 3.256,-5.26 2.31,-5.646"
             style="fill:none;stroke:#000000;stroke-width:0.5;stroke-linecap:round;stroke-linejoin:round;stroke-miterlimit:10;stroke-dasharray:none;stroke-opacity:1"
             id="path3400"
             inkscape:connector-curvature="0" /></g><g
           id="g3402"
           transform="translate(156.0205,99.7832)"><path
             d="m 0,0 c 0.49,-0.328 1.007,-0.437 1.45,-0.257 0,0 3.902,1.883 4.601,2.113 C 6.75,2.087 7.562,1.774 7.562,1.774"
             style="fill:none;stroke:#000000;stroke-width:1;stroke-linecap:round;stroke-linejoin:round;stroke-miterlimit:10;stroke-dasharray:none;stroke-opacity:1"
             id="path3404"
             inkscape:connector-curvature="0" /></g><g
           id="g3406"
           transform="translate(160.0205,108.2451)"><path
             d="m 0,0 c 0,0 -0.375,-0.875 -0.875,-1.062 -0.5,-0.188 -3.984,-2.01 -3.984,-2.01 -0.474,-0.194 -0.774,-0.685 -0.875,-1.323"
             style="fill:none;stroke:#000000;stroke-width:1;stroke-linecap:round;stroke-linejoin:round;stroke-miterlimit:10;stroke-dasharray:none;stroke-opacity:1"
             id="path3408"
             inkscape:connector-curvature="0" /></g><g
           id="g3410"
           transform="translate(154.9473,103.9287)"><path
             d="M 0,0 C 0.626,0.256 1.476,-0.372 1.896,-1.402 2.317,-2.432 2.151,-3.475 1.525,-3.73"
             style="fill:none;stroke:#000000;stroke-width:0.5;stroke-linecap:round;stroke-linejoin:round;stroke-miterlimit:10;stroke-dasharray:none;stroke-opacity:1"
             id="path3412"
             inkscape:connector-curvature="0" /></g><g
           id="g3414"
           transform="translate(7.7622,37.5176)"><path
             d="m 0,0 c 3.44,1.403 14.662,6.17 14.662,6.17 1.545,0.694 4.293,-2.07 6.136,-6.175 1.843,-4.103 2.084,-7.995 0.538,-8.688 0,0 -10.89,-5.079 -17.39,-7.954 -1.213,-0.537 -2.356,-1.021 -3.445,-1.458"
             style="fill:none;stroke:#000000;stroke-width:1;stroke-linecap:round;stroke-linejoin:round;stroke-miterlimit:10;stroke-dasharray:none;stroke-opacity:1"
             id="path3416"
             inkscape:connector-curvature="0" /></g><g
           id="g3418"
           transform="translate(39.4448,29.6318)"><path
             d="m 0,0 c 4.116,1.613 19.707,7.724 19.707,7.724 3.027,0.985 3.728,7.168 1.567,13.805 -0.382,1.174 -0.819,2.29 -1.308,3.32"
             style="fill:#ffffff;fill-opacity:1;fill-rule:nonzero;stroke:#000000;stroke-width:1;stroke-linecap:round;stroke-linejoin:round;stroke-miterlimit:10;stroke-dasharray:none;stroke-opacity:1"
             id="path3420"
             inkscape:connector-curvature="0" /></g><g
           id="g3422"
           transform="translate(39.5605,29.8447)"><path
             d="m 0,0 c 2.907,1.3 2.95,7.521 0.101,13.893 -0.713,1.593 -1.744,2.924 -2.424,4.306 -0.113,0.231 -0.214,0.48 -0.289,0.734"
             style="fill:none;stroke:#000000;stroke-width:0.5;stroke-linecap:round;stroke-linejoin:round;stroke-miterlimit:10;stroke-dasharray:none;stroke-opacity:1"
             id="path3424"
             inkscape:connector-curvature="0" /></g><g
           id="g3426"
           transform="translate(146.3057,114.814)"><path
             d="m 0,0 -5.686,-0.749 -3.245,-5.934 2.445,-5.187"
             style="fill:none;stroke:#000000;stroke-width:0.5;stroke-linecap:round;stroke-linejoin:round;stroke-miterlimit:4;stroke-dasharray:none;stroke-opacity:1"
             id="path3428"
             inkscape:connector-curvature="0" /></g><g
           id="g3430"
           transform="translate(140.0967,102.917)"><path
             d="m 0,0 2.351,-1.305 c 2.591,-1.416 6.304,0.008 8.095,3.286 1.79,3.278 0.984,7.172 -1.607,8.587 L 6.486,11.87"
             style="fill:none;stroke:#000000;stroke-width:1;stroke-linecap:butt;stroke-linejoin:round;stroke-miterlimit:4;stroke-dasharray:none;stroke-opacity:1"
             id="path3432"
             inkscape:connector-curvature="0" /></g><g
           id="g3434"
           transform="translate(140.6074,114.0898)"><path
             d="M 0,0 2.375,-1.278"
             style="fill:none;stroke:#000000;stroke-width:0.5;stroke-linecap:round;stroke-linejoin:round;stroke-miterlimit:4;stroke-dasharray:none;stroke-opacity:1"
             id="path3436"
             inkscape:connector-curvature="0" /></g><g
           id="g3438"
           transform="translate(139.7666,106.8228)"><path
             d="M 0,0 -2.419,1.299"
             style="fill:none;stroke:#000000;stroke-width:0.5;stroke-linecap:round;stroke-linejoin:round;stroke-miterlimit:4;stroke-dasharray:none;stroke-opacity:1"
             id="path3440"
             inkscape:connector-curvature="0" /></g><g
           id="g3442"
           transform="translate(142.8809,109.085)"><path
             d="m 0,0 c -1.49,-2.733 -0.952,-5.904 1.209,-7.085 2.157,-1.177 5.122,0.08 6.614,2.809 1.491,2.732 0.95,5.903 -1.209,7.084 C 4.452,3.988 1.491,2.731 0,0 Z"
             style="fill:none;stroke:#000000;stroke-width:0.5;stroke-linecap:round;stroke-linejoin:round;stroke-miterlimit:4;stroke-dasharray:none;stroke-opacity:1"
             id="path3444"
             inkscape:connector-curvature="0" /></g><g
           id="g3446"
           transform="translate(147.498,116.7773)"><path
             d="m 0,0 c -3.453,1.886 -8.183,-0.122 -10.568,-4.488 -2.384,-4.366 -1.521,-9.435 1.929,-11.321"
             style="fill:none;stroke:#000000;stroke-width:0.5;stroke-linecap:round;stroke-linejoin:round;stroke-miterlimit:4;stroke-dasharray:none;stroke-opacity:1"
             id="path3448"
             inkscape:connector-curvature="0" /></g><g
           id="g3450"
           transform="translate(150.5205,112.5684)"><path
             d="M 0,0 C -0.508,1.803 -1.445,3.349 -3.022,4.209 L -3.934,4.78 c -3.453,1.886 -8.182,-0.126 -10.569,-4.489 -2.383,-4.367 -1.518,-9.437 1.931,-11.323 l 0.911,-0.568 c 1.663,-0.911 3.66,-0.996 5.479,-0.187"
             style="fill:none;stroke:#000000;stroke-width:1;stroke-linecap:round;stroke-linejoin:round;stroke-miterlimit:4;stroke-dasharray:none;stroke-opacity:1"
             id="path3452"
             inkscape:connector-curvature="0" /></g><g
           id="g3454"
           transform="translate(142.543,101.2681)"><path
             d="m 0,0 c 0.113,1.38 -0.722,3.387 -2.358,5.365 0.909,0.556 1.729,1.397 2.321,2.474 0.587,1.08 0.849,2.225 0.826,3.29 2.549,-0.307 4.694,0.072 5.79,0.913"
             style="fill:none;stroke:#000000;stroke-width:0.5;stroke-linecap:round;stroke-linejoin:round;stroke-miterlimit:4;stroke-dasharray:none;stroke-opacity:1"
             id="path3456"
             inkscape:connector-curvature="0" /></g><g
           id="g3458"
           transform="translate(48.5029,90.5718)"><path
             d="m 0,0 -6.429,0.013 -4.227,-6.023 2.206,-6.04"
             style="fill:none;stroke:#000000;stroke-width:0.5;stroke-linecap:round;stroke-linejoin:round;stroke-miterlimit:4;stroke-dasharray:none;stroke-opacity:1"
             id="path3460"
             inkscape:connector-curvature="0" /></g><g
           id="g3462"
           transform="translate(40.0527,78.5215)"><path
             d="m 0,0 2.175,-1.484 c 2.753,-1.93 7.046,-0.915 9.38,2.413 2.332,3.33 1.824,7.712 -0.928,9.64 L 8.45,12.05"
             style="fill:none;stroke:#000000;stroke-width:1;stroke-linecap:butt;stroke-linejoin:round;stroke-miterlimit:4;stroke-dasharray:none;stroke-opacity:1"
             id="path3464"
             inkscape:connector-curvature="0" /></g><g
           id="g3466"
           transform="translate(42.062,90.6123)"><path
             d="M 0,0 2.525,-1.747"
             style="fill:none;stroke:#000000;stroke-width:0.5;stroke-linecap:round;stroke-linejoin:round;stroke-miterlimit:4;stroke-dasharray:none;stroke-opacity:1"
             id="path3468"
             inkscape:connector-curvature="0" /></g><g
           id="g3470"
           transform="translate(40.3872,82.7773)"><path
             d="M 0,0 -2.572,1.776"
             style="fill:none;stroke:#000000;stroke-width:0.5;stroke-linecap:round;stroke-linejoin:round;stroke-miterlimit:4;stroke-dasharray:none;stroke-opacity:1"
             id="path3472"
             inkscape:connector-curvature="0" /></g><g
           id="g3474"
           transform="translate(43.4692,85.1582)"><path
             d="m 0,0 c -1.942,-2.774 -1.662,-6.327 0.633,-7.936 2.292,-1.605 5.732,-0.662 7.676,2.109 1.943,2.774 1.66,6.324 -0.634,7.933 C 5.379,3.716 1.943,2.773 0,0 Z"
             style="fill:none;stroke:#000000;stroke-width:0.5;stroke-linecap:round;stroke-linejoin:round;stroke-miterlimit:4;stroke-dasharray:none;stroke-opacity:1"
             id="path3476"
             inkscape:connector-curvature="0" /></g><g
           id="g3478"
           transform="translate(50.6523,92.0972)"><path
             d="m 0,0 c -3.667,2.572 -9.156,1.064 -12.264,-3.369 -3.106,-4.431 -2.654,-10.108 1.01,-12.679"
             style="fill:none;stroke:#000000;stroke-width:0.5;stroke-linecap:round;stroke-linejoin:round;stroke-miterlimit:4;stroke-dasharray:none;stroke-opacity:1"
             id="path3480"
             inkscape:connector-curvature="0" /></g><g
           id="g3482"
           transform="translate(53.7017,86.4541)"><path
             d="M 0,0 C -0.32,2.286 -1.213,4.36 -3.049,5.643 L -4.01,6.402 c -3.668,2.57 -9.157,1.06 -12.265,-3.37 C -19.38,-1.4 -18.928,-7.08 -15.264,-9.65 l 0.961,-0.755 c 1.765,-1.241 3.989,-1.628 6.104,-1.006 C -3.133,-9.927 0.839,-5.986 0,0 Z"
             style="fill:none;stroke:#000000;stroke-width:1;stroke-linecap:round;stroke-linejoin:round;stroke-miterlimit:4;stroke-dasharray:none;stroke-opacity:1"
             id="path3484"
             inkscape:connector-curvature="0" /></g><g
           id="g3486"
           transform="translate(42.6724,76.5986)"><path
             d="m 0,0 c 0.266,1.495 -0.464,3.813 -2.093,6.22 1.073,0.477 2.074,1.276 2.845,2.371 0.765,1.095 1.173,2.311 1.257,3.48 2.817,-0.708 5.252,-0.606 6.562,0.154"
             style="fill:none;stroke:#000000;stroke-width:0.5;stroke-linecap:round;stroke-linejoin:round;stroke-miterlimit:4;stroke-dasharray:none;stroke-opacity:1"
             id="path3488"
             inkscape:connector-curvature="0" /></g><g
           id="g3490"
           transform="translate(107.5498,152.1387)"><path
             d="m 0,0 1.821,-7.388 -5.788,-7.381 -7.609,0.007"
             style="fill:none;stroke:#000000;stroke-width:0.5;stroke-linecap:round;stroke-linejoin:round;stroke-miterlimit:10;stroke-dasharray:none;stroke-opacity:1"
             id="path3492"
             inkscape:connector-curvature="0" /></g><g
           id="g3494"
           transform="translate(95.9736,137.377)"><path
             d="m 0,0 -1.821,7.389 5.788,7.381 7.609,-0.008"
             style="fill:none;stroke:#000000;stroke-width:1;stroke-linecap:butt;stroke-linejoin:round;stroke-miterlimit:10;stroke-dasharray:none;stroke-opacity:1"
             id="path3496"
             inkscape:connector-curvature="0" /></g><g
           id="g3498"
           transform="translate(104.4834,152.1162)"><path
             d="m 0,0 1.138,-4.616 -5.788,-7.38 -4.531,0.004"
             style="fill:none;stroke:#000000;stroke-width:0.5;stroke-linecap:round;stroke-linejoin:round;stroke-miterlimit:10;stroke-dasharray:none;stroke-opacity:1"
             id="path3500"
             inkscape:connector-curvature="0" /></g><g
           id="g3502"
           transform="translate(2.144,70.7686)"><path
             d="M 0,0 C 10.199,2.354 29.689,6.852 29.689,6.852"
             style="fill:none;stroke:#000000;stroke-width:1;stroke-linecap:round;stroke-linejoin:round;stroke-miterlimit:10;stroke-dasharray:none;stroke-opacity:1"
             id="path3504"
             inkscape:connector-curvature="0" /></g><g
           id="g3506"
           transform="translate(154.2344,106.9355)"><path
             d="m 0,0 c 0.488,0.221 1.025,0.41 1.635,0.594 1.906,0.576 22.713,6.674 26.547,7.591 3.834,0.916 5.5,4.5 10.917,6.25 5.417,1.75 7.583,1.416 7.583,1.416"
             style="fill:none;stroke:#000000;stroke-width:1;stroke-linecap:round;stroke-linejoin:round;stroke-miterlimit:10;stroke-dasharray:none;stroke-opacity:1"
             id="path3508"
             inkscape:connector-curvature="0" /></g><g
           id="g3510"
           transform="translate(55.8022,81.3984)"><path
             d="M 0,0 C 11.131,2.648 60.603,14.42 67.031,15.972 72.097,17.194 74.965,15 78.878,14.419"
             style="fill:none;stroke:#000000;stroke-width:1;stroke-linecap:round;stroke-linejoin:round;stroke-miterlimit:10;stroke-dasharray:none;stroke-opacity:1"
             id="path3512"
             inkscape:connector-curvature="0" /></g><g
           id="g3514"
           transform="translate(238.3818,134.2817)"><path
             d="m 0,0 c -0.04,-1.749 -4.19,-3.071 -9.268,-2.953 -5.078,0.119 -9.162,1.632 -9.121,3.38"
             style="fill:none;stroke:#000000;stroke-width:0.5;stroke-linecap:round;stroke-linejoin:round;stroke-miterlimit:10;stroke-dasharray:none;stroke-opacity:1"
             id="path3516"
             inkscape:connector-curvature="0" /></g><g
           id="g3518"
           transform="translate(196.3896,115.3413)"><path
             d="m 0,0 c -0.02,-0.856 -2.053,-1.504 -4.539,-1.446 -2.488,0.058 -4.488,0.799 -4.469,1.655"
             style="fill:none;stroke:#000000;stroke-width:0.5;stroke-linecap:round;stroke-linejoin:round;stroke-miterlimit:10;stroke-dasharray:none;stroke-opacity:1"
             id="path3520"
             inkscape:connector-curvature="0" /></g><g
           id="g3522"
           transform="translate(196.4326,116.418)"><path
             d="m 0,0 c -0.02,-0.856 -2.053,-1.504 -4.539,-1.446 -2.488,0.058 -4.488,0.799 -4.469,1.655"
             style="fill:none;stroke:#000000;stroke-width:0.5;stroke-linecap:round;stroke-linejoin:round;stroke-miterlimit:10;stroke-dasharray:none;stroke-opacity:1"
             id="path3524"
             inkscape:connector-curvature="0" /></g><g
           id="g3526"
           transform="translate(196.373,115.2729)"><path
             d="M 0,0 0.06,1.145 C 0.079,2.001 -1.921,2.743 -4.408,2.8 -6.896,2.859 -8.929,2.211 -8.948,1.354 L -8.991,0.278"
             style="fill:none;stroke:#000000;stroke-width:1;stroke-linecap:round;stroke-linejoin:round;stroke-miterlimit:10;stroke-dasharray:none;stroke-opacity:1"
             id="path3528"
             inkscape:connector-curvature="0" /></g><g
           id="g3530"
           transform="translate(195.7998,103.626)"><path
             d="M 0,0 C -0.437,-0.238 -1.035,-0.137 -1.633,0.411 -2.633,1.327 -3.3,1.744 -3.3,1.744"
             style="fill:none;stroke:#000000;stroke-width:0.5;stroke-linecap:round;stroke-linejoin:round;stroke-miterlimit:10;stroke-dasharray:none;stroke-opacity:1"
             id="path3532"
             inkscape:connector-curvature="0" /></g><g
           id="g3534"
           transform="translate(236.7158,129.5356)"><path
             d="m 0,0 c -2.224,-0.445 -4.858,-0.671 -7.678,-0.605 -5.751,0.134 -10.677,1.444 -12.886,3.22 l -6.318,4.719 c -0.614,0.401 -1.313,0.613 -2.014,0.587"
             style="fill:none;stroke:#000000;stroke-width:0.5;stroke-linecap:round;stroke-linejoin:round;stroke-miterlimit:10;stroke-dasharray:none;stroke-opacity:1"
             id="path3536"
             inkscape:connector-curvature="0" /></g><g
           id="g3538"
           transform="translate(195.7998,103.626)"><path
             d="m 0,0 c 0.295,0.16 0.517,0.475 0.617,0.911 0.25,1.083 6.75,25.166 7.75,29.083 0.68,2.662 2.168,3.784 3.654,3.837 l 4.179,0.746"
             style="fill:none;stroke:#000000;stroke-width:1;stroke-linecap:round;stroke-linejoin:round;stroke-miterlimit:10;stroke-dasharray:none;stroke-opacity:1"
             id="path3540"
             inkscape:connector-curvature="0" /></g><g
           id="g3542"
           transform="translate(191.417,102.3701)"><path
             d="m 0,0 c 0,0 0.583,-0.5 2.75,-2.333 0.711,-0.603 1.342,-0.81 1.895,-0.728 0,0 15.355,2.978 17.355,3.311 2,0.333 2.5,0.917 3.75,3.417 1.25,2.5 8.167,18.5 8.167,18.5"
             style="fill:none;stroke:#000000;stroke-width:1;stroke-linecap:round;stroke-linejoin:round;stroke-miterlimit:10;stroke-dasharray:none;stroke-opacity:1"
             id="path3544"
             inkscape:connector-curvature="0" /></g><g
           id="g3546"
           transform="translate(207.8926,132.6016)"><path
             d="m 0,0 c -0.513,-0.207 -0.975,-0.729 -1.226,-1.648 -0.5,-1.833 -7.417,-25.917 -8.167,-28.417 -0.503,-1.68 -1.308,-3.058 -2.438,-3.227"
             style="fill:none;stroke:#000000;stroke-width:0.5;stroke-linecap:round;stroke-linejoin:round;stroke-miterlimit:10;stroke-dasharray:none;stroke-opacity:1"
             id="path3548"
             inkscape:connector-curvature="0" /></g><g
           id="g3550"
           transform="translate(237.6699,125.3511)"><path
             d="m 0,0 c -2.474,-0.649 -5.625,-1 -9.049,-0.921 -5.751,0.135 -10.678,1.445 -12.887,3.22 l -6.317,4.72 c -0.457,0.332 -1.016,0.437 -1.524,0.231"
             style="fill:none;stroke:#000000;stroke-width:1;stroke-linecap:round;stroke-linejoin:round;stroke-miterlimit:10;stroke-dasharray:none;stroke-opacity:1"
             id="path3552"
             inkscape:connector-curvature="0" /></g><g
           id="g3554"
           transform="translate(190.084,137.2031)"><path
             d="m 0,0 c 6.083,3.333 12.249,4.334 17.666,2.417 4.379,-1.549 17.959,-5.44 29.826,-3.046"
             style="fill:none;stroke:#000000;stroke-width:1;stroke-linecap:round;stroke-linejoin:round;stroke-miterlimit:10;stroke-dasharray:none;stroke-opacity:1"
             id="path3556"
             inkscape:connector-curvature="0" /></g><g
           id="g3558"
           transform="translate(180.167,117.0366)"><path
             d="M 0,0 C 0.25,8.333 3.834,16.833 9.917,20.167"
             style="fill:none;stroke:#000000;stroke-width:0.5;stroke-linecap:round;stroke-linejoin:round;stroke-miterlimit:10;stroke-dasharray:none;stroke-opacity:1"
             id="path3560"
             inkscape:connector-curvature="0" /></g><g
           id="g3562"
           transform="translate(199.334,115.8701)"><path
             d="m 0,0 c 0,0 -6.083,-6.583 -7.583,-8.167 -1.5,-1.583 -2.334,-3.5 -2.334,-6.833 l 0,-9 c 0,-1.041 0.26,-1.953 0.781,-2.104"
             style="fill:none;stroke:#000000;stroke-width:0.5;stroke-linecap:round;stroke-linejoin:round;stroke-miterlimit:10;stroke-dasharray:none;stroke-opacity:1"
             id="path3564"
             inkscape:connector-curvature="0" /></g><g
           id="g3566"
           transform="translate(185.041,95.4922)"><path
             d="M 0,0 C 1.327,1.272 1.212,3.547 -0.257,5.079 -1.725,6.614 -3.993,6.823 -5.321,5.551 -5.379,5.495 -5.419,5.428 -5.472,5.369 l -4.724,0.876 -0.178,0.049 0,2 c 0,3.334 0.834,5.25 2.334,6.834 1.5,1.583 4.666,4 4.666,4"
             style="fill:none;stroke:#000000;stroke-width:1;stroke-linecap:round;stroke-linejoin:round;stroke-miterlimit:10;stroke-dasharray:none;stroke-opacity:1"
             id="path3568"
             inkscape:connector-curvature="0" /></g><g
           id="g3570"
           transform="translate(174.8252,97.4883)"><path
             d="M 0,0 4.646,-0.889 C 4.793,-1.111 4.959,-1.326 5.151,-1.527 6.62,-3.059 8.889,-3.27 10.216,-1.996"
             style="fill:none;stroke:#000000;stroke-width:0.5;stroke-linecap:round;stroke-linejoin:round;stroke-miterlimit:10;stroke-dasharray:none;stroke-opacity:1"
             id="path3572"
             inkscape:connector-curvature="0" /></g><g
           id="g3574"
           transform="translate(185.0625,95.6118)"><path
             d="M 0,0 C -1.228,-0.307 -2.679,0.114 -3.724,1.204 -3.916,1.405 -4.082,1.62 -4.229,1.842 l -4.833,0.925 -1.334,-1.093 0,-2.499 c 0,-1.041 0.26,-1.953 0.782,-2.104 l 14.75,-2.916 c 0.312,-0.091 0.718,0.093 1.218,0.687 1.334,1.583 3.5,4.916 4.167,5.833 0.667,0.917 0.583,2.75 0.583,2.75"
             style="fill:none;stroke:#000000;stroke-width:1;stroke-linecap:round;stroke-linejoin:round;stroke-miterlimit:10;stroke-dasharray:none;stroke-opacity:1"
             id="path3576"
             inkscape:connector-curvature="0" /></g><g
           id="g3578"
           transform="translate(179.667,98.0366)"><path
             d="M 0,0 C 0,0 0.5,0.667 0.667,1.5 0.834,2.333 0.834,3.167 0.834,3.167"
             style="fill:none;stroke:#000000;stroke-width:1;stroke-linecap:round;stroke-linejoin:round;stroke-miterlimit:10;stroke-dasharray:none;stroke-opacity:1"
             id="path3580"
             inkscape:connector-curvature="0" /></g><g
           id="g3582"
           transform="translate(191.167,92.9536)"><path
             d="M 0,0 C 0,0 -0.249,6.583 -0.166,8.667 -0.083,10.75 0.75,12 1.667,13.25 c 0.917,1.25 5.5,6 5.5,6"
             style="fill:none;stroke:#000000;stroke-width:1;stroke-linecap:round;stroke-linejoin:round;stroke-miterlimit:10;stroke-dasharray:none;stroke-opacity:1"
             id="path3584"
             inkscape:connector-curvature="0" /></g><g
           id="g3586"
           transform="translate(191.667,93.1201)"><path
             d="M 0,0 C 0,0 2.167,2.917 2.667,3.5 3.167,4.083 3.25,4.917 3.25,6.083"
             style="fill:none;stroke:#000000;stroke-width:0.5;stroke-linecap:round;stroke-linejoin:round;stroke-miterlimit:10;stroke-dasharray:none;stroke-opacity:1"
             id="path3588"
             inkscape:connector-curvature="0" /></g><g
           id="g3590"
           transform="translate(219.9932,134.709)"><path
             d="M 0,0 0.039,1.6"
             style="fill:none;stroke:#000000;stroke-width:1;stroke-linecap:round;stroke-linejoin:round;stroke-miterlimit:10;stroke-dasharray:none;stroke-opacity:1"
             id="path3592"
             inkscape:connector-curvature="0" /></g><g
           id="g3594"
           transform="translate(238.3818,134.2817)"><path
             d="M 0,0 0.132,2.296"
             style="fill:none;stroke:#000000;stroke-width:1;stroke-linecap:round;stroke-linejoin:round;stroke-miterlimit:10;stroke-dasharray:none;stroke-opacity:1"
             id="path3596"
             inkscape:connector-curvature="0" /></g><g
           id="g3598"
           transform="translate(154.9473,103.9287)"><path
             d="M 0,0 C 0,0 -0.729,-0.366 -1.98,-0.994"
             style="fill:none;stroke:#000000;stroke-width:1;stroke-linecap:round;stroke-linejoin:round;stroke-miterlimit:10;stroke-dasharray:none;stroke-opacity:1"
             id="path3600"
             inkscape:connector-curvature="0" /></g><g
           id="g3602"
           transform="translate(156.4727,100.1987)"><path
             d="M 0,0 C 0,0 -1.388,-0.715 -3.619,-1.867"
             style="fill:none;stroke:#000000;stroke-width:1;stroke-linecap:round;stroke-linejoin:round;stroke-miterlimit:10;stroke-dasharray:none;stroke-opacity:1"
             id="path3604"
             inkscape:connector-curvature="0" /></g><g
           id="g3606"
           transform="translate(34.5479,48.9502)"><path
             d="m 0,0 c 0.385,19.62 -3.465,33.295 -3.465,33.295 -1.371,14.631 13,15.318 13,15.318 13,-0.687 12,-10.324 12,-10.324 -0.202,-6.186 -1.606,-8.202 -1.606,-8.202 -1.06,-3.667 3.97,-4.286 3.97,-4.286 l 72.276,16.172 c 7.985,1.947 2.11,13.583 2.11,13.583 -3.625,12.489 7.5,14.614 7.5,14.614 13.953,3.692 13.125,-12.173 13.125,-12.173 -2.75,-13.452 -0.5,-21.497 -0.5,-21.497 0.75,-3.455 -3.5,-4.397 -3.5,-4.397 L 26.285,9.728 c -4.125,-1.183 0.5,-8.808 0.5,-8.808"
             style="fill:none;stroke:#000000;stroke-width:1;stroke-linecap:round;stroke-linejoin:round;stroke-miterlimit:10;stroke-dasharray:none;stroke-opacity:1"
             id="path3608"
             inkscape:connector-curvature="0" /></g><g
           id="g3610"
           transform="translate(152.4873,99.0586)"><path
             d="M 0,0 C 1.453,0.172 2.488,0.294 2.488,0.294"
             style="fill:none;stroke:#000000;stroke-width:1;stroke-linecap:round;stroke-linejoin:round;stroke-miterlimit:10;stroke-dasharray:none;stroke-opacity:1"
             id="path3612"
             inkscape:connector-curvature="0" /></g><g
           id="g3614"
           transform="translate(152.8213,100.4717)"><path
             d="M 0,0 C 2.15,0.254 4.061,0.48 4.061,0.48"
             style="fill:none;stroke:#000000;stroke-width:1;stroke-linecap:round;stroke-linejoin:round;stroke-miterlimit:10;stroke-dasharray:none;stroke-opacity:1"
             id="path3616"
             inkscape:connector-curvature="0" /></g><g
           id="g3618"
           transform="translate(152.6719,101.8271)"><path
             d="M 0,0 C 1.874,0.222 4.224,0.5 4.224,0.5"
             style="fill:none;stroke:#000000;stroke-width:1;stroke-linecap:round;stroke-linejoin:round;stroke-miterlimit:10;stroke-dasharray:none;stroke-opacity:1"
             id="path3620"
             inkscape:connector-curvature="0" /></g><g
           id="g3622"
           transform="translate(218.417,108.5366)"><path
             d="M 0,0 C 4.553,-4.151 11.258,-5.29 17.997,-1.816"
             style="fill:none;stroke:#000000;stroke-width:1;stroke-linecap:round;stroke-linejoin:round;stroke-miterlimit:10;stroke-dasharray:none;stroke-opacity:1"
             id="path3624"
             inkscape:connector-curvature="0" /></g><g
           id="g3626"
           transform="translate(152.9355,86.958)"><path
             d="M 0,0 C 8.382,2.159 16.687,4.281 22.513,5.725"
             style="fill:none;stroke:#000000;stroke-width:1;stroke-linecap:round;stroke-linejoin:round;stroke-miterlimit:10;stroke-dasharray:none;stroke-opacity:1"
             id="path3628"
             inkscape:connector-curvature="0" /></g><g
           id="g3630"
           transform="translate(109.3711,144.7505)"><path
             d="M 0,0 -3.75,2.75"
             style="fill:none;stroke:#000000;stroke-width:0.5;stroke-linecap:round;stroke-linejoin:round;stroke-miterlimit:10;stroke-dasharray:none;stroke-opacity:1"
             id="path3632"
             inkscape:connector-curvature="0" /></g><g
           id="g3634"
           transform="translate(103.4595,137.3379)"><path
             d="M 0,0 -3.75,2.75"
             style="fill:none;stroke:#000000;stroke-width:0.5;stroke-linecap:round;stroke-linejoin:round;stroke-miterlimit:10;stroke-dasharray:none;stroke-opacity:1"
             id="path3636"
             inkscape:connector-curvature="0" /></g><g
           id="g3638"
           transform="translate(75.519,123.6152)"><path
             d="m 0,0 c -8.125,8.938 -3.897,26.013 9.44,38.138 13.339,12.128 30.737,14.714 38.862,5.777"
             style="fill:none;stroke:#000000;stroke-width:1;stroke-linecap:round;stroke-linejoin:round;stroke-miterlimit:10;stroke-dasharray:none;stroke-opacity:1"
             id="path3640"
             inkscape:connector-curvature="0" /></g><g
           id="g3642"
           transform="translate(23.8394,76.3008)"><path
             d="m 0,0 c 2.105,0.915 3.479,3.111 3.479,7.78 0,4.669 3.569,10.436 14.463,14.647 10.893,4.211 18.949,0 19.315,-6.499 C 37.624,9.429 35.701,7.323 31.765,5.492"
             style="fill:none;stroke:#000000;stroke-width:0.5;stroke-linecap:round;stroke-linejoin:round;stroke-miterlimit:10;stroke-dasharray:none;stroke-opacity:1"
             id="path3644"
             inkscape:connector-curvature="0" /></g><g
           id="g3646"
           transform="translate(126.583,99.5366)"><path
             d="M 0,0 C 4.167,3.667 2.044,7.134 6.167,13.833 11.5,22.5 19.833,24.5 25,20.667 30.167,16.833 29.167,10 29.167,10"
             style="fill:none;stroke:#000000;stroke-width:0.5;stroke-linecap:round;stroke-linejoin:round;stroke-miterlimit:10;stroke-dasharray:none;stroke-opacity:1"
             id="path3648"
             inkscape:connector-curvature="0" /></g><g
           id="g3650"
           transform="translate(37.0918,48.374)"><path
             d="m 0,0 c -1.634,5.871 -1.728,14.533 -1.728,14.533 -0.559,12.321 -2.531,17.713 -2.531,17.713 -1.562,10.094 3,13 3,13 4.469,3.469 9.152,3.879 9.152,3.879"
             style="fill:none;stroke:#000000;stroke-width:0.5;stroke-linecap:round;stroke-linejoin:round;stroke-miterlimit:10;stroke-dasharray:none;stroke-opacity:1"
             id="path3652"
             inkscape:connector-curvature="0" /></g><g
           id="g3654"
           transform="translate(73.1289,61.5264)"><path
             d="m 0,0 c 0.43,-0.634 0.818,-1.316 1.155,-2.043 2.777,-5.98 1.068,-12.666 -3.816,-14.934 -2.769,-1.285 -5.964,-0.875 -8.718,0.812"
             style="fill:none;stroke:#000000;stroke-width:1;stroke-linecap:round;stroke-linejoin:round;stroke-miterlimit:10;stroke-dasharray:none;stroke-opacity:1"
             id="path3656"
             inkscape:connector-curvature="0" /></g><g
           id="g3658"
           transform="translate(105.2158,85.4932)"><path
             d="m 0,0 c 0.633,2.863 2.317,5.251 4.867,6.435 3.71,1.722 8.185,0.399 11.339,-2.957"
             style="fill:none;stroke:#000000;stroke-width:1;stroke-linecap:round;stroke-linejoin:round;stroke-miterlimit:10;stroke-dasharray:none;stroke-opacity:1"
             id="path3660"
             inkscape:connector-curvature="0" /></g><g
           id="g3662"
           transform="translate(124.3447,74.6846)"><path
             d="m 0,0 c -0.859,-1.945 -2.289,-3.52 -4.209,-4.411 -2.472,-1.149 -5.283,-0.944 -7.817,0.313"
             style="fill:none;stroke:#000000;stroke-width:1;stroke-linecap:round;stroke-linejoin:round;stroke-miterlimit:10;stroke-dasharray:none;stroke-opacity:1"
             id="path3664"
             inkscape:connector-curvature="0" /></g><g
           id="g3666"
           transform="translate(93.7676,66.7285)"><path
             d="m 0,0 c 1.251,-5.172 -0.605,-10.303 -4.763,-12.232 -1.692,-0.786 -3.542,-0.938 -5.355,-0.553"
             style="fill:none;stroke:#000000;stroke-width:1;stroke-linecap:round;stroke-linejoin:round;stroke-miterlimit:10;stroke-dasharray:none;stroke-opacity:1"
             id="path3668"
             inkscape:connector-curvature="0" /></g><g
           id="g3670"
           transform="translate(112.0688,70.9766)"><path
             d="M 0,0 C -0.523,-3.12 -2.259,-5.754 -4.98,-7.018 -6.895,-7.906 -9.014,-7.984 -11.049,-7.39"
             style="fill:none;stroke:#000000;stroke-width:1;stroke-linecap:round;stroke-linejoin:round;stroke-miterlimit:10;stroke-dasharray:none;stroke-opacity:1"
             id="path3672"
             inkscape:connector-curvature="0" /></g><g
           id="g3674"
           transform="translate(93.9248,83.0811)"><path
             d="m 0,0 c 0.813,1.077 1.858,1.95 3.111,2.532 2.456,1.141 5.248,0.947 7.77,-0.29"
             style="fill:none;stroke:#000000;stroke-width:1;stroke-linecap:round;stroke-linejoin:round;stroke-miterlimit:10;stroke-dasharray:none;stroke-opacity:1"
             id="path3676"
             inkscape:connector-curvature="0" /></g><g
           id="g3678"
           transform="translate(76.1221,62.3408)"><path
             d="M 0,0 C 0.303,-0.418 0.582,-0.886 0.823,-1.394 1.879,-3.609 1.897,-5.885 0.97,-6.963"
             style="fill:none;stroke:#000000;stroke-width:1;stroke-linecap:round;stroke-linejoin:round;stroke-miterlimit:10;stroke-dasharray:none;stroke-opacity:1"
             id="path3680"
             inkscape:connector-curvature="0" /></g><g
           id="g3682"
           transform="translate(96.6846,67.7764)"><path
             d="M 0,0 C 0.165,-1.303 -0.066,-2.436 -0.671,-3.087"
             style="fill:none;stroke:#000000;stroke-width:1;stroke-linecap:round;stroke-linejoin:round;stroke-miterlimit:10;stroke-dasharray:none;stroke-opacity:1"
             id="path3684"
             inkscape:connector-curvature="0" /></g><g
           id="g3686"
           transform="translate(121.0942,88.6162)"><path
             d="M 0,0 C 0.21,0.534 0.548,0.94 1.007,1.159 1.688,1.483 2.519,1.34 3.34,0.841"
             style="fill:none;stroke:#000000;stroke-width:1;stroke-linecap:round;stroke-linejoin:round;stroke-miterlimit:10;stroke-dasharray:none;stroke-opacity:1"
             id="path3688"
             inkscape:connector-curvature="0" /></g><g
           id="g3690"
           transform="translate(74.4556,48.4961)"><path
             d="M 0,0 2.628,6.881"
             style="fill:none;stroke:#000000;stroke-width:1;stroke-linecap:round;stroke-linejoin:round;stroke-miterlimit:10;stroke-dasharray:none;stroke-opacity:1"
             id="path3692"
             inkscape:connector-curvature="0" /></g><g
           id="g3694"
           transform="translate(77.084,55.6201)"><path
             d="M 0,0 7.349,-1.809"
             style="fill:none;stroke:#000000;stroke-width:1;stroke-linecap:round;stroke-linejoin:round;stroke-miterlimit:10;stroke-dasharray:none;stroke-opacity:1"
             id="path3696"
             inkscape:connector-curvature="0" /></g><g
           id="g3698"
           transform="translate(92.6865,57.8828)"><path
             d="M 0,0 3.431,6.934"
             style="fill:none;stroke:#000000;stroke-width:1;stroke-linecap:round;stroke-linejoin:round;stroke-miterlimit:10;stroke-dasharray:none;stroke-opacity:1"
             id="path3700"
             inkscape:connector-curvature="0" /></g><g
           id="g3702"
           transform="translate(95.833,64.8164)"><path
             d="M 0,0 6.842,-1.561"
             style="fill:none;stroke:#000000;stroke-width:1;stroke-linecap:round;stroke-linejoin:round;stroke-miterlimit:10;stroke-dasharray:none;stroke-opacity:1"
             id="path3704"
             inkscape:connector-curvature="0" /></g><g
           id="g3706"
           transform="translate(110.6543,67.1533)"><path
             d="M 0,0 C 0,0 1.238,2.422 2.234,4.372"
             style="fill:none;stroke:#000000;stroke-width:1;stroke-linecap:round;stroke-linejoin:round;stroke-miterlimit:10;stroke-dasharray:none;stroke-opacity:1"
             id="path3708"
             inkscape:connector-curvature="0" /></g><g
           id="g3710"
           transform="translate(59.5825,57.7402)"><path
             d="M 0,0 C 1.217,-0.413 2.52,-1.697 3.369,-3.481 4.616,-6.099 4.415,-8.799 2.918,-9.512 2.702,-9.614 2.47,-9.671 2.229,-9.683"
             style="fill:none;stroke:#000000;stroke-width:1;stroke-linecap:round;stroke-linejoin:round;stroke-miterlimit:10;stroke-dasharray:none;stroke-opacity:1"
             id="path3712"
             inkscape:connector-curvature="0" /></g><g
           id="g3714"
           transform="translate(63.458,48.7773)"><path
             d="M 0,0 -1.815,-1.312"
             style="fill:none;stroke:#000000;stroke-width:1;stroke-linecap:round;stroke-linejoin:round;stroke-miterlimit:10;stroke-dasharray:none;stroke-opacity:1"
             id="path3716"
             inkscape:connector-curvature="0" /></g><g
           id="g3718"
           transform="translate(25.9546,49.9424)"><path
             d="m 0,0 c 0.434,0.358 0.917,0.643 1.448,0.842 4.06,1.523 9.334,-2.524 11.779,-9.039 2.041,-5.439 1.466,-10.876 -1.141,-13.413"
             style="fill:none;stroke:#000000;stroke-width:1.13199997;stroke-linecap:butt;stroke-linejoin:miter;stroke-miterlimit:10;stroke-dasharray:none;stroke-opacity:1"
             id="path3720"
             inkscape:connector-curvature="0" /></g><g
           id="g3722"
           transform="translate(17.9023,41.9639)"><path
             d="m 0,0 c 0.348,3.173 1.767,5.65 4.074,6.517 4.061,1.523 9.335,-2.524 11.78,-9.039 2.445,-6.517 1.135,-13.033 -2.926,-14.557 -1.949,-0.732 -4.177,-0.181 -6.237,1.31"
             style="fill:none;stroke:#000000;stroke-width:1.13199997;stroke-linecap:butt;stroke-linejoin:miter;stroke-miterlimit:10;stroke-dasharray:none;stroke-opacity:1"
             id="path3724"
             inkscape:connector-curvature="0" /></g><g
           id="g3726"
           transform="translate(21.2256,48.1221)"><path
             d="M 0,0 C 0,0 5.954,2.265 8.117,3.088"
             style="fill:none;stroke:#000000;stroke-width:1;stroke-linecap:round;stroke-linejoin:round;stroke-miterlimit:10;stroke-dasharray:none;stroke-opacity:1"
             id="path3728"
             inkscape:connector-curvature="0" /></g><g
           id="g3730"
           transform="translate(30.4995,24.5635)"><path
             d="M 0,0 7.417,3.807"
             style="fill:none;stroke:#000000;stroke-width:1;stroke-linecap:round;stroke-linejoin:round;stroke-miterlimit:10;stroke-dasharray:none;stroke-opacity:1"
             id="path3732"
             inkscape:connector-curvature="0" /></g></g></g><g
       id="g3734"><g
         id="g3736"
         clip-path="url(#clipPath3738)"><text
           transform="matrix(1,0,0,-1,1.9985,1.4863)"
           style="font-variant:normal;font-weight:normal;font-stretch:normal;font-size:4px;font-family:'Swiss 721 SWA';-inkscape-font-specification:Helvetica;writing-mode:lr-tb;fill:#231f20;fill-opacity:1;fill-rule:nonzero;stroke:none"
           id="text3742"><tspan
             x="0 2 2.888 4.888"
             y="0"
             sodipodi:role="line"
             id="tspan3744">cixi</tspan></text>
</g></g><g
       id="g3746"
       transform="translate(155.083,140.1201)"><path
         d="M 0,0 6.667,-33.417"
         style="fill:none;stroke:#ffffff;stroke-width:3;stroke-linecap:round;stroke-linejoin:miter;stroke-miterlimit:4;stroke-dasharray:none;stroke-opacity:1"
         id="path3748"
         inkscape:connector-curvature="0" /></g><g
       id="g3750"
       transform="translate(161.75,106.7036)"><path
         d="M 0,0 0,0"
         style="fill:none;stroke:#ffffff;stroke-width:3.75;stroke-linecap:round;stroke-linejoin:miter;stroke-miterlimit:4;stroke-dasharray:none;stroke-opacity:1"
         id="path3752"
         inkscape:connector-curvature="0" /></g><g
       id="g3754"
       transform="translate(155.083,140.1201)"><path
         d="M 0,0 6.667,-33.417"
         style="fill:none;stroke:#211f1f;stroke-width:0.5;stroke-linecap:round;stroke-linejoin:miter;stroke-miterlimit:4;stroke-dasharray:none;stroke-opacity:1"
         id="path3756"
         inkscape:connector-curvature="0" /></g><g
       id="g3758"
       transform="translate(161.75,106.7036)"><path
         d="M 0,0 0,0"
         style="fill:none;stroke:#211f1f;stroke-width:1.5;stroke-linecap:round;stroke-linejoin:miter;stroke-miterlimit:4;stroke-dasharray:none;stroke-opacity:1"
         id="path3760"
         inkscape:connector-curvature="0" /></g><text
       transform="matrix(1,0,0,-1,152.2202,141.9307)"
       style="font-variant:normal;font-weight:bold;font-stretch:normal;font-size:10px;font-family:'Swiss 721 SWA';-inkscape-font-specification:Helvetica-Bold;writing-mode:lr-tb;fill:#231f20;fill-opacity:1;fill-rule:nonzero;stroke:none"
       id="text3762"><tspan
         x="0"
         y="0"
         id="tspan3764">1</tspan></text>
<g
       id="g3766"
       transform="translate(215.084,74.7861)"><path
         d="M 0,0 -26.334,23.25"
         style="fill:none;stroke:#ffffff;stroke-width:3;stroke-linecap:round;stroke-linejoin:miter;stroke-miterlimit:4;stroke-dasharray:none;stroke-opacity:1"
         id="path3768"
         inkscape:connector-curvature="0" /></g><g
       id="g3770"
       transform="translate(188.75,98.0366)"><path
         d="M 0,0 0,0"
         style="fill:none;stroke:#ffffff;stroke-width:3.75;stroke-linecap:round;stroke-linejoin:miter;stroke-miterlimit:4;stroke-dasharray:none;stroke-opacity:1"
         id="path3772"
         inkscape:connector-curvature="0" /></g><g
       id="g3774"
       transform="translate(215.084,74.7861)"><path
         d="M 0,0 -26.334,23.25"
         style="fill:none;stroke:#211f1f;stroke-width:0.5;stroke-linecap:round;stroke-linejoin:miter;stroke-miterlimit:4;stroke-dasharray:none;stroke-opacity:1"
         id="path3776"
         inkscape:connector-curvature="0" /></g><g
       id="g3778"
       transform="translate(188.75,98.0366)"><path
         d="M 0,0 0,0"
         style="fill:none;stroke:#211f1f;stroke-width:1.5;stroke-linecap:round;stroke-linejoin:miter;stroke-miterlimit:4;stroke-dasharray:none;stroke-opacity:1"
         id="path3780"
         inkscape:connector-curvature="0" /></g><text
       transform="matrix(1,0,0,-1,214.8872,67.9297)"
       style="font-variant:normal;font-weight:bold;font-stretch:normal;font-size:10px;font-family:'Swiss 721 SWA';-inkscape-font-specification:Helvetica-Bold;writing-mode:lr-tb;fill:#231f20;fill-opacity:1;fill-rule:nonzero;stroke:none"
       id="text3782"><tspan
         x="0"
         y="0"
         id="tspan3784">2</tspan></text>
</g></svg>