<?xml version="1.0" encoding="UTF-8" standalone="no"?>
<!-- Created with Inkscape (http://www.inkscape.org/) -->

<svg
   xmlns:dc="http://purl.org/dc/elements/1.1/"
   xmlns:cc="http://creativecommons.org/ns#"
   xmlns:rdf="http://www.w3.org/1999/02/22-rdf-syntax-ns#"
   xmlns:svg="http://www.w3.org/2000/svg"
   xmlns="http://www.w3.org/2000/svg"
   xmlns:sodipodi="http://sodipodi.sourceforge.net/DTD/sodipodi-0.dtd"
   xmlns:inkscape="http://www.inkscape.org/namespaces/inkscape"
   id="svg4218"
   version="1.1"
   inkscape:version="0.91 r13725"
   xml:space="preserve"
   width="301.18124"
   height="230.315"
   viewBox="0 0 301.18124 230.315"
   sodipodi:docname="cduc.svg"><metadata
     id="metadata4224"><rdf:RDF><cc:Work
         rdf:about=""><dc:format>image/svg+xml</dc:format><dc:type
           rdf:resource="http://purl.org/dc/dcmitype/StillImage" /><dc:title></dc:title></cc:Work></rdf:RDF></metadata><defs
     id="defs4222"><clipPath
       clipPathUnits="userSpaceOnUse"
       id="clipPath4236"><path
         d="m 1.909,1 236.155,0 0,180.589 -236.155,0 L 1.909,1 Z"
         id="path4238"
         inkscape:connector-curvature="0" /></clipPath><clipPath
       clipPathUnits="userSpaceOnUse"
       id="clipPath4320"><path
         d="m 4.29248,9.11523 10.35012,0 0,-5.3125 -10.35012,0 0,5.3125 z"
         id="path4322"
         inkscape:connector-curvature="0" /></clipPath><clipPath
       clipPathUnits="userSpaceOnUse"
       id="clipPath4324"><path
         d="m 4.29248,9.11523 2.4502,0 0,-5.3125 -2.4502,0 0,5.3125 z"
         id="path4326"
         inkscape:connector-curvature="0" /></clipPath><clipPath
       clipPathUnits="userSpaceOnUse"
       id="clipPath4328"><path
         d="m 6.74268,9.11523 2.72461,0 0,-5.3125 -2.72461,0 0,5.3125 z"
         id="path4330"
         inkscape:connector-curvature="0" /></clipPath><clipPath
       clipPathUnits="userSpaceOnUse"
       id="clipPath4332"><path
         d="m 9.46826,9.11523 2.72464,0 0,-5.3125 -2.72464,0 0,5.3125 z"
         id="path4334"
         inkscape:connector-curvature="0" /></clipPath><clipPath
       clipPathUnits="userSpaceOnUse"
       id="clipPath4336"><path
         d="m 12.1924,9.11523 2.4502,0 0,-5.3125 -2.4502,0 0,5.3125 z"
         id="path4338"
         inkscape:connector-curvature="0" /></clipPath><clipPath
       clipPathUnits="userSpaceOnUse"
       id="clipPath4396"><path
         d="m 0,184.252 240.945,0 L 240.945,0 0,0 0,184.252 Z"
         id="path4398"
         inkscape:connector-curvature="0" /></clipPath><clipPath
       clipPathUnits="userSpaceOnUse"
       id="clipPath4432"><path
         d="m 0,184.252 240.945,0 L 240.945,0 0,0 0,184.252 Z"
         id="path4434"
         inkscape:connector-curvature="0" /></clipPath><clipPath
       clipPathUnits="userSpaceOnUse"
       id="clipPath4456"><path
         d="m 0,184.252 240.945,0 L 240.945,0 0,0 0,184.252 Z"
         id="path4458"
         inkscape:connector-curvature="0" /></clipPath><clipPath
       clipPathUnits="userSpaceOnUse"
       id="clipPath4484"><path
         d="m 0,184.252 240.945,0 L 240.945,0 0,0 0,184.252 Z"
         id="path4486"
         inkscape:connector-curvature="0" /></clipPath><clipPath
       clipPathUnits="userSpaceOnUse"
       id="clipPath4512"><path
         d="m 0,184.252 240.945,0 L 240.945,0 0,0 0,184.252 Z"
         id="path4514"
         inkscape:connector-curvature="0" /></clipPath></defs><sodipodi:namedview
     pagecolor="#ffffff"
     bordercolor="#666666"
     borderopacity="1"
     objecttolerance="10"
     gridtolerance="10"
     guidetolerance="10"
     inkscape:pageopacity="0"
     inkscape:pageshadow="2"
     inkscape:window-width="640"
     inkscape:window-height="480"
     id="namedview4220"
     showgrid="false"
     inkscape:zoom="4.2072813"
     inkscape:cx="150.59062"
     inkscape:cy="115.1575"
     inkscape:window-x="0"
     inkscape:window-y="0"
     inkscape:window-maximized="1"
     inkscape:current-layer="g4226" /><g
     id="g4226"
     inkscape:groupmode="layer"
     inkscape:label="cduc"
     transform="matrix(1.25,0,0,-1.25,0,230.315)"><g
       id="g4228"
       transform="translate(120.2192,172.2974)"><path
         d="M 0,0 -0.003,-166.696"
         style="fill:none;stroke:#000000;stroke-width:1.5;stroke-linecap:round;stroke-linejoin:round;stroke-miterlimit:4;stroke-dasharray:none;stroke-opacity:1"
         id="path4230"
         inkscape:connector-curvature="0" /></g><g
       id="g4232"><g
         id="g4234"
         clip-path="url(#clipPath4236)"><g
           id="g4240"
           transform="translate(102.3286,31.7871)"><path
             d="m 0,0 c 2.916,3.205 4.901,9.131 4.945,15.945 0.042,6.813 -1.87,12.764 -4.746,16.004 l 0,0.018 c -0.041,0.045 -0.084,0.084 -0.125,0.131 -0.12,0.127 -0.24,0.25 -0.362,0.369 -3.518,3.5 -7.641,3.666 -7.837,3.701 -0.309,0.051 -10.763,0.053 -10.992,0.076 -0.29,0.031 -0.588,-0.074 -0.811,-0.308 l -8.197,-8.709 c -0.397,-0.422 -0.725,-1.463 -0.731,-2.311 l -0.111,-17.52 c -0.005,-0.849 0.312,-1.894 0.704,-2.322 l 8.087,-8.806 c 0.196,-0.215 0.455,-0.325 0.716,-0.325 0.26,0 10.654,-0.062 10.907,-0.068 0.24,-0.006 3.925,0.131 7.365,2.998 0.063,0.051 0.124,0.107 0.187,0.16 0.15,0.129 0.298,0.26 0.448,0.403 0.143,0.134 0.286,0.271 0.426,0.419 0.042,0.043 0.085,0.083 0.127,0.129 L 0,0 Z"
             style="fill:none;stroke:#000000;stroke-width:1.5;stroke-linecap:round;stroke-linejoin:round;stroke-miterlimit:4;stroke-dasharray:none;stroke-opacity:1"
             id="path4242"
             inkscape:connector-curvature="0" /></g><g
           id="g4244"
           transform="translate(87.6709,47.8555)"><path
             d="m 0,0 c -0.064,-10.242 4.271,-18.57 9.685,-18.604 5.413,-0.033 9.853,8.241 9.918,18.481 0.063,10.238 -4.273,18.566 -9.686,18.6 C 4.503,18.512 0.063,10.238 0,0 Z"
             style="fill:none;stroke:#000000;stroke-width:0.5;stroke-linecap:round;stroke-linejoin:round;stroke-miterlimit:4;stroke-dasharray:none;stroke-opacity:1"
             id="path4246"
             inkscape:connector-curvature="0" /></g><g
           id="g4248"
           transform="translate(74.207,59.5391)"><path
             d="m 0,0 -3.625,0.023 c -3.387,0.022 -6.165,-5.156 -6.205,-11.562 -0.04,-6.406 2.673,-11.615 6.059,-11.639 l 3.626,-0.023"
             style="fill:none;stroke:#000000;stroke-width:1.5;stroke-linecap:round;stroke-linejoin:round;stroke-miterlimit:4;stroke-dasharray:none;stroke-opacity:1"
             id="path4250"
             inkscape:connector-curvature="0" /></g><g
           id="g4252"
           transform="translate(102.5278,63.7539)"><path
             d="m 0,0 c -3.61,3.998 -8.119,4.164 -8.324,4.201 -0.309,0.051 0.35,-1.113 -3.371,-5.068 -3.721,-3.953 -6.189,-3.344 -6.2,-4.881 -0.009,-1.535 1.748,-1.221 1.692,-10.063 -0.055,-8.841 -1.849,-8.509 -1.859,-10.068 -0.01,-1.558 1.761,-0.281 6.178,-5.092 4.417,-4.81 2.879,-5.115 3.132,-5.121 0.267,-0.008 4.832,0.153 8.553,4.11"
             style="fill:none;stroke:#000000;stroke-width:0.5;stroke-linecap:round;stroke-linejoin:round;stroke-miterlimit:4;stroke-dasharray:none;stroke-opacity:1"
             id="path4254"
             inkscape:connector-curvature="0" /></g><g
           id="g4256"
           transform="translate(83.5674,58.0117)"><path
             d="M 0,0 -8.167,0.053"
             style="fill:none;stroke:#000000;stroke-width:0.5;stroke-linecap:round;stroke-linejoin:round;stroke-miterlimit:4;stroke-dasharray:none;stroke-opacity:1"
             id="path4258"
             inkscape:connector-curvature="0" /></g><g
           id="g4260"
           transform="translate(83.5229,37.5898)"><path
             d="M 0,0 -8.168,0.051"
             style="fill:none;stroke:#000000;stroke-width:0.5;stroke-linecap:round;stroke-linejoin:round;stroke-miterlimit:4;stroke-dasharray:none;stroke-opacity:1"
             id="path4262"
             inkscape:connector-curvature="0" /></g><g
           id="g4264"
           transform="translate(191.3271,65.5264)"><path
             d="m 0,0 c -2.711,2.71 -6.021,4.14 -9.383,3.688 -7.174,-0.962 -11.862,-10.115 -10.476,-20.443 1.385,-10.332 8.322,-17.926 15.495,-16.965 2.388,0.322 4.502,1.55 6.207,3.428"
             style="fill:none;stroke:#000000;stroke-width:0.5;stroke-linecap:round;stroke-linejoin:round;stroke-miterlimit:4;stroke-dasharray:none;stroke-opacity:1"
             id="path4266"
             inkscape:connector-curvature="0" /></g><g
           id="g4268"
           transform="translate(80.0454,65.2188)"><path
             d="m 0,0 -8.435,5.514 c -1.476,0.761 -3.015,1.091 -4.559,0.914 0,0 -8.693,-1.653 -11.654,6.107 -2.961,7.754 -35.806,94.547 -35.806,94.547"
             style="fill:none;stroke:#000000;stroke-width:1.5;stroke-linecap:round;stroke-linejoin:round;stroke-miterlimit:4;stroke-dasharray:none;stroke-opacity:1"
             id="path4270"
             inkscape:connector-curvature="0" /></g><g
           id="g4272"
           transform="translate(72.4556,25.1289)"><path
             d="m 0,0 c -7.031,-0.818 -13.938,8.934 -15.43,21.779 -1.491,12.844 2.997,23.92 10.026,24.739"
             style="fill:none;stroke:#000000;stroke-width:0.5;stroke-linecap:round;stroke-linejoin:round;stroke-miterlimit:4;stroke-dasharray:none;stroke-opacity:1"
             id="path4274"
             inkscape:connector-curvature="0" /></g><g
           id="g4276"
           transform="translate(79.3003,30.2383)"><path
             d="m 0,0 c -1.762,-2.922 -4.112,-4.793 -6.845,-5.109 0,0 -2.628,-0.057 -6.926,-0.03 -4.3,0.026 -13.261,-0.992 -20.596,6.434 C -41.7,8.721 -55.01,22.773 -61.236,35.566 -67.459,48.359 -77.16,69.339 -77.16,69.339"
             style="fill:none;stroke:#000000;stroke-width:1.5;stroke-linecap:round;stroke-linejoin:round;stroke-miterlimit:4;stroke-dasharray:none;stroke-opacity:1"
             id="path4278"
             inkscape:connector-curvature="0" /></g><g
           id="g4280"
           transform="translate(49.8491,47.1914)"><path
             d="M 0,0 C 0,0 1.047,10.775 7.229,19.559"
             style="fill:none;stroke:#000000;stroke-width:0.5;stroke-linecap:round;stroke-linejoin:round;stroke-miterlimit:4;stroke-dasharray:none;stroke-opacity:1"
             id="path4282"
             inkscape:connector-curvature="0" /></g><g
           id="g4284"
           transform="translate(120.2188,103.8228)"><path
             d="m 0,0 c 10.848,-15.061 29.618,-40.727 29.964,-43.317 0.348,-2.592 -1.493,-7.287 -0.495,-14.736 0.999,-7.447 5.801,-18.668 16.864,-18.832 8.823,-0.133 21.165,0.943 27.139,7.828"
             style="fill:none;stroke:#000000;stroke-width:1.5;stroke-linecap:round;stroke-linejoin:round;stroke-miterlimit:4;stroke-dasharray:none;stroke-opacity:1"
             id="path4286"
             inkscape:connector-curvature="0" /></g><g
           id="g4288"
           transform="translate(145.5469,166.354)"><path
             d="m 0,0 c 0,0 42.917,-90.446 45.842,-93.565 1.355,-1.444 2.452,-2.564 3.328,-3.428"
             style="fill:none;stroke:#000000;stroke-width:1.5;stroke-linecap:round;stroke-linejoin:round;stroke-miterlimit:4;stroke-dasharray:none;stroke-opacity:1"
             id="path4290"
             inkscape:connector-curvature="0" /></g><g
           id="g4292"
           transform="translate(177.9336,98.9849)"><path
             d="M 0,0 28.584,-28.057"
             style="fill:none;stroke:#000000;stroke-width:1.5;stroke-linecap:round;stroke-linejoin:round;stroke-miterlimit:4;stroke-dasharray:none;stroke-opacity:1"
             id="path4294"
             inkscape:connector-curvature="0" /></g><g
           id="g4296"
           transform="translate(188.8398,30.9707)"><path
             d="M 0,0 49.454,-13.891"
             style="fill:none;stroke:#000000;stroke-width:1.5;stroke-linecap:round;stroke-linejoin:round;stroke-miterlimit:4;stroke-dasharray:none;stroke-opacity:1"
             id="path4298"
             inkscape:connector-curvature="0" /></g><g
           id="g4300"
           transform="translate(193.7939,172.2964)"><path
             d="M 0,0 C 0,0 22.876,-36.404 44.502,-65.997"
             style="fill:none;stroke:#000000;stroke-width:1.5;stroke-linecap:round;stroke-linejoin:round;stroke-miterlimit:4;stroke-dasharray:none;stroke-opacity:1"
             id="path4302"
             inkscape:connector-curvature="0" /></g><g
           id="g4304"
           transform="translate(170.4121,172.2964)"><path
             d="M 0,0 67.884,-86.742"
             style="fill:none;stroke:#000000;stroke-width:0.5;stroke-linecap:round;stroke-linejoin:round;stroke-miterlimit:4;stroke-dasharray:none;stroke-opacity:1"
             id="path4306"
             inkscape:connector-curvature="0" /></g><g
           id="g4308"
           transform="translate(155.0381,63.6289)"><path
             d="m 0,0 c 0,0 14.084,12.258 27.748,8.172 13.662,-4.086 6.597,-3.731 -0.571,11.627 -7.169,15.353 -42.631,88.06 -42.631,88.06"
             style="fill:none;stroke:#000000;stroke-width:0.5;stroke-linecap:round;stroke-linejoin:round;stroke-miterlimit:4;stroke-dasharray:none;stroke-opacity:1"
             id="path4310"
             inkscape:connector-curvature="0" /></g><g
           id="g4312"
           transform="translate(163.7832,49.4219)"><path
             d="m 0,0 c -0.297,-1.182 0.421,-2.379 1.602,-2.676 1.179,-0.297 2.377,0.42 2.674,1.602 C 4.573,0.107 3.855,1.305 2.675,1.602 1.493,1.898 0.297,1.18 0,0 Z"
             style="fill:none;stroke:#ffffff;stroke-width:1;stroke-linecap:butt;stroke-linejoin:miter;stroke-miterlimit:4;stroke-dasharray:none;stroke-opacity:1"
             id="path4314"
             inkscape:connector-curvature="0" /></g><g
           id="g4316"><g
             id="g4318" /><g
             id="g4340"><g
               clip-path="url(#clipPath4320)"
               id="g4342"><g
                 id="g4344"><g
                   id="g4346" /><g
                   id="g4348"><g
                     clip-path="url(#clipPath4324)"
                     id="g4350"><text
                       transform="matrix(1,0,0,-1,4.2925,4.9053)"
                       style="font-variant:normal;font-weight:normal;font-stretch:normal;font-size:4.90059996px;font-family:Helvetica;-inkscape-font-specification:Helvetica;writing-mode:lr-tb;fill:#000000;fill-opacity:1;fill-rule:nonzero;stroke:none"
                       id="text4352"><tspan
                         x="0"
                         y="0"
                         id="tspan4354">c</tspan></text>
</g></g></g><g
                 id="g4356"><g
                   id="g4358" /><g
                   id="g4360"><g
                     clip-path="url(#clipPath4328)"
                     id="g4362"><text
                       transform="matrix(1,0,0,-1,6.7427,4.9053)"
                       style="font-variant:normal;font-weight:normal;font-stretch:normal;font-size:4.90059996px;font-family:Helvetica;-inkscape-font-specification:Helvetica;writing-mode:lr-tb;fill:#000000;fill-opacity:1;fill-rule:nonzero;stroke:none"
                       id="text4364"><tspan
                         x="0"
                         y="0"
                         id="tspan4366">d</tspan></text>
</g></g></g><g
                 id="g4368"><g
                   id="g4370" /><g
                   id="g4372"><g
                     clip-path="url(#clipPath4332)"
                     id="g4374"><text
                       transform="matrix(1,0,0,-1,9.4683,4.9053)"
                       style="font-variant:normal;font-weight:normal;font-stretch:normal;font-size:4.90059996px;font-family:Helvetica;-inkscape-font-specification:Helvetica;writing-mode:lr-tb;fill:#000000;fill-opacity:1;fill-rule:nonzero;stroke:none"
                       id="text4376"><tspan
                         x="0"
                         y="0"
                         id="tspan4378">u</tspan></text>
</g></g></g><g
                 id="g4380"><g
                   id="g4382" /><g
                   id="g4384"><g
                     clip-path="url(#clipPath4336)"
                     id="g4386"><text
                       transform="matrix(1,0,0,-1,12.1924,4.9053)"
                       style="font-variant:normal;font-weight:normal;font-stretch:normal;font-size:4.90059996px;font-family:Helvetica;-inkscape-font-specification:Helvetica;writing-mode:lr-tb;fill:#000000;fill-opacity:1;fill-rule:nonzero;stroke:none"
                       id="text4388"><tspan
                         x="0"
                         y="0"
                         id="tspan4390">c</tspan></text>
</g></g></g></g></g></g></g></g><g
       id="g4392"><g
         id="g4394"
         clip-path="url(#clipPath4396)"><g
           id="g4400"
           transform="translate(217.168,35.2803)"><path
             d="M 0,0 C 2.777,3.325 4.512,9.33 4.266,16.141 4.02,22.948 1.858,28.813 -1.153,31.929 l -10e-4,0.017 c -0.043,0.043 -0.087,0.081 -0.13,0.126 -0.125,0.121 -0.251,0.24 -0.377,0.354 -3.662,3.347 -7.79,3.339 -7.986,3.366 -0.312,0.037 -10.756,-0.403 -10.986,-0.39 -0.291,0.02 -0.586,-0.098 -0.798,-0.342 l -7.821,-9.048 c -0.379,-0.439 -0.662,-1.492 -0.632,-2.34 l 0.63,-17.508 c 0.031,-0.85 0.393,-1.88 0.802,-2.291 L -20,-4.583 c 0.204,-0.206 0.469,-0.305 0.73,-0.294 0.259,0.012 10.647,0.389 10.9,0.394 0.24,0.004 3.915,0.296 7.231,3.307 0.062,0.053 0.119,0.113 0.181,0.168 0.144,0.135 0.286,0.272 0.43,0.421 0.136,0.141 0.275,0.283 0.407,0.438 0.04,0.044 0.082,0.085 0.122,0.133 L 0,0 Z"
             style="fill:none;stroke:#000000;stroke-width:1.5;stroke-linecap:round;stroke-linejoin:round;stroke-miterlimit:4;stroke-dasharray:none;stroke-opacity:1"
             id="path4402"
             inkscape:connector-curvature="0" /></g><g
           id="g4404"
           transform="translate(201.8437,50.7139)"><path
             d="m 0,0 c 0.37,-10.235 5.053,-18.373 10.463,-18.177 5.41,0.196 9.496,8.65 9.127,18.884 C 19.221,10.938 14.535,19.075 9.126,18.88 3.716,18.686 -0.37,10.231 0,0 Z"
             style="fill:none;stroke:#000000;stroke-width:0.5;stroke-linecap:round;stroke-linejoin:round;stroke-miterlimit:4;stroke-dasharray:none;stroke-opacity:1"
             id="path4406"
             inkscape:connector-curvature="0" /></g><g
           id="g4408"
           transform="translate(187.8975,61.8174)"><path
             d="m 0,0 -3.623,-0.13 c -3.384,-0.122 -5.94,-5.413 -5.71,-11.815 0.232,-6.403 3.163,-11.492 6.547,-11.371 l 3.624,0.129"
             style="fill:none;stroke:#000000;stroke-width:1.5;stroke-linecap:round;stroke-linejoin:round;stroke-miterlimit:4;stroke-dasharray:none;stroke-opacity:1"
             id="path4410"
             inkscape:connector-curvature="0" /></g><g
           id="g4412"
           transform="translate(216.0137,67.2266)"><path
             d="m 0,0 c -3.775,3.842 -8.287,3.817 -8.493,3.846 -0.312,0.037 0.396,-1.098 -3.153,-5.207 -3.552,-4.107 -6.043,-3.603 -5.989,-5.139 0.056,-1.534 1.798,-1.146 2.115,-9.981 0.321,-8.837 -1.485,-8.581 -1.428,-10.139 0.054,-1.558 1.769,-0.206 6.387,-4.825 4.616,-4.62 3.092,-4.99 3.345,-4.985 0.268,0.004 4.821,0.357 8.371,4.468"
             style="fill:none;stroke:#000000;stroke-width:0.5;stroke-linecap:round;stroke-linejoin:round;stroke-miterlimit:4;stroke-dasharray:none;stroke-opacity:1"
             id="path4414"
             inkscape:connector-curvature="0" /></g><g
           id="g4416"
           transform="translate(197.3145,60.6875)"><path
             d="M 0,0 -8.162,-0.293"
             style="fill:none;stroke:#000000;stroke-width:0.5;stroke-linecap:round;stroke-linejoin:round;stroke-miterlimit:4;stroke-dasharray:none;stroke-opacity:1"
             id="path4418"
             inkscape:connector-curvature="0" /></g><g
           id="g4420"
           transform="translate(198.1348,40.2822)"><path
             d="M 0,0 -8.163,-0.295"
             style="fill:none;stroke:#000000;stroke-width:0.5;stroke-linecap:round;stroke-linejoin:round;stroke-miterlimit:4;stroke-dasharray:none;stroke-opacity:1"
             id="path4422"
             inkscape:connector-curvature="0" /></g></g></g><g
       id="g4424"
       transform="translate(196.8301,63.4658)"><path
         d="M 0,0 -32.116,23.711"
         style="fill:none;stroke:#ffffff;stroke-width:3;stroke-linecap:round;stroke-linejoin:round;stroke-miterlimit:4;stroke-dasharray:none;stroke-opacity:1"
         id="path4426"
         inkscape:connector-curvature="0" /></g><g
       id="g4428"><g
         id="g4430"
         clip-path="url(#clipPath4432)"><g
           id="g4436"
           transform="translate(196.707,62.2334)"><path
             d="M 0,0 C 0.682,0 1.234,0.551 1.234,1.232 1.234,1.914 0.682,2.467 0,2.467 -0.68,2.467 -1.232,1.914 -1.232,1.232 -1.232,0.551 -0.68,0 0,0"
             style="fill:#1d1d1b;fill-opacity:1;fill-rule:nonzero;stroke:none"
             id="path4438"
             inkscape:connector-curvature="0" /></g><g
           id="g4440"
           transform="translate(196.707,62.2334)"><path
             d="M 0,0 C 0.682,0 1.234,0.551 1.234,1.232 1.234,1.914 0.682,2.467 0,2.467 -0.68,2.467 -1.232,1.914 -1.232,1.232 -1.232,0.551 -0.68,0 0,0 Z"
             style="fill:none;stroke:#ffffff;stroke-width:1;stroke-linecap:butt;stroke-linejoin:miter;stroke-miterlimit:4;stroke-dasharray:none;stroke-opacity:1"
             id="path4442"
             inkscape:connector-curvature="0" /></g><g
           id="g4444"
           transform="translate(196.8301,63.4658)"><path
             d="M 0,0 -32.116,23.711"
             style="fill:none;stroke:#1d1d1b;stroke-width:0.5;stroke-linecap:round;stroke-linejoin:round;stroke-miterlimit:4;stroke-dasharray:none;stroke-opacity:1"
             id="path4446"
             inkscape:connector-curvature="0" /></g></g></g><text
       transform="matrix(1,0,0,-1,157.8867,87.5938)"
       style="font-variant:normal;font-weight:bold;font-stretch:normal;font-size:12px;font-family:Helvetica;-inkscape-font-specification:Helvetica-Bold;writing-mode:lr-tb;fill:#1d1d1b;fill-opacity:1;fill-rule:nonzero;stroke:none"
       id="text4448"><tspan
         x="0"
         y="0"
         id="tspan4450">1</tspan></text>
<g
       id="g4452"><g
         id="g4454"
         clip-path="url(#clipPath4456)"><g
           id="g4460"
           transform="translate(77.9199,52.7842)"><path
             d="M 0,0 -32.116,23.711"
             style="fill:none;stroke:#ffffff;stroke-width:3;stroke-linecap:round;stroke-linejoin:round;stroke-miterlimit:4;stroke-dasharray:none;stroke-opacity:1"
             id="path4462"
             inkscape:connector-curvature="0" /></g><g
           id="g4464"
           transform="translate(77.7969,51.5518)"><path
             d="M 0,0 C 0.682,0 1.234,0.551 1.234,1.232 1.234,1.914 0.682,2.467 0,2.467 -0.68,2.467 -1.232,1.914 -1.232,1.232 -1.232,0.551 -0.68,0 0,0"
             style="fill:#1d1d1b;fill-opacity:1;fill-rule:nonzero;stroke:none"
             id="path4466"
             inkscape:connector-curvature="0" /></g><g
           id="g4468"
           transform="translate(77.7969,51.5518)"><path
             d="M 0,0 C 0.682,0 1.234,0.551 1.234,1.232 1.234,1.914 0.682,2.467 0,2.467 -0.68,2.467 -1.232,1.914 -1.232,1.232 -1.232,0.551 -0.68,0 0,0 Z"
             style="fill:none;stroke:#ffffff;stroke-width:1;stroke-linecap:butt;stroke-linejoin:miter;stroke-miterlimit:4;stroke-dasharray:none;stroke-opacity:1"
             id="path4470"
             inkscape:connector-curvature="0" /></g><g
           id="g4472"
           transform="translate(77.9199,52.7842)"><path
             d="M 0,0 -32.116,23.711"
             style="fill:none;stroke:#1d1d1b;stroke-width:0.5;stroke-linecap:round;stroke-linejoin:round;stroke-miterlimit:4;stroke-dasharray:none;stroke-opacity:1"
             id="path4474"
             inkscape:connector-curvature="0" /></g></g></g><text
       transform="matrix(1,0,0,-1,38.9766,76.9121)"
       style="font-variant:normal;font-weight:bold;font-stretch:normal;font-size:12px;font-family:Helvetica;-inkscape-font-specification:Helvetica-Bold;writing-mode:lr-tb;fill:#1d1d1b;fill-opacity:1;fill-rule:nonzero;stroke:none"
       id="text4476"><tspan
         x="0"
         y="0"
         id="tspan4478">1</tspan></text>
<g
       id="g4480"><g
         id="g4482"
         clip-path="url(#clipPath4484)"><g
           id="g4488"
           transform="translate(53.7832,39.6943)"><path
             d="M 0,0 -30.889,-11.063"
             style="fill:none;stroke:#ffffff;stroke-width:3;stroke-linecap:round;stroke-linejoin:round;stroke-miterlimit:4;stroke-dasharray:none;stroke-opacity:1"
             id="path4490"
             inkscape:connector-curvature="0" /></g><g
           id="g4492"
           transform="translate(53.6602,38.4619)"><path
             d="M 0,0 C 0.682,0 1.234,0.551 1.234,1.232 1.234,1.914 0.682,2.467 0,2.467 -0.68,2.467 -1.232,1.914 -1.232,1.232 -1.232,0.551 -0.68,0 0,0"
             style="fill:#1d1d1b;fill-opacity:1;fill-rule:nonzero;stroke:none"
             id="path4494"
             inkscape:connector-curvature="0" /></g><g
           id="g4496"
           transform="translate(53.6602,38.4619)"><path
             d="M 0,0 C 0.682,0 1.234,0.551 1.234,1.232 1.234,1.914 0.682,2.467 0,2.467 -0.68,2.467 -1.232,1.914 -1.232,1.232 -1.232,0.551 -0.68,0 0,0 Z"
             style="fill:none;stroke:#ffffff;stroke-width:1;stroke-linecap:butt;stroke-linejoin:miter;stroke-miterlimit:4;stroke-dasharray:none;stroke-opacity:1"
             id="path4498"
             inkscape:connector-curvature="0" /></g><g
           id="g4500"
           transform="translate(53.7832,39.6943)"><path
             d="M 0,0 -30.889,-11.063"
             style="fill:none;stroke:#1d1d1b;stroke-width:0.5;stroke-linecap:round;stroke-linejoin:round;stroke-miterlimit:4;stroke-dasharray:none;stroke-opacity:1"
             id="path4502"
             inkscape:connector-curvature="0" /></g></g></g><text
       transform="matrix(1,0,0,-1,14.4307,24.1396)"
       style="font-variant:normal;font-weight:bold;font-stretch:normal;font-size:12px;font-family:Helvetica;-inkscape-font-specification:Helvetica-Bold;writing-mode:lr-tb;fill:#1d1d1b;fill-opacity:1;fill-rule:nonzero;stroke:none"
       id="text4504"><tspan
         x="0"
         y="0"
         id="tspan4506">2</tspan></text>
<g
       id="g4508"><g
         id="g4510"
         clip-path="url(#clipPath4512)"><g
           id="g4516"
           transform="translate(169.1484,43.7842)"><path
             d="M 0,0 -28.435,-16.381"
             style="fill:none;stroke:#ffffff;stroke-width:3;stroke-linecap:round;stroke-linejoin:round;stroke-miterlimit:4;stroke-dasharray:none;stroke-opacity:1"
             id="path4518"
             inkscape:connector-curvature="0" /></g><g
           id="g4520"
           transform="translate(169.0254,42.5518)"><path
             d="M 0,0 C 0.682,0 1.234,0.551 1.234,1.232 1.234,1.914 0.682,2.467 0,2.467 -0.68,2.467 -1.232,1.914 -1.232,1.232 -1.232,0.551 -0.68,0 0,0"
             style="fill:#1d1d1b;fill-opacity:1;fill-rule:nonzero;stroke:none"
             id="path4522"
             inkscape:connector-curvature="0" /></g><g
           id="g4524"
           transform="translate(169.0254,42.5518)"><path
             d="M 0,0 C 0.682,0 1.234,0.551 1.234,1.232 1.234,1.914 0.682,2.467 0,2.467 -0.68,2.467 -1.232,1.914 -1.232,1.232 -1.232,0.551 -0.68,0 0,0 Z"
             style="fill:none;stroke:#ffffff;stroke-width:1;stroke-linecap:butt;stroke-linejoin:miter;stroke-miterlimit:4;stroke-dasharray:none;stroke-opacity:1"
             id="path4526"
             inkscape:connector-curvature="0" /></g><g
           id="g4528"
           transform="translate(169.1484,43.7842)"><path
             d="M 0,0 -28.435,-16.381"
             style="fill:none;stroke:#1d1d1b;stroke-width:0.5;stroke-linecap:round;stroke-linejoin:round;stroke-miterlimit:4;stroke-dasharray:none;stroke-opacity:1"
             id="path4530"
             inkscape:connector-curvature="0" /></g></g></g><text
       transform="matrix(1,0,0,-1,132.25,22.0928)"
       style="font-variant:normal;font-weight:bold;font-stretch:normal;font-size:12px;font-family:Helvetica;-inkscape-font-specification:Helvetica-Bold;writing-mode:lr-tb;fill:#1d1d1b;fill-opacity:1;fill-rule:nonzero;stroke:none"
       id="text4532"><tspan
         x="0"
         y="0"
         id="tspan4534">3</tspan></text>
</g></svg>