<?xml version="1.0" encoding="UTF-8" standalone="no"?>
<!-- Created with Inkscape (http://www.inkscape.org/) -->

<svg
   xmlns:dc="http://purl.org/dc/elements/1.1/"
   xmlns:cc="http://creativecommons.org/ns#"
   xmlns:rdf="http://www.w3.org/1999/02/22-rdf-syntax-ns#"
   xmlns:svg="http://www.w3.org/2000/svg"
   xmlns="http://www.w3.org/2000/svg"
   xmlns:sodipodi="http://sodipodi.sourceforge.net/DTD/sodipodi-0.dtd"
   xmlns:inkscape="http://www.inkscape.org/namespaces/inkscape"
   id="svg8666"
   version="1.1"
   inkscape:version="0.91 r13725"
   xml:space="preserve"
   width="301.18124"
   height="230.315"
   viewBox="0 0 301.18124 230.315"
   sodipodi:docname="chxt_HD.svg"><metadata
     id="metadata8672"><rdf:RDF><cc:Work
         rdf:about=""><dc:format>image/svg+xml</dc:format><dc:type
           rdf:resource="http://purl.org/dc/dcmitype/StillImage" /><dc:title></dc:title></cc:Work></rdf:RDF></metadata><defs
     id="defs8670"><clipPath
       clipPathUnits="userSpaceOnUse"
       id="clipPath8780"><path
         d="m 0,184.252 240.945,0 L 240.945,0 0,0 0,184.252 Z"
         id="path8782"
         inkscape:connector-curvature="0" /></clipPath><clipPath
       clipPathUnits="userSpaceOnUse"
       id="clipPath9052"><path
         d="m 0,184.252 240.945,0 L 240.945,0 0,0 0,184.252 Z"
         id="path9054"
         inkscape:connector-curvature="0" /></clipPath><clipPath
       clipPathUnits="userSpaceOnUse"
       id="clipPath9076"><path
         d="m 0,184.252 240.945,0 L 240.945,0 0,0 0,184.252 Z"
         id="path9078"
         inkscape:connector-curvature="0" /></clipPath></defs><sodipodi:namedview
     pagecolor="#ffffff"
     bordercolor="#666666"
     borderopacity="1"
     objecttolerance="10"
     gridtolerance="10"
     guidetolerance="10"
     inkscape:pageopacity="0"
     inkscape:pageshadow="2"
     inkscape:window-width="640"
     inkscape:window-height="480"
     id="namedview8668"
     showgrid="false"
     inkscape:zoom="3.3085122"
     inkscape:cx="150.59062"
     inkscape:cy="115.1575"
     inkscape:window-x="0"
     inkscape:window-y="0"
     inkscape:window-maximized="1"
     inkscape:current-layer="g8674" /><g
     id="g8674"
     inkscape:groupmode="layer"
     inkscape:label="chxt_HD"
     transform="matrix(1.25,0,0,-1.25,0,230.315)"><g
       id="g8676"
       transform="translate(57.8579,47.8564)"><path
         d="M 0,0 -1.122,-29.093"
         style="fill:none;stroke:#202426;stroke-width:0.5;stroke-linecap:round;stroke-linejoin:round;stroke-miterlimit:4;stroke-dasharray:none;stroke-opacity:1"
         id="path8678"
         inkscape:connector-curvature="0" /></g><g
       id="g8680"
       transform="translate(117.1636,44.5244)"><path
         d="M 0,0 1.189,-24.389"
         style="fill:none;stroke:#202426;stroke-width:0.5;stroke-linecap:round;stroke-linejoin:round;stroke-miterlimit:4;stroke-dasharray:none;stroke-opacity:1"
         id="path8682"
         inkscape:connector-curvature="0" /></g><g
       id="g8684"
       transform="translate(121.606,44.3027)"><path
         d="M 0,0 1.785,-27.306"
         style="fill:none;stroke:#202426;stroke-width:0.5;stroke-linecap:round;stroke-linejoin:round;stroke-miterlimit:4;stroke-dasharray:none;stroke-opacity:1"
         id="path8686"
         inkscape:connector-curvature="0" /></g><g
       id="g8688"
       transform="translate(180.0171,48.3008)"><path
         d="M 0,0 3.653,-27.02"
         style="fill:none;stroke:#202426;stroke-width:0.5;stroke-linecap:round;stroke-linejoin:round;stroke-miterlimit:4;stroke-dasharray:none;stroke-opacity:1"
         id="path8690"
         inkscape:connector-curvature="0" /></g><g
       id="g8692"
       transform="translate(57.7441,17.7334)"><path
         d="M 0,0 59.421,1.915"
         style="fill:none;stroke:#202426;stroke-width:0.5;stroke-linecap:round;stroke-linejoin:round;stroke-miterlimit:4;stroke-dasharray:none;stroke-opacity:1"
         id="path8694"
         inkscape:connector-curvature="0" /></g><g
       id="g8696"
       transform="translate(124.4927,17.4814)"><path
         d="M 0,0 57.833,3.5"
         style="fill:none;stroke:#202426;stroke-width:0.5;stroke-linecap:round;stroke-linejoin:round;stroke-miterlimit:4;stroke-dasharray:none;stroke-opacity:1"
         id="path8698"
         inkscape:connector-curvature="0" /></g><g
       id="g8700"
       transform="translate(56.5674,21.3672)"><path
         d="M 0,0 -44.5,-0.201"
         style="fill:none;stroke:#202426;stroke-width:0.5;stroke-linecap:round;stroke-linejoin:round;stroke-miterlimit:4;stroke-dasharray:none;stroke-opacity:1"
         id="path8702"
         inkscape:connector-curvature="0" /></g><g
       id="g8704"
       transform="translate(122.8315,21.6514)"><path
         d="M 0,0 -4.367,-0.023"
         style="fill:none;stroke:#202426;stroke-width:0.5;stroke-linecap:round;stroke-linejoin:round;stroke-miterlimit:4;stroke-dasharray:none;stroke-opacity:1"
         id="path8706"
         inkscape:connector-curvature="0" /></g><g
       id="g8708"
       transform="translate(221.0659,22.0244)"><path
         d="M 0,0 -37.172,-0.112"
         style="fill:none;stroke:#202426;stroke-width:0.5;stroke-linecap:round;stroke-linejoin:round;stroke-miterlimit:4;stroke-dasharray:none;stroke-opacity:1"
         id="path8710"
         inkscape:connector-curvature="0" /></g><g
       id="g8712"
       transform="translate(56.3984,17.9746)"><path
         d="M 0,0 -47.998,-0.241"
         style="fill:none;stroke:#202426;stroke-width:0.5;stroke-linecap:round;stroke-linejoin:round;stroke-miterlimit:4;stroke-dasharray:none;stroke-opacity:1"
         id="path8714"
         inkscape:connector-curvature="0" /></g><g
       id="g8716"
       transform="translate(122.9995,18.3145)"><path
         d="M 0,0 -4.364,-0.026"
         style="fill:none;stroke:#202426;stroke-width:0.5;stroke-linecap:round;stroke-linejoin:round;stroke-miterlimit:4;stroke-dasharray:none;stroke-opacity:1"
         id="path8718"
         inkscape:connector-curvature="0" /></g><g
       id="g8720"
       transform="translate(221.0659,18.7637)"><path
         d="M 0,0 -37.618,-0.139"
         style="fill:none;stroke:#202426;stroke-width:0.5;stroke-linecap:round;stroke-linejoin:round;stroke-miterlimit:4;stroke-dasharray:none;stroke-opacity:1"
         id="path8722"
         inkscape:connector-curvature="0" /></g><g
       id="g8724"
       transform="translate(181.3745,41.1699)"><path
         d="M 0,0 37.355,0.248"
         style="fill:none;stroke:#202426;stroke-width:0.5;stroke-linecap:round;stroke-linejoin:round;stroke-miterlimit:4;stroke-dasharray:none;stroke-opacity:1"
         id="path8726"
         inkscape:connector-curvature="0" /></g><g
       id="g8728"
       transform="translate(117.457,40.6182)"><path
         d="M 0,0 4.033,0.042"
         style="fill:none;stroke:#202426;stroke-width:0.5;stroke-linecap:round;stroke-linejoin:round;stroke-miterlimit:4;stroke-dasharray:none;stroke-opacity:1"
         id="path8730"
         inkscape:connector-curvature="0" /></g><g
       id="g8732"
       transform="translate(11.7314,39.7021)"><path
         d="M 0,0 45.17,0.411"
         style="fill:none;stroke:#202426;stroke-width:0.5;stroke-linecap:round;stroke-linejoin:round;stroke-miterlimit:4;stroke-dasharray:none;stroke-opacity:1"
         id="path8734"
         inkscape:connector-curvature="0" /></g><g
       id="g8736"
       transform="translate(20.8076,75.6592)"><path
         d="M 0,0 -8.908,-0.084"
         style="fill:none;stroke:#202426;stroke-width:0.5;stroke-linecap:round;stroke-linejoin:round;stroke-miterlimit:4;stroke-dasharray:none;stroke-opacity:1"
         id="path8738"
         inkscape:connector-curvature="0" /></g><g
       id="g8740"
       transform="translate(212.2349,77.1201)"><path
         d="M 0,0 5.884,-0.047"
         style="fill:none;stroke:#202426;stroke-width:0.5;stroke-linecap:round;stroke-linejoin:round;stroke-miterlimit:4;stroke-dasharray:none;stroke-opacity:1"
         id="path8742"
         inkscape:connector-curvature="0" /></g><g
       id="g8744"
       transform="translate(19.8062,82.4043)"><path
         d="M 0,0 -7.862,-0.001"
         style="fill:none;stroke:#202426;stroke-width:0.5;stroke-linecap:round;stroke-linejoin:round;stroke-miterlimit:4;stroke-dasharray:none;stroke-opacity:1"
         id="path8746"
         inkscape:connector-curvature="0" /></g><g
       id="g8748"
       transform="translate(56.2744,82.4111)"><path
         d="M 0,0 -23,-0.004"
         style="fill:none;stroke:#202426;stroke-width:0.5;stroke-linecap:round;stroke-linejoin:round;stroke-miterlimit:4;stroke-dasharray:none;stroke-opacity:1"
         id="path8750"
         inkscape:connector-curvature="0" /></g><g
       id="g8752"
       transform="translate(198.6587,82.4365)"><path
         d="M 0,0 -21,-0.004"
         style="fill:none;stroke:#202426;stroke-width:0.5;stroke-linecap:round;stroke-linejoin:round;stroke-miterlimit:4;stroke-dasharray:none;stroke-opacity:1"
         id="path8754"
         inkscape:connector-curvature="0" /></g><g
       id="g8756"
       transform="translate(212.2349,82.4404)"><path
         d="M 0,0 6.424,-0.002"
         style="fill:none;stroke:#202426;stroke-width:0.5;stroke-linecap:round;stroke-linejoin:round;stroke-miterlimit:4;stroke-dasharray:none;stroke-opacity:1"
         id="path8758"
         inkscape:connector-curvature="0" /></g><g
       id="g8760"
       transform="translate(56.6646,18.1484)"><path
         d="M 0,0 1,-4.333"
         style="fill:none;stroke:#202426;stroke-width:0.5;stroke-linecap:round;stroke-linejoin:round;stroke-miterlimit:4;stroke-dasharray:none;stroke-opacity:1"
         id="path8762"
         inkscape:connector-curvature="0" /></g><g
       id="g8764"
       transform="translate(118.3311,20.1484)"><path
         d="M 0,0 -0.666,-6"
         style="fill:none;stroke:#202426;stroke-width:0.5;stroke-linecap:round;stroke-linejoin:round;stroke-miterlimit:4;stroke-dasharray:none;stroke-opacity:1"
         id="path8766"
         inkscape:connector-curvature="0" /></g><g
       id="g8768"
       transform="translate(183.6587,21.4814)"><path
         d="M 0,0 -2,-8"
         style="fill:none;stroke:#202426;stroke-width:0.5;stroke-linecap:round;stroke-linejoin:round;stroke-miterlimit:4;stroke-dasharray:none;stroke-opacity:1"
         id="path8770"
         inkscape:connector-curvature="0" /></g><g
       id="g8772"
       transform="translate(123.4946,16.9814)"><path
         d="M 0,0 0.499,-3.833"
         style="fill:none;stroke:#202426;stroke-width:0.5;stroke-linecap:round;stroke-linejoin:round;stroke-miterlimit:4;stroke-dasharray:none;stroke-opacity:1"
         id="path8774"
         inkscape:connector-curvature="0" /></g><g
       id="g8776"><g
         id="g8778"
         clip-path="url(#clipPath8780)"><g
           id="g8784"
           transform="translate(121.4761,167.563)"><path
             d="m 0,0 c 0,-2.52 -2.504,-4.562 -5.592,-4.562 -3.037,0 -5.509,1.975 -5.59,4.437"
             style="fill:none;stroke:#231f20;stroke-width:0.5;stroke-linecap:round;stroke-linejoin:round;stroke-miterlimit:4;stroke-dasharray:none;stroke-opacity:1"
             id="path8786"
             inkscape:connector-curvature="0" /></g><g
           id="g8788"
           transform="translate(110.2939,167.438)"><path
             d="m 0,0 c -0.001,0.042 -0.002,0.083 -0.002,0.125 0,2.52 2.503,4.562 5.592,4.562 3.088,0 5.592,-2.042 5.592,-4.562"
             style="fill:none;stroke:#231f20;stroke-width:0.25;stroke-linecap:round;stroke-linejoin:round;stroke-miterlimit:4;stroke-dasharray:none;stroke-opacity:1"
             id="path8790"
             inkscape:connector-curvature="0" /></g><g
           id="g8792"
           transform="translate(124.2603,167.563)"><path
             d="m 0,0 c 0,-3.774 -3.751,-6.834 -8.377,-6.834 -4.626,0 -8.376,3.06 -8.376,6.834 0,3.773 3.75,6.833 8.376,6.833 C -3.751,6.833 0,3.773 0,0 Z"
             style="fill:none;stroke:#231f20;stroke-width:0.25;stroke-linecap:round;stroke-linejoin:round;stroke-miterlimit:4;stroke-dasharray:none;stroke-opacity:1"
             id="path8794"
             inkscape:connector-curvature="0" /></g><g
           id="g8796"
           transform="translate(124.6997,155.9165)"><path
             d="m 0,0 0,11.289 c 0,3.971 -3.948,7.19 -8.816,7.19 -4.869,0 -8.816,-3.219 -8.816,-7.19 l 0,-11.402"
             style="fill:none;stroke:#231f20;stroke-width:0.5;stroke-linecap:round;stroke-linejoin:round;stroke-miterlimit:4;stroke-dasharray:none;stroke-opacity:1"
             id="path8798"
             inkscape:connector-curvature="0" /></g><g
           id="g8800"
           transform="translate(124.6997,167.2056)"><path
             d="m 0,0 c 0,-3.973 -3.948,-7.192 -8.816,-7.192 -4.869,0 -8.816,3.219 -8.816,7.192"
             style="fill:none;stroke:#231f20;stroke-width:0.25;stroke-linecap:round;stroke-linejoin:round;stroke-miterlimit:4;stroke-dasharray:none;stroke-opacity:1"
             id="path8802"
             inkscape:connector-curvature="0" /></g><g
           id="g8804"
           transform="translate(124.6997,166.0723)"><path
             d="m 0,0 c 0,-3.973 -3.948,-7.192 -8.816,-7.192 -4.869,0 -8.815,3.219 -8.815,7.192"
             style="fill:none;stroke:#231f20;stroke-width:0.25;stroke-linecap:round;stroke-linejoin:round;stroke-miterlimit:4;stroke-dasharray:none;stroke-opacity:1"
             id="path8806"
             inkscape:connector-curvature="0" /></g><g
           id="g8808"
           transform="translate(124.6997,164.939)"><path
             d="m 0,0 c 0,-3.972 -3.948,-7.192 -8.816,-7.192 -4.869,0 -8.816,3.22 -8.816,7.192"
             style="fill:none;stroke:#231f20;stroke-width:0.25;stroke-linecap:round;stroke-linejoin:round;stroke-miterlimit:4;stroke-dasharray:none;stroke-opacity:1"
             id="path8810"
             inkscape:connector-curvature="0" /></g><g
           id="g8812"
           transform="translate(124.6987,163.8066)"><path
             d="m 0,0 c 0,-3.973 -3.947,-7.192 -8.815,-7.192 -4.869,0 -8.816,3.219 -8.816,7.192"
             style="fill:none;stroke:#231f20;stroke-width:0.25;stroke-linecap:round;stroke-linejoin:round;stroke-miterlimit:4;stroke-dasharray:none;stroke-opacity:1"
             id="path8814"
             inkscape:connector-curvature="0" /></g><g
           id="g8816"
           transform="translate(124.6997,162.6729)"><path
             d="m 0,0 c 0,-3.973 -3.948,-7.192 -8.816,-7.192 -4.869,0 -8.816,3.219 -8.816,7.192"
             style="fill:none;stroke:#231f20;stroke-width:0.25;stroke-linecap:round;stroke-linejoin:round;stroke-miterlimit:4;stroke-dasharray:none;stroke-opacity:1"
             id="path8818"
             inkscape:connector-curvature="0" /></g><g
           id="g8820"
           transform="translate(124.6997,161.5396)"><path
             d="m 0,0 c 0,-3.973 -3.948,-7.192 -8.816,-7.192 -4.869,0 -8.816,3.219 -8.816,7.192"
             style="fill:none;stroke:#231f20;stroke-width:0.25;stroke-linecap:round;stroke-linejoin:round;stroke-miterlimit:4;stroke-dasharray:none;stroke-opacity:1"
             id="path8822"
             inkscape:connector-curvature="0" /></g><g
           id="g8824"
           transform="translate(124.6997,160.4067)"><path
             d="m 0,0 c 0,-3.973 -3.948,-7.192 -8.816,-7.192 -4.869,0 -8.816,3.219 -8.816,7.192"
             style="fill:none;stroke:#231f20;stroke-width:0.25;stroke-linecap:round;stroke-linejoin:round;stroke-miterlimit:4;stroke-dasharray:none;stroke-opacity:1"
             id="path8826"
             inkscape:connector-curvature="0" /></g><g
           id="g8828"
           transform="translate(124.6997,159.2734)"><path
             d="m 0,0 c 0,-3.973 -3.948,-7.192 -8.816,-7.192 -4.869,0 -8.816,3.219 -8.816,7.192"
             style="fill:none;stroke:#231f20;stroke-width:0.25;stroke-linecap:round;stroke-linejoin:round;stroke-miterlimit:4;stroke-dasharray:none;stroke-opacity:1"
             id="path8830"
             inkscape:connector-curvature="0" /></g><g
           id="g8832"
           transform="translate(124.6997,158.1406)"><path
             d="m 0,0 c 0,-3.973 -3.948,-7.192 -8.816,-7.192 -4.869,0 -8.816,3.219 -8.816,7.192"
             style="fill:none;stroke:#231f20;stroke-width:0.25;stroke-linecap:round;stroke-linejoin:round;stroke-miterlimit:4;stroke-dasharray:none;stroke-opacity:1"
             id="path8834"
             inkscape:connector-curvature="0" /></g><g
           id="g8836"
           transform="translate(124.6997,157.0068)"><path
             d="m 0,0 c 0,-3.972 -3.948,-7.192 -8.816,-7.192 -4.869,0 -8.816,3.22 -8.816,7.192"
             style="fill:none;stroke:#231f20;stroke-width:0.25;stroke-linecap:round;stroke-linejoin:round;stroke-miterlimit:4;stroke-dasharray:none;stroke-opacity:1"
             id="path8838"
             inkscape:connector-curvature="0" /></g><g
           id="g8840"
           transform="translate(124.6997,155.874)"><path
             d="m 0,0 c 0,-3.973 -3.948,-7.192 -8.816,-7.192 -4.869,0 -8.816,3.219 -8.816,7.192"
             style="fill:none;stroke:#231f20;stroke-width:0.25;stroke-linecap:round;stroke-linejoin:round;stroke-miterlimit:4;stroke-dasharray:none;stroke-opacity:1"
             id="path8842"
             inkscape:connector-curvature="0" /></g><g
           id="g8844"
           transform="translate(125.8374,154.9463)"><path
             d="m 0,0 c 0,-4.485 -4.458,-8.12 -9.954,-8.12 -5.496,0 -9.953,3.635 -9.953,8.12"
             style="fill:none;stroke:#231f20;stroke-width:0.25;stroke-linecap:round;stroke-linejoin:round;stroke-miterlimit:4;stroke-dasharray:none;stroke-opacity:1"
             id="path8846"
             inkscape:connector-curvature="0" /></g><g
           id="g8848"
           transform="translate(106.9609,158.5479)"><path
             d="m 0,0 c -0.66,-1.085 -1.031,-2.308 -1.031,-3.602 l 0,-7.694"
             style="fill:none;stroke:#231f20;stroke-width:0.5;stroke-linecap:round;stroke-linejoin:round;stroke-miterlimit:4;stroke-dasharray:none;stroke-opacity:1"
             id="path8850"
             inkscape:connector-curvature="0" /></g><g
           id="g8852"
           transform="translate(125.8374,148.0298)"><path
             d="m 0,0 0,6.917 c 0,1.375 -0.42,2.669 -1.16,3.804"
             style="fill:none;stroke:#231f20;stroke-width:0.5;stroke-linecap:round;stroke-linejoin:round;stroke-miterlimit:4;stroke-dasharray:none;stroke-opacity:1"
             id="path8854"
             inkscape:connector-curvature="0" /></g><g
           id="g8856"
           transform="translate(125.8374,148.0298)"><path
             d="m 0,0 c 0,-4.485 -4.458,-8.12 -9.954,-8.12 -5.496,0 -9.953,3.635 -9.953,8.12"
             style="fill:none;stroke:#231f20;stroke-width:0.25;stroke-linecap:round;stroke-linejoin:round;stroke-miterlimit:4;stroke-dasharray:none;stroke-opacity:1"
             id="path8858"
             inkscape:connector-curvature="0" /></g><g
           id="g8860"
           transform="translate(126.4204,147.272)"><path
             d="m 0,0 c 0,-4.748 -4.719,-8.596 -10.537,-8.596 -5.817,0 -10.535,3.848 -10.535,8.596"
             style="fill:none;stroke:#231f20;stroke-width:0.25;stroke-linecap:round;stroke-linejoin:round;stroke-miterlimit:4;stroke-dasharray:none;stroke-opacity:1"
             id="path8862"
             inkscape:connector-curvature="0" /></g><g
           id="g8864"
           transform="translate(105.8237,149.832)"><path
             d="m 0,0 c -0.309,-0.809 -0.476,-1.669 -0.476,-2.56 l 0,-9.27 c 0,-4 1.32,-5.5 1.32,-9.25 l 0,-34.875 c 0,-3.75 -1.32,-6.869 -1.32,-9.935 l 0,-8.25"
             style="fill:none;stroke:#231f20;stroke-width:0.5;stroke-linecap:round;stroke-linejoin:round;stroke-miterlimit:4;stroke-dasharray:none;stroke-opacity:1"
             id="path8866"
             inkscape:connector-curvature="0" /></g><g
           id="g8868"
           transform="translate(126.4204,75.6924)"><path
             d="m 0,0 0,8.25 c 0,2.94 -1.565,5.31 -1.565,9.685 l 0,35.375 c 0,5 1.565,6.562 1.565,9.44 l 0,8.83 c 0,0.961 -0.193,1.886 -0.551,2.749"
             style="fill:none;stroke:#231f20;stroke-width:0.5;stroke-linecap:round;stroke-linejoin:round;stroke-miterlimit:4;stroke-dasharray:none;stroke-opacity:1"
             id="path8870"
             inkscape:connector-curvature="0" /></g><g
           id="g8872"
           transform="translate(126.4204,138.4424)"><path
             d="m 0,0 c 0,-4.748 -4.719,-8.596 -10.537,-8.596 -5.817,0 -10.535,3.848 -10.535,8.596"
             style="fill:none;stroke:#231f20;stroke-width:0.25;stroke-linecap:round;stroke-linejoin:round;stroke-miterlimit:4;stroke-dasharray:none;stroke-opacity:1"
             id="path8874"
             inkscape:connector-curvature="0" /></g><g
           id="g8876"
           transform="translate(126.4204,83.9424)"><path
             d="m 0,0 c 0,-4.748 -4.719,-8.596 -10.537,-8.596 -5.817,0 -10.535,3.848 -10.535,8.596"
             style="fill:none;stroke:#231f20;stroke-width:0.25;stroke-linecap:round;stroke-linejoin:round;stroke-miterlimit:4;stroke-dasharray:none;stroke-opacity:1"
             id="path8878"
             inkscape:connector-curvature="0" /></g><g
           id="g8880"
           transform="translate(126.4204,75.6924)"><path
             d="m 0,0 c 0,-4.748 -4.719,-8.596 -10.537,-8.596 -5.817,0 -10.535,3.848 -10.535,8.596"
             style="fill:none;stroke:#231f20;stroke-width:0.25;stroke-linecap:round;stroke-linejoin:round;stroke-miterlimit:4;stroke-dasharray:none;stroke-opacity:1"
             id="path8882"
             inkscape:connector-curvature="0" /></g><g
           id="g8884"
           transform="translate(126.0171,87.6367)"><path
             d="m 0,0 c 4.472,-2.59 7.391,-6.848 7.391,-11.66 0,-7.898 -7.848,-14.297 -17.525,-14.297 -9.676,0 -17.522,6.399 -17.522,14.297 0,4.761 2.855,8.978 7.246,11.576"
             style="fill:none;stroke:#231f20;stroke-width:1;stroke-linecap:round;stroke-linejoin:round;stroke-miterlimit:4;stroke-dasharray:none;stroke-opacity:1"
             id="path8886"
             inkscape:connector-curvature="0" /></g><g
           id="g8888"
           transform="translate(125.4165,89.916)"><path
             d="m 0,0 c 5.987,-2.729 10.036,-7.949 10.036,-13.939 0,-8.82 -8.764,-15.965 -19.569,-15.965 -10.805,0 -19.568,7.145 -19.568,15.965 0,5.94 3.982,11.123 9.886,13.87"
             style="fill:none;stroke:#231f20;stroke-width:1;stroke-linecap:round;stroke-linejoin:round;stroke-miterlimit:4;stroke-dasharray:none;stroke-opacity:1"
             id="path8890"
             inkscape:connector-curvature="0" /></g><g
           id="g8892"
           transform="translate(125.1636,93.0977)"><path
             d="m 0,0 18.016,0.622 c 1.988,0 3.976,0.497 3.976,0.497 1.242,0.372 1.988,1.863 1.988,1.863 l 0.373,1.491 c 0.249,2.61 5.342,3.479 5.342,3.479 16.402,3.355 33.424,4.473 33.424,4.473 C 73.433,12.798 79.894,5.467 79.894,5.467 84.49,0.87 85.981,-5.964 85.981,-5.964 l 1.119,-6.585 c 0,-10.437 -2.113,-15.283 -2.113,-15.283 -3.354,-9.94 -15.407,-11.68 -15.407,-11.68 -7.952,-0.87 -12.673,0.497 -12.673,0.497 -1.864,0.621 -4.846,1.492 -4.846,1.492 -1.367,0.497 -4.1,0 -4.1,0 -5.468,-0.871 -11.556,0 -11.556,0 L 9.07,-43.488 c -5.84,-0.993 -9.319,-2.361 -9.319,-2.361 -4.597,-1.739 -8.822,-1.491 -8.822,-1.491"
             style="fill:none;stroke:#231f20;stroke-width:0.5;stroke-linecap:round;stroke-linejoin:round;stroke-miterlimit:4;stroke-dasharray:none;stroke-opacity:1"
             id="path8894"
             inkscape:connector-curvature="0" /></g><g
           id="g8896"
           transform="translate(136.7183,72.7207)"><path
             d="M 0,0 C 5.468,1.863 10.562,2.982 10.562,2.982"
             style="fill:none;stroke:#231f20;stroke-width:0.25;stroke-linecap:round;stroke-linejoin:round;stroke-miterlimit:4;stroke-dasharray:none;stroke-opacity:1"
             id="path8898"
             inkscape:connector-curvature="0" /></g><g
           id="g8900"
           transform="translate(135.6001,69.2412)"><path
             d="M 0,0 C 4.101,2.733 12.674,5.095 12.674,5.095"
             style="fill:none;stroke:#231f20;stroke-width:0.25;stroke-linecap:round;stroke-linejoin:round;stroke-miterlimit:4;stroke-dasharray:none;stroke-opacity:1"
             id="path8902"
             inkscape:connector-curvature="0" /></g><g
           id="g8904"
           transform="translate(161.0718,78.6846)"><path
             d="m 0,0 c 7.082,0.373 8.946,-2.236 8.946,-2.236 1.989,-2.362 6.461,-4.598 6.461,-4.598 6.337,-2.857 13.916,-2.484 13.916,-2.484 8.947,0.497 15.656,6.337 15.656,6.337 4.349,3.23 4.473,11.057 4.473,11.057"
             style="fill:none;stroke:#231f20;stroke-width:0.25;stroke-linecap:round;stroke-linejoin:round;stroke-miterlimit:4;stroke-dasharray:none;stroke-opacity:1"
             id="path8906"
             inkscape:connector-curvature="0" /></g><g
           id="g8908"
           transform="translate(116.0928,58.6807)"><path
             d="M 0,0 C 4.349,0 11.307,1.366 11.307,1.366 14.414,2.608 19.383,4.1 19.383,4.1 l 33.3,7.946 c 2.982,0.752 6.709,0.13 6.709,0.13"
             style="fill:none;stroke:#231f20;stroke-width:0.25;stroke-linecap:round;stroke-linejoin:round;stroke-miterlimit:4;stroke-dasharray:none;stroke-opacity:1"
             id="path8910"
             inkscape:connector-curvature="0" /></g><g
           id="g8912"
           transform="translate(148.895,74.3359)"><path
             d="m 0,0 c 3.355,-0.373 6.089,-1.242 6.089,-1.242 1.863,-0.622 2.484,0.993 2.484,0.993 1.491,3.853 4.598,6.959 4.598,6.959 0.87,1.242 0.373,1.863 0.373,1.863 L 11.432,10.81 C 10.438,11.68 9.07,11.059 9.07,11.059 L 0.87,7.082 C -0.497,6.337 -1.366,3.976 -1.366,3.976 L 0,0 Z"
             style="fill:none;stroke:#231f20;stroke-width:0.5;stroke-linecap:round;stroke-linejoin:round;stroke-miterlimit:4;stroke-dasharray:none;stroke-opacity:1"
             id="path8914"
             inkscape:connector-curvature="0" /></g><g
           id="g8916"
           transform="translate(148.771,76.9453)"><path
             d="m 0,0 6.337,-1.118 c 1.242,-0.249 1.615,0.745 1.615,0.745 L 7.579,2.609 C 7.331,3.479 5.964,3.604 5.964,3.604 L 3.106,3.852 C 1.118,3.852 0,1.863 0,1.863 L -0.373,0.994"
             style="fill:none;stroke:#231f20;stroke-width:0.25;stroke-linecap:round;stroke-linejoin:round;stroke-miterlimit:4;stroke-dasharray:none;stroke-opacity:1"
             id="path8918"
             inkscape:connector-curvature="0" /></g><g
           id="g8920"
           transform="translate(149.3921,77.9395)"><path
             d="M 0,0 6.586,-1.13"
             style="fill:none;stroke:#231f20;stroke-width:0.25;stroke-linecap:round;stroke-linejoin:round;stroke-miterlimit:4;stroke-dasharray:none;stroke-opacity:1"
             id="path8922"
             inkscape:connector-curvature="0" /></g><g
           id="g8924"
           transform="translate(152.0015,81.418)"><path
             d="M 0,0 3.728,1.367 C 5.467,1.615 4.846,0.746 4.846,0.746 L 4.101,-0.621"
             style="fill:none;stroke:#231f20;stroke-width:0.25;stroke-linecap:round;stroke-linejoin:round;stroke-miterlimit:4;stroke-dasharray:none;stroke-opacity:1"
             id="path8926"
             inkscape:connector-curvature="0" /></g><g
           id="g8928"
           transform="translate(156.9712,83.2822)"><path
             d="m 0,0 1.988,1.366 c 0.621,0.497 1.242,0 1.242,0"
             style="fill:none;stroke:#231f20;stroke-width:0.25;stroke-linecap:round;stroke-linejoin:round;stroke-miterlimit:4;stroke-dasharray:none;stroke-opacity:1"
             id="path8930"
             inkscape:connector-curvature="0" /></g><g
           id="g8932"
           transform="translate(168.8999,91.4824)"><path
             d="M 0,0 -7.495,1.836"
             style="fill:none;stroke:#231f20;stroke-width:0.5;stroke-linecap:round;stroke-linejoin:round;stroke-miterlimit:4;stroke-dasharray:none;stroke-opacity:1"
             id="path8934"
             inkscape:connector-curvature="0" /></g><g
           id="g8936"
           transform="translate(169.5913,93.2266)"><path
             d="M 0,0 -7.703,1.702"
             style="fill:none;stroke:#231f20;stroke-width:0.25;stroke-linecap:round;stroke-linejoin:round;stroke-miterlimit:4;stroke-dasharray:none;stroke-opacity:1"
             id="path8938"
             inkscape:connector-curvature="0" /></g><g
           id="g8940"
           transform="translate(151.3481,95.4956)"><path
             d="M 0,0 C 0,0 -1.09,0.247 -2.049,0.468"
             style="fill:none;stroke:#231f20;stroke-width:0.5;stroke-linecap:round;stroke-linejoin:round;stroke-miterlimit:4;stroke-dasharray:none;stroke-opacity:1"
             id="path8942"
             inkscape:connector-curvature="0" /></g><g
           id="g8944"
           transform="translate(151.8384,97.2173)"><path
             d="M 0,0 C 0,0 -1.096,0.231 -2.277,0.504"
             style="fill:none;stroke:#231f20;stroke-width:0.25;stroke-linecap:round;stroke-linejoin:round;stroke-miterlimit:4;stroke-dasharray:none;stroke-opacity:1"
             id="path8946"
             inkscape:connector-curvature="0" /></g><g
           id="g8948"
           transform="translate(151.8384,97.2173)"><path
             d="m 0,0 c 0.843,1.564 2.668,2.647 4.783,2.647 2.916,0 5.28,-2.058 5.28,-4.597 0,-0.114 -0.004,-0.227 -0.013,-0.339"
             style="fill:none;stroke:#231f20;stroke-width:0.25;stroke-linecap:round;stroke-linejoin:round;stroke-miterlimit:4;stroke-dasharray:none;stroke-opacity:1"
             id="path8950"
             inkscape:connector-curvature="0" /></g><g
           id="g8952"
           transform="translate(161.4048,93.3184)"><path
             d="m 0,0 c -0.842,-1.565 -2.667,-2.648 -4.783,-2.648 -2.916,0 -5.28,2.058 -5.28,4.597 0,0.076 0.001,0.153 0.006,0.228"
             style="fill:none;stroke:#231f20;stroke-width:0.5;stroke-linecap:round;stroke-linejoin:round;stroke-miterlimit:4;stroke-dasharray:none;stroke-opacity:1"
             id="path8954"
             inkscape:connector-curvature="0" /></g><g
           id="g8956"
           transform="translate(204.064,78.8369)"><path
             d="m 0,0 c -3.577,-4.679 -10.141,-7.479 -17.33,-6.791 -5.982,0.573 -11.08,3.437 -14.136,7.42"
             style="fill:none;stroke:#231f20;stroke-width:0.5;stroke-linecap:round;stroke-linejoin:round;stroke-miterlimit:4;stroke-dasharray:none;stroke-opacity:1"
             id="path8958"
             inkscape:connector-curvature="0" /></g><g
           id="g8960"
           transform="translate(172.4614,79.6475)"><path
             d="m 0,0 c -2.105,2.824 -3.191,6.194 -2.855,9.703 0.821,8.573 9.82,14.725 20.1,13.74 C 27.525,22.459 35.194,14.711 34.373,6.139 34.141,3.705 33.248,1.466 31.854,-0.47"
             style="fill:none;stroke:#231f20;stroke-width:0.25;stroke-linecap:round;stroke-linejoin:round;stroke-miterlimit:4;stroke-dasharray:none;stroke-opacity:1"
             id="path8962"
             inkscape:connector-curvature="0" /></g><g
           id="g8964"
           transform="translate(172.645,79.5693)"><path
             d="M 0,0 C 3.596,4.615 10.113,7.369 17.248,6.686 23.001,6.135 27.937,3.466 31.024,-0.281"
             style="fill:none;stroke:#231f20;stroke-width:0.5;stroke-linecap:round;stroke-linejoin:round;stroke-miterlimit:4;stroke-dasharray:none;stroke-opacity:1"
             id="path8966"
             inkscape:connector-curvature="0" /></g><g
           id="g8968"
           transform="translate(106.4756,93.1416)"><path
             d="m 0,0 c -4.111,0.142 -16.738,0.578 -16.738,0.578 -1.989,0 -3.977,0.497 -3.977,0.497 -1.242,0.372 -1.988,1.863 -1.988,1.863 l -0.372,1.491 c -0.249,2.61 -5.343,3.479 -5.343,3.479 -16.401,3.355 -33.443,4.473 -33.443,4.473 -10.331,0.373 -16.804,-6.958 -16.804,-6.958 -4.599,-4.597 -6.09,-11.431 -6.09,-11.431 l -1.119,-6.585 c 0,-10.437 2.113,-15.283 2.113,-15.283 3.354,-9.94 15.428,-11.68 15.428,-11.68 7.966,-0.87 12.694,0.497 12.694,0.497 1.868,0.621 4.855,1.492 4.855,1.492 1.367,0.497 4.1,0 4.1,0 5.468,-0.871 11.556,0 11.556,0 l 27.335,-5.965 c 5.84,-0.993 9.319,-2.361 9.319,-2.361 4.597,-1.739 8.822,-1.491 8.822,-1.491"
             style="fill:none;stroke:#231f20;stroke-width:0.5;stroke-linecap:round;stroke-linejoin:round;stroke-miterlimit:4;stroke-dasharray:none;stroke-opacity:1"
             id="path8970"
             inkscape:connector-curvature="0" /></g><g
           id="g8972"
           transform="translate(96.1982,72.7207)"><path
             d="M 0,0 C -5.468,1.863 -10.562,2.982 -10.562,2.982"
             style="fill:none;stroke:#231f20;stroke-width:0.25;stroke-linecap:round;stroke-linejoin:round;stroke-miterlimit:4;stroke-dasharray:none;stroke-opacity:1"
             id="path8974"
             inkscape:connector-curvature="0" /></g><g
           id="g8976"
           transform="translate(97.3164,69.2412)"><path
             d="M 0,0 C -4.101,2.733 -12.674,5.095 -12.674,5.095"
             style="fill:none;stroke:#231f20;stroke-width:0.25;stroke-linecap:round;stroke-linejoin:round;stroke-miterlimit:4;stroke-dasharray:none;stroke-opacity:1"
             id="path8978"
             inkscape:connector-curvature="0" /></g><g
           id="g8980"
           transform="translate(71.8447,78.6846)"><path
             d="m 0,0 c -7.082,0.373 -8.946,-2.236 -8.946,-2.236 -1.989,-2.362 -6.461,-4.598 -6.461,-4.598 -6.347,-2.857 -13.939,-2.484 -13.939,-2.484 -8.962,0.497 -15.683,6.337 -15.683,6.337 -4.35,3.23 -4.474,11.057 -4.474,11.057"
             style="fill:none;stroke:#231f20;stroke-width:0.25;stroke-linecap:round;stroke-linejoin:round;stroke-miterlimit:4;stroke-dasharray:none;stroke-opacity:1"
             id="path8982"
             inkscape:connector-curvature="0" /></g><g
           id="g8984"
           transform="translate(116.8232,58.6807)"><path
             d="M 0,0 C -4.349,0 -11.307,1.366 -11.307,1.366 -14.413,2.608 -19.383,4.1 -19.383,4.1 l -33.3,7.946 c -2.981,0.752 -6.709,0.13 -6.709,0.13"
             style="fill:none;stroke:#231f20;stroke-width:0.25;stroke-linecap:round;stroke-linejoin:round;stroke-miterlimit:4;stroke-dasharray:none;stroke-opacity:1"
             id="path8986"
             inkscape:connector-curvature="0" /></g><g
           id="g8988"
           transform="translate(84.0215,74.3359)"><path
             d="m 0,0 c -3.355,-0.373 -6.089,-1.242 -6.089,-1.242 -1.863,-0.622 -2.484,0.993 -2.484,0.993 -1.491,3.853 -4.598,6.959 -4.598,6.959 -0.87,1.242 -0.373,1.863 -0.373,1.863 l 2.112,2.237 c 0.994,0.87 2.362,0.249 2.362,0.249 l 8.2,-3.977 C 0.497,6.337 1.366,3.976 1.366,3.976 L 0,0 Z"
             style="fill:none;stroke:#231f20;stroke-width:0.5;stroke-linecap:round;stroke-linejoin:round;stroke-miterlimit:4;stroke-dasharray:none;stroke-opacity:1"
             id="path8990"
             inkscape:connector-curvature="0" /></g><g
           id="g8992"
           transform="translate(84.1455,76.9453)"><path
             d="m 0,0 -6.337,-1.118 c -1.242,-0.249 -1.615,0.745 -1.615,0.745 l 0.373,2.982 c 0.248,0.87 1.615,0.995 1.615,0.995 l 2.858,0.248 C -1.118,3.852 0,1.863 0,1.863 L 0.373,0.994"
             style="fill:none;stroke:#231f20;stroke-width:0.25;stroke-linecap:round;stroke-linejoin:round;stroke-miterlimit:4;stroke-dasharray:none;stroke-opacity:1"
             id="path8994"
             inkscape:connector-curvature="0" /></g><g
           id="g8996"
           transform="translate(83.5244,77.9395)"><path
             d="M 0,0 -6.586,-1.13"
             style="fill:none;stroke:#231f20;stroke-width:0.25;stroke-linecap:round;stroke-linejoin:round;stroke-miterlimit:4;stroke-dasharray:none;stroke-opacity:1"
             id="path8998"
             inkscape:connector-curvature="0" /></g><g
           id="g9000"
           transform="translate(80.915,81.418)"><path
             d="M 0,0 -3.728,1.367 C -5.467,1.615 -4.846,0.746 -4.846,0.746 l 0.745,-1.367"
             style="fill:none;stroke:#231f20;stroke-width:0.25;stroke-linecap:round;stroke-linejoin:round;stroke-miterlimit:4;stroke-dasharray:none;stroke-opacity:1"
             id="path9002"
             inkscape:connector-curvature="0" /></g><g
           id="g9004"
           transform="translate(75.9453,83.2822)"><path
             d="m 0,0 -1.988,1.366 c -0.621,0.497 -1.242,0 -1.242,0"
             style="fill:none;stroke:#231f20;stroke-width:0.25;stroke-linecap:round;stroke-linejoin:round;stroke-miterlimit:4;stroke-dasharray:none;stroke-opacity:1"
             id="path9006"
             inkscape:connector-curvature="0" /></g><g
           id="g9008"
           transform="translate(64.0166,91.4824)"><path
             d="M 0,0 7.495,1.836"
             style="fill:none;stroke:#231f20;stroke-width:0.5;stroke-linecap:round;stroke-linejoin:round;stroke-miterlimit:4;stroke-dasharray:none;stroke-opacity:1"
             id="path9010"
             inkscape:connector-curvature="0" /></g><g
           id="g9012"
           transform="translate(63.3252,93.2266)"><path
             d="M 0,0 7.703,1.702"
             style="fill:none;stroke:#231f20;stroke-width:0.25;stroke-linecap:round;stroke-linejoin:round;stroke-miterlimit:4;stroke-dasharray:none;stroke-opacity:1"
             id="path9014"
             inkscape:connector-curvature="0" /></g><g
           id="g9016"
           transform="translate(81.5684,95.4956)"><path
             d="M 0,0 C 0,0 1.09,0.247 2.049,0.468"
             style="fill:none;stroke:#231f20;stroke-width:0.5;stroke-linecap:round;stroke-linejoin:round;stroke-miterlimit:4;stroke-dasharray:none;stroke-opacity:1"
             id="path9018"
             inkscape:connector-curvature="0" /></g><g
           id="g9020"
           transform="translate(81.0781,97.2173)"><path
             d="M 0,0 C 0,0 1.096,0.231 2.277,0.504"
             style="fill:none;stroke:#231f20;stroke-width:0.25;stroke-linecap:round;stroke-linejoin:round;stroke-miterlimit:4;stroke-dasharray:none;stroke-opacity:1"
             id="path9022"
             inkscape:connector-curvature="0" /></g><g
           id="g9024"
           transform="translate(81.0781,97.2173)"><path
             d="m 0,0 c -0.843,1.564 -2.668,2.647 -4.783,2.647 -2.916,0 -5.28,-2.058 -5.28,-4.597 0,-0.114 0.004,-0.227 0.013,-0.339"
             style="fill:none;stroke:#231f20;stroke-width:0.25;stroke-linecap:round;stroke-linejoin:round;stroke-miterlimit:4;stroke-dasharray:none;stroke-opacity:1"
             id="path9026"
             inkscape:connector-curvature="0" /></g><g
           id="g9028"
           transform="translate(71.5117,93.3184)"><path
             d="m 0,0 c 0.842,-1.565 2.667,-2.648 4.783,-2.648 2.916,0 5.28,2.058 5.28,4.597 0,0.076 -0.001,0.153 -0.006,0.228"
             style="fill:none;stroke:#231f20;stroke-width:0.5;stroke-linecap:round;stroke-linejoin:round;stroke-miterlimit:4;stroke-dasharray:none;stroke-opacity:1"
             id="path9030"
             inkscape:connector-curvature="0" /></g><g
           id="g9032"
           transform="translate(28.8062,78.8369)"><path
             d="m 0,0 c 3.583,-4.679 10.158,-7.479 17.36,-6.791 5.993,0.573 11.097,3.437 14.152,7.42"
             style="fill:none;stroke:#231f20;stroke-width:0.5;stroke-linecap:round;stroke-linejoin:round;stroke-miterlimit:4;stroke-dasharray:none;stroke-opacity:1"
             id="path9034"
             inkscape:connector-curvature="0" /></g><g
           id="g9036"
           transform="translate(60.4551,79.6475)"><path
             d="m 0,0 c 2.105,2.824 3.191,6.194 2.855,9.703 -0.821,8.573 -9.824,14.725 -20.122,13.74 -10.298,-0.984 -17.979,-8.732 -17.157,-17.304 0.233,-2.434 1.127,-4.673 2.523,-6.609"
             style="fill:none;stroke:#231f20;stroke-width:0.25;stroke-linecap:round;stroke-linejoin:round;stroke-miterlimit:4;stroke-dasharray:none;stroke-opacity:1"
             id="path9038"
             inkscape:connector-curvature="0" /></g><g
           id="g9040"
           transform="translate(60.2715,79.5693)"><path
             d="m 0,0 c -3.596,4.615 -10.123,7.369 -17.27,6.686 -5.763,-0.551 -10.707,-3.22 -13.8,-6.967"
             style="fill:none;stroke:#231f20;stroke-width:0.5;stroke-linecap:round;stroke-linejoin:round;stroke-miterlimit:4;stroke-dasharray:none;stroke-opacity:1"
             id="path9042"
             inkscape:connector-curvature="0" /></g></g></g><g
       id="g9044"
       transform="translate(120.4844,122.8379)"><path
         d="M 0,0 31.823,20.614"
         style="fill:none;stroke:#ffffff;stroke-width:1.91999996;stroke-linecap:round;stroke-linejoin:round;stroke-miterlimit:4;stroke-dasharray:none;stroke-opacity:1"
         id="path9046"
         inkscape:connector-curvature="0" /></g><g
       id="g9048"><g
         id="g9050"
         clip-path="url(#clipPath9052)"><g
           id="g9056"
           transform="translate(120.4063,122.0479)"><path
             d="M 0,0 C 0.436,0 0.789,0.354 0.789,0.79 0.789,1.227 0.436,1.579 0,1.579 -0.436,1.579 -0.79,1.227 -0.79,0.79 -0.79,0.354 -0.436,0 0,0"
             style="fill:#231f20;fill-opacity:1;fill-rule:nonzero;stroke:none"
             id="path9058"
             inkscape:connector-curvature="0" /></g><g
           id="g9060"
           transform="translate(120.4063,122.0479)"><path
             d="M 0,0 C 0.436,0 0.789,0.354 0.789,0.79 0.789,1.227 0.436,1.579 0,1.579 -0.436,1.579 -0.79,1.227 -0.79,0.79 -0.79,0.354 -0.436,0 0,0 Z"
             style="fill:none;stroke:#ffffff;stroke-width:0.63999999;stroke-linecap:butt;stroke-linejoin:miter;stroke-miterlimit:4;stroke-dasharray:none;stroke-opacity:1"
             id="path9062"
             inkscape:connector-curvature="0" /></g><g
           id="g9064"
           transform="translate(120.4844,122.8379)"><path
             d="M 0,0 31.823,20.614"
             style="fill:none;stroke:#231f20;stroke-width:0.31999999;stroke-linecap:round;stroke-linejoin:round;stroke-miterlimit:4;stroke-dasharray:none;stroke-opacity:1"
             id="path9066"
             inkscape:connector-curvature="0" /></g></g></g><text
       transform="matrix(1,0,0,-1,155.5103,142.6328)"
       style="font-variant:normal;font-weight:bold;font-stretch:normal;font-size:7.67999983px;font-family:Helvetica;-inkscape-font-specification:Helvetica-Bold;writing-mode:lr-tb;fill:#231f20;fill-opacity:1;fill-rule:nonzero;stroke:none"
       id="text9068"><tspan
         x="0"
         y="0"
         id="tspan9070">1</tspan></text>
<g
       id="g9072"><g
         id="g9074"
         clip-path="url(#clipPath9076)"><g
           id="g9080"
           transform="translate(127.9019,72.7676)"><path
             d="M 0,0 29.736,-25.493"
             style="fill:none;stroke:#ffffff;stroke-width:1.91999996;stroke-linecap:round;stroke-linejoin:round;stroke-miterlimit:4;stroke-dasharray:none;stroke-opacity:1"
             id="path9082"
             inkscape:connector-curvature="0" /></g><g
           id="g9084"
           transform="translate(127.8237,71.9766)"><path
             d="M 0,0 C 0.436,0 0.789,0.355 0.789,0.791 0.789,1.227 0.436,1.58 0,1.58 -0.436,1.58 -0.79,1.227 -0.79,0.791 -0.79,0.355 -0.436,0 0,0"
             style="fill:#231f20;fill-opacity:1;fill-rule:nonzero;stroke:none"
             id="path9086"
             inkscape:connector-curvature="0" /></g><g
           id="g9088"
           transform="translate(127.8237,71.9766)"><path
             d="M 0,0 C 0.436,0 0.789,0.355 0.789,0.791 0.789,1.227 0.436,1.58 0,1.58 -0.436,1.58 -0.79,1.227 -0.79,0.791 -0.79,0.355 -0.436,0 0,0 Z"
             style="fill:none;stroke:#ffffff;stroke-width:0.63999999;stroke-linecap:butt;stroke-linejoin:miter;stroke-miterlimit:4;stroke-dasharray:none;stroke-opacity:1"
             id="path9090"
             inkscape:connector-curvature="0" /></g><g
           id="g9092"
           transform="translate(127.9019,72.7676)"><path
             d="M 0,0 29.736,-25.493"
             style="fill:none;stroke:#231f20;stroke-width:0.31999999;stroke-linecap:round;stroke-linejoin:round;stroke-miterlimit:4;stroke-dasharray:none;stroke-opacity:1"
             id="path9094"
             inkscape:connector-curvature="0" /></g></g></g><text
       transform="matrix(1,0,0,-1,159.9536,42.457)"
       style="font-variant:normal;font-weight:bold;font-stretch:normal;font-size:7.67999983px;font-family:Helvetica;-inkscape-font-specification:Helvetica-Bold;writing-mode:lr-tb;fill:#231f20;fill-opacity:1;fill-rule:nonzero;stroke:none"
       id="text9096"><tspan
         x="0"
         y="0"
         id="tspan9098">2</tspan></text>
</g></svg>