<?xml version="1.0" encoding="UTF-8" standalone="no"?>
<!-- Created with Inkscape (http://www.inkscape.org/) -->

<svg
   xmlns:dc="http://purl.org/dc/elements/1.1/"
   xmlns:cc="http://creativecommons.org/ns#"
   xmlns:rdf="http://www.w3.org/1999/02/22-rdf-syntax-ns#"
   xmlns:svg="http://www.w3.org/2000/svg"
   xmlns="http://www.w3.org/2000/svg"
   xmlns:sodipodi="http://sodipodi.sourceforge.net/DTD/sodipodi-0.dtd"
   xmlns:inkscape="http://www.inkscape.org/namespaces/inkscape"
   id="svg3354"
   version="1.1"
   inkscape:version="0.91 r13725"
   xml:space="preserve"
   width="301.18124"
   height="230.315"
   viewBox="0 0 301.18124 230.315"
   sodipodi:docname="gaep_1.svg"><metadata
     id="metadata3360"><rdf:RDF><cc:Work
         rdf:about=""><dc:format>image/svg+xml</dc:format><dc:type
           rdf:resource="http://purl.org/dc/dcmitype/StillImage" /><dc:title></dc:title></cc:Work></rdf:RDF></metadata><defs
     id="defs3358"><clipPath
       clipPathUnits="userSpaceOnUse"
       id="clipPath3368"><path
         d="m 0,184.252 240.945,0 L 240.945,0 0,0 0,184.252 Z"
         id="path3370"
         inkscape:connector-curvature="0" /></clipPath><clipPath
       clipPathUnits="userSpaceOnUse"
       id="clipPath3396"><path
         d="m 18.8,141.005 0.768,-59.211 4.887,0 0,-1.395 27.579,-1.049 -0.349,-6.983 2.094,-1.047 6.284,-0.347 2.444,0.347 -0.698,8.38 6.632,-0.35 4.539,-64.933 6.284,0 0,127.771 -46.017,0.698 0.601,13.166 L 18.8,141.005 Z"
         id="path3398"
         inkscape:connector-curvature="0" /></clipPath><clipPath
       clipPathUnits="userSpaceOnUse"
       id="clipPath3480"><path
         d="m 18.8,141.005 0.768,-59.211 4.887,0 0,-1.395 27.579,-1.049 -0.349,-6.983 2.094,-1.047 6.284,-0.347 2.444,0.347 -0.698,8.38 6.632,-0.35 4.539,-64.933 6.284,0 0,127.771 -46.017,0.698 0.601,13.166 L 18.8,141.005 Z"
         id="path3482"
         inkscape:connector-curvature="0" /></clipPath><clipPath
       clipPathUnits="userSpaceOnUse"
       id="clipPath3500"><path
         d="m 174.732,142.171 0,-128.701 6.684,0 3.87,41.967 0.702,24.135 8.092,0 0.352,-8.396 1.76,-2.098 7.738,0.35 1.405,1.398 0,8.395 4.927,0 0.35,18.884 c 0,0 -1.757,0.701 -3.869,0.701 l 0,0 c -2.109,0 -7.387,0.348 -7.387,0.348 l 0,0 0.353,22.733 10.903,0.35 c 0,0 4.223,2.796 4.223,4.545 l 0,0 0,15.738 -13.016,0 -27.438,0.701 0.351,-1.05 z"
         id="path3502"
         inkscape:connector-curvature="0" /></clipPath><clipPath
       clipPathUnits="userSpaceOnUse"
       id="clipPath3604"><path
         d="m 0,184.252 240.945,0 L 240.945,0 0,0 0,184.252 Z"
         id="path3606"
         inkscape:connector-curvature="0" /></clipPath></defs><sodipodi:namedview
     pagecolor="#ffffff"
     bordercolor="#666666"
     borderopacity="1"
     objecttolerance="10"
     gridtolerance="10"
     guidetolerance="10"
     inkscape:pageopacity="0"
     inkscape:pageshadow="2"
     inkscape:window-width="640"
     inkscape:window-height="480"
     id="namedview3356"
     showgrid="false"
     inkscape:zoom="4.2072813"
     inkscape:cx="150.59062"
     inkscape:cy="115.1575"
     inkscape:window-x="0"
     inkscape:window-y="0"
     inkscape:window-maximized="1"
     inkscape:current-layer="g3362" /><g
     id="g3362"
     inkscape:groupmode="layer"
     inkscape:label="gaep_1"
     transform="matrix(1.25,0,0,-1.25,0,230.315)"><g
       id="g3364"><g
         id="g3366"
         clip-path="url(#clipPath3368)"><g
           id="g3372"
           transform="translate(18.9634,141.1235)"><path
             d="m 0,0 14.202,0.448 0,1.046 168.633,0.151 0,-0.749 12.557,0.298 -0.003,-14.351 c 0,0 0,-5.53 -5.084,-5.828 -5.083,-0.301 -8.521,-0.301 -8.521,-0.301 0,0 -1.497,0.301 -1.497,-0.897 l 0,-21.676 10.317,-0.149 c 0,0 1.045,-0.45 1.045,-1.944 0,-1.496 -0.252,-17.62 -0.252,-17.62 l -4.933,0.149 -0.046,-8.541 -0.897,-1.496 -8.969,0 -0.899,1.197 -0.353,8.849 -8.345,0 -1.17,-37.703 -2.541,-26.607 c 0,0 -0.147,-1.646 -1.195,-1.646 -1.045,0 -7.324,-0.15 -7.324,-0.15 l -22.276,24.219 c 0,0 -8.372,9.718 -23.47,9.718 -15.099,0 -23.321,-8.522 -23.321,-8.522 l -23.173,-24.966 -7.922,0 c 0,0 -0.749,0.15 -0.897,1.347 -0.15,1.194 -2.243,24.516 -2.243,24.516 l -1.44,39.583 -6.577,0 0.243,-7.89 -0.897,-1.195 -8.82,0 -0.897,1.195 0,7.924 -27.807,0 0,2.091 -5.232,0.152 L 0,0 Z"
             style="fill:none;stroke:#000000;stroke-width:1;stroke-linecap:round;stroke-linejoin:round;stroke-miterlimit:4;stroke-dasharray:none;stroke-opacity:1"
             id="path3374"
             inkscape:connector-curvature="0" /></g><g
           id="g3376"
           transform="translate(52.3135,71.5527)"><path
             d="M 0,0 10.299,0"
             style="fill:none;stroke:#000000;stroke-width:0.5;stroke-linecap:round;stroke-linejoin:round;stroke-miterlimit:4;stroke-dasharray:none;stroke-opacity:1"
             id="path3378"
             inkscape:connector-curvature="0" /></g><g
           id="g3380"
           transform="translate(195.0571,70.9326)"><path
             d="M 0,0 10.104,0"
             style="fill:none;stroke:#000000;stroke-width:0.5;stroke-linecap:round;stroke-linejoin:round;stroke-miterlimit:4;stroke-dasharray:none;stroke-opacity:1"
             id="path3382"
             inkscape:connector-curvature="0" /></g><g
           id="g3384"
           transform="translate(79.2275,142.0156)"><path
             d="M 0,0 0,-127.724"
             style="fill:none;stroke:#000000;stroke-width:1;stroke-linecap:round;stroke-linejoin:round;stroke-miterlimit:4;stroke-dasharray:none;stroke-opacity:1"
             id="path3386"
             inkscape:connector-curvature="0" /></g><g
           id="g3388"
           transform="translate(174.9165,141.3359)"><path
             d="M 0,0 0,-126.625"
             style="fill:none;stroke:#000000;stroke-width:1;stroke-linecap:round;stroke-linejoin:round;stroke-miterlimit:4;stroke-dasharray:none;stroke-opacity:1"
             id="path3390"
             inkscape:connector-curvature="0" /></g></g></g><g
       id="g3392"><g
         id="g3394"
         clip-path="url(#clipPath3396)"><g
           id="g3400"
           transform="translate(52.9482,10.1992)"><path
             d="M 0,0 156.269,156.271"
             style="fill:none;stroke:#000000;stroke-width:0.25;stroke-linecap:butt;stroke-linejoin:miter;stroke-miterlimit:4;stroke-dasharray:none;stroke-opacity:1"
             id="path3402"
             inkscape:connector-curvature="0" /></g><g
           id="g3404"
           transform="translate(44.2666,10.1992)"><path
             d="M 0,0 155.943,155.943"
             style="fill:none;stroke:#000000;stroke-width:0.25;stroke-linecap:butt;stroke-linejoin:miter;stroke-miterlimit:4;stroke-dasharray:none;stroke-opacity:1"
             id="path3406"
             inkscape:connector-curvature="0" /></g><g
           id="g3408"
           transform="translate(35.584,10.1992)"><path
             d="M 0,0 150.096,150.097"
             style="fill:none;stroke:#000000;stroke-width:0.25;stroke-linecap:butt;stroke-linejoin:miter;stroke-miterlimit:4;stroke-dasharray:none;stroke-opacity:1"
             id="path3410"
             inkscape:connector-curvature="0" /></g><g
           id="g3412"
           transform="translate(26.9023,10.1992)"><path
             d="M 0,0 150.097,150.097"
             style="fill:none;stroke:#000000;stroke-width:0.25;stroke-linecap:butt;stroke-linejoin:miter;stroke-miterlimit:4;stroke-dasharray:none;stroke-opacity:1"
             id="path3414"
             inkscape:connector-curvature="0" /></g><g
           id="g3416"
           transform="translate(18.7998,10.7793)"><path
             d="M 0,0 149.518,149.517"
             style="fill:none;stroke:#000000;stroke-width:0.25;stroke-linecap:butt;stroke-linejoin:miter;stroke-miterlimit:4;stroke-dasharray:none;stroke-opacity:1"
             id="path3418"
             inkscape:connector-curvature="0" /></g><g
           id="g3420"
           transform="translate(18.7998,19.46)"><path
             d="M 0,0 140.836,140.836"
             style="fill:none;stroke:#000000;stroke-width:0.25;stroke-linecap:butt;stroke-linejoin:miter;stroke-miterlimit:4;stroke-dasharray:none;stroke-opacity:1"
             id="path3422"
             inkscape:connector-curvature="0" /></g><g
           id="g3424"
           transform="translate(18.7998,28.1406)"><path
             d="M 0,0 132.156,132.155"
             style="fill:none;stroke:#000000;stroke-width:0.25;stroke-linecap:butt;stroke-linejoin:miter;stroke-miterlimit:4;stroke-dasharray:none;stroke-opacity:1"
             id="path3426"
             inkscape:connector-curvature="0" /></g><g
           id="g3428"
           transform="translate(18.7998,36.8232)"><path
             d="M 0,0 123.473,123.473"
             style="fill:none;stroke:#000000;stroke-width:0.25;stroke-linecap:butt;stroke-linejoin:miter;stroke-miterlimit:4;stroke-dasharray:none;stroke-opacity:1"
             id="path3430"
             inkscape:connector-curvature="0" /></g><g
           id="g3432"
           transform="translate(18.7998,45.5049)"><path
             d="M 0,0 116.654,116.654"
             style="fill:none;stroke:#000000;stroke-width:0.25;stroke-linecap:butt;stroke-linejoin:miter;stroke-miterlimit:4;stroke-dasharray:none;stroke-opacity:1"
             id="path3434"
             inkscape:connector-curvature="0" /></g><g
           id="g3436"
           transform="translate(18.7998,54.1865)"><path
             d="M 0,0 110.706,110.705"
             style="fill:none;stroke:#000000;stroke-width:0.25;stroke-linecap:butt;stroke-linejoin:miter;stroke-miterlimit:4;stroke-dasharray:none;stroke-opacity:1"
             id="path3438"
             inkscape:connector-curvature="0" /></g><g
           id="g3440"
           transform="translate(18.7998,62.8691)"><path
             d="M 0,0 93.183,93.183"
             style="fill:none;stroke:#000000;stroke-width:0.25;stroke-linecap:butt;stroke-linejoin:miter;stroke-miterlimit:4;stroke-dasharray:none;stroke-opacity:1"
             id="path3442"
             inkscape:connector-curvature="0" /></g><g
           id="g3444"
           transform="translate(18.7998,71.5508)"><path
             d="M 0,0 84.501,84.501"
             style="fill:none;stroke:#000000;stroke-width:0.25;stroke-linecap:butt;stroke-linejoin:miter;stroke-miterlimit:4;stroke-dasharray:none;stroke-opacity:1"
             id="path3446"
             inkscape:connector-curvature="0" /></g><g
           id="g3448"
           transform="translate(18.7998,80.2324)"><path
             d="M 0,0 75.82,75.819"
             style="fill:none;stroke:#000000;stroke-width:0.25;stroke-linecap:butt;stroke-linejoin:miter;stroke-miterlimit:4;stroke-dasharray:none;stroke-opacity:1"
             id="path3450"
             inkscape:connector-curvature="0" /></g><g
           id="g3452"
           transform="translate(18.7998,88.9121)"><path
             d="M 0,0 67.139,67.14"
             style="fill:none;stroke:#000000;stroke-width:0.25;stroke-linecap:butt;stroke-linejoin:miter;stroke-miterlimit:4;stroke-dasharray:none;stroke-opacity:1"
             id="path3454"
             inkscape:connector-curvature="0" /></g><g
           id="g3456"
           transform="translate(18.7998,97.5967)"><path
             d="M 0,0 58.458,58.455"
             style="fill:none;stroke:#000000;stroke-width:0.25;stroke-linecap:butt;stroke-linejoin:miter;stroke-miterlimit:4;stroke-dasharray:none;stroke-opacity:1"
             id="path3458"
             inkscape:connector-curvature="0" /></g><g
           id="g3460"
           transform="translate(18.7998,106.2773)"><path
             d="M 0,0 49.776,49.774"
             style="fill:none;stroke:#000000;stroke-width:0.25;stroke-linecap:butt;stroke-linejoin:miter;stroke-miterlimit:4;stroke-dasharray:none;stroke-opacity:1"
             id="path3462"
             inkscape:connector-curvature="0" /></g><g
           id="g3464"
           transform="translate(18.7998,114.9575)"><path
             d="M 0,0 41.094,41.094"
             style="fill:none;stroke:#000000;stroke-width:0.25;stroke-linecap:butt;stroke-linejoin:miter;stroke-miterlimit:4;stroke-dasharray:none;stroke-opacity:1"
             id="path3466"
             inkscape:connector-curvature="0" /></g><g
           id="g3468"
           transform="translate(18.7998,123.6411)"><path
             d="M 0,0 32.412,32.411"
             style="fill:none;stroke:#000000;stroke-width:0.25;stroke-linecap:butt;stroke-linejoin:miter;stroke-miterlimit:4;stroke-dasharray:none;stroke-opacity:1"
             id="path3470"
             inkscape:connector-curvature="0" /></g></g></g><g
       id="g3472"
       transform="translate(18.7998,132.3228)"><path
         d="M 0,0 9.157,9.157"
         style="fill:none;stroke:#000000;stroke-width:0.25;stroke-linecap:butt;stroke-linejoin:miter;stroke-miterlimit:4;stroke-dasharray:none;stroke-opacity:1"
         id="path3474"
         inkscape:connector-curvature="0" /></g><g
       id="g3476"><g
         id="g3478"
         clip-path="url(#clipPath3480)"><g
           id="g3484"
           transform="translate(61.6299,10.1992)"><path
             d="M 0,0 153.375,153.376"
             style="fill:none;stroke:#000000;stroke-width:0.25;stroke-linecap:butt;stroke-linejoin:miter;stroke-miterlimit:4;stroke-dasharray:none;stroke-opacity:1"
             id="path3486"
             inkscape:connector-curvature="0" /></g><g
           id="g3488"
           transform="translate(70.3115,10.1992)"><path
             d="M 0,0 144.694,144.695"
             style="fill:none;stroke:#000000;stroke-width:0.25;stroke-linecap:butt;stroke-linejoin:miter;stroke-miterlimit:4;stroke-dasharray:none;stroke-opacity:1"
             id="path3490"
             inkscape:connector-curvature="0" /></g><g
           id="g3492"
           transform="translate(78.9937,10.1992)"><path
             d="M 0,0 136.012,136.013"
             style="fill:none;stroke:#000000;stroke-width:0.25;stroke-linecap:butt;stroke-linejoin:miter;stroke-miterlimit:4;stroke-dasharray:none;stroke-opacity:1"
             id="path3494"
             inkscape:connector-curvature="0" /></g></g></g><g
       id="g3496"><g
         id="g3498"
         clip-path="url(#clipPath3500)"><g
           id="g3504"
           transform="translate(254.0015,93.0352)"><path
             d="M 0,0 -88.525,-88.526"
             style="fill:none;stroke:#000000;stroke-width:0.25;stroke-linecap:butt;stroke-linejoin:miter;stroke-miterlimit:4;stroke-dasharray:none;stroke-opacity:1"
             id="path3506"
             inkscape:connector-curvature="0" /></g><g
           id="g3508"
           transform="translate(254.0015,84.8877)"><path
             d="M 0,0 -77.768,-77.767"
             style="fill:none;stroke:#000000;stroke-width:0.25;stroke-linecap:butt;stroke-linejoin:miter;stroke-miterlimit:4;stroke-dasharray:none;stroke-opacity:1"
             id="path3510"
             inkscape:connector-curvature="0" /></g><g
           id="g3512"
           transform="translate(212.0015,10.3018)"><path
             d="M 0,0 42,41.999"
             style="fill:none;stroke:#000000;stroke-width:0.25;stroke-linecap:butt;stroke-linejoin:miter;stroke-miterlimit:4;stroke-dasharray:none;stroke-opacity:1"
             id="path3514"
             inkscape:connector-curvature="0" /></g><g
           id="g3516"
           transform="translate(203.856,10.3018)"><path
             d="M 0,0 50.146,50.146"
             style="fill:none;stroke:#000000;stroke-width:0.25;stroke-linecap:butt;stroke-linejoin:miter;stroke-miterlimit:4;stroke-dasharray:none;stroke-opacity:1"
             id="path3518"
             inkscape:connector-curvature="0" /></g><g
           id="g3520"
           transform="translate(195.7095,10.3018)"><path
             d="M 0,0 58.292,58.292"
             style="fill:none;stroke:#000000;stroke-width:0.25;stroke-linecap:butt;stroke-linejoin:miter;stroke-miterlimit:4;stroke-dasharray:none;stroke-opacity:1"
             id="path3522"
             inkscape:connector-curvature="0" /></g><g
           id="g3524"
           transform="translate(187.562,10.3018)"><path
             d="M 0,0 66.439,66.44"
             style="fill:none;stroke:#000000;stroke-width:0.25;stroke-linecap:butt;stroke-linejoin:miter;stroke-miterlimit:4;stroke-dasharray:none;stroke-opacity:1"
             id="path3526"
             inkscape:connector-curvature="0" /></g><g
           id="g3528"
           transform="translate(101.9341,14.2852)"><path
             d="M 0,0 146.638,146.636"
             style="fill:none;stroke:#000000;stroke-width:0.25;stroke-linecap:butt;stroke-linejoin:miter;stroke-miterlimit:4;stroke-dasharray:none;stroke-opacity:1"
             id="path3530"
             inkscape:connector-curvature="0" /></g><g
           id="g3532"
           transform="translate(93.7871,14.2852)"><path
             d="M 0,0 146.33,146.329"
             style="fill:none;stroke:#000000;stroke-width:0.25;stroke-linecap:butt;stroke-linejoin:miter;stroke-miterlimit:4;stroke-dasharray:none;stroke-opacity:1"
             id="path3534"
             inkscape:connector-curvature="0" /></g><g
           id="g3536"
           transform="translate(85.6406,14.2852)"><path
             d="M 0,0 140.845,140.842"
             style="fill:none;stroke:#000000;stroke-width:0.25;stroke-linecap:butt;stroke-linejoin:miter;stroke-miterlimit:4;stroke-dasharray:none;stroke-opacity:1"
             id="path3538"
             inkscape:connector-curvature="0" /></g><g
           id="g3540"
           transform="translate(77.4941,14.2852)"><path
             d="M 0,0 140.842,140.842"
             style="fill:none;stroke:#000000;stroke-width:0.25;stroke-linecap:butt;stroke-linejoin:miter;stroke-miterlimit:4;stroke-dasharray:none;stroke-opacity:1"
             id="path3542"
             inkscape:connector-curvature="0" /></g><g
           id="g3544"
           transform="translate(69.8916,14.8291)"><path
             d="M 0,0 140.299,140.298"
             style="fill:none;stroke:#000000;stroke-width:0.25;stroke-linecap:butt;stroke-linejoin:miter;stroke-miterlimit:4;stroke-dasharray:none;stroke-opacity:1"
             id="path3546"
             inkscape:connector-curvature="0" /></g><g
           id="g3548"
           transform="translate(69.8916,22.9756)"><path
             d="M 0,0 132.154,132.152"
             style="fill:none;stroke:#000000;stroke-width:0.25;stroke-linecap:butt;stroke-linejoin:miter;stroke-miterlimit:4;stroke-dasharray:none;stroke-opacity:1"
             id="path3550"
             inkscape:connector-curvature="0" /></g><g
           id="g3552"
           transform="translate(69.8916,31.1201)"><path
             d="M 0,0 124.009,124.007"
             style="fill:none;stroke:#000000;stroke-width:0.25;stroke-linecap:butt;stroke-linejoin:miter;stroke-miterlimit:4;stroke-dasharray:none;stroke-opacity:1"
             id="path3554"
             inkscape:connector-curvature="0" /></g><g
           id="g3556"
           transform="translate(69.8916,39.2676)"><path
             d="M 0,0 115.862,115.86"
             style="fill:none;stroke:#000000;stroke-width:0.25;stroke-linecap:butt;stroke-linejoin:miter;stroke-miterlimit:4;stroke-dasharray:none;stroke-opacity:1"
             id="path3558"
             inkscape:connector-curvature="0" /></g><g
           id="g3560"
           transform="translate(69.8916,47.4141)"><path
             d="M 0,0 109.462,109.462"
             style="fill:none;stroke:#000000;stroke-width:0.25;stroke-linecap:butt;stroke-linejoin:miter;stroke-miterlimit:4;stroke-dasharray:none;stroke-opacity:1"
             id="path3562"
             inkscape:connector-curvature="0" /></g><g
           id="g3564"
           transform="translate(110.0811,14.2852)"><path
             d="M 0,0 143.92,143.921"
             style="fill:none;stroke:#000000;stroke-width:0.25;stroke-linecap:butt;stroke-linejoin:miter;stroke-miterlimit:4;stroke-dasharray:none;stroke-opacity:1"
             id="path3566"
             inkscape:connector-curvature="0" /></g><g
           id="g3568"
           transform="translate(118.2271,14.2852)"><path
             d="M 0,0 135.774,135.775"
             style="fill:none;stroke:#000000;stroke-width:0.25;stroke-linecap:butt;stroke-linejoin:miter;stroke-miterlimit:4;stroke-dasharray:none;stroke-opacity:1"
             id="path3570"
             inkscape:connector-curvature="0" /></g><g
           id="g3572"
           transform="translate(126.3726,14.2852)"><path
             d="M 0,0 127.629,127.626"
             style="fill:none;stroke:#000000;stroke-width:0.25;stroke-linecap:butt;stroke-linejoin:miter;stroke-miterlimit:4;stroke-dasharray:none;stroke-opacity:1"
             id="path3574"
             inkscape:connector-curvature="0" /></g><g
           id="g3576"
           transform="translate(134.52,14.2852)"><path
             d="M 0,0 119.481,119.48"
             style="fill:none;stroke:#000000;stroke-width:0.25;stroke-linecap:butt;stroke-linejoin:miter;stroke-miterlimit:4;stroke-dasharray:none;stroke-opacity:1"
             id="path3578"
             inkscape:connector-curvature="0" /></g><g
           id="g3580"
           transform="translate(142.6675,14.2852)"><path
             d="M 0,0 111.334,111.334"
             style="fill:none;stroke:#000000;stroke-width:0.25;stroke-linecap:butt;stroke-linejoin:miter;stroke-miterlimit:4;stroke-dasharray:none;stroke-opacity:1"
             id="path3582"
             inkscape:connector-curvature="0" /></g><g
           id="g3584"
           transform="translate(150.813,14.2852)"><path
             d="M 0,0 103.188,103.188"
             style="fill:none;stroke:#000000;stroke-width:0.25;stroke-linecap:butt;stroke-linejoin:miter;stroke-miterlimit:4;stroke-dasharray:none;stroke-opacity:1"
             id="path3586"
             inkscape:connector-curvature="0" /></g><g
           id="g3588"
           transform="translate(254.0015,109.3267)"><path
             d="M 0,0 -96.13,-96.128"
             style="fill:none;stroke:#000000;stroke-width:0.25;stroke-linecap:butt;stroke-linejoin:miter;stroke-miterlimit:4;stroke-dasharray:none;stroke-opacity:1"
             id="path3590"
             inkscape:connector-curvature="0" /></g><g
           id="g3592"
           transform="translate(157.8716,5.0508)"><path
             d="M 0,0 96.13,96.131"
             style="fill:none;stroke:#000000;stroke-width:0.25;stroke-linecap:butt;stroke-linejoin:miter;stroke-miterlimit:4;stroke-dasharray:none;stroke-opacity:1"
             id="path3594"
             inkscape:connector-curvature="0" /></g></g></g><g
       id="g3596"
       transform="translate(82.4004,131.1685)"><path
         d="M 0,0 89.656,0"
         style="fill:none;stroke:#000000;stroke-width:0.5;stroke-linecap:butt;stroke-linejoin:miter;stroke-miterlimit:4;stroke-dasharray:none;stroke-opacity:1"
         id="path3598"
         inkscape:connector-curvature="0" /></g><g
       id="g3600"><g
         id="g3602"
         clip-path="url(#clipPath3604)"><g
           id="g3608"
           transform="translate(172.3823,131.7427)"><path
             d="m 0,0 c -0.926,0.279 -1.527,0.536 -2.27,0.835 l 0,-2.825 c 0.266,0.126 1.344,0.555 2.27,0.835 0.992,0.3 1.889,0.505 2.473,0.578 C 1.889,-0.505 0.992,-0.3 0,0"
             style="fill:#000000;fill-opacity:1;fill-rule:nonzero;stroke:none"
             id="path3610"
             inkscape:connector-curvature="0" /></g><g
           id="g3612"
           transform="translate(82.0732,130.5942)"><path
             d="m 0,0 c 0.925,-0.279 1.527,-0.537 2.271,-0.835 l 0,2.825 C 2.004,1.864 0.925,1.435 0,1.154 -0.991,0.855 -1.89,0.65 -2.473,0.577 -1.89,0.504 -0.991,0.3 0,0"
             style="fill:#000000;fill-opacity:1;fill-rule:nonzero;stroke:none"
             id="path3614"
             inkscape:connector-curvature="0" /></g><g
           id="g3616"
           transform="translate(108.7852,111.8794)"><path
             d="M 0,0 0,16.057"
             style="fill:none;stroke:#000000;stroke-width:0.5;stroke-linecap:butt;stroke-linejoin:miter;stroke-miterlimit:4;stroke-dasharray:none;stroke-opacity:1"
             id="path3618"
             inkscape:connector-curvature="0" /></g><g
           id="g3620"
           transform="translate(108.2119,128.2632)"><path
             d="m 0,0 c -0.28,-0.926 -0.537,-1.527 -0.835,-2.271 l 2.824,0 C 1.863,-2.005 1.433,-0.926 1.154,0 0.854,0.991 0.65,1.89 0.577,2.473 0.504,1.89 0.3,0.991 0,0"
             style="fill:#000000;fill-opacity:1;fill-rule:nonzero;stroke:none"
             id="path3622"
             inkscape:connector-curvature="0" /></g><g
           id="g3624"
           transform="translate(108.7852,146.0981)"><path
             d="M 0,0 0,13.816"
             style="fill:none;stroke:#000000;stroke-width:0.5;stroke-linecap:butt;stroke-linejoin:miter;stroke-miterlimit:4;stroke-dasharray:none;stroke-opacity:1"
             id="path3626"
             inkscape:connector-curvature="0" /></g><g
           id="g3628"
           transform="translate(109.3594,145.771)"><path
             d="m 0,0 c 0.28,0.926 0.537,1.528 0.836,2.271 l -2.825,0 C -1.863,2.004 -1.434,0.926 -1.154,0 -0.854,-0.991 -0.65,-1.889 -0.577,-2.472 -0.504,-1.889 -0.3,-0.991 0,0"
             style="fill:#000000;fill-opacity:1;fill-rule:nonzero;stroke:none"
             id="path3630"
             inkscape:connector-curvature="0" /></g></g></g><text
       transform="matrix(1,0,0,-1,93.5483,101.3818)"
       style="font-variant:normal;font-weight:bold;font-stretch:normal;font-size:12px;font-family:Myriad;-inkscape-font-specification:Myriad-Bold;writing-mode:lr-tb;fill:#231f20;fill-opacity:1;fill-rule:nonzero;stroke:none"
       id="text3632"><tspan
         x="0 6.6599998 13.32 15.744 26.063999"
         y="0"
         sodipodi:role="line"
         id="tspan3634">10 mm</tspan></text>
<text
       transform="matrix(1,0,0,-1,6.7622,4.8252)"
       style="font-variant:normal;font-weight:normal;font-stretch:normal;font-size:5px;font-family:Helvetica;-inkscape-font-specification:Helvetica;writing-mode:lr-tb;fill:#000000;fill-opacity:1;fill-rule:nonzero;stroke:none"
       id="text3636"><tspan
         x="0 2.78 5.5599999 8.3400002 11.12 13.9"
         y="0"
         sodipodi:role="line"
         id="tspan3638">gaep_1</tspan></text>
</g></svg>