<?xml version="1.0" encoding="UTF-8" standalone="no"?>
<!-- Created with Inkscape (http://www.inkscape.org/) -->

<svg
   xmlns:dc="http://purl.org/dc/elements/1.1/"
   xmlns:cc="http://creativecommons.org/ns#"
   xmlns:rdf="http://www.w3.org/1999/02/22-rdf-syntax-ns#"
   xmlns:svg="http://www.w3.org/2000/svg"
   xmlns="http://www.w3.org/2000/svg"
   xmlns:sodipodi="http://sodipodi.sourceforge.net/DTD/sodipodi-0.dtd"
   xmlns:inkscape="http://www.inkscape.org/namespaces/inkscape"
   id="svg3336"
   version="1.1"
   inkscape:version="0.91 r13725"
   xml:space="preserve"
   width="301.18124"
   height="230.315"
   viewBox="0 0 301.18124 230.315"
   sodipodi:docname="cjqi_2.svg"><metadata
     id="metadata3342"><rdf:RDF><cc:Work
         rdf:about=""><dc:format>image/svg+xml</dc:format><dc:type
           rdf:resource="http://purl.org/dc/dcmitype/StillImage" /><dc:title></dc:title></cc:Work></rdf:RDF></metadata><defs
     id="defs3340"><clipPath
       clipPathUnits="userSpaceOnUse"
       id="clipPath3350"><path
         d="m 0,184.252 240.945,0 L 240.945,0 0,0 0,184.252 Z"
         id="path3352"
         inkscape:connector-curvature="0" /></clipPath></defs><sodipodi:namedview
     pagecolor="#ffffff"
     bordercolor="#666666"
     borderopacity="1"
     objecttolerance="10"
     gridtolerance="10"
     guidetolerance="10"
     inkscape:pageopacity="0"
     inkscape:pageshadow="2"
     inkscape:window-width="640"
     inkscape:window-height="480"
     id="namedview3338"
     showgrid="false"
     inkscape:zoom="3.317196"
     inkscape:cx="150.59062"
     inkscape:cy="115.1575"
     inkscape:window-x="0"
     inkscape:window-y="0"
     inkscape:window-maximized="1"
     inkscape:current-layer="g3344" /><g
     id="g3344"
     inkscape:groupmode="layer"
     inkscape:label="cjqi_2"
     transform="matrix(1.25,0,0,-1.25,0,230.315)"><g
       id="g3346"><g
         id="g3348"
         clip-path="url(#clipPath3350)"><g
           id="g3354"
           transform="translate(154.6055,145.7285)"><path
             d="m 0,0 c 1.812,-1.675 2.809,-3.503 2.809,-5.417 0,-8.08 -17.775,-14.631 -39.701,-14.631 -21.955,0 -39.73,6.551 -39.73,14.631 0,1.857 0.938,3.633 2.65,5.269"
             style="fill:none;stroke:#000000;stroke-width:0.5;stroke-linecap:round;stroke-linejoin:round;stroke-miterlimit:10;stroke-dasharray:none;stroke-opacity:1"
             id="path3356"
             inkscape:connector-curvature="0" /></g><g
           id="g3358"
           transform="translate(162.6553,132.1943)"><path
             d="m 0,0 c 0,-9.378 -20.119,-16.98 -44.941,-16.98 -24.85,0 -44.972,7.602 -44.972,16.98"
             style="fill:none;stroke:#000000;stroke-width:0.5;stroke-linecap:round;stroke-linejoin:round;stroke-miterlimit:10;stroke-dasharray:none;stroke-opacity:1"
             id="path3360"
             inkscape:connector-curvature="0" /></g><g
           id="g3362"
           transform="translate(75.1792,137.7227)"><path
             d="m 0,0 c -1.579,-1.733 -2.437,-3.593 -2.437,-5.528 l 0,-10.115 c 0,-9.378 20.123,-16.981 44.972,-16.981 24.822,0 44.941,7.603 44.941,16.981 l 0,10.115 c 0,1.934 -0.856,3.792 -2.434,5.525"
             style="fill:none;stroke:#000000;stroke-width:1;stroke-linecap:round;stroke-linejoin:round;stroke-miterlimit:10;stroke-dasharray:none;stroke-opacity:1"
             id="path3364"
             inkscape:connector-curvature="0" /></g><g
           id="g3366"
           transform="translate(162.6553,127.8677)"><path
             d="m 0,0 c 0,-9.377 -20.119,-16.98 -44.941,-16.98 -24.85,0 -44.972,7.603 -44.972,16.98"
             style="fill:none;stroke:#000000;stroke-width:0.5;stroke-linecap:round;stroke-linejoin:round;stroke-miterlimit:10;stroke-dasharray:none;stroke-opacity:1"
             id="path3368"
             inkscape:connector-curvature="0" /></g><g
           id="g3370"
           transform="translate(162.6553,124.9736)"><path
             d="m 0,0 c 0,-9.378 -20.119,-16.98 -44.941,-16.98 -24.85,0 -44.972,7.602 -44.972,16.98"
             style="fill:none;stroke:#000000;stroke-width:0.5;stroke-linecap:round;stroke-linejoin:round;stroke-miterlimit:10;stroke-dasharray:none;stroke-opacity:1"
             id="path3372"
             inkscape:connector-curvature="0" /></g><g
           id="g3374"
           transform="translate(156.1094,113.0776)"><path
             d="m 0,0 c -6.912,-5.379 -21.507,-9.087 -38.396,-9.086 -17.697,0 -32.861,4.057 -39.337,9.842"
             style="fill:none;stroke:#000000;stroke-width:0.5;stroke-linecap:round;stroke-linejoin:round;stroke-miterlimit:10;stroke-dasharray:none;stroke-opacity:1"
             id="path3376"
             inkscape:connector-curvature="0" /></g><g
           id="g3378"
           transform="translate(160.1533,116.1641)"><path
             d="m 0,0 c -2.186,-8.127 -20.351,-14.465 -42.439,-14.465 -22.5,0 -40.915,6.559 -42.57,14.889"
             style="fill:none;stroke:#000000;stroke-width:0.5;stroke-linecap:round;stroke-linejoin:round;stroke-miterlimit:10;stroke-dasharray:none;stroke-opacity:1"
             id="path3380"
             inkscape:connector-curvature="0" /></g><g
           id="g3382"
           transform="translate(160.373,115.5161)"><path
             d="m 0,0 c 0,-8.902 -19.099,-16.109 -42.659,-16.109 -23.59,0 -42.691,7.207 -42.691,16.109"
             style="fill:none;stroke:#000000;stroke-width:0.5;stroke-linecap:round;stroke-linejoin:round;stroke-miterlimit:10;stroke-dasharray:none;stroke-opacity:1"
             id="path3384"
             inkscape:connector-curvature="0" /></g><g
           id="g3386"
           transform="translate(160.373,113.2202)"><path
             d="m 0,0 c 0,-8.902 -19.099,-16.105 -42.659,-16.105 -23.59,0 -42.691,7.203 -42.691,16.105"
             style="fill:none;stroke:#000000;stroke-width:0.5;stroke-linecap:round;stroke-linejoin:round;stroke-miterlimit:10;stroke-dasharray:none;stroke-opacity:1"
             id="path3388"
             inkscape:connector-curvature="0" /></g><g
           id="g3390"
           transform="translate(160.373,110.9238)"><path
             d="m 0,0 c 0,-8.898 -19.099,-16.101 -42.659,-16.101 -23.59,0 -42.691,7.203 -42.691,16.101"
             style="fill:none;stroke:#000000;stroke-width:0.5;stroke-linecap:round;stroke-linejoin:round;stroke-miterlimit:10;stroke-dasharray:none;stroke-opacity:1"
             id="path3392"
             inkscape:connector-curvature="0" /></g><g
           id="g3394"
           transform="translate(160.373,116.4834)"><path
             d="m 0,0 0,-7.716 c 0,-8.894 -19.099,-16.099 -42.659,-16.099 -23.59,0 -42.691,7.205 -42.691,16.099 l 0,7.972"
             style="fill:none;stroke:#000000;stroke-width:1;stroke-linecap:round;stroke-linejoin:round;stroke-miterlimit:10;stroke-dasharray:none;stroke-opacity:1"
             id="path3396"
             inkscape:connector-curvature="0" /></g><g
           id="g3398"
           transform="translate(158.126,102.8682)"><path
             d="m 0,0 0,-0.871 c 0,-8.42 -18.092,-15.243 -40.412,-15.243 -22.349,0 -40.445,6.823 -40.445,15.243 l 0,0.871"
             style="fill:none;stroke:#000000;stroke-width:1;stroke-linecap:round;stroke-linejoin:round;stroke-miterlimit:10;stroke-dasharray:none;stroke-opacity:1"
             id="path3400"
             inkscape:connector-curvature="0" /></g><g
           id="g3402"
           transform="translate(154.8848,87.207)"><path
             d="m 0,0 c 0,-7.744 -16.642,-14.014 -37.172,-14.014 -20.56,0 -37.204,6.27 -37.204,14.014"
             style="fill:none;stroke:#000000;stroke-width:0.5;stroke-linecap:round;stroke-linejoin:round;stroke-miterlimit:10;stroke-dasharray:none;stroke-opacity:1"
             id="path3404"
             inkscape:connector-curvature="0" /></g><g
           id="g3406"
           transform="translate(84.3159,93.396)"><path
             d="m 0,0 c -2.438,-1.867 -3.808,-3.967 -3.808,-6.189 l 0,-3.899 c 0,-7.742 16.645,-14.007 37.205,-14.007 20.53,0 37.172,6.265 37.172,14.007 l 0,3.899 c 0,2.222 -1.369,4.322 -3.807,6.189"
             style="fill:none;stroke:#000000;stroke-width:1;stroke-linecap:round;stroke-linejoin:round;stroke-miterlimit:10;stroke-dasharray:none;stroke-opacity:1"
             id="path3408"
             inkscape:connector-curvature="0" /></g><g
           id="g3410"
           transform="translate(138.9365,71.8076)"><path
             d="m 0,0 0,-13.831 c 0,-4.672 -9.362,-8.459 -20.91,-8.459 l -20.944,8.459 0,13.668"
             style="fill:none;stroke:#000000;stroke-width:1;stroke-linecap:round;stroke-linejoin:round;stroke-miterlimit:10;stroke-dasharray:none;stroke-opacity:1"
             id="path3412"
             inkscape:connector-curvature="0" /></g><g
           id="g3414"
           transform="translate(118.0264,59.126)"><path
             d="M 0,0 0,-9.608"
             style="fill:none;stroke:#000000;stroke-width:0.5;stroke-linecap:round;stroke-linejoin:round;stroke-miterlimit:10;stroke-dasharray:none;stroke-opacity:1"
             id="path3416"
             inkscape:connector-curvature="0" /></g><g
           id="g3418"
           transform="translate(97.083,67.583)"><path
             d="M 0,0 C 0,-4.669 9.375,-8.457 20.943,-8.457"
             style="fill:none;stroke:#000000;stroke-width:1;stroke-linecap:butt;stroke-linejoin:round;stroke-miterlimit:10;stroke-dasharray:none;stroke-opacity:1"
             id="path3420"
             inkscape:connector-curvature="0" /></g><g
           id="g3422"
           transform="translate(101.437,56.0986)"><path
             d="m 0,0 0,-4.192 c 0,-3.991 7.423,-7.224 16.579,-7.224 9.139,0 16.549,3.233 16.549,7.224 l 0,0.895"
             style="fill:none;stroke:#000000;stroke-width:1;stroke-linecap:round;stroke-linejoin:round;stroke-miterlimit:10;stroke-dasharray:none;stroke-opacity:1"
             id="path3424"
             inkscape:connector-curvature="0" /></g><g
           id="g3426"
           transform="translate(127.7373,46.5029)"><path
             d="m 0,0 c 0,-2.185 -4.353,-3.953 -9.722,-3.953 -5.379,0 -9.738,1.768 -9.738,3.953"
             style="fill:none;stroke:#000000;stroke-width:0.5;stroke-linecap:round;stroke-linejoin:round;stroke-miterlimit:10;stroke-dasharray:none;stroke-opacity:1"
             id="path3428"
             inkscape:connector-curvature="0" /></g><g
           id="g3430"
           transform="translate(146.5908,87.207)"><path
             d="m 0,0 c 0,-6.016 -12.928,-10.891 -28.878,-10.891 -15.975,0 -28.911,4.875 -28.911,10.891"
             style="fill:none;stroke:#000000;stroke-width:0.5;stroke-linecap:round;stroke-linejoin:round;stroke-miterlimit:10;stroke-dasharray:none;stroke-opacity:1"
             id="path3432"
             inkscape:connector-curvature="0" /></g><g
           id="g3434"
           transform="translate(146.5908,90.6748)"><path
             d="m 0,0 c 0,-6.017 -12.928,-10.895 -28.878,-10.895 -15.975,0 -28.911,4.878 -28.911,10.895"
             style="fill:none;stroke:#000000;stroke-width:0.5;stroke-linecap:round;stroke-linejoin:round;stroke-miterlimit:10;stroke-dasharray:none;stroke-opacity:1"
             id="path3436"
             inkscape:connector-curvature="0" /></g><g
           id="g3438"
           transform="translate(144.8613,90.4189)"><path
             d="m 0,0 c -4.031,-4.185 -14.664,-7.171 -27.148,-7.171 -12.915,0 -23.843,3.187 -27.556,7.586"
             style="fill:none;stroke:#000000;stroke-width:0.5;stroke-linecap:round;stroke-linejoin:round;stroke-miterlimit:10;stroke-dasharray:none;stroke-opacity:1"
             id="path3440"
             inkscape:connector-curvature="0" /></g><g
           id="g3442"
           transform="translate(154.3281,140.312)"><path
             d="m 0,0 c 0,-7.453 -16.394,-13.495 -36.614,-13.495 -20.251,0 -36.645,6.042 -36.645,13.495 0,7.453 16.394,13.495 36.645,13.495 C -16.394,13.495 0,7.453 0,0 Z"
             style="fill:none;stroke:#000000;stroke-width:0.5;stroke-linecap:round;stroke-linejoin:round;stroke-miterlimit:10;stroke-dasharray:none;stroke-opacity:1"
             id="path3444"
             inkscape:connector-curvature="0" /></g><g
           id="g3446"
           transform="translate(142.126,135.8145)"><path
             d="m 0,0 c 0,-4.969 -10.931,-8.997 -24.412,-8.997 -13.504,0 -24.442,4.028 -24.442,8.997 0,4.969 10.938,8.998 24.442,8.998 C -10.931,8.998 0,4.969 0,0 Z"
             style="fill:none;stroke:#000000;stroke-width:0.5;stroke-linecap:round;stroke-linejoin:round;stroke-miterlimit:10;stroke-dasharray:none;stroke-opacity:1"
             id="path3448"
             inkscape:connector-curvature="0" /></g><g
           id="g3450"
           transform="translate(75.1831,132.6909)"><path
             d="m 0,0 12.177,-11.161 29.976,-4.708 30.157,4.504 12.722,11.083"
             style="fill:none;stroke:#000000;stroke-width:0.5;stroke-linecap:round;stroke-linejoin:round;stroke-miterlimit:10;stroke-dasharray:none;stroke-opacity:1"
             id="path3452"
             inkscape:connector-curvature="0" /></g><g
           id="g3454"
           transform="translate(160.2148,138.2764)"><path
             d="m 0,0 c -4.288,-2.526 -7.59,-4.85 -12.722,-11.084 -11.057,0.173 -18.379,-0.779 -30.157,-4.503 -11.657,4.009 -18.28,4.998 -29.975,4.708 -4.072,5.347 -7.028,8.046 -12.178,11.161"
             style="fill:none;stroke:#000000;stroke-width:0.5;stroke-linecap:round;stroke-linejoin:round;stroke-miterlimit:10;stroke-dasharray:none;stroke-opacity:1"
             id="path3456"
             inkscape:connector-curvature="0" /></g><g
           id="g3458"
           transform="translate(75.1831,132.6909)"><path
             d="m 0,0 0,5.867 c 1.784,2.92 3.62,5.243 5.451,7.022 5.737,5.478 20.165,9.363 37.08,9.363 16.733,0 31.049,-3.815 36.891,-9.214 l 0.012,-0.046 c 1.71,-1.666 3.468,-4.007 5.598,-7.407 l 0,-5.585"
             style="fill:none;stroke:#000000;stroke-width:1;stroke-linecap:round;stroke-linejoin:round;stroke-miterlimit:10;stroke-dasharray:none;stroke-opacity:1"
             id="path3460"
             inkscape:connector-curvature="0" /></g><g
           id="g3462"
           transform="translate(117.3359,122.6895)"><path
             d="M 0,0 0,-5.868"
             style="fill:none;stroke:#000000;stroke-width:0.5;stroke-linecap:round;stroke-linejoin:round;stroke-miterlimit:10;stroke-dasharray:none;stroke-opacity:1"
             id="path3464"
             inkscape:connector-curvature="0" /></g><g
           id="g3466"
           transform="translate(147.4932,127.1924)"><path
             d="M 0,0 0,-5.867"
             style="fill:none;stroke:#000000;stroke-width:0.5;stroke-linecap:round;stroke-linejoin:round;stroke-miterlimit:10;stroke-dasharray:none;stroke-opacity:1"
             id="path3468"
             inkscape:connector-curvature="0" /></g><g
           id="g3470"
           transform="translate(87.3604,127.397)"><path
             d="M 0,0 0,-5.867"
             style="fill:none;stroke:#000000;stroke-width:0.5;stroke-linecap:round;stroke-linejoin:round;stroke-miterlimit:10;stroke-dasharray:none;stroke-opacity:1"
             id="path3472"
             inkscape:connector-curvature="0" /></g><g
           id="g3474"
           transform="translate(146.5908,87.207)"><path
             d="M 0,0 0,3.756"
             style="fill:none;stroke:#000000;stroke-width:1;stroke-linecap:round;stroke-linejoin:round;stroke-miterlimit:10;stroke-dasharray:none;stroke-opacity:1"
             id="path3476"
             inkscape:connector-curvature="0" /></g><g
           id="g3478"
           transform="translate(88.8022,87.207)"><path
             d="M 0,0 0,3.756"
             style="fill:none;stroke:#000000;stroke-width:1;stroke-linecap:round;stroke-linejoin:round;stroke-miterlimit:10;stroke-dasharray:none;stroke-opacity:1"
             id="path3480"
             inkscape:connector-curvature="0" /></g><g
           id="g3482"
           transform="translate(109.7305,45.9639)"><path
             d="M 0,0 0,6.442"
             style="fill:none;stroke:#000000;stroke-width:0.5;stroke-linecap:round;stroke-linejoin:round;stroke-miterlimit:10;stroke-dasharray:none;stroke-opacity:1"
             id="path3484"
             inkscape:connector-curvature="0" /></g><g
           id="g3486"
           transform="translate(127.8506,50.3896)"><path
             d="M 0,0 0,-4.293"
             style="fill:none;stroke:#000000;stroke-width:0.5;stroke-linecap:round;stroke-linejoin:round;stroke-miterlimit:10;stroke-dasharray:none;stroke-opacity:1"
             id="path3488"
             inkscape:connector-curvature="0" /></g><g
           id="g3490"
           transform="translate(127.7373,0)"><path
             d="M 0,0 0,45.964"
             style="fill:none;stroke:#000000;stroke-width:1;stroke-linecap:round;stroke-linejoin:round;stroke-miterlimit:10;stroke-dasharray:none;stroke-opacity:1"
             id="path3492"
             inkscape:connector-curvature="0" /></g><g
           id="g3494"
           transform="translate(108.2769,-0.2783)"><path
             d="M 0,0 0,46.242"
             style="fill:none;stroke:#000000;stroke-width:1;stroke-linecap:round;stroke-linejoin:round;stroke-miterlimit:10;stroke-dasharray:none;stroke-opacity:1"
             id="path3496"
             inkscape:connector-curvature="0" /></g><g
           id="g3498"
           transform="translate(127.7373,44.1699)"><path
             d="m 0,0 c 0,-2.185 -4.352,-3.953 -9.721,-3.953 -5.379,0 -9.739,1.768 -9.739,3.953"
             style="fill:none;stroke:#000000;stroke-width:0.5;stroke-linecap:round;stroke-linejoin:round;stroke-miterlimit:10;stroke-dasharray:none;stroke-opacity:1"
             id="path3500"
             inkscape:connector-curvature="0" /></g></g></g><text
       transform="matrix(1,0,0,-1,2.3496,2.2432)"
       style="font-variant:normal;font-weight:normal;font-stretch:normal;font-size:4px;font-family:'Swiss 721 SWA';-inkscape-font-specification:Helvetica;writing-mode:lr-tb;fill:#231f20;fill-opacity:1;fill-rule:nonzero;stroke:none"
       id="text3502"><tspan
         x="0 2 2.888 5.112 6 8.224"
         y="0"
         sodipodi:role="line"
         id="tspan3504">cjqi_2</tspan></text>
<g
       id="g3506"
       transform="translate(69.0552,53.2695)"><path
         d="M 0,0 34.972,-1.914"
         style="fill:none;stroke:#ffffff;stroke-width:3;stroke-linecap:round;stroke-linejoin:miter;stroke-miterlimit:4;stroke-dasharray:none;stroke-opacity:1"
         id="path3508"
         inkscape:connector-curvature="0" /></g><g
       id="g3510"
       transform="translate(104.0269,51.3555)"><path
         d="M 0,0 0,0"
         style="fill:none;stroke:#ffffff;stroke-width:3.75;stroke-linecap:round;stroke-linejoin:miter;stroke-miterlimit:4;stroke-dasharray:none;stroke-opacity:1"
         id="path3512"
         inkscape:connector-curvature="0" /></g><g
       id="g3514"
       transform="translate(69.0552,53.2695)"><path
         d="M 0,0 34.972,-1.914"
         style="fill:none;stroke:#211f1f;stroke-width:0.5;stroke-linecap:round;stroke-linejoin:miter;stroke-miterlimit:4;stroke-dasharray:none;stroke-opacity:1"
         id="path3516"
         inkscape:connector-curvature="0" /></g><g
       id="g3518"
       transform="translate(104.0269,51.3555)"><path
         d="M 0,0 0,0"
         style="fill:none;stroke:#211f1f;stroke-width:1.5;stroke-linecap:round;stroke-linejoin:miter;stroke-miterlimit:4;stroke-dasharray:none;stroke-opacity:1"
         id="path3520"
         inkscape:connector-curvature="0" /></g><g
       id="g3522"
       transform="translate(175.4443,150.2725)"><path
         d="M 0,0 -28.25,-7"
         style="fill:none;stroke:#ffffff;stroke-width:3;stroke-linecap:round;stroke-linejoin:miter;stroke-miterlimit:4;stroke-dasharray:none;stroke-opacity:1"
         id="path3524"
         inkscape:connector-curvature="0" /></g><g
       id="g3526"
       transform="translate(147.1943,143.2725)"><path
         d="M 0,0 0,0"
         style="fill:none;stroke:#ffffff;stroke-width:3.75;stroke-linecap:round;stroke-linejoin:miter;stroke-miterlimit:4;stroke-dasharray:none;stroke-opacity:1"
         id="path3528"
         inkscape:connector-curvature="0" /></g><g
       id="g3530"
       transform="translate(175.4443,150.2725)"><path
         d="M 0,0 -28.25,-7"
         style="fill:none;stroke:#211f1f;stroke-width:0.5;stroke-linecap:round;stroke-linejoin:miter;stroke-miterlimit:4;stroke-dasharray:none;stroke-opacity:1"
         id="path3532"
         inkscape:connector-curvature="0" /></g><g
       id="g3534"
       transform="translate(147.1943,143.2725)"><path
         d="M 0,0 0,0"
         style="fill:none;stroke:#211f1f;stroke-width:1.5;stroke-linecap:round;stroke-linejoin:miter;stroke-miterlimit:4;stroke-dasharray:none;stroke-opacity:1"
         id="path3536"
         inkscape:connector-curvature="0" /></g><text
       transform="matrix(1,0,0,-1,62.1924,50.9316)"
       style="font-variant:normal;font-weight:bold;font-stretch:normal;font-size:10px;font-family:'Swiss 721 SWA';-inkscape-font-specification:Helvetica-Bold;writing-mode:lr-tb;fill:#231f20;fill-opacity:1;fill-rule:nonzero;stroke:none"
       id="text3538"><tspan
         x="0"
         y="0"
         id="tspan3540">2</tspan><tspan
         x="115.17"
         y="-96.669998"
         id="tspan3542">1</tspan></text>
</g></svg>