<?xml version="1.0" encoding="UTF-8" standalone="no"?>
<!-- Created with Inkscape (http://www.inkscape.org/) -->

<svg
   xmlns:dc="http://purl.org/dc/elements/1.1/"
   xmlns:cc="http://creativecommons.org/ns#"
   xmlns:rdf="http://www.w3.org/1999/02/22-rdf-syntax-ns#"
   xmlns:svg="http://www.w3.org/2000/svg"
   xmlns="http://www.w3.org/2000/svg"
   xmlns:sodipodi="http://sodipodi.sourceforge.net/DTD/sodipodi-0.dtd"
   xmlns:inkscape="http://www.inkscape.org/namespaces/inkscape"
   id="svg2"
   version="1.1"
   inkscape:version="0.91 r13725"
   xml:space="preserve"
   width="301.17499"
   height="230.3125"
   viewBox="0 0 301.17499 230.3125"
   sodipodi:docname="T3880649.svg"><metadata
     id="metadata8"><rdf:RDF><cc:Work
         rdf:about=""><dc:format>image/svg+xml</dc:format><dc:type
           rdf:resource="http://purl.org/dc/dcmitype/StillImage" /><dc:title></dc:title></cc:Work></rdf:RDF></metadata><defs
     id="defs6" /><sodipodi:namedview
     pagecolor="#ffffff"
     bordercolor="#666666"
     borderopacity="1"
     objecttolerance="10"
     gridtolerance="10"
     guidetolerance="10"
     inkscape:pageopacity="0"
     inkscape:pageshadow="2"
     inkscape:window-width="822"
     inkscape:window-height="480"
     id="namedview4"
     showgrid="false"
     inkscape:zoom="1.0246947"
     inkscape:cx="150.58749"
     inkscape:cy="115.15625"
     inkscape:window-x="0"
     inkscape:window-y="0"
     inkscape:window-maximized="0"
     inkscape:current-layer="g10" /><g
     id="g10"
     inkscape:groupmode="layer"
     inkscape:label="T3880649"
     transform="matrix(1.25,0,0,-1.25,0,230.3125)"><g
       id="g12"
       transform="translate(43.8975,89.834)"><path
         d="M 0,0 -0.049,0.328 -0.112,2.501"
         style="fill:none;stroke:#110f0d;stroke-width:1;stroke-linecap:round;stroke-linejoin:round;stroke-miterlimit:10;stroke-dasharray:none;stroke-opacity:1"
         id="path14"
         inkscape:connector-curvature="0" /></g><g
       id="g16"
       transform="translate(43.9702,89.3574)"><path
         d="M 0,0 -0.073,0.477"
         style="fill:none;stroke:#110f0d;stroke-width:0.5;stroke-linecap:round;stroke-linejoin:round;stroke-miterlimit:10;stroke-dasharray:none;stroke-opacity:1"
         id="path18"
         inkscape:connector-curvature="0" /></g><g
       id="g20"
       transform="translate(184.6943,92.2725)"><path
         d="m 0,0 0,-0.741 -0.248,-2.799 -0.561,-2.798 -0.996,-2.799 -1.242,-2.73 -1.613,-2.737 -1.931,-2.612 -2.234,-2.484 -2.487,-2.487 -2.861,-2.3 -3.107,-2.239 -3.356,-2.048 -3.543,-1.93 -3.854,-1.803 -4.037,-1.615 -4.228,-1.491 -4.351,-1.242 -4.539,-1.118 -4.661,-0.934 -4.725,-0.747 -4.847,-0.56 -4.909,-0.309 -4.913,-0.19 -4.91,0.066 -4.912,0.249 -4.847,0.436 -4.784,0.682 -4.724,0.805 -4.539,0.997 -4.476,1.242 -4.288,1.371 -4.165,1.552 -3.914,1.678 -3.73,1.864 -3.482,2.052 -3.231,2.114 -2.92,2.238 -2.676,2.423 -2.422,2.484 -2.051,2.552 -1.742,2.671 -1.491,2.734 -1.057,2.735 -0.808,2.796 -0.312,2.057"
         style="fill:none;stroke:#110f0d;stroke-width:0.5;stroke-linecap:round;stroke-linejoin:round;stroke-miterlimit:10;stroke-dasharray:none;stroke-opacity:1"
         id="path22"
         inkscape:connector-curvature="0" /></g><g
       id="g24"
       transform="translate(61.3765,122.4849)"><path
         d="m 0,0 -1.057,-0.808 -2.735,-2.3 -2.487,-2.365 -2.114,-2.485 -1.863,-2.545 -1.554,-2.678 -1.181,-2.671 -0.808,-2.733 -0.56,-2.737 -0.125,-2.798 0.125,-2.796 0.56,-2.733 0.808,-2.736 1.181,-2.672 1.554,-2.674 1.863,-2.55 2.114,-2.487 2.487,-2.359 2.735,-2.301 2.984,-2.176 3.293,-1.986 3.544,-1.93 3.728,-1.74 3.978,-1.554 4.103,-1.429 4.289,-1.241 4.475,-1.058 4.538,-0.87 4.661,-0.681 4.724,-0.501 4.786,-0.309 4.846,-0.124 4.788,0.124 4.787,0.309 4.723,0.501 4.66,0.681 4.539,0.87 4.477,1.058 4.29,1.241 4.162,1.429 3.916,1.554 3.792,1.74 3.48,1.93 3.293,1.986 2.986,2.176 2.795,2.301 2.426,2.359 2.172,2.487 1.803,2.55 1.553,2.674 1.183,2.672 0.871,2.736 0.495,2.733 0.188,2.796 -0.188,2.798 -0.495,2.737 -0.871,2.733 -1.183,2.671 -1.553,2.678 -1.803,2.545 -2.172,2.485 -2.426,2.365 -2.795,2.3 L 105.726,0"
         style="fill:none;stroke:#110f0d;stroke-width:0.5;stroke-linecap:round;stroke-linejoin:round;stroke-miterlimit:10;stroke-dasharray:none;stroke-opacity:1"
         id="path26"
         inkscape:connector-curvature="0" /></g><g
       id="g28"
       transform="translate(167.1025,118.3193)"><path
         d="m 0,0 0.374,-0.623 1.18,-2.422 0.872,-2.487 0.497,-2.55 0.187,-2.546 -0.187,-2.553 -0.497,-2.481 -0.872,-2.487 -1.18,-2.428 -1.554,-2.423 -1.801,-2.3 -2.177,-2.176 -2.425,-2.111 -2.733,-1.989 -2.986,-1.864"
         style="fill:none;stroke:#110f0d;stroke-width:0.5;stroke-linecap:round;stroke-linejoin:round;stroke-miterlimit:10;stroke-dasharray:none;stroke-opacity:1"
         id="path30"
         inkscape:connector-curvature="0" /></g><g
       id="g32"
       transform="translate(153.8008,84.8789)"><path
         d="m 0,0 -3.231,-1.743 -3.418,-1.554 -3.667,-1.426 -3.854,-1.245 -3.979,-1.058 -4.102,-0.866 -4.228,-0.685 -4.349,-0.501 -4.352,-0.309 -4.352,-0.062 -4.41,0.062 -4.352,0.309 -4.351,0.501 -4.226,0.685 -4.104,0.866 -3.977,1.058 -3.854,1.245 -3.667,1.426 -3.418,1.554 -3.234,1.743 -2.981,1.864 -2.737,1.99 -2.423,2.111 -2.112,2.176 -1.867,2.3 -1.553,2.423 -1.18,2.427 -0.808,2.487 -0.561,2.482 -0.185,2.552 0.185,2.547 0.561,2.549 0.808,2.488 1.18,2.422 0.374,0.622"
         style="fill:none;stroke:#110f0d;stroke-width:0.5;stroke-linecap:round;stroke-linejoin:round;stroke-miterlimit:10;stroke-dasharray:none;stroke-opacity:1"
         id="path34"
         inkscape:connector-curvature="0" /></g><g
       id="g36"
       transform="translate(61.3765,113.7803)"><path
         d="m 0,0 0,-0.561 0.309,-2.483 0.561,-2.423 0.932,-2.427 1.306,-2.298 1.554,-2.301 1.925,-2.175 2.177,-2.115 2.485,-1.988 2.799,-1.865 2.982,-1.741 3.233,-1.615 3.48,-1.433 3.605,-1.304 3.854,-1.054 3.916,-0.932 4.102,-0.744 4.102,-0.498 4.227,-0.373 4.291,-0.125 4.224,0 4.228,0.248 4.163,0.493 4.164,0.625 3.979,0.807 3.916,0.996 3.73,1.183 3.543,1.364 3.357,1.494 3.105,1.675"
         style="fill:none;stroke:#110f0d;stroke-width:0.5;stroke-linecap:round;stroke-linejoin:round;stroke-miterlimit:10;stroke-dasharray:none;stroke-opacity:1"
         id="path38"
         inkscape:connector-curvature="0" /></g><g
       id="g40"
       transform="translate(151.625,92.21)"><path
         d="m 0,0 2.86,1.806 2.675,1.926 2.298,2.049 2.048,2.179 1.807,2.235 1.43,2.301 1.056,2.425 0.808,2.36 0.372,2.49 0.124,1.799"
         style="fill:none;stroke:#110f0d;stroke-width:0.5;stroke-linecap:round;stroke-linejoin:round;stroke-miterlimit:10;stroke-dasharray:none;stroke-opacity:1"
         id="path42"
         inkscape:connector-curvature="0" /></g><g
       id="g44"
       transform="translate(77.2881,100.606)"><path
         d="m 0,0 -0.622,0.246 -0.435,0.063 -0.435,-0.184 -0.31,-0.25 -0.187,-0.436 -0.124,-0.871"
         style="fill:none;stroke:#110f0d;stroke-width:0.5;stroke-linecap:round;stroke-linejoin:round;stroke-miterlimit:10;stroke-dasharray:none;stroke-opacity:1"
         id="path46"
         inkscape:connector-curvature="0" /></g><g
       id="g48"
       transform="translate(76.6035,95.5068)"><path
         d="m 0,0 0.062,-0.062 0.87,-0.685 0.871,-0.308 0.435,0 0.497,0.186 0.124,0.063"
         style="fill:none;stroke:#110f0d;stroke-width:0.5;stroke-linecap:round;stroke-linejoin:round;stroke-miterlimit:10;stroke-dasharray:none;stroke-opacity:1"
         id="path50"
         inkscape:connector-curvature="0" /></g><g
       id="g52"
       transform="translate(76.0449,96.3789)"><path
         d="M 0,0 0.186,-0.374 0.249,-0.437"
         style="fill:none;stroke:#110f0d;stroke-width:0.5;stroke-linecap:round;stroke-linejoin:round;stroke-miterlimit:10;stroke-dasharray:none;stroke-opacity:1"
         id="path54"
         inkscape:connector-curvature="0" /></g><g
       id="g56"
       transform="translate(43.7856,61.3223)"><path
         d="m 0,0 0.062,-2.113 0.435,-2.859 0.807,-2.798 1.057,-2.734 1.492,-2.735 1.742,-2.675 2.051,-2.547 2.422,-2.486 2.676,-2.425 2.92,-2.238 3.231,-2.115 3.482,-2.051 3.729,-1.865 3.915,-1.677 4.165,-1.552 4.288,-1.369 4.476,-1.241 4.538,-0.994 4.724,-0.809 4.785,-0.685 4.847,-0.436 4.911,-0.246 4.911,-0.062 4.913,0.186 4.909,0.312 4.846,0.557 4.726,0.747 4.66,0.931 4.539,1.121 4.352,1.242 4.227,1.491 4.037,1.619 3.855,1.799 3.543,1.928 3.355,2.114 3.108,2.174 2.861,2.299 2.486,2.487 2.235,2.487 1.931,2.612 1.613,2.733 1.242,2.732 0.996,2.799 0.561,2.797 0.248,2.86 0,0.685"
         style="fill:none;stroke:#110f0d;stroke-width:1;stroke-linecap:round;stroke-linejoin:round;stroke-miterlimit:10;stroke-dasharray:none;stroke-opacity:1"
         id="path58"
         inkscape:connector-curvature="0" /></g><g
       id="g60"
       transform="translate(88.3511,151.0752)"><path
         d="M 0,0 -9.448,-20.388"
         style="fill:none;stroke:#110f0d;stroke-width:0.5;stroke-linecap:round;stroke-linejoin:round;stroke-miterlimit:10;stroke-dasharray:none;stroke-opacity:1"
         id="path62"
         inkscape:connector-curvature="0" /></g><g
       id="g64"
       transform="translate(123.7197,156.5444)"><path
         d="M 0,0 -35.369,-5.469"
         style="fill:none;stroke:#110f0d;stroke-width:0.5;stroke-linecap:round;stroke-linejoin:round;stroke-miterlimit:10;stroke-dasharray:none;stroke-opacity:1"
         id="path66"
         inkscape:connector-curvature="0" /></g><g
       id="g68"
       transform="translate(149.6357,141.6279)"><path
         d="M 0,0 -25.916,14.917"
         style="fill:none;stroke:#110f0d;stroke-width:0.5;stroke-linecap:round;stroke-linejoin:round;stroke-miterlimit:10;stroke-dasharray:none;stroke-opacity:1"
         id="path70"
         inkscape:connector-curvature="0" /></g><g
       id="g72"
       transform="translate(140.1289,121.1772)"><path
         d="M 0,0 9.507,20.451"
         style="fill:none;stroke:#110f0d;stroke-width:0.5;stroke-linecap:round;stroke-linejoin:round;stroke-miterlimit:10;stroke-dasharray:none;stroke-opacity:1"
         id="path74"
         inkscape:connector-curvature="0" /></g><g
       id="g76"
       transform="translate(104.7612,115.7104)"><path
         d="M 0,0 35.368,5.467"
         style="fill:none;stroke:#110f0d;stroke-width:0.5;stroke-linecap:round;stroke-linejoin:round;stroke-miterlimit:10;stroke-dasharray:none;stroke-opacity:1"
         id="path78"
         inkscape:connector-curvature="0" /></g><g
       id="g80"
       transform="translate(78.9028,130.6875)"><path
         d="M 0,0 25.858,-14.977"
         style="fill:none;stroke:#110f0d;stroke-width:0.5;stroke-linecap:round;stroke-linejoin:round;stroke-miterlimit:10;stroke-dasharray:none;stroke-opacity:1"
         id="path82"
         inkscape:connector-curvature="0" /></g><g
       id="g84"
       transform="translate(78.1582,93.2065)"><path
         d="m 0,0 -1.307,0.436 -1.18,0.995 -0.995,1.43 -0.683,1.618 -0.187,0.804 0,0.747"
         style="fill:none;stroke:#110f0d;stroke-width:0.5;stroke-linecap:round;stroke-linejoin:round;stroke-miterlimit:10;stroke-dasharray:none;stroke-opacity:1"
         id="path86"
         inkscape:connector-curvature="0" /></g><g
       id="g88"
       transform="translate(75.6714,101.4121)"><path
         d="M 0,0 1.18,-0.436 2.487,-1.429 3.544,-2.795 4.29,-4.352 4.601,-5.905 4.477,-6.59 4.29,-7.209 3.544,-8.019 2.487,-8.206"
         style="fill:none;stroke:#110f0d;stroke-width:1;stroke-linecap:round;stroke-linejoin:round;stroke-miterlimit:10;stroke-dasharray:none;stroke-opacity:1"
         id="path90"
         inkscape:connector-curvature="0" /></g><g
       id="g92"
       transform="translate(73.8066,99.2363)"><path
         d="M 0,0 0.187,1.245 0.87,1.99 1.865,2.176"
         style="fill:none;stroke:#110f0d;stroke-width:0.5;stroke-linecap:round;stroke-linejoin:round;stroke-miterlimit:10;stroke-dasharray:none;stroke-opacity:1"
         id="path94"
         inkscape:connector-curvature="0" /></g><g
       id="g96"
       transform="translate(76.8472,154.7104)"><path
         d="m 0,0 -0.244,-0.155 -2.485,-1.865 -2.238,-1.989 -1.928,-2.049 -1.676,-2.176 -1.306,-2.238 -0.996,-2.24 -0.682,-2.36 -0.313,-2.362 0,-2.301 0.313,-2.361 0.682,-2.299 0.996,-2.301 1.306,-2.238 1.676,-2.176 1.928,-2.048 2.238,-1.994 2.485,-1.862 2.735,-1.675 3.047,-1.619 3.169,-1.431 3.419,-1.302 3.605,-1.121 3.729,-0.933 3.854,-0.806 3.978,-0.561 3.978,-0.371 4.103,-0.187 4.041,0 4.103,0.187 4.034,0.371 3.923,0.561 3.851,0.806 3.729,0.933 3.605,1.121 3.422,1.302 3.231,1.431 2.981,1.619"
         style="fill:none;stroke:#110f0d;stroke-width:0.5;stroke-linecap:round;stroke-linejoin:round;stroke-miterlimit:10;stroke-dasharray:none;stroke-opacity:1"
         id="path98"
         inkscape:connector-curvature="0" /></g><g
       id="g100"
       transform="translate(151.5498,154.7617)"><path
         d="m 0,0 -2.409,1.534 -2.982,1.554 -3.231,1.429 -3.422,1.306 -3.604,1.116 -3.73,0.933 -3.851,0.811 -3.922,0.559 -4.035,0.373 -4.103,0.187 -4.041,0 -4.103,-0.187 -3.978,-0.373 -3.977,-0.559 -3.854,-0.811 -3.729,-0.933 -3.605,-1.116 -3.42,-1.306 -3.169,-1.429 -3.046,-1.554 -2.492,-1.585"
         style="fill:none;stroke:#110f0d;stroke-width:1;stroke-linecap:round;stroke-linejoin:round;stroke-miterlimit:10;stroke-dasharray:none;stroke-opacity:1"
         id="path102"
         inkscape:connector-curvature="0" /></g><g
       id="g104"
       transform="translate(149.1406,116.0215)"><path
         d="m 0,0 2.733,1.675 2.55,1.862 2.175,1.994 1.986,2.048 1.621,2.176 1.3,2.238 0.999,2.301 0.682,2.299 0.374,2.361 0,2.301 -0.374,2.362 -0.682,2.36 -0.999,2.24 -1.3,2.238 -1.621,2.176 -1.986,2.049 -2.175,1.989 -2.55,1.865 -0.324,0.206"
         style="fill:none;stroke:#110f0d;stroke-width:0.5;stroke-linecap:round;stroke-linejoin:round;stroke-miterlimit:10;stroke-dasharray:none;stroke-opacity:1"
         id="path106"
         inkscape:connector-curvature="0" /></g><g
       id="g108"
       transform="translate(167.0732,133.2876)"><path
         d="m 0,0 -0.095,-1.854 -0.371,-2.486 -0.808,-2.423 -1.056,-2.364 -1.431,-2.3 -1.806,-2.234 -2.048,-2.179 -2.298,-2.049 -2.675,-1.929 -2.86,-1.8"
         style="fill:none;stroke:#110f0d;stroke-width:0.5;stroke-linecap:round;stroke-linejoin:round;stroke-miterlimit:10;stroke-dasharray:none;stroke-opacity:1"
         id="path110"
         inkscape:connector-curvature="0" /></g><g
       id="g112"
       transform="translate(166.9854,135.041)"><path
         d="M 0,0 0.117,-1.183 0.088,-1.753"
         style="fill:none;stroke:#110f0d;stroke-width:1;stroke-linecap:round;stroke-linejoin:round;stroke-miterlimit:10;stroke-dasharray:none;stroke-opacity:1"
         id="path114"
         inkscape:connector-curvature="0" /></g><g
       id="g116"
       transform="translate(151.625,154.8042)"><path
         d="m 0,0 1.491,-0.87 2.737,-1.865 2.488,-1.989 2.236,-2.114 1.862,-2.176 1.62,-2.3 1.241,-2.36 0.934,-2.364 0.623,-2.423 0.128,-1.302"
         style="fill:none;stroke:#110f0d;stroke-width:1;stroke-linecap:round;stroke-linejoin:round;stroke-miterlimit:10;stroke-dasharray:none;stroke-opacity:1"
         id="path118"
         inkscape:connector-curvature="0" /></g><g
       id="g120"
       transform="translate(61.4053,133.2036)"><path
         d="m 0,0 0.095,1.896 0.435,2.426 0.745,2.422 1.12,2.364 1.43,2.36 1.74,2.238 2.05,2.114 2.363,2.052 2.61,1.926 2.858,1.803"
         style="fill:none;stroke:#110f0d;stroke-width:1;stroke-linecap:round;stroke-linejoin:round;stroke-miterlimit:10;stroke-dasharray:none;stroke-opacity:1"
         id="path122"
         inkscape:connector-curvature="0" /></g><g
       id="g124"
       transform="translate(151.625,111.6699)"><path
         d="m 0,0 -3.104,-1.682 -3.358,-1.49 -3.543,-1.367 -3.729,-1.183 -3.916,-0.993 -3.98,-0.806 -4.164,-0.686 -4.163,-0.435 -4.227,-0.246 -4.225,-0.066 -4.29,0.187 -4.227,0.312 -4.103,0.56 -4.101,0.748 -3.916,0.93 -3.855,1.056 -3.604,1.307 -3.481,1.429 -3.233,1.553 -2.982,1.74 -2.799,1.865 -2.484,2.052 -2.178,2.051 -1.925,2.235 -1.554,2.239 -1.306,2.362 -0.931,2.424 -0.561,2.425 -0.31,2.423 0.029,0.59"
         style="fill:none;stroke:#110f0d;stroke-width:0.5;stroke-linecap:round;stroke-linejoin:round;stroke-miterlimit:10;stroke-dasharray:none;stroke-opacity:1"
         id="path126"
         inkscape:connector-curvature="0" /></g><g
       id="g128"
       transform="translate(119.4922,122.855)"><path
         d="M 0,0 0,3.481"
         style="fill:none;stroke:#110f0d;stroke-width:0.05;stroke-linecap:round;stroke-linejoin:round;stroke-miterlimit:10;stroke-dasharray:none;stroke-opacity:1"
         id="path130"
         inkscape:connector-curvature="0" /></g><g
       id="g132"
       transform="translate(108.9868,122.793)"><path
         d="M 0,0 0,4.414"
         style="fill:none;stroke:#110f0d;stroke-width:0.05;stroke-linecap:round;stroke-linejoin:round;stroke-miterlimit:10;stroke-dasharray:none;stroke-opacity:1"
         id="path134"
         inkscape:connector-curvature="0" /></g><g
       id="g136"
       transform="translate(108.9868,127.207)"><path
         d="M 0,0 -1.243,-1.679 -2.61,-3.232 -2.921,-3.482"
         style="fill:none;stroke:#110f0d;stroke-width:0.05;stroke-linecap:round;stroke-linejoin:round;stroke-miterlimit:10;stroke-dasharray:none;stroke-opacity:1"
         id="path138"
         inkscape:connector-curvature="0" /></g><g
       id="g140"
       transform="translate(108.9868,135.4736)"><path
         d="M 0,0 0.064,-2.051 0.125,-3.357 0.064,-4.91 0,-8.267"
         style="fill:none;stroke:#110f0d;stroke-width:0.05;stroke-linecap:round;stroke-linejoin:round;stroke-miterlimit:10;stroke-dasharray:none;stroke-opacity:1"
         id="path142"
         inkscape:connector-curvature="0" /></g><g
       id="g144"
       transform="translate(121.8525,123.6006)"><path
         d="M 0,0 -1.305,1.368 -2.36,2.735"
         style="fill:none;stroke:#110f0d;stroke-width:0.05;stroke-linecap:round;stroke-linejoin:round;stroke-miterlimit:10;stroke-dasharray:none;stroke-opacity:1"
         id="path146"
         inkscape:connector-curvature="0" /></g><g
       id="g148"
       transform="translate(119.4922,126.3359)"><path
         d="m 0,0 0,3.419 -0.062,1.617 0,1.429 L 0.062,8.579 0,9.511"
         style="fill:none;stroke:#110f0d;stroke-width:0.05;stroke-linecap:round;stroke-linejoin:round;stroke-miterlimit:10;stroke-dasharray:none;stroke-opacity:1"
         id="path150"
         inkscape:connector-curvature="0" /></g><g
       id="g152"
       transform="translate(119.4922,135.8472)"><path
         d="m 0,0 1.927,0.06 1.927,-0.434 1.927,-0.87 0.931,-0.498 2.425,-1.615 2.362,-2.114 0.683,-0.808"
         style="fill:none;stroke:#110f0d;stroke-width:0.5;stroke-linecap:round;stroke-linejoin:round;stroke-miterlimit:10;stroke-dasharray:none;stroke-opacity:1"
         id="path154"
         inkscape:connector-curvature="0" /></g><g
       id="g156"
       transform="translate(119.4922,135.8472)"><path
         d="M 0,0 0,8.575"
         style="fill:none;stroke:#110f0d;stroke-width:0.5;stroke-linecap:round;stroke-linejoin:round;stroke-miterlimit:10;stroke-dasharray:none;stroke-opacity:1"
         id="path158"
         inkscape:connector-curvature="0" /></g><g
       id="g160"
       transform="translate(96.6191,129.5063)"><path
         d="M 0,0 0.559,0.621 2.236,2.3 4.039,3.667 5.407,4.537 7.706,5.658 9.88,6.216 11.871,6.151 12.368,5.967"
         style="fill:none;stroke:#110f0d;stroke-width:0.5;stroke-linecap:round;stroke-linejoin:round;stroke-miterlimit:10;stroke-dasharray:none;stroke-opacity:1"
         id="path162"
         inkscape:connector-curvature="0" /></g><g
       id="g164"
       transform="translate(108.9868,135.4736)"><path
         d="M 0,0 0,9.447"
         style="fill:none;stroke:#110f0d;stroke-width:0.5;stroke-linecap:round;stroke-linejoin:round;stroke-miterlimit:10;stroke-dasharray:none;stroke-opacity:1"
         id="path166"
         inkscape:connector-curvature="0" /></g><g
       id="g168"
       transform="translate(108.9868,144.9204)"><path
         d="m 0,0 -1.802,-1.552 -3.482,-2.673 -3.665,-2.051 -2.487,-0.995 -2.423,-0.745"
         style="fill:none;stroke:#110f0d;stroke-width:0.5;stroke-linecap:round;stroke-linejoin:round;stroke-miterlimit:10;stroke-dasharray:none;stroke-opacity:1"
         id="path170"
         inkscape:connector-curvature="0" /></g><g
       id="g172"
       transform="translate(114.2686,150.3896)"><path
         d="M 0,0 -0.557,-0.062 -2.111,-0.436 -3.479,-1.243 -4.536,-2.486 -5.157,-4.038 -5.282,-5.469"
         style="fill:none;stroke:#110f0d;stroke-width:0.5;stroke-linecap:round;stroke-linejoin:round;stroke-miterlimit:10;stroke-dasharray:none;stroke-opacity:1"
         id="path174"
         inkscape:connector-curvature="0" /></g><g
       id="g176"
       transform="translate(132.9189,136.6548)"><path
         d="m 0,0 -2.362,0.746 -2.361,0.932 -3.483,1.99 -3.542,2.67 -1.679,1.43"
         style="fill:none;stroke:#110f0d;stroke-width:0.5;stroke-linecap:round;stroke-linejoin:round;stroke-miterlimit:10;stroke-dasharray:none;stroke-opacity:1"
         id="path178"
         inkscape:connector-curvature="0" /></g><g
       id="g180"
       transform="translate(119.4922,144.4224)"><path
         d="M 0,0 -0.124,2.054 -0.996,3.857 -2.425,5.16 -4.104,5.846 -5.224,5.967"
         style="fill:none;stroke:#110f0d;stroke-width:0.5;stroke-linecap:round;stroke-linejoin:round;stroke-miterlimit:10;stroke-dasharray:none;stroke-opacity:1"
         id="path182"
         inkscape:connector-curvature="0" /></g><g
       id="g184"
       transform="translate(95.1279,130.8115)"><path
         d="M 0,0 0,6.093"
         style="fill:none;stroke:#110f0d;stroke-width:0.5;stroke-linecap:round;stroke-linejoin:round;stroke-miterlimit:10;stroke-dasharray:none;stroke-opacity:1"
         id="path186"
         inkscape:connector-curvature="0" /></g><g
       id="g188"
       transform="translate(95.1279,136.9043)"><path
         d="M 0,0 -1.927,0.683 -3.731,0.808 -4.913,0.434 -5.471,-0.374 -5.534,-0.747"
         style="fill:none;stroke:#110f0d;stroke-width:0.5;stroke-linecap:round;stroke-linejoin:round;stroke-miterlimit:10;stroke-dasharray:none;stroke-opacity:1"
         id="path190"
         inkscape:connector-curvature="0" /></g><g
       id="g192"
       transform="translate(138.8828,136.1572)"><path
         d="M 0,0 0,0.311 -0.433,1.057 -1.241,1.493 -2.546,1.617 -4.102,1.306 -5.964,0.498"
         style="fill:none;stroke:#110f0d;stroke-width:0.5;stroke-linecap:round;stroke-linejoin:round;stroke-miterlimit:10;stroke-dasharray:none;stroke-opacity:1"
         id="path194"
         inkscape:connector-curvature="0" /></g><g
       id="g196"
       transform="translate(132.9189,130.6255)"><path
         d="M 0,0 0,6.029"
         style="fill:none;stroke:#110f0d;stroke-width:0.5;stroke-linecap:round;stroke-linejoin:round;stroke-miterlimit:10;stroke-dasharray:none;stroke-opacity:1"
         id="path198"
         inkscape:connector-curvature="0" /></g><g
       id="g200"
       transform="translate(108.9868,122.793)"><path
         d="M 0,0 0.25,-0.249 1.244,-0.559 2.797,-0.808 4.475,-0.87 5.282,-0.933"
         style="fill:none;stroke:#110f0d;stroke-width:0.5;stroke-linecap:round;stroke-linejoin:round;stroke-miterlimit:10;stroke-dasharray:none;stroke-opacity:1"
         id="path202"
         inkscape:connector-curvature="0" /></g><g
       id="g204"
       transform="translate(95.1279,130.8115)"><path
         d="m 0,0 1.738,-1.553 3.543,-2.609 3.607,-2.116 2.484,-0.992 2.487,-0.749"
         style="fill:none;stroke:#110f0d;stroke-width:1;stroke-linecap:round;stroke-linejoin:round;stroke-miterlimit:10;stroke-dasharray:none;stroke-opacity:1"
         id="path206"
         inkscape:connector-curvature="0" /></g><g
       id="g208"
       transform="translate(89.5942,136.1572)"><path
         d="M 0,0 0.062,-0.559 0.561,-1.616 1.493,-2.735 2.859,-3.854 4.475,-4.849 5.534,-5.346"
         style="fill:none;stroke:#110f0d;stroke-width:1;stroke-linecap:round;stroke-linejoin:round;stroke-miterlimit:10;stroke-dasharray:none;stroke-opacity:1"
         id="path210"
         inkscape:connector-curvature="0" /></g><g
       id="g212"
       transform="translate(119.4922,122.855)"><path
         d="m 0,0 2.36,0.687 2.365,0.991 3.481,1.992 3.543,2.671 1.678,1.43"
         style="fill:none;stroke:#110f0d;stroke-width:1;stroke-linecap:round;stroke-linejoin:round;stroke-miterlimit:10;stroke-dasharray:none;stroke-opacity:1"
         id="path214"
         inkscape:connector-curvature="0" /></g><g
       id="g216"
       transform="translate(114.2686,121.8604)"><path
         d="m 0,0 0.872,0.062 1.493,0.063 1.305,0.187 0.993,0.248 0.561,0.248 0,0.125"
         style="fill:none;stroke:#110f0d;stroke-width:0.5;stroke-linecap:round;stroke-linejoin:round;stroke-miterlimit:10;stroke-dasharray:none;stroke-opacity:1"
         id="path218"
         inkscape:connector-curvature="0" /></g><g
       id="g220"
       transform="translate(132.9189,130.6255)"><path
         d="M 0,0 1.986,0.932 3.854,2.238 5.22,3.604 5.904,4.786 5.964,5.532"
         style="fill:none;stroke:#110f0d;stroke-width:1;stroke-linecap:round;stroke-linejoin:round;stroke-miterlimit:10;stroke-dasharray:none;stroke-opacity:1"
         id="path222"
         inkscape:connector-curvature="0" /></g><g
       id="g224"
       transform="translate(89.5942,136.1572)"><path
         d="m 0,0 0.187,-1.74 0.498,-1.678 0.932,-1.68 1.18,-1.553 1.554,-1.492 1.865,-1.305 2.051,-1.241 2.362,-1.057 2.548,-0.87 2.736,-0.748 2.859,-0.499 2.92,-0.309 2.982,-0.125"
         style="fill:none;stroke:#110f0d;stroke-width:1;stroke-linecap:round;stroke-linejoin:round;stroke-miterlimit:10;stroke-dasharray:none;stroke-opacity:1"
         id="path226"
         inkscape:connector-curvature="0" /></g><g
       id="g228"
       transform="translate(114.2686,150.3896)"><path
         d="m 0,0 -2.982,-0.122 -2.92,-0.314 -2.86,-0.494 -2.735,-0.748 -2.548,-0.87 -2.362,-1.057 -2.051,-1.241 -1.865,-1.305 -1.554,-1.492 -1.18,-1.554 -0.933,-1.678 -0.497,-1.679 -0.187,-1.678"
         style="fill:none;stroke:#110f0d;stroke-width:0.5;stroke-linecap:round;stroke-linejoin:round;stroke-miterlimit:10;stroke-dasharray:none;stroke-opacity:1"
         id="path230"
         inkscape:connector-curvature="0" /></g><g
       id="g232"
       transform="translate(138.8828,136.1572)"><path
         d="m 0,0 -0.124,1.679 -0.558,1.678 -0.871,1.678 -1.242,1.555 -1.551,1.492 -1.805,1.305 -2.114,1.24 -2.365,1.058 -2.547,0.87 -2.733,0.748 -2.796,0.494 -2.985,0.314 -2.923,0.121"
         style="fill:none;stroke:#110f0d;stroke-width:0.5;stroke-linecap:round;stroke-linejoin:round;stroke-miterlimit:10;stroke-dasharray:none;stroke-opacity:1"
         id="path234"
         inkscape:connector-curvature="0" /></g><g
       id="g236"
       transform="translate(114.2686,121.8604)"><path
         d="m 0,0 2.923,0.125 2.985,0.309 2.796,0.499 2.734,0.748 2.546,0.87 2.366,1.057 2.113,1.241 1.806,1.305 1.55,1.492 1.243,1.553 0.871,1.679 0.557,1.679 0.124,1.74"
         style="fill:none;stroke:#110f0d;stroke-width:1;stroke-linecap:round;stroke-linejoin:round;stroke-miterlimit:10;stroke-dasharray:none;stroke-opacity:1"
         id="path238"
         inkscape:connector-curvature="0" /></g><g
       id="g240"
       transform="translate(123.7197,156.5444)"><path
         d="M 0,0 -35.369,-5.469"
         style="fill:none;stroke:#110f0d;stroke-width:0.5;stroke-linecap:round;stroke-linejoin:round;stroke-miterlimit:10;stroke-dasharray:none;stroke-opacity:1"
         id="path242"
         inkscape:connector-curvature="0" /></g><g
       id="g244"
       transform="translate(88.3511,151.0752)"><path
         d="M 0,0 -9.448,-20.388"
         style="fill:none;stroke:#110f0d;stroke-width:0.5;stroke-linecap:round;stroke-linejoin:round;stroke-miterlimit:10;stroke-dasharray:none;stroke-opacity:1"
         id="path246"
         inkscape:connector-curvature="0" /></g><g
       id="g248"
       transform="translate(78.9028,130.6875)"><path
         d="M 0,0 25.858,-14.977"
         style="fill:none;stroke:#110f0d;stroke-width:1;stroke-linecap:round;stroke-linejoin:round;stroke-miterlimit:10;stroke-dasharray:none;stroke-opacity:1"
         id="path250"
         inkscape:connector-curvature="0" /></g><g
       id="g252"
       transform="translate(104.7612,115.7104)"><path
         d="M 0,0 35.368,5.467"
         style="fill:none;stroke:#110f0d;stroke-width:1;stroke-linecap:round;stroke-linejoin:round;stroke-miterlimit:10;stroke-dasharray:none;stroke-opacity:1"
         id="path254"
         inkscape:connector-curvature="0" /></g><g
       id="g256"
       transform="translate(140.1289,121.1772)"><path
         d="M 0,0 9.507,20.451"
         style="fill:none;stroke:#110f0d;stroke-width:1;stroke-linecap:round;stroke-linejoin:round;stroke-miterlimit:10;stroke-dasharray:none;stroke-opacity:1"
         id="path258"
         inkscape:connector-curvature="0" /></g><g
       id="g260"
       transform="translate(149.6357,141.6279)"><path
         d="M 0,0 -25.916,14.917"
         style="fill:none;stroke:#110f0d;stroke-width:0.5;stroke-linecap:round;stroke-linejoin:round;stroke-miterlimit:10;stroke-dasharray:none;stroke-opacity:1"
         id="path262"
         inkscape:connector-curvature="0" /></g><g
       id="g264"
       transform="translate(76.231,95.8804)"><path
         d="M 0,0 2.672,1.554"
         style="fill:none;stroke:#110f0d;stroke-width:0.5;stroke-linecap:round;stroke-linejoin:round;stroke-miterlimit:10;stroke-dasharray:none;stroke-opacity:1"
         id="path266"
         inkscape:connector-curvature="0" /></g><g
       id="g268"
       transform="translate(75.8569,96.3789)"><path
         d="M 0,0 2.798,1.612"
         style="fill:none;stroke:#110f0d;stroke-width:0.5;stroke-linecap:round;stroke-linejoin:round;stroke-miterlimit:10;stroke-dasharray:none;stroke-opacity:1"
         id="path270"
         inkscape:connector-curvature="0" /></g><g
       id="g272"
       transform="translate(76.0449,96.3789)"><path
         d="M 0,0 2.673,1.55"
         style="fill:none;stroke:#110f0d;stroke-width:0.5;stroke-linecap:round;stroke-linejoin:round;stroke-miterlimit:10;stroke-dasharray:none;stroke-opacity:1"
         id="path274"
         inkscape:connector-curvature="0" /></g><g
       id="g276"
       transform="translate(79.4624,94.7007)"><path
         d="m 0,0 -0.06,0 -0.623,-0.187 -0.746,0.124 -0.435,0.185"
         style="fill:none;stroke:#110f0d;stroke-width:0.5;stroke-linecap:round;stroke-linejoin:round;stroke-miterlimit:10;stroke-dasharray:none;stroke-opacity:1"
         id="path278"
         inkscape:connector-curvature="0" /></g><g
       id="g280"
       transform="translate(80.0854,96.3164)"><path
         d="M 0,0 0,-0.374 -0.25,-1.121 -0.312,-1.308"
         style="fill:none;stroke:#110f0d;stroke-width:0.5;stroke-linecap:round;stroke-linejoin:round;stroke-miterlimit:10;stroke-dasharray:none;stroke-opacity:1"
         id="path282"
         inkscape:connector-curvature="0" /></g><g
       id="g284"
       transform="translate(75.1123,99.1738)"><path
         d="M 0,0 0,0.187 0.187,0.996 0.621,1.492 1.244,1.741 1.99,1.678"
         style="fill:none;stroke:#110f0d;stroke-width:0.5;stroke-linecap:round;stroke-linejoin:round;stroke-miterlimit:10;stroke-dasharray:none;stroke-opacity:1"
         id="path286"
         inkscape:connector-curvature="0" /></g><g
       id="g288"
       transform="translate(75.8569,96.3789)"><path
         d="M 0,0 0.188,0"
         style="fill:none;stroke:#110f0d;stroke-width:0.5;stroke-linecap:round;stroke-linejoin:round;stroke-miterlimit:10;stroke-dasharray:none;stroke-opacity:1"
         id="path290"
         inkscape:connector-curvature="0" /></g><g
       id="g292"
       transform="translate(75.8569,96.3789)"><path
         d="m 0,0 -0.433,0.868 -0.249,0.931 0,0.809 0.249,0.623 L 0,3.542 0.622,3.604 1.369,3.293 2.053,2.733 2.612,1.924 3.046,1.055 3.234,0.121 3.172,-0.623 2.923,-1.183 2.362,-1.495 1.742,-1.43 1.058,-1.121 0.374,-0.499"
         style="fill:none;stroke:#110f0d;stroke-width:0.5;stroke-linecap:round;stroke-linejoin:round;stroke-miterlimit:10;stroke-dasharray:none;stroke-opacity:1"
         id="path294"
         inkscape:connector-curvature="0" /></g><g
       id="g296"
       transform="translate(161.5703,31.1133)"><path
         d="M 0,0 2.551,1.43"
         style="fill:none;stroke:#110f0d;stroke-width:0.5;stroke-linecap:round;stroke-linejoin:round;stroke-miterlimit:10;stroke-dasharray:none;stroke-opacity:1"
         id="path298"
         inkscape:connector-curvature="0" /></g><g
       id="g300"
       transform="translate(64.4224,32.543)"><path
         d="M 0,0 2.484,-1.43"
         style="fill:none;stroke:#110f0d;stroke-width:0.5;stroke-linecap:round;stroke-linejoin:round;stroke-miterlimit:10;stroke-dasharray:none;stroke-opacity:1"
         id="path302"
         inkscape:connector-curvature="0" /></g><g
       id="g304"
       transform="translate(184.6943,61.3223)"><path
         d="M 0,0 0,30.95"
         style="fill:none;stroke:#110f0d;stroke-width:1;stroke-linecap:round;stroke-linejoin:round;stroke-miterlimit:10;stroke-dasharray:none;stroke-opacity:1"
         id="path306"
         inkscape:connector-curvature="0" /></g><g
       id="g308"
       transform="translate(61.3765,122.5439)"><path
         d="m 0,0 -2.984,-2.363 -2.859,-2.484 -2.55,-2.674 -2.236,-2.733 -1.927,-2.861 -1.678,-2.983 -1.307,-2.983 -0.993,-3.047 -0.623,-3.109 -0.371,-3.042 -0.063,-1.93"
         style="fill:none;stroke:#110f0d;stroke-width:1;stroke-linecap:round;stroke-linejoin:round;stroke-miterlimit:10;stroke-dasharray:none;stroke-opacity:1"
         id="path310"
         inkscape:connector-curvature="0" /></g><g
       id="g312"
       transform="translate(184.6943,92.2725)"><path
         d="m 0,0 0,0.501 -0.189,3.045 -0.494,2.982 -0.808,2.982 -1.058,2.924 -1.37,2.86 -1.675,2.796 -1.929,2.674 -2.236,2.611 -2.55,2.547 -2.798,2.425 -2.485,1.865"
         style="fill:none;stroke:#110f0d;stroke-width:1;stroke-linecap:round;stroke-linejoin:round;stroke-miterlimit:10;stroke-dasharray:none;stroke-opacity:1"
         id="path314"
         inkscape:connector-curvature="0" /></g><g
       id="g316"
       transform="translate(61.3765,133.2354)"><path
         d="M 0,0 0,-19.455"
         style="fill:none;stroke:#110f0d;stroke-width:1;stroke-linecap:round;stroke-linejoin:round;stroke-miterlimit:10;stroke-dasharray:none;stroke-opacity:1"
         id="path318"
         inkscape:connector-curvature="0" /></g><g
       id="g320"
       transform="translate(167.1025,113.7803)"><path
         d="M 0,0 0,19.455"
         style="fill:none;stroke:#110f0d;stroke-width:1;stroke-linecap:round;stroke-linejoin:round;stroke-miterlimit:10;stroke-dasharray:none;stroke-opacity:1"
         id="path322"
         inkscape:connector-curvature="0" /></g><g
       id="g324"
       transform="translate(79.3384,156.2329)"><path
         d="M 0,0 -2.487,-1.429"
         style="fill:none;stroke:#110f0d;stroke-width:0.5;stroke-linecap:round;stroke-linejoin:round;stroke-miterlimit:10;stroke-dasharray:none;stroke-opacity:1"
         id="path326"
         inkscape:connector-curvature="0" /></g><g
       id="g328"
       transform="translate(151.625,154.8042)"><path
         d="M 0,0 -2.484,1.429"
         style="fill:none;stroke:#110f0d;stroke-width:0.5;stroke-linecap:round;stroke-linejoin:round;stroke-miterlimit:10;stroke-dasharray:none;stroke-opacity:1"
         id="path330"
         inkscape:connector-curvature="0" /></g><g
       id="g332"
       transform="translate(77.1021,95.1338)"><path
         d="M 0,0 0.497,-0.312"
         style="fill:none;stroke:#110f0d;stroke-width:0.5;stroke-linecap:round;stroke-linejoin:round;stroke-miterlimit:10;stroke-dasharray:none;stroke-opacity:1"
         id="path334"
         inkscape:connector-curvature="0" /></g><g
       id="g336"
       transform="translate(75.1123,99.1738)"><path
         d="M 0,0 0,-0.623"
         style="fill:none;stroke:#110f0d;stroke-width:0.5;stroke-linecap:round;stroke-linejoin:round;stroke-miterlimit:10;stroke-dasharray:none;stroke-opacity:1"
         id="path338"
         inkscape:connector-curvature="0" /></g><g
       id="g340"
       transform="translate(43.7856,58.6484)"><path
         d="M 0,0 0,30.95"
         style="fill:none;stroke:#110f0d;stroke-width:1;stroke-linecap:round;stroke-linejoin:round;stroke-miterlimit:10;stroke-dasharray:none;stroke-opacity:1"
         id="path342"
         inkscape:connector-curvature="0" /></g></g></svg>