<?xml version="1.0" encoding="UTF-8" standalone="no"?>
<!-- Created with Inkscape (http://www.inkscape.org/) -->

<svg
   xmlns:dc="http://purl.org/dc/elements/1.1/"
   xmlns:cc="http://creativecommons.org/ns#"
   xmlns:rdf="http://www.w3.org/1999/02/22-rdf-syntax-ns#"
   xmlns:svg="http://www.w3.org/2000/svg"
   xmlns="http://www.w3.org/2000/svg"
   xmlns:sodipodi="http://sodipodi.sourceforge.net/DTD/sodipodi-0.dtd"
   xmlns:inkscape="http://www.inkscape.org/namespaces/inkscape"
   version="1.1"
   id="svg10"
   xml:space="preserve"
   width="321.26001"
   height="245.66933"
   viewBox="0 0 321.26001 245.66933"
   sodipodi:docname="CTE 200-00087.svg"
   inkscape:version="0.92.4 (5da689c313, 2019-01-14)"><metadata
     id="metadata16"><rdf:RDF><cc:Work
         rdf:about=""><dc:format>image/svg+xml</dc:format><dc:type
           rdf:resource="http://purl.org/dc/dcmitype/StillImage" /><dc:title></dc:title></cc:Work></rdf:RDF></metadata><defs
     id="defs14"><clipPath
       clipPathUnits="userSpaceOnUse"
       id="clipPath26"><path
         d="M 0,184.252 H 240.945 V 0 H 0 Z"
         id="path24"
         inkscape:connector-curvature="0" /></clipPath></defs><sodipodi:namedview
     pagecolor="#ffffff"
     bordercolor="#666666"
     borderopacity="1"
     objecttolerance="10"
     gridtolerance="10"
     guidetolerance="10"
     inkscape:pageopacity="0"
     inkscape:pageshadow="2"
     inkscape:window-width="640"
     inkscape:window-height="480"
     id="namedview12"
     showgrid="false"
     inkscape:zoom="0.73460746"
     inkscape:cx="160.63"
     inkscape:cy="122.83466"
     inkscape:window-x="0"
     inkscape:window-y="0"
     inkscape:window-maximized="0"
     inkscape:current-layer="g18" /><g
     id="g18"
     inkscape:groupmode="layer"
     inkscape:label="CTE 200-00087"
     transform="matrix(1.3333333,0,0,-1.3333333,0,245.66933)"><g
       id="g20"><g
         id="g22"
         clip-path="url(#clipPath26)"><g
           id="g28"
           transform="translate(113.5939,64.8998)"><path
             d="m 0,0 c 1.614,-2.016 4.095,-3.308 6.878,-3.308 4.863,0 8.806,3.942 8.806,8.805 0,2.055 -0.704,3.945 -1.884,5.443"
             style="fill:none;stroke:#231f20;stroke-width:0.99199998;stroke-linecap:round;stroke-linejoin:miter;stroke-miterlimit:10;stroke-dasharray:none;stroke-opacity:1"
             id="path30"
             inkscape:connector-curvature="0" /></g><g
           id="g32"
           transform="translate(127.3942,75.8401)"><path
             d="m 0,0 c -1.612,2.048 -4.113,3.362 -6.922,3.362 -4.863,0 -8.805,-3.942 -8.805,-8.805 0,-2.08 0.721,-3.991 1.927,-5.497"
             style="fill:none;stroke:#231f20;stroke-width:0.99199998;stroke-linecap:round;stroke-linejoin:miter;stroke-miterlimit:10;stroke-dasharray:none;stroke-opacity:1"
             id="path34"
             inkscape:connector-curvature="0" /></g><g
           id="g36"
           transform="translate(120.7079,128.3087)"><path
             d="m 0,0 h -2.866 c -1.281,0 -4.637,-2.379 -4.637,-2.379 v -8.967 c 1.016,-0.021 2.447,-1.416 2.477,-3.066 0.03,-1.578 -1.295,-2.884 -2.308,-2.813 l -0.057,-15.617 c -0.028,-2.481 0.88,-7.555 -0.423,-10.198 -0.757,-1.538 -2.801,-4.219 -4.786,-7.24"
             style="fill:none;stroke:#231f20;stroke-width:0.99199998;stroke-linecap:round;stroke-linejoin:round;stroke-miterlimit:10;stroke-dasharray:none;stroke-opacity:1"
             id="path38"
             inkscape:connector-curvature="0" /></g><g
           id="g40"
           transform="translate(118.957,128.3831)"><path
             d="m 0,0 c -0.592,0 -3.341,-1.819 -3.849,-2.453 l 0.085,-8.756 c 0.767,-0.103 2.015,-1.576 2.03,-3.109 0.015,-1.594 -1.233,-3.249 -1.988,-3.219 l -0.176,-15.354 c -0.084,-2.327 -1.464,-4.322 -1.464,-6.358"
             style="fill:none;stroke:#231f20;stroke-width:0.49900001;stroke-linecap:round;stroke-linejoin:miter;stroke-miterlimit:10;stroke-dasharray:none;stroke-opacity:1"
             id="path42"
             inkscape:connector-curvature="0" /></g><g
           id="g44"
           transform="translate(117.9842,106.5155)"><path
             d="M 0,0 H -1.544 C -1.906,0 -2.199,-0.294 -2.199,-0.656 V -1.565"
             style="fill:none;stroke:#231f20;stroke-width:0.49900001;stroke-linecap:round;stroke-linejoin:round;stroke-miterlimit:10;stroke-dasharray:none;stroke-opacity:1"
             id="path46"
             inkscape:connector-curvature="0" /></g><g
           id="g48"
           transform="translate(117.9842,101.3553)"><path
             d="M 0,0 H -1.671 C -1.963,0 -2.199,-0.237 -2.199,-0.529 V -1.565"
             style="fill:none;stroke:#231f20;stroke-width:0.49900001;stroke-linecap:round;stroke-linejoin:round;stroke-miterlimit:10;stroke-dasharray:none;stroke-opacity:1"
             id="path50"
             inkscape:connector-curvature="0" /></g><g
           id="g52"
           transform="translate(124.9424,106.5315)"><path
             d="m 0,0 h -1.515 c -0.378,0 -0.684,-0.307 -0.684,-0.685 v -0.88"
             style="fill:none;stroke:#231f20;stroke-width:0.49900001;stroke-linecap:round;stroke-linejoin:round;stroke-miterlimit:10;stroke-dasharray:none;stroke-opacity:1"
             id="path54"
             inkscape:connector-curvature="0" /></g><g
           id="g56"
           transform="translate(124.9424,101.3713)"><path
             d="M 0,0 H -1.557 C -1.912,0 -2.199,-0.288 -2.199,-0.642 V -1.565"
             style="fill:none;stroke:#231f20;stroke-width:0.49900001;stroke-linecap:round;stroke-linejoin:round;stroke-miterlimit:10;stroke-dasharray:none;stroke-opacity:1"
             id="path58"
             inkscape:connector-curvature="0" /></g><g
           id="g60"
           transform="translate(115.108,125.9299)"><path
             d="M 0,0 -1.75,0.107"
             style="fill:none;stroke:#231f20;stroke-width:0.249;stroke-linecap:round;stroke-linejoin:miter;stroke-miterlimit:10;stroke-dasharray:none;stroke-opacity:1"
             id="path62"
             inkscape:connector-curvature="0" /></g><g
           id="g64"
           transform="translate(115.1926,117.1744)"><path
             d="M 0,0 -1.988,0.042"
             style="fill:none;stroke:#231f20;stroke-width:0.249;stroke-linecap:round;stroke-linejoin:miter;stroke-miterlimit:10;stroke-dasharray:none;stroke-opacity:1"
             id="path66"
             inkscape:connector-curvature="0" /></g><g
           id="g68"
           transform="translate(115.2349,110.8458)"><path
             d="M 0,0 -1.861,-0.039"
             style="fill:none;stroke:#231f20;stroke-width:0.249;stroke-linecap:round;stroke-linejoin:miter;stroke-miterlimit:10;stroke-dasharray:none;stroke-opacity:1"
             id="path70"
             inkscape:connector-curvature="0" /></g><g
           id="g72"
           transform="translate(120.2795,128.3087)"><path
             d="m 0,0 h 2.866 c 1.281,0 4.637,-2.379 4.637,-2.379 v -9.037 c -1.016,-0.022 -2.447,-1.346 -2.477,-2.996 -0.03,-1.578 1.295,-2.884 2.308,-2.813 l 0.057,-15.617 c 0.028,-2.481 -0.88,-7.555 0.422,-10.198 0.758,-1.538 2.801,-4.219 4.787,-7.24 l -0.003,-0.064 c 1.348,-2.204 2.124,-4.795 2.124,-7.567 0,-8.024 -6.504,-14.529 -14.528,-14.529 -8.024,0 -14.528,6.505 -14.528,14.529 0,2.814 0.8,5.442 2.185,7.667"
             style="fill:none;stroke:#231f20;stroke-width:0.99199998;stroke-linecap:round;stroke-linejoin:round;stroke-miterlimit:10;stroke-dasharray:none;stroke-opacity:1"
             id="path74"
             inkscape:connector-curvature="0" /></g><g
           id="g76"
           transform="translate(122.0304,128.3831)"><path
             d="m 0,0 c 0.592,0 3.341,-1.819 3.849,-2.453 l -0.085,-8.756 c -0.767,-0.103 -2.015,-1.576 -2.03,-3.109 -0.015,-1.594 1.233,-3.249 1.988,-3.219 l 0.176,-15.354 c 0.084,-2.327 1.464,-4.322 1.464,-6.358"
             style="fill:none;stroke:#231f20;stroke-width:0.49900001;stroke-linecap:round;stroke-linejoin:miter;stroke-miterlimit:10;stroke-dasharray:none;stroke-opacity:1"
             id="path78"
             inkscape:connector-curvature="0" /></g><g
           id="g80"
           transform="translate(125.8795,125.9299)"><path
             d="M 0,0 1.75,0.107"
             style="fill:none;stroke:#231f20;stroke-width:0.249;stroke-linecap:round;stroke-linejoin:miter;stroke-miterlimit:10;stroke-dasharray:none;stroke-opacity:1"
             id="path82"
             inkscape:connector-curvature="0" /></g><g
           id="g84"
           transform="translate(125.7949,117.1744)"><path
             d="M 0,0 1.988,0.042"
             style="fill:none;stroke:#231f20;stroke-width:0.249;stroke-linecap:round;stroke-linejoin:miter;stroke-miterlimit:10;stroke-dasharray:none;stroke-opacity:1"
             id="path86"
             inkscape:connector-curvature="0" /></g><g
           id="g88"
           transform="translate(125.7526,110.8458)"><path
             d="M 0,0 1.861,-0.039"
             style="fill:none;stroke:#231f20;stroke-width:0.249;stroke-linecap:round;stroke-linejoin:miter;stroke-miterlimit:10;stroke-dasharray:none;stroke-opacity:1"
             id="path90"
             inkscape:connector-curvature="0" /></g></g></g></g></svg>