<?xml version="1.0" encoding="UTF-8" standalone="no"?>
<!-- Created with Inkscape (http://www.inkscape.org/) -->

<svg
   xmlns:dc="http://purl.org/dc/elements/1.1/"
   xmlns:cc="http://creativecommons.org/ns#"
   xmlns:rdf="http://www.w3.org/1999/02/22-rdf-syntax-ns#"
   xmlns:svg="http://www.w3.org/2000/svg"
   xmlns="http://www.w3.org/2000/svg"
   xmlns:sodipodi="http://sodipodi.sourceforge.net/DTD/sodipodi-0.dtd"
   xmlns:inkscape="http://www.inkscape.org/namespaces/inkscape"
   version="1.1"
   id="svg706"
   xml:space="preserve"
   width="321.25333"
   height="245.66667"
   viewBox="0 0 321.25333 245.66667"
   sodipodi:docname="Sumitomo 6180-6181_6182.svg"
   inkscape:version="0.92.4 (5da689c313, 2019-01-14)"><metadata
     id="metadata712"><rdf:RDF><cc:Work
         rdf:about=""><dc:format>image/svg+xml</dc:format><dc:type
           rdf:resource="http://purl.org/dc/dcmitype/StillImage" /><dc:title></dc:title></cc:Work></rdf:RDF></metadata><defs
     id="defs710"><clipPath
       clipPathUnits="userSpaceOnUse"
       id="clipPath728"><path
         d="M 0,184.25 H 240.94 V 0 H 0 Z"
         id="path726"
         inkscape:connector-curvature="0" /></clipPath></defs><sodipodi:namedview
     pagecolor="#ffffff"
     bordercolor="#666666"
     borderopacity="1"
     objecttolerance="10"
     gridtolerance="10"
     guidetolerance="10"
     inkscape:pageopacity="0"
     inkscape:pageshadow="2"
     inkscape:window-width="1107"
     inkscape:window-height="717"
     id="namedview708"
     showgrid="false"
     inkscape:zoom="3.4518317"
     inkscape:cx="160.62666"
     inkscape:cy="122.83334"
     inkscape:window-x="250"
     inkscape:window-y="120"
     inkscape:window-maximized="0"
     inkscape:current-layer="g714" /><g
     id="g714"
     inkscape:groupmode="layer"
     inkscape:label="Sumitomo 6180-6181_6182"
     transform="matrix(1.3333333,0,0,-1.3333333,0,245.66667)"><text
       transform="matrix(1,0,0,-1,69.271,96.9023)"
       style="font-variant:normal;font-weight:bold;font-stretch:normal;font-size:10px;font-family:Helvetica;-inkscape-font-specification:Helvetica-Bold;writing-mode:lr-tb;fill:#000000;fill-opacity:1;fill-rule:nonzero;stroke:none"
       id="text720"><tspan
         x="0 96.949997"
         y="0"
         sodipodi:role="line"
         id="tspan716">13</tspan><tspan
         x="0 96.949997"
         y="27.620001"
         sodipodi:role="line"
         id="tspan718">46</tspan></text>
<g
       id="g722"><g
         id="g724"
         clip-path="url(#clipPath728)"><g
           id="g730"
           transform="translate(83.5994,90.3662)"><path
             d="m 0,0 c -2.619,2.594 -4.242,6.192 -4.242,10.17 0,4.036 2.143,8.188 5.071,10.283"
             style="fill:none;stroke:#231f20;stroke-width:1.00100005;stroke-linecap:butt;stroke-linejoin:miter;stroke-miterlimit:10;stroke-dasharray:none;stroke-opacity:1"
             id="path732"
             inkscape:connector-curvature="0" /></g><g
           id="g734"
           transform="translate(157.3256,109.7225)"><path
             d="m 0,0 c 2.445,-2.568 3.946,-6.043 3.946,-9.868 0,-3.869 -1.536,-7.38 -4.031,-9.956"
             style="fill:none;stroke:#231f20;stroke-width:1.00100005;stroke-linecap:butt;stroke-linejoin:miter;stroke-miterlimit:10;stroke-dasharray:none;stroke-opacity:1"
             id="path736"
             inkscape:connector-curvature="0" /></g><g
           id="g738"
           transform="translate(103.4725,62.8459)"><path
             d="m 0,0 c -2.561,-2.408 -6.009,-3.884 -9.802,-3.884 -7.905,0 -14.313,6.408 -14.313,14.313 0,3.977 1.623,7.575 4.242,10.169"
             style="fill:none;stroke:#231f20;stroke-width:1.00100005;stroke-linecap:butt;stroke-linejoin:miter;stroke-miterlimit:10;stroke-dasharray:none;stroke-opacity:1"
             id="path740"
             inkscape:connector-curvature="0" /></g><g
           id="g742"
           transform="translate(137.4679,62.8459)"><path
             d="m 0,0 c 2.561,-2.408 6.009,-3.884 9.802,-3.884 7.905,0 14.313,6.408 14.313,14.313 0,3.977 -1.623,7.575 -4.242,10.169"
             style="fill:none;stroke:#231f20;stroke-width:1.00100005;stroke-linecap:butt;stroke-linejoin:miter;stroke-miterlimit:10;stroke-dasharray:none;stroke-opacity:1"
             id="path744"
             inkscape:connector-curvature="0" /></g><g
           id="g746"
           transform="translate(129.8564,62.8685)"><path
             d="m 0,0 c -2.564,-2.422 -6.022,-3.906 -9.826,-3.906 -3.793,0 -7.241,1.475 -9.802,3.883"
             style="fill:none;stroke:#231f20;stroke-width:1.00100005;stroke-linecap:butt;stroke-linejoin:miter;stroke-miterlimit:10;stroke-dasharray:none;stroke-opacity:1"
             id="path748"
             inkscape:connector-curvature="0" /></g><g
           id="g750"
           transform="translate(83.5998,74.3213)"><path
             d="m 0,0 0.462,34.336 c 0,5.579 7.262,9.951 11.926,9.951 l 47.409,0.087 c 4.76,0 13.842,-4.054 13.842,-10.473 V -0.504 c 0,-6.49 -5.01,-10.971 -10.971,-10.971 H 11.475 C 5.137,-11.475 0,-6.337 0,0 Z"
             style="fill:none;stroke:#231f20;stroke-width:1;stroke-linecap:square;stroke-linejoin:miter;stroke-miterlimit:10;stroke-dasharray:none;stroke-opacity:1"
             id="path752"
             inkscape:connector-curvature="0" /></g><g
           id="g754"
           transform="translate(115.9592,118.6081)"><path
             d="M 0,0 V 6.68 H 8.918 V 0"
             style="fill:none;stroke:#231f20;stroke-width:1;stroke-linecap:square;stroke-linejoin:miter;stroke-miterlimit:10;stroke-dasharray:none;stroke-opacity:1"
             id="path756"
             inkscape:connector-curvature="0" /></g><g
           id="g758"
           transform="translate(134.3576,67.3269)"><path
             d="M 0,0 H -2.238 C -3.48,0 -4.48,1 -4.48,2.238 v 42.838 c 0,1.239 1,2.239 2.242,2.239 H 0 c 1.201,0 2.299,-0.998 2.299,-2.236 V 2.338 C 2.299,1.1 1.201,0 0,0"
             style="fill:none;stroke:#231f20;stroke-width:0.25;stroke-linecap:square;stroke-linejoin:miter;stroke-miterlimit:10;stroke-dasharray:none;stroke-opacity:1"
             id="path760"
             inkscape:connector-curvature="0" /></g><g
           id="g762"
           transform="translate(108.717,67.3269)"><path
             d="m 0,0 c 1.203,0 2.203,1 2.203,2.238 v 42.838 c 0,1.239 -1,2.239 -2.203,2.239 h -2.238 c -1.243,0 -2.243,-1 -2.243,-2.239 V 2.238 C -4.481,1 -3.481,0 -2.238,0 Z"
             style="fill:none;stroke:#231f20;stroke-width:0.25;stroke-linecap:square;stroke-linejoin:miter;stroke-miterlimit:10;stroke-dasharray:none;stroke-opacity:1"
             id="path764"
             inkscape:connector-curvature="0" /></g><g
           id="g766"
           transform="translate(99.2046,94.0886)"><path
             d="m 0,0 h -8.932 c -1.235,0 -2.235,1.001 -2.235,2.235 v 13.656 c 0,2.312 1.874,4.187 4.187,4.187 H 0 c 1.234,0 2.235,-1.001 2.235,-2.235 V 2.235 C 2.235,1.001 1.234,0 0,0 Z"
             style="fill:none;stroke:#231f20;stroke-width:0.5;stroke-linecap:square;stroke-linejoin:miter;stroke-miterlimit:10;stroke-dasharray:none;stroke-opacity:1"
             id="path768"
             inkscape:connector-curvature="0" /></g><g
           id="g770"
           transform="translate(99.2046,67.3269)"><path
             d="m 0,0 h -7.231 c -2.174,0 -3.936,1.762 -3.936,3.937 v 13.906 c 0,1.234 1,2.235 2.235,2.235 H 0 c 1.234,0 2.235,-1.001 2.235,-2.235 V 2.235 C 2.235,1.001 1.234,0 0,0 Z"
             style="fill:none;stroke:#231f20;stroke-width:0.5;stroke-linecap:square;stroke-linejoin:miter;stroke-miterlimit:10;stroke-dasharray:none;stroke-opacity:1"
             id="path772"
             inkscape:connector-curvature="0" /></g><g
           id="g774"
           transform="translate(125.0508,67.3269)"><path
             d="m 0,0 h -9.285 c -1.235,0 -2.235,1.001 -2.235,2.235 v 15.608 c 0,1.234 1,2.235 2.235,2.235 H 0 c 1.234,0 2.235,-1.001 2.235,-2.235 V 2.235 C 2.235,1.001 1.234,0 0,0 Z"
             style="fill:none;stroke:#231f20;stroke-width:0.5;stroke-linecap:square;stroke-linejoin:miter;stroke-miterlimit:10;stroke-dasharray:none;stroke-opacity:1"
             id="path776"
             inkscape:connector-curvature="0" /></g><g
           id="g778"
           transform="translate(125.0508,94.256)"><path
             d="m 0,0 h -9.285 c -1.235,0 -2.235,1.001 -2.235,2.235 v 15.608 c 0,1.234 1,2.235 2.235,2.235 H 0 c 1.234,0 2.235,-1.001 2.235,-2.235 V 2.235 C 2.235,1.001 1.234,0 0,0 Z"
             style="fill:none;stroke:#231f20;stroke-width:0.5;stroke-linecap:square;stroke-linejoin:miter;stroke-miterlimit:10;stroke-dasharray:none;stroke-opacity:1"
             id="path780"
             inkscape:connector-curvature="0" /></g><g
           id="g782"
           transform="translate(150.9149,94.256)"><path
             d="m 0,0 h -9.285 c -1.235,0 -2.235,1.001 -2.235,2.235 v 15.608 c 0,1.234 1,2.235 2.235,2.235 h 7.064 c 2.461,0 4.456,-1.995 4.456,-4.456 V 2.235 C 2.235,1.001 1.234,0 0,0 Z"
             style="fill:none;stroke:#231f20;stroke-width:0.5;stroke-linecap:square;stroke-linejoin:miter;stroke-miterlimit:10;stroke-dasharray:none;stroke-opacity:1"
             id="path784"
             inkscape:connector-curvature="0" /></g><g
           id="g786"
           transform="translate(148.8848,67.3269)"><path
             d="M 0,0 H -7.255 C -8.49,0 -9.49,1.001 -9.49,2.235 v 15.608 c 0,1.234 1,2.235 2.235,2.235 H 2.03 c 1.234,0 2.235,-1.001 2.235,-2.235 V 4.265 C 4.265,1.91 2.356,0 0,0 Z"
             style="fill:none;stroke:#231f20;stroke-width:0.5;stroke-linecap:square;stroke-linejoin:miter;stroke-miterlimit:10;stroke-dasharray:none;stroke-opacity:1"
             id="path788"
             inkscape:connector-curvature="0" /></g></g></g></g></svg>