<?xml version="1.0" encoding="UTF-8" standalone="no"?>
<!-- Created with Inkscape (http://www.inkscape.org/) -->

<svg
   xmlns:dc="http://purl.org/dc/elements/1.1/"
   xmlns:cc="http://creativecommons.org/ns#"
   xmlns:rdf="http://www.w3.org/1999/02/22-rdf-syntax-ns#"
   xmlns:svg="http://www.w3.org/2000/svg"
   xmlns="http://www.w3.org/2000/svg"
   xmlns:sodipodi="http://sodipodi.sourceforge.net/DTD/sodipodi-0.dtd"
   xmlns:inkscape="http://www.inkscape.org/namespaces/inkscape"
   id="svg8844"
   version="1.1"
   inkscape:version="0.91 r13725"
   xml:space="preserve"
   width="301.18124"
   height="230.315"
   viewBox="0 0 301.18124 230.315"
   sodipodi:docname="cdqn_2.svg"><metadata
     id="metadata8850"><rdf:RDF><cc:Work
         rdf:about=""><dc:format>image/svg+xml</dc:format><dc:type
           rdf:resource="http://purl.org/dc/dcmitype/StillImage" /><dc:title></dc:title></cc:Work></rdf:RDF></metadata><defs
     id="defs8848"><clipPath
       clipPathUnits="userSpaceOnUse"
       id="clipPath8878"><path
         d="m 0,184.252 240.945,0 L 240.945,0 0,0 0,184.252 Z"
         id="path8880"
         inkscape:connector-curvature="0" /></clipPath><clipPath
       clipPathUnits="userSpaceOnUse"
       id="clipPath9034"><path
         d="m 0,9.956 240.531,0 0,170.079 L 0,180.035 0,9.956 Z"
         id="path9036"
         inkscape:connector-curvature="0" /></clipPath><clipPath
       clipPathUnits="userSpaceOnUse"
       id="clipPath9078"><path
         d="m 0,184.252 240.945,0 L 240.945,0 0,0 0,184.252 Z"
         id="path9080"
         inkscape:connector-curvature="0" /></clipPath><clipPath
       clipPathUnits="userSpaceOnUse"
       id="clipPath9136"><path
         d="m 0,184.252 240.945,0 L 240.945,0 0,0 0,184.252 Z"
         id="path9138"
         inkscape:connector-curvature="0" /></clipPath></defs><sodipodi:namedview
     pagecolor="#ffffff"
     bordercolor="#666666"
     borderopacity="1"
     objecttolerance="10"
     gridtolerance="10"
     guidetolerance="10"
     inkscape:pageopacity="0"
     inkscape:pageshadow="2"
     inkscape:window-width="640"
     inkscape:window-height="480"
     id="namedview8846"
     showgrid="false"
     inkscape:zoom="1.3503245"
     inkscape:cx="150.59062"
     inkscape:cy="115.1575"
     inkscape:window-x="0"
     inkscape:window-y="0"
     inkscape:window-maximized="1"
     inkscape:current-layer="g8852" /><g
     id="g8852"
     inkscape:groupmode="layer"
     inkscape:label="cdqn_2"
     transform="matrix(1.25,0,0,-1.25,0,230.315)"><g
       id="g8854"
       transform="translate(161.8931,101.4873)"><path
         d="m 0,0 -33.561,-19.376 0,-41.653"
         style="fill:none;stroke:#231f20;stroke-width:0.5;stroke-linecap:round;stroke-linejoin:round;stroke-miterlimit:4;stroke-dasharray:none;stroke-opacity:1"
         id="path8856"
         inkscape:connector-curvature="0" /></g><g
       id="g8858"
       transform="translate(156.5562,56.752)"><path
         d="m 0,0 -28.224,-16.294 -73.116,42.214 0,41.653 33.561,19.376 9.946,-5.742 0,-25.627 9.447,-5.519"
         style="fill:none;stroke:#231f20;stroke-width:1.5;stroke-linecap:round;stroke-linejoin:round;stroke-miterlimit:4;stroke-dasharray:none;stroke-opacity:1"
         id="path8860"
         inkscape:connector-curvature="0" /></g><g
       id="g8862"
       transform="translate(105.9077,69.4316)"><path
         d="m 0,0 0,25.627 33.561,19.376 22.424,-12.947 0,-16.53"
         style="fill:none;stroke:#231f20;stroke-width:1.5;stroke-linecap:round;stroke-linejoin:round;stroke-miterlimit:4;stroke-dasharray:none;stroke-opacity:1"
         id="path8864"
         inkscape:connector-curvature="0" /></g><g
       id="g8866"
       transform="translate(98.7231,137.959)"><path
         d="m 0,0 -33.561,-19.376 0,-25.627 L 0,-25.627 0,0 Z"
         style="fill:none;stroke:#231f20;stroke-width:0.5;stroke-linecap:round;stroke-linejoin:round;stroke-miterlimit:4;stroke-dasharray:none;stroke-opacity:1"
         id="path8868"
         inkscape:connector-curvature="0" /></g><g
       id="g8870"
       transform="translate(65.1626,92.9561)"><path
         d="M 0,0 40.745,-23.524"
         style="fill:none;stroke:#231f20;stroke-width:0.5;stroke-linecap:round;stroke-linejoin:round;stroke-miterlimit:4;stroke-dasharray:none;stroke-opacity:1"
         id="path8872"
         inkscape:connector-curvature="0" /></g><g
       id="g8874"><g
         id="g8876"
         clip-path="url(#clipPath8878)"><g
           id="g8882"
           transform="translate(88.1128,125.4888)"><path
             d="m 0,0 c 3.004,-1.735 3.008,-7.355 0.008,-12.552 -3.002,-5.198 -7.87,-8.004 -10.874,-6.27 -3.003,1.735 -3.007,7.354 -0.006,12.551 C -7.871,-1.073 -3.002,1.734 0,0 Z"
             style="fill:none;stroke:#231f20;stroke-width:0.5;stroke-linecap:round;stroke-linejoin:round;stroke-miterlimit:4;stroke-dasharray:none;stroke-opacity:1"
             id="path8884"
             inkscape:connector-curvature="0" /></g><g
           id="g8886"
           transform="translate(88.0132,123.8389)"><path
             d="m 0,0 c 2.005,-1.878 1.81,-6.345 -0.59,-10.5 -2.617,-4.531 -6.861,-6.979 -9.479,-5.466"
             style="fill:none;stroke:#231f20;stroke-width:1.5;stroke-linecap:round;stroke-linejoin:round;stroke-miterlimit:4;stroke-dasharray:none;stroke-opacity:1"
             id="path8888"
             inkscape:connector-curvature="0" /></g><g
           id="g8890"
           transform="translate(77.9438,107.873)"><path
             d="m 0,0 c -2.619,1.513 -2.622,6.411 -0.006,10.942 2.617,4.532 6.861,6.979 9.479,5.467 0.216,-0.125 0.416,-0.273 0.596,-0.443"
             style="fill:none;stroke:#231f20;stroke-width:0.5;stroke-linecap:round;stroke-linejoin:round;stroke-miterlimit:4;stroke-dasharray:none;stroke-opacity:1"
             id="path8892"
             inkscape:connector-curvature="0" /></g><g
           id="g8894"
           transform="translate(105.1812,92.1475)"><path
             d="m 0,0 c -2.619,1.513 -2.622,6.411 -0.006,10.942 2.617,4.532 6.861,6.979 9.479,5.467 l 1.268,-0.732"
             style="fill:none;stroke:#231f20;stroke-width:1.5;stroke-linecap:round;stroke-linejoin:round;stroke-miterlimit:4;stroke-dasharray:none;stroke-opacity:1"
             id="path8896"
             inkscape:connector-curvature="0" /></g><g
           id="g8898"
           transform="translate(80.0405,111.5049)"><path
             d="M 0,0 C -1.46,0.844 -1.462,3.573 -0.003,6.099 1.455,8.624 3.821,9.988 5.279,9.146"
             style="fill:none;stroke:#231f20;stroke-width:1.5;stroke-linecap:round;stroke-linejoin:round;stroke-miterlimit:4;stroke-dasharray:none;stroke-opacity:1"
             id="path8900"
             inkscape:connector-curvature="0" /></g><g
           id="g8902"
           transform="translate(85.3198,120.6504)"><path
             d="M 0,0 C 1.46,-0.843 1.462,-3.573 0.003,-6.099 -1.455,-8.624 -3.82,-9.987 -5.279,-9.146"
             style="fill:none;stroke:#231f20;stroke-width:0.5;stroke-linecap:round;stroke-linejoin:round;stroke-miterlimit:4;stroke-dasharray:none;stroke-opacity:1"
             id="path8904"
             inkscape:connector-curvature="0" /></g><g
           id="g8906"
           transform="translate(140.8403,67.8232)"><path
             d="m 0,0 c -3.512,2.029 -3.518,8.602 -0.008,14.68 3.512,6.08 9.205,9.361 12.717,7.334"
             style="fill:none;stroke:#231f20;stroke-width:0.5;stroke-linecap:round;stroke-linejoin:round;stroke-miterlimit:4;stroke-dasharray:none;stroke-opacity:1"
             id="path8908"
             inkscape:connector-curvature="0" /></g><g
           id="g8910"
           transform="translate(142.4243,66.9082)"><path
             d="m 0,0 c -3.512,2.029 -3.518,8.602 -0.008,14.68 3.512,6.08 9.205,9.361 12.717,7.334"
             style="fill:none;stroke:#231f20;stroke-width:0.5;stroke-linecap:round;stroke-linejoin:round;stroke-miterlimit:4;stroke-dasharray:none;stroke-opacity:1"
             id="path8912"
             inkscape:connector-curvature="0" /></g><g
           id="g8914"
           transform="translate(144.0093,65.9941)"><path
             d="m 0,0 c -3.512,2.029 -3.518,8.602 -0.008,14.68 3.512,6.08 9.205,9.361 12.717,7.334"
             style="fill:none;stroke:#231f20;stroke-width:0.5;stroke-linecap:round;stroke-linejoin:round;stroke-miterlimit:4;stroke-dasharray:none;stroke-opacity:1"
             id="path8916"
             inkscape:connector-curvature="0" /></g><g
           id="g8918"
           transform="translate(145.5933,65.0791)"><path
             d="m 0,0 c -3.512,2.029 -3.518,8.602 -0.008,14.68 3.512,6.08 9.205,9.361 12.717,7.334"
             style="fill:none;stroke:#231f20;stroke-width:0.5;stroke-linecap:round;stroke-linejoin:round;stroke-miterlimit:4;stroke-dasharray:none;stroke-opacity:1"
             id="path8920"
             inkscape:connector-curvature="0" /></g><g
           id="g8922"
           transform="translate(147.1782,64.1641)"><path
             d="m 0,0 c -3.512,2.029 -3.518,8.602 -0.008,14.68 3.512,6.08 9.205,9.361 12.717,7.334"
             style="fill:none;stroke:#231f20;stroke-width:0.5;stroke-linecap:round;stroke-linejoin:round;stroke-miterlimit:4;stroke-dasharray:none;stroke-opacity:1"
             id="path8924"
             inkscape:connector-curvature="0" /></g><g
           id="g8926"
           transform="translate(148.7622,63.25)"><path
             d="m 0,0 c -3.512,2.029 -3.518,8.602 -0.008,14.68 3.512,6.08 9.205,9.361 12.717,7.334"
             style="fill:none;stroke:#231f20;stroke-width:0.5;stroke-linecap:round;stroke-linejoin:round;stroke-miterlimit:4;stroke-dasharray:none;stroke-opacity:1"
             id="path8928"
             inkscape:connector-curvature="0" /></g><g
           id="g8930"
           transform="translate(150.3462,62.335)"><path
             d="m 0,0 c -3.512,2.029 -3.518,8.602 -0.008,14.68 3.512,6.08 9.205,9.361 12.717,7.334"
             style="fill:none;stroke:#231f20;stroke-width:0.5;stroke-linecap:round;stroke-linejoin:round;stroke-miterlimit:4;stroke-dasharray:none;stroke-opacity:1"
             id="path8932"
             inkscape:connector-curvature="0" /></g><g
           id="g8934"
           transform="translate(151.9312,61.4199)"><path
             d="m 0,0 c -3.512,2.029 -3.518,8.602 -0.008,14.68 3.512,6.08 9.205,9.361 12.717,7.334"
             style="fill:none;stroke:#231f20;stroke-width:0.5;stroke-linecap:round;stroke-linejoin:round;stroke-miterlimit:4;stroke-dasharray:none;stroke-opacity:1"
             id="path8936"
             inkscape:connector-curvature="0" /></g><g
           id="g8938"
           transform="translate(153.5151,60.5049)"><path
             d="m 0,0 c -3.512,2.029 -3.518,8.602 -0.008,14.68 3.512,6.08 9.205,9.361 12.717,7.334"
             style="fill:none;stroke:#231f20;stroke-width:0.5;stroke-linecap:round;stroke-linejoin:round;stroke-miterlimit:4;stroke-dasharray:none;stroke-opacity:1"
             id="path8940"
             inkscape:connector-curvature="0" /></g><g
           id="g8942"
           transform="translate(155.1001,59.5908)"><path
             d="m 0,0 c -3.512,2.029 -3.518,8.602 -0.008,14.68 3.512,6.08 9.205,9.361 12.717,7.334"
             style="fill:none;stroke:#231f20;stroke-width:0.5;stroke-linecap:round;stroke-linejoin:round;stroke-miterlimit:4;stroke-dasharray:none;stroke-opacity:1"
             id="path8944"
             inkscape:connector-curvature="0" /></g><g
           id="g8946"
           transform="translate(156.6841,58.6758)"><path
             d="m 0,0 c -3.512,2.029 -3.518,8.602 -0.008,14.68 3.512,6.08 9.205,9.361 12.717,7.334"
             style="fill:none;stroke:#231f20;stroke-width:0.5;stroke-linecap:round;stroke-linejoin:round;stroke-miterlimit:4;stroke-dasharray:none;stroke-opacity:1"
             id="path8948"
             inkscape:connector-curvature="0" /></g><g
           id="g8950"
           transform="translate(106.9058,95.6367)"><path
             d="m 0,0 c 0.429,1.7 1.145,3.478 2.147,5.214 3.512,6.08 9.206,9.361 12.717,7.334 l 2.937,-1.696"
             style="fill:none;stroke:#231f20;stroke-width:1.5;stroke-linecap:round;stroke-linejoin:round;stroke-miterlimit:4;stroke-dasharray:none;stroke-opacity:1"
             id="path8952"
             inkscape:connector-curvature="0" /></g><g
           id="g8954"
           transform="translate(109.0308,96.8672)"><path
             d="m 0,0 c 0.395,1.043 0.892,2.097 1.491,3.136 3.512,6.079 9.205,9.36 12.717,7.333"
             style="fill:none;stroke:#231f20;stroke-width:0.5;stroke-linecap:round;stroke-linejoin:round;stroke-miterlimit:4;stroke-dasharray:none;stroke-opacity:1"
             id="path8956"
             inkscape:connector-curvature="0" /></g><g
           id="g8958"
           transform="translate(111.9897,99.1543)"><path
             d="M 0,0 C 3.512,6.08 9.205,9.361 12.717,7.334"
             style="fill:none;stroke:#231f20;stroke-width:0.5;stroke-linecap:round;stroke-linejoin:round;stroke-miterlimit:4;stroke-dasharray:none;stroke-opacity:1"
             id="path8960"
             inkscape:connector-curvature="0" /></g><g
           id="g8962"
           transform="translate(114.5962,100.0781)"><path
             d="M 0,0 C 3.073,4.308 7.218,6.729 10.318,6.049"
             style="fill:none;stroke:#231f20;stroke-width:0.5;stroke-linecap:round;stroke-linejoin:round;stroke-miterlimit:4;stroke-dasharray:none;stroke-opacity:1"
             id="path8964"
             inkscape:connector-curvature="0" /></g><g
           id="g8966"
           transform="translate(105.9077,94.5352)"><path
             d="M 0,0 22.425,-12.424"
             style="fill:none;stroke:#231f20;stroke-width:0.5;stroke-linecap:round;stroke-linejoin:round;stroke-miterlimit:4;stroke-dasharray:none;stroke-opacity:1"
             id="path8968"
             inkscape:connector-curvature="0" /></g><g
           id="g8970"
           transform="translate(55.2163,124.3252)"><path
             d="M 0,0 9.946,-5.742"
             style="fill:none;stroke:#231f20;stroke-width:0.5;stroke-linecap:round;stroke-linejoin:round;stroke-miterlimit:4;stroke-dasharray:none;stroke-opacity:1"
             id="path8972"
             inkscape:connector-curvature="0" /></g><g
           id="g8974"
           transform="translate(153.5493,89.8369)"><path
             d="M 0,0 15.025,-8.786"
             style="fill:none;stroke:#231f20;stroke-width:1.5;stroke-linecap:round;stroke-linejoin:round;stroke-miterlimit:4;stroke-dasharray:none;stroke-opacity:1"
             id="path8976"
             inkscape:connector-curvature="0" /></g><g
           id="g8978"
           transform="translate(140.8403,67.8232)"><path
             d="M 0,0 15.025,-8.786"
             style="fill:none;stroke:#231f20;stroke-width:1.5;stroke-linecap:round;stroke-linejoin:round;stroke-miterlimit:4;stroke-dasharray:none;stroke-opacity:1"
             id="path8980"
             inkscape:connector-curvature="0" /></g><g
           id="g8982"
           transform="translate(157.6079,52.8379)"><path
             d="m 0,0 -3.169,11.794 8.63,14.947 11.8,3.155 14.425,-7.854 C 36.561,19.231 36.565,10.112 31.697,1.681 26.828,-6.751 18.929,-11.302 14.058,-8.493 L 0,0 Z"
             style="fill:#ffffff;fill-opacity:1;fill-rule:nonzero;stroke:none"
             id="path8984"
             inkscape:connector-curvature="0" /></g><g
           id="g8986"
           transform="translate(157.6079,52.8379)"><path
             d="m 0,0 -3.169,11.794 8.63,14.947 11.8,3.155 14.425,-7.854 C 36.561,19.231 36.565,10.112 31.697,1.681 26.828,-6.751 18.929,-11.302 14.058,-8.493 L 0,0 Z"
             style="fill:none;stroke:#231f20;stroke-width:1.5;stroke-linecap:round;stroke-linejoin:round;stroke-miterlimit:4;stroke-dasharray:none;stroke-opacity:1"
             id="path8988"
             inkscape:connector-curvature="0" /></g><g
           id="g8990"
           transform="translate(186.1929,65.8457)"><path
             d="m 0,0 c 2.283,-1.317 2.285,-5.587 0.006,-9.533 -2.279,-3.948 -5.979,-6.079 -8.259,-4.764"
             style="fill:none;stroke:#231f20;stroke-width:0.5;stroke-linecap:round;stroke-linejoin:round;stroke-miterlimit:4;stroke-dasharray:none;stroke-opacity:1"
             id="path8992"
             inkscape:connector-curvature="0" /></g><g
           id="g8994"
           transform="translate(185.479,65.6807)"><path
             d="m 0,0 c 1.004,-1.916 0.615,-5.196 -1.165,-8.279 -1.954,-3.386 -4.952,-5.435 -7.205,-5.12"
             style="fill:none;stroke:#231f20;stroke-width:0.5;stroke-linecap:round;stroke-linejoin:round;stroke-miterlimit:4;stroke-dasharray:none;stroke-opacity:1"
             id="path8996"
             inkscape:connector-curvature="0" /></g><g
           id="g8998"
           transform="translate(184.0464,65.373)"><path
             d="m 0,0 c 0.323,-1.909 -0.216,-4.457 -1.617,-6.883 -1.6,-2.771 -3.9,-4.647 -5.917,-5.064"
             style="fill:none;stroke:#231f20;stroke-width:0.5;stroke-linecap:round;stroke-linejoin:round;stroke-miterlimit:4;stroke-dasharray:none;stroke-opacity:1"
             id="path9000"
             inkscape:connector-curvature="0" /></g><g
           id="g9002"
           transform="translate(182.2495,65.5352)"><path
             d="m 0,0 c 0.048,-1.766 -0.521,-3.904 -1.705,-5.956 -1.14,-1.974 -2.635,-3.493 -4.13,-4.355"
             style="fill:none;stroke:#231f20;stroke-width:0.5;stroke-linecap:round;stroke-linejoin:round;stroke-miterlimit:4;stroke-dasharray:none;stroke-opacity:1"
             id="path9004"
             inkscape:connector-curvature="0" /></g><g
           id="g9006"
           transform="translate(179.9858,63.791)"><path
             d="m 0,0 c -0.284,-1.023 -0.727,-2.085 -1.326,-3.123 -0.57,-0.987 -1.229,-1.86 -1.932,-2.595"
             style="fill:none;stroke:#231f20;stroke-width:0.5;stroke-linecap:round;stroke-linejoin:round;stroke-miterlimit:4;stroke-dasharray:none;stroke-opacity:1"
             id="path9008"
             inkscape:connector-curvature="0" /></g><g
           id="g9010"
           transform="translate(177.9399,51.5488)"><path
             d="m 0,0 c -2.28,1.317 -2.285,5.586 -0.006,9.533 2.281,3.949 5.979,6.081 8.259,4.764"
             style="fill:none;stroke:#231f20;stroke-width:1.5;stroke-linecap:round;stroke-linejoin:round;stroke-miterlimit:4;stroke-dasharray:none;stroke-opacity:1"
             id="path9012"
             inkscape:connector-curvature="0" /></g><g
           id="g9014"
           transform="translate(189.2964,71.2207)"><path
             d="m 0,0 c 3.998,-2.307 4.002,-9.787 0.009,-16.702 -3.993,-6.916 -10.473,-10.649 -14.469,-8.345 -3.995,2.31 -4.002,9.787 -0.009,16.702 C -10.474,-1.427 -3.995,2.307 0,0 Z"
             style="fill:none;stroke:#231f20;stroke-width:0.5;stroke-linecap:round;stroke-linejoin:round;stroke-miterlimit:4;stroke-dasharray:none;stroke-opacity:1"
             id="path9016"
             inkscape:connector-curvature="0" /></g><g
           id="g9018"
           transform="translate(163.0688,79.5791)"><path
             d="m 0,0 14.024,-8.097 c 0,0 1.364,-2.932 -2.265,-8.606 -3.629,-5.674 -6.364,-6.341 -6.364,-6.341 l -14.025,8.097"
             style="fill:none;stroke:#231f20;stroke-width:0.5;stroke-linecap:round;stroke-linejoin:round;stroke-miterlimit:4;stroke-dasharray:none;stroke-opacity:1"
             id="path9020"
             inkscape:connector-curvature="0" /></g><g
           id="g9022"
           transform="translate(177.0933,71.4824)"><path
             d="M 0,0 C 0,0 8.129,-2.092 12.2,3.397"
             style="fill:none;stroke:#231f20;stroke-width:0.5;stroke-linecap:round;stroke-linejoin:round;stroke-miterlimit:4;stroke-dasharray:none;stroke-opacity:1"
             id="path9024"
             inkscape:connector-curvature="0" /></g><g
           id="g9026"
           transform="translate(168.4634,56.5352)"><path
             d="M 0,0 C 0,0 6.003,-4.881 3.202,-12.19"
             style="fill:none;stroke:#231f20;stroke-width:0.5;stroke-linecap:round;stroke-linejoin:round;stroke-miterlimit:4;stroke-dasharray:none;stroke-opacity:1"
             id="path9028"
             inkscape:connector-curvature="0" /></g></g></g><g
       id="g9030"><g
         id="g9032"
         clip-path="url(#clipPath9034)"><g
           id="g9038"
           transform="translate(99.7212,41.6504)"><path
             d="m 0,0 c -0.086,-0.688 0.323,-1.391 1.23,-1.915 1.081,-0.626 2.601,0.964 3.993,2.355 l 7.689,-4.446 c -0.078,-3.182 -0.12,-3.365 -0.12,-3.556 -0.003,-0.02 -0.007,-0.041 -0.006,-0.06 0.004,-0.197 0.038,-0.395 0.128,-0.591 0.602,-1.314 2.934,-2.092 5.207,-1.738 0.251,0.039 0.484,0.093 0.711,0.157 0.062,0.014 0.123,0.033 0.183,0.051 0.207,0.064 0.405,0.132 0.589,0.214 0.052,0.023 0.1,0.051 0.154,0.079 0.122,0.059 0.241,0.123 0.35,0.191 0.077,0.044 0.148,0.092 0.22,0.143 0.072,0.053 0.138,0.108 0.205,0.164 0.121,0.103 0.227,0.208 0.321,0.319 0.027,0.037 0.06,0.076 0.087,0.114 0.061,0.081 0.114,0.163 0.156,0.242 0.002,0.004 0.002,3.006 0.002,3.006 l 10.538,1.633 c 0.19,-3.106 0.397,-3.203 0.623,-3.286 0.086,-0.032 0.169,-0.065 0.258,-0.094 0.085,-0.026 0.17,-0.05 0.26,-0.074 0.21,-0.057 0.433,-0.11 0.67,-0.146 2.273,-0.352 4.61,0.426 5.223,1.74 0.092,0.196 0.128,0.391 0.136,0.587 0.004,0.05 -0.004,0.101 -0.01,0.153 -0.011,0.149 -0.042,0.297 -0.1,0.443 -0.016,0.04 -0.03,0.082 -0.05,0.119 -0.185,0.383 -0.523,0.731 -0.991,1.018 l -0.003,3.004 2.856,6.082 c 0.254,-2.962 0.505,-2.899 0.748,-2.829 0.087,0.027 0.171,0.049 0.255,0.076 0.086,0.031 0.169,0.065 0.248,0.099 0.193,0.076 0.383,0.161 0.557,0.261 0.833,0.48 1.25,1.109 1.254,1.74"
             style="fill:none;stroke:#231f20;stroke-width:0.5;stroke-linecap:round;stroke-linejoin:round;stroke-miterlimit:4;stroke-dasharray:none;stroke-opacity:1"
             id="path9040"
             inkscape:connector-curvature="0" /></g><g
           id="g9042"
           transform="translate(142.9136,47.9248)"><path
             d="M 0,0 C 0.255,-0.322 0.381,-0.671 0.379,-1.02 L 0.282,-116.723"
             style="fill:none;stroke:#231f20;stroke-width:1.5;stroke-linecap:round;stroke-linejoin:round;stroke-miterlimit:4;stroke-dasharray:none;stroke-opacity:1"
             id="path9044"
             inkscape:connector-curvature="0" /></g><g
           id="g9046"
           transform="translate(99.6284,-72.7969)"><path
             d="m 0,0 0.093,114.447 c 0.057,0.441 0.317,1.272 0.782,1.647 l 7.135,9.109"
             style="fill:none;stroke:#231f20;stroke-width:1.5;stroke-linecap:round;stroke-linejoin:round;stroke-miterlimit:4;stroke-dasharray:none;stroke-opacity:1"
             id="path9048"
             inkscape:connector-curvature="0" /></g><g
           id="g9050"
           transform="translate(137.3774,38.4727)"><path
             d="M 0,0 C 0,0 0.892,-0.288 1.015,-2.32 1.102,-3.749 1.072,-70.156 1.048,-109.521"
             style="fill:none;stroke:#231f20;stroke-width:1.5;stroke-linecap:round;stroke-linejoin:round;stroke-miterlimit:4;stroke-dasharray:none;stroke-opacity:1"
             id="path9052"
             inkscape:connector-curvature="0" /></g><g
           id="g9054"
           transform="translate(112.6362,-72.7969)"><path
             d="M 0,0 -0.003,107.439"
             style="fill:none;stroke:#231f20;stroke-width:0.5;stroke-linecap:round;stroke-linejoin:round;stroke-miterlimit:4;stroke-dasharray:none;stroke-opacity:1"
             id="path9056"
             inkscape:connector-curvature="0" /></g><g
           id="g9058"
           transform="translate(120.2544,32.6982)"><path
             d="M 0,0 0.002,-105.246"
             style="fill:none;stroke:#231f20;stroke-width:0.5;stroke-linecap:round;stroke-linejoin:round;stroke-miterlimit:4;stroke-dasharray:none;stroke-opacity:1"
             id="path9060"
             inkscape:connector-curvature="0" /></g><g
           id="g9062"
           transform="translate(131.3579,35.0107)"><path
             d="M 0,0 0.783,-106.808"
             style="fill:none;stroke:#231f20;stroke-width:0.5;stroke-linecap:round;stroke-linejoin:round;stroke-miterlimit:4;stroke-dasharray:none;stroke-opacity:1"
             id="path9064"
             inkscape:connector-curvature="0" /></g><g
           id="g9066"
           transform="translate(104.9438,42.0908)"><path
             d="M 0,0 -0.634,-114.888"
             style="fill:none;stroke:#231f20;stroke-width:0.5;stroke-linecap:round;stroke-linejoin:round;stroke-miterlimit:4;stroke-dasharray:none;stroke-opacity:1"
             id="path9068"
             inkscape:connector-curvature="0" /></g></g></g><g
       id="g9070"
       transform="translate(146.3101,106.2695)"><path
         d="M 0,0 30,28"
         style="fill:none;stroke:#ffffff;stroke-width:3;stroke-linecap:round;stroke-linejoin:round;stroke-miterlimit:4;stroke-dasharray:none;stroke-opacity:1"
         id="path9072"
         inkscape:connector-curvature="0" /></g><g
       id="g9074"><g
         id="g9076"
         clip-path="url(#clipPath9078)"><g
           id="g9082"
           transform="translate(146.4321,107.5039)"><path
             d="m 0,0 c -0.681,0 -1.233,-0.553 -1.233,-1.234 0,-0.682 0.552,-1.233 1.233,-1.233 0.681,0 1.233,0.551 1.233,1.233 C 1.233,-0.553 0.681,0 0,0"
             style="fill:#231f20;fill-opacity:1;fill-rule:nonzero;stroke:none"
             id="path9084"
             inkscape:connector-curvature="0" /></g><g
           id="g9086"
           transform="translate(146.4321,107.5039)"><path
             d="m 0,0 c -0.681,0 -1.233,-0.553 -1.233,-1.234 0,-0.682 0.552,-1.233 1.233,-1.233 0.681,0 1.233,0.551 1.233,1.233 C 1.233,-0.553 0.681,0 0,0 Z"
             style="fill:none;stroke:#ffffff;stroke-width:1;stroke-linecap:butt;stroke-linejoin:miter;stroke-miterlimit:4;stroke-dasharray:none;stroke-opacity:1"
             id="path9088"
             inkscape:connector-curvature="0" /></g><g
           id="g9090"
           transform="translate(146.3101,106.2695)"><path
             d="M 0,0 30,28"
             style="fill:none;stroke:#231f20;stroke-width:0.5;stroke-linecap:round;stroke-linejoin:round;stroke-miterlimit:4;stroke-dasharray:none;stroke-opacity:1"
             id="path9092"
             inkscape:connector-curvature="0" /></g><g
           id="g9094"
           transform="translate(186.5317,76.0352)"><path
             d="M 0,0 18,18"
             style="fill:none;stroke:#ffffff;stroke-width:3;stroke-linecap:round;stroke-linejoin:round;stroke-miterlimit:4;stroke-dasharray:none;stroke-opacity:1"
             id="path9096"
             inkscape:connector-curvature="0" /></g><g
           id="g9098"
           transform="translate(186.4097,74.8008)"><path
             d="M 0,0 C 0.681,0 1.233,0.553 1.233,1.234 1.233,1.916 0.681,2.467 0,2.467 -0.681,2.467 -1.233,1.916 -1.233,1.234 -1.233,0.553 -0.681,0 0,0"
             style="fill:#231f20;fill-opacity:1;fill-rule:nonzero;stroke:none"
             id="path9100"
             inkscape:connector-curvature="0" /></g><g
           id="g9102"
           transform="translate(186.4097,74.8008)"><path
             d="M 0,0 C 0.681,0 1.233,0.553 1.233,1.234 1.233,1.916 0.681,2.467 0,2.467 -0.681,2.467 -1.233,1.916 -1.233,1.234 -1.233,0.553 -0.681,0 0,0 Z"
             style="fill:none;stroke:#ffffff;stroke-width:1;stroke-linecap:butt;stroke-linejoin:miter;stroke-miterlimit:4;stroke-dasharray:none;stroke-opacity:1"
             id="path9104"
             inkscape:connector-curvature="0" /></g><g
           id="g9106"
           transform="translate(186.5317,76.0352)"><path
             d="M 0,0 18,18"
             style="fill:none;stroke:#231f20;stroke-width:0.5;stroke-linecap:round;stroke-linejoin:round;stroke-miterlimit:4;stroke-dasharray:none;stroke-opacity:1"
             id="path9108"
             inkscape:connector-curvature="0" /></g><g
           id="g9110"
           transform="translate(107.1978,155.4229)"><path
             d="m 0,0 0,21.684 45,0 0,-42 -45,0 -0.065,0.004 L -17.332,-33.223 0.07,0.136"
             style="fill:#ffffff;fill-opacity:1;fill-rule:nonzero;stroke:#231f20;stroke-width:0.5;stroke-linecap:round;stroke-linejoin:round;stroke-miterlimit:4;stroke-dasharray:none;stroke-opacity:1"
             id="path9112"
             inkscape:connector-curvature="0" /></g><g
           id="g9114"
           transform="translate(74.3628,51.7178)"><path
             d="m 0,0 0,-24.184 -48,0 0,44.5 48,0 L 0.065,20.312 30,43.223 -0.07,-0.135"
             style="fill:#ffffff;fill-opacity:1;fill-rule:nonzero;stroke:#231f20;stroke-width:0.5;stroke-linecap:round;stroke-linejoin:round;stroke-miterlimit:4;stroke-dasharray:none;stroke-opacity:1"
             id="path9116"
             inkscape:connector-curvature="0" /></g></g></g><text
       transform="matrix(1,0,0,-1,177.5337,132.2068)"
       style="font-variant:normal;font-weight:bold;font-stretch:normal;font-size:12px;font-family:Arial;-inkscape-font-specification:Arial-BoldMT;writing-mode:lr-tb;fill:#231f20;fill-opacity:1;fill-rule:nonzero;stroke:none"
       id="text9118"><tspan
         x="0"
         y="0"
         id="tspan9120">1</tspan><tspan
         x="29.327999"
         y="38.004002"
         id="tspan9122">2</tspan><tspan
         x="-34.344002"
         y="-32.243999"
         id="tspan9124">3</tspan><tspan
         x="-148.42799"
         y="73.835999"
         id="tspan9126">4</tspan></text>
<text
       transform="matrix(1,0,0,-1,5.5322,13.2061)"
       style="font-variant:normal;font-weight:normal;font-stretch:normal;font-size:5px;font-family:Helvetica;-inkscape-font-specification:Helvetica;writing-mode:lr-tb;fill:#231f20;fill-opacity:1;fill-rule:nonzero;stroke:none"
       id="text9128"><tspan
         x="0 2.5 5.2800002 8.0600004 10.84 13.62"
         y="0"
         sodipodi:role="line"
         id="tspan9130">cdqn_2</tspan></text>
<g
       id="g9132"><g
         id="g9134"
         clip-path="url(#clipPath9136)"><g
           id="g9140"
           transform="translate(38.6157,51.7139)"><path
             d="m 0,0 c 2.363,1.365 6.195,-0.844 8.555,-4.934 2.363,-4.091 2.359,-8.515 -0.002,-9.88"
             style="fill:none;stroke:#231f20;stroke-width:0.5;stroke-linecap:round;stroke-linejoin:round;stroke-miterlimit:4;stroke-dasharray:none;stroke-opacity:1"
             id="path9142"
             inkscape:connector-curvature="0" /></g><g
           id="g9144"
           transform="translate(40.1587,39.6494)"><path
             d="m 0,0 c 2.27,-2.635 5.109,-3.846 7.01,-2.75 l 6.556,3.787 c 2.364,1.363 2.368,5.789 0.002,9.879 -2.361,4.09 -6.193,6.299 -8.556,4.934 L -1.543,12.064 C -3.51,10.928 -3.844,7.682 -2.539,4.268"
             style="fill:none;stroke:#231f20;stroke-width:1;stroke-linecap:round;stroke-linejoin:round;stroke-miterlimit:4;stroke-dasharray:none;stroke-opacity:1"
             id="path9146"
             inkscape:connector-curvature="0" /></g><g
           id="g9148"
           transform="translate(55.6567,47.6553)"><path
             d="m 0,0 13.211,7.629 c 0.924,0.531 0.924,2.262 0,3.859 -0.922,1.6 -2.42,2.465 -3.344,1.93 L -3.344,5.793"
             style="fill:none;stroke:#231f20;stroke-width:1;stroke-linecap:round;stroke-linejoin:round;stroke-miterlimit:4;stroke-dasharray:none;stroke-opacity:1"
             id="path9150"
             inkscape:connector-curvature="0" /></g><g
           id="g9152"
           transform="translate(44.3384,40.6025)"><path
             d="m 0,0 -5.889,-0.598 c -0.599,-0.037 -1.205,0.276 -1.535,0.85 -0.365,0.635 -0.287,1.4 0.143,1.908 l 3.545,4.678"
             style="fill:none;stroke:#231f20;stroke-width:1;stroke-linecap:round;stroke-linejoin:round;stroke-miterlimit:4;stroke-dasharray:none;stroke-opacity:1"
             id="path9154"
             inkscape:connector-curvature="0" /></g><g
           id="g9156"
           transform="translate(40.9517,47.6709)"><path
             d="m 0,0 c 1.072,0.621 2.813,-0.383 3.883,-2.24 1.074,-1.858 1.074,-3.867 0,-4.487"
             style="fill:none;stroke:#231f20;stroke-width:0.5;stroke-linecap:round;stroke-linejoin:round;stroke-miterlimit:4;stroke-dasharray:none;stroke-opacity:1"
             id="path9158"
             inkscape:connector-curvature="0" /></g><g
           id="g9160"
           transform="translate(115.8394,160.9146)"><path
             d="m 0,0 c 2.82,1.629 7.391,-1.008 10.211,-5.889 2.816,-4.881 2.816,-10.158 -0.008,-11.787"
             style="fill:none;stroke:#231f20;stroke-width:0.5;stroke-linecap:round;stroke-linejoin:round;stroke-miterlimit:4;stroke-dasharray:none;stroke-opacity:1"
             id="path9162"
             inkscape:connector-curvature="0" /></g><g
           id="g9164"
           transform="translate(115.8394,160.9146)"><path
             d="m 0,0 c -2.82,-1.629 -2.824,-6.904 -0.004,-11.787 2.817,-4.881 7.387,-7.518 10.207,-5.889 l 2.559,1.481 c 2.824,1.627 2.824,6.906 0.008,11.785 C 9.949,0.469 5.379,3.107 2.559,1.477 L 0,0 Z"
             style="fill:none;stroke:#231f20;stroke-width:1;stroke-linecap:round;stroke-linejoin:round;stroke-miterlimit:4;stroke-dasharray:none;stroke-opacity:1"
             id="path9166"
             inkscape:connector-curvature="0" /></g><g
           id="g9168"
           transform="translate(130.728,149.2349)"><path
             d="m 0,0 8.221,4.75 c 2.035,1.176 2.037,4.982 0.004,8.504 -2.032,3.521 -5.329,5.424 -7.368,4.246 l -8.222,-4.746"
             style="fill:none;stroke:#231f20;stroke-width:1;stroke-linecap:round;stroke-linejoin:round;stroke-miterlimit:4;stroke-dasharray:none;stroke-opacity:1"
             id="path9170"
             inkscape:connector-curvature="0" /></g><g
           id="g9172"
           transform="translate(118.4019,156.481)"><path
             d="M 0,0 C 1.402,0.812 3.68,-0.502 5.086,-2.934 6.488,-5.367 6.484,-7.996 5.082,-8.807"
             style="fill:none;stroke:#231f20;stroke-width:1;stroke-linecap:round;stroke-linejoin:round;stroke-miterlimit:4;stroke-dasharray:none;stroke-opacity:1"
             id="path9174"
             inkscape:connector-curvature="0" /></g><g
           id="g9176"
           transform="translate(123.4839,147.6743)"><path
             d="m 0,0 c -1.406,-0.812 -3.684,0.502 -5.086,2.932 -1.406,2.433 -1.402,5.062 0.004,5.875"
             style="fill:none;stroke:#231f20;stroke-width:0.5;stroke-linecap:round;stroke-linejoin:round;stroke-miterlimit:4;stroke-dasharray:none;stroke-opacity:1"
             id="path9178"
             inkscape:connector-curvature="0" /></g></g></g></g></svg>