<?xml version="1.0" encoding="UTF-8" standalone="no"?>
<!-- Created with Inkscape (http://www.inkscape.org/) -->

<svg
   xmlns:dc="http://purl.org/dc/elements/1.1/"
   xmlns:cc="http://creativecommons.org/ns#"
   xmlns:rdf="http://www.w3.org/1999/02/22-rdf-syntax-ns#"
   xmlns:svg="http://www.w3.org/2000/svg"
   xmlns="http://www.w3.org/2000/svg"
   xmlns:sodipodi="http://sodipodi.sourceforge.net/DTD/sodipodi-0.dtd"
   xmlns:inkscape="http://www.inkscape.org/namespaces/inkscape"
   version="1.1"
   id="svg2"
   xml:space="preserve"
   width="321.26001"
   height="245.66933"
   viewBox="0 0 321.26001 245.66933"
   sodipodi:docname="3880003.svg"
   inkscape:version="0.92.4 (5da689c313, 2019-01-14)"><metadata
     id="metadata8"><rdf:RDF><cc:Work
         rdf:about=""><dc:format>image/svg+xml</dc:format><dc:type
           rdf:resource="http://purl.org/dc/dcmitype/StillImage" /><dc:title></dc:title></cc:Work></rdf:RDF></metadata><defs
     id="defs6"><clipPath
       clipPathUnits="userSpaceOnUse"
       id="clipPath26"><path
         d="M 4.34,11.999 H 238 V 176.935 H 4.34 Z"
         id="path24"
         inkscape:connector-curvature="0" /></clipPath></defs><sodipodi:namedview
     pagecolor="#ffffff"
     bordercolor="#666666"
     borderopacity="1"
     objecttolerance="10"
     gridtolerance="10"
     guidetolerance="10"
     inkscape:pageopacity="0"
     inkscape:pageshadow="2"
     inkscape:window-width="640"
     inkscape:window-height="480"
     id="namedview4"
     showgrid="false"
     inkscape:zoom="0.96064089"
     inkscape:cx="160.63"
     inkscape:cy="122.83466"
     inkscape:window-x="0"
     inkscape:window-y="0"
     inkscape:window-maximized="0"
     inkscape:current-layer="g10" /><g
     id="g10"
     inkscape:groupmode="layer"
     inkscape:label="3880003"
     transform="matrix(1.3333333,0,0,-1.3333333,0,245.66933)"><g
       id="g12"
       transform="translate(129.217,87.5434)"><path
         d="M 0,0 V -14.931"
         style="fill:none;stroke:#231f20;stroke-width:0.48500001;stroke-linecap:round;stroke-linejoin:round;stroke-miterlimit:4;stroke-dasharray:none;stroke-opacity:1"
         id="path14"
         inkscape:connector-curvature="0" /></g><g
       id="g16"
       transform="translate(126.9536,86.6106)"><path
         d="M 0,0 2.263,0.933"
         style="fill:none;stroke:#231f20;stroke-width:1.45500004;stroke-linecap:round;stroke-linejoin:round;stroke-miterlimit:4;stroke-dasharray:none;stroke-opacity:1"
         id="path18"
         inkscape:connector-curvature="0" /></g><g
       id="g20"><g
         id="g22"
         clip-path="url(#clipPath26)"><g
           id="g28"
           transform="translate(114.3954,113.2919)"><path
             d="M 0,0 C 0,-5.153 5.11,-9.616 12.558,-11.783 V -26.681"
             style="fill:none;stroke:#231f20;stroke-width:0.48500001;stroke-linecap:round;stroke-linejoin:round;stroke-miterlimit:4;stroke-dasharray:none;stroke-opacity:1"
             id="path30"
             inkscape:connector-curvature="0" /></g><g
           id="g32"
           transform="translate(118.444,90.9291)"><path
             d="M 0,0 C 2.165,-1.807 5.091,-3.285 8.51,-4.28"
             style="fill:none;stroke:#231f20;stroke-width:1.45500004;stroke-linecap:round;stroke-linejoin:round;stroke-miterlimit:4;stroke-dasharray:none;stroke-opacity:1"
             id="path34"
             inkscape:connector-curvature="0" /></g><g
           id="g36"
           transform="translate(118.5884,111.5905)"><path
             d="m 0,0 c -0.039,0.284 -0.059,0.571 -0.059,0.86 0,5.957 8.344,10.786 18.636,10.786 8.534,0 15.727,-3.319 17.936,-7.849"
             style="fill:none;stroke:#231f20;stroke-width:0.48500001;stroke-linecap:round;stroke-linejoin:round;stroke-miterlimit:4;stroke-dasharray:none;stroke-opacity:1"
             id="path38"
             inkscape:connector-curvature="0" /></g><g
           id="g40"
           transform="translate(119.3357,109.5805)"><path
             d="m 0,0 c 0.417,5.491 8.24,9.868 17.83,9.868 8.784,0 16.083,-3.672 17.569,-8.509"
             style="fill:none;stroke:#231f20;stroke-width:0.48500001;stroke-linecap:round;stroke-linejoin:round;stroke-miterlimit:4;stroke-dasharray:none;stroke-opacity:1"
             id="path42"
             inkscape:connector-curvature="0" /></g><g
           id="g44"
           transform="translate(121.1009,107.1158)"><path
             d="m 0,0 c -0.24,0.646 -0.366,1.316 -0.366,2.003 0,5.253 7.356,9.51 16.431,9.51 6.335,0 11.834,-2.075 14.574,-5.116 l 2.673,-2.065"
             style="fill:none;stroke:#231f20;stroke-width:0.48500001;stroke-linecap:round;stroke-linejoin:round;stroke-miterlimit:4;stroke-dasharray:none;stroke-opacity:1"
             id="path46"
             inkscape:connector-curvature="0" /></g><g
           id="g48"
           transform="translate(130.8809,91.7)"><path
             d="m 0,0 c 1.938,0.46 4.06,0.714 6.285,0.714 4.687,0 8.92,-1.128 11.931,-2.94 l 5.46,-3.719 1.292,0.784 0.144,15.361 2.715,2.154 v 13.518 c -3.07,5.178 -11.555,8.9 -21.542,8.9 -12.576,0 -22.77,-5.901 -22.77,-13.18 V 7.975"
             style="fill:none;stroke:#231f20;stroke-width:1.45500004;stroke-linecap:round;stroke-linejoin:round;stroke-miterlimit:4;stroke-dasharray:none;stroke-opacity:1"
             id="path50"
             inkscape:connector-curvature="0" /></g><g
           id="g52"
           transform="translate(117.4766,90.1999)"><path
             d="m 0,0 v -7.366 c 0,-4.661 4.836,-8.669 11.761,-10.435 l 1.343,0.645 v 27.852 c 0,0.502 0.144,1.436 -0.859,1.663 -6.193,1.403 -10.581,4.978 -11.133,9.032"
             style="fill:none;stroke:#231f20;stroke-width:1.45500004;stroke-linecap:round;stroke-linejoin:round;stroke-miterlimit:4;stroke-dasharray:none;stroke-opacity:1"
             id="path54"
             inkscape:connector-curvature="0" /></g><g
           id="g56"
           transform="translate(158.577,117.4063)"><path
             d="m 0,0 c 0,0 -1.723,-0.574 -2.512,-0.933 -0.79,-0.359 -1.293,-1.436 -1.293,-2.728 0,-1.292 -0.143,-27.853 -0.143,-27.853"
             style="fill:none;stroke:#231f20;stroke-width:0.48500001;stroke-linecap:round;stroke-linejoin:round;stroke-miterlimit:4;stroke-dasharray:none;stroke-opacity:1"
             id="path58"
             inkscape:connector-curvature="0" /></g><g
           id="g60"
           transform="translate(126.9536,101.5089)"><path
             d="M 0,0 C 0,0 0.827,0.392 1.402,0.607 1.976,0.823 2.406,1.038 2.837,0.966"
             style="fill:none;stroke:#231f20;stroke-width:0.48500001;stroke-linecap:round;stroke-linejoin:round;stroke-miterlimit:4;stroke-dasharray:none;stroke-opacity:1"
             id="path62"
             inkscape:connector-curvature="0" /></g><g
           id="g64"
           transform="translate(129.4376,102.5548)"><path
             d="m 0,0 c -7.259,1.753 -12.361,5.901 -12.361,10.737 0,6.422 8.994,11.628 20.089,11.628 8.99,0 16.601,-3.418 19.164,-8.132"
             style="fill:none;stroke:#231f20;stroke-width:0.48500001;stroke-linecap:round;stroke-linejoin:round;stroke-miterlimit:4;stroke-dasharray:none;stroke-opacity:1"
             id="path66"
             inkscape:connector-curvature="0" /></g><g
           id="g68"
           transform="translate(151.3473,113.0381)"><path
             d="m 0,0 c 0.859,-1.473 0.748,-3.138 -0.247,-3.718 -0.997,-0.58 -2.498,0.144 -3.358,1.617 -0.857,1.473 -0.747,3.137 0.25,3.717 C -2.36,2.195 -0.859,1.472 0,0 Z"
             style="fill:none;stroke:#231f20;stroke-width:0.48500001;stroke-linecap:round;stroke-linejoin:round;stroke-miterlimit:4;stroke-dasharray:none;stroke-opacity:1"
             id="path70"
             inkscape:connector-curvature="0" /></g><g
           id="g72"
           transform="translate(117.4827,100.4936)"><path
             d="M 0,0 C 1.225,0.713 3.223,-0.437 4.467,-2.569 5.71,-4.702 5.725,-7.01 4.501,-7.723"
             style="fill:none;stroke:#231f20;stroke-width:0.48500001;stroke-linecap:round;stroke-linejoin:round;stroke-miterlimit:4;stroke-dasharray:none;stroke-opacity:1"
             id="path74"
             inkscape:connector-curvature="0" /></g><g
           id="g76"
           transform="translate(159.0173,111.476)"><path
             d="m 0,0 61.954,33.642 c 1.124,0.655 1.213,2.599 0.198,4.341 -1.015,1.741 -2.748,2.621 -3.873,1.966 L -2.667,8.728"
             style="fill:none;stroke:#231f20;stroke-width:1.45500004;stroke-linecap:round;stroke-linejoin:round;stroke-miterlimit:4;stroke-dasharray:none;stroke-opacity:1"
             id="path78"
             inkscape:connector-curvature="0" /></g><g
           id="g80"
           transform="translate(18.0744,49.5247)"><path
             d="M 0,0 C 1.06,0.616 3.038,-0.802 4.419,-3.172 5.801,-5.54 6.061,-7.963 5,-8.58"
             style="fill:none;stroke:#231f20;stroke-width:0.48500001;stroke-linecap:round;stroke-linejoin:round;stroke-miterlimit:4;stroke-dasharray:none;stroke-opacity:1"
             id="path82"
             inkscape:connector-curvature="0" /></g><g
           id="g84"
           transform="translate(117.4827,100.4936)"><path
             d="m 0,0 -99.408,-50.969 c -1.061,-0.617 -0.801,-3.039 0.578,-5.408 1.383,-2.37 3.36,-3.789 4.422,-3.172 L 4.501,-7.723"
             style="fill:none;stroke:#231f20;stroke-width:1.45500004;stroke-linecap:round;stroke-linejoin:round;stroke-miterlimit:4;stroke-dasharray:none;stroke-opacity:1"
             id="path86"
             inkscape:connector-curvature="0" /></g></g></g></g></svg>