<?xml version="1.0" encoding="UTF-8" standalone="no"?>
<!-- Created with Inkscape (http://www.inkscape.org/) -->

<svg
   xmlns:dc="http://purl.org/dc/elements/1.1/"
   xmlns:cc="http://creativecommons.org/ns#"
   xmlns:rdf="http://www.w3.org/1999/02/22-rdf-syntax-ns#"
   xmlns:svg="http://www.w3.org/2000/svg"
   xmlns="http://www.w3.org/2000/svg"
   xmlns:sodipodi="http://sodipodi.sourceforge.net/DTD/sodipodi-0.dtd"
   xmlns:inkscape="http://www.inkscape.org/namespaces/inkscape"
   id="svg3336"
   version="1.1"
   inkscape:version="0.91 r13725"
   xml:space="preserve"
   width="301.18124"
   height="230.315"
   viewBox="0 0 301.18124 230.315"
   sodipodi:docname="cjeq.svg"><metadata
     id="metadata3342"><rdf:RDF><cc:Work
         rdf:about=""><dc:format>image/svg+xml</dc:format><dc:type
           rdf:resource="http://purl.org/dc/dcmitype/StillImage" /><dc:title></dc:title></cc:Work></rdf:RDF></metadata><defs
     id="defs3340"><clipPath
       clipPathUnits="userSpaceOnUse"
       id="clipPath3350"><path
         d="m 0,0 240.945,0 0,184.252 L 0,184.252 0,0 Z"
         id="path3352"
         inkscape:connector-curvature="0" /></clipPath></defs><sodipodi:namedview
     pagecolor="#ffffff"
     bordercolor="#666666"
     borderopacity="1"
     objecttolerance="10"
     gridtolerance="10"
     guidetolerance="10"
     inkscape:pageopacity="0"
     inkscape:pageshadow="2"
     inkscape:window-width="640"
     inkscape:window-height="480"
     id="namedview3338"
     showgrid="false"
     inkscape:zoom="3.317196"
     inkscape:cx="150.59062"
     inkscape:cy="115.1575"
     inkscape:window-x="0"
     inkscape:window-y="0"
     inkscape:window-maximized="1"
     inkscape:current-layer="g3344" /><g
     id="g3344"
     inkscape:groupmode="layer"
     inkscape:label="cjeq"
     transform="matrix(1.25,0,0,-1.25,0,230.315)"><g
       id="g3346"><g
         id="g3348"
         clip-path="url(#clipPath3350)"><g
           id="g3354"
           transform="translate(205.7539,193.0786)"><path
             d="M 0,0 13.868,-204.984"
             style="fill:none;stroke:#000000;stroke-width:0.5;stroke-linecap:round;stroke-linejoin:round;stroke-miterlimit:10;stroke-dasharray:none;stroke-opacity:1"
             id="path3356"
             inkscape:connector-curvature="0" /></g><g
           id="g3358"
           transform="translate(154.2227,151.542)"><path
             d="m 0,0 c 1.418,-3.19 12.231,-1.596 22.158,4.254 9.927,5.85 16.487,11.877 14.891,14.891"
             style="fill:none;stroke:#000000;stroke-width:0.5;stroke-linecap:round;stroke-linejoin:round;stroke-miterlimit:10;stroke-dasharray:none;stroke-opacity:1"
             id="path3360"
             inkscape:connector-curvature="0" /></g><g
           id="g3362"
           transform="translate(165.0361,167.1416)"><path
             d="M 0,0 C -6.204,-4.609 -12.231,-12.409 -10.813,-15.6"
             style="fill:none;stroke:#000000;stroke-width:0.25;stroke-linecap:round;stroke-linejoin:round;stroke-miterlimit:10;stroke-dasharray:none;stroke-opacity:1"
             id="path3364"
             inkscape:connector-curvature="0" /></g><g
           id="g3366"
           transform="translate(158.6543,165.1914)"><path
             d="m 0,0 c -6.026,-4.432 -10.459,-11.876 -8.154,-16.308 2.304,-4.432 5.141,-8.332 9.041,-14.004 3.899,-5.672 15.527,-3.481 27.121,3.545 11.699,7.091 18.79,14.359 15.954,19.854 -2.836,5.495 -5.495,10.458 -7.8,14.181 -2.305,3.723 -6.204,2.659 -6.204,2.659"
             style="fill:none;stroke:#000000;stroke-width:0.5;stroke-linecap:round;stroke-linejoin:round;stroke-miterlimit:10;stroke-dasharray:none;stroke-opacity:1"
             id="path3368"
             inkscape:connector-curvature="0" /></g><g
           id="g3370"
           transform="translate(150.5,148.8833)"><path
             d="m 0,0 c 3.191,-6.204 20.74,0.354 28.54,5.318 7.8,4.963 17.727,13.118 15.067,18.79"
             style="fill:none;stroke:#000000;stroke-width:0.25;stroke-linecap:round;stroke-linejoin:round;stroke-miterlimit:10;stroke-dasharray:none;stroke-opacity:1"
             id="path3372"
             inkscape:connector-curvature="0" /></g><g
           id="g3374"
           transform="translate(164.1494,170.332)"><path
             d="m 0,0 c 0,0 -8.33,-4.077 -10.813,-5.495 -2.482,-1.418 -4.077,-0.709 -4.077,-0.709 l -2.482,-1.95 3.723,-7.091"
             style="fill:none;stroke:#000000;stroke-width:0.5;stroke-linecap:round;stroke-linejoin:round;stroke-miterlimit:10;stroke-dasharray:none;stroke-opacity:1"
             id="path3376"
             inkscape:connector-curvature="0" /></g><g
           id="g3378"
           transform="translate(148.0186,162.001)"><path
             d="M 0,0 C 0,0 2.836,-0.354 5.141,0.532 7.445,1.418 9.218,2.481 9.218,2.481"
             style="fill:none;stroke:#000000;stroke-width:0.25;stroke-linecap:round;stroke-linejoin:round;stroke-miterlimit:10;stroke-dasharray:none;stroke-opacity:1"
             id="path3380"
             inkscape:connector-curvature="0" /></g><g
           id="g3382"
           transform="translate(171.5947,153.6694)"><path
             d="M 0,0 C -6.204,11.699 -15.776,37.403 -15.776,37.403"
             style="fill:none;stroke:#000000;stroke-width:0.5;stroke-linecap:round;stroke-linejoin:round;stroke-miterlimit:10;stroke-dasharray:none;stroke-opacity:1"
             id="path3384"
             inkscape:connector-curvature="0" /></g><g
           id="g3386"
           transform="translate(190.917,169.0913)"><path
             d="M 0,0 C -4.255,9.041 -9.927,24.285 -9.927,24.285"
             style="fill:none;stroke:#000000;stroke-width:0.5;stroke-linecap:round;stroke-linejoin:round;stroke-miterlimit:10;stroke-dasharray:none;stroke-opacity:1"
             id="path3388"
             inkscape:connector-curvature="0" /></g><g
           id="g3390"
           transform="translate(199.957,148.3516)"><path
             d="M 0,0 C 4.609,-9.218 10.104,-17.372 10.104,-17.372"
             style="fill:none;stroke:#000000;stroke-width:0.5;stroke-linecap:round;stroke-linejoin:round;stroke-miterlimit:10;stroke-dasharray:none;stroke-opacity:1"
             id="path3392"
             inkscape:connector-curvature="0" /></g><g
           id="g3394"
           transform="translate(180.1035,134.7021)"><path
             d="M 0,0 C 7.977,-16.308 27.653,-46.797 33.503,-54.242"
             style="fill:none;stroke:#000000;stroke-width:0.5;stroke-linecap:round;stroke-linejoin:round;stroke-miterlimit:10;stroke-dasharray:none;stroke-opacity:1"
             id="path3396"
             inkscape:connector-curvature="0" /></g><g
           id="g3398"
           transform="translate(130,191.752)"><path
             d="M 0,0 32.5,-199.5"
             style="fill:none;stroke:#000000;stroke-width:1;stroke-linecap:round;stroke-linejoin:round;stroke-miterlimit:10;stroke-dasharray:none;stroke-opacity:1"
             id="path3400"
             inkscape:connector-curvature="0" /></g><g
           id="g3402"
           transform="translate(33.5332,194.002)"><path
             d="m 0,0 c 0,0 36.467,-129.25 37.467,-132.75 1,-3.5 1.25,-3.75 3,-3.5 1.75,0.25 3.75,1.75 3.75,1.75 0,0 11.5,-1 22.75,5.25 11.25,6.25 9,17 9,17 l 1.157,1.495 L 48.967,4.75"
             style="fill:none;stroke:#000000;stroke-width:0.5;stroke-linecap:round;stroke-linejoin:round;stroke-miterlimit:10;stroke-dasharray:none;stroke-opacity:1"
             id="path3404"
             inkscape:connector-curvature="0" /></g><g
           id="g3406"
           transform="translate(-4.75,85.502)"><path
             d="m 0,0 c 0,0 54.5,-40.75 63.5,-47.5 9,-6.75 16.75,-3.75 26.75,1.25 L 93,-47 l 28.25,18.75 -1,11.75 c -0.045,2.185 -4.489,2.486 -4.489,2.486"
             style="fill:none;stroke:#000000;stroke-width:0.5;stroke-linecap:round;stroke-linejoin:round;stroke-miterlimit:10;stroke-dasharray:none;stroke-opacity:1"
             id="path3408"
             inkscape:connector-curvature="0" /></g><g
           id="g3410"
           transform="translate(108.75,91.752)"><path
             d="m 0,0 c 0,0 2.5,0.5 2.75,-1.5 0.25,-2 1.5,-7.25 1.5,-7.25 0,0 5,0 5.75,-7.25 0.75,-7.25 0.5,-8 0.5,-10.75 0,-2.75 -3,-3.75 -3,-3.75"
             style="fill:none;stroke:#000000;stroke-width:0.5;stroke-linecap:round;stroke-linejoin:round;stroke-miterlimit:10;stroke-dasharray:none;stroke-opacity:1"
             id="path3412"
             inkscape:connector-curvature="0" /></g><g
           id="g3414"
           transform="translate(115,55.502)"><path
             d="m 0,0 c 0,0 0.75,-6.5 1.25,-15 0.5,-8.5 3,-11.25 -12.75,-22 -15.75,-10.75 -25.5,-21.75 -43.5,-8 -18,13.75 -67,52.75 -67,52.75"
             style="fill:none;stroke:#000000;stroke-width:0.5;stroke-linecap:round;stroke-linejoin:round;stroke-miterlimit:10;stroke-dasharray:none;stroke-opacity:1"
             id="path3416"
             inkscape:connector-curvature="0" /></g><g
           id="g3418"
           transform="translate(78.75,60.002)"><path
             d="M 0,0 -36.25,134"
             style="fill:none;stroke:#000000;stroke-width:0.25;stroke-linecap:round;stroke-linejoin:round;stroke-miterlimit:10;stroke-dasharray:none;stroke-opacity:1"
             id="path3420"
             inkscape:connector-curvature="0" /></g><g
           id="g3422"
           transform="translate(73.5,57.502)"><path
             d="M 0,0 -36.25,134"
             style="fill:none;stroke:#000000;stroke-width:0.25;stroke-linecap:round;stroke-linejoin:round;stroke-miterlimit:10;stroke-dasharray:none;stroke-opacity:1"
             id="path3424"
             inkscape:connector-curvature="0" /></g><g
           id="g3426"
           transform="translate(-2.5,101.252)"><path
             d="m 0,0 c 0,0 70.25,-47.75 71.75,-48.75 1.5,-1 14.044,6.936 14.044,6.936"
             style="fill:none;stroke:#000000;stroke-width:0.5;stroke-linecap:round;stroke-linejoin:round;stroke-miterlimit:10;stroke-dasharray:none;stroke-opacity:1"
             id="path3428"
             inkscape:connector-curvature="0" /></g><g
           id="g3430"
           transform="translate(-5.75,94.252)"><path
             d="m 0,0 c 0,0 55.25,-40.25 62.5,-45.5 7.25,-5.25 15.25,-5 26.75,1.25"
             style="fill:none;stroke:#000000;stroke-width:0.25;stroke-linecap:round;stroke-linejoin:round;stroke-miterlimit:10;stroke-dasharray:none;stroke-opacity:1"
             id="path3432"
             inkscape:connector-curvature="0" /></g><g
           id="g3434"
           transform="translate(85.855,39.3271)"><path
             d="m 0,0 c 0,0 -1.28,7.683 -1.355,8.963 -0.076,1.28 -0.98,2.334 -2.185,3.238 -1.205,0.904 -4.594,3.089 -4.594,3.089"
             style="fill:none;stroke:#000000;stroke-width:0.25;stroke-linecap:round;stroke-linejoin:round;stroke-miterlimit:10;stroke-dasharray:none;stroke-opacity:1"
             id="path3436"
             inkscape:connector-curvature="0" /></g><g
           id="g3438"
           transform="translate(79.3774,56.123)"><path
             d="m 0,0 c 0,0 2.41,-1.882 4.369,-3.313 1.958,-1.432 2.41,-2.637 2.711,-4.52 0.301,-1.883 1.733,-9.49 1.733,-9.49"
             style="fill:none;stroke:#000000;stroke-width:0.25;stroke-linecap:round;stroke-linejoin:round;stroke-miterlimit:10;stroke-dasharray:none;stroke-opacity:1"
             id="path3440"
             inkscape:connector-curvature="0" /></g><g
           id="g3442"
           transform="translate(113.2705,82.7104)"><path
             d="M 0,0 C 2.712,-2.259 5.423,-7.757 0.603,-11.674"
             style="fill:none;stroke:#000000;stroke-width:0.25;stroke-linecap:round;stroke-linejoin:round;stroke-miterlimit:10;stroke-dasharray:none;stroke-opacity:1"
             id="path3444"
             inkscape:connector-curvature="0" /></g><g
           id="g3446"
           transform="translate(85.252,51.9053)"><path
             d="M 0,0 27.943,18.528"
             style="fill:none;stroke:#000000;stroke-width:0.25;stroke-linecap:round;stroke-linejoin:round;stroke-miterlimit:10;stroke-dasharray:none;stroke-opacity:1"
             id="path3448"
             inkscape:connector-curvature="0" /></g><g
           id="g3450"
           transform="translate(87.0596,49.3447)"><path
             d="M 0,0 27.943,18.528"
             style="fill:none;stroke:#000000;stroke-width:0.25;stroke-linecap:round;stroke-linejoin:round;stroke-miterlimit:10;stroke-dasharray:none;stroke-opacity:1"
             id="path3452"
             inkscape:connector-curvature="0" /></g><g
           id="g3454"
           transform="translate(98.207,46.5576)"><path
             d="M 0,0 -0.753,4.293 7.381,9.716"
             style="fill:none;stroke:#000000;stroke-width:0.25;stroke-linecap:round;stroke-linejoin:round;stroke-miterlimit:10;stroke-dasharray:none;stroke-opacity:1"
             id="path3456"
             inkscape:connector-curvature="0" /></g><g
           id="g3458"
           transform="translate(104.6089,57.2529)"><path
             d="m 0,0 1.356,-0.753 0.829,-4.519 -8.436,-6.026 -1.883,-0.075"
             style="fill:none;stroke:#000000;stroke-width:0.5;stroke-linecap:round;stroke-linejoin:round;stroke-miterlimit:10;stroke-dasharray:none;stroke-opacity:1"
             id="path3460"
             inkscape:connector-curvature="0" /></g><g
           id="g3462"
           transform="translate(96.0981,46.4824)"><path
             d="m 0,0 c 0,0 -0.527,2.185 -0.603,3.615 -0.075,1.431 0.151,1.882 1.206,2.636 1.054,0.754 6.929,4.595 7.381,4.595"
             style="fill:none;stroke:#000000;stroke-width:0.25;stroke-linecap:round;stroke-linejoin:round;stroke-miterlimit:10;stroke-dasharray:none;stroke-opacity:1"
             id="path3464"
             inkscape:connector-curvature="0" /></g><g
           id="g3466"
           transform="translate(36,182.002)"><path
             d="M 0,0 -68,34.25"
             style="fill:none;stroke:#000000;stroke-width:0.25;stroke-linecap:round;stroke-linejoin:round;stroke-miterlimit:10;stroke-dasharray:none;stroke-opacity:1"
             id="path3468"
             inkscape:connector-curvature="0" /></g><g
           id="g3470"
           transform="translate(36.6865,179.4971)"><path
             d="M 0,0 -68.099,34.549"
             style="fill:none;stroke:#000000;stroke-width:0.25;stroke-linecap:round;stroke-linejoin:round;stroke-miterlimit:10;stroke-dasharray:none;stroke-opacity:1"
             id="path3472"
             inkscape:connector-curvature="0" /></g><g
           id="g3474"
           transform="translate(37.3721,176.9922)"><path
             d="M 0,0 -68.195,34.848"
             style="fill:none;stroke:#000000;stroke-width:0.25;stroke-linecap:round;stroke-linejoin:round;stroke-miterlimit:10;stroke-dasharray:none;stroke-opacity:1"
             id="path3476"
             inkscape:connector-curvature="0" /></g><g
           id="g3478"
           transform="translate(38.0586,174.4873)"><path
             d="M 0,0 -68.294,35.147"
             style="fill:none;stroke:#000000;stroke-width:0.25;stroke-linecap:round;stroke-linejoin:round;stroke-miterlimit:10;stroke-dasharray:none;stroke-opacity:1"
             id="path3480"
             inkscape:connector-curvature="0" /></g><g
           id="g3482"
           transform="translate(38.7451,171.9824)"><path
             d="M 0,0 -68.392,35.446"
             style="fill:none;stroke:#000000;stroke-width:0.25;stroke-linecap:round;stroke-linejoin:round;stroke-miterlimit:10;stroke-dasharray:none;stroke-opacity:1"
             id="path3484"
             inkscape:connector-curvature="0" /></g><g
           id="g3486"
           transform="translate(39.4316,169.4775)"><path
             d="M 0,0 -68.49,35.745"
             style="fill:none;stroke:#000000;stroke-width:0.25;stroke-linecap:round;stroke-linejoin:round;stroke-miterlimit:10;stroke-dasharray:none;stroke-opacity:1"
             id="path3488"
             inkscape:connector-curvature="0" /></g><g
           id="g3490"
           transform="translate(40.1177,166.9727)"><path
             d="M 0,0 -68.588,36.044"
             style="fill:none;stroke:#000000;stroke-width:0.25;stroke-linecap:round;stroke-linejoin:round;stroke-miterlimit:10;stroke-dasharray:none;stroke-opacity:1"
             id="path3492"
             inkscape:connector-curvature="0" /></g><g
           id="g3494"
           transform="translate(40.8037,164.4673)"><path
             d="M 0,0 -68.686,36.344"
             style="fill:none;stroke:#000000;stroke-width:0.25;stroke-linecap:round;stroke-linejoin:round;stroke-miterlimit:10;stroke-dasharray:none;stroke-opacity:1"
             id="path3496"
             inkscape:connector-curvature="0" /></g><g
           id="g3498"
           transform="translate(41.4902,161.9629)"><path
             d="M 0,0 -68.784,36.642"
             style="fill:none;stroke:#000000;stroke-width:0.25;stroke-linecap:round;stroke-linejoin:round;stroke-miterlimit:10;stroke-dasharray:none;stroke-opacity:1"
             id="path3500"
             inkscape:connector-curvature="0" /></g><g
           id="g3502"
           transform="translate(42.1768,159.458)"><path
             d="M 0,0 -68.882,36.941"
             style="fill:none;stroke:#000000;stroke-width:0.25;stroke-linecap:round;stroke-linejoin:round;stroke-miterlimit:10;stroke-dasharray:none;stroke-opacity:1"
             id="path3504"
             inkscape:connector-curvature="0" /></g><g
           id="g3506"
           transform="translate(42.8628,156.9531)"><path
             d="M 0,0 -68.98,37.24"
             style="fill:none;stroke:#000000;stroke-width:0.25;stroke-linecap:round;stroke-linejoin:round;stroke-miterlimit:10;stroke-dasharray:none;stroke-opacity:1"
             id="path3508"
             inkscape:connector-curvature="0" /></g><g
           id="g3510"
           transform="translate(43.5488,154.4482)"><path
             d="M 0,0 -69.078,37.539"
             style="fill:none;stroke:#000000;stroke-width:0.25;stroke-linecap:round;stroke-linejoin:round;stroke-miterlimit:10;stroke-dasharray:none;stroke-opacity:1"
             id="path3512"
             inkscape:connector-curvature="0" /></g><g
           id="g3514"
           transform="translate(44.2354,151.9429)"><path
             d="M 0,0 -69.176,37.838"
             style="fill:none;stroke:#000000;stroke-width:0.25;stroke-linecap:round;stroke-linejoin:round;stroke-miterlimit:10;stroke-dasharray:none;stroke-opacity:1"
             id="path3516"
             inkscape:connector-curvature="0" /></g><g
           id="g3518"
           transform="translate(44.9214,149.4385)"><path
             d="M 0,0 -69.274,38.137"
             style="fill:none;stroke:#000000;stroke-width:0.25;stroke-linecap:round;stroke-linejoin:round;stroke-miterlimit:10;stroke-dasharray:none;stroke-opacity:1"
             id="path3520"
             inkscape:connector-curvature="0" /></g><g
           id="g3522"
           transform="translate(45.6074,146.9336)"><path
             d="M 0,0 -69.372,38.437"
             style="fill:none;stroke:#000000;stroke-width:0.25;stroke-linecap:round;stroke-linejoin:round;stroke-miterlimit:10;stroke-dasharray:none;stroke-opacity:1"
             id="path3524"
             inkscape:connector-curvature="0" /></g><g
           id="g3526"
           transform="translate(46.2939,144.4287)"><path
             d="M 0,0 -69.471,38.735"
             style="fill:none;stroke:#000000;stroke-width:0.25;stroke-linecap:round;stroke-linejoin:round;stroke-miterlimit:10;stroke-dasharray:none;stroke-opacity:1"
             id="path3528"
             inkscape:connector-curvature="0" /></g><g
           id="g3530"
           transform="translate(46.9805,141.9233)"><path
             d="M 0,0 -69.569,39.035"
             style="fill:none;stroke:#000000;stroke-width:0.25;stroke-linecap:round;stroke-linejoin:round;stroke-miterlimit:10;stroke-dasharray:none;stroke-opacity:1"
             id="path3532"
             inkscape:connector-curvature="0" /></g><g
           id="g3534"
           transform="translate(47.6665,139.4185)"><path
             d="M 0,0 -69.667,39.333"
             style="fill:none;stroke:#000000;stroke-width:0.25;stroke-linecap:round;stroke-linejoin:round;stroke-miterlimit:10;stroke-dasharray:none;stroke-opacity:1"
             id="path3536"
             inkscape:connector-curvature="0" /></g><g
           id="g3538"
           transform="translate(48.353,136.9141)"><path
             d="M 0,0 -69.765,39.632"
             style="fill:none;stroke:#000000;stroke-width:0.25;stroke-linecap:round;stroke-linejoin:round;stroke-miterlimit:10;stroke-dasharray:none;stroke-opacity:1"
             id="path3540"
             inkscape:connector-curvature="0" /></g><g
           id="g3542"
           transform="translate(49.0391,134.4092)"><path
             d="M 0,0 -69.863,39.931"
             style="fill:none;stroke:#000000;stroke-width:0.25;stroke-linecap:round;stroke-linejoin:round;stroke-miterlimit:10;stroke-dasharray:none;stroke-opacity:1"
             id="path3544"
             inkscape:connector-curvature="0" /></g><g
           id="g3546"
           transform="translate(49.7256,131.9043)"><path
             d="M 0,0 -69.961,40.229"
             style="fill:none;stroke:#000000;stroke-width:0.25;stroke-linecap:round;stroke-linejoin:round;stroke-miterlimit:10;stroke-dasharray:none;stroke-opacity:1"
             id="path3548"
             inkscape:connector-curvature="0" /></g><g
           id="g3550"
           transform="translate(50.4116,129.3989)"><path
             d="M 0,0 -70.059,40.529"
             style="fill:none;stroke:#000000;stroke-width:0.25;stroke-linecap:round;stroke-linejoin:round;stroke-miterlimit:10;stroke-dasharray:none;stroke-opacity:1"
             id="path3552"
             inkscape:connector-curvature="0" /></g><g
           id="g3554"
           transform="translate(51.0981,126.894)"><path
             d="M 0,0 -70.157,40.829"
             style="fill:none;stroke:#000000;stroke-width:0.25;stroke-linecap:round;stroke-linejoin:round;stroke-miterlimit:10;stroke-dasharray:none;stroke-opacity:1"
             id="path3556"
             inkscape:connector-curvature="0" /></g><g
           id="g3558"
           transform="translate(51.7842,124.3896)"><path
             d="M 0,0 -70.255,41.127"
             style="fill:none;stroke:#000000;stroke-width:0.25;stroke-linecap:round;stroke-linejoin:round;stroke-miterlimit:10;stroke-dasharray:none;stroke-opacity:1"
             id="path3560"
             inkscape:connector-curvature="0" /></g><g
           id="g3562"
           transform="translate(52.4707,121.8848)"><path
             d="M 0,0 -70.354,41.426"
             style="fill:none;stroke:#000000;stroke-width:0.25;stroke-linecap:round;stroke-linejoin:round;stroke-miterlimit:10;stroke-dasharray:none;stroke-opacity:1"
             id="path3564"
             inkscape:connector-curvature="0" /></g><g
           id="g3566"
           transform="translate(53.1567,119.3794)"><path
             d="M 0,0 -70.451,41.726"
             style="fill:none;stroke:#000000;stroke-width:0.25;stroke-linecap:round;stroke-linejoin:round;stroke-miterlimit:10;stroke-dasharray:none;stroke-opacity:1"
             id="path3568"
             inkscape:connector-curvature="0" /></g><g
           id="g3570"
           transform="translate(53.8433,116.8745)"><path
             d="M 0,0 -70.549,42.025"
             style="fill:none;stroke:#000000;stroke-width:0.25;stroke-linecap:round;stroke-linejoin:round;stroke-miterlimit:10;stroke-dasharray:none;stroke-opacity:1"
             id="path3572"
             inkscape:connector-curvature="0" /></g><g
           id="g3574"
           transform="translate(54.5293,114.3701)"><path
             d="M 0,0 -70.647,42.323"
             style="fill:none;stroke:#000000;stroke-width:0.25;stroke-linecap:round;stroke-linejoin:round;stroke-miterlimit:10;stroke-dasharray:none;stroke-opacity:1"
             id="path3576"
             inkscape:connector-curvature="0" /></g><g
           id="g3578"
           transform="translate(55.2158,111.8643)"><path
             d="M 0,0 -70.745,42.623"
             style="fill:none;stroke:#000000;stroke-width:0.25;stroke-linecap:round;stroke-linejoin:round;stroke-miterlimit:10;stroke-dasharray:none;stroke-opacity:1"
             id="path3580"
             inkscape:connector-curvature="0" /></g><g
           id="g3582"
           transform="translate(55.9019,109.3594)"><path
             d="M 0,0 -70.843,42.922"
             style="fill:none;stroke:#000000;stroke-width:0.25;stroke-linecap:round;stroke-linejoin:round;stroke-miterlimit:10;stroke-dasharray:none;stroke-opacity:1"
             id="path3584"
             inkscape:connector-curvature="0" /></g><g
           id="g3586"
           transform="translate(56.5884,106.855)"><path
             d="M 0,0 -70.941,43.22"
             style="fill:none;stroke:#000000;stroke-width:0.25;stroke-linecap:round;stroke-linejoin:round;stroke-miterlimit:10;stroke-dasharray:none;stroke-opacity:1"
             id="path3588"
             inkscape:connector-curvature="0" /></g><g
           id="g3590"
           transform="translate(57.2744,104.3501)"><path
             d="M 0,0 -71.039,43.519"
             style="fill:none;stroke:#000000;stroke-width:0.25;stroke-linecap:round;stroke-linejoin:round;stroke-miterlimit:10;stroke-dasharray:none;stroke-opacity:1"
             id="path3592"
             inkscape:connector-curvature="0" /></g><g
           id="g3594"
           transform="translate(57.9604,101.8447)"><path
             d="M 0,0 -71.137,43.819"
             style="fill:none;stroke:#000000;stroke-width:0.25;stroke-linecap:round;stroke-linejoin:round;stroke-miterlimit:10;stroke-dasharray:none;stroke-opacity:1"
             id="path3596"
             inkscape:connector-curvature="0" /></g><g
           id="g3598"
           transform="translate(58.647,99.3398)"><path
             d="M 0,0 -71.235,44.118"
             style="fill:none;stroke:#000000;stroke-width:0.25;stroke-linecap:round;stroke-linejoin:round;stroke-miterlimit:10;stroke-dasharray:none;stroke-opacity:1"
             id="path3600"
             inkscape:connector-curvature="0" /></g><g
           id="g3602"
           transform="translate(59.333,96.835)"><path
             d="M 0,0 -71.333,44.417"
             style="fill:none;stroke:#000000;stroke-width:0.25;stroke-linecap:round;stroke-linejoin:round;stroke-miterlimit:10;stroke-dasharray:none;stroke-opacity:1"
             id="path3604"
             inkscape:connector-curvature="0" /></g><g
           id="g3606"
           transform="translate(60.0195,94.3306)"><path
             d="M 0,0 -71.432,44.716"
             style="fill:none;stroke:#000000;stroke-width:0.25;stroke-linecap:round;stroke-linejoin:round;stroke-miterlimit:10;stroke-dasharray:none;stroke-opacity:1"
             id="path3608"
             inkscape:connector-curvature="0" /></g><g
           id="g3610"
           transform="translate(60.7061,91.8257)"><path
             d="M 0,0 -71.53,45.014"
             style="fill:none;stroke:#000000;stroke-width:0.25;stroke-linecap:round;stroke-linejoin:round;stroke-miterlimit:10;stroke-dasharray:none;stroke-opacity:1"
             id="path3612"
             inkscape:connector-curvature="0" /></g><g
           id="g3614"
           transform="translate(61.3921,89.3203)"><path
             d="M 0,0 -71.627,45.314"
             style="fill:none;stroke:#000000;stroke-width:0.25;stroke-linecap:round;stroke-linejoin:round;stroke-miterlimit:10;stroke-dasharray:none;stroke-opacity:1"
             id="path3616"
             inkscape:connector-curvature="0" /></g><g
           id="g3618"
           transform="translate(62.0781,86.8154)"><path
             d="M 0,0 -71.725,45.613"
             style="fill:none;stroke:#000000;stroke-width:0.25;stroke-linecap:round;stroke-linejoin:round;stroke-miterlimit:10;stroke-dasharray:none;stroke-opacity:1"
             id="path3620"
             inkscape:connector-curvature="0" /></g><g
           id="g3622"
           transform="translate(62.7646,84.311)"><path
             d="M 0,0 -71.824,45.912"
             style="fill:none;stroke:#000000;stroke-width:0.25;stroke-linecap:round;stroke-linejoin:round;stroke-miterlimit:10;stroke-dasharray:none;stroke-opacity:1"
             id="path3624"
             inkscape:connector-curvature="0" /></g><g
           id="g3626"
           transform="translate(63.4512,81.8062)"><path
             d="M 0,0 -71.921,46.21"
             style="fill:none;stroke:#000000;stroke-width:0.25;stroke-linecap:round;stroke-linejoin:round;stroke-miterlimit:10;stroke-dasharray:none;stroke-opacity:1"
             id="path3628"
             inkscape:connector-curvature="0" /></g><g
           id="g3630"
           transform="translate(64.1372,79.3008)"><path
             d="M 0,0 -72.02,46.51"
             style="fill:none;stroke:#000000;stroke-width:0.25;stroke-linecap:round;stroke-linejoin:round;stroke-miterlimit:10;stroke-dasharray:none;stroke-opacity:1"
             id="path3632"
             inkscape:connector-curvature="0" /></g><g
           id="g3634"
           transform="translate(64.8232,76.7959)"><path
             d="M 0,0 -72.117,46.809"
             style="fill:none;stroke:#000000;stroke-width:0.25;stroke-linecap:round;stroke-linejoin:round;stroke-miterlimit:10;stroke-dasharray:none;stroke-opacity:1"
             id="path3636"
             inkscape:connector-curvature="0" /></g><g
           id="g3638"
           transform="translate(65.5098,74.291)"><path
             d="M 0,0 -72.216,47.108"
             style="fill:none;stroke:#000000;stroke-width:0.25;stroke-linecap:round;stroke-linejoin:round;stroke-miterlimit:10;stroke-dasharray:none;stroke-opacity:1"
             id="path3640"
             inkscape:connector-curvature="0" /></g><g
           id="g3642"
           transform="translate(66.1963,71.7861)"><path
             d="M 0,0 -72.314,47.407"
             style="fill:none;stroke:#000000;stroke-width:0.25;stroke-linecap:round;stroke-linejoin:round;stroke-miterlimit:10;stroke-dasharray:none;stroke-opacity:1"
             id="path3644"
             inkscape:connector-curvature="0" /></g><g
           id="g3646"
           transform="translate(66.8823,69.2813)"><path
             d="M 0,0 -72.412,47.706"
             style="fill:none;stroke:#000000;stroke-width:0.25;stroke-linecap:round;stroke-linejoin:round;stroke-miterlimit:10;stroke-dasharray:none;stroke-opacity:1"
             id="path3648"
             inkscape:connector-curvature="0" /></g><g
           id="g3650"
           transform="translate(67.5684,66.7764)"><path
             d="M 0,0 -72.51,48.005"
             style="fill:none;stroke:#000000;stroke-width:0.25;stroke-linecap:round;stroke-linejoin:round;stroke-miterlimit:10;stroke-dasharray:none;stroke-opacity:1"
             id="path3652"
             inkscape:connector-curvature="0" /></g><g
           id="g3654"
           transform="translate(68.2549,64.2715)"><path
             d="M 0,0 -72.608,48.304"
             style="fill:none;stroke:#000000;stroke-width:0.25;stroke-linecap:round;stroke-linejoin:round;stroke-miterlimit:10;stroke-dasharray:none;stroke-opacity:1"
             id="path3656"
             inkscape:connector-curvature="0" /></g><g
           id="g3658"
           transform="translate(68.9414,61.7666)"><path
             d="M 0,0 -72.706,48.603"
             style="fill:none;stroke:#000000;stroke-width:0.25;stroke-linecap:round;stroke-linejoin:round;stroke-miterlimit:10;stroke-dasharray:none;stroke-opacity:1"
             id="path3660"
             inkscape:connector-curvature="0" /></g><g
           id="g3662"
           transform="translate(69.6274,59.2617)"><path
             d="M 0,0 -72.804,48.902"
             style="fill:none;stroke:#000000;stroke-width:0.25;stroke-linecap:round;stroke-linejoin:round;stroke-miterlimit:10;stroke-dasharray:none;stroke-opacity:1"
             id="path3664"
             inkscape:connector-curvature="0" /></g><g
           id="g3666"
           transform="translate(70.3135,56.7568)"><path
             d="M 0,0 -72.901,49.201"
             style="fill:none;stroke:#000000;stroke-width:0.25;stroke-linecap:round;stroke-linejoin:round;stroke-miterlimit:10;stroke-dasharray:none;stroke-opacity:1"
             id="path3668"
             inkscape:connector-curvature="0" /></g><g
           id="g3670"
           transform="translate(71,54.252)"><path
             d="M 0,0 -73,49.5"
             style="fill:none;stroke:#000000;stroke-width:0.25;stroke-linecap:round;stroke-linejoin:round;stroke-miterlimit:10;stroke-dasharray:none;stroke-opacity:1"
             id="path3672"
             inkscape:connector-curvature="0" /></g><g
           id="g3674"
           transform="translate(67,56.002)"><path
             d="M 0,0 -37.5,132.25"
             style="fill:none;stroke:#ffffff;stroke-width:2;stroke-linecap:round;stroke-linejoin:round;stroke-miterlimit:10;stroke-dasharray:none;stroke-opacity:1"
             id="path3676"
             inkscape:connector-curvature="0" /></g><g
           id="g3678"
           transform="translate(59.8613,60.8359)"><path
             d="M 0,0 -37.5,132.25"
             style="fill:none;stroke:#ffffff;stroke-width:2;stroke-linecap:round;stroke-linejoin:round;stroke-miterlimit:10;stroke-dasharray:none;stroke-opacity:1"
             id="path3680"
             inkscape:connector-curvature="0" /></g><g
           id="g3682"
           transform="translate(52.7222,65.6689)"><path
             d="M 0,0 -37.5,132.25"
             style="fill:none;stroke:#ffffff;stroke-width:2;stroke-linecap:round;stroke-linejoin:round;stroke-miterlimit:10;stroke-dasharray:none;stroke-opacity:1"
             id="path3684"
             inkscape:connector-curvature="0" /></g><g
           id="g3686"
           transform="translate(45.5835,70.502)"><path
             d="M 0,0 -37.5,132.25"
             style="fill:none;stroke:#ffffff;stroke-width:2;stroke-linecap:round;stroke-linejoin:round;stroke-miterlimit:10;stroke-dasharray:none;stroke-opacity:1"
             id="path3688"
             inkscape:connector-curvature="0" /></g><g
           id="g3690"
           transform="translate(38.4443,75.335)"><path
             d="M 0,0 -37.5,132.25"
             style="fill:none;stroke:#ffffff;stroke-width:2;stroke-linecap:round;stroke-linejoin:round;stroke-miterlimit:10;stroke-dasharray:none;stroke-opacity:1"
             id="path3692"
             inkscape:connector-curvature="0" /></g><g
           id="g3694"
           transform="translate(31.3057,80.168)"><path
             d="M 0,0 -37.5,132.251"
             style="fill:none;stroke:#ffffff;stroke-width:2;stroke-linecap:round;stroke-linejoin:round;stroke-miterlimit:10;stroke-dasharray:none;stroke-opacity:1"
             id="path3696"
             inkscape:connector-curvature="0" /></g><g
           id="g3698"
           transform="translate(24.167,85.002)"><path
             d="M 0,0 -37.5,132.25"
             style="fill:none;stroke:#ffffff;stroke-width:2;stroke-linecap:round;stroke-linejoin:round;stroke-miterlimit:10;stroke-dasharray:none;stroke-opacity:1"
             id="path3700"
             inkscape:connector-curvature="0" /></g><g
           id="g3702"
           transform="translate(17.0278,89.835)"><path
             d="M 0,0 -37.5,132.25"
             style="fill:none;stroke:#ffffff;stroke-width:2;stroke-linecap:round;stroke-linejoin:round;stroke-miterlimit:10;stroke-dasharray:none;stroke-opacity:1"
             id="path3704"
             inkscape:connector-curvature="0" /></g><g
           id="g3706"
           transform="translate(9.8887,94.6685)"><path
             d="M 0,0 -37.5,132.25"
             style="fill:none;stroke:#ffffff;stroke-width:2;stroke-linecap:round;stroke-linejoin:round;stroke-miterlimit:10;stroke-dasharray:none;stroke-opacity:1"
             id="path3708"
             inkscape:connector-curvature="0" /></g><g
           id="g3710"
           transform="translate(2.75,99.502)"><path
             d="M 0,0 -37.5,132.25"
             style="fill:none;stroke:#ffffff;stroke-width:2;stroke-linecap:round;stroke-linejoin:round;stroke-miterlimit:10;stroke-dasharray:none;stroke-opacity:1"
             id="path3712"
             inkscape:connector-curvature="0" /></g><g
           id="g3714"
           transform="translate(142.0396,117.1182)"><path
             d="m 0,0 c -2.449,-3.283 -7.272,-6.102 -13.164,-7.292 -9.26,-1.873 -17.65,0.984 -18.743,6.381"
             style="fill:none;stroke:#000000;stroke-width:0.5;stroke-linecap:round;stroke-linejoin:round;stroke-miterlimit:10;stroke-dasharray:none;stroke-opacity:1"
             id="path3716"
             inkscape:connector-curvature="0" /></g><g
           id="g3718"
           transform="translate(140.3848,127.4551)"><path
             d="M 0,0 C -3.495,2.31 -9.285,3.165 -15.461,1.916 -24.722,0.043 -31.343,-5.85 -30.252,-11.248 l 1.622,-8.109 c 1.092,-5.397 9.483,-8.254 18.743,-6.382 5.788,1.171 10.544,3.911 13.032,7.12"
             style="fill:none;stroke:#000000;stroke-width:1;stroke-linecap:round;stroke-linejoin:round;stroke-miterlimit:10;stroke-dasharray:none;stroke-opacity:1"
             id="path3720"
             inkscape:connector-curvature="0" /></g><g
           id="g3722"
           transform="translate(135.9893,122.0278)"><path
             d="m 0,0 c 0.598,-2.957 -3.029,-6.185 -8.102,-7.211 -5.073,-1.026 -9.67,0.539 -10.269,3.496"
             style="fill:none;stroke:#000000;stroke-width:1;stroke-linecap:round;stroke-linejoin:round;stroke-miterlimit:10;stroke-dasharray:none;stroke-opacity:1"
             id="path3724"
             inkscape:connector-curvature="0" /></g><g
           id="g3726"
           transform="translate(130.7334,128.1465)"><path
             d="m 0,0 c 0.109,-0.173 0.186,-0.36 0.226,-0.56 0.322,-1.594 -1.81,-3.37 -4.763,-3.967 -2.952,-0.598 -5.608,0.211 -5.93,1.805 -0.025,0.123 -0.035,0.247 -0.032,0.371"
             style="fill:none;stroke:#000000;stroke-width:0.5;stroke-linecap:round;stroke-linejoin:round;stroke-miterlimit:10;stroke-dasharray:none;stroke-opacity:1"
             id="path3728"
             inkscape:connector-curvature="0" /></g><g
           id="g3730"
           transform="translate(119.9111,115.7793)"><path
             d="m 0,0 0.324,10.017 c 0.043,1.489 2.069,3.045 4.794,3.596 2.584,0.522 4.939,-0.031 5.704,-1.246 l 5.015,-8.265"
             style="fill:none;stroke:#000000;stroke-width:1;stroke-linecap:round;stroke-linejoin:round;stroke-miterlimit:10;stroke-dasharray:none;stroke-opacity:1"
             id="path3732"
             inkscape:connector-curvature="0" /></g><g
           id="g3734"
           transform="translate(128.4282,127.0752)"><path
             d="m 0,0 c 0.169,-0.839 -0.953,-1.775 -2.508,-2.089 -1.554,-0.315 -2.953,0.111 -3.122,0.95"
             style="fill:none;stroke:#000000;stroke-width:1;stroke-linecap:round;stroke-linejoin:round;stroke-miterlimit:10;stroke-dasharray:none;stroke-opacity:1"
             id="path3736"
             inkscape:connector-curvature="0" /></g><g
           id="g3738"
           transform="translate(122.7979,125.9365)"><path
             d="M 0,0 C -0.17,0.839 0.953,1.775 2.508,2.089 4.062,2.404 5.46,1.979 5.63,1.139"
             style="fill:none;stroke:#000000;stroke-width:0.5;stroke-linecap:round;stroke-linejoin:round;stroke-miterlimit:10;stroke-dasharray:none;stroke-opacity:1"
             id="path3740"
             inkscape:connector-curvature="0" /></g><g
           id="g3742"
           transform="translate(132.5332,125.2695)"><path
             d="M 0,0 C 1.858,-0.633 3.157,-1.763 3.456,-3.242"
             style="fill:none;stroke:#000000;stroke-width:0.5;stroke-linecap:round;stroke-linejoin:round;stroke-miterlimit:10;stroke-dasharray:none;stroke-opacity:1"
             id="path3744"
             inkscape:connector-curvature="0" /></g><g
           id="g3746"
           transform="translate(117.6187,118.313)"><path
             d="M 0,0 C -0.326,1.611 0.604,3.303 2.337,4.675"
             style="fill:none;stroke:#000000;stroke-width:0.5;stroke-linecap:round;stroke-linejoin:round;stroke-miterlimit:10;stroke-dasharray:none;stroke-opacity:1"
             id="path3748"
             inkscape:connector-curvature="0" /></g><g
           id="g3750"
           transform="translate(102.7383,116.8286)"><path
             d="M 0,0 9.827,6.106"
             style="fill:none;stroke:#000000;stroke-width:0.5;stroke-linecap:round;stroke-linejoin:round;stroke-miterlimit:10;stroke-dasharray:none;stroke-opacity:1"
             id="path3752"
             inkscape:connector-curvature="0" /></g><g
           id="g3754"
           transform="translate(112.374,86.7764)"><path
             d="M 0,0 31.197,19.939"
             style="fill:none;stroke:#000000;stroke-width:0.25;stroke-linecap:round;stroke-linejoin:round;stroke-miterlimit:10;stroke-dasharray:none;stroke-opacity:1"
             id="path3756"
             inkscape:connector-curvature="0" /></g><g
           id="g3758"
           transform="translate(145.6699,96.2212)"><path
             d="M 0,0 -26.904,-18.985"
             style="fill:none;stroke:#000000;stroke-width:0.5;stroke-linecap:round;stroke-linejoin:round;stroke-miterlimit:10;stroke-dasharray:none;stroke-opacity:1"
             id="path3760"
             inkscape:connector-curvature="0" /></g><g
           id="g3762"
           transform="translate(117.75,62.127)"><path
             d="m 0,0 c 0,0 13.625,-18.125 15.75,-20.75 2.125,-2.625 3.5,-3.625 6.375,-5.25 2.875,-1.625 9.5,-6.625 11.625,-7.75 2.125,-1.125 2.5,-2.75 2.625,-5.5 0.125,-2.75 4.5,-6.375 4.5,-6.375"
             style="fill:none;stroke:#000000;stroke-width:1;stroke-linecap:round;stroke-linejoin:round;stroke-miterlimit:10;stroke-dasharray:none;stroke-opacity:1"
             id="path3764"
             inkscape:connector-curvature="0" /></g><g
           id="g3766"
           transform="translate(146.125,91.377)"><path
             d="M 0,0 C 0,0 -6.5,-3.75 -10.25,-6 -14,-8.25 -17.5,-19.375 -9.375,-24.875 -1.25,-30.375 3.75,-33.25 3.75,-33.25 l 1.375,0.875"
             style="fill:none;stroke:#000000;stroke-width:1;stroke-linecap:round;stroke-linejoin:round;stroke-miterlimit:10;stroke-dasharray:none;stroke-opacity:1"
             id="path3768"
             inkscape:connector-curvature="0" /></g><g
           id="g3770"
           transform="translate(145.625,94.377)"><path
             d="M 0,0 C 0,0 -4,-2.5 -10.375,-5.75 -16.75,-9 -21.5,-24.125 -11.125,-31 c 10.375,-6.875 13.5,-9.125 13.5,-9.125"
             style="fill:none;stroke:#000000;stroke-width:0.5;stroke-linecap:round;stroke-linejoin:round;stroke-miterlimit:10;stroke-dasharray:none;stroke-opacity:1"
             id="path3772"
             inkscape:connector-curvature="0" /></g><g
           id="g3774"
           transform="translate(149.75,57.502)"><path
             d="m 0,0 c 0,0 -1.875,-2.875 -1.875,-5 0,-2.125 0.5,-4.5 1.125,-9.875 0.625,-5.375 -0.125,-4.375 0.75,-7.25 0.875,-2.875 1,-5.75 2.5,-7.75"
             style="fill:none;stroke:#000000;stroke-width:0.5;stroke-linecap:round;stroke-linejoin:round;stroke-miterlimit:10;stroke-dasharray:none;stroke-opacity:1"
             id="path3776"
             inkscape:connector-curvature="0" /></g></g></g><text
       transform="matrix(1,0,0,-1,2.5723,2.9971)"
       style="font-variant:normal;font-weight:normal;font-stretch:normal;font-size:4px;font-family:'Swiss 721 SWA';-inkscape-font-specification:Helvetica;writing-mode:lr-tb;fill:#231f20;fill-opacity:1;fill-rule:nonzero;stroke:none"
       id="text3778"><tspan
         x="0 2 2.888 5.112"
         y="0"
         sodipodi:role="line"
         id="tspan3780">cjeq</tspan></text>
<g
       id="g3782"
       transform="translate(135.856,25.334)"><path
         d="M 0,0 33.333,33.334"
         style="fill:none;stroke:#ffffff;stroke-width:3;stroke-linecap:round;stroke-linejoin:miter;stroke-miterlimit:4;stroke-dasharray:none;stroke-opacity:1"
         id="path3784"
         inkscape:connector-curvature="0" /></g><g
       id="g3786"
       transform="translate(169.1895,58.668)"><path
         d="M 0,0 0,0"
         style="fill:none;stroke:#ffffff;stroke-width:3.75;stroke-linecap:round;stroke-linejoin:miter;stroke-miterlimit:4;stroke-dasharray:none;stroke-opacity:1"
         id="path3788"
         inkscape:connector-curvature="0" /></g><g
       id="g3790"
       transform="translate(135.856,25.334)"><path
         d="M 0,0 33.333,33.334"
         style="fill:none;stroke:#211f1f;stroke-width:0.5;stroke-linecap:round;stroke-linejoin:miter;stroke-miterlimit:4;stroke-dasharray:none;stroke-opacity:1"
         id="path3792"
         inkscape:connector-curvature="0" /></g><g
       id="g3794"
       transform="translate(169.1895,58.668)"><path
         d="M 0,0 0,0"
         style="fill:none;stroke:#211f1f;stroke-width:1.5;stroke-linecap:round;stroke-linejoin:miter;stroke-miterlimit:4;stroke-dasharray:none;stroke-opacity:1"
         id="path3796"
         inkscape:connector-curvature="0" /></g><text
       transform="matrix(1,0,0,-1,129.3267,17.1445)"
       style="font-variant:normal;font-weight:bold;font-stretch:normal;font-size:10px;font-family:'Swiss 721 SWA';-inkscape-font-specification:Helvetica-Bold;writing-mode:lr-tb;fill:#231f20;fill-opacity:1;fill-rule:nonzero;stroke:none"
       id="text3798"><tspan
         x="0"
         y="0"
         id="tspan3800">2</tspan></text>
<g
       id="g3802"
       transform="translate(118.1895,152.6689)"><path
         d="M 0,0 6,-23"
         style="fill:none;stroke:#ffffff;stroke-width:3;stroke-linecap:round;stroke-linejoin:miter;stroke-miterlimit:4;stroke-dasharray:none;stroke-opacity:1"
         id="path3804"
         inkscape:connector-curvature="0" /></g><g
       id="g3806"
       transform="translate(124.1895,129.6689)"><path
         d="M 0,0 0,0"
         style="fill:none;stroke:#ffffff;stroke-width:3.75;stroke-linecap:round;stroke-linejoin:miter;stroke-miterlimit:4;stroke-dasharray:none;stroke-opacity:1"
         id="path3808"
         inkscape:connector-curvature="0" /></g><g
       id="g3810"
       transform="translate(118.1895,152.6689)"><path
         d="M 0,0 6,-23"
         style="fill:none;stroke:#211f1f;stroke-width:0.5;stroke-linecap:round;stroke-linejoin:miter;stroke-miterlimit:4;stroke-dasharray:none;stroke-opacity:1"
         id="path3812"
         inkscape:connector-curvature="0" /></g><g
       id="g3814"
       transform="translate(124.1895,129.6689)"><path
         d="M 0,0 0,0"
         style="fill:none;stroke:#211f1f;stroke-width:1.5;stroke-linecap:round;stroke-linejoin:miter;stroke-miterlimit:4;stroke-dasharray:none;stroke-opacity:1"
         id="path3816"
         inkscape:connector-curvature="0" /></g><text
       transform="matrix(1,0,0,-1,114.9937,155.146)"
       style="font-variant:normal;font-weight:bold;font-stretch:normal;font-size:10px;font-family:'Swiss 721 SWA';-inkscape-font-specification:Helvetica-Bold;writing-mode:lr-tb;fill:#231f20;fill-opacity:1;fill-rule:nonzero;stroke:none"
       id="text3818"><tspan
         x="0"
         y="0"
         id="tspan3820">1</tspan></text>
</g></svg>