<?xml version="1.0" encoding="UTF-8" standalone="no"?>
<!-- Created with Inkscape (http://www.inkscape.org/) -->

<svg
   xmlns:dc="http://purl.org/dc/elements/1.1/"
   xmlns:cc="http://creativecommons.org/ns#"
   xmlns:rdf="http://www.w3.org/1999/02/22-rdf-syntax-ns#"
   xmlns:svg="http://www.w3.org/2000/svg"
   xmlns="http://www.w3.org/2000/svg"
   xmlns:sodipodi="http://sodipodi.sourceforge.net/DTD/sodipodi-0.dtd"
   xmlns:inkscape="http://www.inkscape.org/namespaces/inkscape"
   id="svg25498"
   version="1.1"
   inkscape:version="0.91 r13725"
   xml:space="preserve"
   width="301.18124"
   height="230.315"
   viewBox="0 0 301.18124 230.315"
   sodipodi:docname="ciuz.svg"><metadata
     id="metadata25504"><rdf:RDF><cc:Work
         rdf:about=""><dc:format>image/svg+xml</dc:format><dc:type
           rdf:resource="http://purl.org/dc/dcmitype/StillImage" /><dc:title></dc:title></cc:Work></rdf:RDF></metadata><defs
     id="defs25502"><clipPath
       clipPathUnits="userSpaceOnUse"
       id="clipPath25512"><path
         d="M 0,184.252 0,6.805 l 10.308,0 0,-6.805 230.637,0 0,184.252 -240.945,0 z"
         id="path25514"
         inkscape:connector-curvature="0" /></clipPath></defs><sodipodi:namedview
     pagecolor="#ffffff"
     bordercolor="#666666"
     borderopacity="1"
     objecttolerance="10"
     gridtolerance="10"
     guidetolerance="10"
     inkscape:pageopacity="0"
     inkscape:pageshadow="2"
     inkscape:window-width="640"
     inkscape:window-height="480"
     id="namedview25500"
     showgrid="false"
     inkscape:zoom="3.3779823"
     inkscape:cx="150.59062"
     inkscape:cy="115.1575"
     inkscape:window-x="0"
     inkscape:window-y="0"
     inkscape:window-maximized="1"
     inkscape:current-layer="g25506" /><g
     id="g25506"
     inkscape:groupmode="layer"
     inkscape:label="ciuz"
     transform="matrix(1.25,0,0,-1.25,0,230.315)"><g
       id="g25508"><g
         id="g25510"
         clip-path="url(#clipPath25512)"><g
           id="g25516"
           transform="translate(162.582,87.8857)"><path
             d="m 0,0 c 0,-6.417 -5.202,-11.62 -11.619,-11.62 -6.417,0 -11.619,5.203 -11.619,11.62 0,6.417 5.202,11.62 11.619,11.62 C -5.202,11.62 0,6.417 0,0 Z"
             style="fill:none;stroke:#000000;stroke-width:0.5;stroke-linecap:round;stroke-linejoin:round;stroke-miterlimit:10;stroke-dasharray:none;stroke-opacity:1"
             id="path25518"
             inkscape:connector-curvature="0" /></g><g
           id="g25520"
           transform="translate(227.9971,103.0278)"><path
             d="m 0,0 c 0,-7.766 -6.296,-14.062 -14.062,-14.062 -7.765,0 -14.061,6.296 -14.061,14.062 0,7.767 6.296,14.063 14.061,14.063 C -6.296,14.063 0,7.767 0,0 Z"
             style="fill:none;stroke:#000000;stroke-width:0.5;stroke-linecap:round;stroke-linejoin:round;stroke-miterlimit:10;stroke-dasharray:none;stroke-opacity:1"
             id="path25522"
             inkscape:connector-curvature="0" /></g><g
           id="g25524"
           transform="translate(222.9307,103.0283)"><path
             d="m 0,0 c 0,-4.968 -4.028,-8.995 -8.995,-8.995 -4.968,0 -8.995,4.027 -8.995,8.995 0,4.968 4.027,8.996 8.995,8.996 C -4.028,8.996 0,4.968 0,0 Z"
             style="fill:none;stroke:#000000;stroke-width:0.25;stroke-linecap:round;stroke-linejoin:round;stroke-miterlimit:10;stroke-dasharray:none;stroke-opacity:1"
             id="path25526"
             inkscape:connector-curvature="0" /></g><g
           id="g25528"
           transform="translate(197.8457,93.5205)"><path
             d="m 0,0 c -1.65,2.786 -2.598,6.036 -2.598,9.508 0,10.322 8.368,18.687 18.688,18.687 10.316,0 18.685,-8.365 18.685,-18.687 0,-10.319 -8.369,-18.686 -18.685,-18.686 -5.196,0 -9.898,2.12 -13.285,5.545"
             style="fill:none;stroke:#000000;stroke-width:0.25;stroke-linecap:round;stroke-linejoin:round;stroke-miterlimit:10;stroke-dasharray:none;stroke-opacity:1"
             id="path25530"
             inkscape:connector-curvature="0" /></g><g
           id="g25532"
           transform="translate(167.918,87.8857)"><path
             d="m 0,0 c 0,-9.363 -7.591,-16.956 -16.955,-16.956 -9.363,0 -16.954,7.593 -16.954,16.956 0,9.364 7.591,16.956 16.954,16.956 C -7.591,16.956 0,9.364 0,0 Z"
             style="fill:none;stroke:#000000;stroke-width:0.5;stroke-linecap:round;stroke-linejoin:round;stroke-miterlimit:10;stroke-dasharray:none;stroke-opacity:1"
             id="path25534"
             inkscape:connector-curvature="0" /></g><g
           id="g25536"
           transform="translate(131.457,74.6367)"><path
             d="m 0,0 c -2.569,3.777 -4.071,8.338 -4.071,13.249 0,13.022 10.556,23.58 23.577,23.58 5.18,0 9.969,-1.67 13.858,-4.5"
             style="fill:none;stroke:#000000;stroke-width:0.5;stroke-linecap:round;stroke-linejoin:round;stroke-miterlimit:10;stroke-dasharray:none;stroke-opacity:1"
             id="path25538"
             inkscape:connector-curvature="0" /></g><g
           id="g25540"
           transform="translate(167.3799,104.8125)"><path
             d="m 0,0 c 4.417,-4.287 7.162,-10.286 7.162,-16.927 0,-13.021 -10.557,-23.58 -23.579,-23.58 -6.51,0 -12.404,2.64 -16.671,6.907"
             style="fill:none;stroke:#000000;stroke-width:0.5;stroke-linecap:round;stroke-linejoin:round;stroke-miterlimit:10;stroke-dasharray:none;stroke-opacity:1"
             id="path25542"
             inkscape:connector-curvature="0" /></g><g
           id="g25544"
           transform="translate(125.8955,71.4258)"><path
             d="m 0,0 c -3.108,4.726 -4.916,10.382 -4.916,16.46 0,16.561 13.425,29.987 29.983,29.987 6.726,0 12.934,-2.215 17.935,-5.952"
             style="fill:none;stroke:#000000;stroke-width:0.5;stroke-linecap:round;stroke-linejoin:round;stroke-miterlimit:10;stroke-dasharray:none;stroke-opacity:1"
             id="path25546"
             inkscape:connector-curvature="0" /></g><g
           id="g25548"
           transform="translate(171.3818,109.8467)"><path
             d="m 0,0 c 5.886,-5.476 9.567,-13.288 9.567,-21.961 0,-16.56 -13.424,-29.988 -29.986,-29.988 -7.939,0 -15.159,3.087 -20.523,8.126"
             style="fill:none;stroke:#000000;stroke-width:0.5;stroke-linecap:round;stroke-linejoin:round;stroke-miterlimit:10;stroke-dasharray:none;stroke-opacity:1"
             id="path25550"
             inkscape:connector-curvature="0" /></g><g
           id="g25552"
           transform="translate(166.2695,87.8857)"><path
             d="m 0,0 -2.176,-1.148 1.944,-1.51 -2.342,-0.753 1.651,-1.824 -2.437,-0.335 1.309,-2.083 -2.459,0.092 0.929,-2.278 -2.405,0.519 0.518,-2.406 -2.278,0.929 0.093,-2.459 -2.083,1.31 -0.335,-2.438 -1.825,1.653 -0.752,-2.343 -1.51,1.943 -1.149,-2.176 -1.148,2.176 -1.51,-1.943 -0.754,2.343 -1.823,-1.653 -0.335,2.438 -2.083,-1.31 0.093,2.459 -2.279,-0.929 0.519,2.406 -2.405,-0.519 0.928,2.278 -2.459,-0.092 1.31,2.083 -2.437,0.335 1.651,1.824 -2.342,0.753 1.943,1.51 -2.175,1.148 2.175,1.149 -1.943,1.509 2.342,0.754 -1.651,1.823 2.437,0.336 -1.31,2.083 2.459,-0.093 -0.928,2.278 2.405,-0.518 -0.519,2.405 2.279,-0.929 -0.093,2.459 2.083,-1.31 0.335,2.438 1.824,-1.652 0.753,2.343 1.51,-1.944 1.148,2.176 1.149,-2.176 1.51,1.944 0.753,-2.343 1.824,1.652 0.335,-2.438 2.083,1.31 -0.093,-2.459 2.278,0.929 L -5.986,9.32 -3.581,9.839 -4.509,7.561 -2.05,7.653 -3.36,5.571 -0.923,5.235 -2.574,3.412 -0.232,2.658 -2.176,1.149 0,0 Z"
             style="fill:none;stroke:#000000;stroke-width:1;stroke-linecap:round;stroke-linejoin:round;stroke-miterlimit:10;stroke-dasharray:none;stroke-opacity:1"
             id="path25554"
             inkscape:connector-curvature="0" /></g><g
           id="g25556"
           transform="translate(207.7471,92.5127)"><path
             d="M 0,0 -5.975,10.349 0,20.697 l 11.949,0 L 17.924,10.349 11.949,0 0,0 Z"
             style="fill:none;stroke:#000000;stroke-width:0.5;stroke-linecap:round;stroke-linejoin:round;stroke-miterlimit:10;stroke-dasharray:none;stroke-opacity:1"
             id="path25558"
             inkscape:connector-curvature="0" /></g><g
           id="g25560"
           transform="translate(108.6055,93.3765)"><path
             d="m 0,0 c 0,-7.765 -6.296,-14.062 -14.062,-14.062 -7.765,0 -14.061,6.297 -14.061,14.062 0,7.767 6.296,14.063 14.061,14.063 C -6.296,14.063 0,7.767 0,0 Z"
             style="fill:none;stroke:#000000;stroke-width:0.5;stroke-linecap:round;stroke-linejoin:round;stroke-miterlimit:10;stroke-dasharray:none;stroke-opacity:1"
             id="path25562"
             inkscape:connector-curvature="0" /></g><g
           id="g25564"
           transform="translate(103.5391,93.377)"><path
             d="m 0,0 c 0,-4.968 -4.028,-8.995 -8.995,-8.995 -4.968,0 -8.995,4.027 -8.995,8.995 0,4.968 4.027,8.996 8.995,8.996 C -4.028,8.996 0,4.968 0,0 Z"
             style="fill:none;stroke:#000000;stroke-width:0.25;stroke-linecap:round;stroke-linejoin:round;stroke-miterlimit:10;stroke-dasharray:none;stroke-opacity:1"
             id="path25566"
             inkscape:connector-curvature="0" /></g><g
           id="g25568"
           transform="translate(113.2295,93.377)"><path
             d="m 0,0 c 0,-10.318 -8.369,-18.686 -18.686,-18.686 -10.32,0 -18.687,8.368 -18.687,18.686 0,10.322 8.367,18.688 18.687,18.688 C -8.369,18.688 0,10.322 0,0 Z"
             style="fill:none;stroke:#000000;stroke-width:0.25;stroke-linecap:round;stroke-linejoin:round;stroke-miterlimit:10;stroke-dasharray:none;stroke-opacity:1"
             id="path25570"
             inkscape:connector-curvature="0" /></g><g
           id="g25572"
           transform="translate(88.3555,82.8613)"><path
             d="M 0,0 -5.975,10.349 0,20.697 l 11.949,0 L 17.924,10.349 11.949,0 0,0 Z"
             style="fill:none;stroke:#000000;stroke-width:0.5;stroke-linecap:round;stroke-linejoin:round;stroke-miterlimit:10;stroke-dasharray:none;stroke-opacity:1"
             id="path25574"
             inkscape:connector-curvature="0" /></g><g
           id="g25576"
           transform="translate(76.8047,-7.6387)"><path
             d="m 0,0 c 13.5,5.75 22.5,6.5 40.5,24.75 14.676,14.879 30.349,32.75 35.637,38.844 1.101,1.268 2.6,2.128 4.252,2.433 3,0.556 8.444,2.223 14.111,7.223 6.919,6.105 9.034,15.357 9.582,18.588 0.136,0.805 0.454,1.555 0.936,2.214 l 10.83,14.841 c 1.076,1.475 0.847,3.529 -0.529,4.73 L 101.091,126.051 84.2,105.222"
             style="fill:none;stroke:#000000;stroke-width:1;stroke-linecap:round;stroke-linejoin:round;stroke-miterlimit:10;stroke-dasharray:none;stroke-opacity:1"
             id="path25578"
             inkscape:connector-curvature="0" /></g><g
           id="g25580"
           transform="translate(-9.1953,25.3613)"><path
             d="m 0,0 c 0,0 15,0.75 35.75,2.25 20.75,1.5 39.5,8 59.25,28.25 16.948,17.377 31.135,34.386 34.819,38.862 0.576,0.7 1.048,1.497 1.383,2.339 0.877,2.205 3.003,7.007 6.141,10.61 3.026,3.474 6.06,5.485 7.789,6.456 1.07,0.602 2.02,1.369 2.839,2.285 l 15.941,17.832 c 1.293,1.447 3.512,1.575 4.963,0.288 L 185.011,94.867 167.836,73.601"
             style="fill:none;stroke:#000000;stroke-width:1;stroke-linecap:round;stroke-linejoin:round;stroke-miterlimit:10;stroke-dasharray:none;stroke-opacity:1"
             id="path25582"
             inkscape:connector-curvature="0" /></g><g
           id="g25584"
           transform="translate(193.3047,101.8613)"><path
             d="M 0,0 2.181,-1.922 -13.685,-23.386"
             style="fill:none;stroke:#000000;stroke-width:1;stroke-linecap:round;stroke-linejoin:round;stroke-miterlimit:10;stroke-dasharray:none;stroke-opacity:1"
             id="path25586"
             inkscape:connector-curvature="0" /></g><g
           id="g25588"
           transform="translate(193.3105,96.8936)"><path
             d="m 0,0 7.485,-6.008 -13.198,-17.04 -6.599,5.516"
             style="fill:none;stroke:#000000;stroke-width:1;stroke-linecap:round;stroke-linejoin:round;stroke-miterlimit:10;stroke-dasharray:none;stroke-opacity:1"
             id="path25590"
             inkscape:connector-curvature="0" /></g><g
           id="g25592"
           transform="translate(187.6963,88.7188)"><path
             d="m 0,0 5.122,-4.531 c 0,0 5.416,1.281 6.401,7.584"
             style="fill:none;stroke:#000000;stroke-width:0.5;stroke-linecap:round;stroke-linejoin:round;stroke-miterlimit:10;stroke-dasharray:none;stroke-opacity:1"
             id="path25594"
             inkscape:connector-curvature="0" /></g><g
           id="g25596"
           transform="translate(192.8184,84.1875)"><path
             d="M 0,0 C 0,0 -0.1,-6.697 -6.6,-8.864"
             style="fill:none;stroke:#000000;stroke-width:0.5;stroke-linecap:round;stroke-linejoin:round;stroke-miterlimit:10;stroke-dasharray:none;stroke-opacity:1"
             id="path25598"
             inkscape:connector-curvature="0" /></g><g
           id="g25600"
           transform="translate(-4.6953,9.6113)"><path
             d="M 0,0 C 0,0 21,0.75 41.5,1.25 62,1.75 88.75,14 103,29.5 c 14.25,15.5 27.5,31.25 29.5,34.25 2,3 8.5,-0.5 5.25,-4 -3.25,-3.5 -18,-21 -29.25,-34.25 -11.25,-13.25 -33,-30 -66.75,-31 -33.75,-1 -46,-1.75 -46,-1.75"
             style="fill:none;stroke:#000000;stroke-width:0.5;stroke-linecap:round;stroke-linejoin:round;stroke-miterlimit:10;stroke-dasharray:none;stroke-opacity:1"
             id="path25602"
             inkscape:connector-curvature="0" /></g><g
           id="g25604"
           transform="translate(19.3047,112.8613)"><path
             d="m 0,0 67.25,0 c 6.75,0 11.5,1.75 14.5,10.5 3,8.75 13.5,27.75 45.5,32.25 32,4.5 50,-15 54.75,-24.25"
             style="fill:none;stroke:#000000;stroke-width:0.5;stroke-linecap:round;stroke-linejoin:round;stroke-miterlimit:10;stroke-dasharray:none;stroke-opacity:1"
             id="path25606"
             inkscape:connector-curvature="0" /></g><g
           id="g25608"
           transform="translate(20.8047,114.1113)"><path
             d="M 0,0 1,77.75"
             style="fill:none;stroke:#000000;stroke-width:0.25;stroke-linecap:round;stroke-linejoin:round;stroke-miterlimit:10;stroke-dasharray:none;stroke-opacity:1"
             id="path25610"
             inkscape:connector-curvature="0" /></g><g
           id="g25612"
           transform="translate(26.3047,114.6113)"><path
             d="M 0,0 1,77.75"
             style="fill:none;stroke:#000000;stroke-width:0.25;stroke-linecap:round;stroke-linejoin:round;stroke-miterlimit:10;stroke-dasharray:none;stroke-opacity:1"
             id="path25614"
             inkscape:connector-curvature="0" /></g><g
           id="g25616"
           transform="translate(86.0547,115.1113)"><path
             d="M 0,0 -7.25,77.75"
             style="fill:none;stroke:#000000;stroke-width:0.25;stroke-linecap:round;stroke-linejoin:round;stroke-miterlimit:10;stroke-dasharray:none;stroke-opacity:1"
             id="path25618"
             inkscape:connector-curvature="0" /></g><g
           id="g25620"
           transform="translate(80.0547,115.1113)"><path
             d="M 0,0 -7.25,77.75"
             style="fill:none;stroke:#000000;stroke-width:0.25;stroke-linecap:round;stroke-linejoin:round;stroke-miterlimit:10;stroke-dasharray:none;stroke-opacity:1"
             id="path25622"
             inkscape:connector-curvature="0" /></g><path
           d="m 74.805,98.611 -45.75,0 0,7 45.75,0 0,-7 z"
           style="fill:none;stroke:#000000;stroke-width:0.5;stroke-linecap:round;stroke-linejoin:round;stroke-miterlimit:10;stroke-dasharray:none;stroke-opacity:1"
           id="path25624"
           inkscape:connector-curvature="0" /><path
           d="m 67.093,105.611 -30.327,0 0,7 30.327,0 0,-7 z"
           style="fill:none;stroke:#000000;stroke-width:0.5;stroke-linecap:round;stroke-linejoin:round;stroke-miterlimit:10;stroke-dasharray:none;stroke-opacity:1"
           id="path25626"
           inkscape:connector-curvature="0" /><g
           id="g25628"
           transform="translate(29.0547,98.6113)"><path
             d="m 0,0 6,-56 32.039,0 7.711,56"
             style="fill:none;stroke:#000000;stroke-width:0.5;stroke-linecap:round;stroke-linejoin:round;stroke-miterlimit:10;stroke-dasharray:none;stroke-opacity:1"
             id="path25630"
             inkscape:connector-curvature="0" /></g><g
           id="g25632"
           transform="translate(33.5542,56.6113)"><path
             d="m 0,0 -19,0 c -1.792,0 -3.25,-1.458 -3.25,-3.25 l 0,-13 c 0,-1.792 1.458,-3.25 3.25,-3.25 l 11.75,0 c 1.792,0 3.25,1.458 3.25,3.25 0,3.385 2.05,6.301 4.973,7.571"
             style="fill:none;stroke:#000000;stroke-width:0.5;stroke-linecap:round;stroke-linejoin:round;stroke-miterlimit:10;stroke-dasharray:none;stroke-opacity:1"
             id="path25634"
             inkscape:connector-curvature="0" /></g><g
           id="g25636"
           transform="translate(35.1436,42.2246)"><path
             d="m 0,0 c -0.371,-0.527 -0.589,-1.17 -0.589,-1.863 0,-4.549 -3.701,-8.25 -8.25,-8.25 l -11.75,0 c -4.549,0 -8.25,3.701 -8.25,8.25 l 0,13 c 0,4.549 3.701,8.25 8.25,8.25 l 18.25,0"
             style="fill:none;stroke:#000000;stroke-width:0.5;stroke-linecap:round;stroke-linejoin:round;stroke-miterlimit:10;stroke-dasharray:none;stroke-opacity:1"
             id="path25638"
             inkscape:connector-curvature="0" /></g><path
           d="m 21.555,39.542 -10.25,0 0,14.25 10.25,0 0,-14.25 z"
           style="fill:none;stroke:#000000;stroke-width:0.5;stroke-linecap:round;stroke-linejoin:round;stroke-miterlimit:10;stroke-dasharray:none;stroke-opacity:1"
           id="path25640"
           inkscape:connector-curvature="0" /><path
           d="m 6.305,42.119 -10.25,0 0,9.096 10.25,0 0,-9.096 z"
           style="fill:none;stroke:#000000;stroke-width:0.5;stroke-linecap:round;stroke-linejoin:round;stroke-miterlimit:10;stroke-dasharray:none;stroke-opacity:1"
           id="path25642"
           inkscape:connector-curvature="0" /><g
           id="g25644"
           transform="translate(106.2793,7.127)"><path
             d="M 0,0 148.525,4.734"
             style="fill:none;stroke:#000000;stroke-width:0.5;stroke-linecap:round;stroke-linejoin:round;stroke-miterlimit:10;stroke-dasharray:none;stroke-opacity:1"
             id="path25646"
             inkscape:connector-curvature="0" /></g><g
           id="g25648"
           transform="translate(127.0547,26.6113)"><path
             d="m 0,0 86.85,1.919 c 2.395,0.054 4.741,0.702 6.823,1.888 L 126.5,22.5"
             style="fill:none;stroke:#000000;stroke-width:0.25;stroke-linecap:round;stroke-linejoin:round;stroke-miterlimit:10;stroke-dasharray:none;stroke-opacity:1"
             id="path25650"
             inkscape:connector-curvature="0" /></g><g
           id="g25652"
           transform="translate(157.3047,57.8613)"><path
             d="m 0,0 0,-21.598 c 0,-1.55 0.627,-3.036 1.737,-4.118 1.112,-1.083 2.613,-1.67 4.163,-1.63 l 48.772,1.279 c 1.64,0.043 3.183,0.784 4.242,2.038 l 7.836,9.279"
             style="fill:none;stroke:#000000;stroke-width:0.25;stroke-linecap:round;stroke-linejoin:round;stroke-miterlimit:10;stroke-dasharray:none;stroke-opacity:1"
             id="path25654"
             inkscape:connector-curvature="0" /></g><g
           id="g25656"
           transform="translate(193.8047,80.3613)"><path
             d="m 0,0 28.506,-34.347 c 1.243,-1.499 3.161,-2.265 5.096,-2.038 l 18.148,2.135"
             style="fill:none;stroke:#000000;stroke-width:0.25;stroke-linecap:round;stroke-linejoin:round;stroke-miterlimit:10;stroke-dasharray:none;stroke-opacity:1"
             id="path25658"
             inkscape:connector-curvature="0" /></g><g
           id="g25660"
           transform="translate(199.3047,88.1113)"><path
             d="m 0,0 28.506,-34.347 c 1.243,-1.499 3.161,-2.265 5.096,-2.038 l 18.148,2.135"
             style="fill:none;stroke:#000000;stroke-width:0.25;stroke-linecap:round;stroke-linejoin:round;stroke-miterlimit:10;stroke-dasharray:none;stroke-opacity:1"
             id="path25662"
             inkscape:connector-curvature="0" /></g><g
           id="g25664"
           transform="translate(158.5957,95.0449)"><path
             d="m 0,0 c 0,-0.742 -0.603,-1.344 -1.345,-1.344 -0.742,0 -1.344,0.602 -1.344,1.344 0,0.742 0.602,1.344 1.344,1.344 C -0.603,1.344 0,0.742 0,0 Z"
             style="fill:none;stroke:#000000;stroke-width:1;stroke-linecap:round;stroke-linejoin:round;stroke-miterlimit:10;stroke-dasharray:none;stroke-opacity:1"
             id="path25666"
             inkscape:connector-curvature="0" /></g></g></g><text
       transform="matrix(1,0,0,-1,1.5854,2.082)"
       style="font-variant:normal;font-weight:normal;font-stretch:normal;font-size:4px;font-family:Helvetica;-inkscape-font-specification:Helvetica;writing-mode:lr-tb;fill:#231f20;fill-opacity:1;fill-rule:nonzero;stroke:none"
       id="text25668"><tspan
         x="0 2 2.888 5.112"
         y="0"
         sodipodi:role="line"
         id="tspan25670">ciuz</tspan></text>
<g
       id="g25672"
       transform="translate(58.8047,75.1113)"><path
         d="M 0,0 31.25,-18.75"
         style="fill:none;stroke:#ffffff;stroke-width:3;stroke-linecap:round;stroke-linejoin:miter;stroke-miterlimit:4;stroke-dasharray:none;stroke-opacity:1"
         id="path25674"
         inkscape:connector-curvature="0" /></g><g
       id="g25676"
       transform="translate(90.0547,56.3613)"><path
         d="M 0,0 0,0"
         style="fill:none;stroke:#ffffff;stroke-width:3.75;stroke-linecap:round;stroke-linejoin:miter;stroke-miterlimit:4;stroke-dasharray:none;stroke-opacity:1"
         id="path25678"
         inkscape:connector-curvature="0" /></g><g
       id="g25680"
       transform="translate(58.8047,75.1113)"><path
         d="M 0,0 31.25,-18.75"
         style="fill:none;stroke:#211f1f;stroke-width:0.5;stroke-linecap:round;stroke-linejoin:miter;stroke-miterlimit:4;stroke-dasharray:none;stroke-opacity:1"
         id="path25682"
         inkscape:connector-curvature="0" /></g><g
       id="g25684"
       transform="translate(90.0547,56.3613)"><path
         d="M 0,0 0,0"
         style="fill:none;stroke:#211f1f;stroke-width:1.5;stroke-linecap:round;stroke-linejoin:miter;stroke-miterlimit:4;stroke-dasharray:none;stroke-opacity:1"
         id="path25686"
         inkscape:connector-curvature="0" /></g><text
       transform="matrix(1,0,0,-1,51.9419,75.4219)"
       style="font-variant:normal;font-weight:bold;font-stretch:normal;font-size:10px;font-family:Helvetica;-inkscape-font-specification:Helvetica-Bold;writing-mode:lr-tb;fill:#231f20;fill-opacity:1;fill-rule:nonzero;stroke:none"
       id="text25688"><tspan
         x="0"
         y="0"
         id="tspan25690">1</tspan></text>
<g
       id="g25692"
       transform="translate(119.0547,116.6113)"><path
         d="M 0,0 35.834,-20.083"
         style="fill:none;stroke:#ffffff;stroke-width:3;stroke-linecap:round;stroke-linejoin:miter;stroke-miterlimit:4;stroke-dasharray:none;stroke-opacity:1"
         id="path25694"
         inkscape:connector-curvature="0" /></g><g
       id="g25696"
       transform="translate(154.8887,96.5278)"><path
         d="M 0,0 0,0"
         style="fill:none;stroke:#ffffff;stroke-width:3.75;stroke-linecap:round;stroke-linejoin:miter;stroke-miterlimit:4;stroke-dasharray:none;stroke-opacity:1"
         id="path25698"
         inkscape:connector-curvature="0" /></g><g
       id="g25700"
       transform="translate(119.0547,116.6113)"><path
         d="M 0,0 35.834,-20.083"
         style="fill:none;stroke:#211f1f;stroke-width:0.5;stroke-linecap:round;stroke-linejoin:miter;stroke-miterlimit:4;stroke-dasharray:none;stroke-opacity:1"
         id="path25702"
         inkscape:connector-curvature="0" /></g><g
       id="g25704"
       transform="translate(154.8887,96.5278)"><path
         d="M 0,0 0,0"
         style="fill:none;stroke:#211f1f;stroke-width:1.5;stroke-linecap:round;stroke-linejoin:miter;stroke-miterlimit:4;stroke-dasharray:none;stroke-opacity:1"
         id="path25706"
         inkscape:connector-curvature="0" /></g><g
       id="g25708"
       transform="translate(184.0547,126.3613)"><path
         d="M 0,0 -12,-12"
         style="fill:none;stroke:#ffffff;stroke-width:3;stroke-linecap:round;stroke-linejoin:miter;stroke-miterlimit:4;stroke-dasharray:none;stroke-opacity:1"
         id="path25710"
         inkscape:connector-curvature="0" /></g><g
       id="g25712"
       transform="translate(172.0547,114.3613)"><path
         d="M 0,0 0,0"
         style="fill:none;stroke:#ffffff;stroke-width:3.75;stroke-linecap:round;stroke-linejoin:miter;stroke-miterlimit:4;stroke-dasharray:none;stroke-opacity:1"
         id="path25714"
         inkscape:connector-curvature="0" /></g><g
       id="g25716"
       transform="translate(184.0547,126.3613)"><path
         d="M 0,0 -12,-12"
         style="fill:none;stroke:#211f1f;stroke-width:0.5;stroke-linecap:round;stroke-linejoin:miter;stroke-miterlimit:4;stroke-dasharray:none;stroke-opacity:1"
         id="path25718"
         inkscape:connector-curvature="0" /></g><g
       id="g25720"
       transform="translate(172.0547,114.3613)"><path
         d="M 0,0 0,0"
         style="fill:none;stroke:#211f1f;stroke-width:1.5;stroke-linecap:round;stroke-linejoin:miter;stroke-miterlimit:4;stroke-dasharray:none;stroke-opacity:1"
         id="path25722"
         inkscape:connector-curvature="0" /></g><g
       id="g25724"
       transform="translate(193.5547,55.1113)"><path
         d="M 0,0 -4.25,22.75"
         style="fill:none;stroke:#ffffff;stroke-width:3;stroke-linecap:round;stroke-linejoin:miter;stroke-miterlimit:4;stroke-dasharray:none;stroke-opacity:1"
         id="path25726"
         inkscape:connector-curvature="0" /></g><g
       id="g25728"
       transform="translate(189.3047,77.8613)"><path
         d="M 0,0 0,0"
         style="fill:none;stroke:#ffffff;stroke-width:3.75;stroke-linecap:round;stroke-linejoin:miter;stroke-miterlimit:4;stroke-dasharray:none;stroke-opacity:1"
         id="path25730"
         inkscape:connector-curvature="0" /></g><g
       id="g25732"
       transform="translate(193.5547,55.1113)"><path
         d="M 0,0 -4.25,22.75"
         style="fill:none;stroke:#211f1f;stroke-width:0.5;stroke-linecap:round;stroke-linejoin:miter;stroke-miterlimit:4;stroke-dasharray:none;stroke-opacity:1"
         id="path25734"
         inkscape:connector-curvature="0" /></g><g
       id="g25736"
       transform="translate(189.3047,77.8613)"><path
         d="M 0,0 0,0"
         style="fill:none;stroke:#211f1f;stroke-width:1.5;stroke-linecap:round;stroke-linejoin:miter;stroke-miterlimit:4;stroke-dasharray:none;stroke-opacity:1"
         id="path25738"
         inkscape:connector-curvature="0" /></g><text
       transform="matrix(1,0,0,-1,112.1919,116.9219)"
       style="font-variant:normal;font-weight:bold;font-stretch:normal;font-size:10px;font-family:Helvetica;-inkscape-font-specification:Helvetica-Bold;writing-mode:lr-tb;fill:#231f20;fill-opacity:1;fill-rule:nonzero;stroke:none"
       id="text25740"><tspan
         x="0"
         y="0"
         id="tspan25742">3</tspan><tspan
         x="73.25"
         y="-10.5"
         id="tspan25744">4</tspan><tspan
         x="78.75"
         y="71.75"
         id="tspan25746">2</tspan></text>
</g></svg>