<?xml version="1.0" encoding="UTF-8" standalone="no"?>
<!-- Created with Inkscape (http://www.inkscape.org/) -->

<svg
   xmlns:dc="http://purl.org/dc/elements/1.1/"
   xmlns:cc="http://creativecommons.org/ns#"
   xmlns:rdf="http://www.w3.org/1999/02/22-rdf-syntax-ns#"
   xmlns:svg="http://www.w3.org/2000/svg"
   xmlns="http://www.w3.org/2000/svg"
   xmlns:sodipodi="http://sodipodi.sourceforge.net/DTD/sodipodi-0.dtd"
   xmlns:inkscape="http://www.inkscape.org/namespaces/inkscape"
   id="svg2"
   version="1.1"
   inkscape:version="0.91 r13725"
   xml:space="preserve"
   width="301.18124"
   height="230.31375"
   viewBox="0 0 301.18124 230.31375"
   sodipodi:docname="cbyg_2.svg"><metadata
     id="metadata8"><rdf:RDF><cc:Work
         rdf:about=""><dc:format>image/svg+xml</dc:format><dc:type
           rdf:resource="http://purl.org/dc/dcmitype/StillImage" /><dc:title></dc:title></cc:Work></rdf:RDF></metadata><defs
     id="defs6"><clipPath
       clipPathUnits="userSpaceOnUse"
       id="clipPath16"><path
         d="m 0.005,3.242 240.941,0 0,170.079 -240.941,0 0,-170.079 z"
         id="path18"
         inkscape:connector-curvature="0" /></clipPath><clipPath
       clipPathUnits="userSpaceOnUse"
       id="clipPath236"><path
         d="m 0,184.251 240.945,0 L 240.945,0 0,0 0,184.251 Z"
         id="path238"
         inkscape:connector-curvature="0" /></clipPath><clipPath
       clipPathUnits="userSpaceOnUse"
       id="clipPath318"><path
         d="m 0,184.251 240.945,0 L 240.945,0 0,0 0,184.251 Z"
         id="path320"
         inkscape:connector-curvature="0" /></clipPath></defs><sodipodi:namedview
     pagecolor="#ffffff"
     bordercolor="#666666"
     borderopacity="1"
     objecttolerance="10"
     gridtolerance="10"
     guidetolerance="10"
     inkscape:pageopacity="0"
     inkscape:pageshadow="2"
     inkscape:window-width="684"
     inkscape:window-height="480"
     id="namedview4"
     showgrid="false"
     inkscape:zoom="1.0027185"
     inkscape:cx="150.59062"
     inkscape:cy="115.15688"
     inkscape:window-x="0"
     inkscape:window-y="0"
     inkscape:window-maximized="0"
     inkscape:current-layer="g10" /><g
     id="g10"
     inkscape:groupmode="layer"
     inkscape:label="cbyg_2"
     transform="matrix(1.25,0,0,-1.25,0,230.31375)"><g
       id="g12"><g
         id="g14"
         clip-path="url(#clipPath16)"><g
           id="g20"
           transform="translate(40.2959,117.5166)"><path
             d="m 0,0 c 0,0.687 -0.962,1.242 -2.148,1.242 -1.188,0 -2.15,-0.555 -2.15,-1.242 0,-0.686 0.962,-1.242 2.15,-1.242 C -0.962,-1.242 0,-0.686 0,0"
             style="fill:#231f20;fill-opacity:1;fill-rule:nonzero;stroke:none"
             id="path22"
             inkscape:connector-curvature="0" /></g><g
           id="g24"
           transform="translate(197.7861,72.9541)"><path
             d="m 0,0 c -1.523,-1.542 -3.046,-2.267 -3.987,-1.723 -1.473,0.85 -0.969,4.481 1.127,8.111 2.095,3.629 4.988,5.882 6.461,5.03 0.945,-0.546 1.076,-2.238 0.493,-4.34"
             style="fill:none;stroke:#231f20;stroke-width:0.5;stroke-linecap:round;stroke-linejoin:round;stroke-miterlimit:4;stroke-dasharray:none;stroke-opacity:1"
             id="path26"
             inkscape:connector-curvature="0" /></g><g
           id="g28"
           transform="translate(197.3135,74.458)"><path
             d="m 0,0 c -1.244,-1.311 -2.505,-1.941 -3.274,-1.497 -1.159,0.669 -0.762,3.524 0.886,6.381 1.649,2.854 3.925,4.628 5.084,3.958 C 3.462,8.399 3.549,7.001 3.043,5.279"
             style="fill:none;stroke:#231f20;stroke-width:0.5;stroke-linecap:round;stroke-linejoin:round;stroke-miterlimit:4;stroke-dasharray:none;stroke-opacity:1"
             id="path30"
             inkscape:connector-curvature="0" /></g><g
           id="g32"
           transform="translate(195.6211,75.6982)"><path
             d="M 0,0 C -0.545,0.315 -0.358,1.658 0.417,3.002 1.191,4.344 2.263,5.178 2.809,4.863"
             style="fill:none;stroke:#231f20;stroke-width:0.5;stroke-linecap:round;stroke-linejoin:round;stroke-miterlimit:4;stroke-dasharray:none;stroke-opacity:1"
             id="path34"
             inkscape:connector-curvature="0" /></g><g
           id="g36"
           transform="translate(206.3437,75.9922)"><path
             d="m 0,0 c 0.544,-0.314 0.357,-1.658 -0.418,-3.001 -0.775,-1.343 -1.846,-2.176 -2.391,-1.862 -0.545,0.315 -0.358,1.658 0.417,3.002 C -1.617,-0.52 -0.546,0.314 0,0 Z"
             style="fill:none;stroke:#231f20;stroke-width:0.5;stroke-linecap:round;stroke-linejoin:round;stroke-miterlimit:4;stroke-dasharray:none;stroke-opacity:1"
             id="path38"
             inkscape:connector-curvature="0" /></g><g
           id="g40"
           transform="translate(184,34.793)"><path
             d="m 0,0 c 0.537,-0.31 0.353,-1.64 -0.414,-2.966 -0.766,-1.326 -1.823,-2.15 -2.361,-1.84 -0.539,0.311 -0.355,1.639 0.411,2.966 C -1.598,-0.513 -0.54,0.312 0,0 Z"
             style="fill:none;stroke:#231f20;stroke-width:0.5;stroke-linecap:round;stroke-linejoin:round;stroke-miterlimit:4;stroke-dasharray:none;stroke-opacity:1"
             id="path42"
             inkscape:connector-curvature="0" /></g><g
           id="g44"
           transform="translate(86.7607,84.6924)"><path
             d="M 0,0 C -0.569,0.33 -0.442,1.615 0.284,2.873 1.01,4.131 2.06,4.884 2.63,4.555"
             style="fill:none;stroke:#231f20;stroke-width:0.5;stroke-linecap:round;stroke-linejoin:round;stroke-miterlimit:4;stroke-dasharray:none;stroke-opacity:1"
             id="path46"
             inkscape:connector-curvature="0" /></g><g
           id="g48"
           transform="translate(83.8237,80.8193)"><path
             d="m 0,0 c -1.613,0.934 -1.253,4.576 0.804,8.141 2.056,3.565 5.034,5.702 6.65,4.768"
             style="fill:none;stroke:#231f20;stroke-width:0.5;stroke-linecap:round;stroke-linejoin:round;stroke-miterlimit:4;stroke-dasharray:none;stroke-opacity:1"
             id="path50"
             inkscape:connector-curvature="0" /></g><g
           id="g52"
           transform="translate(88.9653,83.4141)"><path
             d="m 0,0 c -1.824,-2.196 -3.892,-3.313 -5.142,-2.595 l -1.275,0.737"
             style="fill:none;stroke:#231f20;stroke-width:1.5;stroke-linecap:round;stroke-linejoin:round;stroke-miterlimit:4;stroke-dasharray:none;stroke-opacity:1"
             id="path54"
             inkscape:connector-curvature="0" /></g><g
           id="g56"
           transform="translate(82.7461,98.6543)"><path
             d="m 0,0 8.532,-4.926 c 1.249,-0.72 1.313,-3.077 0.319,-5.761"
             style="fill:none;stroke:#231f20;stroke-width:1.5;stroke-linecap:round;stroke-linejoin:round;stroke-miterlimit:4;stroke-dasharray:none;stroke-opacity:1"
             id="path58"
             inkscape:connector-curvature="0" /></g><g
           id="g60"
           transform="translate(74.2612,89.3564)"><path
             d="M 0,0 C 0.192,1.393 0.76,3.017 1.683,4.617 3.74,8.182 6.785,10.28 8.485,9.298"
             style="fill:none;stroke:#231f20;stroke-width:0.5;stroke-linecap:round;stroke-linejoin:round;stroke-miterlimit:4;stroke-dasharray:none;stroke-opacity:1"
             id="path62"
             inkscape:connector-curvature="0" /></g><g
           id="g64"
           transform="translate(68.2168,85.9316)"><path
             d="m 0,0 c 0.017,2.978 1.15,6.815 3.324,10.583 3.893,6.75 9.659,10.721 12.877,8.861"
             style="fill:none;stroke:#231f20;stroke-width:0.5;stroke-linecap:round;stroke-linejoin:round;stroke-miterlimit:4;stroke-dasharray:none;stroke-opacity:1"
             id="path66"
             inkscape:connector-curvature="0" /></g><g
           id="g68"
           transform="translate(86.0259,96.7617)"><path
             d="m 0,0 c 0.971,4.054 0.474,7.413 -1.608,8.614 l -1.941,1.12 c -3.218,1.86 -8.983,-2.111 -12.877,-8.861 -2.764,-4.791 -3.845,-9.694 -3.09,-12.801"
             style="fill:none;stroke:#231f20;stroke-width:1.5;stroke-linecap:round;stroke-linejoin:round;stroke-miterlimit:4;stroke-dasharray:none;stroke-opacity:1"
             id="path70"
             inkscape:connector-curvature="0" /></g><g
           id="g72"
           transform="translate(71.0698,99.9297)"><path
             d="m 0,0 -55.827,32.232 c -0.905,0.523 -2.248,-0.11 -2.999,-1.413 -0.751,-1.302 -0.628,-2.779 0.276,-3.302 L -2.826,-4.946"
             style="fill:none;stroke:#231f20;stroke-width:1.5;stroke-linecap:round;stroke-linejoin:round;stroke-miterlimit:4;stroke-dasharray:none;stroke-opacity:1"
             id="path74"
             inkscape:connector-curvature="0" /></g><g
           id="g76"
           transform="translate(188.8828,64.0117)"><path
             d="m 0,0 c -3.164,1.826 -2.081,9.626 2.42,17.421 4.501,7.796 10.713,12.634 13.877,10.807"
             style="fill:none;stroke:#231f20;stroke-width:0.5;stroke-linecap:round;stroke-linejoin:round;stroke-miterlimit:4;stroke-dasharray:none;stroke-opacity:1"
             id="path78"
             inkscape:connector-curvature="0" /></g><g
           id="g80"
           transform="translate(200.6338,71.5244)"><path
             d="m 0,0 c -4.171,-5.802 -9.063,-9.064 -11.751,-7.513 l -6.488,3.746 c -3.164,1.827 -2.081,9.626 2.42,17.421 4.501,7.796 10.713,12.634 13.877,10.807 L 4.546,20.715 C 7.23,19.166 6.856,13.313 3.93,6.811"
             style="fill:none;stroke:#231f20;stroke-width:1.5;stroke-linecap:round;stroke-linejoin:round;stroke-miterlimit:4;stroke-dasharray:none;stroke-opacity:1"
             id="path82"
             inkscape:connector-curvature="0" /></g><g
           id="g84"
           transform="translate(183.0352,99.7725)"><path
             d="m 0,0 c 2.281,-1.316 1.5,-6.939 -1.745,-12.559 -3.245,-5.62 -7.724,-9.107 -10.003,-7.791 -2.281,1.317 -1.501,6.94 1.744,12.559 C -6.76,-2.17 -2.281,1.317 0,0 Z"
             style="fill:none;stroke:#231f20;stroke-width:0.5;stroke-linecap:round;stroke-linejoin:round;stroke-miterlimit:4;stroke-dasharray:none;stroke-opacity:1"
             id="path86"
             inkscape:connector-curvature="0" /></g><g
           id="g88"
           transform="translate(168.4639,81.0527)"><path
             d="m 0,0 c -2.281,1.316 -1.501,6.939 1.744,12.559 3.244,5.62 7.723,9.108 10.004,7.791"
             style="fill:none;stroke:#231f20;stroke-width:0.5;stroke-linecap:round;stroke-linejoin:round;stroke-miterlimit:4;stroke-dasharray:none;stroke-opacity:1"
             id="path90"
             inkscape:connector-curvature="0" /></g><g
           id="g92"
           transform="translate(161.8037,84.8975)"><path
             d="m 0,0 c -2.281,1.316 -1.501,6.94 1.744,12.559 3.244,5.621 7.723,9.108 10.004,7.791"
             style="fill:none;stroke:#231f20;stroke-width:0.5;stroke-linecap:round;stroke-linejoin:round;stroke-miterlimit:4;stroke-dasharray:none;stroke-opacity:1"
             id="path94"
             inkscape:connector-curvature="0" /></g><g
           id="g96"
           transform="translate(159.457,86.2529)"><path
             d="m 0,0 c -2.281,1.316 -1.501,6.939 1.744,12.559 3.244,5.62 7.723,9.108 10.004,7.791"
             style="fill:none;stroke:#231f20;stroke-width:0.5;stroke-linecap:round;stroke-linejoin:round;stroke-miterlimit:4;stroke-dasharray:none;stroke-opacity:1"
             id="path98"
             inkscape:connector-curvature="0" /></g><g
           id="g100"
           transform="translate(121.3203,104.5986)"><path
             d="m 0,0 c -3.457,1.996 -2.919,9.403 1.204,16.543 4.123,7.142 10.267,11.312 13.724,9.316"
             style="fill:none;stroke:#231f20;stroke-width:0.5;stroke-linecap:round;stroke-linejoin:round;stroke-miterlimit:4;stroke-dasharray:none;stroke-opacity:1"
             id="path102"
             inkscape:connector-curvature="0" /></g><g
           id="g104"
           transform="translate(132.502,110.1816)"><path
             d="M 0,0 C -1.545,-1.928 -3.21,-3.473 -4.83,-4.523"
             style="fill:none;stroke:#231f20;stroke-width:0.5;stroke-linecap:round;stroke-linejoin:round;stroke-miterlimit:4;stroke-dasharray:none;stroke-opacity:1"
             id="path106"
             inkscape:connector-curvature="0" /></g><g
           id="g108"
           transform="translate(138.5176,124.6816)"><path
             d="M 0,0 C -0.06,-1.788 -0.478,-3.836 -1.244,-5.979"
             style="fill:none;stroke:#231f20;stroke-width:0.5;stroke-linecap:round;stroke-linejoin:round;stroke-miterlimit:4;stroke-dasharray:none;stroke-opacity:1"
             id="path110"
             inkscape:connector-curvature="0" /></g><g
           id="g112"
           transform="translate(125.7939,104.6572)"><path
             d="m 0,0 c -1.688,-0.698 -3.249,-0.765 -4.474,-0.059 l -5.373,3.102 c -3.457,1.997 -2.919,9.403 1.204,16.544 4.123,7.142 10.267,11.312 13.724,9.315 L 10.454,25.8 c 1.22,-0.703 1.942,-2.082 2.185,-3.884"
             style="fill:none;stroke:#231f20;stroke-width:1.5;stroke-linecap:round;stroke-linejoin:round;stroke-miterlimit:4;stroke-dasharray:none;stroke-opacity:1"
             id="path114"
             inkscape:connector-curvature="0" /></g><g
           id="g116"
           transform="translate(127.124,113.2788)"><path
             d="M 0,0 C -1.911,-2.384 -4.005,-4.182 -5.972,-5.182"
             style="fill:none;stroke:#231f20;stroke-width:0.5;stroke-linecap:round;stroke-linejoin:round;stroke-miterlimit:4;stroke-dasharray:none;stroke-opacity:1"
             id="path118"
             inkscape:connector-curvature="0" /></g><g
           id="g120"
           transform="translate(133.1367,128.8516)"><path
             d="M 0,0 C 0.106,-2.018 -0.312,-4.464 -1.235,-7.048"
             style="fill:none;stroke:#231f20;stroke-width:0.5;stroke-linecap:round;stroke-linejoin:round;stroke-miterlimit:4;stroke-dasharray:none;stroke-opacity:1"
             id="path122"
             inkscape:connector-curvature="0" /></g><g
           id="g124"
           transform="translate(95.7593,122.4009)"><path
             d="m 0,0 c -2.846,1.644 -2.403,7.742 0.992,13.622 3.395,5.88 8.453,9.314 11.3,7.67"
             style="fill:none;stroke:#231f20;stroke-width:0.5;stroke-linecap:round;stroke-linejoin:round;stroke-miterlimit:4;stroke-dasharray:none;stroke-opacity:1"
             id="path126"
             inkscape:connector-curvature="0" /></g><g
           id="g128"
           transform="translate(104.3901,126.3091)"><path
             d="m 0,0 c -3.02,-3.469 -6.465,-5.157 -8.631,-3.908 l -3.769,2.176 c -2.846,1.644 -2.403,7.742 0.992,13.622 3.395,5.88 8.453,9.314 11.3,7.67 L 3.661,17.384 C 5.795,16.152 6.079,12.413 4.656,8.141"
             style="fill:none;stroke:#231f20;stroke-width:1.5;stroke-linecap:round;stroke-linejoin:round;stroke-miterlimit:4;stroke-dasharray:none;stroke-opacity:1"
             id="path130"
             inkscape:connector-curvature="0" /></g><g
           id="g132"
           transform="translate(103.5781,125.54)"><path
             d="M 0,0 C -2.452,-2.369 -5.047,-3.408 -6.76,-2.42 -9.339,-0.931 -8.938,4.597 -5.861,9.925 -2.784,15.254 1.8,18.366 4.38,16.876 6.102,15.883 6.495,13.09 5.651,9.757"
             style="fill:none;stroke:#231f20;stroke-width:0.5;stroke-linecap:round;stroke-linejoin:round;stroke-miterlimit:4;stroke-dasharray:none;stroke-opacity:1"
             id="path134"
             inkscape:connector-curvature="0" /></g><g
           id="g136"
           transform="translate(100.0918,128.791)"><path
             d="m 0,0 c -1.062,0.614 -0.898,2.892 0.371,5.089 1.268,2.196 3.157,3.479 4.22,2.865"
             style="fill:none;stroke:#231f20;stroke-width:0.5;stroke-linecap:round;stroke-linejoin:round;stroke-miterlimit:4;stroke-dasharray:none;stroke-opacity:1"
             id="path138"
             inkscape:connector-curvature="0" /></g><g
           id="g140"
           transform="translate(122.4805,106.6089)"><path
             d="m 0,0 c -2.92,1.686 -2.465,7.941 1.018,13.971 3.481,6.031 8.67,9.553 11.589,7.867"
             style="fill:none;stroke:#231f20;stroke-width:0.5;stroke-linecap:round;stroke-linejoin:round;stroke-miterlimit:4;stroke-dasharray:none;stroke-opacity:1"
             id="path142"
             inkscape:connector-curvature="0" /></g><g
           id="g144"
           transform="translate(76.9824,87.8232)"><path
             d="M 0,0 C 1.185,0.685 3.104,-0.422 4.288,-2.473 5.471,-4.522 5.47,-6.738 4.285,-7.422"
             style="fill:none;stroke:#231f20;stroke-width:1.5;stroke-linecap:round;stroke-linejoin:round;stroke-miterlimit:4;stroke-dasharray:none;stroke-opacity:1"
             id="path146"
             inkscape:connector-curvature="0" /></g><g
           id="g148"
           transform="translate(104.6831,136.7446)"><path
             d="M 0,0 15.067,-8.699"
             style="fill:none;stroke:#231f20;stroke-width:1.5;stroke-linecap:round;stroke-linejoin:round;stroke-miterlimit:4;stroke-dasharray:none;stroke-opacity:1"
             id="path150"
             inkscape:connector-curvature="0" /></g><g
           id="g152"
           transform="translate(100.0918,128.791)"><path
             d="M 0,0 15.066,-8.699"
             style="fill:none;stroke:#231f20;stroke-width:1.5;stroke-linecap:round;stroke-linejoin:round;stroke-miterlimit:4;stroke-dasharray:none;stroke-opacity:1"
             id="path154"
             inkscape:connector-curvature="0" /></g><g
           id="g156"
           transform="translate(135.0879,128.4473)"><path
             d="M 0,0 58.949,-33.058"
             style="fill:none;stroke:#231f20;stroke-width:1.5;stroke-linecap:round;stroke-linejoin:round;stroke-miterlimit:4;stroke-dasharray:none;stroke-opacity:1"
             id="path158"
             inkscape:connector-curvature="0" /></g><g
           id="g160"
           transform="translate(122.4805,106.6089)"><path
             d="M 0,0 58.104,-34.185"
             style="fill:none;stroke:#231f20;stroke-width:1.5;stroke-linecap:round;stroke-linejoin:round;stroke-miterlimit:4;stroke-dasharray:none;stroke-opacity:1"
             id="path162"
             inkscape:connector-curvature="0" /></g><g
           id="g164"
           transform="translate(126.6133,124.8569)"><path
             d="M 0,0 37.659,-21.743"
             style="fill:none;stroke:#231f20;stroke-width:0.5;stroke-linecap:round;stroke-linejoin:round;stroke-miterlimit:4;stroke-dasharray:none;stroke-opacity:1"
             id="path166"
             inkscape:connector-curvature="0" /></g><g
           id="g168"
           transform="translate(121.5938,116.4629)"><path
             d="M 0,0 37.685,-21.698"
             style="fill:none;stroke:#231f20;stroke-width:0.5;stroke-linecap:round;stroke-linejoin:round;stroke-miterlimit:4;stroke-dasharray:none;stroke-opacity:1"
             id="path170"
             inkscape:connector-curvature="0" /></g><g
           id="g172"
           transform="translate(89.3906,89.2471)"><path
             d="M 0,0 80.474,-46.641"
             style="fill:none;stroke:#231f20;stroke-width:1.5;stroke-linecap:round;stroke-linejoin:round;stroke-miterlimit:4;stroke-dasharray:none;stroke-opacity:1"
             id="path174"
             inkscape:connector-curvature="0" /></g><g
           id="g176"
           transform="translate(86.7607,84.6924)"><path
             d="M 0,0 80.474,-46.641"
             style="fill:none;stroke:#231f20;stroke-width:1.5;stroke-linecap:round;stroke-linejoin:round;stroke-miterlimit:4;stroke-dasharray:none;stroke-opacity:1"
             id="path178"
             inkscape:connector-curvature="0" /></g><g
           id="g180"
           transform="translate(77.814,75.2275)"><path
             d="m 0,0 c 0.097,0.431 0.153,0.902 0.153,1.422 0,0.52 -0.056,1.057 -0.153,1.599 -2.124,1.799 -3.792,4.697 -4.285,7.444 -0.419,0.355 -0.854,0.672 -1.302,0.931 -0.449,0.258 -0.883,0.443 -1.302,0.573"
             style="fill:none;stroke:#231f20;stroke-width:0.5;stroke-linecap:round;stroke-linejoin:round;stroke-miterlimit:4;stroke-dasharray:none;stroke-opacity:1"
             id="path182"
             inkscape:connector-curvature="0" /></g><g
           id="g184"
           transform="translate(74.8086,74.876)"><path
             d="m 0,0 c 0.776,0.575 1.82,0.717 3.005,0.352 l 3.194,1.843 c 0.097,0.431 0.154,0.903 0.154,1.422 0,0.521 -0.057,1.058 -0.154,1.6 C 4.075,7.016 2.407,9.913 1.915,12.66 1.495,13.016 1.061,13.332 0.612,13.591 0.164,13.85 -0.271,14.034 -0.69,14.164 L -3.884,12.32 C -4.13,11.234 -4.667,10.448 -5.408,10.014"
             style="fill:none;stroke:#231f20;stroke-width:1.5;stroke-linecap:round;stroke-linejoin:round;stroke-miterlimit:4;stroke-dasharray:none;stroke-opacity:1"
             id="path186"
             inkscape:connector-curvature="0" /></g><g
           id="g188"
           transform="translate(73.5288,72.7314)"><path
             d="M 0,0 C 0.218,0.963 0.665,1.689 1.28,2.145"
             style="fill:none;stroke:#231f20;stroke-width:0.5;stroke-linecap:round;stroke-linejoin:round;stroke-miterlimit:4;stroke-dasharray:none;stroke-opacity:1"
             id="path190"
             inkscape:connector-curvature="0" /></g><g
           id="g192"
           transform="translate(69.4009,84.8896)"><path
             d="M 0,0 C -0.745,-0.437 -1.696,-0.518 -2.761,-0.189"
             style="fill:none;stroke:#231f20;stroke-width:0.5;stroke-linecap:round;stroke-linejoin:round;stroke-miterlimit:4;stroke-dasharray:none;stroke-opacity:1"
             id="path194"
             inkscape:connector-curvature="0" /></g><g
           id="g196"
           transform="translate(76.9614,75.335)"><path
             d="m 0,0 c -0.097,-0.233 -0.177,-0.487 -0.239,-0.76 l -3.194,-1.844 c -0.419,0.129 -0.853,0.315 -1.301,0.574 -0.449,0.259 -0.884,0.576 -1.303,0.93 -0.493,2.748 -2.161,5.647 -4.284,7.444 -0.097,0.543 -0.155,1.08 -0.154,1.599 0,0.52 0.056,0.993 0.154,1.422 l 3.194,1.844 c 0.282,-0.087 0.556,-0.146 0.82,-0.176"
             style="fill:none;stroke:#231f20;stroke-width:1.5;stroke-linecap:round;stroke-linejoin:round;stroke-miterlimit:4;stroke-dasharray:none;stroke-opacity:1"
             id="path198"
             inkscape:connector-curvature="0" /></g><g
           id="g200"
           transform="translate(77.8135,78.249)"><path
             d="M 0,0 3.194,1.844"
             style="fill:none;stroke:#231f20;stroke-width:0.5;stroke-linecap:round;stroke-linejoin:round;stroke-miterlimit:4;stroke-dasharray:none;stroke-opacity:1"
             id="path202"
             inkscape:connector-curvature="0" /></g><g
           id="g204"
           transform="translate(73.5293,85.6924)"><path
             d="M 0,0 3.194,1.844"
             style="fill:none;stroke:#231f20;stroke-width:0.5;stroke-linecap:round;stroke-linejoin:round;stroke-miterlimit:4;stroke-dasharray:none;stroke-opacity:1"
             id="path206"
             inkscape:connector-curvature="0" /></g><g
           id="g208"
           transform="translate(88.4736,82.9795)"><path
             d="m 0,0 c -1.282,-1.24 -2.602,-1.795 -3.456,-1.304 -1.323,0.766 -1.027,3.754 0.66,6.678 1.687,2.925 4.129,4.677 5.455,3.911 C 3.519,8.789 3.694,7.35 3.247,5.6"
             style="fill:none;stroke:#231f20;stroke-width:0.5;stroke-linecap:round;stroke-linejoin:round;stroke-miterlimit:4;stroke-dasharray:none;stroke-opacity:1"
             id="path210"
             inkscape:connector-curvature="0" /></g><g
           id="g212"
           transform="translate(187,26.3926)"><path
             d="m 0,0 c 13.271,-7.662 26.123,-8.993 35.264,-3.652 6.709,3.919 10.664,11.151 10.579,19.344 -0.126,12.157 -8.753,24.177 -23.078,32.155 -1.2,0.692 -1.991,2.239 -2.888,2.757 -0.898,0.519 -4.691,2.709 -4.691,2.709 -0.764,0.441 -2.263,-0.727 -3.347,-2.605 -1.086,-1.881 -1.347,-3.761 -0.584,-4.202 0,0 3.529,-2.038 4.539,-2.621 1.01,-0.583 2.874,-0.601 4.051,-1.281 C 32.264,35.689 39.74,25.605 39.843,15.63 39.906,9.528 37.134,4.389 32.237,1.528 25.009,-2.695 14.352,-1.358 3,5.195 1.801,5.888 0.363,7.79 -0.534,8.309 c -0.898,0.518 -14.834,8.564 -14.834,8.564 -0.764,0.44 -2.263,-0.727 -3.347,-2.605 -1.086,-1.881 -1.347,-3.761 -0.584,-4.203 0,0 13.765,-7.947 14.775,-8.53 C -3.515,0.952 -1.177,0.68 0,0 Z"
             style="fill:none;stroke:#231f20;stroke-width:1.5;stroke-linecap:round;stroke-linejoin:round;stroke-miterlimit:4;stroke-dasharray:none;stroke-opacity:1"
             id="path214"
             inkscape:connector-curvature="0" /></g><g
           id="g216"
           transform="translate(198.4297,80.5615)"><path
             d="M 0,0 2.215,-1.279"
             style="fill:none;stroke:#231f20;stroke-width:1.5;stroke-linecap:round;stroke-linejoin:round;stroke-miterlimit:4;stroke-dasharray:none;stroke-opacity:1"
             id="path218"
             inkscape:connector-curvature="0" /></g><g
           id="g220"
           transform="translate(195.6211,75.6982)"><path
             d="M 0,0 2.228,-1.286"
             style="fill:none;stroke:#231f20;stroke-width:1.5;stroke-linecap:round;stroke-linejoin:round;stroke-miterlimit:4;stroke-dasharray:none;stroke-opacity:1"
             id="path222"
             inkscape:connector-curvature="0" /></g><g
           id="g224"
           transform="translate(200.1523,70.9219)"><path
             d="m 0,0 c -3.599,-4.647 -7.631,-7.165 -9.909,-5.851 -2.855,1.648 -1.877,8.683 2.182,15.714 4.06,7.032 9.664,11.396 12.517,9.747 2.238,-1.292 2.119,-5.899 0.004,-11.219"
             style="fill:none;stroke:#231f20;stroke-width:0.5;stroke-linecap:round;stroke-linejoin:round;stroke-miterlimit:4;stroke-dasharray:none;stroke-opacity:1"
             id="path226"
             inkscape:connector-curvature="0" /></g></g></g><g
       id="g228"
       transform="translate(160.9473,110.5688)"><path
         d="M 0,0 31.475,32.502"
         style="fill:none;stroke:#ffffff;stroke-width:3;stroke-linecap:round;stroke-linejoin:round;stroke-miterlimit:4;stroke-dasharray:none;stroke-opacity:1"
         id="path230"
         inkscape:connector-curvature="0" /></g><g
       id="g232"><g
         id="g234"
         clip-path="url(#clipPath236)"><g
           id="g240"
           transform="translate(160.8252,109.3354)"><path
             d="M 0,0 C 0.681,0 1.233,0.552 1.233,1.233 1.233,1.915 0.681,2.467 0,2.467 -0.681,2.467 -1.233,1.915 -1.233,1.233 -1.233,0.552 -0.681,0 0,0"
             style="fill:#231f20;fill-opacity:1;fill-rule:nonzero;stroke:none"
             id="path242"
             inkscape:connector-curvature="0" /></g><g
           id="g244"
           transform="translate(160.8252,109.3354)"><path
             d="M 0,0 C 0.681,0 1.233,0.552 1.233,1.233 1.233,1.915 0.681,2.467 0,2.467 -0.681,2.467 -1.233,1.915 -1.233,1.233 -1.233,0.552 -0.681,0 0,0 Z"
             style="fill:none;stroke:#ffffff;stroke-width:1;stroke-linecap:butt;stroke-linejoin:miter;stroke-miterlimit:4;stroke-dasharray:none;stroke-opacity:1"
             id="path246"
             inkscape:connector-curvature="0" /></g><g
           id="g248"
           transform="translate(160.9473,110.5688)"><path
             d="M 0,0 31.475,32.502"
             style="fill:none;stroke:#231f20;stroke-width:0.5;stroke-linecap:round;stroke-linejoin:round;stroke-miterlimit:4;stroke-dasharray:none;stroke-opacity:1"
             id="path250"
             inkscape:connector-curvature="0" /></g><g
           id="g252"
           transform="translate(36.8159,115.8018)"><path
             d="M 0,0 -16.394,-17.063"
             style="fill:none;stroke:#ffffff;stroke-width:3;stroke-linecap:round;stroke-linejoin:round;stroke-miterlimit:4;stroke-dasharray:none;stroke-opacity:1"
             id="path254"
             inkscape:connector-curvature="0" /></g><g
           id="g256"
           transform="translate(36.6938,114.5684)"><path
             d="M 0,0 C 0.681,0 1.233,0.552 1.233,1.233 1.233,1.915 0.681,2.467 0,2.467 -0.681,2.467 -1.233,1.915 -1.233,1.233 -1.233,0.552 -0.681,0 0,0"
             style="fill:#231f20;fill-opacity:1;fill-rule:nonzero;stroke:none"
             id="path258"
             inkscape:connector-curvature="0" /></g><g
           id="g260"
           transform="translate(36.6938,114.5684)"><path
             d="M 0,0 C 0.681,0 1.233,0.552 1.233,1.233 1.233,1.915 0.681,2.467 0,2.467 -0.681,2.467 -1.233,1.915 -1.233,1.233 -1.233,0.552 -0.681,0 0,0 Z"
             style="fill:none;stroke:#ffffff;stroke-width:1;stroke-linecap:butt;stroke-linejoin:miter;stroke-miterlimit:4;stroke-dasharray:none;stroke-opacity:1"
             id="path262"
             inkscape:connector-curvature="0" /></g><g
           id="g264"
           transform="translate(36.8159,115.8018)"><path
             d="M 0,0 -16.394,-17.063"
             style="fill:none;stroke:#231f20;stroke-width:0.5;stroke-linecap:round;stroke-linejoin:round;stroke-miterlimit:4;stroke-dasharray:none;stroke-opacity:1"
             id="path266"
             inkscape:connector-curvature="0" /></g><g
           id="g268"
           transform="translate(81.8774,80.5049)"><path
             d="M 0,0 6.544,-24.101"
             style="fill:none;stroke:#ffffff;stroke-width:3;stroke-linecap:round;stroke-linejoin:round;stroke-miterlimit:4;stroke-dasharray:none;stroke-opacity:1"
             id="path270"
             inkscape:connector-curvature="0" /></g><g
           id="g272"
           transform="translate(81.7554,79.2715)"><path
             d="M 0,0 C 0.681,0 1.233,0.552 1.233,1.233 1.233,1.915 0.681,2.467 0,2.467 -0.681,2.467 -1.233,1.915 -1.233,1.233 -1.233,0.552 -0.681,0 0,0"
             style="fill:#231f20;fill-opacity:1;fill-rule:nonzero;stroke:none"
             id="path274"
             inkscape:connector-curvature="0" /></g><g
           id="g276"
           transform="translate(81.7554,79.2715)"><path
             d="M 0,0 C 0.681,0 1.233,0.552 1.233,1.233 1.233,1.915 0.681,2.467 0,2.467 -0.681,2.467 -1.233,1.915 -1.233,1.233 -1.233,0.552 -0.681,0 0,0 Z"
             style="fill:none;stroke:#ffffff;stroke-width:1;stroke-linecap:butt;stroke-linejoin:miter;stroke-miterlimit:4;stroke-dasharray:none;stroke-opacity:1"
             id="path278"
             inkscape:connector-curvature="0" /></g><g
           id="g280"
           transform="translate(81.8774,80.5049)"><path
             d="M 0,0 6.544,-24.101"
             style="fill:none;stroke:#231f20;stroke-width:0.5;stroke-linecap:round;stroke-linejoin:round;stroke-miterlimit:4;stroke-dasharray:none;stroke-opacity:1"
             id="path282"
             inkscape:connector-curvature="0" /></g><g
           id="g284"
           transform="translate(88.9087,118.0825)"><path
             d="M 0,0 -5.886,-10.348"
             style="fill:none;stroke:#231f20;stroke-width:0.5;stroke-linecap:round;stroke-linejoin:round;stroke-miterlimit:4;stroke-dasharray:none;stroke-opacity:1"
             id="path286"
             inkscape:connector-curvature="0" /></g><g
           id="g288"
           transform="translate(51.3677,133.0635)"><path
             d="M 0,0 31.208,-17.981"
             style="fill:none;stroke:#231f20;stroke-width:0.5;stroke-linecap:round;stroke-linejoin:round;stroke-miterlimit:4;stroke-dasharray:none;stroke-opacity:1"
             id="path290"
             inkscape:connector-curvature="0" /></g><g
           id="g292"
           transform="translate(83.855,114.9453)"><path
             d="M 0,0 C -0.596,0.625 -0.95,1.09 -1.395,1.649 L -2.64,-0.545 c 0.263,-0.019 1.289,-0.161 2.132,-0.351 C 0.393,-1.1 1.181,-1.337 1.666,-1.537 1.246,-1.224 0.638,-0.669 0,0"
             style="fill:#231f20;fill-opacity:1;fill-rule:nonzero;stroke:none"
             id="path294"
             inkscape:connector-curvature="0" /></g><g
           id="g296"
           transform="translate(50.0879,133.2007)"><path
             d="M 0,0 C 0.596,-0.625 0.95,-1.09 1.395,-1.649 L 2.64,0.545 C 2.377,0.564 1.351,0.706 0.508,0.896 -0.393,1.1 -1.181,1.337 -1.666,1.537 -1.246,1.224 -0.638,0.669 0,0"
             style="fill:#231f20;fill-opacity:1;fill-rule:nonzero;stroke:none"
             id="path298"
             inkscape:connector-curvature="0" /></g></g></g><text
       transform="matrix(1,0,0,-1,2.6918,6.0713)"
       style="font-variant:normal;font-weight:normal;font-stretch:normal;font-size:5px;font-family:Helvetica;-inkscape-font-specification:Helvetica;writing-mode:lr-tb;fill:#231f20;fill-opacity:1;fill-rule:nonzero;stroke:none"
       id="text300"><tspan
         x="0 2.5 5.1799998 7.6799998"
         y="0"
         sodipodi:role="line"
         id="tspan302">cbyg</tspan></text>
<text
       transform="matrix(1,0,0,-1,191.5859,144.8213)"
       style="font-variant:normal;font-weight:bold;font-stretch:normal;font-size:12px;font-family:Helvetica;-inkscape-font-specification:Helvetica-Bold;writing-mode:lr-tb;fill:#231f20;fill-opacity:1;fill-rule:nonzero;stroke:none"
       id="text304"><tspan
         x="0"
         y="0"
         id="tspan306">1</tspan><tspan
         x="-105"
         y="99.996002"
         id="tspan308">2</tspan><tspan
         x="-129.168"
         y="-10.584"
         id="tspan310">3</tspan><tspan
         x="-178.248"
         y="55.248001"
         id="tspan312">4</tspan></text>
<g
       id="g314"><g
         id="g316"
         clip-path="url(#clipPath318)"><g
           id="g322"
           transform="translate(51.0889,139.7383)"><path
             d="M 0,0 -12,-20.667"
             style="fill:none;stroke:#231f20;stroke-width:0.5;stroke-linecap:round;stroke-linejoin:round;stroke-miterlimit:4;stroke-dasharray:none;stroke-opacity:1"
             id="path324"
             inkscape:connector-curvature="0" /></g><g
           id="g326"
           transform="translate(68.7061,123.3198)"><path
             d="M 0,0 -2.951,29.75"
             style="fill:none;stroke:#ffffff;stroke-width:3;stroke-linecap:round;stroke-linejoin:round;stroke-miterlimit:4;stroke-dasharray:none;stroke-opacity:1"
             id="path328"
             inkscape:connector-curvature="0" /></g><g
           id="g330"
           transform="translate(69.0435,124.7734)"><path
             d="M 0,0 C -0.728,0.103 -1.412,-0.473 -1.527,-1.286 -1.642,-2.1 -1.142,-2.841 -0.414,-2.943 0.314,-3.046 0.999,-2.471 1.113,-1.658 1.229,-0.844 0.729,-0.103 0,0"
             style="fill:#231f20;fill-opacity:1;fill-rule:nonzero;stroke:none"
             id="path332"
             inkscape:connector-curvature="0" /></g><g
           id="g334"
           transform="translate(69.0435,124.7734)"><path
             d="M 0,0 C -0.728,0.103 -1.412,-0.473 -1.527,-1.286 -1.642,-2.1 -1.142,-2.841 -0.414,-2.943 0.314,-3.046 0.999,-2.471 1.113,-1.658 1.229,-0.844 0.729,-0.103 0,0 Z"
             style="fill:none;stroke:#ffffff;stroke-width:1;stroke-linecap:butt;stroke-linejoin:miter;stroke-miterlimit:4;stroke-dasharray:none;stroke-opacity:1"
             id="path336"
             inkscape:connector-curvature="0" /></g><g
           id="g338"
           transform="translate(68.7061,123.3198)"><path
             d="M 0,0 -2.951,29.75"
             style="fill:none;stroke:#231f20;stroke-width:0.5;stroke-linecap:round;stroke-linejoin:round;stroke-miterlimit:4;stroke-dasharray:none;stroke-opacity:1"
             id="path340"
             inkscape:connector-curvature="0" /></g></g></g></g></svg>