<?xml version="1.0" encoding="UTF-8" standalone="no"?>
<!-- Created with Inkscape (http://www.inkscape.org/) -->

<svg
   xmlns:dc="http://purl.org/dc/elements/1.1/"
   xmlns:cc="http://creativecommons.org/ns#"
   xmlns:rdf="http://www.w3.org/1999/02/22-rdf-syntax-ns#"
   xmlns:svg="http://www.w3.org/2000/svg"
   xmlns="http://www.w3.org/2000/svg"
   xmlns:sodipodi="http://sodipodi.sourceforge.net/DTD/sodipodi-0.dtd"
   xmlns:inkscape="http://www.inkscape.org/namespaces/inkscape"
   id="svg29226"
   version="1.1"
   inkscape:version="0.91 r13725"
   xml:space="preserve"
   width="301.18124"
   height="230.315"
   viewBox="0 0 301.18124 230.315"
   sodipodi:docname="ceto_1.svg"><metadata
     id="metadata29232"><rdf:RDF><cc:Work
         rdf:about=""><dc:format>image/svg+xml</dc:format><dc:type
           rdf:resource="http://purl.org/dc/dcmitype/StillImage" /><dc:title></dc:title></cc:Work></rdf:RDF></metadata><defs
     id="defs29230"><clipPath
       clipPathUnits="userSpaceOnUse"
       id="clipPath29240"><path
         d="m 0.684,7.087 240.261,0 0,170.079 -240.261,0 0,-170.079 z"
         id="path29242"
         inkscape:connector-curvature="0" /></clipPath><clipPath
       clipPathUnits="userSpaceOnUse"
       id="clipPath29308"><path
         d="m 0,184.252 240.945,0 L 240.945,0 0,0 0,184.252 Z"
         id="path29310"
         inkscape:connector-curvature="0" /></clipPath><clipPath
       clipPathUnits="userSpaceOnUse"
       id="clipPath29336"><path
         d="m 0,184.252 240.945,0 L 240.945,0 0,0 0,184.252 Z"
         id="path29338"
         inkscape:connector-curvature="0" /></clipPath></defs><sodipodi:namedview
     pagecolor="#ffffff"
     bordercolor="#666666"
     borderopacity="1"
     objecttolerance="10"
     gridtolerance="10"
     guidetolerance="10"
     inkscape:pageopacity="0"
     inkscape:pageshadow="2"
     inkscape:window-width="640"
     inkscape:window-height="480"
     id="namedview29228"
     showgrid="false"
     inkscape:zoom="3.3779823"
     inkscape:cx="150.59062"
     inkscape:cy="115.1575"
     inkscape:window-x="0"
     inkscape:window-y="0"
     inkscape:window-maximized="1"
     inkscape:current-layer="g29234" /><g
     id="g29234"
     inkscape:groupmode="layer"
     inkscape:label="ceto_1"
     transform="matrix(1.25,0,0,-1.25,0,230.315)"><g
       id="g29236"><g
         id="g29238"
         clip-path="url(#clipPath29240)"><g
           id="g29244"
           transform="translate(162.9551,115.2979)"><path
             d="m 0,0 c 0,-5.777 -18.72,-10.461 -41.813,-10.461 -23.091,0 -41.811,4.684 -41.811,10.461"
             style="fill:none;stroke:#231f20;stroke-width:1;stroke-linecap:round;stroke-linejoin:round;stroke-miterlimit:4;stroke-dasharray:none;stroke-opacity:1"
             id="path29246"
             inkscape:connector-curvature="0" /></g><g
           id="g29248"
           transform="translate(164.9434,114.3887)"><path
             d="m 0,0 c 0,-6.28 -19.609,-11.372 -43.801,-11.372 -24.189,0 -43.8,5.092 -43.8,11.372"
             style="fill:none;stroke:#231f20;stroke-width:0.5;stroke-linecap:round;stroke-linejoin:round;stroke-miterlimit:4;stroke-dasharray:none;stroke-opacity:1"
             id="path29250"
             inkscape:connector-curvature="0" /></g><g
           id="g29252"
           transform="translate(177.7266,103.0181)"><path
             d="m 0,0 c 0,-10.658 -25.334,-19.298 -56.584,-19.298 -31.249,0 -56.583,8.64 -56.583,19.298"
             style="fill:none;stroke:#231f20;stroke-width:0.5;stroke-linecap:round;stroke-linejoin:round;stroke-miterlimit:4;stroke-dasharray:none;stroke-opacity:1"
             id="path29254"
             inkscape:connector-curvature="0" /></g><g
           id="g29256"
           transform="translate(76.98,115.0825)"><path
             d="m 0,0 c -7.771,-3.304 -12.421,-7.499 -12.421,-12.064 l 0,-3.51 c 0,-10.657 25.335,-19.298 56.584,-19.298 31.25,0 56.584,8.641 56.584,19.298 l 0,3.51 c 0,4.618 -4.758,8.857 -12.693,12.179"
             style="fill:none;stroke:#231f20;stroke-width:1.5;stroke-linecap:round;stroke-linejoin:round;stroke-miterlimit:4;stroke-dasharray:none;stroke-opacity:1"
             id="path29258"
             inkscape:connector-curvature="0" /></g><g
           id="g29260"
           transform="translate(180.4355,98.585)"><path
             d="m 0,0 c 0,-11.168 -26.547,-20.221 -59.293,-20.221 -32.744,0 -59.291,9.053 -59.291,20.221"
             style="fill:none;stroke:#231f20;stroke-width:0.5;stroke-linecap:round;stroke-linejoin:round;stroke-miterlimit:4;stroke-dasharray:none;stroke-opacity:1"
             id="path29262"
             inkscape:connector-curvature="0" /></g><g
           id="g29264"
           transform="translate(64.8867,104.9902)"><path
             d="m 0,0 c -1.969,-2.013 -3.036,-4.167 -3.036,-6.405 l 0,-7.129"
             style="fill:none;stroke:#231f20;stroke-width:1;stroke-linecap:round;stroke-linejoin:round;stroke-miterlimit:4;stroke-dasharray:none;stroke-opacity:1"
             id="path29266"
             inkscape:connector-curvature="0" /></g><g
           id="g29268"
           transform="translate(180.4355,92.3477)"><path
             d="m 0,0 0,6.237 c 0,2.208 -1.036,4.332 -2.953,6.321"
             style="fill:none;stroke:#231f20;stroke-width:1;stroke-linecap:round;stroke-linejoin:round;stroke-miterlimit:4;stroke-dasharray:none;stroke-opacity:1"
             id="path29270"
             inkscape:connector-curvature="0" /></g><g
           id="g29272"
           transform="translate(180.4355,92.3477)"><path
             d="m 0,0 c 0,-11.168 -26.547,-20.221 -59.293,-20.221 -32.744,0 -59.291,9.053 -59.291,20.221"
             style="fill:none;stroke:#231f20;stroke-width:0.5;stroke-linecap:round;stroke-linejoin:round;stroke-miterlimit:4;stroke-dasharray:none;stroke-opacity:1"
             id="path29274"
             inkscape:connector-curvature="0" /></g><g
           id="g29276"
           transform="translate(183.9854,92.3477)"><path
             d="m 0,0 c 0,-11.837 -28.136,-21.432 -62.843,-21.432 -34.704,0 -62.842,9.595 -62.842,21.432"
             style="fill:none;stroke:#231f20;stroke-width:0.5;stroke-linecap:round;stroke-linejoin:round;stroke-miterlimit:4;stroke-dasharray:none;stroke-opacity:1"
             id="path29278"
             inkscape:connector-curvature="0" /></g><g
           id="g29280"
           transform="translate(183.9785,2.8076)"><path
             d="m 0,0 c 0.005,0.104 0.007,0.21 0.007,0.315 l 0,89.225 c 0,2.521 -1.276,4.939 -3.617,7.185"
             style="fill:none;stroke:#231f20;stroke-width:1;stroke-linecap:round;stroke-linejoin:round;stroke-miterlimit:4;stroke-dasharray:none;stroke-opacity:1"
             id="path29282"
             inkscape:connector-curvature="0" /></g><g
           id="g29284"
           transform="translate(61.9365,99.5498)"><path
             d="m 0,0 c -2.354,-2.251 -3.636,-4.676 -3.636,-7.202 l 0,-89.225 c 0,-0.031 0,-0.061 0.001,-0.093"
             style="fill:none;stroke:#231f20;stroke-width:1;stroke-linecap:round;stroke-linejoin:round;stroke-miterlimit:4;stroke-dasharray:none;stroke-opacity:1"
             id="path29286"
             inkscape:connector-curvature="0" /></g><g
           id="g29288"
           transform="translate(79.2192,117.9653)"><path
             d="M 0,0 C -1.581,-1.016 -1.919,-2.371 -2.146,-3.5 -2.372,-4.629 -3.501,-8.243 -5.42,-9.485"
             style="fill:none;stroke:#231f20;stroke-width:1.5;stroke-linecap:round;stroke-linejoin:round;stroke-miterlimit:4;stroke-dasharray:none;stroke-opacity:1"
             id="path29290"
             inkscape:connector-curvature="0" /></g><g
           id="g29292"
           transform="translate(162.5391,118.3311)"><path
             d="M 0,0 C 1.875,-1.125 2.184,-1.76 2.404,-3.942 2.625,-6.125 3.375,-8.875 4.625,-9.75"
             style="fill:none;stroke:#231f20;stroke-width:1.5;stroke-linecap:round;stroke-linejoin:round;stroke-miterlimit:4;stroke-dasharray:none;stroke-opacity:1"
             id="path29294"
             inkscape:connector-curvature="0" /></g><g
           id="g29296"
           transform="translate(162.5811,115.2979)"><path
             d="m 0,0 0,67.283 -83.25,0 0,-67.283"
             style="fill:#ffffff;fill-opacity:1;fill-rule:nonzero;stroke:#231f20;stroke-width:1;stroke-linecap:round;stroke-linejoin:round;stroke-miterlimit:4;stroke-dasharray:none;stroke-opacity:1"
             id="path29298"
             inkscape:connector-curvature="0" /></g></g></g><g
       id="g29300"
       transform="translate(170.1641,106.6646)"><path
         d="M 0,0 20.667,17.667"
         style="fill:none;stroke:#ffffff;stroke-width:3;stroke-linecap:round;stroke-linejoin:round;stroke-miterlimit:4;stroke-dasharray:none;stroke-opacity:1"
         id="path29302"
         inkscape:connector-curvature="0" /></g><g
       id="g29304"><g
         id="g29306"
         clip-path="url(#clipPath29308)"><g
           id="g29312"
           transform="translate(170.042,105.4302)"><path
             d="M 0,0 C 0.681,0 1.233,0.553 1.233,1.234 1.233,1.916 0.681,2.467 0,2.467 -0.681,2.467 -1.233,1.916 -1.233,1.234 -1.233,0.553 -0.681,0 0,0"
             style="fill:#231f20;fill-opacity:1;fill-rule:nonzero;stroke:none"
             id="path29314"
             inkscape:connector-curvature="0" /></g><g
           id="g29316"
           transform="translate(170.042,105.4302)"><path
             d="M 0,0 C 0.681,0 1.233,0.553 1.233,1.234 1.233,1.916 0.681,2.467 0,2.467 -0.681,2.467 -1.233,1.916 -1.233,1.234 -1.233,0.553 -0.681,0 0,0 Z"
             style="fill:none;stroke:#ffffff;stroke-width:1;stroke-linecap:butt;stroke-linejoin:miter;stroke-miterlimit:4;stroke-dasharray:none;stroke-opacity:1"
             id="path29318"
             inkscape:connector-curvature="0" /></g><g
           id="g29320"
           transform="translate(170.1641,106.6646)"><path
             d="M 0,0 20.667,17.667"
             style="fill:none;stroke:#231f20;stroke-width:0.5;stroke-linecap:round;stroke-linejoin:round;stroke-miterlimit:4;stroke-dasharray:none;stroke-opacity:1"
             id="path29322"
             inkscape:connector-curvature="0" /></g></g></g><text
       transform="matrix(1,0,0,-1,192.165,123.8359)"
       style="font-variant:normal;font-weight:bold;font-stretch:normal;font-size:12px;font-family:Helvetica;-inkscape-font-specification:Helvetica-Bold;writing-mode:lr-tb;fill:#231f20;fill-opacity:1;fill-rule:nonzero;stroke:none"
       id="text29324"><tspan
         x="0"
         y="0"
         id="tspan29326">1</tspan></text>
<text
       transform="matrix(1,0,0,-1,3.8311,2.668)"
       style="font-variant:normal;font-weight:normal;font-stretch:normal;font-size:5px;font-family:Helvetica;-inkscape-font-specification:Helvetica;writing-mode:lr-tb;fill:#231f20;fill-opacity:1;fill-rule:nonzero;stroke:none"
       id="text29328"><tspan
         x="0 2.5 5.2800002 6.6700001 9.4499998 12.23"
         y="0"
         sodipodi:role="line"
         id="tspan29330">ceto_1</tspan></text>
<g
       id="g29332"><g
         id="g29334"
         clip-path="url(#clipPath29336)"><g
           id="g29340"
           transform="translate(87.3887,123.8237)"><path
             d="M 0,0 -24.403,11.988"
             style="fill:none;stroke:#ffffff;stroke-width:3;stroke-linecap:round;stroke-linejoin:round;stroke-miterlimit:4;stroke-dasharray:none;stroke-opacity:1"
             id="path29342"
             inkscape:connector-curvature="0" /></g><g
           id="g29344"
           transform="translate(88.5703,124.2002)"><path
             d="m 0,0 c -0.269,0.625 -0.996,0.914 -1.622,0.644 -0.626,-0.27 -0.913,-0.996 -0.643,-1.621 0.269,-0.625 0.994,-0.914 1.62,-0.645 C -0.019,-1.352 0.27,-0.625 0,0"
             style="fill:#231f20;fill-opacity:1;fill-rule:nonzero;stroke:none"
             id="path29346"
             inkscape:connector-curvature="0" /></g><g
           id="g29348"
           transform="translate(88.5703,124.2002)"><path
             d="m 0,0 c -0.269,0.625 -0.996,0.914 -1.622,0.644 -0.626,-0.27 -0.913,-0.996 -0.643,-1.621 0.269,-0.625 0.994,-0.914 1.62,-0.645 C -0.019,-1.352 0.27,-0.625 0,0 Z"
             style="fill:none;stroke:#ffffff;stroke-width:1;stroke-linecap:butt;stroke-linejoin:miter;stroke-miterlimit:4;stroke-dasharray:none;stroke-opacity:1"
             id="path29350"
             inkscape:connector-curvature="0" /></g><g
           id="g29352"
           transform="translate(87.3887,123.8237)"><path
             d="M 0,0 -24.403,11.988"
             style="fill:none;stroke:#231f20;stroke-width:0.5;stroke-linecap:round;stroke-linejoin:round;stroke-miterlimit:4;stroke-dasharray:none;stroke-opacity:1"
             id="path29354"
             inkscape:connector-curvature="0" /></g></g></g><text
       transform="matrix(1,0,0,-1,53.2773,135.8564)"
       style="font-variant:normal;font-weight:bold;font-stretch:normal;font-size:12px;font-family:Helvetica;-inkscape-font-specification:Helvetica-Bold;writing-mode:lr-tb;fill:#231f20;fill-opacity:1;fill-rule:nonzero;stroke:none"
       id="text29356"><tspan
         x="0"
         y="0"
         id="tspan29358">2</tspan></text>
</g></svg>