<?xml version="1.0" encoding="UTF-8" standalone="no"?>
<svg
   xmlns:dc="http://purl.org/dc/elements/1.1/"
   xmlns:cc="http://creativecommons.org/ns#"
   xmlns:rdf="http://www.w3.org/1999/02/22-rdf-syntax-ns#"
   xmlns:svg="http://www.w3.org/2000/svg"
   xmlns="http://www.w3.org/2000/svg"
   viewBox="0 0 301.18124 230.315"
   height="230.315"
   width="301.18124"
   xml:space="preserve"
   version="1.1"
   id="svg2"><metadata
     id="metadata8"><rdf:RDF><cc:Work
         rdf:about=""><dc:format>image/svg+xml</dc:format><dc:type
           rdf:resource="http://purl.org/dc/dcmitype/StillImage" /></cc:Work></rdf:RDF></metadata><defs
     id="defs6"><clipPath
       id="clipPath16"
       clipPathUnits="userSpaceOnUse"><path
         id="path18"
         d="m 0,0 240.945,0 0,184.252 L 0,184.252 0,0 Z" /></clipPath></defs><g
     transform="matrix(1.25,0,0,-1.25,0,230.315)"
     id="g10"><g
       id="g12"><g
         clip-path="url(#clipPath16)"
         id="g14"><g
           transform="translate(59.5859,41.4844)"
           id="g20"><path
             id="path22"
             style="fill:none;stroke:#000000;stroke-width:0.25;stroke-linecap:round;stroke-linejoin:round;stroke-miterlimit:10;stroke-dasharray:none;stroke-opacity:1"
             d="m 0,0 c 3.981,3.473 9.076,7.906 13.94,12.109 1.624,1.404 2.869,2.813 3.799,4.213" /></g><g
           transform="translate(52.2764,35.0938)"
           id="g24"><path
             id="path26"
             style="fill:none;stroke:#000000;stroke-width:0.25;stroke-linecap:round;stroke-linejoin:round;stroke-miterlimit:10;stroke-dasharray:none;stroke-opacity:1"
             d="M 0,0 C 0,0 1.89,1.656 4.819,4.216" /></g><g
           transform="translate(19.2764,-3.7812)"
           id="g28"><path
             id="path30"
             style="fill:none;stroke:#000000;stroke-width:0.25;stroke-linecap:round;stroke-linejoin:round;stroke-miterlimit:10;stroke-dasharray:none;stroke-opacity:1"
             d="m 0,0 c 0,0 2.875,14.5 5.25,22.125 2.375,7.625 7.5,7.75 10.375,10.25 2.875,2.5 28.75,23.75 36.125,29.625 1.048,0.835 1.914,1.697 2.62,2.58" /></g><g
           transform="translate(72.4922,62.2012)"
           id="g32"><path
             id="path34"
             style="fill:none;stroke:#000000;stroke-width:0.5;stroke-linecap:round;stroke-linejoin:round;stroke-miterlimit:10;stroke-dasharray:none;stroke-opacity:1"
             d="m 0,0 c -0.329,-0.469 -0.716,-0.891 -1.171,-1.253 -3.616,-2.873 -33.545,-26.104 -36.42,-27.979 -2.875,-1.875 -3.625,-2.625 -7.5,-3.25 -3.875,-0.625 -26.125,-4.25 -31.125,-10.875" /></g><g
           transform="translate(62.5679,38.3438)"
           id="g36"><path
             id="path38"
             style="fill:none;stroke:#000000;stroke-width:0.5;stroke-linecap:round;stroke-linejoin:round;stroke-miterlimit:10;stroke-dasharray:none;stroke-opacity:1"
             d="M 0,0 C 0,0 -5.833,1.167 -6.167,-2 -6.5,-5.167 -6.833,-9 -6.833,-9" /></g><g
           transform="translate(56.9014,38.0107)"
           id="g40"><path
             id="path42"
             style="fill:none;stroke:#000000;stroke-width:0.5;stroke-linecap:round;stroke-linejoin:round;stroke-miterlimit:10;stroke-dasharray:none;stroke-opacity:1"
             d="M 0,0 C 0,0 0.333,0.834 0.5,2.167 0.667,3.5 5.333,3.667 5.333,2.5 5.333,1.333 5.5,0.333 5.5,0.333" /></g><g
           transform="translate(62.2349,41.3438)"
           id="g44"><path
             id="path46"
             style="fill:none;stroke:#000000;stroke-width:0.5;stroke-linecap:round;stroke-linejoin:round;stroke-miterlimit:10;stroke-dasharray:none;stroke-opacity:1"
             d="M 0,0 C 2,2.834 3.415,3.82 5.915,3.987" /></g><g
           transform="translate(73.2178,44.0576)"
           id="g48"><path
             id="path50"
             style="fill:none;stroke:#000000;stroke-width:0.5;stroke-linecap:round;stroke-linejoin:round;stroke-miterlimit:10;stroke-dasharray:none;stroke-opacity:1"
             d="M 0,0 C -0.161,0.596 -0.331,1.043 -0.627,1.206 -0.971,1.395 -1.638,1.326 -2.611,1.004 -4.649,0.324 -5.073,-0.394 -4.873,-3.489" /></g><g
           transform="translate(67.1201,39.5371)"
           id="g52"><path
             id="path54"
             style="fill:none;stroke:#000000;stroke-width:0.5;stroke-linecap:round;stroke-linejoin:round;stroke-miterlimit:10;stroke-dasharray:none;stroke-opacity:1"
             d="M 0,0 C -0.337,3.941 -0.068,5.709 3.076,6.757 4.463,7.22 5.396,7.252 6.099,6.865 6.689,6.539 6.994,5.991 7.215,5.324" /></g><g
           transform="translate(81.6382,54.3652)"
           id="g56"><path
             id="path58"
             style="fill:none;stroke:#000000;stroke-width:0.5;stroke-linecap:round;stroke-linejoin:round;stroke-miterlimit:10;stroke-dasharray:none;stroke-opacity:1"
             d="M 0,0 C -2.888,-2.221 -9.57,-7.687 -9.57,-7.687" /></g><g
           transform="translate(56.4014,37.5938)"
           id="g60"><path
             id="path62"
             style="fill:none;stroke:#000000;stroke-width:0.5;stroke-linecap:round;stroke-linejoin:round;stroke-miterlimit:10;stroke-dasharray:none;stroke-opacity:1"
             d="m 0,0 c -1.75,-1.5 -5,-2.875 -7,-4.125 -2,-1.25 -6.5,-5.125 -10,-7.75 -3.5,-2.625 -4.625,-3.5 -7.25,-5 -2.625,-1.5 -3.625,-3.25 -4.875,-8.75 -1.25,-5.5 -3.75,-16.125 -3.75,-16.125" /></g><g
           transform="translate(30.5264,19.0938)"
           id="g64"><path
             id="path66"
             style="fill:none;stroke:#000000;stroke-width:0.5;stroke-linecap:round;stroke-linejoin:round;stroke-miterlimit:10;stroke-dasharray:none;stroke-opacity:1"
             d="m 0,0 c 0,0 -0.125,0.125 2.375,0 3.678,-0.184 1.428,-14.703 -1.625,-14.5 -1.875,0.125 -5.375,0.125 -5.375,0.125" /></g><g
           transform="translate(250.4014,-58.6563)"
           id="g68"><path
             id="path70"
             style="fill:none;stroke:#000000;stroke-width:0.5;stroke-linecap:round;stroke-linejoin:round;stroke-miterlimit:10;stroke-dasharray:none;stroke-opacity:1"
             d="M 0,0 C 0,60.613 -45.388,109.75 -101.375,109.75 -157.363,109.75 -202.75,60.613 -202.75,0" /></g><g
           transform="translate(252.1025,-58.6563)"
           id="g72"><path
             id="path74"
             style="fill:none;stroke:#000000;stroke-width:0.25;stroke-linecap:round;stroke-linejoin:round;stroke-miterlimit:10;stroke-dasharray:none;stroke-opacity:1"
             d="M 0,0 C 0,61.884 -46.34,112.051 -103.501,112.051 -160.663,112.051 -207.002,61.884 -207.002,0" /></g><g
           transform="translate(259.5664,-58.6563)"
           id="g76"><path
             id="path78"
             style="fill:none;stroke:#000000;stroke-width:0.25;stroke-linecap:round;stroke-linejoin:round;stroke-miterlimit:10;stroke-dasharray:none;stroke-opacity:1"
             d="M 0,0 C 0,66.346 -49.682,120.131 -110.965,120.131 -172.249,120.131 -221.929,66.346 -221.929,0" /></g><g
           transform="translate(259.5664,-58.6416)"
           id="g80"><path
             id="path82"
             style="fill:none;stroke:#000000;stroke-width:0.5;stroke-linecap:round;stroke-linejoin:round;stroke-miterlimit:10;stroke-dasharray:none;stroke-opacity:1"
             d="M 0,0 C 0,68.284 -53.503,123.642 -119.5,123.642 -185.499,123.642 -238.999,68.284 -238.999,0" /></g><g
           transform="translate(244.8506,-58.6563)"
           id="g84"><path
             id="path86"
             style="fill:none;stroke:#000000;stroke-width:0.25;stroke-linecap:round;stroke-linejoin:round;stroke-miterlimit:10;stroke-dasharray:none;stroke-opacity:1"
             d="m 0,0 c 0,57.295 -42.902,103.74 -95.824,103.74 -52.923,0 -95.824,-46.445 -95.824,-103.74" /></g><g
           transform="translate(78.7349,51.6768)"
           id="g88"><path
             id="path90"
             style="fill:none;stroke:#000000;stroke-width:0.5;stroke-linecap:round;stroke-linejoin:round;stroke-miterlimit:10;stroke-dasharray:none;stroke-opacity:1"
             d="M 0,0 6.333,-0.5" /></g><g
           transform="translate(82.9014,51.1768)"
           id="g92"><path
             id="path94"
             style="fill:none;stroke:#000000;stroke-width:0.5;stroke-linecap:round;stroke-linejoin:round;stroke-miterlimit:10;stroke-dasharray:none;stroke-opacity:1"
             d="m 0,0 0,1.167 -1.667,1.5" /></g><g
           transform="translate(55.2349,59.6768)"
           id="g96"><path
             id="path98"
             style="fill:none;stroke:#000000;stroke-width:0.5;stroke-linecap:round;stroke-linejoin:round;stroke-miterlimit:10;stroke-dasharray:none;stroke-opacity:1"
             d="m 0,0 c -1,-2.666 -0.167,-3.999 -1,-4.666 -0.833,-0.667 -17.667,-9.666 -19.333,-10.5 -1.667,-0.834 -2.834,-0.167 -2.834,-0.167" /></g><g
           transform="translate(-3.9321,57.1768)"
           id="g100"><path
             id="path102"
             style="fill:none;stroke:#000000;stroke-width:0.5;stroke-linecap:round;stroke-linejoin:round;stroke-miterlimit:10;stroke-dasharray:none;stroke-opacity:1"
             d="m 0,0 c 13,2.334 26.333,0.5 28.5,-4 2.167,-4.5 3.334,-4.832 4.167,-5.166" /></g><g
           transform="translate(6.5679,48.0107)"
           id="g104"><path
             id="path106"
             style="fill:none;stroke:#000000;stroke-width:0.5;stroke-linecap:round;stroke-linejoin:round;stroke-miterlimit:10;stroke-dasharray:none;stroke-opacity:1"
             d="M 0,0 35.333,0.166" /></g><g
           transform="translate(32.0679,48.3438)"
           id="g108"><path
             id="path110"
             style="fill:none;stroke:#000000;stroke-width:0.5;stroke-linecap:round;stroke-linejoin:round;stroke-miterlimit:10;stroke-dasharray:none;stroke-opacity:1"
             d="m 0,0 c 1.819,3.641 2.921,6.066 7.333,8.5 5.923,2.491 10.312,3.43 15.167,3.667" /></g><g
           transform="translate(37.7349,48.3438)"
           id="g112"><path
             id="path114"
             style="fill:none;stroke:#000000;stroke-width:0.25;stroke-linecap:round;stroke-linejoin:round;stroke-miterlimit:10;stroke-dasharray:none;stroke-opacity:1"
             d="M 0,0 2,1.167 6.167,1.333" /></g><g
           transform="translate(39.7349,49.5107)"
           id="g116"><path
             id="path118"
             style="fill:none;stroke:#000000;stroke-width:0.25;stroke-linecap:round;stroke-linejoin:round;stroke-miterlimit:10;stroke-dasharray:none;stroke-opacity:1"
             d="M 0,0 -0.333,7.333" /></g><g
           transform="translate(54.7349,55.6768)"
           id="g120"><path
             id="path122"
             style="fill:none;stroke:#000000;stroke-width:0.25;stroke-linecap:round;stroke-linejoin:round;stroke-miterlimit:10;stroke-dasharray:none;stroke-opacity:1"
             d="M 0,0 C 0,-2.833 1.667,-5.166 1.667,-5.166" /></g><g
           transform="translate(34.0679,44.0107)"
           id="g124"><path
             id="path126"
             style="fill:none;stroke:#000000;stroke-width:0.25;stroke-linecap:round;stroke-linejoin:round;stroke-miterlimit:10;stroke-dasharray:none;stroke-opacity:1"
             d="M 0,0 C -3.5,-1.5 -2.166,-8.5 0.167,-8.5 2.5,-8.5 4,-8.334 4,-8.334" /></g><g
           transform="translate(30.9014,44.8438)"
           id="g128"><path
             id="path130"
             style="fill:none;stroke:#000000;stroke-width:0.25;stroke-linecap:round;stroke-linejoin:round;stroke-miterlimit:10;stroke-dasharray:none;stroke-opacity:1"
             d="M 0,0 C -4,-0.167 -2.333,-11.167 1.333,-11.167 L 5,-11" /></g><g
           transform="translate(24.5679,53.1768)"
           id="g132"><path
             id="path134"
             style="fill:none;stroke:#000000;stroke-width:0.5;stroke-linecap:round;stroke-linejoin:round;stroke-miterlimit:10;stroke-dasharray:none;stroke-opacity:1"
             d="M 0,0 C 0,0 0.5,2.834 -1.167,5.834 -2.833,8.834 -5.166,11 -4,15.667 -2.833,20.334 1.667,37.334 1.667,37.334" /></g><g
           transform="translate(35.2148,115.0117)"
           id="g136"><path
             id="path138"
             style="fill:none;stroke:#000000;stroke-width:0.5;stroke-linecap:round;stroke-linejoin:round;stroke-miterlimit:10;stroke-dasharray:none;stroke-opacity:1"
             d="m 0,0 c 0,0 -6.174,0.629 -6.86,0.629 -0.685,0 -1.6,0.629 -3.83,4.573 -2.229,3.944 -7.26,8.461 -14.52,6.803 C -32.47,10.347 -35.385,4.229 -35.957,2" /></g><g
           transform="translate(3.4883,123.8145)"
           id="g140"><path
             id="path142"
             style="fill:none;stroke:#000000;stroke-width:0.5;stroke-linecap:round;stroke-linejoin:round;stroke-miterlimit:10;stroke-dasharray:none;stroke-opacity:1"
             d="M 0,0 C 1.143,4.002 8.346,6.289 12.919,3.202" /></g><g
           transform="translate(22.0684,74.0098)"
           id="g144"><path
             id="path146"
             style="fill:none;stroke:#000000;stroke-width:0.5;stroke-linecap:round;stroke-linejoin:round;stroke-miterlimit:10;stroke-dasharray:none;stroke-opacity:1"
             d="M 0,0 16.083,-1.667" /></g><g
           transform="translate(-2.2236,106.4688)"
           id="g148"><path
             id="path150"
             style="fill:none;stroke:#000000;stroke-width:0.25;stroke-linecap:round;stroke-linejoin:round;stroke-miterlimit:10;stroke-dasharray:none;stroke-opacity:1"
             d="m 0,0 c 0,0 2.625,2.75 8.125,7.75 5.5,5 18.875,4.625 22.125,-2.625" /></g><g
           transform="translate(-2.7236,59.0938)"
           id="g152"><path
             id="path154"
             style="fill:none;stroke:#000000;stroke-width:0.25;stroke-linecap:round;stroke-linejoin:round;stroke-miterlimit:10;stroke-dasharray:none;stroke-opacity:1"
             d="M 0,0 C 9.625,2.5 23.375,1 26,-4.5" /></g><g
           transform="translate(-3.3486,60.9688)"
           id="g156"><path
             id="path158"
             style="fill:none;stroke:#000000;stroke-width:0.25;stroke-linecap:round;stroke-linejoin:round;stroke-miterlimit:10;stroke-dasharray:none;stroke-opacity:1"
             d="M 0,0 C 13.625,3.625 25.125,0 27.75,-5.125" /></g><g
           transform="translate(-4.7236,80.8438)"
           id="g160"><path
             id="path162"
             style="fill:none;stroke:#000000;stroke-width:0.25;stroke-linecap:round;stroke-linejoin:round;stroke-miterlimit:10;stroke-dasharray:none;stroke-opacity:1"
             d="M 0,0 C 9.625,-10.875 21.375,-19.25 24.75,-13.125" /></g><g
           transform="translate(-4.7236,71.8438)"
           id="g164"><path
             id="path166"
             style="fill:none;stroke:#000000;stroke-width:0.25;stroke-linecap:round;stroke-linejoin:round;stroke-miterlimit:10;stroke-dasharray:none;stroke-opacity:1"
             d="M 0,0 C 12.625,-5.625 17.375,-12.25 25,-7.625" /></g><g
           transform="translate(-11.0356,41.9492)"
           id="g168"><path
             id="path170"
             style="fill:none;stroke:#000000;stroke-width:0.5;stroke-linecap:round;stroke-linejoin:round;stroke-miterlimit:10;stroke-dasharray:none;stroke-opacity:1"
             d="m 0,0 c -2.37,2.723 -1.656,7.225 1.594,10.053 3.25,2.828 7.806,2.912 10.176,0.189 l 3.014,-3.551" /></g><g
           transform="translate(3.7021,48.6572)"
           id="g172"><path
             id="path174"
             style="fill:none;stroke:#000000;stroke-width:0.25;stroke-linecap:round;stroke-linejoin:round;stroke-miterlimit:10;stroke-dasharray:none;stroke-opacity:1"
             d="M 0,0 C 2.369,-2.724 1.656,-7.224 -1.594,-10.052 -4.845,-12.88 -9.4,-12.965 -11.77,-10.242" /></g><g
           transform="translate(0.3125,52.4805)"
           id="g176"><path
             id="path178"
             style="fill:none;stroke:#000000;stroke-width:0.25;stroke-linecap:round;stroke-linejoin:round;stroke-miterlimit:10;stroke-dasharray:none;stroke-opacity:1"
             d="M 0,0 C 2.369,-2.724 1.656,-7.224 -1.594,-10.052 -4.845,-12.88 -9.4,-12.965 -11.77,-10.242" /></g><g
           transform="translate(4.7095,48.6729)"
           id="g180"><path
             id="path182"
             style="fill:none;stroke:#000000;stroke-width:0.25;stroke-linecap:round;stroke-linejoin:round;stroke-miterlimit:10;stroke-dasharray:none;stroke-opacity:1"
             d="m 0,0 c 2.605,-2.994 1.821,-7.942 -1.753,-11.052 -3.573,-3.109 -8.582,-3.203 -11.187,-0.209" /></g><g
           transform="translate(8.2905,46.0615)"
           id="g184"><path
             id="path186"
             style="fill:none;stroke:#000000;stroke-width:0.25;stroke-linecap:round;stroke-linejoin:round;stroke-miterlimit:10;stroke-dasharray:none;stroke-opacity:1"
             d="m 0,0 c 2.876,-3.305 2.01,-8.768 -1.936,-12.199 -3.944,-3.433 -9.473,-3.536 -12.349,-0.232" /></g><g
           transform="translate(15.1982,40.959)"
           id="g188"><path
             id="path190"
             style="fill:none;stroke:#000000;stroke-width:0.5;stroke-linecap:round;stroke-linejoin:round;stroke-miterlimit:10;stroke-dasharray:none;stroke-opacity:1"
             d="m 0,0 c -0.66,-0.142 -3.487,2.733 -4.382,3.44 -0.895,0.707 -1.508,1.414 -2.526,1.663 0,0 -3.034,2.626 -4.165,3.333 -1.131,0.706 -1.65,0.989 -1.65,0.989" /></g><g
           transform="translate(10.1562,45.0117)"
           id="g192"><path
             id="path194"
             style="fill:none;stroke:#000000;stroke-width:0.25;stroke-linecap:round;stroke-linejoin:round;stroke-miterlimit:10;stroke-dasharray:none;stroke-opacity:1"
             d="m 0,0 c 0.896,-0.848 1.131,-3.439 1.084,-5.324 -0.047,-1.885 -0.848,-6.127 -4.429,-8.059 -3.582,-1.931 -5.372,-3.062 -6.597,-3.628 -1.225,-0.565 -1.037,-2.074 -1.225,-3.11" /></g><g
           transform="translate(14.4917,40.9121)"
           id="g196"><path
             id="path198"
             style="fill:none;stroke:#000000;stroke-width:0.25;stroke-linecap:round;stroke-linejoin:round;stroke-miterlimit:10;stroke-dasharray:none;stroke-opacity:1"
             d="M 0,0 C 0,0 0.33,-6.078 0.141,-7.869 -0.047,-9.66 0.235,-10.744 -2.121,-12.11" /></g><g
           transform="translate(15.7642,40.7705)"
           id="g200"><path
             id="path202"
             style="fill:none;stroke:#000000;stroke-width:0.25;stroke-linecap:round;stroke-linejoin:round;stroke-miterlimit:10;stroke-dasharray:none;stroke-opacity:1"
             d="M 0,0 C 0.235,-0.518 0.565,-0.611 0.518,-3.345 0.471,-6.078 0.942,-9.659 -0.33,-11.12" /></g><g
           transform="translate(201.0977,107.0322)"
           id="g204"><path
             id="path206"
             style="fill:none;stroke:#000000;stroke-width:0.5;stroke-linecap:round;stroke-linejoin:round;stroke-miterlimit:10;stroke-dasharray:none;stroke-opacity:1"
             d="m 0,0 c 5.054,1.17 11.761,0.81 16.554,-0.188 6,-1.25 25.25,-3.5 25.25,-3.5" /></g><g
           transform="translate(203.6143,87.1494)"
           id="g208"><path
             id="path210"
             style="fill:none;stroke:#000000;stroke-width:0.5;stroke-linecap:round;stroke-linejoin:round;stroke-miterlimit:10;stroke-dasharray:none;stroke-opacity:1"
             d="M 0,0 C 2.161,-0.295 28.955,-5.807 28.955,-5.807" /></g><g
           transform="translate(202.3379,76.3467)"
           id="g212"><path
             id="path214"
             style="fill:none;stroke:#000000;stroke-width:0.5;stroke-linecap:round;stroke-linejoin:round;stroke-miterlimit:10;stroke-dasharray:none;stroke-opacity:1"
             d="M 0,0 C 2.651,-0.294 28.185,-5.597 28.185,-5.597" /></g><g
           transform="translate(189.1787,63.2871)"
           id="g216"><path
             id="path218"
             style="fill:none;stroke:#000000;stroke-width:0.5;stroke-linecap:round;stroke-linejoin:round;stroke-miterlimit:10;stroke-dasharray:none;stroke-opacity:1"
             d="m 0,0 c 10.017,-0.295 17.087,-4.42 17.382,-8.839 0,0 0.883,-4.81 -0.786,-6.579" /></g><g
           transform="translate(205.5781,50.9131)"
           id="g220"><path
             id="path222"
             style="fill:none;stroke:#000000;stroke-width:0.5;stroke-linecap:round;stroke-linejoin:round;stroke-miterlimit:10;stroke-dasharray:none;stroke-opacity:1"
             d="M 0,0 0.099,-6.089" /></g><g
           transform="translate(187.2148,55.1357)"
           id="g224"><path
             id="path226"
             style="fill:none;stroke:#000000;stroke-width:0.25;stroke-linecap:round;stroke-linejoin:round;stroke-miterlimit:10;stroke-dasharray:none;stroke-opacity:1"
             d="M 0,0 C 9.034,-0.393 17.382,-3.635 18.462,-8.151" /></g><g
           transform="translate(185.0537,60.832)"
           id="g228"><path
             id="path230"
             style="fill:none;stroke:#000000;stroke-width:0.25;stroke-linecap:round;stroke-linejoin:round;stroke-miterlimit:10;stroke-dasharray:none;stroke-opacity:1"
             d="M 0,0 C 8.937,-0.197 20.82,-2.555 21.802,-10.018" /></g><g
           transform="translate(184.2686,60.3408)"
           id="g232"><path
             id="path234"
             style="fill:none;stroke:#000000;stroke-width:0.25;stroke-linecap:round;stroke-linejoin:round;stroke-miterlimit:10;stroke-dasharray:none;stroke-opacity:1"
             d="M 0,0 C 9.133,-0.393 21.016,-3.143 21.212,-8.937" /></g><g
           transform="translate(195.7578,67.1162)"
           id="g236"><path
             id="path238"
             style="fill:none;stroke:#000000;stroke-width:0.5;stroke-linecap:round;stroke-linejoin:round;stroke-miterlimit:10;stroke-dasharray:none;stroke-opacity:1"
             d="M 0,0 2.259,-0.687 4.125,-5.598" /></g><g
           transform="translate(198.0166,66.4287)"
           id="g240"><path
             id="path242"
             style="fill:none;stroke:#000000;stroke-width:0.25;stroke-linecap:round;stroke-linejoin:round;stroke-miterlimit:10;stroke-dasharray:none;stroke-opacity:1"
             d="M 0,0 -0.196,-4.32" /></g><g
           transform="translate(230.54,68.5479)"
           id="g244"><path
             id="path246"
             style="fill:none;stroke:#000000;stroke-width:0.25;stroke-linecap:round;stroke-linejoin:round;stroke-miterlimit:10;stroke-dasharray:none;stroke-opacity:1"
             d="m 0,0 c 0.828,-0.162 1.768,0.718 2.572,2.229 l 9.19,-1.786" /></g><g
           transform="translate(233.3916,83.1992)"
           id="g248"><path
             id="path250"
             style="fill:none;stroke:#000000;stroke-width:0.25;stroke-linecap:round;stroke-linejoin:round;stroke-miterlimit:10;stroke-dasharray:none;stroke-opacity:1"
             d="m 0,0 c 1.11,-0.215 1.705,-2.246 1.602,-4.956 l 9.539,-1.853" /></g><g
           transform="translate(229.0967,70.8486)"
           id="g252"><path
             id="path254"
             style="fill:none;stroke:#000000;stroke-width:0.5;stroke-linecap:round;stroke-linejoin:round;stroke-miterlimit:10;stroke-dasharray:none;stroke-opacity:1"
             d="m 0,0 c 0.244,-1.302 0.74,-2.165 1.443,-2.301 l 10.099,-1.963 c 1.481,-0.289 3.322,2.758 4.11,6.804 0.786,4.046 0.223,7.561 -1.259,7.849 L 4.295,12.351 c -0.673,0.13 -1.418,-0.425 -2.106,-1.45" /></g><g
           transform="translate(240.834,81.877)"
           id="g256"><path
             id="path258"
             style="fill:none;stroke:#000000;stroke-width:0.5;stroke-linecap:round;stroke-linejoin:round;stroke-miterlimit:10;stroke-dasharray:none;stroke-opacity:1"
             d="M 0,0 C 1.57,3.405 3.519,5.471 5.212,5.142 7.905,4.617 8.93,-1.77 7.499,-9.123 6.067,-16.475 2.725,-22.013 0.031,-21.486 c -1.682,0.326 -2.714,2.943 -2.9,6.655" /></g><g
           transform="translate(230.9307,70.5508)"
           id="g260"><path
             id="path262"
             style="fill:none;stroke:#000000;stroke-width:0.5;stroke-linecap:round;stroke-linejoin:round;stroke-miterlimit:10;stroke-dasharray:none;stroke-opacity:1"
             d="M 0,0 C 0.616,-0.12 1.318,0.553 1.912,1.701 L 12.22,-0.302" /></g><g
           transform="translate(244.5967,75.0693)"
           id="g264"><path
             id="path266"
             style="fill:none;stroke:#000000;stroke-width:0.5;stroke-linecap:round;stroke-linejoin:round;stroke-miterlimit:10;stroke-dasharray:none;stroke-opacity:1"
             d="m 0,0 -10.461,2.033 c 0.174,2.211 -0.262,3.923 -1.135,4.093" /></g><g
           transform="translate(231.6475,81.4834)"
           id="g268"><path
             id="path270"
             style="fill:none;stroke:#000000;stroke-width:0.25;stroke-linecap:round;stroke-linejoin:round;stroke-miterlimit:10;stroke-dasharray:none;stroke-opacity:1"
             d="M 0,0 C 1.086,-0.152 1.631,-2.68 1.217,-5.645 0.802,-8.611 -0.415,-10.893 -1.502,-10.74" /></g><g
           transform="translate(233.1123,70.7764)"
           id="g272"><path
             id="path274"
             style="fill:none;stroke:#000000;stroke-width:0.25;stroke-linecap:round;stroke-linejoin:round;stroke-miterlimit:10;stroke-dasharray:none;stroke-opacity:1"
             d="M 0,0 -0.27,1.476" /></g><g
           transform="translate(234.9932,78.2432)"
           id="g276"><path
             id="path278"
             style="fill:none;stroke:#000000;stroke-width:0.25;stroke-linecap:round;stroke-linejoin:round;stroke-miterlimit:10;stroke-dasharray:none;stroke-opacity:1"
             d="M 0,0 -0.857,-1.141" /></g><g
           transform="translate(230.9023,68.1758)"
           id="g280"><path
             id="path282"
             style="fill:none;stroke:#000000;stroke-width:0.5;stroke-linecap:round;stroke-linejoin:round;stroke-miterlimit:10;stroke-dasharray:none;stroke-opacity:1"
             d="M 0,0 C 0.417,-3.25 2.999,-6.667 8.083,-6.25" /></g><g
           transform="translate(227.7354,71.1758)"
           id="g284"><path
             id="path286"
             style="fill:none;stroke:#000000;stroke-width:0.5;stroke-linecap:round;stroke-linejoin:round;stroke-miterlimit:10;stroke-dasharray:none;stroke-opacity:1"
             d="M 0,0 C -0.25,-3.25 1.5,-5.749 4,-5.916" /></g><g
           transform="translate(50.4268,113.6074)"
           id="g288"><path
             id="path290"
             style="fill:none;stroke:#000000;stroke-width:0.25;stroke-linecap:round;stroke-linejoin:round;stroke-miterlimit:10;stroke-dasharray:none;stroke-opacity:1"
             d="M 0,0 C -0.48,-2.272 -2.52,-3.457 -5.99,-3.991 -9.549,-4.539 -26.113,-6.182 -25.429,-18.365" /></g><g
           transform="translate(176.4014,59.3438)"
           id="g292"><path
             id="path294"
             style="fill:none;stroke:#000000;stroke-width:1;stroke-linecap:round;stroke-linejoin:round;stroke-miterlimit:10;stroke-dasharray:none;stroke-opacity:1"
             d="M 0,0 C 0,0 5.5,2.333 10.5,9.166 15.5,15.999 23.167,43.5 24,47 c 0.833,3.5 2.167,9.5 0.442,20.129 -4.367,26.914 -41.464,43.351 -83.037,36.739 -35.734,-5.709 -63.406,-26.525 -67.346,-49.429 -0.01,-0.059 -0.021,-0.118 -0.034,-0.175 0,0 -2.525,-3.764 -0.025,-7.764 2.5,-4 7.5,-13.168 9.167,-16.334 1.666,-3.166 2.166,-5 2.5,-8.333 0.333,-3.333 1.666,-6.666 3.833,-11.333 2.167,-4.667 19,-18.5 19,-18.5" /></g><g
           transform="translate(200.8437,126.4727)"
           id="g296"><path
             id="path298"
             style="fill:none;stroke:#000000;stroke-width:0.5;stroke-linecap:round;stroke-linejoin:round;stroke-miterlimit:10;stroke-dasharray:none;stroke-opacity:1"
             d="m 0,0 -0.788,4.948 c -1.48,9.316 -6.925,17.339 -15.074,23.656 -11.228,8.703 -32.722,22.753 -71.643,16.551 -38.92,-6.202 -51.653,-28.473 -58.655,-39.865 -2.244,-3.651 -3.666,-7.517 -4.729,-11.377 -0.59,-2.145 -2.324,-3.515 -5.153,-3.697 -2.829,-0.183 -19.804,-1.369 -19.986,-12.046 -0.182,-10.678 -0.456,-10.77 4.107,-19.348 4.563,-8.578 11.317,-16.701 22.45,-22.724 11.134,-6.024 11.59,-6.205 12.958,-6.936" /></g><g
           transform="translate(54.6836,131.7627)"
           id="g300"><path
             id="path302"
             style="fill:none;stroke:#000000;stroke-width:0.25;stroke-linecap:round;stroke-linejoin:round;stroke-miterlimit:10;stroke-dasharray:none;stroke-opacity:1"
             d="m 0,0 c 10.227,17.372 33.563,31.801 62.335,36.397 27.189,4.325 52.505,-1.205 67.963,-13.083" /></g><g
           transform="translate(198.3389,97.2109)"
           id="g304"><path
             id="path306"
             style="fill:none;stroke:#000000;stroke-width:0.5;stroke-linecap:round;stroke-linejoin:round;stroke-miterlimit:10;stroke-dasharray:none;stroke-opacity:1"
             d="M 0,0 C 1.318,-1.195 2.463,-2.692 3.112,-4.569 4.345,-8.128 4.345,-8.813 5.029,-10.866 5.713,-12.92 3.66,-16.068 3.66,-16.068" /></g><g
           transform="translate(201.8623,86.0713)"
           id="g308"><path
             id="path310"
             style="fill:none;stroke:#000000;stroke-width:0.5;stroke-linecap:round;stroke-linejoin:round;stroke-miterlimit:10;stroke-dasharray:none;stroke-opacity:1"
             d="m 0,0 c 0,0 0.273,-5.476 0.41,-8.762 0.137,-3.285 0,-4.927 -5.886,-9.308 -3.217,-2.232 -9.872,-6.161 -16.628,-9.868" /></g><g
           transform="translate(196.9697,92.457)"
           id="g312"><path
             id="path314"
             style="fill:none;stroke:#000000;stroke-width:0.25;stroke-linecap:round;stroke-linejoin:round;stroke-miterlimit:10;stroke-dasharray:none;stroke-opacity:1"
             d="M 0,0 C 1.568,-1.053 3.031,-2.047 3.588,-2.458 4.998,-3.501 6.47,-5.648 6.47,-6.936" /></g><g
           transform="translate(196.8467,91.0039)"
           id="g316"><path
             id="path318"
             style="fill:none;stroke:#000000;stroke-width:0.25;stroke-linecap:round;stroke-linejoin:round;stroke-miterlimit:10;stroke-dasharray:none;stroke-opacity:1"
             d="M 0,0 C 2.785,-1.718 4.716,-3.316 4.753,-4.869" /></g><g
           transform="translate(190.9209,75.3027)"
           id="g320"><path
             id="path322"
             style="fill:none;stroke:#000000;stroke-width:0.25;stroke-linecap:round;stroke-linejoin:round;stroke-miterlimit:10;stroke-dasharray:none;stroke-opacity:1"
             d="M 0,0 C 4.939,0.189 10.314,0.742 10.941,2.235" /></g><g
           transform="translate(189.165,70.79)"
           id="g324"><path
             id="path326"
             style="fill:none;stroke:#000000;stroke-width:0.25;stroke-linecap:round;stroke-linejoin:round;stroke-miterlimit:10;stroke-dasharray:none;stroke-opacity:1"
             d="M 0,0 C 5.249,0.141 11.559,0.651 12.24,2.276" /></g><g
           transform="translate(28.6484,103.9121)"
           id="g328"><path
             id="path330"
             style="fill:none;stroke:#000000;stroke-width:0.25;stroke-linecap:round;stroke-linejoin:round;stroke-miterlimit:10;stroke-dasharray:none;stroke-opacity:1"
             d="m 0,0 c 0,0 0.365,-7.666 2.738,-8.214 1.914,-0.441 17.845,-5.16 28.245,-6.968" /></g><g
           transform="translate(29.3164,84.6426)"
           id="g332"><path
             id="path334"
             style="fill:none;stroke:#000000;stroke-width:0.25;stroke-linecap:round;stroke-linejoin:round;stroke-miterlimit:10;stroke-dasharray:none;stroke-opacity:1"
             d="M 0,0 C 0,0 -1.897,7.382 3.052,5.938 5.1,5.34 22.148,0.188 31.861,-1.076" /></g><g
           transform="translate(172.6816,60.1602)"
           id="g336"><path
             id="path338"
             style="fill:none;stroke:#000000;stroke-width:0.5;stroke-linecap:round;stroke-linejoin:round;stroke-miterlimit:10;stroke-dasharray:none;stroke-opacity:1"
             d="M 0,0 C 6.8,3.716 9.95,9.078 8.871,15.1 7.253,24.132 -4.555,35.21 -23.248,37.949 -56.563,42.834 -77.136,23.594 -80.689,18.404 -87.178,8.928 -84.501,-0.461 -80.877,-5.45" /></g><g
           transform="translate(89.188,53.2012)"
           id="g340"><path
             id="path342"
             style="fill:none;stroke:#000000;stroke-width:0.5;stroke-linecap:round;stroke-linejoin:round;stroke-miterlimit:10;stroke-dasharray:none;stroke-opacity:1"
             d="M 0,0 C -5.393,7.512 -6.447,18.109 0.622,27.422 10.469,40.394 34.241,51.745 60.681,47.877 78.595,45.251 93.163,34.616 95.318,22.588 96.497,16.011 93.708,10.152 87.428,5.854" /></g><g
           transform="translate(70.4014,64.8438)"
           id="g344"><path
             id="path346"
             style="fill:none;stroke:#000000;stroke-width:0.5;stroke-linecap:round;stroke-linejoin:round;stroke-miterlimit:10;stroke-dasharray:none;stroke-opacity:1"
             d="m 0,0 c -5.5,14.75 17,52.75 67.5,53.75 50.5,1 56.75,-32 52.25,-43.75" /></g><g
           transform="translate(123.3237,85.6221)"
           id="g348"><path
             id="path350"
             style="fill:none;stroke:#000000;stroke-width:0.5;stroke-linecap:round;stroke-linejoin:round;stroke-miterlimit:10;stroke-dasharray:none;stroke-opacity:1"
             d="m 0,0 c 0,-3.439 -3.792,-6.229 -8.47,-6.229 -4.678,0 -8.47,2.79 -8.47,6.229" /></g><g
           transform="translate(106.3833,85.6221)"
           id="g352"><path
             id="path354"
             style="fill:none;stroke:#000000;stroke-width:1;stroke-linecap:round;stroke-linejoin:round;stroke-miterlimit:10;stroke-dasharray:none;stroke-opacity:1"
             d="m 0,0 c 0,3.439 3.792,6.229 8.47,6.229 4.678,0 8.47,-2.79 8.47,-6.229" /></g><g
           transform="translate(172.9375,83.2676)"
           id="g356"><path
             id="path358"
             style="fill:none;stroke:#000000;stroke-width:0.5;stroke-linecap:round;stroke-linejoin:round;stroke-miterlimit:10;stroke-dasharray:none;stroke-opacity:1"
             d="m 0,0 c 0.046,-0.096 0.088,-0.193 0.126,-0.294 1.02,-2.705 -1.45,-6.143 -5.517,-7.675 -4.067,-1.533 -8.191,-0.582 -9.212,2.124" /></g><g
           transform="translate(158.335,77.4229)"
           id="g360"><path
             id="path362"
             style="fill:none;stroke:#000000;stroke-width:1;stroke-linecap:round;stroke-linejoin:round;stroke-miterlimit:10;stroke-dasharray:none;stroke-opacity:1"
             d="m 0,0 c -1.019,2.705 1.45,6.142 5.518,7.675 3.916,1.476 7.883,0.649 9.085,-1.83" /></g><g
           transform="translate(175.2295,82.4775)"
           id="g364"><path
             id="path366"
             style="fill:none;stroke:#000000;stroke-width:0.5;stroke-linecap:round;stroke-linejoin:round;stroke-miterlimit:10;stroke-dasharray:none;stroke-opacity:1"
             d="m 0,0 c 1.257,-3.33 -1.785,-7.562 -6.79,-9.447 -5.007,-1.888 -10.084,-0.717 -11.34,2.614 -1.254,3.33 1.785,7.56 6.792,9.447 C -6.332,4.502 -1.256,3.331 0,0 Z" /></g><g
           transform="translate(125.248,84.5957)"
           id="g368"><path
             id="path370"
             style="fill:none;stroke:#000000;stroke-width:0.5;stroke-linecap:round;stroke-linejoin:round;stroke-miterlimit:10;stroke-dasharray:none;stroke-opacity:1"
             d="m 0,0 c 0,-4.03 -4.442,-7.298 -9.924,-7.298 -5.481,0 -9.924,3.268 -9.924,7.298 0,4.029 4.443,7.298 9.924,7.298 C -4.442,7.298 0,4.029 0,0 Z" /></g><g
           transform="translate(117.2202,91.7266)"
           id="g372"><path
             id="path374"
             style="fill:none;stroke:#000000;stroke-width:1;stroke-linecap:round;stroke-linejoin:round;stroke-miterlimit:10;stroke-dasharray:none;stroke-opacity:1"
             d="m 0,0 c 0,-1.582 -2.119,-2.865 -4.733,-2.865 -1.476,0 -2.794,0.409 -3.662,1.05" /></g><g
           transform="translate(168.0439,85.7002)"
           id="g376"><path
             id="path378"
             style="fill:none;stroke:#000000;stroke-width:1;stroke-linecap:round;stroke-linejoin:round;stroke-miterlimit:10;stroke-dasharray:none;stroke-opacity:1"
             d="m 0,0 c -0.633,-1.132 -2.402,-1.946 -4.486,-1.946 -0.59,0 -1.155,0.065 -1.676,0.185" /></g></g></g><text
       id="text380"
       style="font-variant:normal;font-weight:normal;font-stretch:normal;font-size:4px;font-family:Helvetica;writing-mode:lr-tb;fill:#231f20;fill-opacity:1;fill-rule:nonzero;stroke:none"
       transform="matrix(1,0,0,-1,1.8071,2.3975)"><tspan
         id="tspan382"
         y="0"
         x="0 2 2.888 5.112">cjhe</tspan></text>
<g
       transform="translate(32.2344,155.8433)"
       id="g384"><path
         id="path386"
         style="fill:none;stroke:#ffffff;stroke-width:3;stroke-linecap:round;stroke-linejoin:miter;stroke-miterlimit:4;stroke-dasharray:none;stroke-opacity:1"
         d="M 0,0 32.333,-27.333" /></g><g
       transform="translate(64.5679,128.5107)"
       id="g388"><path
         id="path390"
         style="fill:none;stroke:#ffffff;stroke-width:3.75;stroke-linecap:round;stroke-linejoin:miter;stroke-miterlimit:4;stroke-dasharray:none;stroke-opacity:1"
         d="M 0,0 0,0" /></g><g
       transform="translate(32.2344,155.8433)"
       id="g392"><path
         id="path394"
         style="fill:none;stroke:#211f1f;stroke-width:0.5;stroke-linecap:round;stroke-linejoin:miter;stroke-miterlimit:4;stroke-dasharray:none;stroke-opacity:1"
         d="M 0,0 32.333,-27.333" /></g><g
       transform="translate(64.5679,128.5107)"
       id="g396"><path
         id="path398"
         style="fill:none;stroke:#211f1f;stroke-width:1.5;stroke-linecap:round;stroke-linejoin:miter;stroke-miterlimit:4;stroke-dasharray:none;stroke-opacity:1"
         d="M 0,0 0,0" /></g><g
       transform="translate(159.9014,20.8438)"
       id="g400"><path
         id="path402"
         style="fill:none;stroke:#ffffff;stroke-width:3;stroke-linecap:round;stroke-linejoin:miter;stroke-miterlimit:4;stroke-dasharray:none;stroke-opacity:1"
         d="M 0,0 -46.333,68.333" /></g><g
       transform="translate(113.5679,89.1768)"
       id="g404"><path
         id="path406"
         style="fill:none;stroke:#ffffff;stroke-width:3.75;stroke-linecap:round;stroke-linejoin:miter;stroke-miterlimit:4;stroke-dasharray:none;stroke-opacity:1"
         d="M 0,0 0,0" /></g><g
       transform="translate(113.5679,89.1768)"
       id="g408"><path
         id="path410"
         style="fill:none;stroke:#211f1f;stroke-width:1.5;stroke-linecap:round;stroke-linejoin:miter;stroke-miterlimit:4;stroke-dasharray:none;stroke-opacity:1"
         d="M 0,0 0,0" /></g><g
       transform="translate(159.9014,20.8438)"
       id="g412"><path
         id="path414"
         style="fill:none;stroke:#ffffff;stroke-width:3;stroke-linecap:round;stroke-linejoin:miter;stroke-miterlimit:4;stroke-dasharray:none;stroke-opacity:1"
         d="M 0,0 4.333,61.667" /></g><g
       transform="translate(164.2344,82.5107)"
       id="g416"><path
         id="path418"
         style="fill:none;stroke:#ffffff;stroke-width:3.75;stroke-linecap:round;stroke-linejoin:miter;stroke-miterlimit:4;stroke-dasharray:none;stroke-opacity:1"
         d="M 0,0 0,0" /></g><g
       transform="translate(159.9014,20.8438)"
       id="g420"><path
         id="path422"
         style="fill:none;stroke:#211f1f;stroke-width:0.5;stroke-linecap:round;stroke-linejoin:miter;stroke-miterlimit:4;stroke-dasharray:none;stroke-opacity:1"
         d="M 0,0 4.333,61.667" /></g><g
       transform="translate(164.2344,82.5107)"
       id="g424"><path
         id="path426"
         style="fill:none;stroke:#211f1f;stroke-width:1.5;stroke-linecap:round;stroke-linejoin:miter;stroke-miterlimit:4;stroke-dasharray:none;stroke-opacity:1"
         d="M 0,0 0,0" /></g><g
       transform="translate(159.9014,20.8438)"
       id="g428"><path
         id="path430"
         style="fill:none;stroke:#211f1f;stroke-width:0.5;stroke-linecap:round;stroke-linejoin:miter;stroke-miterlimit:4;stroke-dasharray:none;stroke-opacity:1"
         d="M 0,0 -46.333,68.333" /></g><text
       id="text432"
       style="font-variant:normal;font-weight:bold;font-stretch:normal;font-size:10px;font-family:Helvetica-Bold;writing-mode:lr-tb;fill:#231f20;fill-opacity:1;fill-rule:nonzero;stroke:none"
       transform="matrix(1,0,0,-1,27.0381,157.6538)"><tspan
         id="tspan434"
         y="0"
         x="0">2</tspan><tspan
         id="tspan436"
         y="145.67"
         x="130.67">1</tspan></text>
</g></svg>