<?xml version="1.0" encoding="UTF-8" standalone="no"?>
<svg
   xmlns:dc="http://purl.org/dc/elements/1.1/"
   xmlns:cc="http://creativecommons.org/ns#"
   xmlns:rdf="http://www.w3.org/1999/02/22-rdf-syntax-ns#"
   xmlns:svg="http://www.w3.org/2000/svg"
   xmlns="http://www.w3.org/2000/svg"
   viewBox="0 0 301.18124 230.31375"
   height="230.31375"
   width="301.18124"
   xml:space="preserve"
   version="1.1"
   id="svg2"><metadata
     id="metadata8"><rdf:RDF><cc:Work
         rdf:about=""><dc:format>image/svg+xml</dc:format><dc:type
           rdf:resource="http://purl.org/dc/dcmitype/StillImage" /></cc:Work></rdf:RDF></metadata><defs
     id="defs6"><clipPath
       id="clipPath318"
       clipPathUnits="userSpaceOnUse"><path
         id="path320"
         d="m 11.108,1.437 229.837,0 0,170.079 -229.837,0 0,-170.079 z" /></clipPath><clipPath
       id="clipPath330"
       clipPathUnits="userSpaceOnUse"><path
         id="path332"
         d="m 49.974,114.791 c 0,0 -3.06,-9.038 -3.06,-12.242 l 0,0 0,-35.012 30.099,0 0,35.012 c 0,3.204 -3.061,12.242 -3.061,12.242 l 0,0 -23.978,0 z" /></clipPath><clipPath
       id="clipPath386"
       clipPathUnits="userSpaceOnUse"><path
         id="path388"
         d="m 11.108,1.437 229.837,0 0,170.079 -229.837,0 0,-170.079 z" /></clipPath></defs><g
     transform="matrix(1.25,0,0,-1.25,0,230.31375)"
     id="g10"><g
       transform="translate(83.5107,116.9648)"
       id="g12"><path
         id="path14"
         style="fill:#ffffff;fill-opacity:1;fill-rule:nonzero;stroke:#231f20;stroke-width:1;stroke-linecap:round;stroke-linejoin:round;stroke-miterlimit:4;stroke-dasharray:none;stroke-opacity:1"
         d="m 0,0 2.684,-2.684 0,-13.553 L 0,-18.21" /></g><g
       transform="translate(39.7549,116.9648)"
       id="g16"><path
         id="path18"
         style="fill:#ffffff;fill-opacity:1;fill-rule:nonzero;stroke:#231f20;stroke-width:1;stroke-linecap:round;stroke-linejoin:round;stroke-miterlimit:4;stroke-dasharray:none;stroke-opacity:1"
         d="m 0,0 -2.683,-2.684 0,-13.553 L 0,-18.21" /></g><path
       id="path20"
       style="fill:none;stroke:#231f20;stroke-width:1;stroke-linecap:round;stroke-linejoin:round;stroke-miterlimit:4;stroke-dasharray:none;stroke-opacity:1"
       d="m 83.107,76.419 -6.095,0 0,52.573 6.095,0 0,-52.573 z" /><g
       transform="translate(77.0127,128.9922)"
       id="g22"><path
         id="path24"
         style="fill:none;stroke:#231f20;stroke-width:0.5;stroke-linecap:round;stroke-linejoin:round;stroke-miterlimit:4;stroke-dasharray:none;stroke-opacity:1"
         d="M 0,0 0,0 6.095,-4.973" /></g><g
       transform="translate(77.0127,123.7031)"
       id="g26"><path
         id="path28"
         style="fill:none;stroke:#231f20;stroke-width:0.5;stroke-linecap:round;stroke-linejoin:round;stroke-miterlimit:4;stroke-dasharray:none;stroke-opacity:1"
         d="M 0,0 0,0 6.095,-4.976" /></g><g
       transform="translate(77.0127,118.415)"
       id="g30"><path
         id="path32"
         style="fill:none;stroke:#231f20;stroke-width:0.5;stroke-linecap:round;stroke-linejoin:round;stroke-miterlimit:4;stroke-dasharray:none;stroke-opacity:1"
         d="M 0,0 0,0 6.095,-4.974" /></g><g
       transform="translate(77.0127,113.123)"
       id="g34"><path
         id="path36"
         style="fill:none;stroke:#231f20;stroke-width:0.5;stroke-linecap:round;stroke-linejoin:round;stroke-miterlimit:4;stroke-dasharray:none;stroke-opacity:1"
         d="M 0,0 0,0 6.095,-4.973" /></g><g
       transform="translate(77.0127,107.8369)"
       id="g38"><path
         id="path40"
         style="fill:none;stroke:#231f20;stroke-width:0.5;stroke-linecap:round;stroke-linejoin:round;stroke-miterlimit:4;stroke-dasharray:none;stroke-opacity:1"
         d="M 0,0 0,0 6.095,-4.973" /></g><g
       transform="translate(77.0127,102.5488)"
       id="g42"><path
         id="path44"
         style="fill:none;stroke:#231f20;stroke-width:0.5;stroke-linecap:round;stroke-linejoin:round;stroke-miterlimit:4;stroke-dasharray:none;stroke-opacity:1"
         d="M 0,0 0,0 6.095,-4.975" /></g><g
       transform="translate(77.0127,97.2578)"
       id="g46"><path
         id="path48"
         style="fill:none;stroke:#231f20;stroke-width:0.5;stroke-linecap:round;stroke-linejoin:round;stroke-miterlimit:4;stroke-dasharray:none;stroke-opacity:1"
         d="M 0,0 0,0 6.095,-4.973" /></g><g
       transform="translate(77.0127,91.9688)"
       id="g50"><path
         id="path52"
         style="fill:none;stroke:#231f20;stroke-width:0.5;stroke-linecap:round;stroke-linejoin:round;stroke-miterlimit:4;stroke-dasharray:none;stroke-opacity:1"
         d="M 0,0 0,0 6.095,-4.976" /></g><g
       transform="translate(77.0127,86.6797)"
       id="g54"><path
         id="path56"
         style="fill:none;stroke:#231f20;stroke-width:0.5;stroke-linecap:round;stroke-linejoin:round;stroke-miterlimit:4;stroke-dasharray:none;stroke-opacity:1"
         d="M 0,0 0,0 6.095,-4.973" /></g><g
       transform="translate(77.0127,81.3936)"
       id="g58"><path
         id="path60"
         style="fill:none;stroke:#231f20;stroke-width:0.5;stroke-linecap:round;stroke-linejoin:round;stroke-miterlimit:4;stroke-dasharray:none;stroke-opacity:1"
         d="M 0,0 0,0 6.095,-4.975" /></g><path
       id="path62"
       style="fill:none;stroke:#231f20;stroke-width:1;stroke-linecap:round;stroke-linejoin:round;stroke-miterlimit:4;stroke-dasharray:none;stroke-opacity:1"
       d="m 70.918,76.419 6.095,0 0,52.573 -6.095,0 0,-52.573 z" /><g
       transform="translate(77.0127,128.9922)"
       id="g64"><path
         id="path66"
         style="fill:none;stroke:#231f20;stroke-width:0.5;stroke-linecap:round;stroke-linejoin:round;stroke-miterlimit:4;stroke-dasharray:none;stroke-opacity:1"
         d="M 0,0 0,0 -6.095,-4.973" /></g><g
       transform="translate(77.0127,123.7031)"
       id="g68"><path
         id="path70"
         style="fill:none;stroke:#231f20;stroke-width:0.5;stroke-linecap:round;stroke-linejoin:round;stroke-miterlimit:4;stroke-dasharray:none;stroke-opacity:1"
         d="M 0,0 0,0 -6.095,-4.976" /></g><g
       transform="translate(77.0127,118.415)"
       id="g72"><path
         id="path74"
         style="fill:none;stroke:#231f20;stroke-width:0.5;stroke-linecap:round;stroke-linejoin:round;stroke-miterlimit:4;stroke-dasharray:none;stroke-opacity:1"
         d="M 0,0 0,0 -6.095,-4.974" /></g><g
       transform="translate(77.0127,113.123)"
       id="g76"><path
         id="path78"
         style="fill:none;stroke:#231f20;stroke-width:0.5;stroke-linecap:round;stroke-linejoin:round;stroke-miterlimit:4;stroke-dasharray:none;stroke-opacity:1"
         d="M 0,0 0,0 -6.095,-4.973" /></g><g
       transform="translate(77.0127,107.8369)"
       id="g80"><path
         id="path82"
         style="fill:none;stroke:#231f20;stroke-width:0.5;stroke-linecap:round;stroke-linejoin:round;stroke-miterlimit:4;stroke-dasharray:none;stroke-opacity:1"
         d="M 0,0 0,0 -6.095,-4.973" /></g><g
       transform="translate(77.0127,102.5488)"
       id="g84"><path
         id="path86"
         style="fill:none;stroke:#231f20;stroke-width:0.5;stroke-linecap:round;stroke-linejoin:round;stroke-miterlimit:4;stroke-dasharray:none;stroke-opacity:1"
         d="M 0,0 0,0 -6.095,-4.975" /></g><g
       transform="translate(77.0127,97.2578)"
       id="g88"><path
         id="path90"
         style="fill:none;stroke:#231f20;stroke-width:0.5;stroke-linecap:round;stroke-linejoin:round;stroke-miterlimit:4;stroke-dasharray:none;stroke-opacity:1"
         d="M 0,0 0,0 -6.095,-4.973" /></g><g
       transform="translate(77.0127,91.9688)"
       id="g92"><path
         id="path94"
         style="fill:none;stroke:#231f20;stroke-width:0.5;stroke-linecap:round;stroke-linejoin:round;stroke-miterlimit:4;stroke-dasharray:none;stroke-opacity:1"
         d="M 0,0 0,0 -6.095,-4.976" /></g><g
       transform="translate(77.0127,86.6797)"
       id="g96"><path
         id="path98"
         style="fill:none;stroke:#231f20;stroke-width:0.5;stroke-linecap:round;stroke-linejoin:round;stroke-miterlimit:4;stroke-dasharray:none;stroke-opacity:1"
         d="M 0,0 0,0 -6.095,-4.973" /></g><g
       transform="translate(77.0127,81.3936)"
       id="g100"><path
         id="path102"
         style="fill:none;stroke:#231f20;stroke-width:0.5;stroke-linecap:round;stroke-linejoin:round;stroke-miterlimit:4;stroke-dasharray:none;stroke-opacity:1"
         d="M 0,0 0,0 -6.095,-4.975" /></g><path
       id="path104"
       style="fill:none;stroke:#231f20;stroke-width:1;stroke-linecap:round;stroke-linejoin:round;stroke-miterlimit:4;stroke-dasharray:none;stroke-opacity:1"
       d="m 70.918,76.419 -6.094,0 0,52.573 6.094,0 0,-52.573 z" /><g
       transform="translate(64.8242,128.9922)"
       id="g106"><path
         id="path108"
         style="fill:none;stroke:#231f20;stroke-width:0.5;stroke-linecap:round;stroke-linejoin:round;stroke-miterlimit:4;stroke-dasharray:none;stroke-opacity:1"
         d="M 0,0 0,0 6.094,-4.973" /></g><g
       transform="translate(64.8242,123.7031)"
       id="g110"><path
         id="path112"
         style="fill:none;stroke:#231f20;stroke-width:0.5;stroke-linecap:round;stroke-linejoin:round;stroke-miterlimit:4;stroke-dasharray:none;stroke-opacity:1"
         d="M 0,0 0,0 6.094,-4.976" /></g><g
       transform="translate(64.8242,118.415)"
       id="g114"><path
         id="path116"
         style="fill:none;stroke:#231f20;stroke-width:0.5;stroke-linecap:round;stroke-linejoin:round;stroke-miterlimit:4;stroke-dasharray:none;stroke-opacity:1"
         d="M 0,0 0,0 6.094,-4.974" /></g><g
       transform="translate(64.8242,113.123)"
       id="g118"><path
         id="path120"
         style="fill:none;stroke:#231f20;stroke-width:0.5;stroke-linecap:round;stroke-linejoin:round;stroke-miterlimit:4;stroke-dasharray:none;stroke-opacity:1"
         d="M 0,0 0,0 6.094,-4.973" /></g><g
       transform="translate(64.8242,107.8369)"
       id="g122"><path
         id="path124"
         style="fill:none;stroke:#231f20;stroke-width:0.5;stroke-linecap:round;stroke-linejoin:round;stroke-miterlimit:4;stroke-dasharray:none;stroke-opacity:1"
         d="M 0,0 0,0 6.094,-4.973" /></g><g
       transform="translate(64.8242,102.5488)"
       id="g126"><path
         id="path128"
         style="fill:none;stroke:#231f20;stroke-width:0.5;stroke-linecap:round;stroke-linejoin:round;stroke-miterlimit:4;stroke-dasharray:none;stroke-opacity:1"
         d="M 0,0 0,0 6.094,-4.975" /></g><g
       transform="translate(64.8242,97.2578)"
       id="g130"><path
         id="path132"
         style="fill:none;stroke:#231f20;stroke-width:0.5;stroke-linecap:round;stroke-linejoin:round;stroke-miterlimit:4;stroke-dasharray:none;stroke-opacity:1"
         d="M 0,0 0,0 6.094,-4.973" /></g><g
       transform="translate(64.8242,91.9688)"
       id="g134"><path
         id="path136"
         style="fill:none;stroke:#231f20;stroke-width:0.5;stroke-linecap:round;stroke-linejoin:round;stroke-miterlimit:4;stroke-dasharray:none;stroke-opacity:1"
         d="M 0,0 0,0 6.094,-4.976" /></g><g
       transform="translate(64.8242,86.6797)"
       id="g138"><path
         id="path140"
         style="fill:none;stroke:#231f20;stroke-width:0.5;stroke-linecap:round;stroke-linejoin:round;stroke-miterlimit:4;stroke-dasharray:none;stroke-opacity:1"
         d="M 0,0 0,0 6.094,-4.973" /></g><g
       transform="translate(64.8242,81.3936)"
       id="g142"><path
         id="path144"
         style="fill:none;stroke:#231f20;stroke-width:0.5;stroke-linecap:round;stroke-linejoin:round;stroke-miterlimit:4;stroke-dasharray:none;stroke-opacity:1"
         d="M 0,0 0,0 6.094,-4.975" /></g><path
       id="path146"
       style="fill:none;stroke:#231f20;stroke-width:1;stroke-linecap:round;stroke-linejoin:round;stroke-miterlimit:4;stroke-dasharray:none;stroke-opacity:1"
       d="m 58.73,76.419 6.094,0 0,52.573 -6.094,0 0,-52.573 z" /><g
       transform="translate(64.8242,128.9922)"
       id="g148"><path
         id="path150"
         style="fill:none;stroke:#231f20;stroke-width:0.5;stroke-linecap:round;stroke-linejoin:round;stroke-miterlimit:4;stroke-dasharray:none;stroke-opacity:1"
         d="M 0,0 0,0 -6.094,-4.973" /></g><g
       transform="translate(64.8242,123.7031)"
       id="g152"><path
         id="path154"
         style="fill:none;stroke:#231f20;stroke-width:0.5;stroke-linecap:round;stroke-linejoin:round;stroke-miterlimit:4;stroke-dasharray:none;stroke-opacity:1"
         d="M 0,0 0,0 -6.094,-4.976" /></g><g
       transform="translate(64.8242,118.415)"
       id="g156"><path
         id="path158"
         style="fill:none;stroke:#231f20;stroke-width:0.5;stroke-linecap:round;stroke-linejoin:round;stroke-miterlimit:4;stroke-dasharray:none;stroke-opacity:1"
         d="M 0,0 0,0 -6.094,-4.974" /></g><g
       transform="translate(64.8242,113.123)"
       id="g160"><path
         id="path162"
         style="fill:none;stroke:#231f20;stroke-width:0.5;stroke-linecap:round;stroke-linejoin:round;stroke-miterlimit:4;stroke-dasharray:none;stroke-opacity:1"
         d="M 0,0 0,0 -6.094,-4.973" /></g><g
       transform="translate(64.8242,107.8369)"
       id="g164"><path
         id="path166"
         style="fill:none;stroke:#231f20;stroke-width:0.5;stroke-linecap:round;stroke-linejoin:round;stroke-miterlimit:4;stroke-dasharray:none;stroke-opacity:1"
         d="M 0,0 0,0 -6.094,-4.973" /></g><g
       transform="translate(64.8242,102.5488)"
       id="g168"><path
         id="path170"
         style="fill:none;stroke:#231f20;stroke-width:0.5;stroke-linecap:round;stroke-linejoin:round;stroke-miterlimit:4;stroke-dasharray:none;stroke-opacity:1"
         d="M 0,0 0,0 -6.094,-4.975" /></g><g
       transform="translate(64.8242,97.2578)"
       id="g172"><path
         id="path174"
         style="fill:none;stroke:#231f20;stroke-width:0.5;stroke-linecap:round;stroke-linejoin:round;stroke-miterlimit:4;stroke-dasharray:none;stroke-opacity:1"
         d="M 0,0 0,0 -6.094,-4.973" /></g><g
       transform="translate(64.8242,91.9688)"
       id="g176"><path
         id="path178"
         style="fill:none;stroke:#231f20;stroke-width:0.5;stroke-linecap:round;stroke-linejoin:round;stroke-miterlimit:4;stroke-dasharray:none;stroke-opacity:1"
         d="M 0,0 0,0 -6.094,-4.976" /></g><g
       transform="translate(64.8242,86.6797)"
       id="g180"><path
         id="path182"
         style="fill:none;stroke:#231f20;stroke-width:0.5;stroke-linecap:round;stroke-linejoin:round;stroke-miterlimit:4;stroke-dasharray:none;stroke-opacity:1"
         d="M 0,0 0,0 -6.094,-4.973" /></g><g
       transform="translate(64.8242,81.3936)"
       id="g184"><path
         id="path186"
         style="fill:none;stroke:#231f20;stroke-width:0.5;stroke-linecap:round;stroke-linejoin:round;stroke-miterlimit:4;stroke-dasharray:none;stroke-opacity:1"
         d="M 0,0 0,0 -6.094,-4.975" /></g><path
       id="path188"
       style="fill:none;stroke:#231f20;stroke-width:1;stroke-linecap:round;stroke-linejoin:round;stroke-miterlimit:4;stroke-dasharray:none;stroke-opacity:1"
       d="m 58.73,76.419 -6.096,0 0,52.573 6.096,0 0,-52.573 z" /><g
       transform="translate(52.6348,128.9922)"
       id="g190"><path
         id="path192"
         style="fill:none;stroke:#231f20;stroke-width:0.5;stroke-linecap:round;stroke-linejoin:round;stroke-miterlimit:4;stroke-dasharray:none;stroke-opacity:1"
         d="M 0,0 0,0 6.096,-4.973" /></g><g
       transform="translate(52.6348,123.7031)"
       id="g194"><path
         id="path196"
         style="fill:none;stroke:#231f20;stroke-width:0.5;stroke-linecap:round;stroke-linejoin:round;stroke-miterlimit:4;stroke-dasharray:none;stroke-opacity:1"
         d="M 0,0 0,0 6.096,-4.976" /></g><g
       transform="translate(52.6348,118.415)"
       id="g198"><path
         id="path200"
         style="fill:none;stroke:#231f20;stroke-width:0.5;stroke-linecap:round;stroke-linejoin:round;stroke-miterlimit:4;stroke-dasharray:none;stroke-opacity:1"
         d="M 0,0 0,0 6.096,-4.974" /></g><g
       transform="translate(52.6348,113.123)"
       id="g202"><path
         id="path204"
         style="fill:none;stroke:#231f20;stroke-width:0.5;stroke-linecap:round;stroke-linejoin:round;stroke-miterlimit:4;stroke-dasharray:none;stroke-opacity:1"
         d="M 0,0 0,0 6.096,-4.973" /></g><g
       transform="translate(52.6348,107.8369)"
       id="g206"><path
         id="path208"
         style="fill:none;stroke:#231f20;stroke-width:0.5;stroke-linecap:round;stroke-linejoin:round;stroke-miterlimit:4;stroke-dasharray:none;stroke-opacity:1"
         d="M 0,0 0,0 6.096,-4.973" /></g><g
       transform="translate(52.6348,102.5488)"
       id="g210"><path
         id="path212"
         style="fill:none;stroke:#231f20;stroke-width:0.5;stroke-linecap:round;stroke-linejoin:round;stroke-miterlimit:4;stroke-dasharray:none;stroke-opacity:1"
         d="M 0,0 0,0 6.096,-4.975" /></g><g
       transform="translate(52.6348,97.2578)"
       id="g214"><path
         id="path216"
         style="fill:none;stroke:#231f20;stroke-width:0.5;stroke-linecap:round;stroke-linejoin:round;stroke-miterlimit:4;stroke-dasharray:none;stroke-opacity:1"
         d="M 0,0 0,0 6.096,-4.973" /></g><g
       transform="translate(52.6348,91.9688)"
       id="g218"><path
         id="path220"
         style="fill:none;stroke:#231f20;stroke-width:0.5;stroke-linecap:round;stroke-linejoin:round;stroke-miterlimit:4;stroke-dasharray:none;stroke-opacity:1"
         d="M 0,0 0,0 6.096,-4.976" /></g><g
       transform="translate(52.6348,86.6797)"
       id="g222"><path
         id="path224"
         style="fill:none;stroke:#231f20;stroke-width:0.5;stroke-linecap:round;stroke-linejoin:round;stroke-miterlimit:4;stroke-dasharray:none;stroke-opacity:1"
         d="M 0,0 0,0 6.096,-4.973" /></g><g
       transform="translate(52.6348,81.3936)"
       id="g226"><path
         id="path228"
         style="fill:none;stroke:#231f20;stroke-width:0.5;stroke-linecap:round;stroke-linejoin:round;stroke-miterlimit:4;stroke-dasharray:none;stroke-opacity:1"
         d="M 0,0 0,0 6.096,-4.975" /></g><path
       id="path230"
       style="fill:none;stroke:#231f20;stroke-width:1;stroke-linecap:round;stroke-linejoin:round;stroke-miterlimit:4;stroke-dasharray:none;stroke-opacity:1"
       d="m 46.541,76.419 6.094,0 0,52.573 -6.094,0 0,-52.573 z" /><g
       transform="translate(52.6348,128.9922)"
       id="g232"><path
         id="path234"
         style="fill:none;stroke:#231f20;stroke-width:0.5;stroke-linecap:round;stroke-linejoin:round;stroke-miterlimit:4;stroke-dasharray:none;stroke-opacity:1"
         d="M 0,0 0,0 -6.094,-4.973" /></g><g
       transform="translate(52.6348,123.7031)"
       id="g236"><path
         id="path238"
         style="fill:none;stroke:#231f20;stroke-width:0.5;stroke-linecap:round;stroke-linejoin:round;stroke-miterlimit:4;stroke-dasharray:none;stroke-opacity:1"
         d="M 0,0 0,0 -6.094,-4.976" /></g><g
       transform="translate(52.6348,118.415)"
       id="g240"><path
         id="path242"
         style="fill:none;stroke:#231f20;stroke-width:0.5;stroke-linecap:round;stroke-linejoin:round;stroke-miterlimit:4;stroke-dasharray:none;stroke-opacity:1"
         d="M 0,0 0,0 -6.094,-4.974" /></g><g
       transform="translate(52.6348,113.123)"
       id="g244"><path
         id="path246"
         style="fill:none;stroke:#231f20;stroke-width:0.5;stroke-linecap:round;stroke-linejoin:round;stroke-miterlimit:4;stroke-dasharray:none;stroke-opacity:1"
         d="M 0,0 0,0 -6.094,-4.973" /></g><g
       transform="translate(52.6348,107.8369)"
       id="g248"><path
         id="path250"
         style="fill:none;stroke:#231f20;stroke-width:0.5;stroke-linecap:round;stroke-linejoin:round;stroke-miterlimit:4;stroke-dasharray:none;stroke-opacity:1"
         d="M 0,0 0,0 -6.094,-4.973" /></g><g
       transform="translate(52.6348,102.5488)"
       id="g252"><path
         id="path254"
         style="fill:none;stroke:#231f20;stroke-width:0.5;stroke-linecap:round;stroke-linejoin:round;stroke-miterlimit:4;stroke-dasharray:none;stroke-opacity:1"
         d="M 0,0 0,0 -6.094,-4.975" /></g><g
       transform="translate(52.6348,97.2578)"
       id="g256"><path
         id="path258"
         style="fill:none;stroke:#231f20;stroke-width:0.5;stroke-linecap:round;stroke-linejoin:round;stroke-miterlimit:4;stroke-dasharray:none;stroke-opacity:1"
         d="M 0,0 0,0 -6.094,-4.973" /></g><g
       transform="translate(52.6348,91.9688)"
       id="g260"><path
         id="path262"
         style="fill:none;stroke:#231f20;stroke-width:0.5;stroke-linecap:round;stroke-linejoin:round;stroke-miterlimit:4;stroke-dasharray:none;stroke-opacity:1"
         d="M 0,0 0,0 -6.094,-4.976" /></g><g
       transform="translate(52.6348,86.6797)"
       id="g264"><path
         id="path266"
         style="fill:none;stroke:#231f20;stroke-width:0.5;stroke-linecap:round;stroke-linejoin:round;stroke-miterlimit:4;stroke-dasharray:none;stroke-opacity:1"
         d="M 0,0 0,0 -6.094,-4.973" /></g><g
       transform="translate(52.6348,81.3936)"
       id="g268"><path
         id="path270"
         style="fill:none;stroke:#231f20;stroke-width:0.5;stroke-linecap:round;stroke-linejoin:round;stroke-miterlimit:4;stroke-dasharray:none;stroke-opacity:1"
         d="M 0,0 0,0 -6.094,-4.975" /></g><path
       id="path272"
       style="fill:none;stroke:#231f20;stroke-width:1;stroke-linecap:round;stroke-linejoin:round;stroke-miterlimit:4;stroke-dasharray:none;stroke-opacity:1"
       d="m 46.541,76.419 -6.095,0 0,52.573 6.095,0 0,-52.573 z" /><g
       transform="translate(40.4463,128.9922)"
       id="g274"><path
         id="path276"
         style="fill:none;stroke:#231f20;stroke-width:0.5;stroke-linecap:round;stroke-linejoin:round;stroke-miterlimit:4;stroke-dasharray:none;stroke-opacity:1"
         d="M 0,0 0,0 6.095,-4.973" /></g><g
       transform="translate(40.4463,123.7031)"
       id="g278"><path
         id="path280"
         style="fill:none;stroke:#231f20;stroke-width:0.5;stroke-linecap:round;stroke-linejoin:round;stroke-miterlimit:4;stroke-dasharray:none;stroke-opacity:1"
         d="M 0,0 0,0 6.095,-4.976" /></g><g
       transform="translate(40.4463,118.415)"
       id="g282"><path
         id="path284"
         style="fill:none;stroke:#231f20;stroke-width:0.5;stroke-linecap:round;stroke-linejoin:round;stroke-miterlimit:4;stroke-dasharray:none;stroke-opacity:1"
         d="M 0,0 0,0 6.095,-4.974" /></g><g
       transform="translate(40.4463,113.123)"
       id="g286"><path
         id="path288"
         style="fill:none;stroke:#231f20;stroke-width:0.5;stroke-linecap:round;stroke-linejoin:round;stroke-miterlimit:4;stroke-dasharray:none;stroke-opacity:1"
         d="M 0,0 0,0 6.095,-4.973" /></g><g
       transform="translate(40.4463,107.8369)"
       id="g290"><path
         id="path292"
         style="fill:none;stroke:#231f20;stroke-width:0.5;stroke-linecap:round;stroke-linejoin:round;stroke-miterlimit:4;stroke-dasharray:none;stroke-opacity:1"
         d="M 0,0 0,0 6.095,-4.973" /></g><g
       transform="translate(40.4463,102.5488)"
       id="g294"><path
         id="path296"
         style="fill:none;stroke:#231f20;stroke-width:0.5;stroke-linecap:round;stroke-linejoin:round;stroke-miterlimit:4;stroke-dasharray:none;stroke-opacity:1"
         d="M 0,0 0,0 6.095,-4.975" /></g><g
       transform="translate(40.4463,97.2578)"
       id="g298"><path
         id="path300"
         style="fill:none;stroke:#231f20;stroke-width:0.5;stroke-linecap:round;stroke-linejoin:round;stroke-miterlimit:4;stroke-dasharray:none;stroke-opacity:1"
         d="M 0,0 0,0 6.095,-4.973" /></g><g
       transform="translate(40.4463,91.9688)"
       id="g302"><path
         id="path304"
         style="fill:none;stroke:#231f20;stroke-width:0.5;stroke-linecap:round;stroke-linejoin:round;stroke-miterlimit:4;stroke-dasharray:none;stroke-opacity:1"
         d="M 0,0 0,0 6.095,-4.976" /></g><g
       transform="translate(40.4463,86.6797)"
       id="g306"><path
         id="path308"
         style="fill:none;stroke:#231f20;stroke-width:0.5;stroke-linecap:round;stroke-linejoin:round;stroke-miterlimit:4;stroke-dasharray:none;stroke-opacity:1"
         d="M 0,0 0,0 6.095,-4.973" /></g><g
       transform="translate(40.4463,81.3936)"
       id="g310"><path
         id="path312"
         style="fill:none;stroke:#231f20;stroke-width:0.5;stroke-linecap:round;stroke-linejoin:round;stroke-miterlimit:4;stroke-dasharray:none;stroke-opacity:1"
         d="M 0,0 0,0 6.095,-4.975" /></g><g
       id="g314"><g
         clip-path="url(#clipPath318)"
         id="g316"><g
           transform="translate(46.9141,67.5371)"
           id="g322"><path
             id="path324"
             style="fill:#ffffff;fill-opacity:1;fill-rule:nonzero;stroke:#231f20;stroke-width:1;stroke-linecap:round;stroke-linejoin:round;stroke-miterlimit:4;stroke-dasharray:none;stroke-opacity:1"
             d="m 0,0 0,35.012 c 0,3.204 3.061,12.242 3.061,12.242 l 23.977,0 c 0,0 3.061,-9.038 3.061,-12.242 L 30.099,0" /></g></g></g><g
       id="g326"><g
         clip-path="url(#clipPath330)"
         id="g328"><g
           transform="translate(46.9141,96.3115)"
           id="g334"><path
             id="path336"
             style="fill:#ffffff;fill-opacity:1;fill-rule:nonzero;stroke:#231f20;stroke-width:1;stroke-linecap:round;stroke-linejoin:round;stroke-miterlimit:4;stroke-dasharray:none;stroke-opacity:1"
             d="M 0,0 30.099,0" /></g><g
           transform="translate(52.7354,96.3115)"
           id="g338"><path
             id="path340"
             style="fill:#ffffff;fill-opacity:1;fill-rule:nonzero;stroke:#231f20;stroke-width:0.5;stroke-linecap:round;stroke-linejoin:round;stroke-miterlimit:4;stroke-dasharray:none;stroke-opacity:1"
             d="M 0,0 -30.904,-30.903" /></g><g
           transform="translate(57.9775,96.3115)"
           id="g342"><path
             id="path344"
             style="fill:#ffffff;fill-opacity:1;fill-rule:nonzero;stroke:#231f20;stroke-width:0.5;stroke-linecap:round;stroke-linejoin:round;stroke-miterlimit:4;stroke-dasharray:none;stroke-opacity:1"
             d="M 0,0 -30.906,-30.903" /></g><g
           transform="translate(63.2148,96.3115)"
           id="g346"><path
             id="path348"
             style="fill:#ffffff;fill-opacity:1;fill-rule:nonzero;stroke:#231f20;stroke-width:0.5;stroke-linecap:round;stroke-linejoin:round;stroke-miterlimit:4;stroke-dasharray:none;stroke-opacity:1"
             d="M 0,0 -30.904,-30.903" /></g><g
           transform="translate(68.4531,96.3115)"
           id="g350"><path
             id="path352"
             style="fill:#ffffff;fill-opacity:1;fill-rule:nonzero;stroke:#231f20;stroke-width:0.5;stroke-linecap:round;stroke-linejoin:round;stroke-miterlimit:4;stroke-dasharray:none;stroke-opacity:1"
             d="M 0,0 -30.903,-30.903" /></g><g
           transform="translate(73.6953,96.3115)"
           id="g354"><path
             id="path356"
             style="fill:#ffffff;fill-opacity:1;fill-rule:nonzero;stroke:#231f20;stroke-width:0.5;stroke-linecap:round;stroke-linejoin:round;stroke-miterlimit:4;stroke-dasharray:none;stroke-opacity:1"
             d="M 0,0 -30.905,-30.903" /></g><g
           transform="translate(78.9326,96.3115)"
           id="g358"><path
             id="path360"
             style="fill:#ffffff;fill-opacity:1;fill-rule:nonzero;stroke:#231f20;stroke-width:0.5;stroke-linecap:round;stroke-linejoin:round;stroke-miterlimit:4;stroke-dasharray:none;stroke-opacity:1"
             d="M 0,0 -30.903,-30.903" /></g><g
           transform="translate(84.1738,96.3115)"
           id="g362"><path
             id="path364"
             style="fill:#ffffff;fill-opacity:1;fill-rule:nonzero;stroke:#231f20;stroke-width:0.5;stroke-linecap:round;stroke-linejoin:round;stroke-miterlimit:4;stroke-dasharray:none;stroke-opacity:1"
             d="M 0,0 -30.905,-30.903" /></g><g
           transform="translate(89.4121,96.3115)"
           id="g366"><path
             id="path368"
             style="fill:#ffffff;fill-opacity:1;fill-rule:nonzero;stroke:#231f20;stroke-width:0.5;stroke-linecap:round;stroke-linejoin:round;stroke-miterlimit:4;stroke-dasharray:none;stroke-opacity:1"
             d="M 0,0 -30.903,-30.903" /></g><g
           transform="translate(94.6533,96.3115)"
           id="g370"><path
             id="path372"
             style="fill:#ffffff;fill-opacity:1;fill-rule:nonzero;stroke:#231f20;stroke-width:0.5;stroke-linecap:round;stroke-linejoin:round;stroke-miterlimit:4;stroke-dasharray:none;stroke-opacity:1"
             d="M 0,0 -30.907,-30.903" /></g><g
           transform="translate(99.8906,96.3115)"
           id="g374"><path
             id="path376"
             style="fill:#ffffff;fill-opacity:1;fill-rule:nonzero;stroke:#231f20;stroke-width:0.5;stroke-linecap:round;stroke-linejoin:round;stroke-miterlimit:4;stroke-dasharray:none;stroke-opacity:1"
             d="M 0,0 -30.904,-30.903" /></g><g
           transform="translate(105.1309,96.3115)"
           id="g378"><path
             id="path380"
             style="fill:#ffffff;fill-opacity:1;fill-rule:nonzero;stroke:#231f20;stroke-width:0.5;stroke-linecap:round;stroke-linejoin:round;stroke-miterlimit:4;stroke-dasharray:none;stroke-opacity:1"
             d="M 0,0 -30.904,-30.903" /></g></g></g><g
       id="g382"><g
         clip-path="url(#clipPath386)"
         id="g384"><g
           transform="translate(220.4463,42.1563)"
           id="g390"><path
             id="path392"
             style="fill:#ffffff;fill-opacity:1;fill-rule:nonzero;stroke:none"
             d="m 0,0 -117.554,0 0,7.639 -25.86,28.9 25.86,-8.364 0,70.692 L 0,98.867 0,0 Z" /></g><g
           transform="translate(220.4463,42.1563)"
           id="g394"><path
             id="path396"
             style="fill:none;stroke:#231f20;stroke-width:1;stroke-linecap:round;stroke-linejoin:round;stroke-miterlimit:4;stroke-dasharray:none;stroke-opacity:1"
             d="m 0,0 -117.554,0 0,7.639 -25.86,28.9 25.86,-8.364 0,70.692 L 0,98.867 0,0 Z" /></g><g
           transform="translate(146.1865,106.8506)"
           id="g398"><path
             id="path400"
             style="fill:none;stroke:#231f20;stroke-width:1.5;stroke-linecap:round;stroke-linejoin:round;stroke-miterlimit:4;stroke-dasharray:none;stroke-opacity:1"
             d="m 0,0 c 0,-5.544 -4.494,-10.038 -10.036,-10.038 -5.547,0 -10.04,4.494 -10.04,10.038 0,5.545 4.493,10.039 10.04,10.039 C -4.494,10.039 0,5.545 0,0 Z" /></g><g
           transform="translate(199.5479,106.8506)"
           id="g402"><path
             id="path404"
             style="fill:none;stroke:#231f20;stroke-width:1.5;stroke-linecap:round;stroke-linejoin:round;stroke-miterlimit:4;stroke-dasharray:none;stroke-opacity:1"
             d="m 0,0 c 0,-5.544 -4.494,-10.038 -10.038,-10.038 -5.545,0 -10.038,4.494 -10.038,10.038 0,5.545 4.493,10.039 10.038,10.039 C -4.494,10.039 0,5.545 0,0 Z" /></g><g
           transform="translate(189.5098,74.5195)"
           id="g406"><path
             id="path408"
             style="fill:none;stroke:#231f20;stroke-width:1.5;stroke-linecap:round;stroke-linejoin:round;stroke-miterlimit:4;stroke-dasharray:none;stroke-opacity:1"
             d="m 0,0 c 0.856,0 1.617,0.405 2.104,1.032 l 20.362,28.8 0.039,0.355 c 0.065,0.705 0.1,1.42 0.1,2.144 0,12.484 -10.119,22.606 -22.605,22.606 l -53.359,0 c -12.486,0 -22.608,-10.122 -22.608,-22.606 0,-0.556 0.02,-1.106 0.059,-1.654 l 0.081,-0.845 20.264,-28.666 C -55.084,0.465 -54.278,0 -53.359,0 L 0,0 Z" /></g><g
           transform="translate(137.499,74.5195)"
           id="g410"><path
             id="path412"
             style="fill:#231f20;fill-opacity:1;fill-rule:nonzero;stroke:#231f20;stroke-width:1;stroke-linecap:round;stroke-linejoin:round;stroke-miterlimit:4;stroke-dasharray:none;stroke-opacity:1"
             d="M 0,0 C 7.499,7.498 43.362,6.202 49.562,0" /></g><g
           transform="translate(179.1074,60.3447)"
           id="g414"><path
             id="path416"
             style="fill:#231f20;fill-opacity:1;fill-rule:nonzero;stroke:none"
             d="M 0,0 -15.76,15.15 -31.52,0 l 9.024,0 0,-12.459 13.473,0 L -9.023,0 0,0 Z" /></g><g
           transform="translate(179.1074,60.3447)"
           id="g418"><path
             id="path420"
             style="fill:none;stroke:#ffffff;stroke-width:1;stroke-linecap:round;stroke-linejoin:round;stroke-miterlimit:4;stroke-dasharray:none;stroke-opacity:1"
             d="M 0,0 -15.76,15.15 -31.52,0 l 9.024,0 0,-12.459 13.473,0 L -9.023,0 0,0 Z" /></g></g></g><text
       id="text422"
       style="font-variant:normal;font-weight:normal;font-stretch:normal;font-size:5px;font-family:'Swiss 721 SWA';-inkscape-font-specification:Helvetica;writing-mode:lr-tb;fill:#231f20;fill-opacity:1;fill-rule:nonzero;stroke:none"
       transform="matrix(1,0,0,-1,36.1685,4.3486)"><tspan
         id="tspan424"
         y="0"
         x="0 2.5 5 6.7399998">ccru</tspan></text>
</g></svg>