<?xml version="1.0" encoding="UTF-8" standalone="no"?>
<svg
   xmlns:dc="http://purl.org/dc/elements/1.1/"
   xmlns:cc="http://creativecommons.org/ns#"
   xmlns:rdf="http://www.w3.org/1999/02/22-rdf-syntax-ns#"
   xmlns:svg="http://www.w3.org/2000/svg"
   xmlns="http://www.w3.org/2000/svg"
   viewBox="0 0 301.18124 230.315"
   height="230.315"
   width="301.18124"
   xml:space="preserve"
   version="1.1"
   id="svg2"><metadata
     id="metadata8"><rdf:RDF><cc:Work
         rdf:about=""><dc:format>image/svg+xml</dc:format><dc:type
           rdf:resource="http://purl.org/dc/dcmitype/StillImage" /></cc:Work></rdf:RDF></metadata><defs
     id="defs6"><clipPath
       id="clipPath22"
       clipPathUnits="userSpaceOnUse"><path
         id="path24"
         d="m 0,184.252 240.945,0 L 240.945,0 0,0 0,184.252 Z" /></clipPath><clipPath
       id="clipPath318"
       clipPathUnits="userSpaceOnUse"><path
         id="path320"
         d="m 0,184.252 240.945,0 L 240.945,0 0,0 0,184.252 Z" /></clipPath><clipPath
       id="clipPath358"
       clipPathUnits="userSpaceOnUse"><path
         id="path360"
         d="m 0,184.252 240.945,0 L 240.945,0 0,0 0,184.252 Z" /></clipPath></defs><g
     transform="matrix(1.25,0,0,-1.25,0,230.315)"
     id="g10"><path
       id="path12"
       style="fill:#ffffff;fill-opacity:1;fill-rule:nonzero;stroke:none"
       d="m 0.968,7.588 26,0 0,5 -26,0 0,-5 z" /><text
       id="text14"
       style="font-variant:normal;font-weight:normal;font-stretch:normal;font-size:5px;font-family:Helvetica;-inkscape-font-specification:Helvetica;writing-mode:lr-tb;fill:#231f20;fill-opacity:1;fill-rule:nonzero;stroke:none"
       transform="matrix(1,0,0,-1,1.9683,8.5879)"><tspan
         id="tspan16"
         y="0"
         x="0 3.0550001 5.835 8.6149998 11.395 12.785 15.565 18.344999 19.735001 22.514999 25.295 28.075001">T908.11.13_1</tspan></text>
<g
       id="g18"><g
         clip-path="url(#clipPath22)"
         id="g20"><g
           transform="translate(27.2139,107.9092)"
           id="g26"><path
             id="path28"
             style="fill:none;stroke:#231f20;stroke-width:0.50999999;stroke-linecap:round;stroke-linejoin:miter;stroke-miterlimit:4;stroke-dasharray:none;stroke-opacity:1"
             d="m 0,0 c -2.824,0 -5.113,-5.417 -5.113,-12.1 0,-6.683 2.289,-12.1 5.113,-12.1" /></g><g
           transform="translate(27.2144,107.9092)"
           id="g30"><path
             id="path32"
             style="fill:none;stroke:#231f20;stroke-width:1.13399994;stroke-linecap:round;stroke-linejoin:miter;stroke-miterlimit:4;stroke-dasharray:none;stroke-opacity:1"
             d="M 0,0 22.865,-0.001" /></g><g
           transform="translate(57.9688,107.9077)"
           id="g34"><path
             id="path36"
             style="fill:none;stroke:#231f20;stroke-width:1.13399994;stroke-linecap:round;stroke-linejoin:miter;stroke-miterlimit:4;stroke-dasharray:none;stroke-opacity:1"
             d="M 0,0 5.792,0" /></g><g
           transform="translate(69.2217,107.9072)"
           id="g38"><path
             id="path40"
             style="fill:none;stroke:#231f20;stroke-width:1.13399994;stroke-linecap:round;stroke-linejoin:miter;stroke-miterlimit:4;stroke-dasharray:none;stroke-opacity:1"
             d="M 0,0 5.791,0" /></g><g
           transform="translate(80.4678,107.9072)"
           id="g42"><path
             id="path44"
             style="fill:none;stroke:#231f20;stroke-width:1.13399994;stroke-linecap:round;stroke-linejoin:miter;stroke-miterlimit:4;stroke-dasharray:none;stroke-opacity:1"
             d="M 0,0 100.024,-0.004" /></g><g
           transform="translate(27.2134,83.709)"
           id="g46"><path
             id="path48"
             style="fill:none;stroke:#231f20;stroke-width:1.13399994;stroke-linecap:round;stroke-linejoin:miter;stroke-miterlimit:4;stroke-dasharray:none;stroke-opacity:1"
             d="M 0,0 23.9,-0.001" /></g><g
           transform="translate(55.2319,83.708)"
           id="g50"><path
             id="path52"
             style="fill:none;stroke:#231f20;stroke-width:1.13399994;stroke-linecap:round;stroke-linejoin:miter;stroke-miterlimit:4;stroke-dasharray:none;stroke-opacity:1"
             d="M 0,0 7.132,-0.001" /></g><g
           transform="translate(66.4858,83.707)"
           id="g54"><path
             id="path56"
             style="fill:none;stroke:#231f20;stroke-width:1.13399994;stroke-linecap:round;stroke-linejoin:miter;stroke-miterlimit:4;stroke-dasharray:none;stroke-opacity:1"
             d="M 0,0 7.128,0" /></g><g
           transform="translate(77.7349,83.707)"
           id="g58"><path
             id="path60"
             style="fill:none;stroke:#231f20;stroke-width:1.13399994;stroke-linecap:round;stroke-linejoin:miter;stroke-miterlimit:4;stroke-dasharray:none;stroke-opacity:1"
             d="M 0,0 102.756,-0.005" /></g><g
           transform="translate(26.3364,108.8169)"
           id="g62"><path
             id="path64"
             style="fill:none;stroke:#231f20;stroke-width:0.50999999;stroke-linecap:round;stroke-linejoin:miter;stroke-miterlimit:4;stroke-dasharray:none;stroke-opacity:1"
             d="m 0,0 c -3.036,0 -5.497,-5.824 -5.497,-13.008 0,-7.184 2.461,-13.007 5.497,-13.007 0.726,0 1.418,0.332 2.016,0.905" /></g><g
           transform="translate(28.3521,107.9111)"
           id="g66"><path
             id="path68"
             style="fill:none;stroke:#231f20;stroke-width:0.50999999;stroke-linecap:round;stroke-linejoin:miter;stroke-miterlimit:4;stroke-dasharray:none;stroke-opacity:1"
             d="M 0,0 C -0.675,0.629 -1.371,0.921 -2.016,0.906" /></g><g
           transform="translate(26.3364,112.9722)"
           id="g70"><path
             id="path72"
             style="fill:none;stroke:#231f20;stroke-width:0.50999999;stroke-linecap:round;stroke-linejoin:miter;stroke-miterlimit:4;stroke-dasharray:none;stroke-opacity:1"
             d="m 0,0 c -4.006,0 -7.253,-7.684 -7.253,-17.163 0,-9.479 3.247,-17.163 7.253,-17.163" /></g><g
           transform="translate(26.3364,78.6465)"
           id="g74"><path
             id="path76"
             style="fill:none;stroke:#231f20;stroke-width:1.13399994;stroke-linecap:round;stroke-linejoin:miter;stroke-miterlimit:4;stroke-dasharray:none;stroke-opacity:1"
             d="M 0,0 C 2.003,0 3.816,1.92 5.129,5.026" /></g><g
           transform="translate(31.48,107.9106)"
           id="g78"><path
             id="path80"
             style="fill:none;stroke:#231f20;stroke-width:1.13399994;stroke-linecap:round;stroke-linejoin:miter;stroke-miterlimit:4;stroke-dasharray:none;stroke-opacity:1"
             d="M 0,0 C -1.417,3.373 -3.28,5.061 -5.144,5.062" /></g><g
           transform="translate(23.0991,112.9722)"
           id="g82"><path
             id="path84"
             style="fill:none;stroke:#231f20;stroke-width:1.13399994;stroke-linecap:round;stroke-linejoin:miter;stroke-miterlimit:4;stroke-dasharray:none;stroke-opacity:1"
             d="m 0,0 c -4.006,0 -7.253,-7.684 -7.253,-17.163 0,-9.479 3.247,-17.163 7.253,-17.163" /></g><g
           transform="translate(16.3506,112.9727)"
           id="g86"><path
             id="path88"
             style="fill:none;stroke:#231f20;stroke-width:1.13399994;stroke-linecap:round;stroke-linejoin:miter;stroke-miterlimit:4;stroke-dasharray:none;stroke-opacity:1"
             d="m 0,0 c -4.006,0 -7.253,-7.685 -7.253,-17.163 0,-9.479 3.247,-17.163 7.253,-17.163" /></g><g
           transform="translate(23.0996,112.9722)"
           id="g90"><path
             id="path92"
             style="fill:none;stroke:#231f20;stroke-width:1.13399994;stroke-linecap:round;stroke-linejoin:miter;stroke-miterlimit:4;stroke-dasharray:none;stroke-opacity:1"
             d="M 0,0 3.237,0" /></g><g
           transform="translate(23.0986,78.6465)"
           id="g94"><path
             id="path96"
             style="fill:none;stroke:#231f20;stroke-width:1.13399994;stroke-linecap:round;stroke-linejoin:miter;stroke-miterlimit:4;stroke-dasharray:none;stroke-opacity:1"
             d="M 0,0 3.237,0" /></g><g
           transform="translate(19.5879,112.9727)"
           id="g98"><path
             id="path100"
             style="fill:none;stroke:#231f20;stroke-width:0.50999999;stroke-linecap:round;stroke-linejoin:miter;stroke-miterlimit:4;stroke-dasharray:none;stroke-opacity:1"
             d="m 0,0 c -4.006,0 -7.253,-7.685 -7.253,-17.163 0,-9.479 3.247,-17.163 7.253,-17.163" /></g><g
           transform="translate(19.5879,78.6465)"
           id="g102"><path
             id="path104"
             style="fill:none;stroke:#231f20;stroke-width:1.13399994;stroke-linecap:round;stroke-linejoin:miter;stroke-miterlimit:4;stroke-dasharray:none;stroke-opacity:1"
             d="M 0,0 C 0.176,0 0.35,0.015 0.499,0.041" /></g><g
           transform="translate(20.0879,112.9316)"
           id="g106"><path
             id="path108"
             style="fill:none;stroke:#231f20;stroke-width:1.13399994;stroke-linecap:round;stroke-linejoin:miter;stroke-miterlimit:4;stroke-dasharray:none;stroke-opacity:1"
             d="M 0,0 C -0.175,0.029 -0.35,0.042 -0.5,0.041" /></g><g
           transform="translate(16.3511,112.9727)"
           id="g110"><path
             id="path112"
             style="fill:none;stroke:#231f20;stroke-width:1.13399994;stroke-linecap:round;stroke-linejoin:miter;stroke-miterlimit:4;stroke-dasharray:none;stroke-opacity:1"
             d="M 0,0 3.238,0" /></g><g
           transform="translate(16.3501,78.6465)"
           id="g114"><path
             id="path116"
             style="fill:none;stroke:#231f20;stroke-width:1.13399994;stroke-linecap:round;stroke-linejoin:miter;stroke-miterlimit:4;stroke-dasharray:none;stroke-opacity:1"
             d="M 0,0 3.237,0" /></g><g
           transform="translate(20.5864,112.9727)"
           id="g118"><path
             id="path120"
             style="fill:none;stroke:#231f20;stroke-width:1.13399994;stroke-linecap:round;stroke-linejoin:miter;stroke-miterlimit:4;stroke-dasharray:none;stroke-opacity:1"
             d="m 0,0 c -4.006,0 -7.253,-7.685 -7.253,-17.163 0,-9.479 3.247,-17.163 7.253,-17.163 0.444,0 0.878,0.094 1.256,0.259" /></g><g
           transform="translate(21.8433,112.7129)"
           id="g122"><path
             id="path124"
             style="fill:none;stroke:#231f20;stroke-width:1.13399994;stroke-linecap:round;stroke-linejoin:miter;stroke-miterlimit:4;stroke-dasharray:none;stroke-opacity:1"
             d="M 0,0 C -0.437,0.182 -0.873,0.268 -1.257,0.26" /></g><g
           transform="translate(180.4922,107.9028)"
           id="g126"><path
             id="path128"
             style="fill:none;stroke:#231f20;stroke-width:0.50999999;stroke-linecap:round;stroke-linejoin:miter;stroke-miterlimit:4;stroke-dasharray:none;stroke-opacity:1"
             d="m 0,0 c -1.73,0 -3.132,-5.417 -3.132,-12.1 0,-6.683 1.402,-12.101 3.132,-12.101" /></g><g
           transform="translate(191.8975,104.0615)"
           id="g130"><path
             id="path132"
             style="fill:none;stroke:#231f20;stroke-width:0.50999999;stroke-linecap:round;stroke-linejoin:miter;stroke-miterlimit:4;stroke-dasharray:none;stroke-opacity:1"
             d="m 0,0 c -1.062,0 -1.922,-3.78 -1.922,-8.444 0,-4.663 0.86,-8.445 1.922,-8.445" /></g><g
           transform="translate(191.2686,104.0952)"
           id="g134"><path
             id="path136"
             style="fill:none;stroke:#231f20;stroke-width:1.13399994;stroke-linecap:round;stroke-linejoin:miter;stroke-miterlimit:4;stroke-dasharray:none;stroke-opacity:1"
             d="M 0,0 10.083,0" /></g><g
           transform="translate(191.2686,87.415)"
           id="g138"><path
             id="path140"
             style="fill:none;stroke:#231f20;stroke-width:1.13399994;stroke-linecap:round;stroke-linejoin:miter;stroke-miterlimit:4;stroke-dasharray:none;stroke-opacity:1"
             d="M 0,0 10.082,0" /></g><g
           transform="translate(191.9453,87.3203)"
           id="g142"><path
             id="path144"
             style="fill:none;stroke:#231f20;stroke-width:1.13399994;stroke-linecap:round;stroke-linejoin:miter;stroke-miterlimit:4;stroke-dasharray:none;stroke-opacity:1"
             d="M 0,0 -11.396,-3.668" /></g><g
           transform="translate(180.5508,107.9565)"
           id="g146"><path
             id="path148"
             style="fill:none;stroke:#231f20;stroke-width:1.13399994;stroke-linecap:round;stroke-linejoin:miter;stroke-miterlimit:4;stroke-dasharray:none;stroke-opacity:1"
             d="M 0,0 11.396,-3.673" /></g><g
           transform="translate(202.042,104.2935)"
           id="g150"><path
             id="path152"
             style="fill:none;stroke:#231f20;stroke-width:0.50999999;stroke-linecap:round;stroke-linejoin:miter;stroke-miterlimit:4;stroke-dasharray:none;stroke-opacity:1"
             d="m 0,0 c -1.25,0 -2.262,-3.791 -2.262,-8.467 0,-4.676 1.012,-8.466 2.262,-8.466" /></g><g
           transform="translate(202.042,87.3604)"
           id="g154"><path
             id="path156"
             style="fill:none;stroke:#231f20;stroke-width:1.13399994;stroke-linecap:round;stroke-linejoin:miter;stroke-miterlimit:4;stroke-dasharray:none;stroke-opacity:1"
             d="m 0,0 c 1.249,0 2.261,3.79 2.261,8.466 0,4.676 -1.012,8.467 -2.261,8.467" /></g><g
           transform="translate(202.042,101.6714)"
           id="g158"><path
             id="path160"
             style="fill:none;stroke:#231f20;stroke-width:0.50999999;stroke-linecap:round;stroke-linejoin:miter;stroke-miterlimit:4;stroke-dasharray:none;stroke-opacity:1"
             d="m 0,0 c -0.862,0 -1.562,-2.617 -1.562,-5.845 0,-3.228 0.7,-5.846 1.562,-5.846 0.861,0 1.561,2.618 1.561,5.846 C 1.561,-2.617 0.861,0 0,0" /></g><g
           transform="translate(152.918,98.8672)"
           id="g162"><path
             id="path164"
             style="fill:none;stroke:#231f20;stroke-width:1.13399994;stroke-linecap:round;stroke-linejoin:miter;stroke-miterlimit:4;stroke-dasharray:none;stroke-opacity:1"
             d="M 0,0 C 0.915,-1.429 2.95,-1.758 4.545,-0.736 6.141,0.285 6.691,2.271 5.776,3.7" /></g><g
           transform="translate(158.6943,102.5674)"
           id="g166"><path
             id="path168"
             style="fill:none;stroke:#231f20;stroke-width:0.50999999;stroke-linecap:round;stroke-linejoin:miter;stroke-miterlimit:4;stroke-dasharray:none;stroke-opacity:1"
             d="M 0,0 C -0.915,1.429 -2.95,1.758 -4.545,0.736 -6.14,-0.285 -6.691,-2.271 -5.776,-3.7" /></g><g
           transform="translate(168.9951,85.2949)"
           id="g170"><path
             id="path172"
             style="fill:none;stroke:#231f20;stroke-width:0.50999999;stroke-linecap:round;stroke-linejoin:miter;stroke-miterlimit:4;stroke-dasharray:none;stroke-opacity:1"
             d="m 0,0 c -0.071,-0.681 1.398,-1.394 3.282,-1.591 1.884,-0.197 3.469,0.196 3.54,0.878" /></g><g
           transform="translate(175.8174,84.582)"
           id="g174"><path
             id="path176"
             style="fill:none;stroke:#231f20;stroke-width:1.13399994;stroke-linecap:round;stroke-linejoin:miter;stroke-miterlimit:4;stroke-dasharray:none;stroke-opacity:1"
             d="M 0,0 C 0.071,0.682 -1.398,1.395 -3.282,1.591 -5.166,1.788 -6.751,1.395 -6.822,0.713" /></g><g
           transform="translate(159.0029,101.9072)"
           id="g178"><path
             id="path180"
             style="fill:none;stroke:#231f20;stroke-width:1.13399994;stroke-linecap:round;stroke-linejoin:miter;stroke-miterlimit:4;stroke-dasharray:none;stroke-opacity:1"
             d="M 0,0 C -1.073,0.976 -2.755,1.017 -4.075,0.181 -5.429,-0.687 -6.03,-2.249 -5.614,-3.596" /></g><g
           transform="translate(170.6816,86.1709)"
           id="g182"><path
             id="path184"
             style="fill:none;stroke:#231f20;stroke-width:1.13399994;stroke-linecap:round;stroke-linejoin:miter;stroke-miterlimit:4;stroke-dasharray:none;stroke-opacity:1"
             d="M 0,0 C 1.12,-0.384 2.541,-0.518 3.667,-0.383" /></g><g
           transform="translate(224.6133,121.0723)"
           id="g186"><path
             id="path188"
             style="fill:none;stroke:#231f20;stroke-width:1.13399994;stroke-linecap:round;stroke-linejoin:miter;stroke-miterlimit:4;stroke-dasharray:none;stroke-opacity:1"
             d="m 0,0 c -3.613,0 -6.543,-11.314 -6.544,-25.271 -0.001,-13.958 2.927,-25.273 6.539,-25.274" /></g><g
           transform="translate(224.6113,121.0723)"
           id="g190"><path
             id="path192"
             style="fill:none;stroke:#231f20;stroke-width:1.13399994;stroke-linecap:round;stroke-linejoin:miter;stroke-miterlimit:4;stroke-dasharray:none;stroke-opacity:1"
             d="M 0,0 16.117,-0.001" /></g><g
           transform="translate(224.6094,70.5273)"
           id="g194"><path
             id="path196"
             style="fill:none;stroke:#231f20;stroke-width:1.13399994;stroke-linecap:round;stroke-linejoin:miter;stroke-miterlimit:4;stroke-dasharray:none;stroke-opacity:1"
             d="M 0,0 16.119,0" /></g><g
           transform="translate(85.9697,115.3682)"
           id="g198"><path
             id="path200"
             style="fill:none;stroke:#231f20;stroke-width:1.13399994;stroke-linecap:round;stroke-linejoin:miter;stroke-miterlimit:4;stroke-dasharray:none;stroke-opacity:1"
             d="M 0,0 C -7.676,0 -13.91,-8.727 -14.013,-19.561" /></g><g
           transform="translate(96.9253,107.9072)"
           id="g202"><path
             id="path204"
             style="fill:none;stroke:#231f20;stroke-width:1.13399994;stroke-linecap:round;stroke-linejoin:miter;stroke-miterlimit:4;stroke-dasharray:none;stroke-opacity:1"
             d="M 0,0 C -2.757,4.889 -6.818,7.443 -10.956,7.461" /></g><g
           transform="translate(71.9561,95.7607)"
           id="g206"><path
             id="path208"
             style="fill:none;stroke:#231f20;stroke-width:1.13399994;stroke-linecap:round;stroke-linejoin:miter;stroke-miterlimit:4;stroke-dasharray:none;stroke-opacity:1"
             d="m 0,0 c 0,-0.074 0,-0.148 0,-0.212 -0.001,-10.945 3.748,-19.819 8.374,-19.819 2.74,0 5.172,3.112 6.717,7.976" /></g><g
           transform="translate(85.9448,110.5483)"
           id="g210"><path
             id="path212"
             style="fill:none;stroke:#231f20;stroke-width:1.13399994;stroke-linecap:round;stroke-linejoin:miter;stroke-miterlimit:4;stroke-dasharray:none;stroke-opacity:1"
             d="M 0,0 C -5.347,-0.001 -9.68,-6.746 -9.679,-15.063" /></g><g
           transform="translate(91.4253,107.9048)"
           id="g214"><path
             id="path216"
             style="fill:none;stroke:#231f20;stroke-width:1.13399994;stroke-linecap:round;stroke-linejoin:miter;stroke-miterlimit:4;stroke-dasharray:none;stroke-opacity:1"
             d="M 0,0 C -1.689,1.803 -3.615,2.66 -5.48,2.644" /></g><g
           transform="translate(82.9092,83.7051)"
           id="g218"><path
             id="path220"
             style="fill:none;stroke:#231f20;stroke-width:1.13399994;stroke-linecap:round;stroke-linejoin:miter;stroke-miterlimit:4;stroke-dasharray:none;stroke-opacity:1"
             d="M 0,0 C -0.626,-1.936 -1.475,-3.239 -2.586,-3.24" /></g><g
           transform="translate(76.2656,95.4844)"
           id="g222"><path
             id="path224"
             style="fill:none;stroke:#231f20;stroke-width:1.13399994;stroke-linecap:round;stroke-linejoin:miter;stroke-miterlimit:4;stroke-dasharray:none;stroke-opacity:1"
             d="M 0,0 C 0.001,-5.786 1.101,-15.02 4.057,-15.02" /></g><g
           transform="translate(85.6489,107.9058)"
           id="g226"><path
             id="path228"
             style="fill:none;stroke:#231f20;stroke-width:1.13399994;stroke-linecap:round;stroke-linejoin:miter;stroke-miterlimit:4;stroke-dasharray:none;stroke-opacity:1"
             d="M 0,0 C -0.503,0.892 -1.049,1.706 -1.571,2.36" /></g><g
           transform="translate(74.7144,115.3672)"
           id="g230"><path
             id="path232"
             style="fill:none;stroke:#231f20;stroke-width:1.13399994;stroke-linecap:round;stroke-linejoin:miter;stroke-miterlimit:4;stroke-dasharray:none;stroke-opacity:1"
             d="M 0,0 C -7.74,-0.001 -14.013,-8.876 -14.011,-19.822" /></g><g
           transform="translate(80.353,113.6934)"
           id="g234"><path
             id="path236"
             style="fill:none;stroke:#231f20;stroke-width:1.13399994;stroke-linecap:round;stroke-linejoin:miter;stroke-miterlimit:4;stroke-dasharray:none;stroke-opacity:1"
             d="M 0,0 C -1.868,1.161 -3.818,1.699 -5.639,1.674" /></g><g
           transform="translate(60.7041,95.5459)"
           id="g238"><path
             id="path240"
             style="fill:none;stroke:#231f20;stroke-width:1.13399994;stroke-linecap:round;stroke-linejoin:miter;stroke-miterlimit:4;stroke-dasharray:none;stroke-opacity:1"
             d="m 0,0 c 0.002,-10.945 3.753,-19.818 8.379,-19.817 2.175,0 4.156,1.962 5.638,5.164" /></g><g
           transform="translate(74.6938,110.5469)"
           id="g242"><path
             id="path244"
             style="fill:none;stroke:#231f20;stroke-width:1.13399994;stroke-linecap:round;stroke-linejoin:miter;stroke-miterlimit:4;stroke-dasharray:none;stroke-opacity:1"
             d="M 0,0 C -5.347,-0.001 -9.681,-6.746 -9.68,-15.064" /></g><g
           transform="translate(76.5957,110.2539)"
           id="g246"><path
             id="path248"
             style="fill:none;stroke:#231f20;stroke-width:1.13399994;stroke-linecap:round;stroke-linejoin:miter;stroke-miterlimit:4;stroke-dasharray:none;stroke-opacity:1"
             d="M 0,0 C -0.66,0.205 -1.317,0.301 -1.902,0.293" /></g><g
           transform="translate(71.6587,83.7051)"
           id="g250"><path
             id="path252"
             style="fill:none;stroke:#231f20;stroke-width:1.13399994;stroke-linecap:round;stroke-linejoin:miter;stroke-miterlimit:4;stroke-dasharray:none;stroke-opacity:1"
             d="M 0,0 C -0.627,-1.936 -1.476,-3.24 -2.587,-3.24" /></g><g
           transform="translate(65.0142,95.4839)"
           id="g254"><path
             id="path256"
             style="fill:none;stroke:#231f20;stroke-width:1.13399994;stroke-linecap:round;stroke-linejoin:miter;stroke-miterlimit:4;stroke-dasharray:none;stroke-opacity:1"
             d="M 0,0 C 0,-5.787 1.102,-15.019 4.058,-15.019" /></g><g
           transform="translate(74.397,107.9063)"
           id="g258"><path
             id="path260"
             style="fill:none;stroke:#231f20;stroke-width:1.13399994;stroke-linecap:round;stroke-linejoin:miter;stroke-miterlimit:4;stroke-dasharray:none;stroke-opacity:1"
             d="M 0,0 C -0.502,0.892 -1.049,1.705 -1.57,2.359" /></g><g
           transform="translate(63.4629,115.3672)"
           id="g262"><path
             id="path264"
             style="fill:none;stroke:#231f20;stroke-width:1.13399994;stroke-linecap:round;stroke-linejoin:miter;stroke-miterlimit:4;stroke-dasharray:none;stroke-opacity:1"
             d="M 0,0 C -7.74,-0.002 -14.013,-8.876 -14.011,-19.822" /></g><g
           transform="translate(69.1016,113.6934)"
           id="g266"><path
             id="path268"
             style="fill:none;stroke:#231f20;stroke-width:1.13399994;stroke-linecap:round;stroke-linejoin:miter;stroke-miterlimit:4;stroke-dasharray:none;stroke-opacity:1"
             d="M 0,0 C -1.868,1.16 -3.818,1.698 -5.639,1.674" /></g><g
           transform="translate(49.4526,95.5449)"
           id="g270"><path
             id="path272"
             style="fill:none;stroke:#231f20;stroke-width:1.13399994;stroke-linecap:round;stroke-linejoin:miter;stroke-miterlimit:4;stroke-dasharray:none;stroke-opacity:1"
             d="m 0,0 c 0.003,-10.945 3.755,-19.818 8.381,-19.816 2.175,0 4.155,1.962 5.637,5.164" /></g><g
           transform="translate(63.4429,110.5469)"
           id="g274"><path
             id="path276"
             style="fill:none;stroke:#231f20;stroke-width:1.13399994;stroke-linecap:round;stroke-linejoin:miter;stroke-miterlimit:4;stroke-dasharray:none;stroke-opacity:1"
             d="M 0,0 C -5.347,-0.001 -9.681,-6.746 -9.679,-15.064" /></g><g
           transform="translate(65.3452,110.2534)"
           id="g278"><path
             id="path280"
             style="fill:none;stroke:#231f20;stroke-width:1.13399994;stroke-linecap:round;stroke-linejoin:miter;stroke-miterlimit:4;stroke-dasharray:none;stroke-opacity:1"
             d="M 0,0 C -0.66,0.206 -1.318,0.301 -1.902,0.293" /></g><g
           transform="translate(60.4072,83.7051)"
           id="g282"><path
             id="path284"
             style="fill:none;stroke:#231f20;stroke-width:1.13399994;stroke-linecap:round;stroke-linejoin:miter;stroke-miterlimit:4;stroke-dasharray:none;stroke-opacity:1"
             d="M 0,0 C -0.627,-1.936 -1.476,-3.241 -2.587,-3.241" /></g><g
           transform="translate(53.7627,95.4834)"
           id="g286"><path
             id="path288"
             style="fill:none;stroke:#231f20;stroke-width:1.13399994;stroke-linecap:round;stroke-linejoin:miter;stroke-miterlimit:4;stroke-dasharray:none;stroke-opacity:1"
             d="M 0,0 C 0,-5.787 1.101,-15.02 4.058,-15.02" /></g><g
           transform="translate(47.9189,95.5469)"
           id="g290"><path
             id="path292"
             style="fill:none;stroke:#231f20;stroke-width:1.13399994;stroke-linecap:round;stroke-linejoin:miter;stroke-miterlimit:4;stroke-dasharray:none;stroke-opacity:1"
             d="M 0,0 1.534,0" /></g><g
           transform="translate(57.8228,115.3662)"
           id="g294"><path
             id="path296"
             style="fill:none;stroke:#231f20;stroke-width:1.13399994;stroke-linecap:round;stroke-linejoin:miter;stroke-miterlimit:4;stroke-dasharray:none;stroke-opacity:1"
             d="M 0,0 C -5.473,-0.002 -9.907,-8.876 -9.904,-19.822" /></g><g
           transform="translate(60.1563,107.9106)"
           id="g298"><path
             id="path300"
             style="fill:none;stroke:#231f20;stroke-width:1.13399994;stroke-linecap:round;stroke-linejoin:miter;stroke-miterlimit:4;stroke-dasharray:none;stroke-opacity:1"
             d="M 0,0 C -0.198,0.503 -0.411,0.957 -0.639,1.342" /></g><g
           transform="translate(64.0742,108.6719)"
           id="g302"><path
             id="path304"
             style="fill:none;stroke:#231f20;stroke-width:1.13399994;stroke-linecap:round;stroke-linejoin:miter;stroke-miterlimit:4;stroke-dasharray:none;stroke-opacity:1"
             d="M 0,0 C -0.231,0.618 -0.474,1.193 -0.699,1.661" /></g><g
           transform="translate(59.8608,114.7554)"
           id="g306"><path
             id="path308"
             style="fill:none;stroke:#231f20;stroke-width:1.13399994;stroke-linecap:round;stroke-linejoin:miter;stroke-miterlimit:4;stroke-dasharray:none;stroke-opacity:1"
             d="M 0,0 C -0.711,0.427 -1.423,0.626 -2.064,0.611" /></g></g></g><g
       transform="translate(64.5767,114.667)"
       id="g310"><path
         id="path312"
         style="fill:none;stroke:#ffffff;stroke-width:3;stroke-linecap:round;stroke-linejoin:round;stroke-miterlimit:4;stroke-dasharray:none;stroke-opacity:1"
         d="M 0,0 0,28.507" /></g><g
       id="g314"><g
         clip-path="url(#clipPath318)"
         id="g316"><g
           transform="translate(65.8101,114.5449)"
           id="g322"><path
             id="path324"
             style="fill:#231f20;fill-opacity:1;fill-rule:nonzero;stroke:none"
             d="m 0,0 c 0,0.681 -0.552,1.233 -1.233,1.233 -0.682,0 -1.234,-0.552 -1.234,-1.233 0,-0.681 0.552,-1.233 1.234,-1.233 C -0.552,-1.233 0,-0.681 0,0" /></g><g
           transform="translate(65.8101,114.5449)"
           id="g326"><path
             id="path328"
             style="fill:none;stroke:#ffffff;stroke-width:1;stroke-linecap:butt;stroke-linejoin:miter;stroke-miterlimit:4;stroke-dasharray:none;stroke-opacity:1"
             d="m 0,0 c 0,0.681 -0.552,1.233 -1.233,1.233 -0.682,0 -1.234,-0.552 -1.234,-1.233 0,-0.681 0.552,-1.233 1.234,-1.233 C -0.552,-1.233 0,-0.681 0,0 Z" /></g><g
           transform="translate(64.5767,114.667)"
           id="g330"><path
             id="path332"
             style="fill:none;stroke:#231f20;stroke-width:0.5;stroke-linecap:round;stroke-linejoin:round;stroke-miterlimit:4;stroke-dasharray:none;stroke-opacity:1"
             d="M 0,0 0,28.507" /></g><g
           transform="translate(131.0957,105.1094)"
           id="g334"><path
             id="path336"
             style="fill:none;stroke:#ffffff;stroke-width:3;stroke-linecap:round;stroke-linejoin:round;stroke-miterlimit:4;stroke-dasharray:none;stroke-opacity:1"
             d="M 0,0 0,38.065" /></g><g
           transform="translate(132.3291,104.9873)"
           id="g338"><path
             id="path340"
             style="fill:#231f20;fill-opacity:1;fill-rule:nonzero;stroke:none"
             d="m 0,0 c 0,0.681 -0.552,1.233 -1.233,1.233 -0.682,0 -1.234,-0.552 -1.234,-1.233 0,-0.681 0.552,-1.233 1.234,-1.233 C -0.552,-1.233 0,-0.681 0,0" /></g><g
           transform="translate(132.3291,104.9873)"
           id="g342"><path
             id="path344"
             style="fill:none;stroke:#ffffff;stroke-width:1;stroke-linecap:butt;stroke-linejoin:miter;stroke-miterlimit:4;stroke-dasharray:none;stroke-opacity:1"
             d="m 0,0 c 0,0.681 -0.552,1.233 -1.233,1.233 -0.682,0 -1.234,-0.552 -1.234,-1.233 0,-0.681 0.552,-1.233 1.234,-1.233 C -0.552,-1.233 0,-0.681 0,0 Z" /></g><g
           transform="translate(131.0957,105.1094)"
           id="g346"><path
             id="path348"
             style="fill:none;stroke:#231f20;stroke-width:0.5;stroke-linecap:round;stroke-linejoin:round;stroke-miterlimit:4;stroke-dasharray:none;stroke-opacity:1"
             d="M 0,0 0,38.065" /></g></g></g><text
       id="text350"
       style="font-variant:normal;font-weight:bold;font-stretch:normal;font-size:10px;font-family:Helvetica;-inkscape-font-specification:Helvetica-Bold;writing-mode:lr-tb;fill:#231f20;fill-opacity:1;fill-rule:nonzero;stroke:none"
       transform="matrix(1,0,0,-1,62.3149,145.8071)"><tspan
         id="tspan352"
         y="0"
         x="0 66.239998">12</tspan></text>
<g
       id="g354"><g
         clip-path="url(#clipPath358)"
         id="g356"><g
           transform="translate(19.0962,113.7759)"
           id="g362"><path
             id="path364"
             style="fill:none;stroke:#ffffff;stroke-width:3;stroke-linecap:round;stroke-linejoin:round;stroke-miterlimit:4;stroke-dasharray:none;stroke-opacity:1"
             d="M 0,0 -0.667,29.398" /></g><g
           transform="translate(20.3296,113.6538)"
           id="g366"><path
             id="path368"
             style="fill:#231f20;fill-opacity:1;fill-rule:nonzero;stroke:none"
             d="m 0,0 c 0,0.681 -0.552,1.233 -1.233,1.233 -0.682,0 -1.234,-0.552 -1.234,-1.233 0,-0.681 0.552,-1.233 1.234,-1.233 C -0.552,-1.233 0,-0.681 0,0" /></g><g
           transform="translate(20.3296,113.6538)"
           id="g370"><path
             id="path372"
             style="fill:none;stroke:#ffffff;stroke-width:1;stroke-linecap:butt;stroke-linejoin:miter;stroke-miterlimit:4;stroke-dasharray:none;stroke-opacity:1"
             d="m 0,0 c 0,0.681 -0.552,1.233 -1.233,1.233 -0.682,0 -1.234,-0.552 -1.234,-1.233 0,-0.681 0.552,-1.233 1.234,-1.233 C -0.552,-1.233 0,-0.681 0,0 Z" /></g><g
           transform="translate(19.0962,113.7759)"
           id="g374"><path
             id="path376"
             style="fill:none;stroke:#231f20;stroke-width:0.5;stroke-linecap:round;stroke-linejoin:round;stroke-miterlimit:4;stroke-dasharray:none;stroke-opacity:1"
             d="M 0,0 -0.667,29.398" /></g></g></g><text
       id="text378"
       style="font-variant:normal;font-weight:bold;font-stretch:normal;font-size:10px;font-family:Helvetica;-inkscape-font-specification:Helvetica-Bold;writing-mode:lr-tb;fill:#231f20;fill-opacity:1;fill-rule:nonzero;stroke:none"
       transform="matrix(1,0,0,-1,15.8843,145.8066)"><tspan
         id="tspan380"
         y="0"
         x="0">3</tspan></text>
</g></svg>