<?xml version="1.0" encoding="UTF-8" standalone="no"?>
<!-- Created with Inkscape (http://www.inkscape.org/) -->

<svg
   xmlns:dc="http://purl.org/dc/elements/1.1/"
   xmlns:cc="http://creativecommons.org/ns#"
   xmlns:rdf="http://www.w3.org/1999/02/22-rdf-syntax-ns#"
   xmlns:svg="http://www.w3.org/2000/svg"
   xmlns="http://www.w3.org/2000/svg"
   xmlns:sodipodi="http://sodipodi.sourceforge.net/DTD/sodipodi-0.dtd"
   xmlns:inkscape="http://www.inkscape.org/namespaces/inkscape"
   id="svg3724"
   version="1.1"
   inkscape:version="0.91 r13725"
   xml:space="preserve"
   width="301.18124"
   height="230.315"
   viewBox="0 0 301.18124 230.315"
   sodipodi:docname="ckcb.svg"><metadata
     id="metadata3730"><rdf:RDF><cc:Work
         rdf:about=""><dc:format>image/svg+xml</dc:format><dc:type
           rdf:resource="http://purl.org/dc/dcmitype/StillImage" /><dc:title></dc:title></cc:Work></rdf:RDF></metadata><defs
     id="defs3728"><clipPath
       clipPathUnits="userSpaceOnUse"
       id="clipPath3738"><path
         d="m 0,0 240.945,0 0,184.252 L 0,184.252 0,0 Z"
         id="path3740"
         inkscape:connector-curvature="0" /></clipPath><clipPath
       clipPathUnits="userSpaceOnUse"
       id="clipPath3986"><path
         d="m 0,184.252 240.945,0 L 240.945,0 0,0 0,184.252 Z"
         id="path3988"
         inkscape:connector-curvature="0" /></clipPath></defs><sodipodi:namedview
     pagecolor="#ffffff"
     bordercolor="#666666"
     borderopacity="1"
     objecttolerance="10"
     gridtolerance="10"
     guidetolerance="10"
     inkscape:pageopacity="0"
     inkscape:pageshadow="2"
     inkscape:window-width="640"
     inkscape:window-height="480"
     id="namedview3726"
     showgrid="false"
     inkscape:zoom="3.3779823"
     inkscape:cx="150.59062"
     inkscape:cy="115.1575"
     inkscape:window-x="0"
     inkscape:window-y="0"
     inkscape:window-maximized="1"
     inkscape:current-layer="g3732" /><g
     id="g3732"
     inkscape:groupmode="layer"
     inkscape:label="ckcb"
     transform="matrix(1.25,0,0,-1.25,0,230.315)"><g
       id="g3734"><g
         id="g3736"
         clip-path="url(#clipPath3738)"><g
           id="g3742"
           transform="translate(243.6348,2.4189)"><path
             d="m 0,0 c 0,0 -167.951,132.771 -173.458,137.053 -5.507,4.283 -8.26,1.836 -8.26,1.836"
             style="fill:none;stroke:#000000;stroke-width:0.5;stroke-linecap:round;stroke-linejoin:round;stroke-miterlimit:10;stroke-dasharray:none;stroke-opacity:1"
             id="path3744"
             inkscape:connector-curvature="0" /></g><g
           id="g3746"
           transform="translate(63.7251,138.7578)"><path
             d="m 0,0 c -2.626,-1.946 -16.05,8.366 -24.319,15.175 -8.269,6.81 -19.262,15.565 -20.915,18.094"
             style="fill:none;stroke:#000000;stroke-width:0.5;stroke-linecap:round;stroke-linejoin:round;stroke-miterlimit:10;stroke-dasharray:none;stroke-opacity:1"
             id="path3748"
             inkscape:connector-curvature="0" /></g><g
           id="g3750"
           transform="translate(23.5488,173.0972)"><path
             d="m 0,0 c -3.21,1.459 -5.544,-1.362 -6.615,-2.918 -1.07,-1.557 -13.521,6.712 -18.677,10.7"
             style="fill:none;stroke:#000000;stroke-width:0.5;stroke-linecap:round;stroke-linejoin:round;stroke-miterlimit:10;stroke-dasharray:none;stroke-opacity:1"
             id="path3752"
             inkscape:connector-curvature="0" /></g><g
           id="g3754"
           transform="translate(133.3682,64.3174)"><path
             d="M 0,0 -2.708,-68.459"
             style="fill:none;stroke:#000000;stroke-width:0.5;stroke-linecap:round;stroke-linejoin:round;stroke-miterlimit:10;stroke-dasharray:none;stroke-opacity:1"
             id="path3756"
             inkscape:connector-curvature="0" /></g><g
           id="g3758"
           transform="translate(125.2275,61.8525)"><path
             d="m 0,0 c -6.193,-6.982 -16.401,-8.043 -22.801,-2.368 -6.399,5.677 -6.567,15.938 -0.375,22.922 6.193,6.981 16.402,8.042 22.8,2.366 C 6.023,17.244 6.192,6.983 0,0 Z"
             style="fill:none;stroke:#000000;stroke-width:0.5;stroke-linecap:round;stroke-linejoin:round;stroke-miterlimit:10;stroke-dasharray:none;stroke-opacity:1"
             id="path3760"
             inkscape:connector-curvature="0" /></g><g
           id="g3762"
           transform="translate(192.2051,133.0293)"><path
             d="m 0,0 c -6.091,5.403 -6.358,15.051 -0.596,21.549 5.696,6.421 15.151,7.364 21.249,2.17"
             style="fill:none;stroke:#000000;stroke-width:0.25;stroke-linecap:round;stroke-linejoin:round;stroke-miterlimit:10;stroke-dasharray:none;stroke-opacity:1"
             id="path3764"
             inkscape:connector-curvature="0" /></g><g
           id="g3766"
           transform="translate(186.0264,137.0308)"><path
             d="m 0,0 c 1.207,0.537 6.179,-4.001 6.179,-4.001 6.091,-5.402 15.701,-4.513 21.465,1.985 5.762,6.498 5.494,16.144 -0.597,21.547 -0.071,0.063 -0.143,0.125 -0.215,0.186 0,0 -4.431,3.354 -3.76,5.501"
             style="fill:none;stroke:#000000;stroke-width:0.5;stroke-linecap:round;stroke-linejoin:round;stroke-miterlimit:10;stroke-dasharray:none;stroke-opacity:1"
             id="path3768"
             inkscape:connector-curvature="0" /></g><g
           id="g3770"
           transform="translate(212.9805,135.5625)"><path
             d="m 0,0 c -5.023,-5.664 -13.398,-6.438 -18.707,-1.73 -5.309,4.709 -5.542,13.117 -0.52,18.78 5.023,5.662 13.399,6.437 18.707,1.729 C 4.788,14.07 5.022,5.663 0,0 Z"
             style="fill:none;stroke:#000000;stroke-width:0.25;stroke-linecap:round;stroke-linejoin:round;stroke-miterlimit:10;stroke-dasharray:none;stroke-opacity:1"
             id="path3772"
             inkscape:connector-curvature="0" /></g><g
           id="g3774"
           transform="translate(259.3945,40.6621)"><path
             d="m 0,0 c -6.854,-7.726 -18.279,-8.784 -25.523,-2.36 -7.243,6.425 -7.561,17.895 -0.709,25.622 6.852,7.726 18.281,8.784 25.523,2.359 C 6.532,19.197 6.852,7.727 0,0 Z"
             style="fill:none;stroke:#000000;stroke-width:0.25;stroke-linecap:round;stroke-linejoin:round;stroke-miterlimit:10;stroke-dasharray:none;stroke-opacity:1"
             id="path3776"
             inkscape:connector-curvature="0" /></g><g
           id="g3778"
           transform="translate(231.6025,38.0918)"><path
             d="m 0,0 c -7.878,6.989 -8.224,19.465 -0.771,27.869 7.453,8.404 19.884,9.555 27.761,2.567"
             style="fill:none;stroke:#000000;stroke-width:0.25;stroke-linecap:round;stroke-linejoin:round;stroke-miterlimit:10;stroke-dasharray:none;stroke-opacity:1"
             id="path3780"
             inkscape:connector-curvature="0" /></g><g
           id="g3782"
           transform="translate(228.1025,41.0918)"><path
             d="m 0,0 c -7.878,6.989 -8.224,19.465 -0.771,27.869 7.453,8.404 19.884,9.555 27.761,2.567"
             style="fill:none;stroke:#000000;stroke-width:0.25;stroke-linecap:round;stroke-linejoin:round;stroke-miterlimit:10;stroke-dasharray:none;stroke-opacity:1"
             id="path3784"
             inkscape:connector-curvature="0" /></g><g
           id="g3786"
           transform="translate(244.2246,30.0645)"><path
             d="m 0,0 c -6.362,-0.64 -12.809,1.182 -17.799,5.607 -9.877,8.763 -10.31,24.404 -0.967,34.943 5.188,5.849 12.299,8.896 19.29,8.95"
             style="fill:none;stroke:#000000;stroke-width:0.25;stroke-linecap:round;stroke-linejoin:round;stroke-miterlimit:10;stroke-dasharray:none;stroke-opacity:1"
             id="path3788"
             inkscape:connector-curvature="0" /></g><g
           id="g3790"
           transform="translate(244.7607,23.6719)"><path
             d="m 0,0 c -7.186,-0.353 -14.353,1.875 -19.984,6.822 -11.933,10.488 -12.456,29.204 -1.168,41.817 5.306,5.927 12.28,9.45 19.42,10.43"
             style="fill:none;stroke:#000000;stroke-width:0.25;stroke-linecap:round;stroke-linejoin:round;stroke-miterlimit:10;stroke-dasharray:none;stroke-opacity:1"
             id="path3792"
             inkscape:connector-curvature="0" /></g><g
           id="g3794"
           transform="translate(192.6953,132.4917)"><path
             d="m 0,0 c -2.009,0.625 -3.903,1.665 -5.559,3.133 -6.622,5.875 -6.913,16.364 -0.647,23.428 6.265,7.064 16.715,8.03 23.335,2.156 1.343,-1.19 2.425,-2.571 3.245,-4.074"
             style="fill:none;stroke:#000000;stroke-width:0.25;stroke-linecap:round;stroke-linejoin:round;stroke-miterlimit:10;stroke-dasharray:none;stroke-opacity:1"
             id="path3796"
             inkscape:connector-curvature="0" /></g><g
           id="g3798"
           transform="translate(141.2246,188.1372)"><path
             d="m 0,0 38.013,-30.176 c 0.422,-0.335 0.967,-0.473 1.499,-0.381 0.531,0.094 1,0.409 1.282,0.868 0.586,0.951 1.268,1.872 2.049,2.752 7.118,8.027 18.731,9.502 26.701,3.677 0,0 -6.767,5.688 -4.353,20.845"
             style="fill:none;stroke:#000000;stroke-width:0.25;stroke-linecap:round;stroke-linejoin:round;stroke-miterlimit:10;stroke-dasharray:none;stroke-opacity:1"
             id="path3800"
             inkscape:connector-curvature="0" /></g><g
           id="g3802"
           transform="translate(133.7129,188.6738)"><path
             d="m 0,0 44.192,-34.259 c 1.07,-0.829 1.626,-2.165 1.46,-3.508 -0.791,-6.395 1.724,-12.998 6.796,-17.498 4.765,-4.225 10.706,-5.636 16.324,-4.266 0,0 29.014,-35.305 42.831,-45.499"
             style="fill:none;stroke:#000000;stroke-width:0.25;stroke-linecap:round;stroke-linejoin:round;stroke-miterlimit:10;stroke-dasharray:none;stroke-opacity:1"
             id="path3804"
             inkscape:connector-curvature="0" /></g><g
           id="g3806"
           transform="translate(101.0405,57.6592)"><path
             d="m 0,0 c -1.739,0.715 -3.377,1.721 -4.846,3.023 -7.635,6.774 -7.836,19.018 -0.447,27.352 7.389,8.33 19.572,9.595 27.207,2.822 1.267,-1.124 2.33,-2.399 3.187,-3.782"
             style="fill:none;stroke:#000000;stroke-width:0.5;stroke-linecap:round;stroke-linejoin:round;stroke-miterlimit:10;stroke-dasharray:none;stroke-opacity:1"
             id="path3808"
             inkscape:connector-curvature="0" /></g><g
           id="g3810"
           transform="translate(81.8711,76.7832)"><path
             d="m 0,0 c -1.902,6.313 -0.378,13.743 4.622,19.383 6.289,7.09 16.05,9.062 23.524,5.317"
             style="fill:none;stroke:#000000;stroke-width:0.5;stroke-linecap:round;stroke-linejoin:round;stroke-miterlimit:10;stroke-dasharray:none;stroke-opacity:1"
             id="path3812"
             inkscape:connector-curvature="0" /></g><g
           id="g3814"
           transform="translate(83.0962,77.2354)"><path
             d="m 0,0 c -0.655,6.043 1.125,12.3 5.445,17.173 8.193,9.236 22.423,9.999 31.78,1.699 2.923,-2.593 5.025,-5.764 6.285,-9.181"
             style="fill:none;stroke:#000000;stroke-width:1;stroke-linecap:round;stroke-linejoin:round;stroke-miterlimit:10;stroke-dasharray:none;stroke-opacity:1"
             id="path3816"
             inkscape:connector-curvature="0" /></g><g
           id="g3818"
           transform="translate(101.249,57.3447)"><path
             d="m 0,0 c -3.806,0.771 -7.476,2.533 -10.601,5.305 -0.08,0.071 -0.16,0.142 -0.238,0.215"
             style="fill:none;stroke:#000000;stroke-width:1;stroke-linecap:round;stroke-linejoin:round;stroke-miterlimit:10;stroke-dasharray:none;stroke-opacity:1"
             id="path3820"
             inkscape:connector-curvature="0" /></g><g
           id="g3822"
           transform="translate(124.0195,88.8867)"><path
             d="m 0,0 -8.885,4.899 c -2.482,0.492 -5.077,0.43 -7.615,-0.142 l -11.646,-7.476 c -1.421,-1.818 -2.504,-3.79 -3.233,-5.837 l -0.224,-12.372 c 0.476,-1.414 1.141,-2.758 1.979,-4.009"
             style="fill:none;stroke:#000000;stroke-width:0.5;stroke-linecap:round;stroke-linejoin:round;stroke-miterlimit:10;stroke-dasharray:none;stroke-opacity:1"
             id="path3824"
             inkscape:connector-curvature="0" /></g><g
           id="g3826"
           transform="translate(126.6387,86.4736)"><path
             d="m 0,0 c -1.962,0.513 -4.337,1.906 -8.885,4.899 -2.482,0.492 -5.077,0.43 -7.615,-0.142 -3.453,-3.576 -6.401,-5.104 -11.646,-7.476 -1.421,-1.818 -2.504,-3.79 -3.233,-5.837 0.892,-5.811 0.499,-8.936 -0.224,-12.372 0.476,-1.414 1.141,-2.758 1.979,-4.009"
             style="fill:none;stroke:#000000;stroke-width:0.5;stroke-linecap:round;stroke-linejoin:round;stroke-miterlimit:10;stroke-dasharray:none;stroke-opacity:1"
             id="path3828"
             inkscape:connector-curvature="0" /></g><g
           id="g3830"
           transform="translate(124.0195,88.8867)"><path
             d="m 0,0 2.619,-2.413 c 6.318,-6.693 6.166,-17.733 -0.611,-25.375 -6.461,-7.286 -16.707,-8.954 -24.063,-4.352 l -7.569,7.203"
             style="fill:none;stroke:#000000;stroke-width:1;stroke-linecap:round;stroke-linejoin:round;stroke-miterlimit:10;stroke-dasharray:none;stroke-opacity:1"
             id="path3832"
             inkscape:connector-curvature="0" /></g><g
           id="g3834"
           transform="translate(98.4932,83.7549)"><path
             d="M 0,0 -2.619,2.413"
             style="fill:none;stroke:#000000;stroke-width:0.5;stroke-linecap:round;stroke-linejoin:round;stroke-miterlimit:10;stroke-dasharray:none;stroke-opacity:1"
             id="path3836"
             inkscape:connector-curvature="0" /></g><g
           id="g3838"
           transform="translate(95.3076,77.877)"><path
             d="M 0,0 -2.619,2.413"
             style="fill:none;stroke:#000000;stroke-width:0.5;stroke-linecap:round;stroke-linejoin:round;stroke-miterlimit:10;stroke-dasharray:none;stroke-opacity:1"
             id="path3840"
             inkscape:connector-curvature="0" /></g><g
           id="g3842"
           transform="translate(95.0073,65.4355)"><path
             d="M 0,0 -2.619,2.413"
             style="fill:none;stroke:#000000;stroke-width:0.5;stroke-linecap:round;stroke-linejoin:round;stroke-miterlimit:10;stroke-dasharray:none;stroke-opacity:1"
             id="path3844"
             inkscape:connector-curvature="0" /></g><g
           id="g3846"
           transform="translate(110.1079,91.1768)"><path
             d="M 0,0 -2.619,2.413"
             style="fill:none;stroke:#000000;stroke-width:0.5;stroke-linecap:round;stroke-linejoin:round;stroke-miterlimit:10;stroke-dasharray:none;stroke-opacity:1"
             id="path3848"
             inkscape:connector-curvature="0" /></g><g
           id="g3850"
           transform="translate(117.8726,91.2627)"><path
             d="M 0,0 -2.619,2.413"
             style="fill:none;stroke:#000000;stroke-width:0.5;stroke-linecap:round;stroke-linejoin:round;stroke-miterlimit:10;stroke-dasharray:none;stroke-opacity:1"
             id="path3852"
             inkscape:connector-curvature="0" /></g><g
           id="g3854"
           transform="translate(109.7432,101.5674)"><path
             d="m 0,0 -30.75,26.375 c 0,0 -5.5,0.25 -9.5,-1.625 L -55.5,2.875 c 0,0 0.75,-6.375 2.125,-9.625 l 22.106,-20.136"
             style="fill:none;stroke:#000000;stroke-width:1;stroke-linecap:round;stroke-linejoin:round;stroke-miterlimit:10;stroke-dasharray:none;stroke-opacity:1"
             id="path3856"
             inkscape:connector-curvature="0" /></g><g
           id="g3858"
           transform="translate(57.8682,93.5674)"><path
             d="m 0,0 c -2.5,-0.25 -4.875,-5.125 -4.125,-9.25 0.783,-4.307 14.262,-14.747 17.375,-14.125"
             style="fill:none;stroke:#000000;stroke-width:1;stroke-linecap:round;stroke-linejoin:round;stroke-miterlimit:10;stroke-dasharray:none;stroke-opacity:1"
             id="path3860"
             inkscape:connector-curvature="0" /></g><g
           id="g3862"
           transform="translate(78.6182,75.0674)"><path
             d="m 0,0 c 0,0 -1.625,3.125 -1,9.125 l 15.75,20.75 c 0,0 5,1.5 11.375,0.25"
             style="fill:none;stroke:#000000;stroke-width:0.5;stroke-linecap:round;stroke-linejoin:round;stroke-miterlimit:10;stroke-dasharray:none;stroke-opacity:1"
             id="path3864"
             inkscape:connector-curvature="0" /></g><g
           id="g3866"
           transform="translate(69.4932,126.3174)"><path
             d="M 0,0 23.875,-21.375"
             style="fill:none;stroke:#000000;stroke-width:0.5;stroke-linecap:round;stroke-linejoin:round;stroke-miterlimit:10;stroke-dasharray:none;stroke-opacity:1"
             id="path3868"
             inkscape:connector-curvature="0" /></g><g
           id="g3870"
           transform="translate(53.9932,104.5674)"><path
             d="M 0,0 23.25,-20.875"
             style="fill:none;stroke:#000000;stroke-width:0.5;stroke-linecap:round;stroke-linejoin:round;stroke-miterlimit:10;stroke-dasharray:none;stroke-opacity:1"
             id="path3872"
             inkscape:connector-curvature="0" /></g><g
           id="g3874"
           transform="translate(62.2432,138.1924)"><path
             d="M 0,0 C 0.5,-5.25 1.375,-6.5 -3.75,-10.125 -8.875,-13.75 -8.5,-16.5 -8.625,-18.5 c -0.125,-2 -0.375,-12.875 1,-14"
             style="fill:none;stroke:#000000;stroke-width:0.5;stroke-linecap:round;stroke-linejoin:round;stroke-miterlimit:10;stroke-dasharray:none;stroke-opacity:1"
             id="path3876"
             inkscape:connector-curvature="0" /></g><g
           id="g3878"
           transform="translate(55.6182,125.4424)"><path
             d="m 0,0 c 1.5,1.375 2.25,1 3.625,-0.25 1.375,-1.25 6,-5 6,-5"
             style="fill:none;stroke:#000000;stroke-width:0.25;stroke-linecap:round;stroke-linejoin:round;stroke-miterlimit:10;stroke-dasharray:none;stroke-opacity:1"
             id="path3880"
             inkscape:connector-curvature="0" /></g><g
           id="g3882"
           transform="translate(82.9639,77.0234)"><path
             d="m 0,0 c 0,0 -23.128,-13.468 -24.592,-14.443 -1.464,-0.976 -3.806,0.879 -3.806,0.879 l -2.342,-1.464 -5.367,1.366 c 0,0 -9.369,-5.172 -10.052,-5.563 -0.683,-0.39 -0.683,-0.879 -0.683,-0.879"
             style="fill:none;stroke:#000000;stroke-width:1;stroke-linecap:round;stroke-linejoin:round;stroke-miterlimit:10;stroke-dasharray:none;stroke-opacity:1"
             id="path3884"
             inkscape:connector-curvature="0" /></g><g
           id="g3886"
           transform="translate(36.8047,56.9199)"><path
             d="M 0,0 -30.057,-17.37"
             style="fill:none;stroke:#000000;stroke-width:1;stroke-linecap:round;stroke-linejoin:round;stroke-miterlimit:10;stroke-dasharray:none;stroke-opacity:1"
             id="path3888"
             inkscape:connector-curvature="0" /></g><g
           id="g3890"
           transform="translate(90.2827,62.873)"><path
             d="m 0,0 c 0,0 -22.9,-12.529 -24.495,-13.271 -1.594,-0.745 -1.228,-3.709 -1.228,-3.709 l -2.468,-1.239 -1.625,-5.295 c 0,0 -9.289,-5.312 -9.978,-5.693 -0.689,-0.381 -1.106,-0.127 -1.106,-0.127"
             style="fill:none;stroke:#000000;stroke-width:1;stroke-linecap:round;stroke-linejoin:round;stroke-miterlimit:10;stroke-dasharray:none;stroke-opacity:1"
             id="path3892"
             inkscape:connector-curvature="0" /></g><g
           id="g3894"
           transform="translate(49.7383,34.123)"><path
             d="M 0,0 -30.468,-16.641"
             style="fill:none;stroke:#000000;stroke-width:1;stroke-linecap:round;stroke-linejoin:round;stroke-miterlimit:10;stroke-dasharray:none;stroke-opacity:1"
             id="path3896"
             inkscape:connector-curvature="0" /></g><g
           id="g3898"
           transform="translate(7.2017,20.6504)"><path
             d="m 0,0 c 3.375,-6.084 6.958,-7.625 7.574,-7.172 0,0 3.207,1.704 4.132,2.283 0.924,0.58 -1.399,7.962 -4.616,13.436 -3.08,5.511 -8.227,11.426 -9.203,10.937 -0.975,-0.488 -4.098,-2.341 -4.098,-2.341 -0.991,-0.393 0.753,-6.184 0.753,-6.184"
             style="fill:none;stroke:#000000;stroke-width:1;stroke-linecap:round;stroke-linejoin:round;stroke-miterlimit:10;stroke-dasharray:none;stroke-opacity:1"
             id="path3900"
             inkscape:connector-curvature="0" /></g><g
           id="g3902"
           transform="translate(54.4717,63.0889)"><path
             d="M 0,0 C 2.079,1.039 11.684,-16.147 9.665,-17.447"
             style="fill:none;stroke:#000000;stroke-width:0.5;stroke-linecap:round;stroke-linejoin:round;stroke-miterlimit:10;stroke-dasharray:none;stroke-opacity:1"
             id="path3904"
             inkscape:connector-curvature="0" /></g><g
           id="g3906"
           transform="translate(51.9058,61.7197)"><path
             d="M 0,0 C 2.079,1.039 11.855,-16.489 9.836,-17.789"
             style="fill:none;stroke:#000000;stroke-width:0.5;stroke-linecap:round;stroke-linejoin:round;stroke-miterlimit:10;stroke-dasharray:none;stroke-opacity:1"
             id="path3908"
             inkscape:connector-curvature="0" /></g><g
           id="g3910"
           transform="translate(46.4863,63.0889)"><path
             d="M 0,0 C 2.829,1.414 16.136,-22.443 13.388,-24.213"
             style="fill:none;stroke:#000000;stroke-width:0.5;stroke-linecap:round;stroke-linejoin:round;stroke-miterlimit:10;stroke-dasharray:none;stroke-opacity:1"
             id="path3912"
             inkscape:connector-curvature="0" /></g><g
           id="g3914"
           transform="translate(36.7363,57.5293)"><path
             d="M 0,0 C 2.829,1.414 16.136,-22.443 13.388,-24.213"
             style="fill:none;stroke:#000000;stroke-width:0.5;stroke-linecap:round;stroke-linejoin:round;stroke-miterlimit:10;stroke-dasharray:none;stroke-opacity:1"
             id="path3916"
             inkscape:connector-curvature="0" /></g><g
           id="g3918"
           transform="translate(0.8276,37.6191)"><path
             d="M 0,0 C 2.829,1.414 16.136,-22.443 13.388,-24.213"
             style="fill:none;stroke:#000000;stroke-width:0.5;stroke-linecap:round;stroke-linejoin:round;stroke-miterlimit:10;stroke-dasharray:none;stroke-opacity:1"
             id="path3920"
             inkscape:connector-curvature="0" /></g><g
           id="g3922"
           transform="translate(1.8247,35.2305)"><path
             d="M 0,0 C 2.303,1.15 13.133,-18.267 10.896,-19.707"
             style="fill:none;stroke:#000000;stroke-width:1;stroke-linecap:round;stroke-linejoin:round;stroke-miterlimit:10;stroke-dasharray:none;stroke-opacity:1"
             id="path3924"
             inkscape:connector-curvature="0" /></g><g
           id="g3926"
           transform="translate(10.8267,22.3594)"><path
             d="M 0,0 C -4.667,-2.417 -12.25,-3.75 -12.25,-3.75"
             style="fill:none;stroke:#000000;stroke-width:1;stroke-linecap:round;stroke-linejoin:round;stroke-miterlimit:10;stroke-dasharray:none;stroke-opacity:1"
             id="path3928"
             inkscape:connector-curvature="0" /></g><g
           id="g3930"
           transform="translate(4.6597,32.6934)"><path
             d="M 0,0 C -4.667,-2.417 -12.25,-3.75 -12.25,-3.75"
             style="fill:none;stroke:#000000;stroke-width:1;stroke-linecap:round;stroke-linejoin:round;stroke-miterlimit:10;stroke-dasharray:none;stroke-opacity:1"
             id="path3932"
             inkscape:connector-curvature="0" /></g><g
           id="g3934"
           transform="translate(10.0767,35.2754)"><path
             d="M 0,0 30.417,17.25"
             style="fill:none;stroke:#000000;stroke-width:0.5;stroke-linecap:round;stroke-linejoin:round;stroke-miterlimit:10;stroke-dasharray:none;stroke-opacity:1"
             id="path3936"
             inkscape:connector-curvature="0" /></g><g
           id="g3938"
           transform="translate(15.4102,26.8584)"><path
             d="M 0,0 30.417,17.25"
             style="fill:none;stroke:#000000;stroke-width:0.5;stroke-linecap:round;stroke-linejoin:round;stroke-miterlimit:10;stroke-dasharray:none;stroke-opacity:1"
             id="path3940"
             inkscape:connector-curvature="0" /></g><g
           id="g3942"
           transform="translate(17.2437,22.1914)"><path
             d="M 0,0 30.417,17.25"
             style="fill:none;stroke:#000000;stroke-width:0.5;stroke-linecap:round;stroke-linejoin:round;stroke-miterlimit:10;stroke-dasharray:none;stroke-opacity:1"
             id="path3944"
             inkscape:connector-curvature="0" /></g><g
           id="g3946"
           transform="translate(83.3135,77.085)"><path
             d="M 0,0 C 2.01,1.105 8.946,-12.916 6.936,-14.122"
             style="fill:none;stroke:#000000;stroke-width:0.5;stroke-linecap:round;stroke-linejoin:round;stroke-miterlimit:10;stroke-dasharray:none;stroke-opacity:1"
             id="path3948"
             inkscape:connector-curvature="0" /></g><g
           id="g3950"
           transform="translate(128.9932,65.0674)"><path
             d="M 0,0 C 5.25,-1 12.875,1.25 15.125,2.25 17.375,3.25 25,7.5 25,7.5"
             style="fill:none;stroke:#000000;stroke-width:0.5;stroke-linecap:round;stroke-linejoin:round;stroke-miterlimit:10;stroke-dasharray:none;stroke-opacity:1"
             id="path3952"
             inkscape:connector-curvature="0" /></g><g
           id="g3954"
           transform="translate(129.9932,82.0674)"><path
             d="M 0,0 C 2.875,-0.375 3.75,-0.125 9.5,2.25"
             style="fill:none;stroke:#000000;stroke-width:0.5;stroke-linecap:round;stroke-linejoin:round;stroke-miterlimit:10;stroke-dasharray:none;stroke-opacity:1"
             id="path3956"
             inkscape:connector-curvature="0" /></g><g
           id="g3958"
           transform="translate(128.2432,84.6924)"><path
             d="M 0,0 7.875,2.25"
             style="fill:none;stroke:#000000;stroke-width:0.5;stroke-linecap:round;stroke-linejoin:round;stroke-miterlimit:10;stroke-dasharray:none;stroke-opacity:1"
             id="path3960"
             inkscape:connector-curvature="0" /></g><g
           id="g3962"
           transform="translate(210.708,185.8569)"><path
             d="m 0,0 c -1.744,-9.926 0.401,-15.828 5.768,-24.95 5.366,-9.121 7.377,-13.548 12.34,-18.779 4.964,-5.231 15.561,-15.963 15.561,-15.963"
             style="fill:none;stroke:#000000;stroke-width:0.25;stroke-linecap:round;stroke-linejoin:round;stroke-miterlimit:10;stroke-dasharray:none;stroke-opacity:1"
             id="path3964"
             inkscape:connector-curvature="0" /></g><g
           id="g3966"
           transform="translate(215.2686,136.8965)"><path
             d="M 0,0 C 6.17,-13.951 19.315,-35.548 27.498,-44.803"
             style="fill:none;stroke:#000000;stroke-width:0.25;stroke-linecap:round;stroke-linejoin:round;stroke-miterlimit:10;stroke-dasharray:none;stroke-opacity:1"
             id="path3968"
             inkscape:connector-curvature="0" /></g><g
           id="g3970"
           transform="translate(217.8174,142.5303)"><path
             d="M 0,0 C 7.377,-8.451 25.084,-20.926 25.084,-20.926"
             style="fill:none;stroke:#000000;stroke-width:0.25;stroke-linecap:round;stroke-linejoin:round;stroke-miterlimit:10;stroke-dasharray:none;stroke-opacity:1"
             id="path3972"
             inkscape:connector-curvature="0" /></g><g
           id="g3974"
           transform="translate(198.2432,37.9424)"><path
             d="M 0,0 C 0,0 0,-23.75 5.75,-41.5"
             style="fill:none;stroke:#000000;stroke-width:0.5;stroke-linecap:round;stroke-linejoin:round;stroke-miterlimit:10;stroke-dasharray:none;stroke-opacity:1"
             id="path3976"
             inkscape:connector-curvature="0" /></g><g
           id="g3978"
           transform="translate(258.5928,68.5273)"><path
             d="m 0,0 c 7.876,-6.987 8.224,-19.464 0.771,-27.868 -7.455,-8.403 -19.882,-9.555 -27.761,-2.568 l -3.11,2.601"
             style="fill:none;stroke:#000000;stroke-width:0.5;stroke-linecap:round;stroke-linejoin:round;stroke-miterlimit:10;stroke-dasharray:none;stroke-opacity:1"
             id="path3980"
             inkscape:connector-curvature="0" /></g></g></g><g
       id="g3982"><g
         id="g3984"
         clip-path="url(#clipPath3986)"><text
           transform="matrix(1,0,0,-1,1.9248,1.9785)"
           style="font-variant:normal;font-weight:normal;font-stretch:normal;font-size:4px;font-family:Arial;-inkscape-font-specification:ArialMT;writing-mode:lr-tb;fill:#231f20;fill-opacity:1;fill-rule:nonzero;stroke:none"
           id="text3990"><tspan
             x="0 2 4 6"
             y="0"
             sodipodi:role="line"
             id="tspan3992">ckcb</tspan></text>
</g></g><g
       id="g3994"
       transform="translate(159.8496,99.084)"><path
         d="M 0,0 -33.856,-17.392"
         style="fill:none;stroke:#ffffff;stroke-width:3;stroke-linecap:round;stroke-linejoin:miter;stroke-miterlimit:4;stroke-dasharray:none;stroke-opacity:1"
         id="path3996"
         inkscape:connector-curvature="0" /></g><g
       id="g3998"
       transform="translate(125.9932,81.6924)"><path
         d="M 0,0 0,0"
         style="fill:none;stroke:#ffffff;stroke-width:3.75;stroke-linecap:round;stroke-linejoin:miter;stroke-miterlimit:4;stroke-dasharray:none;stroke-opacity:1"
         id="path4000"
         inkscape:connector-curvature="0" /></g><g
       id="g4002"
       transform="translate(159.8496,99.084)"><path
         d="M 0,0 -33.856,-17.392"
         style="fill:none;stroke:#211f1f;stroke-width:0.5;stroke-linecap:round;stroke-linejoin:miter;stroke-miterlimit:4;stroke-dasharray:none;stroke-opacity:1"
         id="path4004"
         inkscape:connector-curvature="0" /></g><g
       id="g4006"
       transform="translate(125.9932,81.6924)"><path
         d="M 0,0 0,0"
         style="fill:none;stroke:#211f1f;stroke-width:1.5;stroke-linecap:round;stroke-linejoin:miter;stroke-miterlimit:4;stroke-dasharray:none;stroke-opacity:1"
         id="path4008"
         inkscape:connector-curvature="0" /></g><text
       transform="matrix(1,0,0,-1,161.2368,98.6445)"
       style="font-variant:normal;font-weight:bold;font-stretch:normal;font-size:10px;font-family:'Swiss 721 SWA';-inkscape-font-specification:Helvetica-Bold;writing-mode:lr-tb;fill:#231f20;fill-opacity:1;fill-rule:nonzero;stroke:none"
       id="text4010"><tspan
         x="0"
         y="0"
         id="tspan4012">1</tspan><tspan
         x="-34"
         y="-34.5"
         id="tspan4014">2</tspan></text>
<g
       id="g4016"
       transform="translate(63.9932,160.1924)"><path
         d="M 0,0 7,-38"
         style="fill:none;stroke:#ffffff;stroke-width:3;stroke-linecap:round;stroke-linejoin:miter;stroke-miterlimit:4;stroke-dasharray:none;stroke-opacity:1"
         id="path4018"
         inkscape:connector-curvature="0" /></g><g
       id="g4020"
       transform="translate(70.9932,122.1924)"><path
         d="M 0,0 0,0"
         style="fill:none;stroke:#ffffff;stroke-width:3.75;stroke-linecap:round;stroke-linejoin:miter;stroke-miterlimit:4;stroke-dasharray:none;stroke-opacity:1"
         id="path4022"
         inkscape:connector-curvature="0" /></g><g
       id="g4024"
       transform="translate(63.9932,160.1924)"><path
         d="M 0,0 7,-38"
         style="fill:none;stroke:#211f1f;stroke-width:0.5;stroke-linecap:round;stroke-linejoin:miter;stroke-miterlimit:4;stroke-dasharray:none;stroke-opacity:1"
         id="path4026"
         inkscape:connector-curvature="0" /></g><g
       id="g4028"
       transform="translate(70.9932,122.1924)"><path
         d="M 0,0 0,0"
         style="fill:none;stroke:#211f1f;stroke-width:1.5;stroke-linecap:round;stroke-linejoin:miter;stroke-miterlimit:4;stroke-dasharray:none;stroke-opacity:1"
         id="path4030"
         inkscape:connector-curvature="0" /></g><text
       transform="matrix(1,0,0,-1,61.1304,162.0029)"
       style="font-variant:normal;font-weight:bold;font-stretch:normal;font-size:10px;font-family:'Swiss 721 SWA';-inkscape-font-specification:Helvetica-Bold;writing-mode:lr-tb;fill:#231f20;fill-opacity:1;fill-rule:nonzero;stroke:none"
       id="text4032"><tspan
         x="0"
         y="0"
         id="tspan4034">3</tspan></text>
<g
       id="g4036"
       transform="translate(34.7432,79.1924)"><path
         d="M 0,0 22.25,5.75"
         style="fill:none;stroke:#ffffff;stroke-width:3;stroke-linecap:round;stroke-linejoin:miter;stroke-miterlimit:4;stroke-dasharray:none;stroke-opacity:1"
         id="path4038"
         inkscape:connector-curvature="0" /></g><g
       id="g4040"
       transform="translate(56.9932,84.9424)"><path
         d="M 0,0 0,0"
         style="fill:none;stroke:#ffffff;stroke-width:3.75;stroke-linecap:round;stroke-linejoin:miter;stroke-miterlimit:4;stroke-dasharray:none;stroke-opacity:1"
         id="path4042"
         inkscape:connector-curvature="0" /></g><g
       id="g4044"
       transform="translate(34.7432,79.1924)"><path
         d="M 0,0 22.25,5.75"
         style="fill:none;stroke:#211f1f;stroke-width:0.5;stroke-linecap:round;stroke-linejoin:miter;stroke-miterlimit:4;stroke-dasharray:none;stroke-opacity:1"
         id="path4046"
         inkscape:connector-curvature="0" /></g><g
       id="g4048"
       transform="translate(56.9932,84.9424)"><path
         d="M 0,0 0,0"
         style="fill:none;stroke:#211f1f;stroke-width:1.5;stroke-linecap:round;stroke-linejoin:miter;stroke-miterlimit:4;stroke-dasharray:none;stroke-opacity:1"
         id="path4050"
         inkscape:connector-curvature="0" /></g><g
       id="g4052"
       transform="translate(127.2432,130.6924)"><path
         d="M 0,0 -16.5,-31"
         style="fill:none;stroke:#ffffff;stroke-width:3;stroke-linecap:round;stroke-linejoin:miter;stroke-miterlimit:4;stroke-dasharray:none;stroke-opacity:1"
         id="path4054"
         inkscape:connector-curvature="0" /></g><g
       id="g4056"
       transform="translate(110.7432,99.6924)"><path
         d="M 0,0 0,0"
         style="fill:none;stroke:#ffffff;stroke-width:3.75;stroke-linecap:round;stroke-linejoin:miter;stroke-miterlimit:4;stroke-dasharray:none;stroke-opacity:1"
         id="path4058"
         inkscape:connector-curvature="0" /></g><g
       id="g4060"
       transform="translate(127.2432,130.6924)"><path
         d="M 0,0 -16.5,-31"
         style="fill:none;stroke:#211f1f;stroke-width:0.5;stroke-linecap:round;stroke-linejoin:miter;stroke-miterlimit:4;stroke-dasharray:none;stroke-opacity:1"
         id="path4062"
         inkscape:connector-curvature="0" /></g><g
       id="g4064"
       transform="translate(110.7432,99.6924)"><path
         d="M 0,0 0,0"
         style="fill:none;stroke:#211f1f;stroke-width:1.5;stroke-linecap:round;stroke-linejoin:miter;stroke-miterlimit:4;stroke-dasharray:none;stroke-opacity:1"
         id="path4066"
         inkscape:connector-curvature="0" /></g><text
       transform="matrix(1,0,0,-1,27.9556,75.3945)"
       style="font-variant:normal;font-weight:bold;font-stretch:normal;font-size:10px;font-family:'Swiss 721 SWA';-inkscape-font-specification:Helvetica-Bold;writing-mode:lr-tb;fill:#231f20;fill-opacity:1;fill-rule:nonzero;stroke:none"
       id="text4068"><tspan
         x="0"
         y="0"
         id="tspan4070">4</tspan></text>
</g></svg>