<?xml version="1.0" encoding="UTF-8" standalone="no"?>
<!-- Created with Inkscape (http://www.inkscape.org/) -->

<svg
   xmlns:dc="http://purl.org/dc/elements/1.1/"
   xmlns:cc="http://creativecommons.org/ns#"
   xmlns:rdf="http://www.w3.org/1999/02/22-rdf-syntax-ns#"
   xmlns:svg="http://www.w3.org/2000/svg"
   xmlns="http://www.w3.org/2000/svg"
   xmlns:sodipodi="http://sodipodi.sourceforge.net/DTD/sodipodi-0.dtd"
   xmlns:inkscape="http://www.inkscape.org/namespaces/inkscape"
   id="svg19404"
   version="1.1"
   inkscape:version="0.91 r13725"
   xml:space="preserve"
   width="301.18124"
   height="230.315"
   viewBox="0 0 301.18124 230.315"
   sodipodi:docname="chic_1.svg"><metadata
     id="metadata19410"><rdf:RDF><cc:Work
         rdf:about=""><dc:format>image/svg+xml</dc:format><dc:type
           rdf:resource="http://purl.org/dc/dcmitype/StillImage" /><dc:title></dc:title></cc:Work></rdf:RDF></metadata><defs
     id="defs19408"><clipPath
       clipPathUnits="userSpaceOnUse"
       id="clipPath19418"><path
         d="m 0.031,0 240.913,0 0,184.189 -240.913,0 L 0.031,0 Z"
         id="path19420"
         inkscape:connector-curvature="0" /></clipPath><clipPath
       clipPathUnits="userSpaceOnUse"
       id="clipPath19686"><path
         d="m 0,184.252 240.945,0 L 240.945,0 0,0 0,184.252 Z"
         id="path19688"
         inkscape:connector-curvature="0" /></clipPath></defs><sodipodi:namedview
     pagecolor="#ffffff"
     bordercolor="#666666"
     borderopacity="1"
     objecttolerance="10"
     gridtolerance="10"
     guidetolerance="10"
     inkscape:pageopacity="0"
     inkscape:pageshadow="2"
     inkscape:window-width="640"
     inkscape:window-height="480"
     id="namedview19406"
     showgrid="false"
     inkscape:zoom="3.317196"
     inkscape:cx="150.59062"
     inkscape:cy="115.1575"
     inkscape:window-x="0"
     inkscape:window-y="0"
     inkscape:window-maximized="1"
     inkscape:current-layer="g19412" /><g
     id="g19412"
     inkscape:groupmode="layer"
     inkscape:label="chic_1"
     transform="matrix(1.25,0,0,-1.25,0,230.315)"><g
       id="g19414"><g
         id="g19416"
         clip-path="url(#clipPath19418)"><g
           id="g19422"
           transform="translate(51.9546,104.126)"><path
             d="M 0,0 C 7.866,-4.204 16.622,-12.045 24.19,-22.335 38.606,-41.938 43.255,-63.006 34.573,-69.391"
             style="fill:none;stroke:#231f20;stroke-width:0.5;stroke-linecap:round;stroke-linejoin:round;stroke-miterlimit:10;stroke-dasharray:none;stroke-opacity:1"
             id="path19424"
             inkscape:connector-curvature="0" /></g><g
           id="g19426"
           transform="translate(34.3193,105.7207)"><path
             d="M 0,0 C 2.241,1.648 5.15,2.158 8.482,1.67"
             style="fill:none;stroke:#231f20;stroke-width:0.5;stroke-linecap:round;stroke-linejoin:round;stroke-miterlimit:10;stroke-dasharray:none;stroke-opacity:1"
             id="path19428"
             inkscape:connector-curvature="0" /></g><g
           id="g19430"
           transform="translate(74.7983,33.8145)"><path
             d="m 0,0 c 4.69,-1.443 8.786,-1.243 11.729,0.921 0,0 23.784,19.705 24.837,20.316 1.053,0.612 2.167,0.333 2.167,0.333"
             style="fill:none;stroke:#231f20;stroke-width:1.5;stroke-linecap:round;stroke-linejoin:round;stroke-miterlimit:10;stroke-dasharray:none;stroke-opacity:1"
             id="path19432"
             inkscape:connector-curvature="0" /></g><g
           id="g19434"
           transform="translate(45.6978,113.3848)"><path
             d="m 0,0 -11.378,-7.664 c -8.683,-6.385 -4.035,-27.451 10.382,-47.056 4.366,-5.935 9.127,-11.055 13.884,-15.134"
             style="fill:none;stroke:#231f20;stroke-width:1.5;stroke-linecap:round;stroke-linejoin:round;stroke-miterlimit:10;stroke-dasharray:none;stroke-opacity:1"
             id="path19436"
             inkscape:connector-curvature="0" /></g><g
           id="g19438"
           transform="translate(44.7021,58.665)"><path
             d="m 0,0 c -14.104,19.179 -18.65,39.786 -10.157,46.033 2.123,1.562 4.861,2.078 7.993,1.675"
             style="fill:none;stroke:#231f20;stroke-width:0.5;stroke-linecap:round;stroke-linejoin:round;stroke-miterlimit:10;stroke-dasharray:none;stroke-opacity:1"
             id="path19440"
             inkscape:connector-curvature="0" /></g><g
           id="g19442"
           transform="translate(51.4741,103.3086)"><path
             d="m 0,0 c 7.778,-4.068 16.479,-11.813 23.987,-22.021 14.103,-19.176 18.65,-39.786 10.157,-46.032 -2.964,-2.179 -7.125,-2.323 -11.886,-0.771"
             style="fill:none;stroke:#231f20;stroke-width:0.5;stroke-linecap:round;stroke-linejoin:round;stroke-miterlimit:10;stroke-dasharray:none;stroke-opacity:1"
             id="path19444"
             inkscape:connector-curvature="0" /></g><g
           id="g19446"
           transform="translate(55.4663,51.4023)"><path
             d="m 0,0 c -2.746,2.736 -5.442,5.861 -7.979,9.312 -12.234,16.635 -16.138,34.541 -8.721,39.996 0.873,0.642 1.864,1.084 2.952,1.335"
             style="fill:none;stroke:#231f20;stroke-width:1;stroke-linecap:round;stroke-linejoin:round;stroke-miterlimit:10;stroke-dasharray:none;stroke-opacity:1"
             id="path19448"
             inkscape:connector-curvature="0" /></g><g
           id="g19450"
           transform="translate(50.9829,100.7285)"><path
             d="m 0,0 c 7.362,-3.031 16.028,-10.283 23.365,-20.26 12.234,-16.635 16.137,-34.542 8.721,-39.995 -3.773,-2.774 -9.747,-1.794 -16.316,2.026"
             style="fill:none;stroke:#231f20;stroke-width:1;stroke-linecap:round;stroke-linejoin:round;stroke-miterlimit:10;stroke-dasharray:none;stroke-opacity:1"
             id="path19452"
             inkscape:connector-curvature="0" /></g><g
           id="g19454"
           transform="translate(50.7339,97.3164)"><path
             d="m 0,0 c 6.697,-2.18 14.943,-8.781 21.836,-18.154 10.615,-14.434 14.002,-29.971 7.567,-34.702"
             style="fill:none;stroke:#231f20;stroke-width:1.5;stroke-linecap:round;stroke-linejoin:round;stroke-miterlimit:10;stroke-dasharray:none;stroke-opacity:1"
             id="path19456"
             inkscape:connector-curvature="0" /></g><g
           id="g19458"
           transform="translate(53.1909,57.1367)"><path
             d="m 0,0 c -1.343,1.527 -2.657,3.159 -3.926,4.885 -10.615,14.433 -14.002,29.969 -7.567,34.702"
             style="fill:none;stroke:#231f20;stroke-width:1.5;stroke-linecap:round;stroke-linejoin:round;stroke-miterlimit:10;stroke-dasharray:none;stroke-opacity:1"
             id="path19460"
             inkscape:connector-curvature="0" /></g><g
           id="g19462"
           transform="translate(80.1372,44.46)"><path
             d="M 0,0 C -3.395,-2.496 -8.842,-1.49 -14.79,2.136"
             style="fill:none;stroke:#231f20;stroke-width:1.5;stroke-linecap:round;stroke-linejoin:round;stroke-miterlimit:10;stroke-dasharray:none;stroke-opacity:1"
             id="path19464"
             inkscape:connector-curvature="0" /></g><g
           id="g19466"
           transform="translate(48.1118,71.2637)"><path
             d="M 0,0 C -4.92,8.575 -7.167,16.891 -6.205,22.478"
             style="fill:none;stroke:#231f20;stroke-width:0.5;stroke-linecap:round;stroke-linejoin:round;stroke-miterlimit:10;stroke-dasharray:none;stroke-opacity:1"
             id="path19468"
             inkscape:connector-curvature="0" /></g><g
           id="g19470"
           transform="translate(81.4502,45.9746)"><path
             d="M 0,0 C -4.846,-1.566 -12.237,1.645 -19.528,8.128"
             style="fill:none;stroke:#231f20;stroke-width:0.5;stroke-linecap:round;stroke-linejoin:round;stroke-miterlimit:10;stroke-dasharray:none;stroke-opacity:1"
             id="path19472"
             inkscape:connector-curvature="0" /></g><g
           id="g19474"
           transform="translate(79.8022,66.5723)"><path
             d="m 0,0 c -4.113,1.34 -8.714,4.85 -12.417,9.885 -3.527,4.797 -5.491,9.959 -5.715,14.177"
             style="fill:none;stroke:#231f20;stroke-width:0.5;stroke-linecap:round;stroke-linejoin:round;stroke-miterlimit:10;stroke-dasharray:none;stroke-opacity:1"
             id="path19476"
             inkscape:connector-curvature="0" /></g><g
           id="g19478"
           transform="translate(68.9019,127.2041)"><path
             d="m 0,0 c 10.202,-0.533 23.871,-9.512 34.709,-23.833 14.449,-19.095 18.393,-40.454 8.807,-47.708"
             style="fill:none;stroke:#231f20;stroke-width:0.5;stroke-linecap:round;stroke-linejoin:round;stroke-miterlimit:10;stroke-dasharray:none;stroke-opacity:1"
             id="path19480"
             inkscape:connector-curvature="0" /></g><g
           id="g19482"
           transform="translate(71.8521,129.4639)"><path
             d="M 0,0 C 10.378,-1.602 23.447,-10.611 33.925,-24.454 48.956,-44.32 52.958,-66.617 42.861,-74.258"
             style="fill:none;stroke:#231f20;stroke-width:0.5;stroke-linecap:round;stroke-linejoin:round;stroke-miterlimit:10;stroke-dasharray:none;stroke-opacity:1"
             id="path19484"
             inkscape:connector-curvature="0" /></g><g
           id="g19486"
           transform="translate(108.1855,52.7207)"><path
             d="m 0,0 c 2.459,0.265 4.667,1.077 6.527,2.485 l 9.152,7.012"
             style="fill:none;stroke:#231f20;stroke-width:1.5;stroke-linecap:round;stroke-linejoin:round;stroke-miterlimit:10;stroke-dasharray:none;stroke-opacity:1"
             id="path19488"
             inkscape:connector-curvature="0" /></g><g
           id="g19490"
           transform="translate(79.8843,135.8936)"><path
             d="M 0,0 C 10.422,-1.282 23.769,-10.328 34.421,-24.401 49.36,-44.146 53.337,-66.306 43.302,-73.899"
             style="fill:none;stroke:#231f20;stroke-width:0.5;stroke-linecap:round;stroke-linejoin:round;stroke-miterlimit:10;stroke-dasharray:none;stroke-opacity:1"
             id="path19492"
             inkscape:connector-curvature="0" /></g><g
           id="g19494"
           transform="translate(108.3936,134.0005)"><path
             d="m 0,0 c 2.095,1.585 5.863,0.132 8.419,-3.245 2.555,-3.376 2.929,-7.399 0.835,-8.983"
             style="fill:none;stroke:#231f20;stroke-width:1.5;stroke-linecap:round;stroke-linejoin:round;stroke-miterlimit:10;stroke-dasharray:none;stroke-opacity:1"
             id="path19496"
             inkscape:connector-curvature="0" /></g><g
           id="g19498"
           transform="translate(117.6479,121.7725)"><path
             d="m 0,0 c -2.095,-1.585 -5.864,-0.132 -8.419,3.244 -2.556,3.378 -2.93,7.399 -0.835,8.984"
             style="fill:none;stroke:#231f20;stroke-width:0.5;stroke-linecap:round;stroke-linejoin:round;stroke-miterlimit:10;stroke-dasharray:none;stroke-opacity:1"
             id="path19500"
             inkscape:connector-curvature="0" /></g><g
           id="g19502"
           transform="translate(115.8149,52.4717)"><path
             d="m 0,0 c 1.444,1.481 4.668,0.684 7.206,-1.785 2.535,-2.467 3.422,-5.671 1.979,-7.153"
             style="fill:none;stroke:#231f20;stroke-width:1.5;stroke-linecap:round;stroke-linejoin:round;stroke-miterlimit:10;stroke-dasharray:none;stroke-opacity:1"
             id="path19504"
             inkscape:connector-curvature="0" /></g><g
           id="g19506"
           transform="translate(125,43.5342)"><path
             d="m 0,0 c -1.443,-1.483 -4.669,-0.686 -7.205,1.782 -2.537,2.468 -3.422,5.67 -1.98,7.156"
             style="fill:none;stroke:#231f20;stroke-width:0.5;stroke-linecap:round;stroke-linejoin:round;stroke-miterlimit:10;stroke-dasharray:none;stroke-opacity:1"
             id="path19508"
             inkscape:connector-curvature="0" /></g><g
           id="g19510"
           transform="translate(108.6978,52.5098)"><path
             d="m 0,0 4.346,-6.443 c 0.704,-1.038 1.556,-2.059 2.544,-3.02 4.677,-4.554 10.631,-6.025 13.294,-3.288 0,0 8.316,9.376 10.691,11.751 C 33.25,1.375 33,5.875 31,10.375 c -2,4.5 -1.875,5.375 -1.875,7"
             style="fill:none;stroke:#231f20;stroke-width:1.5;stroke-linecap:round;stroke-linejoin:round;stroke-miterlimit:10;stroke-dasharray:none;stroke-opacity:1"
             id="path19512"
             inkscape:connector-curvature="0" /></g><g
           id="g19514"
           transform="translate(100.8052,138.3574)"><path
             d="m 0,0 c -1.091,-0.582 -2.299,-0.616 -4.44,-0.14 -3,0.667 -8,2.5 -9.834,3"
             style="fill:none;stroke:#231f20;stroke-width:0.5;stroke-linecap:round;stroke-linejoin:round;stroke-miterlimit:10;stroke-dasharray:none;stroke-opacity:1"
             id="path19516"
             inkscape:connector-curvature="0" /></g><g
           id="g19518"
           transform="translate(103.2476,140.4575)"><path
             d="m 0,0 c 4.07,3.078 11.391,0.257 16.357,-6.305 4.013,-5.301 4.755,-11.222 3.437,-15.202 -1.51,-4.566 0.823,-8.732 4.823,-9.066 4,-0.333 15.5,-1.667 15.5,-1.667 l 11.833,12.334"
             style="fill:none;stroke:#231f20;stroke-width:0.5;stroke-linecap:round;stroke-linejoin:round;stroke-miterlimit:10;stroke-dasharray:none;stroke-opacity:1"
             id="path19520"
             inkscape:connector-curvature="0" /></g><g
           id="g19522"
           transform="translate(125.0742,150.8184)"><path
             d="m 0,0 c 5.561,-0.996 8.226,-4.784 9.406,-6.343 3.921,-5.179 4.205,-11.118 2.065,-14.954 -2.097,-3.762 -1.222,-8.137 2.403,-9.137"
             style="fill:none;stroke:#231f20;stroke-width:1.5;stroke-linecap:round;stroke-linejoin:round;stroke-miterlimit:10;stroke-dasharray:none;stroke-opacity:1"
             id="path19524"
             inkscape:connector-curvature="0" /></g><g
           id="g19526"
           transform="translate(100.8052,138.3574)"><path
             d="M 0,0 C 0.437,0.233 0.855,0.555 1.308,0.966 1.704,1.327 2.01,1.773 2.442,2.1 l 15.75,9.167 c 1.667,1.26 3.815,1.618 6.077,1.194"
             style="fill:none;stroke:#231f20;stroke-width:1.5;stroke-linecap:round;stroke-linejoin:round;stroke-miterlimit:10;stroke-dasharray:none;stroke-opacity:1"
             id="path19528"
             inkscape:connector-curvature="0" /></g><g
           id="g19530"
           transform="translate(137.3228,121.3848)"><path
             d="m 0,0 17.125,-0.375 c 13.25,-0.125 13,-18.375 13,-18.375 0.25,-8.75 -6.75,-12.5 -6.75,-12.5"
             style="fill:none;stroke:#231f20;stroke-width:1.5;stroke-linecap:round;stroke-linejoin:round;stroke-miterlimit:10;stroke-dasharray:none;stroke-opacity:1"
             id="path19532"
             inkscape:connector-curvature="0" /></g><g
           id="g19534"
           transform="translate(74.5313,142.0513)"><path
             d="m 0,0 c -1.333,0 -3.833,-0.5 -3.833,-0.5 0,0 -8.249,3.458 -9.5,3.667 -2,0.333 -0.334,3.166 -3.334,4.666 -3,1.5 -15.833,5.5 -15.833,5.5"
             style="fill:none;stroke:#231f20;stroke-width:0.5;stroke-linecap:round;stroke-linejoin:round;stroke-miterlimit:10;stroke-dasharray:none;stroke-opacity:1"
             id="path19536"
             inkscape:connector-curvature="0" /></g><g
           id="g19538"
           transform="translate(136.6362,75.4727)"><path
             d="m 0,0 c -0.429,-0.307 -0.711,-0.795 -0.742,-1.53 -0.362,-8.558 -3.826,-13.254 -6.029,-15.891 -2.542,-3.042 -3.275,-5.376 -1.409,-9.209 1.79,-3.676 2.329,-7.129 0.425,-9.084"
             style="fill:none;stroke:#231f20;stroke-width:0.5;stroke-linecap:round;stroke-linejoin:round;stroke-miterlimit:10;stroke-dasharray:none;stroke-opacity:1"
             id="path19540"
             inkscape:connector-curvature="0" /></g><g
           id="g19542"
           transform="translate(136.8882,75.625)"><path
             d="M 0,0 C -0.089,-0.045 -0.173,-0.096 -0.252,-0.152"
             style="fill:none;stroke:#231f20;stroke-width:0.5;stroke-linecap:round;stroke-linejoin:round;stroke-miterlimit:10;stroke-dasharray:none;stroke-opacity:1"
             id="path19544"
             inkscape:connector-curvature="0" /></g><g
           id="g19546"
           transform="translate(143.3647,108.2178)"><path
             d="m 0,0 5.5,-17 c 0,0 4.212,-0.484 6.294,-0.81 2.082,-0.325 3.905,-1.367 4.751,-4.035 0.846,-2.668 2.407,-7.223 3.059,-9.632 0.325,-1.204 0.163,-2.131 -0.398,-2.717"
             style="fill:none;stroke:#231f20;stroke-width:0.5;stroke-linecap:round;stroke-linejoin:round;stroke-miterlimit:10;stroke-dasharray:none;stroke-opacity:1"
             id="path19548"
             inkscape:connector-curvature="0" /></g><g
           id="g19550"
           transform="translate(136.8882,75.625)"><path
             d="m 0,0 c 0.665,0.336 1.576,0.346 2.455,0.205 1.627,-0.26 17.898,-2.148 20.437,-2.474 1.269,-0.163 2.248,0.065 2.791,0.667 1.002,1.112 1.627,2.362 1.627,3.987 0,1.625 0.125,5.5 0.125,5.5 0,0 0,0.5 -1,1.75 -1,1.25 -2,2.75 -2.5,4 -0.5,1.25 -0.875,1.625 -2.875,2.125 -2,0.5 -7.625,1.375 -7.625,1.375"
             style="fill:none;stroke:#231f20;stroke-width:1.5;stroke-linecap:round;stroke-linejoin:round;stroke-miterlimit:10;stroke-dasharray:none;stroke-opacity:1"
             id="path19552"
             inkscape:connector-curvature="0" /></g><g
           id="g19554"
           transform="translate(138.9478,75.8848)"><path
             d="M 0,0 C -0.271,-4.695 -2.375,-10.625 -4.875,-14"
             style="fill:none;stroke:#231f20;stroke-width:1.5;stroke-linecap:round;stroke-linejoin:round;stroke-miterlimit:10;stroke-dasharray:none;stroke-opacity:1"
             id="path19556"
             inkscape:connector-curvature="0" /></g><g
           id="g19558"
           transform="translate(148.8647,91.2178)"><path
             d="M 0,0 1.583,1.167"
             style="fill:none;stroke:#231f20;stroke-width:0.5;stroke-linecap:round;stroke-linejoin:round;stroke-miterlimit:10;stroke-dasharray:none;stroke-opacity:1"
             id="path19560"
             inkscape:connector-curvature="0" /></g><g
           id="g19562"
           transform="translate(108.0313,143.3848)"><path
             d="m 0,0 c -1.667,2 -5.5,3.5 -8.333,4.333 -2.834,0.834 -10.834,3.5 -21,-2.5 -10.167,-6 -27.834,-23.666 -31.334,-29 -3.5,-5.333 -8.5,-13.499 -4,-30.166 4.5,-16.667 13.834,-39.334 16.334,-44.667 2.5,-5.333 12.666,-9.166 15,-10.333 2.333,-1.167 4.5,-2.001 4.5,-2.001 l 1.609,-0.463 2.585,3.323"
             style="fill:none;stroke:#231f20;stroke-width:1.5;stroke-linecap:round;stroke-linejoin:round;stroke-miterlimit:10;stroke-dasharray:none;stroke-opacity:1"
             id="path19564"
             inkscape:connector-curvature="0" /></g><g
           id="g19566"
           transform="translate(105.1978,145.7183)"><path
             d="m 0,0 c -2.833,0.833 -9.833,3.333 -20,-2.667 -10.167,-6 -28.667,-24.333 -32.167,-29.666 -3.5,-5.334 -8.5,-13.5 -4,-30.167 4.5,-16.667 13.834,-39.333 16.334,-44.667 1.301,-2.776 4.679,-5.146 7.948,-6.945"
             style="fill:none;stroke:#231f20;stroke-width:0.5;stroke-linecap:round;stroke-linejoin:round;stroke-miterlimit:10;stroke-dasharray:none;stroke-opacity:1"
             id="path19568"
             inkscape:connector-curvature="0" /></g><g
           id="g19570"
           transform="translate(106.0757,142.1909)"><path
             d="m 0,0 c -1.806,1.589 -10.329,5.272 -20.802,-1.878 -10.473,-7.15 -19.574,-15.962 -27.663,-25.786 -8.09,-9.823 -8.413,-18.267 -5.788,-29.892 2.625,-11.625 14,-39.75 15.625,-43.875 1.625,-4.125 5.5,-5.875 8.25,-7.375 2.75,-1.5 5.625,-3.125 5.625,-3.125"
             style="fill:none;stroke:#231f20;stroke-width:1.5;stroke-linecap:round;stroke-linejoin:round;stroke-miterlimit:10;stroke-dasharray:none;stroke-opacity:1"
             id="path19572"
             inkscape:connector-curvature="0" /></g><g
           id="g19574"
           transform="translate(72.0835,32.0488)"><path
             d="m 0,0 c 0,0 -0.831,-1.339 -0.554,-2.308 0.277,-0.968 2.492,-5.169 2.816,-5.676 0.323,-0.508 0.785,-1.062 2.308,-1.524 1.523,-0.462 5.031,-1.662 5.723,-1.892 0.693,-0.231 2.723,-0.601 4.062,0.738 1.339,1.339 3.508,4.061 4.293,5.216 0.785,1.154 1.108,3.001 0.692,4.247 -0.415,1.246 -1.754,5.861 -1.754,5.861"
             style="fill:none;stroke:#231f20;stroke-width:1.5;stroke-linecap:round;stroke-linejoin:round;stroke-miterlimit:10;stroke-dasharray:none;stroke-opacity:1"
             id="path19576"
             inkscape:connector-curvature="0" /></g><g
           id="g19578"
           transform="translate(71.7759,30.1533)"><path
             d="m 0,0 c 0.324,-0.48 0.818,-0.994 2.246,-1.427 1.523,-0.462 5.031,-1.662 5.724,-1.892 0.692,-0.231 2.722,-0.601 4.061,0.738 1.339,1.339 3.509,4.061 4.293,5.216 0.694,1.02 1.027,2.581 0.807,3.791"
             style="fill:none;stroke:#231f20;stroke-width:0.5;stroke-linecap:round;stroke-linejoin:round;stroke-miterlimit:10;stroke-dasharray:none;stroke-opacity:1"
             id="path19580"
             inkscape:connector-curvature="0" /></g><g
           id="g19582"
           transform="translate(87.6143,22.6348)"><path
             d="M 0,0 C 2.917,-9.333 9.75,-27.167 9.75,-27.167"
             style="fill:none;stroke:#231f20;stroke-width:1.5;stroke-linecap:round;stroke-linejoin:round;stroke-miterlimit:10;stroke-dasharray:none;stroke-opacity:1"
             id="path19584"
             inkscape:connector-curvature="0" /></g><g
           id="g19586"
           transform="translate(80.1978,21.3008)"><path
             d="M 0,0 C 2.917,-9.333 9.75,-27.167 9.75,-27.167"
             style="fill:none;stroke:#231f20;stroke-width:1.5;stroke-linecap:round;stroke-linejoin:round;stroke-miterlimit:10;stroke-dasharray:none;stroke-opacity:1"
             id="path19588"
             inkscape:connector-curvature="0" /></g><g
           id="g19590"
           transform="translate(86.3643,21.1348)"><path
             d="M 0,0 C 2.917,-9.333 9.75,-27.167 9.75,-27.167"
             style="fill:none;stroke:#231f20;stroke-width:0.5;stroke-linecap:round;stroke-linejoin:round;stroke-miterlimit:10;stroke-dasharray:none;stroke-opacity:1"
             id="path19592"
             inkscape:connector-curvature="0" /></g><g
           id="g19594"
           transform="translate(102.1128,139.3237)"><path
             d="M 0,0 -9.108,4.23"
             style="fill:none;stroke:#231f20;stroke-width:1.5;stroke-linecap:round;stroke-linejoin:round;stroke-miterlimit:10;stroke-dasharray:none;stroke-opacity:1"
             id="path19596"
             inkscape:connector-curvature="0" /></g><g
           id="g19598"
           transform="translate(84.436,148.0293)"><path
             d="M 0,0 C 0,0 -7.521,2.761 -8.283,3.142 -9.045,3.522 -9.14,3.903 -9.331,4.284"
             style="fill:none;stroke:#231f20;stroke-width:1.5;stroke-linecap:round;stroke-linejoin:round;stroke-miterlimit:10;stroke-dasharray:none;stroke-opacity:1"
             id="path19600"
             inkscape:connector-curvature="0" /></g><g
           id="g19602"
           transform="translate(49.208,118.6094)"><path
             d="m 0,0 c 0,0 -0.285,5.903 -0.38,8.854 -0.096,2.952 -4.285,7.332 -4.285,7.332 l -2.512,20.589 c 0,0 7.939,4.451 10.7,5.498 2.761,1.047 4.284,1.047 6.569,0.286 2.285,-0.762 11.33,-4.094 13.996,-5.142 2.666,-1.047 4.856,-3.998 5.141,-5.712"
             style="fill:none;stroke:#231f20;stroke-width:1.5;stroke-linecap:round;stroke-linejoin:round;stroke-miterlimit:10;stroke-dasharray:none;stroke-opacity:1"
             id="path19604"
             inkscape:connector-curvature="0" /></g><g
           id="g19606"
           transform="translate(60.7285,146.0298)"><path
             d="m 0,0 c 0,0 8.569,5.236 10.283,6.284 1.714,1.047 2.571,0.381 3.713,-0.286"
             style="fill:none;stroke:#231f20;stroke-width:0.5;stroke-linecap:round;stroke-linejoin:round;stroke-miterlimit:10;stroke-dasharray:none;stroke-opacity:1"
             id="path19608"
             inkscape:connector-curvature="0" /></g><g
           id="g19610"
           transform="translate(43.7813,140.8887)"><path
             d="m 0,0 -3.428,1.904 -3.046,7.141 4.855,9.521 6.665,1.904"
             style="fill:none;stroke:#231f20;stroke-width:1.5;stroke-linecap:round;stroke-linejoin:round;stroke-miterlimit:10;stroke-dasharray:none;stroke-opacity:1"
             id="path19612"
             inkscape:connector-curvature="0" /></g><g
           id="g19614"
           transform="translate(46.0088,166.0259)"><path
             d="M 0,0 C -2.044,0.675 -4.055,-1.252 -4.513,-3.905"
             style="fill:none;stroke:#231f20;stroke-width:0.5;stroke-linecap:round;stroke-linejoin:round;stroke-miterlimit:10;stroke-dasharray:none;stroke-opacity:1"
             id="path19616"
             inkscape:connector-curvature="0" /></g><g
           id="g19618"
           transform="translate(48.9224,159.3594)"><path
             d="M 0,0 C 0.476,1.428 -0.571,5.617 -2.666,6.569 -2.748,6.606 -2.83,6.639 -2.914,6.667"
             style="fill:none;stroke:#231f20;stroke-width:1.5;stroke-linecap:round;stroke-linejoin:round;stroke-miterlimit:10;stroke-dasharray:none;stroke-opacity:1"
             id="path19620"
             inkscape:connector-curvature="0" /></g><g
           id="g19622"
           transform="translate(43.3052,144.6021)"><path
             d="m 0,0 -1.714,3.713 0.952,2.952"
             style="fill:none;stroke:#231f20;stroke-width:0.5;stroke-linecap:round;stroke-linejoin:round;stroke-miterlimit:10;stroke-dasharray:none;stroke-opacity:1"
             id="path19624"
             inkscape:connector-curvature="0" /></g><g
           id="g19626"
           transform="translate(41.5913,148.3149)"><path
             d="M 0,0 -4.284,1.619"
             style="fill:none;stroke:#231f20;stroke-width:0.5;stroke-linecap:round;stroke-linejoin:round;stroke-miterlimit:10;stroke-dasharray:none;stroke-opacity:1"
             id="path19628"
             inkscape:connector-curvature="0" /></g><g
           id="g19630"
           transform="translate(42.5435,159.2642)"><path
             d="M 0,0 4.38,-1.047"
             style="fill:none;stroke:#231f20;stroke-width:0.5;stroke-linecap:round;stroke-linejoin:round;stroke-miterlimit:10;stroke-dasharray:none;stroke-opacity:1"
             id="path19632"
             inkscape:connector-curvature="0" /></g><g
           id="g19634"
           transform="translate(46.5425,168.9756)"><path
             d="M 0,0 C 4.475,-1.238 4.665,-7.807 4.665,-8.474"
             style="fill:none;stroke:#231f20;stroke-width:0.5;stroke-linecap:round;stroke-linejoin:round;stroke-miterlimit:10;stroke-dasharray:none;stroke-opacity:1"
             id="path19636"
             inkscape:connector-curvature="0" /></g><g
           id="g19638"
           transform="translate(39.5845,144.2627)"><path
             d="m 0,0 c -0.754,-0.131 -1.491,-0.072 -2.175,0.203 l -2.19,0.667 c -3.02,1.215 -3.864,6.188 -1.884,11.106 1.407,3.498 3.863,6.026 6.251,6.757 0,0 2.481,7.218 6.956,5.98 0,0 5.522,-1.619 7.712,-2.19 2.19,-0.571 3.809,-3.332 3.999,-5.332"
             style="fill:none;stroke:#231f20;stroke-width:1.5;stroke-linecap:round;stroke-linejoin:round;stroke-miterlimit:10;stroke-dasharray:none;stroke-opacity:1"
             id="path19640"
             inkscape:connector-curvature="0" /></g><g
           id="g19642"
           transform="translate(41.2632,162.1455)"><path
             d="m 0,0 c -2.22,-0.914 -4.431,-3.326 -5.738,-6.573 -1.979,-4.919 -1.136,-9.891 1.884,-11.107"
             style="fill:none;stroke:#231f20;stroke-width:0.5;stroke-linecap:round;stroke-linejoin:round;stroke-miterlimit:10;stroke-dasharray:none;stroke-opacity:1"
             id="path19644"
             inkscape:connector-curvature="0" /></g><g
           id="g19646"
           transform="translate(37.2119,162.0254)"><path
             d="m 0,0 -1.634,0.55 c -2.083,0.838 -4.876,-1.232 -6.241,-4.623 -1.365,-3.391 -0.784,-6.819 1.298,-7.657 l 1.531,-0.933"
             style="fill:none;stroke:#231f20;stroke-width:1.5;stroke-linecap:round;stroke-linejoin:round;stroke-miterlimit:10;stroke-dasharray:none;stroke-opacity:1"
             id="path19648"
             inkscape:connector-curvature="0" /></g><g
           id="g19650"
           transform="translate(41.1152,158.7881)"><path
             d="M 0,0 C -2.666,-1.619 -3.903,-5.332 -3.237,-7.331"
             style="fill:none;stroke:#231f20;stroke-width:0.5;stroke-linecap:round;stroke-linejoin:round;stroke-miterlimit:10;stroke-dasharray:none;stroke-opacity:1"
             id="path19652"
             inkscape:connector-curvature="0" /></g><g
           id="g19654"
           transform="translate(62.0723,116.2495)"><path
             d="m 0,0 c 9.141,-2.947 19.767,-11.039 28.54,-22.628 14.448,-19.095 18.391,-40.455 8.805,-47.708"
             style="fill:none;stroke:#231f20;stroke-width:0.5;stroke-linecap:round;stroke-linejoin:round;stroke-miterlimit:10;stroke-dasharray:none;stroke-opacity:1"
             id="path19656"
             inkscape:connector-curvature="0" /></g><g
           id="g19658"
           transform="translate(155.8589,112.6006)"><path
             d="M 0,0 C 2.583,0.483 5.306,-2.499 6.085,-6.662 6.863,-10.824 5.402,-14.59 2.821,-15.073"
             style="fill:none;stroke:#231f20;stroke-width:1.5;stroke-linecap:round;stroke-linejoin:round;stroke-miterlimit:10;stroke-dasharray:none;stroke-opacity:1"
             id="path19660"
             inkscape:connector-curvature="0" /></g><g
           id="g19662"
           transform="translate(158.6802,97.5273)"><path
             d="m 0,0 c -2.582,-0.482 -5.306,2.5 -6.084,6.662 -0.779,4.164 0.682,7.929 3.263,8.411"
             style="fill:none;stroke:#231f20;stroke-width:0.5;stroke-linecap:round;stroke-linejoin:round;stroke-miterlimit:10;stroke-dasharray:none;stroke-opacity:1"
             id="path19664"
             inkscape:connector-curvature="0" /></g><g
           id="g19666"
           transform="translate(76.7227,72.1738)"><path
             d="m 0,0 c -2.346,1.475 -4.705,3.67 -6.733,6.428 -1.95,2.651 -3.313,5.44 -4.045,8.032"
             style="fill:none;stroke:#231f20;stroke-width:0.5;stroke-linecap:round;stroke-linejoin:round;stroke-miterlimit:10;stroke-dasharray:none;stroke-opacity:1"
             id="path19668"
             inkscape:connector-curvature="0" /></g><g
           id="g19670"
           transform="translate(38.6997,91.9795)"><path
             d="M 0,0 C 0.292,4.733 2.221,6.604 2.221,6.604"
             style="fill:none;stroke:#231f20;stroke-width:1.5;stroke-linecap:round;stroke-linejoin:round;stroke-miterlimit:10;stroke-dasharray:none;stroke-opacity:1"
             id="path19672"
             inkscape:connector-curvature="0" /></g><g
           id="g19674"
           transform="translate(75.5396,42.9639)"><path
             d="M 0,0 C 6.931,-1.698 10.693,4.639 10.693,4.639"
             style="fill:none;stroke:#231f20;stroke-width:1.5;stroke-linecap:round;stroke-linejoin:round;stroke-miterlimit:10;stroke-dasharray:none;stroke-opacity:1"
             id="path19676"
             inkscape:connector-curvature="0" /></g></g></g><g
       id="g19678"
       transform="translate(53.0313,61.0518)"><path
         d="M 0,0 -12,-14.667"
         style="fill:none;stroke:#ffffff;stroke-width:3;stroke-linecap:round;stroke-linejoin:round;stroke-miterlimit:4;stroke-dasharray:none;stroke-opacity:1"
         id="path19680"
         inkscape:connector-curvature="0" /></g><g
       id="g19682"><g
         id="g19684"
         clip-path="url(#clipPath19686)"><g
           id="g19690"
           transform="translate(52.9092,59.8184)"><path
             d="M 0,0 C 0.681,0 1.233,0.552 1.233,1.233 1.233,1.915 0.681,2.467 0,2.467 -0.681,2.467 -1.233,1.915 -1.233,1.233 -1.233,0.552 -0.681,0 0,0"
             style="fill:#231f20;fill-opacity:1;fill-rule:nonzero;stroke:none"
             id="path19692"
             inkscape:connector-curvature="0" /></g><g
           id="g19694"
           transform="translate(52.9092,59.8184)"><path
             d="M 0,0 C 0.681,0 1.233,0.552 1.233,1.233 1.233,1.915 0.681,2.467 0,2.467 -0.681,2.467 -1.233,1.915 -1.233,1.233 -1.233,0.552 -0.681,0 0,0 Z"
             style="fill:none;stroke:#ffffff;stroke-width:1;stroke-linecap:butt;stroke-linejoin:miter;stroke-miterlimit:4;stroke-dasharray:none;stroke-opacity:1"
             id="path19696"
             inkscape:connector-curvature="0" /></g><g
           id="g19698"
           transform="translate(53.0313,61.0518)"><path
             d="M 0,0 -12,-14.667"
             style="fill:none;stroke:#231f20;stroke-width:0.5;stroke-linecap:round;stroke-linejoin:round;stroke-miterlimit:4;stroke-dasharray:none;stroke-opacity:1"
             id="path19700"
             inkscape:connector-curvature="0" /></g><g
           id="g19702"
           transform="translate(152.3647,77.7178)"><path
             d="M 0,0 19.333,-16.666"
             style="fill:none;stroke:#ffffff;stroke-width:3;stroke-linecap:round;stroke-linejoin:round;stroke-miterlimit:4;stroke-dasharray:none;stroke-opacity:1"
             id="path19704"
             inkscape:connector-curvature="0" /></g><g
           id="g19706"
           transform="translate(152.2427,76.4844)"><path
             d="M 0,0 C 0.681,0 1.233,0.552 1.233,1.233 1.233,1.915 0.681,2.467 0,2.467 -0.681,2.467 -1.233,1.915 -1.233,1.233 -1.233,0.552 -0.681,0 0,0"
             style="fill:#231f20;fill-opacity:1;fill-rule:nonzero;stroke:none"
             id="path19708"
             inkscape:connector-curvature="0" /></g><g
           id="g19710"
           transform="translate(152.2427,76.4844)"><path
             d="M 0,0 C 0.681,0 1.233,0.552 1.233,1.233 1.233,1.915 0.681,2.467 0,2.467 -0.681,2.467 -1.233,1.915 -1.233,1.233 -1.233,0.552 -0.681,0 0,0 Z"
             style="fill:none;stroke:#ffffff;stroke-width:1;stroke-linecap:butt;stroke-linejoin:miter;stroke-miterlimit:4;stroke-dasharray:none;stroke-opacity:1"
             id="path19712"
             inkscape:connector-curvature="0" /></g><g
           id="g19714"
           transform="translate(152.3647,77.7178)"><path
             d="M 0,0 19.333,-16.666"
             style="fill:none;stroke:#231f20;stroke-width:0.5;stroke-linecap:round;stroke-linejoin:round;stroke-miterlimit:4;stroke-dasharray:none;stroke-opacity:1"
             id="path19716"
             inkscape:connector-curvature="0" /></g></g></g><text
       transform="matrix(1,0,0,-1,175.0317,53.4961)"
       style="font-variant:normal;font-weight:bold;font-stretch:normal;font-size:12px;font-family:'Swiss 721 SWA';-inkscape-font-specification:Helvetica-Bold;writing-mode:lr-tb;fill:#231f20;fill-opacity:1;fill-rule:nonzero;stroke:none"
       id="text19718"><tspan
         x="0"
         y="0"
         id="tspan19720">1</tspan><tspan
         x="-141.672"
         y="16.667999"
         id="tspan19722">2</tspan></text>
<text
       transform="matrix(1,0,0,-1,2.6963,2.2637)"
       style="font-variant:normal;font-weight:normal;font-stretch:normal;font-size:5px;font-family:'Swiss 721 SWA';-inkscape-font-specification:Helvetica;writing-mode:lr-tb;fill:#231f20;fill-opacity:1;fill-rule:nonzero;stroke:none"
       id="text19724"><tspan
         x="0 2.5 5.2800002 6.3899999 8.8900003 11.67"
         y="0"
         sodipodi:role="line"
         id="tspan19726">chic_1</tspan></text>
</g></svg>