<?xml version="1.0" encoding="UTF-8" standalone="no"?>
<!-- Created with Inkscape (http://www.inkscape.org/) -->

<svg
   xmlns:dc="http://purl.org/dc/elements/1.1/"
   xmlns:cc="http://creativecommons.org/ns#"
   xmlns:rdf="http://www.w3.org/1999/02/22-rdf-syntax-ns#"
   xmlns:svg="http://www.w3.org/2000/svg"
   xmlns="http://www.w3.org/2000/svg"
   xmlns:sodipodi="http://sodipodi.sourceforge.net/DTD/sodipodi-0.dtd"
   xmlns:inkscape="http://www.inkscape.org/namespaces/inkscape"
   id="svg17398"
   version="1.1"
   inkscape:version="0.91 r13725"
   xml:space="preserve"
   width="301.18124"
   height="230.315"
   viewBox="0 0 301.18124 230.315"
   sodipodi:docname="L0510.svg"><metadata
     id="metadata17404"><rdf:RDF><cc:Work
         rdf:about=""><dc:format>image/svg+xml</dc:format><dc:type
           rdf:resource="http://purl.org/dc/dcmitype/StillImage" /><dc:title></dc:title></cc:Work></rdf:RDF></metadata><defs
     id="defs17402"><clipPath
       clipPathUnits="userSpaceOnUse"
       id="clipPath17412"><path
         d="m 0,0.5 240.445,0 0,183.751 L 0,184.251 0,0.5 Z"
         id="path17414"
         inkscape:connector-curvature="0" /></clipPath><clipPath
       clipPathUnits="userSpaceOnUse"
       id="clipPath17672"><path
         d="m 0,184.252 240.945,0 L 240.945,0 0,0 0,184.252 Z"
         id="path17674"
         inkscape:connector-curvature="0" /></clipPath><clipPath
       clipPathUnits="userSpaceOnUse"
       id="clipPath17700"><path
         d="m 0,184.252 240.945,0 L 240.945,0 0,0 0,184.252 Z"
         id="path17702"
         inkscape:connector-curvature="0" /></clipPath></defs><sodipodi:namedview
     pagecolor="#ffffff"
     bordercolor="#666666"
     borderopacity="1"
     objecttolerance="10"
     gridtolerance="10"
     guidetolerance="10"
     inkscape:pageopacity="0"
     inkscape:pageshadow="2"
     inkscape:window-width="640"
     inkscape:window-height="480"
     id="namedview17400"
     showgrid="false"
     inkscape:zoom="4.2072813"
     inkscape:cx="150.59062"
     inkscape:cy="115.1575"
     inkscape:window-x="0"
     inkscape:window-y="0"
     inkscape:window-maximized="1"
     inkscape:current-layer="g17406" /><g
     id="g17406"
     inkscape:groupmode="layer"
     inkscape:label="L0510"
     transform="matrix(1.25,0,0,-1.25,0,230.315)"><g
       id="g17408"><g
         id="g17410"
         clip-path="url(#clipPath17412)"><g
           id="g17416"
           transform="translate(124.2646,134.7271)"><path
             d="m 0,0 c -16.699,0.364 -30.686,-19.958 -31.239,-45.386 -0.551,-25.429 12.538,-46.34 29.238,-46.702"
             style="fill:none;stroke:#231f20;stroke-width:0.49900001;stroke-linecap:round;stroke-linejoin:miter;stroke-miterlimit:4;stroke-dasharray:none;stroke-opacity:1"
             id="path17418"
             inkscape:connector-curvature="0" /></g><g
           id="g17420"
           transform="translate(122.2637,42.6387)"><path
             d="M 0,0 C 16.697,-0.364 30.682,19.957 31.235,45.389 31.788,70.817 18.699,91.727 2.001,92.088"
             style="fill:none;stroke:#231f20;stroke-width:1;stroke-linecap:round;stroke-linejoin:miter;stroke-miterlimit:4;stroke-dasharray:none;stroke-opacity:1"
             id="path17422"
             inkscape:connector-curvature="0" /></g><g
           id="g17424"
           transform="translate(124.374,139.7393)"><path
             d="m 0,0 c -18.517,0.401 -34.024,-22.13 -34.637,-50.326 -0.613,-28.197 13.901,-51.384 32.415,-51.784"
             style="fill:none;stroke:#231f20;stroke-width:1;stroke-linecap:round;stroke-linejoin:miter;stroke-miterlimit:4;stroke-dasharray:none;stroke-opacity:1"
             id="path17426"
             inkscape:connector-curvature="0" /></g><g
           id="g17428"
           transform="translate(122.1523,37.6289)"><path
             d="M 0,0 C 18.518,-0.403 34.024,22.13 34.638,50.326 35.25,78.521 20.737,101.707 2.222,102.11"
             style="fill:none;stroke:#231f20;stroke-width:0.49900001;stroke-linecap:round;stroke-linejoin:miter;stroke-miterlimit:4;stroke-dasharray:none;stroke-opacity:1"
             id="path17430"
             inkscape:connector-curvature="0" /></g><g
           id="g17432"
           transform="translate(126.7793,140.8701)"><path
             d="M 0,0 C -4.4,0.096 -8.636,-1.076 -12.316,-3.174"
             style="fill:none;stroke:#231f20;stroke-width:1;stroke-linecap:round;stroke-linejoin:miter;stroke-miterlimit:4;stroke-dasharray:none;stroke-opacity:1"
             id="path17434"
             inkscape:connector-curvature="0" /></g><g
           id="g17436"
           transform="translate(112.3501,40.0996)"><path
             d="M 0,0 C 4.06,-2.483 8.264,-3.682 12.169,-3.707"
             style="fill:none;stroke:#231f20;stroke-width:1;stroke-linecap:round;stroke-linejoin:miter;stroke-miterlimit:4;stroke-dasharray:none;stroke-opacity:1"
             id="path17438"
             inkscape:connector-curvature="0" /></g><g
           id="g17440"
           transform="translate(124.5195,36.3926)"><path
             d="M 0,0 C 18.945,-0.41 34.812,22.646 35.435,51.496 36.059,80.348 21.205,104.068 2.26,104.478"
             style="fill:none;stroke:#231f20;stroke-width:0.49900001;stroke-linecap:round;stroke-linejoin:miter;stroke-miterlimit:4;stroke-dasharray:none;stroke-opacity:1"
             id="path17442"
             inkscape:connector-curvature="0" /></g><g
           id="g17444"
           transform="translate(136.4814,36.1328)"><path
             d="M 0,0 C 18.945,-0.411 34.811,22.646 35.436,51.497 36.059,80.348 21.208,104.069 2.261,104.478"
             style="fill:none;stroke:#231f20;stroke-width:0.49900001;stroke-linecap:round;stroke-linejoin:miter;stroke-miterlimit:4;stroke-dasharray:none;stroke-opacity:1"
             id="path17446"
             inkscape:connector-curvature="0" /></g><g
           id="g17448"
           transform="translate(124.5156,36.3926)"><path
             d="M 0,0 11.965,-0.26"
             style="fill:none;stroke:#231f20;stroke-width:1;stroke-linecap:round;stroke-linejoin:miter;stroke-miterlimit:4;stroke-dasharray:none;stroke-opacity:1"
             id="path17450"
             inkscape:connector-curvature="0" /></g><g
           id="g17452"
           transform="translate(138.7471,140.6108)"><path
             d="M 0,0 -11.964,0.259"
             style="fill:none;stroke:#231f20;stroke-width:1;stroke-linecap:round;stroke-linejoin:miter;stroke-miterlimit:4;stroke-dasharray:none;stroke-opacity:1"
             id="path17454"
             inkscape:connector-curvature="0" /></g><g
           id="g17456"
           transform="translate(138.8018,143.354)"><path
             d="M 0,0 C -4.026,0.087 -7.921,-0.834 -11.32,-2.499"
             style="fill:none;stroke:#231f20;stroke-width:1;stroke-linecap:round;stroke-linejoin:miter;stroke-miterlimit:4;stroke-dasharray:none;stroke-opacity:1"
             id="path17458"
             inkscape:connector-curvature="0" /></g><g
           id="g17460"
           transform="translate(125.2227,36.376)"><path
             d="M 0,0 C 3.783,-1.995 7.649,-2.963 11.201,-2.985"
             style="fill:none;stroke:#231f20;stroke-width:1;stroke-linecap:round;stroke-linejoin:miter;stroke-miterlimit:4;stroke-dasharray:none;stroke-opacity:1"
             id="path17462"
             inkscape:connector-curvature="0" /></g><g
           id="g17464"
           transform="translate(136.4238,33.3906)"><path
             d="M 0,0 C 19.937,-0.431 36.637,23.835 37.295,54.2 37.95,84.565 22.318,109.532 2.378,109.963"
             style="fill:none;stroke:#231f20;stroke-width:0.49900001;stroke-linecap:round;stroke-linejoin:miter;stroke-miterlimit:4;stroke-dasharray:none;stroke-opacity:1"
             id="path17466"
             inkscape:connector-curvature="0" /></g><g
           id="g17468"
           transform="translate(148.7187,32.9629)"><path
             d="M 0,0 C 27.297,0.508 33.5,11.437 48.301,11.562"
             style="fill:none;stroke:#231f20;stroke-width:1;stroke-linecap:round;stroke-linejoin:miter;stroke-miterlimit:4;stroke-dasharray:none;stroke-opacity:1"
             id="path17470"
             inkscape:connector-curvature="0" /></g><g
           id="g17472"
           transform="translate(159.3594,142.2051)"><path
             d="M 0,0 13.188,16.276"
             style="fill:none;stroke:#231f20;stroke-width:1;stroke-linecap:round;stroke-linejoin:miter;stroke-miterlimit:4;stroke-dasharray:none;stroke-opacity:1"
             id="path17474"
             inkscape:connector-curvature="0" /></g><g
           id="g17476"
           transform="translate(192.4043,130.4043)"><path
             d="M 0,0 C 12.068,-2.102 17.908,-17.919 16.397,-28.506"
             style="fill:none;stroke:#231f20;stroke-width:0.49900001;stroke-linecap:round;stroke-linejoin:miter;stroke-miterlimit:4;stroke-dasharray:none;stroke-opacity:1"
             id="path17478"
             inkscape:connector-curvature="0" /></g><g
           id="g17480"
           transform="translate(178.8857,154.2607)"><path
             d="M 0,0 C -0.87,-1.361 0.47,-3.771 2.993,-5.386 5.515,-6.998 8.265,-7.202 9.137,-5.839"
             style="fill:none;stroke:#231f20;stroke-width:1;stroke-linecap:round;stroke-linejoin:miter;stroke-miterlimit:4;stroke-dasharray:none;stroke-opacity:1"
             id="path17482"
             inkscape:connector-curvature="0" /></g><g
           id="g17484"
           transform="translate(188.0225,148.4219)"><path
             d="M 0,0 C 0.871,1.361 -0.468,3.773 -2.99,5.385 -5.513,6.999 -8.265,7.202 -9.137,5.839"
             style="fill:none;stroke:#231f20;stroke-width:0.49900001;stroke-linecap:round;stroke-linejoin:miter;stroke-miterlimit:4;stroke-dasharray:none;stroke-opacity:1"
             id="path17486"
             inkscape:connector-curvature="0" /></g><g
           id="g17488"
           transform="translate(172.4561,158.3701)"><path
             d="m 0,0 c -2.095,-3.279 1.132,-9.083 7.204,-12.966 6.075,-3.88 12.696,-4.369 14.793,-1.091"
             style="fill:none;stroke:#231f20;stroke-width:0.49900001;stroke-linecap:round;stroke-linejoin:miter;stroke-miterlimit:4;stroke-dasharray:none;stroke-opacity:1"
             id="path17490"
             inkscape:connector-curvature="0" /></g><g
           id="g17492"
           transform="translate(194.4531,144.313)"><path
             d="m 0,0 c 2.094,3.279 -1.13,9.084 -7.204,12.966 -6.075,3.88 -12.697,4.37 -14.793,1.091"
             style="fill:none;stroke:#231f20;stroke-width:1;stroke-linecap:round;stroke-linejoin:miter;stroke-miterlimit:4;stroke-dasharray:none;stroke-opacity:1"
             id="path17494"
             inkscape:connector-curvature="0" /></g><g
           id="g17496"
           transform="translate(192.252,139.9131)"><path
             d="M 0,0 C -2.783,-5.516 -0.146,-9.758 5.922,-9.769"
             style="fill:none;stroke:#231f20;stroke-width:1;stroke-linecap:round;stroke-linejoin:miter;stroke-miterlimit:4;stroke-dasharray:none;stroke-opacity:1"
             id="path17498"
             inkscape:connector-curvature="0" /></g><g
           id="g17500"
           transform="translate(240.4453,130.144)"><path
             d="M 0,0 -42.271,0"
             style="fill:none;stroke:#231f20;stroke-width:1;stroke-linecap:round;stroke-linejoin:miter;stroke-miterlimit:4;stroke-dasharray:none;stroke-opacity:1"
             id="path17502"
             inkscape:connector-curvature="0" /></g><g
           id="g17504"
           transform="translate(194.6436,144.6489)"><path
             d="M 0,0 -2.392,-4.737"
             style="fill:none;stroke:#231f20;stroke-width:1;stroke-linecap:round;stroke-linejoin:miter;stroke-miterlimit:4;stroke-dasharray:none;stroke-opacity:1"
             id="path17506"
             inkscape:connector-curvature="0" /></g><g
           id="g17508"
           transform="translate(165.6113,141.626)"><path
             d="M 0,0 C 10.616,1.545 20.945,-0.745 24.779,-6.463"
             style="fill:none;stroke:#231f20;stroke-width:0.49900001;stroke-linecap:round;stroke-linejoin:miter;stroke-miterlimit:4;stroke-dasharray:none;stroke-opacity:1"
             id="path17510"
             inkscape:connector-curvature="0" /></g><g
           id="g17512"
           transform="translate(197.0195,44.5244)"><path
             d="M 0,0 43.426,-0.934"
             style="fill:none;stroke:#231f20;stroke-width:1;stroke-linecap:round;stroke-linejoin:miter;stroke-miterlimit:4;stroke-dasharray:none;stroke-opacity:1"
             id="path17514"
             inkscape:connector-curvature="0" /></g><g
           id="g17516"
           transform="translate(223.5332,88.6719)"><path
             d="M 0,0 C -0.871,-1.363 0.468,-3.773 2.992,-5.388 5.514,-7 8.264,-7.205 9.136,-5.842"
             style="fill:none;stroke:#231f20;stroke-width:1;stroke-linecap:round;stroke-linejoin:miter;stroke-miterlimit:4;stroke-dasharray:none;stroke-opacity:1"
             id="path17518"
             inkscape:connector-curvature="0" /></g><g
           id="g17520"
           transform="translate(232.6689,82.8301)"><path
             d="M 0,0 C 0.871,1.361 -0.468,3.771 -2.992,5.386 -5.515,6.998 -8.265,7.203 -9.136,5.842"
             style="fill:none;stroke:#231f20;stroke-width:0.49900001;stroke-linecap:round;stroke-linejoin:miter;stroke-miterlimit:4;stroke-dasharray:none;stroke-opacity:1"
             id="path17522"
             inkscape:connector-curvature="0" /></g><g
           id="g17524"
           transform="translate(217.1025,92.7793)"><path
             d="m 0,0 c -2.095,-3.279 1.132,-9.084 7.204,-12.967 6.074,-3.88 12.697,-4.37 14.791,-1.091"
             style="fill:none;stroke:#231f20;stroke-width:0.49900001;stroke-linecap:round;stroke-linejoin:miter;stroke-miterlimit:4;stroke-dasharray:none;stroke-opacity:1"
             id="path17526"
             inkscape:connector-curvature="0" /></g><g
           id="g17528"
           transform="translate(239.0977,78.7217)"><path
             d="m 0,0 c 2.096,3.279 -1.129,9.085 -7.203,12.965 -6.074,3.881 -12.695,4.37 -14.792,1.093"
             style="fill:none;stroke:#231f20;stroke-width:1;stroke-linecap:round;stroke-linejoin:miter;stroke-miterlimit:4;stroke-dasharray:none;stroke-opacity:1"
             id="path17530"
             inkscape:connector-curvature="0" /></g><g
           id="g17532"
           transform="translate(239.2012,78.8906)"><path
             d="M 0,0 -16.947,-29.828"
             style="fill:none;stroke:#231f20;stroke-width:1;stroke-linecap:round;stroke-linejoin:miter;stroke-miterlimit:4;stroke-dasharray:none;stroke-opacity:1"
             id="path17534"
             inkscape:connector-curvature="0" /></g><g
           id="g17536"
           transform="translate(222.2539,49.0625)"><path
             d="m 0,0 c -2.729,-5.022 -14.159,-4.725 -18.887,-3.083 -4.728,1.64 -4.838,5.028 -1.325,12.68 3.515,7.653 5.646,19.066 6.273,24.336 0.626,5.268 4.449,9.25 10.628,11.336"
             style="fill:none;stroke:#231f20;stroke-width:0.49900001;stroke-linecap:round;stroke-linejoin:miter;stroke-miterlimit:4;stroke-dasharray:none;stroke-opacity:1"
             id="path17538"
             inkscape:connector-curvature="0" /></g><g
           id="g17540"
           transform="translate(130.3125,133.6592)"><path
             d="M 0,0 C -14.352,-4.139 -24.604,-22.972 -25.147,-44.582 -25.63,-66.74 -15.753,-85.468 -1.96,-90.214"
             style="fill:none;stroke:#231f20;stroke-width:1;stroke-linecap:round;stroke-linejoin:miter;stroke-miterlimit:4;stroke-dasharray:none;stroke-opacity:1"
             id="path17542"
             inkscape:connector-curvature="0" /></g><g
           id="g17544"
           transform="translate(122.9199,134.707)"><path
             d="m 0,0 c -13.029,-7.073 -21.4,-25.438 -21.924,-45.543 -0.454,-20.932 7.758,-38.992 19.933,-46.448"
             style="fill:none;stroke:#231f20;stroke-width:0.49900001;stroke-linecap:round;stroke-linejoin:miter;stroke-miterlimit:4;stroke-dasharray:none;stroke-opacity:1"
             id="path17546"
             inkscape:connector-curvature="0" /></g><g
           id="g17548"
           transform="translate(141.3906,126.064)"><path
             d="m 0,0 c -10.075,-6.758 -16.269,-21.527 -16.685,-37.41 -0.361,-16.645 5.748,-31.145 15.043,-38.1"
             style="fill:none;stroke:#231f20;stroke-width:1;stroke-linecap:round;stroke-linejoin:miter;stroke-miterlimit:4;stroke-dasharray:none;stroke-opacity:1"
             id="path17550"
             inkscape:connector-curvature="0" /></g><g
           id="g17552"
           transform="translate(136.7578,130.2783)"><path
             d="m 0,0 c -10.805,-8.022 -17.304,-24.226 -17.75,-41.501 -0.396,-18.162 6.027,-34.066 15.93,-42.233"
             style="fill:none;stroke:#231f20;stroke-width:0.49900001;stroke-linecap:round;stroke-linejoin:miter;stroke-miterlimit:4;stroke-dasharray:none;stroke-opacity:1"
             id="path17554"
             inkscape:connector-curvature="0" /></g><g
           id="g17556"
           transform="translate(148.4219,114.979)"><path
             d="M 0,0 C -9.027,-15.479 -9.291,-38.075 -1.166,-53.657"
             style="fill:none;stroke:#231f20;stroke-width:0.49900001;stroke-linecap:round;stroke-linejoin:miter;stroke-miterlimit:4;stroke-dasharray:none;stroke-opacity:1"
             id="path17558"
             inkscape:connector-curvature="0" /></g><g
           id="g17560"
           transform="translate(149.9941,111.0049)"><path
             d="M 0,0 C -7.314,-13.505 -7.473,-32.31 -0.993,-45.783"
             style="fill:none;stroke:#231f20;stroke-width:1;stroke-linecap:round;stroke-linejoin:miter;stroke-miterlimit:4;stroke-dasharray:none;stroke-opacity:1"
             id="path17562"
             inkscape:connector-curvature="0" /></g><g
           id="g17564"
           transform="translate(19.0132,111.1069)"><path
             d="m 0,0 c -7.658,0.167 -14.073,-9.152 -14.326,-20.815 -0.253,-11.663 5.75,-21.254 13.408,-21.419"
             style="fill:none;stroke:#231f20;stroke-width:0.49900001;stroke-linecap:round;stroke-linejoin:miter;stroke-miterlimit:4;stroke-dasharray:none;stroke-opacity:1"
             id="path17566"
             inkscape:connector-curvature="0" /></g><g
           id="g17568"
           transform="translate(18.0952,68.873)"><path
             d="M 0,0 C 7.659,-0.167 14.073,9.151 14.327,20.814 14.581,32.478 8.577,42.069 0.918,42.234"
             style="fill:none;stroke:#231f20;stroke-width:1;stroke-linecap:round;stroke-linejoin:miter;stroke-miterlimit:4;stroke-dasharray:none;stroke-opacity:1"
             id="path17570"
             inkscape:connector-curvature="0" /></g><g
           id="g17572"
           transform="translate(19.0649,113.5156)"><path
             d="m 0,0 c -8.531,0.187 -15.678,-10.198 -15.959,-23.19 -0.284,-12.994 6.405,-23.676 14.936,-23.863"
             style="fill:none;stroke:#231f20;stroke-width:1;stroke-linecap:round;stroke-linejoin:miter;stroke-miterlimit:4;stroke-dasharray:none;stroke-opacity:1"
             id="path17574"
             inkscape:connector-curvature="0" /></g><g
           id="g17576"
           transform="translate(18.042,66.4629)"><path
             d="M 0,0 C 8.534,-0.184 15.679,10.199 15.962,23.191 16.244,36.185 9.557,46.868 1.023,47.053"
             style="fill:none;stroke:#231f20;stroke-width:0.49900001;stroke-linecap:round;stroke-linejoin:miter;stroke-miterlimit:4;stroke-dasharray:none;stroke-opacity:1"
             id="path17578"
             inkscape:connector-curvature="0" /></g><g
           id="g17580"
           transform="translate(30.5059,114.4277)"><path
             d="M 0,0 C -0.025,0 -0.05,0 -0.072,0.001"
             style="fill:none;stroke:#231f20;stroke-width:1;stroke-linecap:round;stroke-linejoin:miter;stroke-miterlimit:4;stroke-dasharray:none;stroke-opacity:1"
             id="path17582"
             inkscape:connector-curvature="0" /></g><g
           id="g17584"
           transform="translate(29.522,65.5605)"><path
             d="M 0,0 C 8.836,-0.129 16.209,10.642 16.501,24.088 16.792,37.581 9.846,48.675 0.984,48.867"
             style="fill:none;stroke:#231f20;stroke-width:0.49900001;stroke-linecap:round;stroke-linejoin:miter;stroke-miterlimit:4;stroke-dasharray:none;stroke-opacity:1"
             id="path17586"
             inkscape:connector-curvature="0" /></g><g
           id="g17588"
           transform="translate(29.5059,65.5625)"><path
             d="M 0,0 -12.043,0.93"
             style="fill:none;stroke:#231f20;stroke-width:1;stroke-linecap:round;stroke-linejoin:miter;stroke-miterlimit:4;stroke-dasharray:none;stroke-opacity:1"
             id="path17590"
             inkscape:connector-curvature="0" /></g><g
           id="g17592"
           transform="translate(30.439,114.4287)"><path
             d="M 0,0 -12.404,-0.943"
             style="fill:none;stroke:#231f20;stroke-width:1;stroke-linecap:round;stroke-linejoin:miter;stroke-miterlimit:4;stroke-dasharray:none;stroke-opacity:1"
             id="path17594"
             inkscape:connector-curvature="0" /></g><g
           id="g17596"
           transform="translate(30.439,114.4287)"><path
             d="M 0,0 27.675,-0.419"
             style="fill:none;stroke:#231f20;stroke-width:1;stroke-linecap:round;stroke-linejoin:miter;stroke-miterlimit:4;stroke-dasharray:none;stroke-opacity:1"
             id="path17598"
             inkscape:connector-curvature="0" /></g><g
           id="g17600"
           transform="translate(29.5059,65.5625)"><path
             d="M 0,0 27.676,-0.446"
             style="fill:none;stroke:#231f20;stroke-width:1;stroke-linecap:round;stroke-linejoin:miter;stroke-miterlimit:4;stroke-dasharray:none;stroke-opacity:1"
             id="path17602"
             inkscape:connector-curvature="0" /></g><g
           id="g17604"
           transform="translate(55.9692,114.0571)"><path
             d="M 0,0 C -0.024,0 -0.051,0.001 -0.071,0.001"
             style="fill:none;stroke:#231f20;stroke-width:1;stroke-linecap:round;stroke-linejoin:miter;stroke-miterlimit:4;stroke-dasharray:none;stroke-opacity:1"
             id="path17606"
             inkscape:connector-curvature="0" /></g><g
           id="g17608"
           transform="translate(54.9849,65.1631)"><path
             d="M 0,0 C 8.841,-0.13 16.216,10.647 16.508,24.101 16.801,37.601 9.851,48.702 0.984,48.894"
             style="fill:none;stroke:#231f20;stroke-width:0.49900001;stroke-linecap:round;stroke-linejoin:miter;stroke-miterlimit:4;stroke-dasharray:none;stroke-opacity:1"
             id="path17610"
             inkscape:connector-curvature="0" /></g><g
           id="g17612"
           transform="translate(64.606,66.0908)"><path
             d="M 0,0 C 7.873,1.192 13.886,11.171 14.168,23.015 14.429,35.034 8.708,45.072 1.013,46.62"
             style="fill:none;stroke:#231f20;stroke-width:1;stroke-linecap:round;stroke-linejoin:miter;stroke-miterlimit:4;stroke-dasharray:none;stroke-opacity:1"
             id="path17614"
             inkscape:connector-curvature="0" /></g><g
           id="g17616"
           transform="translate(65.6191,112.7109)"><path
             d="M 0,0 -5.996,1.168"
             style="fill:none;stroke:#231f20;stroke-width:1;stroke-linecap:round;stroke-linejoin:miter;stroke-miterlimit:4;stroke-dasharray:none;stroke-opacity:1"
             id="path17618"
             inkscape:connector-curvature="0" /></g><g
           id="g17620"
           transform="translate(58.5469,65.1826)"><path
             d="M 0,0 6.06,0.908"
             style="fill:none;stroke:#231f20;stroke-width:1;stroke-linecap:round;stroke-linejoin:miter;stroke-miterlimit:4;stroke-dasharray:none;stroke-opacity:1"
             id="path17622"
             inkscape:connector-curvature="0" /></g><g
           id="g17624"
           transform="translate(59.623,113.8799)"><path
             d="M 0,0 C -0.505,0.08 -1.006,0.124 -1.441,0.129"
             style="fill:none;stroke:#231f20;stroke-width:1;stroke-linecap:round;stroke-linejoin:miter;stroke-miterlimit:4;stroke-dasharray:none;stroke-opacity:1"
             id="path17626"
             inkscape:connector-curvature="0" /></g><g
           id="g17628"
           transform="translate(60.3452,113.7393)"><path
             d="M 0,0 C -0.252,0.058 -0.506,0.106 -0.722,0.141"
             style="fill:none;stroke:#231f20;stroke-width:1;stroke-linecap:round;stroke-linejoin:miter;stroke-miterlimit:4;stroke-dasharray:none;stroke-opacity:1"
             id="path17630"
             inkscape:connector-curvature="0" /></g><g
           id="g17632"
           transform="translate(59.3159,65.2979)"><path
             d="M 0,0 C 8.056,1.506 14.098,11.808 14.39,23.918 14.657,36.254 8.877,46.586 1.029,48.441"
             style="fill:none;stroke:#231f20;stroke-width:0.49900001;stroke-linecap:round;stroke-linejoin:miter;stroke-miterlimit:4;stroke-dasharray:none;stroke-opacity:1"
             id="path17634"
             inkscape:connector-curvature="0" /></g><g
           id="g17636"
           transform="translate(58.5488,65.1826)"><path
             d="M 0,0 C 0.271,0.03 0.539,0.072 0.767,0.115"
             style="fill:none;stroke:#231f20;stroke-width:1;stroke-linecap:round;stroke-linejoin:miter;stroke-miterlimit:4;stroke-dasharray:none;stroke-opacity:1"
             id="path17638"
             inkscape:connector-curvature="0" /></g><g
           id="g17640"
           transform="translate(58.1821,114.0088)"><path
             d="M 0,0 C -0.026,0 -0.052,0.001 -0.072,0.001"
             style="fill:none;stroke:#231f20;stroke-width:1;stroke-linecap:round;stroke-linejoin:miter;stroke-miterlimit:4;stroke-dasharray:none;stroke-opacity:1"
             id="path17642"
             inkscape:connector-curvature="0" /></g><g
           id="g17644"
           transform="translate(57.1958,65.1152)"><path
             d="M 0,0 C 0.476,-0.007 0.947,0.019 1.353,0.067"
             style="fill:none;stroke:#231f20;stroke-width:1;stroke-linecap:round;stroke-linejoin:miter;stroke-miterlimit:4;stroke-dasharray:none;stroke-opacity:1"
             id="path17646"
             inkscape:connector-curvature="0" /></g><g
           id="g17648"
           transform="translate(163.7061,141.0527)"><path
             d="M 0,0 C 9.885,-3.062 19.275,-8.716 28.698,-10.648"
             style="fill:none;stroke:#231f20;stroke-width:0.49900001;stroke-linecap:round;stroke-linejoin:miter;stroke-miterlimit:4;stroke-dasharray:none;stroke-opacity:1"
             id="path17650"
             inkscape:connector-curvature="0" /></g><g
           id="g17652"
           transform="translate(153.126,143.043)"><path
             d="M 0,0 C 3.604,-0.165 7.123,-0.919 10.58,-1.99"
             style="fill:none;stroke:#231f20;stroke-width:1;stroke-linecap:round;stroke-linejoin:miter;stroke-miterlimit:4;stroke-dasharray:none;stroke-opacity:1"
             id="path17654"
             inkscape:connector-curvature="0" /></g><g
           id="g17656"
           transform="translate(153.126,143.043)"><path
             d="M 0,0 -14.324,0.311"
             style="fill:none;stroke:#231f20;stroke-width:1;stroke-linecap:round;stroke-linejoin:miter;stroke-miterlimit:4;stroke-dasharray:none;stroke-opacity:1"
             id="path17658"
             inkscape:connector-curvature="0" /></g><g
           id="g17660"
           transform="translate(136.7559,33.2246)"><path
             d="M 0,0 11.963,-0.262"
             style="fill:none;stroke:#231f20;stroke-width:1;stroke-linecap:round;stroke-linejoin:miter;stroke-miterlimit:4;stroke-dasharray:none;stroke-opacity:1"
             id="path17662"
             inkscape:connector-curvature="0" /></g></g></g><text
       transform="matrix(1,0,0,-1,1.2432,2.8594)"
       style="font-variant:normal;font-weight:normal;font-stretch:normal;font-size:5px;font-family:'Swiss 721 SWA';-inkscape-font-specification:Helvetica;writing-mode:lr-tb;fill:#231f20;fill-opacity:1;fill-rule:nonzero;stroke:none"
       id="text17664"><tspan
         x="0 2.78 5.5599999 8.3400002 11.12"
         y="0"
         sodipodi:role="line"
         id="tspan17666">L0510</tspan></text>
<g
       id="g17668"><g
         id="g17670"
         clip-path="url(#clipPath17672)"><g
           id="g17676"
           transform="translate(101.9561,50.8555)"><path
             d="M 0,0 C 0,1.037 -0.839,1.877 -1.875,1.877 -2.911,1.877 -3.75,1.037 -3.75,0 c 0,-1.034 0.839,-1.875 1.875,-1.875 C -0.839,-1.875 0,-1.034 0,0"
             style="fill:#ffffff;fill-opacity:1;fill-rule:evenodd;stroke:none"
             id="path17678"
             inkscape:connector-curvature="0" /></g><g
           id="g17680"
           transform="translate(100.0811,50.8555)"><path
             d="M 0,0 -15.527,-14.34"
             style="fill:none;stroke:#ffffff;stroke-width:2.99900007;stroke-linecap:round;stroke-linejoin:miter;stroke-miterlimit:4;stroke-dasharray:none;stroke-opacity:1"
             id="path17682"
             inkscape:connector-curvature="0" /></g><g
           id="g17684"
           transform="translate(100.0811,50.8574)"><path
             d="M 0,0 -15.527,-14.342"
             style="fill:none;stroke:#231f20;stroke-width:0.49900001;stroke-linecap:round;stroke-linejoin:miter;stroke-miterlimit:4;stroke-dasharray:none;stroke-opacity:1"
             id="path17686"
             inkscape:connector-curvature="0" /></g><g
           id="g17688"
           transform="translate(100.8311,50.8555)"><path
             d="M 0,0 C 0,0.416 -0.337,0.75 -0.75,0.75 -1.164,0.75 -1.5,0.416 -1.5,0 c 0,-0.414 0.336,-0.748 0.75,-0.748 C -0.337,-0.748 0,-0.414 0,0"
             style="fill:#231f20;fill-opacity:1;fill-rule:evenodd;stroke:none"
             id="path17690"
             inkscape:connector-curvature="0" /></g></g></g><text
       transform="matrix(1,0,0,-1,78.3838,28.4863)"
       style="font-variant:normal;font-weight:bold;font-stretch:normal;font-size:10px;font-family:'Swiss 721 SWA';-inkscape-font-specification:Helvetica-Bold;writing-mode:lr-tb;fill:#231f20;fill-opacity:1;fill-rule:nonzero;stroke:none"
       id="text17692"><tspan
         x="0"
         y="0"
         id="tspan17694">2</tspan></text>
<g
       id="g17696"><g
         id="g17698"
         clip-path="url(#clipPath17700)"><g
           id="g17704"
           transform="translate(50.0332,114.1973)"><path
             d="M 0,0 C 0,1.035 -0.84,1.875 -1.875,1.875 -2.911,1.875 -3.75,1.035 -3.75,0 c 0,-1.035 0.839,-1.875 1.875,-1.875 C -0.84,-1.875 0,-1.035 0,0"
             style="fill:#ffffff;fill-opacity:1;fill-rule:evenodd;stroke:none"
             id="path17706"
             inkscape:connector-curvature="0" /></g><g
           id="g17708"
           transform="translate(48.1582,114.1973)"><path
             d="M 0,0 5.923,20.29"
             style="fill:none;stroke:#ffffff;stroke-width:2.99900007;stroke-linecap:round;stroke-linejoin:miter;stroke-miterlimit:4;stroke-dasharray:none;stroke-opacity:1"
             id="path17710"
             inkscape:connector-curvature="0" /></g><g
           id="g17712"
           transform="translate(48.1582,114.1973)"><path
             d="M 0,0 5.923,20.29"
             style="fill:none;stroke:#231f20;stroke-width:0.49900001;stroke-linecap:round;stroke-linejoin:miter;stroke-miterlimit:4;stroke-dasharray:none;stroke-opacity:1"
             id="path17714"
             inkscape:connector-curvature="0" /></g><g
           id="g17716"
           transform="translate(48.9063,114.1973)"><path
             d="m 0,0 c 0,0.414 -0.335,0.75 -0.748,0.75 -0.415,0 -0.75,-0.336 -0.75,-0.75 0,-0.414 0.335,-0.75 0.75,-0.75 C -0.335,-0.75 0,-0.414 0,0"
             style="fill:#231f20;fill-opacity:1;fill-rule:evenodd;stroke:none"
             id="path17718"
             inkscape:connector-curvature="0" /></g></g></g><text
       transform="matrix(1,0,0,-1,51.9932,136.6709)"
       style="font-variant:normal;font-weight:bold;font-stretch:normal;font-size:10px;font-family:'Swiss 721 SWA';-inkscape-font-specification:Helvetica-Bold;writing-mode:lr-tb;fill:#231f20;fill-opacity:1;fill-rule:nonzero;stroke:none"
       id="text17720"><tspan
         x="0"
         y="0"
         id="tspan17722">1</tspan></text>
</g></svg>