<?xml version="1.0" encoding="UTF-8" standalone="no"?>
<!-- Created with Inkscape (http://www.inkscape.org/) -->

<svg
   xmlns:dc="http://purl.org/dc/elements/1.1/"
   xmlns:cc="http://creativecommons.org/ns#"
   xmlns:rdf="http://www.w3.org/1999/02/22-rdf-syntax-ns#"
   xmlns:svg="http://www.w3.org/2000/svg"
   xmlns="http://www.w3.org/2000/svg"
   xmlns:sodipodi="http://sodipodi.sourceforge.net/DTD/sodipodi-0.dtd"
   xmlns:inkscape="http://www.inkscape.org/namespaces/inkscape"
   id="svg2"
   version="1.1"
   inkscape:version="0.91 r13725"
   xml:space="preserve"
   width="301.18124"
   height="212.59875"
   viewBox="0 0 301.18124 212.59875"
   sodipodi:docname="T3880209.svg"><metadata
     id="metadata8"><rdf:RDF><cc:Work
         rdf:about=""><dc:format>image/svg+xml</dc:format><dc:type
           rdf:resource="http://purl.org/dc/dcmitype/StillImage" /><dc:title></dc:title></cc:Work></rdf:RDF></metadata><defs
     id="defs6"><clipPath
       clipPathUnits="userSpaceOnUse"
       id="clipPath16"><path
         d="m 0,170.079 240.945,0 L 240.945,0 0,0 0,170.079 Z"
         id="path18"
         inkscape:connector-curvature="0" /></clipPath></defs><sodipodi:namedview
     pagecolor="#ffffff"
     bordercolor="#666666"
     borderopacity="1"
     objecttolerance="10"
     gridtolerance="10"
     guidetolerance="10"
     inkscape:pageopacity="0"
     inkscape:pageshadow="2"
     inkscape:window-width="852"
     inkscape:window-height="480"
     id="namedview4"
     showgrid="false"
     inkscape:zoom="1.0458819"
     inkscape:cx="150.59062"
     inkscape:cy="106.29938"
     inkscape:window-x="0"
     inkscape:window-y="0"
     inkscape:window-maximized="0"
     inkscape:current-layer="g10" /><g
     id="g10"
     inkscape:groupmode="layer"
     inkscape:label="T3880209"
     transform="matrix(1.25,0,0,-1.25,0,212.59875)"><g
       id="g12"><g
         id="g14"
         clip-path="url(#clipPath16)"><g
           id="g20"
           transform="translate(135.292,58.7354)"><path
             d="m 0,0 c -4.802,-3.311 -9.648,-3.85 -12.574,-2.168 l -45.378,26.199 c -4.732,2.737 -6.911,12.73 -0.43,23.944 6.485,11.238 16.228,14.344 20.957,11.607 L 7.947,33.388 c 2.949,-1.706 4.907,-6.212 4.409,-12.074"
             style="fill:none;stroke:#231f20;stroke-width:1;stroke-linecap:round;stroke-linejoin:round;stroke-miterlimit:4;stroke-dasharray:none;stroke-opacity:1"
             id="path22"
             inkscape:connector-curvature="0" /></g><g
           id="g24"
           transform="translate(135.0146,58.9004)"><path
             d="m 0,0 c -3.166,-1.823 -6.333,-2.256 -8.749,-0.86 -4.836,2.795 -4.831,11.836 -0.01,20.181 4.832,8.366 12.648,12.881 17.485,10.091 2.333,-1.351 3.541,-4.151 3.626,-7.626"
             style="fill:none;stroke:#231f20;stroke-width:0.5;stroke-linecap:round;stroke-linejoin:round;stroke-miterlimit:4;stroke-dasharray:none;stroke-opacity:1"
             id="path26"
             inkscape:connector-curvature="0" /></g><g
           id="g28"
           transform="translate(129.1484,63.0322)"><path
             d="m 0,0 c -3.242,1.871 -3.242,7.928 -0.01,13.531 3.242,5.606 8.482,8.629 11.724,6.757"
             style="fill:none;stroke:#231f20;stroke-width:0.5;stroke-linecap:round;stroke-linejoin:round;stroke-miterlimit:4;stroke-dasharray:none;stroke-opacity:1"
             id="path30"
             inkscape:connector-curvature="0" /></g><g
           id="g32"
           transform="translate(142.8945,55.0947)"><path
             d="m 0,0 c -3.242,1.871 -3.237,7.928 -0.005,13.531 3.237,5.606 8.482,8.629 11.724,6.757"
             style="fill:none;stroke:#231f20;stroke-width:0.5;stroke-linecap:round;stroke-linejoin:round;stroke-miterlimit:4;stroke-dasharray:none;stroke-opacity:1"
             id="path34"
             inkscape:connector-curvature="0" /></g><g
           id="g36"
           transform="translate(149.6895,56.2656)"><path
             d="M 0,0 C -2.421,-1.706 -4.938,-2.245 -6.795,-1.171 L -20.541,6.767"
             style="fill:none;stroke:#231f20;stroke-width:1;stroke-linecap:round;stroke-linejoin:round;stroke-miterlimit:4;stroke-dasharray:none;stroke-opacity:1"
             id="path38"
             inkscape:connector-curvature="0" /></g><g
           id="g40"
           transform="translate(140.0312,83.8018)"><path
             d="m 0,0 14.582,-8.419 c 1.871,-1.079 2.664,-3.558 2.372,-6.542"
             style="fill:none;stroke:#231f20;stroke-width:1;stroke-linecap:round;stroke-linejoin:round;stroke-miterlimit:4;stroke-dasharray:none;stroke-opacity:1"
             id="path42"
             inkscape:connector-curvature="0" /></g><g
           id="g44"
           transform="translate(145.3682,59.377)"><path
             d="m 0,0 c -1.876,1.079 -1.876,4.583 -0.005,7.82 1.871,3.243 4.904,4.988 6.776,3.909"
             style="fill:none;stroke:#231f20;stroke-width:0.5;stroke-linecap:round;stroke-linejoin:round;stroke-miterlimit:4;stroke-dasharray:none;stroke-opacity:1"
             id="path46"
             inkscape:connector-curvature="0" /></g><g
           id="g48"
           transform="translate(146.4512,58.751)"><path
             d="m 0,0 c -1.875,1.08 -1.875,4.584 -0.005,7.82 1.872,3.243 4.904,4.989 6.777,3.909"
             style="fill:none;stroke:#231f20;stroke-width:0.5;stroke-linecap:round;stroke-linejoin:round;stroke-miterlimit:4;stroke-dasharray:none;stroke-opacity:1"
             id="path50"
             inkscape:connector-curvature="0" /></g><g
           id="g52"
           transform="translate(147.5352,58.125)"><path
             d="m 0,0 c -1.876,1.08 -1.876,4.584 -0.005,7.821 1.871,3.242 4.904,4.988 6.776,3.908"
             style="fill:none;stroke:#231f20;stroke-width:0.5;stroke-linecap:round;stroke-linejoin:round;stroke-miterlimit:4;stroke-dasharray:none;stroke-opacity:1"
             id="path54"
             inkscape:connector-curvature="0" /></g><g
           id="g56"
           transform="translate(148.6182,57.499)"><path
             d="m 0,0 c -1.875,1.081 -1.875,4.584 -0.005,7.822 1.872,3.242 4.904,4.987 6.777,3.908"
             style="fill:none;stroke:#231f20;stroke-width:0.5;stroke-linecap:round;stroke-linejoin:round;stroke-miterlimit:4;stroke-dasharray:none;stroke-opacity:1"
             id="path58"
             inkscape:connector-curvature="0" /></g><g
           id="g60"
           transform="translate(149.7012,56.874)"><path
             d="m 0,0 c -1.875,1.08 -1.875,4.583 -0.005,7.822 1.872,3.242 4.904,4.987 6.777,3.908"
             style="fill:none;stroke:#231f20;stroke-width:0.5;stroke-linecap:round;stroke-linejoin:round;stroke-miterlimit:4;stroke-dasharray:none;stroke-opacity:1"
             id="path62"
             inkscape:connector-curvature="0" /></g><g
           id="g64"
           transform="translate(150.7852,56.248)"><path
             d="m 0,0 c -1.875,1.081 -1.875,4.583 -0.005,7.822 1.872,3.242 4.904,4.988 6.777,3.908"
             style="fill:none;stroke:#231f20;stroke-width:0.5;stroke-linecap:round;stroke-linejoin:round;stroke-miterlimit:4;stroke-dasharray:none;stroke-opacity:1"
             id="path66"
             inkscape:connector-curvature="0" /></g><g
           id="g68"
           transform="translate(151.8682,55.6221)"><path
             d="m 0,0 c -1.875,1.081 -1.875,4.583 -0.005,7.822 1.873,3.242 4.904,4.989 6.777,3.908"
             style="fill:none;stroke:#231f20;stroke-width:0.5;stroke-linecap:round;stroke-linejoin:round;stroke-miterlimit:4;stroke-dasharray:none;stroke-opacity:1"
             id="path70"
             inkscape:connector-curvature="0" /></g><g
           id="g72"
           transform="translate(152.9512,54.9961)"><path
             d="m 0,0 c -1.874,1.082 -1.874,4.583 -0.005,7.823 1.873,3.242 4.904,4.988 6.778,3.908"
             style="fill:none;stroke:#231f20;stroke-width:0.5;stroke-linecap:round;stroke-linejoin:round;stroke-miterlimit:4;stroke-dasharray:none;stroke-opacity:1"
             id="path74"
             inkscape:connector-curvature="0" /></g><g
           id="g76"
           transform="translate(154.0352,54.3701)"><path
             d="m 0,0 c -1.875,1.083 -1.875,4.583 -0.005,7.824 1.873,3.242 4.904,4.987 6.777,3.908"
             style="fill:none;stroke:#231f20;stroke-width:0.5;stroke-linecap:round;stroke-linejoin:round;stroke-miterlimit:4;stroke-dasharray:none;stroke-opacity:1"
             id="path78"
             inkscape:connector-curvature="0" /></g><g
           id="g80"
           transform="translate(155.1182,53.7441)"><path
             d="m 0,0 c -1.874,1.083 -1.874,4.584 -0.005,7.824 1.873,3.242 4.904,4.988 6.778,3.908"
             style="fill:none;stroke:#231f20;stroke-width:0.5;stroke-linecap:round;stroke-linejoin:round;stroke-miterlimit:4;stroke-dasharray:none;stroke-opacity:1"
             id="path82"
             inkscape:connector-curvature="0" /></g><g
           id="g84"
           transform="translate(156.2012,53.1191)"><path
             d="m 0,0 c -1.874,1.083 -1.874,4.583 -0.005,7.824 1.874,3.242 4.904,4.988 6.778,3.908"
             style="fill:none;stroke:#231f20;stroke-width:0.5;stroke-linecap:round;stroke-linejoin:round;stroke-miterlimit:4;stroke-dasharray:none;stroke-opacity:1"
             id="path86"
             inkscape:connector-curvature="0" /></g><g
           id="g88"
           transform="translate(157.2852,52.4932)"><path
             d="m 0,0 c -1.874,1.083 -1.874,4.583 -0.005,7.824 1.873,3.242 4.904,4.989 6.778,3.908"
             style="fill:none;stroke:#231f20;stroke-width:0.5;stroke-linecap:round;stroke-linejoin:round;stroke-miterlimit:4;stroke-dasharray:none;stroke-opacity:1"
             id="path90"
             inkscape:connector-curvature="0" /></g><g
           id="g92"
           transform="translate(158.3682,51.8672)"><path
             d="m 0,0 c -1.874,1.084 -1.874,4.583 -0.005,7.825 1.874,3.242 4.904,4.988 6.778,3.908"
             style="fill:none;stroke:#231f20;stroke-width:0.5;stroke-linecap:round;stroke-linejoin:round;stroke-miterlimit:4;stroke-dasharray:none;stroke-opacity:1"
             id="path94"
             inkscape:connector-curvature="0" /></g><g
           id="g96"
           transform="translate(145.3682,59.377)"><path
             d="m 0,0 13,-7.51 c 1.869,-1.084 4.909,0.666 6.778,3.907 1.871,3.243 1.867,6.743 -0.005,7.827 L 6.771,11.729"
             style="fill:none;stroke:#231f20;stroke-width:1;stroke-linecap:round;stroke-linejoin:round;stroke-miterlimit:4;stroke-dasharray:none;stroke-opacity:1"
             id="path98"
             inkscape:connector-curvature="0" /></g><g
           id="g100"
           transform="translate(123.1797,56.2412)"><path
             d="m 0,0 c 0.851,3.193 0.028,7.758 -2.47,12.074 -0.388,0.676 -0.806,1.283 -1.239,1.886 2.493,1.988 4.87,4.744 6.795,8.089 1.91,3.305 3.106,6.703 3.588,9.828 0.723,-0.073 1.453,-0.131 2.206,-0.131 4.914,0 9.216,1.516 11.573,3.781"
             style="fill:none;stroke:#231f20;stroke-width:0.5;stroke-linecap:round;stroke-linejoin:round;stroke-miterlimit:4;stroke-dasharray:none;stroke-opacity:1"
             id="path102"
             inkscape:connector-curvature="0" /></g><g
           id="g104"
           transform="translate(129.8535,88.1182)"><path
             d="M 0,0 -46.17,26.656"
             style="fill:none;stroke:#231f20;stroke-width:0.5;stroke-linecap:round;stroke-linejoin:round;stroke-miterlimit:4;stroke-dasharray:none;stroke-opacity:1"
             id="path106"
             inkscape:connector-curvature="0" /></g><g
           id="g108"
           transform="translate(119.5293,70.2256)"><path
             d="M 0,0 -46.175,26.661"
             style="fill:none;stroke:#231f20;stroke-width:0.5;stroke-linecap:round;stroke-linejoin:round;stroke-miterlimit:4;stroke-dasharray:none;stroke-opacity:1"
             id="path110"
             inkscape:connector-curvature="0" /></g></g></g><text
       transform="matrix(1,0,0,-1,3.9448,3.7451)"
       style="font-variant:normal;font-weight:normal;font-stretch:normal;font-size:5px;font-family:Helvetica;-inkscape-font-specification:Helvetica;writing-mode:lr-tb;fill:#231f20;fill-opacity:1;fill-rule:nonzero;stroke:none"
       id="text112"><tspan
         x="0 2.5 5.2800002 9.3699999 11.87"
         y="0"
         sodipodi:role="line"
         id="tspan114">cemy3</tspan></text>
</g></svg>