<?xml version="1.0" encoding="UTF-8" standalone="no"?>
<!-- Created with Inkscape (http://www.inkscape.org/) -->

<svg
   xmlns:dc="http://purl.org/dc/elements/1.1/"
   xmlns:cc="http://creativecommons.org/ns#"
   xmlns:rdf="http://www.w3.org/1999/02/22-rdf-syntax-ns#"
   xmlns:svg="http://www.w3.org/2000/svg"
   xmlns="http://www.w3.org/2000/svg"
   xmlns:sodipodi="http://sodipodi.sourceforge.net/DTD/sodipodi-0.dtd"
   xmlns:inkscape="http://www.inkscape.org/namespaces/inkscape"
   id="svg2"
   version="1.1"
   inkscape:version="0.91 r13725"
   xml:space="preserve"
   width="1753.9375"
   height="3507.875"
   viewBox="0 0 1753.9375 3507.875"
   sodipodi:docname="Triumph Toolboard 6.svg"><metadata
     id="metadata8"><rdf:RDF><cc:Work
         rdf:about=""><dc:format>image/svg+xml</dc:format><dc:type
           rdf:resource="http://purl.org/dc/dcmitype/StillImage" /><dc:title></dc:title></cc:Work></rdf:RDF></metadata><defs
     id="defs6"><clipPath
       clipPathUnits="userSpaceOnUse"
       id="clipPath16"><path
         d="M 22.677,2806.3 C 10.153,2806.3 0,2796.147 0,2783.624 l 0,0 L 0,22.677 C 0,10.153 10.153,0 22.677,0 l 0,0 1357.796,0 c 12.524,0 22.677,10.153 22.677,22.677 l 0,0 0,2760.947 c 0,12.523 -10.153,22.676 -22.677,22.676 l 0,0 -1357.796,0 z"
         id="path18"
         inkscape:connector-curvature="0" /></clipPath><clipPath
       clipPathUnits="userSpaceOnUse"
       id="clipPath26"><path
         d="m 0,2806.3 1403.15,0 L 1403.15,0 0,0 0,2806.3 Z"
         id="path28"
         inkscape:connector-curvature="0" /></clipPath><clipPath
       clipPathUnits="userSpaceOnUse"
       id="clipPath128"><path
         d="m 0,2806.3 1403.15,0 L 1403.15,0 0,0 0,2806.3 Z"
         id="path130"
         inkscape:connector-curvature="0" /></clipPath><clipPath
       clipPathUnits="userSpaceOnUse"
       id="clipPath170"><path
         d="m 0,2806.3 1403.15,0 L 1403.15,0 0,0 0,2806.3 Z"
         id="path172"
         inkscape:connector-curvature="0" /></clipPath><clipPath
       clipPathUnits="userSpaceOnUse"
       id="clipPath252"><path
         d="m 798.927,628.903 50.121,0 0,56.611 -50.121,0 0,-56.611 z"
         id="path254"
         inkscape:connector-curvature="0" /></clipPath><clipPath
       clipPathUnits="userSpaceOnUse"
       id="clipPath284"><path
         d="m 0,2806.3 1403.15,0 L 1403.15,0 0,0 0,2806.3 Z"
         id="path286"
         inkscape:connector-curvature="0" /></clipPath><clipPath
       clipPathUnits="userSpaceOnUse"
       id="clipPath294"><path
         d="m 1200.543,628.903 50.121,0 0,56.611 -50.121,0 0,-56.611 z"
         id="path296"
         inkscape:connector-curvature="0" /></clipPath><clipPath
       clipPathUnits="userSpaceOnUse"
       id="clipPath326"><path
         d="m 0,2806.3 1403.15,0 L 1403.15,0 0,0 0,2806.3 Z"
         id="path328"
         inkscape:connector-curvature="0" /></clipPath><clipPath
       clipPathUnits="userSpaceOnUse"
       id="clipPath670"><path
         d="m 0,2806.3 1403.15,0 L 1403.15,0 0,0 0,2806.3 Z"
         id="path672"
         inkscape:connector-curvature="0" /></clipPath></defs><sodipodi:namedview
     pagecolor="#ffffff"
     bordercolor="#666666"
     borderopacity="1"
     objecttolerance="10"
     gridtolerance="10"
     guidetolerance="10"
     inkscape:pageopacity="0"
     inkscape:pageshadow="2"
     inkscape:window-width="822"
     inkscape:window-height="480"
     id="namedview4"
     showgrid="false"
     inkscape:zoom="0.067277198"
     inkscape:cx="876.96875"
     inkscape:cy="1753.9375"
     inkscape:window-x="22"
     inkscape:window-y="21"
     inkscape:window-maximized="0"
     inkscape:current-layer="g10" /><g
     id="g10"
     inkscape:groupmode="layer"
     inkscape:label="Triumph Toolboard 6"
     transform="matrix(1.25,0,0,-1.25,0,3507.875)"><g
       id="g12"><g
         id="g14"
         clip-path="url(#clipPath16)"><path
           d="m 1446.372,-40.18 -1498.413,0 0,2883.805 1498.413,0 0,-2883.805 z"
           style="fill:#1d1d1b;fill-opacity:1;fill-rule:nonzero;stroke:none"
           id="path20"
           inkscape:connector-curvature="0" /></g></g><g
       id="g22"><g
         id="g24"
         clip-path="url(#clipPath26)"><g
           id="g30"
           transform="translate(799.5167,2663.2532)"><path
             d="m 0,0 0,74.315 -13.157,0 c -4.9,0 -6.636,-2.429 -9.787,-6.855 l -20.368,-28.733 -22.531,35.588 -14.181,0 c -4.704,0 -5.398,-4.26 -5.398,-6.798 l 0,-67.517 16.232,0 0,48.941 21.964,-32.906 6.895,0 23.044,32.743 L -17.287,0 0,0 Z"
             style="fill:#ffffff;fill-opacity:1;fill-rule:nonzero;stroke:none"
             id="path32"
             inkscape:connector-curvature="0" /></g><g
           id="g34"
           transform="translate(834.2404,2698.5325)"><path
             d="m 0,0 0,26.712 6.756,0 c 12.425,0 14.293,-7.336 14.293,-11.704 0,-14.314 -16.642,-15.045 -19.963,-15.045 -0.378,0 -0.593,0.017 -0.593,0.017 L 0,0 Z m 1.124,-12.367 c 2.588,0 11.806,0.296 20.455,4.091 11.099,4.892 16.756,13.447 16.756,25.437 0,6.577 -2.664,21.875 -27.159,21.875 l -25.508,0 c -4.715,0 -5.422,-4.273 -5.422,-6.799 l 0,-67.516 19.754,0 0,22.912 0.518,0 0.606,0"
             style="fill:#ffffff;fill-opacity:1;fill-rule:nonzero;stroke:none"
             id="path36"
             inkscape:connector-curvature="0" /></g><g
           id="g38"
           transform="translate(699.1124,2737.5686)"><path
             d="m 0,0 -14.35,0 c -4.704,0 -5.411,-4.273 -5.411,-6.799 l 0,-40.041 c 0,-13.396 -7.223,-16.225 -13.302,-16.225 -6.08,0 -13.303,2.829 -13.303,16.225 l 0,46.84 -14.369,0 c -4.698,0 -5.411,-4.273 -5.411,-6.799 l 0,-41.543 c 0,-13.081 5.751,-28.663 33.083,-28.663 C -5.738,-77.005 0,-61.423 0,-48.342 L 0,0 Z"
             style="fill:#ffffff;fill-opacity:1;fill-rule:nonzero;stroke:none"
             id="path40"
             inkscape:connector-curvature="0" /></g><g
           id="g42"
           transform="translate(598.2477,2663.2463)"><path
             d="m 0,0 19.75,0 0,74.322 -14.339,0 C 0.714,74.322 0,70.062 0,67.523 L 0,0 Z"
             style="fill:#ffffff;fill-opacity:1;fill-rule:nonzero;stroke:none"
             id="path44"
             inkscape:connector-curvature="0" /></g><g
           id="g46"
           transform="translate(546.2511,2698.4954)"><path
             d="m 0,0 c -0.367,0 -0.582,0.018 -0.582,0.018 l -0.473,0.012 0,26.701 6.515,0 c 12.437,0 14.288,-7.336 14.288,-11.699 C 19.748,0.731 3.308,0 0,0 m 407.782,-35.229 0,74.291 -14.331,0 c -4.737,0 -5.443,-4.269 -5.443,-6.8 l 0,-12.413 -0.391,-0.082 C 378.5,18.006 369.282,14.502 359.433,9.021 l -0.732,-0.41 0,30.451 -14.344,0 c -4.724,0 -5.405,-4.269 -5.405,-6.8 l 0,-36.828 -0.215,-0.145 c -3.042,-2.298 -5.909,-4.552 -8.397,-6.528 l -0.631,-0.487 c -51.177,-40.185 -102.171,-58.303 -165.356,-58.733 -0.658,-0.006 -1.339,-0.006 -1.996,-0.006 -29.118,-0.014 -57.042,4.829 -80.788,13.984 -27.628,10.669 -48.506,26.547 -62.055,47.263 l -0.328,0.517 0.562,0.227 c 11.452,4.849 17.279,13.487 17.279,25.659 0,6.572 -2.652,21.877 -27.154,21.877 l -25.488,0 c -4.715,0 -5.423,-4.276 -5.423,-6.807 l 0,-67.497 19.983,0 0,22.936 0.517,-0.024 c 0.013,0 0.431,-0.014 1.169,0 l 0.233,0 0.17,-0.178 c 26.031,-31.176 75.466,-68.344 163.319,-68.344 65.736,0 119.331,18.361 173.778,59.556 l 0.821,0.607 0,-14.54 19.749,0 0,28.915 0.239,0.151 C 369.472,0.65 378.526,4.463 387.427,5.82 l 0.581,0.088 0,-41.137 19.774,0 z"
             style="fill:#ffffff;fill-opacity:1;fill-rule:nonzero;stroke:none"
             id="path48"
             inkscape:connector-curvature="0" /></g><g
           id="g50"
           transform="translate(516.2042,2737.5686)"><path
             d="m 0,0 -61.784,0 c -4.382,0 -5.304,-3.699 -5.304,-6.799 l 0,-10.866 23.556,0 0,-56.65 19.868,0 0,56.65 18.254,0 c 4.728,0 5.41,4.268 5.41,6.8 L 0,0 Z"
             style="fill:#ffffff;fill-opacity:1;fill-rule:nonzero;stroke:none"
             id="path52"
             inkscape:connector-curvature="0" /></g><g
           id="g54"
           transform="translate(809.9313,1999.795)"><path
             d="m 0,0 c -10.37,0 -18.777,8.406 -18.777,18.776 0,10.37 8.407,18.778 18.777,18.778 10.37,0 18.776,-8.408 18.776,-18.778 C 18.776,8.406 10.37,0 0,0 m 0,82.488 c -35.187,0 -63.712,-28.524 -63.712,-63.712 0,-35.186 28.525,-63.712 63.712,-63.712 35.187,0 63.712,28.526 63.712,63.712 0,35.188 -28.525,63.712 -63.712,63.712"
             style="fill:#ffffff;fill-opacity:1;fill-rule:nonzero;stroke:none"
             id="path56"
             inkscape:connector-curvature="0" /></g><g
           id="g58"
           transform="translate(1024.673,2000.0939)"><path
             d="m 0,0 c -10.37,0 -18.777,8.406 -18.777,18.776 0,10.37 8.407,18.777 18.777,18.777 10.37,0 18.776,-8.407 18.776,-18.777 C 18.776,8.406 10.37,0 0,0 m 0,72.315 c -29.568,0 -53.538,-23.97 -53.538,-53.539 0,-29.568 23.97,-53.538 53.538,-53.538 29.568,0 53.538,23.97 53.538,53.538 0,29.569 -23.97,53.539 -53.538,53.539"
             style="fill:#ffffff;fill-opacity:1;fill-rule:nonzero;stroke:none"
             id="path60"
             inkscape:connector-curvature="0" /></g><g
           id="g62"
           transform="translate(1240.7106,2000.0939)"><path
             d="m 0,0 c -10.37,0 -18.776,8.406 -18.776,18.776 0,10.37 8.406,18.777 18.776,18.777 10.37,0 18.777,-8.407 18.777,-18.777 C 18.777,8.406 10.37,0 0,0 m 0,58.009 c -21.667,0 -39.233,-17.565 -39.233,-39.233 0,-21.668 17.566,-39.233 39.233,-39.233 21.668,0 39.233,17.565 39.233,39.233 0,21.668 -17.565,39.233 -39.233,39.233"
             style="fill:#ffffff;fill-opacity:1;fill-rule:nonzero;stroke:none"
             id="path64"
             inkscape:connector-curvature="0" /></g></g></g><text
       transform="matrix(1,0,0,-1,532.8242,2466.6563)"
       style="font-variant:normal;font-weight:bold;font-stretch:normal;font-size:26.00670052px;font-family:Helvetica;-inkscape-font-specification:Helvetica-Bold;writing-mode:lr-tb;fill:#ffffff;fill-opacity:1;fill-rule:nonzero;stroke:none"
       id="text66"><tspan
         x="0 15.890094 30.349819 44.809544 59.269268 73.728996 88.188721 102.64845"
         y="0"
         sodipodi:role="line"
         id="tspan68">T3880608</tspan><tspan
         x="539.1189 555.00897 569.46869 583.92841 598.38818 612.8479 627.30762 641.76733"
         y="221.36903"
         sodipodi:role="line"
         id="tspan70">T3880629</tspan><tspan
         x="217.85812 233.74821 248.20795 262.66766 277.12738 291.58713 306.04684 320.50656"
         y="543.27997"
         sodipodi:role="line"
         id="tspan72">T3880626</tspan></text>
<text
       transform="matrix(1,0,0,-1,665.0176,1578.8989)"
       style="font-variant:normal;font-weight:bold;font-stretch:normal;font-size:21.12879944px;font-family:Helvetica;-inkscape-font-specification:Helvetica-Bold;writing-mode:lr-tb;fill:#ffffff;fill-opacity:1;fill-rule:nonzero;stroke:none"
       id="text74"><tspan
         x="0 12.909697 24.65731 36.404922 48.152534 59.900146 71.647758 83.39537"
         y="0"
         sodipodi:role="line"
         id="tspan76">T3880631</tspan></text>
<text
       transform="matrix(0,-1,-1,0,542.9585,1928.9697)"
       style="font-variant:normal;font-weight:bold;font-stretch:normal;font-size:26.00670052px;font-family:Helvetica;-inkscape-font-specification:Helvetica-Bold;writing-mode:lr-tb;fill:#ffffff;fill-opacity:1;fill-rule:nonzero;stroke:none"
       id="text78"><tspan
         x="0 15.890094 30.349819 44.809544 59.269268 73.728996 88.188721 102.64845"
         y="0"
         sodipodi:role="line"
         id="tspan80">T3880603</tspan></text>
<text
       transform="matrix(1,0,0,-1,462.3652,1375.7236)"
       style="font-variant:normal;font-weight:bold;font-stretch:normal;font-size:26.00670052px;font-family:Helvetica;-inkscape-font-specification:Helvetica-Bold;writing-mode:lr-tb;fill:#ffffff;fill-opacity:1;fill-rule:nonzero;stroke:none"
       id="text82"><tspan
         x="0 15.890094 30.349819 44.809544 59.269268 73.728996 88.188721 102.64845"
         y="0"
         sodipodi:role="line"
         id="tspan84">T3880602</tspan><tspan
         x="660.49219 676.38226 690.84198 705.3017 719.76141 734.22113 748.68091 763.14063"
         y="785.68842"
         sodipodi:role="line"
         id="tspan86">T3880600</tspan><tspan
         x="706.05591 721.94598"
         y="816.89642"
         sodipodi:role="line"
         id="tspan88">or</tspan><tspan
         x="660.49219 676.38226 690.84198 705.3017 719.76141 734.22113 748.68091 763.14063"
         y="848.10449"
         sodipodi:role="line"
         id="tspan90">T3880640</tspan></text>
<text
       transform="matrix(0,-1,-1,0,412.2749,955.4902)"
       style="font-variant:normal;font-weight:bold;font-stretch:normal;font-size:26.00670052px;font-family:Helvetica;-inkscape-font-specification:Helvetica-Bold;writing-mode:lr-tb;fill:#ffffff;fill-opacity:1;fill-rule:nonzero;stroke:none"
       id="text92"><tspan
         x="0 15.890094 30.349819 44.809544 59.269268 73.728996 88.188721 102.64845"
         y="0"
         sodipodi:role="line"
         id="tspan94">T3880605</tspan></text>
<text
       transform="matrix(1,0,0,-1,211.4189,129.3257)"
       style="font-variant:normal;font-weight:bold;font-stretch:normal;font-size:26.00670052px;font-family:Helvetica;-inkscape-font-specification:Helvetica-Bold;writing-mode:lr-tb;fill:#ffffff;fill-opacity:1;fill-rule:nonzero;stroke:none"
       id="text96"><tspan
         x="0 15.890094 30.349819 44.809544 59.269268 73.728996 88.188721 102.64845"
         y="0"
         sodipodi:role="line"
         id="tspan98">T3880624</tspan><tspan
         x="431.42514 447.31525 461.77496 476.23468 490.69443 505.15414 519.61389 534.07361 863.47443 879.36456 893.82428 908.284 922.74371 937.20343 951.66315 966.12292"
         y="24.056196"
         sodipodi:role="line"
         id="tspan100">T3880604T3880620</tspan><tspan
         x="971.87036 987.7605 1002.2202 1016.6799 1031.1396 1045.5994 1060.0591 1074.5188"
         y="-677.42255"
         sodipodi:role="line"
         id="tspan102">T3880607</tspan></text>
<text
       transform="matrix(0,-1,-1,0,727.064,758.2285)"
       style="font-variant:normal;font-weight:bold;font-stretch:normal;font-size:26.00670052px;font-family:Helvetica;-inkscape-font-specification:Helvetica-Bold;writing-mode:lr-tb;fill:#ffffff;fill-opacity:1;fill-rule:nonzero;stroke:none"
       id="text104"><tspan
         x="0 15.890094 30.349819 44.809544 59.269268 73.728996 88.188721 102.64845"
         y="0"
         sodipodi:role="line"
         id="tspan106">T3880601</tspan></text>
<text
       transform="matrix(1,0,0,-1,321.6777,1621.3311)"
       style="font-variant:normal;font-weight:bold;font-stretch:normal;font-size:26.00670052px;font-family:Helvetica;-inkscape-font-specification:Helvetica-Bold;writing-mode:lr-tb;fill:#ffffff;fill-opacity:1;fill-rule:nonzero;stroke:none"
       id="text108"><tspan
         x="0 15.890094 30.349819 44.809544 59.269268 73.728996 88.188721 102.64845"
         y="0"
         sodipodi:role="line"
         id="tspan110">T3880627</tspan></text>
<text
       transform="matrix(0,-1,-1,0,92.1265,1638.0332)"
       style="font-variant:normal;font-weight:bold;font-stretch:normal;font-size:26.00670052px;font-family:Helvetica;-inkscape-font-specification:Helvetica-Bold;writing-mode:lr-tb;fill:#ffffff;fill-opacity:1;fill-rule:nonzero;stroke:none"
       id="text112"><tspan
         x="0 15.890094 30.349819 44.809544 59.269268 73.728996 88.188721 102.64845"
         y="0"
         sodipodi:role="line"
         id="tspan114">T3880606</tspan></text>
<text
       transform="matrix(1,0,0,-1,964.9316,1493.8252)"
       style="font-variant:normal;font-weight:bold;font-stretch:normal;font-size:26.00670052px;font-family:Helvetica;-inkscape-font-specification:Helvetica-Bold;writing-mode:lr-tb;fill:#ffffff;fill-opacity:1;fill-rule:nonzero;stroke:none"
       id="text116"><tspan
         x="0 15.890094 30.349819 44.809544 59.269268 73.728996 88.188721 102.64845"
         y="0"
         sodipodi:role="line"
         id="tspan118">T3880630</tspan><tspan
         x="-282.51077 -268.05106"
         y="-207.71552"
         sodipodi:role="line"
         id="tspan120">x4</tspan><tspan
         x="0.62416083 16.514254 30.97398 45.433704 59.893429 74.353157 88.812881 103.27261 217.12994 233.02003 247.47975 261.93948 276.3992 290.85895 305.31866 319.77838"
         y="-429.55267"
         sodipodi:role="line"
         id="tspan122">T3880625T3880628</tspan></text>
<g
       id="g124"><g
         id="g126"
         clip-path="url(#clipPath128)"><path
           d="m 796.41,2252.48 -404.475,0 0,253.34 404.475,0 0,-253.34 z"
           style="fill:none;stroke:#ffffff;stroke-width:7;stroke-linecap:butt;stroke-linejoin:miter;stroke-miterlimit:10;stroke-dasharray:none;stroke-opacity:1"
           id="path132"
           inkscape:connector-curvature="0" /><path
           d="m 1094.561,1567.3 -440.656,0 0,268.5 440.656,0 0,-268.5 z"
           style="fill:none;stroke:#ffffff;stroke-width:7;stroke-linecap:butt;stroke-linejoin:miter;stroke-miterlimit:10;stroke-dasharray:none;stroke-opacity:1"
           id="path134"
           inkscape:connector-curvature="0" /><g
           id="g136"
           transform="translate(1124.9049,1835.7999)"><path
             d="m 0,0 0,-304 -471,0 0,-419.658 695.156,0 L 224.156,0 0,0 Z"
             style="fill:none;stroke:#ffffff;stroke-width:7;stroke-linecap:butt;stroke-linejoin:miter;stroke-miterlimit:10;stroke-dasharray:none;stroke-opacity:1"
             id="path138"
             inkscape:connector-curvature="0" /></g><g
           id="g140"
           transform="translate(511.8409,2329.4417)"><path
             d="m 0,0 -11.5,0 0,27.666 4.333,0 0,50.667 -4.333,0 0,39.833 -28,0 0,-39.833 -4,0 0,-50.667 4,0 0,-27.666 -11,0 0,-14.167 11,0 0,-37.833 28,0 0,37.833 11.5,0 L 0,0 Z"
             style="fill:#ffffff;fill-opacity:1;fill-rule:nonzero;stroke:none"
             id="path142"
             inkscape:connector-curvature="0" /></g><g
           id="g144"
           transform="translate(728.6935,2304.2268)"><path
             d="m 0,0 -11.5,0 0,69.172 4.333,0 0,50.591 -4.333,0 0,37.421 -28,0 0,-37.421 -4,0 0,-50.591 4,0 0,-69.172 -11,0 0,-14.167 11,0 0,-12.395 28,0 0,12.395 11.5,0 L 0,0 Z"
             style="fill:#ffffff;fill-opacity:1;fill-rule:nonzero;stroke:none"
             id="path146"
             inkscape:connector-curvature="0" /></g><path
           d="m 1312.941,2316.037 -411.5,0 0,53.5 411.5,0 0,-53.5 z"
           style="fill:#ffffff;fill-opacity:1;fill-rule:nonzero;stroke:none"
           id="path148"
           inkscape:connector-curvature="0" /><path
           d="m 1364.191,2323.914 -86.25,0 0,36.038 86.25,0 0,-36.038 z"
           style="fill:#ffffff;fill-opacity:1;fill-rule:nonzero;stroke:none"
           id="path150"
           inkscape:connector-curvature="0" /><path
           d="m 546.368,1413.281 -53.5,0 0,85 53.5,0 0,-85 z"
           style="fill:#ffffff;fill-opacity:1;fill-rule:nonzero;stroke:none"
           id="path152"
           inkscape:connector-curvature="0" /><g
           id="g154"
           transform="translate(1304.8693,969.8859)"><path
             d="m 0,0 -45.143,0 0,62.221 -39.232,0 0,-62.221 -45.411,0 0,-16.257 37.081,0 0,-53.726 8.33,0 0,-60.46 39.232,0 0,60.46 8.33,0 0,53.726 36.813,0 L 0,0 Z"
             style="fill:#ffffff;fill-opacity:1;fill-rule:nonzero;stroke:none"
             id="path156"
             inkscape:connector-curvature="0" /></g><g
           id="g158"
           transform="translate(548.2848,1099.255)"><path
             d="m 0,0 -22.815,0 0,190.544 -25.072,0 15.043,22.062 -272.276,0 14.542,-22.313 -25.573,-0.251 0.846,-190.756 -21.655,-0.038 0,-35.602 150.11,0 0,-290.602 30,0 0,290.602 156.85,0 L 0,0 Z"
             style="fill:#ffffff;fill-opacity:1;fill-rule:nonzero;stroke:none"
             id="path160"
             inkscape:connector-curvature="0" /></g></g></g><text
       transform="matrix(1,0,0,-1,966.5605,762.2803)"
       style="font-variant:normal;font-weight:bold;font-stretch:normal;font-size:26.00670052px;font-family:Helvetica;-inkscape-font-specification:Helvetica-Bold;writing-mode:lr-tb;fill:#ffffff;fill-opacity:1;fill-rule:nonzero;stroke:none"
       id="text162"><tspan
         x="0 15.890094 30.349819 44.809544 59.269268 73.728996 88.188721 102.64845"
         y="0"
         sodipodi:role="line"
         id="tspan164">T3880609</tspan></text>
<g
       id="g166"><g
         id="g168"
         clip-path="url(#clipPath170)"><g
           id="g174"
           transform="translate(1002.0592,1062.8097)"><path
             d="m 0,0 0,-20.237 -4.543,0 c -7.795,0 -14.173,-6.378 -14.173,-14.173 l 0,-179.586 c 0,-7.796 6.378,-14.174 14.173,-14.174 l 13.164,0 0,-40.464 28.378,0 0,40.464 14.07,0 c 7.795,0 14.173,6.378 14.173,14.174 l 0,179.586 c 0,7.795 -6.378,14.173 -14.173,14.173 l -3.944,0 0,20.237 c 0,4.375 -3.58,7.955 -7.956,7.955 l -31.214,0 C 3.58,7.955 0,4.375 0,0"
             style="fill:#ffffff;fill-opacity:1;fill-rule:nonzero;stroke:none"
             id="path176"
             inkscape:connector-curvature="0" /></g><g
           id="g178"
           transform="translate(1250.5148,685.5139)"><path
             d="m 0,0 -213.032,0 0,3.097 19.087,0 0,28.256 -64.965,0 0,-28.256 20.287,0 0,-3.097 -212.964,0 0,-56.611 212.964,0 0,-134.126 25.591,0 0,134.126 L 0,-56.611 0,0 Z"
             style="fill:#ffffff;fill-opacity:1;fill-rule:nonzero;stroke:none"
             id="path180"
             inkscape:connector-curvature="0" /></g><g
           id="g182"
           transform="translate(270.965,281.7492)"><path
             d="m 0,0 c -7.905,0 -14.313,6.408 -14.313,14.313 0,7.906 6.408,14.314 14.313,14.314 7.905,0 14.313,-6.408 14.313,-14.314 C 14.313,6.408 7.905,0 0,0 m 0,145.971 c -72.712,0 -131.657,-58.946 -131.657,-131.658 0,-72.711 58.945,-131.657 131.657,-131.657 72.712,0 131.657,58.946 131.657,131.657 0,72.712 -58.945,131.658 -131.657,131.658"
             style="fill:#ffffff;fill-opacity:1;fill-rule:nonzero;stroke:none"
             id="path184"
             inkscape:connector-curvature="0" /></g><g
           id="g186"
           transform="translate(829.1281,400.092)"><path
             d="M 0,0 -1.542,-0.707 C -1.545,-0.708 -1.548,-0.71 -1.548,-0.71 -1.554,-0.713 -1.557,-0.714 -1.557,-0.714 l -38.382,-17.593 -0.005,-0.003 c 0,0 -0.01,-0.003 -0.012,-0.004 l -1.723,-0.79 -0.06,0.13 c -6.594,-1.997 -13.813,1.117 -16.764,7.555 -2.951,6.438 -0.598,13.939 5.22,17.63 l -0.06,0.132 1.723,0.789 c 0,0 0.006,0.003 0.009,0.005 l 0.008,0.003 38.38,17.591 0.008,0.005 c 0.003,10e-4 0.007,0.002 0.007,0.002 l 1.544,0.708 0.048,-0.103 C -4.971,27.462 2.361,24.346 5.341,17.845 8.321,11.344 5.896,3.755 -0.047,0.104 L 0,0 Z m -22.27,-143.383 c -4.746,-5.256 -12.566,-6.06 -18.257,-2.177 l -0.097,-0.106 -1.406,1.27 -0.008,0.006 -0.007,0.007 -31.333,28.295 c 0,0 -0.005,0.004 -0.008,0.007 l -0.007,0.007 -1.258,1.136 0.076,0.084 c -4.574,5.267 -4.611,13.234 0.182,18.541 4.793,5.308 12.722,6.081 18.426,2.066 l 0.076,0.084 1.259,-1.137 0.008,-0.006 0.004,-0.005 31.336,-28.297 c 0.003,-0.002 0.005,-0.004 0.005,-0.004 l 0.009,-0.009 1.407,-1.271 -0.096,-0.106 c 4.441,-5.268 4.436,-13.129 -0.311,-18.385 m -104.212,42.029 c -31.934,0 -57.821,25.888 -57.821,57.822 0,31.933 25.887,57.821 57.821,57.821 31.934,0 57.822,-25.888 57.822,-57.821 0,-31.934 -25.888,-57.822 -57.822,-57.822 m -52.115,-13.532 -1.411,-1.265 c 0,0 -0.004,-0.005 -0.007,-0.007 l -0.007,-0.006 -31.423,-28.196 -0.007,-0.007 c -0.003,-0.002 -0.006,-0.004 -0.006,-0.004 l -1.265,-1.135 -0.075,0.084 c -5.717,-3.996 -13.643,-3.198 -18.42,2.125 -4.776,5.322 -4.713,13.289 -0.123,18.541 l -0.076,0.084 1.263,1.133 c 0.002,0.003 0.004,0.005 0.004,0.005 l 0.01,0.009 31.423,28.195 0.007,0.007 c 0,0 0.005,0.004 0.008,0.006 l 1.41,1.265 0.097,-0.106 c 5.703,3.865 13.521,3.036 18.251,-2.235 4.729,-5.271 4.71,-13.133 0.251,-18.385 l 0.096,-0.108 z m -73.796,114.638 -0.005,0.002 c -0.006,0.003 -0.009,0.005 -0.009,0.005 l -1.538,0.724 0.049,0.103 c -5.904,3.714 -8.25,11.327 -5.201,17.797 3.048,6.469 10.412,9.508 17.035,7.319 l 0.049,0.103 1.534,-0.723 0.009,-0.004 0.009,-0.005 38.191,-17.995 0.009,-0.004 c 0,0 0.006,-0.003 0.009,-0.005 l 1.714,-0.807 -0.061,-0.13 c 5.778,-3.753 8.053,-11.278 5.034,-17.685 -3.019,-6.407 -10.27,-9.444 -16.843,-7.377 l -0.061,-0.13 -1.715,0.808 -0.005,0.002 c -0.006,0.003 -0.009,0.005 -0.009,0.005 l -38.195,17.997 z m 111.065,87.522 0.001,0.009 0,1.896 0.144,0 c 0.932,6.827 6.77,12.092 13.852,12.092 7.082,0 12.92,-5.265 13.852,-12.092 l 0.144,0 0,-1.896 10e-4,-0.006 -10e-4,-0.009 0,-42.222 10e-4,-0.007 -10e-4,-0.01 0,-1.699 -0.114,0 c -0.843,-6.924 -6.731,-12.291 -13.882,-12.291 -7.151,0 -13.039,5.367 -13.882,12.291 l -0.114,0 0,1.696 -0.001,0.01 0.001,0.01 0,42.219 -0.001,0.009 z m 14.846,31.089 c -89.412,0 -161.895,-72.483 -161.895,-161.895 0,-71.174 45.929,-131.617 109.765,-153.317 3.638,-6.852 6.468,-13.943 6.881,-19.904 1.756,-25.419 20.655,-41.175 46.134,-41.175 29.459,0 42.62,16.9 46.135,42.136 0.873,6.262 3.075,13.062 6.283,19.356 63.223,22.039 108.592,82.168 108.592,152.904 0,89.412 -72.483,161.895 -161.895,161.895"
             style="fill:#ffffff;fill-opacity:1;fill-rule:nonzero;stroke:none"
             id="path188"
             inkscape:connector-curvature="0" /></g><g
           id="g190"
           transform="translate(1194.0275,218.5422)"><path
             d="m 0,0 -123.29,0 c -3.118,0 -5.669,2.551 -5.669,5.669 l 0,114.688 c 0,3.119 2.551,5.669 5.669,5.669 l 123.29,0 c 3.118,0 5.669,-2.55 5.669,-5.669 l 0,-114.688 C 5.669,2.551 3.118,0 0,0"
             style="fill:#ffffff;fill-opacity:1;fill-rule:nonzero;stroke:none"
             id="path192"
             inkscape:connector-curvature="0" /></g><path
           d="m 1196.888,153.455 -129.211,0 0,77.724 129.211,0 0,-77.724 z"
           style="fill:#ffffff;fill-opacity:1;fill-rule:nonzero;stroke:none"
           id="path194"
           inkscape:connector-curvature="0" /><path
           d="m 1097.213,164.22 -28.628,0 0,-24.199 28.628,0 0,24.199 z"
           style="fill:#ffffff;fill-opacity:1;fill-rule:nonzero;stroke:none"
           id="path196"
           inkscape:connector-curvature="0" /><path
           d="m 1154.223,164.22 -28.628,0 0,-24.199 28.628,0 0,24.199 z"
           style="fill:#ffffff;fill-opacity:1;fill-rule:nonzero;stroke:none"
           id="path198"
           inkscape:connector-curvature="0" /><path
           d="m 1196.878,164.22 -14.545,0 0,-24.199 14.545,0 0,24.199 z"
           style="fill:#ffffff;fill-opacity:1;fill-rule:nonzero;stroke:none"
           id="path200"
           inkscape:connector-curvature="0" /><g
           id="g202"
           transform="translate(883.4249,1224.3156)"><path
             d="m 0,0 0.945,121.128 -16.445,0 c 0,0 -0.833,33.206 -29.495,33.168 -22.343,-0.029 -47.027,-0.032 -58.508,0.007 -0.191,0.019 -0.384,0.031 -0.58,0.031 l -14.167,0 c -3.071,0 -5.583,-2.513 -5.583,-5.584 0,-3.07 2.512,-5.583 5.583,-5.583 l 8.25,0 5.917,0 58.416,0 c 0,0 18.5,-1.911 18.5,-22.039 l -87.084,0 0,-20.128 c 0,0 44.751,-12.333 57.584,-17.666 C -43.833,78 -45.167,66.167 -45,61.5 -44.833,56.834 -46,16.167 -47.167,1 c -1.166,-15.166 -17.5,-15 -17.5,-15 l -0.166,-13.333 C -46.167,-38.5 -27.5,-43.666 -27.5,-43.666 l 0.167,-43.167 11.5,0 0.166,43.5 c 26.167,7.5 36,15.5 36,15.5 l 0,13.5 C -2.833,-13.333 0,0 0,0"
             style="fill:#ffffff;fill-opacity:1;fill-rule:nonzero;stroke:none"
             id="path204"
             inkscape:connector-curvature="0" /></g><g
           id="g206"
           transform="translate(1099.3942,1224.0353)"><path
             d="m 0,0 0.945,121.128 -16.445,0 c 0,0 -0.833,33.205 -29.495,33.168 -22.343,-0.029 -47.027,-0.032 -58.508,0.007 -0.191,0.019 -0.384,0.03 -0.58,0.03 l -14.167,0 c -3.071,0 -5.583,-2.513 -5.583,-5.583 0,-3.071 2.512,-5.584 5.583,-5.584 l 8.25,0 5.917,0 58.416,0 c 0,0 18.5,-1.91 18.5,-22.038 l -87.084,0 0,-20.128 c 0,0 44.751,-12.334 57.584,-17.667 C -43.833,78 -45.167,66.166 -45,61.5 -44.833,56.833 -46,16.166 -47.167,1 c -1.166,-15.167 -17.5,-15 -17.5,-15 l -0.166,-13.334 C -46.167,-38.5 -27.5,-43.667 -27.5,-43.667 l 0.167,-43.167 11.5,0 0.166,43.5 c 26.167,7.5 36,15.5 36,15.5 l 0,13.5 C -2.833,-13.334 0,0 0,0"
             style="fill:#ffffff;fill-opacity:1;fill-rule:nonzero;stroke:none"
             id="path208"
             inkscape:connector-curvature="0" /></g><g
           id="g210"
           transform="translate(1314.3942,1224.4884)"><path
             d="m 0,0 0.945,121.128 -16.445,0 c 0,0 -0.833,33.205 -29.495,33.167 -22.343,-0.029 -47.027,-0.031 -58.508,0.007 -0.191,0.02 -0.384,0.031 -0.58,0.031 l -14.167,0 c -3.071,0 -5.583,-2.513 -5.583,-5.583 l 0,-0.001 c 0,-3.07 2.512,-5.583 5.583,-5.583 l 8.25,0 5.917,0 58.416,0 c 0,0 18.5,-1.91 18.5,-22.038 l -87.084,0 0,-20.128 c 0,0 44.751,-12.334 57.584,-17.667 C -43.833,78 -45.167,66.166 -45,61.5 -44.833,56.833 -46,16.166 -47.167,1 c -1.166,-15.167 -17.5,-15 -17.5,-15 l -0.166,-13.334 C -46.167,-38.5 -27.5,-43.667 -27.5,-43.667 l 0.167,-43.167 11.5,0 0.166,43.5 c 26.167,7.5 36,15.5 36,15.5 l 0,13.5 C -2.833,-13.334 0,0 0,0"
             style="fill:#ffffff;fill-opacity:1;fill-rule:nonzero;stroke:none"
             id="path212"
             inkscape:connector-curvature="0" /></g><g
           id="g214"
           transform="translate(1312.3942,1548.2042)"><path
             d="m 0,0 0.945,121.128 -16.445,0 c 0,0 -0.833,33.205 -29.495,33.168 -22.343,-0.029 -47.027,-0.032 -58.508,0.007 -0.191,0.019 -0.384,0.03 -0.58,0.03 l -14.167,0 c -3.071,0 -5.583,-2.513 -5.583,-5.583 0,-3.071 2.512,-5.583 5.583,-5.583 l 8.25,0 5.917,0 58.416,0 c 0,0 18.5,-1.911 18.5,-22.039 l -87.084,0 0,-20.128 c 0,0 44.751,-12.333 57.584,-17.667 C -43.833,78 -45.167,66.167 -45,61.5 -44.833,56.833 -46,16.167 -47.167,1 c -1.166,-15.167 -17.5,-15 -17.5,-15 l -0.166,-13.333 C -46.167,-38.5 -27.5,-43.667 -27.5,-43.667 l 0.167,-43.166 11.5,0 0.166,43.5 c 26.167,7.5 36,15.5 36,15.5 l 0,13.5 C -2.833,-13.333 0,0 0,0"
             style="fill:#ffffff;fill-opacity:1;fill-rule:nonzero;stroke:none"
             id="path216"
             inkscape:connector-curvature="0" /></g><g
           id="g218"
           transform="translate(1026.673,1818.7335)"><path
             d="m 0,0 0,-203.851 -220.742,0 0,203.851 -37.537,0 0,-70.34 0,-169.495 297.731,0 0,169.495 0,70.34 L 0,0 Z"
             style="fill:#ffffff;fill-opacity:1;fill-rule:nonzero;stroke:none"
             id="path220"
             inkscape:connector-curvature="0" /></g><g
           id="g222"
           transform="translate(715.2438,1746.6085)"><path
             d="m 0,0 -33.965,0 2.968,7.334 0,63.652 28.116,0 0,-63.826 L 0,0 Z"
             style="fill:#ffffff;fill-opacity:1;fill-rule:nonzero;stroke:none"
             id="path224"
             inkscape:connector-curvature="0" /></g><g
           id="g226"
           transform="translate(711.568,1087.9845)"><path
             d="m 0,0 -19.159,0 c -3.118,0 -5.669,-2.551 -5.669,-5.669 l 0,-271.316 c 0,-3.118 2.551,-5.669 5.669,-5.669 l 2.404,0 0,-191.003 c 0,-3.118 2.551,-5.669 5.669,-5.669 l 2.475,0 c 3.118,0 5.669,2.551 5.669,5.669 l 0,191.003 2.942,0 c 3.118,0 5.669,2.551 5.669,5.669 l 0,271.316 C 5.669,-2.551 3.118,0 0,0"
             style="fill:#ffffff;fill-opacity:1;fill-rule:nonzero;stroke:none"
             id="path228"
             inkscape:connector-curvature="0" /></g><g
           id="g230"
           transform="translate(594.7252,2104.9543)"><path
             d="m 0,0 c -11.731,0 -21.242,9.511 -21.242,21.242 0,11.732 9.511,21.242 21.242,21.242 11.732,0 21.242,-9.51 21.242,-21.242 C 21.242,9.511 11.732,0 0,0 m 0,70.465 c -27.185,0 -49.223,-22.038 -49.223,-49.223 0,-19.98 11.912,-37.168 29.016,-44.882 l 0,-415.849 41.898,0 0,416.542 c 16.306,8.019 27.532,24.79 27.532,44.189 0,27.185 -22.038,49.223 -49.223,49.223"
             style="fill:#ffffff;fill-opacity:1;fill-rule:nonzero;stroke:none"
             id="path232"
             inkscape:connector-curvature="0" /></g><g
           id="g234"
           transform="translate(125.0182,2324.4934)"><path
             d="m 0,0 0,28.651 c 0,0 2.795,26.032 9.084,31.972 6.29,5.94 21.839,15.549 29.002,16.072 7.163,0.525 29.001,4.718 37.911,-36.164 0,0 4.717,-23.235 4.358,-57.303 -0.19,-18.001 -1.563,-79.84 -1.563,-79.84 l 2.446,-122.47 c 0,0 12.23,2.271 29.001,48.045 16.772,45.772 23.062,88.75 22.887,108.317 -0.175,19.568 -1.747,46.647 -3.669,57.828 -1.922,11.181 -2.621,29.543 4.717,39.405 7.338,9.862 17.995,17.898 24.284,18.423 6.29,0.524 18.17,1.397 27.953,-14.85 9.784,-16.248 13.802,-39.484 14.151,-59.925 0.35,-20.44 -2.096,-63.243 -2.096,-63.243 0,0 -3.32,-47.171 -14.85,-80.889 -11.531,-33.718 -23.061,-65.515 -42.453,-93.293 -19.393,-27.778 -41.755,-51.364 -48.045,-61.672 -6.289,-10.307 -17.296,-18.343 -16.771,-61.321 0.524,-42.977 -0.175,-154.965 -0.175,-154.965 l 0,-133.649 0.524,-165.797 0.524,-175.404 0.699,-178.9 -0.175,-154.614 1.572,-187.984 2.971,-141.862 c 0,0 1.222,-125.263 0.349,-140.114 -0.874,-14.85 -1.922,-38.261 -1.922,-38.261 0,0 -32.146,-10.132 -47.52,-8.909 -15.374,1.223 -30.573,3.32 -30.573,3.32 0,0 -7.687,14.5 -7.862,41.23 -0.175,26.729 1.572,107.619 0,138.018 -1.572,30.398 -1.747,73.479 -1.049,91.248 0.699,17.768 1.398,27.551 4.368,35.414 2.97,7.861 4.018,10.482 4.018,10.482 l -0.873,67.087 -0.524,166.844 0.175,153.567 L 0.524,-989.36 0,-842.994 -0.175,-708.259 0,-522.546 0,-288.964 -0.175,-129.807 -0.35,-18.345 0,0 Z"
             style="fill:#ffffff;fill-opacity:1;fill-rule:nonzero;stroke:none"
             id="path236"
             inkscape:connector-curvature="0" /></g><g
           id="g238"
           transform="translate(347.0958,2054.2854)"><path
             d="m 0,0 -0.898,30.484 c 0,0 0.25,7.684 12.174,10.179 11.041,2.31 26.828,3.098 33.828,1.098 7,-2 13.659,-4.172 13.659,-4.172 l 0.81,-15.037 0.799,-23.999 c 0,0 -0.051,-9.38 -3.743,-12.474 0,0 0.884,-2.49 0.634,-6.24 -0.25,-3.75 -0.699,-9.134 -0.699,-9.134 0,0 1.616,-0.533 0.949,-3.366 -0.667,-2.833 -1.333,-2.167 -0.667,-3.667 0.667,-1.5 0.667,-1.5 0.133,-3.189 -0.466,-1.47 -1.348,-0.847 -1.298,-2.544 0.048,-1.64 1.665,-1.767 1.665,-3.1 0,-1.333 -0.733,-1.172 -1.066,-2.338 -0.333,-1.167 -0.767,-3.329 3.233,-4.662 4,-1.333 8.5,-2.833 8.5,-2.833 0,0 3.87,-0.988 3.87,-10.684 0,-10.65 0.313,-43.89 0.313,-43.89 0,0 -0.175,-6.547 -3.842,-8.88 -3.666,-2.333 -6.674,-4.546 -6.508,-10.38 0.167,-5.833 0.667,-22.833 0.667,-22.833 0,0 1.152,-12.889 8.333,-15.167 l 0,-99.5 0.302,-110.021 c 0,0 12.106,-9.653 0.735,-14.319 -11.37,-4.667 -12.911,-5.214 -17.096,-4.089 -4.592,1.233 -3.646,1.045 -4.941,-0.737 -1.491,-2.053 -9.496,-0.793 -9.496,-0.793 l -2.588,1.626 c 0,0 -6.317,-2.262 -11.817,-1.845 -5.5,0.417 -17.114,1.946 -17.114,1.946 0,0 -0.784,1.065 -3.353,1.083 -5.344,0.036 -15.558,4.425 -14.965,10.149 0.656,6.331 5.895,5.981 5.445,13.181 -0.404,6.488 -0.112,148.319 -0.112,148.319 l -0.166,55 c 0,0 6.5,0.834 6.333,10.667 -0.167,9.833 -0.667,28 -0.667,28 0,0 0.5,4.167 -3.333,7.5 -3.833,3.333 -7.256,4.53 -7.194,9.697 0.063,5.167 0.1,51.091 0.1,51.091 0,0 2.122,3.939 5.788,4.939 3.667,1 8.282,2.096 8.282,2.096 l 0.024,4.344 c 0,0 -0.393,2.126 0.666,2 2.362,-0.282 0.055,1.975 -0.789,3.086 -0.728,0.957 0.915,1.475 0.748,3.642 -0.167,2.167 -0.958,2.938 -1.125,3.438 -0.167,0.5 0.675,-0.321 1.175,2.25 0.5,2.571 -1.342,3.584 -1.342,5.084 0,1.5 0.667,0.5 1.5,2 0.834,1.5 -0.833,3.166 -0.833,3.166 0,0 0,-0.166 -0.167,4.167 -0.166,4.333 0.77,3.402 -0.854,6.838 C 2.645,-9.974 0.25,-8.055 0.25,-5.888 0.25,-3.721 0,0 0,0"
             style="fill:#ffffff;fill-opacity:1;fill-rule:nonzero;stroke:none"
             id="path240"
             inkscape:connector-curvature="0" /></g><g
           id="g242"
           transform="translate(517.9166,1519.6788)"><path
             d="m 0,0 28.344,0 0,15.377 L 0,15.377 0,28.442 -27.505,7.569 0,-13.305 0,0 Z"
             style="fill:#ffffff;fill-opacity:1;fill-rule:nonzero;stroke:none"
             id="path244"
             inkscape:connector-curvature="0" /></g><path
           d="m 849.048,628.903 -50.121,0 0,56.611 50.121,0 0,-56.611 z"
           style="fill:#dadada;fill-opacity:1;fill-rule:nonzero;stroke:none"
           id="path246"
           inkscape:connector-curvature="0" /></g></g><g
       id="g248"><g
         id="g250"
         clip-path="url(#clipPath252)"><g
           id="g256"
           transform="translate(788.0953,578.0676)"><path
             d="M 0,0 112.205,112.205"
             style="fill:none;stroke:#ffffff;stroke-width:3;stroke-linecap:butt;stroke-linejoin:miter;stroke-miterlimit:10;stroke-dasharray:none;stroke-opacity:1"
             id="path258"
             inkscape:connector-curvature="0" /></g><g
           id="g260"
           transform="translate(779.5914,586.5715)"><path
             d="M 0,0 112.205,112.205"
             style="fill:none;stroke:#ffffff;stroke-width:3;stroke-linecap:butt;stroke-linejoin:miter;stroke-miterlimit:10;stroke-dasharray:none;stroke-opacity:1"
             id="path262"
             inkscape:connector-curvature="0" /></g><g
           id="g264"
           transform="translate(771.0875,595.0754)"><path
             d="M 0,0 112.205,112.205"
             style="fill:none;stroke:#ffffff;stroke-width:3;stroke-linecap:butt;stroke-linejoin:miter;stroke-miterlimit:10;stroke-dasharray:none;stroke-opacity:1"
             id="path266"
             inkscape:connector-curvature="0" /></g><g
           id="g268"
           transform="translate(762.5836,603.5793)"><path
             d="M 0,0 112.205,112.205"
             style="fill:none;stroke:#ffffff;stroke-width:3;stroke-linecap:butt;stroke-linejoin:miter;stroke-miterlimit:10;stroke-dasharray:none;stroke-opacity:1"
             id="path270"
             inkscape:connector-curvature="0" /></g><g
           id="g272"
           transform="translate(754.0797,612.0832)"><path
             d="M 0,0 112.205,112.205"
             style="fill:none;stroke:#ffffff;stroke-width:3;stroke-linecap:butt;stroke-linejoin:miter;stroke-miterlimit:10;stroke-dasharray:none;stroke-opacity:1"
             id="path274"
             inkscape:connector-curvature="0" /></g><g
           id="g276"
           transform="translate(745.5758,620.5871)"><path
             d="M 0,0 112.205,112.205"
             style="fill:none;stroke:#ffffff;stroke-width:3;stroke-linecap:butt;stroke-linejoin:miter;stroke-miterlimit:10;stroke-dasharray:none;stroke-opacity:1"
             id="path278"
             inkscape:connector-curvature="0" /></g></g></g><g
       id="g280"><g
         id="g282"
         clip-path="url(#clipPath284)"><path
           d="m 1250.664,628.903 -50.121,0 0,56.611 50.121,0 0,-56.611 z"
           style="fill:#dadada;fill-opacity:1;fill-rule:nonzero;stroke:none"
           id="path288"
           inkscape:connector-curvature="0" /></g></g><g
       id="g290"><g
         id="g292"
         clip-path="url(#clipPath294)"><g
           id="g298"
           transform="translate(1189.7115,578.0676)"><path
             d="M 0,0 112.205,112.205"
             style="fill:none;stroke:#ffffff;stroke-width:3;stroke-linecap:butt;stroke-linejoin:miter;stroke-miterlimit:10;stroke-dasharray:none;stroke-opacity:1"
             id="path300"
             inkscape:connector-curvature="0" /></g><g
           id="g302"
           transform="translate(1181.2076,586.5715)"><path
             d="M 0,0 112.205,112.205"
             style="fill:none;stroke:#ffffff;stroke-width:3;stroke-linecap:butt;stroke-linejoin:miter;stroke-miterlimit:10;stroke-dasharray:none;stroke-opacity:1"
             id="path304"
             inkscape:connector-curvature="0" /></g><g
           id="g306"
           transform="translate(1172.7037,595.0754)"><path
             d="M 0,0 112.205,112.205"
             style="fill:none;stroke:#ffffff;stroke-width:3;stroke-linecap:butt;stroke-linejoin:miter;stroke-miterlimit:10;stroke-dasharray:none;stroke-opacity:1"
             id="path308"
             inkscape:connector-curvature="0" /></g><g
           id="g310"
           transform="translate(1164.1998,603.5793)"><path
             d="M 0,0 112.205,112.205"
             style="fill:none;stroke:#ffffff;stroke-width:3;stroke-linecap:butt;stroke-linejoin:miter;stroke-miterlimit:10;stroke-dasharray:none;stroke-opacity:1"
             id="path312"
             inkscape:connector-curvature="0" /></g><g
           id="g314"
           transform="translate(1155.6959,612.0832)"><path
             d="M 0,0 112.205,112.205"
             style="fill:none;stroke:#ffffff;stroke-width:3;stroke-linecap:butt;stroke-linejoin:miter;stroke-miterlimit:10;stroke-dasharray:none;stroke-opacity:1"
             id="path316"
             inkscape:connector-curvature="0" /></g><g
           id="g318"
           transform="translate(1147.192,620.5871)"><path
             d="M 0,0 112.205,112.205"
             style="fill:none;stroke:#ffffff;stroke-width:3;stroke-linecap:butt;stroke-linejoin:miter;stroke-miterlimit:10;stroke-dasharray:none;stroke-opacity:1"
             id="path320"
             inkscape:connector-curvature="0" /></g></g></g><g
       id="g322"><g
         id="g324"
         clip-path="url(#clipPath326)"><g
           id="g330"
           transform="translate(338.7404,362.8351)"><path
             d="m 0,0 -28.347,0 c -1.559,0 -2.834,1.275 -2.834,2.835 l 0,28.346 c 0,1.559 1.275,2.835 2.834,2.835 l 28.347,0 c 1.559,0 2.834,-1.276 2.834,-2.835 l 0,-28.346 C 2.834,1.275 1.559,0 0,0"
             style="fill:#ffffff;fill-opacity:1;fill-rule:nonzero;stroke:none"
             id="path332"
             inkscape:connector-curvature="0" /></g><g
           id="g334"
           transform="translate(231.0948,362.8351)"><path
             d="m 0,0 -28.346,0 c -1.559,0 -2.835,1.275 -2.835,2.835 l 0,28.346 c 0,1.559 1.276,2.835 2.835,2.835 l 28.346,0 c 1.559,0 2.835,-1.276 2.835,-2.835 l 0,-28.346 C 2.835,1.275 1.559,0 0,0"
             style="fill:#ffffff;fill-opacity:1;fill-rule:nonzero;stroke:none"
             id="path336"
             inkscape:connector-curvature="0" /></g><g
           id="g338"
           transform="translate(661.9611,470.5519)"><path
             d="m 0,0 -28.346,0 c -1.559,0 -2.835,1.275 -2.835,2.835 l 0,28.346 c 0,1.559 1.276,2.835 2.835,2.835 l 28.346,0 c 1.559,0 2.835,-1.276 2.835,-2.835 l 0,-28.346 C 2.835,1.275 1.559,0 0,0"
             style="fill:#ffffff;fill-opacity:1;fill-rule:nonzero;stroke:none"
             id="path340"
             inkscape:connector-curvature="0" /></g><g
           id="g342"
           transform="translate(769.6779,470.5519)"><path
             d="m 0,0 -28.347,0 c -1.559,0 -2.834,1.275 -2.834,2.835 l 0,28.346 c 0,1.559 1.275,2.835 2.834,2.835 l 28.347,0 c 1.559,0 2.834,-1.276 2.834,-2.835 l 0,-28.346 C 2.834,1.275 1.559,0 0,0"
             style="fill:#ffffff;fill-opacity:1;fill-rule:nonzero;stroke:none"
             id="path344"
             inkscape:connector-curvature="0" /></g><g
           id="g346"
           transform="translate(1092.8273,362.8351)"><path
             d="m 0,0 -28.347,0 c -1.558,0 -2.834,1.275 -2.834,2.835 l 0,28.346 c 0,1.559 1.276,2.835 2.834,2.835 l 28.347,0 c 1.559,0 2.834,-1.276 2.834,-2.835 l 0,-28.346 C 2.834,1.275 1.559,0 0,0"
             style="fill:#ffffff;fill-opacity:1;fill-rule:nonzero;stroke:none"
             id="path348"
             inkscape:connector-curvature="0" /></g><g
           id="g350"
           transform="translate(1200.5436,362.8351)"><path
             d="m 0,0 -28.346,0 c -1.559,0 -2.835,1.275 -2.835,2.835 l 0,28.346 c 0,1.559 1.276,2.835 2.835,2.835 l 28.346,0 c 1.559,0 2.835,-1.276 2.835,-2.835 l 0,-28.346 C 2.835,1.275 1.559,0 0,0"
             style="fill:#ffffff;fill-opacity:1;fill-rule:nonzero;stroke:none"
             id="path352"
             inkscape:connector-curvature="0" /></g><g
           id="g354"
           transform="translate(985.4747,685.9846)"><path
             d="m 0,0 -28.346,0 c -1.559,0 -2.835,1.275 -2.835,2.835 l 0,28.347 c 0,1.558 1.276,2.834 2.835,2.834 l 28.346,0 c 1.559,0 2.835,-1.276 2.835,-2.834 l 0,-28.347 C 2.835,1.275 1.559,0 0,0"
             style="fill:#ffffff;fill-opacity:1;fill-rule:nonzero;stroke:none"
             id="path356"
             inkscape:connector-curvature="0" /></g><g
           id="g358"
           transform="translate(1092.8273,685.9846)"><path
             d="m 0,0 -28.347,0 c -1.558,0 -2.834,1.275 -2.834,2.835 l 0,28.347 c 0,1.558 1.276,2.834 2.834,2.834 l 28.347,0 c 1.559,0 2.834,-1.276 2.834,-2.834 l 0,-28.347 C 2.834,1.275 1.559,0 0,0"
             style="fill:#ffffff;fill-opacity:1;fill-rule:nonzero;stroke:none"
             id="path360"
             inkscape:connector-curvature="0" /></g><g
           id="g362"
           transform="translate(231.0948,901.4025)"><path
             d="m 0,0 -28.346,0 c -1.559,0 -2.835,1.275 -2.835,2.834 l 0,28.347 c 0,1.558 1.276,2.835 2.835,2.835 l 28.346,0 c 1.559,0 2.835,-1.277 2.835,-2.835 l 0,-28.347 C 2.835,1.275 1.559,0 0,0"
             style="fill:#ffffff;fill-opacity:1;fill-rule:nonzero;stroke:none"
             id="path364"
             inkscape:connector-curvature="0" /></g><g
           id="g366"
           transform="translate(123.3073,901.4025)"><path
             d="m 0,0 -28.347,0 c -1.559,0 -2.834,1.275 -2.834,2.834 l 0,28.347 c 0,1.558 1.275,2.835 2.834,2.835 l 28.347,0 c 1.559,0 2.834,-1.277 2.834,-2.835 l 0,-28.347 C 2.834,1.275 1.559,0 0,0"
             style="fill:#ffffff;fill-opacity:1;fill-rule:nonzero;stroke:none"
             id="path368"
             inkscape:connector-curvature="0" /></g><g
           id="g370"
           transform="translate(338.7404,1116.8507)"><path
             d="m 0,0 -28.347,0 c -1.559,0 -2.834,1.276 -2.834,2.835 l 0,28.347 c 0,1.558 1.275,2.835 2.834,2.835 l 28.347,0 c 1.559,0 2.834,-1.277 2.834,-2.835 l 0,-28.347 C 2.834,1.276 1.559,0 0,0"
             style="fill:#ffffff;fill-opacity:1;fill-rule:nonzero;stroke:none"
             id="path372"
             inkscape:connector-curvature="0" /></g><g
           id="g374"
           transform="translate(446.4567,1116.8507)"><path
             d="m 0,0 -28.346,0 c -1.559,0 -2.835,1.276 -2.835,2.835 l 0,28.347 c 0,1.558 1.276,2.835 2.835,2.835 l 28.346,0 c 1.559,0 2.835,-1.277 2.835,-2.835 l 0,-28.347 C 2.835,1.276 1.559,0 0,0"
             style="fill:#ffffff;fill-opacity:1;fill-rule:nonzero;stroke:none"
             id="path376"
             inkscape:connector-curvature="0" /></g><g
           id="g378"
           transform="translate(661.8898,1009.134)"><path
             d="m 0,0 -28.346,0 c -1.559,0 -2.835,1.275 -2.835,2.835 l 0,28.347 c 0,1.558 1.276,2.834 2.835,2.834 l 28.346,0 c 1.559,0 2.835,-1.276 2.835,-2.834 l 0,-28.347 C 2.835,1.275 1.559,0 0,0"
             style="fill:#ffffff;fill-opacity:1;fill-rule:nonzero;stroke:none"
             id="path380"
             inkscape:connector-curvature="0" /></g><g
           id="g382"
           transform="translate(1092.8273,1009.134)"><path
             d="m 0,0 -28.347,0 c -1.558,0 -2.834,1.275 -2.834,2.835 l 0,28.347 c 0,1.558 1.276,2.834 2.834,2.834 l 28.347,0 c 1.559,0 2.834,-1.276 2.834,-2.834 l 0,-28.347 C 2.834,1.275 1.559,0 0,0"
             style="fill:#ffffff;fill-opacity:1;fill-rule:nonzero;stroke:none"
             id="path384"
             inkscape:connector-curvature="0" /></g><g
           id="g386"
           transform="translate(769.6066,1009.134)"><path
             d="m 0,0 -28.347,0 c -1.559,0 -2.834,1.275 -2.834,2.835 l 0,28.347 c 0,1.558 1.275,2.834 2.834,2.834 l 28.347,0 c 1.559,0 2.834,-1.276 2.834,-2.834 l 0,-28.347 C 2.834,1.275 1.559,0 0,0"
             style="fill:#ffffff;fill-opacity:1;fill-rule:nonzero;stroke:none"
             id="path388"
             inkscape:connector-curvature="0" /></g><g
           id="g390"
           transform="translate(985.0397,1009.134)"><path
             d="m 0,0 -28.347,0 c -1.559,0 -2.834,1.275 -2.834,2.835 l 0,28.347 c 0,1.558 1.275,2.834 2.834,2.834 l 28.347,0 c 1.559,0 2.834,-1.276 2.834,-2.834 l 0,-28.347 C 2.834,1.275 1.559,0 0,0"
             style="fill:#ffffff;fill-opacity:1;fill-rule:nonzero;stroke:none"
             id="path392"
             inkscape:connector-curvature="0" /></g><g
           id="g394"
           transform="translate(1200.4728,1009.134)"><path
             d="m 0,0 -28.347,0 c -1.559,0 -2.834,1.275 -2.834,2.835 l 0,28.347 c 0,1.558 1.275,2.834 2.834,2.834 l 28.347,0 c 1.559,0 2.834,-1.276 2.834,-2.834 l 0,-28.347 C 2.834,1.275 1.559,0 0,0"
             style="fill:#ffffff;fill-opacity:1;fill-rule:nonzero;stroke:none"
             id="path396"
             inkscape:connector-curvature="0" /></g><g
           id="g398"
           transform="translate(1308.1891,1009.134)"><path
             d="m 0,0 -28.346,0 c -1.559,0 -2.835,1.275 -2.835,2.835 l 0,28.347 c 0,1.558 1.276,2.834 2.835,2.834 l 28.346,0 c 1.559,0 2.834,-1.276 2.834,-2.834 l 0,-28.347 C 2.834,1.275 1.559,0 0,0"
             style="fill:#ffffff;fill-opacity:1;fill-rule:nonzero;stroke:none"
             id="path400"
             inkscape:connector-curvature="0" /></g><g
           id="g402"
           transform="translate(338.8116,1547.7169)"><path
             d="m 0,0 -28.347,0 c -1.559,0 -2.834,1.276 -2.834,2.835 l 0,28.347 c 0,1.558 1.275,2.834 2.834,2.834 l 28.347,0 c 1.559,0 2.834,-1.276 2.834,-2.834 l 0,-28.347 C 2.834,1.276 1.559,0 0,0"
             style="fill:#ffffff;fill-opacity:1;fill-rule:nonzero;stroke:none"
             id="path404"
             inkscape:connector-curvature="0" /></g><g
           id="g406"
           transform="translate(446.528,1547.7169)"><path
             d="m 0,0 -28.346,0 c -1.559,0 -2.835,1.276 -2.835,2.835 l 0,28.347 c 0,1.558 1.276,2.834 2.835,2.834 l 28.346,0 c 1.559,0 2.835,-1.276 2.835,-2.834 l 0,-28.347 C 2.835,1.276 1.559,0 0,0"
             style="fill:#ffffff;fill-opacity:1;fill-rule:nonzero;stroke:none"
             id="path408"
             inkscape:connector-curvature="0" /></g><g
           id="g410"
           transform="translate(769.6066,1440.0001)"><path
             d="m 0,0 -28.347,0 c -1.559,0 -2.834,1.275 -2.834,2.835 l 0,28.347 c 0,1.558 1.275,2.834 2.834,2.834 l 28.347,0 c 1.559,0 2.834,-1.276 2.834,-2.834 l 0,-28.347 C 2.834,1.275 1.559,0 0,0"
             style="fill:#ffffff;fill-opacity:1;fill-rule:nonzero;stroke:none"
             id="path412"
             inkscape:connector-curvature="0" /></g><g
           id="g414"
           transform="translate(877.3229,1440.0001)"><path
             d="m 0,0 -28.346,0 c -1.559,0 -2.835,1.275 -2.835,2.835 l 0,28.347 c 0,1.558 1.276,2.834 2.835,2.834 l 28.346,0 c 1.559,0 2.835,-1.276 2.835,-2.834 l 0,-28.347 C 2.835,1.275 1.559,0 0,0"
             style="fill:#ffffff;fill-opacity:1;fill-rule:nonzero;stroke:none"
             id="path416"
             inkscape:connector-curvature="0" /></g><g
           id="g418"
           transform="translate(985.0397,1440.0001)"><path
             d="m 0,0 -28.347,0 c -1.559,0 -2.834,1.275 -2.834,2.835 l 0,28.347 c 0,1.558 1.275,2.834 2.834,2.834 l 28.347,0 c 1.559,0 2.834,-1.276 2.834,-2.834 l 0,-28.347 C 2.834,1.275 1.559,0 0,0"
             style="fill:#ffffff;fill-opacity:1;fill-rule:nonzero;stroke:none"
             id="path420"
             inkscape:connector-curvature="0" /></g><g
           id="g422"
           transform="translate(1092.756,1440.0001)"><path
             d="m 0,0 -28.346,0 c -1.559,0 -2.835,1.275 -2.835,2.835 l 0,28.347 c 0,1.558 1.276,2.834 2.835,2.834 l 28.346,0 c 1.559,0 2.835,-1.276 2.835,-2.834 l 0,-28.347 C 2.835,1.275 1.559,0 0,0"
             style="fill:#ffffff;fill-opacity:1;fill-rule:nonzero;stroke:none"
             id="path424"
             inkscape:connector-curvature="0" /></g><g
           id="g426"
           transform="translate(1200.4728,1440.0001)"><path
             d="m 0,0 -28.347,0 c -1.559,0 -2.834,1.275 -2.834,2.835 l 0,28.347 c 0,1.558 1.275,2.834 2.834,2.834 l 28.347,0 c 1.559,0 2.834,-1.276 2.834,-2.834 l 0,-28.347 C 2.834,1.275 1.559,0 0,0"
             style="fill:#ffffff;fill-opacity:1;fill-rule:nonzero;stroke:none"
             id="path428"
             inkscape:connector-curvature="0" /></g><g
           id="g430"
           transform="translate(1308.1891,1440.0001)"><path
             d="m 0,0 -28.346,0 c -1.559,0 -2.835,1.275 -2.835,2.835 l 0,28.347 c 0,1.558 1.276,2.834 2.835,2.834 l 28.346,0 c 1.559,0 2.834,-1.276 2.834,-2.834 l 0,-28.347 C 2.834,1.275 1.559,0 0,0"
             style="fill:#ffffff;fill-opacity:1;fill-rule:nonzero;stroke:none"
             id="path432"
             inkscape:connector-curvature="0" /></g><g
           id="g434"
           transform="translate(877.3229,1763.1495)"><path
             d="m 0,0 -28.346,0 c -1.559,0 -2.835,1.276 -2.835,2.835 l 0,28.347 c 0,1.558 1.276,2.835 2.835,2.835 l 28.346,0 c 1.559,0 2.835,-1.277 2.835,-2.835 l 0,-28.347 C 2.835,1.276 1.559,0 0,0"
             style="fill:#ffffff;fill-opacity:1;fill-rule:nonzero;stroke:none"
             id="path436"
             inkscape:connector-curvature="0" /></g><g
           id="g438"
           transform="translate(985.0397,1763.1495)"><path
             d="m 0,0 -28.347,0 c -1.559,0 -2.834,1.276 -2.834,2.835 l 0,28.347 c 0,1.558 1.275,2.835 2.834,2.835 l 28.347,0 c 1.559,0 2.834,-1.277 2.834,-2.835 l 0,-28.347 C 2.834,1.276 1.559,0 0,0"
             style="fill:#ffffff;fill-opacity:1;fill-rule:nonzero;stroke:none"
             id="path440"
             inkscape:connector-curvature="0" /></g><g
           id="g442"
           transform="translate(1200.4728,1763.1495)"><path
             d="m 0,0 -28.347,0 c -1.559,0 -2.834,1.276 -2.834,2.835 l 0,28.347 c 0,1.558 1.275,2.835 2.834,2.835 l 28.347,0 c 1.559,0 2.834,-1.277 2.834,-2.835 l 0,-28.347 C 2.834,1.276 1.559,0 0,0"
             style="fill:#ffffff;fill-opacity:1;fill-rule:nonzero;stroke:none"
             id="path444"
             inkscape:connector-curvature="0" /></g><g
           id="g446"
           transform="translate(1308.1891,1763.1495)"><path
             d="m 0,0 -28.346,0 c -1.559,0 -2.835,1.276 -2.835,2.835 l 0,28.347 c 0,1.558 1.276,2.835 2.835,2.835 l 28.346,0 c 1.559,0 2.834,-1.277 2.834,-2.835 l 0,-28.347 C 2.834,1.276 1.559,0 0,0"
             style="fill:#ffffff;fill-opacity:1;fill-rule:nonzero;stroke:none"
             id="path448"
             inkscape:connector-curvature="0" /></g><g
           id="g450"
           transform="translate(446.7423,1978.5831)"><path
             d="m 0,0 -28.347,0 c -1.559,0 -2.834,1.275 -2.834,2.835 l 0,28.346 c 0,1.559 1.275,2.835 2.834,2.835 l 28.347,0 c 1.559,0 2.834,-1.276 2.834,-2.835 l 0,-28.346 C 2.834,1.275 1.559,0 0,0"
             style="fill:#ffffff;fill-opacity:1;fill-rule:nonzero;stroke:none"
             id="path452"
             inkscape:connector-curvature="0" /></g><g
           id="g454"
           transform="translate(339.0968,1978.5831)"><path
             d="m 0,0 -28.346,0 c -1.559,0 -2.835,1.275 -2.835,2.835 l 0,28.346 c 0,1.559 1.276,2.835 2.835,2.835 l 28.346,0 c 1.559,0 2.835,-1.276 2.835,-2.835 l 0,-28.346 C 2.835,1.275 1.559,0 0,0"
             style="fill:#ffffff;fill-opacity:1;fill-rule:nonzero;stroke:none"
             id="path456"
             inkscape:connector-curvature="0" /></g><g
           id="g458"
           transform="translate(877.3229,2086.3)"><path
             d="m 0,0 -28.346,0 c -1.559,0 -2.835,1.275 -2.835,2.834 l 0,28.347 c 0,1.559 1.276,2.835 2.835,2.835 l 28.346,0 c 1.559,0 2.835,-1.276 2.835,-2.835 l 0,-28.347 C 2.835,1.275 1.559,0 0,0"
             style="fill:#ffffff;fill-opacity:1;fill-rule:nonzero;stroke:none"
             id="path460"
             inkscape:connector-curvature="0" /></g><g
           id="g462"
           transform="translate(769.7233,2086.3)"><path
             d="m 0,0 -28.347,0 c -1.559,0 -2.834,1.275 -2.834,2.834 l 0,28.347 c 0,1.559 1.275,2.835 2.834,2.835 l 28.347,0 c 1.559,0 2.834,-1.276 2.834,-2.835 l 0,-28.347 C 2.834,1.275 1.559,0 0,0"
             style="fill:#ffffff;fill-opacity:1;fill-rule:nonzero;stroke:none"
             id="path464"
             inkscape:connector-curvature="0" /></g><g
           id="g466"
           transform="translate(1092.756,2086.3)"><path
             d="m 0,0 -28.346,0 c -1.559,0 -2.835,1.275 -2.835,2.834 l 0,28.347 c 0,1.559 1.276,2.835 2.835,2.835 l 28.346,0 c 1.559,0 2.835,-1.276 2.835,-2.835 l 0,-28.347 C 2.835,1.275 1.559,0 0,0"
             style="fill:#ffffff;fill-opacity:1;fill-rule:nonzero;stroke:none"
             id="path468"
             inkscape:connector-curvature="0" /></g><g
           id="g470"
           transform="translate(985.3077,2086.3)"><path
             d="m 0,0 -28.346,0 c -1.559,0 -2.835,1.275 -2.835,2.834 l 0,28.347 c 0,1.559 1.276,2.835 2.835,2.835 l 28.346,0 c 1.559,0 2.835,-1.276 2.835,-2.835 l 0,-28.347 C 2.835,1.275 1.559,0 0,0"
             style="fill:#ffffff;fill-opacity:1;fill-rule:nonzero;stroke:none"
             id="path472"
             inkscape:connector-curvature="0" /></g><g
           id="g474"
           transform="translate(1308.1891,2086.3)"><path
             d="m 0,0 -28.346,0 c -1.559,0 -2.835,1.275 -2.835,2.834 l 0,28.347 c 0,1.559 1.276,2.835 2.835,2.835 l 28.346,0 c 1.559,0 2.834,-1.276 2.834,-2.835 l 0,-28.347 C 2.834,1.275 1.559,0 0,0"
             style="fill:#ffffff;fill-opacity:1;fill-rule:nonzero;stroke:none"
             id="path476"
             inkscape:connector-curvature="0" /></g><g
           id="g478"
           transform="translate(1200.5436,2086.3)"><path
             d="m 0,0 -28.346,0 c -1.559,0 -2.835,1.275 -2.835,2.834 l 0,28.347 c 0,1.559 1.276,2.835 2.835,2.835 l 28.346,0 c 1.559,0 2.835,-1.276 2.835,-2.835 l 0,-28.347 C 2.835,1.275 1.559,0 0,0"
             style="fill:#ffffff;fill-opacity:1;fill-rule:nonzero;stroke:none"
             id="path480"
             inkscape:connector-curvature="0" /></g><g
           id="g482"
           transform="translate(661.9611,2194.0159)"><path
             d="m 0,0 -28.346,0 c -1.559,0 -2.835,1.276 -2.835,2.835 l 0,28.347 c 0,1.558 1.276,2.834 2.835,2.834 l 28.346,0 c 1.559,0 2.835,-1.276 2.835,-2.834 l 0,-28.347 C 2.835,1.276 1.559,0 0,0"
             style="fill:#ffffff;fill-opacity:1;fill-rule:nonzero;stroke:none"
             id="path484"
             inkscape:connector-curvature="0" /></g><g
           id="g486"
           transform="translate(554.5231,2194.0159)"><path
             d="m 0,0 -28.346,0 c -1.559,0 -2.835,1.276 -2.835,2.835 l 0,28.347 c 0,1.558 1.276,2.834 2.835,2.834 l 28.346,0 c 1.559,0 2.834,-1.276 2.834,-2.834 l 0,-28.347 C 2.834,1.276 1.559,0 0,0"
             style="fill:#ffffff;fill-opacity:1;fill-rule:nonzero;stroke:none"
             id="path488"
             inkscape:connector-curvature="0" /></g><g
           id="g490"
           transform="translate(231.0948,2409.4338)"><path
             d="m 0,0 -28.346,0 c -1.559,0 -2.835,1.275 -2.835,2.835 l 0,28.346 c 0,1.559 1.276,2.835 2.835,2.835 l 28.346,0 c 1.559,0 2.835,-1.276 2.835,-2.835 l 0,-28.346 C 2.835,1.275 1.559,0 0,0"
             style="fill:#ffffff;fill-opacity:1;fill-rule:nonzero;stroke:none"
             id="path492"
             inkscape:connector-curvature="0" /></g><g
           id="g494"
           transform="translate(446.9733,2409.4495)"><path
             d="m 0,0 -28.346,0 c -1.559,0 -2.835,1.275 -2.835,2.835 l 0,28.347 c 0,1.558 1.276,2.834 2.835,2.834 l 28.346,0 c 1.559,0 2.835,-1.276 2.835,-2.834 l 0,-28.347 C 2.835,1.275 1.559,0 0,0"
             style="fill:#ffffff;fill-opacity:1;fill-rule:nonzero;stroke:none"
             id="path496"
             inkscape:connector-curvature="0" /></g><g
           id="g498"
           transform="translate(554.2448,2409.4495)"><path
             d="m 0,0 -28.347,0 c -1.559,0 -2.834,1.275 -2.834,2.835 l 0,28.347 c 0,1.558 1.275,2.834 2.834,2.834 l 28.347,0 c 1.559,0 2.834,-1.276 2.834,-2.834 l 0,-28.347 C 2.834,1.275 1.559,0 0,0"
             style="fill:#ffffff;fill-opacity:1;fill-rule:nonzero;stroke:none"
             id="path500"
             inkscape:connector-curvature="0" /></g><g
           id="g502"
           transform="translate(662.1124,2409.4495)"><path
             d="m 0,0 -28.346,0 c -1.559,0 -2.835,1.275 -2.835,2.835 l 0,28.347 c 0,1.558 1.276,2.834 2.835,2.834 l 28.346,0 c 1.559,0 2.835,-1.276 2.835,-2.834 l 0,-28.347 C 2.835,1.275 1.559,0 0,0"
             style="fill:#ffffff;fill-opacity:1;fill-rule:nonzero;stroke:none"
             id="path504"
             inkscape:connector-curvature="0" /></g><g
           id="g506"
           transform="translate(769.6779,2409.4495)"><path
             d="m 0,0 -28.347,0 c -1.559,0 -2.834,1.275 -2.834,2.835 l 0,28.347 c 0,1.558 1.275,2.834 2.834,2.834 l 28.347,0 c 1.559,0 2.834,-1.276 2.834,-2.834 l 0,-28.347 C 2.834,1.275 1.559,0 0,0"
             style="fill:#ffffff;fill-opacity:1;fill-rule:nonzero;stroke:none"
             id="path508"
             inkscape:connector-curvature="0" /></g><g
           id="g510"
           transform="translate(985.5563,2409.4495)"><path
             d="m 0,0 -28.347,0 c -1.559,0 -2.834,1.275 -2.834,2.835 l 0,28.347 c 0,1.558 1.275,2.834 2.834,2.834 l 28.347,0 c 1.559,0 2.834,-1.276 2.834,-2.834 l 0,-28.347 C 2.834,1.275 1.559,0 0,0"
             style="fill:#ffffff;fill-opacity:1;fill-rule:nonzero;stroke:none"
             id="path512"
             inkscape:connector-curvature="0" /></g><g
           id="g514"
           transform="translate(1093.2726,2409.4495)"><path
             d="m 0,0 -28.347,0 c -1.558,0 -2.834,1.275 -2.834,2.835 l 0,28.347 c 0,1.558 1.276,2.834 2.834,2.834 l 28.347,0 c 1.559,0 2.834,-1.276 2.834,-2.834 l 0,-28.347 C 2.834,1.275 1.559,0 0,0"
             style="fill:#ffffff;fill-opacity:1;fill-rule:nonzero;stroke:none"
             id="path516"
             inkscape:connector-curvature="0" /></g><g
           id="g518"
           transform="translate(1200.5436,2409.4495)"><path
             d="m 0,0 -28.346,0 c -1.559,0 -2.835,1.275 -2.835,2.835 l 0,28.347 c 0,1.558 1.276,2.834 2.835,2.834 l 28.346,0 c 1.559,0 2.835,-1.276 2.835,-2.834 l 0,-28.347 C 2.835,1.275 1.559,0 0,0"
             style="fill:#ffffff;fill-opacity:1;fill-rule:nonzero;stroke:none"
             id="path520"
             inkscape:connector-curvature="0" /></g><g
           id="g522"
           transform="translate(1308.2604,2409.4495)"><path
             d="m 0,0 -28.347,0 c -1.559,0 -2.834,1.275 -2.834,2.835 l 0,28.347 c 0,1.558 1.275,2.834 2.834,2.834 l 28.347,0 c 1.559,0 2.834,-1.276 2.834,-2.834 l 0,-28.347 C 2.834,1.275 1.559,0 0,0"
             style="fill:#ffffff;fill-opacity:1;fill-rule:nonzero;stroke:none"
             id="path524"
             inkscape:connector-curvature="0" /></g><g
           id="g526"
           transform="translate(123.3073,2409.4338)"><path
             d="m 0,0 -28.347,0 c -1.559,0 -2.834,1.275 -2.834,2.835 l 0,28.346 c 0,1.559 1.275,2.835 2.834,2.835 l 28.347,0 c 1.559,0 2.834,-1.276 2.834,-2.835 l 0,-28.346 C 2.834,1.275 1.559,0 0,0"
             style="fill:#ffffff;fill-opacity:1;fill-rule:nonzero;stroke:none"
             id="path528"
             inkscape:connector-curvature="0" /></g><g
           id="g530"
           transform="translate(192.1031,2342.7874)"><path
             d="m 0,0 c 0,-15.691 -12.721,-28.412 -28.412,-28.412 -15.692,0 -28.413,12.721 -28.413,28.412 0,15.692 12.721,28.413 28.413,28.413 C -12.721,28.413 0,15.692 0,0"
             style="fill:#e30613;fill-opacity:1;fill-rule:nonzero;stroke:none"
             id="path532"
             inkscape:connector-curvature="0" /></g><g
           id="g534"
           transform="translate(406.0939,1914.3868)"><path
             d="m 0,0 c 0,-15.691 -12.721,-28.412 -28.412,-28.412 -15.692,0 -28.413,12.721 -28.413,28.412 0,15.692 12.721,28.413 28.413,28.413 C -12.721,28.413 0,15.692 0,0"
             style="fill:#e30613;fill-opacity:1;fill-rule:nonzero;stroke:none"
             id="path536"
             inkscape:connector-curvature="0" /></g><g
           id="g538"
           transform="translate(406.0939,1483.7531)"><path
             d="m 0,0 c 0,-15.691 -12.721,-28.412 -28.412,-28.412 -15.692,0 -28.413,12.721 -28.413,28.412 0,15.692 12.721,28.413 28.413,28.413 C -12.721,28.413 0,15.692 0,0"
             style="fill:#e30613;fill-opacity:1;fill-rule:nonzero;stroke:none"
             id="path540"
             inkscape:connector-curvature="0" /></g><g
           id="g542"
           transform="translate(406.0939,1052.6691)"><path
             d="m 0,0 c 0,-15.691 -12.721,-28.412 -28.412,-28.412 -15.692,0 -28.413,12.721 -28.413,28.412 0,15.692 12.721,28.413 28.413,28.413 C -12.721,28.413 0,15.692 0,0"
             style="fill:#e30613;fill-opacity:1;fill-rule:nonzero;stroke:none"
             id="path544"
             inkscape:connector-curvature="0" /></g><g
           id="g546"
           transform="translate(731.0587,939.8918)"><path
             d="m 0,0 c 0,-15.691 -12.721,-28.412 -28.413,-28.412 -15.691,0 -28.412,12.721 -28.412,28.412 0,15.692 12.721,28.413 28.412,28.413 C -12.721,28.413 0,15.692 0,0"
             style="fill:#e30613;fill-opacity:1;fill-rule:nonzero;stroke:none"
             id="path548"
             inkscape:connector-curvature="0" /></g><g
           id="g550"
           transform="translate(1053.0851,939.8918)"><path
             d="m 0,0 c 0,-15.691 -12.721,-28.412 -28.412,-28.412 -15.692,0 -28.413,12.721 -28.413,28.412 0,15.692 12.721,28.413 28.413,28.413 C -12.721,28.413 0,15.692 0,0"
             style="fill:#e30613;fill-opacity:1;fill-rule:nonzero;stroke:none"
             id="path552"
             inkscape:connector-curvature="0" /></g><g
           id="g554"
           transform="translate(1053.0851,622.0891)"><path
             d="m 0,0 c 0,-15.691 -12.721,-28.412 -28.412,-28.412 -15.692,0 -28.413,12.721 -28.413,28.412 0,15.692 12.721,28.413 28.413,28.413 C -12.721,28.413 0,15.692 0,0"
             style="fill:#e30613;fill-opacity:1;fill-rule:nonzero;stroke:none"
             id="path556"
             inkscape:connector-curvature="0" /></g><g
           id="g558"
           transform="translate(1268.3888,939.8918)"><path
             d="m 0,0 c 0,-15.691 -12.721,-28.412 -28.413,-28.412 -15.691,0 -28.412,12.721 -28.412,28.412 0,15.692 12.721,28.413 28.412,28.413 C -12.721,28.413 0,15.692 0,0"
             style="fill:#e30613;fill-opacity:1;fill-rule:nonzero;stroke:none"
             id="path560"
             inkscape:connector-curvature="0" /></g><g
           id="g562"
           transform="translate(191.5704,837.2228)"><path
             d="m 0,0 c 0,-15.691 -12.721,-28.412 -28.413,-28.412 -15.691,0 -28.412,12.721 -28.412,28.412 0,15.692 12.721,28.413 28.412,28.413 C -12.721,28.413 0,15.692 0,0"
             style="fill:#e30613;fill-opacity:1;fill-rule:nonzero;stroke:none"
             id="path564"
             inkscape:connector-curvature="0" /></g><g
           id="g566"
           transform="translate(299.3771,296.0627)"><path
             d="m 0,0 c 0,-15.691 -12.72,-28.412 -28.412,-28.412 -15.692,0 -28.413,12.721 -28.413,28.412 0,15.691 12.721,28.412 28.413,28.412 C -12.72,28.412 0,15.691 0,0"
             style="fill:#e30613;fill-opacity:1;fill-rule:nonzero;stroke:none"
             id="path568"
             inkscape:connector-curvature="0" /></g><g
           id="g570"
           transform="translate(731.0587,406.2053)"><path
             d="m 0,0 c 0,-15.691 -12.721,-28.412 -28.413,-28.412 -15.691,0 -28.412,12.721 -28.412,28.412 0,15.691 12.721,28.412 28.412,28.412 C -12.721,28.412 0,15.691 0,0"
             style="fill:#e30613;fill-opacity:1;fill-rule:nonzero;stroke:none"
             id="path572"
             inkscape:connector-curvature="0" /></g><g
           id="g574"
           transform="translate(1160.6949,296.0627)"><path
             d="m 0,0 c 0,-15.691 -12.721,-28.412 -28.413,-28.412 -15.691,0 -28.412,12.721 -28.412,28.412 0,15.691 12.721,28.412 28.412,28.412 C -12.721,28.412 0,15.691 0,0"
             style="fill:#e30613;fill-opacity:1;fill-rule:nonzero;stroke:none"
             id="path576"
             inkscape:connector-curvature="0" /></g><g
           id="g578"
           transform="translate(838.0514,1369.7511)"><path
             d="m 0,0 c 0,-15.691 -12.721,-28.412 -28.413,-28.412 -15.691,0 -28.412,12.721 -28.412,28.412 0,15.691 12.721,28.412 28.412,28.412 C -12.721,28.412 0,15.691 0,0"
             style="fill:#e30613;fill-opacity:1;fill-rule:nonzero;stroke:none"
             id="path580"
             inkscape:connector-curvature="0" /></g><g
           id="g582"
           transform="translate(1053.9435,1369.7511)"><path
             d="m 0,0 c 0,-15.691 -12.721,-28.412 -28.413,-28.412 -15.691,0 -28.412,12.721 -28.412,28.412 0,15.691 12.721,28.412 28.412,28.412 C -12.721,28.412 0,15.691 0,0"
             style="fill:#e30613;fill-opacity:1;fill-rule:nonzero;stroke:none"
             id="path584"
             inkscape:connector-curvature="0" /></g><g
           id="g586"
           transform="translate(1268.3888,1369.7511)"><path
             d="m 0,0 c 0,-15.691 -12.721,-28.412 -28.413,-28.412 -15.691,0 -28.412,12.721 -28.412,28.412 0,15.691 12.721,28.412 28.412,28.412 C -12.721,28.412 0,15.691 0,0"
             style="fill:#e30613;fill-opacity:1;fill-rule:nonzero;stroke:none"
             id="path588"
             inkscape:connector-curvature="0" /></g><g
           id="g590"
           transform="translate(515.0035,2342.7874)"><path
             d="m 0,0 c 0,-15.691 -12.721,-28.412 -28.413,-28.412 -15.691,0 -28.412,12.721 -28.412,28.412 0,15.692 12.721,28.413 28.412,28.413 C -12.721,28.413 0,15.692 0,0"
             style="fill:#e30613;fill-opacity:1;fill-rule:nonzero;stroke:none"
             id="path592"
             inkscape:connector-curvature="0" /></g><g
           id="g594"
           transform="translate(623.1383,2130.0247)"><path
             d="m 0,0 c 0,-15.692 -12.721,-28.413 -28.413,-28.413 -15.691,0 -28.412,12.721 -28.412,28.413 0,15.691 12.721,28.412 28.412,28.412 C -12.721,28.412 0,15.691 0,0"
             style="fill:#e30613;fill-opacity:1;fill-rule:nonzero;stroke:none"
             id="path596"
             inkscape:connector-curvature="0" /></g><g
           id="g598"
           transform="translate(838.3439,2018.5714)"><path
             d="m 0,0 c 0,-15.691 -12.721,-28.412 -28.413,-28.412 -15.691,0 -28.412,12.721 -28.412,28.412 0,15.692 12.721,28.413 28.412,28.413 C -12.721,28.413 0,15.692 0,0"
             style="fill:#e30613;fill-opacity:1;fill-rule:nonzero;stroke:none"
             id="path600"
             inkscape:connector-curvature="0" /></g><g
           id="g602"
           transform="translate(945.672,1693.8771)"><path
             d="m 0,0 c 0,-15.691 -12.721,-28.412 -28.413,-28.412 -15.691,0 -28.412,12.721 -28.412,28.412 0,15.691 12.721,28.412 28.412,28.412 C -12.721,28.412 0,15.691 0,0"
             style="fill:#e30613;fill-opacity:1;fill-rule:nonzero;stroke:none"
             id="path604"
             inkscape:connector-curvature="0" /></g><g
           id="g606"
           transform="translate(1269.3981,1693.8771)"><path
             d="m 0,0 c 0,-15.691 -12.72,-28.412 -28.412,-28.412 -15.692,0 -28.413,12.721 -28.413,28.412 0,15.691 12.721,28.412 28.413,28.412 C -12.72,28.412 0,15.691 0,0"
             style="fill:#e30613;fill-opacity:1;fill-rule:nonzero;stroke:none"
             id="path608"
             inkscape:connector-curvature="0" /></g><g
           id="g610"
           transform="translate(1053.0851,2018.5714)"><path
             d="m 0,0 c 0,-15.691 -12.721,-28.412 -28.412,-28.412 -15.692,0 -28.413,12.721 -28.413,28.412 0,15.692 12.721,28.413 28.413,28.413 C -12.721,28.413 0,15.692 0,0"
             style="fill:#e30613;fill-opacity:1;fill-rule:nonzero;stroke:none"
             id="path612"
             inkscape:connector-curvature="0" /></g><g
           id="g614"
           transform="translate(1268.9064,2018.5714)"><path
             d="m 0,0 c 0,-15.691 -12.721,-28.412 -28.413,-28.412 -15.691,0 -28.412,12.721 -28.412,28.412 0,15.692 12.721,28.413 28.412,28.413 C -12.721,28.413 0,15.692 0,0"
             style="fill:#e30613;fill-opacity:1;fill-rule:nonzero;stroke:none"
             id="path616"
             inkscape:connector-curvature="0" /></g><g
           id="g618"
           transform="translate(731.2028,2342.7874)"><path
             d="m 0,0 c 0,-15.691 -12.721,-28.412 -28.413,-28.412 -15.691,0 -28.412,12.721 -28.412,28.412 0,15.692 12.721,28.413 28.412,28.413 C -12.721,28.413 0,15.692 0,0"
             style="fill:#e30613;fill-opacity:1;fill-rule:nonzero;stroke:none"
             id="path620"
             inkscape:connector-curvature="0" /></g><g
           id="g622"
           transform="translate(1053.0851,2342.7874)"><path
             d="m 0,0 c 0,-15.691 -12.721,-28.412 -28.412,-28.412 -15.692,0 -28.413,12.721 -28.413,28.412 0,15.692 12.721,28.413 28.413,28.413 C -12.721,28.413 0,15.692 0,0"
             style="fill:#e30613;fill-opacity:1;fill-rule:nonzero;stroke:none"
             id="path624"
             inkscape:connector-curvature="0" /></g><g
           id="g626"
           transform="translate(1268.9064,2342.7874)"><path
             d="m 0,0 c 0,-15.691 -12.721,-28.412 -28.413,-28.412 -15.691,0 -28.412,12.721 -28.412,28.412 0,15.692 12.721,28.413 28.412,28.413 C -12.721,28.413 0,15.692 0,0"
             style="fill:#e30613;fill-opacity:1;fill-rule:nonzero;stroke:none"
             id="path628"
             inkscape:connector-curvature="0" /></g></g></g><text
       transform="matrix(1,0,0,-1,146.9751,2328.9077)"
       style="font-variant:normal;font-weight:600;font-stretch:normal;font-size:42px;font-family:'TriumphBrokman DemiBold';-inkscape-font-specification:TriumphBrokman-DemiBold;writing-mode:lr-tb;fill:#ffffff;fill-opacity:1;fill-rule:nonzero;stroke:none"
       id="text630"><tspan
         x="0"
         y="0"
         id="tspan632">M</tspan><tspan
         x="217.308"
         y="428.862"
         id="tspan634">G</tspan><tspan
         x="218.61"
         y="859.48798"
         id="tspan636">E</tspan><tspan
         x="755.87402 1081.584"
         y="649.362"
         sodipodi:role="line"
         id="tspan638">OC</tspan><tspan
         x="650.74799"
         y="973.47601"
         id="tspan640">C</tspan><tspan
         x="2.898"
         y="1505.994"
         id="tspan642">B</tspan><tspan
         x="107.268 140.7"
         y="2047.1639"
         sodipodi:role="line"
         id="tspan644">M </tspan><tspan
         x="542.388"
         y="1937.04"
         id="tspan646">B</tspan><tspan
         x="972.00598"
         y="2047.1639"
         id="tspan648">B</tspan><tspan
         x="216.84599"
         y="1290.576"
         id="tspan650">A</tspan><tspan
         x="542.68201 865.62"
         y="1403.3459"
         sodipodi:role="line"
         id="tspan652">CE</tspan><tspan
         x="863.81403"
         y="1721.16"
         id="tspan654">A</tspan><tspan
         x="1079.2321"
         y="1403.3459"
         id="tspan656">N</tspan><tspan
         x="866.62799 1081.08"
         y="973.47601"
         sodipodi:role="line"
         id="tspan658">CC</tspan><tspan
         x="434.448"
         y="213.192"
         id="tspan660">B</tspan><tspan
         x="649.362 864.40198 1079.694"
         y="324.66"
         sodipodi:role="line"
         id="tspan662">BBB</tspan><tspan
         x="327.51599 543.27002 865.62 1080.912"
         y="-0.041999999"
         sodipodi:role="line"
         id="tspan664">EEEE</tspan></text>
<g
       id="g666"><g
         id="g668"
         clip-path="url(#clipPath670)"><g
           id="g674"
           transform="translate(1370.9498,2743.0608)"><path
             d="m 0,0 c 0,-15.655 -12.691,-28.347 -28.346,-28.347 -15.655,0 -28.347,12.692 -28.347,28.347 0,15.655 12.692,28.347 28.347,28.347 C -12.691,28.347 0,15.655 0,0"
             style="fill:#e30613;fill-opacity:1;fill-rule:nonzero;stroke:none"
             id="path676"
             inkscape:connector-curvature="0" /></g></g></g><text
       transform="matrix(1,0,0,-1,1330.8228,2728.7134)"
       style="font-variant:normal;font-weight:600;font-stretch:normal;font-size:42px;font-family:'TriumphBrokman DemiBold';-inkscape-font-specification:TriumphBrokman-DemiBold;writing-mode:lr-tb;fill:#ffffff;fill-opacity:1;fill-rule:nonzero;stroke:none"
       id="text678"><tspan
         x="0"
         y="0"
         id="tspan680">6</tspan></text>
</g></svg>