<?xml version="1.0" encoding="UTF-8" standalone="no"?>
<!-- Created with Inkscape (http://www.inkscape.org/) -->

<svg
   xmlns:dc="http://purl.org/dc/elements/1.1/"
   xmlns:cc="http://creativecommons.org/ns#"
   xmlns:rdf="http://www.w3.org/1999/02/22-rdf-syntax-ns#"
   xmlns:svg="http://www.w3.org/2000/svg"
   xmlns="http://www.w3.org/2000/svg"
   xmlns:sodipodi="http://sodipodi.sourceforge.net/DTD/sodipodi-0.dtd"
   xmlns:inkscape="http://www.inkscape.org/namespaces/inkscape"
   id="svg2"
   version="1.1"
   inkscape:version="0.91 r13725"
   xml:space="preserve"
   width="1753.9375"
   height="3507.875"
   viewBox="0 0 1753.9375 3507.875"
   sodipodi:docname="Triumph Toolboard 4.svg"><metadata
     id="metadata8"><rdf:RDF><cc:Work
         rdf:about=""><dc:format>image/svg+xml</dc:format><dc:type
           rdf:resource="http://purl.org/dc/dcmitype/StillImage" /><dc:title></dc:title></cc:Work></rdf:RDF></metadata><defs
     id="defs6"><clipPath
       clipPathUnits="userSpaceOnUse"
       id="clipPath16"><path
         d="M 22.677,2806.3 C 10.153,2806.3 0,2796.147 0,2783.623 l 0,0 L 0,22.677 C 0,10.153 10.153,0 22.677,0 l 0,0 1357.795,0 c 12.525,0 22.678,10.153 22.678,22.677 l 0,0 0,2760.946 c 0,12.524 -10.153,22.677 -22.678,22.677 l 0,0 -1357.795,0 z"
         id="path18"
         inkscape:connector-curvature="0" /></clipPath><clipPath
       clipPathUnits="userSpaceOnUse"
       id="clipPath26"><path
         d="m 0,2806.3 1403.15,0 L 1403.15,0 0,0 0,2806.3 Z"
         id="path28"
         inkscape:connector-curvature="0" /></clipPath><clipPath
       clipPathUnits="userSpaceOnUse"
       id="clipPath102"><path
         d="m 0,2806.3 1403.15,0 L 1403.15,0 0,0 0,2806.3 Z"
         id="path104"
         inkscape:connector-curvature="0" /></clipPath><clipPath
       clipPathUnits="userSpaceOnUse"
       id="clipPath118"><path
         d="m 0,2806.3 1403.15,0 L 1403.15,0 0,0 0,2806.3 Z"
         id="path120"
         inkscape:connector-curvature="0" /></clipPath><clipPath
       clipPathUnits="userSpaceOnUse"
       id="clipPath142"><path
         d="m 0,2806.3 1403.15,0 L 1403.15,0 0,0 0,2806.3 Z"
         id="path144"
         inkscape:connector-curvature="0" /></clipPath><clipPath
       clipPathUnits="userSpaceOnUse"
       id="clipPath170"><path
         d="m 0,2806.3 1403.15,0 L 1403.15,0 0,0 0,2806.3 Z"
         id="path172"
         inkscape:connector-curvature="0" /></clipPath><clipPath
       clipPathUnits="userSpaceOnUse"
       id="clipPath186"><path
         d="m 0,2806.3 1403.15,0 L 1403.15,0 0,0 0,2806.3 Z"
         id="path188"
         inkscape:connector-curvature="0" /></clipPath><clipPath
       clipPathUnits="userSpaceOnUse"
       id="clipPath206"><path
         d="m 0,2806.3 1403.15,0 L 1403.15,0 0,0 0,2806.3 Z"
         id="path208"
         inkscape:connector-curvature="0" /></clipPath><clipPath
       clipPathUnits="userSpaceOnUse"
       id="clipPath226"><path
         d="m 0,2806.3 1403.15,0 L 1403.15,0 0,0 0,2806.3 Z"
         id="path228"
         inkscape:connector-curvature="0" /></clipPath><clipPath
       clipPathUnits="userSpaceOnUse"
       id="clipPath242"><path
         d="m 0,2806.3 1403.15,0 L 1403.15,0 0,0 0,2806.3 Z"
         id="path244"
         inkscape:connector-curvature="0" /></clipPath><clipPath
       clipPathUnits="userSpaceOnUse"
       id="clipPath534"><path
         d="m 0,2806.3 1403.15,0 L 1403.15,0 0,0 0,2806.3 Z"
         id="path536"
         inkscape:connector-curvature="0" /></clipPath><clipPath
       clipPathUnits="userSpaceOnUse"
       id="clipPath550"><path
         d="m 0,2806.3 1403.15,0 L 1403.15,0 0,0 0,2806.3 Z"
         id="path552"
         inkscape:connector-curvature="0" /></clipPath><clipPath
       clipPathUnits="userSpaceOnUse"
       id="clipPath582"><path
         d="m 0,2806.3 1403.15,0 L 1403.15,0 0,0 0,2806.3 Z"
         id="path584"
         inkscape:connector-curvature="0" /></clipPath></defs><sodipodi:namedview
     pagecolor="#ffffff"
     bordercolor="#666666"
     borderopacity="1"
     objecttolerance="10"
     gridtolerance="10"
     guidetolerance="10"
     inkscape:pageopacity="0"
     inkscape:pageshadow="2"
     inkscape:window-width="822"
     inkscape:window-height="480"
     id="namedview4"
     showgrid="false"
     inkscape:zoom="0.067277198"
     inkscape:cx="876.96875"
     inkscape:cy="1753.9375"
     inkscape:window-x="0"
     inkscape:window-y="0"
     inkscape:window-maximized="0"
     inkscape:current-layer="g10" /><g
     id="g10"
     inkscape:groupmode="layer"
     inkscape:label="Triumph Toolboard 4"
     transform="matrix(1.25,0,0,-1.25,0,3507.875)"><g
       id="g12"><g
         id="g14"
         clip-path="url(#clipPath16)"><path
           d="m 1437.568,-34.288 -1463.284,0 0,2864.903 1463.284,0 0,-2864.903 z"
           style="fill:#1d1d1b;fill-opacity:1;fill-rule:nonzero;stroke:none"
           id="path20"
           inkscape:connector-curvature="0" /></g></g><g
       id="g22"><g
         id="g24"
         clip-path="url(#clipPath26)"><g
           id="g30"
           transform="translate(799.5165,2663.2527)"><path
             d="m 0,0 0,74.315 -13.157,0 c -4.9,0 -6.636,-2.429 -9.787,-6.855 l -20.368,-28.733 -22.532,35.588 -14.179,0 c -4.705,0 -5.399,-4.26 -5.399,-6.798 l 0,-67.517 16.233,0 0,48.941 21.963,-32.905 6.895,0 23.044,32.743 L -17.287,0 0,0 Z"
             style="fill:#ffffff;fill-opacity:1;fill-rule:nonzero;stroke:none"
             id="path32"
             inkscape:connector-curvature="0" /></g><g
           id="g34"
           transform="translate(834.2401,2698.5325)"><path
             d="m 0,0 0,26.712 6.757,0 C 19.181,26.712 21.05,19.375 21.05,15.008 21.05,0.694 4.407,-0.038 1.087,-0.038 0.708,-0.038 0.493,-0.02 0.493,-0.02 L 0,0 Z m 1.124,-12.368 c 2.589,0 11.807,0.297 20.455,4.092 11.1,4.892 16.756,13.447 16.756,25.437 0,6.577 -2.663,21.875 -27.159,21.875 l -25.507,0 c -4.716,0 -5.423,-4.274 -5.423,-6.799 l 0,-67.517 19.754,0 0,22.912 0.518,0 0.606,0"
             style="fill:#ffffff;fill-opacity:1;fill-rule:nonzero;stroke:none"
             id="path36"
             inkscape:connector-curvature="0" /></g><g
           id="g38"
           transform="translate(699.1122,2737.5681)"><path
             d="m 0,0 -14.35,0 c -4.704,0 -5.411,-4.273 -5.411,-6.798 l 0,-40.041 c 0,-13.397 -7.222,-16.226 -13.302,-16.226 -6.08,0 -13.302,2.829 -13.302,16.226 l 0,46.839 -14.369,0 c -4.699,0 -5.412,-4.273 -5.412,-6.798 l 0,-41.543 c 0,-13.082 5.751,-28.664 33.083,-28.664 C -5.738,-77.005 0,-61.423 0,-48.341 L 0,0 Z"
             style="fill:#ffffff;fill-opacity:1;fill-rule:nonzero;stroke:none"
             id="path40"
             inkscape:connector-curvature="0" /></g><g
           id="g42"
           transform="translate(598.2479,2663.2463)"><path
             d="m 0,0 19.749,0 0,74.322 -14.338,0 C 0.714,74.322 0,70.062 0,67.523 L 0,0 Z"
             style="fill:#ffffff;fill-opacity:1;fill-rule:nonzero;stroke:none"
             id="path44"
             inkscape:connector-curvature="0" /></g><g
           id="g46"
           transform="translate(546.2509,2698.4949)"><path
             d="m 0,0 c -0.367,0 -0.582,0.018 -0.582,0.018 l -0.473,0.013 0,26.7 6.515,0 c 12.437,0 14.288,-7.336 14.288,-11.698 C 19.748,0.732 3.308,0 0,0 m 407.782,-35.229 0,74.291 -14.331,0 c -4.736,0 -5.442,-4.269 -5.442,-6.8 l 0,-12.413 -0.392,-0.081 C 378.5,18.006 369.282,14.502 359.434,9.021 l -0.733,-0.41 0,30.451 -14.345,0 c -4.722,0 -5.404,-4.269 -5.404,-6.8 l 0,-36.827 -0.215,-0.145 c -3.042,-2.298 -5.909,-4.552 -8.396,-6.529 l -0.631,-0.486 C 278.532,-51.91 227.538,-70.029 164.353,-70.458 c -0.658,-0.007 -1.338,-0.007 -1.996,-0.007 -29.118,-0.013 -57.042,4.83 -80.788,13.984 -27.628,10.67 -48.506,26.548 -62.055,47.263 l -0.328,0.517 0.562,0.228 c 11.452,4.849 17.279,13.486 17.279,25.659 0,6.572 -2.651,21.876 -27.154,21.876 l -25.487,0 c -4.716,0 -5.423,-4.275 -5.423,-6.807 l 0,-67.497 19.982,0 0,22.936 0.517,-0.024 c 0.013,0 0.431,-0.013 1.169,0 l 0.233,0 0.17,-0.177 c 26.031,-31.176 75.467,-68.345 163.319,-68.345 65.736,0 119.331,18.361 173.778,59.556 l 0.821,0.607 0,-14.54 19.749,0 0,28.916 0.239,0.15 c 10.533,6.813 19.585,10.626 28.487,11.984 l 0.582,0.088 0,-41.138 19.773,0 z"
             style="fill:#ffffff;fill-opacity:1;fill-rule:nonzero;stroke:none"
             id="path48"
             inkscape:connector-curvature="0" /></g><g
           id="g50"
           transform="translate(516.204,2737.5681)"><path
             d="m 0,0 -61.783,0 c -4.383,0 -5.305,-3.699 -5.305,-6.798 l 0,-10.867 23.557,0 0,-56.65 19.868,0 0,56.65 18.253,0 c 4.728,0 5.41,4.269 5.41,6.8 L 0,0 Z"
             style="fill:#ffffff;fill-opacity:1;fill-rule:nonzero;stroke:none"
             id="path52"
             inkscape:connector-curvature="0" /></g><g
           id="g54"
           transform="translate(162.9462,2363.0276)"><path
             d="m 0,0 c 0,26.516 17.672,48.892 41.877,56.026 l 0,42.744 -0.077,0 c 0.065,0.965 0.11,1.936 0.11,2.918 0,23.5 -19.05,42.55 -42.55,42.55 -23.5,0 -42.55,-19.05 -42.55,-42.55 0,-0.982 0.045,-1.953 0.111,-2.918 l -0.143,0 0,-2077.036 0.089,0 c 1.15,-22.472 19.735,-40.34 42.493,-40.34 22.759,0 41.344,17.868 42.494,40.34 l 0.023,0 0,0.884 c 0.014,0.441 0.033,0.881 0.033,1.325 0,0.445 -0.019,0.885 -0.033,1.326 l 0,1918.705 C 17.672,-48.892 0,-26.516 0,0"
             style="fill:#ffffff;fill-opacity:1;fill-rule:nonzero;stroke:none"
             id="path56"
             inkscape:connector-curvature="0" /></g><g
           id="g58"
           transform="translate(565.7684,1842.1672)"><path
             d="m 0,0 c -0.371,-5.363 -0.569,-10.746 -1.163,-16.084 -0.57,-5.131 -1.393,-10.248 -2.392,-15.313 -1.18,-5.982 -3.027,-11.81 -5.575,-17.345 -2.669,-5.801 -6.068,-11.167 -10.507,-15.852 -4.353,-4.595 -9.469,-8.219 -14.482,-12.004 -3.026,-2.284 -5.955,-4.73 -8.701,-7.34 -3.157,-3.001 -4.832,-6.97 -6.267,-11.004 -1.753,-4.929 -2.886,-10.037 -3.447,-15.209 -0.571,-5.258 -0.749,-10.567 -0.886,-15.859 -0.159,-6.203 -0.081,-12.412 -0.12,-18.618 -0.039,-6.325 -0.082,-12.649 -0.148,-18.973 -0.061,-5.966 -0.148,-11.931 -0.236,-17.896 -0.066,-4.502 -0.162,-9.003 -0.225,-13.504 -0.091,-6.362 -0.155,-12.725 -0.247,-19.087 -0.092,-6.301 -0.215,-12.602 -0.306,-18.903 -0.08,-5.49 -0.125,-10.982 -0.203,-16.472 -0.116,-8.249 -0.265,-16.497 -0.369,-24.746 -0.056,-4.431 -0.017,-8.863 -0.079,-13.294 -0.075,-5.412 -0.236,-10.823 -0.314,-16.235 -0.076,-5.369 -0.072,-10.74 -0.146,-16.109 -0.083,-6.006 -0.232,-12.011 -0.321,-18.017 -0.095,-6.414 -0.137,-12.829 -0.234,-19.243 -0.063,-4.126 -0.205,-8.25 -0.263,-12.376 -0.031,-2.296 0.092,-4.595 0.049,-6.89 -0.08,-4.293 -0.283,-8.583 -0.34,-12.875 -0.081,-6.078 -0.029,-12.158 -0.118,-18.235 -0.113,-7.811 -0.178,-15.626 -0.516,-23.429 -0.233,-5.372 -1.395,-10.621 -2.948,-15.787 -1.677,-5.581 -4.215,-10.707 -8.173,-14.967 -3.686,-3.968 -8.331,-6.29 -13.805,-6.909 -4.452,-0.503 -8.767,-0.099 -12.897,1.613 -5.209,2.161 -8.975,5.955 -11.713,10.822 -3.848,6.84 -5.673,14.314 -6.143,22.034 -0.436,7.15 -0.277,14.34 -0.281,21.512 -0.004,6.14 0.127,12.281 0.209,18.42 0.076,5.701 0.164,11.401 0.247,17.101 0.072,4.933 0.132,9.866 0.217,14.799 0.124,7.134 0.285,14.267 0.395,21.4 0.073,4.747 0.06,9.495 0.128,14.241 0.082,5.807 0.238,11.613 0.307,17.421 0.075,6.32 0.052,12.643 0.14,18.963 0.098,7.057 0.303,14.111 0.404,21.167 0.073,5.055 0.029,10.111 0.08,15.166 0.059,5.762 0.167,11.523 0.252,17.285 0.075,5.017 0.152,10.034 0.223,15.051 0.085,6.039 0.175,12.078 0.246,18.118 0.091,7.676 0.147,15.354 0.253,23.03 0.062,4.619 0.198,9.236 0.283,13.854 0.108,5.774 0.265,11.548 0.278,17.322 0.021,8.137 0.117,16.281 -0.177,24.409 -0.203,5.592 -0.93,11.172 -1.578,16.74 -0.447,3.836 -0.983,7.68 -1.8,11.451 -0.974,4.491 -2.008,9.04 -4.998,12.739 -0.791,0.978 -1.898,1.837 -3.037,2.375 -5.04,2.375 -9.415,5.652 -13.286,9.599 -6.035,6.153 -10.484,13.374 -13.899,21.245 -2.851,6.574 -5.7,13.153 -8.401,19.79 -1.447,3.553 -2.333,7.242 -1.741,11.184 0.551,3.664 3.995,6.305 7.066,7.081 4.248,1.075 7.431,-0.883 10.291,-3.584 4.101,-3.873 6.937,-8.629 9.185,-13.757 2.201,-5.021 4.726,-9.881 8.337,-14.024 2.098,-2.406 4.586,-4.48 6.979,-6.615 2.558,-2.282 5.576,-3.864 8.664,-5.297 4.135,-1.919 8.416,-3.42 12.905,-4.266 3.007,-0.566 6.013,-1.194 9.048,-1.548 3.623,-0.424 7.274,-0.648 10.918,-0.842 3.092,-0.165 6.206,-0.37 9.285,-0.171 2.388,0.154 4.809,0.688 7.09,1.436 4.948,1.623 9.007,4.665 12.433,8.557 1.246,1.417 2.54,2.807 3.649,4.328 3.282,4.5 6.049,9.301 7.984,14.542 1.25,3.385 2.591,6.748 3.596,10.207 1.007,3.464 1.89,7.001 2.388,10.567 0.726,5.197 0.997,10.456 1.577,15.676 0.675,6.074 3.638,10.902 9.398,12.903 5.863,2.035 12.04,0.226 15.628,-4.903 1.716,-2.451 2.336,-5.291 2.251,-8.28 C -0.12,1.528 -0.102,0.769 -0.102,0.01 -0.067,0.007 -0.034,0.003 0,0"
             style="fill:#ffffff;fill-opacity:1;fill-rule:nonzero;stroke:none"
             id="path60"
             inkscape:connector-curvature="0" /></g><g
           id="g62"
           transform="translate(1363.6669,1836.3328)"><path
             d="m 0,0 -114.5,0.062 0.003,3.811 -122.254,0.067 0.002,4.06 -454.5,0.249 -0.016,-29 454.5,-0.249 0.002,4.061 122.254,-0.067 0.002,3.811 114.5,-0.063 L 0,0 Z"
             style="fill:#ffffff;fill-opacity:1;fill-rule:nonzero;stroke:none"
             id="path64"
             inkscape:connector-curvature="0" /></g><g
           id="g66"
           transform="translate(660.2245,759.7228)"><path
             d="m 0,0 -24.273,0 0,190.062 -23.601,0 13.52,21.969 -272.311,0 13.97,-21.969 -25.723,0 0,-190.062 -21.445,0 0,-37.602 150.363,0 0,-292.898 30.947,0 0,292.898 L 0,-37.602 0,0 Z"
             style="fill:#ffffff;fill-opacity:1;fill-rule:nonzero;stroke:none"
             id="path68"
             inkscape:connector-curvature="0" /></g></g></g><text
       transform="matrix(1,0,0,-1,818.8149,1788.1436)"
       style="font-variant:normal;font-weight:bold;font-stretch:normal;font-size:24.70089912px;font-family:Helvetica;-inkscape-font-specification:Helvetica-Bold;writing-mode:lr-tb;fill:#ffffff;fill-opacity:1;fill-rule:nonzero;stroke:none"
       id="text70"><tspan
         x="0 15.09225 28.825951 42.55965 56.29335 70.027054 83.76075 97.494453"
         y="0"
         sodipodi:role="line"
         id="tspan72">T3880039</tspan><tspan
         x="259.70526 274.79752 288.53122 302.26492 315.99863 329.7323 343.466 357.19971"
         y="1156.0021"
         sodipodi:role="line"
         id="tspan74">T3880043</tspan></text>
<text
       transform="matrix(0,-1,-1,0,87.8896,2023.0942)"
       style="font-variant:normal;font-weight:bold;font-stretch:normal;font-size:24.70089912px;font-family:Helvetica;-inkscape-font-specification:Helvetica-Bold;writing-mode:lr-tb;fill:#ffffff;fill-opacity:1;fill-rule:nonzero;stroke:none"
       id="text76"><tspan
         x="0 15.09225 28.825951 42.55965 56.29335 70.027054 83.76075 97.494453"
         y="0"
         sodipodi:role="line"
         id="tspan78">T3880096</tspan><tspan
         x="224.55588 239.64813 253.38184 267.11554 280.84924 294.58295 308.31662 322.05032"
         y="-244.56361"
         sodipodi:role="line"
         id="tspan80">T3880148</tspan></text>
<text
       transform="matrix(1,0,0,-1,340.98,611.4863)"
       style="font-variant:normal;font-weight:bold;font-stretch:normal;font-size:24.70089912px;font-family:Helvetica;-inkscape-font-specification:Helvetica-Bold;writing-mode:lr-tb;fill:#ffffff;fill-opacity:1;fill-rule:nonzero;stroke:none"
       id="text82"><tspan
         x="0 15.09225 28.825951 42.55965 56.29335 70.027054 83.76075 97.494453"
         y="0"
         sodipodi:role="line"
         id="tspan84">T3880122</tspan><tspan
         x="586.96747 602.05975 615.79346 629.52716 643.26086 656.99457 670.72821 684.46191"
         y="315.18347"
         sodipodi:role="line"
         id="tspan86">T3880133</tspan></text>
<text
       transform="matrix(0,1,1,0,764.3682,1390.9575)"
       style="font-variant:normal;font-weight:bold;font-stretch:normal;font-size:24.70089912px;font-family:Helvetica;-inkscape-font-specification:Helvetica-Bold;writing-mode:lr-tb;fill:#ffffff;fill-opacity:1;fill-rule:nonzero;stroke:none"
       id="text88"><tspan
         x="0 15.09225 28.825951 42.55965 56.29335 70.027054 83.76075 97.494453"
         y="0"
         sodipodi:role="line"
         id="tspan90">T3880126</tspan><tspan
         x="153.88661 168.97885 182.71255 196.44626 210.17996 223.91367 237.64735 251.38106"
         y="-224.33357"
         sodipodi:role="line"
         id="tspan92">T3880041</tspan></text>
<text
       transform="matrix(1,0,0,-1,1101.0269,777.8633)"
       style="font-variant:normal;font-weight:normal;font-stretch:normal;font-size:13.64780045px;font-family:Helvetica;-inkscape-font-specification:Helvetica;writing-mode:lr-tb;fill:#1b1b19;fill-opacity:1;fill-rule:nonzero;stroke:none"
       id="text94"><tspan
         x="0 7.5881767 15.176353 22.76453 30.352707 37.940884 45.52906 53.117237"
         y="0"
         sodipodi:role="line"
         id="tspan96">14002037</tspan></text>
<g
       id="g98"><g
         id="g100"
         clip-path="url(#clipPath102)"><g
           id="g106"
           transform="translate(809.9218,596.069)"><path
             d="m 0,0 c -39.669,0 -71.827,32.158 -71.827,71.827 0,39.669 32.158,71.827 71.827,71.827 39.669,0 71.826,-32.158 71.826,-71.827 C 71.826,32.158 39.669,0 0,0 m 0,157.026 c -47.055,0 -85.199,-38.145 -85.199,-85.199 0,-47.054 38.144,-85.199 85.199,-85.199 47.054,0 85.198,38.145 85.198,85.199 0,47.054 -38.144,85.199 -85.198,85.199"
             style="fill:#ffffff;fill-opacity:1;fill-rule:nonzero;stroke:none"
             id="path108"
             inkscape:connector-curvature="0" /></g></g></g><text
       transform="matrix(1,0,0,-1,753.1079,552.3115)"
       style="font-variant:normal;font-weight:bold;font-stretch:normal;font-size:24.70089912px;font-family:Helvetica;-inkscape-font-specification:Helvetica-Bold;writing-mode:lr-tb;fill:#ffffff;fill-opacity:1;fill-rule:nonzero;stroke:none"
       id="text110"><tspan
         x="0 15.09225 28.825951 42.55965 56.29335 70.027054 83.76075 97.494453"
         y="0"
         sodipodi:role="line"
         id="tspan112">T3880132</tspan></text>
<g
       id="g114"><g
         id="g116"
         clip-path="url(#clipPath118)"><g
           id="g122"
           transform="translate(304.5555,180.2663)"><path
             d="m 0,0 c -30.645,0 -55.486,24.842 -55.486,55.486 0,30.644 24.841,55.487 55.486,55.487 30.645,0 55.486,-24.843 55.486,-55.487 C 55.486,24.842 30.645,0 0,0 m -286.289,-88.541 575,0 0,285.406 -575,0 0,-285.406 z"
             style="fill:#ffffff;fill-opacity:1;fill-rule:nonzero;stroke:none"
             id="path124"
             inkscape:connector-curvature="0" /></g><path
           d="m 111.266,352.226 -58.5,0 0,63.5 58.5,0 0,-63.5 z"
           style="fill:#ffffff;fill-opacity:1;fill-rule:nonzero;stroke:none"
           id="path126"
           inkscape:connector-curvature="0" /><path
           d="m 111.266,51.226 -58.5,0 0,63.5 58.5,0 0,-63.5 z"
           style="fill:#ffffff;fill-opacity:1;fill-rule:nonzero;stroke:none"
           id="path128"
           inkscape:connector-curvature="0" /><path
           d="m 565.266,352.226 -58.5,0 0,63.5 58.5,0 0,-63.5 z"
           style="fill:#ffffff;fill-opacity:1;fill-rule:nonzero;stroke:none"
           id="path130"
           inkscape:connector-curvature="0" /><path
           d="m 565.266,51.226 -58.5,0 0,63.5 58.5,0 0,-63.5 z"
           style="fill:#ffffff;fill-opacity:1;fill-rule:nonzero;stroke:none"
           id="path132"
           inkscape:connector-curvature="0" /></g></g><text
       transform="matrix(0.97953786,0,0,-1,256.5112,228.7041)"
       style="font-variant:normal;font-weight:bold;font-stretch:normal;font-size:21.70350075px;font-family:Helvetica;-inkscape-font-specification:Helvetica-Bold;writing-mode:lr-tb;fill:#ffffff;fill-opacity:1;fill-rule:nonzero;stroke:none"
       id="text134"><tspan
         x="0 13.260839 25.327984 37.39513 49.462276 61.529423 73.596565 85.663712"
         y="0"
         sodipodi:role="line"
         id="tspan136">T3880108</tspan></text>
<g
       id="g138"><g
         id="g140"
         clip-path="url(#clipPath142)"><g
           id="g146"
           transform="translate(988.3807,752.2018)"><path
             d="m 0,0 6.79,20.369 24.519,21.878 225.189,0.377 25.273,-23.764 7.166,-19.991 -19.569,8.12 -4.167,-4 4.333,-18.334 -16.666,8.834 -5.334,-2.5 0.5,-18.834 -18,12.667 -171,-0.333 -17.833,-12.667 1.667,21 -5.167,4.667 -18.5,-12.834 5.5,20 -6.333,5.5 L 0,0 Z"
             style="fill:#ffffff;fill-opacity:1;fill-rule:nonzero;stroke:none"
             id="path148"
             inkscape:connector-curvature="0" /></g><g
           id="g150"
           transform="translate(395.3495,1065.5027)"><path
             d="m 0,0 -4.714,0 0,976.579 48.872,-12.526 -0.248,17.118 -48.624,12.452 0,66.438 -22.575,0 0,-66.186 -47.633,-13.697 0,-16.621 47.633,12.4 0,-975.957 -5.706,0 -2.978,-42.422 8.684,0 0,-28.226 22.575,0 0,28.226 9.179,0 L 0,0 Z"
             style="fill:#ffffff;fill-opacity:1;fill-rule:nonzero;stroke:none"
             id="path152"
             inkscape:connector-curvature="0" /></g><g
           id="g154"
           transform="translate(722.5809,1710.7629)"><path
             d="m 0,0 0,34.603 41.248,0 1.544,0 1.173,0 0,31.04 -2.717,-2.375 0,-23.547 -115.206,0 0,25.922 -3.223,0 0,-25.922 0,-5.118 3.223,0 32.997,0 0,-322.863 12.914,0 0,-25.97 c -6.677,-4.042 -11.139,-11.374 -11.139,-19.748 0,-12.74 10.328,-23.068 23.068,-23.068 12.74,0 23.068,10.328 23.068,23.068 0,11.311 -8.142,20.713 -18.884,22.683 l 0,23.035 11.934,0 0,190.052 16.109,0 L 82.77,-8.142 82.77,0 0,0 Z"
             style="fill:#ffffff;fill-opacity:1;fill-rule:nonzero;stroke:none"
             id="path156"
             inkscape:connector-curvature="0" /></g><g
           id="g158"
           transform="translate(984.9413,208.6272)"><path
             d="m 0,0 c -54.011,0 -97.795,43.784 -97.795,97.795 0,54.011 43.784,97.795 97.795,97.795 54.011,0 97.796,-43.784 97.796,-97.795 C 97.796,43.784 54.011,0 0,0 m 341.032,309.756 0,43.524 -71.99,0 0,-43.524 -540.856,0 0,43.524 -71.991,0 0,-43.524 -26.675,0 0,-426.394 741.899,0 0,426.394 -30.387,0 z"
             style="fill:#ffffff;fill-opacity:1;fill-rule:nonzero;stroke:none"
             id="path160"
             inkscape:connector-curvature="0" /></g></g></g><text
       transform="matrix(1,0,0,-1,643.3218,994.1147)"
       style="font-variant:normal;font-weight:bold;font-stretch:normal;font-size:24.70089912px;font-family:Helvetica;-inkscape-font-specification:Helvetica-Bold;writing-mode:lr-tb;fill:#ffffff;fill-opacity:1;fill-rule:nonzero;stroke:none"
       id="text162"><tspan
         x="0 15.09225 28.825951 42.55965 56.29335 70.027054 83.76075 97.494453"
         y="0"
         sodipodi:role="line"
         id="tspan164">T3880121</tspan></text>
<g
       id="g166"><g
         id="g168"
         clip-path="url(#clipPath170)"><g
           id="g174"
           transform="translate(764.4296,1178.5188)"><path
             d="m 0,0 c -5.431,0 -9.833,4.402 -9.833,9.833 0,5.431 4.402,9.834 9.833,9.834 5.432,0 9.834,-4.403 9.834,-9.834 C 9.834,4.402 5.432,0 0,0 m -62.766,-8.507 c -29.547,0 -53.5,23.953 -53.5,53.5 0,29.548 23.953,53.5 53.5,53.5 29.547,0 53.5,-23.952 53.5,-53.5 0,-29.547 -23.953,-53.5 -53.5,-53.5 m -9.734,-17.66 c 0,5.431 4.403,9.834 9.834,9.834 5.431,0 9.833,-4.403 9.833,-9.834 0,-5.431 -4.402,-9.833 -9.833,-9.833 -5.431,0 -9.834,4.402 -9.834,9.833 m 24.295,-96.546 -30.647,0 0,31.576 30.647,0 0,-31.576 z M -125.333,0 c -5.431,0 -9.833,4.402 -9.833,9.833 0,5.431 4.402,9.834 9.833,9.834 5.431,0 9.833,-4.403 9.833,-9.834 0,-5.431 -4.402,-9.833 -9.833,-9.833 m 0,92 c 5.431,0 9.833,-4.402 9.833,-9.833 0,-5.431 -4.402,-9.834 -9.833,-9.834 -5.431,0 -9.833,4.403 -9.833,9.834 0,5.431 4.402,9.833 9.833,9.833 m 62.667,35.667 c 5.431,0 9.833,-4.403 9.833,-9.834 0,-5.431 -4.402,-9.833 -9.833,-9.833 -5.431,0 -9.834,4.402 -9.834,9.833 0,5.431 4.403,9.834 9.834,9.834 M 0,92 c 5.432,0 9.834,-4.402 9.834,-9.833 0,-5.431 -4.402,-9.834 -9.834,-9.834 -5.431,0 -9.833,4.403 -9.833,9.834 C -9.833,87.598 -5.431,92 0,92 m -62.766,44.667 c -50.63,0 -91.673,-41.044 -91.673,-91.674 0,-38.042 23.173,-70.671 56.173,-84.544 l 0,-112.116 71,0 0,112.116 c 33,13.873 56.173,46.502 56.173,84.544 0,50.63 -41.043,91.674 -91.673,91.674"
             style="fill:#ffffff;fill-opacity:1;fill-rule:nonzero;stroke:none"
             id="path176"
             inkscape:connector-curvature="0" /></g><g
           id="g178"
           transform="translate(1338.1698,1005.9113)"><path
             d="m 0,0 c -0.217,26.154 -20.824,47.359 -46.607,48.673 l 0,0.005 -0.083,0 c -0.951,0.047 -1.906,0.075 -2.869,0.067 -0.504,-0.005 -1.002,-0.032 -1.502,-0.051 l -430.84,1.529 c -27.146,-0.225 -48.969,-22.414 -48.745,-49.559 0.225,-27.146 22.414,-48.97 49.559,-48.745 l 429.831,-1.435 c 0.832,-0.035 1.669,-0.05 2.512,-0.043 0.311,0.003 0.619,0.023 0.929,0.031 l 2.022,-0.006 -10e-4,0.096 C -20.036,-47.698 0.217,-26.154 0,0"
             style="fill:#ffffff;fill-opacity:1;fill-rule:nonzero;stroke:none"
             id="path180"
             inkscape:connector-curvature="0" /></g></g></g><g
       id="g182"><g
         id="g184"
         clip-path="url(#clipPath186)"><g
           id="g190"
           transform="translate(501.9852,2052.9978)"><path
             d="M 0,0 C 0,0 -13.031,-36.42 0,-77.519 L 868.965,-78.632 868.965,0 0,0 Z"
             style="fill:#ffffff;fill-opacity:1;fill-rule:nonzero;stroke:none"
             id="path192"
             inkscape:connector-curvature="0" /></g></g></g><text
       transform="matrix(1,0,0,-1,909.1924,2063.8691)"
       style="font-variant:normal;font-weight:bold;font-stretch:normal;font-size:26.00670052px;font-family:Helvetica;-inkscape-font-specification:Helvetica-Bold;writing-mode:lr-tb;fill:#ffffff;fill-opacity:1;fill-rule:nonzero;stroke:none"
       id="text194"><tspan
         x="0 15.890094 30.349819 44.809544 59.269268 73.728996 88.188721 102.64845"
         y="0"
         sodipodi:role="line"
         id="tspan196">T3880028</tspan><tspan
         x="-153.95967 -138.06956 -123.60985 -109.15012 -94.690392 -80.230667 -65.770943 -51.311218"
         y="-463.8555"
         sodipodi:role="line"
         id="tspan198">T3880623</tspan><tspan
         x="-150.9949 -135.10481 -120.64508 -106.18536 -91.725632 -77.265907 -62.806179 -48.346455"
         y="-243.99486"
         sodipodi:role="line"
         id="tspan200">T3880157</tspan></text>
<g
       id="g202"><g
         id="g204"
         clip-path="url(#clipPath206)"><g
           id="g210"
           transform="translate(1308.3065,2497.2805)"><path
             d="m 0,0 -402.181,0 0,18.821 -181.641,0 0,-19.632 -403.991,0 0,-34.396 403.991,0 0,-13.178 8.91,0 0,-81.635 164.513,0 0,81.635 8.218,0 0,13.989 L 0,-34.396 0,0 Z"
             style="fill:#ffffff;fill-opacity:1;fill-rule:nonzero;stroke:none"
             id="path212"
             inkscape:connector-curvature="0" /></g><g
           id="g214"
           transform="translate(1308.3065,2281.1633)"><path
             d="m 0,0 -406.937,0 0,14.801 -171.646,0 0,-15.613 -409.23,0 0,-34.396 409.23,0 0,-7.271 7.97,-12.718 0,-85.365 155.087,0 0,86.042 8.589,14.478 0,5.646 L 0,-34.396 0,0 Z"
             style="fill:#ffffff;fill-opacity:1;fill-rule:nonzero;stroke:none"
             id="path216"
             inkscape:connector-curvature="0" /></g></g></g><text
       transform="matrix(1,0,0,-1,1075.3271,1433.1426)"
       style="font-variant:normal;font-weight:bold;font-stretch:normal;font-size:24.70089912px;font-family:Helvetica;-inkscape-font-specification:Helvetica-Bold;writing-mode:lr-tb;fill:#ffffff;fill-opacity:1;fill-rule:nonzero;stroke:none"
       id="text218"><tspan
         x="0 15.09225 28.825951 42.55965 56.29335 70.027054 83.76075 97.494453"
         y="0"
         sodipodi:role="line"
         id="tspan220">T3880038</tspan></text>
<g
       id="g222"><g
         id="g224"
         clip-path="url(#clipPath226)"><g
           id="g230"
           transform="translate(1333.3134,1437.9524)"><path
             d="m 0,0 c -3.924,-1.883 -7.786,-3.9 -11.613,-5.975 -0.86,-0.465 -1.578,-1.295 -2.195,-2.088 -1.299,-1.67 -1.363,-3.396 0.172,-4.859 1.535,-1.464 3.312,-2.769 5.184,-3.763 2.581,-1.369 5.322,-2.457 8.055,-3.507 1.005,-0.387 1.312,-0.903 1.188,-1.857 -0.597,-4.563 -1.206,-9.124 -1.778,-13.69 -0.146,-1.167 -0.927,-1.159 -1.814,-1.244 -4.232,-0.409 -8.455,-0.9 -12.341,-2.83 -3.171,-1.576 -3.817,-3.515 -2.026,-6.51 2.262,-3.783 5.714,-6.417 9.095,-9.094 2.308,-1.828 2.365,-1.803 1.522,-4.614 -0.911,-3.035 -1.971,-6.028 -2.795,-9.086 -0.441,-1.642 -1.243,-1.836 -2.813,-1.697 -4.392,0.387 -8.806,0.54 -13.214,0.711 -0.749,0.029 -1.538,-0.233 -2.264,-0.489 -2.535,-0.893 -3.509,-2.475 -2.638,-5.024 0.764,-2.238 1.761,-4.482 3.093,-6.425 2.128,-3.104 4.574,-5.997 6.98,-8.899 0.848,-1.022 1.052,-1.845 0.371,-3.043 -1.417,-2.496 -2.745,-5.045 -4.018,-7.618 -0.588,-1.192 -1.294,-1.411 -2.57,-1.091 -4.169,1.045 -8.347,2.101 -12.577,2.832 -2.018,0.349 -4.189,0.17 -6.238,-0.123 -2.453,-0.35 -3.62,-1.893 -3.169,-4.336 0.394,-2.143 1.03,-4.352 2.082,-6.241 2.18,-3.912 4.623,-7.69 7.142,-11.398 0.864,-1.271 0.871,-2.031 -0.043,-3.232 -15.142,-19.894 -33.157,-36.641 -54.338,-49.978 -15.336,-9.656 -31.635,-17.181 -48.969,-22.437 -12.222,-3.707 -24.687,-6.209 -37.401,-7.56 -10.222,-1.086 -20.463,-1.384 -30.707,-0.94 -12.571,0.545 -25.005,2.233 -37.285,5.107 -16.221,3.797 -31.709,9.525 -46.526,17.09 -3.406,1.738 -6.669,3.75 -10.036,5.566 -0.974,0.525 -1.183,1.074 -0.911,2.149 0.909,3.578 1.872,7.159 2.453,10.797 0.331,2.074 0.22,4.307 -0.157,6.384 -0.502,2.762 -2.33,3.853 -5.062,2.999 -2.776,-0.868 -5.499,-2.014 -8.089,-3.343 -2.439,-1.253 -4.72,-2.838 -6.981,-4.406 -1.081,-0.749 -1.847,-0.71 -2.827,0.122 -2.097,1.782 -4.244,3.51 -6.434,5.177 -0.955,0.727 -0.74,1.334 -0.352,2.288 1.91,4.686 3.807,9.384 5.483,14.156 0.516,1.468 0.531,3.203 0.403,4.785 -0.202,2.504 -1.581,3.516 -4.102,3.507 -4.319,-0.014 -8.165,-1.726 -12.027,-3.345 -2.094,-0.878 -4.148,-1.865 -6.158,-2.921 -1.077,-0.567 -1.751,-0.552 -2.579,0.469 -1.994,2.459 -4.111,4.819 -6.219,7.182 -0.823,0.922 -0.817,1.587 0.025,2.59 3.543,4.218 6.871,8.601 9.158,13.667 2.363,5.234 0.738,7.963 -4.96,8.176 -5.739,0.215 -11.326,-0.91 -16.814,-2.404 -2.088,-0.569 -3.181,-0.144 -4.093,1.747 -0.984,2.041 -2.165,3.994 -3.364,5.92 -0.657,1.056 -0.502,1.689 0.352,2.606 3.3,3.543 6.603,7.098 9.636,10.865 1.311,1.628 2.196,3.708 2.86,5.719 0.757,2.293 -0.111,4.098 -2.439,4.578 -3.304,0.682 -6.724,1.059 -10.097,1.077 -3.398,0.018 -6.801,-0.543 -10.198,-0.894 -0.947,-0.098 -1.536,0.03 -1.891,1.09 -1.501,4.465 -3.074,8.908 -4.677,13.338 -0.39,1.08 0.256,1.315 0.981,1.714 3.663,2.017 7.374,3.965 10.916,6.179 1.586,0.993 2.969,2.427 4.175,3.884 1.868,2.258 1.681,4.49 -0.828,5.925 -3.132,1.793 -6.49,3.276 -9.899,4.471 -3.201,1.122 -6.611,1.638 -9.89,2.558 -0.619,0.174 -1.433,0.934 -1.52,1.519 -0.805,5.431 -1.741,10.865 -2.111,16.334 -0.49,7.268 -0.744,14.572 -0.656,21.855 0.07,5.845 0.777,11.682 1.24,17.52 0.854,10.77 3.124,21.286 5.955,31.676 2.947,10.811 6.651,21.386 11.704,31.395 4.09,8.101 8.301,16.185 13.099,23.877 11.858,19.011 26.788,35.381 44.286,49.36 14.102,11.266 29.449,20.49 46.057,27.637 9.928,4.272 20.11,7.719 30.543,10.499 1.421,0.378 1.952,-0.053 2.684,-1.172 2.451,-3.747 5.025,-7.416 7.643,-11.049 0.613,-0.852 1.541,-1.507 2.405,-2.143 2.358,-1.732 4.8,-1.553 6.092,1.038 1.688,3.383 2.826,7.056 4.017,10.665 0.614,1.86 0.903,3.841 1.195,5.789 0.149,1.002 0.501,1.477 1.534,1.573 2.979,0.279 5.953,0.613 8.926,0.961 1.056,0.124 1.391,-0.445 1.787,-1.312 2.088,-4.555 4.159,-9.124 6.483,-13.559 0.741,-1.412 2.14,-2.549 3.42,-3.589 1.332,-1.083 3.004,-0.943 4.064,0.311 1.642,1.944 3.284,4.002 4.367,6.277 1.636,3.436 2.845,7.08 4.118,10.678 0.406,1.149 0.91,1.66 2.172,1.542 3.457,-0.324 6.922,-0.587 10.388,-0.803 1.08,-0.067 1.325,-0.573 1.515,-1.553 0.87,-4.454 1.748,-8.913 2.861,-13.31 0.396,-1.571 1.298,-3.091 2.258,-4.428 1.427,-1.987 3.248,-2.157 5.336,-0.836 3.487,2.205 5.706,5.578 8.04,8.82 1.359,1.889 2.537,3.913 3.72,5.922 0.569,0.963 1.182,1.332 2.328,1.003 2.929,-0.838 5.873,-1.633 8.842,-2.315 1.316,-0.302 1.693,-0.952 1.719,-2.24 0.107,-5.328 0.299,-10.661 2.087,-15.764 0.311,-0.891 0.791,-1.748 1.328,-2.527 1.129,-1.636 2.637,-2.273 4.347,-1.347 2.076,1.124 4.142,2.465 5.795,4.128 2.898,2.916 5.478,6.149 8.267,9.336 13.653,-5.718 26.386,-12.95 38.319,-21.574 16.725,-12.085 31.284,-26.369 43.699,-42.88 10.498,-13.962 19.001,-29.027 25.608,-45.164 C -7.189,58.111 -2.973,43.087 -0.776,27.577 0.405,19.232 0.772,10.773 1.553,2.37 1.675,1.065 1.14,0.548 0,0 m 58.47,20.902 c -1.019,0 -1.733,-0.002 -2.447,10e-4 -6.659,0.022 -13.318,0.021 -19.976,0.113 -0.594,0.008 -1.476,0.497 -1.701,0.998 -0.375,0.835 -0.317,1.862 -0.461,2.806 -0.933,6.079 -1.624,12.21 -2.872,18.224 -1.492,7.181 -3.1,14.377 -5.314,21.359 -2.792,8.81 -6.186,17.432 -9.451,26.086 -0.998,2.647 -1.176,2.709 1.345,4.172 3.413,1.98 6.858,3.903 10.28,5.868 2.74,1.573 5.465,3.172 8.329,4.836 -8.088,14.202 -16.089,28.253 -24.128,42.37 -0.694,-0.354 -1.176,-0.573 -1.633,-0.836 -6.069,-3.481 -12.156,-6.934 -18.185,-10.482 -1.255,-0.739 -1.985,-0.586 -2.818,0.549 -7.615,10.384 -16.037,20.058 -25.33,28.986 -7.689,7.387 -15.657,14.431 -24.332,20.647 -2.038,1.461 -2.051,1.486 -0.771,3.67 3.476,5.926 6.874,11.898 10.411,17.788 0.83,1.381 0.43,1.899 -0.781,2.596 -7.974,4.594 -15.911,9.249 -23.86,13.886 -5.464,3.188 -10.927,6.378 -16.528,9.646 -0.649,-1.07 -1.247,-2.023 -1.814,-2.994 -3.321,-5.681 -6.654,-11.354 -9.934,-17.058 -0.667,-1.158 -1.263,-1.641 -2.672,-0.967 -2.314,1.108 -4.748,1.972 -7.139,2.92 -16.34,6.488 -33.207,11.031 -50.602,13.588 -4.123,0.606 -8.261,1.113 -12.386,1.664 -0.087,0.692 -0.215,1.224 -0.212,1.756 0.039,7.189 0.099,14.377 0.148,21.565 0.005,0.773 -0.028,1.281 -0.176,1.598 l 0,0.446 -39.183,0 c -3.04,0.043 -6.099,0 -9.31,0 l 0,-1.842 c -0.001,-0.047 -0.001,-0.094 -0.001,-0.141 -0.07,-7.309 -0.18,-14.619 -0.181,-21.928 0,-1.423 -0.513,-1.805 -1.837,-1.972 -5.279,-0.668 -10.575,-1.282 -15.805,-2.241 -18.118,-3.324 -35.623,-8.698 -52.5,-16.089 -1.223,-0.535 -1.898,-0.399 -2.58,0.822 -3.613,6.463 -7.328,12.871 -10.944,19.333 -0.646,1.156 -1.18,1.345 -2.362,0.664 -9.902,-5.705 -19.843,-11.343 -29.764,-17.014 -3.68,-2.104 -7.341,-4.244 -11.147,-6.447 0.389,-0.733 0.678,-1.307 0.996,-1.866 3.667,-6.448 7.325,-12.901 11.019,-19.333 0.594,-1.032 0.526,-1.688 -0.546,-2.359 -1.161,-0.728 -2.184,-1.674 -3.28,-2.507 -15.284,-11.63 -28.894,-24.975 -40.926,-39.937 -2.321,-2.887 -4.579,-5.825 -6.916,-8.804 -0.545,0.281 -1.025,0.504 -1.481,0.769 -6.415,3.723 -12.842,7.428 -19.227,11.203 -1.204,0.712 -1.82,0.778 -2.624,-0.612 -6.297,-10.878 -12.688,-21.701 -19.048,-32.542 -1.539,-2.623 -3.069,-5.25 -4.687,-8.02 0.703,-0.456 1.276,-0.861 1.881,-1.214 6.25,-3.652 12.485,-7.329 18.774,-10.913 1.399,-0.797 1.615,-1.547 0.948,-3.008 -5.83,-12.763 -10.338,-26.008 -13.431,-39.672 -2.066,-9.129 -3.453,-18.415 -4.965,-27.66 -0.301,-1.836 -1.025,-2.148 -2.625,-2.131 -7.017,0.077 -14.034,0.059 -21.053,0.074 -0.756,0.002 -1.511,0.001 -2.526,0.001 l 0,-48.768 c 0.474,-0.032 1,-0.099 1.526,-0.1 6.78,-0.018 13.559,-0.037 20.338,-0.032 3.825,0.002 3.63,-0.006 4.176,-3.776 1.157,-7.985 2.269,-15.994 3.889,-23.892 2.827,-13.789 7.094,-27.164 12.582,-40.139 0.525,-1.242 0.994,-2.508 1.528,-3.86 -7.421,-4.258 -14.677,-8.42 -22.027,-12.638 1.122,-1.931 2.151,-3.677 3.156,-5.438 6.641,-11.644 13.302,-23.279 19.89,-34.954 0.858,-1.52 1.523,-1.845 3.143,-0.886 5.921,3.506 11.947,6.834 17.927,10.241 2.192,1.249 2.065,1.166 3.689,-0.811 6.536,-7.954 12.883,-16.09 19.808,-23.695 8.842,-9.708 18.76,-18.311 29.306,-26.159 1,-0.743 1.175,-1.409 0.512,-2.526 -3.085,-5.196 -6.098,-10.436 -9.128,-15.665 -0.825,-1.425 -1.618,-2.869 -2.52,-4.471 14.156,-8.231 28.085,-16.331 42.076,-24.466 4.268,7.26 8.404,14.297 12.566,21.378 23.113,-10.375 46.991,-16.869 72.055,-19.578 l 0,-24.22 48.691,0 0,23.821 c 3.328,0.41 6.299,0.733 9.258,1.151 2.939,0.416 5.863,0.927 8.718,1.385 0.988,11.135 5.423,17.265 13.354,18.691 3.827,0.688 7.504,0.267 11.009,-1.493 4.183,-2.1 6.875,-5.461 8.209,-9.534 0.608,0.343 1.125,0.725 1.703,0.948 6.301,2.427 12.629,4.784 18.906,7.272 1.368,0.543 2.013,0.269 2.695,-0.963 2.692,-4.863 5.467,-9.681 8.223,-14.509 0.845,-1.482 1.729,-2.942 2.632,-4.471 6.45,3.687 12.679,7.241 18.904,10.805 7.42,4.249 14.829,8.517 22.263,12.742 0.856,0.486 1.135,0.911 0.572,1.816 -0.756,1.217 -1.409,2.498 -2.107,3.752 -2.601,4.682 -5.027,9.476 -7.896,13.988 -1.102,1.733 -0.798,2.273 0.618,3.293 9.623,6.935 18.526,14.724 26.976,23.035 8.546,8.407 16.334,17.482 23.504,27.081 0.866,1.16 1.508,1.394 2.755,0.622 2.594,-1.605 5.275,-3.068 7.914,-4.599 3.657,-2.119 7.308,-4.246 11.047,-6.421 8.279,14.105 16.462,28.048 24.706,42.095 -0.633,0.416 -1.059,0.722 -1.509,0.988 -5.87,3.459 -11.729,6.94 -17.63,10.345 -1.104,0.636 -1.294,1.158 -0.801,2.383 2.719,6.749 5.476,13.492 7.921,20.343 3.597,10.079 6.203,20.448 8.099,30.976 1.038,5.755 1.783,11.563 2.57,17.36 0.217,1.601 0.614,2.36 2.523,2.313 6.465,-0.158 12.937,-0.069 19.406,-0.07 2.358,0 2.386,0.005 2.4,2.301 0.08,13.418 0.147,26.836 0.215,40.254 0.01,2.058 10e-4,4.116 10e-4,6.34"
             style="fill:#ffffff;fill-opacity:1;fill-rule:nonzero;stroke:none"
             id="path232"
             inkscape:connector-curvature="0" /></g></g></g><text
       transform="matrix(1,0,0,-1,1021.2612,1071.791)"
       style="font-variant:normal;font-weight:bold;font-stretch:normal;font-size:26.00670052px;font-family:Helvetica;-inkscape-font-specification:Helvetica-Bold;writing-mode:lr-tb;fill:#ffffff;fill-opacity:1;fill-rule:nonzero;stroke:none"
       id="text234"><tspan
         x="0 15.890094 30.349819 44.809544 59.269268 73.728996 88.188721 102.64845"
         y="0"
         sodipodi:role="line"
         id="tspan236">T3880027</tspan></text>
<g
       id="g238"><g
         id="g240"
         clip-path="url(#clipPath242)"><g
           id="g246"
           transform="translate(446.8192,2301.7854)"><path
             d="m 0,0 -28.347,0 c -1.559,0 -2.835,1.276 -2.835,2.835 l 0,28.346 c 0,1.559 1.276,2.835 2.835,2.835 l 28.347,0 c 1.559,0 2.834,-1.276 2.834,-2.835 l 0,-28.346 C 2.834,1.276 1.559,0 0,0"
             style="fill:#ffffff;fill-opacity:1;fill-rule:nonzero;stroke:none"
             id="path248"
             inkscape:connector-curvature="0" /></g><g
           id="g250"
           transform="translate(554.535,2301.7854)"><path
             d="m 0,0 -28.346,0 c -1.559,0 -2.835,1.276 -2.835,2.835 l 0,28.346 c 0,1.559 1.276,2.835 2.835,2.835 l 28.346,0 c 1.56,0 2.835,-1.276 2.835,-2.835 l 0,-28.346 C 2.835,1.276 1.56,0 0,0"
             style="fill:#ffffff;fill-opacity:1;fill-rule:nonzero;stroke:none"
             id="path252"
             inkscape:connector-curvature="0" /></g><g
           id="g254"
           transform="translate(1093.118,2301.7854)"><path
             d="m 0,0 -28.347,0 c -1.558,0 -2.834,1.276 -2.834,2.835 l 0,28.346 c 0,1.559 1.276,2.835 2.834,2.835 l 28.347,0 c 1.559,0 2.835,-1.276 2.835,-2.835 l 0,-28.346 C 2.835,1.276 1.559,0 0,0"
             style="fill:#ffffff;fill-opacity:1;fill-rule:nonzero;stroke:none"
             id="path256"
             inkscape:connector-curvature="0" /></g><g
           id="g258"
           transform="translate(1200.8348,2301.7854)"><path
             d="m 0,0 -28.347,0 c -1.559,0 -2.835,1.276 -2.835,2.835 l 0,28.346 c 0,1.559 1.276,2.835 2.835,2.835 l 28.347,0 c 1.559,0 2.834,-1.276 2.834,-2.835 l 0,-28.346 C 2.834,1.276 1.559,0 0,0"
             style="fill:#ffffff;fill-opacity:1;fill-rule:nonzero;stroke:none"
             id="path260"
             inkscape:connector-curvature="0" /></g><g
           id="g262"
           transform="translate(446.8192,2517.2185)"><path
             d="m 0,0 -28.347,0 c -1.559,0 -2.835,1.276 -2.835,2.835 l 0,28.346 c 0,1.559 1.276,2.835 2.835,2.835 l 28.347,0 c 1.559,0 2.834,-1.276 2.834,-2.835 l 0,-28.346 C 2.834,1.276 1.559,0 0,0"
             style="fill:#ffffff;fill-opacity:1;fill-rule:nonzero;stroke:none"
             id="path264"
             inkscape:connector-curvature="0" /></g><g
           id="g266"
           transform="translate(554.535,2517.2185)"><path
             d="m 0,0 -28.346,0 c -1.559,0 -2.835,1.276 -2.835,2.835 l 0,28.346 c 0,1.559 1.276,2.835 2.835,2.835 l 28.346,0 c 1.56,0 2.835,-1.276 2.835,-2.835 l 0,-28.346 C 2.835,1.276 1.56,0 0,0"
             style="fill:#ffffff;fill-opacity:1;fill-rule:nonzero;stroke:none"
             id="path268"
             inkscape:connector-curvature="0" /></g><g
           id="g270"
           transform="translate(1093.118,2517.2185)"><path
             d="m 0,0 -28.347,0 c -1.558,0 -2.834,1.276 -2.834,2.835 l 0,28.346 c 0,1.559 1.276,2.835 2.834,2.835 l 28.347,0 c 1.559,0 2.835,-1.276 2.835,-2.835 l 0,-28.346 C 2.835,1.276 1.559,0 0,0"
             style="fill:#ffffff;fill-opacity:1;fill-rule:nonzero;stroke:none"
             id="path272"
             inkscape:connector-curvature="0" /></g><g
           id="g274"
           transform="translate(1200.8348,2517.2185)"><path
             d="m 0,0 -28.347,0 c -1.559,0 -2.835,1.276 -2.835,2.835 l 0,28.346 c 0,1.559 1.276,2.835 2.835,2.835 l 28.347,0 c 1.559,0 2.834,-1.276 2.834,-2.835 l 0,-28.346 C 2.834,1.276 1.559,0 0,0"
             style="fill:#ffffff;fill-opacity:1;fill-rule:nonzero;stroke:none"
             id="path276"
             inkscape:connector-curvature="0" /></g><g
           id="g278"
           transform="translate(877.4784,1009.3864)"><path
             d="m 0,0 -28.347,0 c -1.558,0 -2.835,1.276 -2.835,2.835 l 0,28.346 c 0,1.559 1.277,2.835 2.835,2.835 l 28.347,0 c 1.559,0 2.834,-1.276 2.834,-2.835 l 0,-28.346 C 2.834,1.276 1.559,0 0,0"
             style="fill:#ffffff;fill-opacity:1;fill-rule:nonzero;stroke:none"
             id="path280"
             inkscape:connector-curvature="0" /></g><g
           id="g282"
           transform="translate(985.2655,1009.3864)"><path
             d="m 0,0 -28.346,0 c -1.559,0 -2.835,1.276 -2.835,2.835 l 0,28.346 c 0,1.559 1.276,2.835 2.835,2.835 l 28.346,0 c 1.56,0 2.835,-1.276 2.835,-2.835 l 0,-28.346 C 2.835,1.276 1.56,0 0,0"
             style="fill:#ffffff;fill-opacity:1;fill-rule:nonzero;stroke:none"
             id="path284"
             inkscape:connector-curvature="0" /></g><g
           id="g286"
           transform="translate(1200.7596,1009.3864)"><path
             d="m 0,0 -28.347,0 c -1.559,0 -2.835,1.276 -2.835,2.835 l 0,28.346 c 0,1.559 1.276,2.835 2.835,2.835 l 28.347,0 c 1.559,0 2.834,-1.276 2.834,-2.835 l 0,-28.346 C 2.834,1.276 1.559,0 0,0"
             style="fill:#ffffff;fill-opacity:1;fill-rule:nonzero;stroke:none"
             id="path288"
             inkscape:connector-curvature="0" /></g><g
           id="g290"
           transform="translate(1308.5468,1009.3864)"><path
             d="m 0,0 -28.347,0 c -1.558,0 -2.834,1.276 -2.834,2.835 l 0,28.346 c 0,1.559 1.276,2.835 2.834,2.835 l 28.347,0 c 1.56,0 2.835,-1.276 2.835,-2.835 l 0,-28.346 C 2.835,1.276 1.56,0 0,0"
             style="fill:#ffffff;fill-opacity:1;fill-rule:nonzero;stroke:none"
             id="path292"
             inkscape:connector-curvature="0" /></g><g
           id="g294"
           transform="translate(661.9452,2086.2634)"><path
             d="m 0,0 -28.347,0 c -1.558,0 -2.835,1.275 -2.835,2.834 l 0,28.347 c 0,1.559 1.277,2.835 2.835,2.835 l 28.347,0 c 1.559,0 2.835,-1.276 2.835,-2.835 l 0,-28.347 C 2.835,1.275 1.559,0 0,0"
             style="fill:#ffffff;fill-opacity:1;fill-rule:nonzero;stroke:none"
             id="path296"
             inkscape:connector-curvature="0" /></g><g
           id="g298"
           transform="translate(769.7333,2086.2634)"><path
             d="m 0,0 -28.347,0 c -1.559,0 -2.835,1.275 -2.835,2.834 l 0,28.347 c 0,1.559 1.276,2.835 2.835,2.835 l 28.347,0 c 1.559,0 2.834,-1.276 2.834,-2.835 l 0,-28.347 C 2.834,1.275 1.559,0 0,0"
             style="fill:#ffffff;fill-opacity:1;fill-rule:nonzero;stroke:none"
             id="path300"
             inkscape:connector-curvature="0" /></g><g
           id="g302"
           transform="translate(1308.244,2086.2634)"><path
             d="m 0,0 -28.346,0 c -1.559,0 -2.835,1.275 -2.835,2.834 l 0,28.347 c 0,1.559 1.276,2.835 2.835,2.835 l 28.346,0 c 1.56,0 2.835,-1.276 2.835,-2.835 l 0,-28.347 C 2.835,1.275 1.56,0 0,0"
             style="fill:#ffffff;fill-opacity:1;fill-rule:nonzero;stroke:none"
             id="path304"
             inkscape:connector-curvature="0" /></g><g
           id="g306"
           transform="translate(1200.5067,2086.2634)"><path
             d="m 0,0 -28.347,0 c -1.558,0 -2.834,1.275 -2.834,2.834 l 0,28.347 c 0,1.559 1.276,2.835 2.834,2.835 l 28.347,0 c 1.56,0 2.835,-1.276 2.835,-2.835 l 0,-28.347 C 2.835,1.275 1.56,0 0,0"
             style="fill:#ffffff;fill-opacity:1;fill-rule:nonzero;stroke:none"
             id="path308"
             inkscape:connector-curvature="0" /></g><g
           id="g310"
           transform="translate(123.3758,147.2795)"><path
             d="m 0,0 -28.347,0 c -1.559,0 -2.835,1.276 -2.835,2.835 l 0,28.346 c 0,1.559 1.276,2.835 2.835,2.835 l 28.347,0 c 1.559,0 2.834,-1.276 2.834,-2.835 l 0,-28.346 C 2.834,1.276 1.559,0 0,0"
             style="fill:#ffffff;fill-opacity:1;fill-rule:nonzero;stroke:none"
             id="path312"
             inkscape:connector-curvature="0" /></g><g
           id="g314"
           transform="translate(231.0917,147.2795)"><path
             d="m 0,0 -28.346,0 c -1.559,0 -2.835,1.276 -2.835,2.835 l 0,28.346 c 0,1.559 1.276,2.835 2.835,2.835 l 28.346,0 c 1.56,0 2.835,-1.276 2.835,-2.835 l 0,-28.346 C 2.835,1.276 1.56,0 0,0"
             style="fill:#ffffff;fill-opacity:1;fill-rule:nonzero;stroke:none"
             id="path316"
             inkscape:connector-curvature="0" /></g><g
           id="g318"
           transform="translate(446.5341,147.2795)"><path
             d="m 0,0 -28.346,0 c -1.559,0 -2.835,1.276 -2.835,2.835 l 0,28.346 c 0,1.559 1.276,2.835 2.835,2.835 l 28.346,0 c 1.56,0 2.835,-1.276 2.835,-2.835 l 0,-28.346 C 2.835,1.276 1.56,0 0,0"
             style="fill:#ffffff;fill-opacity:1;fill-rule:nonzero;stroke:none"
             id="path320"
             inkscape:connector-curvature="0" /></g><g
           id="g322"
           transform="translate(554.2509,147.2795)"><path
             d="m 0,0 -28.347,0 c -1.558,0 -2.834,1.276 -2.834,2.835 l 0,28.346 c 0,1.559 1.276,2.835 2.834,2.835 l 28.347,0 c 1.56,0 2.835,-1.276 2.835,-2.835 l 0,-28.346 C 2.835,1.276 1.56,0 0,0"
             style="fill:#ffffff;fill-opacity:1;fill-rule:nonzero;stroke:none"
             id="path324"
             inkscape:connector-curvature="0" /></g><g
           id="g326"
           transform="translate(769.6239,147.6521)"><path
             d="m 0,0 -28.347,0 c -1.558,0 -2.834,1.275 -2.834,2.834 l 0,28.347 c 0,1.559 1.276,2.835 2.834,2.835 l 28.347,0 c 1.56,0 2.835,-1.276 2.835,-2.835 l 0,-28.347 C 2.835,1.275 1.56,0 0,0"
             style="fill:#ffffff;fill-opacity:1;fill-rule:nonzero;stroke:none"
             id="path328"
             inkscape:connector-curvature="0" /></g><g
           id="g330"
           transform="translate(877.3407,147.6521)"><path
             d="m 0,0 -28.347,0 c -1.558,0 -2.835,1.275 -2.835,2.834 l 0,28.347 c 0,1.559 1.277,2.835 2.835,2.835 l 28.347,0 c 1.559,0 2.835,-1.276 2.835,-2.835 l 0,-28.347 C 2.835,1.275 1.559,0 0,0"
             style="fill:#ffffff;fill-opacity:1;fill-rule:nonzero;stroke:none"
             id="path332"
             inkscape:connector-curvature="0" /></g><g
           id="g334"
           transform="translate(1092.8729,147.6521)"><path
             d="m 0,0 -28.347,0 c -1.558,0 -2.834,1.275 -2.834,2.834 l 0,28.347 c 0,1.559 1.276,2.835 2.834,2.835 l 28.347,0 c 1.56,0 2.835,-1.276 2.835,-2.835 l 0,-28.347 C 2.835,1.275 1.56,0 0,0"
             style="fill:#ffffff;fill-opacity:1;fill-rule:nonzero;stroke:none"
             id="path336"
             inkscape:connector-curvature="0" /></g><g
           id="g338"
           transform="translate(1200.5897,147.6521)"><path
             d="m 0,0 -28.347,0 c -1.558,0 -2.835,1.275 -2.835,2.834 l 0,28.347 c 0,1.559 1.277,2.835 2.835,2.835 l 28.347,0 c 1.559,0 2.835,-1.276 2.835,-2.835 l 0,-28.347 C 2.835,1.275 1.559,0 0,0"
             style="fill:#ffffff;fill-opacity:1;fill-rule:nonzero;stroke:none"
             id="path340"
             inkscape:connector-curvature="0" /></g><g
           id="g342"
           transform="translate(338.7811,793.6242)"><path
             d="m 0,0 -28.346,0 c -1.559,0 -2.835,1.275 -2.835,2.834 l 0,28.347 c 0,1.559 1.276,2.835 2.835,2.835 l 28.346,0 c 1.56,0 2.835,-1.276 2.835,-2.835 l 0,-28.347 C 2.835,1.275 1.56,0 0,0"
             style="fill:#ffffff;fill-opacity:1;fill-rule:nonzero;stroke:none"
             id="path344"
             inkscape:connector-curvature="0" /></g><g
           id="g346"
           transform="translate(446.4979,793.6242)"><path
             d="m 0,0 -28.347,0 c -1.558,0 -2.834,1.275 -2.834,2.834 l 0,28.347 c 0,1.559 1.276,2.835 2.834,2.835 l 28.347,0 c 1.56,0 2.835,-1.276 2.835,-2.835 l 0,-28.347 C 2.835,1.275 1.56,0 0,0"
             style="fill:#ffffff;fill-opacity:1;fill-rule:nonzero;stroke:none"
             id="path348"
             inkscape:connector-curvature="0" /></g><g
           id="g350"
           transform="translate(554.2147,793.6242)"><path
             d="m 0,0 -28.347,0 c -1.558,0 -2.835,1.275 -2.835,2.834 l 0,28.347 c 0,1.559 1.277,2.835 2.835,2.835 l 28.347,0 c 1.559,0 2.835,-1.276 2.835,-2.835 l 0,-28.347 C 2.835,1.275 1.559,0 0,0"
             style="fill:#ffffff;fill-opacity:1;fill-rule:nonzero;stroke:none"
             id="path352"
             inkscape:connector-curvature="0" /></g><g
           id="g354"
           transform="translate(662.0018,793.6242)"><path
             d="m 0,0 -28.346,0 c -1.559,0 -2.835,1.275 -2.835,2.834 l 0,28.347 c 0,1.559 1.276,2.835 2.835,2.835 l 28.346,0 c 1.56,0 2.835,-1.276 2.835,-2.835 l 0,-28.347 C 2.835,1.275 1.56,0 0,0"
             style="fill:#ffffff;fill-opacity:1;fill-rule:nonzero;stroke:none"
             id="path356"
             inkscape:connector-curvature="0" /></g><g
           id="g358"
           transform="translate(123.5087,1547.9436)"><path
             d="m 0,0 -28.347,0 c -1.558,0 -2.835,1.275 -2.835,2.834 l 0,28.347 c 0,1.559 1.277,2.835 2.835,2.835 l 28.347,0 c 1.559,0 2.835,-1.276 2.835,-2.835 l 0,-28.347 C 2.835,1.275 1.559,0 0,0"
             style="fill:#ffffff;fill-opacity:1;fill-rule:nonzero;stroke:none"
             id="path360"
             inkscape:connector-curvature="0" /></g><g
           id="g362"
           transform="translate(231.2254,1547.9436)"><path
             d="m 0,0 -28.347,0 c -1.559,0 -2.835,1.275 -2.835,2.834 l 0,28.347 c 0,1.559 1.276,2.835 2.835,2.835 l 28.347,0 c 1.559,0 2.834,-1.276 2.834,-2.835 l 0,-28.347 C 2.834,1.275 1.559,0 0,0"
             style="fill:#ffffff;fill-opacity:1;fill-rule:nonzero;stroke:none"
             id="path364"
             inkscape:connector-curvature="0" /></g><g
           id="g366"
           transform="translate(769.7538,793.6149)"><path
             d="m 0,0 -28.347,0 c -1.559,0 -2.835,1.276 -2.835,2.835 l 0,28.346 c 0,1.559 1.276,2.835 2.835,2.835 l 28.347,0 c 1.559,0 2.834,-1.276 2.834,-2.835 l 0,-28.346 C 2.834,1.276 1.559,0 0,0"
             style="fill:#ffffff;fill-opacity:1;fill-rule:nonzero;stroke:none"
             id="path368"
             inkscape:connector-curvature="0" /></g><g
           id="g370"
           transform="translate(877.4696,793.6149)"><path
             d="m 0,0 -28.346,0 c -1.559,0 -2.835,1.276 -2.835,2.835 l 0,28.346 c 0,1.559 1.276,2.835 2.835,2.835 l 28.346,0 c 1.56,0 2.835,-1.276 2.835,-2.835 l 0,-28.346 C 2.835,1.276 1.56,0 0,0"
             style="fill:#ffffff;fill-opacity:1;fill-rule:nonzero;stroke:none"
             id="path372"
             inkscape:connector-curvature="0" /></g><g
           id="g374"
           transform="translate(1092.8466,1655.3376)"><path
             d="m 0,0 -28.347,0 c -1.558,0 -2.834,1.275 -2.834,2.834 l 0,28.347 c 0,1.559 1.276,2.835 2.834,2.835 l 28.347,0 c 1.56,0 2.835,-1.276 2.835,-2.835 l 0,-28.347 C 2.835,1.275 1.56,0 0,0"
             style="fill:#ffffff;fill-opacity:1;fill-rule:nonzero;stroke:none"
             id="path376"
             inkscape:connector-curvature="0" /></g><g
           id="g378"
           transform="translate(1200.6346,1655.3376)"><path
             d="m 0,0 -28.347,0 c -1.559,0 -2.835,1.275 -2.835,2.834 l 0,28.347 c 0,1.559 1.276,2.835 2.835,2.835 l 28.347,0 c 1.559,0 2.834,-1.276 2.834,-2.835 l 0,-28.347 C 2.834,1.275 1.559,0 0,0"
             style="fill:#ffffff;fill-opacity:1;fill-rule:nonzero;stroke:none"
             id="path380"
             inkscape:connector-curvature="0" /></g><g
           id="g382"
           transform="translate(769.2635,1332.2058)"><path
             d="m 0,0 -28.347,0 c -1.558,0 -2.834,1.276 -2.834,2.835 l 0,28.346 c 0,1.559 1.276,2.835 2.834,2.835 l 28.347,0 c 1.559,0 2.835,-1.276 2.835,-2.835 l 0,-28.346 C 2.835,1.276 1.559,0 0,0"
             style="fill:#ffffff;fill-opacity:1;fill-rule:nonzero;stroke:none"
             id="path384"
             inkscape:connector-curvature="0" /></g><g
           id="g386"
           transform="translate(661.618,1332.2058)"><path
             d="m 0,0 -28.347,0 c -1.558,0 -2.834,1.276 -2.834,2.835 l 0,28.346 c 0,1.559 1.276,2.835 2.834,2.835 l 28.347,0 c 1.56,0 2.835,-1.276 2.835,-2.835 l 0,-28.346 C 2.835,1.276 1.56,0 0,0"
             style="fill:#ffffff;fill-opacity:1;fill-rule:nonzero;stroke:none"
             id="path388"
             inkscape:connector-curvature="0" /></g><g
           id="g390"
           transform="translate(338.8485,2086.4822)"><path
             d="m 0,0 -28.347,0 c -1.559,0 -2.835,1.275 -2.835,2.834 l 0,28.347 c 0,1.559 1.276,2.835 2.835,2.835 l 28.347,0 c 1.559,0 2.834,-1.276 2.834,-2.835 l 0,-28.347 C 2.834,1.275 1.559,0 0,0"
             style="fill:#ffffff;fill-opacity:1;fill-rule:nonzero;stroke:none"
             id="path392"
             inkscape:connector-curvature="0" /></g><g
           id="g394"
           transform="translate(446.6356,2086.4822)"><path
             d="m 0,0 -28.346,0 c -1.559,0 -2.835,1.275 -2.835,2.834 l 0,28.347 c 0,1.559 1.276,2.835 2.835,2.835 l 28.346,0 c 1.56,0 2.835,-1.276 2.835,-2.835 l 0,-28.347 C 2.835,1.275 1.56,0 0,0"
             style="fill:#ffffff;fill-opacity:1;fill-rule:nonzero;stroke:none"
             id="path396"
             inkscape:connector-curvature="0" /></g><g
           id="g398"
           transform="translate(661.8036,1655.7698)"><path
             d="m 0,0 -28.346,0 c -1.559,0 -2.835,1.276 -2.835,2.835 l 0,28.346 c 0,1.559 1.276,2.835 2.835,2.835 l 28.346,0 c 1.56,0 2.835,-1.276 2.835,-2.835 l 0,-28.346 C 2.835,1.276 1.56,0 0,0"
             style="fill:#ffffff;fill-opacity:1;fill-rule:nonzero;stroke:none"
             id="path400"
             inkscape:connector-curvature="0" /></g><g
           id="g402"
           transform="translate(769.5204,1655.7698)"><path
             d="m 0,0 -28.347,0 c -1.558,0 -2.834,1.276 -2.834,2.835 l 0,28.346 c 0,1.559 1.276,2.835 2.834,2.835 l 28.347,0 c 1.56,0 2.835,-1.276 2.835,-2.835 l 0,-28.346 C 2.835,1.276 1.56,0 0,0"
             style="fill:#ffffff;fill-opacity:1;fill-rule:nonzero;stroke:none"
             id="path404"
             inkscape:connector-curvature="0" /></g><g
           id="g406"
           transform="translate(1093.0692,793.8576)"><path
             d="m 0,0 -28.346,0 c -1.559,0 -2.835,1.275 -2.835,2.834 l 0,28.347 c 0,1.559 1.276,2.835 2.835,2.835 l 28.346,0 c 1.56,0 2.835,-1.276 2.835,-2.835 l 0,-28.347 C 2.835,1.275 1.56,0 0,0"
             style="fill:#ffffff;fill-opacity:1;fill-rule:nonzero;stroke:none"
             id="path408"
             inkscape:connector-curvature="0" /></g><g
           id="g410"
           transform="translate(1200.786,793.8576)"><path
             d="m 0,0 -28.347,0 c -1.558,0 -2.834,1.275 -2.834,2.834 l 0,28.347 c 0,1.559 1.276,2.835 2.834,2.835 l 28.347,0 c 1.559,0 2.835,-1.276 2.835,-2.835 l 0,-28.347 C 2.835,1.275 1.559,0 0,0"
             style="fill:#ffffff;fill-opacity:1;fill-rule:nonzero;stroke:none"
             id="path412"
             inkscape:connector-curvature="0" /></g><g
           id="g414"
           transform="translate(123.5087,2517.3923)"><path
             d="m 0,0 -28.347,0 c -1.558,0 -2.835,1.276 -2.835,2.835 l 0,28.346 c 0,1.559 1.277,2.835 2.835,2.835 l 28.347,0 c 1.559,0 2.835,-1.276 2.835,-2.835 l 0,-28.346 C 2.835,1.276 1.559,0 0,0"
             style="fill:#ffffff;fill-opacity:1;fill-rule:nonzero;stroke:none"
             id="path416"
             inkscape:connector-curvature="0" /></g><g
           id="g418"
           transform="translate(231.2254,2517.3923)"><path
             d="m 0,0 -28.347,0 c -1.559,0 -2.835,1.276 -2.835,2.835 l 0,28.346 c 0,1.559 1.276,2.835 2.835,2.835 l 28.347,0 c 1.559,0 2.834,-1.276 2.834,-2.835 l 0,-28.346 C 2.834,1.276 1.559,0 0,0"
             style="fill:#ffffff;fill-opacity:1;fill-rule:nonzero;stroke:none"
             id="path420"
             inkscape:connector-curvature="0" /></g><g
           id="g422"
           transform="translate(985.2079,1870.7712)"><path
             d="m 0,0 -28.346,0 c -1.559,0 -2.835,1.275 -2.835,2.834 l 0,28.347 c 0,1.559 1.276,2.835 2.835,2.835 l 28.346,0 c 1.56,0 2.835,-1.276 2.835,-2.835 l 0,-28.347 C 2.835,1.275 1.56,0 0,0"
             style="fill:#ffffff;fill-opacity:1;fill-rule:nonzero;stroke:none"
             id="path424"
             inkscape:connector-curvature="0" /></g><g
           id="g426"
           transform="translate(1092.996,1870.7712)"><path
             d="m 0,0 -28.347,0 c -1.558,0 -2.834,1.275 -2.834,2.834 l 0,28.347 c 0,1.559 1.276,2.835 2.834,2.835 l 28.347,0 c 1.56,0 2.835,-1.276 2.835,-2.835 l 0,-28.347 C 2.835,1.275 1.56,0 0,0"
             style="fill:#ffffff;fill-opacity:1;fill-rule:nonzero;stroke:none"
             id="path428"
             inkscape:connector-curvature="0" /></g><g
           id="g430"
           transform="translate(446.6053,1870.7917)"><path
             d="m 0,0 -28.347,0 c -1.559,0 -2.835,1.276 -2.835,2.835 l 0,28.346 c 0,1.559 1.276,2.835 2.835,2.835 l 28.347,0 c 1.559,0 2.834,-1.276 2.834,-2.835 l 0,-28.346 C 2.834,1.276 1.559,0 0,0"
             style="fill:#ffffff;fill-opacity:1;fill-rule:nonzero;stroke:none"
             id="path432"
             inkscape:connector-curvature="0" /></g><g
           id="g434"
           transform="translate(554.3925,1870.7917)"><path
             d="m 0,0 -28.347,0 c -1.558,0 -2.834,1.276 -2.834,2.835 l 0,28.346 c 0,1.559 1.276,2.835 2.834,2.835 l 28.347,0 c 1.56,0 2.835,-1.276 2.835,-2.835 l 0,-28.346 C 2.835,1.276 1.56,0 0,0"
             style="fill:#ffffff;fill-opacity:1;fill-rule:nonzero;stroke:none"
             id="path436"
             inkscape:connector-curvature="0" /></g><g
           id="g438"
           transform="translate(730.5311,2022.4641)"><path
             d="m 0,0 c 0,-15.691 -12.721,-28.412 -28.412,-28.412 -15.692,0 -28.412,12.721 -28.412,28.412 0,15.692 12.72,28.413 28.412,28.413 C -12.721,28.413 0,15.692 0,0"
             style="fill:#e30613;fill-opacity:1;fill-rule:nonzero;stroke:none"
             id="path440"
             inkscape:connector-curvature="0" /></g><g
           id="g442"
           transform="translate(1269.5673,2022.4641)"><path
             d="m 0,0 c 0,-15.691 -12.721,-28.412 -28.412,-28.412 -15.692,0 -28.412,12.721 -28.412,28.412 0,15.692 12.72,28.413 28.412,28.413 C -12.721,28.413 0,15.692 0,0"
             style="fill:#e30613;fill-opacity:1;fill-rule:nonzero;stroke:none"
             id="path444"
             inkscape:connector-curvature="0" /></g><g
           id="g446"
           transform="translate(1109.7567,945.4548)"><path
             d="m 0,0 c 0,-15.692 -12.721,-28.413 -28.412,-28.413 -15.692,0 -28.413,12.721 -28.413,28.413 0,15.692 12.721,28.412 28.413,28.412 C -12.721,28.412 0,15.692 0,0"
             style="fill:#e30613;fill-opacity:1;fill-rule:nonzero;stroke:none"
             id="path448"
             inkscape:connector-curvature="0" /></g><g
           id="g450"
           transform="translate(190.703,2449.8889)"><path
             d="m 0,0 c 0,-15.692 -12.721,-28.413 -28.413,-28.413 -15.691,0 -28.412,12.721 -28.412,28.413 0,15.692 12.721,28.413 28.412,28.413 C -12.721,28.413 0,15.692 0,0"
             style="fill:#e30613;fill-opacity:1;fill-rule:nonzero;stroke:none"
             id="path452"
             inkscape:connector-curvature="0" /></g><g
           id="g454"
           transform="translate(1161.3583,724.4377)"><path
             d="m 0,0 c 0,-15.692 -12.721,-28.413 -28.413,-28.413 -15.691,0 -28.412,12.721 -28.412,28.413 0,15.691 12.721,28.412 28.412,28.412 C -12.721,28.412 0,15.691 0,0"
             style="fill:#e30613;fill-opacity:1;fill-rule:nonzero;stroke:none"
             id="path456"
             inkscape:connector-curvature="0" /></g><g
           id="g458"
           transform="translate(1160.9442,1591.572)"><path
             d="m 0,0 c 0,-15.691 -12.721,-28.412 -28.413,-28.412 -15.691,0 -28.412,12.721 -28.412,28.412 0,15.692 12.721,28.413 28.412,28.413 C -12.721,28.413 0,15.692 0,0"
             style="fill:#e30613;fill-opacity:1;fill-rule:nonzero;stroke:none"
             id="path460"
             inkscape:connector-curvature="0" /></g><g
           id="g462"
           transform="translate(190.703,1484.0061)"><path
             d="m 0,0 c 0,-15.691 -12.721,-28.412 -28.413,-28.412 -15.691,0 -28.412,12.721 -28.412,28.412 0,15.692 12.721,28.413 28.412,28.413 C -12.721,28.413 0,15.692 0,0"
             style="fill:#e30613;fill-opacity:1;fill-rule:nonzero;stroke:none"
             id="path464"
             inkscape:connector-curvature="0" /></g><g
           id="g466"
           transform="translate(408.3134,727.381)"><path
             d="m 0,0 c 0,-15.692 -12.721,-28.412 -28.412,-28.412 -15.692,0 -28.412,12.72 -28.412,28.412 0,15.692 12.72,28.413 28.412,28.413 C -12.721,28.413 0,15.692 0,0"
             style="fill:#e30613;fill-opacity:1;fill-rule:nonzero;stroke:none"
             id="path468"
             inkscape:connector-curvature="0" /></g><g
           id="g470"
           transform="translate(625.7889,727.381)"><path
             d="m 0,0 c 0,-15.692 -12.721,-28.412 -28.413,-28.412 -15.691,0 -28.412,12.72 -28.412,28.412 0,15.692 12.721,28.413 28.412,28.413 C -12.721,28.413 0,15.692 0,0"
             style="fill:#e30613;fill-opacity:1;fill-rule:nonzero;stroke:none"
             id="path472"
             inkscape:connector-curvature="0" /></g><g
           id="g474"
           transform="translate(729.7684,1266.5481)"><path
             d="m 0,0 c 0,-15.691 -12.721,-28.412 -28.413,-28.412 -15.691,0 -28.412,12.721 -28.412,28.412 0,15.692 12.721,28.413 28.412,28.413 C -12.721,28.413 0,15.692 0,0"
             style="fill:#e30613;fill-opacity:1;fill-rule:nonzero;stroke:none"
             id="path476"
             inkscape:connector-curvature="0" /></g><g
           id="g478"
           transform="translate(838.3339,729.485)"><path
             d="m 0,0 c 0,-15.691 -12.721,-28.412 -28.412,-28.412 -15.692,0 -28.413,12.721 -28.413,28.412 0,15.692 12.721,28.413 28.413,28.413 C -12.721,28.413 0,15.692 0,0"
             style="fill:#e30613;fill-opacity:1;fill-rule:nonzero;stroke:none"
             id="path480"
             inkscape:connector-curvature="0" /></g><g
           id="g482"
           transform="translate(407.1366,2019.947)"><path
             d="m 0,0 c 0,-15.692 -12.721,-28.413 -28.412,-28.413 -15.692,0 -28.412,12.721 -28.412,28.413 0,15.692 12.72,28.413 28.412,28.413 C -12.721,28.413 0,15.692 0,0"
             style="fill:#e30613;fill-opacity:1;fill-rule:nonzero;stroke:none"
             id="path484"
             inkscape:connector-curvature="0" /></g><g
           id="g486"
           transform="translate(1053.3055,1803.2673)"><path
             d="m 0,0 c 0,-15.691 -12.721,-28.412 -28.412,-28.412 -15.692,0 -28.412,12.721 -28.412,28.412 0,15.692 12.72,28.413 28.412,28.413 C -12.721,28.413 0,15.692 0,0"
             style="fill:#e30613;fill-opacity:1;fill-rule:nonzero;stroke:none"
             id="path488"
             inkscape:connector-curvature="0" /></g><g
           id="g490"
           transform="translate(515.0106,1803.2883)"><path
             d="m 0,0 c 0,-15.692 -12.721,-28.413 -28.412,-28.413 -15.692,0 -28.413,12.721 -28.413,28.413 0,15.692 12.721,28.413 28.413,28.413 C -12.721,28.413 0,15.692 0,0"
             style="fill:#e30613;fill-opacity:1;fill-rule:nonzero;stroke:none"
             id="path492"
             inkscape:connector-curvature="0" /></g><g
           id="g494"
           transform="translate(515.0399,2450.6833)"><path
             d="m 0,0 c 0,-15.692 -12.721,-28.413 -28.413,-28.413 -15.691,0 -28.412,12.721 -28.412,28.413 0,15.691 12.721,28.412 28.412,28.412 C -12.721,28.412 0,15.691 0,0"
             style="fill:#e30613;fill-opacity:1;fill-rule:nonzero;stroke:none"
             id="path496"
             inkscape:connector-curvature="0" /></g><g
           id="g498"
           transform="translate(1161.7206,2450.6833)"><path
             d="m 0,0 c 0,-15.692 -12.721,-28.413 -28.413,-28.413 -15.691,0 -28.412,12.721 -28.412,28.413 0,15.691 12.721,28.412 28.412,28.412 C -12.721,28.412 0,15.691 0,0"
             style="fill:#e30613;fill-opacity:1;fill-rule:nonzero;stroke:none"
             id="path500"
             inkscape:connector-curvature="0" /></g><g
           id="g502"
           transform="translate(515.0399,2237.866)"><path
             d="m 0,0 c 0,-15.692 -12.721,-28.413 -28.413,-28.413 -15.691,0 -28.412,12.721 -28.412,28.413 0,15.692 12.721,28.413 28.412,28.413 C -12.721,28.413 0,15.692 0,0"
             style="fill:#e30613;fill-opacity:1;fill-rule:nonzero;stroke:none"
             id="path504"
             inkscape:connector-curvature="0" /></g><g
           id="g506"
           transform="translate(1161.7206,2237.866)"><path
             d="m 0,0 c 0,-15.692 -12.721,-28.413 -28.413,-28.413 -15.691,0 -28.412,12.721 -28.412,28.413 0,15.692 12.721,28.413 28.412,28.413 C -12.721,28.413 0,15.692 0,0"
             style="fill:#e30613;fill-opacity:1;fill-rule:nonzero;stroke:none"
             id="path508"
             inkscape:connector-curvature="0" /></g><g
           id="g510"
           transform="translate(730.3846,1587.135)"><path
             d="m 0,0 c 0,-15.692 -12.721,-28.413 -28.413,-28.413 -15.691,0 -28.412,12.721 -28.412,28.413 0,15.692 12.721,28.413 28.412,28.413 C -12.721,28.413 0,15.692 0,0"
             style="fill:#e30613;fill-opacity:1;fill-rule:nonzero;stroke:none"
             id="path512"
             inkscape:connector-curvature="0" /></g></g></g><text
       transform="matrix(1,0,0,-1,1067.0127,931.1011)"
       style="font-variant:normal;font-weight:600;font-stretch:normal;font-size:42px;font-family:'TriumphBrokman DemiBold';-inkscape-font-specification:TriumphBrokman-DemiBold;writing-mode:lr-tb;fill:#ffffff;fill-opacity:1;fill-rule:nonzero;stroke:none"
       id="text514"><tspan
         x="0"
         y="0"
         id="tspan516">P</tspan><tspan
         x="-370.35599 168.672"
         y="-1077.006"
         sodipodi:role="line"
         id="tspan518">II</tspan><tspan
         x="-918.49799"
         y="-1504.4399"
         id="tspan520">N</tspan><tspan
         x="-53.633999"
         y="-857.80798"
         id="tspan522">F</tspan><tspan
         x="51.953999"
         y="221.004"
         id="tspan524">A</tspan><tspan
         x="-700.30798"
         y="-1074.486"
         id="tspan526">C</tspan><tspan
         x="-918.58197"
         y="-538.52399"
         id="tspan528">A</tspan></text>
<g
       id="g530"><g
         id="g532"
         clip-path="url(#clipPath534)"><g
           id="g538"
           transform="translate(1003.5526,76.736)"><path
             d="m 0,0 c 0,-15.692 -12.721,-28.413 -28.412,-28.413 -15.692,0 -28.413,12.721 -28.413,28.413 0,15.692 12.721,28.413 28.413,28.413 C -12.721,28.413 0,15.692 0,0"
             style="fill:#e30613;fill-opacity:1;fill-rule:nonzero;stroke:none"
             id="path540"
             inkscape:connector-curvature="0" /></g></g></g><text
       transform="matrix(1,0,0,-1,961.9727,62.3833)"
       style="font-variant:normal;font-weight:600;font-stretch:normal;font-size:42px;font-family:'TriumphBrokman DemiBold';-inkscape-font-specification:TriumphBrokman-DemiBold;writing-mode:lr-tb;fill:#ffffff;fill-opacity:1;fill-rule:nonzero;stroke:none"
       id="text542"><tspan
         x="0"
         y="0"
         id="tspan544">P</tspan></text>
<g
       id="g546"><g
         id="g548"
         clip-path="url(#clipPath550)"><g
           id="g554"
           transform="translate(351.6288,76.736)"><path
             d="m 0,0 c 0,-15.692 -12.721,-28.413 -28.413,-28.413 -15.691,0 -28.412,12.721 -28.412,28.413 0,15.692 12.721,28.413 28.412,28.413 C -12.721,28.413 0,15.692 0,0"
             style="fill:#e30613;fill-opacity:1;fill-rule:nonzero;stroke:none"
             id="path556"
             inkscape:connector-curvature="0" /></g></g></g><text
       transform="matrix(1,0,0,-1,310.0483,62.3833)"
       style="font-variant:normal;font-weight:600;font-stretch:normal;font-size:42px;font-family:'TriumphBrokman DemiBold';-inkscape-font-specification:TriumphBrokman-DemiBold;writing-mode:lr-tb;fill:#ffffff;fill-opacity:1;fill-rule:nonzero;stroke:none"
       id="text558"><tspan
         x="0"
         y="0"
         id="tspan560">P</tspan><tspan
         x="808.62598"
         y="-1514.856"
         id="tspan562">A</tspan><tspan
         x="56.574001 274.008"
         y="-650.664"
         sodipodi:role="line"
         id="tspan564">BB</tspan><tspan
         x="485.98199"
         y="-652.76398"
         id="tspan566">A</tspan><tspan
         x="378.29401"
         y="-1189.818"
         id="tspan568">B</tspan><tspan
         x="379.974"
         y="-1510.4041"
         id="tspan570">C</tspan><tspan
         x="162.75"
         y="-1726.578"
         id="tspan572">N</tspan><tspan
         x="164.64 811.02002"
         y="-2374.092"
         sodipodi:role="line"
         id="tspan574">CC</tspan><tspan
         x="164.64 811.02002"
         y="-2161.1941"
         sodipodi:role="line"
         id="tspan576">CC</tspan></text>
<g
       id="g578"><g
         id="g580"
         clip-path="url(#clipPath582)"><g
           id="g586"
           transform="translate(1370.9501,2743.0608)"><path
             d="m 0,0 c 0,-15.655 -12.691,-28.346 -28.347,-28.346 -15.655,0 -28.346,12.691 -28.346,28.346 0,15.655 12.691,28.347 28.346,28.347 C -12.691,28.347 0,15.655 0,0"
             style="fill:#e30613;fill-opacity:1;fill-rule:nonzero;stroke:none"
             id="path588"
             inkscape:connector-curvature="0" /></g></g></g><text
       transform="matrix(1,0,0,-1,1330.5918,2728.7134)"
       style="font-variant:normal;font-weight:600;font-stretch:normal;font-size:42px;font-family:'TriumphBrokman DemiBold';-inkscape-font-specification:TriumphBrokman-DemiBold;writing-mode:lr-tb;fill:#ffffff;fill-opacity:1;fill-rule:nonzero;stroke:none"
       id="text590"><tspan
         x="0"
         y="0"
         id="tspan592">4</tspan></text>
</g></svg>