<?xml version="1.0" encoding="UTF-8" standalone="no"?>
<!-- Created with Inkscape (http://www.inkscape.org/) -->

<svg
   xmlns:dc="http://purl.org/dc/elements/1.1/"
   xmlns:cc="http://creativecommons.org/ns#"
   xmlns:rdf="http://www.w3.org/1999/02/22-rdf-syntax-ns#"
   xmlns:svg="http://www.w3.org/2000/svg"
   xmlns="http://www.w3.org/2000/svg"
   xmlns:sodipodi="http://sodipodi.sourceforge.net/DTD/sodipodi-0.dtd"
   xmlns:inkscape="http://www.inkscape.org/namespaces/inkscape"
   id="svg6014"
   version="1.1"
   inkscape:version="0.91 r13725"
   xml:space="preserve"
   width="301.18124"
   height="230.315"
   viewBox="0 0 301.18124 230.315"
   sodipodi:docname="abna_3.svg"><metadata
     id="metadata6020"><rdf:RDF><cc:Work
         rdf:about=""><dc:format>image/svg+xml</dc:format><dc:type
           rdf:resource="http://purl.org/dc/dcmitype/StillImage" /><dc:title></dc:title></cc:Work></rdf:RDF></metadata><defs
     id="defs6018"><clipPath
       clipPathUnits="userSpaceOnUse"
       id="clipPath6028"><path
         d="m 0,184.252 240.945,0 L 240.945,0 0,0 0,184.252 Z"
         id="path6030"
         inkscape:connector-curvature="0" /></clipPath><clipPath
       clipPathUnits="userSpaceOnUse"
       id="clipPath6280"><path
         d="m 0,184.252 240.945,0 L 240.945,0 0,0 0,184.252 Z"
         id="path6282"
         inkscape:connector-curvature="0" /></clipPath><clipPath
       clipPathUnits="userSpaceOnUse"
       id="clipPath6308"><path
         d="m 0,184.252 240.945,0 L 240.945,0 0,0 0,184.252 Z"
         id="path6310"
         inkscape:connector-curvature="0" /></clipPath></defs><sodipodi:namedview
     pagecolor="#ffffff"
     bordercolor="#666666"
     borderopacity="1"
     objecttolerance="10"
     gridtolerance="10"
     guidetolerance="10"
     inkscape:pageopacity="0"
     inkscape:pageshadow="2"
     inkscape:window-width="640"
     inkscape:window-height="480"
     id="namedview6016"
     showgrid="false"
     inkscape:zoom="4.2072813"
     inkscape:cx="150.59062"
     inkscape:cy="115.1575"
     inkscape:window-x="0"
     inkscape:window-y="0"
     inkscape:window-maximized="1"
     inkscape:current-layer="g6022" /><g
     id="g6022"
     inkscape:groupmode="layer"
     inkscape:label="abna_3"
     transform="matrix(1.25,0,0,-1.25,0,230.315)"><g
       id="g6024"><g
         id="g6026"
         clip-path="url(#clipPath6028)"><g
           id="g6032"
           transform="translate(173.542,91.1006)"><path
             d="m 0,0 c 3.053,0.003 5.182,-0.671 5.543,-1.981 0.646,-2.346 -4.608,-5.838 -11.736,-7.801 -7.128,-1.964 -13.43,-1.655 -14.077,0.69 -0.169,0.616 0.069,1.312 0.642,2.038"
             style="fill:none;stroke:#000000;stroke-width:0.5;stroke-linecap:round;stroke-linejoin:round;stroke-miterlimit:10;stroke-dasharray:none;stroke-opacity:1"
             id="path6034"
             inkscape:connector-curvature="0" /></g><g
           id="g6036"
           transform="translate(180.7412,87.9922)"><path
             d="m 0,0 c 0.707,-2.564 -5.041,-6.385 -12.837,-8.53 -7.794,-2.148 -14.687,-1.811 -15.393,0.755"
             style="fill:none;stroke:#000000;stroke-width:0.5;stroke-linecap:round;stroke-linejoin:round;stroke-miterlimit:10;stroke-dasharray:none;stroke-opacity:1"
             id="path6038"
             inkscape:connector-curvature="0" /></g><g
           id="g6040"
           transform="translate(173.2559,91.2998)"><path
             d="m 0,0 c 5.085,0.234 6.987,-1.501 7.485,-3.308 l 0.726,-2.806 c 0.707,-2.565 -3.503,-6.806 -12.575,-9.303 -9.07,-2.499 -14.949,-1.038 -15.657,1.527 l -0.724,2.807 c -0.317,1.146 -0.141,2.557 1.175,4.048 0,0 0.721,0.565 0.438,1.417 -0.285,0.853 -2.132,7.815 -2.226,8.336 -0.095,0.521 -0.095,1.042 0.615,1.516 0.711,0.474 6.394,3.6 6.82,3.837 0.427,0.237 0.947,0.284 1.516,0.237 0.568,-0.048 1.99,-0.332 1.99,-0.332"
             style="fill:none;stroke:#000000;stroke-width:1;stroke-linecap:round;stroke-linejoin:round;stroke-miterlimit:10;stroke-dasharray:none;stroke-opacity:1"
             id="path6042"
             inkscape:connector-curvature="0" /></g><g
           id="g6044"
           transform="translate(181.4668,85.1855)"><path
             d="m 0,0 c 0.707,-2.564 -5.04,-6.385 -12.837,-8.531 -7.794,-2.147 -14.687,-1.81 -15.394,0.756"
             style="fill:none;stroke:#000000;stroke-width:0.5;stroke-linecap:round;stroke-linejoin:round;stroke-miterlimit:10;stroke-dasharray:none;stroke-opacity:1"
             id="path6046"
             inkscape:connector-curvature="0" /></g><g
           id="g6048"
           transform="translate(181.0615,69.1465)"><path
             d="M 0,0 C 0.494,-1.793 -3.525,-4.465 -8.978,-5.966 -14.43,-7.468 -19.25,-7.232 -19.744,-5.437"
             style="fill:none;stroke:#000000;stroke-width:0.5;stroke-linecap:round;stroke-linejoin:round;stroke-miterlimit:10;stroke-dasharray:none;stroke-opacity:1"
             id="path6050"
             inkscape:connector-curvature="0" /></g><g
           id="g6052"
           transform="translate(158.4336,74.5508)"><path
             d="m 0,0 c 0,0 2.463,-9.566 2.558,-10.23 0.094,-0.663 0.568,-1.232 1.326,-1.611 0.758,-0.379 5.485,-2.519 5.485,-2.519 0.86,-0.415 2.755,-0.356 4.837,0.217 2.014,0.555 3.631,1.434 4.211,2.211 0,0 3.513,4.591 3.939,5.16 0.426,0.568 0.426,1.326 0.331,1.752 C 22.593,-4.594 19.94,5.353 19.94,5.353"
             style="fill:none;stroke:#000000;stroke-width:1;stroke-linecap:round;stroke-linejoin:round;stroke-miterlimit:10;stroke-dasharray:none;stroke-opacity:1"
             id="path6054"
             inkscape:connector-curvature="0" /></g><g
           id="g6056"
           transform="translate(175.5459,61.2422)"><path
             d="m 0,0 2.383,-8.621 c 0.146,-0.531 -1.045,-1.323 -2.66,-1.768 -1.618,-0.445 -3.045,-0.376 -3.193,0.157 l -2.26,8.669"
             style="fill:none;stroke:#000000;stroke-width:1;stroke-linecap:round;stroke-linejoin:round;stroke-miterlimit:10;stroke-dasharray:none;stroke-opacity:1"
             id="path6058"
             inkscape:connector-curvature="0" /></g><g
           id="g6060"
           transform="translate(174.4443,87.0332)"><path
             d="m 0,0 c 0.247,-0.898 -1.765,-2.235 -4.494,-2.987 -2.729,-0.752 -5.143,-0.634 -5.391,0.264"
             style="fill:none;stroke:#000000;stroke-width:0.5;stroke-linecap:round;stroke-linejoin:round;stroke-miterlimit:10;stroke-dasharray:none;stroke-opacity:1"
             id="path6062"
             inkscape:connector-curvature="0" /></g><g
           id="g6064"
           transform="translate(172.6045,93.2754)"><path
             d="m 0,0 c 0.248,-0.898 -1.764,-2.235 -4.494,-2.986 -2.729,-0.753 -5.142,-0.635 -5.39,0.263 -0.008,0.03 -0.014,0.061 -0.018,0.093"
             style="fill:none;stroke:#000000;stroke-width:0.5;stroke-linecap:round;stroke-linejoin:round;stroke-miterlimit:10;stroke-dasharray:none;stroke-opacity:1"
             id="path6066"
             inkscape:connector-curvature="0" /></g><g
           id="g6068"
           transform="translate(164.4189,92.9736)"><path
             d="M 0,0 C -1.212,-0.81 -1.797,-1.737 -1.717,-2.328 L 0.141,-8.663"
             style="fill:none;stroke:#000000;stroke-width:1;stroke-linecap:round;stroke-linejoin:round;stroke-miterlimit:10;stroke-dasharray:none;stroke-opacity:1"
             id="path6070"
             inkscape:connector-curvature="0" /></g><g
           id="g6072"
           transform="translate(174.4443,87.0332)"><path
             d="M 0,0 -1.84,6.242 C -2.001,6.83 -2.975,7.394 -4.5,7.474"
             style="fill:none;stroke:#000000;stroke-width:1;stroke-linecap:round;stroke-linejoin:round;stroke-miterlimit:10;stroke-dasharray:none;stroke-opacity:1"
             id="path6074"
             inkscape:connector-curvature="0" /></g><g
           id="g6076"
           transform="translate(170.9443,93.8301)"><path
             d="m 0,0 c 0.174,-0.634 -1.247,-1.579 -3.176,-2.11 -1.928,-0.531 -3.632,-0.448 -3.806,0.187"
             style="fill:none;stroke:#000000;stroke-width:0.5;stroke-linecap:round;stroke-linejoin:round;stroke-miterlimit:10;stroke-dasharray:none;stroke-opacity:1"
             id="path6078"
             inkscape:connector-curvature="0" /></g><g
           id="g6080"
           transform="translate(169.8584,94.1626)"><path
             d="m 0,0 c 0.13,-0.471 -0.926,-1.172 -2.357,-1.566 -1.43,-0.394 -2.696,-0.332 -2.825,0.138"
             style="fill:none;stroke:#000000;stroke-width:0.5;stroke-linecap:round;stroke-linejoin:round;stroke-miterlimit:10;stroke-dasharray:none;stroke-opacity:1"
             id="path6082"
             inkscape:connector-curvature="0" /></g><g
           id="g6084"
           transform="translate(167.4609,103.1143)"><path
             d="M 0,0 C 0.13,-0.471 -0.925,-1.172 -2.356,-1.566 -3.787,-1.96 -5.052,-1.898 -5.183,-1.427"
             style="fill:none;stroke:#000000;stroke-width:0.5;stroke-linecap:round;stroke-linejoin:round;stroke-miterlimit:10;stroke-dasharray:none;stroke-opacity:1"
             id="path6086"
             inkscape:connector-curvature="0" /></g><g
           id="g6088"
           transform="translate(169.8584,94.1626)"><path
             d="M 0,0 -2.397,8.952 C -2.527,9.422 -3.791,9.485 -5.223,9.09 -6.654,8.696 -7.709,7.995 -7.58,7.524 l 2.398,-8.952"
             style="fill:none;stroke:#000000;stroke-width:1;stroke-linecap:round;stroke-linejoin:round;stroke-miterlimit:10;stroke-dasharray:none;stroke-opacity:1"
             id="path6090"
             inkscape:connector-curvature="0" /></g><g
           id="g6092"
           transform="translate(166.126,103.1797)"><path
             d="m 0,0 c 0.069,-0.25 -0.492,-0.623 -1.253,-0.833 -0.761,-0.209 -1.434,-0.176 -1.503,0.074 -0.068,0.25 0.492,0.623 1.254,0.833 C -0.742,0.284 -0.069,0.25 0,0 Z"
             style="fill:none;stroke:#000000;stroke-width:0.5;stroke-linecap:round;stroke-linejoin:round;stroke-miterlimit:10;stroke-dasharray:none;stroke-opacity:1"
             id="path6094"
             inkscape:connector-curvature="0" /></g><g
           id="g6096"
           transform="translate(174.4932,87.6172)"><path
             d="m 0,0 c 0.531,-0.17 0.879,-0.436 0.978,-0.793 0.315,-1.144 -2.045,-2.793 -5.272,-3.682 -3.226,-0.888 -6.098,-0.681 -6.413,0.463 -0.092,0.335 0.045,0.714 0.367,1.104"
             style="fill:none;stroke:#000000;stroke-width:0.5;stroke-linecap:round;stroke-linejoin:round;stroke-miterlimit:10;stroke-dasharray:none;stroke-opacity:1"
             id="path6098"
             inkscape:connector-curvature="0" /></g><g
           id="g6100"
           transform="translate(152.3232,95.1548)"><path
             d="m 0,0 c 0,0 3.127,-0.379 3.742,-0.474 0.615,-0.094 1.184,-0.236 1.848,0.142 0.662,0.379 5.115,3.126 5.115,3.126"
             style="fill:none;stroke:#000000;stroke-width:0.5;stroke-linecap:round;stroke-linejoin:round;stroke-miterlimit:10;stroke-dasharray:none;stroke-opacity:1"
             id="path6102"
             inkscape:connector-curvature="0" /></g><g
           id="g6104"
           transform="translate(151.8975,94.0181)"><path
             d="m 0,0 c 0,0 2.747,-0.379 4.121,-0.616 1.373,-0.237 1.988,0.095 2.842,0.569 0.851,0.473 4.404,2.841 4.404,2.841"
             style="fill:none;stroke:#000000;stroke-width:0.5;stroke-linecap:round;stroke-linejoin:round;stroke-miterlimit:10;stroke-dasharray:none;stroke-opacity:1"
             id="path6106"
             inkscape:connector-curvature="0" /></g><g
           id="g6108"
           transform="translate(153.8867,84.9717)"><path
             d="m 0,0 c 0,0 2.747,-0.379 4.12,-0.616 1.374,-0.237 1.99,0.095 2.842,0.568 0.475,0.265 1.787,1.116 2.857,1.819"
             style="fill:none;stroke:#000000;stroke-width:0.5;stroke-linecap:round;stroke-linejoin:round;stroke-miterlimit:10;stroke-dasharray:none;stroke-opacity:1"
             id="path6110"
             inkscape:connector-curvature="0" /></g><g
           id="g6112"
           transform="translate(153.9658,83.9922)"><path
             d="m 0,0 c 0,0 2.747,-0.379 4.121,-0.615 1.373,-0.237 1.988,0.094 2.842,0.568 0.492,0.274 1.887,1.18 2.976,1.898"
             style="fill:none;stroke:#000000;stroke-width:0.5;stroke-linecap:round;stroke-linejoin:round;stroke-miterlimit:10;stroke-dasharray:none;stroke-opacity:1"
             id="path6114"
             inkscape:connector-curvature="0" /></g><g
           id="g6116"
           transform="translate(156.4756,93.292)"><path
             d="M 0,0 2.337,-8.716"
             style="fill:none;stroke:#000000;stroke-width:0.5;stroke-linecap:round;stroke-linejoin:round;stroke-miterlimit:10;stroke-dasharray:none;stroke-opacity:1"
             id="path6118"
             inkscape:connector-curvature="0" /></g><g
           id="g6120"
           transform="translate(158.4346,93.7974)"><path
             d="M 0,0 2.336,-8.715"
             style="fill:none;stroke:#000000;stroke-width:0.5;stroke-linecap:round;stroke-linejoin:round;stroke-miterlimit:10;stroke-dasharray:none;stroke-opacity:1"
             id="path6122"
             inkscape:connector-curvature="0" /></g><g
           id="g6124"
           transform="translate(71.2461,113.2959)"><path
             d="m 0,0 -2.263,1.887 -8.8,-1.51 -5.28,-0.251 c 0,0 -5.783,-1.32 -5.972,-8.298 0,0 0.001,-2.701 0.189,-3.393 l 0.377,-0.503 0.377,-2.012 1.069,-1.508 1.571,-0.314 1.634,-2.641 c 0,0 4.463,-0.503 4.715,5.154"
             style="fill:none;stroke:#000000;stroke-width:0.75;stroke-linecap:round;stroke-linejoin:round;stroke-miterlimit:10;stroke-dasharray:none;stroke-opacity:1"
             id="path6126"
             inkscape:connector-curvature="0" /></g><g
           id="g6128"
           transform="translate(58.6743,99.6553)"><path
             d="m 0,0 c 0,0 0.503,5.658 -0.44,7.921 l -3.771,5.154"
             style="fill:none;stroke:#000000;stroke-width:0.75;stroke-linecap:round;stroke-linejoin:round;stroke-miterlimit:10;stroke-dasharray:none;stroke-opacity:1"
             id="path6130"
             inkscape:connector-curvature="0" /></g><g
           id="g6132"
           transform="translate(54.5884,94.6279)"><path
             d="m 0,0 1.32,-0.566 10.057,2.074 c 0,0 3.081,2.199 3.081,4.211 l 3.206,0.818 c 0,0 0.691,1.006 0.691,1.697 l 1.068,0.565 0.378,1.195 14.96,2.766 3.206,0.252 1.257,-1.635 c 0,0 0.251,-0.692 1.445,0"
             style="fill:none;stroke:#000000;stroke-width:0.75;stroke-linecap:round;stroke-linejoin:round;stroke-miterlimit:10;stroke-dasharray:none;stroke-opacity:1"
             id="path6134"
             inkscape:connector-curvature="0" /></g><g
           id="g6136"
           transform="translate(95.5352,106.1865)"><path
             d="M 0,0 C 0.152,0.727 0.862,4.548 -0.843,5.287"
             style="fill:none;stroke:#000000;stroke-width:0.5;stroke-linecap:round;stroke-linejoin:round;stroke-miterlimit:10;stroke-dasharray:none;stroke-opacity:1"
             id="path6138"
             inkscape:connector-curvature="0" /></g><g
           id="g6140"
           transform="translate(71.3091,112.9814)"><path
             d="m 0,0 0,-2.325 1.697,0 1.634,-1.948 0.754,0 14.018,2.261 1.446,1.133 c 0,0 0.062,1.383 -0.063,1.885 -0.126,0.504 1.006,0.691 1.006,0.691 l 6.16,1.573 c 1.886,1.948 4.085,0.816 4.085,0.816 l 1.195,0.377 2.263,5.909 2.388,0.126 1.195,-1.572 6.411,0.88 2.137,-0.503 5.595,-7.48 0.125,-1.446 -1.822,-5.594 -1.949,-0.88 -7.103,-1.32 -0.88,-2.451 -2.641,-0.441 -2.953,3.647 -0.629,0.251 -0.755,-0.628 -3.645,0.691 -5.469,-0.566 c 0,0 0.01,0.043 0.026,0.119"
             style="fill:none;stroke:#000000;stroke-width:0.75;stroke-linecap:round;stroke-linejoin:round;stroke-miterlimit:10;stroke-dasharray:none;stroke-opacity:1"
             id="path6142"
             inkscape:connector-curvature="0" /></g><g
           id="g6144"
           transform="translate(116.6294,122.0962)"><path
             d="M 0,0 5.468,-7.355 5.281,-8.738 3.771,-14.394"
             style="fill:none;stroke:#000000;stroke-width:0.5;stroke-linecap:round;stroke-linejoin:round;stroke-miterlimit:10;stroke-dasharray:none;stroke-opacity:1"
             id="path6146"
             inkscape:connector-curvature="0" /></g><g
           id="g6148"
           transform="translate(121.9102,113.3584)"><path
             d="m 0,0 -6.978,-1.068 -2.389,0.063"
             style="fill:none;stroke:#000000;stroke-width:0.5;stroke-linecap:round;stroke-linejoin:round;stroke-miterlimit:10;stroke-dasharray:none;stroke-opacity:1"
             id="path6150"
             inkscape:connector-curvature="0" /></g><g
           id="g6152"
           transform="translate(122.2246,114.4902)"><path
             d="M 0,0 -7.167,-0.942"
             style="fill:none;stroke:#000000;stroke-width:0.5;stroke-linecap:round;stroke-linejoin:round;stroke-miterlimit:10;stroke-dasharray:none;stroke-opacity:1"
             id="path6154"
             inkscape:connector-curvature="0" /></g><g
           id="g6156"
           transform="translate(112.7954,106.0049)"><path
             d="m 0,0 2.012,6.034 c 0,0 0.628,0.943 -0.252,2.263 -0.88,1.32 -5.218,7.48 -5.218,7.48"
             style="fill:none;stroke:#000000;stroke-width:0.5;stroke-linecap:round;stroke-linejoin:round;stroke-miterlimit:10;stroke-dasharray:none;stroke-opacity:1"
             id="path6158"
             inkscape:connector-curvature="0" /></g><g
           id="g6160"
           transform="translate(105.5039,122.9766)"><path
             d="m 0,0 6.977,-9.052 c 0,0 0.44,-1.823 0.126,-2.703 -0.314,-0.88 -3.018,-8.108 -3.018,-8.108"
             style="fill:none;stroke:#000000;stroke-width:0.5;stroke-linecap:round;stroke-linejoin:round;stroke-miterlimit:10;stroke-dasharray:none;stroke-opacity:1"
             id="path6162"
             inkscape:connector-curvature="0" /></g><g
           id="g6164"
           transform="translate(112.6694,113.6729)"><path
             d="M 0,0 2.326,0.063"
             style="fill:none;stroke:#000000;stroke-width:0.5;stroke-linecap:round;stroke-linejoin:round;stroke-miterlimit:10;stroke-dasharray:none;stroke-opacity:1"
             id="path6166"
             inkscape:connector-curvature="0" /></g><g
           id="g6168"
           transform="translate(102.1724,116.7529)"><path
             d="M 0,0 C 0,0 4.841,-4.777 3.771,-9.742"
             style="fill:none;stroke:#000000;stroke-width:0.5;stroke-linecap:round;stroke-linejoin:round;stroke-miterlimit:10;stroke-dasharray:none;stroke-opacity:1"
             id="path6170"
             inkscape:connector-curvature="0" /></g><g
           id="g6172"
           transform="translate(105.1895,117.3193)"><path
             d="m 0,0 c 0,0 5.091,-0.439 5.091,-8.988 0,0 -0.062,-0.378 -0.754,-0.378 -0.691,0 -3.394,-0.628 -3.394,-0.628"
             style="fill:none;stroke:#000000;stroke-width:0.5;stroke-linecap:round;stroke-linejoin:round;stroke-miterlimit:10;stroke-dasharray:none;stroke-opacity:1"
             id="path6174"
             inkscape:connector-curvature="0" /></g><g
           id="g6176"
           transform="translate(109.9038,111.2217)"><path
             d="m 0,0 -4.651,-0.503 c 0,0 -2.766,0.251 -4.401,-3.52"
             style="fill:none;stroke:#000000;stroke-width:0.5;stroke-linecap:round;stroke-linejoin:round;stroke-miterlimit:10;stroke-dasharray:none;stroke-opacity:1"
             id="path6178"
             inkscape:connector-curvature="0" /></g><g
           id="g6180"
           transform="translate(102.3608,109.9648)"><path
             d="M 0,0 C -0.566,1.948 -0.817,2.577 -3.08,2.702"
             style="fill:none;stroke:#000000;stroke-width:0.5;stroke-linecap:round;stroke-linejoin:round;stroke-miterlimit:10;stroke-dasharray:none;stroke-opacity:1"
             id="path6182"
             inkscape:connector-curvature="0" /></g><g
           id="g6184"
           transform="translate(91.8008,114.6787)"><path
             d="M 0,0 C 0,0 2.263,-1.319 2.137,-2.325 L 7.04,-1.634 C 8.297,-0.564 6.914,1.635 6.914,1.635"
             style="fill:none;stroke:#000000;stroke-width:0.5;stroke-linecap:round;stroke-linejoin:round;stroke-miterlimit:10;stroke-dasharray:none;stroke-opacity:1"
             id="path6186"
             inkscape:connector-curvature="0" /></g><g
           id="g6188"
           transform="translate(91.4863,112.6045)"><path
             d="M 0,0 C 0,0 1.949,-1.006 0.817,-1.76 L -0.566,-2.828"
             style="fill:none;stroke:#000000;stroke-width:0.5;stroke-linecap:round;stroke-linejoin:round;stroke-miterlimit:10;stroke-dasharray:none;stroke-opacity:1"
             id="path6190"
             inkscape:connector-curvature="0" /></g><g
           id="g6192"
           transform="translate(89.9775,109.3359)"><path
             d="m 0,0 4.966,-0.377 c 0,0 0.88,-1.634 0.063,-1.634"
             style="fill:none;stroke:#000000;stroke-width:0.5;stroke-linecap:round;stroke-linejoin:round;stroke-miterlimit:10;stroke-dasharray:none;stroke-opacity:1"
             id="path6194"
             inkscape:connector-curvature="0" /></g><g
           id="g6196"
           transform="translate(94.7549,107.1982)"><path
             d="M 0,0 -1.571,0.063"
             style="fill:none;stroke:#000000;stroke-width:0.5;stroke-linecap:round;stroke-linejoin:round;stroke-miterlimit:10;stroke-dasharray:none;stroke-opacity:1"
             id="path6198"
             inkscape:connector-curvature="0" /></g><g
           id="g6200"
           transform="translate(89.29,110.6895)"><path
             d="M 0,0 C 0,0 1,-2.001 0.417,-3.083"
             style="fill:none;stroke:#000000;stroke-width:0.5;stroke-linecap:round;stroke-linejoin:round;stroke-miterlimit:10;stroke-dasharray:none;stroke-opacity:1"
             id="path6202"
             inkscape:connector-curvature="0" /></g><g
           id="g6204"
           transform="translate(50.4565,109.3564)"><path
             d="M 0,0 5.333,0.833"
             style="fill:none;stroke:#000000;stroke-width:0.5;stroke-linecap:round;stroke-linejoin:round;stroke-miterlimit:10;stroke-dasharray:none;stroke-opacity:1"
             id="path6206"
             inkscape:connector-curvature="0" /></g><g
           id="g6208"
           transform="translate(57.6235,108.1064)"><path
             d="M 0,0 -5.167,-0.917 -1.417,-5 c 0,0 0.5,-6.75 -1.25,-4.667 -1.75,2.083 -3.416,4.167 -3.416,4.167 0,0 -1.334,3.584 0.333,4.416"
             style="fill:none;stroke:#000000;stroke-width:0.5;stroke-linecap:round;stroke-linejoin:round;stroke-miterlimit:10;stroke-dasharray:none;stroke-opacity:1"
             id="path6210"
             inkscape:connector-curvature="0" /></g><g
           id="g6212"
           transform="translate(49.04,106.6895)"><path
             d="M 0,0 2.417,-0.5"
             style="fill:none;stroke:#000000;stroke-width:0.5;stroke-linecap:round;stroke-linejoin:round;stroke-miterlimit:10;stroke-dasharray:none;stroke-opacity:1"
             id="path6214"
             inkscape:connector-curvature="0" /></g><g
           id="g6216"
           transform="translate(49.6235,100.3564)"><path
             d="M 0,0 3,0.333"
             style="fill:none;stroke:#000000;stroke-width:0.5;stroke-linecap:round;stroke-linejoin:round;stroke-miterlimit:10;stroke-dasharray:none;stroke-opacity:1"
             id="path6218"
             inkscape:connector-curvature="0" /></g><g
           id="g6220"
           transform="translate(50.6235,99.1064)"><path
             d="M 0,0 3,0.5"
             style="fill:none;stroke:#000000;stroke-width:0.5;stroke-linecap:round;stroke-linejoin:round;stroke-miterlimit:10;stroke-dasharray:none;stroke-opacity:1"
             id="path6222"
             inkscape:connector-curvature="0" /></g><g
           id="g6224"
           transform="translate(55.9565,98.4395)"><path
             d="M 0,0 12.25,2.167"
             style="fill:none;stroke:#000000;stroke-width:0.5;stroke-linecap:round;stroke-linejoin:round;stroke-miterlimit:10;stroke-dasharray:none;stroke-opacity:1"
             id="path6226"
             inkscape:connector-curvature="0" /></g><g
           id="g6228"
           transform="translate(56.79,100.5225)"><path
             d="M 0,0 1.583,0.25"
             style="fill:none;stroke:#000000;stroke-width:0.5;stroke-linecap:round;stroke-linejoin:round;stroke-miterlimit:10;stroke-dasharray:none;stroke-opacity:1"
             id="path6230"
             inkscape:connector-curvature="0" /></g><g
           id="g6232"
           transform="translate(56.6235,103.0225)"><path
             d="M 0,0 1.833,0.167"
             style="fill:none;stroke:#000000;stroke-width:0.5;stroke-linecap:round;stroke-linejoin:round;stroke-miterlimit:10;stroke-dasharray:none;stroke-opacity:1"
             id="path6234"
             inkscape:connector-curvature="0" /></g><g
           id="g6236"
           transform="translate(59.04,103.3564)"><path
             d="M 0,0 C 0.417,0 9.167,2.666 9.167,2.666"
             style="fill:none;stroke:#000000;stroke-width:0.5;stroke-linecap:round;stroke-linejoin:round;stroke-miterlimit:10;stroke-dasharray:none;stroke-opacity:1"
             id="path6238"
             inkscape:connector-curvature="0" /></g><g
           id="g6240"
           transform="translate(58.1235,108.2725)"><path
             d="M 0,0 C 0.25,0 5.083,0.834 5.083,0.834 L 2.417,5.25"
             style="fill:none;stroke:#000000;stroke-width:0.5;stroke-linecap:round;stroke-linejoin:round;stroke-miterlimit:10;stroke-dasharray:none;stroke-opacity:1"
             id="path6242"
             inkscape:connector-curvature="0" /></g><g
           id="g6244"
           transform="translate(57.29,95.6064)"><path
             d="M 0,0 9.583,1.75"
             style="fill:none;stroke:#000000;stroke-width:0.5;stroke-linecap:round;stroke-linejoin:round;stroke-miterlimit:10;stroke-dasharray:none;stroke-opacity:1"
             id="path6246"
             inkscape:connector-curvature="0" /></g><g
           id="g6248"
           transform="translate(69.54,102.5225)"><path
             d="M 0,0 4.167,0.584"
             style="fill:none;stroke:#000000;stroke-width:0.5;stroke-linecap:round;stroke-linejoin:round;stroke-miterlimit:10;stroke-dasharray:none;stroke-opacity:1"
             id="path6250"
             inkscape:connector-curvature="0" /></g><g
           id="g6252"
           transform="translate(75.2065,105.0225)"><path
             d="M 0,0 -0.167,3.5 -6.583,0.834"
             style="fill:none;stroke:#000000;stroke-width:0.5;stroke-linecap:round;stroke-linejoin:round;stroke-miterlimit:10;stroke-dasharray:none;stroke-opacity:1"
             id="path6254"
             inkscape:connector-curvature="0" /></g><g
           id="g6256"
           transform="translate(65.04,107.0225)"><path
             d="M 0,0 9.25,1.75"
             style="fill:none;stroke:#000000;stroke-width:0.5;stroke-linecap:round;stroke-linejoin:round;stroke-miterlimit:10;stroke-dasharray:none;stroke-opacity:1"
             id="path6258"
             inkscape:connector-curvature="0" /></g><g
           id="g6260"
           transform="translate(64.04,107.8564)"><path
             d="M 0,0 C 0,0 1.083,-1.667 0.75,-2.917"
             style="fill:none;stroke:#000000;stroke-width:0.5;stroke-linecap:round;stroke-linejoin:round;stroke-miterlimit:10;stroke-dasharray:none;stroke-opacity:1"
             id="path6262"
             inkscape:connector-curvature="0" /></g><g
           id="g6264"
           transform="translate(61.9565,111.7725)"><path
             d="M 0,0 6.25,1.584"
             style="fill:none;stroke:#000000;stroke-width:0.5;stroke-linecap:round;stroke-linejoin:round;stroke-miterlimit:10;stroke-dasharray:none;stroke-opacity:1"
             id="path6266"
             inkscape:connector-curvature="0" /></g><g
           id="g6268"
           transform="translate(68.6235,114.5225)"><path
             d="M 0,0 -0.083,-1.333 1.583,-2.416"
             style="fill:none;stroke:#000000;stroke-width:0.5;stroke-linecap:round;stroke-linejoin:round;stroke-miterlimit:10;stroke-dasharray:none;stroke-opacity:1"
             id="path6270"
             inkscape:connector-curvature="0" /></g><g
           id="g6272"
           transform="translate(70.3735,111.5225)"><path
             d="m 0,0 -6.417,-1.166 1.584,-1.5 6.083,0.833"
             style="fill:none;stroke:#000000;stroke-width:0.5;stroke-linecap:round;stroke-linejoin:round;stroke-miterlimit:10;stroke-dasharray:none;stroke-opacity:1"
             id="path6274"
             inkscape:connector-curvature="0" /></g></g></g><g
       id="g6276"><g
         id="g6278"
         clip-path="url(#clipPath6280)"><g
           id="g6284"
           transform="translate(156.2422,77.873)"><path
             d="M 0,0 C 0,1.034 -0.84,1.875 -1.875,1.875 -2.91,1.875 -3.75,1.034 -3.75,0 c 0,-1.037 0.84,-1.875 1.875,-1.875 C -0.84,-1.875 0,-1.037 0,0"
             style="fill:#ffffff;fill-opacity:1;fill-rule:evenodd;stroke:none"
             id="path6286"
             inkscape:connector-curvature="0" /></g><g
           id="g6288"
           transform="translate(154.3672,77.873)"><path
             d="M 0,0 -19.577,-34.719"
             style="fill:none;stroke:#ffffff;stroke-width:2.99900007;stroke-linecap:round;stroke-linejoin:miter;stroke-miterlimit:4;stroke-dasharray:none;stroke-opacity:1"
             id="path6290"
             inkscape:connector-curvature="0" /></g><g
           id="g6292"
           transform="translate(154.3672,77.873)"><path
             d="M 0,0 -19.577,-34.719"
             style="fill:none;stroke:#000000;stroke-width:0.49900001;stroke-linecap:round;stroke-linejoin:miter;stroke-miterlimit:4;stroke-dasharray:none;stroke-opacity:1"
             id="path6294"
             inkscape:connector-curvature="0" /></g><g
           id="g6296"
           transform="translate(155.1172,77.873)"><path
             d="M 0,0 C 0,0.414 -0.338,0.75 -0.75,0.75 -1.166,0.75 -1.5,0.414 -1.5,0 c 0,-0.414 0.334,-0.75 0.75,-0.75 C -0.338,-0.75 0,-0.414 0,0"
             style="fill:#000000;fill-opacity:1;fill-rule:evenodd;stroke:none"
             id="path6298"
             inkscape:connector-curvature="0" /></g></g></g><text
       transform="matrix(1,0,0,-1,129.3379,34.4785)"
       style="font-variant:normal;font-weight:bold;font-stretch:normal;font-size:10px;font-family:'Swiss 721 SWA';-inkscape-font-specification:Helvetica-Bold;writing-mode:lr-tb;fill:#000000;fill-opacity:1;fill-rule:nonzero;stroke:none"
       id="text6300"><tspan
         x="0"
         y="0"
         id="tspan6302">1</tspan></text>
<g
       id="g6304"><g
         id="g6306"
         clip-path="url(#clipPath6308)"><g
           id="g6312"
           transform="translate(113.2422,104.873)"><path
             d="M 0,0 C 0,1.034 -0.84,1.875 -1.875,1.875 -2.91,1.875 -3.75,1.034 -3.75,0 c 0,-1.037 0.84,-1.875 1.875,-1.875 C -0.84,-1.875 0,-1.037 0,0"
             style="fill:#ffffff;fill-opacity:1;fill-rule:evenodd;stroke:none"
             id="path6314"
             inkscape:connector-curvature="0" /></g><g
           id="g6316"
           transform="translate(111.3672,104.873)"><path
             d="M 0,0 -19.577,-34.719"
             style="fill:none;stroke:#ffffff;stroke-width:2.99900007;stroke-linecap:round;stroke-linejoin:miter;stroke-miterlimit:4;stroke-dasharray:none;stroke-opacity:1"
             id="path6318"
             inkscape:connector-curvature="0" /></g><g
           id="g6320"
           transform="translate(111.3672,104.873)"><path
             d="M 0,0 -19.577,-34.719"
             style="fill:none;stroke:#000000;stroke-width:0.49900001;stroke-linecap:round;stroke-linejoin:miter;stroke-miterlimit:4;stroke-dasharray:none;stroke-opacity:1"
             id="path6322"
             inkscape:connector-curvature="0" /></g><g
           id="g6324"
           transform="translate(112.1172,104.873)"><path
             d="M 0,0 C 0,0.414 -0.338,0.75 -0.75,0.75 -1.166,0.75 -1.5,0.414 -1.5,0 c 0,-0.414 0.334,-0.75 0.75,-0.75 C -0.338,-0.75 0,-0.414 0,0"
             style="fill:#000000;fill-opacity:1;fill-rule:evenodd;stroke:none"
             id="path6326"
             inkscape:connector-curvature="0" /></g></g></g><text
       transform="matrix(1,0,0,-1,86.3379,61.4785)"
       style="font-variant:normal;font-weight:bold;font-stretch:normal;font-size:10px;font-family:'Swiss 721 SWA';-inkscape-font-specification:Helvetica-Bold;writing-mode:lr-tb;fill:#000000;fill-opacity:1;fill-rule:nonzero;stroke:none"
       id="text6328"><tspan
         x="0"
         y="0"
         id="tspan6330">2</tspan></text>
</g></svg>