<?xml version="1.0" encoding="UTF-8" standalone="no"?>
<!-- Created with Inkscape (http://www.inkscape.org/) -->

<svg
   xmlns:dc="http://purl.org/dc/elements/1.1/"
   xmlns:cc="http://creativecommons.org/ns#"
   xmlns:rdf="http://www.w3.org/1999/02/22-rdf-syntax-ns#"
   xmlns:svg="http://www.w3.org/2000/svg"
   xmlns="http://www.w3.org/2000/svg"
   xmlns:sodipodi="http://sodipodi.sourceforge.net/DTD/sodipodi-0.dtd"
   xmlns:inkscape="http://www.inkscape.org/namespaces/inkscape"
   version="1.1"
   id="svg2"
   xml:space="preserve"
   width="321.26001"
   height="245.66933"
   viewBox="0 0 321.26001 245.66933"
   sodipodi:docname="3880307.svg"
   inkscape:version="0.92.4 (5da689c313, 2019-01-14)"><metadata
     id="metadata8"><rdf:RDF><cc:Work
         rdf:about=""><dc:format>image/svg+xml</dc:format><dc:type
           rdf:resource="http://purl.org/dc/dcmitype/StillImage" /><dc:title></dc:title></cc:Work></rdf:RDF></metadata><defs
     id="defs6"><clipPath
       clipPathUnits="userSpaceOnUse"
       id="clipPath22"><path
         d="M 0,184.252 H 240.945 V 0 H 0 Z"
         id="path20"
         inkscape:connector-curvature="0" /></clipPath></defs><sodipodi:namedview
     pagecolor="#ffffff"
     bordercolor="#666666"
     borderopacity="1"
     objecttolerance="10"
     gridtolerance="10"
     guidetolerance="10"
     inkscape:pageopacity="0"
     inkscape:pageshadow="2"
     inkscape:window-width="640"
     inkscape:window-height="480"
     id="namedview4"
     showgrid="false"
     inkscape:zoom="0.96064089"
     inkscape:cx="160.63"
     inkscape:cy="122.83466"
     inkscape:window-x="0"
     inkscape:window-y="0"
     inkscape:window-maximized="0"
     inkscape:current-layer="g10" /><g
     id="g10"
     inkscape:groupmode="layer"
     inkscape:label="3880307"
     transform="matrix(1.3333333,0,0,-1.3333333,0,245.66933)"><g
       id="g12"
       transform="translate(165.9539,69.0591)"><path
         d="M 0,0 -4.393,2.217"
         style="fill:none;stroke:#000000;stroke-width:0.5;stroke-linecap:round;stroke-linejoin:round;stroke-miterlimit:10;stroke-dasharray:none;stroke-opacity:1"
         id="path14"
         inkscape:connector-curvature="0" /></g><g
       id="g16"><g
         id="g18"
         clip-path="url(#clipPath22)"><g
           id="g24"
           transform="translate(192.158,76.5522)"><path
             d="M 0,0 C 4.559,5.354 7.097,11.273 7.097,17.503"
             style="fill:none;stroke:#000000;stroke-width:0.5;stroke-linecap:round;stroke-linejoin:round;stroke-miterlimit:10;stroke-dasharray:none;stroke-opacity:1"
             id="path26"
             inkscape:connector-curvature="0" /></g><g
           id="g28"
           transform="translate(33.5769,74.8218)"><path
             d="M 0,0 C 1.227,-1.407 2.595,-2.797 4.113,-4.162 5.632,-5.528 7.267,-6.838 9,-8.092 l 5.795,1.737 c 13.523,-9.58 34.436,-16.168 58.384,-17.502 v -3.469 c 2.961,-0.153 5.962,-0.233 9,-0.233 3.036,0 6.039,0.081 9,0.233 v 3.469 c 23.948,1.334 44.854,7.926 58.378,17.503 l 5.799,-1.738 c 1.735,1.255 3.368,2.564 4.887,3.93 1.518,1.365 2.886,2.755 4.113,4.162"
             style="fill:none;stroke:#000000;stroke-width:0.5;stroke-linecap:round;stroke-linejoin:round;stroke-miterlimit:10;stroke-dasharray:none;stroke-opacity:1"
             id="path30"
             inkscape:connector-curvature="0" /></g><g
           id="g32"
           transform="translate(39.364,76.5552)"><path
             d="M 0,0 C -4.559,5.354 -7.109,11.27 -7.109,17.5"
             style="fill:none;stroke:#000000;stroke-width:0.5;stroke-linecap:round;stroke-linejoin:round;stroke-miterlimit:10;stroke-dasharray:none;stroke-opacity:1"
             id="path34"
             inkscape:connector-curvature="0" /></g><g
           id="g36"
           transform="translate(39.3513,111.5581)"><path
             d="m 0,0 c -4.559,-5.353 -7.097,-11.274 -7.097,-17.503 v -5.74 c 0,-4.45 1.302,-8.74 3.707,-12.781"
             style="fill:none;stroke:#000000;stroke-width:1.5;stroke-linecap:round;stroke-linejoin:round;stroke-miterlimit:10;stroke-dasharray:none;stroke-opacity:1"
             id="path38"
             inkscape:connector-curvature="0" /></g><g
           id="g40"
           transform="translate(33.5769,113.2895)"><path
             d="M 0,0 5.774,-1.731"
             style="fill:none;stroke:#000000;stroke-width:0.5;stroke-linecap:round;stroke-linejoin:round;stroke-miterlimit:10;stroke-dasharray:none;stroke-opacity:1"
             id="path42"
             inkscape:connector-curvature="0" /></g><g
           id="g44"
           transform="translate(192.158,111.5581)"><path
             d="m 0,0 c 4.559,-5.352 7.097,-11.274 7.097,-17.503 v -5.74 c 0,-4.45 -1.296,-8.741 -3.698,-12.782"
             style="fill:none;stroke:#000000;stroke-width:1.5;stroke-linecap:round;stroke-linejoin:round;stroke-miterlimit:10;stroke-dasharray:none;stroke-opacity:1"
             id="path46"
             inkscape:connector-curvature="0" /></g><g
           id="g48"
           transform="translate(197.9333,113.2895)"><path
             d="M 0,0 -5.775,-1.731"
             style="fill:none;stroke:#000000;stroke-width:0.5;stroke-linecap:round;stroke-linejoin:round;stroke-miterlimit:10;stroke-dasharray:none;stroke-opacity:1"
             id="path50"
             inkscape:connector-curvature="0" /></g><g
           id="g52"
           transform="translate(35.6623,106.3408)"><path
             d="m 0,0 -2.085,0.59 v 6.359 c 1.226,1.406 2.594,2.796 4.113,4.162 1.518,1.365 3.152,2.675 4.887,3.929 l 5.798,-1.738 c 13.525,9.577 34.431,16.17 58.379,17.502 v 3.471 c 2.961,0.151 5.963,0.231 9,0.231 3.038,0 6.039,-0.08 9,-0.231 v -3.471 c 23.949,-1.332 44.855,-7.925 58.379,-17.501 l 5.799,1.737 c 1.733,-1.254 3.368,-2.565 4.887,-3.929 1.518,-1.366 2.887,-2.755 4.114,-4.162 V 0.01 l -1.867,-0.41"
             style="fill:none;stroke:#000000;stroke-width:1.5;stroke-linecap:round;stroke-linejoin:round;stroke-miterlimit:10;stroke-dasharray:none;stroke-opacity:1"
             id="path54"
             inkscape:connector-curvature="0" /></g><g
           id="g56"
           transform="translate(192.158,76.5522)"><path
             d="m 0,0 5.775,-1.73 v -5.741 c -1.227,-1.407 -2.595,-2.797 -4.113,-4.162 -1.519,-1.366 -3.152,-2.675 -4.887,-3.93 l -5.799,1.739 c -13.524,-9.577 -34.43,-16.17 -58.378,-17.503 v -3.47 c -2.961,-0.151 -5.964,-0.232 -9,-0.232 -3.038,0 -6.039,0.08 -9,0.232 v 3.47 c -23.948,1.334 -44.861,7.922 -58.384,17.501 l -5.795,-1.737 c -1.733,1.254 -3.368,2.564 -4.887,3.93 -1.518,1.365 -2.886,2.755 -4.113,4.162 v 5.741 l 5.787,1.733"
             style="fill:none;stroke:#000000;stroke-width:1.5;stroke-linecap:round;stroke-linejoin:round;stroke-miterlimit:10;stroke-dasharray:none;stroke-opacity:1"
             id="path58"
             inkscape:connector-curvature="0" /></g><g
           id="g60"
           transform="translate(185.3445,94.0552)"><path
             d="m 0,0 c 0,14.448 -16.347,26.911 -39.958,32.688 l -2.657,-2.882 c -1.436,0.349 -2.906,0.669 -4.402,0.964 l 2.153,2.998 c -2.632,0.52 -5.345,0.954 -8.118,1.308 l -1.506,-3.095 c -1.537,0.196 -3.101,0.356 -4.682,0.491 l 0.968,3.159 c -2.854,0.245 -5.765,0.402 -8.724,0.464 l -0.277,-3.2 c -0.793,0.015 -1.586,0.032 -2.387,0.032 -0.801,0 -1.594,-0.017 -2.387,-0.032 l -0.277,3.2 c -2.959,-0.062 -5.87,-0.219 -8.724,-0.464 l 0.968,-3.159 c -1.581,-0.135 -3.144,-0.295 -4.681,-0.491 l -1.507,3.095 c -2.773,-0.354 -5.485,-0.788 -8.118,-1.308 l 2.153,-2.998 c -1.495,-0.295 -2.966,-0.615 -4.401,-0.964 l -2.658,2.882 C -122.833,26.911 -139.18,14.448 -139.18,0"
             style="fill:none;stroke:#000000;stroke-width:0.5;stroke-linecap:round;stroke-linejoin:round;stroke-miterlimit:10;stroke-dasharray:none;stroke-opacity:1"
             id="path62"
             inkscape:connector-curvature="0" /></g><g
           id="g64"
           transform="translate(184.4509,88.2866)"><path
             d="M 0,0 -6.076,0.532"
             style="fill:none;stroke:#000000;stroke-width:0.5;stroke-linecap:round;stroke-linejoin:round;stroke-miterlimit:10;stroke-dasharray:none;stroke-opacity:1"
             id="path66"
             inkscape:connector-curvature="0" /></g><g
           id="g68"
           transform="translate(185.3445,94.0552)"><path
             d="m 0,0 c 0,-1.019 -0.102,-2.025 -0.261,-3.021 l -6.115,0.245 c -0.135,-0.822 -0.338,-1.641 -0.594,-2.46 v -3.91"
             style="fill:none;stroke:#000000;stroke-width:1.5;stroke-linecap:round;stroke-linejoin:round;stroke-miterlimit:10;stroke-dasharray:none;stroke-opacity:1"
             id="path70"
             inkscape:connector-curvature="0" /></g><g
           id="g72"
           transform="translate(180.8953,81.3598)"><path
             d="M 0,0 -5.756,1.144"
             style="fill:none;stroke:#000000;stroke-width:0.5;stroke-linecap:round;stroke-linejoin:round;stroke-miterlimit:10;stroke-dasharray:none;stroke-opacity:1"
             id="path74"
             inkscape:connector-curvature="0" /></g><g
           id="g76"
           transform="translate(184.4509,88.2866)"><path
             d="m 0,0 c -0.454,-1.467 -1.09,-2.9 -1.873,-4.303 l -5.916,0.869 c -0.443,-0.788 -0.959,-1.57 -1.523,-2.349 v -4.198"
             style="fill:none;stroke:#000000;stroke-width:1.5;stroke-linecap:round;stroke-linejoin:round;stroke-miterlimit:10;stroke-dasharray:none;stroke-opacity:1"
             id="path78"
             inkscape:connector-curvature="0" /></g><g
           id="g80"
           transform="translate(174.6267,74.8149)"><path
             d="M 0,0 -5.186,1.721"
             style="fill:none;stroke:#000000;stroke-width:0.5;stroke-linecap:round;stroke-linejoin:round;stroke-miterlimit:10;stroke-dasharray:none;stroke-opacity:1"
             id="path82"
             inkscape:connector-curvature="0" /></g><g
           id="g84"
           transform="translate(180.8953,81.3598)"><path
             d="m 0,0 c -1.034,-1.43 -2.24,-2.814 -3.601,-4.151 l -5.465,1.471 c -0.373,-0.363 -0.742,-0.727 -1.142,-1.088 -0.401,-0.36 -0.823,-0.709 -1.246,-1.056 v -4.671"
             style="fill:none;stroke:#000000;stroke-width:1.5;stroke-linecap:round;stroke-linejoin:round;stroke-miterlimit:10;stroke-dasharray:none;stroke-opacity:1"
             id="path86"
             inkscape:connector-curvature="0" /></g><g
           id="g88"
           transform="translate(174.6267,74.8149)"><path
             d="m 0,0 c -1.564,-1.286 -3.276,-2.52 -5.131,-3.69 l -4.776,2.01 c -1.018,-0.643 -2.066,-1.266 -3.158,-1.859 v -4.2"
             style="fill:none;stroke:#000000;stroke-width:1.5;stroke-linecap:round;stroke-linejoin:round;stroke-miterlimit:10;stroke-dasharray:none;stroke-opacity:1"
             id="path90"
             inkscape:connector-curvature="0" /></g><g
           id="g92"
           transform="translate(155.4646,64.397)"><path
             d="M 0,0 -3.472,2.63"
             style="fill:none;stroke:#000000;stroke-width:0.5;stroke-linecap:round;stroke-linejoin:round;stroke-miterlimit:10;stroke-dasharray:none;stroke-opacity:1"
             id="path94"
             inkscape:connector-curvature="0" /></g><g
           id="g96"
           transform="translate(165.9539,69.0591)"><path
             d="m 0,0 c -1.961,-1.062 -4.04,-2.065 -6.236,-2.996 l -3.916,2.46 c -1.24,-0.525 -2.506,-1.027 -3.809,-1.496 v -3.704"
             style="fill:none;stroke:#000000;stroke-width:1.5;stroke-linecap:round;stroke-linejoin:round;stroke-miterlimit:10;stroke-dasharray:none;stroke-opacity:1"
             id="path98"
             inkscape:connector-curvature="0" /></g><g
           id="g100"
           transform="translate(76.0447,64.396)"><path
             d="m 0,0 c 11.263,-4.07 24.944,-6.464 39.71,-6.464 14.768,0 28.452,2.391 39.71,6.465"
             style="fill:none;stroke:#000000;stroke-width:1.5;stroke-linecap:round;stroke-linejoin:round;stroke-miterlimit:10;stroke-dasharray:none;stroke-opacity:1"
             id="path102"
             inkscape:connector-curvature="0" /></g><g
           id="g104"
           transform="translate(79.5159,67.0268)"><path
             d="M 0,0 -3.471,-2.631"
             style="fill:none;stroke:#000000;stroke-width:0.5;stroke-linecap:round;stroke-linejoin:round;stroke-miterlimit:10;stroke-dasharray:none;stroke-opacity:1"
             id="path106"
             inkscape:connector-curvature="0" /></g><g
           id="g108"
           transform="translate(65.5447,69.0542)"><path
             d="m 0,0 c 1.962,-1.061 4.043,-2.063 6.241,-2.995 l 3.922,2.464 c 1.24,-0.525 2.506,-1.027 3.808,-1.496 v -3.808"
             style="fill:none;stroke:#000000;stroke-width:1.5;stroke-linecap:round;stroke-linejoin:round;stroke-miterlimit:10;stroke-dasharray:none;stroke-opacity:1"
             id="path110"
             inkscape:connector-curvature="0" /></g><g
           id="g112"
           transform="translate(69.949,71.2759)"><path
             d="M 0,0 -4.404,-2.222"
             style="fill:none;stroke:#000000;stroke-width:0.5;stroke-linecap:round;stroke-linejoin:round;stroke-miterlimit:10;stroke-dasharray:none;stroke-opacity:1"
             id="path114"
             inkscape:connector-curvature="0" /></g><g
           id="g116"
           transform="translate(56.8713,74.812)"><path
             d="m 0,0 c 1.564,-1.288 3.276,-2.521 5.132,-3.692 l 4.787,2.015 c 1.017,-0.643 2.065,-1.266 3.159,-1.859 v -4.245"
             style="fill:none;stroke:#000000;stroke-width:1.5;stroke-linecap:round;stroke-linejoin:round;stroke-miterlimit:10;stroke-dasharray:none;stroke-opacity:1"
             id="path118"
             inkscape:connector-curvature="0" /></g><g
           id="g120"
           transform="translate(62.0681,76.5346)"><path
             d="M 0,0 -5.197,-1.723"
             style="fill:none;stroke:#000000;stroke-width:0.5;stroke-linecap:round;stroke-linejoin:round;stroke-miterlimit:10;stroke-dasharray:none;stroke-opacity:1"
             id="path122"
             inkscape:connector-curvature="0" /></g><g
           id="g124"
           transform="translate(50.6047,81.3569)"><path
             d="m 0,0 c 1.034,-1.429 2.239,-2.814 3.599,-4.152 l 5.478,1.475 c 0.37,-0.363 0.74,-0.727 1.141,-1.088 0.4,-0.36 0.823,-0.709 1.245,-1.057 v -5.282"
             style="fill:none;stroke:#000000;stroke-width:1.5;stroke-linecap:round;stroke-linejoin:round;stroke-miterlimit:10;stroke-dasharray:none;stroke-opacity:1"
             id="path126"
             inkscape:connector-curvature="0" /></g><g
           id="g128"
           transform="translate(56.3704,82.5034)"><path
             d="M 0,0 -5.766,-1.146"
             style="fill:none;stroke:#000000;stroke-width:0.5;stroke-linecap:round;stroke-linejoin:round;stroke-miterlimit:10;stroke-dasharray:none;stroke-opacity:1"
             id="path130"
             inkscape:connector-curvature="0" /></g><g
           id="g132"
           transform="translate(47.0642,88.2876)"><path
             d="m 0,0 c 0.454,-1.467 1.086,-2.901 1.868,-4.304 l 5.915,0.869 c 0.444,-0.788 0.959,-1.57 1.523,-2.349 v -4.66"
             style="fill:none;stroke:#000000;stroke-width:1.5;stroke-linecap:round;stroke-linejoin:round;stroke-miterlimit:10;stroke-dasharray:none;stroke-opacity:1"
             id="path134"
             inkscape:connector-curvature="0" /></g><g
           id="g136"
           transform="translate(53.1345,88.8188)"><path
             d="M 0,0 -6.07,-0.531"
             style="fill:none;stroke:#000000;stroke-width:0.5;stroke-linecap:round;stroke-linejoin:round;stroke-miterlimit:10;stroke-dasharray:none;stroke-opacity:1"
             id="path138"
             inkscape:connector-curvature="0" /></g><g
           id="g140"
           transform="translate(46.1643,94.0552)"><path
             d="m 0,0 c 0,-1.019 0.089,-2.025 0.248,-3.023 l 6.129,0.247 c 0.134,-0.822 0.338,-1.641 0.593,-2.46 v -4.193"
             style="fill:none;stroke:#000000;stroke-width:1.5;stroke-linecap:round;stroke-linejoin:round;stroke-miterlimit:10;stroke-dasharray:none;stroke-opacity:1"
             id="path142"
             inkscape:connector-curvature="0" /></g><g
           id="g144"
           transform="translate(93.3816,122.521)"><path
             d="m 0,0 c 1.886,0.331 3.811,0.62 5.765,0.87 l 1.506,-3.095 c 1.538,0.196 3.101,0.356 4.682,0.491 v 5.74 l -0.968,3.159"
             style="fill:none;stroke:#000000;stroke-width:1.5;stroke-linecap:round;stroke-linejoin:round;stroke-miterlimit:10;stroke-dasharray:none;stroke-opacity:1"
             id="path146"
             inkscape:connector-curvature="0" /></g><g
           id="g148"
           transform="translate(46.3845,91.2085)"><path
             d="m 0,0 c 2.017,13.205 17.718,24.407 39.738,29.794 l 2.657,-2.882 c 1.436,0.35 2.907,0.669 4.402,0.964 v 5.74 l -2.153,2.999"
             style="fill:none;stroke:#000000;stroke-width:1.5;stroke-linecap:round;stroke-linejoin:round;stroke-miterlimit:10;stroke-dasharray:none;stroke-opacity:1"
             id="path150"
             inkscape:connector-curvature="0" /></g><g
           id="g152"
           transform="translate(126.1003,124.0307)"><path
             d="M 0,0 C -2.518,0.197 -5.081,0.325 -7.682,0.379 L -7.959,-2.82 c -0.793,0.014 -1.586,0.031 -2.387,0.031 -0.8,0 -1.593,-0.017 -2.386,-0.031 L -13.01,0.379 C -15.612,0.325 -18.178,0.197 -20.7,0"
             style="fill:none;stroke:#000000;stroke-width:1.5;stroke-linecap:round;stroke-linejoin:round;stroke-miterlimit:10;stroke-dasharray:none;stroke-opacity:1"
             id="path154"
             inkscape:connector-curvature="0" /></g><g
           id="g156"
           transform="translate(138.4089,122.4721)"><path
             d="m 0,0 c -1.977,0.352 -3.995,0.657 -6.047,0.919 l -1.506,-3.095 c -1.537,0.196 -3.1,0.356 -4.681,0.49 v 5.741 l 0.967,3.159"
             style="fill:none;stroke:#000000;stroke-width:1.5;stroke-linecap:round;stroke-linejoin:round;stroke-miterlimit:10;stroke-dasharray:none;stroke-opacity:1"
             id="path158"
             inkscape:connector-curvature="0" /></g><g
           id="g160"
           transform="translate(185.0613,91.5942)"><path
             d="m 0,0 c -2.261,13.037 -17.87,24.074 -39.675,29.408 l -2.657,-2.882 c -1.436,0.35 -2.906,0.669 -4.401,0.964 v 5.74 l 2.152,2.999"
             style="fill:none;stroke:#000000;stroke-width:1.5;stroke-linecap:round;stroke-linejoin:round;stroke-miterlimit:10;stroke-dasharray:none;stroke-opacity:1"
             id="path162"
             inkscape:connector-curvature="0" /></g><g
           id="g164"
           transform="translate(42.5769,66.73)"><path
             d="M 0,0 V -5.74"
             style="fill:none;stroke:#000000;stroke-width:0.5;stroke-linecap:round;stroke-linejoin:round;stroke-miterlimit:10;stroke-dasharray:none;stroke-opacity:1"
             id="path166"
             inkscape:connector-curvature="0" /></g><g
           id="g168"
           transform="translate(48.3718,68.4663)"><path
             d="M 0,0 V -5.74"
             style="fill:none;stroke:#000000;stroke-width:0.5;stroke-linecap:round;stroke-linejoin:round;stroke-miterlimit:10;stroke-dasharray:none;stroke-opacity:1"
             id="path170"
             inkscape:connector-curvature="0" /></g><g
           id="g172"
           transform="translate(106.7556,41.7554)"><path
             d="M 0,0 V 9.21"
             style="fill:none;stroke:#000000;stroke-width:1.5;stroke-linecap:round;stroke-linejoin:round;stroke-miterlimit:10;stroke-dasharray:none;stroke-opacity:1"
             id="path174"
             inkscape:connector-curvature="0" /></g><g
           id="g176"
           transform="translate(124.7556,41.7554)"><path
             d="M 0,0 V 9.21"
             style="fill:none;stroke:#000000;stroke-width:1.5;stroke-linecap:round;stroke-linejoin:round;stroke-miterlimit:10;stroke-dasharray:none;stroke-opacity:1"
             id="path178"
             inkscape:connector-curvature="0" /></g><g
           id="g180"
           transform="translate(183.1335,68.4682)"><path
             d="M 0,0 V -5.74"
             style="fill:none;stroke:#000000;stroke-width:0.5;stroke-linecap:round;stroke-linejoin:round;stroke-miterlimit:10;stroke-dasharray:none;stroke-opacity:1"
             id="path182"
             inkscape:connector-curvature="0" /></g><g
           id="g184"
           transform="translate(188.9333,66.73)"><path
             d="M 0,0 V -5.74"
             style="fill:none;stroke:#000000;stroke-width:0.5;stroke-linecap:round;stroke-linejoin:round;stroke-miterlimit:10;stroke-dasharray:none;stroke-opacity:1"
             id="path186"
             inkscape:connector-curvature="0" /></g><g
           id="g188"
           transform="translate(118.1414,126.9507)"><path
             d="M 0,0 V -5.584"
             style="fill:none;stroke:#000000;stroke-width:0.5;stroke-linecap:round;stroke-linejoin:round;stroke-miterlimit:10;stroke-dasharray:none;stroke-opacity:1"
             id="path190"
             inkscape:connector-curvature="0" /></g><g
           id="g192"
           transform="translate(118.4187,130.1499)"><path
             d="M 0,0 V -5.584"
             style="fill:none;stroke:#000000;stroke-width:0.5;stroke-linecap:round;stroke-linejoin:round;stroke-miterlimit:10;stroke-dasharray:none;stroke-opacity:1"
             id="path194"
             inkscape:connector-curvature="0" /></g><g
           id="g196"
           transform="translate(113.3679,121.2104)"><path
             d="M 0,0 V 5.74"
             style="fill:none;stroke:#000000;stroke-width:0.5;stroke-linecap:round;stroke-linejoin:round;stroke-miterlimit:10;stroke-dasharray:none;stroke-opacity:1"
             id="path198"
             inkscape:connector-curvature="0" /></g><g
           id="g200"
           transform="translate(113.0906,130.1499)"><path
             d="M 0,0 V -5.74"
             style="fill:none;stroke:#000000;stroke-width:0.5;stroke-linecap:round;stroke-linejoin:round;stroke-miterlimit:10;stroke-dasharray:none;stroke-opacity:1"
             id="path202"
             inkscape:connector-curvature="0" /></g><g
           id="g204"
           transform="translate(100.6531,126.0366)"><path
             d="M 0,0 V -5.74"
             style="fill:none;stroke:#000000;stroke-width:0.5;stroke-linecap:round;stroke-linejoin:round;stroke-miterlimit:10;stroke-dasharray:none;stroke-opacity:1"
             id="path206"
             inkscape:connector-curvature="0" /></g><g
           id="g208"
           transform="translate(99.0315,129.1313)"><path
             d="M 0,0 V -5.74"
             style="fill:none;stroke:#000000;stroke-width:0.5;stroke-linecap:round;stroke-linejoin:round;stroke-miterlimit:10;stroke-dasharray:none;stroke-opacity:1"
             id="path210"
             inkscape:connector-curvature="0" /></g><g
           id="g212"
           transform="translate(88.78,123.8608)"><path
             d="M 0,0 V -5.74"
             style="fill:none;stroke:#000000;stroke-width:0.5;stroke-linecap:round;stroke-linejoin:round;stroke-miterlimit:10;stroke-dasharray:none;stroke-opacity:1"
             id="path214"
             inkscape:connector-curvature="0" /></g><g
           id="g216"
           transform="translate(86.1228,126.7427)"><path
             d="M 0,0 V -5.74"
             style="fill:none;stroke:#000000;stroke-width:0.5;stroke-linecap:round;stroke-linejoin:round;stroke-miterlimit:10;stroke-dasharray:none;stroke-opacity:1"
             id="path218"
             inkscape:connector-curvature="0" /></g><g
           id="g220"
           transform="translate(130.8562,126.0366)"><path
             d="M 0,0 V -5.74"
             style="fill:none;stroke:#000000;stroke-width:0.5;stroke-linecap:round;stroke-linejoin:round;stroke-miterlimit:10;stroke-dasharray:none;stroke-opacity:1"
             id="path222"
             inkscape:connector-curvature="0" /></g><g
           id="g224"
           transform="translate(132.3621,129.1313)"><path
             d="M 0,0 V -5.74"
             style="fill:none;stroke:#000000;stroke-width:0.5;stroke-linecap:round;stroke-linejoin:round;stroke-miterlimit:10;stroke-dasharray:none;stroke-opacity:1"
             id="path226"
             inkscape:connector-curvature="0" /></g><g
           id="g228"
           transform="translate(142.7292,123.8608)"><path
             d="M 0,0 V -5.74"
             style="fill:none;stroke:#000000;stroke-width:0.5;stroke-linecap:round;stroke-linejoin:round;stroke-miterlimit:10;stroke-dasharray:none;stroke-opacity:1"
             id="path230"
             inkscape:connector-curvature="0" /></g><g
           id="g232"
           transform="translate(145.3865,126.7427)"><path
             d="M 0,0 V -5.74"
             style="fill:none;stroke:#000000;stroke-width:0.5;stroke-linecap:round;stroke-linejoin:round;stroke-miterlimit:10;stroke-dasharray:none;stroke-opacity:1"
             id="path234"
             inkscape:connector-curvature="0" /></g></g></g><text
       transform="matrix(0.9704,0,0,-1,2.6206,2.333)"
       style="font-variant:normal;font-weight:bold;font-stretch:normal;font-size:5px;font-family:Helvetica;-inkscape-font-specification:Helvetica-Bold;writing-mode:lr-tb;fill:#000000;fill-opacity:1;fill-rule:nonzero;stroke:none"
       id="text238"><tspan
         x="0 2.78 5.5599999 10.005"
         y="0"
         sodipodi:role="line"
         id="tspan236">ccmi</tspan></text>
</g></svg>