<?xml version="1.0" encoding="UTF-8" standalone="no"?>
<svg
   xmlns:dc="http://purl.org/dc/elements/1.1/"
   xmlns:cc="http://creativecommons.org/ns#"
   xmlns:rdf="http://www.w3.org/1999/02/22-rdf-syntax-ns#"
   xmlns:svg="http://www.w3.org/2000/svg"
   xmlns="http://www.w3.org/2000/svg"
   viewBox="0 0 301.18124 230.31375"
   height="230.31375"
   width="301.18124"
   xml:space="preserve"
   version="1.1"
   id="svg2"><metadata
     id="metadata8"><rdf:RDF><cc:Work
         rdf:about=""><dc:format>image/svg+xml</dc:format><dc:type
           rdf:resource="http://purl.org/dc/dcmitype/StillImage" /></cc:Work></rdf:RDF></metadata><defs
     id="defs6"><clipPath
       id="clipPath16"
       clipPathUnits="userSpaceOnUse"><path
         id="path18"
         d="m 5.583,3 235.363,0 0,170.079 -235.363,0 L 5.583,3 Z" /></clipPath><clipPath
       id="clipPath82"
       clipPathUnits="userSpaceOnUse"><path
         id="path84"
         d="m 5.583,3 235.363,0 0,170.079 -235.363,0 L 5.583,3 Z" /></clipPath></defs><g
     transform="matrix(1.25,0,0,-1.25,0,230.31375)"
     id="g10"><g
       id="g12"><g
         clip-path="url(#clipPath16)"
         id="g14"><g
           transform="translate(225.2236,142.21)"
           id="g20"><path
             id="path22"
             style="fill:none;stroke:#231f20;stroke-width:0.5;stroke-linecap:round;stroke-linejoin:round;stroke-miterlimit:4;stroke-dasharray:none;stroke-opacity:1"
             d="m 0,0 c 0,-8.281 -6.713,-14.995 -14.994,-14.995 -8.281,0 -14.994,6.714 -14.994,14.995 0,8.281 6.713,14.995 14.994,14.995 C -6.713,14.995 0,8.281 0,0 Z" /></g><g
           transform="translate(223.3125,142.21)"
           id="g24"><path
             id="path26"
             style="fill:none;stroke:#231f20;stroke-width:0.5;stroke-linecap:round;stroke-linejoin:round;stroke-miterlimit:4;stroke-dasharray:none;stroke-opacity:1"
             d="m 0,0 c 0,-7.254 -5.857,-13.135 -13.083,-13.135 -7.227,0 -13.084,5.881 -13.084,13.135 0,7.254 5.857,13.135 13.084,13.135 C -5.857,13.135 0,7.254 0,0 Z" /></g><g
           transform="translate(219.5059,125.8115)"
           id="g28"><path
             id="path30"
             style="fill:none;stroke:#231f20;stroke-width:1;stroke-linecap:round;stroke-linejoin:round;stroke-miterlimit:4;stroke-dasharray:none;stroke-opacity:1"
             d="M 0,0 C 0.86,0.497 1.827,0.618 2.73,0.442 4.148,1.519 5.416,2.776 6.502,4.188 6.35,5.067 6.476,6.001 6.957,6.835 7.451,7.69 8.221,8.276 9.084,8.577 c 0.687,1.622 1.146,3.359 1.386,5.166 -0.557,0.681 -0.906,1.541 -0.906,2.491 0,0.974 0.365,1.854 0.948,2.543 -0.214,1.813 -0.666,3.552 -1.33,5.184 -0.835,0.309 -1.578,0.883 -2.059,1.716 -0.491,0.85 -0.613,1.804 -0.447,2.698 -1.067,1.43 -2.313,2.71 -3.715,3.808 -0.887,-0.16 -1.831,-0.036 -2.674,0.451 -0.877,0.507 -1.474,1.304 -1.766,2.195 -1.591,0.679 -3.293,1.136 -5.064,1.38 -0.691,-0.595 -1.582,-0.968 -2.568,-0.968 -1.01,0 -1.921,0.389 -2.619,1.011 -1.777,-0.219 -3.481,-0.666 -5.081,-1.322 -0.301,-0.865 -0.886,-1.636 -1.743,-2.131 -0.86,-0.495 -1.826,-0.616 -2.728,-0.442 -1.418,-1.076 -2.687,-2.334 -3.773,-3.747 0.152,-0.879 0.026,-1.811 -0.456,-2.646 -0.494,-0.855 -1.263,-1.44 -2.127,-1.741 -0.686,-1.621 -1.146,-3.359 -1.385,-5.165 0.556,-0.682 0.905,-1.542 0.905,-2.493 0,-0.974 -0.365,-1.855 -0.948,-2.544 0.213,-1.813 0.665,-3.551 1.329,-5.182 0.836,-0.308 1.579,-0.883 2.06,-1.716 0.492,-0.852 0.615,-1.807 0.448,-2.702 1.065,-1.428 2.31,-2.708 3.711,-3.805 0.888,0.161 1.833,0.036 2.677,-0.45 0.879,-0.508 1.476,-1.306 1.768,-2.198 2.395,-1.022 5.03,-1.589 7.797,-1.589 2.667,0 5.207,0.535 7.533,1.489 C -1.442,-1.267 -0.856,-0.495 0,0 Z" /></g><g
           transform="translate(214.8145,146.3452)"
           id="g32"><path
             id="path34"
             style="fill:#231f20;fill-opacity:1;fill-rule:nonzero;stroke:none"
             d="m 0,0 -0.688,0.688 -3.271,-3.721 c -0.188,0.108 -0.394,0.186 -0.626,0.186 -0.709,0 -1.283,-0.576 -1.283,-1.288 0,-0.29 0.113,-0.544 0.273,-0.759 l -6.106,-6.948 6.512,6.59 c 0.182,-0.1 0.381,-0.172 0.604,-0.172 0.709,0 1.284,0.577 1.284,1.289 0,0.227 -0.074,0.429 -0.177,0.615 L 0,0 Z" /></g><g
           transform="translate(213.5078,122.2651)"
           id="g36"><path
             id="path38"
             style="fill:none;stroke:#231f20;stroke-width:1;stroke-linecap:round;stroke-linejoin:round;stroke-miterlimit:4;stroke-dasharray:none;stroke-opacity:1"
             d="m 0,0 0,-2.392 -6.557,0 0,2.392" /></g><path
           id="path40"
           style="fill:none;stroke:#231f20;stroke-width:1;stroke-linecap:round;stroke-linejoin:round;stroke-miterlimit:4;stroke-dasharray:none;stroke-opacity:1"
           d="m 215.236,108.005 -10.014,0 0,11.868 10.014,0 0,-11.868 z" /><g
           transform="translate(211.9863,102.4512)"
           id="g42"><path
             id="path44"
             style="fill:none;stroke:#231f20;stroke-width:1;stroke-linecap:round;stroke-linejoin:round;stroke-miterlimit:4;stroke-dasharray:none;stroke-opacity:1"
             d="m 0,0 0,2.628 0.847,0 0,2.926 -5.206,0 0,-2.926 0.82,0 0,-2.628 -0.82,0 0,-2.189 5.206,0 L 0.847,0 0,0 Z" /></g><g
           transform="translate(212.8105,119.0483)"
           id="g46"><path
             id="path48"
             style="fill:none;stroke:#231f20;stroke-width:0.5;stroke-linecap:round;stroke-linejoin:round;stroke-miterlimit:4;stroke-dasharray:none;stroke-opacity:1"
             d="m 0,0 0,-9.901 c 0,0 -0.514,-1.1 -2.787,-1.1 -2.274,0 -2.567,1.1 -2.567,1.1 l 0,9.901 c 0,0 0.586,0.733 2.787,0.733 C -0.367,0.733 0,0 0,0 Z" /></g><g
           transform="translate(212.8105,119.0483)"
           id="g50"><path
             id="path52"
             style="fill:none;stroke:#231f20;stroke-width:0.5;stroke-linecap:round;stroke-linejoin:round;stroke-miterlimit:4;stroke-dasharray:none;stroke-opacity:1"
             d="M 0,0 C 0,0 1.174,1.247 2.273,-0.073" /></g><g
           transform="translate(207.4561,119.0483)"
           id="g54"><path
             id="path56"
             style="fill:none;stroke:#231f20;stroke-width:0.5;stroke-linecap:round;stroke-linejoin:round;stroke-miterlimit:4;stroke-dasharray:none;stroke-opacity:1"
             d="M 0,0 C 0,0 -0.954,1.247 -2.054,0" /></g><g
           transform="translate(212.8105,108.7813)"
           id="g58"><path
             id="path60"
             style="fill:none;stroke:#231f20;stroke-width:0.5;stroke-linecap:round;stroke-linejoin:round;stroke-miterlimit:4;stroke-dasharray:none;stroke-opacity:1"
             d="M 0,0 C 0,0 1.174,-1.248 2.273,0.072" /></g><g
           transform="translate(207.4561,108.7813)"
           id="g62"><path
             id="path64"
             style="fill:none;stroke:#231f20;stroke-width:0.5;stroke-linecap:round;stroke-linejoin:round;stroke-miterlimit:4;stroke-dasharray:none;stroke-opacity:1"
             d="M 0,0 C 0,0 -0.954,-1.247 -2.054,0" /></g><g
           transform="translate(208.4473,105.0791)"
           id="g66"><path
             id="path68"
             style="fill:none;stroke:#231f20;stroke-width:0.5;stroke-linecap:round;stroke-linejoin:round;stroke-miterlimit:4;stroke-dasharray:none;stroke-opacity:1"
             d="M 0,0 3.702,0" /></g><g
           transform="translate(208.4473,102.4512)"
           id="g70"><path
             id="path72"
             style="fill:none;stroke:#231f20;stroke-width:0.5;stroke-linecap:round;stroke-linejoin:round;stroke-miterlimit:4;stroke-dasharray:none;stroke-opacity:1"
             d="M 0,0 3.539,0" /></g></g></g><text
       id="text74"
       style="font-variant:normal;font-weight:normal;font-stretch:normal;font-size:5px;font-family:Helvetica;-inkscape-font-specification:Helvetica;writing-mode:lr-tb;fill:#231f20;fill-opacity:1;fill-rule:nonzero;stroke:none"
       transform="matrix(0.93414,0,0,-1,8.3677,5.7803)"><tspan
         id="tspan76"
         y="0"
         x="0 2.5 5.2800002 8.0600004">cdgh</tspan></text>
<g
       id="g78"><g
         clip-path="url(#clipPath82)"
         id="g80"><g
           transform="translate(205.3369,85.4941)"
           id="g86"><path
             id="path88"
             style="fill:none;stroke:#231f20;stroke-width:1;stroke-linecap:round;stroke-linejoin:round;stroke-miterlimit:4;stroke-dasharray:none;stroke-opacity:1"
             d="m 0,0 0,7.248 9.788,0 0,-7.248 -1.21,-1.645 -7.369,0 L 0,0 Z" /></g><path
           id="path90"
           style="fill:none;stroke:#231f20;stroke-width:1;stroke-linecap:round;stroke-linejoin:round;stroke-miterlimit:4;stroke-dasharray:none;stroke-opacity:1"
           d="m 215.125,78.936 -9.788,0 0,4.914 9.788,0 0,-4.914 z" /><path
           id="path92"
           style="fill:none;stroke:#231f20;stroke-width:1;stroke-linecap:round;stroke-linejoin:round;stroke-miterlimit:4;stroke-dasharray:none;stroke-opacity:1"
           d="m 217.454,67.495 -17.111,0 0,11.44 17.111,0 0,-11.44 z" /><path
           id="path94"
           style="fill:none;stroke:#231f20;stroke-width:1;stroke-linecap:round;stroke-linejoin:round;stroke-miterlimit:4;stroke-dasharray:none;stroke-opacity:1"
           d="m 200.343,69.708 -7.407,0 0,7.016 7.407,0 0,-7.016 z" /><path
           id="path96"
           style="fill:none;stroke:#231f20;stroke-width:1;stroke-linecap:round;stroke-linejoin:round;stroke-miterlimit:4;stroke-dasharray:none;stroke-opacity:1"
           d="m 36.093,69.708 -7.407,0 0,7.016 7.407,0 0,-7.016 z" /><path
           id="path98"
           style="fill:none;stroke:#231f20;stroke-width:1;stroke-linecap:round;stroke-linejoin:round;stroke-miterlimit:4;stroke-dasharray:none;stroke-opacity:1"
           d="m 28.686,68.965 -12.104,0 0,8.503 12.104,0 0,-8.503 z" /><path
           id="path100"
           style="fill:none;stroke:#231f20;stroke-width:1;stroke-linecap:round;stroke-linejoin:round;stroke-miterlimit:4;stroke-dasharray:none;stroke-opacity:1"
           d="m 16.582,67.532 -4.466,0 0,11.368 4.466,0 0,-11.368 z" /><g
           transform="translate(235.4004,75.1855)"
           id="g102"><path
             id="path104"
             style="fill:none;stroke:#231f20;stroke-width:1;stroke-linecap:round;stroke-linejoin:round;stroke-miterlimit:4;stroke-dasharray:none;stroke-opacity:1"
             d="m 0,0 -9.539,0 0,0.56 -1.131,0 0,-0.56 -7.276,0 0,-3.938 7.276,0 0,-0.559 1.131,0 0,0.559 9.539,0 1.11,0.671 0,2.595 L 0,0 Z" /></g><path
           id="path106"
           style="fill:none;stroke:#231f20;stroke-width:1;stroke-linecap:round;stroke-linejoin:round;stroke-miterlimit:4;stroke-dasharray:none;stroke-opacity:1"
           d="m 213.536,92.742 -6.609,0 0,2.769 6.609,0 0,-2.769 z" /><g
           transform="translate(200.3428,76.8096)"
           id="g108"><path
             id="path110"
             style="fill:none;stroke:#231f20;stroke-width:0.5;stroke-linecap:round;stroke-linejoin:round;stroke-miterlimit:4;stroke-dasharray:none;stroke-opacity:1"
             d="M 0,0 17.111,0" /></g><g
           transform="translate(200.3428,69.915)"
           id="g112"><path
             id="path114"
             style="fill:none;stroke:#231f20;stroke-width:0.5;stroke-linecap:round;stroke-linejoin:round;stroke-miterlimit:4;stroke-dasharray:none;stroke-opacity:1"
             d="M 0,0 17.111,0" /></g><g
           transform="translate(235.4004,75.1855)"
           id="g116"><path
             id="path118"
             style="fill:none;stroke:#231f20;stroke-width:0.5;stroke-linecap:round;stroke-linejoin:round;stroke-miterlimit:4;stroke-dasharray:none;stroke-opacity:1"
             d="M 0,0 0,-3.938" /></g><g
           transform="translate(205.3369,90.1572)"
           id="g120"><path
             id="path122"
             style="fill:none;stroke:#231f20;stroke-width:0.5;stroke-linecap:round;stroke-linejoin:round;stroke-miterlimit:4;stroke-dasharray:none;stroke-opacity:1"
             d="M 0,0 9.788,0" /></g><g
           transform="translate(205.3369,87.8838)"
           id="g124"><path
             id="path126"
             style="fill:none;stroke:#231f20;stroke-width:0.5;stroke-linecap:round;stroke-linejoin:round;stroke-miterlimit:4;stroke-dasharray:none;stroke-opacity:1"
             d="M 0,0 9.788,0" /></g><g
           transform="translate(205.3369,85.5371)"
           id="g128"><path
             id="path130"
             style="fill:none;stroke:#231f20;stroke-width:0.5;stroke-linecap:round;stroke-linejoin:round;stroke-miterlimit:4;stroke-dasharray:none;stroke-opacity:1"
             d="M 0,0 9.788,0" /></g><g
           transform="translate(203.8506,72.8955)"
           id="g132"><path
             id="path134"
             style="fill:#231f20;fill-opacity:1;fill-rule:nonzero;stroke:none"
             d="M 0,0 1.031,0 0.523,1.699 0,0 Z m 0.054,2.688 0.955,0 1.424,-4.321 -0.914,0 -0.266,0.891 -1.482,0 -0.273,-0.891 -0.883,0 1.439,4.321 z" /></g><g
           transform="translate(225.9072,75.1855)"
           id="g136"><path
             id="path138"
             style="fill:none;stroke:#231f20;stroke-width:0.5;stroke-linecap:round;stroke-linejoin:round;stroke-miterlimit:4;stroke-dasharray:none;stroke-opacity:1"
             d="M 0,0 0,-3.938" /></g><g
           transform="translate(224.5742,75.1855)"
           id="g140"><path
             id="path142"
             style="fill:none;stroke:#231f20;stroke-width:0.5;stroke-linecap:round;stroke-linejoin:round;stroke-miterlimit:4;stroke-dasharray:none;stroke-opacity:1"
             d="M 0,0 0,-3.938" /></g><g
           transform="translate(36.0928,76.7236)"
           id="g144"><path
             id="path146"
             style="fill:none;stroke:#231f20;stroke-width:1;stroke-linecap:round;stroke-linejoin:round;stroke-miterlimit:4;stroke-dasharray:none;stroke-opacity:1"
             d="M 0,0 C 34.49,0 51.823,-4.645 81.49,-4.645 111.157,-4.645 143.195,0 156.843,0" /></g><g
           transform="translate(36.0928,69.708)"
           id="g148"><path
             id="path150"
             style="fill:none;stroke:#231f20;stroke-width:1;stroke-linecap:round;stroke-linejoin:round;stroke-miterlimit:4;stroke-dasharray:none;stroke-opacity:1"
             d="M 0,0 C 34.49,0 51.823,-4.645 81.49,-4.645 111.157,-4.645 143.195,0 156.843,0" /></g><g
           transform="translate(205.3369,42.1611)"
           id="g152"><path
             id="path154"
             style="fill:none;stroke:#231f20;stroke-width:1;stroke-linecap:round;stroke-linejoin:round;stroke-miterlimit:4;stroke-dasharray:none;stroke-opacity:1"
             d="m 0,0 0,7.248 9.788,0 0,-7.248 -1.21,-1.645 -7.369,0 L 0,0 Z" /></g><path
           id="path156"
           style="fill:none;stroke:#231f20;stroke-width:1;stroke-linecap:round;stroke-linejoin:round;stroke-miterlimit:4;stroke-dasharray:none;stroke-opacity:1"
           d="m 215.125,35.603 -9.788,0 0,4.914 9.788,0 0,-4.914 z" /><path
           id="path158"
           style="fill:none;stroke:#231f20;stroke-width:1;stroke-linecap:round;stroke-linejoin:round;stroke-miterlimit:4;stroke-dasharray:none;stroke-opacity:1"
           d="m 217.454,24.162 -17.111,0 0,11.44 17.111,0 0,-11.44 z" /><path
           id="path160"
           style="fill:none;stroke:#231f20;stroke-width:1;stroke-linecap:round;stroke-linejoin:round;stroke-miterlimit:4;stroke-dasharray:none;stroke-opacity:1"
           d="m 200.343,26.375 -7.407,0 0,7.016 7.407,0 0,-7.016 z" /><path
           id="path162"
           style="fill:none;stroke:#231f20;stroke-width:1;stroke-linecap:round;stroke-linejoin:round;stroke-miterlimit:4;stroke-dasharray:none;stroke-opacity:1"
           d="m 36.093,26.375 -7.407,0 0,7.016 7.407,0 0,-7.016 z" /><path
           id="path164"
           style="fill:none;stroke:#231f20;stroke-width:1;stroke-linecap:round;stroke-linejoin:round;stroke-miterlimit:4;stroke-dasharray:none;stroke-opacity:1"
           d="m 28.686,25.632 -12.104,0 0,8.503 12.104,0 0,-8.503 z" /><path
           id="path166"
           style="fill:none;stroke:#231f20;stroke-width:1;stroke-linecap:round;stroke-linejoin:round;stroke-miterlimit:4;stroke-dasharray:none;stroke-opacity:1"
           d="m 16.582,24.199 -4.466,0 0,11.368 4.466,0 0,-11.368 z" /><g
           transform="translate(235.4004,31.8525)"
           id="g168"><path
             id="path170"
             style="fill:none;stroke:#231f20;stroke-width:1;stroke-linecap:round;stroke-linejoin:round;stroke-miterlimit:4;stroke-dasharray:none;stroke-opacity:1"
             d="m 0,0 -9.539,0 0,0.56 -1.131,0 0,-0.56 -7.276,0 0,-3.938 7.276,0 0,-0.559 1.131,0 0,0.559 9.539,0 1.11,0.671 0,2.595 L 0,0 Z" /></g><path
           id="path172"
           style="fill:none;stroke:#231f20;stroke-width:1;stroke-linecap:round;stroke-linejoin:round;stroke-miterlimit:4;stroke-dasharray:none;stroke-opacity:1"
           d="m 213.536,49.409 -6.609,0 0,2.769 6.609,0 0,-2.769 z" /><g
           transform="translate(200.3428,33.4766)"
           id="g174"><path
             id="path176"
             style="fill:none;stroke:#231f20;stroke-width:0.5;stroke-linecap:round;stroke-linejoin:round;stroke-miterlimit:4;stroke-dasharray:none;stroke-opacity:1"
             d="M 0,0 17.111,0" /></g><g
           transform="translate(200.3428,26.582)"
           id="g178"><path
             id="path180"
             style="fill:none;stroke:#231f20;stroke-width:0.5;stroke-linecap:round;stroke-linejoin:round;stroke-miterlimit:4;stroke-dasharray:none;stroke-opacity:1"
             d="M 0,0 17.111,0" /></g><g
           transform="translate(235.4004,31.8525)"
           id="g182"><path
             id="path184"
             style="fill:none;stroke:#231f20;stroke-width:0.5;stroke-linecap:round;stroke-linejoin:round;stroke-miterlimit:4;stroke-dasharray:none;stroke-opacity:1"
             d="M 0,0 0,-3.938" /></g><g
           transform="translate(205.3369,46.8242)"
           id="g186"><path
             id="path188"
             style="fill:none;stroke:#231f20;stroke-width:0.5;stroke-linecap:round;stroke-linejoin:round;stroke-miterlimit:4;stroke-dasharray:none;stroke-opacity:1"
             d="M 0,0 9.788,0" /></g><g
           transform="translate(205.3369,44.5508)"
           id="g190"><path
             id="path192"
             style="fill:none;stroke:#231f20;stroke-width:0.5;stroke-linecap:round;stroke-linejoin:round;stroke-miterlimit:4;stroke-dasharray:none;stroke-opacity:1"
             d="M 0,0 9.788,0" /></g><g
           transform="translate(205.3369,42.2041)"
           id="g194"><path
             id="path196"
             style="fill:none;stroke:#231f20;stroke-width:0.5;stroke-linecap:round;stroke-linejoin:round;stroke-miterlimit:4;stroke-dasharray:none;stroke-opacity:1"
             d="M 0,0 9.788,0" /></g><g
           transform="translate(203.5752,29.8281)"
           id="g198"><path
             id="path200"
             style="fill:#231f20;fill-opacity:1;fill-rule:nonzero;stroke:none"
             d="m 0,0 0,-1.156 0.981,0 c 0.175,0 0.312,0.025 0.41,0.076 0.176,0.095 0.265,0.274 0.265,0.542 0,0.226 -0.086,0.38 -0.258,0.465 C 1.303,-0.026 1.168,-0.002 0.995,0 L 0,0 Z m 0,1.68 0,-0.961 0.985,0 c 0.176,0 0.319,0.036 0.428,0.108 0.11,0.071 0.165,0.199 0.165,0.383 0,0.203 -0.072,0.337 -0.218,0.401 C 1.235,1.657 1.076,1.68 0.882,1.68 L 0,1.68 Z M 2.197,1.961 C 2.321,1.777 2.383,1.558 2.383,1.302 2.383,1.037 2.32,0.825 2.195,0.665 2.125,0.575 2.021,0.492 1.886,0.418 2.091,0.338 2.246,0.211 2.351,0.037 2.455,-0.137 2.508,-0.347 2.508,-0.595 2.508,-0.851 2.448,-1.08 2.328,-1.283 2.252,-1.418 2.156,-1.531 2.042,-1.623 1.913,-1.729 1.761,-1.801 1.586,-1.84 1.41,-1.879 1.221,-1.898 1.015,-1.898 l -1.82,0 0,4.32 1.954,0 C 1.643,2.414 1.992,2.261 2.197,1.961" /></g><g
           transform="translate(225.9072,31.8525)"
           id="g202"><path
             id="path204"
             style="fill:none;stroke:#231f20;stroke-width:0.5;stroke-linecap:round;stroke-linejoin:round;stroke-miterlimit:4;stroke-dasharray:none;stroke-opacity:1"
             d="M 0,0 0,-3.938" /></g><g
           transform="translate(224.5742,31.8525)"
           id="g206"><path
             id="path208"
             style="fill:none;stroke:#231f20;stroke-width:0.5;stroke-linecap:round;stroke-linejoin:round;stroke-miterlimit:4;stroke-dasharray:none;stroke-opacity:1"
             d="M 0,0 0,-3.938" /></g><g
           transform="translate(36.0928,33.3906)"
           id="g210"><path
             id="path212"
             style="fill:none;stroke:#231f20;stroke-width:1;stroke-linecap:round;stroke-linejoin:round;stroke-miterlimit:4;stroke-dasharray:none;stroke-opacity:1"
             d="M 0,0 C 34.49,0 51.823,-4.645 81.49,-4.645 111.157,-4.645 143.195,0 156.843,0" /></g><g
           transform="translate(36.0928,26.375)"
           id="g214"><path
             id="path216"
             style="fill:none;stroke:#231f20;stroke-width:1;stroke-linecap:round;stroke-linejoin:round;stroke-miterlimit:4;stroke-dasharray:none;stroke-opacity:1"
             d="M 0,0 C 34.49,0 51.823,-4.645 81.49,-4.645 111.157,-4.645 143.195,0 156.843,0" /></g></g></g></g></svg>