<?xml version="1.0" encoding="UTF-8" standalone="no"?>
<!-- Created with Inkscape (http://www.inkscape.org/) -->

<svg
   xmlns:dc="http://purl.org/dc/elements/1.1/"
   xmlns:cc="http://creativecommons.org/ns#"
   xmlns:rdf="http://www.w3.org/1999/02/22-rdf-syntax-ns#"
   xmlns:svg="http://www.w3.org/2000/svg"
   xmlns="http://www.w3.org/2000/svg"
   xmlns:sodipodi="http://sodipodi.sourceforge.net/DTD/sodipodi-0.dtd"
   xmlns:inkscape="http://www.inkscape.org/namespaces/inkscape"
   version="1.1"
   id="svg2"
   xml:space="preserve"
   width="321.26001"
   height="245.66933"
   viewBox="0 0 321.26001 245.66933"
   sodipodi:docname="3880160.svg"
   inkscape:version="0.92.4 (5da689c313, 2019-01-14)"><metadata
     id="metadata8"><rdf:RDF><cc:Work
         rdf:about=""><dc:format>image/svg+xml</dc:format><dc:type
           rdf:resource="http://purl.org/dc/dcmitype/StillImage" /><dc:title></dc:title></cc:Work></rdf:RDF></metadata><defs
     id="defs6"><clipPath
       clipPathUnits="userSpaceOnUse"
       id="clipPath18"><path
         d="M 0.342,6.856 H 240.945 V 176.934 H 0.342 Z"
         id="path16"
         inkscape:connector-curvature="0" /></clipPath></defs><sodipodi:namedview
     pagecolor="#ffffff"
     bordercolor="#666666"
     borderopacity="1"
     objecttolerance="10"
     gridtolerance="10"
     guidetolerance="10"
     inkscape:pageopacity="0"
     inkscape:pageshadow="2"
     inkscape:window-width="640"
     inkscape:window-height="480"
     id="namedview4"
     showgrid="false"
     inkscape:zoom="0.96064089"
     inkscape:cx="160.63"
     inkscape:cy="122.83466"
     inkscape:window-x="0"
     inkscape:window-y="0"
     inkscape:window-maximized="0"
     inkscape:current-layer="g10" /><g
     id="g10"
     inkscape:groupmode="layer"
     inkscape:label="3880160"
     transform="matrix(1.3333333,0,0,-1.3333333,0,245.66933)"><g
       id="g12"><g
         id="g14"
         clip-path="url(#clipPath18)"><g
           id="g20"
           transform="translate(40.6334,121.1304)"><path
             d="m 0,0 c 0,0.686 -0.962,1.242 -2.148,1.242 -1.188,0 -2.15,-0.556 -2.15,-1.242 0,-0.686 0.962,-1.242 2.15,-1.242 C -0.962,-1.242 0,-0.686 0,0"
             style="fill:#231f20;fill-opacity:1;fill-rule:nonzero;stroke:none"
             id="path22"
             inkscape:connector-curvature="0" /></g><g
           id="g24"
           transform="translate(198.1237,76.5679)"><path
             d="m 0,0 c -1.523,-1.542 -3.046,-2.267 -3.987,-1.723 -1.473,0.85 -0.969,4.481 1.127,8.111 2.095,3.629 4.988,5.882 6.461,5.03 0.945,-0.546 1.076,-2.238 0.493,-4.34"
             style="fill:none;stroke:#231f20;stroke-width:0.5;stroke-linecap:round;stroke-linejoin:round;stroke-miterlimit:4;stroke-dasharray:none;stroke-opacity:1"
             id="path26"
             inkscape:connector-curvature="0" /></g><g
           id="g28"
           transform="translate(197.651,78.0718)"><path
             d="m 0,0 c -1.244,-1.311 -2.505,-1.941 -3.274,-1.497 -1.159,0.669 -0.762,3.524 0.886,6.381 1.649,2.854 3.925,4.628 5.084,3.958 C 3.462,8.399 3.549,7.001 3.043,5.279"
             style="fill:none;stroke:#231f20;stroke-width:0.5;stroke-linecap:round;stroke-linejoin:round;stroke-miterlimit:4;stroke-dasharray:none;stroke-opacity:1"
             id="path30"
             inkscape:connector-curvature="0" /></g><g
           id="g32"
           transform="translate(195.9586,79.312)"><path
             d="M 0,0 C -0.545,0.315 -0.358,1.658 0.417,3.002 1.191,4.344 2.263,5.178 2.809,4.863"
             style="fill:none;stroke:#231f20;stroke-width:0.5;stroke-linecap:round;stroke-linejoin:round;stroke-miterlimit:4;stroke-dasharray:none;stroke-opacity:1"
             id="path34"
             inkscape:connector-curvature="0" /></g><g
           id="g36"
           transform="translate(206.6813,79.6059)"><path
             d="m 0,0 c 0.544,-0.314 0.357,-1.658 -0.418,-3.001 -0.775,-1.343 -1.846,-2.176 -2.391,-1.862 -0.545,0.315 -0.358,1.658 0.417,3.002 C -1.617,-0.519 -0.546,0.315 0,0 Z"
             style="fill:none;stroke:#231f20;stroke-width:0.5;stroke-linecap:round;stroke-linejoin:round;stroke-miterlimit:4;stroke-dasharray:none;stroke-opacity:1"
             id="path38"
             inkscape:connector-curvature="0" /></g><g
           id="g40"
           transform="translate(184.3375,38.4067)"><path
             d="m 0,0 c 0.537,-0.309 0.353,-1.64 -0.414,-2.966 -0.766,-1.326 -1.823,-2.15 -2.361,-1.84 -0.539,0.311 -0.355,1.639 0.411,2.966 C -1.598,-0.513 -0.54,0.312 0,0 Z"
             style="fill:none;stroke:#231f20;stroke-width:0.5;stroke-linecap:round;stroke-linejoin:round;stroke-miterlimit:4;stroke-dasharray:none;stroke-opacity:1"
             id="path42"
             inkscape:connector-curvature="0" /></g><g
           id="g44"
           transform="translate(87.0983,88.3061)"><path
             d="M 0,0 C -0.569,0.33 -0.442,1.615 0.284,2.873 1.01,4.131 2.06,4.884 2.63,4.555"
             style="fill:none;stroke:#231f20;stroke-width:0.5;stroke-linecap:round;stroke-linejoin:round;stroke-miterlimit:4;stroke-dasharray:none;stroke-opacity:1"
             id="path46"
             inkscape:connector-curvature="0" /></g><g
           id="g48"
           transform="translate(84.1613,84.4331)"><path
             d="m 0,0 c -1.613,0.934 -1.253,4.576 0.804,8.141 2.056,3.565 5.034,5.702 6.65,4.768"
             style="fill:none;stroke:#231f20;stroke-width:0.5;stroke-linecap:round;stroke-linejoin:round;stroke-miterlimit:4;stroke-dasharray:none;stroke-opacity:1"
             id="path50"
             inkscape:connector-curvature="0" /></g><g
           id="g52"
           transform="translate(89.3029,87.0278)"><path
             d="m 0,0 c -1.824,-2.196 -3.892,-3.314 -5.142,-2.595 l -1.276,0.737"
             style="fill:none;stroke:#231f20;stroke-width:1.5;stroke-linecap:round;stroke-linejoin:round;stroke-miterlimit:4;stroke-dasharray:none;stroke-opacity:1"
             id="path54"
             inkscape:connector-curvature="0" /></g><g
           id="g56"
           transform="translate(83.0836,102.2681)"><path
             d="m 0,0 8.532,-4.926 c 1.249,-0.72 1.313,-3.077 0.319,-5.761"
             style="fill:none;stroke:#231f20;stroke-width:1.5;stroke-linecap:round;stroke-linejoin:round;stroke-miterlimit:4;stroke-dasharray:none;stroke-opacity:1"
             id="path58"
             inkscape:connector-curvature="0" /></g><g
           id="g60"
           transform="translate(74.5988,92.9702)"><path
             d="M 0,0 C 0.192,1.393 0.76,3.017 1.683,4.617 3.74,8.182 6.785,10.28 8.485,9.298"
             style="fill:none;stroke:#231f20;stroke-width:0.5;stroke-linecap:round;stroke-linejoin:round;stroke-miterlimit:4;stroke-dasharray:none;stroke-opacity:1"
             id="path62"
             inkscape:connector-curvature="0" /></g><g
           id="g64"
           transform="translate(68.5543,89.5454)"><path
             d="m 0,0 c 0.017,2.977 1.15,6.815 3.324,10.583 3.893,6.75 9.659,10.721 12.877,8.861"
             style="fill:none;stroke:#231f20;stroke-width:0.5;stroke-linecap:round;stroke-linejoin:round;stroke-miterlimit:4;stroke-dasharray:none;stroke-opacity:1"
             id="path66"
             inkscape:connector-curvature="0" /></g><g
           id="g68"
           transform="translate(86.3634,100.3755)"><path
             d="m 0,0 c 0.971,4.054 0.474,7.413 -1.608,8.614 l -1.941,1.12 c -3.218,1.86 -8.983,-2.111 -12.877,-8.861 -2.764,-4.791 -3.845,-9.694 -3.09,-12.801"
             style="fill:none;stroke:#231f20;stroke-width:1.5;stroke-linecap:round;stroke-linejoin:round;stroke-miterlimit:4;stroke-dasharray:none;stroke-opacity:1"
             id="path70"
             inkscape:connector-curvature="0" /></g><g
           id="g72"
           transform="translate(71.4074,103.5434)"><path
             d="m 0,0 -55.827,32.232 c -0.905,0.523 -2.248,-0.11 -2.999,-1.413 -0.751,-1.302 -0.628,-2.779 0.276,-3.302 L -2.826,-4.946"
             style="fill:none;stroke:#231f20;stroke-width:1.5;stroke-linecap:round;stroke-linejoin:round;stroke-miterlimit:4;stroke-dasharray:none;stroke-opacity:1"
             id="path74"
             inkscape:connector-curvature="0" /></g><g
           id="g76"
           transform="translate(189.2204,67.6255)"><path
             d="m 0,0 c -3.164,1.826 -2.081,9.626 2.42,17.421 4.501,7.796 10.713,12.634 13.877,10.806"
             style="fill:none;stroke:#231f20;stroke-width:0.5;stroke-linecap:round;stroke-linejoin:round;stroke-miterlimit:4;stroke-dasharray:none;stroke-opacity:1"
             id="path78"
             inkscape:connector-curvature="0" /></g><g
           id="g80"
           transform="translate(200.9713,75.1382)"><path
             d="m 0,0 c -4.171,-5.802 -9.063,-9.064 -11.751,-7.513 l -6.488,3.746 c -3.164,1.826 -2.081,9.626 2.42,17.421 4.501,7.796 10.713,12.634 13.877,10.807 L 4.546,20.715 C 7.23,19.166 6.856,13.313 3.93,6.811"
             style="fill:none;stroke:#231f20;stroke-width:1.5;stroke-linecap:round;stroke-linejoin:round;stroke-miterlimit:4;stroke-dasharray:none;stroke-opacity:1"
             id="path82"
             inkscape:connector-curvature="0" /></g><g
           id="g84"
           transform="translate(183.3727,103.3862)"><path
             d="m 0,0 c 2.281,-1.316 1.5,-6.939 -1.745,-12.559 -3.245,-5.62 -7.724,-9.107 -10.003,-7.791 -2.281,1.317 -1.501,6.94 1.744,12.559 C -6.76,-2.17 -2.281,1.317 0,0 Z"
             style="fill:none;stroke:#231f20;stroke-width:0.5;stroke-linecap:round;stroke-linejoin:round;stroke-miterlimit:4;stroke-dasharray:none;stroke-opacity:1"
             id="path86"
             inkscape:connector-curvature="0" /></g><g
           id="g88"
           transform="translate(168.8014,84.6665)"><path
             d="m 0,0 c -2.281,1.316 -1.501,6.939 1.744,12.559 3.244,5.62 7.723,9.108 10.004,7.791"
             style="fill:none;stroke:#231f20;stroke-width:0.5;stroke-linecap:round;stroke-linejoin:round;stroke-miterlimit:4;stroke-dasharray:none;stroke-opacity:1"
             id="path90"
             inkscape:connector-curvature="0" /></g><g
           id="g92"
           transform="translate(162.1413,88.5112)"><path
             d="m 0,0 c -2.281,1.316 -1.501,6.94 1.744,12.559 3.244,5.621 7.723,9.108 10.004,7.791"
             style="fill:none;stroke:#231f20;stroke-width:0.5;stroke-linecap:round;stroke-linejoin:round;stroke-miterlimit:4;stroke-dasharray:none;stroke-opacity:1"
             id="path94"
             inkscape:connector-curvature="0" /></g><g
           id="g96"
           transform="translate(159.7946,89.8667)"><path
             d="m 0,0 c -2.281,1.316 -1.501,6.939 1.744,12.559 3.244,5.62 7.723,9.108 10.004,7.791"
             style="fill:none;stroke:#231f20;stroke-width:0.5;stroke-linecap:round;stroke-linejoin:round;stroke-miterlimit:4;stroke-dasharray:none;stroke-opacity:1"
             id="path98"
             inkscape:connector-curvature="0" /></g><g
           id="g100"
           transform="translate(121.6579,108.2124)"><path
             d="m 0,0 c -3.457,1.996 -2.919,9.403 1.204,16.543 4.123,7.142 10.267,11.312 13.724,9.316"
             style="fill:none;stroke:#231f20;stroke-width:0.5;stroke-linecap:round;stroke-linejoin:round;stroke-miterlimit:4;stroke-dasharray:none;stroke-opacity:1"
             id="path102"
             inkscape:connector-curvature="0" /></g><g
           id="g104"
           transform="translate(132.8396,113.7954)"><path
             d="M 0,0 C -1.545,-1.928 -3.21,-3.473 -4.83,-4.523"
             style="fill:none;stroke:#231f20;stroke-width:0.5;stroke-linecap:round;stroke-linejoin:round;stroke-miterlimit:4;stroke-dasharray:none;stroke-opacity:1"
             id="path106"
             inkscape:connector-curvature="0" /></g><g
           id="g108"
           transform="translate(138.8551,128.2954)"><path
             d="M 0,0 C -0.06,-1.788 -0.477,-3.836 -1.244,-5.979"
             style="fill:none;stroke:#231f20;stroke-width:0.5;stroke-linecap:round;stroke-linejoin:round;stroke-miterlimit:4;stroke-dasharray:none;stroke-opacity:1"
             id="path110"
             inkscape:connector-curvature="0" /></g><g
           id="g112"
           transform="translate(126.1315,108.271)"><path
             d="m 0,0 c -1.689,-0.698 -3.249,-0.765 -4.474,-0.059 l -5.373,3.102 c -3.457,1.997 -2.919,9.403 1.204,16.544 4.123,7.142 10.267,11.312 13.724,9.315 L 10.454,25.8 c 1.22,-0.703 1.942,-2.082 2.185,-3.885"
             style="fill:none;stroke:#231f20;stroke-width:1.5;stroke-linecap:round;stroke-linejoin:round;stroke-miterlimit:4;stroke-dasharray:none;stroke-opacity:1"
             id="path114"
             inkscape:connector-curvature="0" /></g><g
           id="g116"
           transform="translate(127.4616,116.8926)"><path
             d="M 0,0 C -1.911,-2.384 -4.005,-4.182 -5.972,-5.182"
             style="fill:none;stroke:#231f20;stroke-width:0.5;stroke-linecap:round;stroke-linejoin:round;stroke-miterlimit:4;stroke-dasharray:none;stroke-opacity:1"
             id="path118"
             inkscape:connector-curvature="0" /></g><g
           id="g120"
           transform="translate(133.4743,132.4653)"><path
             d="M 0,0 C 0.106,-2.018 -0.312,-4.464 -1.235,-7.048"
             style="fill:none;stroke:#231f20;stroke-width:0.5;stroke-linecap:round;stroke-linejoin:round;stroke-miterlimit:4;stroke-dasharray:none;stroke-opacity:1"
             id="path122"
             inkscape:connector-curvature="0" /></g><g
           id="g124"
           transform="translate(96.0968,126.0146)"><path
             d="m 0,0 c -2.846,1.644 -2.403,7.742 0.992,13.622 3.395,5.88 8.453,9.314 11.299,7.67"
             style="fill:none;stroke:#231f20;stroke-width:0.5;stroke-linecap:round;stroke-linejoin:round;stroke-miterlimit:4;stroke-dasharray:none;stroke-opacity:1"
             id="path126"
             inkscape:connector-curvature="0" /></g><g
           id="g128"
           transform="translate(104.7277,129.9228)"><path
             d="m 0,0 c -3.02,-3.469 -6.465,-5.157 -8.631,-3.908 l -3.769,2.176 c -2.846,1.644 -2.403,7.742 0.992,13.622 3.395,5.88 8.453,9.314 11.3,7.67 L 3.661,17.384 C 5.795,16.152 6.079,12.413 4.656,8.141"
             style="fill:none;stroke:#231f20;stroke-width:1.5;stroke-linecap:round;stroke-linejoin:round;stroke-miterlimit:4;stroke-dasharray:none;stroke-opacity:1"
             id="path130"
             inkscape:connector-curvature="0" /></g><g
           id="g132"
           transform="translate(103.9157,129.1538)"><path
             d="M 0,0 C -2.452,-2.369 -5.047,-3.408 -6.76,-2.42 -9.339,-0.931 -8.938,4.597 -5.861,9.925 -2.784,15.254 1.8,18.366 4.38,16.876 6.102,15.883 6.495,13.09 5.651,9.757"
             style="fill:none;stroke:#231f20;stroke-width:0.5;stroke-linecap:round;stroke-linejoin:round;stroke-miterlimit:4;stroke-dasharray:none;stroke-opacity:1"
             id="path134"
             inkscape:connector-curvature="0" /></g><g
           id="g136"
           transform="translate(100.4293,132.4048)"><path
             d="m 0,0 c -1.062,0.614 -0.898,2.892 0.371,5.089 1.268,2.196 3.157,3.479 4.22,2.865"
             style="fill:none;stroke:#231f20;stroke-width:0.5;stroke-linecap:round;stroke-linejoin:round;stroke-miterlimit:4;stroke-dasharray:none;stroke-opacity:1"
             id="path138"
             inkscape:connector-curvature="0" /></g><g
           id="g140"
           transform="translate(122.818,110.2226)"><path
             d="m 0,0 c -2.92,1.686 -2.465,7.941 1.018,13.971 3.481,6.032 8.67,9.553 11.589,7.867"
             style="fill:none;stroke:#231f20;stroke-width:0.5;stroke-linecap:round;stroke-linejoin:round;stroke-miterlimit:4;stroke-dasharray:none;stroke-opacity:1"
             id="path142"
             inkscape:connector-curvature="0" /></g><g
           id="g144"
           transform="translate(77.32,91.437)"><path
             d="M 0,0 C 1.185,0.685 3.105,-0.422 4.288,-2.473 5.471,-4.523 5.47,-6.738 4.285,-7.422"
             style="fill:none;stroke:#231f20;stroke-width:1.5;stroke-linecap:round;stroke-linejoin:round;stroke-miterlimit:4;stroke-dasharray:none;stroke-opacity:1"
             id="path146"
             inkscape:connector-curvature="0" /></g><g
           id="g148"
           transform="translate(105.0206,140.3584)"><path
             d="M 0,0 15.067,-8.699"
             style="fill:none;stroke:#231f20;stroke-width:1.5;stroke-linecap:round;stroke-linejoin:round;stroke-miterlimit:4;stroke-dasharray:none;stroke-opacity:1"
             id="path150"
             inkscape:connector-curvature="0" /></g><g
           id="g152"
           transform="translate(100.4293,132.4048)"><path
             d="M 0,0 15.066,-8.699"
             style="fill:none;stroke:#231f20;stroke-width:1.5;stroke-linecap:round;stroke-linejoin:round;stroke-miterlimit:4;stroke-dasharray:none;stroke-opacity:1"
             id="path154"
             inkscape:connector-curvature="0" /></g><g
           id="g156"
           transform="translate(135.4254,132.061)"><path
             d="M 0,0 58.949,-33.058"
             style="fill:none;stroke:#231f20;stroke-width:1.5;stroke-linecap:round;stroke-linejoin:round;stroke-miterlimit:4;stroke-dasharray:none;stroke-opacity:1"
             id="path158"
             inkscape:connector-curvature="0" /></g><g
           id="g160"
           transform="translate(122.818,110.2226)"><path
             d="M 0,0 58.105,-34.185"
             style="fill:none;stroke:#231f20;stroke-width:1.5;stroke-linecap:round;stroke-linejoin:round;stroke-miterlimit:4;stroke-dasharray:none;stroke-opacity:1"
             id="path162"
             inkscape:connector-curvature="0" /></g><g
           id="g164"
           transform="translate(126.9508,128.4707)"><path
             d="M 0,0 37.659,-21.743"
             style="fill:none;stroke:#231f20;stroke-width:0.5;stroke-linecap:round;stroke-linejoin:round;stroke-miterlimit:4;stroke-dasharray:none;stroke-opacity:1"
             id="path166"
             inkscape:connector-curvature="0" /></g><g
           id="g168"
           transform="translate(121.9313,120.0767)"><path
             d="M 0,0 37.685,-21.698"
             style="fill:none;stroke:#231f20;stroke-width:0.5;stroke-linecap:round;stroke-linejoin:round;stroke-miterlimit:4;stroke-dasharray:none;stroke-opacity:1"
             id="path170"
             inkscape:connector-curvature="0" /></g><g
           id="g172"
           transform="translate(89.7282,92.8608)"><path
             d="M 0,0 80.474,-46.641"
             style="fill:none;stroke:#231f20;stroke-width:1.5;stroke-linecap:round;stroke-linejoin:round;stroke-miterlimit:4;stroke-dasharray:none;stroke-opacity:1"
             id="path174"
             inkscape:connector-curvature="0" /></g><g
           id="g176"
           transform="translate(87.0983,88.3061)"><path
             d="M 0,0 80.474,-46.641"
             style="fill:none;stroke:#231f20;stroke-width:1.5;stroke-linecap:round;stroke-linejoin:round;stroke-miterlimit:4;stroke-dasharray:none;stroke-opacity:1"
             id="path178"
             inkscape:connector-curvature="0" /></g><g
           id="g180"
           transform="translate(78.1516,78.8413)"><path
             d="m 0,0 c 0.097,0.431 0.153,0.902 0.153,1.422 0,0.52 -0.056,1.058 -0.154,1.599 -2.123,1.799 -3.791,4.697 -4.284,7.444 -0.419,0.355 -0.854,0.672 -1.302,0.931 -0.449,0.258 -0.883,0.443 -1.302,0.573"
             style="fill:none;stroke:#231f20;stroke-width:0.5;stroke-linecap:round;stroke-linejoin:round;stroke-miterlimit:4;stroke-dasharray:none;stroke-opacity:1"
             id="path182"
             inkscape:connector-curvature="0" /></g><g
           id="g184"
           transform="translate(75.1461,78.4897)"><path
             d="m 0,0 c 0.776,0.575 1.82,0.717 3.005,0.352 l 3.194,1.843 c 0.097,0.431 0.154,0.903 0.154,1.422 0,0.521 -0.057,1.058 -0.154,1.6 C 4.075,7.016 2.407,9.913 1.915,12.66 1.495,13.016 1.061,13.332 0.612,13.591 0.164,13.85 -0.271,14.034 -0.69,14.164 L -3.884,12.32 C -4.13,11.234 -4.667,10.448 -5.408,10.014"
             style="fill:none;stroke:#231f20;stroke-width:1.5;stroke-linecap:round;stroke-linejoin:round;stroke-miterlimit:4;stroke-dasharray:none;stroke-opacity:1"
             id="path186"
             inkscape:connector-curvature="0" /></g><g
           id="g188"
           transform="translate(73.8663,76.3452)"><path
             d="M 0,0 C 0.218,0.963 0.665,1.689 1.28,2.145"
             style="fill:none;stroke:#231f20;stroke-width:0.5;stroke-linecap:round;stroke-linejoin:round;stroke-miterlimit:4;stroke-dasharray:none;stroke-opacity:1"
             id="path190"
             inkscape:connector-curvature="0" /></g><g
           id="g192"
           transform="translate(69.7384,88.5034)"><path
             d="M 0,0 C -0.745,-0.437 -1.696,-0.518 -2.761,-0.189"
             style="fill:none;stroke:#231f20;stroke-width:0.5;stroke-linecap:round;stroke-linejoin:round;stroke-miterlimit:4;stroke-dasharray:none;stroke-opacity:1"
             id="path194"
             inkscape:connector-curvature="0" /></g><g
           id="g196"
           transform="translate(77.299,78.9487)"><path
             d="m 0,0 c -0.097,-0.233 -0.177,-0.487 -0.239,-0.76 l -3.194,-1.844 c -0.419,0.129 -0.853,0.315 -1.301,0.574 -0.449,0.259 -0.884,0.576 -1.303,0.93 -0.493,2.748 -2.161,5.647 -4.284,7.444 -0.097,0.543 -0.155,1.08 -0.154,1.599 0,0.52 0.056,0.993 0.154,1.422 l 3.194,1.844 c 0.282,-0.087 0.556,-0.146 0.82,-0.176"
             style="fill:none;stroke:#231f20;stroke-width:1.5;stroke-linecap:round;stroke-linejoin:round;stroke-miterlimit:4;stroke-dasharray:none;stroke-opacity:1"
             id="path198"
             inkscape:connector-curvature="0" /></g><g
           id="g200"
           transform="translate(78.151,81.8628)"><path
             d="M 0,0 3.194,1.844"
             style="fill:none;stroke:#231f20;stroke-width:0.5;stroke-linecap:round;stroke-linejoin:round;stroke-miterlimit:4;stroke-dasharray:none;stroke-opacity:1"
             id="path202"
             inkscape:connector-curvature="0" /></g><g
           id="g204"
           transform="translate(73.8668,89.3061)"><path
             d="M 0,0 3.194,1.844"
             style="fill:none;stroke:#231f20;stroke-width:0.5;stroke-linecap:round;stroke-linejoin:round;stroke-miterlimit:4;stroke-dasharray:none;stroke-opacity:1"
             id="path206"
             inkscape:connector-curvature="0" /></g><g
           id="g208"
           transform="translate(88.8112,86.5933)"><path
             d="m 0,0 c -1.282,-1.24 -2.602,-1.795 -3.456,-1.304 -1.323,0.766 -1.027,3.754 0.66,6.678 1.687,2.925 4.129,4.677 5.455,3.911 C 3.519,8.789 3.694,7.35 3.247,5.6"
             style="fill:none;stroke:#231f20;stroke-width:0.5;stroke-linecap:round;stroke-linejoin:round;stroke-miterlimit:4;stroke-dasharray:none;stroke-opacity:1"
             id="path210"
             inkscape:connector-curvature="0" /></g><g
           id="g212"
           transform="translate(187.3375,30.0063)"><path
             d="m 0,0 c 13.27,-7.662 26.123,-8.993 35.264,-3.652 6.709,3.919 10.664,11.151 10.579,19.344 -0.126,12.157 -8.753,24.177 -23.078,32.155 -1.2,0.692 -1.991,2.239 -2.888,2.757 -0.898,0.519 -4.691,2.709 -4.691,2.709 -0.764,0.441 -2.263,-0.727 -3.347,-2.605 -1.086,-1.881 -1.347,-3.761 -0.584,-4.202 0,0 3.529,-2.038 4.539,-2.621 1.01,-0.583 2.874,-0.601 4.051,-1.281 C 32.264,35.689 39.74,25.605 39.843,15.63 39.906,9.528 37.134,4.389 32.237,1.528 25.009,-2.695 14.352,-1.358 3,5.195 1.801,5.888 0.363,7.79 -0.534,8.309 c -0.898,0.518 -14.834,8.564 -14.834,8.564 -0.764,0.44 -2.263,-0.728 -3.347,-2.605 -1.086,-1.881 -1.347,-3.761 -0.584,-4.203 0,0 13.765,-7.947 14.775,-8.53 C -3.515,0.952 -1.177,0.68 0,0 Z"
             style="fill:none;stroke:#231f20;stroke-width:1.5;stroke-linecap:round;stroke-linejoin:round;stroke-miterlimit:4;stroke-dasharray:none;stroke-opacity:1"
             id="path214"
             inkscape:connector-curvature="0" /></g><g
           id="g216"
           transform="translate(198.7672,84.1753)"><path
             d="M 0,0 2.215,-1.279"
             style="fill:none;stroke:#231f20;stroke-width:1.5;stroke-linecap:round;stroke-linejoin:round;stroke-miterlimit:4;stroke-dasharray:none;stroke-opacity:1"
             id="path218"
             inkscape:connector-curvature="0" /></g><g
           id="g220"
           transform="translate(195.9586,79.312)"><path
             d="M 0,0 2.228,-1.286"
             style="fill:none;stroke:#231f20;stroke-width:1.5;stroke-linecap:round;stroke-linejoin:round;stroke-miterlimit:4;stroke-dasharray:none;stroke-opacity:1"
             id="path222"
             inkscape:connector-curvature="0" /></g><g
           id="g224"
           transform="translate(200.4899,74.5356)"><path
             d="m 0,0 c -3.599,-4.647 -7.631,-7.165 -9.909,-5.851 -2.855,1.648 -1.877,8.683 2.182,15.714 4.06,7.032 9.664,11.396 12.517,9.747 2.238,-1.292 2.119,-5.899 0.004,-11.219"
             style="fill:none;stroke:#231f20;stroke-width:0.5;stroke-linecap:round;stroke-linejoin:round;stroke-miterlimit:4;stroke-dasharray:none;stroke-opacity:1"
             id="path226"
             inkscape:connector-curvature="0" /></g></g></g><text
       transform="matrix(1,0,0,-1,1.9793,2.6855)"
       style="font-variant:normal;font-weight:normal;font-stretch:normal;font-size:5px;font-family:Helvetica;-inkscape-font-specification:Helvetica;writing-mode:lr-tb;fill:#231f20;fill-opacity:1;fill-rule:nonzero;stroke:none"
       id="text230"><tspan
         x="0 2.5 5 7.7800002"
         y="0"
         sodipodi:role="line"
         id="tspan228">ccha</tspan></text>
</g></svg>