<?xml version="1.0" encoding="UTF-8" standalone="no"?>
<!-- Created with Inkscape (http://www.inkscape.org/) -->

<svg
   xmlns:dc="http://purl.org/dc/elements/1.1/"
   xmlns:cc="http://creativecommons.org/ns#"
   xmlns:rdf="http://www.w3.org/1999/02/22-rdf-syntax-ns#"
   xmlns:svg="http://www.w3.org/2000/svg"
   xmlns="http://www.w3.org/2000/svg"
   xmlns:sodipodi="http://sodipodi.sourceforge.net/DTD/sodipodi-0.dtd"
   xmlns:inkscape="http://www.inkscape.org/namespaces/inkscape"
   id="svg3638"
   version="1.1"
   inkscape:version="0.91 r13725"
   xml:space="preserve"
   width="301.18124"
   height="230.315"
   viewBox="0 0 301.18124 230.315"
   sodipodi:docname="DD2 Fork Pull Through.svg"><metadata
     id="metadata3644"><rdf:RDF><cc:Work
         rdf:about=""><dc:format>image/svg+xml</dc:format><dc:type
           rdf:resource="http://purl.org/dc/dcmitype/StillImage" /><dc:title></dc:title></cc:Work></rdf:RDF></metadata><defs
     id="defs3642"><clipPath
       clipPathUnits="userSpaceOnUse"
       id="clipPath3652"><path
         d="m 0,0 240.945,0 0,184.252 L 0,184.252 0,0 Z"
         id="path3654"
         inkscape:connector-curvature="0" /></clipPath><clipPath
       clipPathUnits="userSpaceOnUse"
       id="clipPath3916"><path
         d="m 0,184.252 240.945,0 L 240.945,0 0,0 0,184.252 Z"
         id="path3918"
         inkscape:connector-curvature="0" /></clipPath></defs><sodipodi:namedview
     pagecolor="#ffffff"
     bordercolor="#666666"
     borderopacity="1"
     objecttolerance="10"
     gridtolerance="10"
     guidetolerance="10"
     inkscape:pageopacity="0"
     inkscape:pageshadow="2"
     inkscape:window-width="640"
     inkscape:window-height="480"
     id="namedview3640"
     showgrid="false"
     inkscape:zoom="3.6862557"
     inkscape:cx="150.59062"
     inkscape:cy="115.1575"
     inkscape:window-x="0"
     inkscape:window-y="0"
     inkscape:window-maximized="1"
     inkscape:current-layer="g3646" /><g
     id="g3646"
     inkscape:groupmode="layer"
     inkscape:label="DD2 Fork Pull Through"
     transform="matrix(1.25,0,0,-1.25,0,230.315)"><g
       id="g3648"><g
         id="g3650"
         clip-path="url(#clipPath3652)"><g
           id="g3656"
           transform="translate(97.418,113.4043)"><path
             d="m 0,0 c 0.808,-1.383 -10.117,-9.264 -24.399,-17.603 -14.284,-8.341 -26.518,-13.981 -27.325,-12.599"
             style="fill:none;stroke:#000000;stroke-width:0.5;stroke-linecap:round;stroke-linejoin:round;stroke-miterlimit:10;stroke-dasharray:none;stroke-opacity:1"
             id="path3658"
             inkscape:connector-curvature="0" /></g><g
           id="g3660"
           transform="translate(91.1494,111.792)"><path
             d="M 0,0 C 3.618,1.546 5.933,2.188 6.269,1.612 L 8.444,-2.111"
             style="fill:none;stroke:#000000;stroke-width:1;stroke-linecap:round;stroke-linejoin:round;stroke-miterlimit:10;stroke-dasharray:none;stroke-opacity:1"
             id="path3662"
             inkscape:connector-curvature="0" /></g><g
           id="g3664"
           transform="translate(47.0703,81)"><path
             d="M 0,0 -1.376,2.202 C -1.717,2.787 0.042,4.536 3.268,6.991"
             style="fill:none;stroke:#000000;stroke-width:1;stroke-linecap:round;stroke-linejoin:round;stroke-miterlimit:10;stroke-dasharray:none;stroke-opacity:1"
             id="path3666"
             inkscape:connector-curvature="0" /></g><g
           id="g3668"
           transform="translate(99.5933,109.6807)"><path
             d="m 0,0 c 0.808,-1.383 -10.117,-9.264 -24.399,-17.603 -4.098,-2.392 -8.026,-4.563 -11.565,-6.41"
             style="fill:none;stroke:#000000;stroke-width:0.5;stroke-linecap:round;stroke-linejoin:round;stroke-miterlimit:10;stroke-dasharray:none;stroke-opacity:1"
             id="path3670"
             inkscape:connector-curvature="0" /></g><g
           id="g3672"
           transform="translate(99.3755,110.3179)"><path
             d="M 0,0 C 0.719,0.131 1.167,0.09 1.302,-0.143 L 2.111,-1.527"
             style="fill:none;stroke:#000000;stroke-width:1;stroke-linecap:round;stroke-linejoin:round;stroke-miterlimit:10;stroke-dasharray:none;stroke-opacity:1"
             id="path3674"
             inkscape:connector-curvature="0" /></g><g
           id="g3676"
           transform="translate(100.6777,110.1748)"><path
             d="m 0,0 c 0.84,-1.437 -10.52,-9.632 -25.37,-18.303 -3.762,-2.197 -7.387,-4.214 -10.717,-5.977"
             style="fill:none;stroke:#000000;stroke-width:0.5;stroke-linecap:round;stroke-linejoin:round;stroke-miterlimit:10;stroke-dasharray:none;stroke-opacity:1"
             id="path3678"
             inkscape:connector-curvature="0" /></g><g
           id="g3680"
           transform="translate(101.458,108.6323)"><path
             d="m 0,0 c 1.133,-2.322 -10.482,-10.311 -25.941,-17.844 -15.461,-7.534 -28.912,-11.759 -30.043,-9.437"
             style="fill:none;stroke:#000000;stroke-width:1;stroke-linecap:round;stroke-linejoin:round;stroke-miterlimit:10;stroke-dasharray:none;stroke-opacity:1"
             id="path3682"
             inkscape:connector-curvature="0" /></g><g
           id="g3684"
           transform="translate(45.4736,81.3516)"><path
             d="M 0,0 C -0.184,0.377 -0.032,0.902 0.417,1.551"
             style="fill:none;stroke:#000000;stroke-width:0.5;stroke-linecap:round;stroke-linejoin:round;stroke-miterlimit:10;stroke-dasharray:none;stroke-opacity:1"
             id="path3686"
             inkscape:connector-curvature="0" /></g><g
           id="g3688"
           transform="translate(122.6055,97.123)"><path
             d="m 0,0 c 1.349,-2.462 -12.582,-12.68 -31.111,-22.822 -14.99,-8.206 -28.441,-13.527 -33.689,-14.405 -5.36,-0.896 -63.527,-1.23 -63.527,-1.23"
             style="fill:none;stroke:#000000;stroke-width:0.5;stroke-linecap:round;stroke-linejoin:round;stroke-miterlimit:10;stroke-dasharray:none;stroke-opacity:1"
             id="path3690"
             inkscape:connector-curvature="0" /></g><g
           id="g3692"
           transform="translate(90.1953,113.5)"><path
             d="m 0,0 c 8.125,2.375 16.625,2.375 20.625,-1.875 4,-4.25 10.875,-13 11.785,-14.502 0.91,-1.502 3.965,-12.123 4.055,-14.127 0.145,-3.237 -13.483,-13.962 -31.754,-24.63 -17.856,-10.427 -33.659,-17.084 -36.858,-15.662 0,0 -3.603,4.421 -4.728,5.546 C -38,-64.125 -41.5,-61.5 -54.25,-61.625 -67,-61.75 -101.625,-63 -101.625,-63"
             style="fill:none;stroke:#000000;stroke-width:1;stroke-linecap:round;stroke-linejoin:round;stroke-miterlimit:10;stroke-dasharray:none;stroke-opacity:1"
             id="path3694"
             inkscape:connector-curvature="0" /></g><g
           id="g3696"
           transform="translate(85.2095,118.5215)"><path
             d="m 0,0 c 0.593,-1.016 -7.428,-6.802 -17.915,-12.924 -10.487,-6.125 -19.469,-10.265 -20.062,-9.252 -0.592,1.016 7.428,6.803 17.915,12.926 C -9.575,-3.127 -0.593,1.015 0,0 Z"
             style="fill:none;stroke:#000000;stroke-width:0.5;stroke-linecap:round;stroke-linejoin:round;stroke-miterlimit:10;stroke-dasharray:none;stroke-opacity:1"
             id="path3698"
             inkscape:connector-curvature="0" /></g><g
           id="g3700"
           transform="translate(120.833,159.6187)"><path
             d="m 0,0 c 0.903,-1.547 -11.313,-10.359 -27.284,-19.684 -15.972,-9.327 -29.652,-15.633 -30.554,-14.089 -0.902,1.546 11.313,10.36 27.285,19.684 C -14.582,-4.763 -0.902,1.545 0,0 Z"
             style="fill:none;stroke:#000000;stroke-width:0.25;stroke-linecap:round;stroke-linejoin:round;stroke-miterlimit:10;stroke-dasharray:none;stroke-opacity:1"
             id="path3702"
             inkscape:connector-curvature="0" /></g><g
           id="g3704"
           transform="translate(30.9902,123.2832)"><path
             d="m 0,0 c 0.624,-1.068 -7.814,-7.157 -18.848,-13.598 -11.033,-6.443 -20.483,-10.799 -21.106,-9.733"
             style="fill:none;stroke:#000000;stroke-width:0.25;stroke-linecap:round;stroke-linejoin:round;stroke-miterlimit:10;stroke-dasharray:none;stroke-opacity:1"
             id="path3706"
             inkscape:connector-curvature="0" /></g><g
           id="g3708"
           transform="translate(33.3257,123.5127)"><path
             d="M 0,0 C 0.89,-1.523 -7.954,-8.329 -20.211,-15.484 -32.469,-22.643 -43.127,-27.209 -44.015,-25.69"
             style="fill:none;stroke:#000000;stroke-width:0.25;stroke-linecap:round;stroke-linejoin:round;stroke-miterlimit:10;stroke-dasharray:none;stroke-opacity:1"
             id="path3710"
             inkscape:connector-curvature="0" /></g><g
           id="g3712"
           transform="translate(125.3765,162.9209)"><path
             d="M 0,0 C 0.333,-0.018 0.552,-0.106 0.648,-0.271 1.713,-2.095 -12.696,-12.49 -31.535,-23.488 -50.374,-34.49 -66.509,-41.929 -67.574,-40.108"
             style="fill:none;stroke:#000000;stroke-width:0.25;stroke-linecap:round;stroke-linejoin:round;stroke-miterlimit:10;stroke-dasharray:none;stroke-opacity:1"
             id="path3714"
             inkscape:connector-curvature="0" /></g><g
           id="g3716"
           transform="translate(55.4697,118.7119)"><path
             d="m 0,0 c 2.583,1.292 2.333,4.101 2.333,4.101 -1.064,1.825 13.344,12.221 32.184,23.219 17.136,10.007 32.036,17.067 35.39,16.889 0,0 3.231,0.19 4.361,-1.263"
             style="fill:none;stroke:#000000;stroke-width:0.5;stroke-linecap:round;stroke-linejoin:round;stroke-miterlimit:10;stroke-dasharray:none;stroke-opacity:1"
             id="path3718"
             inkscape:connector-curvature="0" /></g><g
           id="g3720"
           transform="translate(51.2725,86.9199)"><path
             d="m 0,0 c 0,0 -4.562,7.17 -4.888,7.691 -0.326,0.522 -0.847,2.216 5.605,7.039 6.453,4.824 13.428,8.996 18.707,11.407 5.279,2.412 13.622,6.258 14.991,5.866 1.369,-0.391 2.281,-1.694 2.281,-1.694 l 4.172,-7.301"
             style="fill:none;stroke:#000000;stroke-width:1;stroke-linecap:round;stroke-linejoin:round;stroke-miterlimit:10;stroke-dasharray:none;stroke-opacity:1"
             id="path3722"
             inkscape:connector-curvature="0" /></g><g
           id="g3724"
           transform="translate(51.7939,86.7246)"><path
             d="M 0,0 2.086,-0.195 22.813,10.819 40.021,22.943"
             style="fill:none;stroke:#000000;stroke-width:0.5;stroke-linecap:round;stroke-linejoin:round;stroke-miterlimit:10;stroke-dasharray:none;stroke-opacity:1"
             id="path3726"
             inkscape:connector-curvature="0" /></g><g
           id="g3728"
           transform="translate(46.2539,94.9375)"><path
             d="M 0,0 3.128,-0.652 23.791,9.646 41.324,22.356"
             style="fill:none;stroke:#000000;stroke-width:0.5;stroke-linecap:round;stroke-linejoin:round;stroke-miterlimit:10;stroke-dasharray:none;stroke-opacity:1"
             id="path3730"
             inkscape:connector-curvature="0" /></g><g
           id="g3732"
           transform="translate(49.3823,94.2852)"><path
             d="M 0,0 4.393,-7.518"
             style="fill:none;stroke:#000000;stroke-width:0.5;stroke-linecap:round;stroke-linejoin:round;stroke-miterlimit:10;stroke-dasharray:none;stroke-opacity:1"
             id="path3734"
             inkscape:connector-curvature="0" /></g><g
           id="g3736"
           transform="translate(70.3052,104.7139)"><path
             d="M 0,0 4.218,-7.219"
             style="fill:none;stroke:#000000;stroke-width:0.5;stroke-linecap:round;stroke-linejoin:round;stroke-miterlimit:10;stroke-dasharray:none;stroke-opacity:1"
             id="path3738"
             inkscape:connector-curvature="0" /></g><g
           id="g3740"
           transform="translate(107.6118,114)"><path
             d="m 0,0 c 4.333,-2.667 1.298,-10.83 -20.333,-23.167 -21.334,-12.167 -43.333,-21.499 -51.5,-12.833 -8.167,8.666 4,19 4,19"
             style="fill:none;stroke:#000000;stroke-width:0.5;stroke-linecap:round;stroke-linejoin:round;stroke-miterlimit:10;stroke-dasharray:none;stroke-opacity:1"
             id="path3742"
             inkscape:connector-curvature="0" /></g><g
           id="g3744"
           transform="translate(37.1118,85.166)"><path
             d="m 0,0 c 0.833,-7 12.833,-11.666 44,5.834 31.167,17.5 22.667,23.833 22.667,23.833"
             style="fill:none;stroke:#000000;stroke-width:0.5;stroke-linecap:round;stroke-linejoin:round;stroke-miterlimit:10;stroke-dasharray:none;stroke-opacity:1"
             id="path3746"
             inkscape:connector-curvature="0" /></g><g
           id="g3748"
           transform="translate(121.1953,76)"><path
             d="M 0,0 50.25,-85"
             style="fill:none;stroke:#000000;stroke-width:1;stroke-linecap:round;stroke-linejoin:round;stroke-miterlimit:10;stroke-dasharray:none;stroke-opacity:1"
             id="path3750"
             inkscape:connector-curvature="0" /></g><g
           id="g3752"
           transform="translate(67.1953,44.25)"><path
             d="M 0,0 50.25,-85"
             style="fill:none;stroke:#000000;stroke-width:1;stroke-linecap:round;stroke-linejoin:round;stroke-miterlimit:10;stroke-dasharray:none;stroke-opacity:1"
             id="path3754"
             inkscape:connector-curvature="0" /></g><g
           id="g3756"
           transform="translate(20.6563,51.3223)"><path
             d="M 0,0 C -0.174,-0.58 -0.2,-0.934 0,-1.275 0.2,-1.617 0.879,-2.78 1.761,-4.289 2.643,-5.798 15.289,0.553 15.289,0.553"
             style="fill:none;stroke:#000000;stroke-width:0.5;stroke-linecap:round;stroke-linejoin:round;stroke-miterlimit:10;stroke-dasharray:none;stroke-opacity:1"
             id="path3758"
             inkscape:connector-curvature="0" /></g><g
           id="g3760"
           transform="translate(28.5361,48.4248)"><path
             d="m 0,0 5.852,0.579 c 0,0 2.258,-3.866 3.243,-5.552 0.985,-1.685 6.838,0.106 14.891,5.494"
             style="fill:none;stroke:#000000;stroke-width:0.5;stroke-linecap:round;stroke-linejoin:round;stroke-miterlimit:10;stroke-dasharray:none;stroke-opacity:1"
             id="path3762"
             inkscape:connector-curvature="0" /></g><g
           id="g3764"
           transform="translate(34.6772,49.2939)"><path
             d="M 0,0 5.446,2.375"
             style="fill:none;stroke:#000000;stroke-width:0.25;stroke-linecap:round;stroke-linejoin:round;stroke-miterlimit:10;stroke-dasharray:none;stroke-opacity:1"
             id="path3766"
             inkscape:connector-curvature="0" /></g><g
           id="g3768"
           transform="translate(37.6313,43.4521)"><path
             d="m 0,0 c 5.013,0.637 7.526,1.783 11.067,4.973 0,0 1.159,0.232 3.013,0.985"
             style="fill:none;stroke:#000000;stroke-width:0.25;stroke-linecap:round;stroke-linejoin:round;stroke-miterlimit:10;stroke-dasharray:none;stroke-opacity:1"
             id="path3770"
             inkscape:connector-curvature="0" /></g><g
           id="g3772"
           transform="translate(48.6982,48.4248)"><path
             d="M 0,0 -1.265,2.164"
             style="fill:none;stroke:#000000;stroke-width:0.25;stroke-linecap:round;stroke-linejoin:round;stroke-miterlimit:10;stroke-dasharray:none;stroke-opacity:1"
             id="path3774"
             inkscape:connector-curvature="0" /></g><g
           id="g3776"
           transform="translate(20.6563,50.3369)"><path
             d="M 0,0 C 0.711,-1.218 6.837,1.391 6.837,1.391"
             style="fill:none;stroke:#000000;stroke-width:0.25;stroke-linecap:round;stroke-linejoin:round;stroke-miterlimit:10;stroke-dasharray:none;stroke-opacity:1"
             id="path3778"
             inkscape:connector-curvature="0" /></g><g
           id="g3780"
           transform="translate(121.5684,98.8057)"><path
             d="M 0,0 C 1.357,-0.663 2.705,-0.793 3.832,-0.247"
             style="fill:none;stroke:#000000;stroke-width:0.5;stroke-linecap:round;stroke-linejoin:round;stroke-miterlimit:10;stroke-dasharray:none;stroke-opacity:1"
             id="path3782"
             inkscape:connector-curvature="0" /></g><g
           id="g3784"
           transform="translate(117.0498,115.8154)"><path
             d="M 0,0 C -2.418,-1.17 -3.03,-5.06 -1.641,-9.184"
             style="fill:none;stroke:#000000;stroke-width:0.5;stroke-linecap:round;stroke-linejoin:round;stroke-miterlimit:10;stroke-dasharray:none;stroke-opacity:1"
             id="path3786"
             inkscape:connector-curvature="0" /></g><g
           id="g3788"
           transform="translate(110.6123,112.1343)"><path
             d="m 0,0 6.437,3.681 c 2.786,1.348 6.914,-1.423 9.219,-6.188 2.307,-4.766 1.918,-9.721 -0.868,-11.069 l -2.795,-1.435"
             style="fill:none;stroke:#000000;stroke-width:1;stroke-linecap:round;stroke-linejoin:round;stroke-miterlimit:10;stroke-dasharray:none;stroke-opacity:1"
             id="path3790"
             inkscape:connector-curvature="0" /></g><g
           id="g3792"
           transform="translate(125.4995,99.9072)"><path
             d="m 0,0 c 2.448,1.184 2.79,5.536 0.763,9.722 -2.026,4.186 -5.651,6.62 -8.098,5.436 C -9.781,13.974 -10.123,9.621 -8.098,5.435 -6.072,1.249 -2.447,-1.185 0,0 Z"
             style="fill:none;stroke:#000000;stroke-width:0.5;stroke-linecap:round;stroke-linejoin:round;stroke-miterlimit:10;stroke-dasharray:none;stroke-opacity:1"
             id="path3794"
             inkscape:connector-curvature="0" /></g><g
           id="g3796"
           transform="translate(119.6294,112.1343)"><path
             d="M 0,0 3.403,-1.268 5.508,-5.927 4.21,-9.32"
             style="fill:none;stroke:#000000;stroke-width:0.5;stroke-linecap:round;stroke-linejoin:round;stroke-miterlimit:10;stroke-dasharray:none;stroke-opacity:1"
             id="path3798"
             inkscape:connector-curvature="0" /></g><g
           id="g3800"
           transform="translate(123.8394,102.8145)"><path
             d="M 0,0 -3.403,1.269 -5.508,5.929 -4.21,9.32"
             style="fill:none;stroke:#000000;stroke-width:1;stroke-linecap:butt;stroke-linejoin:round;stroke-miterlimit:10;stroke-dasharray:none;stroke-opacity:1"
             id="path3802"
             inkscape:connector-curvature="0" /></g><g
           id="g3804"
           transform="translate(123.0322,110.8667)"><path
             d="M 0,0 -4.701,-2.124"
             style="fill:none;stroke:#000000;stroke-width:0.5;stroke-linecap:round;stroke-linejoin:round;stroke-miterlimit:10;stroke-dasharray:none;stroke-opacity:1"
             id="path3806"
             inkscape:connector-curvature="0" /></g><g
           id="g3808"
           transform="translate(125.1377,106.207)"><path
             d="M 0,0 -4.701,-2.124"
             style="fill:none;stroke:#000000;stroke-width:0.5;stroke-linecap:round;stroke-linejoin:round;stroke-miterlimit:10;stroke-dasharray:none;stroke-opacity:1"
             id="path3810"
             inkscape:connector-curvature="0" /></g><g
           id="g3812"
           transform="translate(98.5771,115.3643)"><path
             d="m 0,0 c 0,0 1.542,3.993 6.26,6.092 4.719,2.099 16.233,9.481 21.257,12.917 2.221,1.518 2.118,0.279 5.42,2.26 2.421,1.453 6.295,4.682 8.233,5.974 1.937,1.291 2.423,2.583 1.615,4.359 -0.807,1.776 -7.427,13.077 -8.234,14.53 -0.808,1.453 -4.036,-0.645 -5.005,0.324"
             style="fill:none;stroke:#000000;stroke-width:0.5;stroke-linecap:round;stroke-linejoin:round;stroke-miterlimit:10;stroke-dasharray:none;stroke-opacity:1"
             id="path3814"
             inkscape:connector-curvature="0" /></g><g
           id="g3816"
           transform="translate(57.2456,120.4883)"><path
             d="m 0,0 c 1.453,-1.615 6.135,-1.776 23.733,3.875 17.599,5.65 20.989,6.619 23.572,2.906 2.584,-3.714 -3.067,-7.75 -3.067,-7.75"
             style="fill:none;stroke:#000000;stroke-width:0.25;stroke-linecap:round;stroke-linejoin:round;stroke-miterlimit:10;stroke-dasharray:none;stroke-opacity:1"
             id="path3818"
             inkscape:connector-curvature="0" /></g><g
           id="g3820"
           transform="translate(56.2769,118.5508)"><path
             d="M 0,0 C 3.391,-2.745 14.854,0 25.671,3.875 36.488,7.75 45.207,10.817 46.66,7.104 48.113,3.39 44.012,-0.323 44.012,-0.323"
             style="fill:none;stroke:#000000;stroke-width:0.25;stroke-linecap:round;stroke-linejoin:round;stroke-miterlimit:10;stroke-dasharray:none;stroke-opacity:1"
             id="path3822"
             inkscape:connector-curvature="0" /></g><g
           id="g3824"
           transform="translate(89.5361,115.6445)"><path
             d="M 0,0 11.625,10.979"
             style="fill:none;stroke:#000000;stroke-width:0.25;stroke-linecap:round;stroke-linejoin:round;stroke-miterlimit:10;stroke-dasharray:none;stroke-opacity:1"
             id="path3826"
             inkscape:connector-curvature="0" /></g><g
           id="g3828"
           transform="translate(86.791,118.2275)"><path
             d="M 0,0 8.88,8.557"
             style="fill:none;stroke:#000000;stroke-width:0.25;stroke-linecap:round;stroke-linejoin:round;stroke-miterlimit:10;stroke-dasharray:none;stroke-opacity:1"
             id="path3830"
             inkscape:connector-curvature="0" /></g><g
           id="g3832"
           transform="translate(133.1279,161.4966)"><path
             d="m 0,0 c 0.484,-1.937 -7.265,-7.749 -8.718,-8.879 -1.453,-1.131 -1.454,-2.1 -0.808,-3.714 0.646,-1.615 3.229,-8.073 3.229,-8.073 l 3.875,-4.52"
             style="fill:none;stroke:#000000;stroke-width:0.25;stroke-linecap:round;stroke-linejoin:round;stroke-miterlimit:10;stroke-dasharray:none;stroke-opacity:1"
             id="path3834"
             inkscape:connector-curvature="0" /></g><g
           id="g3836"
           transform="translate(129.4951,161.3291)"><path
             d="m 0,0 c -0.216,-2.055 -4.542,-5.947 -6.109,-7.407 -1.568,-1.46 -2.326,-2.758 -1.406,-4.704 0.919,-1.946 4.851,-8.387 4.851,-8.387"
             style="fill:none;stroke:#000000;stroke-width:0.25;stroke-linecap:round;stroke-linejoin:round;stroke-miterlimit:10;stroke-dasharray:none;stroke-opacity:1"
             id="path3838"
             inkscape:connector-curvature="0" /></g><g
           id="g3840"
           transform="translate(128.0352,161.7075)"><path
             d="m 0,0 c 1.027,-1.622 -3.838,-5.407 -6.217,-7.624 -2.379,-2.216 -2.271,-3.081 -1.136,-5.838 1.136,-2.758 5.029,-8.057 5.029,-8.057 0,0 1.729,-3.73 1.513,-4.649"
             style="fill:none;stroke:#000000;stroke-width:0.25;stroke-linecap:round;stroke-linejoin:round;stroke-miterlimit:10;stroke-dasharray:none;stroke-opacity:1"
             id="path3842"
             inkscape:connector-curvature="0" /></g><g
           id="g3844"
           transform="translate(91.9453,114.25)"><path
             d="m 0,0 c 0,0 8.875,9.125 10.375,10.563 1.5,1.437 2.688,2.375 4.438,3.437 1.749,1.063 13.374,6.75 18.687,12"
             style="fill:none;stroke:#000000;stroke-width:0.25;stroke-linecap:round;stroke-linejoin:round;stroke-miterlimit:10;stroke-dasharray:none;stroke-opacity:1"
             id="path3846"
             inkscape:connector-curvature="0" /></g><g
           id="g3848"
           transform="translate(57.7788,122)"><path
             d="M 0,0 -7,-2.333"
             style="fill:none;stroke:#000000;stroke-width:0.5;stroke-linecap:round;stroke-linejoin:round;stroke-miterlimit:10;stroke-dasharray:none;stroke-opacity:1"
             id="path3850"
             inkscape:connector-curvature="0" /></g><g
           id="g3852"
           transform="translate(30.7788,123.6665)"><path
             d="m 0,0 c 1.667,0.5 2,0.667 3.333,-0.833 1.334,-1.5 1.167,-1.5 3.167,-1.5 2,0 6,0 9.833,-1.167 3.834,-1.167 5.833,-1.167 7,-1.167"
             style="fill:none;stroke:#000000;stroke-width:0.5;stroke-linecap:round;stroke-linejoin:round;stroke-miterlimit:10;stroke-dasharray:none;stroke-opacity:1"
             id="path3854"
             inkscape:connector-curvature="0" /></g><g
           id="g3856"
           transform="translate(-4.2212,104.5)"><path
             d="m 0,0 c 10.5,5 30.167,17.167 33.5,19.667 3.333,2.5 0,5 -0.833,5.833 -0.834,0.833 -1.834,2.833 -2.834,6.167 C 28.833,35 22.5,63.333 14,81"
             style="fill:none;stroke:#000000;stroke-width:0.5;stroke-linecap:round;stroke-linejoin:round;stroke-miterlimit:10;stroke-dasharray:none;stroke-opacity:1"
             id="path3858"
             inkscape:connector-curvature="0" /></g><g
           id="g3860"
           transform="translate(53.4453,117.5)"><path
             d="m 0,0 c -7,-4.167 -13.667,-11.5 -20.667,-18.667 -7,-7.167 -22.166,-21.499 -35.5,-15.333"
             style="fill:none;stroke:#000000;stroke-width:0.25;stroke-linecap:round;stroke-linejoin:round;stroke-miterlimit:10;stroke-dasharray:none;stroke-opacity:1"
             id="path3862"
             inkscape:connector-curvature="0" /></g><g
           id="g3864"
           transform="translate(-3.3877,80.5)"><path
             d="m 0,0 c 10.167,-4.667 22.5,-0.166 38.167,16.5 15.666,16.667 21.5,19.167 21.5,19.167"
             style="fill:none;stroke:#000000;stroke-width:0.25;stroke-linecap:round;stroke-linejoin:round;stroke-miterlimit:10;stroke-dasharray:none;stroke-opacity:1"
             id="path3866"
             inkscape:connector-curvature="0" /></g><g
           id="g3868"
           transform="translate(30.9854,123.3364)"><path
             d="M 0,0 -0.978,1.411"
             style="fill:none;stroke:#000000;stroke-width:0.5;stroke-linecap:round;stroke-linejoin:round;stroke-miterlimit:10;stroke-dasharray:none;stroke-opacity:1"
             id="path3870"
             inkscape:connector-curvature="0" /></g></g></g><text
       transform="matrix(1,0,0,-1,2.3281,2.4961)"
       style="font-variant:normal;font-weight:normal;font-stretch:normal;font-size:4px;font-family:'Swiss 721 SWA';-inkscape-font-specification:Helvetica;writing-mode:lr-tb;fill:#231f20;fill-opacity:1;fill-rule:nonzero;stroke:none"
       id="text3872"><tspan
         x="0 2 2.888 5.112"
         y="0"
         sodipodi:role="line"
         id="tspan3874">cjha</tspan></text>
<g
       id="g3876"
       transform="translate(121.9453,74.75)"><path
         d="M 0,0 44,28.75"
         style="fill:none;stroke:#ffffff;stroke-width:3;stroke-linecap:round;stroke-linejoin:miter;stroke-miterlimit:4;stroke-dasharray:none;stroke-opacity:1"
         id="path3878"
         inkscape:connector-curvature="0" /></g><g
       id="g3880"
       transform="translate(121.9453,74.75)"><path
         d="M 0,0 44,28.75"
         style="fill:none;stroke:#211f1f;stroke-width:0.5;stroke-linecap:round;stroke-linejoin:miter;stroke-miterlimit:4;stroke-dasharray:none;stroke-opacity:1"
         id="path3882"
         inkscape:connector-curvature="0" /></g><g
       id="g3884"
       transform="translate(99.1953,108.5)"><path
         d="M 0,0 44,28.75"
         style="fill:none;stroke:#ffffff;stroke-width:3;stroke-linecap:round;stroke-linejoin:miter;stroke-miterlimit:4;stroke-dasharray:none;stroke-opacity:1"
         id="path3886"
         inkscape:connector-curvature="0" /></g><g
       id="g3888"
       transform="translate(99.1953,108.5)"><path
         d="M 0,0 44,28.75"
         style="fill:none;stroke:#211f1f;stroke-width:0.5;stroke-linecap:round;stroke-linejoin:miter;stroke-miterlimit:4;stroke-dasharray:none;stroke-opacity:1"
         id="path3890"
         inkscape:connector-curvature="0" /></g><text
       transform="matrix(1,0,0,-1,146.4795,114.561)"
       style="font-variant:normal;font-weight:bold;font-stretch:normal;font-size:10px;font-family:'Swiss 721 SWA';-inkscape-font-specification:Helvetica-Bold;writing-mode:lr-tb;fill:#231f20;fill-opacity:1;fill-rule:nonzero;stroke:none"
       id="text3892"><tspan
         x="0 5.5599999 11.12 13.9 19.459999 28.35 37.240002 40.02 45.860001 48.639999 51.970001 54.75 60.310001 63.09 68.650002 77.540001"
         y="0"
         sodipodi:role="line"
         id="tspan3894">27.0mm +/- 0.5mm</tspan></text>
<g
       id="g3896"
       transform="translate(133.5098,127.2617)"><path
         d="M 0,0 18.372,-28.523"
         style="fill:none;stroke:#211f1f;stroke-width:0.5;stroke-linecap:round;stroke-linejoin:miter;stroke-miterlimit:4;stroke-dasharray:none;stroke-opacity:1"
         id="path3898"
         inkscape:connector-curvature="0" /></g><g
       id="g3900"
       transform="translate(131.5986,130.2295)"><path
         d="M 0,0 0.984,-5.283 2.055,-3.19 4.402,-3.082 0,0 Z"
         style="fill:#211f1f;fill-opacity:1;fill-rule:nonzero;stroke:none"
         id="path3902"
         inkscape:connector-curvature="0" /></g><g
       id="g3904"
       transform="translate(153.793,95.7705)"><path
         d="M 0,0 -4.402,3.081 -2.055,3.19 -0.985,5.282 0,0 Z"
         style="fill:#211f1f;fill-opacity:1;fill-rule:nonzero;stroke:none"
         id="path3906"
         inkscape:connector-curvature="0" /></g><g
       id="g3908"
       transform="translate(101.7163,77.3135)"><path
         d="M 0,0 56.729,-28.146"
         style="fill:none;stroke:#ffffff;stroke-width:3;stroke-linecap:round;stroke-linejoin:round;stroke-miterlimit:4;stroke-dasharray:none;stroke-opacity:1"
         id="path3910"
         inkscape:connector-curvature="0" /></g><g
       id="g3912"><g
         id="g3914"
         clip-path="url(#clipPath3916)"><g
           id="g3920"
           transform="translate(102.0991,78.6533)"><path
             d="M 0,0 C -0.742,0.186 -1.512,-0.263 -1.689,-1.005 -1.881,-1.77 -1.432,-2.517 -0.672,-2.704 0.064,-2.891 0.826,-2.443 1.016,-1.7 1.211,-0.949 0.752,-0.189 0,0"
             style="fill:#231f20;fill-opacity:1;fill-rule:nonzero;stroke:none"
             id="path3922"
             inkscape:connector-curvature="0" /></g><g
           id="g3924"
           transform="translate(102.0991,78.6533)"><path
             d="M 0,0 C -0.742,0.186 -1.512,-0.263 -1.689,-1.005 -1.881,-1.77 -1.432,-2.517 -0.672,-2.704 0.064,-2.891 0.826,-2.443 1.016,-1.7 1.211,-0.949 0.752,-0.189 0,0 Z"
             style="fill:none;stroke:#ffffff;stroke-width:1;stroke-linecap:butt;stroke-linejoin:miter;stroke-miterlimit:4;stroke-dasharray:none;stroke-opacity:1"
             id="path3926"
             inkscape:connector-curvature="0" /></g><g
           id="g3928"
           transform="translate(101.7163,77.3135)"><path
             d="M 0,0 59.396,-29.813"
             style="fill:none;stroke:#231f20;stroke-width:0.5;stroke-linecap:round;stroke-linejoin:round;stroke-miterlimit:4;stroke-dasharray:none;stroke-opacity:1"
             id="path3930"
             inkscape:connector-curvature="0" /></g></g></g><text
       transform="matrix(1,0,0,-1,163.2915,42.0029)"
       style="font-variant:normal;font-weight:bold;font-stretch:normal;font-size:10px;font-family:Helvetica;-inkscape-font-specification:Helvetica-Bold;writing-mode:lr-tb;fill:#000000;fill-opacity:1;fill-rule:nonzero;stroke:none"
       id="text3932"><tspan
         x="0"
         y="0"
         id="tspan3934">1</tspan></text>
</g></svg>