<?xml version="1.0" encoding="UTF-8" standalone="no"?>
<!-- Created with Inkscape (http://www.inkscape.org/) -->

<svg
   xmlns:dc="http://purl.org/dc/elements/1.1/"
   xmlns:cc="http://creativecommons.org/ns#"
   xmlns:rdf="http://www.w3.org/1999/02/22-rdf-syntax-ns#"
   xmlns:svg="http://www.w3.org/2000/svg"
   xmlns="http://www.w3.org/2000/svg"
   xmlns:sodipodi="http://sodipodi.sourceforge.net/DTD/sodipodi-0.dtd"
   xmlns:inkscape="http://www.inkscape.org/namespaces/inkscape"
   id="svg8942"
   version="1.1"
   inkscape:version="0.91 r13725"
   xml:space="preserve"
   width="301.17499"
   height="230.3125"
   viewBox="0 0 301.17499 230.3125"
   sodipodi:docname="JST 03R-JWPF-VSLE-S.svg"><metadata
     id="metadata8948"><rdf:RDF><cc:Work
         rdf:about=""><dc:format>image/svg+xml</dc:format><dc:type
           rdf:resource="http://purl.org/dc/dcmitype/StillImage" /><dc:title></dc:title></cc:Work></rdf:RDF></metadata><defs
     id="defs8946" /><sodipodi:namedview
     pagecolor="#ffffff"
     bordercolor="#666666"
     borderopacity="1"
     objecttolerance="10"
     gridtolerance="10"
     guidetolerance="10"
     inkscape:pageopacity="0"
     inkscape:pageshadow="2"
     inkscape:window-width="640"
     inkscape:window-height="480"
     id="namedview8944"
     showgrid="false"
     inkscape:zoom="4.207327"
     inkscape:cx="150.58749"
     inkscape:cy="115.15625"
     inkscape:window-x="-8"
     inkscape:window-y="-8"
     inkscape:window-maximized="1"
     inkscape:current-layer="g8950" /><g
     id="g8950"
     inkscape:groupmode="layer"
     inkscape:label="JST 03R-JWPF-VSLE-S"
     transform="matrix(1.25,0,0,-1.25,0,230.3125)"><g
       id="g8952"
       transform="translate(102.7124,86.0928)"><path
         d="M 0,0 -2.242,-2.242"
         style="fill:none;stroke:#292929;stroke-width:0.5;stroke-linecap:square;stroke-linejoin:miter;stroke-miterlimit:10;stroke-dasharray:none;stroke-opacity:1"
         id="path8954"
         inkscape:connector-curvature="0" /></g><g
       id="g8956"
       transform="translate(118.3101,86.1709)"><path
         d="M 0,0 -2.238,-2.242"
         style="fill:none;stroke:#292929;stroke-width:0.5;stroke-linecap:square;stroke-linejoin:miter;stroke-miterlimit:10;stroke-dasharray:none;stroke-opacity:1"
         id="path8958"
         inkscape:connector-curvature="0" /></g><g
       id="g8960"
       transform="translate(133.9121,86.0498)"><path
         d="M 0,0 -2.242,-2.238"
         style="fill:none;stroke:#292929;stroke-width:0.5;stroke-linecap:square;stroke-linejoin:miter;stroke-miterlimit:10;stroke-dasharray:none;stroke-opacity:1"
         id="path8962"
         inkscape:connector-curvature="0" /></g><path
       d="m 95.91,108.37 49.081,0 0,-28.961 -49.081,0 0,28.961 z"
       style="fill:none;stroke:#292929;stroke-width:0.25;stroke-linecap:square;stroke-linejoin:miter;stroke-miterlimit:10;stroke-dasharray:none;stroke-opacity:1"
       id="path8964"
       inkscape:connector-curvature="0" /><g
       id="g8966"
       transform="translate(138.3809,108.3701)"><path
         d="m 0,0 11.09,0 0,-33.441 -58.001,0 0,33.441 11.161,0"
         style="fill:none;stroke:#292929;stroke-width:1;stroke-linecap:square;stroke-linejoin:miter;stroke-miterlimit:10;stroke-dasharray:none;stroke-opacity:1"
         id="path8968"
         inkscape:connector-curvature="0" /></g><g
       id="g8970"
       transform="translate(102.7554,108.3701)"><path
         d="M 0,0 35.188,0"
         style="fill:none;stroke:#292929;stroke-width:0.25;stroke-linecap:square;stroke-linejoin:miter;stroke-miterlimit:10;stroke-dasharray:none;stroke-opacity:1"
         id="path8972"
         inkscape:connector-curvature="0" /></g><g
       id="g8974"
       transform="translate(138.3496,92.7295)"><path
         d="m 0,0 0,11.16 -4.437,0 0,-11.16"
         style="fill:none;stroke:#292929;stroke-width:0.5;stroke-linecap:square;stroke-linejoin:miter;stroke-miterlimit:10;stroke-dasharray:none;stroke-opacity:1"
         id="path8976"
         inkscape:connector-curvature="0" /></g><g
       id="g8978"
       transform="translate(138.3926,90.5303)"><path
         d="m 0,0 0,-4.48 2.199,-2.239 0,8.918"
         style="fill:none;stroke:#292929;stroke-width:0.5;stroke-linecap:square;stroke-linejoin:miter;stroke-miterlimit:10;stroke-dasharray:none;stroke-opacity:1"
         id="path8980"
         inkscape:connector-curvature="0" /></g><g
       id="g8982"
       transform="translate(138.3926,86.0498)"><path
         d="m 0,0 -4.48,0 0,4.48"
         style="fill:none;stroke:#292929;stroke-width:0.5;stroke-linecap:square;stroke-linejoin:miter;stroke-miterlimit:10;stroke-dasharray:none;stroke-opacity:1"
         id="path8984"
         inkscape:connector-curvature="0" /></g><g
       id="g8986"
       transform="translate(140.5918,83.8115)"><path
         d="m 0,0 -8.922,0 0,8.918 2.242,-2.199 4.481,0 2.199,2.199 -8.922,0"
         style="fill:none;stroke:#292929;stroke-width:0.5;stroke-linecap:square;stroke-linejoin:miter;stroke-miterlimit:10;stroke-dasharray:none;stroke-opacity:1"
         id="path8988"
         inkscape:connector-curvature="0" /></g><g
       id="g8990"
       transform="translate(122.7129,92.8506)"><path
         d="m 0,0 0,11.117 -4.442,0 0,-11.117"
         style="fill:none;stroke:#292929;stroke-width:0.5;stroke-linecap:square;stroke-linejoin:miter;stroke-miterlimit:10;stroke-dasharray:none;stroke-opacity:1"
         id="path8992"
         inkscape:connector-curvature="0" /></g><g
       id="g8994"
       transform="translate(103.0049,108.3701)"><path
         d="M 0,0 4.067,0"
         style="fill:none;stroke:#292929;stroke-width:1;stroke-linecap:square;stroke-linejoin:miter;stroke-miterlimit:10;stroke-dasharray:none;stroke-opacity:1"
         id="path8996"
         inkscape:connector-curvature="0" /></g><g
       id="g8998"
       transform="translate(107.0718,119.4346)"><path
         d="m 0,0 0,-11.064 0,11.16 -4.441,0 0,-11.16 0.187,0"
         style="fill:none;stroke:#292929;stroke-width:1;stroke-linecap:square;stroke-linejoin:miter;stroke-miterlimit:10;stroke-dasharray:none;stroke-opacity:1"
         id="path9000"
         inkscape:connector-curvature="0" /></g><path
       d="m 133.83,108.37 4.48,0 0,11.16 -4.48,0 0,-11.16 z m 0,0 0,17.879 -26.758,0.002 0,-6.629"
       style="fill:none;stroke:#292929;stroke-width:1;stroke-linecap:square;stroke-linejoin:miter;stroke-miterlimit:10;stroke-dasharray:none;stroke-opacity:1"
       id="path9002"
       inkscape:connector-curvature="0" /><g
       id="g9004"
       transform="translate(122.752,90.6084)"><path
         d="m 0,0 0,-4.437 2.238,-2.243 0,8.922"
         style="fill:none;stroke:#292929;stroke-width:0.5;stroke-linecap:square;stroke-linejoin:miter;stroke-miterlimit:10;stroke-dasharray:none;stroke-opacity:1"
         id="path9006"
         inkscape:connector-curvature="0" /></g><g
       id="g9008"
       transform="translate(122.752,86.1709)"><path
         d="m 0,0 -4.442,0 0,4.437"
         style="fill:none;stroke:#292929;stroke-width:0.5;stroke-linecap:square;stroke-linejoin:miter;stroke-miterlimit:10;stroke-dasharray:none;stroke-opacity:1"
         id="path9010"
         inkscape:connector-curvature="0" /></g><g
       id="g9012"
       transform="translate(124.9902,83.9287)"><path
         d="m 0,0 -8.918,0 0,8.922 2.238,-2.242 4.442,0 2.238,2.242 -8.918,0"
         style="fill:none;stroke:#292929;stroke-width:0.5;stroke-linecap:square;stroke-linejoin:miter;stroke-miterlimit:10;stroke-dasharray:none;stroke-opacity:1"
         id="path9014"
         inkscape:connector-curvature="0" /></g><g
       id="g9016"
       transform="translate(107.1108,92.7725)"><path
         d="m 0,0 0,11.156 -4.441,0 0,-11.156"
         style="fill:none;stroke:#292929;stroke-width:0.5;stroke-linecap:square;stroke-linejoin:miter;stroke-miterlimit:10;stroke-dasharray:none;stroke-opacity:1"
         id="path9018"
         inkscape:connector-curvature="0" /></g><path
       d="m 115.99,77.171 8.961,0 0,2.238 -8.961,0 0,-2.238 z"
       style="fill:none;stroke:#292929;stroke-width:0.25;stroke-linecap:square;stroke-linejoin:miter;stroke-miterlimit:10;stroke-dasharray:none;stroke-opacity:1"
       id="path9020"
       inkscape:connector-curvature="0" /><g
       id="g9022"
       transform="translate(107.1499,90.5693)"><path
         d="m 0,0 0,-4.477 2.242,-2.242 0,8.922"
         style="fill:none;stroke:#292929;stroke-width:0.5;stroke-linecap:square;stroke-linejoin:miter;stroke-miterlimit:10;stroke-dasharray:none;stroke-opacity:1"
         id="path9024"
         inkscape:connector-curvature="0" /></g><g
       id="g9026"
       transform="translate(107.1499,86.0928)"><path
         d="m 0,0 -4.437,0 0,4.477"
         style="fill:none;stroke:#292929;stroke-width:0.5;stroke-linecap:square;stroke-linejoin:miter;stroke-miterlimit:10;stroke-dasharray:none;stroke-opacity:1"
         id="path9028"
         inkscape:connector-curvature="0" /></g><g
       id="g9030"
       transform="translate(109.3921,83.8506)"><path
         d="m 0,0 -8.922,0 0,8.922 2.242,-2.203 4.438,0 2.242,2.203 -8.922,0"
         style="fill:none;stroke:#292929;stroke-width:0.5;stroke-linecap:square;stroke-linejoin:miter;stroke-miterlimit:10;stroke-dasharray:none;stroke-opacity:1"
         id="path9032"
         inkscape:connector-curvature="0" /></g><text
       transform="matrix(1,0,0,-1,102.21,60.3311)"
       style="font-variant:normal;font-weight:normal;font-stretch:normal;font-size:10px;font-family:Helvetica;-inkscape-font-specification:Helvetica;writing-mode:lr-tb;fill:#292929;fill-opacity:1;fill-rule:nonzero;stroke:none"
       id="text9034"><tspan
         x="0"
         y="0"
         id="tspan9036">1</tspan><tspan
         x="15.6"
         y="-0.16"
         id="tspan9038">2</tspan><tspan
         x="31.200001"
         y="0.079999998"
         id="tspan9040">3</tspan></text>
</g></svg>