<?xml version="1.0" encoding="UTF-8" standalone="no"?>
<!-- Created with Inkscape (http://www.inkscape.org/) -->

<svg
   xmlns:dc="http://purl.org/dc/elements/1.1/"
   xmlns:cc="http://creativecommons.org/ns#"
   xmlns:rdf="http://www.w3.org/1999/02/22-rdf-syntax-ns#"
   xmlns:svg="http://www.w3.org/2000/svg"
   xmlns="http://www.w3.org/2000/svg"
   xmlns:sodipodi="http://sodipodi.sourceforge.net/DTD/sodipodi-0.dtd"
   xmlns:inkscape="http://www.inkscape.org/namespaces/inkscape"
   id="svg23876"
   version="1.1"
   inkscape:version="0.91 r13725"
   xml:space="preserve"
   width="301.18124"
   height="230.315"
   viewBox="0 0 301.18124 230.315"
   sodipodi:docname="T3880750 and torque wrench.svg"><metadata
     id="metadata23882"><rdf:RDF><cc:Work
         rdf:about=""><dc:format>image/svg+xml</dc:format><dc:type
           rdf:resource="http://purl.org/dc/dcmitype/StillImage" /><dc:title></dc:title></cc:Work></rdf:RDF></metadata><defs
     id="defs23880"><clipPath
       clipPathUnits="userSpaceOnUse"
       id="clipPath23890"><path
         d="m 0,0 240.944,0 0,184.252 L 0,184.252 0,0 Z"
         id="path23892"
         inkscape:connector-curvature="0" /></clipPath><clipPath
       clipPathUnits="userSpaceOnUse"
       id="clipPath24072"><path
         d="m 0,184.252 240.945,0 L 240.945,0 0,0 0,184.252 Z"
         id="path24074"
         inkscape:connector-curvature="0" /></clipPath><clipPath
       clipPathUnits="userSpaceOnUse"
       id="clipPath24128"><path
         d="m 0,184.252 240.945,0 L 240.945,0 0,0 0,184.252 Z"
         id="path24130"
         inkscape:connector-curvature="0" /></clipPath></defs><sodipodi:namedview
     pagecolor="#ffffff"
     bordercolor="#666666"
     borderopacity="1"
     objecttolerance="10"
     gridtolerance="10"
     guidetolerance="10"
     inkscape:pageopacity="0"
     inkscape:pageshadow="2"
     inkscape:window-width="941"
     inkscape:window-height="695"
     id="namedview23878"
     showgrid="false"
     inkscape:zoom="2.8526149"
     inkscape:cx="150.59062"
     inkscape:cy="115.1575"
     inkscape:window-x="517"
     inkscape:window-y="228"
     inkscape:window-maximized="0"
     inkscape:current-layer="g23884" /><g
     id="g23884"
     inkscape:groupmode="layer"
     inkscape:label="T3880750 and torque wrench"
     transform="matrix(1.25,0,0,-1.25,0,230.315)"><g
       id="g23886"><g
         id="g23888"
         clip-path="url(#clipPath23890)"><g
           id="g23894"
           transform="translate(172.7456,117.1465)"><path
             d="m 0,0 c 0,-21.045 -17.061,-38.105 -38.105,-38.105 -21.045,0 -38.106,17.06 -38.106,38.105 0,21.045 17.061,38.105 38.106,38.105 C -17.061,38.105 0,21.045 0,0 Z"
             style="fill:none;stroke:#231f20;stroke-width:0.70899999;stroke-linecap:butt;stroke-linejoin:miter;stroke-miterlimit:10;stroke-dasharray:none;stroke-opacity:1"
             id="path23896"
             inkscape:connector-curvature="0" /></g><g
           id="g23898"
           transform="translate(122.1158,152.3374)"><path
             d="m 0,0 c 3.915,1.394 8.131,2.152 12.524,2.152 20.624,0 37.343,-16.719 37.343,-37.343 0,-20.624 -16.719,-37.344 -37.343,-37.344 -20.624,0 -37.343,16.72 -37.343,37.344 0,13.821 7.508,25.888 18.669,32.345"
             style="fill:none;stroke:#231f20;stroke-width:0.28299999;stroke-linecap:butt;stroke-linejoin:miter;stroke-miterlimit:10;stroke-dasharray:none;stroke-opacity:1"
             id="path23900"
             inkscape:connector-curvature="0" /></g><g
           id="g23902"
           transform="translate(170.8628,117.1465)"><path
             d="m 0,0 c 0,-20.006 -16.218,-36.223 -36.223,-36.223 -20.005,0 -36.222,16.217 -36.222,36.223 0,20.005 16.217,36.223 36.222,36.223 C -16.218,36.223 0,20.005 0,0 Z"
             style="fill:none;stroke:#231f20;stroke-width:0.28299999;stroke-linecap:butt;stroke-linejoin:miter;stroke-miterlimit:10;stroke-dasharray:none;stroke-opacity:1"
             id="path23904"
             inkscape:connector-curvature="0" /></g><g
           id="g23906"
           transform="translate(123.8111,149.8198)"><path
             d="m 0,0 c 3.405,1.128 7.046,1.738 10.829,1.738 19.005,0 34.412,-15.406 34.412,-34.411 0,-19.005 -15.407,-34.412 -34.412,-34.412 -19.005,0 -34.412,15.407 -34.412,34.412 0,12.736 6.919,23.856 17.203,29.806"
             style="fill:none;stroke:#231f20;stroke-width:0.28299999;stroke-linecap:butt;stroke-linejoin:miter;stroke-miterlimit:10;stroke-dasharray:none;stroke-opacity:1"
             id="path23908"
             inkscape:connector-curvature="0" /></g><path
           d="m 140.568,41.867 -11.616,0 0,11.616 11.616,0 0,-11.616 z"
           style="fill:none;stroke:#231f20;stroke-width:0.50999999;stroke-linecap:round;stroke-linejoin:miter;stroke-miterlimit:10;stroke-dasharray:2.126, 1.417;stroke-dashoffset:0;stroke-opacity:1"
           id="path23910"
           inkscape:connector-curvature="0" /><g
           id="g23912"
           transform="translate(153.8872,134.5639)"><path
             d="M 0,0 C 0,0 -2.127,-1.32 -2.429,-1.562 -2.731,-1.804 -2.671,-2.227 -2.55,-2.439 -2.429,-2.651 1.262,-6.886 1.353,-7.158 1.442,-7.43 2.199,-7.642 2.532,-7.46 2.625,-7.41 2.91,-7.298 3.941,-6.701"
             style="fill:none;stroke:#231f20;stroke-width:0.50999999;stroke-linecap:round;stroke-linejoin:miter;stroke-miterlimit:10;stroke-dasharray:2.126, 1.417;stroke-dashoffset:0;stroke-opacity:1"
             id="path23914"
             inkscape:connector-curvature="0" /></g><g
           id="g23916"
           transform="translate(136.7915,142.9995)"><path
             d="m 0,0 c 5.291,-0.562 12.786,-3.442 16.979,-8.333 1.279,-1.492 2.667,-3.167 4.354,-6.417 0,0 7.659,4.528 10.425,6.183 3.842,2.298 5.173,8.59 1.666,12.413 -8.449,9.211 -21.22,16.544 -35.455,16.544 -25.549,0 -46.261,-20.711 -46.261,-46.261 0,-28.072 19.883,-66.307 34.705,-83.731 1.991,-2.341 3.751,-3.086 5.022,-3.025 l 16.032,0 c 3.207,-0.122 5.566,2.904 5.506,5.142 -0.061,2.238 0,24.744 0,24.744 0,1.937 -1.242,3.776 -3.268,4.115 -14.459,2.419 -28.616,11.374 -32.609,26.862 l -5.084,22.815 c -0.118,1.01 -0.179,2.037 -0.179,3.078 0,12.407 8.531,22.697 20.125,25.371 0,0 4.296,0.898 8.042,0.5"
             style="fill:#bcbec0;fill-opacity:1;fill-rule:nonzero;stroke:none"
             id="path23918"
             inkscape:connector-curvature="0" /></g><g
           id="g23920"
           transform="translate(136.7915,142.9995)"><path
             d="m 0,0 c 5.291,-0.562 12.786,-3.442 16.979,-8.333 1.279,-1.492 2.667,-3.167 4.354,-6.417 0,0 7.659,4.528 10.425,6.183 3.842,2.298 5.173,8.59 1.666,12.413 -8.449,9.211 -21.22,16.544 -35.455,16.544 -25.549,0 -46.261,-20.711 -46.261,-46.261 0,-28.072 19.883,-66.307 34.705,-83.731 1.991,-2.341 3.751,-3.086 5.022,-3.025 l 16.032,0 c 3.207,-0.122 5.566,2.904 5.506,5.142 -0.061,2.238 0,24.744 0,24.744 0,1.937 -1.242,3.776 -3.268,4.115 -14.459,2.419 -28.616,11.374 -32.609,26.862 l -5.084,22.815 c -0.118,1.01 -0.179,2.037 -0.179,3.078 0,12.407 8.531,22.697 20.125,25.371 0,0 4.296,0.898 8.042,0.5 z"
             style="fill:none;stroke:#231f20;stroke-width:0.50999999;stroke-linecap:round;stroke-linejoin:miter;stroke-miterlimit:10;stroke-dasharray:none;stroke-opacity:1"
             id="path23922"
             inkscape:connector-curvature="0" /></g><g
           id="g23924"
           transform="translate(136.7808,143.104)"><path
             d="m 0,0 0,-2.737 -6.891,-1.297 c 0,0 -0.547,0.064 -0.547,0.611 0,0.547 -0.08,2.04 -0.08,2.364"
             style="fill:none;stroke:#231f20;stroke-width:0.50999999;stroke-linecap:round;stroke-linejoin:miter;stroke-miterlimit:10;stroke-dasharray:2.126, 1.417;stroke-dashoffset:0;stroke-opacity:1"
             id="path23926"
             inkscape:connector-curvature="0" /></g><g
           id="g23928"
           transform="translate(129.7115,42.998)"><path
             d="m 0,0 9.19,0 c 0.491,0 0.887,0.396 0.887,0.886 l 0,9.146 c 0,0.489 -0.396,0.886 -0.887,0.886 l -9.19,0 c -0.489,0 -0.886,-0.397 -0.886,-0.886 l 0,-9.146 C -0.886,0.396 -0.489,0 0,0"
             style="fill:#d0d2d3;fill-opacity:1;fill-rule:nonzero;stroke:none"
             id="path23930"
             inkscape:connector-curvature="0" /></g><g
           id="g23932"
           transform="translate(129.7115,42.998)"><path
             d="m 0,0 9.19,0 c 0.491,0 0.887,0.396 0.887,0.886 l 0,9.146 c 0,0.489 -0.396,0.886 -0.887,0.886 l -9.19,0 c -0.489,0 -0.886,-0.397 -0.886,-0.886 l 0,-9.146 C -0.886,0.396 -0.489,0 0,0 Z"
             style="fill:none;stroke:#231f20;stroke-width:0.70899999;stroke-linecap:butt;stroke-linejoin:miter;stroke-miterlimit:10;stroke-dasharray:none;stroke-opacity:1"
             id="path23934"
             inkscape:connector-curvature="0" /></g><g
           id="g23936"
           transform="translate(142.9029,117.1465)"><path
             d="m 0,0 c 0,-4.563 -3.699,-8.262 -8.263,-8.262 -4.563,0 -8.262,3.699 -8.262,8.262 0,4.563 3.699,8.262 8.262,8.262 C -3.699,8.262 0,4.563 0,0"
             style="fill:#231f20;fill-opacity:1;fill-rule:nonzero;stroke:none"
             id="path23938"
             inkscape:connector-curvature="0" /></g><g
           id="g23940"
           transform="translate(142.9029,117.1465)"><path
             d="m 0,0 c 0,-4.563 -3.699,-8.262 -8.263,-8.262 -4.563,0 -8.262,3.699 -8.262,8.262 0,4.563 3.699,8.262 8.262,8.262 C -3.699,8.262 0,4.563 0,0 Z"
             style="fill:none;stroke:#231f20;stroke-width:0.28299999;stroke-linecap:butt;stroke-linejoin:miter;stroke-miterlimit:10;stroke-dasharray:none;stroke-opacity:1"
             id="path23942"
             inkscape:connector-curvature="0" /></g><g
           id="g23944"
           transform="translate(142.2974,116.8257)"><path
             d="m 0,0 c 0,-4.219 -3.42,-7.64 -7.64,-7.64 -4.219,0 -7.639,3.421 -7.639,7.64 0,4.219 3.42,7.64 7.639,7.64 C -3.42,7.64 0,4.219 0,0"
             style="fill:#ffffff;fill-opacity:1;fill-rule:nonzero;stroke:none"
             id="path23946"
             inkscape:connector-curvature="0" /></g><g
           id="g23948"
           transform="translate(144.5552,117.1465)"><path
             d="m 0,0 c 0,-5.476 -4.439,-9.915 -9.915,-9.915 -5.476,0 -9.915,4.439 -9.915,9.915 0,5.476 4.439,9.915 9.915,9.915 C -4.439,9.915 0,5.476 0,0 Z"
             style="fill:none;stroke:#231f20;stroke-width:0.28299999;stroke-linecap:butt;stroke-linejoin:miter;stroke-miterlimit:10;stroke-dasharray:none;stroke-opacity:1"
             id="path23950"
             inkscape:connector-curvature="0" /></g><g
           id="g23952"
           transform="translate(141.023,128.3467)"><path
             d="m 0,0 c 3.887,-2.22 6.506,-6.404 6.506,-11.2 0,-7.119 -5.771,-12.889 -12.889,-12.889 -7.118,0 -12.888,5.77 -12.888,12.889 0,7.118 5.77,12.889 12.888,12.889 C -4.061,1.689 -1.882,1.075 0,0"
             style="fill:none;stroke:#231f20;stroke-width:0.28299999;stroke-linecap:butt;stroke-linejoin:miter;stroke-miterlimit:10;stroke-dasharray:none;stroke-opacity:1"
             id="path23954"
             inkscape:connector-curvature="0" /></g><g
           id="g23956"
           transform="translate(160.4839,117.1465)"><path
             d="m 0,0 c 0,-14.273 -11.57,-25.844 -25.844,-25.844 -14.273,0 -25.844,11.571 -25.844,25.844 0,14.273 11.571,25.844 25.844,25.844 C -11.57,25.844 0,14.273 0,0 Z"
             style="fill:none;stroke:#231f20;stroke-width:0.70899999;stroke-linecap:butt;stroke-linejoin:miter;stroke-miterlimit:10;stroke-dasharray:none;stroke-opacity:1"
             id="path23958"
             inkscape:connector-curvature="0" /></g><g
           id="g23960"
           transform="translate(115.7232,99.5156)"><path
             d="M 0,0 3.766,2.174 C 2.389,3.521 1.183,5.063 0.173,6.813 c -1.011,1.75 -1.749,3.583 -2.228,5.449 l 0.001,0 -3.769,-2.176"
             style="fill:none;stroke:#231f20;stroke-width:0.70899999;stroke-linecap:round;stroke-linejoin:round;stroke-miterlimit:10;stroke-dasharray:none;stroke-opacity:1"
             id="path23962"
             inkscape:connector-curvature="0" /></g><g
           id="g23964"
           transform="translate(153.5171,134.7837)"><path
             d="m 0,0 -3.77,-2.176 0,0 c 1.377,-1.347 2.595,-2.903 3.606,-4.653 1.008,-1.744 1.744,-3.571 2.223,-5.432 l -0.006,-0.001 3.769,2.176"
             style="fill:none;stroke:#231f20;stroke-width:0.70899999;stroke-linecap:round;stroke-linejoin:round;stroke-miterlimit:10;stroke-dasharray:none;stroke-opacity:1"
             id="path23966"
             inkscape:connector-curvature="0" /></g><g
           id="g23968"
           transform="translate(140.3697,91.9395)"><path
             d="M 0,0 -0.021,4.343 C -3.873,3.283 -7.88,3.337 -11.609,4.387 l -0.035,-4.344"
             style="fill:none;stroke:#231f20;stroke-width:0.70899999;stroke-linecap:butt;stroke-linejoin:miter;stroke-miterlimit:10;stroke-dasharray:none;stroke-opacity:1"
             id="path23970"
             inkscape:connector-curvature="0" /></g><g
           id="g23972"
           transform="translate(128.8267,142.334)"><path
             d="m 0,0 0,-4.246 c 4.036,1.208 7.59,0.966 11.504,-0.163 l 0.13,4.392"
             style="fill:none;stroke:#231f20;stroke-width:0.70899999;stroke-linecap:round;stroke-linejoin:round;stroke-miterlimit:10;stroke-dasharray:none;stroke-opacity:1"
             id="path23974"
             inkscape:connector-curvature="0" /></g><g
           id="g23976"
           transform="translate(109.8023,124.5317)"><path
             d="M 0,0 3.83,-2.191 C 4.767,1.588 6.717,5.112 9.562,7.941 l -3.739,2.145"
             style="fill:none;stroke:#231f20;stroke-width:0.70899999;stroke-linecap:round;stroke-linejoin:round;stroke-miterlimit:10;stroke-dasharray:none;stroke-opacity:1"
             id="path23978"
             inkscape:connector-curvature="0" /></g><g
           id="g23980"
           transform="translate(159.3413,109.5942)"><path
             d="m 0,0 -3.776,2.148 c -0.968,-3.752 -2.937,-7.243 -5.791,-10.04 l 3.751,-2.196"
             style="fill:none;stroke:#231f20;stroke-width:0.70899999;stroke-linecap:butt;stroke-linejoin:miter;stroke-miterlimit:10;stroke-dasharray:none;stroke-opacity:1"
             id="path23982"
             inkscape:connector-curvature="0" /></g><g
           id="g23984"
           transform="translate(151.2984,119.771)"><path
             d="m 0,0 -0.059,-0.009 -1.808,0 0,-5.99 1.733,0"
             style="fill:none;stroke:#231f20;stroke-width:0.99199998;stroke-linecap:round;stroke-linejoin:miter;stroke-miterlimit:10;stroke-dasharray:none;stroke-opacity:1"
             id="path23986"
             inkscape:connector-curvature="0" /></g><g
           id="g23988"
           transform="translate(146.8374,128.7886)"><path
             d="m 0,0 c 2.318,-2.428 3.919,-5.547 4.461,-9.018 0,0 0.136,-1.921 0.17,-2.563 0.062,-1.156 -0.304,-3.435 -0.304,-3.435 -1.563,-7.696 -8.367,-13.488 -16.524,-13.488 -3.098,0 -6,0.836 -8.495,2.293"
             style="fill:none;stroke:#231f20;stroke-width:0.99199998;stroke-linecap:round;stroke-linejoin:miter;stroke-miterlimit:10;stroke-dasharray:none;stroke-opacity:1"
             id="path23990"
             inkscape:connector-curvature="0" /></g><g
           id="g23992"
           transform="translate(126.1451,102.5771)"><path
             d="m 0,0 c -5.004,2.925 -8.366,8.354 -8.366,14.569 0,9.313 7.549,16.862 16.861,16.862 4.798,0 9.127,-2.004 12.197,-5.22"
             style="fill:none;stroke:#231f20;stroke-width:0.70899999;stroke-linecap:butt;stroke-linejoin:miter;stroke-miterlimit:10;stroke-dasharray:none;stroke-opacity:1"
             id="path23994"
             inkscape:connector-curvature="0" /></g><g
           id="g23996"
           transform="translate(84.2852,117.2368)"><path
             d="M 0,0 95.498,0"
             style="fill:none;stroke:#231f20;stroke-width:0.28299999;stroke-linecap:round;stroke-linejoin:miter;stroke-miterlimit:10;stroke-dasharray:11.339, 2.835, 2.835, 2.835;stroke-dashoffset:0;stroke-opacity:1"
             id="path23998"
             inkscape:connector-curvature="0" /></g><g
           id="g24000"
           transform="translate(115.4449,39.8145)"><path
             d="m 0,0 c 2.628,0 6.057,-2.193 8.3,-4.551 2.588,-2.718 6.547,-3.925 10.595,-3.925 8.977,0 16.254,7.279 16.254,16.256 0,8.978 -7.277,16.255 -16.254,16.255 -4.02,0 -7.745,-1.401 -10.532,-3.872 C 5.563,17.683 1.822,16.342 0,16.342 L 0,0 Z"
             style="fill:#ffffff;fill-opacity:1;fill-rule:nonzero;stroke:none"
             id="path24002"
             inkscape:connector-curvature="0" /></g><g
           id="g24004"
           transform="translate(115.4449,39.8145)"><path
             d="m 0,0 c 2.628,0 6.057,-2.193 8.3,-4.551 2.588,-2.718 6.547,-3.925 10.595,-3.925 8.977,0 16.254,7.279 16.254,16.256 0,8.978 -7.277,16.255 -16.254,16.255 -4.02,0 -7.745,-1.401 -10.532,-3.872 C 5.563,17.683 1.822,16.342 0,16.342 L 0,0 Z"
             style="fill:none;stroke:#000000;stroke-width:1;stroke-linecap:round;stroke-linejoin:round;stroke-miterlimit:10;stroke-dasharray:none;stroke-opacity:1"
             id="path24006"
             inkscape:connector-curvature="0" /></g><g
           id="g24008"
           transform="translate(-3.2783,36.7148)"><path
             d="m 0,0 63.815,0 c 9.663,0 14.88,-1.659 19.635,-1.659 l 32.059,0 0,26.297 -32.059,0 c -4.755,0 -9.972,-1.66 -19.635,-1.66 L 0,22.978"
             style="fill:#ffffff;fill-opacity:1;fill-rule:nonzero;stroke:#000000;stroke-width:1;stroke-linecap:round;stroke-linejoin:round;stroke-miterlimit:10;stroke-dasharray:none;stroke-opacity:1"
             id="path24010"
             inkscape:connector-curvature="0" /></g><g
           id="g24012"
           transform="translate(112.231,56.5674)"><path
             d="m 0,0 -34.998,0 c -8.443,0 -15.2,-2.311 -15.2,-8.176 0,-5.863 11.083,-8.29 15.2,-8.29 l 34.517,0"
             style="fill:none;stroke:#000000;stroke-width:0.5;stroke-linecap:round;stroke-linejoin:round;stroke-miterlimit:10;stroke-dasharray:none;stroke-opacity:1"
             id="path24014"
             inkscape:connector-curvature="0" /></g><g
           id="g24016"
           transform="translate(109.8511,47.5947)"><path
             d="m 0,0 c 0,-2.04 -1.655,-3.694 -3.695,-3.694 -2.041,0 -3.695,1.654 -3.695,3.694 0,2.04 1.654,3.694 3.695,3.694 C -1.655,3.694 0,2.04 0,0 Z"
             style="fill:none;stroke:#000000;stroke-width:0.5;stroke-linecap:round;stroke-linejoin:round;stroke-miterlimit:10;stroke-dasharray:none;stroke-opacity:1"
             id="path24018"
             inkscape:connector-curvature="0" /></g><g
           id="g24020"
           transform="translate(108.2398,47.5947)"><path
             d="m 0,0 c 0,-1.15 -0.933,-2.084 -2.084,-2.084 -1.152,0 -2.084,0.934 -2.084,2.084 0,1.151 0.932,2.084 2.084,2.084 C -0.933,2.084 0,1.151 0,0 Z"
             style="fill:none;stroke:#000000;stroke-width:0.5;stroke-linecap:round;stroke-linejoin:round;stroke-miterlimit:10;stroke-dasharray:none;stroke-opacity:1"
             id="path24022"
             inkscape:connector-curvature="0" /></g><g
           id="g24024"
           transform="translate(112.231,60.8945)"><path
             d="m 0,0 c 0,0 3.214,0.21 3.214,-2.533 l 0,-19.634 C 3.214,-24.807 0,-24.911 0,-24.911"
             style="fill:#ffffff;fill-opacity:1;fill-rule:nonzero;stroke:#000000;stroke-width:1;stroke-linecap:round;stroke-linejoin:round;stroke-miterlimit:10;stroke-dasharray:none;stroke-opacity:1"
             id="path24026"
             inkscape:connector-curvature="0" /></g><g
           id="g24028"
           transform="translate(148.5445,47.5947)"><path
             d="m 0,0 c 0,-7.846 -6.359,-14.206 -14.205,-14.206 -7.847,0 -14.205,6.36 -14.205,14.206 0,7.846 6.358,14.205 14.205,14.205 C -6.359,14.205 0,7.846 0,0 Z"
             style="fill:none;stroke:#000000;stroke-width:0.5;stroke-linecap:round;stroke-linejoin:round;stroke-miterlimit:10;stroke-dasharray:none;stroke-opacity:1"
             id="path24030"
             inkscape:connector-curvature="0" /></g><g
           id="g24032"
           transform="translate(145.6841,47.5947)"><path
             d="m 0,0 c 0,-6.267 -5.078,-11.348 -11.345,-11.348 -6.266,0 -11.346,5.081 -11.346,11.348 0,6.265 5.08,11.345 11.346,11.345 C -5.078,11.345 0,6.265 0,0 Z"
             style="fill:none;stroke:#000000;stroke-width:0.5;stroke-linecap:round;stroke-linejoin:round;stroke-miterlimit:10;stroke-dasharray:none;stroke-opacity:1"
             id="path24034"
             inkscape:connector-curvature="0" /></g><g
           id="g24036"
           transform="translate(129.9517,42.0137)"><path
             d="m 0,0 9.191,0 c 0.49,0 0.886,0.396 0.886,0.886 l 0,9.146 c 0,0.489 -0.396,0.886 -0.886,0.886 l -9.191,0 c -0.489,0 -0.886,-0.397 -0.886,-0.886 l 0,-9.146 C -0.886,0.396 -0.489,0 0,0"
             style="fill:#ffffff;fill-opacity:1;fill-rule:nonzero;stroke:none"
             id="path24038"
             inkscape:connector-curvature="0" /></g><g
           id="g24040"
           transform="translate(129.9517,42.0137)"><path
             d="m 0,0 9.191,0 c 0.49,0 0.886,0.396 0.886,0.886 l 0,9.146 c 0,0.489 -0.396,0.886 -0.886,0.886 l -9.191,0 c -0.489,0 -0.886,-0.397 -0.886,-0.886 l 0,-9.146 C -0.886,0.396 -0.489,0 0,0 Z"
             style="fill:none;stroke:#231f20;stroke-width:0.70899999;stroke-linecap:butt;stroke-linejoin:miter;stroke-miterlimit:10;stroke-dasharray:none;stroke-opacity:1"
             id="path24042"
             inkscape:connector-curvature="0" /></g><g
           id="g24044"
           transform="translate(134.7076,168.3642)"><path
             d="M 0,0 0,-5.669"
             style="fill:none;stroke:#231f20;stroke-width:0.28299999;stroke-linecap:round;stroke-linejoin:miter;stroke-miterlimit:10;stroke-dasharray:none;stroke-opacity:1"
             id="path24046"
             inkscape:connector-curvature="0" /></g><g
           id="g24048"
           transform="translate(134.7076,159.8491)"><path
             d="M 0,0 0,-4.269"
             style="fill:none;stroke:#231f20;stroke-width:0.28299999;stroke-linecap:round;stroke-linejoin:miter;stroke-miterlimit:10;stroke-dasharray:2.846, 2.846;stroke-dashoffset:0;stroke-opacity:1"
             id="path24050"
             inkscape:connector-curvature="0" /></g><g
           id="g24052"
           transform="translate(134.7076,154.1577)"><path
             d="M 0,0 0,-138.016"
             style="fill:none;stroke:#231f20;stroke-width:0.28299999;stroke-linecap:round;stroke-linejoin:miter;stroke-miterlimit:10;stroke-dasharray:11.383, 2.846, 2.846, 2.846;stroke-dashoffset:0;stroke-opacity:1"
             id="path24054"
             inkscape:connector-curvature="0" /></g><g
           id="g24056"
           transform="translate(134.7076,14.7187)"><path
             d="M 0,0 0,-5.67"
             style="fill:none;stroke:#231f20;stroke-width:0.28299999;stroke-linecap:round;stroke-linejoin:miter;stroke-miterlimit:10;stroke-dasharray:none;stroke-opacity:1"
             id="path24058"
             inkscape:connector-curvature="0" /></g><g
           id="g24060"
           transform="translate(85.5811,47.499)"><path
             d="M 0,0 98.251,0"
             style="fill:none;stroke:#231f20;stroke-width:0.28299999;stroke-linecap:round;stroke-linejoin:miter;stroke-miterlimit:10;stroke-dasharray:11.339, 2.835, 2.835, 2.835;stroke-dashoffset:0;stroke-opacity:1"
             id="path24062"
             inkscape:connector-curvature="0" /></g></g></g><g
       id="g24064"
       transform="translate(44.1612,79.6533)"><path
         d="M 0,0 22.993,-19.206"
         style="fill:none;stroke:#ffffff;stroke-width:1.41700006;stroke-linecap:butt;stroke-linejoin:miter;stroke-miterlimit:10;stroke-dasharray:none;stroke-opacity:1"
         id="path24066"
         inkscape:connector-curvature="0" /></g><g
       id="g24068"><g
         id="g24070"
         clip-path="url(#clipPath24072)"><g
           id="g24076"
           transform="translate(65.7881,58.8105)"><path
             d="M 0,0 C 0.903,-0.754 2.248,-0.634 3.002,0.27 3.757,1.173 3.636,2.518 2.733,3.272 1.83,4.026 0.485,3.906 -0.27,3.003 -1.024,2.1 -0.903,0.755 0,0"
             style="fill:#ffffff;fill-opacity:1;fill-rule:nonzero;stroke:none"
             id="path24078"
             inkscape:connector-curvature="0" /></g><g
           id="g24080"
           transform="translate(44.1612,79.6533)"><path
             d="M 0,0 22.993,-19.206"
             style="fill:none;stroke:#000000;stroke-width:0.70899999;stroke-linecap:butt;stroke-linejoin:miter;stroke-miterlimit:10;stroke-dasharray:none;stroke-opacity:1"
             id="path24082"
             inkscape:connector-curvature="0" /></g><g
           id="g24084"
           transform="translate(66.4712,59.6289)"><path
             d="M 0,0 C 0.452,-0.377 1.124,-0.317 1.501,0.135 1.878,0.586 1.818,1.259 1.366,1.636 0.915,2.013 0.243,1.953 -0.135,1.501 -0.512,1.05 -0.452,0.377 0,0"
             style="fill:#000000;fill-opacity:1;fill-rule:nonzero;stroke:none"
             id="path24086"
             inkscape:connector-curvature="0" /></g><g
           id="g24088"
           transform="translate(169.0093,41.998)"><path
             d="M 0,0 C -2.431,-14.637 -13.968,-26.175 -28.604,-28.606"
             style="fill:none;stroke:#000000;stroke-width:0.70899999;stroke-linecap:butt;stroke-linejoin:miter;stroke-miterlimit:10;stroke-dasharray:none;stroke-opacity:1"
             id="path24090"
             inkscape:connector-curvature="0" /></g><g
           id="g24092"
           transform="translate(168.7915,40.7461)"><path
             d="M 0,0 2.389,-1.796 2.455,-1.715 1.218,2.59 C 1.042,4.065 0.867,5.54 0.691,7.015 0.231,5.603 -0.228,4.19 -0.688,2.778 L -2.742,-1.203 -2.707,-1.294 0,0 Z"
             style="fill:#000000;fill-opacity:1;fill-rule:nonzero;stroke:none"
             id="path24094"
             inkscape:connector-curvature="0" /></g><g
           id="g24096"
           transform="translate(141.6558,13.6094)"><path
             d="m 0,0 1.796,-2.389 -0.081,-0.066 -4.306,1.237 c -1.475,0.176 -2.95,0.351 -4.425,0.527 L -2.779,0.688 1.202,2.742 1.293,2.707 0,0 Z"
             style="fill:#000000;fill-opacity:1;fill-rule:nonzero;stroke:none"
             id="path24098"
             inkscape:connector-curvature="0" /></g><g
           id="g24100"
           transform="translate(55.4995,143.4326)"><path
             d="M 0,0 37.167,-16.372"
             style="fill:none;stroke:#ffffff;stroke-width:1.41700006;stroke-linecap:butt;stroke-linejoin:miter;stroke-miterlimit:10;stroke-dasharray:none;stroke-opacity:1"
             id="path24102"
             inkscape:connector-curvature="0" /></g><g
           id="g24104"
           transform="translate(91.8072,125.1104)"><path
             d="M 0,0 C 1.077,-0.475 2.335,0.014 2.81,1.091 3.284,2.168 2.795,3.427 1.718,3.901 0.641,4.376 -0.617,3.887 -1.092,2.81 -1.566,1.733 -1.077,0.475 0,0"
             style="fill:#ffffff;fill-opacity:1;fill-rule:nonzero;stroke:none"
             id="path24106"
             inkscape:connector-curvature="0" /></g><g
           id="g24108"
           transform="translate(55.4995,143.4326)"><path
             d="M 0,0 37.167,-16.372"
             style="fill:none;stroke:#000000;stroke-width:0.70899999;stroke-linecap:butt;stroke-linejoin:miter;stroke-miterlimit:10;stroke-dasharray:none;stroke-opacity:1"
             id="path24110"
             inkscape:connector-curvature="0" /></g><g
           id="g24112"
           transform="translate(92.2368,126.0859)"><path
             d="M 0,0 C 0.538,-0.237 1.167,0.007 1.405,0.545 1.642,1.084 1.397,1.713 0.859,1.95 0.32,2.187 -0.309,1.943 -0.546,1.405 -0.783,0.866 -0.539,0.237 0,0"
             style="fill:#000000;fill-opacity:1;fill-rule:nonzero;stroke:none"
             id="path24114"
             inkscape:connector-curvature="0" /></g></g></g><text
       transform="matrix(1,0,0,-1,47.4995,142.833)"
       style="font-variant:normal;font-weight:bold;font-stretch:normal;font-size:10px;font-family:Arial;-inkscape-font-specification:Arial-BoldMT;writing-mode:lr-tb;fill:#000000;fill-opacity:1;fill-rule:nonzero;stroke:none"
       id="text24116"><tspan
         x="0"
         y="0"
         id="tspan24118">1</tspan><tspan
         x="-10.5"
         y="60.5"
         id="tspan24120">2</tspan><tspan
         x="117.83 123.39 128.95"
         y="125.5"
         sodipodi:role="line"
         id="tspan24122">90°</tspan></text>
<g
       id="g24124"><g
         id="g24126"
         clip-path="url(#clipPath24128)"><g
           id="g24132"
           transform="translate(175.2105,64.7402)"><path
             d="m 0,0 -7.572,8.439 c 0.968,0.869 1.924,1.778 2.84,2.703 L 3.32,3.159 C 2.249,2.078 1.132,1.016 0,0"
             style="fill:#000000;fill-opacity:1;fill-rule:nonzero;stroke:none"
             id="path24134"
             inkscape:connector-curvature="0" /></g><g
           id="g24136"
           transform="translate(179.8052,69.2168)"><path
             d="m 0,0 -8.236,7.791 c 1.194,1.264 2.352,2.587 3.441,3.935 L 4.023,4.599 C 2.751,3.023 1.397,1.476 0,0"
             style="fill:#000000;fill-opacity:1;fill-rule:nonzero;stroke:none"
             id="path24138"
             inkscape:connector-curvature="0" /></g><g
           id="g24140"
           transform="translate(200.8492,90.7646)"><path
             d="m 0,0 -7.466,14.777 -14.78,-7.459 5.669,-1.865 c -2.174,-4.993 -4.954,-9.711 -8.291,-14.044 l 8.982,-6.918 c 4.12,5.35 7.512,11.203 10.114,17.407 L 0,0 Z"
             style="fill:#000000;fill-opacity:1;fill-rule:nonzero;stroke:none"
             id="path24142"
             inkscape:connector-curvature="0" /></g></g></g></g></svg>