<?xml version="1.0" encoding="UTF-8" standalone="no"?>
<!-- Created with Inkscape (http://www.inkscape.org/) -->

<svg
   xmlns:dc="http://purl.org/dc/elements/1.1/"
   xmlns:cc="http://creativecommons.org/ns#"
   xmlns:rdf="http://www.w3.org/1999/02/22-rdf-syntax-ns#"
   xmlns:svg="http://www.w3.org/2000/svg"
   xmlns="http://www.w3.org/2000/svg"
   xmlns:sodipodi="http://sodipodi.sourceforge.net/DTD/sodipodi-0.dtd"
   xmlns:inkscape="http://www.inkscape.org/namespaces/inkscape"
   id="svg3336"
   version="1.1"
   inkscape:version="0.91 r13725"
   xml:space="preserve"
   width="620.07874"
   height="620.07874"
   viewBox="0 0 620.07874 620.07874"
   sodipodi:docname="Throttle Actuator Motor DD2.svg"><metadata
     id="metadata3342"><rdf:RDF><cc:Work
         rdf:about=""><dc:format>image/svg+xml</dc:format><dc:type
           rdf:resource="http://purl.org/dc/dcmitype/StillImage" /><dc:title></dc:title></cc:Work></rdf:RDF></metadata><defs
     id="defs3340"><clipPath
       clipPathUnits="userSpaceOnUse"
       id="clipPath3634"><path
         d="m 0,496.063 496.062,0 L 496.062,0 0,0 0,496.063 Z"
         id="path3636"
         inkscape:connector-curvature="0" /></clipPath></defs><sodipodi:namedview
     pagecolor="#ffffff"
     bordercolor="#666666"
     borderopacity="1"
     objecttolerance="10"
     gridtolerance="10"
     guidetolerance="10"
     inkscape:pageopacity="0"
     inkscape:pageshadow="2"
     inkscape:window-width="640"
     inkscape:window-height="480"
     id="namedview3338"
     showgrid="false"
     inkscape:zoom="1.369181"
     inkscape:cx="310.03937"
     inkscape:cy="310.03937"
     inkscape:window-x="0"
     inkscape:window-y="0"
     inkscape:window-maximized="1"
     inkscape:current-layer="g3344" /><g
     id="g3344"
     inkscape:groupmode="layer"
     inkscape:label="Throttle Actuator Motor DD2"
     transform="matrix(1.25,0,0,-1.25,0,620.07875)"><text
       transform="matrix(0.8,0,0,-1,338.7471,303.6094)"
       style="font-variant:normal;font-weight:bold;font-stretch:normal;font-size:7px;font-family:Helvetica;-inkscape-font-specification:Helvetica-Bold;writing-mode:lr-tb;fill:#292929;fill-opacity:1;fill-rule:nonzero;stroke:none"
       id="text3346"><tspan
         x="0 5.0539999 8.9460001"
         y="0"
         sodipodi:role="line"
         id="tspan3348">A03</tspan><tspan
         x="-53.998001 -48.944"
         y="0.014"
         sodipodi:role="line"
         id="tspan3350">UG</tspan><tspan
         x="-99.911003"
         y="-13.013"
         id="tspan3352">1</tspan><tspan
         x="-53.998001 -48.944"
         y="-13.02"
         sodipodi:role="line"
         id="tspan3354">UO</tspan><tspan
         x="-100.058"
         y="0.021"
         id="tspan3356">2</tspan></text>
<g
       id="g3358"
       transform="translate(336.4736,306.4316)"><path
         d="M 0,0 -30.353,0"
         style="fill:none;stroke:#292929;stroke-width:0.5;stroke-linecap:round;stroke-linejoin:round;stroke-miterlimit:500;stroke-dasharray:none;stroke-opacity:1"
         id="path3360"
         inkscape:connector-curvature="0" /></g><text
       transform="matrix(0.8,0,0,-1,339.2002,316.6436)"
       style="font-variant:normal;font-weight:bold;font-stretch:normal;font-size:7px;font-family:Helvetica;-inkscape-font-specification:Helvetica-Bold;writing-mode:lr-tb;fill:#292929;fill-opacity:1;fill-rule:nonzero;stroke:none"
       id="text3362"><tspan
         x="0 5.0539999 8.9460001"
         y="0"
         sodipodi:role="line"
         id="tspan3364">A02</tspan></text>
<g
       id="g3366"
       transform="translate(336.9268,319.4658)"><path
         d="M 0,0 -30.353,0"
         style="fill:none;stroke:#292929;stroke-width:0.5;stroke-linecap:round;stroke-linejoin:round;stroke-miterlimit:500;stroke-dasharray:none;stroke-opacity:1"
         id="path3368"
         inkscape:connector-curvature="0" /></g><g
       id="g3370"
       transform="translate(265.4072,319.4658)"><path
         d="M 0,0 28.354,0"
         style="fill:none;stroke:#292929;stroke-width:0.5;stroke-linecap:round;stroke-linejoin:round;stroke-miterlimit:500;stroke-dasharray:none;stroke-opacity:1"
         id="path3372"
         inkscape:connector-curvature="0" /></g><g
       id="g3374"
       transform="translate(265.5693,305.8594)"><path
         d="M 0,0 28.354,0"
         style="fill:none;stroke:#292929;stroke-width:0.5;stroke-linecap:round;stroke-linejoin:round;stroke-miterlimit:500;stroke-dasharray:none;stroke-opacity:1"
         id="path3376"
         inkscape:connector-curvature="0" /></g><path
       d="m 264.954,295.774 -16.561,0 0,46.761 16.561,0 0,-46.761 z"
       style="fill:none;stroke:#292929;stroke-width:0.59299999;stroke-linecap:round;stroke-linejoin:round;stroke-miterlimit:500;stroke-dasharray:none;stroke-opacity:1"
       id="path3378"
       inkscape:connector-curvature="0" /><g
       id="g3380"
       transform="translate(345.3506,294.9717)"><path
         d="M 0,0 -41.504,-90.302"
         style="fill:none;stroke:#373536;stroke-width:0.75;stroke-linecap:round;stroke-linejoin:round;stroke-miterlimit:10;stroke-dasharray:none;stroke-opacity:1"
         id="path3382"
         inkscape:connector-curvature="0" /></g><path
       d="m 353.256,295.774 -16.561,0 0,46.761 16.561,0 0,-46.761 z"
       style="fill:none;stroke:#292929;stroke-width:0.59299999;stroke-linecap:round;stroke-linejoin:round;stroke-miterlimit:500;stroke-dasharray:none;stroke-opacity:1"
       id="path3384"
       inkscape:connector-curvature="0" /><text
       transform="matrix(0.8,0,0,-1,339.9287,330.374)"
       style="font-variant:normal;font-weight:bold;font-stretch:normal;font-size:7px;font-family:Helvetica;-inkscape-font-specification:Helvetica-Bold;writing-mode:lr-tb;fill:#292929;fill-opacity:1;fill-rule:nonzero;stroke:none"
       id="text3386"><tspan
         x="0 5.0539999 8.9460001"
         y="0"
         sodipodi:role="line"
         id="tspan3388">A01</tspan></text>
<g
       id="g3390"
       transform="translate(284.8936,142.6377)"><path
         d="M 0,0 47.595,-37.068"
         style="fill:none;stroke:#373535;stroke-width:0.5;stroke-linecap:round;stroke-linejoin:round;stroke-miterlimit:4;stroke-dasharray:none;stroke-opacity:1"
         id="path3392"
         inkscape:connector-curvature="0" /></g><text
       transform="matrix(1,0,0,-1,335.394,99.4385)"
       style="font-variant:normal;font-weight:bold;font-stretch:normal;font-size:10px;font-family:Helvetica;-inkscape-font-specification:Helvetica-Bold;writing-mode:lr-tb;fill:#373535;fill-opacity:1;fill-rule:nonzero;stroke:none"
       id="text3394"><tspan
         x="0"
         y="0"
         id="tspan3396">2</tspan></text>
<path
       d="m 249.726,176.847 8.443,0 0,-8.258 -8.443,0 0,8.258 z"
       style="fill:none;stroke:#292929;stroke-width:0.75;stroke-linecap:square;stroke-linejoin:miter;stroke-miterlimit:10;stroke-dasharray:none;stroke-opacity:1"
       id="path3398"
       inkscape:connector-curvature="0" /><path
       d="m 258.169,176.847 8.462,0 0,-8.258 -8.462,0 0,8.258 z"
       style="fill:none;stroke:#292929;stroke-width:0.75;stroke-linecap:square;stroke-linejoin:miter;stroke-miterlimit:10;stroke-dasharray:none;stroke-opacity:1"
       id="path3400"
       inkscape:connector-curvature="0" /><path
       d="m 266.631,176.847 8.422,0 0,-8.258 -8.422,0 0,8.258 z"
       style="fill:none;stroke:#292929;stroke-width:0.75;stroke-linecap:square;stroke-linejoin:miter;stroke-miterlimit:10;stroke-dasharray:none;stroke-opacity:1"
       id="path3402"
       inkscape:connector-curvature="0" /><path
       d="m 275.053,176.847 8.443,0 0,-8.258 -8.443,0 0,8.258 z"
       style="fill:none;stroke:#292929;stroke-width:0.75;stroke-linecap:square;stroke-linejoin:miter;stroke-miterlimit:10;stroke-dasharray:none;stroke-opacity:1"
       id="path3404"
       inkscape:connector-curvature="0" /><path
       d="m 283.496,176.847 8.462,0 0,-8.258 -8.462,0 0,8.258 z"
       style="fill:none;stroke:#292929;stroke-width:0.75;stroke-linecap:square;stroke-linejoin:miter;stroke-miterlimit:10;stroke-dasharray:none;stroke-opacity:1"
       id="path3406"
       inkscape:connector-curvature="0" /><path
       d="m 291.958,176.847 8.443,0 0,-8.258 -8.443,0 0,8.258 z"
       style="fill:#ffffff;fill-opacity:1;fill-rule:nonzero;stroke:#292929;stroke-width:0.75;stroke-linecap:square;stroke-linejoin:miter;stroke-miterlimit:10;stroke-dasharray:none;stroke-opacity:1"
       id="path3408"
       inkscape:connector-curvature="0" /><path
       d="m 300.401,176.847 8.423,0 0,-8.258 -8.423,0 0,8.258 z"
       style="fill:none;stroke:#292929;stroke-width:0.75;stroke-linecap:square;stroke-linejoin:miter;stroke-miterlimit:10;stroke-dasharray:none;stroke-opacity:1"
       id="path3410"
       inkscape:connector-curvature="0" /><path
       d="m 308.824,176.847 8.462,0 0,-8.258 -8.462,0 0,8.258 z"
       style="fill:none;stroke:#292929;stroke-width:0.75;stroke-linecap:square;stroke-linejoin:miter;stroke-miterlimit:10;stroke-dasharray:none;stroke-opacity:1"
       id="path3412"
       inkscape:connector-curvature="0" /><path
       d="m 317.286,176.847 8.441,0 0,-8.258 -8.441,0 0,8.258 z"
       style="fill:none;stroke:#292929;stroke-width:0.75;stroke-linecap:square;stroke-linejoin:miter;stroke-miterlimit:10;stroke-dasharray:none;stroke-opacity:1"
       id="path3414"
       inkscape:connector-curvature="0" /><path
       d="m 325.728,176.847 8.443,0 0,-8.258 -8.443,0 0,8.258 z"
       style="fill:#a0a2a4;fill-opacity:1;fill-rule:nonzero;stroke:#292929;stroke-width:0.75;stroke-linecap:square;stroke-linejoin:miter;stroke-miterlimit:10;stroke-dasharray:none;stroke-opacity:1"
       id="path3416"
       inkscape:connector-curvature="0" /><path
       d="m 334.171,176.847 8.443,0 0,-8.258 -8.443,0 0,8.258 z"
       style="fill:#a0a2a4;fill-opacity:1;fill-rule:nonzero;stroke:#292929;stroke-width:0.75;stroke-linecap:square;stroke-linejoin:miter;stroke-miterlimit:10;stroke-dasharray:none;stroke-opacity:1"
       id="path3418"
       inkscape:connector-curvature="0" /><path
       d="m 342.614,176.847 8.441,0 0,-8.258 -8.441,0 0,8.258 z"
       style="fill:#a0a2a4;fill-opacity:1;fill-rule:nonzero;stroke:#292929;stroke-width:0.75;stroke-linecap:square;stroke-linejoin:miter;stroke-miterlimit:10;stroke-dasharray:none;stroke-opacity:1"
       id="path3420"
       inkscape:connector-curvature="0" /><path
       d="m 253.946,166.938 8.443,0 0,-8.236 -8.443,0 0,8.236 z"
       style="fill:none;stroke:#292929;stroke-width:0.75;stroke-linecap:square;stroke-linejoin:miter;stroke-miterlimit:10;stroke-dasharray:none;stroke-opacity:1"
       id="path3422"
       inkscape:connector-curvature="0" /><path
       d="m 262.39,166.938 8.443,0 0,-8.236 -8.443,0 0,8.236 z"
       style="fill:none;stroke:#292929;stroke-width:0.75;stroke-linecap:square;stroke-linejoin:miter;stroke-miterlimit:10;stroke-dasharray:none;stroke-opacity:1"
       id="path3424"
       inkscape:connector-curvature="0" /><path
       d="m 270.833,166.938 8.463,0 0,-8.236 -8.463,0 0,8.236 z"
       style="fill:none;stroke:#292929;stroke-width:0.75;stroke-linecap:square;stroke-linejoin:miter;stroke-miterlimit:10;stroke-dasharray:none;stroke-opacity:1"
       id="path3426"
       inkscape:connector-curvature="0" /><path
       d="m 279.296,166.938 8.439,0 0,-8.236 -8.439,0 0,8.236 z"
       style="fill:none;stroke:#292929;stroke-width:0.75;stroke-linecap:square;stroke-linejoin:miter;stroke-miterlimit:10;stroke-dasharray:none;stroke-opacity:1"
       id="path3428"
       inkscape:connector-curvature="0" /><path
       d="m 287.735,166.938 8.424,0 0,-8.236 -8.424,0 0,8.236 z"
       style="fill:none;stroke:#292929;stroke-width:0.75;stroke-linecap:square;stroke-linejoin:miter;stroke-miterlimit:10;stroke-dasharray:none;stroke-opacity:1"
       id="path3430"
       inkscape:connector-curvature="0" /><path
       d="m 296.159,166.938 8.463,0 0,-8.236 -8.463,0 0,8.236 z"
       style="fill:none;stroke:#292929;stroke-width:0.75;stroke-linecap:square;stroke-linejoin:miter;stroke-miterlimit:10;stroke-dasharray:none;stroke-opacity:1"
       id="path3432"
       inkscape:connector-curvature="0" /><path
       d="m 304.622,166.938 8.443,0 0,-8.236 -8.443,0 0,8.236 z"
       style="fill:none;stroke:#292929;stroke-width:0.75;stroke-linecap:square;stroke-linejoin:miter;stroke-miterlimit:10;stroke-dasharray:none;stroke-opacity:1"
       id="path3434"
       inkscape:connector-curvature="0" /><path
       d="m 313.065,166.938 8.422,0 0,-8.236 -8.422,0 0,8.236 z"
       style="fill:none;stroke:#292929;stroke-width:0.75;stroke-linecap:square;stroke-linejoin:miter;stroke-miterlimit:10;stroke-dasharray:none;stroke-opacity:1"
       id="path3436"
       inkscape:connector-curvature="0" /><path
       d="m 321.487,166.938 8.461,0 0,-8.236 -8.461,0 0,8.236 z"
       style="fill:none;stroke:#292929;stroke-width:0.75;stroke-linecap:square;stroke-linejoin:miter;stroke-miterlimit:10;stroke-dasharray:none;stroke-opacity:1"
       id="path3438"
       inkscape:connector-curvature="0" /><path
       d="m 329.948,166.938 8.445,0 0,-8.236 -8.445,0 0,8.236 z"
       style="fill:none;stroke:#292929;stroke-width:0.75;stroke-linecap:square;stroke-linejoin:miter;stroke-miterlimit:10;stroke-dasharray:none;stroke-opacity:1"
       id="path3440"
       inkscape:connector-curvature="0" /><path
       d="m 338.394,166.938 8.439,0 0,-8.236 -8.439,0 0,8.236 z"
       style="fill:none;stroke:#292929;stroke-width:0.75;stroke-linecap:square;stroke-linejoin:miter;stroke-miterlimit:10;stroke-dasharray:none;stroke-opacity:1"
       id="path3442"
       inkscape:connector-curvature="0" /><path
       d="m 346.833,166.938 8.445,0 0,-8.236 -8.445,0 0,8.236 z"
       style="fill:none;stroke:#292929;stroke-width:0.75;stroke-linecap:square;stroke-linejoin:miter;stroke-miterlimit:10;stroke-dasharray:none;stroke-opacity:1"
       id="path3444"
       inkscape:connector-curvature="0" /><path
       d="m 258.169,157.054 8.462,0 0,-8.221 -8.462,0 0,8.221 z"
       style="fill:none;stroke:#292929;stroke-width:0.75;stroke-linecap:square;stroke-linejoin:miter;stroke-miterlimit:10;stroke-dasharray:none;stroke-opacity:1"
       id="path3446"
       inkscape:connector-curvature="0" /><path
       d="m 266.631,157.054 8.422,0 0,-8.221 -8.422,0 0,8.221 z"
       style="fill:none;stroke:#292929;stroke-width:0.75;stroke-linecap:square;stroke-linejoin:miter;stroke-miterlimit:10;stroke-dasharray:none;stroke-opacity:1"
       id="path3448"
       inkscape:connector-curvature="0" /><path
       d="m 291.958,157.054 8.443,0 0,-8.221 -8.443,0 0,8.221 z"
       style="fill:none;stroke:#292929;stroke-width:0.75;stroke-linecap:square;stroke-linejoin:miter;stroke-miterlimit:10;stroke-dasharray:none;stroke-opacity:1"
       id="path3450"
       inkscape:connector-curvature="0" /><path
       d="m 300.401,157.054 8.423,0 0,-8.221 -8.423,0 0,8.221 z"
       style="fill:none;stroke:#292929;stroke-width:0.75;stroke-linecap:square;stroke-linejoin:miter;stroke-miterlimit:10;stroke-dasharray:none;stroke-opacity:1"
       id="path3452"
       inkscape:connector-curvature="0" /><path
       d="m 308.824,157.054 8.462,0 0,-8.221 -8.462,0 0,8.221 z"
       style="fill:none;stroke:#292929;stroke-width:0.75;stroke-linecap:square;stroke-linejoin:miter;stroke-miterlimit:10;stroke-dasharray:none;stroke-opacity:1"
       id="path3454"
       inkscape:connector-curvature="0" /><path
       d="m 317.286,157.054 8.441,0 0,-8.221 -8.441,0 0,8.221 z"
       style="fill:none;stroke:#292929;stroke-width:0.75;stroke-linecap:square;stroke-linejoin:miter;stroke-miterlimit:10;stroke-dasharray:none;stroke-opacity:1"
       id="path3456"
       inkscape:connector-curvature="0" /><path
       d="m 325.728,157.054 8.443,0 0,-8.221 -8.443,0 0,8.221 z"
       style="fill:none;stroke:#292929;stroke-width:0.75;stroke-linecap:square;stroke-linejoin:miter;stroke-miterlimit:10;stroke-dasharray:none;stroke-opacity:1"
       id="path3458"
       inkscape:connector-curvature="0" /><path
       d="m 334.171,157.054 8.443,0 0,-8.221 -8.443,0 0,8.221 z"
       style="fill:none;stroke:#292929;stroke-width:0.75;stroke-linecap:square;stroke-linejoin:miter;stroke-miterlimit:10;stroke-dasharray:none;stroke-opacity:1"
       id="path3460"
       inkscape:connector-curvature="0" /><path
       d="m 342.614,157.054 8.441,0 0,-8.221 -8.441,0 0,8.221 z"
       style="fill:none;stroke:#292929;stroke-width:0.75;stroke-linecap:square;stroke-linejoin:miter;stroke-miterlimit:10;stroke-dasharray:none;stroke-opacity:1"
       id="path3462"
       inkscape:connector-curvature="0" /><path
       d="m 351.056,157.054 8.441,0 0,-8.221 -8.441,0 0,8.221 z"
       style="fill:none;stroke:#292929;stroke-width:0.75;stroke-linecap:square;stroke-linejoin:miter;stroke-miterlimit:10;stroke-dasharray:none;stroke-opacity:1"
       id="path3464"
       inkscape:connector-curvature="0" /><g
       id="g3466"
       transform="translate(319.7998,144.6963)"><path
         d="m 0,0 39.697,0 0.405,0.037 0.423,0.037 0.403,0.113 0.383,0.131 0.384,0.17 0.344,0.203 0.328,0.246 0.307,0.282 0.287,0.301 0.25,0.316 0.211,0.355 0.172,0.354 0.152,0.396 0.096,0.391 0.058,0.397 0.022,0.408 0,28.013 -0.022,0.391 -0.058,0.414 -0.096,0.395 -0.152,0.355 -0.172,0.373 -0.211,0.358 -0.25,0.318 -0.287,0.299 -0.307,0.277 -0.328,0.229 -0.344,0.203 -0.384,0.187 -0.383,0.133 -0.403,0.094 -0.423,0.072 -0.405,0.02 -18.996,0"
         style="fill:none;stroke:#292929;stroke-width:0.75;stroke-linecap:square;stroke-linejoin:miter;stroke-miterlimit:10;stroke-dasharray:none;stroke-opacity:1"
         id="path3468"
         inkscape:connector-curvature="0" /></g><g
       id="g3470"
       transform="translate(320.6631,142.6377)"><path
         d="m 0,0 38.834,0 0.617,0.037 0.613,0.096 0.614,0.146 0.574,0.207 0.559,0.26 0.554,0.301 0.481,0.357 0.463,0.41 0.42,0.45 0.382,0.486 0.307,0.527 0.271,0.541 0.209,0.582 0.155,0.58 0.076,0.598 0.037,0.617 0.02,0.397 0.058,0.412 0.096,0.373 0.154,0.373 0.172,0.377 0.211,0.355 0.25,0.317 0.285,0.299 0.309,0.263 0.324,0.244 0.348,0.208 0.382,0.187 0.387,0.129 0.401,0.094 0.423,0.076 0.403,0 0,8.256 -0.403,0 -0.423,0.074 -0.401,0.096 -0.387,0.132 -0.382,0.166 -0.348,0.223 -0.324,0.225 -0.309,0.281 -0.285,0.301 -0.25,0.318 -0.211,0.358 -0.172,0.355 -0.154,0.371 -0.096,0.397 -0.058,0.41 -0.02,0.394 0,3.295 0,8.258 -0.018,0.467 -0.058,0.469 -0.113,0.466 -0.155,0.452 -0.211,0.451 -0.25,0.408 -0.269,0.394 -0.305,0.354 -0.348,0.355 -0.384,0.301 -12.662,10.299"
         style="fill:none;stroke:#292929;stroke-width:0.75;stroke-linecap:square;stroke-linejoin:miter;stroke-miterlimit:10;stroke-dasharray:none;stroke-opacity:1"
         id="path3472"
         inkscape:connector-curvature="0" /></g><path
       d="m 368.784,159.94 -3.799,0 0,-5.75 3.799,0 0,5.75 z"
       style="fill:none;stroke:#292929;stroke-width:0.75;stroke-linecap:square;stroke-linejoin:miter;stroke-miterlimit:10;stroke-dasharray:none;stroke-opacity:1"
       id="path3474"
       inkscape:connector-curvature="0" /><g
       id="g3476"
       transform="translate(370.0518,161.1924)"><path
         d="M 0,0 0,19.771"
         style="fill:none;stroke:#292929;stroke-width:0.75;stroke-linecap:square;stroke-linejoin:miter;stroke-miterlimit:10;stroke-dasharray:none;stroke-opacity:1"
         id="path3478"
         inkscape:connector-curvature="0" /></g><g
       id="g3480"
       transform="translate(366.2529,183.4346)"><path
         d="m 0,0 0,7.828 0,2.059 0,0.244 -0.039,0.264 -0.078,0.259 -0.076,0.246 -0.133,0.245 -0.135,0.222 -0.152,0.223 -0.196,0.191 -0.189,0.166 -0.231,0.153 -0.21,0.127 -0.25,0.13 -13.508,5.768"
         style="fill:none;stroke:#292929;stroke-width:0.75;stroke-linecap:square;stroke-linejoin:miter;stroke-miterlimit:10;stroke-dasharray:none;stroke-opacity:1"
         id="path3482"
         inkscape:connector-curvature="0" /></g><path
       d="m 351.056,191.263 -7.176,0 0,9.061 7.176,0 0,-9.061 z"
       style="fill:none;stroke:#292929;stroke-width:0.75;stroke-linecap:square;stroke-linejoin:miter;stroke-miterlimit:10;stroke-dasharray:none;stroke-opacity:1"
       id="path3484"
       inkscape:connector-curvature="0" /><path
       d="m 350.212,198.679 -4.645,0 0,-6.59 4.645,0 0,6.59 z"
       style="fill:none;stroke:#292929;stroke-width:0.75;stroke-linecap:square;stroke-linejoin:miter;stroke-miterlimit:10;stroke-dasharray:none;stroke-opacity:1"
       id="path3486"
       inkscape:connector-curvature="0" /><g
       id="g3488"
       transform="translate(370.0518,180.9639)"><path
         d="m 0,0 0,21.4 0,0.209 -0.041,0.203 -0.053,0.206 -0.058,0.191 -0.096,0.186 -0.117,0.169 -0.114,0.149 -0.134,0.15 -0.155,0.151 -0.171,0.113 -0.174,0.109 -0.194,0.076 -0.191,0.075 -0.191,0.058 -0.211,0.018 -0.211,0.019 -3.377,0"
         style="fill:none;stroke:#292929;stroke-width:0.75;stroke-linecap:square;stroke-linejoin:miter;stroke-miterlimit:10;stroke-dasharray:none;stroke-opacity:1"
         id="path3490"
         inkscape:connector-curvature="0" /></g><g
       id="g3492"
       transform="translate(343.8799,146.7725)"><path
         d="m 0,0 15.617,0 0.192,0 0.212,0.02 0.213,0.058 0.19,0.072 0.193,0.079 0.172,0.109 0.174,0.113 0.152,0.151 0.133,0.15 0.119,0.15 0.112,0.168 0.076,0.186 0.078,0.209 0.058,0.187 0.018,0.203 0.02,0.206 0,28.013 -0.02,0.203 -0.018,0.188 -0.058,0.209 -0.078,0.185 -0.076,0.168 -0.112,0.188 -0.119,0.168 -0.133,0.15 -0.152,0.131 -0.174,0.113 -0.172,0.114 -0.193,0.072 -0.19,0.078 -0.213,0.037 -0.212,0.035 -0.192,0.02 -42.633,0 -67.138,0 -0.193,-0.02 -0.19,-0.035 -0.192,-0.037 -0.175,-0.059 -0.19,-0.072 -0.154,-0.096 -0.172,-0.115 -0.154,-0.107 -0.134,-0.133 -0.114,-0.148 -0.116,-0.17 -0.097,-0.151 -0.096,-0.183 -0.057,-0.17 -0.039,-0.192 -0.017,-0.185 -0.022,-0.186 0,-28.013 0.022,-0.206 0.017,-0.203 0.059,-0.187 0.076,-0.209 0.076,-0.186 0.116,-0.168 0.115,-0.15 0.134,-0.15 0.153,-0.151 0.174,-0.113 0.172,-0.109 0.193,-0.079 0.191,-0.072 L -94.557,0.02 -94.365,0 -94.154,0 0,0"
         style="fill:none;stroke:#292929;stroke-width:0.75;stroke-linecap:square;stroke-linejoin:miter;stroke-miterlimit:10;stroke-dasharray:none;stroke-opacity:1"
         id="path3494"
         inkscape:connector-curvature="0" /></g><g
       id="g3496"
       transform="translate(319.7998,144.6963)"><path
         d="m 0,0 -70.074,0 -0.442,0.037 -0.439,0.055 -0.424,0.113 -0.422,0.15 -0.385,0.206 -0.363,0.226 -0.346,0.281 -0.305,0.299 -0.288,0.338 -0.251,0.371 -0.193,0.379 -0.151,0.391 -0.116,0.431 -0.058,0.414 -0.04,0.446 0,14.006 0,14.007 0.021,0.391 0.077,0.414 0.095,0.395 0.135,0.355 0.173,0.373 0.212,0.358 0.248,0.318 0.27,0.299 0.306,0.277 0.345,0.229 0.364,0.203 0.367,0.187 0.403,0.133 0.381,0.094 0.423,0.072 0.403,0.02 90.775,0"
         style="fill:none;stroke:#292929;stroke-width:0.75;stroke-linecap:square;stroke-linejoin:miter;stroke-miterlimit:10;stroke-dasharray:none;stroke-opacity:1"
         id="path3498"
         inkscape:connector-curvature="0" /></g><g
       id="g3500"
       transform="translate(320.6631,142.6377)"><path
         d="m 0,0 -71.359,0 -0.596,0.037 -0.595,0.096 -0.593,0.146 -0.576,0.207 -0.539,0.26 -0.516,0.322 -0.479,0.373 -0.424,0.391 -0.403,0.449 -0.344,0.508 -0.29,0.506 -0.231,0.56 -0.172,0.563 -0.094,0.582 -0.059,0.6 0,0.595 0,0.358 -0.018,0.355 -0.059,0.373 -0.094,0.36 -0.135,0.336 -0.153,0.318 -0.21,0.318 -0.231,0.299 -0.249,0.283 -0.29,0.241 -0.286,0.205 -0.327,0.209 -0.325,0.15 -0.347,0.129 -0.363,0.094 -0.384,0.076 -0.366,0.017 -0.381,-0.017 0,8.256 0.381,0 0.404,0.056 0.363,0.096 0.386,0.107 0.345,0.153 0.345,0.185 0.326,0.227 0.288,0.242 0.288,0.262 0.249,0.301 0.21,0.318 0.193,0.316 0.153,0.358 0.133,0.357 0.099,0.373 0.037,0.373 0.018,0.377 0,11.553 0.04,0.637 0.113,0.634 0.172,0.637 0.254,0.6 0.304,0.582 0.383,0.521 0.424,0.506 13.086,10.299 21.125,0 4.202,-9.062 5.064,0"
         style="fill:none;stroke:#292929;stroke-width:0.75;stroke-linecap:square;stroke-linejoin:miter;stroke-miterlimit:10;stroke-dasharray:none;stroke-opacity:1"
         id="path3502"
         inkscape:connector-curvature="0" /></g><g
       id="g3504"
       transform="translate(351.0557,191.2627)"><path
         d="m 0,0 -20.686,0 -0.421,0 -4.221,-9.063 -37.167,0"
         style="fill:none;stroke:#292929;stroke-width:0.75;stroke-linecap:square;stroke-linejoin:miter;stroke-miterlimit:10;stroke-dasharray:none;stroke-opacity:1"
         id="path3506"
         inkscape:connector-curvature="0" /></g><path
       d="m 258.169,191.263 8.462,0 0,9.061 -8.462,0 0,-9.061 z"
       style="fill:none;stroke:#292929;stroke-width:0.75;stroke-linecap:square;stroke-linejoin:miter;stroke-miterlimit:10;stroke-dasharray:none;stroke-opacity:1"
       id="path3508"
       inkscape:connector-curvature="0" /><path
       d="m 259.014,192.089 5.91,0 0,6.59 -5.91,0 0,-6.59 z"
       style="fill:none;stroke:#292929;stroke-width:0.75;stroke-linecap:square;stroke-linejoin:miter;stroke-miterlimit:10;stroke-dasharray:none;stroke-opacity:1"
       id="path3510"
       inkscape:connector-curvature="0" /><g
       id="g3512"
       transform="translate(242.9717,179.71)"><path
         d="M 0,0 0,-16.217"
         style="fill:none;stroke:#292929;stroke-width:0.75;stroke-linecap:square;stroke-linejoin:miter;stroke-miterlimit:10;stroke-dasharray:none;stroke-opacity:1"
         id="path3514"
         inkscape:connector-curvature="0" /></g><g
       id="g3516"
       transform="translate(239.1748,179.71)"><path
         d="m 0,0 0,14.438 0,8.216 0.019,0.209 0.018,0.203 0.059,0.205 0.076,0.192 0.076,0.185 0.113,0.17 0.118,0.149 0.154,0.15 0.152,0.151 0.152,0.109 0.174,0.113 0.192,0.076 0.191,0.075 0.211,0.058 0.213,0.018 0.191,0.019 6.754,0"
         style="fill:none;stroke:#292929;stroke-width:0.75;stroke-linecap:square;stroke-linejoin:miter;stroke-miterlimit:10;stroke-dasharray:none;stroke-opacity:1"
         id="path3518"
         inkscape:connector-curvature="0" /></g><g
       id="g3520"
       transform="translate(239.1748,161.1924)"><path
         d="M 0,0 0,18.518"
         style="fill:none;stroke:#292929;stroke-width:0.75;stroke-linecap:square;stroke-linejoin:miter;stroke-miterlimit:10;stroke-dasharray:none;stroke-opacity:1"
         id="path3522"
         inkscape:connector-curvature="0" /></g><g
       id="g3524"
       transform="translate(242.9717,179.71)"><path
         d="m 0,0 0,14.006 0.018,0.244 0.041,0.205 0.056,0.205 0.076,0.209 0.097,0.186 0.134,0.205 0.135,0.15 0.153,0.168 0.173,0.131 0.193,0.133 0.192,0.09 0.21,0.078 0.209,0.072 13.51,6.182"
         style="fill:none;stroke:#292929;stroke-width:0.75;stroke-linecap:square;stroke-linejoin:miter;stroke-miterlimit:10;stroke-dasharray:none;stroke-opacity:1"
         id="path3526"
         inkscape:connector-curvature="0" /></g><path
       d="m 278.009,190.007 -15.619,0 0,-7.807 15.619,0 0,7.807 z"
       style="fill:none;stroke:#292929;stroke-width:0.75;stroke-linecap:square;stroke-linejoin:miter;stroke-miterlimit:10;stroke-dasharray:none;stroke-opacity:1"
       id="path3528"
       inkscape:connector-curvature="0" /><path
       d="m 331.214,190.007 15.619,0 0,-7.807 -15.619,0 0,7.807 z"
       style="fill:none;stroke:#292929;stroke-width:0.75;stroke-linecap:square;stroke-linejoin:miter;stroke-miterlimit:10;stroke-dasharray:none;stroke-opacity:1"
       id="path3530"
       inkscape:connector-curvature="0" /><path
       d="m 283.075,195.792 1.707,0 0,-11.139 -1.707,0 0,11.139 z"
       style="fill:none;stroke:#292929;stroke-width:0.75;stroke-linecap:square;stroke-linejoin:miter;stroke-miterlimit:10;stroke-dasharray:none;stroke-opacity:1"
       id="path3532"
       inkscape:connector-curvature="0" /><path
       d="m 326.149,195.792 -1.687,0 0,-11.139 1.687,0 0,11.139 z"
       style="fill:none;stroke:#292929;stroke-width:0.75;stroke-linecap:square;stroke-linejoin:miter;stroke-miterlimit:10;stroke-dasharray:none;stroke-opacity:1"
       id="path3534"
       inkscape:connector-curvature="0" /><path
       d="m 284.782,197.442 39.68,0 0,-14.008 -39.68,0 0,14.008 z"
       style="fill:none;stroke:#292929;stroke-width:0.75;stroke-linecap:square;stroke-linejoin:miter;stroke-miterlimit:10;stroke-dasharray:none;stroke-opacity:1"
       id="path3536"
       inkscape:connector-curvature="0" /><g
       id="g3538"
       transform="translate(351.0557,201.5596)"><path
         d="m 0,0 -24.906,0 -1.688,-4.117"
         style="fill:none;stroke:#292929;stroke-width:0.75;stroke-linecap:square;stroke-linejoin:miter;stroke-miterlimit:10;stroke-dasharray:none;stroke-opacity:1"
         id="path3540"
         inkscape:connector-curvature="0" /></g><g
       id="g3542"
       transform="translate(258.1689,201.9736)"><path
         d="m 0,0 24.906,0 1.707,-4.531"
         style="fill:none;stroke:#292929;stroke-width:0.75;stroke-linecap:square;stroke-linejoin:miter;stroke-miterlimit:10;stroke-dasharray:none;stroke-opacity:1"
         id="path3544"
         inkscape:connector-curvature="0" /></g><path
       d="m 240.44,159.94 3.799,0 0,-5.75 -3.799,0 0,5.75 z"
       style="fill:none;stroke:#292929;stroke-width:0.75;stroke-linecap:square;stroke-linejoin:miter;stroke-miterlimit:10;stroke-dasharray:none;stroke-opacity:1"
       id="path3546"
       inkscape:connector-curvature="0" /><g
       id="g3548"
       transform="translate(366.2529,183.4346)"><path
         d="M 0,0 0,-19.941"
         style="fill:none;stroke:#292929;stroke-width:0.75;stroke-linecap:square;stroke-linejoin:miter;stroke-miterlimit:10;stroke-dasharray:none;stroke-opacity:1"
         id="path3550"
         inkscape:connector-curvature="0" /></g><g
       id="g3552"
       transform="translate(248.0381,204.4463)"><path
         d="M 0,0 116.525,0"
         style="fill:none;stroke:#292929;stroke-width:0.75;stroke-linecap:square;stroke-linejoin:miter;stroke-miterlimit:10;stroke-dasharray:none;stroke-opacity:1"
         id="path3554"
         inkscape:connector-curvature="0" /></g><g
       id="g3556"
       transform="translate(305.4482,185.9072)"><path
         d="m 0,0 19.014,0 -39.68,0"
         style="fill:none;stroke:#292929;stroke-width:0.75;stroke-linecap:square;stroke-linejoin:miter;stroke-miterlimit:10;stroke-dasharray:none;stroke-opacity:1"
         id="path3558"
         inkscape:connector-curvature="0" /></g><g
       id="g3560"
       transform="translate(303.7783,187.5576)"><path
         d="m 0,0 -18.996,0 39.68,0"
         style="fill:none;stroke:#292929;stroke-width:0.75;stroke-linecap:square;stroke-linejoin:miter;stroke-miterlimit:10;stroke-dasharray:none;stroke-opacity:1"
         id="path3562"
         inkscape:connector-curvature="0" /></g><text
       transform="matrix(1,0,0,-0.97581603,250.4082,171.0078)"
       style="font-variant:normal;font-weight:bold;font-stretch:normal;font-size:6.14870024px;font-family:Helvetica;-inkscape-font-specification:Helvetica-Bold;writing-mode:lr-tb;fill:#292929;fill-opacity:1;fill-rule:nonzero;stroke:none"
       id="text3564"><tspan
         x="0 3.4186771"
         y="0"
         sodipodi:role="line"
         id="tspan3566">12</tspan><tspan
         x="4.7590938 8.1777706"
         y="10.858604"
         sodipodi:role="line"
         id="tspan3568">24</tspan></text>
<text
       transform="matrix(1,0,0,-1,259.1729,150.8633)"
       style="font-variant:normal;font-weight:bold;font-stretch:normal;font-size:6px;font-family:Helvetica;-inkscape-font-specification:Helvetica-Bold;writing-mode:lr-tb;fill:#292929;fill-opacity:1;fill-rule:nonzero;stroke:none"
       id="text3570"><tspan
         x="0 3.336"
         y="0"
         sodipodi:role="line"
         id="tspan3572">36</tspan><tspan
         x="93.155998 96.491997"
         y="0.078000002"
         sodipodi:role="line"
         id="tspan3574">25</tspan><tspan
         x="88.403999 91.739998"
         y="-9.9540005"
         sodipodi:role="line"
         id="tspan3576">13</tspan><tspan
         x="86.220001"
         y="-20.087999"
         id="tspan3578">1</tspan></text>
<path
       d="m 307.298,170.235 -5.664,0 0,4.992 5.664,0 0,-4.992 z"
       style="fill:#ffffff;fill-opacity:1;fill-rule:nonzero;stroke:none"
       id="path3580"
       inkscape:connector-curvature="0" /><path
       d="m 275.053,157.054 8.443,0 0,-8.221 -8.443,0 0,8.221 z"
       style="fill:none;stroke:#292929;stroke-width:0.75;stroke-linecap:square;stroke-linejoin:miter;stroke-miterlimit:10;stroke-dasharray:none;stroke-opacity:1"
       id="path3582"
       inkscape:connector-curvature="0" /><path
       d="m 283.496,157.054 8.462,0 0,-8.221 -8.462,0 0,8.221 z"
       style="fill:none;stroke:#292929;stroke-width:0.75;stroke-linecap:square;stroke-linejoin:miter;stroke-miterlimit:10;stroke-dasharray:none;stroke-opacity:1"
       id="path3584"
       inkscape:connector-curvature="0" /><text
       transform="matrix(1,0,0,-1,336.5786,170.9531)"
       style="font-variant:normal;font-weight:bold;font-stretch:normal;font-size:6px;font-family:Helvetica;-inkscape-font-specification:Helvetica-Bold;writing-mode:lr-tb;fill:#292929;fill-opacity:1;fill-rule:nonzero;stroke:none"
       id="text3586"><tspan
         x="0 -7.8839998"
         y="0"
         sodipodi:role="line"
         id="tspan3588">23</tspan></text>
<g
       id="g3590"
       transform="translate(305.496,157.0536)"><path
         d="M 0,0 8.462,0 0,0 Z"
         style="fill:#a0a2a4;fill-opacity:1;fill-rule:nonzero;stroke:none"
         id="path3592"
         inkscape:connector-curvature="0" /></g><g
       id="g3594"
       transform="translate(305.4961,157.0537)"><path
         d="M 0,0 8.462,0"
         style="fill:none;stroke:#292929;stroke-width:0.75;stroke-linecap:square;stroke-linejoin:miter;stroke-miterlimit:10;stroke-dasharray:none;stroke-opacity:1"
         id="path3596"
         inkscape:connector-curvature="0" /></g><g
       id="g3598"
       transform="translate(159.9346,316.9766)"><path
         d="M 0,0 88.459,0"
         style="fill:none;stroke:#373536;stroke-width:0.75;stroke-linecap:round;stroke-linejoin:round;stroke-miterlimit:10;stroke-dasharray:none;stroke-opacity:1"
         id="path3600"
         inkscape:connector-curvature="0" /></g><g
       id="g3602"
       transform="translate(117.3125,323.373)"><path
         d="M 0,0 0.104,0.817"
         style="fill:none;stroke:#373535;stroke-width:0.75;stroke-linecap:square;stroke-linejoin:miter;stroke-miterlimit:10;stroke-dasharray:none;stroke-opacity:1"
         id="path3604"
         inkscape:connector-curvature="0" /></g><g
       id="g3606"
       transform="translate(128.2666,324.1904)"><path
         d="M 0,0 0,-8.632"
         style="fill:none;stroke:#373535;stroke-width:0.75;stroke-linecap:square;stroke-linejoin:miter;stroke-miterlimit:10;stroke-dasharray:none;stroke-opacity:1"
         id="path3608"
         inkscape:connector-curvature="0" /></g><g
       id="g3610"
       transform="translate(144.3174,324.2129)"><path
         d="M 0,0 0,-8.631"
         style="fill:none;stroke:#373535;stroke-width:0.75;stroke-linecap:square;stroke-linejoin:miter;stroke-miterlimit:10;stroke-dasharray:none;stroke-opacity:1"
         id="path3612"
         inkscape:connector-curvature="0" /></g><g
       id="g3614"
       transform="translate(127.6289,304.1475)"><path
         d="M 0,0 17.917,0"
         style="fill:none;stroke:#373535;stroke-width:0.75;stroke-linecap:square;stroke-linejoin:miter;stroke-miterlimit:10;stroke-dasharray:none;stroke-opacity:1"
         id="path3616"
         inkscape:connector-curvature="0" /></g><g
       id="g3618"
       transform="translate(126.1172,304.9238)"><path
         d="M 0,0 19.666,0"
         style="fill:none;stroke:#373535;stroke-width:0.75;stroke-linecap:square;stroke-linejoin:miter;stroke-miterlimit:10;stroke-dasharray:none;stroke-opacity:1"
         id="path3620"
         inkscape:connector-curvature="0" /></g><g
       id="g3622"
       transform="translate(130.1143,313.7979)"><path
         d="M 0,0 12.796,0.059"
         style="fill:none;stroke:#373535;stroke-width:0.75;stroke-linecap:square;stroke-linejoin:miter;stroke-miterlimit:10;stroke-dasharray:none;stroke-opacity:1"
         id="path3624"
         inkscape:connector-curvature="0" /></g><g
       id="g3626"
       transform="translate(130.1143,325.9512)"><path
         d="M 0,0 12.796,0"
         style="fill:none;stroke:#373535;stroke-width:0.75;stroke-linecap:square;stroke-linejoin:miter;stroke-miterlimit:10;stroke-dasharray:none;stroke-opacity:1"
         id="path3628"
         inkscape:connector-curvature="0" /></g><g
       id="g3630"><g
         id="g3632"
         clip-path="url(#clipPath3634)"><g
           id="g3638"
           transform="translate(156.6904,324.2246)"><path
             d="M 0,0 C 0,5.098 -3.18,9.639 -7.947,11.377"
             style="fill:none;stroke:#373535;stroke-width:0.75;stroke-linecap:square;stroke-linejoin:miter;stroke-miterlimit:10;stroke-dasharray:none;stroke-opacity:1"
             id="path3640"
             inkscape:connector-curvature="0" /></g><g
           id="g3642"
           transform="translate(124.6514,335.6016)"><path
             d="M 0,0 C -4.778,-1.738 -7.965,-6.279 -7.965,-11.377"
             style="fill:none;stroke:#373535;stroke-width:0.75;stroke-linecap:square;stroke-linejoin:miter;stroke-miterlimit:10;stroke-dasharray:none;stroke-opacity:1"
             id="path3644"
             inkscape:connector-curvature="0" /></g><g
           id="g3646"
           transform="translate(124.1182,334.8135)"><path
             d="M 0,0 C -4.101,-1.992 -6.701,-6.151 -6.701,-10.728"
             style="fill:none;stroke:#373535;stroke-width:0.75;stroke-linecap:square;stroke-linejoin:miter;stroke-miterlimit:10;stroke-dasharray:none;stroke-opacity:1"
             id="path3648"
             inkscape:connector-curvature="0" /></g><g
           id="g3650"
           transform="translate(156.1172,324.2246)"><path
             d="M 0,0 C 0,4.744 -2.96,8.967 -7.421,10.589"
             style="fill:none;stroke:#373535;stroke-width:0.75;stroke-linecap:square;stroke-linejoin:miter;stroke-miterlimit:10;stroke-dasharray:none;stroke-opacity:1"
             id="path3652"
             inkscape:connector-curvature="0" /></g><g
           id="g3654"
           transform="translate(116.4668,315.501)"><path
             d="m 0,0 c -0.058,-3.012 1.101,-5.896 3.197,-8.028 2.103,-2.132 4.959,-3.326 7.965,-3.326"
             style="fill:none;stroke:#373535;stroke-width:0.75;stroke-linecap:square;stroke-linejoin:miter;stroke-miterlimit:10;stroke-dasharray:none;stroke-opacity:1"
             id="path3656"
             inkscape:connector-curvature="0" /></g><g
           id="g3658"
           transform="translate(145.5459,304.1475)"><path
             d="m 0,0 c 2.988,0 5.845,1.193 7.947,3.325 2.103,2.132 3.256,5.017 3.198,8.029"
             style="fill:none;stroke:#373535;stroke-width:0.75;stroke-linecap:square;stroke-linejoin:miter;stroke-miterlimit:10;stroke-dasharray:none;stroke-opacity:1"
             id="path3660"
             inkscape:connector-curvature="0" /></g><g
           id="g3662"
           transform="translate(117.3125,316.0342)"><path
             d="M 0,0 C -0.104,-5.347 3.608,-9.998 8.834,-11.11"
             style="fill:none;stroke:#373535;stroke-width:0.75;stroke-linecap:square;stroke-linejoin:miter;stroke-miterlimit:10;stroke-dasharray:none;stroke-opacity:1"
             id="path3664"
             inkscape:connector-curvature="0" /></g><g
           id="g3666"
           transform="translate(145.7832,304.9121)"><path
             d="m 0,0 c 2.78,0 5.445,1.124 7.403,3.104 1.951,1.988 3.03,4.681 2.989,7.461"
             style="fill:none;stroke:#373535;stroke-width:0.75;stroke-linecap:square;stroke-linejoin:miter;stroke-miterlimit:10;stroke-dasharray:none;stroke-opacity:1"
             id="path3668"
             inkscape:connector-curvature="0" /></g><g
           id="g3670"
           transform="translate(130.1143,325.9512)"><path
             d="M 0,0 C -0.486,0.022 -0.962,-0.151 -1.304,-0.487 -1.651,-0.812 -1.848,-1.286 -1.848,-1.761"
             style="fill:none;stroke:#373535;stroke-width:0.75;stroke-linecap:square;stroke-linejoin:miter;stroke-miterlimit:10;stroke-dasharray:none;stroke-opacity:1"
             id="path3672"
             inkscape:connector-curvature="0" /></g><g
           id="g3674"
           transform="translate(144.3174,324.2129)"><path
             d="M 0,0 C 0,0.834 -0.585,1.559 -1.396,1.738"
             style="fill:none;stroke:#373535;stroke-width:0.75;stroke-linecap:square;stroke-linejoin:miter;stroke-miterlimit:10;stroke-dasharray:none;stroke-opacity:1"
             id="path3676"
             inkscape:connector-curvature="0" /></g><g
           id="g3678"
           transform="translate(128.2666,315.5586)"><path
             d="m 0,0 c 0,-0.486 0.196,-0.949 0.544,-1.286 0.342,-0.33 0.817,-0.509 1.304,-0.475"
             style="fill:none;stroke:#373535;stroke-width:0.75;stroke-linecap:square;stroke-linejoin:miter;stroke-miterlimit:10;stroke-dasharray:none;stroke-opacity:1"
             id="path3680"
             inkscape:connector-curvature="0" /></g><g
           id="g3682"
           transform="translate(142.9219,313.8564)"><path
             d="M 0,0 C 0.811,0.173 1.396,0.897 1.396,1.726"
             style="fill:none;stroke:#373535;stroke-width:0.75;stroke-linecap:square;stroke-linejoin:miter;stroke-miterlimit:10;stroke-dasharray:none;stroke-opacity:1"
             id="path3684"
             inkscape:connector-curvature="0" /></g><g
           id="g3686"
           transform="translate(128.3535,341.29)"><path
             d="m 0,0 15.651,0 0,-6.5 4.78,0"
             style="fill:none;stroke:#373535;stroke-width:0.75;stroke-linecap:square;stroke-linejoin:miter;stroke-miterlimit:10;stroke-dasharray:none;stroke-opacity:1"
             id="path3688"
             inkscape:connector-curvature="0" /></g><g
           id="g3690"
           transform="translate(156.6904,315.4492)"><path
             d="m 0,0 3.244,0 0,3.243 -3.244,0 0,5.532"
             style="fill:none;stroke:#373535;stroke-width:0.75;stroke-linecap:square;stroke-linejoin:miter;stroke-miterlimit:10;stroke-dasharray:none;stroke-opacity:1"
             id="path3692"
             inkscape:connector-curvature="0" /></g><g
           id="g3694"
           transform="translate(156.1289,324.2246)"><path
             d="m 0,0 0,-6.273 3.053,0 0,-1.86 -3.007,0 0,-0.642"
             style="fill:none;stroke:#373535;stroke-width:0.75;stroke-linecap:square;stroke-linejoin:miter;stroke-miterlimit:10;stroke-dasharray:none;stroke-opacity:1"
             id="path3696"
             inkscape:connector-curvature="0" /></g><g
           id="g3698"
           transform="translate(148.8125,335.5664)"><path
             d="m 0,0 -4.078,0 0,6.465 -17.03,0"
             style="fill:none;stroke:#373535;stroke-width:0.75;stroke-linecap:square;stroke-linejoin:miter;stroke-miterlimit:10;stroke-dasharray:none;stroke-opacity:1"
             id="path3700"
             inkscape:connector-curvature="0" /></g><g
           id="g3702"
           transform="translate(124.5537,335.5664)"><path
             d="m 0,0 3.139,0 0,6.465"
             style="fill:none;stroke:#373535;stroke-width:0.75;stroke-linecap:square;stroke-linejoin:miter;stroke-miterlimit:10;stroke-dasharray:none;stroke-opacity:1"
             id="path3704"
             inkscape:connector-curvature="0" /></g><g
           id="g3706"
           transform="translate(124.1943,334.8486)"><path
             d="m 0,0 4.159,0 0,6.465"
             style="fill:none;stroke:#373535;stroke-width:0.75;stroke-linecap:square;stroke-linejoin:miter;stroke-miterlimit:10;stroke-dasharray:none;stroke-opacity:1"
             id="path3708"
             inkscape:connector-curvature="0" /></g><path
           d="m 142.557,318.977 -3.29,0 0,1.274 3.29,0 0,-1.274 z"
           style="fill:#bec0c2;fill-opacity:1;fill-rule:nonzero;stroke:#373535;stroke-width:0.75;stroke-linecap:square;stroke-linejoin:miter;stroke-miterlimit:10;stroke-dasharray:none;stroke-opacity:1"
           id="path3710"
           inkscape:connector-curvature="0" /><path
           d="m 133.422,318.977 -3.29,0 0,1.274 3.29,0 0,-1.274 z"
           style="fill:#bec0c2;fill-opacity:1;fill-rule:nonzero;stroke:#373535;stroke-width:0.75;stroke-linecap:square;stroke-linejoin:miter;stroke-miterlimit:10;stroke-dasharray:none;stroke-opacity:1"
           id="path3712"
           inkscape:connector-curvature="0" /><g
           id="g3714"
           transform="translate(117.3125,323.3555)"><path
             d="m 0,0 0,-5.404 -3.244,0 0,-1.97 3.244,0"
             style="fill:none;stroke:#373535;stroke-width:0.75;stroke-linecap:square;stroke-linejoin:miter;stroke-miterlimit:10;stroke-dasharray:none;stroke-opacity:1"
             id="path3716"
             inkscape:connector-curvature="0" /></g><g
           id="g3718"
           transform="translate(116.4668,315.4492)"><path
             d="m 0,0 -3.244,0 0,3.243 3.464,0 0,5.532"
             style="fill:none;stroke:#373535;stroke-width:0.75;stroke-linecap:square;stroke-linejoin:miter;stroke-miterlimit:10;stroke-dasharray:none;stroke-opacity:1"
             id="path3720"
             inkscape:connector-curvature="0" /></g></g></g><text
       transform="matrix(0.8,0,0,-1,130.1143,306.874)"
       style="font-variant:normal;font-weight:bold;font-stretch:normal;font-size:7px;font-family:Helvetica;-inkscape-font-specification:Helvetica-Bold;writing-mode:lr-tb;fill:#292929;fill-opacity:1;fill-rule:nonzero;stroke:none"
       id="text3722"><tspan
         x="0"
         y="0"
         id="tspan3724">1</tspan><tspan
         x="11.438"
         y="0.161"
         id="tspan3726">2</tspan></text>
<g
       id="g3728"
       transform="translate(354.0244,330.2646)"><path
         d="M 0,0 37.703,0"
         style="fill:none;stroke:#373535;stroke-width:0.5;stroke-linecap:round;stroke-linejoin:round;stroke-miterlimit:4;stroke-dasharray:none;stroke-opacity:1"
         id="path3730"
         inkscape:connector-curvature="0" /></g><text
       transform="matrix(1,0,0,-1,391.7271,327.8701)"
       style="font-variant:normal;font-weight:bold;font-stretch:normal;font-size:10px;font-family:Helvetica;-inkscape-font-specification:Helvetica-Bold;writing-mode:lr-tb;fill:#373535;fill-opacity:1;fill-rule:nonzero;stroke:none"
       id="text3732"><tspan
         x="0"
         y="0"
         id="tspan3734">1</tspan></text>
<g
       id="g3736"
       transform="translate(129.4419,341.2822)"><path
         d="M 0,0 -45.748,21.677"
         style="fill:none;stroke:#ffffff;stroke-width:3;stroke-linecap:round;stroke-linejoin:round;stroke-miterlimit:4;stroke-dasharray:none;stroke-opacity:1"
         id="path3738"
         inkscape:connector-curvature="0" /></g><g
       id="g3740"
       transform="translate(129.4419,341.2822)"><path
         d="M 0,0 -45.748,21.677"
         style="fill:none;stroke:#373535;stroke-width:0.5;stroke-linecap:round;stroke-linejoin:round;stroke-miterlimit:4;stroke-dasharray:none;stroke-opacity:1"
         id="path3742"
         inkscape:connector-curvature="0" /></g><text
       transform="matrix(1,0,0,-1,74.2231,364.3887)"
       style="font-variant:normal;font-weight:bold;font-stretch:normal;font-size:10px;font-family:Helvetica;-inkscape-font-specification:Helvetica-Bold;writing-mode:lr-tb;fill:#373535;fill-opacity:1;fill-rule:nonzero;stroke:none"
       id="text3744"><tspan
         x="0"
         y="0"
         id="tspan3746">3</tspan></text>
</g></svg>