<?xml version="1.0" encoding="UTF-8" standalone="no"?>
<!-- Created with Inkscape (http://www.inkscape.org/) -->

<svg
   xmlns:dc="http://purl.org/dc/elements/1.1/"
   xmlns:cc="http://creativecommons.org/ns#"
   xmlns:rdf="http://www.w3.org/1999/02/22-rdf-syntax-ns#"
   xmlns:svg="http://www.w3.org/2000/svg"
   xmlns="http://www.w3.org/2000/svg"
   xmlns:sodipodi="http://sodipodi.sourceforge.net/DTD/sodipodi-0.dtd"
   xmlns:inkscape="http://www.inkscape.org/namespaces/inkscape"
   id="svg2"
   version="1.1"
   inkscape:version="0.91 r13725"
   xml:space="preserve"
   width="301.18124"
   height="230.315"
   viewBox="0 0 301.18124 230.315"
   sodipodi:docname="cfln.svg"><metadata
     id="metadata8"><rdf:RDF><cc:Work
         rdf:about=""><dc:format>image/svg+xml</dc:format><dc:type
           rdf:resource="http://purl.org/dc/dcmitype/StillImage" /><dc:title></dc:title></cc:Work></rdf:RDF></metadata><defs
     id="defs6"><clipPath
       clipPathUnits="userSpaceOnUse"
       id="clipPath16"><path
         d="m 15.897,12.134 223.995,0 0,158.112 -223.995,0 0,-158.112 z"
         id="path18"
         inkscape:connector-curvature="0" /></clipPath><clipPath
       clipPathUnits="userSpaceOnUse"
       id="clipPath416"><path
         d="m 0,184.252 240.945,0 L 240.945,0 0,0 0,184.252 Z"
         id="path418"
         inkscape:connector-curvature="0" /></clipPath></defs><sodipodi:namedview
     pagecolor="#ffffff"
     bordercolor="#666666"
     borderopacity="1"
     objecttolerance="10"
     gridtolerance="10"
     guidetolerance="10"
     inkscape:pageopacity="0"
     inkscape:pageshadow="2"
     inkscape:window-width="684"
     inkscape:window-height="480"
     id="namedview4"
     showgrid="false"
     inkscape:zoom="0.95623484"
     inkscape:cx="150.59062"
     inkscape:cy="115.1575"
     inkscape:window-x="0"
     inkscape:window-y="0"
     inkscape:window-maximized="0"
     inkscape:current-layer="g10" /><g
     id="g10"
     inkscape:groupmode="layer"
     inkscape:label="cfln"
     transform="matrix(1.25,0,0,-1.25,0,230.315)"><g
       id="g12"><g
         id="g14"
         clip-path="url(#clipPath16)"><g
           id="g20"
           transform="translate(162.625,174.2334)"><path
             d="m 0,0 c 41.259,-14.176 70.818,-52.428 70.818,-97.393 0,-26.363 -10.164,-50.422 -26.889,-68.669"
             style="fill:none;stroke:#231f20;stroke-width:0.34999999;stroke-linecap:round;stroke-linejoin:round;stroke-miterlimit:4;stroke-dasharray:none;stroke-opacity:1"
             id="path22"
             inkscape:connector-curvature="0" /></g><g
           id="g24"
           transform="translate(48.0259,8.0107)"><path
             d="m 0,0 c -16.812,18.266 -27.035,42.389 -27.035,68.83 0,45.284 29.984,83.762 71.704,97.692"
             style="fill:none;stroke:#231f20;stroke-width:0.34999999;stroke-linecap:round;stroke-linejoin:round;stroke-miterlimit:4;stroke-dasharray:none;stroke-opacity:1"
             id="path26"
             inkscape:connector-curvature="0" /></g><g
           id="g28"
           transform="translate(68.4902,105.7319)"><path
             d="m 0,0 c 0,0 -20.586,12.084 -25.173,14.434 -4.586,2.349 -6.6,0.447 -7.468,-1.415 -5.276,-11.33 -8.756,-23.668 -9.492,-36.734 0,0 -0.456,-3.951 5.006,-3.951 5.461,0 33.351,-0.697 33.351,-0.697"
             style="fill:none;stroke:#231f20;stroke-width:0.25;stroke-linecap:round;stroke-linejoin:round;stroke-miterlimit:4;stroke-dasharray:none;stroke-opacity:1"
             id="path30"
             inkscape:connector-curvature="0" /></g><g
           id="g32"
           transform="translate(199.5488,8.3027)"><path
             d="m 0,0 c 3.605,3.598 6.932,7.461 9.94,11.559 0,0 2.922,1.611 -1.416,4.558 -4.337,2.944 -19.212,11.466 -19.212,11.466"
             style="fill:none;stroke:#231f20;stroke-width:0.25;stroke-linecap:round;stroke-linejoin:round;stroke-miterlimit:4;stroke-dasharray:none;stroke-opacity:1"
             id="path34"
             inkscape:connector-curvature="0" /></g><g
           id="g36"
           transform="translate(64.2876,37.123)"><path
             d="m 0,0 c 0,0 -16.888,-8.678 -19.987,-10.38 -3.098,-1.703 -1.306,-4.119 -1.306,-4.119 3.579,-5.245 7.664,-10.138 12.186,-14.609"
             style="fill:none;stroke:#231f20;stroke-width:0.25;stroke-linecap:round;stroke-linejoin:round;stroke-miterlimit:4;stroke-dasharray:none;stroke-opacity:1"
             id="path38"
             inkscape:connector-curvature="0" /></g><g
           id="g40"
           transform="translate(188.5498,41.3066)"><path
             d="m 0,0 c 0,0 18.595,-10.38 22.312,-12.394 3.719,-2.013 4.764,0.405 4.764,0.405 6.465,11.342 10.687,24.053 12.085,37.58 0,0 -0.577,3.072 -4.298,3.382 -3.718,0.309 -34.087,0.466 -34.087,0.466"
             style="fill:none;stroke:#231f20;stroke-width:0.25;stroke-linecap:round;stroke-linejoin:round;stroke-miterlimit:4;stroke-dasharray:none;stroke-opacity:1"
             id="path42"
             inkscape:connector-curvature="0" /></g><g
           id="g44"
           transform="translate(187.2881,103.8384)"><path
             d="m 0,0 c 0,0 16.143,9.129 23.097,13.543 6.953,4.414 9.331,-1.04 9.331,-1.04 5.136,-11.348 8.127,-23.821 8.473,-36.931 0,0 -0.438,-4.018 -3.847,-4.018 -3.408,0 -34.086,0.777 -34.086,0.777"
             style="fill:none;stroke:#231f20;stroke-width:0.25;stroke-linecap:round;stroke-linejoin:round;stroke-miterlimit:4;stroke-dasharray:none;stroke-opacity:1"
             id="path46"
             inkscape:connector-curvature="0" /></g><g
           id="g48"
           transform="translate(65.2949,72.8389)"><path
             d="m 0,0 c 0,0 -28.702,0.577 -33.699,0.347 -4.997,-0.233 -5.119,-3.49 -5.119,-3.49 1.005,-13.578 4.847,-26.385 10.954,-37.874 0,0 0.982,-2.293 4.701,-0.743 3.718,1.551 22.466,11.314 22.466,11.314"
             style="fill:none;stroke:#231f20;stroke-width:0.25;stroke-linecap:round;stroke-linejoin:round;stroke-miterlimit:4;stroke-dasharray:none;stroke-opacity:1"
             id="path50"
             inkscape:connector-curvature="0" /></g><g
           id="g52"
           transform="translate(166.3848,164.8057)"><path
             d="m 0,0 c -0.111,1.12 1.008,2.126 2.53,1.496 9.45,-3.919 17.956,-9.606 25.529,-16.174 0,0 1.128,-1.729 -0.687,-2.032"
             style="fill:none;stroke:#231f20;stroke-width:0.25;stroke-linecap:round;stroke-linejoin:round;stroke-miterlimit:4;stroke-dasharray:none;stroke-opacity:1"
             id="path54"
             inkscape:connector-curvature="0" /></g><g
           id="g56"
           transform="translate(92.0981,165.9253)"><path
             d="m 0,0 c 0,1.23 -2.015,2.237 -3.609,1.63 -9.495,-3.616 -18.235,-8.822 -25.85,-15.211 -0.75,-0.629 0.593,-2.308 2.383,-2.308"
             style="fill:none;stroke:#231f20;stroke-width:0.25;stroke-linecap:round;stroke-linejoin:round;stroke-miterlimit:4;stroke-dasharray:none;stroke-opacity:1"
             id="path58"
             inkscape:connector-curvature="0" /></g><g
           id="g60"
           transform="translate(76.8486,74.6289)"><path
             d="m 0,0 c 0,27.067 22.789,49.007 50.903,49.007 28.112,0 50.903,-21.94 50.903,-49.007"
             style="fill:none;stroke:#231f20;stroke-width:0.25;stroke-linecap:round;stroke-linejoin:round;stroke-miterlimit:4;stroke-dasharray:none;stroke-opacity:1"
             id="path62"
             inkscape:connector-curvature="0" /></g><g
           id="g64"
           transform="translate(178.6543,81.9639)"><path
             d="m 0,0 0,-7.335 c 0,-27.064 -22.791,-49.003 -50.902,-49.003 -28.115,0 -50.904,21.939 -50.904,49.003 l 0,7.335"
             style="fill:none;stroke:#231f20;stroke-width:0.34999999;stroke-linecap:round;stroke-linejoin:round;stroke-miterlimit:4;stroke-dasharray:none;stroke-opacity:1"
             id="path66"
             inkscape:connector-curvature="0" /></g><g
           id="g68"
           transform="translate(76.8486,80.1006)"><path
             d="M 0,0 C 0,27.066 22.789,49.005 50.903,49.005 79.015,49.005 101.806,27.066 101.806,0"
             style="fill:none;stroke:#231f20;stroke-width:0.25;stroke-linecap:round;stroke-linejoin:round;stroke-miterlimit:4;stroke-dasharray:none;stroke-opacity:1"
             id="path70"
             inkscape:connector-curvature="0" /></g><g
           id="g72"
           transform="translate(153.6738,81.0127)"><path
             d="M 0,0 C 0,-13.817 -11.694,-25.018 -26.115,-25.018 -40.539,-25.018 -52.23,-13.817 -52.23,0"
             style="fill:none;stroke:#231f20;stroke-width:0.25;stroke-linecap:round;stroke-linejoin:round;stroke-miterlimit:4;stroke-dasharray:none;stroke-opacity:1"
             id="path74"
             inkscape:connector-curvature="0" /></g><g
           id="g76"
           transform="translate(101.4434,81.0127)"><path
             d="M 0,0 C 0,13.82 11.691,25.02 26.115,25.02 40.536,25.02 52.23,13.82 52.23,0"
             style="fill:none;stroke:#231f20;stroke-width:0.5;stroke-linecap:round;stroke-linejoin:round;stroke-miterlimit:4;stroke-dasharray:none;stroke-opacity:1"
             id="path78"
             inkscape:connector-curvature="0" /></g><g
           id="g80"
           transform="translate(107.0596,81.0127)"><path
             d="M 0,0 C 0,10.876 9.287,19.69 20.745,19.69 32.202,19.69 41.489,10.876 41.489,0"
             style="fill:none;stroke:#231f20;stroke-width:0.5;stroke-linecap:round;stroke-linejoin:round;stroke-miterlimit:4;stroke-dasharray:none;stroke-opacity:1"
             id="path82"
             inkscape:connector-curvature="0" /></g><g
           id="g84"
           transform="translate(148.5488,84.3828)"><path
             d="m 0,0 0,-3.37 c 0,-10.871 -9.287,-19.69 -20.744,-19.69 -11.458,0 -20.745,8.819 -20.745,19.69 l 0,3.617"
             style="fill:none;stroke:#231f20;stroke-width:1.5;stroke-linecap:round;stroke-linejoin:round;stroke-miterlimit:4;stroke-dasharray:none;stroke-opacity:1"
             id="path86"
             inkscape:connector-curvature="0" /></g><g
           id="g88"
           transform="translate(107.0596,84.6963)"><path
             d="M 0,0 C 0,9.005 6.37,16.599 15.065,18.942"
             style="fill:none;stroke:#231f20;stroke-width:0.5;stroke-linecap:round;stroke-linejoin:round;stroke-miterlimit:4;stroke-dasharray:none;stroke-opacity:1"
             id="path90"
             inkscape:connector-curvature="0" /></g><g
           id="g92"
           transform="translate(148.5488,83.8359)"><path
             d="m 0,0 c 0,7.467 -4.377,13.961 -10.829,17.3 l 0,2.399"
             style="fill:none;stroke:#231f20;stroke-width:0.5;stroke-linecap:round;stroke-linejoin:round;stroke-miterlimit:4;stroke-dasharray:none;stroke-opacity:1"
             id="path94"
             inkscape:connector-curvature="0" /></g><g
           id="g96"
           transform="translate(136.7373,100.3838)"><path
             d="M 0,0 C 0,0 0.835,2.046 -0.271,3.888"
             style="fill:none;stroke:#231f20;stroke-width:1.5;stroke-linecap:round;stroke-linejoin:round;stroke-miterlimit:4;stroke-dasharray:none;stroke-opacity:1"
             id="path98"
             inkscape:connector-curvature="0" /></g><g
           id="g100"
           transform="translate(122.125,101.5518)"><path
             d="m 0,0 c 1.805,0.486 3.711,0.747 5.68,0.747 3.199,0 6.226,-0.686 8.932,-1.915"
             style="fill:none;stroke:#231f20;stroke-width:1.5;stroke-linecap:round;stroke-linejoin:round;stroke-miterlimit:4;stroke-dasharray:none;stroke-opacity:1"
             id="path102"
             inkscape:connector-curvature="0" /></g><g
           id="g104"
           transform="translate(69.5503,131.4844)"><path
             d="m 0,0 c 0.2,4.688 4.268,8.432 9.255,8.432 5.117,0 9.265,-3.937 9.265,-8.792"
             style="fill:none;stroke:#231f20;stroke-width:0.34999999;stroke-linecap:round;stroke-linejoin:round;stroke-miterlimit:4;stroke-dasharray:none;stroke-opacity:1"
             id="path106"
             inkscape:connector-curvature="0" /></g><g
           id="g108"
           transform="translate(88.0698,131.1245)"><path
             d="m 0,0 c 0,-4.856 -4.148,-8.793 -9.264,-8.793 -5.116,0 -9.263,3.937 -9.263,8.793 0,0.12 0.003,0.241 0.007,0.36"
             style="fill:none;stroke:#231f20;stroke-width:0.25;stroke-linecap:round;stroke-linejoin:round;stroke-miterlimit:4;stroke-dasharray:none;stroke-opacity:1"
             id="path110"
             inkscape:connector-curvature="0" /></g><g
           id="g112"
           transform="translate(74.7617,135.5601)"><path
             d="m 0,0 c 0.793,1.347 2.311,2.257 4.052,2.257 2.563,0 4.64,-1.972 4.64,-4.404 0,-0.344 -0.041,-0.678 -0.119,-1"
             style="fill:none;stroke:#231f20;stroke-width:0.25;stroke-linecap:round;stroke-linejoin:round;stroke-miterlimit:4;stroke-dasharray:none;stroke-opacity:1"
             id="path114"
             inkscape:connector-curvature="0" /></g><g
           id="g116"
           transform="translate(74.6699,135.3569)"><path
             d="m 0,0 -2.033,-4.822 c -0.207,-0.5 -0.322,-1.045 -0.322,-1.615 0,-2.432 2.077,-4.405 4.64,-4.405 1.817,0 3.39,0.992 4.152,2.435 l 1.93,4.688"
             style="fill:none;stroke:#231f20;stroke-width:0.34999999;stroke-linecap:round;stroke-linejoin:round;stroke-miterlimit:4;stroke-dasharray:none;stroke-opacity:1"
             id="path118"
             inkscape:connector-curvature="0" /></g><g
           id="g120"
           transform="translate(192.8477,128.7456)"><path
             d="m 0,0 c 0,7.04 -6.014,12.746 -13.431,12.746 -3.489,0 -6.668,-1.263 -9.055,-3.332 -2.67,-2.315 -6.129,-2.917 -8.249,-1.308 -9.651,7.333 -21.516,12.191 -34.694,12.191 -12.281,0 -23.729,-3.819 -32.731,-10.676 -1.518,-1.157 -3.477,-0.746 -6.385,1.771 -2.534,2.192 -5.789,3.733 -9.497,3.733 -7.417,0 -13.429,-5.707 -13.429,-12.746"
             style="fill:none;stroke:#231f20;stroke-width:0.25;stroke-linecap:round;stroke-linejoin:round;stroke-miterlimit:4;stroke-dasharray:none;stroke-opacity:1"
             id="path122"
             inkscape:connector-curvature="0" /></g><g
           id="g124"
           transform="translate(74.1914,115.2563)"><path
             d="m 0,0 c 0.119,1.709 -0.648,3.474 -2.639,5.138 -3.34,2.791 -6.175,6.226 -6.175,10.73 l 0,3.404"
             style="fill:none;stroke:#231f20;stroke-width:0.34999999;stroke-linecap:round;stroke-linejoin:round;stroke-miterlimit:4;stroke-dasharray:none;stroke-opacity:1"
             id="path126"
             inkscape:connector-curvature="0" /></g><g
           id="g128"
           transform="translate(64.8594,82.4365)"><path
             d="m 0,0 c 0.109,11.027 3.288,21.303 8.501,30.263 0.478,0.824 0.771,1.683 0.831,2.557"
             style="fill:none;stroke:#231f20;stroke-width:0.25;stroke-linecap:round;stroke-linejoin:round;stroke-miterlimit:4;stroke-dasharray:none;stroke-opacity:1"
             id="path130"
             inkscape:connector-curvature="0" /></g><g
           id="g132"
           transform="translate(73.2451,49)"><path
             d="m 0,0 c 0.184,0.958 0.085,2.002 -0.448,2.978 -4.874,8.944 -7.94,19.029 -7.94,29.881 0,0.191 10e-4,0.387 0.002,0.578 l 0,3.568"
             style="fill:none;stroke:#231f20;stroke-width:0.34999999;stroke-linecap:round;stroke-linejoin:round;stroke-miterlimit:4;stroke-dasharray:none;stroke-opacity:1"
             id="path134"
             inkscape:connector-curvature="0" /></g><g
           id="g136"
           transform="translate(64.4253,34.7959)"><path
             d="m 0,0 c 0,4.739 2.858,8.649 6.776,11.07 0.957,0.594 1.784,1.782 2.044,3.134"
             style="fill:none;stroke:#231f20;stroke-width:0.25;stroke-linecap:round;stroke-linejoin:round;stroke-miterlimit:4;stroke-dasharray:none;stroke-opacity:1"
             id="path138"
             inkscape:connector-curvature="0" /></g><g
           id="g140"
           transform="translate(85.978,6.7988)"><path
             d="m 0,0 0,11.182 c 0,4.281 -3.806,4.066 -8.124,4.066 -7.418,0 -13.429,5.709 -13.429,12.749 0,1.974 0.622,7.686 0.622,7.686"
             style="fill:none;stroke:#231f20;stroke-width:0.34999999;stroke-linecap:round;stroke-linejoin:round;stroke-miterlimit:4;stroke-dasharray:none;stroke-opacity:1"
             id="path142"
             inkscape:connector-curvature="0" /></g><g
           id="g144"
           transform="translate(182.6514,111.1934)"><path
             d="m 0,0 c -0.268,1.966 0.683,4.676 3.157,6.338 3.914,2.63 7.039,6.371 7.039,11.214 0,3.168 -2.214,8.876 -2.214,8.876"
             style="fill:none;stroke:#231f20;stroke-width:0.34999999;stroke-linecap:round;stroke-linejoin:round;stroke-miterlimit:4;stroke-dasharray:none;stroke-opacity:1"
             id="path146"
             inkscape:connector-curvature="0" /></g><g
           id="g148"
           transform="translate(189.9971,81.8594)"><path
             d="m 0,0 c 0,10.149 -2.639,19.667 -6.993,28.155 -0.175,0.344 -0.295,0.743 -0.353,1.179"
             style="fill:none;stroke:#231f20;stroke-width:0.25;stroke-linecap:round;stroke-linejoin:round;stroke-miterlimit:4;stroke-dasharray:none;stroke-opacity:1"
             id="path150"
             inkscape:connector-curvature="0" /></g><g
           id="g152"
           transform="translate(180.2363,47.248)"><path
             d="m 0,0 c -0.15,0.942 0.044,1.891 0.679,2.821 6.163,9.005 9.082,20.149 9.082,31.79 l 0,3.91"
             style="fill:none;stroke:#231f20;stroke-width:0.34999999;stroke-linecap:round;stroke-linejoin:round;stroke-miterlimit:4;stroke-dasharray:none;stroke-opacity:1"
             id="path154"
             inkscape:connector-curvature="0" /></g><g
           id="g156"
           transform="translate(189.0322,32.9648)"><path
             d="m 0,0 c -0.132,3.525 -1.549,6.948 -4.337,8.838 -2.392,1.624 -4.149,3.517 -4.459,5.445"
             style="fill:none;stroke:#231f20;stroke-width:0.25;stroke-linecap:round;stroke-linejoin:round;stroke-miterlimit:4;stroke-dasharray:none;stroke-opacity:1"
             id="path158"
             inkscape:connector-curvature="0" /></g><g
           id="g160"
           transform="translate(165.8975,6.0869)"><path
             d="m 0,0 0,10.227 c 0,1.906 2.379,3.355 4.281,3.355 l 5.434,0 c 7.417,0 13.431,5.705 13.431,12.746 0,0.184 -0.004,0.368 -0.011,0.55 l -1.016,8.09"
             style="fill:none;stroke:#231f20;stroke-width:0.34999999;stroke-linecap:round;stroke-linejoin:round;stroke-miterlimit:4;stroke-dasharray:none;stroke-opacity:1"
             id="path162"
             inkscape:connector-curvature="0" /></g><g
           id="g164"
           transform="translate(71.6758,51.8115)"><path
             d="M 0,0 C -3.484,-2.151 -6.131,-5.483 -6.673,-9.535"
             style="fill:none;stroke:#231f20;stroke-width:0.25;stroke-linecap:round;stroke-linejoin:round;stroke-miterlimit:4;stroke-dasharray:none;stroke-opacity:1"
             id="path166"
             inkscape:connector-curvature="0" /></g><g
           id="g168"
           transform="translate(73.9141,116.7559)"><path
             d="m 0,0 c -0.139,-0.407 -0.325,-0.809 -0.554,-1.202 -5.213,-8.96 -8.392,-19.235 -8.501,-30.262"
             style="fill:none;stroke:#231f20;stroke-width:0.34999999;stroke-linecap:round;stroke-linejoin:round;stroke-miterlimit:4;stroke-dasharray:none;stroke-opacity:1"
             id="path170"
             inkscape:connector-curvature="0" /></g><g
           id="g172"
           transform="translate(90.3076,140.416)"><path
             d="m 0,0 c -0.625,0.376 -1.612,1.711 -2.35,2.35 -2.533,2.192 -5.444,3.959 -9.152,3.959 -7.417,0 -13.429,-5.708 -13.429,-12.746"
             style="fill:none;stroke:#231f20;stroke-width:0.25;stroke-linecap:round;stroke-linejoin:round;stroke-miterlimit:4;stroke-dasharray:none;stroke-opacity:1"
             id="path174"
             inkscape:connector-curvature="0" /></g><g
           id="g176"
           transform="translate(166.0293,137.9365)"><path
             d="m 0,0 c -1.464,-0.239 -2.857,0.013 -3.917,0.818 -9.65,7.332 -21.516,12.191 -34.693,12.191 -12.282,0 -23.73,-3.819 -32.731,-10.676 -0.61,-0.465 -1.291,-0.677 -2.076,-0.601"
             style="fill:none;stroke:#231f20;stroke-width:0.25;stroke-linecap:round;stroke-linejoin:round;stroke-miterlimit:4;stroke-dasharray:none;stroke-opacity:1"
             id="path178"
             inkscape:connector-curvature="0" /></g><g
           id="g180"
           transform="translate(166.6094,138.9614)"><path
             d="m 0,0 c 1.465,0.238 2.418,1.58 3.752,2.737 2.388,2.07 5.566,3.333 9.056,3.333 2.171,0 4.386,-0.201 6.033,-1.354 1.854,-1.299 2.805,-3.44 3.995,-5.105"
             style="fill:none;stroke:#231f20;stroke-width:0.25;stroke-linecap:round;stroke-linejoin:round;stroke-miterlimit:4;stroke-dasharray:none;stroke-opacity:1"
             id="path182"
             inkscape:connector-curvature="0" /></g><g
           id="g184"
           transform="translate(189.9971,85.3965)"><path
             d="M 0,0 C 0,10.153 -2.639,19.668 -6.993,28.158"
             style="fill:none;stroke:#231f20;stroke-width:0.34999999;stroke-linecap:round;stroke-linejoin:round;stroke-miterlimit:4;stroke-dasharray:none;stroke-opacity:1"
             id="path186"
             inkscape:connector-curvature="0" /></g><g
           id="g188"
           transform="translate(187.9541,41.0332)"><path
             d="m 0,0 c -0.419,2.995 -1.804,5.767 -4.211,7.4 -0.89,0.607 -1.693,1.248 -2.366,1.918"
             style="fill:none;stroke:#231f20;stroke-width:0.25;stroke-linecap:round;stroke-linejoin:round;stroke-miterlimit:4;stroke-dasharray:none;stroke-opacity:1"
             id="path190"
             inkscape:connector-curvature="0" /></g><g
           id="g192"
           transform="translate(188.6807,128.7456)"><path
             d="m 0,0 c 0,-4.856 -4.146,-8.792 -9.264,-8.792 -4.988,0 -9.056,3.746 -9.255,8.435"
             style="fill:none;stroke:#231f20;stroke-width:0.25;stroke-linecap:round;stroke-linejoin:round;stroke-miterlimit:4;stroke-dasharray:none;stroke-opacity:1"
             id="path194"
             inkscape:connector-curvature="0" /></g><g
           id="g196"
           transform="translate(170.1621,128.3882)"><path
             d="m 0,0 c -0.004,0.119 -0.008,0.238 -0.008,0.357 0,4.856 4.149,8.793 9.263,8.793 5.117,0 9.264,-3.937 9.264,-8.793"
             style="fill:none;stroke:#231f20;stroke-width:0.34999999;stroke-linecap:round;stroke-linejoin:round;stroke-miterlimit:4;stroke-dasharray:none;stroke-opacity:1"
             id="path198"
             inkscape:connector-curvature="0" /></g><g
           id="g200"
           transform="translate(186.9775,133.853)"><path
             d="m 0,0 c 0.111,-0.52 0.169,-1.058 0.169,-1.609 0,-4.41 -3.767,-7.985 -8.412,-7.985 -4.067,0 -7.456,2.737 -8.241,6.376"
             style="fill:none;stroke:#231f20;stroke-width:0.25;stroke-linecap:round;stroke-linejoin:round;stroke-miterlimit:4;stroke-dasharray:none;stroke-opacity:1"
             id="path202"
             inkscape:connector-curvature="0" /></g><g
           id="g204"
           transform="translate(173.833,132.8774)"><path
             d="m 0,0 0.07,-4.103 c 0,-2.579 2.202,-4.668 4.917,-4.668 2.717,0 4.921,2.089 4.921,4.668 l 0,3.718"
             style="fill:none;stroke:#231f20;stroke-width:0.34999999;stroke-linecap:round;stroke-linejoin:round;stroke-miterlimit:4;stroke-dasharray:none;stroke-opacity:1"
             id="path206"
             inkscape:connector-curvature="0" /></g><g
           id="g208"
           transform="translate(173.9033,132.4922)"><path
             d="M 0,0 C 0,2.578 2.202,4.668 4.917,4.668 7.634,4.668 9.838,2.578 9.838,0"
             style="fill:none;stroke:#231f20;stroke-width:0.25;stroke-linecap:round;stroke-linejoin:round;stroke-miterlimit:4;stroke-dasharray:none;stroke-opacity:1"
             id="path210"
             inkscape:connector-curvature="0" /></g><g
           id="g212"
           transform="translate(184.877,32.415)"><path
             d="m 0,0 c 0,-4.855 -4.147,-8.791 -9.265,-8.791 -5.115,0 -9.261,3.936 -9.261,8.791"
             style="fill:none;stroke:#231f20;stroke-width:0.25;stroke-linecap:round;stroke-linejoin:round;stroke-miterlimit:4;stroke-dasharray:none;stroke-opacity:1"
             id="path214"
             inkscape:connector-curvature="0" /></g><g
           id="g216"
           transform="translate(166.3506,32.415)"><path
             d="m 0,0 c 0,4.854 4.146,8.792 9.262,8.792 5.117,0 9.264,-3.938 9.264,-8.792"
             style="fill:none;stroke:#231f20;stroke-width:0.34999999;stroke-linecap:round;stroke-linejoin:round;stroke-miterlimit:4;stroke-dasharray:none;stroke-opacity:1"
             id="path218"
             inkscape:connector-curvature="0" /></g><g
           id="g220"
           transform="translate(68.5923,34.7959)"><path
             d="m 0,0 c 0,4.855 4.147,8.791 9.262,8.791 5.116,0 9.264,-3.936 9.264,-8.791"
             style="fill:none;stroke:#231f20;stroke-width:0.34999999;stroke-linecap:round;stroke-linejoin:round;stroke-miterlimit:4;stroke-dasharray:none;stroke-opacity:1"
             id="path222"
             inkscape:connector-curvature="0" /></g><g
           id="g224"
           transform="translate(87.1182,34.7959)"><path
             d="m 0,0 c 0,-4.858 -4.147,-8.796 -9.264,-8.796 -5.114,0 -9.262,3.938 -9.262,8.796"
             style="fill:none;stroke:#231f20;stroke-width:0.25;stroke-linecap:round;stroke-linejoin:round;stroke-miterlimit:4;stroke-dasharray:none;stroke-opacity:1"
             id="path226"
             inkscape:connector-curvature="0" /></g><g
           id="g228"
           transform="translate(72.6108,33.8418)"><path
             d="M 0,0 C -1.491,1.326 -2.422,3.214 -2.422,5.304"
             style="fill:none;stroke:#231f20;stroke-width:0.25;stroke-linecap:round;stroke-linejoin:round;stroke-miterlimit:4;stroke-dasharray:none;stroke-opacity:1"
             id="path230"
             inkscape:connector-curvature="0" /></g><g
           id="g232"
           transform="translate(85.4922,39.1455)"><path
             d="M 0,0 C 0,-2.443 -1.27,-4.601 -3.216,-5.917"
             style="fill:none;stroke:#231f20;stroke-width:0.25;stroke-linecap:round;stroke-linejoin:round;stroke-miterlimit:4;stroke-dasharray:none;stroke-opacity:1"
             id="path234"
             inkscape:connector-curvature="0" /></g><g
           id="g236"
           transform="translate(73.0449,38.5254)"><path
             d="M 0,0 C 0,2.514 2.147,4.552 4.794,4.552 7.443,4.552 9.591,2.514 9.591,0"
             style="fill:none;stroke:#231f20;stroke-width:0.25;stroke-linecap:round;stroke-linejoin:round;stroke-miterlimit:4;stroke-dasharray:none;stroke-opacity:1"
             id="path238"
             inkscape:connector-curvature="0" /></g><g
           id="g240"
           transform="translate(82.7271,37.7432)"><path
             d="m 0,0 -0.54,-5.881 c 0,-2.599 -2.223,-4.715 -4.967,-4.715 -2.743,0 -4.966,2.116 -4.966,4.715 0,0.359 0.041,0.702 0.119,1.038 l 0.591,6.236"
             style="fill:none;stroke:#231f20;stroke-width:0.34999999;stroke-linecap:round;stroke-linejoin:round;stroke-miterlimit:4;stroke-dasharray:none;stroke-opacity:1"
             id="path242"
             inkscape:connector-curvature="0" /></g><g
           id="g244"
           transform="translate(180.8496,31.6748)"><path
             d="M 0,0 C 1.49,1.326 2.423,3.211 2.423,5.301"
             style="fill:none;stroke:#231f20;stroke-width:0.25;stroke-linecap:round;stroke-linejoin:round;stroke-miterlimit:4;stroke-dasharray:none;stroke-opacity:1"
             id="path246"
             inkscape:connector-curvature="0" /></g><g
           id="g248"
           transform="translate(167.9668,36.9756)"><path
             d="M 0,0 C 0,-2.439 1.27,-4.601 3.216,-5.917"
             style="fill:none;stroke:#231f20;stroke-width:0.25;stroke-linecap:round;stroke-linejoin:round;stroke-miterlimit:4;stroke-dasharray:none;stroke-opacity:1"
             id="path250"
             inkscape:connector-curvature="0" /></g><g
           id="g252"
           transform="translate(180.4141,36.3555)"><path
             d="M 0,0 C 0,2.517 -2.146,4.552 -4.793,4.552 -7.443,4.552 -9.59,2.517 -9.59,0"
             style="fill:none;stroke:#231f20;stroke-width:0.25;stroke-linecap:round;stroke-linejoin:round;stroke-miterlimit:4;stroke-dasharray:none;stroke-opacity:1"
             id="path254"
             inkscape:connector-curvature="0" /></g><g
           id="g256"
           transform="translate(170.7334,35.5723)"><path
             d="m 0,0 0.54,-5.877 c 0,-2.605 2.224,-4.718 4.967,-4.718 2.741,0 4.965,2.113 4.965,4.718 0,0.354 -0.04,0.7 -0.118,1.031 L 9.762,1.397"
             style="fill:none;stroke:#231f20;stroke-width:0.34999999;stroke-linecap:round;stroke-linejoin:round;stroke-miterlimit:4;stroke-dasharray:none;stroke-opacity:1"
             id="path258"
             inkscape:connector-curvature="0" /></g><g
           id="g260"
           transform="translate(84.8472,65.793)"><path
             d="M 0,0 C 0,3.038 2.566,5.499 5.732,5.499 8.899,5.499 11.466,3.038 11.466,0"
             style="fill:none;stroke:#231f20;stroke-width:0.34999999;stroke-linecap:round;stroke-linejoin:round;stroke-miterlimit:4;stroke-dasharray:none;stroke-opacity:1"
             id="path262"
             inkscape:connector-curvature="0" /></g><g
           id="g264"
           transform="translate(96.3135,65.793)"><path
             d="m 0,0 c 0,-3.039 -2.567,-5.503 -5.734,-5.503 -3.166,0 -5.732,2.464 -5.732,5.503"
             style="fill:none;stroke:#231f20;stroke-width:0.25;stroke-linecap:round;stroke-linejoin:round;stroke-miterlimit:4;stroke-dasharray:none;stroke-opacity:1"
             id="path266"
             inkscape:connector-curvature="0" /></g><g
           id="g268"
           transform="translate(79.7788,66.2188)"><path
             d="m 0,0 c 0.232,5.531 4.979,9.947 10.801,9.947 0.199,0 0.396,-0.009 0.595,-0.017 2.94,-0.112 4.384,2.59 4.337,4.431 -0.004,0.145 -0.003,0.288 -0.003,0.433 0,16.93 14.459,30.653 32.296,30.653 17.835,0 32.295,-13.723 32.295,-30.653 0,-0.394 -0.017,-0.783 -0.023,-1.173 -0.039,-2.21 0.702,-5.07 4.629,-5.358 5.459,-0.4 9.844,-4.509 10.163,-9.744"
             style="fill:none;stroke:#231f20;stroke-width:0.25;stroke-linecap:round;stroke-linejoin:round;stroke-miterlimit:4;stroke-dasharray:none;stroke-opacity:1"
             id="path270"
             inkscape:connector-curvature="0" /></g><g
           id="g272"
           transform="translate(80.6104,78.8613)"><path
             d="m 0,0 -0.832,-12.643 c -0.005,-0.143 -0.008,-0.282 -0.008,-0.425 0,-5.731 4.841,-10.374 10.809,-10.374 3.072,0 5.546,1.58 7.812,3.201 1.862,1.334 4.114,3.094 6.363,0.926 5.872,-5.66 14.023,-9.183 23.05,-9.183 8.711,0 16.64,3.25 22.428,8.595 1.979,1.828 3.913,0.628 5.105,-0.94 1.964,-2.584 5.148,-4.263 8.74,-4.263 5.969,0 10.809,4.643 10.809,10.37 0,0.206 -0.005,0.408 -0.017,0.612 l -0.714,12.65"
             style="fill:none;stroke:#231f20;stroke-width:0.34999999;stroke-linecap:round;stroke-linejoin:round;stroke-miterlimit:4;stroke-dasharray:none;stroke-opacity:1"
             id="path274"
             inkscape:connector-curvature="0" /></g><g
           id="g276"
           transform="translate(80.2422,72.4766)"><path
             d="m 0,0 c -0.364,1.007 -0.472,1.747 -0.472,2.87 0,5.559 4.841,10.064 10.809,10.064 0.2,0 0.397,-0.008 0.595,-0.014 2.941,-0.109 4.385,2.509 4.338,4.295 -0.004,0.14 -0.003,0.284 -0.003,0.424 0,16.422 14.459,29.735 32.296,29.735 17.834,0 32.294,-13.313 32.294,-29.735 0,-0.383 -0.016,-0.762 -0.022,-1.139 -0.039,-2.143 0.702,-4.92 4.629,-5.198 5.671,-0.403 10.181,-4.684 10.181,-10.046 0,-0.93 -0.135,-1.829 -0.389,-2.683"
             style="fill:none;stroke:#231f20;stroke-width:0.34999999;stroke-linecap:round;stroke-linejoin:round;stroke-miterlimit:4;stroke-dasharray:none;stroke-opacity:1"
             id="path278"
             inkscape:connector-curvature="0" /></g><g
           id="g280"
           transform="translate(158.6279,64.5156)"><path
             d="m 0,0 c 0.146,3.029 2.752,5.438 5.941,5.438 3.283,0 5.945,-2.553 5.945,-5.705"
             style="fill:none;stroke:#231f20;stroke-width:0.34999999;stroke-linecap:round;stroke-linejoin:round;stroke-miterlimit:4;stroke-dasharray:none;stroke-opacity:1"
             id="path282"
             inkscape:connector-curvature="0" /></g><g
           id="g284"
           transform="translate(170.5137,64.249)"><path
             d="m 0,0 c 0,-3.149 -2.662,-5.706 -5.944,-5.706 -3.284,0 -5.948,2.557 -5.948,5.706 0,0.088 0.003,0.181 0.006,0.267"
             style="fill:none;stroke:#231f20;stroke-width:0.25;stroke-linecap:round;stroke-linejoin:round;stroke-miterlimit:4;stroke-dasharray:none;stroke-opacity:1"
             id="path286"
             inkscape:connector-curvature="0" /></g><g
           id="g288"
           transform="translate(108.04,48.666)"><path
             d="m 0,0 c 0,-1.939 -1.64,-3.514 -3.665,-3.514 -2.022,0 -3.663,1.575 -3.663,3.514 0,1.943 1.641,3.515 3.663,3.515 C -1.64,3.515 0,1.943 0,0 Z"
             style="fill:none;stroke:#231f20;stroke-width:0.25;stroke-linecap:round;stroke-linejoin:round;stroke-miterlimit:4;stroke-dasharray:none;stroke-opacity:1"
             id="path290"
             inkscape:connector-curvature="0" /></g><g
           id="g292"
           transform="translate(99.4912,145.7114)"><path
             d="m 0,0 c 0,-1.445 -1.221,-2.616 -2.728,-2.616 -1.503,0 -2.725,1.171 -2.725,2.616 0,1.444 1.222,2.615 2.725,2.615 C -1.221,2.615 0,1.444 0,0 Z"
             style="fill:none;stroke:#231f20;stroke-width:0.25;stroke-linecap:round;stroke-linejoin:round;stroke-miterlimit:4;stroke-dasharray:none;stroke-opacity:1"
             id="path294"
             inkscape:connector-curvature="0" /></g><g
           id="g296"
           transform="translate(162.9971,144.9976)"><path
             d="m 0,0 c 0,-1.444 -1.22,-2.616 -2.726,-2.616 -1.503,0 -2.724,1.172 -2.724,2.616 0,1.444 1.221,2.616 2.724,2.616 C -1.22,2.616 0,1.444 0,0 Z"
             style="fill:none;stroke:#231f20;stroke-width:0.25;stroke-linecap:round;stroke-linejoin:round;stroke-miterlimit:4;stroke-dasharray:none;stroke-opacity:1"
             id="path298"
             inkscape:connector-curvature="0" /></g><g
           id="g300"
           transform="translate(153.2314,48.1904)"><path
             d="m 0,0 c 0,-1.94 -1.641,-3.514 -3.663,-3.514 -2.024,0 -3.665,1.574 -3.665,3.514 0,1.943 1.641,3.515 3.665,3.515 C -1.641,3.515 0,1.943 0,0 Z"
             style="fill:none;stroke:#231f20;stroke-width:0.25;stroke-linecap:round;stroke-linejoin:round;stroke-miterlimit:4;stroke-dasharray:none;stroke-opacity:1"
             id="path302"
             inkscape:connector-curvature="0" /></g><g
           id="g304"
           transform="translate(110.0303,85.4834)"><path
             d="m 0,0 c -0.024,0.198 -0.038,0.398 -0.038,0.602 0,2.836 2.422,5.133 5.409,5.133 2.988,0 5.409,-2.297 5.409,-5.133 0,-0.355 -0.038,-0.7 -0.11,-1.035"
             style="fill:none;stroke:#231f20;stroke-width:0.5;stroke-linecap:round;stroke-linejoin:round;stroke-miterlimit:4;stroke-dasharray:none;stroke-opacity:1"
             id="path306"
             inkscape:connector-curvature="0" /></g><g
           id="g308"
           transform="translate(121.2451,87.3311)"><path
             d="m 0,0 -0.545,-2.28 c -0.503,-2.338 -2.685,-4.1 -5.299,-4.1 -2.772,0 -5.058,1.98 -5.371,4.532 l -0.325,1.97"
             style="fill:none;stroke:#231f20;stroke-width:1.5;stroke-linecap:round;stroke-linejoin:round;stroke-miterlimit:4;stroke-dasharray:none;stroke-opacity:1"
             id="path310"
             inkscape:connector-curvature="0" /></g><g
           id="g312"
           transform="translate(109.6099,87.8467)"><path
             d="M 0,0 C 0,3.045 2.598,5.511 5.804,5.511 9.01,5.511 11.61,3.045 11.61,0"
             style="fill:none;stroke:#231f20;stroke-width:0.5;stroke-linecap:round;stroke-linejoin:round;stroke-miterlimit:4;stroke-dasharray:none;stroke-opacity:1"
             id="path314"
             inkscape:connector-curvature="0" /></g><g
           id="g316"
           transform="translate(153.54,80.5957)"><path
             d="m 0,0 c -1.339,-12.615 -12.46,-22.461 -25.981,-22.461 -13.34,0 -24.345,9.586 -25.921,21.957"
             style="fill:none;stroke:#231f20;stroke-width:0.25;stroke-linecap:round;stroke-linejoin:round;stroke-miterlimit:4;stroke-dasharray:none;stroke-opacity:1"
             id="path318"
             inkscape:connector-curvature="0" /></g><g
           id="g320"
           transform="translate(124.9873,50.0898)"><path
             d="m 0,0 c 0,0 -5.947,-14.983 -6.661,-17.125 -0.713,-2.14 0.95,-3.331 2.854,-3.331 l 11.418,0 c 1.665,0 2.615,1.903 1.665,4.282 C 8.324,-13.796 3.805,0.237 3.805,0.237"
             style="fill:none;stroke:#231f20;stroke-width:0.34999999;stroke-linecap:round;stroke-linejoin:round;stroke-miterlimit:4;stroke-dasharray:none;stroke-opacity:1"
             id="path322"
             inkscape:connector-curvature="0" /></g><g
           id="g324"
           transform="translate(102.3398,76.6514)"><path
             d="M 0,0 5.401,0"
             style="fill:none;stroke:#231f20;stroke-width:0.25;stroke-linecap:round;stroke-linejoin:round;stroke-miterlimit:4;stroke-dasharray:none;stroke-opacity:1"
             id="path326"
             inkscape:connector-curvature="0" /></g><g
           id="g328"
           transform="translate(107.0054,78.4932)"><path
             d="m 0,0 -4.051,0 c 0,0 -0.86,2.82 -0.615,9.082"
             style="fill:none;stroke:#231f20;stroke-width:0.25;stroke-linecap:round;stroke-linejoin:round;stroke-miterlimit:4;stroke-dasharray:none;stroke-opacity:1"
             id="path330"
             inkscape:connector-curvature="0" /></g><g
           id="g332"
           transform="translate(122.8418,105.4985)"><path
             d="M 0,0 C -0.737,-0.858 -1.105,-3.928 -1.105,-3.928"
             style="fill:none;stroke:#231f20;stroke-width:1.5;stroke-linecap:round;stroke-linejoin:round;stroke-miterlimit:4;stroke-dasharray:none;stroke-opacity:1"
             id="path334"
             inkscape:connector-curvature="0" /></g><g
           id="g336"
           transform="translate(52.7446,149.998)"><path
             d="M 0,0 17.198,0"
             style="fill:none;stroke:#231f20;stroke-width:0.25;stroke-linecap:round;stroke-linejoin:round;stroke-miterlimit:4;stroke-dasharray:none;stroke-opacity:1"
             id="path338"
             inkscape:connector-curvature="0" /></g><g
           id="g340"
           transform="translate(92.5454,165.9253)"><path
             d="M 0,0 73.281,-0.671"
             style="fill:none;stroke:#231f20;stroke-width:0.25;stroke-linecap:round;stroke-linejoin:round;stroke-miterlimit:4;stroke-dasharray:none;stroke-opacity:1"
             id="path342"
             inkscape:connector-curvature="0" /></g><g
           id="g344"
           transform="translate(91.5381,165.813)"><path
             d="M 0,0 C -1.566,0 -1.679,-19.02 -1.679,-24.614"
             style="fill:none;stroke:#231f20;stroke-width:0.34999999;stroke-linecap:round;stroke-linejoin:round;stroke-miterlimit:4;stroke-dasharray:none;stroke-opacity:1"
             id="path346"
             inkscape:connector-curvature="0" /></g><g
           id="g348"
           transform="translate(165.8262,164.9185)"><path
             d="M 0,0 C 0,0 1.454,-4.364 0.449,-26.292"
             style="fill:none;stroke:#231f20;stroke-width:0.34999999;stroke-linecap:round;stroke-linejoin:round;stroke-miterlimit:4;stroke-dasharray:none;stroke-opacity:1"
             id="path350"
             inkscape:connector-curvature="0" /></g><g
           id="g352"
           transform="translate(71.1758,154.6255)"><path
             d="M 0,0 C -0.671,-1.791 -0.447,-9.846 -0.447,-9.846"
             style="fill:none;stroke:#231f20;stroke-width:0.34999999;stroke-linecap:round;stroke-linejoin:round;stroke-miterlimit:4;stroke-dasharray:none;stroke-opacity:1"
             id="path354"
             inkscape:connector-curvature="0" /></g><g
           id="g356"
           transform="translate(71.6235,154.8481)"><path
             d="M 0,0 18.236,0"
             style="fill:none;stroke:#231f20;stroke-width:0.25;stroke-linecap:round;stroke-linejoin:round;stroke-miterlimit:4;stroke-dasharray:none;stroke-opacity:1"
             id="path358"
             inkscape:connector-curvature="0" /></g><g
           id="g360"
           transform="translate(167.0557,153.3936)"><path
             d="M 0,0 18.24,0"
             style="fill:none;stroke:#231f20;stroke-width:0.25;stroke-linecap:round;stroke-linejoin:round;stroke-miterlimit:4;stroke-dasharray:none;stroke-opacity:1"
             id="path362"
             inkscape:connector-curvature="0" /></g><g
           id="g364"
           transform="translate(185.2959,153.3936)"><path
             d="M 0,0 C 1.118,0 0.558,-9.286 0.558,-9.286"
             style="fill:none;stroke:#231f20;stroke-width:0.34999999;stroke-linecap:round;stroke-linejoin:round;stroke-miterlimit:4;stroke-dasharray:none;stroke-opacity:1"
             id="path366"
             inkscape:connector-curvature="0" /></g><g
           id="g368"
           transform="translate(66.4771,125.6475)"><path
             d="m 0,0 -16.223,0 c -1.23,0 -0.583,19.467 0.224,19.467 l 19.814,0"
             style="fill:none;stroke:#231f20;stroke-width:0.34999999;stroke-linecap:round;stroke-linejoin:round;stroke-miterlimit:4;stroke-dasharray:none;stroke-opacity:1"
             id="path370"
             inkscape:connector-curvature="0" /></g><g
           id="g372"
           transform="translate(38.4512,132.9165)"><path
             d="m 0,0 c 1.394,-0.465 2.208,-3.021 8.483,3.486 0,0 -2.672,-2.673 -3.95,-4.3 -1.279,-1.626 -0.466,-5.81 1.394,-6.972 1.859,-1.162 25.914,-15.106 25.914,-15.106"
             style="fill:none;stroke:#231f20;stroke-width:0.25;stroke-linecap:round;stroke-linejoin:round;stroke-miterlimit:4;stroke-dasharray:none;stroke-opacity:1"
             id="path374"
             inkscape:connector-curvature="0" /></g><g
           id="g376"
           transform="translate(49.7236,139.54)"><path
             d="M 0,0 -6.74,0"
             style="fill:none;stroke:#231f20;stroke-width:0.25;stroke-linecap:round;stroke-linejoin:round;stroke-miterlimit:4;stroke-dasharray:none;stroke-opacity:1"
             id="path378"
             inkscape:connector-curvature="0" /></g><g
           id="g380"
           transform="translate(186.624,148.0356)"><path
             d="M 0,0 16.687,0"
             style="fill:none;stroke:#231f20;stroke-width:0.25;stroke-linecap:round;stroke-linejoin:round;stroke-miterlimit:4;stroke-dasharray:none;stroke-opacity:1"
             id="path382"
             inkscape:connector-curvature="0" /></g><g
           id="g384"
           transform="translate(187.167,142.7148)"><path
             d="m 0,0 17.656,0 c 0.845,0 1.452,-2.116 1.331,-9.25 -0.124,-7.136 -0.847,-9.856 -2.117,-9.856 l -11.971,0"
             style="fill:none;stroke:#231f20;stroke-width:0.34999999;stroke-linecap:round;stroke-linejoin:round;stroke-miterlimit:4;stroke-dasharray:none;stroke-opacity:1"
             id="path386"
             inkscape:connector-curvature="0" /></g><g
           id="g388"
           transform="translate(206.5156,137.2129)"><path
             d="M 0,0 6.228,-0.182"
             style="fill:none;stroke:#231f20;stroke-width:0.25;stroke-linecap:round;stroke-linejoin:round;stroke-miterlimit:4;stroke-dasharray:none;stroke-opacity:1"
             id="path390"
             inkscape:connector-curvature="0" /></g><g
           id="g392"
           transform="translate(206.9375,132.9194)"><path
             d="m 0,0 c 0,0 3.569,0.605 4.475,-1.33 0.907,-1.934 0.603,-7.072 -2.479,-9.371 -3.084,-2.298 -23.278,-13.785 -23.278,-13.785"
             style="fill:none;stroke:#231f20;stroke-width:0.25;stroke-linecap:round;stroke-linejoin:round;stroke-miterlimit:4;stroke-dasharray:none;stroke-opacity:1"
             id="path394"
             inkscape:connector-curvature="0" /></g><g
           id="g396"
           transform="translate(211.6377,131.0171)"><path
             d="M 0,0 C 0,0 5.887,-1.858 5.423,0.466"
             style="fill:none;stroke:#231f20;stroke-width:0.25;stroke-linecap:round;stroke-linejoin:round;stroke-miterlimit:4;stroke-dasharray:none;stroke-opacity:1"
             id="path398"
             inkscape:connector-curvature="0" /></g><g
           id="g400"
           transform="translate(72.2358,129.5605)"><path
             d="m 0,0 c -0.729,1.119 -1.151,2.439 -1.151,3.852 0,1.52 0.487,2.929 1.32,4.1"
             style="fill:none;stroke:#231f20;stroke-width:0.25;stroke-linecap:round;stroke-linejoin:round;stroke-miterlimit:4;stroke-dasharray:none;stroke-opacity:1"
             id="path402"
             inkscape:connector-curvature="0" /></g><g
           id="g404"
           transform="translate(85.562,136.9917)"><path
             d="m 0,0 c 0.625,-1.059 0.979,-2.28 0.979,-3.579 0,-3.338 -2.347,-6.155 -5.561,-7.044"
             style="fill:none;stroke:#231f20;stroke-width:0.25;stroke-linecap:round;stroke-linejoin:round;stroke-miterlimit:4;stroke-dasharray:none;stroke-opacity:1"
             id="path406"
             inkscape:connector-curvature="0" /></g></g></g><g
       id="g408"
       transform="translate(125.9697,105.394)"><path
         d="M 0,0 -92.666,41.334"
         style="fill:none;stroke:#ffffff;stroke-width:3;stroke-linecap:round;stroke-linejoin:round;stroke-miterlimit:4;stroke-dasharray:none;stroke-opacity:1"
         id="path410"
         inkscape:connector-curvature="0" /></g><g
       id="g412"><g
         id="g414"
         clip-path="url(#clipPath416)"><g
           id="g420"
           transform="translate(125.8467,104.1606)"><path
             d="M 0,0 C 0.682,0 1.234,0.552 1.234,1.233 1.234,1.915 0.682,2.467 0,2.467 -0.68,2.467 -1.232,1.915 -1.232,1.233 -1.232,0.552 -0.68,0 0,0"
             style="fill:#231f20;fill-opacity:1;fill-rule:nonzero;stroke:none"
             id="path422"
             inkscape:connector-curvature="0" /></g><g
           id="g424"
           transform="translate(125.8467,104.1606)"><path
             d="M 0,0 C 0.682,0 1.234,0.552 1.234,1.233 1.234,1.915 0.682,2.467 0,2.467 -0.68,2.467 -1.232,1.915 -1.232,1.233 -1.232,0.552 -0.68,0 0,0 Z"
             style="fill:none;stroke:#ffffff;stroke-width:1;stroke-linecap:butt;stroke-linejoin:miter;stroke-miterlimit:4;stroke-dasharray:none;stroke-opacity:1"
             id="path426"
             inkscape:connector-curvature="0" /></g><g
           id="g428"
           transform="translate(125.9697,105.394)"><path
             d="M 0,0 -92.666,41.334"
             style="fill:none;stroke:#231f20;stroke-width:0.5;stroke-linecap:round;stroke-linejoin:round;stroke-miterlimit:4;stroke-dasharray:none;stroke-opacity:1"
             id="path430"
             inkscape:connector-curvature="0" /></g><g
           id="g432"
           transform="translate(131.9697,86.0596)"><path
             d="M 0,0 68.335,-28.332"
             style="fill:none;stroke:#ffffff;stroke-width:3;stroke-linecap:round;stroke-linejoin:round;stroke-miterlimit:4;stroke-dasharray:none;stroke-opacity:1"
             id="path434"
             inkscape:connector-curvature="0" /></g><g
           id="g436"
           transform="translate(131.8477,84.8271)"><path
             d="M 0,0 C 0.681,0 1.234,0.551 1.234,1.232 1.234,1.914 0.681,2.467 0,2.467 -0.681,2.467 -1.233,1.914 -1.233,1.232 -1.233,0.551 -0.681,0 0,0"
             style="fill:#231f20;fill-opacity:1;fill-rule:nonzero;stroke:none"
             id="path438"
             inkscape:connector-curvature="0" /></g><g
           id="g440"
           transform="translate(131.8477,84.8271)"><path
             d="M 0,0 C 0.681,0 1.234,0.551 1.234,1.232 1.234,1.914 0.681,2.467 0,2.467 -0.681,2.467 -1.233,1.914 -1.233,1.232 -1.233,0.551 -0.681,0 0,0 Z"
             style="fill:none;stroke:#ffffff;stroke-width:1;stroke-linecap:butt;stroke-linejoin:miter;stroke-miterlimit:4;stroke-dasharray:none;stroke-opacity:1"
             id="path442"
             inkscape:connector-curvature="0" /></g><g
           id="g444"
           transform="translate(131.9697,86.0596)"><path
             d="M 0,0 68.335,-28.332"
             style="fill:none;stroke:#231f20;stroke-width:0.5;stroke-linecap:round;stroke-linejoin:round;stroke-miterlimit:4;stroke-dasharray:none;stroke-opacity:1"
             id="path446"
             inkscape:connector-curvature="0" /></g></g></g><text
       transform="matrix(1,0,0,-1,24,146.0049)"
       style="font-variant:normal;font-weight:bold;font-stretch:normal;font-size:12px;font-family:Helvetica;-inkscape-font-specification:Helvetica-Bold;writing-mode:lr-tb;fill:#231f20;fill-opacity:1;fill-rule:nonzero;stroke:none"
       id="text448"><tspan
         x="0"
         y="0"
         id="tspan450">1</tspan><tspan
         x="179.664"
         y="93.671997"
         id="tspan452">2</tspan></text>
<text
       transform="matrix(1,0,0,-1,8.6694,12.0576)"
       style="font-variant:normal;font-weight:normal;font-stretch:normal;font-size:5px;font-family:Helvetica;-inkscape-font-specification:Helvetica;writing-mode:lr-tb;fill:#231f20;fill-opacity:1;fill-rule:nonzero;stroke:none"
       id="text454"><tspan
         x="0 2.5 3.8900001 5"
         y="0"
         sodipodi:role="line"
         id="tspan456">cfln</tspan></text>
</g></svg>