<?xml version="1.0" encoding="UTF-8" standalone="no"?>
<!-- Created with Inkscape (http://www.inkscape.org/) -->

<svg
   xmlns:dc="http://purl.org/dc/elements/1.1/"
   xmlns:cc="http://creativecommons.org/ns#"
   xmlns:rdf="http://www.w3.org/1999/02/22-rdf-syntax-ns#"
   xmlns:svg="http://www.w3.org/2000/svg"
   xmlns="http://www.w3.org/2000/svg"
   xmlns:sodipodi="http://sodipodi.sourceforge.net/DTD/sodipodi-0.dtd"
   xmlns:inkscape="http://www.inkscape.org/namespaces/inkscape"
   id="svg2"
   version="1.1"
   inkscape:version="0.91 r13725"
   xml:space="preserve"
   width="301.18124"
   height="230.315"
   viewBox="0 0 301.18124 230.315"
   sodipodi:docname="cflp.svg"><metadata
     id="metadata8"><rdf:RDF><cc:Work
         rdf:about=""><dc:format>image/svg+xml</dc:format><dc:type
           rdf:resource="http://purl.org/dc/dcmitype/StillImage" /><dc:title></dc:title></cc:Work></rdf:RDF></metadata><defs
     id="defs6"><clipPath
       clipPathUnits="userSpaceOnUse"
       id="clipPath16"><path
         d="m 8.784,7.968 228.236,0 0,161.109 -228.236,0 0,-161.109 z"
         id="path18"
         inkscape:connector-curvature="0" /></clipPath><clipPath
       clipPathUnits="userSpaceOnUse"
       id="clipPath256"><path
         d="m 0,184.252 240.945,0 L 240.945,0 0,0 0,184.252 Z"
         id="path258"
         inkscape:connector-curvature="0" /></clipPath></defs><sodipodi:namedview
     pagecolor="#ffffff"
     bordercolor="#666666"
     borderopacity="1"
     objecttolerance="10"
     gridtolerance="10"
     guidetolerance="10"
     inkscape:pageopacity="0"
     inkscape:pageshadow="2"
     inkscape:window-width="684"
     inkscape:window-height="480"
     id="namedview4"
     showgrid="false"
     inkscape:zoom="0.95623484"
     inkscape:cx="150.59062"
     inkscape:cy="115.1575"
     inkscape:window-x="0"
     inkscape:window-y="0"
     inkscape:window-maximized="0"
     inkscape:current-layer="g10" /><g
     id="g10"
     inkscape:groupmode="layer"
     inkscape:label="cflp"
     transform="matrix(1.25,0,0,-1.25,0,230.315)"><g
       id="g12"><g
         id="g14"
         clip-path="url(#clipPath16)"><g
           id="g20"
           transform="translate(27.2173,97.8862)"><path
             d="m 0,0 c -0.944,-2.002 -1.384,-8.628 -0.994,-16.454 0.382,-7.694 1.29,-14.231 2.565,-16.172 0.628,-0.959 1.58,-1.492 3.702,-1.388 2.121,0.105 65.179,3.369 65.179,3.369"
             style="fill:none;stroke:#231f20;stroke-width:1.5;stroke-linecap:round;stroke-linejoin:round;stroke-miterlimit:4;stroke-dasharray:none;stroke-opacity:1"
             id="path22"
             inkscape:connector-curvature="0" /></g><g
           id="g24"
           transform="translate(25.6982,87.4912)"><path
             d="m 0,0 c 0,0 -1.538,0.215 -2.46,0.169 -0.924,-0.045 -1.955,0.235 -2.285,1.23 -0.2,0.611 -0.419,2.038 -0.503,3.713 -0.077,1.561 -0.052,2.925 0.102,3.603 0.26,1.142 0.983,1.51 2.455,1.668 1.472,0.157 4.297,0.086 5.312,0.137 1.014,0.05 3.007,0.898 4.207,0.959 1.199,0.058 3.332,0.165 3.332,0.165"
             style="fill:none;stroke:#231f20;stroke-width:1.5;stroke-linecap:round;stroke-linejoin:round;stroke-miterlimit:4;stroke-dasharray:none;stroke-opacity:1"
             id="path26"
             inkscape:connector-curvature="0" /></g><g
           id="g28"
           transform="translate(113.9214,62.3086)"><path
             d="m 0,0 c -1.669,-0.083 -3.539,10.242 -4.177,23.065 -0.637,12.826 0.198,23.288 1.865,23.37"
             style="fill:none;stroke:#231f20;stroke-width:0.5;stroke-linecap:round;stroke-linejoin:round;stroke-miterlimit:4;stroke-dasharray:none;stroke-opacity:1"
             id="path30"
             inkscape:connector-curvature="0" /></g><g
           id="g32"
           transform="translate(98.5239,77.1143)"><path
             d="m 0,0 c -0.229,2.387 -0.417,4.953 -0.55,7.628 -0.635,12.755 0.205,23.16 1.872,23.243"
             style="fill:none;stroke:#231f20;stroke-width:0.5;stroke-linecap:round;stroke-linejoin:round;stroke-miterlimit:4;stroke-dasharray:none;stroke-opacity:1"
             id="path34"
             inkscape:connector-curvature="0" /></g><g
           id="g36"
           transform="translate(102.1455,61.8018)"><path
             d="M 0,0 C -1.067,-0.053 -2.218,4.136 -3.074,10.502"
             style="fill:none;stroke:#231f20;stroke-width:0.5;stroke-linecap:round;stroke-linejoin:round;stroke-miterlimit:4;stroke-dasharray:none;stroke-opacity:1"
             id="path38"
             inkscape:connector-curvature="0" /></g><g
           id="g40"
           transform="translate(97.0884,77.7471)"><path
             d="m 0,0 c -0.212,2.194 -0.385,4.546 -0.506,6.995 -0.603,12.114 0.262,21.999 1.929,22.081"
             style="fill:none;stroke:#231f20;stroke-width:0.5;stroke-linecap:round;stroke-linejoin:round;stroke-miterlimit:4;stroke-dasharray:none;stroke-opacity:1"
             id="path42"
             inkscape:connector-curvature="0" /></g><g
           id="g44"
           transform="translate(100.6958,62.9629)"><path
             d="M 0,0 C -0.917,-0.045 -1.885,2.874 -2.672,7.521"
             style="fill:none;stroke:#231f20;stroke-width:0.5;stroke-linecap:round;stroke-linejoin:round;stroke-miterlimit:4;stroke-dasharray:none;stroke-opacity:1"
             id="path46"
             inkscape:connector-curvature="0" /></g><g
           id="g48"
           transform="translate(115.9658,74.2852)"><path
             d="m 0,0 c -0.166,-7.095 -0.913,-11.921 -2.044,-11.977 0,0 -8.916,-0.884 -10.435,-0.884 -1.517,0 -3.161,1.643 -3.161,1.643 0,0 -0.634,0.635 -0.886,1.392 -0.254,0.76 -1.391,2.151 -1.898,5.186 l 0.76,2.404 2.403,0.632"
             style="fill:none;stroke:#231f20;stroke-width:1.5;stroke-linecap:round;stroke-linejoin:round;stroke-miterlimit:4;stroke-dasharray:none;stroke-opacity:1"
             id="path50"
             inkscape:connector-curvature="0" /></g><g
           id="g52"
           transform="translate(99.6919,76.3486)"><path
             d="m 0,0 c 0,0 -4.167,0.484 -4.3,3.291 -0.632,13.282 -0.379,19.986 0,22.263 0.38,2.276 1.518,2.529 1.898,3.288 0.379,0.76 1.012,1.137 1.265,1.772 0.253,0.631 1.012,1.264 2.15,1.264 1.138,0 10.905,0.517 10.905,0.517 0.755,0.038 1.551,-2.056 2.256,-5.548"
             style="fill:none;stroke:#231f20;stroke-width:1.5;stroke-linecap:round;stroke-linejoin:round;stroke-miterlimit:4;stroke-dasharray:none;stroke-opacity:1"
             id="path54"
             inkscape:connector-curvature="0" /></g><g
           id="g56"
           transform="translate(103.8018,61.6738)"><path
             d="m 0,0 c -1.669,-0.082 -3.541,10.244 -4.179,23.067 -0.638,12.824 0.198,23.287 1.866,23.37"
             style="fill:none;stroke:#231f20;stroke-width:1;stroke-linecap:round;stroke-linejoin:round;stroke-miterlimit:4;stroke-dasharray:none;stroke-opacity:1"
             id="path58"
             inkscape:connector-curvature="0" /></g><g
           id="g60"
           transform="translate(88.2554,100.8633)"><path
             d="M 0,0 3.644,0.183"
             style="fill:none;stroke:#231f20;stroke-width:0.5;stroke-linecap:round;stroke-linejoin:round;stroke-miterlimit:4;stroke-dasharray:none;stroke-opacity:1"
             id="path62"
             inkscape:connector-curvature="0" /></g><g
           id="g64"
           transform="translate(91.8994,101.0459)"><path
             d="m 0,0 c -0.143,-2.322 -0.07,-8.039 0.269,-14.857 0.072,-1.471 -3.565,-1.78 -3.644,-0.182 -0.341,6.816 -0.412,12.537 -0.269,14.856"
             style="fill:none;stroke:#231f20;stroke-width:1.5;stroke-linecap:round;stroke-linejoin:round;stroke-miterlimit:4;stroke-dasharray:none;stroke-opacity:1"
             id="path66"
             inkscape:connector-curvature="0" /></g><g
           id="g68"
           transform="translate(88.2446,90.9297)"><path
             d="m 0,0 c 0,0 -1.097,0.136 -1.034,-1.144 0.064,-1.277 0.138,-2.748 0.192,-3.833 0.055,-1.089 1.425,-1.596 3.087,-1.514 1.663,0.083 2.903,0.914 2.847,2.064 -0.058,1.15 -0.055,3.651 -0.088,4.29 -0.03,0.639 -1.183,0.646 -1.183,0.646"
             style="fill:none;stroke:#231f20;stroke-width:0.5;stroke-linecap:round;stroke-linejoin:round;stroke-miterlimit:4;stroke-dasharray:none;stroke-opacity:1"
             id="path70"
             inkscape:connector-curvature="0" /></g><g
           id="g72"
           transform="translate(88.4424,90.8105)"><path
             d="M 0,0 C -0.047,0.958 3.394,1.323 3.453,0.171"
             style="fill:none;stroke:#231f20;stroke-width:0.5;stroke-linecap:round;stroke-linejoin:round;stroke-miterlimit:4;stroke-dasharray:none;stroke-opacity:1"
             id="path74"
             inkscape:connector-curvature="0" /></g><g
           id="g76"
           transform="translate(80.5308,100.48)"><path
             d="M 0,0 3.645,0.181"
             style="fill:none;stroke:#231f20;stroke-width:0.5;stroke-linecap:round;stroke-linejoin:round;stroke-miterlimit:4;stroke-dasharray:none;stroke-opacity:1"
             id="path78"
             inkscape:connector-curvature="0" /></g><g
           id="g80"
           transform="translate(84.1753,100.6611)"><path
             d="m 0,0 c -0.144,-2.322 -0.108,-8.042 0.231,-14.859 0.074,-1.47 -3.564,-1.779 -3.644,-0.181 -0.338,6.817 -0.375,12.539 -0.232,14.859"
             style="fill:none;stroke:#231f20;stroke-width:1.5;stroke-linecap:round;stroke-linejoin:round;stroke-miterlimit:4;stroke-dasharray:none;stroke-opacity:1"
             id="path82"
             inkscape:connector-curvature="0" /></g><g
           id="g84"
           transform="translate(80.4839,90.542)"><path
             d="m 0,0 c 0,0 -1.097,0.139 -1.033,-1.142 0.063,-1.278 0.137,-2.748 0.191,-3.835 0.053,-1.088 1.425,-1.596 3.088,-1.513 1.662,0.083 2.901,0.915 2.844,2.064 -0.058,1.151 -0.054,3.652 -0.084,4.29 -0.032,0.64 -1.188,0.647 -1.188,0.647"
             style="fill:none;stroke:#231f20;stroke-width:0.5;stroke-linecap:round;stroke-linejoin:round;stroke-miterlimit:4;stroke-dasharray:none;stroke-opacity:1"
             id="path86"
             inkscape:connector-curvature="0" /></g><g
           id="g88"
           transform="translate(80.6816,90.4258)"><path
             d="M 0,0 C -0.048,0.957 3.394,1.32 3.452,0.171"
             style="fill:none;stroke:#231f20;stroke-width:0.5;stroke-linecap:round;stroke-linejoin:round;stroke-miterlimit:4;stroke-dasharray:none;stroke-opacity:1"
             id="path90"
             inkscape:connector-curvature="0" /></g><g
           id="g92"
           transform="translate(72.8071,100.0952)"><path
             d="M 0,0 3.644,0.181"
             style="fill:none;stroke:#231f20;stroke-width:0.5;stroke-linecap:round;stroke-linejoin:round;stroke-miterlimit:4;stroke-dasharray:none;stroke-opacity:1"
             id="path94"
             inkscape:connector-curvature="0" /></g><g
           id="g96"
           transform="translate(76.4512,100.2764)"><path
             d="m 0,0 c -0.144,-2.321 -0.144,-8.043 0.195,-14.86 0.074,-1.472 -3.566,-1.781 -3.644,-0.181 -0.34,6.817 -0.34,12.539 -0.195,14.86"
             style="fill:none;stroke:#231f20;stroke-width:1.5;stroke-linecap:round;stroke-linejoin:round;stroke-miterlimit:4;stroke-dasharray:none;stroke-opacity:1"
             id="path98"
             inkscape:connector-curvature="0" /></g><g
           id="g100"
           transform="translate(72.7227,90.1553)"><path
             d="m 0,0 c 0,0 -1.098,0.14 -1.033,-1.142 0.064,-1.277 0.136,-2.748 0.189,-3.836 0.055,-1.086 1.427,-1.593 3.088,-1.511 1.663,0.083 2.904,0.914 2.846,2.064 C 5.033,-3.274 5.037,-0.773 5.005,-0.134 4.972,0.504 3.819,0.51 3.819,0.51"
             style="fill:none;stroke:#231f20;stroke-width:0.5;stroke-linecap:round;stroke-linejoin:round;stroke-miterlimit:4;stroke-dasharray:none;stroke-opacity:1"
             id="path102"
             inkscape:connector-curvature="0" /></g><g
           id="g104"
           transform="translate(72.9204,90.0381)"><path
             d="M 0,0 C -0.047,0.959 3.396,1.322 3.453,0.172"
             style="fill:none;stroke:#231f20;stroke-width:0.5;stroke-linecap:round;stroke-linejoin:round;stroke-miterlimit:4;stroke-dasharray:none;stroke-opacity:1"
             id="path106"
             inkscape:connector-curvature="0" /></g><g
           id="g108"
           transform="translate(65.0815,99.7104)"><path
             d="M 0,0 3.645,0.183"
             style="fill:none;stroke:#231f20;stroke-width:0.5;stroke-linecap:round;stroke-linejoin:round;stroke-miterlimit:4;stroke-dasharray:none;stroke-opacity:1"
             id="path110"
             inkscape:connector-curvature="0" /></g><g
           id="g112"
           transform="translate(68.7261,99.8931)"><path
             d="m 0,0 c -0.145,-2.322 -0.183,-8.046 0.158,-14.864 0.073,-1.471 -3.563,-1.781 -3.643,-0.18 -0.341,6.817 -0.304,12.541 -0.16,14.861"
             style="fill:none;stroke:#231f20;stroke-width:1.5;stroke-linecap:round;stroke-linejoin:round;stroke-miterlimit:4;stroke-dasharray:none;stroke-opacity:1"
             id="path114"
             inkscape:connector-curvature="0" /></g><g
           id="g116"
           transform="translate(64.9604,89.7705)"><path
             d="m 0,0 c 0,0 -1.097,0.138 -1.032,-1.142 0.062,-1.277 0.136,-2.749 0.19,-3.837 0.055,-1.085 1.425,-1.594 3.087,-1.512 1.662,0.083 2.903,0.913 2.847,2.064 C 5.034,-3.276 5.038,-0.775 5.005,-0.135 4.974,0.503 3.821,0.509 3.821,0.509"
             style="fill:none;stroke:#231f20;stroke-width:0.5;stroke-linecap:round;stroke-linejoin:round;stroke-miterlimit:4;stroke-dasharray:none;stroke-opacity:1"
             id="path118"
             inkscape:connector-curvature="0" /></g><g
           id="g120"
           transform="translate(65.1597,89.6514)"><path
             d="M 0,0 C -0.048,0.959 3.395,1.322 3.451,0.172"
             style="fill:none;stroke:#231f20;stroke-width:0.5;stroke-linecap:round;stroke-linejoin:round;stroke-miterlimit:4;stroke-dasharray:none;stroke-opacity:1"
             id="path122"
             inkscape:connector-curvature="0" /></g><g
           id="g124"
           transform="translate(57.3569,99.3267)"><path
             d="M 0,0 3.644,0.182"
             style="fill:none;stroke:#231f20;stroke-width:0.5;stroke-linecap:round;stroke-linejoin:round;stroke-miterlimit:4;stroke-dasharray:none;stroke-opacity:1"
             id="path126"
             inkscape:connector-curvature="0" /></g><g
           id="g128"
           transform="translate(61.001,99.5083)"><path
             d="m 0,0 c -0.144,-2.322 -0.217,-8.048 0.122,-14.867 0.072,-1.468 -3.565,-1.78 -3.644,-0.178 -0.339,6.816 -0.266,12.542 -0.122,14.863"
             style="fill:none;stroke:#231f20;stroke-width:1.5;stroke-linecap:round;stroke-linejoin:round;stroke-miterlimit:4;stroke-dasharray:none;stroke-opacity:1"
             id="path130"
             inkscape:connector-curvature="0" /></g><g
           id="g132"
           transform="translate(57.1992,89.3828)"><path
             d="m 0,0 c 0,0 -1.096,0.138 -1.034,-1.14 0.065,-1.277 0.138,-2.75 0.192,-3.837 0.053,-1.087 1.425,-1.596 3.088,-1.511 1.662,0.08 2.901,0.913 2.845,2.062 C 5.034,-3.274 5.037,-0.773 5.006,-0.135 4.975,0.504 3.819,0.512 3.819,0.512"
             style="fill:none;stroke:#231f20;stroke-width:0.5;stroke-linecap:round;stroke-linejoin:round;stroke-miterlimit:4;stroke-dasharray:none;stroke-opacity:1"
             id="path134"
             inkscape:connector-curvature="0" /></g><g
           id="g136"
           transform="translate(57.3975,89.2646)"><path
             d="M 0,0 C -0.047,0.96 3.396,1.323 3.452,0.173"
             style="fill:none;stroke:#231f20;stroke-width:0.5;stroke-linecap:round;stroke-linejoin:round;stroke-miterlimit:4;stroke-dasharray:none;stroke-opacity:1"
             id="path138"
             inkscape:connector-curvature="0" /></g><g
           id="g140"
           transform="translate(49.6318,98.9419)"><path
             d="M 0,0 3.644,0.181"
             style="fill:none;stroke:#231f20;stroke-width:0.5;stroke-linecap:round;stroke-linejoin:round;stroke-miterlimit:4;stroke-dasharray:none;stroke-opacity:1"
             id="path142"
             inkscape:connector-curvature="0" /></g><g
           id="g144"
           transform="translate(53.2759,99.123)"><path
             d="m 0,0 c -0.144,-2.32 -0.255,-8.049 0.085,-14.866 0.073,-1.47 -3.565,-1.78 -3.645,-0.181 -0.339,6.817 -0.227,12.545 -0.084,14.866"
             style="fill:none;stroke:#231f20;stroke-width:1.5;stroke-linecap:round;stroke-linejoin:round;stroke-miterlimit:4;stroke-dasharray:none;stroke-opacity:1"
             id="path146"
             inkscape:connector-curvature="0" /></g><g
           id="g148"
           transform="translate(49.437,88.9971)"><path
             d="m 0,0 c 0,0 -1.097,0.14 -1.032,-1.142 0.064,-1.279 0.136,-2.75 0.192,-3.835 0.053,-1.088 1.424,-1.596 3.087,-1.513 1.661,0.082 2.902,0.915 2.846,2.065 -0.059,1.15 -0.054,3.651 -0.087,4.29 C 4.976,0.504 3.82,0.511 3.82,0.511"
             style="fill:none;stroke:#231f20;stroke-width:0.5;stroke-linecap:round;stroke-linejoin:round;stroke-miterlimit:4;stroke-dasharray:none;stroke-opacity:1"
             id="path150"
             inkscape:connector-curvature="0" /></g><g
           id="g152"
           transform="translate(49.6362,88.8809)"><path
             d="M 0,0 C -0.047,0.956 3.395,1.32 3.453,0.169"
             style="fill:none;stroke:#231f20;stroke-width:0.5;stroke-linecap:round;stroke-linejoin:round;stroke-miterlimit:4;stroke-dasharray:none;stroke-opacity:1"
             id="path154"
             inkscape:connector-curvature="0" /></g><g
           id="g156"
           transform="translate(40.0474,99.3872)"><path
             d="M 0,0 C -0.021,0.409 -0.46,0.981 -0.869,0.961 -1.281,0.941 -1.963,0.908 -2.464,0.881 -2.966,0.857 -3.647,0.777 -3.887,-0.369 -4.36,-2.645 -4.27,-9.171 -3.931,-15.989 c 0.079,-1.597 3.718,-1.289 3.644,0.181 -0.327,6.588 -0.274,13.048 -0.122,15.78 l 55.375,2.796"
             style="fill:none;stroke:#231f20;stroke-width:1.5;stroke-linecap:round;stroke-linejoin:round;stroke-miterlimit:4;stroke-dasharray:none;stroke-opacity:1"
             id="path158"
             inkscape:connector-curvature="0" /></g><g
           id="g160"
           transform="translate(35.8364,88.3203)"><path
             d="m 0,0 c 0,0 -1.094,0.138 -1.032,-1.143 0.065,-1.278 0.137,-2.748 0.19,-3.836 0.056,-1.085 1.427,-1.592 3.09,-1.512 1.662,0.083 2.903,0.914 2.844,2.064 C 5.036,-3.274 5.04,-0.773 5.007,-0.135 4.975,0.503 3.821,0.512 3.821,0.512"
             style="fill:none;stroke:#231f20;stroke-width:0.5;stroke-linecap:round;stroke-linejoin:round;stroke-miterlimit:4;stroke-dasharray:none;stroke-opacity:1"
             id="path162"
             inkscape:connector-curvature="0" /></g><g
           id="g164"
           transform="translate(36.0366,88.2021)"><path
             d="M 0,0 C -0.047,0.958 3.394,1.323 3.453,0.171"
             style="fill:none;stroke:#231f20;stroke-width:0.5;stroke-linecap:round;stroke-linejoin:round;stroke-miterlimit:4;stroke-dasharray:none;stroke-opacity:1"
             id="path166"
             inkscape:connector-curvature="0" /></g><g
           id="g168"
           transform="translate(147.4072,87.2324)"><path
             d="m 0,0 c -2.338,16.538 -3.476,25.103 5.997,31.417 9.474,6.315 29.051,14.683 36.154,17.05 7.105,2.369 12.947,-0.474 18.472,-6.789 5.527,-6.315 13.105,-18.629 14.999,-34.732 1.894,-16.104 -6.789,-31.89 -9.314,-35.68 -2.528,-3.788 -4.106,-7.105 -14.684,-6.001 -10.578,1.105 -29.049,6.948 -37.89,10.737 C 4.894,-20.208 2.052,-14.526 0,0 Z"
             style="fill:none;stroke:#231f20;stroke-width:1.5;stroke-linecap:round;stroke-linejoin:round;stroke-miterlimit:4;stroke-dasharray:none;stroke-opacity:1"
             id="path170"
             inkscape:connector-curvature="0" /></g><g
           id="g172"
           transform="translate(213.4678,77.4814)"><path
             d="m 0,0 c -0.229,-1.118 -0.514,-2.132 -0.86,-3.038 -1.262,-3.315 -3.472,-5.366 -7.26,-4.419 -3.79,0.946 -6.158,1.894 -5.367,6.157 0.788,4.263 0.315,12.788 -2.685,21.786 -1.28,3.838 0.314,4.893 2.526,7.577"
             style="fill:none;stroke:#231f20;stroke-width:0.5;stroke-linecap:round;stroke-linejoin:round;stroke-miterlimit:4;stroke-dasharray:none;stroke-opacity:1"
             id="path174"
             inkscape:connector-curvature="0" /></g><g
           id="g176"
           transform="translate(199.8213,105.5449)"><path
             d="m 0,0 c 2.21,2.684 5.526,2.842 8.683,-0.788 3.157,-3.633 5.209,-9.946 5.527,-16.105 0.228,-4.472 0.041,-8.197 -0.564,-11.17"
             style="fill:none;stroke:#231f20;stroke-width:1.5;stroke-linecap:round;stroke-linejoin:round;stroke-miterlimit:4;stroke-dasharray:none;stroke-opacity:1"
             id="path178"
             inkscape:connector-curvature="0" /></g><g
           id="g180"
           transform="translate(204.083,107.439)"><path
             d="m 0,0 c -1.421,-1.262 -2.682,-5.366 -1.578,-8.524 1.104,-3.159 1.265,-8.527 0.946,-11.209 -0.315,-2.684 1.106,-3.948 2.686,-4.737 1.579,-0.789 6.316,-6.63 7.578,7.262"
             style="fill:none;stroke:#231f20;stroke-width:1.5;stroke-linecap:round;stroke-linejoin:round;stroke-miterlimit:4;stroke-dasharray:none;stroke-opacity:1"
             id="path182"
             inkscape:connector-curvature="0" /></g><g
           id="g184"
           transform="translate(112.8306,102.5464)"><path
             d="M 0,0 32.521,2.052"
             style="fill:none;stroke:#231f20;stroke-width:1.5;stroke-linecap:round;stroke-linejoin:round;stroke-miterlimit:4;stroke-dasharray:none;stroke-opacity:1"
             id="path186"
             inkscape:connector-curvature="0" /></g><g
           id="g188"
           transform="translate(112.042,102.2305)"><path
             d="m 0,0 -0.631,-2.212 4.262,-23.84"
             style="fill:none;stroke:#231f20;stroke-width:1;stroke-linecap:round;stroke-linejoin:round;stroke-miterlimit:4;stroke-dasharray:none;stroke-opacity:1"
             id="path190"
             inkscape:connector-curvature="0" /></g><g
           id="g192"
           transform="translate(116.147,74.7588)"><path
             d="M 0,0 C 0,0 1.58,1.58 4.419,1.738 7.262,1.895 9.472,0.316 9.472,0.316 l 23.682,0.948"
             style="fill:none;stroke:#231f20;stroke-width:1.5;stroke-linecap:round;stroke-linejoin:round;stroke-miterlimit:4;stroke-dasharray:none;stroke-opacity:1"
             id="path194"
             inkscape:connector-curvature="0" /></g><g
           id="g196"
           transform="translate(111.4106,100.0186)"><path
             d="M 0,0 33.944,1.896"
             style="fill:none;stroke:#231f20;stroke-width:0.5;stroke-linecap:round;stroke-linejoin:round;stroke-miterlimit:4;stroke-dasharray:none;stroke-opacity:1"
             id="path198"
             inkscape:connector-curvature="0" /></g><g
           id="g200"
           transform="translate(124.1992,98.9146)"><path
             d="M 0,0 1.42,-6.789 -10.895,-7.895"
             style="fill:none;stroke:#231f20;stroke-width:0.5;stroke-linecap:round;stroke-linejoin:round;stroke-miterlimit:4;stroke-dasharray:none;stroke-opacity:1"
             id="path202"
             inkscape:connector-curvature="0" /></g><g
           id="g204"
           transform="translate(112.042,98.2817)"><path
             d="M 0,0 12.157,0.633"
             style="fill:none;stroke:#231f20;stroke-width:1;stroke-linecap:round;stroke-linejoin:round;stroke-miterlimit:4;stroke-dasharray:none;stroke-opacity:1"
             id="path206"
             inkscape:connector-curvature="0" /></g><g
           id="g208"
           transform="translate(125.6191,92.1255)"><path
             d="M 0,0 C 0,0 -7.104,1.581 -12.945,1.421"
             style="fill:none;stroke:#231f20;stroke-width:0.5;stroke-linecap:round;stroke-linejoin:round;stroke-miterlimit:4;stroke-dasharray:none;stroke-opacity:1"
             id="path210"
             inkscape:connector-curvature="0" /></g><g
           id="g212"
           transform="translate(122.4629,87.8643)"><path
             d="M 0,0 C 0,0 -3.316,-2.213 -8.052,-3.476"
             style="fill:none;stroke:#231f20;stroke-width:0.5;stroke-linecap:round;stroke-linejoin:round;stroke-miterlimit:4;stroke-dasharray:none;stroke-opacity:1"
             id="path214"
             inkscape:connector-curvature="0" /></g><g
           id="g216"
           transform="translate(113.6206,88.6523)"><path
             d="M 0,0 C 3.79,0.474 8.842,-0.788 8.842,-0.788"
             style="fill:none;stroke:#231f20;stroke-width:1;stroke-linecap:round;stroke-linejoin:round;stroke-miterlimit:4;stroke-dasharray:none;stroke-opacity:1"
             id="path218"
             inkscape:connector-curvature="0" /></g><g
           id="g220"
           transform="translate(169.0684,99.0142)"><path
             d="m 0,0 -0.586,-0.431 c -3.553,-2.618 -11.932,-8.763 -11.372,-11.496 0.755,-3.695 4.971,-7.329 13.716,-12.221 10.872,-6.081 16.533,-6.594 19.18,-5.693 1.745,1.801 2.259,5.209 2.259,11.115 0,2.774 -0.281,5.921 -1.008,9.283 -2.57,11.88 -6.1,16.535 -8.133,17.145 C 12.752,8.053 9.92,7.324 0,0 Z"
             style="fill:none;stroke:#231f20;stroke-width:0.5;stroke-linecap:round;stroke-linejoin:round;stroke-miterlimit:4;stroke-dasharray:none;stroke-opacity:1"
             id="path222"
             inkscape:connector-curvature="0" /></g><g
           id="g224"
           transform="translate(151.8271,86.125)"><path
             d="m 0,0 c -1.131,6.221 7.42,12.315 14.05,17.209 6.631,4.895 14.053,9.947 18.789,8.525 4.737,-1.42 9.288,-9.343 11.84,-21.154 2.525,-11.684 0.631,-23.681 -3.789,-26.208 -4.42,-2.525 -14.999,1.263 -24.313,6.473 C 7.261,-9.946 0.947,-5.209 0,0 Z"
             style="fill:none;stroke:#231f20;stroke-width:1;stroke-linecap:round;stroke-linejoin:round;stroke-miterlimit:4;stroke-dasharray:none;stroke-opacity:1"
             id="path226"
             inkscape:connector-curvature="0" /></g><g
           id="g228"
           transform="translate(182.6357,95.1201)"><path
             d="m 0,0 c -0.155,-0.099 -0.314,-0.189 -0.502,-0.237 l -4.26,-0.538 C -4.93,-0.807 -5.096,-0.901 -5.149,-1.049 l 0.164,-1.239 c 0.176,0.102 0.35,0.192 0.559,0.238 l 4.27,0.543 c 0.143,0.029 0.281,0.133 0.322,0.271 L 0,0 Z"
             style="fill:#231f20;fill-opacity:1;fill-rule:nonzero;stroke:none"
             id="path230"
             inkscape:connector-curvature="0" /></g><g
           id="g232"
           transform="translate(182.9707,92.8159)"><path
             d="m 0,0 c -0.155,-0.101 -0.329,-0.178 -0.518,-0.234 l -3.108,-0.395 c -0.252,-0.045 -0.516,-0.076 -0.727,-0.188 -0.474,-0.201 -0.78,-0.72 -0.793,-1.172 -0.085,-0.66 0.175,-1.299 0.68,-1.727 l 0.003,-0.023 c -0.105,-0.05 -0.231,-0.132 -0.259,-0.25 l 0.16,-1.197 c 0.151,0.101 0.318,0.17 0.492,0.228 l 4.704,0.596 -0.21,1.459 C 0.253,-3.012 0.062,-3.092 -0.147,-3.144 l -2.12,-0.274 c -0.462,-0.068 -0.922,-0.125 -1.32,0.018 -0.364,0.18 -0.498,0.533 -0.491,0.891 0.083,0.324 0.419,0.528 0.744,0.611 l 3.199,0.421 c 0.137,0.031 0.258,0.143 0.296,0.268 L 0,0 Z"
             style="fill:#231f20;fill-opacity:1;fill-rule:nonzero;stroke:none"
             id="path234"
             inkscape:connector-curvature="0" /></g><g
           id="g236"
           transform="translate(183.7256,87.623)"><path
             d="m 0,0 c -0.15,-0.09 -0.31,-0.17 -0.49,-0.217 l -3.953,-0.501 c -0.273,-0.02 -0.536,-0.018 -0.778,0.072 l 0.196,-1.341 c 0.177,0.119 0.374,0.202 0.594,0.254 l 2.916,0.348 -0.014,-0.014 -1.36,-0.865 c -0.414,-0.251 -0.924,-0.707 -0.805,-1.214 0.06,-0.12 0.061,-0.283 0.173,-0.363 0.932,-0.131 1.835,-0.365 2.715,-0.666 l -0.011,-0.014 -3.045,-0.376 c -0.266,-0.027 -0.514,0.002 -0.751,0.074 l 0.206,-1.42 c 0.175,0.118 0.375,0.186 0.582,0.241 l 4.052,0.488 c 0.211,0.017 0.4,-0.036 0.589,-0.085 l -0.223,1.53 C 0.53,-3.901 0.325,-3.798 0.156,-3.735 l -2.123,0.471 -0.153,0.053 0.011,0.015 1.786,0.996 c 0.215,0.128 0.483,0.272 0.555,0.524 L 0,0 Z"
             style="fill:#231f20;fill-opacity:1;fill-rule:nonzero;stroke:none"
             id="path238"
             inkscape:connector-curvature="0" /></g><g
           id="g240"
           transform="translate(181.3389,97.8301)"><path
             d="m 0,0 c -0.066,0.064 -0.016,0.236 -0.15,0.222 l -1.754,-0.228 c 0.085,-0.264 0.236,-0.494 0.412,-0.711 0.29,-0.307 0.724,-0.447 1.144,-0.304 C 0.052,-0.818 0.075,-0.385 0,0 M 1.297,6.413 1.312,6.402 1.53,4.437 1.776,2.836 C 1.84,2.537 1.881,2.223 1.963,1.931 1.97,1.911 1.963,1.851 1.989,1.827 L 2.008,1.696 0.705,1.438 C 0.719,1.168 0.778,0.875 0.811,0.616 L 1.037,-0.657 C 1.048,-1.158 0.781,-1.67 0.314,-1.976 c -0.453,-0.281 -1.18,-0.363 -1.67,-0.124 -0.356,0.157 -0.618,0.43 -0.827,0.694 -1.656,-1.216 -2.585,-3.046 -2.965,-4.783 -0.325,-1.486 -0.365,-3.034 -0.117,-4.652 l 0.194,-1.231 c 0.644,-3.264 2.248,-6.062 4.735,-8.369 l 0.955,-0.837 2.638,0.313 c 0.255,0.038 0.471,0.126 0.66,0.263 l 0.214,-1.47 -2.241,-0.278 -0.011,-0.013 c 0.459,-0.52 0.822,-1.094 1.097,-1.71 0.484,0.042 1.018,0.077 1.382,0.339 l 0.226,-1.458 -4.651,-0.588 c -0.204,-0.044 -0.371,-0.141 -0.543,-0.232 l -0.165,1.233 c 0.035,0.17 0.222,0.227 0.377,0.275 l 2.355,0.294 0.013,0.011 c -0.344,0.627 -0.804,1.193 -1.4,1.687 -0.546,-0.124 -1.242,-0.012 -1.636,-0.375 l -0.167,1.237 c 0.063,0.185 0.266,0.257 0.454,0.297 -2.163,2.273 -3.761,4.839 -4.673,7.764 l -0.31,1.183 -0.161,0.825 -0.226,1.672 c -0.22,3.399 0.558,6.572 3.016,9.331 l 0.398,0.397 -0.055,0.178 c -0.528,-0.069 -1.147,-0.058 -1.542,-0.36 l -0.237,1.525 -0.007,0.05 C -4.34,1.024 -4.084,1 -3.812,1.024 L 0.156,1.526 C 0.253,1.571 0.369,1.583 0.444,1.659 0.481,2.198 0.503,2.735 0.435,3.299 L 0.404,3.321 -1.823,3.033 -3.106,2.814 C -3.671,2.68 -4.26,2.583 -4.757,2.344 l -0.297,2.029 c 0.773,-0.129 1.614,-0.068 2.431,0.01 l 1.286,0.12 1.49,0.175 C 0.181,4.683 0.218,4.681 0.229,4.712 0.106,5.36 -0.094,5.969 -0.348,6.546 -0.289,6.585 -0.198,6.558 -0.121,6.561 0.355,6.61 0.828,6.607 1.288,6.653 1.302,6.569 1.31,6.488 1.297,6.413"
             style="fill:#231f20;fill-opacity:1;fill-rule:nonzero;stroke:none"
             id="path242"
             inkscape:connector-curvature="0" /></g><g
           id="g244"
           transform="translate(183.9238,79.7285)"><path
             d="m 0,0 -1.817,-0.239 c 0.132,-0.366 0.33,-0.699 0.713,-0.934 0.266,-0.15 0.63,-0.174 0.918,-0.034 C 0.193,-0.912 0.18,-0.403 0,0 M 0.572,-2.089 C 0.138,-2.417 -0.6,-2.604 -1.133,-2.363 c -0.894,0.426 -1.267,1.232 -1.57,2.026 l -1.244,-0.128 c -0.118,0.016 -0.241,0.046 -0.325,0.128 l -0.058,0.104 -0.174,1.209 c 0.205,-0.081 0.431,-0.087 0.656,-0.088 l 3.882,0.467 c 0.233,0.071 0.488,0.11 0.671,0.262 L 0.964,0.009 c 0.01,-0.006 0.02,-0.01 0.017,-0.023 L 0.969,-0.025 C 1.066,-0.554 1.255,-1.158 0.961,-1.619 0.86,-1.784 0.741,-1.974 0.572,-2.089"
             style="fill:#231f20;fill-opacity:1;fill-rule:nonzero;stroke:none"
             id="path246"
             inkscape:connector-curvature="0" /></g></g></g><g
       id="g248"
       transform="translate(76.9707,75.6475)"><path
         d="M 0,0 -32,-29.5"
         style="fill:none;stroke:#ffffff;stroke-width:3;stroke-linecap:round;stroke-linejoin:round;stroke-miterlimit:4;stroke-dasharray:none;stroke-opacity:1"
         id="path250"
         inkscape:connector-curvature="0" /></g><g
       id="g252"><g
         id="g254"
         clip-path="url(#clipPath256)"><g
           id="g260"
           transform="translate(76.8486,74.4131)"><path
             d="M 0,0 C 0.681,0 1.233,0.553 1.233,1.234 1.233,1.916 0.681,2.467 0,2.467 -0.681,2.467 -1.233,1.916 -1.233,1.234 -1.233,0.553 -0.681,0 0,0"
             style="fill:#231f20;fill-opacity:1;fill-rule:nonzero;stroke:none"
             id="path262"
             inkscape:connector-curvature="0" /></g><g
           id="g264"
           transform="translate(76.8486,74.4131)"><path
             d="M 0,0 C 0.681,0 1.233,0.553 1.233,1.234 1.233,1.916 0.681,2.467 0,2.467 -0.681,2.467 -1.233,1.916 -1.233,1.234 -1.233,0.553 -0.681,0 0,0 Z"
             style="fill:none;stroke:#ffffff;stroke-width:1;stroke-linecap:butt;stroke-linejoin:miter;stroke-miterlimit:4;stroke-dasharray:none;stroke-opacity:1"
             id="path266"
             inkscape:connector-curvature="0" /></g><g
           id="g268"
           transform="translate(76.9707,75.6475)"><path
             d="M 0,0 -32,-29.5"
             style="fill:none;stroke:#231f20;stroke-width:0.5;stroke-linecap:round;stroke-linejoin:round;stroke-miterlimit:4;stroke-dasharray:none;stroke-opacity:1"
             id="path270"
             inkscape:connector-curvature="0" /></g><g
           id="g272"
           transform="translate(191.6367,127.9795)"><path
             d="M 0,0 29.167,27.834"
             style="fill:none;stroke:#ffffff;stroke-width:3;stroke-linecap:round;stroke-linejoin:round;stroke-miterlimit:4;stroke-dasharray:none;stroke-opacity:1"
             id="path274"
             inkscape:connector-curvature="0" /></g><g
           id="g276"
           transform="translate(191.5146,126.7451)"><path
             d="M 0,0 C 0.681,0 1.233,0.553 1.233,1.234 1.233,1.916 0.681,2.467 0,2.467 -0.681,2.467 -1.233,1.916 -1.233,1.234 -1.233,0.553 -0.681,0 0,0"
             style="fill:#231f20;fill-opacity:1;fill-rule:nonzero;stroke:none"
             id="path278"
             inkscape:connector-curvature="0" /></g><g
           id="g280"
           transform="translate(191.5146,126.7451)"><path
             d="M 0,0 C 0.681,0 1.233,0.553 1.233,1.234 1.233,1.916 0.681,2.467 0,2.467 -0.681,2.467 -1.233,1.916 -1.233,1.234 -1.233,0.553 -0.681,0 0,0 Z"
             style="fill:none;stroke:#ffffff;stroke-width:1;stroke-linecap:butt;stroke-linejoin:miter;stroke-miterlimit:4;stroke-dasharray:none;stroke-opacity:1"
             id="path282"
             inkscape:connector-curvature="0" /></g><g
           id="g284"
           transform="translate(191.6367,127.9795)"><path
             d="M 0,0 29.167,27.834"
             style="fill:none;stroke:#231f20;stroke-width:0.5;stroke-linecap:round;stroke-linejoin:round;stroke-miterlimit:4;stroke-dasharray:none;stroke-opacity:1"
             id="path286"
             inkscape:connector-curvature="0" /></g></g></g><text
       transform="matrix(1,0,0,-1,38.001,33.2568)"
       style="font-variant:normal;font-weight:bold;font-stretch:normal;font-size:12px;font-family:'Swiss 721 SWA';-inkscape-font-specification:Helvetica-Bold;writing-mode:lr-tb;fill:#231f20;fill-opacity:1;fill-rule:nonzero;stroke:none"
       id="text288"><tspan
         x="0"
         y="0"
         id="tspan290">2</tspan><tspan
         x="182.172"
         y="-125.664"
         id="tspan292">1</tspan></text>
<text
       transform="matrix(1,0,0,-1,5.3359,7.4756)"
       style="font-variant:normal;font-weight:normal;font-stretch:normal;font-size:5px;font-family:'Swiss 721 SWA';-inkscape-font-specification:Helvetica;writing-mode:lr-tb;fill:#231f20;fill-opacity:1;fill-rule:nonzero;stroke:none"
       id="text294"><tspan
         x="0 2.5 3.8900001 5"
         y="0"
         sodipodi:role="line"
         id="tspan296">cflp</tspan></text>
</g></svg>