<?xml version="1.0" encoding="UTF-8" standalone="no"?>
<!-- Created with Inkscape (http://www.inkscape.org/) -->

<svg
   xmlns:dc="http://purl.org/dc/elements/1.1/"
   xmlns:cc="http://creativecommons.org/ns#"
   xmlns:rdf="http://www.w3.org/1999/02/22-rdf-syntax-ns#"
   xmlns:svg="http://www.w3.org/2000/svg"
   xmlns="http://www.w3.org/2000/svg"
   xmlns:sodipodi="http://sodipodi.sourceforge.net/DTD/sodipodi-0.dtd"
   xmlns:inkscape="http://www.inkscape.org/namespaces/inkscape"
   id="svg2"
   version="1.1"
   inkscape:version="0.91 r13725"
   xml:space="preserve"
   width="301.18124"
   height="230.31375"
   viewBox="0 0 301.18124 230.31375"
   sodipodi:docname="Fuse Box_HB6.svg"><metadata
     id="metadata8"><rdf:RDF><cc:Work
         rdf:about=""><dc:format>image/svg+xml</dc:format><dc:type
           rdf:resource="http://purl.org/dc/dcmitype/StillImage" /><dc:title></dc:title></cc:Work></rdf:RDF></metadata><defs
     id="defs6"><clipPath
       clipPathUnits="userSpaceOnUse"
       id="clipPath44"><path
         d="m 0,184.251 240.945,0 L 240.945,0 0,0 0,184.251 Z"
         id="path46"
         inkscape:connector-curvature="0" /></clipPath><clipPath
       clipPathUnits="userSpaceOnUse"
       id="clipPath138"><path
         d="m 0,184.251 240.945,0 L 240.945,0 0,0 0,184.251 Z"
         id="path140"
         inkscape:connector-curvature="0" /></clipPath><clipPath
       clipPathUnits="userSpaceOnUse"
       id="clipPath204"><path
         d="m 0,184.251 240.945,0 L 240.945,0 0,0 0,184.251 Z"
         id="path206"
         inkscape:connector-curvature="0" /></clipPath></defs><sodipodi:namedview
     pagecolor="#ffffff"
     bordercolor="#666666"
     borderopacity="1"
     objecttolerance="10"
     gridtolerance="10"
     guidetolerance="10"
     inkscape:pageopacity="0"
     inkscape:pageshadow="2"
     inkscape:window-width="684"
     inkscape:window-height="978"
     id="namedview4"
     showgrid="false"
     inkscape:zoom="1.0246891"
     inkscape:cx="150.59062"
     inkscape:cy="115.15688"
     inkscape:window-x="0"
     inkscape:window-y="281"
     inkscape:window-maximized="0"
     inkscape:current-layer="g10" /><g
     id="g10"
     inkscape:groupmode="layer"
     inkscape:label="Fuse Box_HB6"
     transform="matrix(1.25,0,0,-1.25,0,230.31375)"><text
       transform="matrix(1,0,0,-1,115.5649,78.9116)"
       style="font-variant:normal;font-weight:normal;font-stretch:semi-condensed;font-size:10px;font-family:'Arial Narrow';-inkscape-font-specification:ArialNarrow;writing-mode:lr-tb;fill:#231f20;fill-opacity:1;fill-rule:nonzero;stroke:none"
       id="text12"><tspan
         x="0 4.5599999 9.1199999"
         y="0"
         sodipodi:role="line"
         id="tspan14">15A</tspan><tspan
         x="0 4.5599999 9.1199999"
         y="-39.689999"
         sodipodi:role="line"
         id="tspan16">10A</tspan><tspan
         x="2 6.5599999"
         y="-19.709999"
         sodipodi:role="line"
         id="tspan18">5A</tspan></text>
<text
       transform="matrix(1,0,0,-1,115.485,59.031)"
       style="font-variant:normal;font-weight:normal;font-stretch:semi-condensed;font-size:9.99989986px;font-family:'Arial Narrow';-inkscape-font-specification:ArialNarrow;writing-mode:lr-tb;fill:#231f20;fill-opacity:1;fill-rule:nonzero;stroke:none"
       id="text20"><tspan
         x="0 4.5599542 9.1199083"
         y="0"
         sodipodi:role="line"
         id="tspan22">15A</tspan></text>
<text
       transform="matrix(1,0,0,-1,115.5649,137.1206)"
       style="font-variant:normal;font-weight:normal;font-stretch:semi-condensed;font-size:10px;font-family:'Arial Narrow';-inkscape-font-specification:ArialNarrow;writing-mode:lr-tb;fill:#231f20;fill-opacity:1;fill-rule:nonzero;stroke:none"
       id="text24"><tspan
         x="0 4.5599999 9.1199999"
         y="0"
         sodipodi:role="line"
         id="tspan26">10A</tspan></text>
<text
       transform="matrix(0,1,1,0,105.2407,75.7866)"
       style="font-variant:normal;font-weight:normal;font-stretch:semi-condensed;font-size:10px;font-family:'Arial Narrow';-inkscape-font-specification:ArialNarrow;writing-mode:lr-tb;fill:#231f20;fill-opacity:1;fill-rule:nonzero;stroke:none"
       id="text28"><tspan
         x="0 4.5599999 9.1199999"
         y="0"
         sodipodi:role="line"
         id="tspan30">15A</tspan><tspan
         x="-40.23 -35.669998 -31.110001"
         y="0.0099999998"
         sodipodi:role="line"
         id="tspan32">10A</tspan><tspan
         x="39.490002 44.049999 48.610001"
         y="-0.079999998"
         sodipodi:role="line"
         id="tspan34">25A</tspan></text>
<text
       transform="matrix(1,0,0,-1,115.5039,40.1206)"
       style="font-variant:normal;font-weight:normal;font-stretch:semi-condensed;font-size:10px;font-family:'Arial Narrow';-inkscape-font-specification:ArialNarrow;writing-mode:lr-tb;fill:#231f20;fill-opacity:1;fill-rule:nonzero;stroke:none"
       id="text36"><tspan
         x="0 4.5599999 9.1199999"
         y="0"
         sodipodi:role="line"
         id="tspan38">10A</tspan></text>
<g
       id="g40"><g
         id="g42"
         clip-path="url(#clipPath44)"><g
           id="g48"
           transform="translate(152.7256,160.1055)"><path
             d="m 0,0 c 3.649,0 6.608,-2.958 6.608,-6.606 l 0,-121.88 c 0,-3.65 -2.959,-6.608 -6.608,-6.608 l -64.489,0 c -3.649,0 -6.607,2.958 -6.607,6.608 l 0,121.88 c 0,3.648 2.958,6.606 6.607,6.606 L 0,0 Z"
             style="fill:none;stroke:#000000;stroke-width:0.75;stroke-linecap:round;stroke-linejoin:round;stroke-miterlimit:10;stroke-dasharray:none;stroke-opacity:1"
             id="path50"
             inkscape:connector-curvature="0" /></g><g
           id="g52"
           transform="translate(143.5547,25.0117)"><path
             d="m 0,0 0,-12.918 -40.429,0 0,12.918"
             style="fill:none;stroke:#000000;stroke-width:0.75;stroke-linecap:round;stroke-linejoin:round;stroke-miterlimit:10;stroke-dasharray:none;stroke-opacity:1"
             id="path54"
             inkscape:connector-curvature="0" /></g><g
           id="g56"
           transform="translate(140.5068,25.0117)"><path
             d="m 0,0 0,-9.581 -34.333,0 0,9.581"
             style="fill:none;stroke:#000000;stroke-width:0.25;stroke-linecap:round;stroke-linejoin:round;stroke-miterlimit:10;stroke-dasharray:none;stroke-opacity:1"
             id="path58"
             inkscape:connector-curvature="0" /></g><g
           id="g60"
           transform="translate(137.7402,19.2412)"><path
             d="m 0,0 0,-1.407 -28.799,0 0,1.407"
             style="fill:none;stroke:#000000;stroke-width:0.25;stroke-linecap:round;stroke-linejoin:round;stroke-miterlimit:10;stroke-dasharray:none;stroke-opacity:1"
             id="path62"
             inkscape:connector-curvature="0" /></g><g
           id="g64"
           transform="translate(138.3506,25.0117)"><path
             d="m 0,0 0,-5.771 -30.019,0 0,5.771"
             style="fill:none;stroke:#000000;stroke-width:0.75;stroke-linecap:round;stroke-linejoin:round;stroke-miterlimit:10;stroke-dasharray:none;stroke-opacity:1"
             id="path66"
             inkscape:connector-curvature="0" /></g><g
           id="g68"
           transform="translate(137.7402,17.834)"><path
             d="M 0,0 2.767,-2.403"
             style="fill:none;stroke:#000000;stroke-width:0.25;stroke-linecap:round;stroke-linejoin:round;stroke-miterlimit:10;stroke-dasharray:none;stroke-opacity:1"
             id="path70"
             inkscape:connector-curvature="0" /></g><g
           id="g72"
           transform="translate(108.9409,17.834)"><path
             d="M 0,0 -2.767,-2.403"
             style="fill:none;stroke:#000000;stroke-width:0.25;stroke-linecap:round;stroke-linejoin:round;stroke-miterlimit:10;stroke-dasharray:none;stroke-opacity:1"
             id="path74"
             inkscape:connector-curvature="0" /></g><g
           id="g76"
           transform="translate(108.9409,20.9404)"><path
             d="M 0,0 28.799,0"
             style="fill:none;stroke:#000000;stroke-width:0.25;stroke-linecap:round;stroke-linejoin:round;stroke-miterlimit:10;stroke-dasharray:none;stroke-opacity:1"
             id="path78"
             inkscape:connector-curvature="0" /></g><g
           id="g80"
           transform="translate(108.9409,21.9463)"><path
             d="M 0,0 28.799,0"
             style="fill:none;stroke:#000000;stroke-width:0.25;stroke-linecap:round;stroke-linejoin:round;stroke-miterlimit:10;stroke-dasharray:none;stroke-opacity:1"
             id="path82"
             inkscape:connector-curvature="0" /></g><g
           id="g84"
           transform="translate(108.9409,22.9502)"><path
             d="M 0,0 28.799,0"
             style="fill:none;stroke:#000000;stroke-width:0.25;stroke-linecap:round;stroke-linejoin:round;stroke-miterlimit:10;stroke-dasharray:none;stroke-opacity:1"
             id="path86"
             inkscape:connector-curvature="0" /></g><g
           id="g88"
           transform="translate(108.9409,23.9531)"><path
             d="M 0,0 28.799,0"
             style="fill:none;stroke:#000000;stroke-width:0.25;stroke-linecap:round;stroke-linejoin:round;stroke-miterlimit:10;stroke-dasharray:none;stroke-opacity:1"
             id="path90"
             inkscape:connector-curvature="0" /></g><g
           id="g92"
           transform="translate(95.7437,160.1055)"><path
             d="m 0,0 0,9.087 19.71,0 0,-9.087"
             style="fill:none;stroke:#000000;stroke-width:0.75;stroke-linecap:round;stroke-linejoin:round;stroke-miterlimit:10;stroke-dasharray:none;stroke-opacity:1"
             id="path94"
             inkscape:connector-curvature="0" /></g><g
           id="g96"
           transform="translate(130.1045,160.1055)"><path
             d="m 0,0 0,9.087 19.708,0 0,-9.087"
             style="fill:none;stroke:#000000;stroke-width:0.75;stroke-linecap:round;stroke-linejoin:round;stroke-miterlimit:10;stroke-dasharray:none;stroke-opacity:1"
             id="path98"
             inkscape:connector-curvature="0" /></g><path
           d="m 149.812,33.021 -58.729,0 0,118.061 58.729,0 0,-118.061 z"
           style="fill:none;stroke:#000000;stroke-width:0.75;stroke-linecap:round;stroke-linejoin:round;stroke-miterlimit:10;stroke-dasharray:none;stroke-opacity:1"
           id="path100"
           inkscape:connector-curvature="0" /><g
           id="g102"
           transform="translate(113.4565,33.0215)"><path
             d="M 0,0 0,118.061"
             style="fill:none;stroke:#000000;stroke-width:0.75;stroke-linecap:round;stroke-linejoin:round;stroke-miterlimit:10;stroke-dasharray:none;stroke-opacity:1"
             id="path104"
             inkscape:connector-curvature="0" /></g><g
           id="g106"
           transform="translate(91.083,71.9756)"><path
             d="M 0,0 58.729,0"
             style="fill:none;stroke:#000000;stroke-width:0.75;stroke-linecap:round;stroke-linejoin:round;stroke-miterlimit:10;stroke-dasharray:none;stroke-opacity:1"
             id="path108"
             inkscape:connector-curvature="0" /></g><g
           id="g110"
           transform="translate(91.083,111.7285)"><path
             d="M 0,0 58.729,0"
             style="fill:none;stroke:#000000;stroke-width:0.75;stroke-linecap:round;stroke-linejoin:round;stroke-miterlimit:10;stroke-dasharray:none;stroke-opacity:1"
             id="path112"
             inkscape:connector-curvature="0" /></g><g
           id="g114"
           transform="translate(113.4565,52.1992)"><path
             d="M 0,0 36.356,0"
             style="fill:none;stroke:#000000;stroke-width:0.75;stroke-linecap:round;stroke-linejoin:round;stroke-miterlimit:10;stroke-dasharray:none;stroke-opacity:1"
             id="path116"
             inkscape:connector-curvature="0" /></g><g
           id="g118"
           transform="translate(113.4565,92.0518)"><path
             d="M 0,0 36.356,0"
             style="fill:none;stroke:#000000;stroke-width:0.75;stroke-linecap:round;stroke-linejoin:round;stroke-miterlimit:10;stroke-dasharray:none;stroke-opacity:1"
             id="path120"
             inkscape:connector-curvature="0" /></g><g
           id="g122"
           transform="translate(113.4565,131.7051)"><path
             d="M 0,0 36.356,0"
             style="fill:none;stroke:#000000;stroke-width:0.75;stroke-linecap:round;stroke-linejoin:round;stroke-miterlimit:10;stroke-dasharray:none;stroke-opacity:1"
             id="path124"
             inkscape:connector-curvature="0" /></g><g
           id="g126"
           transform="translate(159.4961,79.2646)"><path
             d="m 0,0 16.537,0 0,-12.007 -16.537,0"
             style="fill:none;stroke:#000000;stroke-width:0.75;stroke-linecap:round;stroke-linejoin:round;stroke-miterlimit:10;stroke-dasharray:none;stroke-opacity:1"
             id="path128"
             inkscape:connector-curvature="0" /></g><g
           id="g130"
           transform="translate(159.4961,117.0957)"><path
             d="m 0,0 16.537,0 0,-12.006 -16.537,0"
             style="fill:none;stroke:#000000;stroke-width:0.75;stroke-linecap:round;stroke-linejoin:round;stroke-miterlimit:10;stroke-dasharray:none;stroke-opacity:1"
             id="path132"
             inkscape:connector-curvature="0" /></g></g></g><g
       id="g134"><g
         id="g136"
         clip-path="url(#clipPath138)"><g
           id="g142"
           transform="translate(139.1328,143.9189)"><path
             d="m 0,0 c 0,-0.049 -0.037,-0.082 -0.082,-0.082 l -4.352,0 c -0.046,0 -0.08,0.033 -0.08,0.082 l 0,3.456 c 0,0.046 0.034,0.085 0.08,0.085 l 4.352,0 C -0.037,3.541 0,3.502 0,3.456 L 0,0 Z M 5.317,-4.411 C 5.181,-3.677 4.502,-0.983 4.472,0.472 4.759,0.661 4.851,0.727 5.114,0.873 4.868,2.144 3.468,4.211 1.773,4.38 l 0,-0.722 C 3.786,2.215 3.573,0.774 3.702,-0.345 3.856,-1.65 4.2,-3.138 4.451,-4.641 4.597,-5.482 3.856,-5.799 3.522,-5.799 c -0.346,0 -0.995,0.171 -0.995,0.836 l 0,3.224 c 0,0.879 -0.431,1.547 -1.64,1.657 l 0,3.825 c 0,0.4 -0.322,0.722 -0.723,0.722 l -4.914,0 c -0.396,0 -0.723,-0.322 -0.723,-0.722 l 0,-10.829 -0.515,0 c -0.056,0 -0.109,-0.054 -0.109,-0.106 l 0,-0.695 c 0,-0.055 0.053,-0.104 0.109,-0.104 l 7.396,0 c 0.063,0 0.107,0.049 0.107,0.104 l 0,0.695 c 0,0.052 -0.044,0.106 -0.107,0.106 l -0.521,0 0,6.107 c 0.412,-0.062 0.739,-0.283 0.739,-0.809 0,-0.496 0.02,-2.443 0.02,-3.107 0,-0.672 0.497,-1.79 2.041,-1.744 1.029,0.035 1.884,0.84 1.63,2.228"
             style="fill:#231f20;fill-opacity:1;fill-rule:nonzero;stroke:none"
             id="path144"
             inkscape:connector-curvature="0" /></g><g
           id="g146"
           transform="translate(134.4414,116.7842)"><path
             d="m 0,0 c -1.372,1.132 -2.25,2.848 -2.25,4.767 0,3.404 2.762,6.165 6.17,6.165 3.408,0 6.172,-2.761 6.172,-6.165 0,-1.909 -0.865,-3.61 -2.222,-4.743"
             style="fill:none;stroke:#000000;stroke-width:0.75;stroke-linecap:butt;stroke-linejoin:miter;stroke-miterlimit:4;stroke-dasharray:none;stroke-opacity:1"
             id="path148"
             inkscape:connector-curvature="0" /></g><path
           d="m 133.726,121.049 -1.099,0 0,0.891 1.099,0 0,-0.891 z"
           style="fill:#000000;fill-opacity:1;fill-rule:nonzero;stroke:#000000;stroke-width:0.75;stroke-linecap:round;stroke-linejoin:round;stroke-miterlimit:10;stroke-dasharray:none;stroke-opacity:1"
           id="path150"
           inkscape:connector-curvature="0" /><path
           d="m 138.774,126.09 -0.893,0 0,1.099 0.893,0 0,-1.099 z"
           style="fill:#000000;fill-opacity:1;fill-rule:nonzero;stroke:#000000;stroke-width:0.75;stroke-linecap:round;stroke-linejoin:round;stroke-miterlimit:10;stroke-dasharray:none;stroke-opacity:1"
           id="path152"
           inkscape:connector-curvature="0" /><path
           d="m 144.035,121.139 -1.097,0 0,0.893 1.097,0 0,-0.893 z"
           style="fill:#000000;fill-opacity:1;fill-rule:nonzero;stroke:#000000;stroke-width:0.75;stroke-linecap:round;stroke-linejoin:round;stroke-miterlimit:10;stroke-dasharray:none;stroke-opacity:1"
           id="path154"
           inkscape:connector-curvature="0" /><g
           id="g156"
           transform="translate(142.7598,125.1406)"><path
             d="M 0,0 -0.775,-0.775 -1.406,-0.146 -0.632,0.63 0,0 Z"
             style="fill:#000000;fill-opacity:1;fill-rule:nonzero;stroke:none"
             id="path158"
             inkscape:connector-curvature="0" /></g><g
           id="g160"
           transform="translate(142.7598,125.1406)"><path
             d="M 0,0 -0.775,-0.775 -1.406,-0.146 -0.632,0.63 0,0 Z"
             style="fill:none;stroke:#000000;stroke-width:0.75;stroke-linecap:round;stroke-linejoin:round;stroke-miterlimit:10;stroke-dasharray:none;stroke-opacity:1"
             id="path162"
             inkscape:connector-curvature="0" /></g><g
           id="g164"
           transform="translate(135.3433,118.209)"><path
             d="M 0,0 -0.777,-0.776 -1.41,-0.145 -0.631,0.63 0,0 Z"
             style="fill:#000000;fill-opacity:1;fill-rule:nonzero;stroke:none"
             id="path166"
             inkscape:connector-curvature="0" /></g><g
           id="g168"
           transform="translate(135.3433,118.209)"><path
             d="M 0,0 -0.777,-0.776 -1.41,-0.145 -0.631,0.63 0,0 Z"
             style="fill:none;stroke:#000000;stroke-width:0.75;stroke-linecap:round;stroke-linejoin:round;stroke-miterlimit:10;stroke-dasharray:none;stroke-opacity:1"
             id="path170"
             inkscape:connector-curvature="0" /></g><g
           id="g172"
           transform="translate(142.2002,118.5703)"><path
             d="M 0,0 0.775,-0.777 0.146,-1.408 -0.627,-0.633 0,0 Z"
             style="fill:#000000;fill-opacity:1;fill-rule:nonzero;stroke:none"
             id="path174"
             inkscape:connector-curvature="0" /></g><g
           id="g176"
           transform="translate(142.2002,118.5703)"><path
             d="M 0,0 0.775,-0.777 0.146,-1.408 -0.627,-0.633 0,0 Z"
             style="fill:none;stroke:#000000;stroke-width:0.75;stroke-linecap:round;stroke-linejoin:round;stroke-miterlimit:10;stroke-dasharray:none;stroke-opacity:1"
             id="path178"
             inkscape:connector-curvature="0" /></g><g
           id="g180"
           transform="translate(139.8457,121.2773)"><path
             d="m 0,0 c 0,-0.904 -0.73,-1.635 -1.632,-1.635 -0.907,0 -1.635,0.731 -1.635,1.635 0,0.906 0.728,1.635 1.635,1.635 C -0.73,1.635 0,0.906 0,0"
             style="fill:#000000;fill-opacity:1;fill-rule:nonzero;stroke:none"
             id="path182"
             inkscape:connector-curvature="0" /></g><g
           id="g184"
           transform="translate(139.8457,121.2773)"><path
             d="m 0,0 c 0,-0.904 -0.73,-1.635 -1.632,-1.635 -0.907,0 -1.635,0.731 -1.635,1.635 0,0.906 0.728,1.635 1.635,1.635 C -0.73,1.635 0,0.906 0,0 Z"
             style="fill:none;stroke:#000000;stroke-width:0.75;stroke-linecap:round;stroke-linejoin:round;stroke-miterlimit:10;stroke-dasharray:none;stroke-opacity:1"
             id="path186"
             inkscape:connector-curvature="0" /></g><g
           id="g188"
           transform="translate(134.5029,125.7285)"><path
             d="M 0,0 3.173,-3.105 2.54,-3.736 -0.633,-0.63 0,0 Z"
             style="fill:#000000;fill-opacity:1;fill-rule:nonzero;stroke:none"
             id="path190"
             inkscape:connector-curvature="0" /></g><g
           id="g192"
           transform="translate(134.5029,125.7285)"><path
             d="M 0,0 3.173,-3.105 2.54,-3.736 -0.633,-0.63 0,0 Z"
             style="fill:none;stroke:#000000;stroke-width:0.75;stroke-linecap:round;stroke-linejoin:round;stroke-miterlimit:10;stroke-dasharray:none;stroke-opacity:1"
             id="path194"
             inkscape:connector-curvature="0" /></g></g></g><text
       transform="matrix(0.77272,0,0,-1,132.3242,98.6221)"
       style="font-variant:normal;font-weight:normal;font-stretch:semi-condensed;font-size:10px;font-family:'Arial Narrow';-inkscape-font-specification:ArialNarrow;writing-mode:lr-tb;fill:#231f20;fill-opacity:1;fill-rule:nonzero;stroke:none"
       id="text196"><tspan
         x="0 5.4699998 11.39"
         y="0"
         sodipodi:role="line"
         id="tspan198">AUX</tspan></text>
<g
       id="g200"><g
         id="g202"
         clip-path="url(#clipPath204)"><g
           id="g208"
           transform="translate(134.0488,84.9844)"><path
             d="M 0,0 -2.317,0"
             style="fill:none;stroke:#000000;stroke-width:0.5;stroke-linecap:round;stroke-linejoin:round;stroke-miterlimit:10;stroke-dasharray:none;stroke-opacity:1"
             id="path210"
             inkscape:connector-curvature="0" /></g><g
           id="g212"
           transform="translate(134.0488,83.8838)"><path
             d="M 0,0 -2.317,0"
             style="fill:none;stroke:#000000;stroke-width:0.5;stroke-linecap:round;stroke-linejoin:round;stroke-miterlimit:10;stroke-dasharray:none;stroke-opacity:1"
             id="path214"
             inkscape:connector-curvature="0" /></g><g
           id="g216"
           transform="translate(134.0488,82.7832)"><path
             d="M 0,0 -2.317,0"
             style="fill:none;stroke:#000000;stroke-width:0.5;stroke-linecap:round;stroke-linejoin:round;stroke-miterlimit:10;stroke-dasharray:none;stroke-opacity:1"
             id="path218"
             inkscape:connector-curvature="0" /></g><g
           id="g220"
           transform="translate(134.0488,81.6826)"><path
             d="M 0,0 -2.317,0"
             style="fill:none;stroke:#000000;stroke-width:0.5;stroke-linecap:round;stroke-linejoin:round;stroke-miterlimit:10;stroke-dasharray:none;stroke-opacity:1"
             id="path222"
             inkscape:connector-curvature="0" /></g><g
           id="g224"
           transform="translate(134.0488,80.582)"><path
             d="M 0,0 -2.317,0"
             style="fill:none;stroke:#000000;stroke-width:0.5;stroke-linecap:round;stroke-linejoin:round;stroke-miterlimit:10;stroke-dasharray:none;stroke-opacity:1"
             id="path226"
             inkscape:connector-curvature="0" /></g><g
           id="g228"
           transform="translate(141.9316,84.9844)"><path
             d="M 0,0 -1.971,-0.739"
             style="fill:none;stroke:#000000;stroke-width:0.5;stroke-linecap:round;stroke-linejoin:round;stroke-miterlimit:10;stroke-dasharray:none;stroke-opacity:1"
             id="path230"
             inkscape:connector-curvature="0" /></g><g
           id="g232"
           transform="translate(141.9316,83.8838)"><path
             d="M 0,0 -1.971,-0.739"
             style="fill:none;stroke:#000000;stroke-width:0.5;stroke-linecap:round;stroke-linejoin:round;stroke-miterlimit:10;stroke-dasharray:none;stroke-opacity:1"
             id="path234"
             inkscape:connector-curvature="0" /></g><g
           id="g236"
           transform="translate(141.9316,82.7832)"><path
             d="M 0,0 -1.971,-0.74"
             style="fill:none;stroke:#000000;stroke-width:0.5;stroke-linecap:round;stroke-linejoin:round;stroke-miterlimit:10;stroke-dasharray:none;stroke-opacity:1"
             id="path238"
             inkscape:connector-curvature="0" /></g><g
           id="g240"
           transform="translate(141.9316,81.6826)"><path
             d="M 0,0 -1.971,-0.739"
             style="fill:none;stroke:#000000;stroke-width:0.5;stroke-linecap:round;stroke-linejoin:round;stroke-miterlimit:10;stroke-dasharray:none;stroke-opacity:1"
             id="path242"
             inkscape:connector-curvature="0" /></g><g
           id="g244"
           transform="translate(141.9316,80.582)"><path
             d="M 0,0 -1.971,-0.738"
             style="fill:none;stroke:#000000;stroke-width:0.5;stroke-linecap:round;stroke-linejoin:round;stroke-miterlimit:10;stroke-dasharray:none;stroke-opacity:1"
             id="path246"
             inkscape:connector-curvature="0" /></g><g
           id="g248"
           transform="translate(138.3623,82.7734)"><path
             d="M 0,0 C 0,1.234 -1.406,2.237 -3.142,2.237 -3.229,2.237 -3.313,2.223 -3.399,2.218 -3.612,1.571 -3.74,0.816 -3.74,0 c 0,-0.817 0.128,-1.572 0.341,-2.219 0.086,-0.006 0.169,-0.019 0.257,-0.019 C -1.406,-2.238 0,-1.236 0,0 Z"
             style="fill:none;stroke:#000000;stroke-width:0.5;stroke-linecap:round;stroke-linejoin:round;stroke-miterlimit:10;stroke-dasharray:none;stroke-opacity:1"
             id="path250"
             inkscape:connector-curvature="0" /></g><g
           id="g252"
           transform="translate(146.2471,82.7734)"><path
             d="m 0,0 c 0,1.234 -1.408,2.237 -3.144,2.237 -0.087,0 -0.17,-0.014 -0.257,-0.019 C -3.614,1.571 -3.742,0.816 -3.742,0 c 0,-0.817 0.128,-1.572 0.341,-2.219 0.087,-0.006 0.17,-0.019 0.257,-0.019 C -1.408,-2.238 0,-1.236 0,0 Z"
             style="fill:none;stroke:#000000;stroke-width:0.5;stroke-linecap:round;stroke-linejoin:round;stroke-miterlimit:10;stroke-dasharray:none;stroke-opacity:1"
             id="path254"
             inkscape:connector-curvature="0" /></g><g
           id="g256"
           transform="translate(137.0874,66.5098)"><path
             d="m 0,0 0,-0.863 -3.189,0 0.002,-1.136 -1.166,0 0,-2.066 -0.917,0 0,1.855 -0.736,0.002 0,-4.902 0.736,0.002 0,1.854 0.917,0 0,-2.031 2.33,0.001 2.387,-2.032 5.315,0 0.002,2.195 1.024,0.001 0,-1.668 0.925,10e-4 0,5.544 -0.925,0.002 0,-1.673 -1.026,10e-4 0,2.197 -1.582,-10e-4 0,1.852 -3.188,0.001 0,0.866 L 0,0 Z"
             style="fill:none;stroke:#000000;stroke-width:0.5;stroke-linecap:round;stroke-linejoin:round;stroke-miterlimit:10;stroke-dasharray:none;stroke-opacity:1"
             id="path258"
             inkscape:connector-curvature="0" /></g><g
           id="g260"
           transform="translate(134.124,67.0293)"><path
             d="M 0,0 6.756,-0.001"
             style="fill:none;stroke:#000000;stroke-width:0.5;stroke-linecap:round;stroke-linejoin:miter;stroke-miterlimit:10;stroke-dasharray:none;stroke-opacity:1"
             id="path262"
             inkscape:connector-curvature="0" /></g><g
           id="g264"
           transform="translate(104.9033,60.8008)"><path
             d="M 0,0 C 0.642,0.25 1.36,-0.066 1.61,-0.705 L 2.554,-3.127 C 2.631,-3.331 2.626,-3.558 2.54,-3.756 2.452,-3.955 2.288,-4.113 2.085,-4.19 l -5.792,-2.257 c -0.202,-0.077 -0.431,-0.073 -0.63,0.013 -0.198,0.088 -0.354,0.252 -0.434,0.456 l -0.942,2.42 c -0.25,0.64 0.068,1.361 0.706,1.609 L 0,0 Z"
             style="fill:none;stroke:#000000;stroke-width:0.5;stroke-linecap:round;stroke-linejoin:round;stroke-miterlimit:10;stroke-dasharray:none;stroke-opacity:1"
             id="path266"
             inkscape:connector-curvature="0" /></g><g
           id="g268"
           transform="translate(103.0596,57.9883)"><path
             d="M 0,0 C 0.631,0.243 1.286,0.067 1.46,-0.388 1.636,-0.844 1.267,-1.411 0.636,-1.655 0.007,-1.898 -0.649,-1.723 -0.823,-1.266 -0.999,-0.81 -0.63,-0.244 0,0 Z"
             style="fill:none;stroke:#000000;stroke-width:0.5;stroke-linecap:round;stroke-linejoin:round;stroke-miterlimit:10;stroke-dasharray:none;stroke-opacity:1"
             id="path270"
             inkscape:connector-curvature="0" /></g><g
           id="g272"
           transform="translate(102.6914,60.4971)"><path
             d="M 0,0 -3.072,7.712 -3.991,7.345 -4.34,4.113 -2.993,3.375 -3.364,1.971 -2.505,1.661 -2.877,0.804 -2.022,-0.912"
             style="fill:none;stroke:#000000;stroke-width:0.5;stroke-linecap:round;stroke-linejoin:round;stroke-miterlimit:4;stroke-dasharray:none;stroke-opacity:1"
             id="path274"
             inkscape:connector-curvature="0" /></g><g
           id="g276"
           transform="translate(99.0654,66.5156)"><path
             d="m 0,0 2.362,-5.932 0.491,-0.306 0.06,0.488 -2.48,6.178"
             style="fill:none;stroke:#000000;stroke-width:0.5;stroke-linecap:round;stroke-linejoin:round;stroke-miterlimit:4;stroke-dasharray:none;stroke-opacity:1"
             id="path278"
             inkscape:connector-curvature="0" /></g><g
           id="g280"
           transform="translate(101.4312,101.3594)"><path
             d="M 0,0 C 0.232,0 0.42,0.187 0.42,0.42 0.42,0.65 0.232,0.84 0,0.84 -0.232,0.84 -0.422,0.65 -0.422,0.42 -0.422,0.187 -0.232,0 0,0 m -1.09,-0.281 c -0.132,0.205 -0.23,0.437 -0.23,0.701 0,0.044 0.021,0.079 0.025,0.121 C -4.51,0.468 -5.168,1.997 -5.634,2.637 -6.112,3.296 -6.72,5.812 -2.756,7.191 -1.378,7.673 0.958,6.472 -0.3,4.555 -1.376,2.916 -1.047,1.979 -0.633,1.558 c 0.192,0.103 0.4,0.18 0.632,0.18 0.064,0 0.119,-0.026 0.182,-0.037 C 0.079,4.983 1.631,5.645 2.276,6.113 2.936,6.592 5.451,7.198 6.831,3.236 7.311,1.857 6.112,-0.479 4.194,0.778 2.474,1.909 1.529,1.492 1.138,1.049 1.241,0.859 1.318,0.653 1.318,0.42 1.318,0.376 1.297,0.341 1.294,0.299 4.62,0.418 5.281,-1.149 5.752,-1.799 6.231,-2.456 6.838,-4.973 2.876,-6.353 1.498,-6.833 -0.84,-5.632 0.418,-3.715 1.537,-2.011 1.141,-1.067 0.702,-0.666 0.496,-0.802 0.264,-0.9 -0.001,-0.9 c -0.021,0 -0.039,0.012 -0.062,0.014 0.093,-3.26 -1.452,-3.92 -2.095,-4.387 -0.659,-0.479 -3.175,-1.085 -4.555,2.877 -0.478,1.378 0.719,3.714 2.637,2.456 1.626,-1.066 2.555,-0.752 2.986,-0.341"
             style="fill:#000000;fill-opacity:1;fill-rule:nonzero;stroke:none"
             id="path282"
             inkscape:connector-curvature="0" /></g><g
           id="g284"
           transform="translate(102.2207,137.334)"><path
             d="m 0,0 0,0.655 -1.978,-0.323 0,-0.008 L 0,0 Z m -2.741,-0.086 0,0.83 4.397,0.886 0,-0.704 -0.93,-0.155 0,-0.889 0.93,-0.152 0,-0.705 -4.397,0.889 z"
             style="fill:#1d1d1b;fill-opacity:1;fill-rule:nonzero;stroke:none"
             id="path286"
             inkscape:connector-curvature="0" /></g><g
           id="g288"
           transform="translate(103.2231,139.8691)"><path
             d="m 0,0 0,0.266 c 0,0.322 -0.154,0.539 -0.665,0.539 -0.511,0 -0.657,-0.217 -0.657,-0.512 L -1.322,0 0,0 Z m -1.939,0 0,0.191 c 0,0.375 -0.168,0.541 -0.58,0.541 -0.417,0 -0.571,-0.154 -0.571,-0.487 l 0,-0.245 1.151,0 z m -1.805,-0.672 0,1.127 c 0,0.555 0.27,0.952 1.117,0.952 0.471,0 0.835,-0.173 0.96,-0.507 l 0.009,0 c 0.072,0.37 0.437,0.608 1.024,0.608 0.691,0 1.287,-0.254 1.287,-1.045 l 0,-1.135 -4.397,0 z"
             style="fill:#1d1d1b;fill-opacity:1;fill-rule:nonzero;stroke:none"
             id="path290"
             inkscape:connector-curvature="0" /></g><g
           id="g292"
           transform="translate(102.5044,142.3418)"><path
             d="m 0,0 0.128,0 c 0.413,0 0.678,0.09 0.678,0.445 0,0.207 -0.172,0.403 -0.54,0.403 -0.402,0 -0.55,-0.153 -0.755,-0.6 -0.269,-0.6 -0.596,-0.873 -1.33,-0.873 -0.857,0 -1.293,0.398 -1.293,1.033 0,0.598 0.339,1.037 1.183,1.037 l 0.121,0 0,-0.646 c -0.409,0 -0.651,-0.109 -0.651,-0.369 0,-0.305 0.252,-0.383 0.514,-0.383 0.267,0 0.436,0.058 0.594,0.348 l 0.298,0.521 c 0.286,0.505 0.626,0.634 1.163,0.634 0.931,0 1.349,-0.428 1.349,-1.159 0,-0.764 -0.469,-1.063 -1.282,-1.063 L 0,-0.672 0,0 Z"
             style="fill:#1d1d1b;fill-opacity:1;fill-rule:nonzero;stroke:none"
             id="path294"
             inkscape:connector-curvature="0" /></g><g
           id="g296"
           transform="translate(101.7637,135.1289)"><path
             d="m 0,0 c -2.782,0 -5.045,2.265 -5.045,5.05 0,2.782 2.263,5.049 5.045,5.049 2.785,0 5.049,-2.267 5.049,-5.049 C 5.049,2.265 2.785,0 0,0 m 0,-0.678 c 3.16,0 5.727,2.57 5.727,5.728 0,3.157 -2.567,5.725 -5.727,5.725 -3.156,0 -5.723,-2.568 -5.723,-5.725 0,-3.158 2.567,-5.728 5.723,-5.728"
             style="fill:#1d1d1b;fill-opacity:1;fill-rule:nonzero;stroke:none"
             id="path298"
             inkscape:connector-curvature="0" /></g><g
           id="g300"
           transform="translate(97.4746,144.8359)"><path
             d="M 0,0 C 1.186,1.089 2.711,1.691 4.289,1.691 5.87,1.691 7.393,1.089 8.58,0 L 9.039,0.496 C 7.729,1.706 6.04,2.371 4.289,2.371 2.54,2.371 0.855,1.706 -0.46,0.496 L 0,0 Z"
             style="fill:#1d1d1b;fill-opacity:1;fill-rule:nonzero;stroke:none"
             id="path302"
             inkscape:connector-curvature="0" /></g><g
           id="g304"
           transform="translate(101.7637,133.1484)"><path
             d="M 0,0 C 1.75,0 3.437,0.668 4.75,1.877 L 4.291,2.375 C 3.103,1.281 1.578,0.678 0,0.678 c -1.578,0 -3.101,0.603 -4.289,1.697 L -4.75,1.877 C -3.434,0.668 -1.749,0 0,0"
             style="fill:#1d1d1b;fill-opacity:1;fill-rule:nonzero;stroke:none"
             id="path306"
             inkscape:connector-curvature="0" /></g><g
           id="g308"
           transform="translate(132.459,40.1396)"><path
             d="m 0,0 -0.46,0 0,7.558 0.46,0 C 0.065,5.004 1.957,4.314 4.38,4.314 l 0.471,-0.026 0.604,-0.043 0.782,0 0.756,0 0.569,0 0.437,0 0.484,0 0.786,0 0.824,0.027 c 1.043,0 1.168,0.127 1.22,0.497 l 0.348,0 0,-2.019 -0.348,0 c 0,0.289 -0.187,0.467 -1.228,0.467 L 8.491,3.296 6.952,3.342 5.933,3.296 4.948,3.172 3.852,2.965 C 1.724,2.963 0.065,2.568 0,0.017"
             style="fill:#000000;fill-opacity:1;fill-rule:nonzero;stroke:#000000;stroke-width:0.25;stroke-linecap:round;stroke-linejoin:round;stroke-miterlimit:10;stroke-dasharray:none;stroke-opacity:1"
             id="path310"
             inkscape:connector-curvature="0" /></g><g
           id="g312"
           transform="translate(142.5518,42.0234)"><path
             d="m 0,0 c 0,-0.806 -1.672,-1.459 -3.734,-1.459 -2.061,0 -3.733,0.653 -3.733,1.459 0,0.806 1.672,1.458 3.733,1.458 C -1.672,1.458 0,0.806 0,0 Z"
             style="fill:none;stroke:#000000;stroke-width:1;stroke-linecap:round;stroke-linejoin:round;stroke-miterlimit:10;stroke-dasharray:none;stroke-opacity:1"
             id="path314"
             inkscape:connector-curvature="0" /></g></g></g><g
       id="g316"
       transform="translate(43.5356,52.7441)"><path
         d="M 0,0 50.892,0"
         style="fill:none;stroke:#ffffff;stroke-width:3;stroke-linecap:round;stroke-linejoin:miter;stroke-miterlimit:4;stroke-dasharray:none;stroke-opacity:1"
         id="path318"
         inkscape:connector-curvature="0" /></g><g
       id="g320"
       transform="translate(94.4272,52.7441)"><path
         d="M 0,0 0,0"
         style="fill:none;stroke:#ffffff;stroke-width:3.75;stroke-linecap:round;stroke-linejoin:miter;stroke-miterlimit:4;stroke-dasharray:none;stroke-opacity:1"
         id="path322"
         inkscape:connector-curvature="0" /></g><g
       id="g324"
       transform="translate(42.3818,52.7441)"><path
         d="M 0,0 52.045,0"
         style="fill:none;stroke:#211f1f;stroke-width:0.5;stroke-linecap:round;stroke-linejoin:miter;stroke-miterlimit:4;stroke-dasharray:none;stroke-opacity:1"
         id="path326"
         inkscape:connector-curvature="0" /></g><g
       id="g328"
       transform="translate(94.4272,52.7441)"><path
         d="M 0,0 0,0"
         style="fill:none;stroke:#211f1f;stroke-width:1.5;stroke-linecap:round;stroke-linejoin:miter;stroke-miterlimit:4;stroke-dasharray:none;stroke-opacity:1"
         id="path330"
         inkscape:connector-curvature="0" /></g><g
       id="g332"
       transform="translate(42.3813,91.0137)"><path
         d="M 0,0 51.185,0"
         style="fill:none;stroke:#ffffff;stroke-width:3;stroke-linecap:round;stroke-linejoin:miter;stroke-miterlimit:4;stroke-dasharray:none;stroke-opacity:1"
         id="path334"
         inkscape:connector-curvature="0" /></g><g
       id="g336"
       transform="translate(93.5659,91.0137)"><path
         d="M 0,0 0,0"
         style="fill:none;stroke:#ffffff;stroke-width:3.75;stroke-linecap:round;stroke-linejoin:miter;stroke-miterlimit:4;stroke-dasharray:none;stroke-opacity:1"
         id="path338"
         inkscape:connector-curvature="0" /></g><g
       id="g340"
       transform="translate(42.3813,91.0137)"><path
         d="M 0,0 51.185,0"
         style="fill:none;stroke:#211f1f;stroke-width:0.5;stroke-linecap:round;stroke-linejoin:miter;stroke-miterlimit:4;stroke-dasharray:none;stroke-opacity:1"
         id="path342"
         inkscape:connector-curvature="0" /></g><g
       id="g344"
       transform="translate(93.5659,91.0137)"><path
         d="M 0,0 0,0"
         style="fill:none;stroke:#211f1f;stroke-width:1.5;stroke-linecap:round;stroke-linejoin:miter;stroke-miterlimit:4;stroke-dasharray:none;stroke-opacity:1"
         id="path346"
         inkscape:connector-curvature="0" /></g><g
       id="g348"
       transform="translate(45.9707,131.8213)"><path
         d="M 0,0 47.593,0"
         style="fill:none;stroke:#ffffff;stroke-width:3;stroke-linecap:round;stroke-linejoin:miter;stroke-miterlimit:4;stroke-dasharray:none;stroke-opacity:1"
         id="path350"
         inkscape:connector-curvature="0" /></g><g
       id="g352"
       transform="translate(93.564,131.8213)"><path
         d="M 0,0 0,0"
         style="fill:none;stroke:#ffffff;stroke-width:3.75;stroke-linecap:round;stroke-linejoin:miter;stroke-miterlimit:4;stroke-dasharray:none;stroke-opacity:1"
         id="path354"
         inkscape:connector-curvature="0" /></g><g
       id="g356"
       transform="translate(42.3799,131.8213)"><path
         d="M 0,0 51.184,0"
         style="fill:none;stroke:#211f1f;stroke-width:0.5;stroke-linecap:round;stroke-linejoin:miter;stroke-miterlimit:4;stroke-dasharray:none;stroke-opacity:1"
         id="path358"
         inkscape:connector-curvature="0" /></g><g
       id="g360"
       transform="translate(93.564,131.8213)"><path
         d="M 0,0 0,0"
         style="fill:none;stroke:#211f1f;stroke-width:1.5;stroke-linecap:round;stroke-linejoin:miter;stroke-miterlimit:4;stroke-dasharray:none;stroke-opacity:1"
         id="path362"
         inkscape:connector-curvature="0" /></g><text
       transform="matrix(1,0,0,-1,30.2393,49.0288)"
       style="font-variant:normal;font-weight:bold;font-stretch:normal;font-size:12px;font-family:'Swiss 721 SWA';-inkscape-font-specification:Helvetica-Bold;writing-mode:lr-tb;fill:#231f20;fill-opacity:1;fill-rule:nonzero;stroke:none"
       id="text364"><tspan
         x="0"
         y="0"
         id="tspan366">9</tspan></text>
<g
       id="g368"
       transform="translate(198.1299,82.3828)"><path
         d="M 0,0 -50.335,0"
         style="fill:none;stroke:#ffffff;stroke-width:3;stroke-linecap:round;stroke-linejoin:miter;stroke-miterlimit:4;stroke-dasharray:none;stroke-opacity:1"
         id="path370"
         inkscape:connector-curvature="0" /></g><g
       id="g372"
       transform="translate(147.7949,82.3828)"><path
         d="M 0,0 0,0"
         style="fill:none;stroke:#ffffff;stroke-width:3.75;stroke-linecap:round;stroke-linejoin:miter;stroke-miterlimit:4;stroke-dasharray:none;stroke-opacity:1"
         id="path374"
         inkscape:connector-curvature="0" /></g><g
       id="g376"
       transform="translate(198.1299,82.3828)"><path
         d="M 0,0 -50.335,0"
         style="fill:none;stroke:#211f1f;stroke-width:0.5;stroke-linecap:round;stroke-linejoin:miter;stroke-miterlimit:4;stroke-dasharray:none;stroke-opacity:1"
         id="path378"
         inkscape:connector-curvature="0" /></g><g
       id="g380"
       transform="translate(147.7949,82.3828)"><path
         d="M 0,0 0,0"
         style="fill:none;stroke:#211f1f;stroke-width:1.5;stroke-linecap:round;stroke-linejoin:miter;stroke-miterlimit:4;stroke-dasharray:none;stroke-opacity:1"
         id="path382"
         inkscape:connector-curvature="0" /></g><text
       transform="matrix(1,0,0,-1,30.2393,128.1045)"
       style="font-variant:normal;font-weight:bold;font-stretch:normal;font-size:12px;font-family:'Swiss 721 SWA';-inkscape-font-specification:Helvetica-Bold;writing-mode:lr-tb;fill:#231f20;fill-opacity:1;fill-rule:nonzero;stroke:none"
       id="text384"><tspan
         x="0"
         y="0"
         id="tspan386">7</tspan><tspan
         x="0"
         y="40.860001"
         id="tspan388">8</tspan></text>
<g
       id="g390"
       transform="translate(198.1289,101.3813)"><path
         d="M 0,0 -50.336,0"
         style="fill:none;stroke:#ffffff;stroke-width:3;stroke-linecap:round;stroke-linejoin:miter;stroke-miterlimit:4;stroke-dasharray:none;stroke-opacity:1"
         id="path392"
         inkscape:connector-curvature="0" /></g><g
       id="g394"
       transform="translate(147.793,101.3813)"><path
         d="M 0,0 0,0"
         style="fill:none;stroke:#ffffff;stroke-width:3.75;stroke-linecap:round;stroke-linejoin:miter;stroke-miterlimit:4;stroke-dasharray:none;stroke-opacity:1"
         id="path396"
         inkscape:connector-curvature="0" /></g><g
       id="g398"
       transform="translate(198.1289,101.3813)"><path
         d="M 0,0 -50.336,0"
         style="fill:none;stroke:#211f1f;stroke-width:0.5;stroke-linecap:round;stroke-linejoin:miter;stroke-miterlimit:4;stroke-dasharray:none;stroke-opacity:1"
         id="path400"
         inkscape:connector-curvature="0" /></g><g
       id="g402"
       transform="translate(147.793,101.3813)"><path
         d="M 0,0 0,0"
         style="fill:none;stroke:#211f1f;stroke-width:1.5;stroke-linecap:round;stroke-linejoin:miter;stroke-miterlimit:4;stroke-dasharray:none;stroke-opacity:1"
         id="path404"
         inkscape:connector-curvature="0" /></g><g
       id="g406"
       transform="translate(198.1299,121.4102)"><path
         d="M 0,0 -50.336,-0.035"
         style="fill:none;stroke:#ffffff;stroke-width:3;stroke-linecap:round;stroke-linejoin:miter;stroke-miterlimit:4;stroke-dasharray:none;stroke-opacity:1"
         id="path408"
         inkscape:connector-curvature="0" /></g><g
       id="g410"
       transform="translate(147.7939,121.375)"><path
         d="M 0,0 0,0"
         style="fill:none;stroke:#ffffff;stroke-width:3.75;stroke-linecap:round;stroke-linejoin:miter;stroke-miterlimit:4;stroke-dasharray:none;stroke-opacity:1"
         id="path412"
         inkscape:connector-curvature="0" /></g><g
       id="g414"
       transform="translate(198.1299,121.4102)"><path
         d="M 0,0 -50.336,-0.035"
         style="fill:none;stroke:#211f1f;stroke-width:0.5;stroke-linecap:round;stroke-linejoin:miter;stroke-miterlimit:4;stroke-dasharray:none;stroke-opacity:1"
         id="path416"
         inkscape:connector-curvature="0" /></g><g
       id="g418"
       transform="translate(147.7939,121.375)"><path
         d="M 0,0 0,0"
         style="fill:none;stroke:#211f1f;stroke-width:1.5;stroke-linecap:round;stroke-linejoin:miter;stroke-miterlimit:4;stroke-dasharray:none;stroke-opacity:1"
         id="path420"
         inkscape:connector-curvature="0" /></g><g
       id="g422"
       transform="translate(198.1299,140.3809)"><path
         d="M 0,0 -50.338,0"
         style="fill:none;stroke:#ffffff;stroke-width:3;stroke-linecap:round;stroke-linejoin:miter;stroke-miterlimit:4;stroke-dasharray:none;stroke-opacity:1"
         id="path424"
         inkscape:connector-curvature="0" /></g><g
       id="g426"
       transform="translate(147.792,140.3809)"><path
         d="M 0,0 0,0"
         style="fill:none;stroke:#ffffff;stroke-width:3.75;stroke-linecap:round;stroke-linejoin:miter;stroke-miterlimit:4;stroke-dasharray:none;stroke-opacity:1"
         id="path428"
         inkscape:connector-curvature="0" /></g><g
       id="g430"
       transform="translate(198.1299,140.3809)"><path
         d="M 0,0 -50.338,0"
         style="fill:none;stroke:#211f1f;stroke-width:0.5;stroke-linecap:round;stroke-linejoin:miter;stroke-miterlimit:4;stroke-dasharray:none;stroke-opacity:1"
         id="path432"
         inkscape:connector-curvature="0" /></g><g
       id="g434"
       transform="translate(147.792,140.3809)"><path
         d="M 0,0 0,0"
         style="fill:none;stroke:#211f1f;stroke-width:1.5;stroke-linecap:round;stroke-linejoin:miter;stroke-miterlimit:4;stroke-dasharray:none;stroke-opacity:1"
         id="path436"
         inkscape:connector-curvature="0" /></g><text
       transform="matrix(1,0,0,-1,203.8818,97.564)"
       style="font-variant:normal;font-weight:bold;font-stretch:normal;font-size:12px;font-family:'Swiss 721 SWA';-inkscape-font-specification:Helvetica-Bold;writing-mode:lr-tb;fill:#231f20;fill-opacity:1;fill-rule:nonzero;stroke:none"
       id="text438"><tspan
         x="0"
         y="0"
         id="tspan440">3</tspan><tspan
         x="0"
         y="-39.060001"
         id="tspan442">1</tspan><tspan
         x="0"
         y="-20.195999"
         id="tspan444">2</tspan></text>
<g
       id="g446"
       transform="translate(198.1299,62.3828)"><path
         d="M 0,0 -50.335,0"
         style="fill:none;stroke:#ffffff;stroke-width:3;stroke-linecap:round;stroke-linejoin:miter;stroke-miterlimit:4;stroke-dasharray:none;stroke-opacity:1"
         id="path448"
         inkscape:connector-curvature="0" /></g><g
       id="g450"
       transform="translate(147.7949,62.3828)"><path
         d="M 0,0 0,0"
         style="fill:none;stroke:#ffffff;stroke-width:3.75;stroke-linecap:round;stroke-linejoin:miter;stroke-miterlimit:4;stroke-dasharray:none;stroke-opacity:1"
         id="path452"
         inkscape:connector-curvature="0" /></g><g
       id="g454"
       transform="translate(198.1299,62.3828)"><path
         d="M 0,0 -50.335,0"
         style="fill:none;stroke:#211f1f;stroke-width:0.5;stroke-linecap:round;stroke-linejoin:miter;stroke-miterlimit:4;stroke-dasharray:none;stroke-opacity:1"
         id="path456"
         inkscape:connector-curvature="0" /></g><g
       id="g458"
       transform="translate(147.7949,62.3828)"><path
         d="M 0,0 0,0"
         style="fill:none;stroke:#211f1f;stroke-width:1.5;stroke-linecap:round;stroke-linejoin:miter;stroke-miterlimit:4;stroke-dasharray:none;stroke-opacity:1"
         id="path460"
         inkscape:connector-curvature="0" /></g><g
       id="g462"
       transform="translate(198.1299,43.3828)"><path
         d="M 0,0 -50.335,0"
         style="fill:none;stroke:#ffffff;stroke-width:3;stroke-linecap:round;stroke-linejoin:miter;stroke-miterlimit:4;stroke-dasharray:none;stroke-opacity:1"
         id="path464"
         inkscape:connector-curvature="0" /></g><g
       id="g466"
       transform="translate(147.7949,43.3828)"><path
         d="M 0,0 0,0"
         style="fill:none;stroke:#ffffff;stroke-width:3.75;stroke-linecap:round;stroke-linejoin:miter;stroke-miterlimit:4;stroke-dasharray:none;stroke-opacity:1"
         id="path468"
         inkscape:connector-curvature="0" /></g><g
       id="g470"
       transform="translate(198.1299,43.3828)"><path
         d="M 0,0 -50.335,0"
         style="fill:none;stroke:#211f1f;stroke-width:0.5;stroke-linecap:round;stroke-linejoin:miter;stroke-miterlimit:4;stroke-dasharray:none;stroke-opacity:1"
         id="path472"
         inkscape:connector-curvature="0" /></g><g
       id="g474"
       transform="translate(147.7949,43.3828)"><path
         d="M 0,0 0,0"
         style="fill:none;stroke:#211f1f;stroke-width:1.5;stroke-linecap:round;stroke-linejoin:miter;stroke-miterlimit:4;stroke-dasharray:none;stroke-opacity:1"
         id="path476"
         inkscape:connector-curvature="0" /></g><text
       transform="matrix(1,0,0,-1,203.8818,78.3765)"
       style="font-variant:normal;font-weight:bold;font-stretch:normal;font-size:12px;font-family:'Swiss 721 SWA';-inkscape-font-specification:Helvetica-Bold;writing-mode:lr-tb;fill:#231f20;fill-opacity:1;fill-rule:nonzero;stroke:none"
       id="text478"><tspan
         x="0"
         y="0"
         id="tspan480">4</tspan><tspan
         x="0"
         y="19.752001"
         id="tspan482">5</tspan><tspan
         x="0"
         y="38.568001"
         id="tspan484">6</tspan></text>
</g></svg>