<?xml version="1.0" encoding="UTF-8" standalone="no"?>
<!-- Created with Inkscape (http://www.inkscape.org/) -->

<svg
   xmlns:dc="http://purl.org/dc/elements/1.1/"
   xmlns:cc="http://creativecommons.org/ns#"
   xmlns:rdf="http://www.w3.org/1999/02/22-rdf-syntax-ns#"
   xmlns:svg="http://www.w3.org/2000/svg"
   xmlns="http://www.w3.org/2000/svg"
   xmlns:sodipodi="http://sodipodi.sourceforge.net/DTD/sodipodi-0.dtd"
   xmlns:inkscape="http://www.inkscape.org/namespaces/inkscape"
   id="svg30286"
   version="1.1"
   inkscape:version="0.91 r13725"
   xml:space="preserve"
   width="301.18124"
   height="230.315"
   viewBox="0 0 301.18124 230.315"
   sodipodi:docname="3880506.svg"><metadata
     id="metadata30292"><rdf:RDF><cc:Work
         rdf:about=""><dc:format>image/svg+xml</dc:format><dc:type
           rdf:resource="http://purl.org/dc/dcmitype/StillImage" /><dc:title></dc:title></cc:Work></rdf:RDF></metadata><defs
     id="defs30290" /><sodipodi:namedview
     pagecolor="#ffffff"
     bordercolor="#666666"
     borderopacity="1"
     objecttolerance="10"
     gridtolerance="10"
     guidetolerance="10"
     inkscape:pageopacity="0"
     inkscape:pageshadow="2"
     inkscape:window-width="640"
     inkscape:window-height="480"
     id="namedview30288"
     showgrid="false"
     inkscape:zoom="5.2493324"
     inkscape:cx="150.59062"
     inkscape:cy="115.1575"
     inkscape:window-x="0"
     inkscape:window-y="0"
     inkscape:window-maximized="1"
     inkscape:current-layer="g30294" /><g
     id="g30294"
     inkscape:groupmode="layer"
     inkscape:label="3880506"
     transform="matrix(1.25,0,0,-1.25,0,230.315)"><g
       id="g30296"
       transform="translate(216.7998,39.0762)"><path
         d="m 0,0 0,1.1 m -5.8,-9.9 1,0.5 M -1.7,4.899 -30.8,21.7 M -38.899,7.5 -9.8,-9.2 M -30.5,24.399 -124.7,78.8 M -135.3,60.3 -41.1,6 m -75.9,71.1 0,1.1 m -14,-24.3 1,0.6 m 8.9,32.8 -48.1,27.8 M -189.1,80.7 -141,52.9 m -52.2,38.1 0,-1.2 m 14.1,24.3 -1,-0.6 M -5.8,-8.8 -6,-9 l -0.8,-0.3 -0.8,-0.301 -0.799,0 -0.701,0.101 -0.7,0.2 -0.5,0.4 -0.5,0.6 -0.3,0.6 -0.299,0.8 -0.101,0.9 0,1 0.101,1 0.299,1.1 0.3,1.1 0.5,1 0.5,1.1 0.7,1 0.701,0.9 0.799,0.8 0.8,0.8 0.8,0.5 0.9,0.5 0.8,0.3 0.8,0.1 0.7,0 L -2.1,5.1 -1.5,4.7 -1,4.3 -0.5,3.7 -0.2,2.899 -0.1,2.1 0,1.1 M 0,0 -0.1,0.8 -0.2,1.6 -0.5,2.2 -1,2.7 -1.5,3.1 -2.1,3.3 -2.7,3.399 -3.399,3.3 -4.2,3 -5,2.6 -5.7,2.1 -6.399,1.399 -7.1,0.6 l -0.7,-0.8 -0.5,-1 -0.5,-0.901 -0.3,-1 -0.299,-1 -0.101,-1 0,-0.799 0.101,-0.8 0.299,-0.7 0.3,-0.6 0.5,-0.5 0.5,-0.3 0.7,-0.1 0.701,0 0.699,0.2 0.7,0.3 0.8,0.5 0.801,0.6 0.699,0.699 0.6,0.901 0.6,0.9 0.5,0.9 0.5,1 0.3,1 0.1,1 L 0,0 m -38.899,7.5 -0.201,0.2 -0.5,0.4 -0.4,0.7 -0.3,0.7 -0.2,0.8 -0.1,1 m 0,0 0.1,1 0.2,1 0.3,1.099 0.4,1.101 0.5,1.1 0.6,1 0.7,0.9 0.7,0.899 0.8,0.801 0.8,0.6 0.9,0.599 0.8,0.301 0.8,0.3 0.8,0 0.7,-0.101 0.7,-0.199 m -5.7,-15.6 -1,-0.4 -0.899,-0.2 -0.901,0 -0.8,0.1 -0.799,0.2 -0.701,0.4 -0.5,0.6 -0.5,0.7 -0.4,0.8 -0.2,1 -0.1,1 0,1.099 0.1,1.201 0.2,1.2 0.4,1.2 0.5,1.3 0.5,1.2 0.701,1.2 0.799,1.1 0.8,1.099 0.901,0.901 0.899,0.9 1,0.699 0.9,0.601 1,0.399 0.9,0.301 0.9,0.199 0.901,-0.099 0.799,-0.1 0.701,-0.4 0.599,-0.5 0.5,-0.6 0.401,-0.7 0.299,-0.9 0.201,-1 0.099,-0.3 m -0.3,0.099 -0.299,0.701 -0.401,0.7 -0.5,0.5 -0.7,0.4 -0.7,0.199 -0.8,0.101 -0.8,-0.101 -0.9,-0.199 -0.9,-0.5 -0.9,-0.5 -0.899,-0.7 -0.901,-0.8 -0.8,-1 -0.7,-1 -0.7,-1.1 -0.6,-1.1 -0.5,-1.2 -0.299,-1.2 -0.301,-1.1 -0.1,-1.101 0,-1.099 0.1,-0.901 0.301,-0.899 0.299,-0.8 0.5,-0.6 0.6,-0.4 0.7,-0.301 0.7,-0.199 0.8,0 0.5,0.1 m -98.5,54 -0.1,0.1 -0.7,0.5 -0.5,0.6 -0.4,0.8 -0.3,0.9 -0.2,0.9 -0.1,1.1 m 0,0 0.1,1.2 0.2,1.2 0.3,1.2 0.4,1.2 0.5,1.3 0.7,1.2 0.7,1.1 0.8,1.1 0.8,1 0.9,0.9 1,0.8 0.9,0.7 1,0.5 0.9,0.4 1,0.2 0.8,0.1 0.9,-0.1 0.7,-0.3 0.3,-0.1 m -6.3,-24.9 -0.4,-0.2 -1.3,-0.6 -1.3,-0.5 -1.2,-0.4 -1.3,-0.1 -1.2,-0.1 -1.1,0.2 -1.1,0.2 -0.9,0.5 -0.9,0.6 -0.8,0.7 -0.7,0.9 -0.6,1 -0.5,1.1 -0.4,1.3 -0.2,1.3 -0.2,1.5 0,1.5 0.2,1.6 0.2,1.6 0.4,1.7 0.5,1.7 0.6,1.7 0.7,1.7 0.8,1.6 0.9,1.7 0.9,1.5 1.1,1.6 1.1,1.4 1.2,1.3 1.3,1.3 1.2,1.1 1.3,1 1.3,0.8 1.3,0.8 1.4,0.5 1.2,0.5 1.3,0.2 1.2,0.1 1.2,0 1.1,-0.2 1,-0.4 0.9,-0.5 0.9,-0.7 0.7,-0.8 0.7,-0.9 0.5,-1.1 0.4,-1.2 0.3,-1.3 0.2,-1.4 0.1,-1.5 m -0.2,-3.8 0.1,1.2 0.1,1.5 m 0,0 -0.1,1.4 -0.2,1.4 -0.3,1.2 -0.4,1.2 -0.5,1 -0.7,0.9 -0.8,0.7 -0.8,0.6 -1,0.5 -1,0.2 -1.1,0.2 -1.1,-0.1 -1.3,-0.2 -1.2,-0.3 -1.3,-0.5 -1.2,-0.7 -1.3,-0.8 -1.3,-1 -1.2,-1 -1.2,-1.2 -1.2,-1.3 -1.1,-1.4 -1,-1.5 -0.9,-1.5 -0.9,-1.6 -0.8,-1.6 -0.6,-1.7 -0.6,-1.6 -0.4,-1.7 -0.3,-1.6 -0.2,-1.6 -0.1,-1.5 0.1,-1.4 0.2,-1.4 0.3,-1.2 0.4,-1.2 0.6,-1 0.6,-0.9 0.8,-0.7 0.9,-0.6 0.9,-0.4 1,-0.3 1.1,-0.2 1.2,0.1 1.2,0.2 1.2,0.3 1.3,0.5 1.3,0.7 1.2,0.8 1,0.7 m -41.4,59.1 -0.1,0.1 -1,0.4 -1.1,0.3 -1.1,0.1 -1.2,0 -1.2,-0.2 -1.3,-0.4 -1.3,-0.5 -1.3,-0.6 -1.3,-0.8 -1.3,-0.9 -1.3,-1.1 -1.3,-1.2 -1.2,-1.3 -1.1,-1.4 -1.1,-1.4 -1.1,-1.6 -0.9,-1.6 -0.9,-1.6 -0.7,-1.7 -0.7,-1.7 -0.5,-1.7 -0.4,-1.7 -0.3,-1.6 -0.2,-1.6 -0.1,-1.6 m 0,0 0.1,-1.5 0.2,-1.4 0.3,-1.3 0.4,-1.2 0.5,-1 0.7,-1 0.7,-0.8 0.9,-0.7 0.3,-0.2 m -4.1,10.3 0.1,1.5 0.2,1.5 0.3,1.7 0.4,1.6 0.6,1.6 0.6,1.7 0.8,1.6 0.8,1.6 1,1.5 1,1.5 1.1,1.4 1.2,1.3 1.2,1.2 1.2,1.1 1.3,0.9 1.3,0.8"
         style="fill:none;stroke:#000000;stroke-width:0.79400003;stroke-linecap:round;stroke-linejoin:round;stroke-miterlimit:10;stroke-dasharray:none;stroke-opacity:1"
         id="path30298"
         inkscape:connector-curvature="0" /></g></g></svg>