<?xml version="1.0" encoding="UTF-8" standalone="no"?>
<!-- Created with Inkscape (http://www.inkscape.org/) -->

<svg
   xmlns:dc="http://purl.org/dc/elements/1.1/"
   xmlns:cc="http://creativecommons.org/ns#"
   xmlns:rdf="http://www.w3.org/1999/02/22-rdf-syntax-ns#"
   xmlns:svg="http://www.w3.org/2000/svg"
   xmlns="http://www.w3.org/2000/svg"
   xmlns:sodipodi="http://sodipodi.sourceforge.net/DTD/sodipodi-0.dtd"
   xmlns:inkscape="http://www.inkscape.org/namespaces/inkscape"
   id="svg17606"
   version="1.1"
   inkscape:version="0.91 r13725"
   xml:space="preserve"
   width="301.18124"
   height="230.315"
   viewBox="0 0 301.18124 230.315"
   sodipodi:docname="B00848.svg"><metadata
     id="metadata17612"><rdf:RDF><cc:Work
         rdf:about=""><dc:format>image/svg+xml</dc:format><dc:type
           rdf:resource="http://purl.org/dc/dcmitype/StillImage" /><dc:title></dc:title></cc:Work></rdf:RDF></metadata><defs
     id="defs17610"><clipPath
       clipPathUnits="userSpaceOnUse"
       id="clipPath17620"><path
         d="m 0,184.252 240.945,0 L 240.945,0 0,0 0,184.252 Z"
         id="path17622"
         inkscape:connector-curvature="0" /></clipPath><clipPath
       clipPathUnits="userSpaceOnUse"
       id="clipPath17988"><path
         d="m 0,184.252 240.945,0 L 240.945,0 0,0 0,184.252 Z"
         id="path17990"
         inkscape:connector-curvature="0" /></clipPath></defs><sodipodi:namedview
     pagecolor="#ffffff"
     bordercolor="#666666"
     borderopacity="1"
     objecttolerance="10"
     gridtolerance="10"
     guidetolerance="10"
     inkscape:pageopacity="0"
     inkscape:pageshadow="2"
     inkscape:window-width="640"
     inkscape:window-height="480"
     id="namedview17608"
     showgrid="false"
     inkscape:zoom="1.3503245"
     inkscape:cx="150.59062"
     inkscape:cy="115.1575"
     inkscape:window-x="0"
     inkscape:window-y="0"
     inkscape:window-maximized="1"
     inkscape:current-layer="g17614" /><g
     id="g17614"
     inkscape:groupmode="layer"
     inkscape:label="B00848"
     transform="matrix(1.25,0,0,-1.25,0,230.315)"><g
       id="g17616"><g
         id="g17618"
         clip-path="url(#clipPath17620)"><g
           id="g17624"
           transform="translate(40.1051,79.3976)"><path
             d="m 0,0 c -2.048,-0.566 -2.972,-3.687 -2.065,-6.97 0.909,-3.28 3.304,-5.482 5.354,-4.915 2.048,0.566 2.971,3.685 2.065,6.967 C 4.445,-1.635 2.05,0.565 0,0"
             style="fill:none;stroke:#231f20;stroke-width:0.25;stroke-linecap:round;stroke-linejoin:miter;stroke-miterlimit:4;stroke-dasharray:none;stroke-opacity:1"
             id="path17626"
             inkscape:connector-curvature="0" /></g><g
           id="g17628"
           transform="translate(40.8888,78.5704)"><path
             d="m 0,0 c -1.714,-0.475 -2.488,-3.086 -1.727,-5.832 0.758,-2.746 2.764,-4.589 4.478,-4.113"
             style="fill:none;stroke:#231f20;stroke-width:0.25;stroke-linecap:round;stroke-linejoin:miter;stroke-miterlimit:4;stroke-dasharray:none;stroke-opacity:1"
             id="path17630"
             inkscape:connector-curvature="0" /></g><g
           id="g17632"
           transform="translate(43.6398,68.6251)"><path
             d="m 0,0 c 1.714,0.474 2.487,3.085 1.729,5.831 -0.76,2.745 -2.765,4.588 -4.48,4.114"
             style="fill:none;stroke:#231f20;stroke-width:1;stroke-linecap:round;stroke-linejoin:miter;stroke-miterlimit:4;stroke-dasharray:none;stroke-opacity:1"
             id="path17634"
             inkscape:connector-curvature="0" /></g><g
           id="g17636"
           transform="translate(104.4162,100.3956)"><path
             d="M 0,0 -65.124,-18.056"
             style="fill:none;stroke:#231f20;stroke-width:1;stroke-linecap:round;stroke-linejoin:miter;stroke-miterlimit:4;stroke-dasharray:none;stroke-opacity:1"
             id="path17638"
             inkscape:connector-curvature="0" /></g><g
           id="g17640"
           transform="translate(109.4821,164.798)"><path
             d="M 0,0 22.695,6.955"
             style="fill:none;stroke:#231f20;stroke-width:1;stroke-linecap:round;stroke-linejoin:miter;stroke-miterlimit:4;stroke-dasharray:none;stroke-opacity:1"
             id="path17642"
             inkscape:connector-curvature="0" /></g><g
           id="g17644"
           transform="translate(132.1774,171.7525)"><path
             d="M 0,0 35.424,12.611"
             style="fill:none;stroke:#231f20;stroke-width:1;stroke-linecap:round;stroke-linejoin:miter;stroke-miterlimit:4;stroke-dasharray:none;stroke-opacity:1"
             id="path17646"
             inkscape:connector-curvature="0" /></g><g
           id="g17648"
           transform="translate(97.5612,184.3649)"><path
             d="M 0,0 C -2.542,-4.775 -2.416,-9.422 0.132,-11.164"
             style="fill:none;stroke:#231f20;stroke-width:0.25;stroke-linecap:round;stroke-linejoin:miter;stroke-miterlimit:4;stroke-dasharray:none;stroke-opacity:1"
             id="path17650"
             inkscape:connector-curvature="0" /></g><g
           id="g17652"
           transform="translate(97.693,173.2008)"><path
             d="m 0,0 c 2.952,-1.985 8.131,0.55 11.569,5.664 0.197,0.293 0.383,0.587 0.538,0.846"
             style="fill:none;stroke:#231f20;stroke-width:1;stroke-linecap:round;stroke-linejoin:miter;stroke-miterlimit:4;stroke-dasharray:none;stroke-opacity:1"
             id="path17654"
             inkscape:connector-curvature="0" /></g><g
           id="g17656"
           transform="translate(101.3171,184.2047)"><path
             d="M 0,0 C -1.672,-2.486 -1.862,-5.284 -0.428,-6.249"
             style="fill:none;stroke:#231f20;stroke-width:1;stroke-linecap:round;stroke-linejoin:miter;stroke-miterlimit:4;stroke-dasharray:none;stroke-opacity:1"
             id="path17658"
             inkscape:connector-curvature="0" /></g><g
           id="g17660"
           transform="translate(100.8888,177.9557)"><path
             d="M 0,0 C 1.436,-0.966 3.955,0.268 5.627,2.755 6.454,3.985 6.919,5.29 7.005,6.414"
             style="fill:none;stroke:#231f20;stroke-width:0.25;stroke-linecap:round;stroke-linejoin:miter;stroke-miterlimit:4;stroke-dasharray:none;stroke-opacity:1"
             id="path17662"
             inkscape:connector-curvature="0" /></g><g
           id="g17664"
           transform="translate(109.8,179.7106)"><path
             d="M 0,0 C 1.113,1.837 2.644,3.38 4.286,4.654"
             style="fill:none;stroke:#231f20;stroke-width:1;stroke-linecap:round;stroke-linejoin:miter;stroke-miterlimit:4;stroke-dasharray:none;stroke-opacity:1"
             id="path17666"
             inkscape:connector-curvature="0" /></g><g
           id="g17668"
           transform="translate(108.2482,177.4908)"><path
             d="M 0,0 20.059,5.941"
             style="fill:none;stroke:#231f20;stroke-width:1;stroke-linecap:round;stroke-linejoin:miter;stroke-miterlimit:4;stroke-dasharray:none;stroke-opacity:1"
             id="path17670"
             inkscape:connector-curvature="0" /></g><g
           id="g17672"
           transform="translate(126.0563,184.3087)"><path
             d="M 0,0 8.903,-3.467"
             style="fill:none;stroke:#231f20;stroke-width:1;stroke-linecap:round;stroke-linejoin:miter;stroke-miterlimit:4;stroke-dasharray:none;stroke-opacity:1"
             id="path17674"
             inkscape:connector-curvature="0" /></g><g
           id="g17676"
           transform="translate(134.9596,180.8419)"><path
             d="M 0,0 C 1.686,-0.87 0.931,-3.732 4.141,-6.612"
             style="fill:none;stroke:#231f20;stroke-width:1;stroke-linecap:round;stroke-linejoin:miter;stroke-miterlimit:4;stroke-dasharray:none;stroke-opacity:1"
             id="path17678"
             inkscape:connector-curvature="0" /></g><g
           id="g17680"
           transform="translate(137.0856,178.8727)"><path
             d="M 0,0 C -0.68,1.205 3.727,-0.586 7.427,-2.733"
             style="fill:none;stroke:#231f20;stroke-width:0.25;stroke-linecap:round;stroke-linejoin:miter;stroke-miterlimit:4;stroke-dasharray:none;stroke-opacity:1"
             id="path17682"
             inkscape:connector-curvature="0" /></g><g
           id="g17684"
           transform="translate(97.693,173.2008)"><path
             d="M 0,0 -16.788,11.163"
             style="fill:none;stroke:#231f20;stroke-width:1;stroke-linecap:round;stroke-linejoin:miter;stroke-miterlimit:4;stroke-dasharray:none;stroke-opacity:1"
             id="path17686"
             inkscape:connector-curvature="0" /></g><g
           id="g17688"
           transform="translate(118.1789,160.3268)"><path
             d="M 0,0 36.241,12.679"
             style="fill:none;stroke:#231f20;stroke-width:0.25;stroke-linecap:round;stroke-linejoin:miter;stroke-miterlimit:4;stroke-dasharray:none;stroke-opacity:1"
             id="path17690"
             inkscape:connector-curvature="0" /></g><g
           id="g17692"
           transform="translate(154.4196,173.006)"><path
             d="M 0,0 C 4.65,2.008 9.194,0.213 16.485,-4.859"
             style="fill:none;stroke:#231f20;stroke-width:0.25;stroke-linecap:round;stroke-linejoin:miter;stroke-miterlimit:4;stroke-dasharray:none;stroke-opacity:1"
             id="path17694"
             inkscape:connector-curvature="0" /></g><g
           id="g17696"
           transform="translate(170.905,168.1466)"><path
             d="M 0,0 57.27,-41.21"
             style="fill:none;stroke:#231f20;stroke-width:0.25;stroke-linecap:round;stroke-linejoin:miter;stroke-miterlimit:4;stroke-dasharray:none;stroke-opacity:1"
             id="path17698"
             inkscape:connector-curvature="0" /></g><g
           id="g17700"
           transform="translate(228.1745,126.9366)"><path
             d="M 0,0 C 3.382,-2.384 8.043,-3.458 12.821,-5.116"
             style="fill:none;stroke:#231f20;stroke-width:0.25;stroke-linecap:round;stroke-linejoin:miter;stroke-miterlimit:4;stroke-dasharray:none;stroke-opacity:1"
             id="path17702"
             inkscape:connector-curvature="0" /></g><g
           id="g17704"
           transform="translate(118.1789,163.6017)"><path
             d="M 0,0 34.87,12.469"
             style="fill:none;stroke:#231f20;stroke-width:0.25;stroke-linecap:round;stroke-linejoin:miter;stroke-miterlimit:4;stroke-dasharray:none;stroke-opacity:1"
             id="path17706"
             inkscape:connector-curvature="0" /></g><g
           id="g17708"
           transform="translate(153.0485,176.0709)"><path
             d="M 0,0 C 8.663,3.275 15.215,1.057 24.513,-5.494"
             style="fill:none;stroke:#231f20;stroke-width:0.25;stroke-linecap:round;stroke-linejoin:miter;stroke-miterlimit:4;stroke-dasharray:none;stroke-opacity:1"
             id="path17710"
             inkscape:connector-curvature="0" /></g><g
           id="g17712"
           transform="translate(177.5612,170.5768)"><path
             d="M 0,0 53.995,-38.779"
             style="fill:none;stroke:#231f20;stroke-width:0.25;stroke-linecap:round;stroke-linejoin:miter;stroke-miterlimit:4;stroke-dasharray:none;stroke-opacity:1"
             id="path17714"
             inkscape:connector-curvature="0" /></g><g
           id="g17716"
           transform="translate(231.5563,131.798)"><path
             d="M 0,0 C 2.125,-1.294 5.668,-2.447 9.439,-3.679"
             style="fill:none;stroke:#231f20;stroke-width:0.25;stroke-linecap:round;stroke-linejoin:miter;stroke-miterlimit:4;stroke-dasharray:none;stroke-opacity:1"
             id="path17718"
             inkscape:connector-curvature="0" /></g><g
           id="g17720"
           transform="translate(156.2175,171.7389)"><path
             d="M 0,0 C 0,0 1.689,0 2.219,-1.691"
             style="fill:none;stroke:#231f20;stroke-width:0.25;stroke-linecap:round;stroke-linejoin:miter;stroke-miterlimit:4;stroke-dasharray:none;stroke-opacity:1"
             id="path17722"
             inkscape:connector-curvature="0" /></g><g
           id="g17724"
           transform="translate(158.4362,170.048)"><path
             d="M 0,0 3.699,-12.89"
             style="fill:none;stroke:#231f20;stroke-width:0.25;stroke-linecap:round;stroke-linejoin:miter;stroke-miterlimit:4;stroke-dasharray:none;stroke-opacity:1"
             id="path17726"
             inkscape:connector-curvature="0" /></g><g
           id="g17728"
           transform="translate(162.1354,157.1578)"><path
             d="M 0,0 C 1.186,-2.275 -10.587,-7.143 0.205,-28.378"
             style="fill:none;stroke:#231f20;stroke-width:0.25;stroke-linecap:round;stroke-linejoin:miter;stroke-miterlimit:4;stroke-dasharray:none;stroke-opacity:1"
             id="path17730"
             inkscape:connector-curvature="0" /></g><g
           id="g17732"
           transform="translate(169.7409,166.6666)"><path
             d="M 0,0 C 0,0 -0.844,-1.374 -0.634,-1.903"
             style="fill:none;stroke:#231f20;stroke-width:0.25;stroke-linecap:round;stroke-linejoin:miter;stroke-miterlimit:4;stroke-dasharray:none;stroke-opacity:1"
             id="path17734"
             inkscape:connector-curvature="0" /></g><g
           id="g17736"
           transform="translate(169.1071,164.7638)"><path
             d="M 0,0 1.586,-7.078"
             style="fill:none;stroke:#231f20;stroke-width:0.25;stroke-linecap:round;stroke-linejoin:miter;stroke-miterlimit:4;stroke-dasharray:none;stroke-opacity:1"
             id="path17738"
             inkscape:connector-curvature="0" /></g><g
           id="g17740"
           transform="translate(170.693,157.6857)"><path
             d="M 0,0 C 0.634,-2.537 2.642,-3.488 2.642,-3.488"
             style="fill:none;stroke:#231f20;stroke-width:0.25;stroke-linecap:round;stroke-linejoin:miter;stroke-miterlimit:4;stroke-dasharray:none;stroke-opacity:1"
             id="path17742"
             inkscape:connector-curvature="0" /></g><g
           id="g17744"
           transform="translate(173.3346,154.1979)"><path
             d="M 0,0 28.529,-16.905"
             style="fill:none;stroke:#231f20;stroke-width:0.25;stroke-linecap:round;stroke-linejoin:miter;stroke-miterlimit:4;stroke-dasharray:none;stroke-opacity:1"
             id="path17746"
             inkscape:connector-curvature="0" /></g><g
           id="g17748"
           transform="translate(168.0436,152.9376)"><path
             d="M 0,0 C -4.308,-2.613 -3.723,-7.913 -0.416,-15.328"
             style="fill:none;stroke:#231f20;stroke-width:0.25;stroke-linecap:round;stroke-linejoin:miter;stroke-miterlimit:4;stroke-dasharray:none;stroke-opacity:1"
             id="path17750"
             inkscape:connector-curvature="0" /></g><g
           id="g17752"
           transform="translate(167.6276,137.61)"><path
             d="M 0,0 10.543,-20.371"
             style="fill:none;stroke:#231f20;stroke-width:0.25;stroke-linecap:round;stroke-linejoin:miter;stroke-miterlimit:4;stroke-dasharray:none;stroke-opacity:1"
             id="path17754"
             inkscape:connector-curvature="0" /></g><g
           id="g17756"
           transform="translate(115.6281,158.1149)"><path
             d="M 0,0 C -0.038,-1.076 1.075,-2.436 4.029,-4.023 9.474,-6.946 41.368,-23.721 64.474,-42.415"
             style="fill:none;stroke:#231f20;stroke-width:1;stroke-linecap:round;stroke-linejoin:miter;stroke-miterlimit:4;stroke-dasharray:none;stroke-opacity:1"
             id="path17758"
             inkscape:connector-curvature="0" /></g><g
           id="g17760"
           transform="translate(118.1789,160.3268)"><path
             d="M 0,0 C -1.479,-0.458 -2.514,-1.212 -2.551,-2.212"
             style="fill:none;stroke:#231f20;stroke-width:0.25;stroke-linecap:round;stroke-linejoin:miter;stroke-miterlimit:4;stroke-dasharray:none;stroke-opacity:1"
             id="path17762"
             inkscape:connector-curvature="0" /></g><g
           id="g17764"
           transform="translate(180.1022,115.6998)"><path
             d="M 0,0 C 3.903,-2.498 6.863,-10.951 8.132,-11.902"
             style="fill:none;stroke:#231f20;stroke-width:1;stroke-linecap:round;stroke-linejoin:miter;stroke-miterlimit:4;stroke-dasharray:none;stroke-opacity:1"
             id="path17766"
             inkscape:connector-curvature="0" /></g><g
           id="g17768"
           transform="translate(188.2341,103.798)"><path
             d="M 0,0 20.392,-18.386"
             style="fill:none;stroke:#231f20;stroke-width:1;stroke-linecap:round;stroke-linejoin:miter;stroke-miterlimit:4;stroke-dasharray:none;stroke-opacity:1"
             id="path17770"
             inkscape:connector-curvature="0" /></g><g
           id="g17772"
           transform="translate(208.6257,85.4122)"><path
             d="M 0,0 C 8.336,-6.885 20.314,-9.69 32.379,-11.44"
             style="fill:none;stroke:#231f20;stroke-width:1;stroke-linecap:round;stroke-linejoin:miter;stroke-miterlimit:4;stroke-dasharray:none;stroke-opacity:1"
             id="path17774"
             inkscape:connector-curvature="0" /></g><g
           id="g17776"
           transform="translate(227.7507,125.3517)"><path
             d="M 0,0 C 0,0 1.163,-1.478 1.373,-2.958"
             style="fill:none;stroke:#231f20;stroke-width:0.25;stroke-linecap:round;stroke-linejoin:miter;stroke-miterlimit:4;stroke-dasharray:none;stroke-opacity:1"
             id="path17778"
             inkscape:connector-curvature="0" /></g><g
           id="g17780"
           transform="translate(229.1237,122.3937)"><path
             d="M 0,0 2.917,-46.869"
             style="fill:none;stroke:#231f20;stroke-width:0.25;stroke-linecap:round;stroke-linejoin:miter;stroke-miterlimit:4;stroke-dasharray:none;stroke-opacity:1"
             id="path17782"
             inkscape:connector-curvature="0" /></g><g
           id="g17784"
           transform="translate(101.5192,157.7018)"><path
             d="M 0,0 C -1.714,-3.558 -0.828,-7.899 5.353,-12.908"
             style="fill:none;stroke:#231f20;stroke-width:0.25;stroke-linecap:round;stroke-linejoin:miter;stroke-miterlimit:4;stroke-dasharray:none;stroke-opacity:1"
             id="path17786"
             inkscape:connector-curvature="0" /></g><g
           id="g17788"
           transform="translate(106.8722,144.7936)"><path
             d="M 0,0 134.128,-105.66"
             style="fill:none;stroke:#231f20;stroke-width:0.25;stroke-linecap:round;stroke-linejoin:miter;stroke-miterlimit:4;stroke-dasharray:none;stroke-opacity:1"
             id="path17790"
             inkscape:connector-curvature="0" /></g><g
           id="g17792"
           transform="translate(91.884,137.985)"><path
             d="M 0,0 C 1.738,11.991 9.618,24.159 17.598,26.813"
             style="fill:none;stroke:#231f20;stroke-width:1;stroke-linecap:round;stroke-linejoin:miter;stroke-miterlimit:4;stroke-dasharray:none;stroke-opacity:1"
             id="path17794"
             inkscape:connector-curvature="0" /></g><g
           id="g17796"
           transform="translate(101.8361,159.4137)"><path
             d="M 0,0 C -2.12,0.466 -4.624,-0.943 -6.16,-3.315 -7.721,-5.751 -7.857,-8.563 -6.631,-10.26"
             style="fill:none;stroke:#231f20;stroke-width:1;stroke-linecap:round;stroke-linejoin:miter;stroke-miterlimit:4;stroke-dasharray:none;stroke-opacity:1"
             id="path17798"
             inkscape:connector-curvature="0" /></g><g
           id="g17800"
           transform="translate(91.884,137.985)"><path
             d="M 0,0 -1.564,-20.856"
             style="fill:none;stroke:#231f20;stroke-width:1;stroke-linecap:round;stroke-linejoin:miter;stroke-miterlimit:4;stroke-dasharray:none;stroke-opacity:1"
             id="path17802"
             inkscape:connector-curvature="0" /></g><g
           id="g17804"
           transform="translate(90.32,117.1285)"><path
             d="M 0,0 C -0.239,-7.65 0.627,-13.595 3.64,-19.654"
             style="fill:none;stroke:#231f20;stroke-width:1;stroke-linecap:round;stroke-linejoin:miter;stroke-miterlimit:4;stroke-dasharray:none;stroke-opacity:1"
             id="path17806"
             inkscape:connector-curvature="0" /></g><g
           id="g17808"
           transform="translate(105.9421,81.673)"><path
             d="m 0,0 c 4.419,-4.599 9.983,-9.803 16.936,-16.048 24.267,-21.789 67.767,-51.491 84.738,-65.569"
             style="fill:none;stroke:#231f20;stroke-width:1;stroke-linecap:round;stroke-linejoin:miter;stroke-miterlimit:4;stroke-dasharray:none;stroke-opacity:1"
             id="path17810"
             inkscape:connector-curvature="0" /></g><g
           id="g17812"
           transform="translate(147.9069,84.504)"><path
             d="M 0,0 79.127,-84.394"
             style="fill:none;stroke:#231f20;stroke-width:0.25;stroke-linecap:round;stroke-linejoin:miter;stroke-miterlimit:4;stroke-dasharray:none;stroke-opacity:1"
             id="path17814"
             inkscape:connector-curvature="0" /></g><g
           id="g17816"
           transform="translate(149.6091,88.7579)"><path
             d="M 0,0 91.392,-87.042"
             style="fill:none;stroke:#231f20;stroke-width:0.25;stroke-linecap:round;stroke-linejoin:miter;stroke-miterlimit:4;stroke-dasharray:none;stroke-opacity:1"
             id="path17818"
             inkscape:connector-curvature="0" /></g><g
           id="g17820"
           transform="translate(118.1789,163.6017)"><path
             d="M 0,0 C -4.784,-1.719 -6.474,-4.819 -1.628,-7.918"
             style="fill:none;stroke:#231f20;stroke-width:0.25;stroke-linecap:round;stroke-linejoin:miter;stroke-miterlimit:4;stroke-dasharray:none;stroke-opacity:1"
             id="path17822"
             inkscape:connector-curvature="0" /></g><g
           id="g17824"
           transform="translate(134.5817,165.0377)"><path
             d="M 0,0 5.128,-15.327"
             style="fill:none;stroke:#231f20;stroke-width:0.25;stroke-linecap:round;stroke-linejoin:miter;stroke-miterlimit:4;stroke-dasharray:none;stroke-opacity:1"
             id="path17826"
             inkscape:connector-curvature="0" /></g><g
           id="g17828"
           transform="translate(145.2009,139.6427)"><path
             d="M 0,0 C 0.908,1.285 0.735,3.451 -0.324,5.346 -1.692,7.772 -4.107,9.005 -5.717,8.097"
             style="fill:none;stroke:#231f20;stroke-width:0.25;stroke-linecap:round;stroke-linejoin:miter;stroke-miterlimit:4;stroke-dasharray:none;stroke-opacity:1"
             id="path17830"
             inkscape:connector-curvature="0" /></g><g
           id="g17832"
           transform="translate(139.4841,147.7399)"><path
             d="M 0,0 C -1.153,-0.65 -1.579,-2.225 -1.218,-3.987"
             style="fill:none;stroke:#231f20;stroke-width:1;stroke-linecap:round;stroke-linejoin:miter;stroke-miterlimit:4;stroke-dasharray:none;stroke-opacity:1"
             id="path17834"
             inkscape:connector-curvature="0" /></g><g
           id="g17836"
           transform="translate(143.0925,140.9078)"><path
             d="M 0,0 C -0.109,0.904 -0.428,1.8 -0.871,2.582 -1.828,4.278 -3.294,5.39 -4.663,5.6"
             style="fill:none;stroke:#231f20;stroke-width:1;stroke-linecap:round;stroke-linejoin:miter;stroke-miterlimit:4;stroke-dasharray:none;stroke-opacity:1"
             id="path17838"
             inkscape:connector-curvature="0" /></g><g
           id="g17840"
           transform="translate(191.8805,131.0099)"><path
             d="M 0,0 7.783,3.375"
             style="fill:none;stroke:#231f20;stroke-width:1;stroke-linecap:round;stroke-linejoin:miter;stroke-miterlimit:4;stroke-dasharray:none;stroke-opacity:1"
             id="path17842"
             inkscape:connector-curvature="0" /></g><g
           id="g17844"
           transform="translate(199.6637,134.3849)"><path
             d="M 0,0 C 9.692,4.001 17.975,-4.395 17.524,-13.129 17.072,-21.862 9.522,-31.159 1.184,-33.131"
             style="fill:none;stroke:#231f20;stroke-width:0.25;stroke-linecap:round;stroke-linejoin:miter;stroke-miterlimit:4;stroke-dasharray:none;stroke-opacity:1"
             id="path17846"
             inkscape:connector-curvature="0" /></g><g
           id="g17848"
           transform="translate(200.8473,101.2535)"><path
             d="m 0,0 c 6.17,1.564 9.456,9.595 7.339,17.934 -2.116,8.341 -8.832,13.832 -15.003,12.268 -0.468,-0.12 -0.92,-0.275 -1.303,-0.446"
             style="fill:none;stroke:#231f20;stroke-width:0.25;stroke-linecap:round;stroke-linejoin:miter;stroke-miterlimit:4;stroke-dasharray:none;stroke-opacity:1"
             id="path17850"
             inkscape:connector-curvature="0" /></g><g
           id="g17852"
           transform="translate(191.8805,131.0099)"><path
             d="m 0,0 c -5.428,-2.353 -7.942,-9.898 -6.036,-17.491 2.115,-8.34 8.834,-13.832 15.003,-12.265"
             style="fill:none;stroke:#231f20;stroke-width:1;stroke-linecap:round;stroke-linejoin:miter;stroke-miterlimit:4;stroke-dasharray:none;stroke-opacity:1"
             id="path17854"
             inkscape:connector-curvature="0" /></g><g
           id="g17856"
           transform="translate(199.1296,108.0196)"><path
             d="m 0,0 c 3.404,0.864 5.22,5.297 4.052,9.898 -1.168,4.604 -4.875,7.634 -8.281,6.77"
             style="fill:none;stroke:#231f20;stroke-width:1;stroke-linecap:round;stroke-linejoin:miter;stroke-miterlimit:4;stroke-dasharray:none;stroke-opacity:1"
             id="path17858"
             inkscape:connector-curvature="0" /></g><g
           id="g17860"
           transform="translate(194.9001,124.6876)"><path
             d="m 0,0 c -3.404,-0.863 -5.217,-5.295 -4.049,-9.899 1.167,-4.602 4.875,-7.632 8.278,-6.769"
             style="fill:none;stroke:#231f20;stroke-width:0.25;stroke-linecap:round;stroke-linejoin:miter;stroke-miterlimit:4;stroke-dasharray:none;stroke-opacity:1"
             id="path17862"
             inkscape:connector-curvature="0" /></g><g
           id="g17864"
           transform="translate(171.9528,133.2399)"><path
             d="M 0,0 C 0,0 0.29,0.867 2.531,-0.217"
             style="fill:none;stroke:#231f20;stroke-width:0.25;stroke-linecap:round;stroke-linejoin:miter;stroke-miterlimit:4;stroke-dasharray:none;stroke-opacity:1"
             id="path17866"
             inkscape:connector-curvature="0" /></g><g
           id="g17868"
           transform="translate(174.4841,133.0226)"><path
             d="M 0,0 12.524,-6.714"
             style="fill:none;stroke:#231f20;stroke-width:0.25;stroke-linecap:round;stroke-linejoin:miter;stroke-miterlimit:4;stroke-dasharray:none;stroke-opacity:1"
             id="path17870"
             inkscape:connector-curvature="0" /></g><g
           id="g17872"
           transform="translate(203.7751,100.7677)"><path
             d="M 0,0 0.661,-11.579"
             style="fill:none;stroke:#231f20;stroke-width:0.25;stroke-linecap:round;stroke-linejoin:miter;stroke-miterlimit:4;stroke-dasharray:none;stroke-opacity:1"
             id="path17874"
             inkscape:connector-curvature="0" /></g><g
           id="g17876"
           transform="translate(211.0514,102.9977)"><path
             d="M 0,0 1.365,-20.298"
             style="fill:none;stroke:#231f20;stroke-width:0.25;stroke-linecap:round;stroke-linejoin:miter;stroke-miterlimit:4;stroke-dasharray:none;stroke-opacity:1"
             id="path17878"
             inkscape:connector-curvature="0" /></g><g
           id="g17880"
           transform="translate(211.0514,102.9977)"><path
             d="M 0,0 C -0.19,1.747 0.822,2.832 0.822,2.832"
             style="fill:none;stroke:#231f20;stroke-width:0.25;stroke-linecap:round;stroke-linejoin:miter;stroke-miterlimit:4;stroke-dasharray:none;stroke-opacity:1"
             id="path17882"
             inkscape:connector-curvature="0" /></g><g
           id="g17884"
           transform="translate(197.8854,124.505)"><path
             d="m 0,0 c -1.314,-2.047 -1.517,-5.124 -0.717,-8.063 0.857,-3.093 2.689,-5.5 4.745,-6.543"
             style="fill:none;stroke:#231f20;stroke-width:0.25;stroke-linecap:round;stroke-linejoin:miter;stroke-miterlimit:4;stroke-dasharray:none;stroke-opacity:1"
             id="path17886"
             inkscape:connector-curvature="0" /></g><g
           id="g17888"
           transform="translate(200.6071,122.6817)"><path
             d="M 0,0 C -1.373,-0.948 -1.837,-3.296 -1.202,-5.621 -0.549,-7.982 1.06,-9.672 2.666,-9.822"
             style="fill:none;stroke:#231f20;stroke-width:0.25;stroke-linecap:round;stroke-linejoin:miter;stroke-miterlimit:4;stroke-dasharray:none;stroke-opacity:1"
             id="path17890"
             inkscape:connector-curvature="0" /></g><g
           id="g17892"
           transform="translate(201.32,121.8458)"><path
             d="m 0,0 c -0.988,-0.879 -1.271,-2.697 -0.788,-4.473 0.503,-1.82 1.695,-3.154 2.935,-3.425"
             style="fill:none;stroke:#231f20;stroke-width:0.25;stroke-linecap:round;stroke-linejoin:miter;stroke-miterlimit:4;stroke-dasharray:none;stroke-opacity:1"
             id="path17894"
             inkscape:connector-curvature="0" /></g><g
           id="g17896"
           transform="translate(140.0807,83.6925)"><path
             d="M 0,0 C 6.155,0.933 10.054,8.906 8.706,17.81 7.357,26.714 1.276,33.177 -4.881,32.245 -11.036,31.313 -14.934,23.34 -13.585,14.436 -12.237,5.532 -6.154,-0.932 0,0"
             style="fill:none;stroke:#231f20;stroke-width:0.25;stroke-linecap:round;stroke-linejoin:miter;stroke-miterlimit:4;stroke-dasharray:none;stroke-opacity:1"
             id="path17898"
             inkscape:connector-curvature="0" /></g><g
           id="g17900"
           transform="translate(140.5583,84.879)"><path
             d="M 0,0 C 5.741,0.869 9.374,8.303 8.117,16.606 6.86,24.909 1.188,30.937 -4.55,30.068"
             style="fill:none;stroke:#231f20;stroke-width:1;stroke-linecap:round;stroke-linejoin:miter;stroke-miterlimit:4;stroke-dasharray:none;stroke-opacity:1"
             id="path17902"
             inkscape:connector-curvature="0" /></g><g
           id="g17904"
           transform="translate(136.0085,114.9469)"><path
             d="M 0,0 C -2.87,-0.434 -5.215,-2.51 -6.685,-5.515"
             style="fill:none;stroke:#231f20;stroke-width:0.25;stroke-linecap:round;stroke-linejoin:miter;stroke-miterlimit:4;stroke-dasharray:none;stroke-opacity:1"
             id="path17906"
             inkscape:connector-curvature="0" /></g><g
           id="g17908"
           transform="translate(132.5436,88.1691)"><path
             d="M 0,0 C 2.473,-2.627 5.355,-3.693 8.015,-3.29"
             style="fill:none;stroke:#231f20;stroke-width:0.25;stroke-linecap:round;stroke-linejoin:miter;stroke-miterlimit:4;stroke-dasharray:none;stroke-opacity:1"
             id="path17910"
             inkscape:connector-curvature="0" /></g><g
           id="g17912"
           transform="translate(144.2819,87.2296)"><path
             d="M 0,0 C 0.334,0.049 0.661,0.121 0.941,0.202"
             style="fill:none;stroke:#231f20;stroke-width:0.25;stroke-linecap:round;stroke-linejoin:miter;stroke-miterlimit:4;stroke-dasharray:none;stroke-opacity:1"
             id="path17914"
             inkscape:connector-curvature="0" /></g><g
           id="g17916"
           transform="translate(138.1813,114.9508)"><path
             d="m 0,0 c -4.854,-1.993 -7.499,-8.433 -6.5,-15.192 1.179,-7.794 6.82,-13.404 12.601,-12.529"
             style="fill:none;stroke:#231f20;stroke-width:0.25;stroke-linecap:round;stroke-linejoin:miter;stroke-miterlimit:4;stroke-dasharray:none;stroke-opacity:1"
             id="path17918"
             inkscape:connector-curvature="0" /></g><g
           id="g17920"
           transform="translate(143.6501,91.4117)"><path
             d="M 0,0 C 2.156,0.325 3.906,1.87 4.955,4.073"
             style="fill:none;stroke:#231f20;stroke-width:0.25;stroke-linecap:round;stroke-linejoin:miter;stroke-miterlimit:4;stroke-dasharray:none;stroke-opacity:1"
             id="path17922"
             inkscape:connector-curvature="0" /></g><g
           id="g17924"
           transform="translate(145.2809,110.0177)"><path
             d="m 0,0 c -1.517,1.102 -3.146,1.492 -4.638,1.257 -4.068,-0.616 -6.692,-5.56 -5.861,-11.046 0.831,-5.485 4.8,-9.432 8.868,-8.817"
             style="fill:none;stroke:#231f20;stroke-width:0.25;stroke-linecap:round;stroke-linejoin:miter;stroke-miterlimit:4;stroke-dasharray:none;stroke-opacity:1"
             id="path17926"
             inkscape:connector-curvature="0" /></g><g
           id="g17928"
           transform="translate(143.9489,92.5006)"><path
             d="M 0,0 C 2.344,0.355 4.153,2.311 4.96,5.008"
             style="fill:none;stroke:#231f20;stroke-width:1;stroke-linecap:round;stroke-linejoin:miter;stroke-miterlimit:4;stroke-dasharray:none;stroke-opacity:1"
             id="path17930"
             inkscape:connector-curvature="0" /></g><g
           id="g17932"
           transform="translate(146.2858,108.4527)"><path
             d="M 0,0 C -1.548,1.522 -3.355,2.124 -5.034,1.869"
             style="fill:none;stroke:#231f20;stroke-width:1;stroke-linecap:round;stroke-linejoin:miter;stroke-miterlimit:4;stroke-dasharray:none;stroke-opacity:1"
             id="path17934"
             inkscape:connector-curvature="0" /></g><g
           id="g17936"
           transform="translate(141.2516,110.3219)"><path
             d="m 0,0 c -3.647,-0.552 -6.004,-4.989 -5.258,-9.909 0.745,-4.922 4.307,-8.463 7.955,-7.912"
             style="fill:none;stroke:#231f20;stroke-width:0.25;stroke-linecap:round;stroke-linejoin:miter;stroke-miterlimit:4;stroke-dasharray:none;stroke-opacity:1"
             id="path17938"
             inkscape:connector-curvature="0" /></g><g
           id="g17940"
           transform="translate(196.1833,178.171)"><path
             d="M 0,0 C 0.398,1.559 -1.903,3.494 -5.143,4.324 -8.382,5.155 -11.332,4.564 -11.731,3.005 -12.13,1.445 -9.827,-0.49 -6.589,-1.32 -3.349,-2.149 -0.399,-1.559 0,0"
             style="fill:none;stroke:#231f20;stroke-width:0.25;stroke-linecap:round;stroke-linejoin:miter;stroke-miterlimit:4;stroke-dasharray:none;stroke-opacity:1"
             id="path17942"
             inkscape:connector-curvature="0" /></g><g
           id="g17944"
           transform="translate(168.0436,152.9376)"><path
             d="M 0,0 C 1.686,1.114 1.184,1.831 1.184,1.831"
             style="fill:none;stroke:#231f20;stroke-width:0.25;stroke-linecap:round;stroke-linejoin:miter;stroke-miterlimit:4;stroke-dasharray:none;stroke-opacity:1"
             id="path17946"
             inkscape:connector-curvature="0" /></g><g
           id="g17948"
           transform="translate(125.8122,113.3268)"><path
             d="M 0,0 -25.833,21.384"
             style="fill:none;stroke:#231f20;stroke-width:0.25;stroke-linecap:round;stroke-linejoin:miter;stroke-miterlimit:4;stroke-dasharray:none;stroke-opacity:1"
             id="path17950"
             inkscape:connector-curvature="0" /></g><g
           id="g17952"
           transform="translate(99.9792,134.7106)"><path
             d="M 0,0 C -7.764,7.572 -6.062,9.351 -6.062,9.351"
             style="fill:none;stroke:#231f20;stroke-width:0.25;stroke-linecap:round;stroke-linejoin:miter;stroke-miterlimit:4;stroke-dasharray:none;stroke-opacity:1"
             id="path17954"
             inkscape:connector-curvature="0" /></g><g
           id="g17956"
           transform="translate(124.6247,108.715)"><path
             d="M 0,0 -25.807,22.13"
             style="fill:none;stroke:#231f20;stroke-width:0.25;stroke-linecap:round;stroke-linejoin:miter;stroke-miterlimit:4;stroke-dasharray:none;stroke-opacity:1"
             id="path17958"
             inkscape:connector-curvature="0" /></g><g
           id="g17960"
           transform="translate(98.818,130.8448)"><path
             d="M 0,0 C -7.763,7.572 -6.061,9.351 -6.061,9.351"
             style="fill:none;stroke:#231f20;stroke-width:0.25;stroke-linecap:round;stroke-linejoin:miter;stroke-miterlimit:4;stroke-dasharray:none;stroke-opacity:1"
             id="path17962"
             inkscape:connector-curvature="0" /></g><g
           id="g17964"
           transform="translate(109.488,82.628)"><path
             d="M 0,0 -65.281,-18.058"
             style="fill:none;stroke:#ffffff;stroke-width:2;stroke-linecap:round;stroke-linejoin:miter;stroke-miterlimit:4;stroke-dasharray:none;stroke-opacity:1"
             id="path17966"
             inkscape:connector-curvature="0" /></g><g
           id="g17968"
           transform="translate(109.488,82.628)"><path
             d="M 0,0 -65.281,-18.058"
             style="fill:none;stroke:#231f20;stroke-width:1;stroke-linecap:round;stroke-linejoin:miter;stroke-miterlimit:4;stroke-dasharray:none;stroke-opacity:1"
             id="path17970"
             inkscape:connector-curvature="0" /></g><g
           id="g17972"
           transform="translate(109.488,82.628)"><path
             d="m 0,0 c 3.062,0.847 4.443,5.511 3.086,10.419 -1.357,4.905 -4.94,8.197 -8.001,7.351"
             style="fill:none;stroke:#231f20;stroke-width:1;stroke-linecap:round;stroke-linejoin:miter;stroke-miterlimit:4;stroke-dasharray:none;stroke-opacity:1"
             id="path17974"
             inkscape:connector-curvature="0" /></g><g
           id="g17976"
           transform="translate(39.2931,82.34)"><path
             d="m 0,0 c -3.063,-0.848 -4.445,-5.514 -3.088,-10.418 1.357,-4.908 4.94,-8.198 8.001,-7.352"
             style="fill:none;stroke:#231f20;stroke-width:1;stroke-linecap:round;stroke-linejoin:miter;stroke-miterlimit:4;stroke-dasharray:none;stroke-opacity:1"
             id="path17978"
             inkscape:connector-curvature="0" /></g><g
           id="g17980"
           transform="translate(44.2062,64.5704)"><path
             d="m 0,0 c 3.063,0.848 4.445,5.511 3.088,10.418 -1.357,4.906 -4.94,8.198 -8.001,7.352"
             style="fill:none;stroke:#231f20;stroke-width:0.25;stroke-linecap:round;stroke-linejoin:miter;stroke-miterlimit:4;stroke-dasharray:none;stroke-opacity:1"
             id="path17982"
             inkscape:connector-curvature="0" /></g></g></g><g
       id="g17984"><g
         id="g17986"
         clip-path="url(#clipPath17988)"><g
           id="g17992"
           transform="translate(55.7809,77.6271)"><path
             d="m 0,0 c -1.937,6.848 -6.28,7.55 -6.28,7.55 l -8.317,-2.439 0.067,-0.167 c 0,0 4.175,-0.634 6.113,-7.482 1.937,-6.848 -2.005,-9.721 -2.005,-9.721 l 8.217,2.105 c 0,0 4.176,3.273 2.238,10.121"
             style="fill:#9c9a9b;fill-opacity:1;fill-rule:evenodd;stroke:#231f20;stroke-width:0.25;stroke-linecap:round;stroke-linejoin:miter;stroke-miterlimit:4;stroke-dasharray:none;stroke-opacity:1"
             id="path17994"
             inkscape:connector-curvature="0" /></g><g
           id="g17996"
           transform="translate(197.6647,124.1232)"><path
             d="m 0,0 c 0,0 -2.186,-2.524 -0.48,-7.915 1.617,-5.115 4.372,-6.165 4.372,-6.165 0,0 -1.924,-1.793 -2.711,-2.099 -0.787,-0.306 -5.553,-0.087 -7.696,5.641 C -8.657,-4.81 -5.378,0 -3.191,0.394 -1.006,0.787 0,0 0,0"
             style="fill:#9c9a9b;fill-opacity:1;fill-rule:evenodd;stroke:none"
             id="path17998"
             inkscape:connector-curvature="0" /></g><g
           id="g18000"
           transform="translate(197.6647,124.1232)"><path
             d="m 0,0 c 0,0 -2.186,-2.524 -0.48,-7.915 1.617,-5.115 4.372,-6.165 4.372,-6.165 0,0 -1.924,-1.793 -2.711,-2.099 -0.787,-0.306 -5.553,-0.087 -7.696,5.641 C -8.657,-4.81 -5.378,0 -3.191,0.394 -1.006,0.787 0,0 0,0 Z"
             style="fill:none;stroke:#231f20;stroke-width:0.25;stroke-linecap:round;stroke-linejoin:miter;stroke-miterlimit:4;stroke-dasharray:none;stroke-opacity:1"
             id="path18002"
             inkscape:connector-curvature="0" /></g></g></g><text
       transform="matrix(1,0,0,-1,3.9409,4.1855)"
       style="font-variant:normal;font-weight:normal;font-stretch:normal;font-size:5px;font-family:'Swiss 721 SWA';-inkscape-font-specification:Helvetica;writing-mode:lr-tb;fill:#231f20;fill-opacity:1;fill-rule:nonzero;stroke:none"
       id="text18004"><tspan
         x="0 3.335 6.1149998 8.8950005 11.675 14.455"
         y="0"
         sodipodi:role="line"
         id="tspan18006">B00848</tspan></text>
<g
       id="g18008"
       transform="translate(216.6667,159.2223)"><path
         d="M 0,0 -22.369,-37.941"
         style="fill:none;stroke:#ffffff;stroke-width:3;stroke-linecap:round;stroke-linejoin:miter;stroke-miterlimit:4;stroke-dasharray:none;stroke-opacity:1"
         id="path18010"
         inkscape:connector-curvature="0" /></g><g
       id="g18012"
       transform="translate(194.2975,121.2809)"><path
         d="M 0,0 0,0"
         style="fill:none;stroke:#ffffff;stroke-width:3.75;stroke-linecap:round;stroke-linejoin:miter;stroke-miterlimit:4;stroke-dasharray:none;stroke-opacity:1"
         id="path18014"
         inkscape:connector-curvature="0" /></g><g
       id="g18016"
       transform="translate(216.6667,159.2223)"><path
         d="M 0,0 -22.369,-37.941"
         style="fill:none;stroke:#231f20;stroke-width:0.5;stroke-linecap:round;stroke-linejoin:miter;stroke-miterlimit:4;stroke-dasharray:none;stroke-opacity:1"
         id="path18018"
         inkscape:connector-curvature="0" /></g><g
       id="g18020"
       transform="translate(194.2975,121.2809)"><path
         d="M 0,0 0,0"
         style="fill:none;stroke:#231f20;stroke-width:1.5;stroke-linecap:round;stroke-linejoin:miter;stroke-miterlimit:4;stroke-dasharray:none;stroke-opacity:1"
         id="path18022"
         inkscape:connector-curvature="0" /></g><text
       transform="matrix(1,0,0,-1,215.7319,161.3179)"
       style="font-variant:normal;font-weight:bold;font-stretch:normal;font-size:10px;font-family:'Swiss 721 SWA';-inkscape-font-specification:Helvetica-Bold;writing-mode:lr-tb;fill:#231f20;fill-opacity:1;fill-rule:nonzero;stroke:none"
       id="text18024"><tspan
         x="0"
         y="0"
         id="tspan18026">1</tspan></text>
<g
       id="g18028"
       transform="translate(87.1027,49.9903)"><path
         d="M 0,0 -11.148,26.931"
         style="fill:none;stroke:#ffffff;stroke-width:3;stroke-linecap:round;stroke-linejoin:miter;stroke-miterlimit:4;stroke-dasharray:none;stroke-opacity:1"
         id="path18030"
         inkscape:connector-curvature="0" /></g><g
       id="g18032"
       transform="translate(75.9543,76.921)"><path
         d="M 0,0 0,0"
         style="fill:none;stroke:#ffffff;stroke-width:3.75;stroke-linecap:round;stroke-linejoin:miter;stroke-miterlimit:4;stroke-dasharray:none;stroke-opacity:1"
         id="path18034"
         inkscape:connector-curvature="0" /></g><g
       id="g18036"
       transform="translate(87.1027,49.9903)"><path
         d="M 0,0 -11.148,26.931"
         style="fill:none;stroke:#231f20;stroke-width:0.5;stroke-linecap:round;stroke-linejoin:miter;stroke-miterlimit:4;stroke-dasharray:none;stroke-opacity:1"
         id="path18038"
         inkscape:connector-curvature="0" /></g><g
       id="g18040"
       transform="translate(75.9543,76.921)"><path
         d="M 0,0 0,0"
         style="fill:none;stroke:#231f20;stroke-width:1.5;stroke-linecap:round;stroke-linejoin:miter;stroke-miterlimit:4;stroke-dasharray:none;stroke-opacity:1"
         id="path18042"
         inkscape:connector-curvature="0" /></g><text
       transform="matrix(1,0,0,-1,86.438,41.1895)"
       style="font-variant:normal;font-weight:bold;font-stretch:normal;font-size:10px;font-family:'Swiss 721 SWA';-inkscape-font-specification:Helvetica-Bold;writing-mode:lr-tb;fill:#231f20;fill-opacity:1;fill-rule:nonzero;stroke:none"
       id="text18044"><tspan
         x="0"
         y="0"
         id="tspan18046">2</tspan></text>
</g></svg>