<?xml version="1.0" encoding="UTF-8" standalone="no"?>
<!-- Created with Inkscape (http://www.inkscape.org/) -->

<svg
   xmlns:dc="http://purl.org/dc/elements/1.1/"
   xmlns:cc="http://creativecommons.org/ns#"
   xmlns:rdf="http://www.w3.org/1999/02/22-rdf-syntax-ns#"
   xmlns:svg="http://www.w3.org/2000/svg"
   xmlns="http://www.w3.org/2000/svg"
   xmlns:sodipodi="http://sodipodi.sourceforge.net/DTD/sodipodi-0.dtd"
   xmlns:inkscape="http://www.inkscape.org/namespaces/inkscape"
   id="svg3336"
   version="1.1"
   inkscape:version="0.91 r13725"
   xml:space="preserve"
   width="376.46875"
   height="287.89001"
   viewBox="0 0 376.46875 287.89001"
   sodipodi:docname="CTE 302-01201.svg"><metadata
     id="metadata3342"><rdf:RDF><cc:Work
         rdf:about=""><dc:format>image/svg+xml</dc:format><dc:type
           rdf:resource="http://purl.org/dc/dcmitype/StillImage" /><dc:title></dc:title></cc:Work></rdf:RDF></metadata><defs
     id="defs3340"><clipPath
       clipPathUnits="userSpaceOnUse"
       id="clipPath3422"><path
         d="m 0,230.312 301.175,0 L 301.175,0 0,0 0,230.312 Z"
         id="path3424"
         inkscape:connector-curvature="0" /></clipPath><clipPath
       clipPathUnits="userSpaceOnUse"
       id="clipPath3522"><path
         d="m 200.833,122.571 5.56,0 0,-10.871 -5.56,0 0,10.871 z"
         id="path3524"
         inkscape:connector-curvature="0" /></clipPath><clipPath
       clipPathUnits="userSpaceOnUse"
       id="clipPath3538"><path
         d="m 103.448,122.571 5.56,0 0,-10.871 -5.56,0 0,10.871 z"
         id="path3540"
         inkscape:connector-curvature="0" /></clipPath></defs><sodipodi:namedview
     pagecolor="#ffffff"
     bordercolor="#666666"
     borderopacity="1"
     objecttolerance="10"
     gridtolerance="10"
     guidetolerance="10"
     inkscape:pageopacity="0"
     inkscape:pageshadow="2"
     inkscape:window-width="640"
     inkscape:window-height="480"
     id="namedview3338"
     showgrid="false"
     inkscape:zoom="4.1995204"
     inkscape:cx="188.23437"
     inkscape:cy="143.94501"
     inkscape:window-x="0"
     inkscape:window-y="0"
     inkscape:window-maximized="1"
     inkscape:current-layer="g3344" /><g
     id="g3344"
     inkscape:groupmode="layer"
     inkscape:label="CTE 302-01201"
     transform="matrix(1.25,0,0,-1.25,0,287.89)"><g
       id="g3346"
       transform="translate(117.9214,105.9541)"><path
         d="M 0,0 0,19.883"
         style="fill:none;stroke:#231f20;stroke-width:0.25;stroke-linecap:square;stroke-linejoin:miter;stroke-miterlimit:10;stroke-dasharray:none;stroke-opacity:1"
         id="path3348"
         inkscape:connector-curvature="0" /></g><g
       id="g3350"
       transform="translate(131.0791,134.8491)"><path
         d="M 0,0 0,0.858"
         style="fill:none;stroke:#231f20;stroke-width:0.25;stroke-linecap:square;stroke-linejoin:miter;stroke-miterlimit:10;stroke-dasharray:none;stroke-opacity:1"
         id="path3352"
         inkscape:connector-curvature="0" /></g><g
       id="g3354"
       transform="translate(179.5889,108.1064)"><path
         d="M 0,0 -6.326,0"
         style="fill:none;stroke:#231f20;stroke-width:0.25;stroke-linecap:square;stroke-linejoin:miter;stroke-miterlimit:10;stroke-dasharray:none;stroke-opacity:1"
         id="path3356"
         inkscape:connector-curvature="0" /></g><g
       id="g3358"
       transform="translate(137.7378,108.1064)"><path
         d="M 0,0 -6.331,0"
         style="fill:none;stroke:#231f20;stroke-width:0.25;stroke-linecap:square;stroke-linejoin:miter;stroke-miterlimit:10;stroke-dasharray:none;stroke-opacity:1"
         id="path3360"
         inkscape:connector-curvature="0" /></g><g
       id="g3362"
       transform="translate(151.2236,105.9541)"><path
         d="M 0,0 0,19.883"
         style="fill:none;stroke:#231f20;stroke-width:0.25;stroke-linecap:square;stroke-linejoin:miter;stroke-miterlimit:10;stroke-dasharray:none;stroke-opacity:1"
         id="path3364"
         inkscape:connector-curvature="0" /></g><g
       id="g3366"
       transform="translate(159.7725,114.9346)"><path
         d="M 0,0 -8.549,0"
         style="fill:none;stroke:#231f20;stroke-width:0.25;stroke-linecap:square;stroke-linejoin:miter;stroke-miterlimit:10;stroke-dasharray:none;stroke-opacity:1"
         id="path3368"
         inkscape:connector-curvature="0" /></g><g
       id="g3370"
       transform="translate(114.939,114.9346)"><path
         d="M 0,0 2.982,0"
         style="fill:none;stroke:#231f20;stroke-width:0.25;stroke-linecap:square;stroke-linejoin:miter;stroke-miterlimit:10;stroke-dasharray:none;stroke-opacity:1"
         id="path3372"
         inkscape:connector-curvature="0" /></g><g
       id="g3374"
       transform="translate(193.0752,114.9346)"><path
         d="M 0,0 2.949,0"
         style="fill:none;stroke:#231f20;stroke-width:0.25;stroke-linecap:square;stroke-linejoin:miter;stroke-miterlimit:10;stroke-dasharray:none;stroke-opacity:1"
         id="path3376"
         inkscape:connector-curvature="0" /></g><g
       id="g3378"
       transform="translate(196.0244,120.2988)"><path
         d="M 0,0 -2.949,0"
         style="fill:none;stroke:#231f20;stroke-width:0.25;stroke-linecap:square;stroke-linejoin:miter;stroke-miterlimit:10;stroke-dasharray:none;stroke-opacity:1"
         id="path3380"
         inkscape:connector-curvature="0" /></g><g
       id="g3382"
       transform="translate(159.7725,120.2988)"><path
         d="M 0,0 -8.549,0"
         style="fill:none;stroke:#231f20;stroke-width:0.25;stroke-linecap:square;stroke-linejoin:miter;stroke-miterlimit:10;stroke-dasharray:none;stroke-opacity:1"
         id="path3384"
         inkscape:connector-curvature="0" /></g><g
       id="g3386"
       transform="translate(117.9214,120.2988)"><path
         d="M 0,0 -2.982,0"
         style="fill:none;stroke:#231f20;stroke-width:0.25;stroke-linecap:square;stroke-linejoin:miter;stroke-miterlimit:10;stroke-dasharray:none;stroke-opacity:1"
         id="path3388"
         inkscape:connector-curvature="0" /></g><g
       id="g3390"
       transform="translate(159.7725,105.9541)"><path
         d="M 0,0 0,19.883"
         style="fill:none;stroke:#231f20;stroke-width:0.25;stroke-linecap:square;stroke-linejoin:miter;stroke-miterlimit:10;stroke-dasharray:none;stroke-opacity:1"
         id="path3392"
         inkscape:connector-curvature="0" /></g><g
       id="g3394"
       transform="translate(178.2012,125.4053)"><path
         d="M 0,0 -3.55,0"
         style="fill:none;stroke:#231f20;stroke-width:0.25;stroke-linecap:square;stroke-linejoin:miter;stroke-miterlimit:10;stroke-dasharray:none;stroke-opacity:1"
         id="path3396"
         inkscape:connector-curvature="0" /></g><g
       id="g3398"
       transform="translate(136.3452,125.4053)"><path
         d="M 0,0 -3.545,0"
         style="fill:none;stroke:#231f20;stroke-width:0.25;stroke-linecap:square;stroke-linejoin:miter;stroke-miterlimit:10;stroke-dasharray:none;stroke-opacity:1"
         id="path3400"
         inkscape:connector-curvature="0" /></g><g
       id="g3402"
       transform="translate(196.0244,125.8369)"><path
         d="M 0,0 -81.085,0"
         style="fill:none;stroke:#231f20;stroke-width:0.25;stroke-linecap:square;stroke-linejoin:miter;stroke-miterlimit:10;stroke-dasharray:none;stroke-opacity:1"
         id="path3404"
         inkscape:connector-curvature="0" /></g><g
       id="g3406"
       transform="translate(193.8721,127.9892)"><path
         d="M 0,0 -76.781,0"
         style="fill:none;stroke:#231f20;stroke-width:0.25;stroke-linecap:square;stroke-linejoin:miter;stroke-miterlimit:10;stroke-dasharray:none;stroke-opacity:1"
         id="path3408"
         inkscape:connector-curvature="0" /></g><g
       id="g3410"
       transform="translate(117.0913,133.5879)"><path
         d="M 0,0 76.781,0"
         style="fill:none;stroke:#231f20;stroke-width:0.25;stroke-linecap:square;stroke-linejoin:miter;stroke-miterlimit:10;stroke-dasharray:none;stroke-opacity:1"
         id="path3412"
         inkscape:connector-curvature="0" /></g><g
       id="g3414"
       transform="translate(193.0752,105.9541)"><path
         d="M 0,0 0,19.883"
         style="fill:none;stroke:#231f20;stroke-width:0.25;stroke-linecap:square;stroke-linejoin:miter;stroke-miterlimit:10;stroke-dasharray:none;stroke-opacity:1"
         id="path3416"
         inkscape:connector-curvature="0" /></g><g
       id="g3418"><g
         id="g3420"
         clip-path="url(#clipPath3422)"><g
           id="g3426"
           transform="translate(114.9717,105.9541)"><path
             d="M 0,0 C 0,-1.195 0.961,-2.156 2.12,-2.156"
             style="fill:none;stroke:#231f20;stroke-width:0.5;stroke-linecap:square;stroke-linejoin:miter;stroke-miterlimit:10;stroke-dasharray:none;stroke-opacity:1"
             id="path3428"
             inkscape:connector-curvature="0" /></g><g
           id="g3430"
           transform="translate(117.0913,134.8496)"><path
             d="M 0,0 C -1.158,0 -2.12,-0.961 -2.12,-2.157"
             style="fill:none;stroke:#231f20;stroke-width:0.5;stroke-linecap:square;stroke-linejoin:miter;stroke-miterlimit:10;stroke-dasharray:none;stroke-opacity:1"
             id="path3432"
             inkscape:connector-curvature="0" /></g><g
           id="g3434"
           transform="translate(117.0913,127.9892)"><path
             d="M 0,0 C -1.158,0 -2.12,-0.961 -2.12,-2.152"
             style="fill:none;stroke:#231f20;stroke-width:0.25;stroke-linecap:square;stroke-linejoin:miter;stroke-miterlimit:10;stroke-dasharray:none;stroke-opacity:1"
             id="path3436"
             inkscape:connector-curvature="0" /></g><g
           id="g3438"
           transform="translate(193.9053,103.7978)"><path
             d="M 0,0 C 1.158,0 2.119,0.961 2.119,2.157"
             style="fill:none;stroke:#231f20;stroke-width:0.5;stroke-linecap:square;stroke-linejoin:miter;stroke-miterlimit:10;stroke-dasharray:none;stroke-opacity:1"
             id="path3440"
             inkscape:connector-curvature="0" /></g><g
           id="g3442"
           transform="translate(196.0244,125.8369)"><path
             d="M 0,0 C 0,1.191 -0.961,2.152 -2.119,2.152"
             style="fill:none;stroke:#231f20;stroke-width:0.25;stroke-linecap:square;stroke-linejoin:miter;stroke-miterlimit:10;stroke-dasharray:none;stroke-opacity:1"
             id="path3444"
             inkscape:connector-curvature="0" /></g><g
           id="g3446"
           transform="translate(195.4629,134.1518)"><path
             d="M 0,0 C -0.39,0.429 -0.946,0.698 -1.558,0.698"
             style="fill:none;stroke:#231f20;stroke-width:0.5;stroke-linecap:square;stroke-linejoin:miter;stroke-miterlimit:10;stroke-dasharray:none;stroke-opacity:1"
             id="path3448"
             inkscape:connector-curvature="0" /></g><g
           id="g3450"
           transform="translate(196.0244,132.6924)"><path
             d="M 0,0 C 0,0.564 -0.214,1.076 -0.562,1.459"
             style="fill:none;stroke:#231f20;stroke-width:0.5;stroke-linecap:square;stroke-linejoin:miter;stroke-miterlimit:10;stroke-dasharray:none;stroke-opacity:1"
             id="path3452"
             inkscape:connector-curvature="0" /></g><g
           id="g3454"
           transform="translate(117.0913,133.5879)"><path
             d="m 0,0 -0.099,0 -0.066,-0.033 -0.262,0 -0.07,-0.032 -0.099,0 -0.065,-0.033 -0.099,0 -0.032,-0.033 -0.066,0 -0.066,-0.033 -0.033,0 -0.07,-0.033 -0.033,0 -0.065,-0.032 -0.033,-0.034 -0.033,0 -0.066,-0.032 -0.033,-0.033 -0.033,-0.038 -0.065,0 -0.033,-0.032 -0.037,-0.033 -0.066,-0.033 -0.033,-0.033 -0.033,0 -0.033,-0.033 -0.032,-0.032 -0.033,-0.033 -0.033,-0.033 -0.033,-0.033 -0.033,-0.033 -0.032,-0.033 -0.034,-0.033 -0.032,-0.032 -0.033,-0.033 0,-0.038 -0.038,-0.033 -0.032,-0.065 0,-0.033 -0.033,-0.033 0,-0.033 -0.033,-0.032 0,-0.033 -0.033,-0.066 0,-0.033 -0.033,-0.032 0,-0.169 -0.032,-0.033 0,-0.066"
             style="fill:none;stroke:#231f20;stroke-width:0.25;stroke-linecap:square;stroke-linejoin:miter;stroke-miterlimit:10;stroke-dasharray:none;stroke-opacity:1"
             id="path3456"
             inkscape:connector-curvature="0" /></g><g
           id="g3458"
           transform="translate(196.0244,132.0639)"><path
             d="m 0,0 0,0.234 -0.033,0.034 0,0.065 -0.032,0.065 0,0.034 -0.034,0.032 0,0.033 -0.033,0.033 0,0.033 -0.032,0.065 -0.033,0.033 -0.032,0.038 0,0.032 -0.034,0.033 -0.033,0.033 -0.032,0.033 -0.033,0.033 -0.033,0.033 C -0.609,1.13 -0.525,0.938 -0.727,1.158 l -0.066,0 -0.032,0.038 -0.066,0.033 -0.033,0.032 -0.037,0 -0.066,0.033 -0.033,0.033 -0.065,0 -0.033,0.033 -0.066,0 -0.033,0.033 -0.065,0 -0.033,0.033 -0.103,0 -0.066,0.032 -0.098,0 -0.066,0.033 -0.3,0 -0.033,0.033 -0.131,0"
             style="fill:none;stroke:#231f20;stroke-width:0.25;stroke-linecap:square;stroke-linejoin:miter;stroke-miterlimit:10;stroke-dasharray:none;stroke-opacity:1"
             id="path3460"
             inkscape:connector-curvature="0" /></g><g
           id="g3462"
           transform="translate(178.2012,125.8369)"><path
             d="m 0,0 0,-5.106 -3.55,0 0,5.106"
             style="fill:none;stroke:#231f20;stroke-width:0.25;stroke-linecap:square;stroke-linejoin:miter;stroke-miterlimit:10;stroke-dasharray:none;stroke-opacity:1"
             id="path3464"
             inkscape:connector-curvature="0" /></g><g
           id="g3466"
           transform="translate(173.2627,105.9541)"><path
             d="m 0,0 0,4.207 6.326,0 0,-4.207"
             style="fill:none;stroke:#231f20;stroke-width:0.25;stroke-linecap:square;stroke-linejoin:miter;stroke-miterlimit:10;stroke-dasharray:none;stroke-opacity:1"
             id="path3468"
             inkscape:connector-curvature="0" /></g><g
           id="g3470"
           transform="translate(130.249,134.8496)"><path
             d="m 0,0 0,0.858 1.623,0 0,-0.858"
             style="fill:none;stroke:#231f20;stroke-width:0.5;stroke-linecap:square;stroke-linejoin:miter;stroke-miterlimit:10;stroke-dasharray:none;stroke-opacity:1"
             id="path3472"
             inkscape:connector-curvature="0" /></g><g
           id="g3474"
           transform="translate(136.3452,125.8369)"><path
             d="m 0,0 0,-5.106 -3.545,0 0,5.106"
             style="fill:none;stroke:#231f20;stroke-width:0.25;stroke-linecap:square;stroke-linejoin:miter;stroke-miterlimit:10;stroke-dasharray:none;stroke-opacity:1"
             id="path3476"
             inkscape:connector-curvature="0" /></g><g
           id="g3478"
           transform="translate(193.8721,134.8496)"><path
             d="M 0,0 0,-14.551"
             style="fill:none;stroke:#231f20;stroke-width:0.25;stroke-linecap:square;stroke-linejoin:miter;stroke-miterlimit:10;stroke-dasharray:none;stroke-opacity:1"
             id="path3480"
             inkscape:connector-curvature="0" /></g><g
           id="g3482"
           transform="translate(117.0913,134.8496)"><path
             d="M 0,0 76.781,0"
             style="fill:none;stroke:#231f20;stroke-width:0.5;stroke-linecap:square;stroke-linejoin:miter;stroke-miterlimit:10;stroke-dasharray:none;stroke-opacity:1"
             id="path3484"
             inkscape:connector-curvature="0" /></g><g
           id="g3486"
           transform="translate(117.0913,120.2988)"><path
             d="M 0,0 0,14.551"
             style="fill:none;stroke:#231f20;stroke-width:0.25;stroke-linecap:square;stroke-linejoin:miter;stroke-miterlimit:10;stroke-dasharray:none;stroke-opacity:1"
             id="path3488"
             inkscape:connector-curvature="0" /></g><g
           id="g3490"
           transform="translate(114.939,105.9551)"><path
             d="M 0,0 0,26.737"
             style="fill:none;stroke:#231f20;stroke-width:0.5;stroke-linecap:square;stroke-linejoin:miter;stroke-miterlimit:10;stroke-dasharray:none;stroke-opacity:1"
             id="path3492"
             inkscape:connector-curvature="0" /></g><g
           id="g3494"
           transform="translate(196.0244,105.9551)"><path
             d="M 0,0 -81.085,0"
             style="fill:none;stroke:#231f20;stroke-width:0.25;stroke-linecap:square;stroke-linejoin:miter;stroke-miterlimit:10;stroke-dasharray:none;stroke-opacity:1"
             id="path3496"
             inkscape:connector-curvature="0" /></g><g
           id="g3498"
           transform="translate(196.0244,132.6924)"><path
             d="M 0,0 0,-26.737"
             style="fill:none;stroke:#231f20;stroke-width:0.5;stroke-linecap:square;stroke-linejoin:miter;stroke-miterlimit:10;stroke-dasharray:none;stroke-opacity:1"
             id="path3500"
             inkscape:connector-curvature="0" /></g><g
           id="g3502"
           transform="translate(131.4072,105.9541)"><path
             d="m 0,0 0,4.207 6.331,0 0,-4.207"
             style="fill:none;stroke:#231f20;stroke-width:0.25;stroke-linecap:square;stroke-linejoin:miter;stroke-miterlimit:10;stroke-dasharray:none;stroke-opacity:1"
             id="path3504"
             inkscape:connector-curvature="0" /></g><g
           id="g3506"
           transform="translate(117.0913,103.7978)"><path
             d="M 0,0 0,11.137"
             style="fill:none;stroke:#231f20;stroke-width:0.25;stroke-linecap:square;stroke-linejoin:miter;stroke-miterlimit:10;stroke-dasharray:none;stroke-opacity:1"
             id="path3508"
             inkscape:connector-curvature="0" /></g><g
           id="g3510"
           transform="translate(193.8721,103.7978)"><path
             d="M 0,0 -76.781,0"
             style="fill:none;stroke:#231f20;stroke-width:0.5;stroke-linecap:square;stroke-linejoin:miter;stroke-miterlimit:10;stroke-dasharray:none;stroke-opacity:1"
             id="path3512"
             inkscape:connector-curvature="0" /></g><g
           id="g3514"
           transform="translate(193.8721,114.9346)"><path
             d="M 0,0 0,-11.137"
             style="fill:none;stroke:#231f20;stroke-width:0.25;stroke-linecap:square;stroke-linejoin:miter;stroke-miterlimit:10;stroke-dasharray:none;stroke-opacity:1"
             id="path3516"
             inkscape:connector-curvature="0" /></g><g
           id="g3518"><g
             id="g3520" /><g
             id="g3526"><g
               clip-path="url(#clipPath3522)"
               id="g3528"><text
                 transform="matrix(1,0,0,-1,200.833,113.9805)"
                 style="font-variant:normal;font-weight:bold;font-stretch:normal;font-size:10px;font-family:Helvetica;-inkscape-font-specification:Helvetica-Bold;writing-mode:lr-tb;fill:#292929;fill-opacity:1;fill-rule:nonzero;stroke:none"
                 id="text3530"><tspan
                   x="0"
                   y="0"
                   id="tspan3532">2</tspan></text>
</g></g></g><g
           id="g3534"><g
             id="g3536" /><g
             id="g3542"><g
               clip-path="url(#clipPath3538)"
               id="g3544"><text
                 transform="matrix(1,0,0,-1,103.4482,113.9805)"
                 style="font-variant:normal;font-weight:bold;font-stretch:normal;font-size:10px;font-family:Helvetica;-inkscape-font-specification:Helvetica-Bold;writing-mode:lr-tb;fill:#292929;fill-opacity:1;fill-rule:nonzero;stroke:none"
                 id="text3546"><tspan
                   x="0"
                   y="0"
                   id="tspan3548">1</tspan></text>
</g></g></g></g></g></g></svg>