<?xml version="1.0" encoding="iso-8859-1"?>
<!-- Generator: Adobe Illustrator 23.0.6, SVG Export Plug-In . SVG Version: 6.00 Build 0)  -->
<svg version="1.1" id="Standard_layer" xmlns="http://www.w3.org/2000/svg" xmlns:xlink="http://www.w3.org/1999/xlink" x="0px"
	 y="0px" viewBox="0 0 31.181 31.181" style="enable-background:new 0 0 31.181 31.181;" xml:space="preserve">
<polyline style="fill-rule:evenodd;clip-rule:evenodd;" points="12.852,30.163 12.852,19.02 9.389,22.484 4.797,22.484 
	4.797,26.701 9.389,26.701 12.852,30.163 "/>
<path style="fill-rule:evenodd;clip-rule:evenodd;" d="M16.98,23.643l1.665-1.666c0.102-0.101,0.241-0.164,0.396-0.164
	c0.307,0,0.557,0.25,0.557,0.558c0,0.144-0.054,0.287-0.162,0.395l-1.667,1.667l1.667,1.664c0.101,0.101,0.162,0.241,0.162,0.395
	c0,0.31-0.25,0.558-0.557,0.558c-0.144,0-0.287-0.054-0.396-0.162l-1.665-1.667l-1.665,1.667c-0.101,0.101-0.241,0.162-0.396,0.162
	c-0.308,0-0.558-0.248-0.558-0.558c0-0.142,0.055-0.285,0.164-0.395l1.665-1.664l-1.665-1.667c-0.101-0.101-0.164-0.24-0.164-0.395
	c0-0.308,0.25-0.558,0.558-0.558c0.143,0,0.286,0.056,0.396,0.164L16.98,23.643"/>
<path style="fill-rule:evenodd;clip-rule:evenodd;" d="M22.974,7.029c0-3.527-2.86-6.385-6.387-6.385
	c-3.526,0-6.385,2.858-6.385,6.385c0,3.529,2.859,6.388,6.385,6.388C20.114,13.417,22.974,10.558,22.974,7.029"/>
<path style="fill-rule:evenodd;clip-rule:evenodd;fill:#FFFFFF;" d="M15.02,5.803l1.981,2.215l3.783-4.23
	c-1.042-1.347-2.601-2.056-4.197-2.062c-2.928,0-5.303,2.375-5.303,5.303c0,2.929,2.375,5.303,5.303,5.303
	c2.929,0,5.304-2.374,5.304-5.303c0-0.71-0.14-1.386-0.381-1.971L17.445,9.51c-0.34,0.341-0.85,0.341-1.164,0.027L13.83,6.886
	c-0.124-0.122-0.213-0.323-0.213-0.545c0-0.445,0.359-0.806,0.804-0.806C14.626,5.535,14.833,5.615,15.02,5.803"/>
</svg>
