<?xml version="1.0" encoding="UTF-8" standalone="no"?>
<svg
   xmlns:dc="http://purl.org/dc/elements/1.1/"
   xmlns:cc="http://creativecommons.org/ns#"
   xmlns:rdf="http://www.w3.org/1999/02/22-rdf-syntax-ns#"
   xmlns:svg="http://www.w3.org/2000/svg"
   xmlns="http://www.w3.org/2000/svg"
   xmlns:sodipodi="http://sodipodi.sourceforge.net/DTD/sodipodi-0.dtd"
   xmlns:inkscape="http://www.inkscape.org/namespaces/inkscape"
   xml:space="preserve"
   height="768.0"
   viewBox="0,0 65416,45683"
   width="1024.0"
   id="svg2"
   version="1.1"
   inkscape:version="0.91 r13725"
   sodipodi:docname="30 EARTH CIRCUIT - REAR.svg"><metadata
     id="metadata962"><rdf:RDF><cc:Work
         rdf:about=""><dc:format>image/svg+xml</dc:format><dc:type
           rdf:resource="http://purl.org/dc/dcmitype/StillImage" /></cc:Work></rdf:RDF></metadata><sodipodi:namedview
     pagecolor="#ffffff"
     bordercolor="#666666"
     borderopacity="1"
     objecttolerance="10"
     gridtolerance="10"
     guidetolerance="10"
     inkscape:pageopacity="0"
     inkscape:pageshadow="2"
     inkscape:window-width="640"
     inkscape:window-height="480"
     id="namedview960"
     showgrid="false"
     inkscape:zoom="0.28125"
     inkscape:cx="512"
     inkscape:cy="384"
     inkscape:window-x="0"
     inkscape:window-y="0"
     inkscape:window-maximized="0"
     inkscape:current-layer="g8" /><defs
     id="defs4"><style
       type="text/css"
       id="style6"><![CDATA[
.A{stroke:#808080;stroke-width:59px;}
.B,.C,.L,.M,.K,.N,.Q,.O,.P,.F,.E,.T,.I,.J,.R,.S{stroke-linecap:square;}
.D{stroke-dasharray:6594,3297;}
.D,.B,.C,.M,.K,.Q,.O,.F,.E{stroke-width:16px;}
.E,.S{fill:#CCC;}
.G,.A,.B,.C,.L,.M,.K,.N,.Q,.O,.P,.F,.E,.T,.I,.J,.R,.S{stroke-dasharray:none;}
.H{stroke-dasharray:1962,981;}
.H,.D,.G,.A{stroke-linecap:butt;}
.H,.D,.G,.A,.B,.C{fill-opacity:0.0;fill:none;}
.H,.D,.G,.A,.B,.C,.F,.E,.R,.S{font-family:sans-serif;}
.H,.D,.G,.A,.B,.C,.L,.M,.K,.N,.Q,.O,.P,.F,.E,.T,.I,.J,.R,.S{fill-rule:evenodd;font-style:normal;font-weight:normal;stroke-linejoin:miter;stroke-miterlimit:10;}
.H,.D,.G,.A,.B,.C,.T,.I,.J,.R,.S{stroke-opacity:1.0;}
.H,.D,.G,.B,.C,.L,.M,.K,.N,.Q,.O,.F,.E,.T,.I,.J,.R,.S{stroke:#000;}
.H,.G{stroke-width:84px;}
.J{font-size:770px;}
.K,.I{font-size:660px;}
.L,.M,.K,.N,.Q,.O,.P,.F,.E{stroke-opacity:0.0;}
.L,.M,.K,.N,.Q,.O,.P,.F,.E,.T,.I,.J,.R,.S{fill-opacity:1.0;}
.L,.M,.K,.T,.I,.J{font-family:Arial;}
.L,.M,.T{font-size:468px;}
.L,.N,.F,.T,.I,.J,.R{fill:#000;}
.L,.N,.P,.I,.J{stroke-width:0.5px;}
.M,.K,.Q,.O{fill:#FFF;}
.N,.O{font-size:392px;}
.N,.Q,.O,.P{font-family:Tahoma;}
.P{stroke:#999;fill:#999;}
.Q,.P{font-size:314px;}
.T,.R,.S{stroke-width:16.0px;}
]]></style></defs><g
     id="g8"><path
       class="B"
       d="M6230,14192h-337m-1013,675h202l811,-675m202,675h-270"
       id="path10" /><rect
       class="C"
       x="5284"
       y="15544"
       width="540"
       height="946"
       id="rect12" /><path
       class="B"
       d="M5284,15746l540,270m-540,0l540,270m-540,-67h-405m1351,0h-405"
       id="path14" /><path
       class="D"
       d="M5554,15544l-3,-1123"
       id="path16" /><path
       class="B"
       d="M6230,9362h-337m-1013,675h202l811,-675m202,675h-270"
       id="path18" /><rect
       class="C"
       x="5284"
       y="10713"
       width="540"
       height="946"
       id="rect20" /><path
       class="B"
       d="M5284,10916l540,270m-540,0l540,270m-540,-67h-405m1351,0h-405"
       id="path22" /><path
       class="D"
       d="M5554,10713l-3,-1123"
       id="path24" /><g
       id="g26"><path
         class="E"
         d="M6259,42514v-337v-675v-337h337h337v337v675v337 z"
         id="path28" /><path
         class="B"
         d="M6259,41500v-337h675v337m0,675v337h-675v-337"
         id="path30" /></g><g
       id="g32"><path
         class="E"
         d="M6259,31700v-337v-675v-337h337h337v337v675v337 z"
         id="path34" /><path
         class="B"
         d="M6259,30686v-337h675v337m0,675v337h-675v-337"
         id="path36" /></g><g
       id="g38"><path
         class="E"
         d="M6259,19533v-337v-675v-337h337h337v337v675v337 z"
         id="path40" /><path
         class="B"
         d="M6259,18519v-337h675v337m0,675v337h-675v-337"
         id="path42" /></g><g
       id="g44"><circle
         class="R"
         cx="31268"
         cy="13450"
         r="270"
         id="circle46" /></g><g
       id="g48"><path
         class="E"
         d="M6259,12098v-337v-2703v-337h337h337v337v2703v337 z"
         id="path50" /><path
         class="B"
         d="M6259,11760v337h675v-337m-675,-675v-2365h675v2365"
         id="path52" /></g><g
       id="g54"><path
         class="E"
         d="M6259,7366v-337v-675v-337h337h337v337v675v337 z"
         id="path56" /><path
         class="B"
         d="M6259,6352v-337h675v337m0,675v337h-675v-337"
         id="path58" /></g><g
       id="g60"><path
         class="E"
         d="M6259,24940v-337v-3379v-337h337h337v337v3379v337 z"
         id="path62" /><path
         class="B"
         d="M6259,21223v-337h675v337m0,3379v337h-675v-337"
         id="path64" /></g><g
       id="g66"><path
         class="E"
         d="M19777,36431v-337v-675v-337h-337h-337v337v675v337 z"
         id="path68" /><path
         class="B"
         d="M19777,36093v337h-675v-337m0,-675v-337h675v337m-1013,337h675"
         id="path70" /></g><g
       id="g72"><path
         class="E"
         d="M19101,36431v-337v-675v-337h-337h-337v337v675v337 z"
         id="path74" /><path
         class="B"
         d="M19101,36093v337h-675v-337m0,-675v-337h675v337m-337,337h675"
         id="path76" /></g><g
       id="g78"><path
         class="E"
         d="M6259,39135v-337v-675v-337h337h337v337v675v337 z"
         id="path80" /><path
         class="B"
         d="M6259,38121v-337h675v337m0,675v337h-675v-337"
         id="path82" /></g><g
       id="g84"><path
         class="E"
         d="M6259,16829v-337v-2703v-337h337h337v337v2703v337 z"
         id="path86" /><path
         class="B"
         d="M6259,16491v337h675v-337m-675,-675v-2365h675v2365"
         id="path88" /></g><g
       id="g90"><path
         class="E"
         d="M18425,34403v-337v-675v-337h337h337v337v675v337 z"
         id="path92" /><path
         class="B"
         d="M18425,34065v337h675v-337m0,-675v-337h-675v337m1013,337h-675"
         id="path94" /></g><g
       id="g96"><path
         class="E"
         d="M6259,28320v-337v-1351v-337h337h337v337v1351v337 z"
         id="path98" /><path
         class="B"
         d="M6259,26630v-337h675v337m0,1351v337h-675v-337"
         id="path100" /></g><g
       id="g102"><circle
         class="R"
         cx="36675"
         cy="41838"
         r="270"
         id="circle104" /></g><g
       id="g106"><circle
         class="S"
         cx="64895"
         cy="41838"
         r="168"
         id="circle108" /><circle
         class="S"
         cx="64895"
         cy="41838"
         r="101"
         id="circle110" /><rect
         class="S"
         x="63374"
         y="41771"
         width="1351"
         height="135"
         id="rect112" /><rect
         class="S"
         x="63036"
         y="41771"
         width="337"
         height="135"
         id="rect114" /></g><g
       id="g116"><path
         class="E"
         d="M50869,42514v-337v-675v-337h-337h-337v337v675v337 z"
         id="path118" /><path
         class="B"
         d="M50869,42176v337h-675v-337m0,-675v-337h675v337m-1013,337h675"
         id="path120" /></g><g
       id="g122"><path
         class="E"
         d="M19101,34403v-337v-675v-337h337h337v337v675v337 z"
         id="path124" /><path
         class="B"
         d="M19101,34065v337h675v-337m0,-675v-337h-675v337m337,337h-675"
         id="path126" /></g><g
       id="g128"><path
         class="E"
         d="M50194,42514v-337v-675v-337h-337h-337v337v675v337 z"
         id="path130" /><path
         class="B"
         d="M50194,42176v337h-675v-337m0,-675v-337h675v337m-337,337h675"
         id="path132" /></g><g
       id="g134"><path
         class="B"
         d="M6259,41500v-337h-4731v1351h4731v-337"
         id="path136" /></g><g
       id="g138"><path
         class="B"
         d="M6259,18519v-337h-4731v1351h4731v-337"
         id="path140" /></g><g
       id="g142"><path
         class="B"
         d="M6259,30686v-337h-4731v1351h4731v-337"
         id="path144" /></g><g
       id="g146"><path
         class="B"
         d="M6259,21223v-337h-4731v4055h4731v-337"
         id="path148" /></g><g
       id="g150"><path
         class="B"
         d="M6259,35417v-337h-4731v1351h4731v-337"
         id="path152" /></g><g
       id="g154"><path
         class="B"
         d="M6259,33389v-337h-4731v1351h4731v-337"
         id="path156" /></g><g
       id="g158"><path
         class="B"
         d="M6259,6352v-337h-4731v1351h4731v-337"
         id="path160" /></g><g
       id="g162"><path
         class="B"
         d="M6259,38797v337h-4731v-1351h4731v337"
         id="path164" /></g><g
       id="g166"><path
         class="B"
         d="M6259,15815v-2365h-1351v3379h1351v-337"
         id="path168" /></g><g
       id="g170"><path
         class="B"
         d="M6259,26630v-337h-4731v2027h4731v-337"
         id="path172" /></g><g
       id="g174"><path
         class="B"
         d="M6259,11084v-2365h-1351v3379h1351v-337"
         id="path176" /></g><g
       id="g178"><path
         class="G"
         d="M6934,31024h24333"
         id="path180" /><circle
         class="F"
         cx="31268"
         cy="31024"
         r="42"
         id="circle182" /><path
         class="H"
         d="M6934,31024h24333"
         id="path184" /></g><g
       id="g186"><path
         class="G"
         d="M31268,13450l-2027,5407"
         id="path188" /><circle
         class="F"
         cx="31268"
         cy="13450"
         r="42"
         id="circle190" /><circle
         class="F"
         cx="29240"
         cy="18857"
         r="42"
         id="circle192" /><path
         class="H"
         d="M31268,13450l-2027,5407"
         id="path194" /><path
         class="G"
         d="M6934,18857h22305"
         id="path196" /><circle
         class="F"
         cx="29240"
         cy="18857"
         r="42"
         id="circle198" /><path
         class="H"
         d="M6934,18857h22305"
         id="path200" /></g><g
       id="g202"><path
         class="G"
         d="M31268,31024v-17574"
         id="path204" /><circle
         class="F"
         cx="31268"
         cy="31024"
         r="42"
         id="circle206" /><circle
         class="F"
         cx="31268"
         cy="13450"
         r="42"
         id="circle208" /><path
         class="H"
         d="M31268,31024v-17574"
         id="path210" /></g><g
       id="g212"><path
         class="G"
         d="M31268,13450l-2027,2703"
         id="path214" /><circle
         class="F"
         cx="31268"
         cy="13450"
         r="42"
         id="circle216" /><circle
         class="F"
         cx="29240"
         cy="16153"
         r="42"
         id="circle218" /><path
         class="H"
         d="M31268,13450l-2027,2703"
         id="path220" /><path
         class="G"
         d="M6934,16153h22305"
         id="path222" /><circle
         class="F"
         cx="29240"
         cy="16153"
         r="42"
         id="circle224" /><path
         class="H"
         d="M6934,16153h22305"
         id="path226" /></g><g
       id="g228"><path
         class="G"
         d="M31268,13450l-2027,-2027"
         id="path230" /><circle
         class="F"
         cx="31268"
         cy="13450"
         r="42"
         id="circle232" /><circle
         class="F"
         cx="29240"
         cy="11422"
         r="42"
         id="circle234" /><path
         class="H"
         d="M31268,13450l-2027,-2027"
         id="path236" /><path
         class="G"
         d="M6934,11422h22305"
         id="path238" /><circle
         class="F"
         cx="29240"
         cy="11422"
         r="42"
         id="circle240" /><path
         class="H"
         d="M6934,11422h22305"
         id="path242" /></g><g
       id="g244"><path
         class="G"
         d="M31268,6690h-24333"
         id="path246" /><circle
         class="F"
         cx="31268"
         cy="6690"
         r="42"
         id="circle248" /><path
         class="H"
         d="M31268,6690h-24333"
         id="path250" /><path
         class="G"
         d="M31268,6690v6759"
         id="path252" /><circle
         class="F"
         cx="31268"
         cy="6690"
         r="42"
         id="circle254" /><circle
         class="F"
         cx="31268"
         cy="13450"
         r="42"
         id="circle256" /><path
         class="H"
         d="M31268,6690v6759"
         id="path258" /></g><g
       id="g260"><path
         class="G"
         d="M6934,22913h20277"
         id="path262" /><circle
         class="F"
         cx="27212"
         cy="22913"
         r="42"
         id="circle264" /><path
         class="H"
         d="M6934,22913h20277"
         id="path266" /></g><g
       id="g268"><path
         class="G"
         d="M27212,22913l-675,-675"
         id="path270" /><circle
         class="F"
         cx="27212"
         cy="22913"
         r="42"
         id="circle272" /><circle
         class="F"
         cx="26536"
         cy="22237"
         r="42"
         id="circle274" /><path
         class="H"
         d="M27212,22913l-675,-675"
         id="path276" /><path
         class="G"
         d="M6934,22237h19601"
         id="path278" /><circle
         class="F"
         cx="26536"
         cy="22237"
         r="42"
         id="circle280" /><path
         class="H"
         d="M6934,22237h19601"
         id="path282" /></g><g
       id="g284"><path
         class="G"
         d="M27212,22913v-1351"
         id="path286" /><circle
         class="F"
         cx="27212"
         cy="22913"
         r="42"
         id="circle288" /><circle
         class="F"
         cx="27212"
         cy="21561"
         r="42"
         id="circle290" /><path
         class="H"
         d="M27212,22913v-1351"
         id="path292" /><path
         class="G"
         d="M6934,21561h20277"
         id="path294" /><circle
         class="F"
         cx="27212"
         cy="21561"
         r="42"
         id="circle296" /><path
         class="H"
         d="M6934,21561h20277"
         id="path298" /></g><g
       id="g300"><path
         class="G"
         d="M27212,22913l-675,675"
         id="path302" /><circle
         class="F"
         cx="27212"
         cy="22913"
         r="42"
         id="circle304" /><circle
         class="F"
         cx="26536"
         cy="23588"
         r="42"
         id="circle306" /><path
         class="H"
         d="M27212,22913l-675,675"
         id="path308" /><path
         class="G"
         d="M6934,23588h19601"
         id="path310" /><circle
         class="F"
         cx="26536"
         cy="23588"
         r="42"
         id="circle312" /><path
         class="H"
         d="M6934,23588h19601"
         id="path314" /></g><g
       id="g316"><path
         class="G"
         d="M27212,22913v1351"
         id="path318" /><circle
         class="F"
         cx="27212"
         cy="22913"
         r="42"
         id="circle320" /><circle
         class="F"
         cx="27212"
         cy="24264"
         r="42"
         id="circle322" /><path
         class="H"
         d="M27212,22913v1351"
         id="path324" /><path
         class="G"
         d="M6934,24264h20277"
         id="path326" /><circle
         class="F"
         cx="27212"
         cy="24264"
         r="42"
         id="circle328" /><path
         class="H"
         d="M6934,24264h20277"
         id="path330" /></g><g
       id="g332"><path
         class="G"
         d="M27212,22913h3379"
         id="path334" /><circle
         class="F"
         cx="27212"
         cy="22913"
         r="42"
         id="circle336" /><circle
         class="F"
         cx="30592"
         cy="22913"
         r="42"
         id="circle338" /><path
         class="H"
         d="M27212,22913h3379"
         id="path340" /><path
         class="G"
         d="M30592,26968l675,4055"
         id="path342" /><circle
         class="F"
         cx="30592"
         cy="26968"
         r="42"
         id="circle344" /><circle
         class="F"
         cx="31268"
         cy="31024"
         r="42"
         id="circle346" /><path
         class="H"
         d="M30592,26968l675,4055"
         id="path348" /><path
         class="G"
         d="M30592,22913v4055"
         id="path350" /><circle
         class="F"
         cx="30592"
         cy="22913"
         r="42"
         id="circle352" /><circle
         class="F"
         cx="30592"
         cy="26968"
         r="42"
         id="circle354" /><path
         class="H"
         d="M30592,22913v4055"
         id="path356" /></g><g
       id="g358"><path
         class="G"
         d="M31268,31024v4731"
         id="path360" /><circle
         class="F"
         cx="31268"
         cy="31024"
         r="42"
         id="circle362" /><circle
         class="F"
         cx="31268"
         cy="35755"
         r="42"
         id="circle364" /><path
         class="H"
         d="M31268,31024v4731"
         id="path366" /><path
         class="G"
         d="M19777,35755h11490"
         id="path368" /><circle
         class="F"
         cx="31268"
         cy="35755"
         r="42"
         id="circle370" /><path
         class="H"
         d="M19777,35755h11490"
         id="path372" /></g><g
       id="g374"><path
         class="G"
         d="M18425,35755h-12166"
         id="path376" /><path
         class="H"
         d="M18425,35755h-12166"
         id="path378" /></g><g
       id="g380"><path
         class="G"
         d="M6934,38459h26361"
         id="path382" /><circle
         class="F"
         cx="33295"
         cy="38459"
         r="42"
         id="circle384" /><path
         class="H"
         d="M6934,38459h26361"
         id="path386" /><path
         class="G"
         d="M33295,38459l3379,3379"
         id="path388" /><circle
         class="F"
         cx="33295"
         cy="38459"
         r="42"
         id="circle390" /><circle
         class="F"
         cx="36675"
         cy="41838"
         r="42"
         id="circle392" /><path
         class="H"
         d="M33295,38459l3379,3379"
         id="path394" /></g><g
       id="g396"><path
         class="G"
         d="M18425,33727h-12166"
         id="path398" /><path
         class="H"
         d="M18425,33727h-12166"
         id="path400" /></g><g
       id="g402"><path
         class="G"
         d="M31268,31024l-2027,-3379"
         id="path404" /><circle
         class="F"
         cx="31268"
         cy="31024"
         r="42"
         id="circle406" /><circle
         class="F"
         cx="29240"
         cy="27644"
         r="42"
         id="circle408" /><path
         class="H"
         d="M31268,31024l-2027,-3379"
         id="path410" /><path
         class="G"
         d="M18425,27644h10814"
         id="path412" /><circle
         class="F"
         cx="18425"
         cy="27644"
         r="42"
         id="circle414" /><circle
         class="F"
         cx="29240"
         cy="27644"
         r="42"
         id="circle416" /><path
         class="H"
         d="M18425,27644h10814"
         id="path418" /><path
         class="G"
         d="M6934,27644h11490"
         id="path420" /><circle
         class="F"
         cx="18425"
         cy="27644"
         r="42"
         id="circle422" /><path
         class="H"
         d="M6934,27644h11490"
         id="path424" /></g><g
       id="g426"><path
         class="G"
         d="M31268,31024l-1351,-4055"
         id="path428" /><circle
         class="F"
         cx="31268"
         cy="31024"
         r="42"
         id="circle430" /><circle
         class="F"
         cx="29916"
         cy="26968"
         r="42"
         id="circle432" /><path
         class="H"
         d="M31268,31024l-1351,-4055"
         id="path434" /><path
         class="G"
         d="M8962,26968h20953"
         id="path436" /><circle
         class="F"
         cx="8962"
         cy="26968"
         r="42"
         id="circle438" /><circle
         class="F"
         cx="29916"
         cy="26968"
         r="42"
         id="circle440" /><path
         class="H"
         d="M8962,26968h20953"
         id="path442" /><path
         class="G"
         d="M6934,26968h2027"
         id="path444" /><circle
         class="F"
         cx="8962"
         cy="26968"
         r="42"
         id="circle446" /><path
         class="H"
         d="M6934,26968h2027"
         id="path448" /></g><g
       id="g450"><path
         class="G"
         d="M36675,31700l-5407,-675"
         id="path452" /><circle
         class="F"
         cx="36675"
         cy="31700"
         r="42"
         id="circle454" /><circle
         class="F"
         cx="31268"
         cy="31024"
         r="42"
         id="circle456" /><path
         class="H"
         d="M36675,31700l-5407,-675"
         id="path458" /><path
         class="G"
         d="M36675,31700v10138"
         id="path460" /><circle
         class="F"
         cx="36675"
         cy="31700"
         r="42"
         id="circle462" /><circle
         class="F"
         cx="36675"
         cy="41838"
         r="42"
         id="circle464" /><path
         class="H"
         d="M36675,31700v10138"
         id="path466" /></g><g
       id="g468"><path
         class="G"
         d="M31268,31024l-675,2703"
         id="path470" /><circle
         class="F"
         cx="31268"
         cy="31024"
         r="42"
         id="circle472" /><circle
         class="F"
         cx="30592"
         cy="33727"
         r="42"
         id="circle474" /><path
         class="H"
         d="M31268,31024l-675,2703"
         id="path476" /><path
         class="G"
         d="M19777,33727h10814"
         id="path478" /><circle
         class="F"
         cx="30592"
         cy="33727"
         r="42"
         id="circle480" /><path
         class="H"
         d="M19777,33727h10814"
         id="path482" /></g><g
       id="g484"><path
         class="G"
         d="M43434,41838h-6759"
         id="path486" /><circle
         class="F"
         cx="43434"
         cy="41838"
         r="42"
         id="circle488" /><circle
         class="F"
         cx="36675"
         cy="41838"
         r="42"
         id="circle490" /><path
         class="H"
         d="M43434,41838h-6759"
         id="path492" /><path
         class="G"
         d="M49518,41838h-6083"
         id="path494" /><circle
         class="F"
         cx="43434"
         cy="41838"
         r="42"
         id="circle496" /><path
         class="H"
         d="M49518,41838h-6083"
         id="path498" /></g><g
       id="g500"><path
         class="G"
         d="M63036,41838h-12166"
         id="path502" /><path
         class="H"
         d="M63036,41838h-12166"
         id="path504" /></g><g
       id="g506"><path
         class="G"
         d="M6934,41838h29740"
         id="path508" /><circle
         class="F"
         cx="36675"
         cy="41838"
         r="42"
         id="circle510" /><path
         class="H"
         d="M6934,41838h29740"
         id="path512" /></g><g
       id="g516"><rect
         class="K"
         x="7343"
         y="41533"
         width="1775"
         height="526"
         id="rect518" /><text
         class="L"
         x="7416"
         y="42045"
         id="text520">M48A-1</text>
</g><g
       id="g522"><rect
         class="M"
         x="7343"
         y="30718"
         width="1775"
         height="526"
         id="rect524" /><text
         class="L"
         x="7416"
         y="31230"
         id="text526">M28B-1</text>
</g><g
       id="g528"><rect
         class="M"
         x="7343"
         y="18551"
         width="1352"
         height="526"
         id="rect530" /><text
         class="L"
         x="7416"
         y="19063"
         id="text532">E04-4</text>
</g><g
       id="g534"><rect
         class="M"
         x="31607"
         y="13143"
         width="1155"
         height="633"
         id="rect536" /><text
         class="L"
         x="31750"
         y="13645"
         id="text538">PG7</text>
</g><g
       id="g540"><rect
         class="M"
         x="7343"
         y="11116"
         width="2282"
         height="526"
         id="rect542" /><text
         class="L"
         x="7416"
         y="11628"
         id="text544">R1504-A2</text>
</g><g
       id="g546"><rect
         class="M"
         x="7343"
         y="6385"
         width="1436"
         height="526"
         id="rect548" /><text
         class="L"
         x="7416"
         y="6897"
         id="text550">M72-2</text>
</g><g
       id="g552"><rect
         class="M"
         x="7343"
         y="23959"
         width="1972"
         height="526"
         id="rect554" /><text
         class="L"
         x="7416"
         y="24471"
         id="text556">E02A-22</text>
</g><g
       id="g558"><rect
         class="M"
         x="7343"
         y="23283"
         width="1972"
         height="526"
         id="rect560" /><text
         class="L"
         x="7416"
         y="23795"
         id="text562">E02A-23</text>
</g><g
       id="g564"><rect
         class="M"
         x="7343"
         y="22607"
         width="1690"
         height="526"
         id="rect566" /><text
         class="L"
         x="7416"
         y="23119"
         id="text568">E02A-9</text>
</g><g
       id="g570"><rect
         class="M"
         x="7343"
         y="21931"
         width="1972"
         height="526"
         id="rect572" /><text
         class="L"
         x="7416"
         y="22443"
         id="text574">E02A-10</text>
</g><g
       id="g576"><rect
         class="M"
         x="7343"
         y="21255"
         width="1972"
         height="526"
         id="rect578" /><text
         class="L"
         x="7416"
         y="21767"
         id="text580">E02A-24</text>
</g><g
       id="g582"><text
         class="N"
         x="17930"
         y="34988"
         id="text584">USB SOCKET</text>
</g><g
       id="g586"><rect
         class="O"
         x="20185"
         y="35449"
         width="1436"
         height="526"
         id="rect588" /><text
         class="L"
         x="20258"
         y="35961"
         id="text590">M70-2</text>
</g><g
       id="g592"><rect
         class="M"
         x="16158"
         y="35449"
         width="1859"
         height="526"
         id="rect594" /><text
         class="L"
         x="16231"
         y="35961"
         id="text596">M70M-2</text>
</g><g
       id="g598"><rect
         class="M"
         x="7343"
         y="38153"
         width="1718"
         height="526"
         id="rect600" /><text
         class="L"
         x="7416"
         y="38665"
         id="text602">M59-10</text>
</g><g
       id="g604"><rect
         class="M"
         x="7343"
         y="15848"
         width="2282"
         height="526"
         id="rect606" /><text
         class="L"
         x="7416"
         y="16359"
         id="text608">R0703-A2</text>
</g><g
       id="g610"><rect
         class="M"
         x="16214"
         y="33422"
         width="1802"
         height="526"
         id="rect612" /><text
         class="L"
         x="16287"
         y="33934"
         id="text614">H03M-4</text>
</g><g
       id="g616"><rect
         class="M"
         x="7343"
         y="27338"
         width="1436"
         height="526"
         id="rect618" /><text
         class="L"
         x="7416"
         y="27850"
         id="text620">M36-2</text>
</g><g
       id="g622"><rect
         class="M"
         x="7343"
         y="26662"
         width="1436"
         height="526"
         id="rect624" /><text
         class="L"
         x="7416"
         y="27174"
         id="text626">M36-1</text>
</g><g
       id="g628"><rect
         class="M"
         x="36168"
         y="42102"
         width="1155"
         height="633"
         id="rect630" /><text
         class="L"
         x="36312"
         y="42604"
         id="text632">PG1</text>
</g><g
       id="g634"><text
         class="N"
         x="59131"
         y="41341"
         id="text636">BATTERY NEGATIVE TERMINAL</text>
</g><g
       id="g638"><rect
         class="O"
         x="61191"
         y="41533"
         width="1436"
         height="526"
         id="rect640" /><text
         class="L"
         x="61264"
         y="42045"
         id="text642">M66-1</text>
</g><g
       id="g644"><rect
         class="M"
         x="51278"
         y="41533"
         width="1802"
         height="526"
         id="rect646" /><text
         class="L"
         x="51351"
         y="42045"
         id="text648">H02M-1</text>
</g><g
       id="g650"><text
         class="N"
         x="16747"
         y="32943"
         id="text652">REAR LIGHT SUBHARNESS</text>
</g><g
       id="g654"><rect
         class="O"
         x="20185"
         y="33422"
         width="1380"
         height="526"
         id="rect656" /><text
         class="L"
         x="20258"
         y="33934"
         id="text658">H03-4</text>
</g><g
       id="g660"><text
         class="N"
         x="48125"
         y="41063"
         id="text662">BATTERY SUBHARNESS</text>
</g><g
       id="g664"><rect
         class="O"
         x="47729"
         y="41533"
         width="1380"
         height="526"
         id="rect666" /><text
         class="L"
         x="47802"
         y="42045"
         id="text668">H02-1</text>
</g><g
       id="g670"><text
         class="N"
         x="1650"
         y="41075"
         id="text672">REGULATOR RECTIFIER</text>
</g><g
       id="g674"><rect
         class="O"
         x="4643"
         y="41585"
         width="1456"
         height="422"
         id="rect676" /><text
         class="P"
         x="4795"
         y="41962"
         id="text678">GROUND</text>
</g><g
       id="g680"><text
         class="N"
         x="1650"
         y="18094"
         id="text682">DIAGNOSTIC CONNECTOR</text>
</g><g
       id="g684"><rect
         class="O"
         x="3425"
         y="18570"
         width="2886"
         height="422"
         id="rect686" /><text
         class="P"
         x="3576"
         y="18947"
         id="text688">CHASSIS GROUND</text>
</g><g
       id="g690"><text
         class="N"
         x="1650"
         y="30260"
         id="text692">STARTER SOLENOID</text>
</g><g
       id="g694"><rect
         class="O"
         x="4643"
         y="30770"
         width="1456"
         height="422"
         id="rect696" /><text
         class="P"
         x="4795"
         y="31147"
         id="text698">GROUND</text>
</g><g
       id="g700"><text
         class="N"
         x="1650"
         y="20797"
         id="text702">ENGINE ECM</text>
</g><g
       id="g704"><rect
         class="O"
         x="5364"
         y="21273"
         width="947"
         height="422"
         id="rect706" /><text
         class="P"
         x="5515"
         y="21651"
         id="text708">PG#1</text>
</g><g
       id="g710"><rect
         class="Q"
         x="5364"
         y="21949"
         width="947"
         height="422"
         id="rect712" /><text
         class="P"
         x="5515"
         y="22327"
         id="text714">PG#2</text>
</g><g
       id="g716"><rect
         class="Q"
         x="5364"
         y="22625"
         width="947"
         height="422"
         id="rect718" /><text
         class="P"
         x="5515"
         y="23002"
         id="text720">PG#3</text>
</g><g
       id="g722"><rect
         class="Q"
         x="5364"
         y="23301"
         width="947"
         height="422"
         id="rect724" /><text
         class="P"
         x="5515"
         y="23678"
         id="text726">PG#4</text>
</g><g
       id="g728"><rect
         class="Q"
         x="5364"
         y="23977"
         width="947"
         height="422"
         id="rect730" /><text
         class="P"
         x="5515"
         y="24354"
         id="text732">PG#5</text>
</g><g
       id="g734"><text
         class="N"
         x="1650"
         y="34992"
         id="text736">USB SOCKET</text>
</g><g
       id="g738"><rect
         class="O"
         x="4855"
         y="35468"
         width="1456"
         height="422"
         id="rect740" /><text
         class="P"
         x="5007"
         y="35845"
         id="text742">GROUND</text>
</g><g
       id="g744"><text
         class="N"
         x="1650"
         y="32964"
         id="text746">REAR LIGHT</text>
</g><g
       id="g748"><rect
         class="O"
         x="4855"
         y="33440"
         width="1456"
         height="422"
         id="rect750" /><text
         class="P"
         x="5007"
         y="33817"
         id="text752">GROUND</text>
</g><g
       id="g754"><text
         class="N"
         x="1650"
         y="5927"
         id="text756">CONNECTIVITY MODULE</text>
</g><g
       id="g758"><rect
         class="O"
         x="4855"
         y="6403"
         width="1456"
         height="422"
         id="rect760" /><text
         class="P"
         x="5007"
         y="6780"
         id="text762">GROUND</text>
</g><g
       id="g764"><text
         class="N"
         x="1565"
         y="37695"
         id="text766">ABS MODULATOR</text>
</g><g
       id="g768"><rect
         class="O"
         x="5314"
         y="38283"
         width="680"
         height="351"
         id="rect770" /><text
         class="P"
         x="5360"
         y="38625"
         id="text772">GND</text>
</g><g
       id="g774"><text
         class="N"
         x="5030"
         y="12728"
         id="text776">A ENGINE MANAGEMENT SYSTEM RELAY</text>
<text
         class="N"
         x="5030"
         y="13257"
         id="text778">B FUEL PUMP RELAY</text>
</g><g
       id="g780"><text
         class="N"
         x="1650"
         y="26205"
         id="text782">ALARM</text>
</g><g
       id="g784"><rect
         class="O"
         x="4319"
         y="26681"
         width="1992"
         height="422"
         id="rect786" /><text
         class="P"
         x="4471"
         y="27058"
         id="text788">GROUND #1</text>
</g><g
       id="g790"><rect
         class="Q"
         x="4319"
         y="27357"
         width="1992"
         height="422"
         id="rect792" /><text
         class="P"
         x="4471"
         y="27734"
         id="text794">GROUND #2</text>
</g><g
       id="g796"><text
         class="N"
         x="4976"
         y="7978"
         id="text798">A HEADLIGHT RELAY</text>
<text
         class="N"
         x="4976"
         y="8506"
         id="text800">B COOLING FAN RELAY</text>
</g><g
       id="g802"><rect
         class="O"
         x="16372"
         y="30663"
         width="337"
         height="526"
         id="rect804" /><text
         class="L"
         x="16445"
         y="31175"
         id="text806">B</text>
</g><g
       id="g808"><rect
         class="M"
         x="16397"
         y="18594"
         width="337"
         height="526"
         id="rect810" /><text
         class="L"
         x="16470"
         y="19105"
         id="text812">B</text>
</g><g
       id="g814"><rect
         class="M"
         x="31099"
         y="22818"
         width="337"
         height="526"
         id="rect816" /><text
         class="L"
         x="31172"
         y="23330"
         id="text818">B</text>
</g><g
       id="g820"><rect
         class="M"
         x="16397"
         y="15890"
         width="337"
         height="526"
         id="rect822" /><text
         class="L"
         x="16470"
         y="16402"
         id="text824">B</text>
</g><g
       id="g826"><rect
         class="M"
         x="16325"
         y="11086"
         width="337"
         height="526"
         id="rect828" /><text
         class="L"
         x="16398"
         y="11597"
         id="text830">B</text>
</g><g
       id="g832"><rect
         class="M"
         x="16250"
         y="6378"
         width="337"
         height="526"
         id="rect834" /><text
         class="L"
         x="16323"
         y="6890"
         id="text836">B</text>
</g><g
       id="g838"><rect
         class="M"
         x="16346"
         y="22556"
         width="337"
         height="526"
         id="rect840" /><text
         class="L"
         x="16419"
         y="23068"
         id="text842">B</text>
</g><g
       id="g844"><rect
         class="M"
         x="16342"
         y="21920"
         width="337"
         height="526"
         id="rect846" /><text
         class="L"
         x="16415"
         y="22432"
         id="text848">B</text>
</g><g
       id="g850"><rect
         class="M"
         x="16359"
         y="21190"
         width="337"
         height="526"
         id="rect852" /><text
         class="L"
         x="16432"
         y="21702"
         id="text854">B</text>
</g><g
       id="g856"><rect
         class="M"
         x="16369"
         y="23258"
         width="337"
         height="526"
         id="rect858" /><text
         class="L"
         x="16442"
         y="23770"
         id="text860">B</text>
</g><g
       id="g862"><rect
         class="M"
         x="16359"
         y="23934"
         width="337"
         height="526"
         id="rect864" /><text
         class="L"
         x="16432"
         y="24446"
         id="text866">B</text>
</g><g
       id="g868"><rect
         class="M"
         x="28998"
         y="22562"
         width="337"
         height="526"
         id="rect870" /><text
         class="L"
         x="29071"
         y="23074"
         id="text872">B</text>
</g><g
       id="g874"><rect
         class="M"
         x="25547"
         y="35445"
         width="337"
         height="526"
         id="rect876" /><text
         class="L"
         x="25620"
         y="35957"
         id="text878">B</text>
</g><g
       id="g880"><rect
         class="M"
         x="11206"
         y="35406"
         width="337"
         height="526"
         id="rect882" /><text
         class="L"
         x="11279"
         y="35918"
         id="text884">B</text>
</g><g
       id="g886"><rect
         class="M"
         x="20866"
         y="38152"
         width="337"
         height="526"
         id="rect888" /><text
         class="L"
         x="20939"
         y="38664"
         id="text890">B</text>
</g><g
       id="g892"><rect
         class="M"
         x="11182"
         y="33415"
         width="337"
         height="526"
         id="rect894" /><text
         class="L"
         x="11255"
         y="33927"
         id="text896">B</text>
</g><g
       id="g898"><rect
         class="M"
         x="16395"
         y="27283"
         width="337"
         height="526"
         id="rect900" /><text
         class="L"
         x="16468"
         y="27795"
         id="text902">B</text>
</g><g
       id="g904"><rect
         class="M"
         x="16370"
         y="26583"
         width="337"
         height="526"
         id="rect906" /><text
         class="L"
         x="16443"
         y="27095"
         id="text908">B</text>
</g><g
       id="g910"><rect
         class="M"
         x="36506"
         y="35498"
         width="337"
         height="526"
         id="rect912" /><text
         class="L"
         x="36579"
         y="36010"
         id="text914">B</text>
</g><g
       id="g916"><rect
         class="M"
         x="25588"
         y="33440"
         width="337"
         height="526"
         id="rect918" /><text
         class="L"
         x="25661"
         y="33951"
         id="text920">B</text>
</g><g
       id="g922"><rect
         class="M"
         x="42554"
         y="41539"
         width="337"
         height="526"
         id="rect924" /><text
         class="L"
         x="42627"
         y="42051"
         id="text926">B</text>
</g><g
       id="g928"><rect
         class="M"
         x="57568"
         y="41526"
         width="337"
         height="526"
         id="rect930" /><text
         class="L"
         x="57641"
         y="42038"
         id="text932">B</text>
</g><g
       id="g934"><rect
         class="M"
         x="20930"
         y="41516"
         width="337"
         height="526"
         id="rect936" /><text
         class="L"
         x="21003"
         y="42027"
         id="text938">B</text>
</g><g
       id="g940"><circle
         class="T"
         cx="27212"
         cy="22913"
         r="270"
         id="circle942" /></g><g
       id="g944"><rect
         class="M"
         x="27303"
         y="23176"
         width="1155"
         height="633"
         id="rect946" /><text
         class="L"
         x="27447"
         y="23678"
         id="text948">PG3</text>
</g><g
       id="g950"><circle
         class="T"
         cx="31268"
         cy="31024"
         r="270"
         id="circle952" /></g><g
       id="g954"><rect
         class="M"
         x="31389"
         y="31287"
         width="1155"
         height="633"
         id="rect956" /><text
         class="L"
         x="31532"
         y="31789"
         id="text958">PG2</text>
</g></g></svg>