<?xml version="1.0" encoding="UTF-8" standalone="no"?>
<svg
   xmlns:dc="http://purl.org/dc/elements/1.1/"
   xmlns:cc="http://creativecommons.org/ns#"
   xmlns:rdf="http://www.w3.org/1999/02/22-rdf-syntax-ns#"
   xmlns:svg="http://www.w3.org/2000/svg"
   xmlns="http://www.w3.org/2000/svg"
   xmlns:sodipodi="http://sodipodi.sourceforge.net/DTD/sodipodi-0.dtd"
   xmlns:inkscape="http://www.inkscape.org/namespaces/inkscape"
   xml:space="preserve"
   height="768.0"
   viewBox="0,0 65416,45509"
   width="1024.0"
   id="svg2"
   version="1.1"
   inkscape:version="0.91 r13725"
   sodipodi:docname="24 ACCESSORIES CIRCUIT.svg"><metadata
     id="metadata574"><rdf:RDF><cc:Work
         rdf:about=""><dc:format>image/svg+xml</dc:format><dc:type
           rdf:resource="http://purl.org/dc/dcmitype/StillImage" /></cc:Work></rdf:RDF></metadata><sodipodi:namedview
     pagecolor="#ffffff"
     bordercolor="#666666"
     borderopacity="1"
     objecttolerance="10"
     gridtolerance="10"
     guidetolerance="10"
     inkscape:pageopacity="0"
     inkscape:pageshadow="2"
     inkscape:window-width="640"
     inkscape:window-height="480"
     id="namedview572"
     showgrid="false"
     inkscape:zoom="0.28125"
     inkscape:cx="512"
     inkscape:cy="384"
     inkscape:window-x="0"
     inkscape:window-y="0"
     inkscape:window-maximized="0"
     inkscape:current-layer="g8" /><defs
     id="defs4"><style
       type="text/css"
       id="style6"><![CDATA[
.A{stroke-width:59px;stroke:#808080;}
.A,.F,.J,.H,.M,.B,.D,.R,.V,.U,.Q,.S,.W,.X,.T,.E,.K,.C,.O,.P,.Y,.Z{stroke-dasharray:none;}
.B,.D,.R,.V,.U,.Q,.S,.W,.X,.T,.E,.K,.C,.O,.P,.Y,.Z{stroke-linecap:square;}
.B,.D,.U,.Q,.X,.T,.E,.K,.C{stroke-width:16px;}
.C,.Z{fill:#CCC;}
.G,.F,.B,.D,.R,.S,.E,.C,.O,.P,.Y,.Z{stroke:#000;}
.G,.L,.I,.N{stroke-dasharray:1955,977;}
.G,.L,.I,.N,.A,.F,.J,.H,.M{stroke-linecap:butt;}
.G,.L,.I,.N,.A,.F,.J,.H,.M,.B,.D{fill-opacity:0.0;fill:none;}
.G,.L,.I,.N,.A,.F,.J,.H,.M,.B,.D,.E,.K,.C,.Y,.Z{font-family:sans-serif;}
.G,.L,.I,.N,.A,.F,.J,.H,.M,.B,.D,.O,.P,.Y,.Z{stroke-opacity:1.0;}
.G,.L,.I,.N,.A,.F,.J,.H,.M,.B,.D,.R,.V,.U,.Q,.S,.W,.X,.T,.E,.K,.C,.O,.P,.Y,.Z{fill-rule:evenodd;font-style:normal;font-weight:normal;stroke-linejoin:miter;stroke-miterlimit:10;}
.G,.L,.I,.N,.F,.J,.H,.M{stroke-width:84px;}
.I,.H{stroke:#C0F;}
.K{fill:#0C0;}
.L,.J,.K{stroke:#0C0;}
.N,.M,.U,.Q,.X,.T{stroke:#FF3;}
.P{font-size:767px;}
.Q,.O{font-size:658px;}
.R,.S,.E,.O,.P,.Y{fill:#000;}
.R,.U{font-size:466px;}
.R,.V,.S,.W,.O,.P{stroke-width:0.5px;}
.R,.V,.U,.Q,.O,.P{font-family:Arial;}
.R,.V,.U,.Q,.S,.W,.X,.T,.E,.K,.C{stroke-opacity:0.0;}
.R,.V,.U,.Q,.S,.W,.X,.T,.E,.K,.C,.O,.P,.Y,.Z{fill-opacity:1.0;}
.S,.T{font-size:391px;}
.S,.W,.X,.T{font-family:Tahoma;}
.U,.Q,.X,.T{fill:#FFF;}
.V{font-size:311px;}
.V,.W{fill:#999;stroke:#999;}
.W,.X{font-size:313px;}
.Y,.Z{stroke-width:16.0px;}
]]></style></defs><g
     id="g8"><g
       id="g10"><circle
         class="Y"
         cx="41498"
         cy="13398"
         r="269"
         id="circle12" /></g><g
       id="g14"><path
         class="C"
         d="M53618,18112v336v1346v336h336h336v-336v-1346v-336 z"
         id="path16" /><path
         class="D"
         d="M53955,18785h673m-673,673h673m-1010,336v336h673v-336m0,-1346v-336h-673v336"
         id="path18" /></g><g
       id="g20"><path
         class="C"
         d="M54292,18112v336v1346v336h336h336v-336v-1346v-336 z"
         id="path22" /><path
         class="D"
         d="M53955,18785h673m-673,673h673m-336,336v336h673v-336m0,-1346v-336h-673v336"
         id="path24" /></g><g
       id="g26"><path
         class="C"
         d="M60352,14072v-336v-3366v-336h-336h-336v336v3366v336 z"
         id="path28" /><path
         class="D"
         d="M60352,10368v-336h-673v336m0,673v1346m673,-1346v1346m-673,1346v336h673v-336"
         id="path30" /></g><g
       id="g32"><circle
         class="Y"
         cx="39478"
         cy="6665"
         r="269"
         id="circle34" /></g><g
       id="g36"><path
         class="C"
         d="M60352,7338v-336v-1346v-336h-336h-336v336v1346v336 z"
         id="path38" /><path
         class="D"
         d="M60352,5655v-336h-673v336m0,1346v336h673v-336"
         id="path40" /></g><g
       id="g42"><circle
         class="Y"
         cx="41498"
         cy="19459"
         r="269"
         id="circle44" /></g><g
       id="g46"><circle
         class="Y"
         cx="26011"
         cy="12725"
         r="269"
         id="circle48" /></g><g
       id="g50"><path
         class="C"
         d="M3791,20132v-336v-14140v-336h336h336v336v14140v336 z"
         id="path52" /><path
         class="D"
         d="M3791,5655v-336h673v336m0,673v4040m-673,-4040v4040m673,673v1346m-673,-1346v1346m673,673v5386m-673,-5386v5386m673,673v1010h-673v-1010"
         id="path54" /></g><g
       id="g56"><circle
         class="Y"
         cx="39478"
         cy="38312"
         r="269"
         id="circle58" /></g><g
       id="g60"><circle
         class="Z"
         cx="64897"
         cy="38312"
         r="168"
         id="circle62" /><circle
         class="Z"
         cx="64897"
         cy="38312"
         r="101"
         id="circle64" /><rect
         class="Z"
         x="63382"
         y="38245"
         width="1346"
         height="134"
         id="rect66" /><rect
         class="Z"
         x="63045"
         y="38245"
         width="336"
         height="134"
         id="rect68" /></g><g
       id="g70"><path
         class="C"
         d="M54965,38986v-336v-673v-336h-336h-336v336v673v336 z"
         id="path72" /><path
         class="D"
         d="M54965,38649v336h-673v-336m0,-673v-336h673v336m-1010,336h673"
         id="path74" /></g><g
       id="g76"><path
         class="C"
         d="M54292,38986v-336v-673v-336h-336h-336v336v673v336 z"
         id="path78" /><path
         class="D"
         d="M54292,38649v336h-673v-336m0,-673v-336h673v336m-336,336h673"
         id="path80" /></g><g
       id="g82"><rect
         class="B"
         x="1770"
         y="18583"
         width="1346"
         height="404"
         id="rect84" /><path
         class="D"
         d="M1097,18785h673m2020,0h-673"
         id="path86" /></g><g
       id="g88"><rect
         class="B"
         x="1770"
         y="10503"
         width="1346"
         height="404"
         id="rect90" /><path
         class="D"
         d="M1097,10705h673m2020,0h-673"
         id="path92" /></g><g
       id="g94"><rect
         class="B"
         x="1770"
         y="12523"
         width="1346"
         height="404"
         id="rect96" /><path
         class="D"
         d="M1097,12725h673m2020,0h-673"
         id="path98" /></g><g
       id="g100"><rect
         class="B"
         x="1770"
         y="5790"
         width="1346"
         height="404"
         id="rect102" /><path
         class="D"
         d="M1097,5992h673m2020,0h-673"
         id="path104" /></g><g
       id="g106"><path
         class="D"
         d="M60352,19795v336h4713v-2020h-4713v336"
         id="path108" /></g><g
       id="g110"><path
         class="D"
         d="M60352,7002v336h4713v-2020h-4713v336"
         id="path112" /></g><g
       id="g114"><path
         class="D"
         d="M60352,11042v1346m0,1346v336h4713v-4040h-4713v336"
         id="path116" /></g><g
       id="g118"><path
         class="D"
         d="M3791,6328v4040m0,673v1346m0,673v5386m0,-12793v-336h-2693v14813h2693v-1010"
         id="path120" /></g><g
       id="g122"><path
         class="F"
         d="M41498,13398v6060"
         id="path124" /><circle
         class="E"
         cx="41498"
         cy="13398"
         r="42"
         id="circle126" /><circle
         class="E"
         cx="41498"
         cy="19459"
         r="42"
         id="circle128" /><path
         class="G"
         d="M41498,13398v6060"
         id="path130" /></g><g
       id="g132"><path
         class="F"
         d="M41498,13398h18180"
         id="path134" /><circle
         class="E"
         cx="41498"
         cy="13398"
         r="42"
         id="circle136" /><path
         class="G"
         d="M41498,13398h18180"
         id="path138" /></g><g
       id="g140"><path
         class="F"
         d="M41498,19459h12120"
         id="path142" /><circle
         class="E"
         cx="41498"
         cy="19459"
         r="42"
         id="circle144" /><path
         class="G"
         d="M41498,19459h12120"
         id="path146" /></g><g
       id="g148"><path
         class="H"
         d="M54965,18785h5386"
         id="path150" /><path
         class="I"
         d="M54965,18785h5386"
         id="path152" /></g><g
       id="g154"><path
         class="F"
         d="M54965,19459h5386"
         id="path156" /><path
         class="G"
         d="M54965,19459h5386"
         id="path158" /></g><g
       id="g160"><path
         class="J"
         d="M26011,12725h33667"
         id="path162" /><circle
         class="K"
         cx="26011"
         cy="12725"
         r="42"
         id="circle164" /><path
         class="L"
         d="M26011,12725h33667"
         id="path166" /></g><g
       id="g168"><path
         class="M"
         d="M4464,10705h55214"
         id="path170" /><path
         class="N"
         d="M4464,10705h55214"
         id="path172" /></g><g
       id="g174"><path
         class="F"
         d="M39478,38312v-31647"
         id="path176" /><circle
         class="E"
         cx="39478"
         cy="38312"
         r="42"
         id="circle178" /><circle
         class="E"
         cx="39478"
         cy="6665"
         r="42"
         id="circle180" /><path
         class="G"
         d="M39478,38312v-31647"
         id="path182" /></g><g
       id="g184"><path
         class="F"
         d="M39478,6665h20200"
         id="path186" /><circle
         class="E"
         cx="39478"
         cy="6665"
         r="42"
         id="circle188" /><path
         class="G"
         d="M39478,6665h20200"
         id="path190" /></g><g
       id="g192"><path
         class="H"
         d="M4464,5992h55214"
         id="path194" /><path
         class="I"
         d="M4464,5992h55214"
         id="path196" /></g><g
       id="g198"><path
         class="F"
         d="M41498,19459v6733"
         id="path200" /><circle
         class="E"
         cx="41498"
         cy="19459"
         r="42"
         id="circle202" /><circle
         class="E"
         cx="41498"
         cy="26192"
         r="42"
         id="circle204" /><path
         class="G"
         d="M41498,19459v6733"
         id="path206" /><path
         class="F"
         d="M41498,26192v6733"
         id="path208" /><circle
         class="E"
         cx="41498"
         cy="26192"
         r="42"
         id="circle210" /><circle
         class="E"
         cx="41498"
         cy="32926"
         r="42"
         id="circle212" /><path
         class="G"
         d="M41498,26192v6733"
         id="path214" /><path
         class="F"
         d="M41498,32926l-2020,5386"
         id="path216" /><circle
         class="E"
         cx="41498"
         cy="32926"
         r="42"
         id="circle218" /><circle
         class="E"
         cx="39478"
         cy="38312"
         r="42"
         id="circle220" /><path
         class="G"
         d="M41498,32926l-2020,5386"
         id="path222" /></g><g
       id="g224"><path
         class="J"
         d="M4464,12725h21547"
         id="path226" /><circle
         class="K"
         cx="26011"
         cy="12725"
         r="42"
         id="circle228" /><path
         class="L"
         d="M4464,12725h21547"
         id="path230" /></g><g
       id="g232"><path
         class="F"
         d="M53618,38312h-14140"
         id="path234" /><circle
         class="E"
         cx="39478"
         cy="38312"
         r="42"
         id="circle236" /><path
         class="G"
         d="M53618,38312h-14140"
         id="path238" /></g><g
       id="g240"><path
         class="F"
         d="M63045,38312h-8080"
         id="path242" /><path
         class="G"
         d="M63045,38312h-8080"
         id="path244" /></g><g
       id="g246"><path
         class="M"
         d="M53618,18785h-49154"
         id="path248" /><path
         class="N"
         d="M53618,18785h-49154"
         id="path250" /></g><g
       id="g254"><rect
         class="Q"
         x="39977"
         y="13008"
         width="1150"
         height="631"
         id="rect256" /><text
         class="R"
         x="40120"
         y="13508"
         id="text258">PG7</text>
</g><g
       id="g260"><text
         class="S"
         x="53087"
         y="18003"
         id="text262">USB SOCKET</text>
</g><g
       id="g264"><rect
         class="T"
         x="51780"
         y="18445"
         width="1431"
         height="524"
         id="rect266" /><text
         class="R"
         x="51853"
         y="18955"
         id="text268">M70-1</text>
</g><g
       id="g270"><rect
         class="U"
         x="51780"
         y="19119"
         width="1431"
         height="524"
         id="rect272" /><text
         class="R"
         x="51853"
         y="19629"
         id="text274">M70-2</text>
</g><g
       id="g276"><rect
         class="U"
         x="55372"
         y="18445"
         width="1852"
         height="524"
         id="rect278" /><text
         class="R"
         x="55445"
         y="18955"
         id="text280">M70M-1</text>
</g><g
       id="g282"><rect
         class="U"
         x="55372"
         y="19119"
         width="1852"
         height="524"
         id="rect284" /><text
         class="R"
         x="55445"
         y="19629"
         id="text286">M70M-2</text>
</g><g
       id="g288"><rect
         class="U"
         x="57841"
         y="13094"
         width="1431"
         height="524"
         id="rect290" /><text
         class="R"
         x="57914"
         y="13604"
         id="text292">M72-2</text>
</g><g
       id="g294"><rect
         class="U"
         x="57841"
         y="12421"
         width="1431"
         height="524"
         id="rect296" /><text
         class="R"
         x="57914"
         y="12930"
         id="text298">M72-6</text>
</g><g
       id="g300"><rect
         class="U"
         x="57841"
         y="10401"
         width="1431"
         height="524"
         id="rect302" /><text
         class="R"
         x="57914"
         y="10910"
         id="text304">M72-1</text>
</g><g
       id="g306"><rect
         class="U"
         x="37957"
         y="6395"
         width="1150"
         height="631"
         id="rect308" /><text
         class="R"
         x="38100"
         y="6895"
         id="text310">PG4</text>
</g><g
       id="g312"><rect
         class="U"
         x="57841"
         y="5687"
         width="1431"
         height="524"
         id="rect314" /><text
         class="R"
         x="57914"
         y="6197"
         id="text316">M21-2</text>
</g><g
       id="g318"><rect
         class="U"
         x="57841"
         y="6360"
         width="1431"
         height="524"
         id="rect320" /><text
         class="R"
         x="57914"
         y="6870"
         id="text322">M21-1</text>
</g><g
       id="g324"><rect
         class="U"
         x="39977"
         y="19213"
         width="1150"
         height="631"
         id="rect326" /><text
         class="R"
         x="40120"
         y="19713"
         id="text328">PG2</text>
</g><g
       id="g330"><rect
         class="U"
         x="25674"
         y="12987"
         width="813"
         height="631"
         id="rect332" /><text
         class="R"
         x="25818"
         y="13487"
         id="text334">G2</text>
</g><g
       id="g336"><rect
         class="U"
         x="4871"
         y="18481"
         width="1656"
         height="524"
         id="rect338" /><text
         class="R"
         x="4944"
         y="18991"
         id="text340">F29-9B</text>
</g><g
       id="g342"><rect
         class="U"
         x="4871"
         y="12421"
         width="1656"
         height="524"
         id="rect344" /><text
         class="R"
         x="4944"
         y="12930"
         id="text346">F29-7B</text>
</g><g
       id="g348"><rect
         class="U"
         x="4871"
         y="10401"
         width="1656"
         height="524"
         id="rect350" /><text
         class="R"
         x="4944"
         y="10910"
         id="text352">F29-1B</text>
</g><g
       id="g354"><rect
         class="U"
         x="4871"
         y="5687"
         width="1656"
         height="524"
         id="rect356" /><text
         class="R"
         x="4944"
         y="6197"
         id="text358">F29-3B</text>
</g><g
       id="g360"><rect
         class="U"
         x="38973"
         y="38575"
         width="1150"
         height="631"
         id="rect362" /><text
         class="R"
         x="39116"
         y="39075"
         id="text364">PG1</text>
</g><g
       id="g366"><text
         class="S"
         x="59155"
         y="37744"
         id="text368">BATTERY NEGATIVE TERMINAL</text>
</g><g
       id="g370"><rect
         class="T"
         x="61207"
         y="38008"
         width="1431"
         height="524"
         id="rect372" /><text
         class="R"
         x="61280"
         y="38518"
         id="text374">M66-1</text>
</g><g
       id="g376"><rect
         class="U"
         x="55372"
         y="38008"
         width="1795"
         height="524"
         id="rect378" /><text
         class="R"
         x="55445"
         y="38518"
         id="text380">H02M-1</text>
</g><g
       id="g382"><text
         class="S"
         x="52450"
         y="37522"
         id="text384">BATTERY SUBHARNESS</text>
</g><g
       id="g386"><rect
         class="T"
         x="51836"
         y="38008"
         width="1375"
         height="524"
         id="rect388" /><text
         class="R"
         x="51909"
         y="38518"
         id="text390">H02-1</text>
</g><g
       id="g392"><text
         class="V"
         x="2258"
         y="18931"
         id="text394">5.0</text>
</g><g
       id="g396"><text
         class="V"
         x="1813"
         y="18544"
         id="text398">F9 - USB</text>
</g><g
       id="g400"><text
         class="V"
         x="2164"
         y="10851"
         id="text402">10.0</text>
</g><g
       id="g404"><text
         class="V"
         x="1915"
         y="10464"
         id="text406">F1 AUX</text>
</g><g
       id="g408"><text
         class="V"
         x="2164"
         y="12871"
         id="text410">10.0</text>
</g><g
       id="g412"><text
         class="V"
         x="1513"
         y="12484"
         id="text414">F7 IGNITION</text>
</g><g
       id="g416"><text
         class="V"
         x="2258"
         y="6138"
         id="text418">5.0</text>
</g><g
       id="g420"><text
         class="V"
         x="1906"
         y="5751"
         id="text422">F3 ACC</text>
</g><g
       id="g424"><text
         class="S"
         x="62737"
         y="18025"
         id="text426">USB SOCKET</text>
</g><g
       id="g428"><rect
         class="T"
         x="60405"
         y="19172"
         width="1450"
         height="420"
         id="rect430" /><text
         class="W"
         x="60450"
         y="19548"
         id="text432">GROUND</text>
</g><g
       id="g434"><rect
         class="X"
         x="60405"
         y="18499"
         width="1590"
         height="420"
         id="rect436" /><text
         class="W"
         x="60450"
         y="18875"
         id="text438">IGNITION</text>
</g><g
       id="g440"><text
         class="S"
         x="58682"
         y="5231"
         id="text442">FRONT ACCESSORY SOCKET, LIVE</text>
</g><g
       id="g444"><rect
         class="T"
         x="60405"
         y="5705"
         width="1490"
         height="420"
         id="rect446" /><text
         class="W"
         x="60450"
         y="6081"
         id="text448">BATTERY</text>
</g><g
       id="g450"><rect
         class="X"
         x="60405"
         y="6379"
         width="1450"
         height="420"
         id="rect452" /><text
         class="W"
         x="60450"
         y="6754"
         id="text454">GROUND</text>
</g><g
       id="g456"><text
         class="S"
         x="60480"
         y="9945"
         id="text458">CONNECTIVITY MODULE</text>
</g><g
       id="g460"><rect
         class="T"
         x="60405"
         y="10419"
         width="1490"
         height="420"
         id="rect462" /><text
         class="W"
         x="60450"
         y="10795"
         id="text464">BATTERY</text>
</g><g
       id="g466"><rect
         class="X"
         x="60405"
         y="12439"
         width="1590"
         height="420"
         id="rect468" /><text
         class="W"
         x="60450"
         y="12815"
         id="text470">IGNITION</text>
</g><g
       id="g472"><rect
         class="X"
         x="60405"
         y="13112"
         width="1450"
         height="420"
         id="rect474" /><text
         class="W"
         x="60450"
         y="13488"
         id="text476">GROUND</text>
</g><g
       id="g478"><text
         class="S"
         x="1220"
         y="5231"
         id="text480">FUSE BOX 2</text>
</g><g
       id="g482"><rect
         class="T"
         x="41381"
         y="16226"
         width="336"
         height="524"
         id="rect484" /><text
         class="R"
         x="41454"
         y="16736"
         id="text486">B</text>
</g><g
       id="g488"><rect
         class="U"
         x="48164"
         y="13107"
         width="336"
         height="524"
         id="rect490" /><text
         class="R"
         x="48237"
         y="13617"
         id="text492">B</text>
</g><g
       id="g494"><rect
         class="U"
         x="48232"
         y="19196"
         width="336"
         height="524"
         id="rect496" /><text
         class="R"
         x="48305"
         y="19706"
         id="text498">B</text>
</g><g
       id="g500"><rect
         class="U"
         x="58332"
         y="18523"
         width="336"
         height="524"
         id="rect502" /><text
         class="R"
         x="58405"
         y="19033"
         id="text504">P</text>
</g><g
       id="g506"><rect
         class="U"
         x="58332"
         y="19196"
         width="336"
         height="524"
         id="rect508" /><text
         class="R"
         x="58405"
         y="19706"
         id="text510">B</text>
</g><g
       id="g512"><rect
         class="U"
         x="48109"
         y="12415"
         width="392"
         height="524"
         id="rect514" /><text
         class="R"
         x="48182"
         y="12925"
         id="text516">G</text>
</g><g
       id="g518"><rect
         class="U"
         x="32745"
         y="10443"
         width="336"
         height="524"
         id="rect520" /><text
         class="R"
         x="32818"
         y="10953"
         id="text522">Y</text>
</g><g
       id="g524"><rect
         class="U"
         x="39310"
         y="23405"
         width="336"
         height="524"
         id="rect526" /><text
         class="R"
         x="39383"
         y="23914"
         id="text528">B</text>
</g><g
       id="g530"><rect
         class="U"
         x="48151"
         y="6364"
         width="336"
         height="524"
         id="rect532" /><text
         class="R"
         x="48224"
         y="6874"
         id="text534">B</text>
</g><g
       id="g536"><rect
         class="U"
         x="32745"
         y="5729"
         width="336"
         height="524"
         id="rect538" /><text
         class="R"
         x="32818"
         y="6239"
         id="text540">P</text>
</g><g
       id="g542"><rect
         class="U"
         x="41335"
         y="23380"
         width="336"
         height="524"
         id="rect544" /><text
         class="R"
         x="41408"
         y="23890"
         id="text546">B</text>
</g><g
       id="g548"><rect
         class="U"
         x="15883"
         y="12463"
         width="392"
         height="524"
         id="rect550" /><text
         class="R"
         x="15956"
         y="12973"
         id="text552">G</text>
</g><g
       id="g554"><rect
         class="U"
         x="47222"
         y="38050"
         width="336"
         height="524"
         id="rect556" /><text
         class="R"
         x="47295"
         y="38560"
         id="text558">B</text>
</g><g
       id="g560"><rect
         class="U"
         x="59679"
         y="38050"
         width="336"
         height="524"
         id="rect562" /><text
         class="R"
         x="59752"
         y="38560"
         id="text564">B</text>
</g><g
       id="g566"><rect
         class="U"
         x="32899"
         y="18458"
         width="336"
         height="524"
         id="rect568" /><text
         class="R"
         x="32972"
         y="18967"
         id="text570">Y</text>
</g></g></svg>