<?xml version="1.0" encoding="UTF-8" standalone="no"?>
<!-- Created with Inkscape (http://www.inkscape.org/) -->

<svg
   xmlns:dc="http://purl.org/dc/elements/1.1/"
   xmlns:cc="http://creativecommons.org/ns#"
   xmlns:rdf="http://www.w3.org/1999/02/22-rdf-syntax-ns#"
   xmlns:svg="http://www.w3.org/2000/svg"
   xmlns="http://www.w3.org/2000/svg"
   xmlns:sodipodi="http://sodipodi.sourceforge.net/DTD/sodipodi-0.dtd"
   xmlns:inkscape="http://www.inkscape.org/namespaces/inkscape"
   id="svg2"
   version="1.1"
   inkscape:version="0.91 r13725"
   xml:space="preserve"
   width="620.07751"
   height="832.67749"
   viewBox="0 0 620.07751 832.67749"
   sodipodi:docname="Circuit C DF4 DG4.svg"><metadata
     id="metadata8"><rdf:RDF><cc:Work
         rdf:about=""><dc:format>image/svg+xml</dc:format><dc:type
           rdf:resource="http://purl.org/dc/dcmitype/StillImage" /><dc:title></dc:title></cc:Work></rdf:RDF></metadata><defs
     id="defs6"><clipPath
       clipPathUnits="userSpaceOnUse"
       id="clipPath70"><path
         d="m 0,666.142 496.062,0 L 496.062,0 0,0 0,666.142 Z"
         id="path72"
         inkscape:connector-curvature="0" /></clipPath><clipPath
       clipPathUnits="userSpaceOnUse"
       id="clipPath182"><path
         d="m 0,666.142 496.062,0 L 496.062,0 0,0 0,666.142 Z"
         id="path184"
         inkscape:connector-curvature="0" /></clipPath><clipPath
       clipPathUnits="userSpaceOnUse"
       id="clipPath416"><path
         d="m 0,666.142 496.062,0 L 496.062,0 0,0 0,666.142 Z"
         id="path418"
         inkscape:connector-curvature="0" /></clipPath></defs><sodipodi:namedview
     pagecolor="#ffffff"
     bordercolor="#666666"
     borderopacity="1"
     objecttolerance="10"
     gridtolerance="10"
     guidetolerance="10"
     inkscape:pageopacity="0"
     inkscape:pageshadow="2"
     inkscape:window-width="640"
     inkscape:window-height="480"
     id="namedview4"
     showgrid="false"
     inkscape:zoom="0.28342306"
     inkscape:cx="310.03876"
     inkscape:cy="416.33875"
     inkscape:window-x="0"
     inkscape:window-y="0"
     inkscape:window-maximized="0"
     inkscape:current-layer="g10" /><g
     id="g10"
     inkscape:groupmode="layer"
     inkscape:label="Circuit C DF4 DG4"
     transform="matrix(1.25,0,0,-1.25,0,832.6775)"><text
       transform="matrix(0.8,0,0,-1,145.6436,394.1006)"
       style="font-variant:normal;font-weight:bold;font-stretch:normal;font-size:7px;font-family:Helvetica;-inkscape-font-specification:Helvetica-Bold;writing-mode:lr-tb;fill:#292929;fill-opacity:1;fill-rule:nonzero;stroke:none"
       id="text12"><tspan
         x="0"
         y="0"
         id="tspan14">5</tspan></text>
<g
       id="g16"
       transform="translate(118.3575,250.4659)"><path
         d="m 0,0 0,-5.837 35.022,0 0,198.476 L 0,192.639 0,0"
         style="fill:none;stroke:#373536;stroke-width:0.75;stroke-linecap:round;stroke-linejoin:round;stroke-miterlimit:10;stroke-dasharray:none;stroke-opacity:1"
         id="path18"
         inkscape:connector-curvature="0" /></g><g
       id="g20"
       transform="translate(396.2364,250.4659)"><path
         d="m 0,0 0,-5.837 -35.029,0 0,198.476 35.029,0 L 0,0"
         style="fill:none;stroke:#373536;stroke-width:0.75;stroke-linecap:round;stroke-linejoin:round;stroke-miterlimit:10;stroke-dasharray:none;stroke-opacity:1"
         id="path22"
         inkscape:connector-curvature="0" /></g><g
       id="g24"
       transform="translate(153.3794,396.4053)"><path
         d="M 0,0 207.828,0"
         style="fill:none;stroke:#373536;stroke-width:0.75;stroke-linecap:round;stroke-linejoin:round;stroke-miterlimit:10;stroke-dasharray:none;stroke-opacity:1"
         id="path26"
         inkscape:connector-curvature="0" /></g><g
       id="g28"
       transform="translate(153.3794,361.3799)"><path
         d="M 0,0 207.828,0"
         style="fill:none;stroke:#373536;stroke-width:0.75;stroke-linecap:round;stroke-linejoin:round;stroke-miterlimit:10;stroke-dasharray:none;stroke-opacity:1"
         id="path30"
         inkscape:connector-curvature="0" /></g><path
       d="m 264.53,244.556 -13.605,0 0,193.586 13.605,0 0,-193.586 z"
       style="fill:#ffffff;fill-opacity:1;fill-rule:nonzero;stroke:none"
       id="path32"
       inkscape:connector-curvature="0" /><text
       transform="matrix(0.8,0,0,-1,255.9048,394.5557)"
       style="font-variant:normal;font-weight:bold;font-stretch:normal;font-size:7px;font-family:Helvetica;-inkscape-font-specification:Helvetica-Bold;writing-mode:lr-tb;fill:#292929;fill-opacity:1;fill-rule:nonzero;stroke:none"
       id="text34"><tspan
         x="0"
         y="0"
         id="tspan36">B</tspan><tspan
         x="-0.168"
         y="34.937"
         id="tspan38">R</tspan><tspan
         x="135.10699 140.161 144.05299"
         y="0.083999999"
         sodipodi:role="line"
         id="tspan40">B13</tspan><tspan
         x="135.198 140.252 144.144"
         y="34.93"
         sodipodi:role="line"
         id="tspan42">B25</tspan><tspan
         x="-137.718"
         y="34.502998"
         id="tspan44">7</tspan></text>
<text
       transform="matrix(0.99169336,0,0,-1,24.7144,158.4541)"
       style="font-variant:normal;font-weight:normal;font-stretch:normal;font-size:7.05459976px;font-family:Helvetica;-inkscape-font-specification:Helvetica;writing-mode:lr-tb;fill:#373535;fill-opacity:1;fill-rule:nonzero;stroke:none"
       id="text46"><tspan
         x="0"
         y="0"
         id="tspan48">1</tspan></text>
<path
       d="m 111.615,144.199 9.381,0 0,-9.439 -9.381,0 0,9.439 z"
       style="fill:none;stroke:#292929;stroke-width:1;stroke-linecap:square;stroke-linejoin:miter;stroke-miterlimit:10;stroke-dasharray:none;stroke-opacity:1"
       id="path50"
       inkscape:connector-curvature="0" /><path
       d="m 102.254,144.199 -9.36,0 0,-9.439 9.36,0 0,9.439 z"
       style="fill:none;stroke:#292929;stroke-width:1;stroke-linecap:square;stroke-linejoin:miter;stroke-miterlimit:10;stroke-dasharray:none;stroke-opacity:1"
       id="path52"
       inkscape:connector-curvature="0" /><path
       d="m 83.512,144.199 -9.361,0 0,-9.439 9.361,0 0,9.439 z"
       style="fill:none;stroke:#292929;stroke-width:1;stroke-linecap:square;stroke-linejoin:miter;stroke-miterlimit:10;stroke-dasharray:none;stroke-opacity:1"
       id="path54"
       inkscape:connector-curvature="0" /><path
       d="m 64.791,144.199 -9.382,0 0,-9.439 9.382,0 0,9.439 z"
       style="fill:none;stroke:#292929;stroke-width:1;stroke-linecap:square;stroke-linejoin:miter;stroke-miterlimit:10;stroke-dasharray:none;stroke-opacity:1"
       id="path56"
       inkscape:connector-curvature="0" /><path
       d="m 55.409,153.638 9.382,0 0,9.46 -9.382,0 0,-9.46 z"
       style="fill:none;stroke:#292929;stroke-width:1;stroke-linecap:square;stroke-linejoin:miter;stroke-miterlimit:10;stroke-dasharray:none;stroke-opacity:1"
       id="path58"
       inkscape:connector-curvature="0" /><path
       d="m 74.151,163.098 9.361,0 0,-9.46 -9.361,0 0,9.46 z"
       style="fill:none;stroke:#292929;stroke-width:1;stroke-linecap:square;stroke-linejoin:miter;stroke-miterlimit:10;stroke-dasharray:none;stroke-opacity:1"
       id="path60"
       inkscape:connector-curvature="0" /><path
       d="m 92.894,163.098 9.36,0 0,-9.46 -9.36,0 0,9.46 z"
       style="fill:none;stroke:#292929;stroke-width:1;stroke-linecap:square;stroke-linejoin:miter;stroke-miterlimit:10;stroke-dasharray:none;stroke-opacity:1"
       id="path62"
       inkscape:connector-curvature="0" /><path
       d="m 111.615,163.098 9.381,0 0,-9.46 -9.381,0 0,9.46 z"
       style="fill:none;stroke:#292929;stroke-width:1;stroke-linecap:square;stroke-linejoin:miter;stroke-miterlimit:10;stroke-dasharray:none;stroke-opacity:1"
       id="path64"
       inkscape:connector-curvature="0" /><g
       id="g66"><g
         id="g68"
         clip-path="url(#clipPath70)"><g
           id="g74"
           transform="translate(46.0489,139.4581)"><path
             d="M 0,0 C 0,-7.81 6.275,-14.158 14.041,-14.158"
             style="fill:none;stroke:#292929;stroke-width:1;stroke-linecap:square;stroke-linejoin:miter;stroke-miterlimit:10;stroke-dasharray:none;stroke-opacity:1"
             id="path76"
             inkscape:connector-curvature="0" /></g><g
           id="g78"
           transform="translate(60.0899,172.5372)"><path
             d="M 0,0 C -7.766,0 -14.041,-6.328 -14.041,-14.159"
             style="fill:none;stroke:#292929;stroke-width:1;stroke-linecap:square;stroke-linejoin:miter;stroke-miterlimit:10;stroke-dasharray:none;stroke-opacity:1"
             id="path80"
             inkscape:connector-curvature="0" /></g><g
           id="g82"
           transform="translate(130.3785,158.378)"><path
             d="M 0,0 C 0,7.831 -6.296,14.159 -14.062,14.159"
             style="fill:none;stroke:#292929;stroke-width:1;stroke-linecap:square;stroke-linejoin:miter;stroke-miterlimit:10;stroke-dasharray:none;stroke-opacity:1"
             id="path84"
             inkscape:connector-curvature="0" /></g><g
           id="g86"
           transform="translate(116.3165,125.2999)"><path
             d="M 0,0 C 7.766,0 14.062,6.349 14.062,14.158"
             style="fill:none;stroke:#292929;stroke-width:1;stroke-linecap:square;stroke-linejoin:miter;stroke-miterlimit:10;stroke-dasharray:none;stroke-opacity:1"
             id="path88"
             inkscape:connector-curvature="0" /></g><g
           id="g90"
           transform="translate(135.0586,158.378)"><path
             d="M 0,0 C 0,10.435 -8.395,18.879 -18.742,18.879"
             style="fill:none;stroke:#292929;stroke-width:1;stroke-linecap:square;stroke-linejoin:miter;stroke-miterlimit:10;stroke-dasharray:none;stroke-opacity:1"
             id="path92"
             inkscape:connector-curvature="0" /></g><g
           id="g94"
           transform="translate(116.3165,120.5801)"><path
             d="M 0,0 C 10.347,0 18.742,8.466 18.742,18.878"
             style="fill:none;stroke:#292929;stroke-width:1;stroke-linecap:square;stroke-linejoin:miter;stroke-miterlimit:10;stroke-dasharray:none;stroke-opacity:1"
             id="path96"
             inkscape:connector-curvature="0" /></g><g
           id="g98"
           transform="translate(41.3687,139.4581)"><path
             d="M 0,0 C 0,-10.412 8.374,-18.878 18.721,-18.878"
             style="fill:none;stroke:#292929;stroke-width:1;stroke-linecap:square;stroke-linejoin:miter;stroke-miterlimit:10;stroke-dasharray:none;stroke-opacity:1"
             id="path100"
             inkscape:connector-curvature="0" /></g><g
           id="g102"
           transform="translate(60.0899,177.2569)"><path
             d="M 0,0 C -10.347,0 -18.721,-8.444 -18.721,-18.879"
             style="fill:none;stroke:#292929;stroke-width:1;stroke-linecap:square;stroke-linejoin:miter;stroke-miterlimit:10;stroke-dasharray:none;stroke-opacity:1"
             id="path104"
             inkscape:connector-curvature="0" /></g><g
           id="g106"
           transform="translate(116.3165,125.2999)"><path
             d="M 0,0 -56.227,0"
             style="fill:none;stroke:#292929;stroke-width:1;stroke-linecap:square;stroke-linejoin:miter;stroke-miterlimit:10;stroke-dasharray:none;stroke-opacity:1"
             id="path108"
             inkscape:connector-curvature="0" /></g><g
           id="g110"
           transform="translate(60.0899,177.2569)"><path
             d="M 0,0 9.381,0"
             style="fill:none;stroke:#292929;stroke-width:1;stroke-linecap:square;stroke-linejoin:miter;stroke-miterlimit:10;stroke-dasharray:none;stroke-opacity:1"
             id="path112"
             inkscape:connector-curvature="0" /></g><g
           id="g114"
           transform="translate(60.0899,172.5372)"><path
             d="M 0,0 56.227,0"
             style="fill:none;stroke:#292929;stroke-width:1;stroke-linecap:square;stroke-linejoin:miter;stroke-miterlimit:10;stroke-dasharray:none;stroke-opacity:1"
             id="path116"
             inkscape:connector-curvature="0" /></g><g
           id="g118"
           transform="translate(34.2115,160.6856)"><path
             d="m 0,0 0.104,-2.308 0,-18.92 0.125,-2.391 0.333,-2.37 0.54,-2.35 0.749,-2.285 0.957,-2.201 1.123,-2.116 1.351,-1.969 1.518,-1.862 1.643,-1.714 1.83,-1.524 1.955,-1.354 2.059,-1.186 2.163,-0.973 2.245,-0.762 2.288,-0.571 2.35,-0.339 5.885,-0.085 0,-4.191 15.929,0 0,4.361 38.722,0.042 2.454,0.359 2.433,0.636 2.37,0.867 2.247,1.079 2.162,1.313 1.997,1.523 1.871,1.693 1.685,1.906 1.476,2.031 1.29,2.201 1.081,2.307 0.853,2.391 0.603,2.477 0.353,2.518 0.125,2.539"
             style="fill:none;stroke:#292929;stroke-width:1;stroke-linecap:square;stroke-linejoin:miter;stroke-miterlimit:10;stroke-dasharray:none;stroke-opacity:1"
             id="path120"
             inkscape:connector-curvature="0" /></g><g
           id="g122"
           transform="translate(141.0806,139.4581)"><path
             d="m 0,0 0,18.92 -0.105,2.392 -0.336,2.391 -0.525,2.328 -0.776,2.286 -0.945,2.202 -1.175,2.116 -1.343,1.989 -1.511,1.841 -1.7,1.693 -1.826,1.545 -1.973,1.376 -2.078,1.164 -2.183,0.974 -2.246,0.783 -2.329,0.55 -2.351,0.339 -7.052,0 0,4.718 -46.824,0 0,-4.718 c -4.814,0 -9.723,0.341 -14.35,-1.248 -5.672,-1.949 -10.635,-6.108 -13.306,-11.547"
             style="fill:none;stroke:#292929;stroke-width:1;stroke-linecap:square;stroke-linejoin:miter;stroke-miterlimit:10;stroke-dasharray:none;stroke-opacity:1"
             id="path124"
             inkscape:connector-curvature="0" /></g><g
           id="g126"
           transform="translate(135.0586,158.378)"><path
             d="m 0,0 0,-7.089 4.68,0 0,-4.72 -4.68,0 0,-7.111"
             style="fill:none;stroke:#292929;stroke-width:1;stroke-linecap:square;stroke-linejoin:miter;stroke-miterlimit:10;stroke-dasharray:none;stroke-opacity:1"
             id="path128"
             inkscape:connector-curvature="0" /></g><g
           id="g130"
           transform="translate(130.3785,158.378)"><path
             d="m 0,0 0,-4.74 -4.702,0 0,-9.439 4.702,0 0,-4.741"
             style="fill:none;stroke:#292929;stroke-width:1;stroke-linecap:square;stroke-linejoin:miter;stroke-miterlimit:10;stroke-dasharray:none;stroke-opacity:1"
             id="path132"
             inkscape:connector-curvature="0" /></g><path
           d="m 106.956,177.257 -37.485,0 0,4.719 37.485,0 0,-4.719 z m 0,0 9.36,0"
           style="fill:none;stroke:#292929;stroke-width:1;stroke-linecap:square;stroke-linejoin:miter;stroke-miterlimit:10;stroke-dasharray:none;stroke-opacity:1"
           id="path134"
           inkscape:connector-curvature="0" /><g
           id="g136"
           transform="translate(46.0489,158.378)"><path
             d="m 0,0 0,-4.74 4.68,0 0,-9.439 -4.68,0 0,-4.741"
             style="fill:none;stroke:#292929;stroke-width:1;stroke-linecap:square;stroke-linejoin:miter;stroke-miterlimit:10;stroke-dasharray:none;stroke-opacity:1"
             id="path138"
             inkscape:connector-curvature="0" /></g><g
           id="g140"
           transform="translate(116.2325,120.5381)"><path
             d="m 0,0 -42.291,0.042 0,-4.741 -4.68,0 0,4.741 L -56.101,0"
             style="fill:none;stroke:#292929;stroke-width:1;stroke-linecap:square;stroke-linejoin:miter;stroke-miterlimit:10;stroke-dasharray:none;stroke-opacity:1"
             id="path142"
             inkscape:connector-curvature="0" /></g><g
           id="g144"
           transform="translate(41.3687,139.4581)"><path
             d="m 0,0 0,7.111 -4.702,0 0,4.72 4.702,0 0,7.089"
             style="fill:none;stroke:#292929;stroke-width:1;stroke-linecap:square;stroke-linejoin:miter;stroke-miterlimit:10;stroke-dasharray:none;stroke-opacity:1"
             id="path146"
             inkscape:connector-curvature="0" /></g><g
           id="g148"
           transform="translate(34.2032,160.6856)"><path
             d="m 0,0 c 0,2.129 -0.175,4.301 0.254,6.389 0.404,1.966 1.263,3.84 2.209,5.463"
             style="fill:none;stroke:#292929;stroke-width:1;stroke-linecap:square;stroke-linejoin:miter;stroke-miterlimit:10;stroke-dasharray:none;stroke-opacity:1"
             id="path150"
             inkscape:connector-curvature="0" /></g></g></g><text
       transform="matrix(0.99169336,0,0,-1,24.7144,136.0059)"
       style="font-variant:normal;font-weight:normal;font-stretch:normal;font-size:7.05459976px;font-family:Helvetica;-inkscape-font-specification:Helvetica;writing-mode:lr-tb;fill:#373535;fill-opacity:1;fill-rule:nonzero;stroke:none"
       id="text152"><tspan
         x="0"
         y="0"
         id="tspan154">5</tspan><tspan
         x="122.34793"
         y="-22.969778"
         id="tspan156">4</tspan><tspan
         x="122.34793"
         y="0"
         id="tspan158">8</tspan></text>
<g
       id="g160"
       transform="translate(87.9634,188.3409)"><path
         d="M 0,0 40.61,56.043"
         style="fill:none;stroke:#373536;stroke-width:0.5;stroke-linecap:butt;stroke-linejoin:miter;stroke-miterlimit:10;stroke-dasharray:none;stroke-opacity:1"
         id="path162"
         inkscape:connector-curvature="0" /></g><text
       transform="matrix(1,0,0,-1,459.7607,550.8975)"
       style="font-variant:normal;font-weight:normal;font-stretch:normal;font-size:10px;font-family:Helvetica;-inkscape-font-specification:Helvetica;writing-mode:lr-tb;fill:#292929;fill-opacity:1;fill-rule:nonzero;stroke:none"
       id="text164"><tspan
         x="0"
         y="0"
         id="tspan166">1</tspan><tspan
         x="-97.919998 -92.360001"
         y="1.49"
         sodipodi:role="line"
         id="tspan168">11</tspan><tspan
         x="0 5.5599999"
         y="11.32"
         sodipodi:role="line"
         id="tspan170">12</tspan><tspan
         x="-98.550003 -92.989998"
         y="12.81"
         sodipodi:role="line"
         id="tspan172">22</tspan><tspan
         x="0 5.5599999"
         y="22.639999"
         sodipodi:role="line"
         id="tspan174">23</tspan><tspan
         x="-97.919998 -92.360001"
         y="24.129999"
         sodipodi:role="line"
         id="tspan176">33</tspan></text>
<g
       id="g178"><g
         id="g180"
         clip-path="url(#clipPath182)"><g
           id="g186"
           transform="translate(389.0137,549.8458)"><path
             d="m 0,0 c 0,1.289 -1.039,2.328 -2.313,2.328 -1.289,0 -2.328,-1.039 -2.328,-2.328 0,-1.273 1.039,-2.313 2.328,-2.313 C -1.039,-2.313 0,-1.273 0,0 Z"
             style="fill:none;stroke:#373535;stroke-width:0.25;stroke-linecap:round;stroke-linejoin:round;stroke-miterlimit:10;stroke-dasharray:none;stroke-opacity:1"
             id="path188"
             inkscape:connector-curvature="0" /></g><g
           id="g190"
           transform="translate(394.6778,549.8458)"><path
             d="m 0,0 c 0,1.289 -1.039,2.328 -2.32,2.328 -1.285,0 -2.328,-1.039 -2.328,-2.328 0,-1.273 1.043,-2.313 2.328,-2.313 1.281,0 2.32,1.04 2.32,2.313 z"
             style="fill:none;stroke:#373535;stroke-width:0.25;stroke-linecap:round;stroke-linejoin:round;stroke-miterlimit:10;stroke-dasharray:none;stroke-opacity:1"
             id="path192"
             inkscape:connector-curvature="0" /></g><g
           id="g194"
           transform="translate(400.334,549.8458)"><path
             d="m 0,0 c 0,1.289 -1.039,2.328 -2.313,2.328 -1.289,0 -2.328,-1.039 -2.328,-2.328 0,-1.273 1.039,-2.313 2.328,-2.313 C -1.039,-2.313 0,-1.273 0,0 Z"
             style="fill:none;stroke:#373535;stroke-width:0.25;stroke-linecap:round;stroke-linejoin:round;stroke-miterlimit:10;stroke-dasharray:none;stroke-opacity:1"
             id="path196"
             inkscape:connector-curvature="0" /></g><g
           id="g198"
           transform="translate(405.9981,549.8458)"><path
             d="m 0,0 c 0,1.289 -1.039,2.328 -2.32,2.328 -1.285,0 -2.321,-1.039 -2.321,-2.328 0,-1.273 1.036,-2.313 2.321,-2.313 1.281,0 2.32,1.04 2.32,2.313 z"
             style="fill:none;stroke:#373535;stroke-width:0.25;stroke-linecap:round;stroke-linejoin:round;stroke-miterlimit:10;stroke-dasharray:none;stroke-opacity:1"
             id="path200"
             inkscape:connector-curvature="0" /></g><g
           id="g202"
           transform="translate(411.6543,549.8458)"><path
             d="m 0,0 c 0,1.289 -1.035,2.328 -2.313,2.328 -1.289,0 -2.328,-1.039 -2.328,-2.328 0,-1.273 1.039,-2.313 2.328,-2.313 C -1.035,-2.313 0,-1.273 0,0 Z"
             style="fill:none;stroke:#373535;stroke-width:0.25;stroke-linecap:round;stroke-linejoin:round;stroke-miterlimit:10;stroke-dasharray:none;stroke-opacity:1"
             id="path204"
             inkscape:connector-curvature="0" /></g><g
           id="g206"
           transform="translate(417.3223,549.8458)"><path
             d="m 0,0 c 0,1.289 -1.043,2.328 -2.316,2.328 -1.289,0 -2.329,-1.039 -2.329,-2.328 0,-1.273 1.04,-2.313 2.329,-2.313 C -1.043,-2.313 0,-1.273 0,0 Z"
             style="fill:none;stroke:#373535;stroke-width:0.25;stroke-linecap:round;stroke-linejoin:round;stroke-miterlimit:10;stroke-dasharray:none;stroke-opacity:1"
             id="path208"
             inkscape:connector-curvature="0" /></g><g
           id="g210"
           transform="translate(422.9825,549.8458)"><path
             d="m 0,0 c 0,1.289 -1.043,2.328 -2.316,2.328 -1.289,0 -2.329,-1.039 -2.329,-2.328 0,-1.273 1.04,-2.313 2.329,-2.313 C -1.043,-2.313 0,-1.273 0,0 Z"
             style="fill:none;stroke:#373535;stroke-width:0.25;stroke-linecap:round;stroke-linejoin:round;stroke-miterlimit:10;stroke-dasharray:none;stroke-opacity:1"
             id="path212"
             inkscape:connector-curvature="0" /></g><g
           id="g214"
           transform="translate(428.6426,549.8458)"><path
             d="m 0,0 c 0,1.289 -1.043,2.328 -2.316,2.328 -1.289,0 -2.329,-1.039 -2.329,-2.328 0,-1.273 1.04,-2.313 2.329,-2.313 C -1.043,-2.313 0,-1.273 0,0 Z"
             style="fill:none;stroke:#373535;stroke-width:0.25;stroke-linecap:round;stroke-linejoin:round;stroke-miterlimit:10;stroke-dasharray:none;stroke-opacity:1"
             id="path216"
             inkscape:connector-curvature="0" /></g><g
           id="g218"
           transform="translate(434.3028,549.8458)"><path
             d="m 0,0 c 0,1.289 -1.043,2.328 -2.316,2.328 -1.289,0 -2.325,-1.039 -2.325,-2.328 0,-1.273 1.036,-2.313 2.325,-2.313 C -1.043,-2.313 0,-1.273 0,0 Z"
             style="fill:none;stroke:#373535;stroke-width:0.25;stroke-linecap:round;stroke-linejoin:round;stroke-miterlimit:10;stroke-dasharray:none;stroke-opacity:1"
             id="path220"
             inkscape:connector-curvature="0" /></g><g
           id="g222"
           transform="translate(439.959,549.8458)"><path
             d="m 0,0 c 0,1.289 -1.035,2.328 -2.324,2.328 -1.278,0 -2.313,-1.039 -2.313,-2.328 0,-1.273 1.035,-2.313 2.313,-2.313 C -1.035,-2.313 0,-1.273 0,0 Z"
             style="fill:none;stroke:#373535;stroke-width:0.25;stroke-linecap:round;stroke-linejoin:round;stroke-miterlimit:10;stroke-dasharray:none;stroke-opacity:1"
             id="path224"
             inkscape:connector-curvature="0" /></g><g
           id="g226"
           transform="translate(445.6192,549.8458)"><path
             d="m 0,0 c 0,1.289 -1.035,2.328 -2.324,2.328 -1.278,0 -2.313,-1.039 -2.313,-2.328 0,-1.273 1.035,-2.313 2.313,-2.313 C -1.035,-2.313 0,-1.273 0,0 Z"
             style="fill:none;stroke:#373535;stroke-width:0.25;stroke-linecap:round;stroke-linejoin:round;stroke-miterlimit:10;stroke-dasharray:none;stroke-opacity:1"
             id="path228"
             inkscape:connector-curvature="0" /></g><g
           id="g230"
           transform="translate(389.0137,542.7715)"><path
             d="m 0,0 c 0,1.289 -1.039,2.324 -2.313,2.324 -1.289,0 -2.328,-1.035 -2.328,-2.324 0,-1.283 1.039,-2.318 2.328,-2.318 C -1.039,-2.318 0,-1.283 0,0 Z"
             style="fill:none;stroke:#373535;stroke-width:0.25;stroke-linecap:round;stroke-linejoin:round;stroke-miterlimit:10;stroke-dasharray:none;stroke-opacity:1"
             id="path232"
             inkscape:connector-curvature="0" /></g><g
           id="g234"
           transform="translate(394.6778,542.7715)"><path
             d="m 0,0 c 0,1.289 -1.043,2.324 -2.32,2.324 -1.285,0 -2.328,-1.035 -2.328,-2.324 0,-1.283 1.043,-2.318 2.328,-2.318 C -1.043,-2.318 0,-1.283 0,0 Z"
             style="fill:none;stroke:#373535;stroke-width:0.25;stroke-linecap:round;stroke-linejoin:round;stroke-miterlimit:10;stroke-dasharray:none;stroke-opacity:1"
             id="path236"
             inkscape:connector-curvature="0" /></g><g
           id="g238"
           transform="translate(400.334,542.7715)"><path
             d="m 0,0 c 0,1.289 -1.039,2.324 -2.313,2.324 -1.289,0 -2.328,-1.035 -2.328,-2.324 0,-1.283 1.039,-2.318 2.328,-2.318 C -1.039,-2.318 0,-1.283 0,0 Z"
             style="fill:none;stroke:#373535;stroke-width:0.25;stroke-linecap:round;stroke-linejoin:round;stroke-miterlimit:10;stroke-dasharray:none;stroke-opacity:1"
             id="path240"
             inkscape:connector-curvature="0" /></g><g
           id="g242"
           transform="translate(405.9981,542.7715)"><path
             d="m 0,0 c 0,1.289 -1.039,2.324 -2.32,2.324 -1.289,0 -2.321,-1.035 -2.321,-2.324 0,-1.283 1.032,-2.318 2.321,-2.318 C -1.039,-2.318 0,-1.283 0,0 Z"
             style="fill:none;stroke:#373535;stroke-width:0.25;stroke-linecap:round;stroke-linejoin:round;stroke-miterlimit:10;stroke-dasharray:none;stroke-opacity:1"
             id="path244"
             inkscape:connector-curvature="0" /></g><g
           id="g246"
           transform="translate(411.6543,542.7715)"><path
             d="m 0,0 c 0,1.289 -1.035,2.324 -2.313,2.324 -1.289,0 -2.328,-1.035 -2.328,-2.324 0,-1.283 1.039,-2.318 2.328,-2.318 C -1.035,-2.318 0,-1.283 0,0 Z"
             style="fill:none;stroke:#373535;stroke-width:0.25;stroke-linecap:round;stroke-linejoin:round;stroke-miterlimit:10;stroke-dasharray:none;stroke-opacity:1"
             id="path248"
             inkscape:connector-curvature="0" /></g><g
           id="g250"
           transform="translate(417.3223,542.7715)"><path
             d="m 0,0 c 0,1.289 -1.043,2.324 -2.316,2.324 -1.289,0 -2.329,-1.035 -2.329,-2.324 0,-1.283 1.04,-2.318 2.329,-2.318 C -1.043,-2.318 0,-1.283 0,0 Z"
             style="fill:none;stroke:#373535;stroke-width:0.25;stroke-linecap:round;stroke-linejoin:round;stroke-miterlimit:10;stroke-dasharray:none;stroke-opacity:1"
             id="path252"
             inkscape:connector-curvature="0" /></g><g
           id="g254"
           transform="translate(422.9785,542.7715)"><path
             d="m 0,0 c 0,1.289 -1.039,2.324 -2.313,2.324 -1.289,0 -2.328,-1.035 -2.328,-2.324 0,-1.283 1.039,-2.318 2.328,-2.318 C -1.039,-2.318 0,-1.283 0,0 Z"
             style="fill:none;stroke:#373535;stroke-width:0.25;stroke-linecap:round;stroke-linejoin:round;stroke-miterlimit:10;stroke-dasharray:none;stroke-opacity:1"
             id="path256"
             inkscape:connector-curvature="0" /></g><g
           id="g258"
           transform="translate(428.6387,542.7715)"><path
             d="m 0,0 c 0,1.289 -1.039,2.324 -2.316,2.324 -1.286,0 -2.325,-1.035 -2.325,-2.324 0,-1.283 1.039,-2.318 2.325,-2.318 C -1.039,-2.318 0,-1.283 0,0 Z"
             style="fill:none;stroke:#373535;stroke-width:0.25;stroke-linecap:round;stroke-linejoin:round;stroke-miterlimit:10;stroke-dasharray:none;stroke-opacity:1"
             id="path260"
             inkscape:connector-curvature="0" /></g><g
           id="g262"
           transform="translate(434.2989,542.7715)"><path
             d="m 0,0 c 0,1.289 -1.039,2.324 -2.316,2.324 -1.286,0 -2.325,-1.035 -2.325,-2.324 0,-1.283 1.039,-2.318 2.325,-2.318 C -1.039,-2.318 0,-1.283 0,0 Z"
             style="fill:none;stroke:#373535;stroke-width:0.25;stroke-linecap:round;stroke-linejoin:round;stroke-miterlimit:10;stroke-dasharray:none;stroke-opacity:1"
             id="path264"
             inkscape:connector-curvature="0" /></g><g
           id="g266"
           transform="translate(445.6192,542.7715)"><path
             d="m 0,0 c 0,1.289 -1.035,2.324 -2.324,2.324 -1.278,0 -2.317,-1.035 -2.317,-2.324 0,-1.283 1.039,-2.318 2.317,-2.318 C -1.035,-2.318 0,-1.283 0,0 Z"
             style="fill:none;stroke:#373535;stroke-width:0.25;stroke-linecap:round;stroke-linejoin:round;stroke-miterlimit:10;stroke-dasharray:none;stroke-opacity:1"
             id="path268"
             inkscape:connector-curvature="0" /></g><g
           id="g270"
           transform="translate(389.0137,535.7032)"><path
             d="m 0,0 c 0,1.273 -1.039,2.313 -2.313,2.313 -1.289,0 -2.328,-1.04 -2.328,-2.313 0,-1.289 1.039,-2.328 2.328,-2.328 C -1.039,-2.328 0,-1.289 0,0 Z"
             style="fill:none;stroke:#373535;stroke-width:0.25;stroke-linecap:round;stroke-linejoin:round;stroke-miterlimit:10;stroke-dasharray:none;stroke-opacity:1"
             id="path272"
             inkscape:connector-curvature="0" /></g><g
           id="g274"
           transform="translate(394.6778,535.7032)"><path
             d="m 0,0 c 0,1.273 -1.043,2.313 -2.32,2.313 -1.289,0 -2.328,-1.04 -2.328,-2.313 0,-1.289 1.039,-2.328 2.328,-2.328 C -1.043,-2.328 0,-1.289 0,0 Z"
             style="fill:none;stroke:#373535;stroke-width:0.25;stroke-linecap:round;stroke-linejoin:round;stroke-miterlimit:10;stroke-dasharray:none;stroke-opacity:1"
             id="path276"
             inkscape:connector-curvature="0" /></g><g
           id="g278"
           transform="translate(400.334,535.7032)"><path
             d="m 0,0 c 0,1.273 -1.039,2.313 -2.313,2.313 -1.289,0 -2.328,-1.04 -2.328,-2.313 0,-1.289 1.039,-2.328 2.328,-2.328 C -1.039,-2.328 0,-1.289 0,0 Z"
             style="fill:none;stroke:#373535;stroke-width:0.25;stroke-linecap:round;stroke-linejoin:round;stroke-miterlimit:10;stroke-dasharray:none;stroke-opacity:1"
             id="path280"
             inkscape:connector-curvature="0" /></g><g
           id="g282"
           transform="translate(405.9942,535.7032)"><path
             d="m 0,0 c 0,1.273 -1.035,2.313 -2.316,2.313 -1.289,0 -2.321,-1.04 -2.321,-2.313 0,-1.289 1.032,-2.328 2.321,-2.328 C -1.035,-2.328 0,-1.289 0,0 Z"
             style="fill:none;stroke:#373535;stroke-width:0.25;stroke-linecap:round;stroke-linejoin:round;stroke-miterlimit:10;stroke-dasharray:none;stroke-opacity:1"
             id="path284"
             inkscape:connector-curvature="0" /></g><g
           id="g286"
           transform="translate(411.6543,535.7032)"><path
             d="m 0,0 c 0,1.273 -1.035,2.313 -2.316,2.313 -1.286,0 -2.325,-1.04 -2.325,-2.313 0,-1.289 1.039,-2.328 2.325,-2.328 C -1.035,-2.328 0,-1.289 0,0 Z"
             style="fill:none;stroke:#373535;stroke-width:0.25;stroke-linecap:round;stroke-linejoin:round;stroke-miterlimit:10;stroke-dasharray:none;stroke-opacity:1"
             id="path288"
             inkscape:connector-curvature="0" /></g><g
           id="g290"
           transform="translate(434.334,535.7032)"><path
             d="m 0,0 c 0,1.273 -1.035,2.313 -2.324,2.313 -1.281,0 -2.317,-1.04 -2.317,-2.313 0,-1.289 1.036,-2.328 2.317,-2.328 C -1.035,-2.328 0,-1.289 0,0"
             style="fill:#97989b;fill-opacity:1;fill-rule:nonzero;stroke:none"
             id="path292"
             inkscape:connector-curvature="0" /></g><g
           id="g294"
           transform="translate(434.334,535.7032)"><path
             d="m 0,0 c 0,1.273 -1.035,2.313 -2.324,2.313 -1.281,0 -2.317,-1.04 -2.317,-2.313 0,-1.289 1.036,-2.328 2.317,-2.328 C -1.035,-2.328 0,-1.289 0,0 Z"
             style="fill:none;stroke:#373535;stroke-width:0.25;stroke-linecap:round;stroke-linejoin:round;stroke-miterlimit:10;stroke-dasharray:none;stroke-opacity:1"
             id="path296"
             inkscape:connector-curvature="0" /></g><g
           id="g298"
           transform="translate(445.6192,535.7032)"><path
             d="m 0,0 c 0,1.273 -1.035,2.313 -2.324,2.313 -1.281,0 -2.317,-1.04 -2.317,-2.313 0,-1.289 1.036,-2.328 2.317,-2.328 C -1.035,-2.328 0,-1.289 0,0 Z"
             style="fill:none;stroke:#373535;stroke-width:0.25;stroke-linecap:round;stroke-linejoin:round;stroke-miterlimit:10;stroke-dasharray:none;stroke-opacity:1"
             id="path300"
             inkscape:connector-curvature="0" /></g><g
           id="g302"
           transform="translate(383.5215,553.9708)"><path
             d="M 0,0 62.531,0.02"
             style="fill:none;stroke:#373535;stroke-width:0.25;stroke-linecap:round;stroke-linejoin:round;stroke-miterlimit:10;stroke-dasharray:none;stroke-opacity:1"
             id="path304"
             inkscape:connector-curvature="0" /></g><g
           id="g306"
           transform="translate(383.5215,529.9102)"><path
             d="M 0,0 62.531,0.02"
             style="fill:none;stroke:#373535;stroke-width:0.25;stroke-linecap:round;stroke-linejoin:round;stroke-miterlimit:10;stroke-dasharray:none;stroke-opacity:1"
             id="path308"
             inkscape:connector-curvature="0" /></g><g
           id="g310"
           transform="translate(381.0391,551.2676)"><path
             d="M 0,0 0,-18.4"
             style="fill:none;stroke:#373535;stroke-width:0.25;stroke-linecap:round;stroke-linejoin:round;stroke-miterlimit:10;stroke-dasharray:none;stroke-opacity:1"
             id="path312"
             inkscape:connector-curvature="0" /></g><g
           id="g314"
           transform="translate(448.9551,551.2676)"><path
             d="M 0,0 0,-18.4"
             style="fill:none;stroke:#373535;stroke-width:0.25;stroke-linecap:round;stroke-linejoin:round;stroke-miterlimit:10;stroke-dasharray:none;stroke-opacity:1"
             id="path316"
             inkscape:connector-curvature="0" /></g><g
           id="g318"
           transform="translate(446.0528,553.9903)"><path
             d="m 0,0 0.238,0 c 2.11,-0.008 2.742,-0.254 2.664,-2.496 l 0,-0.227"
             style="fill:none;stroke:#373535;stroke-width:0.25;stroke-linecap:round;stroke-linejoin:round;stroke-miterlimit:10;stroke-dasharray:none;stroke-opacity:1"
             id="path320"
             inkscape:connector-curvature="0" /></g><g
           id="g322"
           transform="translate(381.0391,551.2676)"><path
             d="M 0,0 0,0.227 C -0.016,2.18 0.227,2.758 2.275,2.703 l 0.207,0"
             style="fill:none;stroke:#373535;stroke-width:0.25;stroke-linecap:round;stroke-linejoin:round;stroke-miterlimit:10;stroke-dasharray:none;stroke-opacity:1"
             id="path324"
             inkscape:connector-curvature="0" /></g><g
           id="g326"
           transform="translate(381.0391,532.8672)"><path
             d="m 0,0 0,-0.25 c 0.008,-1.996 0.078,-2.754 2.275,-2.707 l 0.207,0"
             style="fill:none;stroke:#373535;stroke-width:0.25;stroke-linecap:round;stroke-linejoin:round;stroke-miterlimit:10;stroke-dasharray:none;stroke-opacity:1"
             id="path328"
             inkscape:connector-curvature="0" /></g><g
           id="g330"
           transform="translate(446.0528,529.9297)"><path
             d="m 0,0 0.238,0 c 2.293,-0.008 2.707,0.398 2.664,2.695 l 0,0.243"
             style="fill:none;stroke:#373535;stroke-width:0.25;stroke-linecap:round;stroke-linejoin:round;stroke-miterlimit:10;stroke-dasharray:none;stroke-opacity:1"
             id="path332"
             inkscape:connector-curvature="0" /></g><g
           id="g334"
           transform="translate(379.6211,551.2676)"><path
             d="M 0,0 0,-18.4"
             style="fill:none;stroke:#373535;stroke-width:0.5;stroke-linecap:round;stroke-linejoin:round;stroke-miterlimit:10;stroke-dasharray:none;stroke-opacity:1"
             id="path336"
             inkscape:connector-curvature="0" /></g><g
           id="g338"
           transform="translate(450.3731,551.2676)"><path
             d="M 0,0 0,-18.4"
             style="fill:none;stroke:#373535;stroke-width:0.5;stroke-linecap:round;stroke-linejoin:round;stroke-miterlimit:10;stroke-dasharray:none;stroke-opacity:1"
             id="path340"
             inkscape:connector-curvature="0" /></g><g
           id="g342"
           transform="translate(383.5215,528.5001)"><path
             d="M 0,0 62.531,0.02"
             style="fill:none;stroke:#373535;stroke-width:0.5;stroke-linecap:round;stroke-linejoin:round;stroke-miterlimit:10;stroke-dasharray:none;stroke-opacity:1"
             id="path344"
             inkscape:connector-curvature="0" /></g><g
           id="g346"
           transform="translate(379.6211,532.8672)"><path
             d="m 0,0 0,-0.371 c 0.004,-3.063 0.254,-4.098 3.572,-3.996 l 0.328,0"
             style="fill:none;stroke:#373535;stroke-width:0.5;stroke-linecap:round;stroke-linejoin:round;stroke-miterlimit:10;stroke-dasharray:none;stroke-opacity:1"
             id="path348"
             inkscape:connector-curvature="0" /></g><g
           id="g350"
           transform="translate(446.0528,528.5196)"><path
             d="M 0,0 0.359,0 C 3.727,-0.059 4.371,0.613 4.32,3.977 l 0,0.371"
             style="fill:none;stroke:#373535;stroke-width:0.5;stroke-linecap:round;stroke-linejoin:round;stroke-miterlimit:10;stroke-dasharray:none;stroke-opacity:1"
             id="path352"
             inkscape:connector-curvature="0" /></g><g
           id="g354"
           transform="translate(383.5215,555.3926)"><path
             d="M 0,0 62.531,0.02"
             style="fill:none;stroke:#373535;stroke-width:0.5;stroke-linecap:round;stroke-linejoin:round;stroke-miterlimit:10;stroke-dasharray:none;stroke-opacity:1"
             id="path356"
             inkscape:connector-curvature="0" /></g><g
           id="g358"
           transform="translate(379.6172,551.2676)"><path
             d="m 0,0 0,0.348 c 0.008,3.074 0.387,3.804 3.576,3.777 l 0.328,0"
             style="fill:none;stroke:#373535;stroke-width:0.5;stroke-linecap:round;stroke-linejoin:round;stroke-miterlimit:10;stroke-dasharray:none;stroke-opacity:1"
             id="path360"
             inkscape:connector-curvature="0" /></g><g
           id="g362"
           transform="translate(446.0528,555.4122)"><path
             d="m 0,0 0.359,0.008 c 3.262,0.015 3.965,-0.469 3.957,-3.805 l 0,-0.348"
             style="fill:none;stroke:#373535;stroke-width:0.5;stroke-linecap:round;stroke-linejoin:round;stroke-miterlimit:10;stroke-dasharray:none;stroke-opacity:1"
             id="path364"
             inkscape:connector-curvature="0" /></g><g
           id="g366"
           transform="translate(381.8164,551.2872)"><path
             d="M 0,0 1.725,1.977"
             style="fill:none;stroke:#373535;stroke-width:0.25;stroke-linecap:round;stroke-linejoin:round;stroke-miterlimit:10;stroke-dasharray:none;stroke-opacity:1"
             id="path368"
             inkscape:connector-curvature="0" /></g><g
           id="g370"
           transform="translate(381.8164,551.2872)"><path
             d="M 0,0 -0.008,0.168 C -0.02,1.574 0.066,2.023 1.58,1.977 l 0.145,0"
             style="fill:none;stroke:#373535;stroke-width:0.25;stroke-linecap:round;stroke-linejoin:round;stroke-miterlimit:10;stroke-dasharray:none;stroke-opacity:1"
             id="path372"
             inkscape:connector-curvature="0" /></g><g
           id="g374"
           transform="translate(398.045,555.3926)"><path
             d="M 0,0 0,3.363 0,3.352"
             style="fill:none;stroke:#373535;stroke-width:0.5;stroke-linecap:round;stroke-linejoin:round;stroke-miterlimit:10;stroke-dasharray:none;stroke-opacity:1"
             id="path376"
             inkscape:connector-curvature="0" /></g><g
           id="g378"
           transform="translate(432.0137,555.3926)"><path
             d="M 0,0 0,3.363 0,3.352"
             style="fill:none;stroke:#373535;stroke-width:0.5;stroke-linecap:round;stroke-linejoin:round;stroke-miterlimit:10;stroke-dasharray:none;stroke-opacity:1"
             id="path380"
             inkscape:connector-curvature="0" /></g><g
           id="g382"
           transform="translate(398.045,558.7442)"><path
             d="M 0,0 33.969,0.012"
             style="fill:none;stroke:#373535;stroke-width:0.5;stroke-linecap:round;stroke-linejoin:round;stroke-miterlimit:10;stroke-dasharray:none;stroke-opacity:1"
             id="path384"
             inkscape:connector-curvature="0" /></g><path
           d="m 393.717,528.953 1.68,0 0,0.957 -1.68,0 0,-0.957 z"
           style="fill:none;stroke:#373535;stroke-width:0.25;stroke-linecap:round;stroke-linejoin:round;stroke-miterlimit:10;stroke-dasharray:none;stroke-opacity:1"
           id="path386"
           inkscape:connector-curvature="0" /><path
           d="m 434.76,528.953 1.668,0 0,0.957 -1.668,0 0,-0.957 z"
           style="fill:none;stroke:#373535;stroke-width:0.25;stroke-linecap:round;stroke-linejoin:round;stroke-miterlimit:10;stroke-dasharray:none;stroke-opacity:1"
           id="path388"
           inkscape:connector-curvature="0" /><path
           d="m 385.272,553.971 1.727,0 0,1.16 -1.727,0 0,-1.16 z"
           style="fill:none;stroke:#373535;stroke-width:0.25;stroke-linecap:round;stroke-linejoin:round;stroke-miterlimit:10;stroke-dasharray:none;stroke-opacity:1"
           id="path390"
           inkscape:connector-curvature="0" /><path
           d="m 443.275,553.99 1.734,0 0,1.141 -1.734,0 0,-1.141 z"
           style="fill:none;stroke:#373535;stroke-width:0.25;stroke-linecap:round;stroke-linejoin:round;stroke-miterlimit:10;stroke-dasharray:none;stroke-opacity:1"
           id="path392"
           inkscape:connector-curvature="0" /><g
           id="g394"
           transform="translate(415.0293,528.5196)"><path
             d="M 0,0 -35.412,-85.415"
             style="fill:none;stroke:#373535;stroke-width:0.5;stroke-linecap:butt;stroke-linejoin:miter;stroke-miterlimit:10;stroke-dasharray:none;stroke-opacity:1"
             id="path396"
             inkscape:connector-curvature="0" /></g><g
           id="g398"
           transform="translate(142.7271,244.629)"><path
             d="M 0,0 37,-101.048"
             style="fill:none;stroke:#292929;stroke-width:0.5;stroke-linecap:square;stroke-linejoin:miter;stroke-miterlimit:10;stroke-dasharray:none;stroke-opacity:1"
             id="path400"
             inkscape:connector-curvature="0" /></g><g
           id="g402"
           transform="translate(367.3936,443.105)"><path
             d="M 0,0 -56.667,76.244"
             style="fill:none;stroke:#292929;stroke-width:0.5;stroke-linecap:square;stroke-linejoin:miter;stroke-miterlimit:10;stroke-dasharray:none;stroke-opacity:1"
             id="path404"
             inkscape:connector-curvature="0" /></g></g></g><text
       transform="matrix(1,0,0,-1,303.6172,521.1611)"
       style="font-variant:normal;font-weight:bold;font-stretch:normal;font-size:10px;font-family:Helvetica;-inkscape-font-specification:Helvetica-Bold;writing-mode:lr-tb;fill:#292929;fill-opacity:1;fill-rule:nonzero;stroke:none"
       id="text406"><tspan
         x="0"
         y="0"
         id="tspan408">1</tspan><tspan
         x="-123.89"
         y="388.73001"
         id="tspan410">2</tspan></text>
<g
       id="g412"><g
         id="g414"
         clip-path="url(#clipPath416)"><g
           id="g420"
           transform="translate(417.3496,535.7032)"><path
             d="m 0,0 c 0,1.273 -1.035,2.313 -2.316,2.313 -1.286,0 -2.325,-1.04 -2.325,-2.313 0,-1.289 1.039,-2.328 2.325,-2.328 C -1.035,-2.328 0,-1.289 0,0 Z"
             style="fill:none;stroke:#373535;stroke-width:0.25;stroke-linecap:round;stroke-linejoin:round;stroke-miterlimit:10;stroke-dasharray:none;stroke-opacity:1"
             id="path422"
             inkscape:connector-curvature="0" /></g><g
           id="g424"
           transform="translate(422.9785,535.7032)"><path
             d="m 0,0 c 0,1.273 -1.035,2.313 -2.316,2.313 -1.286,0 -2.325,-1.04 -2.325,-2.313 0,-1.289 1.039,-2.328 2.325,-2.328 C -1.035,-2.328 0,-1.289 0,0 Z"
             style="fill:none;stroke:#373535;stroke-width:0.25;stroke-linecap:round;stroke-linejoin:round;stroke-miterlimit:10;stroke-dasharray:none;stroke-opacity:1"
             id="path426"
             inkscape:connector-curvature="0" /></g><path
           d="m 54.43,133.819 11.32,0 0,11.32 -11.32,0 0,-11.32 z"
           style="fill:#97989b;fill-opacity:1;fill-rule:nonzero;stroke:#292929;stroke-width:0.5;stroke-linecap:square;stroke-linejoin:miter;stroke-miterlimit:10;stroke-dasharray:none;stroke-opacity:1"
           id="path428"
           inkscape:connector-curvature="0" /><path
           d="m 91.914,133.798 11.32,0 0,11.32 -11.32,0 0,-11.32 z"
           style="fill:#97989b;fill-opacity:1;fill-rule:nonzero;stroke:#292929;stroke-width:0.5;stroke-linecap:square;stroke-linejoin:miter;stroke-miterlimit:10;stroke-dasharray:none;stroke-opacity:1"
           id="path430"
           inkscape:connector-curvature="0" /><g
           id="g432"
           transform="translate(439.9629,542.7823)"><path
             d="m 0,0 c 0,1.273 -1.039,2.313 -2.316,2.313 -1.286,0 -2.329,-1.04 -2.329,-2.313 0,-1.289 1.043,-2.328 2.329,-2.328 C -1.039,-2.328 0,-1.289 0,0"
             style="fill:#97989b;fill-opacity:1;fill-rule:nonzero;stroke:none"
             id="path434"
             inkscape:connector-curvature="0" /></g><g
           id="g436"
           transform="translate(439.9629,542.7823)"><path
             d="m 0,0 c 0,1.273 -1.039,2.313 -2.316,2.313 -1.286,0 -2.329,-1.04 -2.329,-2.313 0,-1.289 1.043,-2.328 2.329,-2.328 C -1.039,-2.328 0,-1.289 0,0 Z"
             style="fill:none;stroke:#373535;stroke-width:0.25;stroke-linecap:round;stroke-linejoin:round;stroke-miterlimit:10;stroke-dasharray:none;stroke-opacity:1"
             id="path438"
             inkscape:connector-curvature="0" /></g><g
           id="g440"
           transform="translate(439.961,535.7032)"><path
             d="m 0,0 c 0,1.273 -1.035,2.313 -2.324,2.313 -1.281,0 -2.317,-1.04 -2.317,-2.313 0,-1.289 1.036,-2.328 2.317,-2.328 C -1.035,-2.328 0,-1.289 0,0 Z"
             style="fill:none;stroke:#373535;stroke-width:0.25;stroke-linecap:round;stroke-linejoin:round;stroke-miterlimit:10;stroke-dasharray:none;stroke-opacity:1"
             id="path442"
             inkscape:connector-curvature="0" /></g><g
           id="g444"
           transform="translate(428.6387,535.7032)"><path
             d="m 0,0 c 0,1.273 -1.035,2.313 -2.316,2.313 -1.286,0 -2.325,-1.04 -2.325,-2.313 0,-1.289 1.039,-2.328 2.325,-2.328 C -1.035,-2.328 0,-1.289 0,0 Z"
             style="fill:none;stroke:#373535;stroke-width:0.25;stroke-linecap:round;stroke-linejoin:round;stroke-miterlimit:10;stroke-dasharray:none;stroke-opacity:1"
             id="path446"
             inkscape:connector-curvature="0" /></g></g></g></g></svg>