<?xml version="1.0" encoding="UTF-8" standalone="no"?>
<!-- Created with Inkscape (http://www.inkscape.org/) -->

<svg
   xmlns:dc="http://purl.org/dc/elements/1.1/"
   xmlns:cc="http://creativecommons.org/ns#"
   xmlns:rdf="http://www.w3.org/1999/02/22-rdf-syntax-ns#"
   xmlns:svg="http://www.w3.org/2000/svg"
   xmlns="http://www.w3.org/2000/svg"
   xmlns:sodipodi="http://sodipodi.sourceforge.net/DTD/sodipodi-0.dtd"
   xmlns:inkscape="http://www.inkscape.org/namespaces/inkscape"
   id="svg5696"
   version="1.1"
   inkscape:version="0.91 r13725"
   xml:space="preserve"
   width="301.18124"
   height="230.315"
   viewBox="0 0 301.18124 230.315"
   sodipodi:docname="B00016_2.svg"><metadata
     id="metadata5702"><rdf:RDF><cc:Work
         rdf:about=""><dc:format>image/svg+xml</dc:format><dc:type
           rdf:resource="http://purl.org/dc/dcmitype/StillImage" /><dc:title></dc:title></cc:Work></rdf:RDF></metadata><defs
     id="defs5700"><clipPath
       clipPathUnits="userSpaceOnUse"
       id="clipPath5710"><path
         d="m 0,184.252 240.945,0 L 240.945,0 0,0 0,184.252 Z"
         id="path5712"
         inkscape:connector-curvature="0" /></clipPath><clipPath
       clipPathUnits="userSpaceOnUse"
       id="clipPath5914"><path
         d="m 0,184.252 240.945,0 L 240.945,0 0,0 0,184.252 Z"
         id="path5916"
         inkscape:connector-curvature="0" /></clipPath></defs><sodipodi:namedview
     pagecolor="#ffffff"
     bordercolor="#666666"
     borderopacity="1"
     objecttolerance="10"
     gridtolerance="10"
     guidetolerance="10"
     inkscape:pageopacity="0"
     inkscape:pageshadow="2"
     inkscape:window-width="640"
     inkscape:window-height="480"
     id="namedview5698"
     showgrid="false"
     inkscape:zoom="5.2493324"
     inkscape:cx="150.59062"
     inkscape:cy="115.1575"
     inkscape:window-x="0"
     inkscape:window-y="0"
     inkscape:window-maximized="1"
     inkscape:current-layer="g5704" /><g
     id="g5704"
     inkscape:groupmode="layer"
     inkscape:label="B00016_2"
     transform="matrix(1.25,0,0,-1.25,0,230.315)"><g
       id="g5706"><g
         id="g5708"
         clip-path="url(#clipPath5710)"><g
           id="g5714"
           transform="translate(90.481,118.8772)"><path
             d="m 0,0 c -2.557,1.476 -6.706,-0.918 -9.261,-5.349 -2.558,-4.429 -2.558,-9.217 0,-10.693"
             style="fill:none;stroke:#231f20;stroke-width:0.85000002;stroke-linecap:round;stroke-linejoin:miter;stroke-miterlimit:4;stroke-dasharray:none;stroke-opacity:1"
             id="path5716"
             inkscape:connector-curvature="0" /></g><g
           id="g5718"
           transform="translate(107.6797,114.2542)"><path
             d="m 0,0 c -3.828,2.208 -10.032,-1.374 -13.858,-8.001 -3.826,-6.629 -3.826,-13.793 0.001,-16.001"
             style="fill:none;stroke:#231f20;stroke-width:0.85000002;stroke-linecap:round;stroke-linejoin:miter;stroke-miterlimit:4;stroke-dasharray:none;stroke-opacity:1"
             id="path5720"
             inkscape:connector-curvature="0" /></g><g
           id="g5722"
           transform="translate(90.9658,97.2073)"><path
             d="M 0,0 -9.746,5.628"
             style="fill:none;stroke:#231f20;stroke-width:0.85000002;stroke-linecap:round;stroke-linejoin:miter;stroke-miterlimit:4;stroke-dasharray:none;stroke-opacity:1"
             id="path5724"
             inkscape:connector-curvature="0" /></g><g
           id="g5726"
           transform="translate(100.2271,113.2493)"><path
             d="M 0,0 -9.746,5.628"
             style="fill:none;stroke:#231f20;stroke-width:0.85000002;stroke-linecap:round;stroke-linejoin:miter;stroke-miterlimit:4;stroke-dasharray:none;stroke-opacity:1"
             id="path5728"
             inkscape:connector-curvature="0" /></g><g
           id="g5730"
           transform="translate(101.314,85.9261)"><path
             d="M 0,0 C 0.479,-0.276 0.992,-0.462 1.485,-0.551"
             style="fill:none;stroke:#231f20;stroke-width:0.85000002;stroke-linecap:round;stroke-linejoin:miter;stroke-miterlimit:4;stroke-dasharray:none;stroke-opacity:1"
             id="path5732"
             inkscape:connector-curvature="0" /></g><g
           id="g5734"
           transform="translate(116.3892,108.9173)"><path
             d="M 0,0 C -0.375,0.433 -0.798,0.778 -1.217,1.01"
             style="fill:none;stroke:#231f20;stroke-width:0.85000002;stroke-linecap:round;stroke-linejoin:miter;stroke-miterlimit:4;stroke-dasharray:none;stroke-opacity:1"
             id="path5736"
             inkscape:connector-curvature="0" /></g><g
           id="g5738"
           transform="translate(115.1724,109.927)"><path
             d="M 0,0 C -1.914,1.105 -4.421,0.763 -6.929,-0.686"
             style="fill:none;stroke:#231f20;stroke-width:0.25;stroke-linecap:round;stroke-linejoin:miter;stroke-miterlimit:4;stroke-dasharray:none;stroke-opacity:1"
             id="path5740"
             inkscape:connector-curvature="0" /></g><g
           id="g5742"
           transform="translate(98.4434,92.2693)"><path
             d="M 0,0 C 0,-3.124 1.097,-5.32 2.871,-6.343"
             style="fill:none;stroke:#231f20;stroke-width:0.25;stroke-linecap:round;stroke-linejoin:miter;stroke-miterlimit:4;stroke-dasharray:none;stroke-opacity:1"
             id="path5744"
             inkscape:connector-curvature="0" /></g><g
           id="g5746"
           transform="translate(101.314,85.9261)"><path
             d="M 0,0 -7.492,4.326"
             style="fill:none;stroke:#231f20;stroke-width:0.85000002;stroke-linecap:round;stroke-linejoin:miter;stroke-miterlimit:4;stroke-dasharray:none;stroke-opacity:1"
             id="path5748"
             inkscape:connector-curvature="0" /></g><g
           id="g5750"
           transform="translate(115.1724,109.927)"><path
             d="M 0,0 -7.493,4.327"
             style="fill:none;stroke:#231f20;stroke-width:0.85000002;stroke-linecap:round;stroke-linejoin:miter;stroke-miterlimit:4;stroke-dasharray:none;stroke-opacity:1"
             id="path5752"
             inkscape:connector-curvature="0" /></g><g
           id="g5754"
           transform="translate(113.7456,108.826)"><path
             d="m 0,0 c -3.494,1.067 -8.363,-2.189 -11.43,-7.476 -3.11,-5.386 -3.373,-11.17 -0.76,-13.639"
             style="fill:none;stroke:#231f20;stroke-width:0.25;stroke-linecap:round;stroke-linejoin:miter;stroke-miterlimit:4;stroke-dasharray:none;stroke-opacity:1"
             id="path5756"
             inkscape:connector-curvature="0" /></g><g
           id="g5758"
           transform="translate(117.8745,108.368)"><path
             d="m 0,0 c -3.827,2.208 -10.032,-1.374 -13.859,-8.002 -3.825,-6.627 -3.825,-13.791 0.002,-16.001"
             style="fill:none;stroke:#231f20;stroke-width:0.85000002;stroke-linecap:round;stroke-linejoin:miter;stroke-miterlimit:4;stroke-dasharray:none;stroke-opacity:1"
             id="path5760"
             inkscape:connector-curvature="0" /></g><g
           id="g5762"
           transform="translate(111.5088,80.0393)"><path
             d="M 0,0 C 1.245,-0.719 2.743,-0.824 4.274,-0.423"
             style="fill:none;stroke:#231f20;stroke-width:0.85000002;stroke-linecap:round;stroke-linejoin:miter;stroke-miterlimit:4;stroke-dasharray:none;stroke-opacity:1"
             id="path5764"
             inkscape:connector-curvature="0" /></g><g
           id="g5766"
           transform="translate(127.8701,100.5501)"><path
             d="M 0,0 C -0.476,1.683 -1.371,2.857 -2.504,3.492"
             style="fill:none;stroke:#231f20;stroke-width:0.85000002;stroke-linecap:round;stroke-linejoin:miter;stroke-miterlimit:4;stroke-dasharray:none;stroke-opacity:1"
             id="path5768"
             inkscape:connector-curvature="0" /></g><g
           id="g5770"
           transform="translate(125.3662,104.0423)"><path
             d="m 0,0 c -3.826,2.208 -10.031,-1.374 -13.857,-8 -3.828,-6.63 -3.828,-13.793 0,-16.003"
             style="fill:none;stroke:#231f20;stroke-width:0.25;stroke-linecap:round;stroke-linejoin:miter;stroke-miterlimit:4;stroke-dasharray:none;stroke-opacity:1"
             id="path5772"
             inkscape:connector-curvature="0" /></g><g
           id="g5774"
           transform="translate(111.5088,80.0393)"><path
             d="M 0,0 -7.491,4.326"
             style="fill:none;stroke:#231f20;stroke-width:0.85000002;stroke-linecap:round;stroke-linejoin:miter;stroke-miterlimit:4;stroke-dasharray:none;stroke-opacity:1"
             id="path5776"
             inkscape:connector-curvature="0" /></g><g
           id="g5778"
           transform="translate(125.3662,104.0423)"><path
             d="M 0,0 -7.492,4.326"
             style="fill:none;stroke:#231f20;stroke-width:0.85000002;stroke-linecap:round;stroke-linejoin:miter;stroke-miterlimit:4;stroke-dasharray:none;stroke-opacity:1"
             id="path5780"
             inkscape:connector-curvature="0" /></g><g
           id="g5782"
           transform="translate(124.459,102.0559)"><path
             d="m 0,0 c -3.292,1.462 -8.25,-1.611 -11.338,-6.946 -3.107,-5.38 -3.228,-11.18 -0.346,-13.29"
             style="fill:none;stroke:#231f20;stroke-width:0.25;stroke-linecap:round;stroke-linejoin:miter;stroke-miterlimit:4;stroke-dasharray:none;stroke-opacity:1"
             id="path5784"
             inkscape:connector-curvature="0" /></g><g
           id="g5786"
           transform="translate(126.207,101.512)"><path
             d="m 0,0 c -3.338,1.926 -8.749,-1.197 -12.086,-6.979 -3.338,-5.78 -3.338,-12.029 0,-13.956"
             style="fill:none;stroke:#231f20;stroke-width:0.85000002;stroke-linecap:round;stroke-linejoin:miter;stroke-miterlimit:4;stroke-dasharray:none;stroke-opacity:1"
             id="path5788"
             inkscape:connector-curvature="0" /></g><g
           id="g5790"
           transform="translate(133.5195,69.3772)"><path
             d="M 0,0 C 1.577,-0.911 3.618,-0.694 5.674,0.396"
             style="fill:none;stroke:#231f20;stroke-width:0.85000002;stroke-linecap:round;stroke-linejoin:miter;stroke-miterlimit:4;stroke-dasharray:none;stroke-opacity:1"
             id="path5792"
             inkscape:connector-curvature="0" /></g><g
           id="g5794"
           transform="translate(148.1025,85.1966)"><path
             d="M 0,0 C -0.096,2.519 -1.037,4.276 -2.495,5.115"
             style="fill:none;stroke:#231f20;stroke-width:0.85000002;stroke-linecap:round;stroke-linejoin:miter;stroke-miterlimit:4;stroke-dasharray:none;stroke-opacity:1"
             id="path5796"
             inkscape:connector-curvature="0" /></g><g
           id="g5798"
           transform="translate(145.6074,90.3118)"><path
             d="m 0,0 c -3.338,1.926 -8.749,-1.197 -12.088,-6.979 -3.336,-5.781 -3.336,-12.03 0,-13.956"
             style="fill:none;stroke:#231f20;stroke-width:0.25;stroke-linecap:round;stroke-linejoin:miter;stroke-miterlimit:4;stroke-dasharray:none;stroke-opacity:1"
             id="path5800"
             inkscape:connector-curvature="0" /></g><g
           id="g5802"
           transform="translate(133.5195,69.3772)"><path
             d="M 0,0 -19.399,11.2"
             style="fill:none;stroke:#231f20;stroke-width:0.85000002;stroke-linecap:round;stroke-linejoin:miter;stroke-miterlimit:4;stroke-dasharray:none;stroke-opacity:1"
             id="path5804"
             inkscape:connector-curvature="0" /></g><g
           id="g5806"
           transform="translate(145.6074,90.3118)"><path
             d="M 0,0 -19.4,11.2"
             style="fill:none;stroke:#231f20;stroke-width:0.85000002;stroke-linecap:round;stroke-linejoin:miter;stroke-miterlimit:4;stroke-dasharray:none;stroke-opacity:1"
             id="path5808"
             inkscape:connector-curvature="0" /></g><g
           id="g5810"
           transform="translate(134.3096,69.8157)"><path
             d="M 0,0 C 1.32,-0.761 2.989,-0.679 4.687,0.071"
             style="fill:none;stroke:#231f20;stroke-width:0.25;stroke-linecap:round;stroke-linejoin:miter;stroke-miterlimit:4;stroke-dasharray:none;stroke-opacity:1"
             id="path5812"
             inkscape:connector-curvature="0" /></g><g
           id="g5814"
           transform="translate(132.0537,76.4075)"><path
             d="M 0,0 C -0.359,-3.002 0.393,-5.517 2.256,-6.592"
             style="fill:none;stroke:#231f20;stroke-width:0.25;stroke-linecap:round;stroke-linejoin:miter;stroke-miterlimit:4;stroke-dasharray:none;stroke-opacity:1"
             id="path5816"
             inkscape:connector-curvature="0" /></g><g
           id="g5818"
           transform="translate(147.9043,85.3118)"><path
             d="M 0,0 C -0.226,2.013 -1.07,3.404 -2.284,4.096 -4.237,5.222 -6.947,4.503 -9.468,2.484"
             style="fill:none;stroke:#231f20;stroke-width:0.25;stroke-linecap:round;stroke-linejoin:miter;stroke-miterlimit:4;stroke-dasharray:none;stroke-opacity:1"
             id="path5820"
             inkscape:connector-curvature="0" /></g><g
           id="g5822"
           transform="translate(135.7012,72.2268)"><path
             d="M 0,0 C 0.042,-0.024 0.085,-0.049 0.121,-0.065"
             style="fill:none;stroke:#231f20;stroke-width:0.25;stroke-linecap:round;stroke-linejoin:miter;stroke-miterlimit:4;stroke-dasharray:none;stroke-opacity:1"
             id="path5824"
             inkscape:connector-curvature="0" /></g><g
           id="g5826"
           transform="translate(144.3467,86.9261)"><path
             d="m 0,0 c -0.041,0.024 -0.083,0.051 -0.119,0.072 -2.356,1.359 -6.173,-0.844 -8.527,-4.924 -2.354,-4.08 -2.354,-8.488 0,-9.847"
             style="fill:none;stroke:#231f20;stroke-width:0.25;stroke-linecap:round;stroke-linejoin:miter;stroke-miterlimit:4;stroke-dasharray:none;stroke-opacity:1"
             id="path5828"
             inkscape:connector-curvature="0" /></g><g
           id="g5830"
           transform="translate(145.8291,86.51)"><path
             d="m 0,0 c -2.459,1.421 -6.446,-0.881 -8.905,-5.141 -2.461,-4.259 -2.461,-8.865 0,-10.285"
             style="fill:none;stroke:#231f20;stroke-width:0.85000002;stroke-linecap:round;stroke-linejoin:miter;stroke-miterlimit:4;stroke-dasharray:none;stroke-opacity:1"
             id="path5832"
             inkscape:connector-curvature="0" /></g><g
           id="g5834"
           transform="translate(139.9043,69.3616)"><path
             d="M 0,0 C 0.478,-0.275 1.009,-0.411 1.538,-0.416"
             style="fill:none;stroke:#231f20;stroke-width:0.85000002;stroke-linecap:round;stroke-linejoin:miter;stroke-miterlimit:4;stroke-dasharray:none;stroke-opacity:1"
             id="path5836"
             inkscape:connector-curvature="0" /></g><g
           id="g5838"
           transform="translate(149.9414,83.6643)"><path
             d="M 0,0 C -0.313,0.511 -0.707,0.891 -1.131,1.125"
             style="fill:none;stroke:#231f20;stroke-width:0.85000002;stroke-linecap:round;stroke-linejoin:miter;stroke-miterlimit:4;stroke-dasharray:none;stroke-opacity:1"
             id="path5840"
             inkscape:connector-curvature="0" /></g><g
           id="g5842"
           transform="translate(148.8105,84.7893)"><path
             d="m 0,0 c -2.458,1.421 -6.446,-0.882 -8.906,-5.142 -2.459,-4.26 -2.459,-8.865 0,-10.286"
             style="fill:none;stroke:#231f20;stroke-width:0.25;stroke-linecap:round;stroke-linejoin:miter;stroke-miterlimit:4;stroke-dasharray:none;stroke-opacity:1"
             id="path5844"
             inkscape:connector-curvature="0" /></g><g
           id="g5846"
           transform="translate(139.9043,69.3616)"><path
             d="M 0,0 -2.98,1.723"
             style="fill:none;stroke:#231f20;stroke-width:0.85000002;stroke-linecap:round;stroke-linejoin:miter;stroke-miterlimit:4;stroke-dasharray:none;stroke-opacity:1"
             id="path5848"
             inkscape:connector-curvature="0" /></g><g
           id="g5850"
           transform="translate(148.8105,84.7893)"><path
             d="M 0,0 -2.981,1.721"
             style="fill:none;stroke:#231f20;stroke-width:0.85000002;stroke-linecap:round;stroke-linejoin:miter;stroke-miterlimit:4;stroke-dasharray:none;stroke-opacity:1"
             id="path5852"
             inkscape:connector-curvature="0" /></g><g
           id="g5854"
           transform="translate(140.7207,70.4768)"><path
             d="M 0,0 C 0.061,-0.036 0.125,-0.069 0.18,-0.094"
             style="fill:none;stroke:#231f20;stroke-width:0.25;stroke-linecap:round;stroke-linejoin:miter;stroke-miterlimit:4;stroke-dasharray:none;stroke-opacity:1"
             id="path5856"
             inkscape:connector-curvature="0" /></g><g
           id="g5858"
           transform="translate(148.4248,83.4173)"><path
             d="m 0,0 c -0.059,0.04 -0.118,0.078 -0.172,0.109 -2.079,1.201 -5.452,-0.748 -7.532,-4.35 -2.081,-3.605 -2.081,-7.499 0,-8.699"
             style="fill:none;stroke:#231f20;stroke-width:0.25;stroke-linecap:round;stroke-linejoin:miter;stroke-miterlimit:4;stroke-dasharray:none;stroke-opacity:1"
             id="path5860"
             inkscape:connector-curvature="0" /></g><g
           id="g5862"
           transform="translate(151.5351,83.2473)"><path
             d="m 0,0 c -2.467,1.424 -6.467,-0.886 -8.933,-5.158 -2.465,-4.274 -2.465,-8.89 0,-10.315"
             style="fill:none;stroke:#231f20;stroke-width:0.85000002;stroke-linecap:round;stroke-linejoin:miter;stroke-miterlimit:4;stroke-dasharray:none;stroke-opacity:1"
             id="path5864"
             inkscape:connector-curvature="0" /></g><g
           id="g5866"
           transform="translate(146.208,65.7141)"><path
             d="m 0,0 c 2.466,-1.425 6.466,0.885 8.933,5.158 2.467,4.272 2.467,8.89 0,10.315"
             style="fill:none;stroke:#231f20;stroke-width:0.85000002;stroke-linecap:round;stroke-linejoin:miter;stroke-miterlimit:4;stroke-dasharray:none;stroke-opacity:1"
             id="path5868"
             inkscape:connector-curvature="0" /></g><g
           id="g5870"
           transform="translate(155.1406,81.1868)"><path
             d="m 0,0 c -2.467,1.424 -6.466,-0.885 -8.933,-5.158 -2.467,-4.272 -2.467,-8.891 0,-10.315"
             style="fill:none;stroke:#231f20;stroke-width:0.25;stroke-linecap:round;stroke-linejoin:miter;stroke-miterlimit:4;stroke-dasharray:none;stroke-opacity:1"
             id="path5872"
             inkscape:connector-curvature="0" /></g><g
           id="g5874"
           transform="translate(146.208,65.7141)"><path
             d="M 0,0 -3.605,2.061"
             style="fill:none;stroke:#231f20;stroke-width:0.85000002;stroke-linecap:round;stroke-linejoin:miter;stroke-miterlimit:4;stroke-dasharray:none;stroke-opacity:1"
             id="path5876"
             inkscape:connector-curvature="0" /></g><g
           id="g5878"
           transform="translate(155.1406,81.1868)"><path
             d="M 0,0 -3.604,2.061"
             style="fill:none;stroke:#231f20;stroke-width:0.85000002;stroke-linecap:round;stroke-linejoin:miter;stroke-miterlimit:4;stroke-dasharray:none;stroke-opacity:1"
             id="path5880"
             inkscape:connector-curvature="0" /></g><g
           id="g5882"
           transform="translate(147.001,66.22)"><path
             d="M 0,0 C 1.119,-0.646 2.583,-0.443 4.049,0.402"
             style="fill:none;stroke:#231f20;stroke-width:0.25;stroke-linecap:round;stroke-linejoin:miter;stroke-miterlimit:4;stroke-dasharray:none;stroke-opacity:1"
             id="path5884"
             inkscape:connector-curvature="0" /></g><g
           id="g5886"
           transform="translate(156.7754,76.5374)"><path
             d="m 0,0 c 0,1.827 -0.641,3.111 -1.677,3.708 -1.117,0.645 -2.584,0.445 -4.049,-0.4"
             style="fill:none;stroke:#231f20;stroke-width:0.25;stroke-linecap:round;stroke-linejoin:miter;stroke-miterlimit:4;stroke-dasharray:none;stroke-opacity:1"
             id="path5888"
             inkscape:connector-curvature="0" /></g><g
           id="g5890"
           transform="translate(145.3242,69.927)"><path
             d="M 0,0 C 0,-1.825 0.642,-3.107 1.677,-3.707"
             style="fill:none;stroke:#231f20;stroke-width:0.25;stroke-linecap:round;stroke-linejoin:miter;stroke-miterlimit:4;stroke-dasharray:none;stroke-opacity:1"
             id="path5892"
             inkscape:connector-curvature="0" /></g><g
           id="g5894"
           transform="translate(148.2158,68.3245)"><path
             d="M 0,0 C 0.783,-0.451 1.81,-0.312 2.834,0.28"
             style="fill:none;stroke:#231f20;stroke-width:0.25;stroke-linecap:round;stroke-linejoin:miter;stroke-miterlimit:4;stroke-dasharray:none;stroke-opacity:1"
             id="path5896"
             inkscape:connector-curvature="0" /></g><g
           id="g5898"
           transform="translate(155.0586,75.5471)"><path
             d="m 0,0 c 0,1.278 -0.45,2.177 -1.175,2.595 -1.565,0.904 -4.102,-0.561 -5.668,-3.273 -1.565,-2.712 -1.565,-5.64 0,-6.545"
             style="fill:none;stroke:#231f20;stroke-width:0.25;stroke-linecap:round;stroke-linejoin:miter;stroke-miterlimit:4;stroke-dasharray:none;stroke-opacity:1"
             id="path5900"
             inkscape:connector-curvature="0" /></g><g
           id="g5902"
           transform="translate(148.2871,69.762)"><path
             d="m 0,0 c 1.213,-0.7 3.177,0.434 4.389,2.533 1.212,2.099 1.212,4.367 0,5.066"
             style="fill:none;stroke:#231f20;stroke-width:0.25;stroke-linecap:round;stroke-linejoin:miter;stroke-miterlimit:4;stroke-dasharray:none;stroke-opacity:1"
             id="path5904"
             inkscape:connector-curvature="0" /></g><g
           id="g5906"
           transform="translate(152.6758,77.3606)"><path
             d="m 0,0 c -1.212,0.701 -3.176,-0.434 -4.389,-2.533 -1.21,-2.098 -1.21,-4.367 0,-5.066"
             style="fill:none;stroke:#231f20;stroke-width:0.85000002;stroke-linecap:round;stroke-linejoin:miter;stroke-miterlimit:4;stroke-dasharray:none;stroke-opacity:1"
             id="path5908"
             inkscape:connector-curvature="0" /></g></g></g><g
       id="g5910"><g
         id="g5912"
         clip-path="url(#clipPath5914)"><g
           id="g5918"
           transform="translate(57.8481,105.6516)"><path
             d="m 0,0 c 5.16,-2.982 13.464,1.737 18.538,10.532 5.079,8.8 5.015,18.348 -0.147,21.326 C 13.233,34.834 4.937,30.117 -0.145,21.32 -5.224,12.527 -5.159,2.978 0,0"
             style="fill:none;stroke:#231f20;stroke-width:0.69800001;stroke-linecap:round;stroke-linejoin:miter;stroke-miterlimit:4;stroke-dasharray:none;stroke-opacity:1"
             id="path5920"
             inkscape:connector-curvature="0" /></g><g
           id="g5922"
           transform="translate(59.9375,107.866)"><path
             d="M 0,0 C 0.35,-0.208 0.722,-0.364 1.062,-0.469"
             style="fill:none;stroke:#231f20;stroke-width:0.69800001;stroke-linecap:round;stroke-linejoin:miter;stroke-miterlimit:4;stroke-dasharray:none;stroke-opacity:1"
             id="path5924"
             inkscape:connector-curvature="0" /></g><g
           id="g5926"
           transform="translate(76.1602,134.0374)"><path
             d="m 0,0 c -0.263,0.22 -0.536,0.414 -0.793,0.554 -4.324,2.501 -11.29,-1.456 -15.552,-8.837 -4.262,-7.382 -4.207,-15.393 0.122,-17.888"
             style="fill:none;stroke:#231f20;stroke-width:0.69800001;stroke-linecap:round;stroke-linejoin:miter;stroke-miterlimit:4;stroke-dasharray:none;stroke-opacity:1"
             id="path5928"
             inkscape:connector-curvature="0" /></g><g
           id="g5930"
           transform="translate(59.3242,108.2796)"><path
             d="m 0,0 c 4.418,-1.789 10.88,2.248 14.889,9.161 4.036,6.998 4.198,14.561 0.49,17.475"
             style="fill:none;stroke:#231f20;stroke-width:0.69800001;stroke-linecap:round;stroke-linejoin:miter;stroke-miterlimit:4;stroke-dasharray:none;stroke-opacity:1"
             id="path5932"
             inkscape:connector-curvature="0" /></g><g
           id="g5934"
           transform="translate(161.2744,53.4964)"><path
             d="M 0,0 C 3.242,-1.872 8.462,1.092 11.65,6.618 14.843,12.149 14.803,18.147 11.559,20.02 8.316,21.891 3.103,18.926 -0.091,13.4 -3.284,7.87 -3.241,1.872 0,0"
             style="fill:none;stroke:#231f20;stroke-width:0.75;stroke-linecap:round;stroke-linejoin:miter;stroke-miterlimit:4;stroke-dasharray:none;stroke-opacity:1"
             id="path5936"
             inkscape:connector-curvature="0" /></g><g
           id="g5938"
           transform="translate(162.5879,54.886)"><path
             d="M 0,0 C 0.22,-0.128 0.452,-0.229 0.666,-0.292"
             style="fill:none;stroke:#231f20;stroke-width:1.08200002;stroke-linecap:round;stroke-linejoin:miter;stroke-miterlimit:4;stroke-dasharray:none;stroke-opacity:1"
             id="path5940"
             inkscape:connector-curvature="0" /></g><g
           id="g5942"
           transform="translate(172.7832,71.3333)"><path
             d="m 0,0 c -0.164,0.141 -0.338,0.261 -0.497,0.351 -2.721,1.572 -7.097,-0.914 -9.776,-5.555 -2.679,-4.638 -2.643,-9.672 0.078,-11.243"
             style="fill:none;stroke:#231f20;stroke-width:0.75;stroke-linecap:round;stroke-linejoin:miter;stroke-miterlimit:4;stroke-dasharray:none;stroke-opacity:1"
             id="path5944"
             inkscape:connector-curvature="0" /></g><g
           id="g5946"
           transform="translate(162.2021,55.1477)"><path
             d="m 0,0 c 2.778,-1.128 6.838,1.412 9.356,5.759 2.54,4.398 2.64,9.149 0.309,10.982"
             style="fill:none;stroke:#231f20;stroke-width:0.75;stroke-linecap:round;stroke-linejoin:miter;stroke-miterlimit:4;stroke-dasharray:none;stroke-opacity:1"
             id="path5948"
             inkscape:connector-curvature="0" /></g></g></g><g
       id="g5950"
       transform="translate(159.9726,126.6263)"><path
         d="M 0,0 -42.666,-20.667"
         style="fill:none;stroke:#ffffff;stroke-width:3;stroke-linecap:round;stroke-linejoin:miter;stroke-miterlimit:4;stroke-dasharray:none;stroke-opacity:1"
         id="path5952"
         inkscape:connector-curvature="0" /></g><g
       id="g5954"
       transform="translate(117.3062,105.9597)"><path
         d="M 0,0 0,0"
         style="fill:none;stroke:#ffffff;stroke-width:3.75;stroke-linecap:round;stroke-linejoin:miter;stroke-miterlimit:4;stroke-dasharray:none;stroke-opacity:1"
         id="path5956"
         inkscape:connector-curvature="0" /></g><g
       id="g5958"
       transform="translate(117.3062,105.9597)"><path
         d="M 0,0 0,0"
         style="fill:none;stroke:#231f20;stroke-width:1.5;stroke-linecap:round;stroke-linejoin:miter;stroke-miterlimit:4;stroke-dasharray:none;stroke-opacity:1"
         id="path5960"
         inkscape:connector-curvature="0" /></g><g
       id="g5962"
       transform="translate(35.9727,76.6263)"><path
         d="M 0,0 20,33"
         style="fill:none;stroke:#ffffff;stroke-width:3;stroke-linecap:round;stroke-linejoin:miter;stroke-miterlimit:4;stroke-dasharray:none;stroke-opacity:1"
         id="path5964"
         inkscape:connector-curvature="0" /></g><g
       id="g5966"
       transform="translate(55.9727,109.6263)"><path
         d="M 0,0 0,0"
         style="fill:none;stroke:#ffffff;stroke-width:3.75;stroke-linecap:round;stroke-linejoin:miter;stroke-miterlimit:4;stroke-dasharray:none;stroke-opacity:1"
         id="path5968"
         inkscape:connector-curvature="0" /></g><g
       id="g5970"
       transform="translate(36.3062,76.6263)"><path
         d="M 0,0 19.667,33"
         style="fill:none;stroke:#231f20;stroke-width:0.5;stroke-linecap:round;stroke-linejoin:miter;stroke-miterlimit:4;stroke-dasharray:none;stroke-opacity:1"
         id="path5972"
         inkscape:connector-curvature="0" /></g><g
       id="g5974"
       transform="translate(55.9727,109.6263)"><path
         d="M 0,0 0,0"
         style="fill:none;stroke:#231f20;stroke-width:1.5;stroke-linecap:round;stroke-linejoin:miter;stroke-miterlimit:4;stroke-dasharray:none;stroke-opacity:1"
         id="path5976"
         inkscape:connector-curvature="0" /></g><g
       id="g5978"
       transform="translate(159.9726,126.6263)"><path
         d="M 0,0 -42.666,-20.667"
         style="fill:none;stroke:#231f20;stroke-width:0.5;stroke-linecap:round;stroke-linejoin:miter;stroke-miterlimit:4;stroke-dasharray:none;stroke-opacity:1"
         id="path5980"
         inkscape:connector-curvature="0" /></g><text
       transform="matrix(1,0,0,-1,29.4482,69.5098)"
       style="font-variant:normal;font-weight:bold;font-stretch:normal;font-size:10px;font-family:'Swiss 721 SWA';-inkscape-font-specification:Helvetica-Bold;writing-mode:lr-tb;fill:#231f20;fill-opacity:1;fill-rule:nonzero;stroke:none"
       id="text5982"><tspan
         x="0"
         y="0"
         id="tspan5984">1</tspan></text>
<g
       id="g5986"
       transform="translate(213.7695,77.8987)"><path
         d="M 0,0 -40,-6"
         style="fill:none;stroke:#ffffff;stroke-width:3;stroke-linecap:round;stroke-linejoin:miter;stroke-miterlimit:4;stroke-dasharray:none;stroke-opacity:1"
         id="path5988"
         inkscape:connector-curvature="0" /></g><g
       id="g5990"
       transform="translate(173.7695,71.8987)"><path
         d="M 0,0 0,0"
         style="fill:none;stroke:#ffffff;stroke-width:3.75;stroke-linecap:round;stroke-linejoin:miter;stroke-miterlimit:4;stroke-dasharray:none;stroke-opacity:1"
         id="path5992"
         inkscape:connector-curvature="0" /></g><g
       id="g5994"
       transform="translate(213.7695,77.8987)"><path
         d="M 0,0 -40,-6"
         style="fill:none;stroke:#231f20;stroke-width:0.5;stroke-linecap:round;stroke-linejoin:miter;stroke-miterlimit:4;stroke-dasharray:none;stroke-opacity:1"
         id="path5996"
         inkscape:connector-curvature="0" /></g><g
       id="g5998"
       transform="translate(173.7695,71.8987)"><path
         d="M 0,0 0,0"
         style="fill:none;stroke:#231f20;stroke-width:1.5;stroke-linecap:round;stroke-linejoin:miter;stroke-miterlimit:4;stroke-dasharray:none;stroke-opacity:1"
         id="path6000"
         inkscape:connector-curvature="0" /></g><text
       transform="matrix(1,0,0,-1,216.9551,76.6084)"
       style="font-variant:normal;font-weight:bold;font-stretch:normal;font-size:10px;font-family:'Swiss 721 SWA';-inkscape-font-specification:Helvetica-Bold;writing-mode:lr-tb;fill:#231f20;fill-opacity:1;fill-rule:nonzero;stroke:none"
       id="text6002"><tspan
         x="0"
         y="0"
         id="tspan6004">2</tspan><tspan
         x="-53.75"
         y="-48.779999"
         id="tspan6006">3</tspan></text>
<text
       transform="matrix(1,0,0,-1,7.1079,4.2588)"
       style="font-variant:normal;font-weight:normal;font-stretch:normal;font-size:5px;font-family:'Swiss 721 SWA';-inkscape-font-specification:Helvetica;writing-mode:lr-tb;fill:#231f20;fill-opacity:1;fill-rule:nonzero;stroke:none"
       id="text6008"><tspan
         x="0 3.335 6.1149998 8.8950005 11.675 14.455 17.235001 20.014999"
         y="0"
         sodipodi:role="line"
         id="tspan6010">B00016_2</tspan></text>
</g></svg>