<?xml version="1.0" encoding="UTF-8" standalone="no"?>
<!-- Created with Inkscape (http://www.inkscape.org/) -->

<svg
   xmlns:dc="http://purl.org/dc/elements/1.1/"
   xmlns:cc="http://creativecommons.org/ns#"
   xmlns:rdf="http://www.w3.org/1999/02/22-rdf-syntax-ns#"
   xmlns:svg="http://www.w3.org/2000/svg"
   xmlns="http://www.w3.org/2000/svg"
   xmlns:sodipodi="http://sodipodi.sourceforge.net/DTD/sodipodi-0.dtd"
   xmlns:inkscape="http://www.inkscape.org/namespaces/inkscape"
   id="svg2"
   version="1.1"
   inkscape:version="0.91 r13725"
   xml:space="preserve"
   width="744.09375"
   height="1052.3625"
   viewBox="0 0 744.09375 1052.3625"
   sodipodi:docname="Gear position DF4 DG4.svg"><metadata
     id="metadata8"><rdf:RDF><cc:Work
         rdf:about=""><dc:format>image/svg+xml</dc:format><dc:type
           rdf:resource="http://purl.org/dc/dcmitype/StillImage" /><dc:title></dc:title></cc:Work></rdf:RDF></metadata><defs
     id="defs6"><clipPath
       clipPathUnits="userSpaceOnUse"
       id="clipPath114"><path
         d="m 0,841.89 595.275,0 L 595.275,0 0,0 0,841.89 Z"
         id="path116"
         inkscape:connector-curvature="0" /></clipPath><clipPath
       clipPathUnits="userSpaceOnUse"
       id="clipPath464"><path
         d="m 0,841.89 595.275,0 L 595.275,0 0,0 0,841.89 Z"
         id="path466"
         inkscape:connector-curvature="0" /></clipPath></defs><sodipodi:namedview
     pagecolor="#ffffff"
     bordercolor="#666666"
     borderopacity="1"
     objecttolerance="10"
     gridtolerance="10"
     guidetolerance="10"
     inkscape:pageopacity="0"
     inkscape:pageshadow="2"
     inkscape:window-width="640"
     inkscape:window-height="480"
     id="namedview4"
     showgrid="false"
     inkscape:zoom="0.22425732"
     inkscape:cx="372.04687"
     inkscape:cy="526.18127"
     inkscape:window-x="0"
     inkscape:window-y="0"
     inkscape:window-maximized="0"
     inkscape:current-layer="g10" /><g
     id="g10"
     inkscape:groupmode="layer"
     inkscape:label="Gear position DF4 DG4"
     transform="matrix(1.25,0,0,-1.25,0,1052.3625)"><text
       transform="matrix(0.8,0,0,-1,349.1826,426.5879)"
       style="font-variant:normal;font-weight:bold;font-stretch:normal;font-size:7px;font-family:Helvetica;-inkscape-font-specification:Helvetica-Bold;writing-mode:lr-tb;fill:#292929;fill-opacity:1;fill-rule:nonzero;stroke:none"
       id="text12"><tspan
         x="0 5.0539999 8.9460001"
         y="0"
         sodipodi:role="line"
         id="tspan14">B30</tspan><tspan
         x="0 5.0539999 8.9460001"
         y="28.504"
         sodipodi:role="line"
         id="tspan16">B18</tspan><tspan
         x="0 5.0539999 8.9460001"
         y="43.007999"
         sodipodi:role="line"
         id="tspan18">B23</tspan><tspan
         x="-134.37199"
         y="12.971"
         id="tspan20">2</tspan><tspan
         x="-134.02901"
         y="28.573999"
         id="tspan22">3</tspan><tspan
         x="-134.37199"
         y="-0.252"
         id="tspan24">1</tspan><tspan
         x="-70.699997 -65.646004"
         y="0.014"
         sodipodi:role="line"
         id="tspan26">BK</tspan><tspan
         x="-70.889 -65.834999"
         y="42.693001"
         sodipodi:role="line"
         id="tspan28">KB</tspan><tspan
         x="-70.699997 -68.753998"
         y="28.49"
         sodipodi:role="line"
         id="tspan30"> K</tspan></text>
<g
       id="g32"
       transform="translate(346.9062,372.2871)"><path
         d="M 0,0 27.08,0"
         style="fill:none;stroke:#292929;stroke-width:0.70899999;stroke-linecap:round;stroke-linejoin:round;stroke-miterlimit:500;stroke-dasharray:none;stroke-opacity:1"
         id="path34"
         inkscape:connector-curvature="0" /></g><g
       id="g36"
       transform="translate(247.3877,379.3575)"><path
         d="M 0,0 -27.079,0"
         style="fill:none;stroke:#292929;stroke-width:0.70899999;stroke-linecap:round;stroke-linejoin:round;stroke-miterlimit:500;stroke-dasharray:none;stroke-opacity:1"
         id="path38"
         inkscape:connector-curvature="0" /></g><g
       id="g40"
       transform="translate(346.9062,386.4092)"><path
         d="M 0,0 -44.353,0"
         style="fill:none;stroke:#292929;stroke-width:0.70899999;stroke-linecap:round;stroke-linejoin:round;stroke-miterlimit:500;stroke-dasharray:none;stroke-opacity:1"
         id="path42"
         inkscape:connector-curvature="0" /></g><g
       id="g44"
       transform="translate(247.3877,386.4092)"><path
         d="M 0,0 43.354,0"
         style="fill:none;stroke:#292929;stroke-width:0.70899999;stroke-linecap:round;stroke-linejoin:round;stroke-miterlimit:500;stroke-dasharray:none;stroke-opacity:1"
         id="path46"
         inkscape:connector-curvature="0" /></g><g
       id="g48"
       transform="translate(346.9062,400.9131)"><path
         d="M 0,0 -44.353,0"
         style="fill:none;stroke:#292929;stroke-width:0.70899999;stroke-linecap:round;stroke-linejoin:round;stroke-miterlimit:500;stroke-dasharray:none;stroke-opacity:1"
         id="path50"
         inkscape:connector-curvature="0" /></g><g
       id="g52"
       transform="translate(247.3877,400.9131)"><path
         d="M 0,0 43.354,0"
         style="fill:none;stroke:#292929;stroke-width:0.70899999;stroke-linecap:round;stroke-linejoin:round;stroke-miterlimit:500;stroke-dasharray:none;stroke-opacity:1"
         id="path54"
         inkscape:connector-curvature="0" /></g><g
       id="g56"
       transform="translate(220.3086,438.4366)"><path
         d="M 0,0 27.079,0"
         style="fill:none;stroke:#292929;stroke-width:0.70899999;stroke-linecap:round;stroke-linejoin:round;stroke-miterlimit:500;stroke-dasharray:none;stroke-opacity:1"
         id="path58"
         inkscape:connector-curvature="0" /></g><g
       id="g60"
       transform="translate(373.9863,442.5396)"><path
         d="M 0,0 -27.08,0"
         style="fill:none;stroke:#292929;stroke-width:0.70899999;stroke-linecap:round;stroke-linejoin:round;stroke-miterlimit:500;stroke-dasharray:none;stroke-opacity:1"
         id="path62"
         inkscape:connector-curvature="0" /></g><g
       id="g64"
       transform="translate(220.3086,379.3575)"><path
         d="M 0,0 0,59.079"
         style="fill:none;stroke:#292929;stroke-width:0.70899999;stroke-linecap:round;stroke-linejoin:round;stroke-miterlimit:500;stroke-dasharray:none;stroke-opacity:1"
         id="path66"
         inkscape:connector-curvature="0" /></g><g
       id="g68"
       transform="translate(239.3291,379.3575)"><path
         d="M 0,0 0,59.079"
         style="fill:none;stroke:#292929;stroke-width:0.70899999;stroke-linecap:round;stroke-linejoin:round;stroke-miterlimit:500;stroke-dasharray:none;stroke-opacity:1"
         id="path70"
         inkscape:connector-curvature="0" /></g><g
       id="g72"
       transform="translate(247.3877,438.4366)"><path
         d="M 0,0 0,-59.079"
         style="fill:none;stroke:#292929;stroke-width:0.70899999;stroke-linecap:round;stroke-linejoin:round;stroke-miterlimit:500;stroke-dasharray:none;stroke-opacity:1"
         id="path74"
         inkscape:connector-curvature="0" /></g><g
       id="g76"
       transform="translate(346.9062,442.5396)"><path
         d="M 0,0 0,-70.252"
         style="fill:none;stroke:#292929;stroke-width:0.70899999;stroke-linecap:round;stroke-linejoin:round;stroke-miterlimit:500;stroke-dasharray:none;stroke-opacity:1"
         id="path78"
         inkscape:connector-curvature="0" /></g><g
       id="g80"
       transform="translate(373.9863,442.5396)"><path
         d="M 0,0 0,-70.252"
         style="fill:none;stroke:#292929;stroke-width:0.70899999;stroke-linecap:round;stroke-linejoin:round;stroke-miterlimit:500;stroke-dasharray:none;stroke-opacity:1"
         id="path82"
         inkscape:connector-curvature="0" /></g><g
       id="g84"
       transform="translate(247.6812,429.3682)"><path
         d="M 0,0 43.354,0"
         style="fill:none;stroke:#292929;stroke-width:0.70899999;stroke-linecap:round;stroke-linejoin:round;stroke-miterlimit:500;stroke-dasharray:none;stroke-opacity:1"
         id="path86"
         inkscape:connector-curvature="0" /></g><g
       id="g88"
       transform="translate(346.9785,429.3999)"><path
         d="M 0,0 -44.353,0"
         style="fill:none;stroke:#292929;stroke-width:0.70899999;stroke-linecap:round;stroke-linejoin:round;stroke-miterlimit:500;stroke-dasharray:none;stroke-opacity:1"
         id="path90"
         inkscape:connector-curvature="0" /></g><text
       transform="matrix(0.8,0,0,-1,241.7192,383.9248)"
       style="font-variant:normal;font-weight:bold;font-stretch:normal;font-size:7px;font-family:Helvetica;-inkscape-font-specification:Helvetica-Bold;writing-mode:lr-tb;fill:#292929;fill-opacity:1;fill-rule:nonzero;stroke:none"
       id="text92"><tspan
         x="0"
         y="0"
         id="tspan94">4</tspan></text>
<text
       transform="matrix(1,0,0,-1,480.5,277.2012)"
       style="font-variant:normal;font-weight:bold;font-stretch:normal;font-size:7px;font-family:Helvetica;-inkscape-font-specification:Helvetica-Bold;writing-mode:lr-tb;fill:#292929;fill-opacity:1;fill-rule:nonzero;stroke:none"
       id="text96"><tspan
         x="0"
         y="0"
         id="tspan98">1</tspan><tspan
         x="-89.228996 -85.336998"
         y="0.34299999"
         sodipodi:role="line"
         id="tspan100">11</tspan><tspan
         x="-1.946 1.946"
         y="7.658"
         sodipodi:role="line"
         id="tspan102">12</tspan><tspan
         x="-89.228996 -85.336998"
         y="8.6029997"
         sodipodi:role="line"
         id="tspan104">22</tspan><tspan
         x="-1.946 1.946"
         y="15.057"
         sodipodi:role="line"
         id="tspan106">23</tspan><tspan
         x="-89.228996 -85.336998"
         y="16.457001"
         sodipodi:role="line"
         id="tspan108">33</tspan></text>
<g
       id="g110"><g
         id="g112"
         clip-path="url(#clipPath114)"><g
           id="g118"
           transform="translate(414.0146,278.961)"><path
             d="m 0,0 c 0,1.289 -1.039,2.328 -2.313,2.328 -1.289,0 -2.328,-1.039 -2.328,-2.328 0,-1.273 1.039,-2.313 2.328,-2.313 C -1.039,-2.313 0,-1.273 0,0 Z"
             style="fill:none;stroke:#373535;stroke-width:0.25;stroke-linecap:round;stroke-linejoin:round;stroke-miterlimit:10;stroke-dasharray:none;stroke-opacity:1"
             id="path120"
             inkscape:connector-curvature="0" /></g><g
           id="g122"
           transform="translate(419.6787,278.961)"><path
             d="m 0,0 c 0,1.289 -1.039,2.328 -2.32,2.328 -1.285,0 -2.328,-1.039 -2.328,-2.328 0,-1.273 1.043,-2.313 2.328,-2.313 1.281,0 2.32,1.04 2.32,2.313 z"
             style="fill:none;stroke:#373535;stroke-width:0.25;stroke-linecap:round;stroke-linejoin:round;stroke-miterlimit:10;stroke-dasharray:none;stroke-opacity:1"
             id="path124"
             inkscape:connector-curvature="0" /></g><g
           id="g126"
           transform="translate(425.335,278.961)"><path
             d="m 0,0 c 0,1.289 -1.039,2.328 -2.313,2.328 -1.289,0 -2.328,-1.039 -2.328,-2.328 0,-1.273 1.039,-2.313 2.328,-2.313 C -1.039,-2.313 0,-1.273 0,0 Z"
             style="fill:none;stroke:#373535;stroke-width:0.25;stroke-linecap:round;stroke-linejoin:round;stroke-miterlimit:10;stroke-dasharray:none;stroke-opacity:1"
             id="path128"
             inkscape:connector-curvature="0" /></g><g
           id="g130"
           transform="translate(430.999,278.961)"><path
             d="m 0,0 c 0,1.289 -1.039,2.328 -2.32,2.328 -1.285,0 -2.321,-1.039 -2.321,-2.328 0,-1.273 1.036,-2.313 2.321,-2.313 1.281,0 2.32,1.04 2.32,2.313 z"
             style="fill:none;stroke:#373535;stroke-width:0.25;stroke-linecap:round;stroke-linejoin:round;stroke-miterlimit:10;stroke-dasharray:none;stroke-opacity:1"
             id="path132"
             inkscape:connector-curvature="0" /></g><g
           id="g134"
           transform="translate(436.6553,278.961)"><path
             d="m 0,0 c 0,1.289 -1.035,2.328 -2.313,2.328 -1.289,0 -2.328,-1.039 -2.328,-2.328 0,-1.273 1.039,-2.313 2.328,-2.313 C -1.035,-2.313 0,-1.273 0,0 Z"
             style="fill:none;stroke:#373535;stroke-width:0.25;stroke-linecap:round;stroke-linejoin:round;stroke-miterlimit:10;stroke-dasharray:none;stroke-opacity:1"
             id="path136"
             inkscape:connector-curvature="0" /></g><g
           id="g138"
           transform="translate(442.3232,278.961)"><path
             d="m 0,0 c 0,1.289 -1.043,2.328 -2.316,2.328 -1.289,0 -2.329,-1.039 -2.329,-2.328 0,-1.273 1.04,-2.313 2.329,-2.313 C -1.043,-2.313 0,-1.273 0,0 Z"
             style="fill:none;stroke:#373535;stroke-width:0.25;stroke-linecap:round;stroke-linejoin:round;stroke-miterlimit:10;stroke-dasharray:none;stroke-opacity:1"
             id="path140"
             inkscape:connector-curvature="0" /></g><g
           id="g142"
           transform="translate(447.9834,278.961)"><path
             d="m 0,0 c 0,1.289 -1.043,2.328 -2.316,2.328 -1.289,0 -2.329,-1.039 -2.329,-2.328 0,-1.273 1.04,-2.313 2.329,-2.313 C -1.043,-2.313 0,-1.273 0,0 Z"
             style="fill:none;stroke:#373535;stroke-width:0.25;stroke-linecap:round;stroke-linejoin:round;stroke-miterlimit:10;stroke-dasharray:none;stroke-opacity:1"
             id="path144"
             inkscape:connector-curvature="0" /></g><g
           id="g146"
           transform="translate(453.6436,278.961)"><path
             d="m 0,0 c 0,1.289 -1.043,2.328 -2.316,2.328 -1.289,0 -2.329,-1.039 -2.329,-2.328 0,-1.273 1.04,-2.313 2.329,-2.313 C -1.043,-2.313 0,-1.273 0,0 Z"
             style="fill:none;stroke:#373535;stroke-width:0.25;stroke-linecap:round;stroke-linejoin:round;stroke-miterlimit:10;stroke-dasharray:none;stroke-opacity:1"
             id="path148"
             inkscape:connector-curvature="0" /></g><g
           id="g150"
           transform="translate(459.3037,278.961)"><path
             d="m 0,0 c 0,1.289 -1.043,2.328 -2.316,2.328 -1.289,0 -2.325,-1.039 -2.325,-2.328 0,-1.273 1.036,-2.313 2.325,-2.313 C -1.043,-2.313 0,-1.273 0,0 Z"
             style="fill:none;stroke:#373535;stroke-width:0.25;stroke-linecap:round;stroke-linejoin:round;stroke-miterlimit:10;stroke-dasharray:none;stroke-opacity:1"
             id="path152"
             inkscape:connector-curvature="0" /></g><g
           id="g154"
           transform="translate(464.96,278.961)"><path
             d="m 0,0 c 0,1.289 -1.035,2.328 -2.324,2.328 -1.278,0 -2.313,-1.039 -2.313,-2.328 0,-1.273 1.035,-2.313 2.313,-2.313 C -1.035,-2.313 0,-1.273 0,0 Z"
             style="fill:none;stroke:#373535;stroke-width:0.25;stroke-linecap:round;stroke-linejoin:round;stroke-miterlimit:10;stroke-dasharray:none;stroke-opacity:1"
             id="path156"
             inkscape:connector-curvature="0" /></g><g
           id="g158"
           transform="translate(470.6201,278.961)"><path
             d="m 0,0 c 0,1.289 -1.035,2.328 -2.324,2.328 -1.278,0 -2.313,-1.039 -2.313,-2.328 0,-1.273 1.035,-2.313 2.313,-2.313 C -1.035,-2.313 0,-1.273 0,0 Z"
             style="fill:none;stroke:#373535;stroke-width:0.25;stroke-linecap:round;stroke-linejoin:round;stroke-miterlimit:10;stroke-dasharray:none;stroke-opacity:1"
             id="path160"
             inkscape:connector-curvature="0" /></g><g
           id="g162"
           transform="translate(414.0146,271.8867)"><path
             d="m 0,0 c 0,1.289 -1.039,2.324 -2.313,2.324 -1.289,0 -2.328,-1.035 -2.328,-2.324 0,-1.283 1.039,-2.318 2.328,-2.318 C -1.039,-2.318 0,-1.283 0,0 Z"
             style="fill:none;stroke:#373535;stroke-width:0.25;stroke-linecap:round;stroke-linejoin:round;stroke-miterlimit:10;stroke-dasharray:none;stroke-opacity:1"
             id="path164"
             inkscape:connector-curvature="0" /></g><g
           id="g166"
           transform="translate(419.6787,271.8867)"><path
             d="m 0,0 c 0,1.289 -1.043,2.324 -2.32,2.324 -1.285,0 -2.328,-1.035 -2.328,-2.324 0,-1.283 1.043,-2.318 2.328,-2.318 C -1.043,-2.318 0,-1.283 0,0 Z"
             style="fill:none;stroke:#373535;stroke-width:0.25;stroke-linecap:round;stroke-linejoin:round;stroke-miterlimit:10;stroke-dasharray:none;stroke-opacity:1"
             id="path168"
             inkscape:connector-curvature="0" /></g><g
           id="g170"
           transform="translate(425.335,271.8867)"><path
             d="m 0,0 c 0,1.289 -1.039,2.324 -2.313,2.324 -1.289,0 -2.328,-1.035 -2.328,-2.324 0,-1.283 1.039,-2.318 2.328,-2.318 C -1.039,-2.318 0,-1.283 0,0 Z"
             style="fill:none;stroke:#373535;stroke-width:0.25;stroke-linecap:round;stroke-linejoin:round;stroke-miterlimit:10;stroke-dasharray:none;stroke-opacity:1"
             id="path172"
             inkscape:connector-curvature="0" /></g><g
           id="g174"
           transform="translate(430.999,271.8867)"><path
             d="m 0,0 c 0,1.289 -1.039,2.324 -2.32,2.324 -1.289,0 -2.321,-1.035 -2.321,-2.324 0,-1.283 1.032,-2.318 2.321,-2.318 C -1.039,-2.318 0,-1.283 0,0 Z"
             style="fill:none;stroke:#373535;stroke-width:0.25;stroke-linecap:round;stroke-linejoin:round;stroke-miterlimit:10;stroke-dasharray:none;stroke-opacity:1"
             id="path176"
             inkscape:connector-curvature="0" /></g><g
           id="g178"
           transform="translate(436.6553,271.8867)"><path
             d="m 0,0 c 0,1.289 -1.035,2.324 -2.313,2.324 -1.289,0 -2.328,-1.035 -2.328,-2.324 0,-1.283 1.039,-2.318 2.328,-2.318 C -1.035,-2.318 0,-1.283 0,0"
             style="fill:#97989b;fill-opacity:1;fill-rule:nonzero;stroke:none"
             id="path180"
             inkscape:connector-curvature="0" /></g><g
           id="g182"
           transform="translate(436.6553,271.8867)"><path
             d="m 0,0 c 0,1.289 -1.035,2.324 -2.313,2.324 -1.289,0 -2.328,-1.035 -2.328,-2.324 0,-1.283 1.039,-2.318 2.328,-2.318 C -1.035,-2.318 0,-1.283 0,0 Z"
             style="fill:none;stroke:#373535;stroke-width:0.25;stroke-linecap:round;stroke-linejoin:round;stroke-miterlimit:10;stroke-dasharray:none;stroke-opacity:1"
             id="path184"
             inkscape:connector-curvature="0" /></g><g
           id="g186"
           transform="translate(442.3232,271.8867)"><path
             d="m 0,0 c 0,1.289 -1.043,2.324 -2.316,2.324 -1.289,0 -2.329,-1.035 -2.329,-2.324 0,-1.283 1.04,-2.318 2.329,-2.318 C -1.043,-2.318 0,-1.283 0,0 Z"
             style="fill:none;stroke:#373535;stroke-width:0.25;stroke-linecap:round;stroke-linejoin:round;stroke-miterlimit:10;stroke-dasharray:none;stroke-opacity:1"
             id="path188"
             inkscape:connector-curvature="0" /></g><g
           id="g190"
           transform="translate(447.9795,271.8867)"><path
             d="m 0,0 c 0,1.289 -1.039,2.324 -2.313,2.324 -1.289,0 -2.328,-1.035 -2.328,-2.324 0,-1.283 1.039,-2.318 2.328,-2.318 C -1.039,-2.318 0,-1.283 0,0 Z"
             style="fill:none;stroke:#373535;stroke-width:0.25;stroke-linecap:round;stroke-linejoin:round;stroke-miterlimit:10;stroke-dasharray:none;stroke-opacity:1"
             id="path192"
             inkscape:connector-curvature="0" /></g><g
           id="g194"
           transform="translate(453.6396,271.8867)"><path
             d="m 0,0 c 0,1.289 -1.039,2.324 -2.316,2.324 -1.286,0 -2.325,-1.035 -2.325,-2.324 0,-1.283 1.039,-2.318 2.325,-2.318 C -1.039,-2.318 0,-1.283 0,0 Z"
             style="fill:none;stroke:#373535;stroke-width:0.25;stroke-linecap:round;stroke-linejoin:round;stroke-miterlimit:10;stroke-dasharray:none;stroke-opacity:1"
             id="path196"
             inkscape:connector-curvature="0" /></g><g
           id="g198"
           transform="translate(459.2998,271.8867)"><path
             d="m 0,0 c 0,1.289 -1.039,2.324 -2.316,2.324 -1.286,0 -2.325,-1.035 -2.325,-2.324 0,-1.283 1.039,-2.318 2.325,-2.318 C -1.039,-2.318 0,-1.283 0,0 Z"
             style="fill:none;stroke:#373535;stroke-width:0.25;stroke-linecap:round;stroke-linejoin:round;stroke-miterlimit:10;stroke-dasharray:none;stroke-opacity:1"
             id="path200"
             inkscape:connector-curvature="0" /></g><g
           id="g202"
           transform="translate(464.96,271.8867)"><path
             d="m 0,0 c 0,1.289 -1.035,2.324 -2.324,2.324 -1.278,0 -2.317,-1.035 -2.317,-2.324 0,-1.283 1.039,-2.318 2.317,-2.318 C -1.035,-2.318 0,-1.283 0,0 Z"
             style="fill:none;stroke:#373535;stroke-width:0.25;stroke-linecap:round;stroke-linejoin:round;stroke-miterlimit:10;stroke-dasharray:none;stroke-opacity:1"
             id="path204"
             inkscape:connector-curvature="0" /></g><g
           id="g206"
           transform="translate(470.6201,271.8867)"><path
             d="m 0,0 c 0,1.289 -1.035,2.324 -2.324,2.324 -1.278,0 -2.317,-1.035 -2.317,-2.324 0,-1.283 1.039,-2.318 2.317,-2.318 C -1.035,-2.318 0,-1.283 0,0 Z"
             style="fill:none;stroke:#373535;stroke-width:0.25;stroke-linecap:round;stroke-linejoin:round;stroke-miterlimit:10;stroke-dasharray:none;stroke-opacity:1"
             id="path208"
             inkscape:connector-curvature="0" /></g><g
           id="g210"
           transform="translate(414.0146,264.8184)"><path
             d="m 0,0 c 0,1.273 -1.039,2.313 -2.313,2.313 -1.289,0 -2.328,-1.04 -2.328,-2.313 0,-1.289 1.039,-2.328 2.328,-2.328 C -1.039,-2.328 0,-1.289 0,0 Z"
             style="fill:none;stroke:#373535;stroke-width:0.25;stroke-linecap:round;stroke-linejoin:round;stroke-miterlimit:10;stroke-dasharray:none;stroke-opacity:1"
             id="path212"
             inkscape:connector-curvature="0" /></g><g
           id="g214"
           transform="translate(419.6787,264.8184)"><path
             d="m 0,0 c 0,1.273 -1.043,2.313 -2.32,2.313 -1.289,0 -2.328,-1.04 -2.328,-2.313 0,-1.289 1.039,-2.328 2.328,-2.328 C -1.043,-2.328 0,-1.289 0,0 Z"
             style="fill:none;stroke:#373535;stroke-width:0.25;stroke-linecap:round;stroke-linejoin:round;stroke-miterlimit:10;stroke-dasharray:none;stroke-opacity:1"
             id="path216"
             inkscape:connector-curvature="0" /></g><g
           id="g218"
           transform="translate(425.335,264.8184)"><path
             d="m 0,0 c 0,1.273 -1.039,2.313 -2.313,2.313 -1.289,0 -2.328,-1.04 -2.328,-2.313 0,-1.289 1.039,-2.328 2.328,-2.328 C -1.039,-2.328 0,-1.289 0,0 Z"
             style="fill:none;stroke:#373535;stroke-width:0.25;stroke-linecap:round;stroke-linejoin:round;stroke-miterlimit:10;stroke-dasharray:none;stroke-opacity:1"
             id="path220"
             inkscape:connector-curvature="0" /></g><g
           id="g222"
           transform="translate(430.9951,264.8184)"><path
             d="m 0,0 c 0,1.273 -1.035,2.313 -2.316,2.313 -1.289,0 -2.321,-1.04 -2.321,-2.313 0,-1.289 1.032,-2.328 2.321,-2.328 C -1.035,-2.328 0,-1.289 0,0"
             style="fill:#97989b;fill-opacity:1;fill-rule:nonzero;stroke:none"
             id="path224"
             inkscape:connector-curvature="0" /></g><g
           id="g226"
           transform="translate(430.9951,264.8184)"><path
             d="m 0,0 c 0,1.273 -1.035,2.313 -2.316,2.313 -1.289,0 -2.321,-1.04 -2.321,-2.313 0,-1.289 1.032,-2.328 2.321,-2.328 C -1.035,-2.328 0,-1.289 0,0 Z"
             style="fill:none;stroke:#373535;stroke-width:0.25;stroke-linecap:round;stroke-linejoin:round;stroke-miterlimit:10;stroke-dasharray:none;stroke-opacity:1"
             id="path228"
             inkscape:connector-curvature="0" /></g><g
           id="g230"
           transform="translate(436.6553,264.8184)"><path
             d="m 0,0 c 0,1.273 -1.035,2.313 -2.316,2.313 -1.286,0 -2.325,-1.04 -2.325,-2.313 0,-1.289 1.039,-2.328 2.325,-2.328 C -1.035,-2.328 0,-1.289 0,0 Z"
             style="fill:none;stroke:#373535;stroke-width:0.25;stroke-linecap:round;stroke-linejoin:round;stroke-miterlimit:10;stroke-dasharray:none;stroke-opacity:1"
             id="path232"
             inkscape:connector-curvature="0" /></g><g
           id="g234"
           transform="translate(442.3193,264.8184)"><path
             d="m 0,0 c 0,1.273 -1.039,2.313 -2.316,2.313 -1.286,0 -2.329,-1.04 -2.329,-2.313 0,-1.289 1.043,-2.328 2.329,-2.328 C -1.039,-2.328 0,-1.289 0,0 Z"
             style="fill:none;stroke:#373535;stroke-width:0.25;stroke-linecap:round;stroke-linejoin:round;stroke-miterlimit:10;stroke-dasharray:none;stroke-opacity:1"
             id="path236"
             inkscape:connector-curvature="0" /></g><g
           id="g238"
           transform="translate(447.9795,264.8184)"><path
             d="m 0,0 c 0,1.273 -1.039,2.313 -2.316,2.313 -1.286,0 -2.329,-1.04 -2.329,-2.313 0,-1.289 1.043,-2.328 2.329,-2.328 C -1.039,-2.328 0,-1.289 0,0 Z"
             style="fill:none;stroke:#373535;stroke-width:0.25;stroke-linecap:round;stroke-linejoin:round;stroke-miterlimit:10;stroke-dasharray:none;stroke-opacity:1"
             id="path240"
             inkscape:connector-curvature="0" /></g><g
           id="g242"
           transform="translate(453.6396,264.8184)"><path
             d="m 0,0 c 0,1.273 -1.039,2.313 -2.316,2.313 -1.286,0 -2.329,-1.04 -2.329,-2.313 0,-1.289 1.043,-2.328 2.329,-2.328 C -1.039,-2.328 0,-1.289 0,0 Z"
             style="fill:none;stroke:#373535;stroke-width:0.25;stroke-linecap:round;stroke-linejoin:round;stroke-miterlimit:10;stroke-dasharray:none;stroke-opacity:1"
             id="path244"
             inkscape:connector-curvature="0" /></g><g
           id="g246"
           transform="translate(459.2998,264.8184)"><path
             d="m 0,0 c 0,1.273 -1.039,2.313 -2.316,2.313 -1.286,0 -2.325,-1.04 -2.325,-2.313 0,-1.289 1.039,-2.328 2.325,-2.328 C -1.039,-2.328 0,-1.289 0,0 Z"
             style="fill:none;stroke:#373535;stroke-width:0.25;stroke-linecap:round;stroke-linejoin:round;stroke-miterlimit:10;stroke-dasharray:none;stroke-opacity:1"
             id="path248"
             inkscape:connector-curvature="0" /></g><g
           id="g250"
           transform="translate(464.96,264.8184)"><path
             d="m 0,0 c 0,1.273 -1.035,2.313 -2.324,2.313 -1.281,0 -2.317,-1.04 -2.317,-2.313 0,-1.289 1.036,-2.328 2.317,-2.328 C -1.035,-2.328 0,-1.289 0,0 Z"
             style="fill:none;stroke:#373535;stroke-width:0.25;stroke-linecap:round;stroke-linejoin:round;stroke-miterlimit:10;stroke-dasharray:none;stroke-opacity:1"
             id="path252"
             inkscape:connector-curvature="0" /></g><g
           id="g254"
           transform="translate(470.6201,264.8184)"><path
             d="m 0,0 c 0,1.273 -1.035,2.313 -2.324,2.313 -1.281,0 -2.317,-1.04 -2.317,-2.313 0,-1.289 1.036,-2.328 2.317,-2.328 C -1.035,-2.328 0,-1.289 0,0"
             style="fill:#97989b;fill-opacity:1;fill-rule:nonzero;stroke:none"
             id="path256"
             inkscape:connector-curvature="0" /></g><g
           id="g258"
           transform="translate(470.6201,264.8184)"><path
             d="m 0,0 c 0,1.273 -1.035,2.313 -2.324,2.313 -1.281,0 -2.317,-1.04 -2.317,-2.313 0,-1.289 1.036,-2.328 2.317,-2.328 C -1.035,-2.328 0,-1.289 0,0 Z"
             style="fill:none;stroke:#373535;stroke-width:0.25;stroke-linecap:round;stroke-linejoin:round;stroke-miterlimit:10;stroke-dasharray:none;stroke-opacity:1"
             id="path260"
             inkscape:connector-curvature="0" /></g><g
           id="g262"
           transform="translate(408.5225,283.086)"><path
             d="M 0,0 62.531,0.02"
             style="fill:none;stroke:#373535;stroke-width:0.25;stroke-linecap:round;stroke-linejoin:round;stroke-miterlimit:10;stroke-dasharray:none;stroke-opacity:1"
             id="path264"
             inkscape:connector-curvature="0" /></g><g
           id="g266"
           transform="translate(408.5225,259.0254)"><path
             d="M 0,0 62.531,0.02"
             style="fill:none;stroke:#373535;stroke-width:0.25;stroke-linecap:round;stroke-linejoin:round;stroke-miterlimit:10;stroke-dasharray:none;stroke-opacity:1"
             id="path268"
             inkscape:connector-curvature="0" /></g><g
           id="g270"
           transform="translate(406.04,280.3828)"><path
             d="M 0,0 0,-18.4"
             style="fill:none;stroke:#373535;stroke-width:0.25;stroke-linecap:round;stroke-linejoin:round;stroke-miterlimit:10;stroke-dasharray:none;stroke-opacity:1"
             id="path272"
             inkscape:connector-curvature="0" /></g><g
           id="g274"
           transform="translate(473.9561,280.3828)"><path
             d="M 0,0 0,-18.4"
             style="fill:none;stroke:#373535;stroke-width:0.25;stroke-linecap:round;stroke-linejoin:round;stroke-miterlimit:10;stroke-dasharray:none;stroke-opacity:1"
             id="path276"
             inkscape:connector-curvature="0" /></g><g
           id="g278"
           transform="translate(471.0537,283.1055)"><path
             d="m 0,0 0.238,0 c 2.11,-0.008 2.742,-0.254 2.664,-2.496 l 0,-0.227"
             style="fill:none;stroke:#373535;stroke-width:0.25;stroke-linecap:round;stroke-linejoin:round;stroke-miterlimit:10;stroke-dasharray:none;stroke-opacity:1"
             id="path280"
             inkscape:connector-curvature="0" /></g><g
           id="g282"
           transform="translate(406.04,280.3828)"><path
             d="M 0,0 0,0.227 C -0.016,2.18 0.227,2.758 2.275,2.703 l 0.207,0"
             style="fill:none;stroke:#373535;stroke-width:0.25;stroke-linecap:round;stroke-linejoin:round;stroke-miterlimit:10;stroke-dasharray:none;stroke-opacity:1"
             id="path284"
             inkscape:connector-curvature="0" /></g><g
           id="g286"
           transform="translate(406.04,261.9825)"><path
             d="m 0,0 0,-0.25 c 0.008,-1.996 0.078,-2.754 2.275,-2.707 l 0.207,0"
             style="fill:none;stroke:#373535;stroke-width:0.25;stroke-linecap:round;stroke-linejoin:round;stroke-miterlimit:10;stroke-dasharray:none;stroke-opacity:1"
             id="path288"
             inkscape:connector-curvature="0" /></g><g
           id="g290"
           transform="translate(471.0537,259.045)"><path
             d="m 0,0 0.238,0 c 2.293,-0.008 2.707,0.398 2.664,2.695 l 0,0.243"
             style="fill:none;stroke:#373535;stroke-width:0.25;stroke-linecap:round;stroke-linejoin:round;stroke-miterlimit:10;stroke-dasharray:none;stroke-opacity:1"
             id="path292"
             inkscape:connector-curvature="0" /></g><g
           id="g294"
           transform="translate(404.6221,280.3828)"><path
             d="M 0,0 0,-18.4"
             style="fill:none;stroke:#373535;stroke-width:0.5;stroke-linecap:round;stroke-linejoin:round;stroke-miterlimit:10;stroke-dasharray:none;stroke-opacity:1"
             id="path296"
             inkscape:connector-curvature="0" /></g><g
           id="g298"
           transform="translate(475.374,280.3828)"><path
             d="M 0,0 0,-18.4"
             style="fill:none;stroke:#373535;stroke-width:0.5;stroke-linecap:round;stroke-linejoin:round;stroke-miterlimit:10;stroke-dasharray:none;stroke-opacity:1"
             id="path300"
             inkscape:connector-curvature="0" /></g><g
           id="g302"
           transform="translate(408.5225,257.6153)"><path
             d="M 0,0 62.531,0.02"
             style="fill:none;stroke:#373535;stroke-width:0.5;stroke-linecap:round;stroke-linejoin:round;stroke-miterlimit:10;stroke-dasharray:none;stroke-opacity:1"
             id="path304"
             inkscape:connector-curvature="0" /></g><g
           id="g306"
           transform="translate(404.6221,261.9825)"><path
             d="m 0,0 0,-0.371 c 0.004,-3.063 0.254,-4.098 3.572,-3.996 l 0.328,0"
             style="fill:none;stroke:#373535;stroke-width:0.5;stroke-linecap:round;stroke-linejoin:round;stroke-miterlimit:10;stroke-dasharray:none;stroke-opacity:1"
             id="path308"
             inkscape:connector-curvature="0" /></g><g
           id="g310"
           transform="translate(471.0537,257.6348)"><path
             d="M 0,0 0.359,0 C 3.727,-0.059 4.371,0.613 4.32,3.977 l 0,0.371"
             style="fill:none;stroke:#373535;stroke-width:0.5;stroke-linecap:round;stroke-linejoin:round;stroke-miterlimit:10;stroke-dasharray:none;stroke-opacity:1"
             id="path312"
             inkscape:connector-curvature="0" /></g><g
           id="g314"
           transform="translate(408.5225,284.5078)"><path
             d="M 0,0 62.531,0.02"
             style="fill:none;stroke:#373535;stroke-width:0.5;stroke-linecap:round;stroke-linejoin:round;stroke-miterlimit:10;stroke-dasharray:none;stroke-opacity:1"
             id="path316"
             inkscape:connector-curvature="0" /></g><g
           id="g318"
           transform="translate(404.6182,280.3828)"><path
             d="m 0,0 0,0.348 c 0.008,3.074 0.387,3.804 3.576,3.777 l 0.328,0"
             style="fill:none;stroke:#373535;stroke-width:0.5;stroke-linecap:round;stroke-linejoin:round;stroke-miterlimit:10;stroke-dasharray:none;stroke-opacity:1"
             id="path320"
             inkscape:connector-curvature="0" /></g><g
           id="g322"
           transform="translate(471.0537,284.5274)"><path
             d="m 0,0 0.359,0.008 c 3.262,0.015 3.965,-0.469 3.957,-3.805 l 0,-0.348"
             style="fill:none;stroke:#373535;stroke-width:0.5;stroke-linecap:round;stroke-linejoin:round;stroke-miterlimit:10;stroke-dasharray:none;stroke-opacity:1"
             id="path324"
             inkscape:connector-curvature="0" /></g><g
           id="g326"
           transform="translate(406.8174,280.4024)"><path
             d="M 0,0 1.725,1.977"
             style="fill:none;stroke:#373535;stroke-width:0.25;stroke-linecap:round;stroke-linejoin:round;stroke-miterlimit:10;stroke-dasharray:none;stroke-opacity:1"
             id="path328"
             inkscape:connector-curvature="0" /></g><g
           id="g330"
           transform="translate(406.8174,280.4024)"><path
             d="M 0,0 -0.008,0.168 C -0.02,1.574 0.066,2.023 1.58,1.977 l 0.145,0"
             style="fill:none;stroke:#373535;stroke-width:0.25;stroke-linecap:round;stroke-linejoin:round;stroke-miterlimit:10;stroke-dasharray:none;stroke-opacity:1"
             id="path332"
             inkscape:connector-curvature="0" /></g><g
           id="g334"
           transform="translate(423.0459,284.5078)"><path
             d="M 0,0 0,3.363 0,3.352"
             style="fill:none;stroke:#373535;stroke-width:0.5;stroke-linecap:round;stroke-linejoin:round;stroke-miterlimit:10;stroke-dasharray:none;stroke-opacity:1"
             id="path336"
             inkscape:connector-curvature="0" /></g><g
           id="g338"
           transform="translate(457.0146,284.5078)"><path
             d="M 0,0 0,3.363 0,3.352"
             style="fill:none;stroke:#373535;stroke-width:0.5;stroke-linecap:round;stroke-linejoin:round;stroke-miterlimit:10;stroke-dasharray:none;stroke-opacity:1"
             id="path340"
             inkscape:connector-curvature="0" /></g><g
           id="g342"
           transform="translate(423.0459,287.8594)"><path
             d="M 0,0 33.969,0.012"
             style="fill:none;stroke:#373535;stroke-width:0.5;stroke-linecap:round;stroke-linejoin:round;stroke-miterlimit:10;stroke-dasharray:none;stroke-opacity:1"
             id="path344"
             inkscape:connector-curvature="0" /></g><path
           d="m 418.718,258.068 1.68,0 0,0.957 -1.68,0 0,-0.957 z"
           style="fill:none;stroke:#373535;stroke-width:0.25;stroke-linecap:round;stroke-linejoin:round;stroke-miterlimit:10;stroke-dasharray:none;stroke-opacity:1"
           id="path346"
           inkscape:connector-curvature="0" /><path
           d="m 459.761,258.068 1.668,0 0,0.957 -1.668,0 0,-0.957 z"
           style="fill:none;stroke:#373535;stroke-width:0.25;stroke-linecap:round;stroke-linejoin:round;stroke-miterlimit:10;stroke-dasharray:none;stroke-opacity:1"
           id="path348"
           inkscape:connector-curvature="0" /><path
           d="m 410.272,283.086 1.727,0 0,1.16 -1.727,0 0,-1.16 z"
           style="fill:none;stroke:#373535;stroke-width:0.25;stroke-linecap:round;stroke-linejoin:round;stroke-miterlimit:10;stroke-dasharray:none;stroke-opacity:1"
           id="path350"
           inkscape:connector-curvature="0" /><path
           d="m 468.276,283.105 1.734,0 0,1.141 -1.734,0 0,-1.141 z"
           style="fill:none;stroke:#373535;stroke-width:0.25;stroke-linecap:round;stroke-linejoin:round;stroke-miterlimit:10;stroke-dasharray:none;stroke-opacity:1"
           id="path352"
           inkscape:connector-curvature="0" /><g
           id="g354"
           transform="translate(360.4463,372.2871)"><path
             d="M 0,0 77.232,-84.416"
             style="fill:none;stroke:#373535;stroke-width:0.5;stroke-linecap:butt;stroke-linejoin:miter;stroke-miterlimit:4;stroke-dasharray:none;stroke-opacity:1"
             id="path356"
             inkscape:connector-curvature="0" /></g><g
           id="g358"
           transform="translate(178.4336,570.2462)"><path
             d="M 0,0 17.805,0"
             style="fill:none;stroke:#373535;stroke-width:0.5;stroke-linecap:round;stroke-linejoin:round;stroke-miterlimit:10;stroke-dasharray:none;stroke-opacity:1"
             id="path360"
             inkscape:connector-curvature="0" /></g><g
           id="g362"
           transform="translate(173.3437,575.3365)"><path
             d="M 0,0 0,15.953"
             style="fill:none;stroke:#373535;stroke-width:0.5;stroke-linecap:round;stroke-linejoin:round;stroke-miterlimit:10;stroke-dasharray:none;stroke-opacity:1"
             id="path364"
             inkscape:connector-curvature="0" /></g><g
           id="g366"
           transform="translate(175.8867,575.3365)"><path
             d="M 0,0 0,15.953"
             style="fill:none;stroke:#373535;stroke-width:0.25;stroke-linecap:round;stroke-linejoin:round;stroke-miterlimit:10;stroke-dasharray:none;stroke-opacity:1"
             id="path368"
             inkscape:connector-curvature="0" /></g><g
           id="g370"
           transform="translate(198.8008,575.3365)"><path
             d="M 0,0 0,15.953"
             style="fill:none;stroke:#373535;stroke-width:0.25;stroke-linecap:round;stroke-linejoin:round;stroke-miterlimit:10;stroke-dasharray:none;stroke-opacity:1"
             id="path372"
             inkscape:connector-curvature="0" /></g><g
           id="g374"
           transform="translate(201.3164,575.3365)"><path
             d="m 0,0 0,15.953 c 0,2.809 -2.277,5.086 -5.078,5.086"
             style="fill:none;stroke:#373535;stroke-width:0.5;stroke-linecap:round;stroke-linejoin:round;stroke-miterlimit:10;stroke-dasharray:none;stroke-opacity:1"
             id="path376"
             inkscape:connector-curvature="0" /></g><g
           id="g378"
           transform="translate(178.4336,596.3755)"><path
             d="M 0,0 C -2.805,0 -5.09,-2.277 -5.09,-5.086"
             style="fill:none;stroke:#373535;stroke-width:0.5;stroke-linecap:round;stroke-linejoin:round;stroke-miterlimit:10;stroke-dasharray:none;stroke-opacity:1"
             id="path380"
             inkscape:connector-curvature="0" /></g><g
           id="g382"
           transform="translate(173.3437,575.3365)"><path
             d="M 0,0 C 0,-2.813 2.285,-5.09 5.09,-5.09"
             style="fill:none;stroke:#373535;stroke-width:0.5;stroke-linecap:round;stroke-linejoin:round;stroke-miterlimit:10;stroke-dasharray:none;stroke-opacity:1"
             id="path384"
             inkscape:connector-curvature="0" /></g><g
           id="g386"
           transform="translate(196.2383,570.2462)"><path
             d="M 0,0 C 2.805,0 5.078,2.277 5.078,5.09"
             style="fill:none;stroke:#373535;stroke-width:0.5;stroke-linecap:round;stroke-linejoin:round;stroke-miterlimit:10;stroke-dasharray:none;stroke-opacity:1"
             id="path388"
             inkscape:connector-curvature="0" /></g><g
           id="g390"
           transform="translate(198.8125,591.2701)"><path
             d="M 0,0 C 0,1.422 -1.141,2.574 -2.551,2.598"
             style="fill:none;stroke:#373535;stroke-width:0.25;stroke-linecap:round;stroke-linejoin:round;stroke-miterlimit:10;stroke-dasharray:none;stroke-opacity:1"
             id="path392"
             inkscape:connector-curvature="0" /></g><g
           id="g394"
           transform="translate(196.2148,572.7501)"><path
             d="M 0,0 C 1.418,0 2.578,1.141 2.598,2.555"
             style="fill:none;stroke:#373535;stroke-width:0.25;stroke-linecap:round;stroke-linejoin:round;stroke-miterlimit:10;stroke-dasharray:none;stroke-opacity:1"
             id="path396"
             inkscape:connector-curvature="0" /></g><g
           id="g398"
           transform="translate(178.4336,593.8365)"><path
             d="M 0,0 C -1.406,0 -2.547,-1.137 -2.547,-2.547"
             style="fill:none;stroke:#373535;stroke-width:0.25;stroke-linecap:round;stroke-linejoin:round;stroke-miterlimit:10;stroke-dasharray:none;stroke-opacity:1"
             id="path400"
             inkscape:connector-curvature="0" /></g><g
           id="g402"
           transform="translate(175.8867,575.3365)"><path
             d="m 0,0 c 0,-0.687 0.281,-1.36 0.781,-1.836 0.5,-0.477 1.168,-0.731 1.856,-0.711"
             style="fill:none;stroke:#373535;stroke-width:0.25;stroke-linecap:round;stroke-linejoin:round;stroke-miterlimit:10;stroke-dasharray:none;stroke-opacity:1"
             id="path404"
             inkscape:connector-curvature="0" /></g><g
           id="g406"
           transform="translate(196.2383,593.8677)"><path
             d="m 0,0 -2.398,0 0,2.387"
             style="fill:none;stroke:#373535;stroke-width:0.25;stroke-linecap:round;stroke-linejoin:round;stroke-miterlimit:10;stroke-dasharray:none;stroke-opacity:1"
             id="path408"
             inkscape:connector-curvature="0" /></g><g
           id="g410"
           transform="translate(178.4336,596.3755)"><path
             d="m 0,0 -0.008,2.383 17.813,0 0,-2.383"
             style="fill:none;stroke:#373535;stroke-width:0.5;stroke-linecap:round;stroke-linejoin:round;stroke-miterlimit:10;stroke-dasharray:none;stroke-opacity:1"
             id="path412"
             inkscape:connector-curvature="0" /></g><g
           id="g414"
           transform="translate(189.4766,589.4146)"><path
             d="m 0,0 0,-2.504 5.023,0 0,2.504 -0.839,0 0,2.508 -3.336,0 L 0.848,0 0,0 Z"
             style="fill:#97989b;fill-opacity:1;fill-rule:nonzero;stroke:none"
             id="path416"
             inkscape:connector-curvature="0" /></g><g
           id="g418"
           transform="translate(189.4766,589.4146)"><path
             d="m 0,0 0,-2.504 5.023,0 0,2.504 -0.839,0 0,2.508 -3.336,0 L 0.848,0 0,0"
             style="fill:none;stroke:#373535;stroke-width:0.25;stroke-linecap:round;stroke-linejoin:round;stroke-miterlimit:10;stroke-dasharray:none;stroke-opacity:1"
             id="path420"
             inkscape:connector-curvature="0" /></g><g
           id="g422"
           transform="translate(178.4336,593.8365)"><path
             d="m 0,0 2.379,0 0,2.387 2.383,0 0,-0.977 0.988,0 0,0.977 6.301,0 0,-0.977 0.98,0 0,0.977 2.375,0"
             style="fill:none;stroke:#373535;stroke-width:0.25;stroke-linecap:round;stroke-linejoin:round;stroke-miterlimit:10;stroke-dasharray:none;stroke-opacity:1"
             id="path424"
             inkscape:connector-curvature="0" /></g><g
           id="g426"
           transform="translate(180.1328,589.3873)"><path
             d="m 0,0 0,-2.508 5.012,0 0,2.508 -0.84,0 0,2.504 -3.344,0 L 0.828,0 0,0"
             style="fill:none;stroke:#373535;stroke-width:0.25;stroke-linecap:round;stroke-linejoin:round;stroke-miterlimit:10;stroke-dasharray:none;stroke-opacity:1"
             id="path428"
             inkscape:connector-curvature="0" /></g><g
           id="g430"
           transform="translate(189.6953,578.3951)"><path
             d="m 0,0 0,-2.508 5.012,0 0,2.508 -0.84,0 0,2.504 -3.332,0 L 0.84,0 0,0 Z"
             style="fill:#97989b;fill-opacity:1;fill-rule:nonzero;stroke:none"
             id="path432"
             inkscape:connector-curvature="0" /></g><g
           id="g434"
           transform="translate(189.6953,578.3951)"><path
             d="m 0,0 0,-2.508 5.012,0 0,2.508 -0.84,0 0,2.504 -3.332,0 L 0.84,0 0,0"
             style="fill:none;stroke:#373535;stroke-width:0.25;stroke-linecap:round;stroke-linejoin:round;stroke-miterlimit:10;stroke-dasharray:none;stroke-opacity:1"
             id="path436"
             inkscape:connector-curvature="0" /></g><path
           d="m 188.469,577.145 -2.066,0 0,5.43 2.066,0 0,-5.43 z"
           style="fill:none;stroke:#373535;stroke-width:0.25;stroke-linecap:round;stroke-linejoin:round;stroke-miterlimit:10;stroke-dasharray:none;stroke-opacity:1"
           id="path438"
           inkscape:connector-curvature="0" /><g
           id="g440"
           transform="translate(180.1641,578.4615)"><path
             d="m 0,0 0,-2.504 5.012,0 0,2.504 -0.84,0 0,2.508 -3.336,0 L 0.836,0 0,0 Z"
             style="fill:#97989b;fill-opacity:1;fill-rule:nonzero;stroke:none"
             id="path442"
             inkscape:connector-curvature="0" /></g><g
           id="g444"
           transform="translate(180.1641,578.4615)"><path
             d="m 0,0 0,-2.504 5.012,0 0,2.504 -0.84,0 0,2.508 -3.336,0 L 0.836,0 0,0"
             style="fill:none;stroke:#373535;stroke-width:0.25;stroke-linecap:round;stroke-linejoin:round;stroke-miterlimit:10;stroke-dasharray:none;stroke-opacity:1"
             id="path446"
             inkscape:connector-curvature="0" /></g><g
           id="g448"
           transform="translate(178.5039,572.7891)"><path
             d="m 0,0 3.625,-0.047 14.109,0.008"
             style="fill:none;stroke:#373535;stroke-width:0.25;stroke-linecap:round;stroke-linejoin:round;stroke-miterlimit:10;stroke-dasharray:none;stroke-opacity:1"
             id="path450"
             inkscape:connector-curvature="0" /></g></g></g><text
       transform="matrix(1,0,0,-1,204.6226,586.9102)"
       style="font-variant:normal;font-weight:bold;font-stretch:normal;font-size:7px;font-family:Helvetica;-inkscape-font-specification:Helvetica-Bold;writing-mode:lr-tb;fill:#292929;fill-opacity:1;fill-rule:nonzero;stroke:none"
       id="text452"><tspan
         x="0 -38.5"
         y="0"
         sodipodi:role="line"
         id="tspan454">12</tspan><tspan
         x="-38.5"
         y="11.165"
         id="tspan456">4</tspan><tspan
         x="0"
         y="10.892"
         id="tspan458">3</tspan></text>
<g
       id="g460"><g
         id="g462"
         clip-path="url(#clipPath464)"><g
           id="g468"
           transform="translate(180.1641,570.2462)"><path
             d="M 0,0 53.684,-131.81"
             style="fill:none;stroke:#373536;stroke-width:0.5;stroke-linecap:butt;stroke-linejoin:miter;stroke-miterlimit:10;stroke-dasharray:none;stroke-opacity:1"
             id="path470"
             inkscape:connector-curvature="0" /></g><g
           id="g472"
           transform="translate(370,442.5396)"><path
             d="M 0,0 50.694,41.35"
             style="fill:none;stroke:#373536;stroke-width:0.5;stroke-linecap:butt;stroke-linejoin:miter;stroke-miterlimit:10;stroke-dasharray:none;stroke-opacity:1"
             id="path474"
             inkscape:connector-curvature="0" /></g><g
           id="g476"
           transform="translate(227.3335,379.3575)"><path
             d="M 0,0 -61.667,-75.135"
             style="fill:none;stroke:#373536;stroke-width:0.5;stroke-linecap:butt;stroke-linejoin:miter;stroke-miterlimit:10;stroke-dasharray:none;stroke-opacity:1"
             id="path478"
             inkscape:connector-curvature="0" /></g></g></g><text
       transform="matrix(1,0,0,-1,420.6943,484.4336)"
       style="font-variant:normal;font-weight:bold;font-stretch:normal;font-size:10px;font-family:Helvetica;-inkscape-font-specification:Helvetica-Bold;writing-mode:lr-tb;fill:#292929;fill-opacity:1;fill-rule:nonzero;stroke:none"
       id="text480"><tspan
         x="0"
         y="0"
         id="tspan482">1</tspan><tspan
         x="-261.41"
         y="187.98"
         id="tspan484">2</tspan></text>
</g></svg>