<?xml version="1.0" encoding="UTF-8" standalone="no"?>
<!-- Created with Inkscape (http://www.inkscape.org/) -->

<svg
   xmlns:dc="http://purl.org/dc/elements/1.1/"
   xmlns:cc="http://creativecommons.org/ns#"
   xmlns:rdf="http://www.w3.org/1999/02/22-rdf-syntax-ns#"
   xmlns:svg="http://www.w3.org/2000/svg"
   xmlns="http://www.w3.org/2000/svg"
   xmlns:sodipodi="http://sodipodi.sourceforge.net/DTD/sodipodi-0.dtd"
   xmlns:inkscape="http://www.inkscape.org/namespaces/inkscape"
   id="svg10296"
   version="1.1"
   inkscape:version="0.91 r13725"
   xml:space="preserve"
   width="301.18124"
   height="230.315"
   viewBox="0 0 301.18124 230.315"
   sodipodi:docname="Sumitomo 6195-0015.svg"><metadata
     id="metadata10302"><rdf:RDF><cc:Work
         rdf:about=""><dc:format>image/svg+xml</dc:format><dc:type
           rdf:resource="http://purl.org/dc/dcmitype/StillImage" /><dc:title></dc:title></cc:Work></rdf:RDF></metadata><defs
     id="defs10300"><clipPath
       clipPathUnits="userSpaceOnUse"
       id="clipPath10416"><path
         d="m 0,184.252 240.945,0 L 240.945,0 0,0 0,184.252 Z"
         id="path10418"
         inkscape:connector-curvature="0" /></clipPath></defs><sodipodi:namedview
     pagecolor="#ffffff"
     bordercolor="#666666"
     borderopacity="1"
     objecttolerance="10"
     gridtolerance="10"
     guidetolerance="10"
     inkscape:pageopacity="0"
     inkscape:pageshadow="2"
     inkscape:window-width="640"
     inkscape:window-height="480"
     id="namedview10298"
     showgrid="false"
     inkscape:zoom="1.3503245"
     inkscape:cx="150.59062"
     inkscape:cy="115.1575"
     inkscape:window-x="791"
     inkscape:window-y="771"
     inkscape:window-maximized="0"
     inkscape:current-layer="g10304" /><g
     id="g10304"
     inkscape:groupmode="layer"
     inkscape:label="Sumitomo 6195-0015"
     transform="matrix(1.25,0,0,-1.25,0,230.315)"><text
       transform="matrix(1,0,0,-1,160.7192,94.2598)"
       style="font-variant:normal;font-weight:normal;font-stretch:normal;font-size:10px;font-family:Helvetica;-inkscape-font-specification:Helvetica;writing-mode:lr-tb;fill:#373535;fill-opacity:1;fill-rule:nonzero;stroke:none"
       id="text10306"><tspan
         x="0"
         y="0"
         id="tspan10308">2</tspan><tspan
         x="0"
         y="18"
         id="tspan10310">4</tspan><tspan
         x="-86.25"
         y="-0.72000003"
         id="tspan10312">1</tspan><tspan
         x="-86.25"
         y="17.280001"
         id="tspan10314">3</tspan></text>
<g
       id="g10316"
       transform="translate(136.168,129.832)"><path
         d="M 0,0 -28.35,0"
         style="fill:none;stroke:#373535;stroke-width:0.99199998;stroke-linecap:round;stroke-linejoin:miter;stroke-miterlimit:10;stroke-dasharray:none;stroke-opacity:1"
         id="path10318"
         inkscape:connector-curvature="0" /></g><g
       id="g10320"
       transform="translate(107.8179,126.4321)"><path
         d="M 0,0 28.35,0"
         style="fill:none;stroke:#373535;stroke-width:0.249;stroke-linecap:round;stroke-linejoin:miter;stroke-miterlimit:10;stroke-dasharray:none;stroke-opacity:1"
         id="path10322"
         inkscape:connector-curvature="0" /></g><g
       id="g10324"
       transform="translate(135.3076,124.3023)"><path
         d="M 0,0 -26.63,0"
         style="fill:none;stroke:#373535;stroke-width:0.249;stroke-linecap:round;stroke-linejoin:miter;stroke-miterlimit:10;stroke-dasharray:none;stroke-opacity:1"
         id="path10326"
         inkscape:connector-curvature="0" /></g><g
       id="g10328"
       transform="translate(150.8682,91.9522)"><path
         d="M 0,0 -0.391,14.46"
         style="fill:none;stroke:#373535;stroke-width:0.99199998;stroke-linecap:round;stroke-linejoin:miter;stroke-miterlimit:10;stroke-dasharray:none;stroke-opacity:1"
         id="path10330"
         inkscape:connector-curvature="0" /></g><g
       id="g10332"
       transform="translate(104.9878,120.2022)"><path
         d="M 0,0 4.96,0"
         style="fill:none;stroke:#373535;stroke-width:0.249;stroke-linecap:round;stroke-linejoin:miter;stroke-miterlimit:10;stroke-dasharray:none;stroke-opacity:1"
         id="path10334"
         inkscape:connector-curvature="0" /></g><g
       id="g10336"
       transform="translate(134.0381,120.2022)"><path
         d="M 0,0 4.96,0"
         style="fill:none;stroke:#373535;stroke-width:0.249;stroke-linecap:round;stroke-linejoin:miter;stroke-miterlimit:10;stroke-dasharray:none;stroke-opacity:1"
         id="path10338"
         inkscape:connector-curvature="0" /></g><g
       id="g10340"
       transform="translate(116.3276,120.0523)"><path
         d="M 0,0 11.331,0"
         style="fill:none;stroke:#373535;stroke-width:0.249;stroke-linecap:round;stroke-linejoin:miter;stroke-miterlimit:10;stroke-dasharray:none;stroke-opacity:1"
         id="path10342"
         inkscape:connector-curvature="0" /></g><g
       id="g10344"
       transform="translate(136.3076,116.792)"><path
         d="M 0,0 -28.63,0"
         style="fill:none;stroke:#373535;stroke-width:0.249;stroke-linecap:round;stroke-linejoin:miter;stroke-miterlimit:10;stroke-dasharray:none;stroke-opacity:1"
         id="path10346"
         inkscape:connector-curvature="0" /></g><g
       id="g10348"
       transform="translate(142.3975,118.8223)"><path
         d="M 0,0 0,4.77"
         style="fill:none;stroke:#373535;stroke-width:0.99199998;stroke-linecap:round;stroke-linejoin:miter;stroke-miterlimit:10;stroke-dasharray:none;stroke-opacity:1"
         id="path10350"
         inkscape:connector-curvature="0" /></g><g
       id="g10352"
       transform="translate(140.9775,74.8418)"><path
         d="M 0,0 0,31.18"
         style="fill:none;stroke:#373535;stroke-width:0.49900001;stroke-linecap:round;stroke-linejoin:miter;stroke-miterlimit:10;stroke-dasharray:none;stroke-opacity:1"
         id="path10354"
         inkscape:connector-curvature="0" /></g><g
       id="g10356"
       transform="translate(138.998,123.5923)"><path
         d="M 0,0 0,-3.65"
         style="fill:none;stroke:#373535;stroke-width:0.249;stroke-linecap:round;stroke-linejoin:miter;stroke-miterlimit:10;stroke-dasharray:none;stroke-opacity:1"
         id="path10358"
         inkscape:connector-curvature="0" /></g><g
       id="g10360"
       transform="translate(138.1475,108.8623)"><path
         d="M 0,0 -32.31,0"
         style="fill:none;stroke:#373535;stroke-width:0.49900001;stroke-linecap:round;stroke-linejoin:miter;stroke-miterlimit:10;stroke-dasharray:none;stroke-opacity:1"
         id="path10362"
         inkscape:connector-curvature="0" /></g><g
       id="g10364"
       transform="translate(136.7275,122.8823)"><path
         d="M 0,0 0,-2.68"
         style="fill:none;stroke:#373535;stroke-width:0.249;stroke-linecap:round;stroke-linejoin:miter;stroke-miterlimit:10;stroke-dasharray:none;stroke-opacity:1"
         id="path10366"
         inkscape:connector-curvature="0" /></g><g
       id="g10368"
       transform="translate(132.6279,118.7822)"><path
         d="M 0,0 0,-1.99"
         style="fill:none;stroke:#373535;stroke-width:0.249;stroke-linecap:round;stroke-linejoin:miter;stroke-miterlimit:10;stroke-dasharray:none;stroke-opacity:1"
         id="path10370"
         inkscape:connector-curvature="0" /></g><g
       id="g10372"
       transform="translate(125.5381,118.2124)"><path
         d="M 0,0 0,1.84"
         style="fill:none;stroke:#373535;stroke-width:0.249;stroke-linecap:round;stroke-linejoin:miter;stroke-miterlimit:10;stroke-dasharray:none;stroke-opacity:1"
         id="path10374"
         inkscape:connector-curvature="0" /></g><g
       id="g10376"
       transform="translate(118.4478,120.0523)"><path
         d="M 0,0 0,-1.84"
         style="fill:none;stroke:#373535;stroke-width:0.249;stroke-linecap:round;stroke-linejoin:miter;stroke-miterlimit:10;stroke-dasharray:none;stroke-opacity:1"
         id="path10378"
         inkscape:connector-curvature="0" /></g><g
       id="g10380"
       transform="translate(111.3579,118.7822)"><path
         d="M 0,0 0,-1.99"
         style="fill:none;stroke:#373535;stroke-width:0.249;stroke-linecap:round;stroke-linejoin:miter;stroke-miterlimit:10;stroke-dasharray:none;stroke-opacity:1"
         id="path10382"
         inkscape:connector-curvature="0" /></g><g
       id="g10384"
       transform="translate(107.2578,120.2022)"><path
         d="M 0,0 0,2.68"
         style="fill:none;stroke:#373535;stroke-width:0.249;stroke-linecap:round;stroke-linejoin:miter;stroke-miterlimit:10;stroke-dasharray:none;stroke-opacity:1"
         id="path10386"
         inkscape:connector-curvature="0" /></g><g
       id="g10388"
       transform="translate(104.9878,119.9424)"><path
         d="M 0,0 0,3.65"
         style="fill:none;stroke:#373535;stroke-width:0.249;stroke-linecap:round;stroke-linejoin:miter;stroke-miterlimit:10;stroke-dasharray:none;stroke-opacity:1"
         id="path10390"
         inkscape:connector-curvature="0" /></g><g
       id="g10392"
       transform="translate(103.0078,106.022)"><path
         d="M 0,0 0,-31.18"
         style="fill:none;stroke:#373535;stroke-width:0.49900001;stroke-linecap:round;stroke-linejoin:miter;stroke-miterlimit:10;stroke-dasharray:none;stroke-opacity:1"
         id="path10394"
         inkscape:connector-curvature="0" /></g><g
       id="g10396"
       transform="translate(101.5879,123.5923)"><path
         d="M 0,0 0,-4.77"
         style="fill:none;stroke:#373535;stroke-width:0.99199998;stroke-linecap:round;stroke-linejoin:miter;stroke-miterlimit:10;stroke-dasharray:none;stroke-opacity:1"
         id="path10398"
         inkscape:connector-curvature="0" /></g><g
       id="g10400"
       transform="translate(105.8379,72.0117)"><path
         d="M 0,0 32.31,0"
         style="fill:none;stroke:#373535;stroke-width:0.49900001;stroke-linecap:round;stroke-linejoin:miter;stroke-miterlimit:10;stroke-dasharray:none;stroke-opacity:1"
         id="path10402"
         inkscape:connector-curvature="0" /></g><g
       id="g10404"
       transform="translate(93.5078,106.4121)"><path
         d="M 0,0 -0.39,-14.46"
         style="fill:none;stroke:#373535;stroke-width:0.99199998;stroke-linecap:round;stroke-linejoin:miter;stroke-miterlimit:10;stroke-dasharray:none;stroke-opacity:1"
         id="path10406"
         inkscape:connector-curvature="0" /></g><g
       id="g10408"
       transform="translate(106.8276,64.0723)"><path
         d="M 0,0 30.331,0"
         style="fill:none;stroke:#373535;stroke-width:0.249;stroke-linecap:round;stroke-linejoin:miter;stroke-miterlimit:10;stroke-dasharray:none;stroke-opacity:1"
         id="path10410"
         inkscape:connector-curvature="0" /></g><g
       id="g10412"><g
         id="g10414"
         clip-path="url(#clipPath10416)"><g
           id="g10420"
           transform="translate(150.4775,106.522)"><path
             d="M 0,0 C -0.189,5.32 -3.35,10.1 -8.18,12.35"
             style="fill:none;stroke:#373535;stroke-width:0.99199998;stroke-linecap:round;stroke-linejoin:miter;stroke-miterlimit:10;stroke-dasharray:none;stroke-opacity:1"
             id="path10422"
             inkscape:connector-curvature="0" /></g><g
           id="g10424"
           transform="translate(139.0176,119.9424)"><path
             d="M 0,0 C -0.89,0.17 -1.79,0.26 -2.7,0.26"
             style="fill:none;stroke:#373535;stroke-width:0.249;stroke-linecap:round;stroke-linejoin:miter;stroke-miterlimit:10;stroke-dasharray:none;stroke-opacity:1"
             id="path10426"
             inkscape:connector-curvature="0" /></g><g
           id="g10428"
           transform="translate(147.0674,106.3921)"><path
             d="M 0,0 C -0.199,5.8 -4.96,10.4 -10.76,10.4"
             style="fill:none;stroke:#373535;stroke-width:0.249;stroke-linecap:round;stroke-linejoin:miter;stroke-miterlimit:10;stroke-dasharray:none;stroke-opacity:1"
             id="path10430"
             inkscape:connector-curvature="0" /></g><g
           id="g10432"
           transform="translate(142.3975,123.6021)"><path
             d="M 0,0 C 0,3.44 -2.79,6.23 -6.229,6.23"
             style="fill:none;stroke:#373535;stroke-width:0.99199998;stroke-linecap:round;stroke-linejoin:miter;stroke-miterlimit:10;stroke-dasharray:none;stroke-opacity:1"
             id="path10434"
             inkscape:connector-curvature="0" /></g><g
           id="g10436"
           transform="translate(138.998,123.6021)"><path
             d="M 0,0 C 0,1.56 -1.271,2.83 -2.83,2.83"
             style="fill:none;stroke:#373535;stroke-width:0.249;stroke-linecap:round;stroke-linejoin:miter;stroke-miterlimit:10;stroke-dasharray:none;stroke-opacity:1"
             id="path10438"
             inkscape:connector-curvature="0" /></g><g
           id="g10440"
           transform="translate(140.9775,106.022)"><path
             d="M 0,0 C 0,1.56 -1.26,2.83 -2.819,2.83"
             style="fill:none;stroke:#373535;stroke-width:0.49900001;stroke-linecap:round;stroke-linejoin:miter;stroke-miterlimit:10;stroke-dasharray:none;stroke-opacity:1"
             id="path10442"
             inkscape:connector-curvature="0" /></g><g
           id="g10444"
           transform="translate(134.0381,120.1924)"><path
             d="M 0,0 C -0.78,0 -1.41,-0.63 -1.41,-1.41"
             style="fill:none;stroke:#373535;stroke-width:0.249;stroke-linecap:round;stroke-linejoin:miter;stroke-miterlimit:10;stroke-dasharray:none;stroke-opacity:1"
             id="path10446"
             inkscape:connector-curvature="0" /></g><g
           id="g10448"
           transform="translate(127.6582,120.062)"><path
             d="M 0,0 C 0.779,0 1.42,0.63 1.42,1.41"
             style="fill:none;stroke:#373535;stroke-width:0.249;stroke-linecap:round;stroke-linejoin:miter;stroke-miterlimit:10;stroke-dasharray:none;stroke-opacity:1"
             id="path10450"
             inkscape:connector-curvature="0" /></g><g
           id="g10452"
           transform="translate(129.0781,122.8921)"><path
             d="M 0,0 C 0,0.78 -0.641,1.41 -1.42,1.41"
             style="fill:none;stroke:#373535;stroke-width:0.249;stroke-linecap:round;stroke-linejoin:miter;stroke-miterlimit:10;stroke-dasharray:none;stroke-opacity:1"
             id="path10454"
             inkscape:connector-curvature="0" /></g><g
           id="g10456"
           transform="translate(150.8779,91.9522)"><path
             d="M 0,0 C 0.01,-0.4 0.189,-0.77 0.479,-1.02"
             style="fill:none;stroke:#373535;stroke-width:0.99199998;stroke-linecap:round;stroke-linejoin:miter;stroke-miterlimit:10;stroke-dasharray:none;stroke-opacity:1"
             id="path10458"
             inkscape:connector-curvature="0" /></g><g
           id="g10460"
           transform="translate(125.5381,118.2124)"><path
             d="M 0,0 C 0,-0.78 0.63,-1.41 1.409,-1.41"
             style="fill:none;stroke:#373535;stroke-width:0.249;stroke-linecap:round;stroke-linejoin:miter;stroke-miterlimit:10;stroke-dasharray:none;stroke-opacity:1"
             id="path10462"
             inkscape:connector-curvature="0" /></g><g
           id="g10464"
           transform="translate(136.7275,122.8921)"><path
             d="M 0,0 C 0,0.78 -0.63,1.41 -1.41,1.41"
             style="fill:none;stroke:#373535;stroke-width:0.249;stroke-linecap:round;stroke-linejoin:miter;stroke-miterlimit:10;stroke-dasharray:none;stroke-opacity:1"
             id="path10466"
             inkscape:connector-curvature="0" /></g><g
           id="g10468"
           transform="translate(137.1582,59.2617)"><path
             d="M 0,0 C 2,0 3.979,0.381 5.829,1.131"
             style="fill:none;stroke:#373535;stroke-width:0.249;stroke-linecap:round;stroke-linejoin:miter;stroke-miterlimit:10;stroke-dasharray:none;stroke-opacity:1"
             id="path10470"
             inkscape:connector-curvature="0" /></g><g
           id="g10472"
           transform="translate(137.1582,60.6719)"><path
             d="m 0,0 c 3.8,0 7.439,1.53 10.109,4.24 2.661,2.71 4.13,6.38 4.061,10.18"
             style="fill:none;stroke:#373535;stroke-width:0.99199998;stroke-linecap:round;stroke-linejoin:miter;stroke-miterlimit:10;stroke-dasharray:none;stroke-opacity:1"
             id="path10474"
             inkscape:connector-curvature="0" /></g><g
           id="g10476"
           transform="translate(137.1582,64.082)"><path
             d="m 0,0 c 2.92,0 5.72,1.18 7.75,3.29 2.029,2.1 3.109,4.93 3.01,7.85"
             style="fill:none;stroke:#373535;stroke-width:0.249;stroke-linecap:round;stroke-linejoin:miter;stroke-miterlimit:10;stroke-dasharray:none;stroke-opacity:1"
             id="path10478"
             inkscape:connector-curvature="0" /></g><g
           id="g10480"
           transform="translate(151.708,76.0918)"><path
             d="M 0,0 C 2.01,1.94 3.12,4.63 3.08,7.431 3.029,10.23 1.819,12.88 -0.261,14.75"
             style="fill:none;stroke:#373535;stroke-width:0.99199998;stroke-linecap:round;stroke-linejoin:miter;stroke-miterlimit:10;stroke-dasharray:none;stroke-opacity:1"
             id="path10482"
             inkscape:connector-curvature="0" /></g><g
           id="g10484"
           transform="translate(138.1582,72.0117)"><path
             d="M 0,0 C 1.56,0 2.819,1.271 2.819,2.83"
             style="fill:none;stroke:#373535;stroke-width:0.49900001;stroke-linecap:round;stroke-linejoin:miter;stroke-miterlimit:10;stroke-dasharray:none;stroke-opacity:1"
             id="path10486"
             inkscape:connector-curvature="0" /></g><g
           id="g10488"
           transform="translate(142.9678,53.8721)"><path
             d="M 0,0 C 0.78,0 1.41,0.64 1.41,1.41"
             style="fill:none;stroke:#373535;stroke-width:0.99199998;stroke-linecap:round;stroke-linejoin:miter;stroke-miterlimit:10;stroke-dasharray:none;stroke-opacity:1"
             id="path10490"
             inkscape:connector-curvature="0" /></g><g
           id="g10492"
           transform="translate(145.0078,63.042)"><path
             d="M 0,0 C -0.39,-0.26 -0.62,-0.7 -0.62,-1.17"
             style="fill:none;stroke:#373535;stroke-width:0.249;stroke-linecap:round;stroke-linejoin:miter;stroke-miterlimit:10;stroke-dasharray:none;stroke-opacity:1"
             id="path10494"
             inkscape:connector-curvature="0" /></g><g
           id="g10496"
           transform="translate(133.6182,55.2822)"><path
             d="M 0,0 C 0,-0.771 0.63,-1.41 1.409,-1.41"
             style="fill:none;stroke:#373535;stroke-width:0.99199998;stroke-linecap:round;stroke-linejoin:miter;stroke-miterlimit:10;stroke-dasharray:none;stroke-opacity:1"
             id="path10498"
             inkscape:connector-curvature="0" /></g><g
           id="g10500"
           transform="translate(151.7676,76.1426)"><path
             d="M 0,0 C -0.29,-0.271 -0.439,-0.65 -0.439,-1.04"
             style="fill:none;stroke:#373535;stroke-width:0.99199998;stroke-linecap:round;stroke-linejoin:miter;stroke-miterlimit:10;stroke-dasharray:none;stroke-opacity:1"
             id="path10502"
             inkscape:connector-curvature="0" /></g><g
           id="g10504"
           transform="translate(101.6875,118.8721)"><path
             d="M 0,0 C -4.83,-2.25 -7.99,-7.03 -8.17,-12.35"
             style="fill:none;stroke:#373535;stroke-width:0.99199998;stroke-linecap:round;stroke-linejoin:miter;stroke-miterlimit:10;stroke-dasharray:none;stroke-opacity:1"
             id="path10506"
             inkscape:connector-curvature="0" /></g><g
           id="g10508"
           transform="translate(107.6675,120.2022)"><path
             d="M 0,0 C -0.9,0 -1.81,-0.09 -2.7,-0.26"
             style="fill:none;stroke:#373535;stroke-width:0.249;stroke-linecap:round;stroke-linejoin:miter;stroke-miterlimit:10;stroke-dasharray:none;stroke-opacity:1"
             id="path10510"
             inkscape:connector-curvature="0" /></g><g
           id="g10512"
           transform="translate(107.6777,116.792)"><path
             d="M 0,0 C -5.8,0 -10.56,-4.6 -10.76,-10.4"
             style="fill:none;stroke:#373535;stroke-width:0.249;stroke-linecap:round;stroke-linejoin:miter;stroke-miterlimit:10;stroke-dasharray:none;stroke-opacity:1"
             id="path10514"
             inkscape:connector-curvature="0" /></g><g
           id="g10516"
           transform="translate(107.8179,129.832)"><path
             d="M 0,0 C -3.44,0 -6.23,-2.79 -6.23,-6.23"
             style="fill:none;stroke:#373535;stroke-width:0.99199998;stroke-linecap:round;stroke-linejoin:miter;stroke-miterlimit:10;stroke-dasharray:none;stroke-opacity:1"
             id="path10518"
             inkscape:connector-curvature="0" /></g><g
           id="g10520"
           transform="translate(107.8179,126.4321)"><path
             d="M 0,0 C -1.56,0 -2.83,-1.27 -2.83,-2.83"
             style="fill:none;stroke:#373535;stroke-width:0.249;stroke-linecap:round;stroke-linejoin:miter;stroke-miterlimit:10;stroke-dasharray:none;stroke-opacity:1"
             id="path10522"
             inkscape:connector-curvature="0" /></g><g
           id="g10524"
           transform="translate(105.8379,108.8521)"><path
             d="M 0,0 C -1.57,0 -2.83,-1.27 -2.83,-2.83"
             style="fill:none;stroke:#373535;stroke-width:0.49900001;stroke-linecap:round;stroke-linejoin:miter;stroke-miterlimit:10;stroke-dasharray:none;stroke-opacity:1"
             id="path10526"
             inkscape:connector-curvature="0" /></g><g
           id="g10528"
           transform="translate(111.3579,118.7822)"><path
             d="M 0,0 C 0,0.78 -0.63,1.41 -1.41,1.41"
             style="fill:none;stroke:#373535;stroke-width:0.249;stroke-linecap:round;stroke-linejoin:miter;stroke-miterlimit:10;stroke-dasharray:none;stroke-opacity:1"
             id="path10530"
             inkscape:connector-curvature="0" /></g><g
           id="g10532"
           transform="translate(114.9175,121.4722)"><path
             d="M 0,0 C 0,-0.78 0.63,-1.41 1.41,-1.41"
             style="fill:none;stroke:#373535;stroke-width:0.249;stroke-linecap:round;stroke-linejoin:miter;stroke-miterlimit:10;stroke-dasharray:none;stroke-opacity:1"
             id="path10534"
             inkscape:connector-curvature="0" /></g><g
           id="g10536"
           transform="translate(116.3276,124.3023)"><path
             d="M 0,0 C -0.78,0 -1.41,-0.63 -1.41,-1.41"
             style="fill:none;stroke:#373535;stroke-width:0.249;stroke-linecap:round;stroke-linejoin:miter;stroke-miterlimit:10;stroke-dasharray:none;stroke-opacity:1"
             id="path10538"
             inkscape:connector-curvature="0" /></g><g
           id="g10540"
           transform="translate(92.6279,90.9326)"><path
             d="M 0,0 C 0.29,0.25 0.47,0.62 0.48,1.02"
             style="fill:none;stroke:#373535;stroke-width:0.99199998;stroke-linecap:round;stroke-linejoin:miter;stroke-miterlimit:10;stroke-dasharray:none;stroke-opacity:1"
             id="path10542"
             inkscape:connector-curvature="0" /></g><g
           id="g10544"
           transform="translate(117.0376,116.8023)"><path
             d="M 0,0 C 0.78,0 1.41,0.63 1.41,1.41"
             style="fill:none;stroke:#373535;stroke-width:0.249;stroke-linecap:round;stroke-linejoin:miter;stroke-miterlimit:10;stroke-dasharray:none;stroke-opacity:1"
             id="path10546"
             inkscape:connector-curvature="0" /></g><g
           id="g10548"
           transform="translate(108.6675,124.3023)"><path
             d="M 0,0 C -0.78,0 -1.41,-0.63 -1.41,-1.41"
             style="fill:none;stroke:#373535;stroke-width:0.249;stroke-linecap:round;stroke-linejoin:miter;stroke-miterlimit:10;stroke-dasharray:none;stroke-opacity:1"
             id="path10550"
             inkscape:connector-curvature="0" /></g><g
           id="g10552"
           transform="translate(100.9976,60.3926)"><path
             d="M 0,0 C 1.85,-0.75 3.83,-1.131 5.83,-1.131"
             style="fill:none;stroke:#373535;stroke-width:0.249;stroke-linecap:round;stroke-linejoin:miter;stroke-miterlimit:10;stroke-dasharray:none;stroke-opacity:1"
             id="path10554"
             inkscape:connector-curvature="0" /></g><g
           id="g10556"
           transform="translate(92.6577,75.0918)"><path
             d="m 0,0 c -0.07,-3.8 1.4,-7.47 4.06,-10.18 2.67,-2.71 6.31,-4.24 10.11,-4.24"
             style="fill:none;stroke:#373535;stroke-width:0.99199998;stroke-linecap:round;stroke-linejoin:miter;stroke-miterlimit:10;stroke-dasharray:none;stroke-opacity:1"
             id="path10558"
             inkscape:connector-curvature="0" /></g><g
           id="g10560"
           transform="translate(96.0679,75.2217)"><path
             d="m 0,0 c -0.1,-2.92 0.98,-5.75 3.01,-7.85 2.03,-2.11 4.83,-3.29 7.75,-3.29"
             style="fill:none;stroke:#373535;stroke-width:0.249;stroke-linecap:round;stroke-linejoin:miter;stroke-miterlimit:10;stroke-dasharray:none;stroke-opacity:1"
             id="path10562"
             inkscape:connector-curvature="0" /></g><g
           id="g10564"
           transform="translate(92.6777,90.9619)"><path
             d="m 0,0 c -2.11,-1.84 -3.37,-4.47 -3.46,-7.26 -0.1,-2.8 0.97,-5.51 2.94,-7.49"
             style="fill:none;stroke:#373535;stroke-width:0.99199998;stroke-linecap:round;stroke-linejoin:miter;stroke-miterlimit:10;stroke-dasharray:none;stroke-opacity:1"
             id="path10566"
             inkscape:connector-curvature="0" /></g><g
           id="g10568"
           transform="translate(103.0078,74.8418)"><path
             d="M 0,0 C 0,-1.56 1.26,-2.83 2.83,-2.83"
             style="fill:none;stroke:#373535;stroke-width:0.49900001;stroke-linecap:round;stroke-linejoin:miter;stroke-miterlimit:10;stroke-dasharray:none;stroke-opacity:1"
             id="path10570"
             inkscape:connector-curvature="0" /></g><g
           id="g10572"
           transform="translate(99.6079,55.2822)"><path
             d="M 0,0 C 0,-0.771 0.63,-1.41 1.41,-1.41"
             style="fill:none;stroke:#373535;stroke-width:0.99199998;stroke-linecap:round;stroke-linejoin:miter;stroke-miterlimit:10;stroke-dasharray:none;stroke-opacity:1"
             id="path10574"
             inkscape:connector-curvature="0" /></g><g
           id="g10576"
           transform="translate(108.9575,53.8721)"><path
             d="M 0,0 C 0.78,0 1.41,0.64 1.41,1.41"
             style="fill:none;stroke:#373535;stroke-width:0.99199998;stroke-linecap:round;stroke-linejoin:miter;stroke-miterlimit:10;stroke-dasharray:none;stroke-opacity:1"
             id="path10578"
             inkscape:connector-curvature="0" /></g><g
           id="g10580"
           transform="translate(92.6577,75.1026)"><path
             d="M 0,0 C 0,0.39 -0.15,0.77 -0.43,1.04"
             style="fill:none;stroke:#373535;stroke-width:0.99199998;stroke-linecap:round;stroke-linejoin:miter;stroke-miterlimit:10;stroke-dasharray:none;stroke-opacity:1"
             id="path10582"
             inkscape:connector-curvature="0" /></g><g
           id="g10584"
           transform="translate(99.5977,61.8721)"><path
             d="M 0,0 C 0,0.47 -0.23,0.91 -0.62,1.17"
             style="fill:none;stroke:#373535;stroke-width:0.249;stroke-linecap:round;stroke-linejoin:miter;stroke-miterlimit:10;stroke-dasharray:none;stroke-opacity:1"
             id="path10586"
             inkscape:connector-curvature="0" /></g><g
           id="g10588"
           transform="translate(101.0176,60.3819)"><path
             d="M 0,0 -0.03,0.011 -0.05,0.04 -0.08,0.061 -0.1,0.08 -0.13,0.101 -0.16,0.12 -0.18,0.15 -0.21,0.17 -0.23,0.19 -0.26,0.21 -0.29,0.23 -0.31,0.261 -0.34,0.28 -0.36,0.311 -0.38,0.33 -0.4,0.351 -0.43,0.37 -0.46,0.4 -0.48,0.42 -0.51,0.44 -0.53,0.46 -0.55,0.49 -0.57,0.511 -0.6,0.53 -0.62,0.561 -0.64,0.58 -0.66,0.601 -0.68,0.63 -0.71,0.65 -0.73,0.67 -0.75,0.69 -0.77,0.71 -0.8,0.74 -0.82,0.761 -0.83,0.78 -0.85,0.811 -0.88,0.83 -0.9,0.851 -0.91,0.88 -0.94,0.9 l -0.01,0.01 -0.01,0.01 0,0.011 -0.01,0.009 -0.02,0.01 0,0.021 -0.01,0 -0.01,0.019 -0.01,0 -0.01,0.021 -0.01,0.01 -0.01,0 -0.01,0.019 -0.01,0.011 -0.01,0.01 0,0.009 -0.01,0.01 -0.02,0.01 0,0.011 -0.01,0.009 -0.01,0.01 0,0.01 -0.01,0.011 -0.01,0.009 -0.01,0.01 0,0.01 -0.02,0.011 -0.01,0.009 0,0.01 -0.01,0.01 -0.01,0.011 -0.01,0 0,0.019 -0.01,0.01 -0.01,0 -0.01,0.011 0,0.01 0,0.009 -0.01,0.01 -0.01,0.011 -0.01,0.01 -0.01,0.009 -0.01,0.01 0,0.01 -0.01,0.011 -0.01,0.009 -0.01,0 0,0.02 -0.01,0.011 -0.01,0 0,0.009 -0.01,0.01 0,0.01 -0.01,0 0,0.011 -0.01,0 0,0.009 -0.01,0.01 0,0.01 -0.01,0.011 -0.01,0 0,0.009 -0.01,0 0,0.01"
             style="fill:none;stroke:#373535;stroke-width:0.249;stroke-linecap:round;stroke-linejoin:miter;stroke-miterlimit:10;stroke-dasharray:none;stroke-opacity:1"
             id="path10590"
             inkscape:connector-curvature="0" /></g><g
           id="g10592"
           transform="translate(144.3877,61.8721)"><path
             d="m 0,0 0,0 0,-0.01 -0.01,0 0,-0.01 -0.01,0 -0.01,-0.01 0,-0.01 -0.01,0 0,-0.01 -0.01,-0.01 0,-0.01 -0.01,0 0,-0.01 -0.01,-0.01 0,-0.01 -0.01,0 -0.01,-0.01 0,-0.02 -0.01,0 -0.01,-0.01 0,-0.01 -0.01,-0.01 -0.01,-0.01 -0.01,-0.01 0,-0.009 -0.01,0 -0.01,-0.011 -0.01,-0.01 0,-0.01 0,-0.009 -0.01,-0.011 -0.01,0 -0.01,-0.01 0,-0.02 -0.01,0 -0.01,-0.01 -0.009,-0.01 0,-0.01 -0.021,-0.01 -0.01,-0.01 0,-0.01 -0.01,-0.01 -0.01,-0.01 0,-0.01 -0.01,-0.01 -0.01,-0.01 -0.01,-0.01 -0.01,-0.01 -0.01,-0.01 -0.01,-0.01 0,-0.01 -0.01,-0.009 -0.01,-0.011 -0.01,-0.02 -0.01,0 -0.01,-0.009 -0.01,-0.021 -0.01,0 -0.01,-0.02 -0.01,-0.02 -0.02,-0.01 0,-0.01 -0.01,-0.01 -0.019,-0.01 0,-0.01 L -0.51,-0.61 -0.52,-0.64 -0.54,-0.66 -0.57,-0.68 -0.59,-0.71 -0.6,-0.729 -0.62,-0.75 -0.65,-0.78 -0.67,-0.8 -0.69,-0.82 -0.71,-0.84 -0.729,-0.86 -0.76,-0.89 -0.78,-0.91 -0.8,-0.93 -0.82,-0.96 -0.85,-0.979 -0.87,-1 -0.89,-1.03 -0.91,-1.05 -0.94,-1.07 -0.96,-1.09 -0.99,-1.12 -1.02,-1.14 -1.04,-1.16 -1.06,-1.18 -1.09,-1.21 -1.11,-1.229 -1.13,-1.26 -1.16,-1.28 -1.19,-1.3 -1.21,-1.32 -1.24,-1.34 -1.27,-1.37 -1.29,-1.39 -1.32,-1.41 -1.34,-1.43 -1.37,-1.45 -1.39,-1.479 -1.42,-1.49"
             style="fill:none;stroke:#373535;stroke-width:0.249;stroke-linecap:round;stroke-linejoin:miter;stroke-miterlimit:10;stroke-dasharray:none;stroke-opacity:1"
             id="path10594"
             inkscape:connector-curvature="0" /></g><g
           id="g10596"
           transform="translate(101.0176,53.8721)"><path
             d="M 0,0 7.94,0"
             style="fill:none;stroke:#373535;stroke-width:0.99199998;stroke-linecap:round;stroke-linejoin:miter;stroke-miterlimit:10;stroke-dasharray:none;stroke-opacity:1"
             id="path10598"
             inkscape:connector-curvature="0" /></g><g
           id="g10600"
           transform="translate(99.5977,55.2822)"><path
             d="M 0,0 0,6.59"
             style="fill:none;stroke:#373535;stroke-width:0.99199998;stroke-linecap:round;stroke-linejoin:miter;stroke-miterlimit:10;stroke-dasharray:none;stroke-opacity:1"
             id="path10602"
             inkscape:connector-curvature="0" /></g><g
           id="g10604"
           transform="translate(110.3779,60.6719)"><path
             d="M 0,0 0,-5.39"
             style="fill:none;stroke:#373535;stroke-width:0.99199998;stroke-linecap:round;stroke-linejoin:miter;stroke-miterlimit:10;stroke-dasharray:none;stroke-opacity:1"
             id="path10606"
             inkscape:connector-curvature="0" /></g><g
           id="g10608"
           transform="translate(96.9175,106.312)"><path
             d="m 0,0 -0.56,-20.55 -4.32,0 0,-4.82 4.18,0 -0.16,-5.799"
             style="fill:none;stroke:#373535;stroke-width:0.249;stroke-linecap:round;stroke-linejoin:miter;stroke-miterlimit:10;stroke-dasharray:none;stroke-opacity:1"
             id="path10610"
             inkscape:connector-curvature="0" /></g><g
           id="g10612"
           transform="translate(114.6279,60.6719)"><path
             d="m 0,0 0,-2.55 14.729,0 0,2.55"
             style="fill:none;stroke:#373535;stroke-width:0.99199998;stroke-linecap:round;stroke-linejoin:miter;stroke-miterlimit:10;stroke-dasharray:none;stroke-opacity:1"
             id="path10614"
             inkscape:connector-curvature="0" /></g><g
           id="g10616"
           transform="translate(137.1582,59.252)"><path
             d="M 0,0 -3.54,0"
             style="fill:none;stroke:#373535;stroke-width:0.249;stroke-linecap:round;stroke-linejoin:miter;stroke-miterlimit:10;stroke-dasharray:none;stroke-opacity:1"
             id="path10618"
             inkscape:connector-curvature="0" /></g><g
           id="g10620"
           transform="translate(106.8276,60.6719)"><path
             d="M 0,0 30.331,0"
             style="fill:none;stroke:#373535;stroke-width:0.99199998;stroke-linecap:round;stroke-linejoin:miter;stroke-miterlimit:10;stroke-dasharray:none;stroke-opacity:1"
             id="path10622"
             inkscape:connector-curvature="0" /></g><g
           id="g10624"
           transform="translate(110.3779,59.252)"><path
             d="M 0,0 -3.55,0"
             style="fill:none;stroke:#373535;stroke-width:0.249;stroke-linecap:round;stroke-linejoin:miter;stroke-miterlimit:10;stroke-dasharray:none;stroke-opacity:1"
             id="path10626"
             inkscape:connector-curvature="0" /></g><path
           d="m 109.388,84.202 5.38,0 0,-2.83 -5.38,0 0,2.83 z"
           style="fill:none;stroke:#373535;stroke-width:0.49900001;stroke-linecap:round;stroke-linejoin:miter;stroke-miterlimit:10;stroke-dasharray:none;stroke-opacity:1"
           id="path10628"
           inkscape:connector-curvature="0" /><g
           id="g10630"
           transform="translate(135.0273,53.8721)"><path
             d="M 0,0 7.94,0"
             style="fill:none;stroke:#373535;stroke-width:0.99199998;stroke-linecap:round;stroke-linejoin:miter;stroke-miterlimit:10;stroke-dasharray:none;stroke-opacity:1"
             id="path10632"
             inkscape:connector-curvature="0" /></g><g
           id="g10634"
           transform="translate(144.3877,55.2822)"><path
             d="M 0,0 0,6.59"
             style="fill:none;stroke:#373535;stroke-width:0.99199998;stroke-linecap:round;stroke-linejoin:miter;stroke-miterlimit:10;stroke-dasharray:none;stroke-opacity:1"
             id="path10636"
             inkscape:connector-curvature="0" /></g><g
           id="g10638"
           transform="translate(133.6182,60.6719)"><path
             d="M 0,0 0,-5.39"
             style="fill:none;stroke:#373535;stroke-width:0.99199998;stroke-linecap:round;stroke-linejoin:miter;stroke-miterlimit:10;stroke-dasharray:none;stroke-opacity:1"
             id="path10640"
             inkscape:connector-curvature="0" /></g><path
           d="m 109.388,99.502 5.38,0 0,-2.84 -5.38,0 0,2.84 z"
           style="fill:none;stroke:#373535;stroke-width:0.49900001;stroke-linecap:round;stroke-linejoin:miter;stroke-miterlimit:10;stroke-dasharray:none;stroke-opacity:1"
           id="path10642"
           inkscape:connector-curvature="0" /><path
           d="m 129.218,84.202 5.38,0 0,-2.83 -5.38,0 0,2.83 z"
           style="fill:none;stroke:#373535;stroke-width:0.49900001;stroke-linecap:round;stroke-linejoin:miter;stroke-miterlimit:10;stroke-dasharray:none;stroke-opacity:1"
           id="path10644"
           inkscape:connector-curvature="0" /><path
           d="m 119.018,103.192 5.95,0 0,-24.521 -5.95,0 0,24.521 z"
           style="fill:none;stroke:#373535;stroke-width:0.249;stroke-linecap:round;stroke-linejoin:miter;stroke-miterlimit:10;stroke-dasharray:none;stroke-opacity:1"
           id="path10646"
           inkscape:connector-curvature="0" /><path
           d="m 129.218,99.502 5.38,0 0,-2.84 -5.38,0 0,2.84 z"
           style="fill:none;stroke:#373535;stroke-width:0.49900001;stroke-linecap:round;stroke-linejoin:miter;stroke-miterlimit:10;stroke-dasharray:none;stroke-opacity:1"
           id="path10648"
           inkscape:connector-curvature="0" /><g
           id="g10650"
           transform="translate(147.9277,75.1426)"><path
             d="m 0,0 -0.16,5.8 4.18,0 0,4.819 -4.32,0 -0.56,20.55"
             style="fill:none;stroke:#373535;stroke-width:0.249;stroke-linecap:round;stroke-linejoin:miter;stroke-miterlimit:10;stroke-dasharray:none;stroke-opacity:1"
             id="path10652"
             inkscape:connector-curvature="0" /></g><path
           d="m 129.078,122.882 -14.17,0 0,-1.41 14.17,0 0,1.41 z"
           style="fill:none;stroke:#373535;stroke-width:0.249;stroke-linecap:round;stroke-linejoin:miter;stroke-miterlimit:10;stroke-dasharray:none;stroke-opacity:1"
           id="path10654"
           inkscape:connector-curvature="0" /></g></g></g></svg>