<?xml version="1.0" encoding="UTF-8" standalone="no"?>
<svg
   xmlns:dc="http://purl.org/dc/elements/1.1/"
   xmlns:cc="http://creativecommons.org/ns#"
   xmlns:rdf="http://www.w3.org/1999/02/22-rdf-syntax-ns#"
   xmlns:svg="http://www.w3.org/2000/svg"
   xmlns="http://www.w3.org/2000/svg"
   xmlns:sodipodi="http://sodipodi.sourceforge.net/DTD/sodipodi-0.dtd"
   xmlns:inkscape="http://www.inkscape.org/namespaces/inkscape"
   xml:space="preserve"
   height="768.0"
   viewBox="0,0 65416,44563"
   width="1024.0"
   id="svg2"
   version="1.1"
   inkscape:version="0.91 r13725"
   sodipodi:docname="27 ALARM CIRCUIT.svg"><metadata
     id="metadata400"><rdf:RDF><cc:Work
         rdf:about=""><dc:format>image/svg+xml</dc:format><dc:type
           rdf:resource="http://purl.org/dc/dcmitype/StillImage" /></cc:Work></rdf:RDF></metadata><sodipodi:namedview
     pagecolor="#ffffff"
     bordercolor="#666666"
     borderopacity="1"
     objecttolerance="10"
     gridtolerance="10"
     guidetolerance="10"
     inkscape:pageopacity="0"
     inkscape:pageshadow="2"
     inkscape:window-width="2560"
     inkscape:window-height="1418"
     id="namedview398"
     showgrid="false"
     inkscape:zoom="2"
     inkscape:cx="512"
     inkscape:cy="384"
     inkscape:window-x="2552"
     inkscape:window-y="-8"
     inkscape:window-maximized="1"
     inkscape:current-layer="g162" /><defs
     id="defs4"><style
       type="text/css"
       id="style6"><![CDATA[
.A{stroke:#808080;stroke-width:59px;}
.B,.P{fill:#CCC;}
.C,.N,.I,.J,.H,.M,.K,.L,.D,.B,.G,.O,.P{stroke-linecap:square;}
.C,.N,.J,.H,.L,.D,.B{stroke-width:16px;}
.E,.A,.C,.N,.I,.J,.H,.M,.K,.L,.D,.B,.G,.O,.P{stroke-dasharray:none;}
.F{stroke-dasharray:983,491;}
.F,.E{stroke-width:85px;}
.F,.E,.A{stroke-linecap:butt;}
.F,.E,.A,.C{fill-opacity:0.0;fill:none;}
.F,.E,.A,.C,.D,.B,.O,.P{font-family:sans-serif;}
.F,.E,.A,.C,.G,.O,.P{stroke-opacity:1.0;}
.F,.E,.A,.C,.N,.I,.J,.H,.M,.K,.L,.D,.B,.G,.O,.P{fill-rule:evenodd;font-style:normal;font-weight:normal;stroke-linejoin:miter;stroke-miterlimit:10;}
.F,.E,.C,.N,.I,.J,.H,.K,.L,.D,.B,.G,.O,.P{stroke:#000;}
.H,.G{font-size:662px;}
.I,.J{font-size:469px;}
.I,.K,.D,.G,.O{fill:#000;}
.I,.M,.K,.G{stroke-width:0.5px;}
.K,.L{font-family:Tahoma;font-size:393px;}
.M{stroke:#999;fill:#999;}
.N,.I,.J,.H,.M,.G{font-family:Arial;}
.N,.I,.J,.H,.M,.K,.L,.D,.B{stroke-opacity:0.0;}
.N,.I,.J,.H,.M,.K,.L,.D,.B,.G,.O,.P{fill-opacity:1.0;}
.N,.J,.H,.L{fill:#FFF;}
.N,.M{font-size:312px;}
.O,.P{stroke-width:16.0px;}
]]></style></defs><g
     id="g8"><g
       id="g10"><circle
         class="O"
         cx="33244"
         cy="13629"
         r="270"
         id="circle12" /></g><g
       id="g14"><path
         class="B"
         d="M6161,21077v-338v-677v-338h338h338v338v677v338 z"
         id="path16" /><path
         class="C"
         d="M6161,20061v-338h677v338m0,677v338h-677v-338"
         id="path18" /></g><g
       id="g20"><path
         class="B"
         d="M52879,31910v-338v-677v-338h-338h-338v338v677v338 z"
         id="path22" /><path
         class="C"
         d="M52879,31572v338h-677v-338m0,-677v-338h677v338m-1015,338h677"
         id="path24" /></g><g
       id="g26"><circle
         class="O"
         cx="33921"
         cy="31233"
         r="270"
         id="circle28" /></g><g
       id="g30"><path
         class="B"
         d="M60327,23785v-338v-10156v-338h-338h-338v338v10156v338 z"
         id="path32" /><path
         class="C"
         d="M60327,13968v677m-677,-677v677m677,-1354v-338h-677v338m0,2031v1354m677,-1354v1354m-677,1354v2031m677,-2031v2031m-677,677v1354m677,-1354v1354m-677,1354v338h677v-338"
         id="path34" /></g><g
       id="g36"><path
         class="B"
         d="M6161,18369v-338v-1354v-338h338h338v338v1354v338 z"
         id="path38" /><path
         class="C"
         d="M6161,16676v-338h677v338m0,1354v338h-677v-338"
         id="path40" /></g><g
       id="g42"><circle
         class="O"
         cx="33244"
         cy="14983"
         r="270"
         id="circle44" /></g><g
       id="g46"><circle
         class="O"
         cx="33921"
         cy="23108"
         r="270"
         id="circle48" /></g><g
       id="g50"><circle
         class="P"
         cx="64897"
         cy="31233"
         r="169"
         id="circle52" /><circle
         class="P"
         cx="64897"
         cy="31233"
         r="101"
         id="circle54" /><rect
         class="P"
         x="64051"
         y="31165"
         width="677"
         height="135"
         id="rect56" /><rect
         class="P"
         x="63712"
         y="31165"
         width="338"
         height="135"
         id="rect58" /></g><g
       id="g60"><path
         class="B"
         d="M52202,31910v-338v-677v-338h-338h-338v338v677v338 z"
         id="path62" /><path
         class="C"
         d="M52202,31572v338h-677v-338m0,-677v-338h677v338m-338,338h677"
         id="path64" /></g><g
       id="g66"><path
         class="C"
         d="M6161,20739v338h-4739v-1354h4739v338"
         id="path68" /></g><g
       id="g70"><path
         class="C"
         d="M60327,13968v677m0,677v1354m0,1354v2031m0,677v1354m0,-8801v-338h4739v10833h-4739v-338"
         id="path72" /></g><g
       id="g74"><path
         class="C"
         d="M6161,18030v338h-4739v-2031h4739v338"
         id="path76" /></g><g
       id="g78"><path
         class="E"
         d="M6838,20400h52811"
         id="path80" /><path
         class="F"
         d="M6838,20400h52811"
         id="path82" /></g><g
       id="g84"><path
         class="E"
         d="M63712,31233h-10833"
         id="path86" /><path
         class="F"
         d="M63712,31233h-10833"
         id="path88" /></g><g
       id="g90"><path
         class="E"
         d="M33921,31233h17603"
         id="path92" /><circle
         class="D"
         cx="33921"
         cy="31233"
         r="42"
         id="circle94" /><path
         class="F"
         d="M33921,31233h17603"
         id="path96" /></g><g
       id="g98"><path
         class="E"
         d="M33921,31233v-8124"
         id="path100" /><circle
         class="D"
         cx="33921"
         cy="31233"
         r="42"
         id="circle102" /><circle
         class="D"
         cx="33921"
         cy="23108"
         r="42"
         id="circle104" /><path
         class="F"
         d="M33921,31233v-8124"
         id="path106" /></g><g
       id="g108"><path
         class="E"
         d="M33921,23108h25728"
         id="path110" /><circle
         class="D"
         cx="33921"
         cy="23108"
         r="42"
         id="circle112" /><path
         class="F"
         d="M33921,23108h25728"
         id="path114" /></g><g
       id="g116"><path
         class="E"
         d="M59650,22431h-25728"
         id="path118" /><circle
         class="D"
         cx="33921"
         cy="22431"
         r="42"
         id="circle120" /><path
         class="F"
         d="M59650,22431h-25728"
         id="path122" /><path
         class="E"
         d="M33921,22431v677"
         id="path124" /><circle
         class="D"
         cx="33921"
         cy="22431"
         r="42"
         id="circle126" /><circle
         class="D"
         cx="33921"
         cy="23108"
         r="42"
         id="circle128" /><path
         class="F"
         d="M33921,22431v677"
         id="path130" /></g><g
       id="g132"><path
         class="E"
         d="M33244,14983h26405"
         id="path134" /><path
         class="F"
         d="M33244,14983h26405"
         id="path136" /></g><g
       id="g138"><path
         class="E"
         d="M6838,17015h52811"
         id="path140" /><path
         class="F"
         d="M6838,17015h52811"
         id="path142" /></g><g
       id="g144"><path
         class="E"
         d="M6838,17692h52811"
         id="path146" /><path
         class="F"
         d="M6838,17692h52811"
         id="path148" /></g><g
       id="g150"><path
         class="E"
         d="M33244,13629h26405"
         id="path152" /><path
         class="F"
         d="M33244,13629h26405"
         id="path154" /></g><g
       id="g156"><rect
         class="H"
         x="32609"
         y="13893"
         width="1128"
         height="634"
         id="rect158" /><text
         class="I"
         x="32752"
         y="14396"
         id="text160">AC1</text>
</g><g
       id="g162"><rect
         class="J"
         x="7247"
         y="20094"
         width="2060"
         height="527"
         id="rect164" /><text
         class="I"
         x="7320"
         y="20607"
         id="text166"
         style="font-style:normal;font-weight:normal;font-size:469px;font-family:Arial;fill:#000000;fill-opacity:1;fill-rule:evenodd;stroke:#000000;stroke-width:0.5px;stroke-linecap:square;stroke-linejoin:miter;stroke-miterlimit:10;stroke-dasharray:none;stroke-opacity:0">CN1-11</text>
</g><g
       id="g168"><rect
         class="J"
         x="53288"
         y="30927"
         width="1805"
         height="527"
         id="rect170" /><text
         class="I"
         x="53361"
         y="31440"
         id="text172">H10M-1</text>
</g><g
       id="g174"><rect
         class="J"
         x="33413"
         y="31561"
         width="1157"
         height="634"
         id="rect176" /><text
         class="I"
         x="33557"
         y="32064"
         id="text178">PG1</text>
</g><g
       id="g180"><rect
         class="J"
         x="57801"
         y="22802"
         width="1439"
         height="527"
         id="rect182" /><text
         class="I"
         x="57874"
         y="23315"
         id="text184">M36-1</text>
</g><g
       id="g186"><rect
         class="J"
         x="57801"
         y="22125"
         width="1439"
         height="527"
         id="rect188" /><text
         class="I"
         x="57874"
         y="22638"
         id="text190">M36-2</text>
</g><g
       id="g192"><rect
         class="J"
         x="57801"
         y="13323"
         width="1439"
         height="527"
         id="rect194" /><text
         class="I"
         x="57874"
         y="13836"
         id="text196">M36-3</text>
</g><g
       id="g198"><rect
         class="J"
         x="57801"
         y="14677"
         width="1439"
         height="527"
         id="rect200" /><text
         class="I"
         x="57874"
         y="15190"
         id="text202">M36-4</text>
</g><g
       id="g204"><rect
         class="J"
         x="57801"
         y="16709"
         width="1439"
         height="527"
         id="rect206" /><text
         class="I"
         x="57874"
         y="17221"
         id="text208">M36-5</text>
</g><g
       id="g210"><rect
         class="J"
         x="57801"
         y="17386"
         width="1439"
         height="527"
         id="rect212" /><text
         class="I"
         x="57874"
         y="17898"
         id="text214">M36-6</text>
</g><g
       id="g216"><rect
         class="J"
         x="57801"
         y="20094"
         width="1439"
         height="527"
         id="rect218" /><text
         class="I"
         x="57874"
         y="20607"
         id="text220">M36-7</text>
</g><g
       id="g222"><rect
         class="J"
         x="7247"
         y="16709"
         width="1439"
         height="527"
         id="rect224" /><text
         class="I"
         x="7320"
         y="17221"
         id="text226">M01-8</text>
</g><g
       id="g228"><rect
         class="J"
         x="7247"
         y="17386"
         width="1439"
         height="527"
         id="rect230" /><text
         class="I"
         x="7320"
         y="17898"
         id="text232">M01-2</text>
</g><g
       id="g234"><rect
         class="J"
         x="32623"
         y="15247"
         width="1100"
         height="634"
         id="rect236" /><text
         class="I"
         x="32766"
         y="15750"
         id="text238">G11</text>
</g><g
       id="g240"><rect
         class="J"
         x="32133"
         y="22864"
         width="1439"
         height="634"
         id="rect242" /><text
         class="I"
         x="32277"
         y="23367"
         id="text244">PG11</text>
</g><g
       id="g246"><text
         class="K"
         x="59123"
         y="30722"
         id="text248">BATTERY NEGATIVE TERMINAL</text>
</g><g
       id="g250"><rect
         class="L"
         x="61864"
         y="30927"
         width="1439"
         height="527"
         id="rect252" /><text
         class="I"
         x="61937"
         y="31440"
         id="text254">M96-1</text>
</g><g
       id="g256"><text
         class="K"
         x="49980"
         y="30350"
         id="text258">BATTERY SUBHARNESS</text>
</g><g
       id="g260"><rect
         class="L"
         x="49733"
         y="30927"
         width="1383"
         height="527"
         id="rect262" /><text
         class="I"
         x="49806"
         y="31440"
         id="text264">H10-1</text>
</g><g
       id="g266"><text
         class="K"
         x="1497"
         y="19630"
         id="text268">CHASSIS ECM</text>
</g><g
       id="g270"><rect
         class="L"
         x="1506"
         y="20190"
         width="4608"
         height="351"
         id="rect272" /><text
         class="M"
         x="1555"
         y="20532"
         id="text274">Alarm Indicator, Tracker Driver</text>
</g><g
       id="g276"><text
         class="K"
         x="63751"
         y="12831"
         id="text278">ALARM</text>
</g><g
       id="g280"><rect
         class="L"
         x="60374"
         y="22898"
         width="1129"
         height="351"
         id="rect282" /><text
         class="M"
         x="60423"
         y="23241"
         id="text284">Ground</text>
</g><g
       id="g286"><rect
         class="N"
         x="60374"
         y="22221"
         width="1129"
         height="351"
         id="rect288" /><text
         class="M"
         x="60423"
         y="22564"
         id="text290">Ground</text>
</g><g
       id="g292"><rect
         class="N"
         x="60374"
         y="13419"
         width="1335"
         height="351"
         id="rect294" /><text
         class="M"
         x="60423"
         y="13762"
         id="text296">SUPPLY</text>
</g><g
       id="g298"><rect
         class="N"
         x="60374"
         y="14774"
         width="1504"
         height="351"
         id="rect300" /><text
         class="M"
         x="60423"
         y="15116"
         id="text302">IGNITION</text>
</g><g
       id="g304"><rect
         class="N"
         x="60374"
         y="16805"
         width="2210"
         height="351"
         id="rect306" /><text
         class="M"
         x="60423"
         y="17147"
         id="text308">ALARM LED +</text>
</g><g
       id="g310"><rect
         class="N"
         x="60374"
         y="17482"
         width="2125"
         height="351"
         id="rect312" /><text
         class="M"
         x="60423"
         y="17824"
         id="text314">ALARM LED -</text>
</g><g
       id="g316"><rect
         class="N"
         x="60374"
         y="20190"
         width="2783"
         height="351"
         id="rect318" /><text
         class="M"
         x="60423"
         y="20532"
         id="text320">LEFT INDICATOR</text>
</g><g
       id="g322"><text
         class="K"
         x="1463"
         y="16171"
         id="text324">INSTRUMENTS</text>
</g><g
       id="g326"><rect
         class="L"
         x="4741"
         y="17482"
         width="1372"
         height="351"
         id="rect328" /><text
         class="M"
         x="4790"
         y="17824"
         id="text330">ALARM -</text>
</g><g
       id="g332"><rect
         class="N"
         x="4656"
         y="16805"
         width="1457"
         height="351"
         id="rect334" /><text
         class="M"
         x="4705"
         y="17147"
         id="text336">ALARM +</text>
</g><g
       id="g338"><rect
         class="N"
         x="41892"
         y="20101"
         width="338"
         height="527"
         id="rect340" /><text
         class="I"
         x="41965"
         y="20613"
         id="text342">B</text>
</g><g
       id="g344"><rect
         class="J"
         x="57280"
         y="30969"
         width="338"
         height="527"
         id="rect346" /><text
         class="I"
         x="57353"
         y="31482"
         id="text348">B</text>
</g><g
       id="g350"><rect
         class="J"
         x="41893"
         y="30910"
         width="338"
         height="527"
         id="rect352" /><text
         class="I"
         x="41966"
         y="31423"
         id="text354">B</text>
</g><g
       id="g356"><rect
         class="J"
         x="33758"
         y="26677"
         width="338"
         height="527"
         id="rect358" /><text
         class="I"
         x="33831"
         y="27190"
         id="text360">B</text>
</g><g
       id="g362"><rect
         class="J"
         x="41884"
         y="22780"
         width="338"
         height="527"
         id="rect364" /><text
         class="I"
         x="41957"
         y="23293"
         id="text366">B</text>
</g><g
       id="g368"><rect
         class="J"
         x="41884"
         y="22103"
         width="338"
         height="527"
         id="rect370" /><text
         class="I"
         x="41957"
         y="22616"
         id="text372">B</text>
</g><g
       id="g374"><rect
         class="J"
         x="41845"
         y="14666"
         width="338"
         height="527"
         id="rect376" /><text
         class="I"
         x="41918"
         y="15179"
         id="text378">B</text>
</g><g
       id="g380"><rect
         class="J"
         x="41892"
         y="16715"
         width="338"
         height="527"
         id="rect382" /><text
         class="I"
         x="41965"
         y="17228"
         id="text384">B</text>
</g><g
       id="g386"><rect
         class="J"
         x="41892"
         y="17392"
         width="338"
         height="527"
         id="rect388" /><text
         class="I"
         x="41965"
         y="17905"
         id="text390">B</text>
</g><g
       id="g392"><rect
         class="J"
         x="41845"
         y="13312"
         width="338"
         height="527"
         id="rect394" /><text
         class="I"
         x="41918"
         y="13825"
         id="text396">B</text>
</g></g></svg>