<?xml version="1.0" encoding="UTF-8" standalone="no"?>
<svg
   xmlns:dc="http://purl.org/dc/elements/1.1/"
   xmlns:cc="http://creativecommons.org/ns#"
   xmlns:rdf="http://www.w3.org/1999/02/22-rdf-syntax-ns#"
   xmlns:svg="http://www.w3.org/2000/svg"
   xmlns="http://www.w3.org/2000/svg"
   xmlns:sodipodi="http://sodipodi.sourceforge.net/DTD/sodipodi-0.dtd"
   xmlns:inkscape="http://www.inkscape.org/namespaces/inkscape"
   xml:space="preserve"
   height="768.0"
   viewBox="0,0 65416,44453"
   width="1024.0"
   id="svg2"
   version="1.1"
   inkscape:version="0.91 r13725"
   sodipodi:docname="26 HEATED ACCESSORIES CIRCUIT.svg"><metadata
     id="metadata496"><rdf:RDF><cc:Work
         rdf:about=""><dc:format>image/svg+xml</dc:format><dc:type
           rdf:resource="http://purl.org/dc/dcmitype/StillImage" /></cc:Work></rdf:RDF></metadata><sodipodi:namedview
     pagecolor="#ffffff"
     bordercolor="#666666"
     borderopacity="1"
     objecttolerance="10"
     gridtolerance="10"
     guidetolerance="10"
     inkscape:pageopacity="0"
     inkscape:pageshadow="2"
     inkscape:window-width="2560"
     inkscape:window-height="1418"
     id="namedview494"
     showgrid="false"
     inkscape:zoom="2"
     inkscape:cx="512"
     inkscape:cy="384"
     inkscape:window-x="2552"
     inkscape:window-y="-8"
     inkscape:window-maximized="1"
     inkscape:current-layer="g8" /><defs
     id="defs4"><style
       type="text/css"
       id="style6"><![CDATA[
.A{stroke-width:59px;}
.A,.B{stroke:#808080;}
.A,.L,.F,.I,.C,.T,.U,.P,.Q,.O,.R,.S,.E,.D,.G,.B,.J,.N,.V,.W{stroke-dasharray:none;}
.C,.T,.U,.P,.Q,.O,.R,.S,.E,.D,.G,.B,.J,.N,.V,.W{stroke-linecap:square;}
.C,.U,.Q,.O,.S,.E,.D,.G,.B,.J{stroke-width:16px;}
.D,.B,.W{fill:#CCC;}
.G{fill:#0C0;}
.H,.F,.G{stroke:#0C0;}
.I,.J{stroke:#D3D3D3;}
.J{fill:#F9F;}
.K,.U,.Q,.O,.S{stroke:#F9F;}
.M,.H,.K{stroke-dasharray:117,58;}
.M,.H,.K,.A,.L,.F,.I{stroke-linecap:butt;}
.M,.H,.K,.A,.L,.F,.I,.C{fill-opacity:0.0;fill:none;}
.M,.H,.K,.A,.L,.F,.I,.C,.E,.D,.G,.B,.J,.V,.W{font-family:sans-serif;}
.M,.H,.K,.A,.L,.F,.I,.C,.N,.V,.W{stroke-opacity:1.0;}
.M,.H,.K,.A,.L,.F,.I,.C,.T,.U,.P,.Q,.O,.R,.S,.E,.D,.G,.B,.J,.N,.V,.W{fill-rule:evenodd;font-style:normal;font-weight:normal;stroke-linejoin:miter;stroke-miterlimit:10;}
.M,.H,.K,.L,.F,.I{stroke-width:84px;}
.M,.L,.C,.P,.R,.E,.D,.N,.V,.W{stroke:#000;}
.O,.N{font-size:660px;}
.P,.Q{font-size:468px;}
.P,.R,.E,.N,.V{fill:#000;}
.R,.S{font-family:Tahoma;font-size:392px;}
.T{stroke:#999;fill:#999;}
.T,.P,.R,.N{stroke-width:0.5px;}
.T,.U{font-size:312px;}
.T,.U,.P,.Q,.O,.N{font-family:Arial;}
.T,.U,.P,.Q,.O,.R,.S,.E,.D,.G,.B,.J{stroke-opacity:0.0;}
.T,.U,.P,.Q,.O,.R,.S,.E,.D,.G,.B,.J,.N,.V,.W{fill-opacity:1.0;}
.U,.Q,.O,.S{fill:#FFF;}
.V,.W{stroke-width:16.0px;}
]]></style></defs><g
     id="g8"><g
       id="g10"><path
         class="B"
         d="M60332,16275v-337v-2027v-337h-337h-337v337v2027v337 z"
         id="path12" /><path
         class="C"
         d="M60332,13909v-337h-675v337m0,2027v337h675v-337"
         id="path14" /></g><g
       id="g16"><path
         class="D"
         d="M60332,18979v-337v-1351v-337h-337h-337v337v1351v337 z"
         id="path18" /><path
         class="C"
         d="M60332,17289v-337h-675v337m0,1351v337h675v-337"
         id="path20" /></g><g
       id="g22"><circle
         class="V"
         cx="54249"
         cy="18303"
         r="270"
         id="circle24" /></g><g
       id="g26"><path
         class="D"
         d="M44110,18979v-337v-2703v-337h337h337v337v2703v337 z"
         id="path28" /><path
         class="C"
         d="M44110,18641v337h675v-337m0,-2703v-337h-675v337m337,337h-675m675,675h-675m675,675h-675m675,675h-675"
         id="path30" /></g><g
       id="g32"><path
         class="D"
         d="M43434,18979v-337v-2703v-337h337h337v337v2703v337 z"
         id="path34" /><path
         class="C"
         d="M43434,18641v337h675v-337m0,-2703v-337h-675v337m1013,337h-675m675,675h-675m675,675h-675m675,675h-675"
         id="path36" /></g><g
       id="g38"><path
         class="D"
         d="M6258,18303v-337v-2027v-337h337h337v337v2027v337 z"
         id="path40" /><path
         class="C"
         d="M6258,15937v-337h675v337m0,2027v337h-675v-337"
         id="path42" /></g><g
       id="g44"><circle
         class="V"
         cx="24508"
         cy="23034"
         r="270"
         id="circle46" /></g><g
       id="g48"><circle
         class="V"
         cx="24508"
         cy="18303"
         r="270"
         id="circle50" /></g><g
       id="g52"><path
         class="D"
         d="M44786,23710v-337v-675v-337h-337h-337v337v675v337 z"
         id="path54" /><path
         class="C"
         d="M44786,23372v337h-675v-337m0,-675v-337h675v337m-1013,337h675"
         id="path56" /></g><g
       id="g58"><path
         class="D"
         d="M44110,23710v-337v-675v-337h-337h-337v337v675v337 z"
         id="path60" /><path
         class="C"
         d="M44110,23372v337h-675v-337m0,-675v-337h675v337m-337,337h675"
         id="path62" /></g><g
       id="g64"><circle
         class="W"
         cx="64895"
         cy="23034"
         r="168"
         id="circle66" /><circle
         class="W"
         cx="64895"
         cy="23034"
         r="101"
         id="circle68" /><rect
         class="W"
         x="64050"
         y="22967"
         width="675"
         height="135"
         id="rect70" /><rect
         class="W"
         x="63712"
         y="22967"
         width="337"
         height="135"
         id="rect72" /></g><g
       id="g74"><path
         class="C"
         d="M60332,13909v-337h4731v2703h-4731v-337"
         id="path76" /></g><g
       id="g78"><path
         class="C"
         d="M60332,17289v-337h4731v2027h-4731v-337"
         id="path80" /></g><g
       id="g82"><path
         class="C"
         d="M6258,17965v337h-4731v-2703h4731v337"
         id="path84" /></g><g
       id="g86"><path
         class="F"
         d="M59657,14247h-6759"
         id="path88" /><circle
         class="G"
         cx="52897"
         cy="14247"
         r="42"
         id="circle90" /><path
         class="H"
         d="M59657,14247h-6759"
         id="path92" /><path
         class="F"
         d="M52897,14247v2027"
         id="path94" /><circle
         class="G"
         cx="52897"
         cy="14247"
         r="42"
         id="circle96" /><circle
         class="G"
         cx="52897"
         cy="16275"
         r="42"
         id="circle98" /><path
         class="H"
         d="M52897,14247v2027"
         id="path100" /><path
         class="F"
         d="M52897,16275h-8111"
         id="path102" /><circle
         class="G"
         cx="52897"
         cy="16275"
         r="42"
         id="circle104" /><path
         class="H"
         d="M52897,16275h-8111"
         id="path106" /></g><g
       id="g108"><path
         class="I"
         d="M59657,14923h-6083"
         id="path110" /><circle
         class="J"
         cx="53573"
         cy="14923"
         r="42"
         id="circle112" /><path
         class="K"
         d="M59657,14923h-6083"
         id="path114" /><path
         class="I"
         d="M53573,14923v2027"
         id="path116" /><circle
         class="J"
         cx="53573"
         cy="14923"
         r="42"
         id="circle118" /><circle
         class="J"
         cx="53573"
         cy="16951"
         r="42"
         id="circle120" /><path
         class="K"
         d="M53573,14923v2027"
         id="path122" /><path
         class="I"
         d="M53573,16951h-8787"
         id="path124" /><circle
         class="J"
         cx="53573"
         cy="16951"
         r="42"
         id="circle126" /><path
         class="K"
         d="M53573,16951h-8787"
         id="path128" /></g><g
       id="g130"><path
         class="L"
         d="M59657,15599h-5407"
         id="path132" /><circle
         class="E"
         cx="54249"
         cy="15599"
         r="42"
         id="circle134" /><path
         class="M"
         d="M59657,15599h-5407"
         id="path136" /><path
         class="L"
         d="M54249,15599v2703"
         id="path138" /><circle
         class="E"
         cx="54249"
         cy="15599"
         r="42"
         id="circle140" /><circle
         class="E"
         cx="54249"
         cy="18303"
         r="42"
         id="circle142" /><path
         class="M"
         d="M54249,15599v2703"
         id="path144" /></g><g
       id="g146"><path
         class="L"
         d="M54249,18303h5407"
         id="path148" /><circle
         class="E"
         cx="54249"
         cy="18303"
         r="42"
         id="circle150" /><path
         class="M"
         d="M54249,18303h5407"
         id="path152" /></g><g
       id="g154"><path
         class="L"
         d="M44786,17627h14870"
         id="path156" /><path
         class="K"
         d="M44786,17627h14870"
         id="path158" /></g><g
       id="g160"><path
         class="L"
         d="M54249,18303h-9462"
         id="path162" /><circle
         class="E"
         cx="54249"
         cy="18303"
         r="42"
         id="circle164" /><path
         class="M"
         d="M54249,18303h-9462"
         id="path166" /></g><g
       id="g168"><path
         class="L"
         d="M24508,18303h18925"
         id="path170" /><circle
         class="E"
         cx="24508"
         cy="18303"
         r="42"
         id="circle172" /><path
         class="M"
         d="M24508,18303h18925"
         id="path174" /></g><g
       id="g176"><path
         class="F"
         d="M6934,16275h36499"
         id="path178" /><path
         class="M"
         d="M6934,16275h36499"
         id="path180" /></g><g
       id="g182"><path
         class="L"
         d="M6934,17627h36499"
         id="path184" /><path
         class="K"
         d="M6934,17627h36499"
         id="path186" /></g><g
       id="g188"><path
         class="L"
         d="M24508,23034h18925"
         id="path190" /><circle
         class="E"
         cx="24508"
         cy="23034"
         r="42"
         id="circle192" /><path
         class="M"
         d="M24508,23034h18925"
         id="path194" /></g><g
       id="g196"><path
         class="L"
         d="M24508,23034v-4731"
         id="path198" /><circle
         class="E"
         cx="24508"
         cy="23034"
         r="42"
         id="circle200" /><circle
         class="E"
         cx="24508"
         cy="18303"
         r="42"
         id="circle202" /><path
         class="M"
         d="M24508,23034v-4731"
         id="path204" /></g><g
       id="g206"><path
         class="L"
         d="M44786,23034h18925"
         id="path208" /><path
         class="M"
         d="M44786,23034h18925"
         id="path210" /></g><g
       id="g212"><path
         class="I"
         d="M6934,16951h36499"
         id="path214" /><path
         class="K"
         d="M6934,16951h36499"
         id="path216" /></g><g
       id="g218"><rect
         class="O"
         x="57811"
         y="13942"
         width="1436"
         height="526"
         id="rect220" /><text
         class="P"
         x="57884"
         y="14454"
         id="text222">M84-3</text>
</g><g
       id="g224"><rect
         class="Q"
         x="57811"
         y="14618"
         width="1436"
         height="526"
         id="rect226" /><text
         class="P"
         x="57884"
         y="15129"
         id="text228">M84-2</text>
</g><g
       id="g230"><rect
         class="Q"
         x="57811"
         y="15294"
         width="1436"
         height="526"
         id="rect232" /><text
         class="P"
         x="57884"
         y="15805"
         id="text234">M84-1</text>
</g><g
       id="g236"><rect
         class="Q"
         x="57811"
         y="17997"
         width="1436"
         height="526"
         id="rect238" /><text
         class="P"
         x="57884"
         y="18509"
         id="text240">M83-2</text>
</g><g
       id="g242"><rect
         class="Q"
         x="57811"
         y="17321"
         width="1436"
         height="526"
         id="rect244" /><text
         class="P"
         x="57884"
         y="17833"
         id="text246">M83-1</text>
</g><g
       id="g248"><rect
         class="Q"
         x="45195"
         y="16645"
         width="1802"
         height="526"
         id="rect250" /><text
         class="P"
         x="45268"
         y="17157"
         id="text252">H04M-1</text>
</g><g
       id="g254"><rect
         class="Q"
         x="45195"
         y="17997"
         width="1802"
         height="526"
         id="rect256" /><text
         class="P"
         x="45268"
         y="18509"
         id="text258">H04M-4</text>
</g><g
       id="g260"><rect
         class="Q"
         x="45195"
         y="15970"
         width="1802"
         height="526"
         id="rect262" /><text
         class="P"
         x="45268"
         y="16481"
         id="text264">H04M-3</text>
</g><g
       id="g266"><rect
         class="Q"
         x="45195"
         y="17321"
         width="1802"
         height="526"
         id="rect268" /><text
         class="P"
         x="45268"
         y="17833"
         id="text270">H04M-2</text>
</g><g
       id="g272"><text
         class="R"
         x="41571"
         y="15478"
         id="text274">HEATED GRIPS SUBHARNESS</text>
</g><g
       id="g276"><rect
         class="S"
         x="41645"
         y="16645"
         width="1380"
         height="526"
         id="rect278" /><text
         class="P"
         x="41718"
         y="17157"
         id="text280">H04-1</text>
</g><g
       id="g282"><rect
         class="Q"
         x="41645"
         y="17997"
         width="1380"
         height="526"
         id="rect284" /><text
         class="P"
         x="41718"
         y="18509"
         id="text286">H04-4</text>
</g><g
       id="g288"><rect
         class="Q"
         x="41645"
         y="15970"
         width="1380"
         height="526"
         id="rect290" /><text
         class="P"
         x="41718"
         y="16481"
         id="text292">H04-3</text>
</g><g
       id="g294"><rect
         class="Q"
         x="41645"
         y="17321"
         width="1380"
         height="526"
         id="rect296" /><text
         class="P"
         x="41718"
         y="17833"
         id="text298">H04-2</text>
</g><g
       id="g300"><rect
         class="Q"
         x="7343"
         y="17321"
         width="2056"
         height="526"
         id="rect302" /><text
         class="P"
         x="7416"
         y="17833"
         id="text304"
         style="font-style:normal;font-weight:normal;font-size:468px;font-family:Arial;fill:#000000;fill-opacity:1;fill-rule:evenodd;stroke:#000000;stroke-width:0.5px;stroke-linecap:square;stroke-linejoin:miter;stroke-miterlimit:10;stroke-dasharray:none;stroke-opacity:0">CN2-11</text>
</g><g
       id="g306"><rect
         class="Q"
         x="7343"
         y="16645"
         width="2056"
         height="526"
         id="rect308" /><text
         class="P"
         x="7416"
         y="17157"
         id="text310"
         style="font-style:normal;font-weight:normal;font-size:468px;font-family:Arial;fill:#000000;fill-opacity:1;fill-rule:evenodd;stroke:#000000;stroke-width:0.5px;stroke-linecap:square;stroke-linejoin:miter;stroke-miterlimit:10;stroke-dasharray:none;stroke-opacity:0">CN2-12</text>
</g><g
       id="g312"><rect
         class="Q"
         x="7343"
         y="15970"
         width="2056"
         height="526"
         id="rect314" /><text
         class="P"
         x="7416"
         y="16481"
         id="text316"
         style="font-style:normal;font-weight:normal;font-size:468px;font-family:Arial;fill:#000000;fill-opacity:1;fill-rule:evenodd;stroke:#000000;stroke-width:0.5px;stroke-linecap:square;stroke-linejoin:miter;stroke-miterlimit:10;stroke-dasharray:none;stroke-opacity:0">CN2-15</text>
</g><g
       id="g318"><rect
         class="Q"
         x="24020"
         y="23409"
         width="1155"
         height="633"
         id="rect320" /><text
         class="P"
         x="24164"
         y="23911"
         id="text322">PG1</text>
</g><g
       id="g324"><rect
         class="Q"
         x="22719"
         y="17958"
         width="1437"
         height="633"
         id="rect326" /><text
         class="P"
         x="22863"
         y="18459"
         id="text328">PG13</text>
</g><g
       id="g330"><rect
         class="Q"
         x="45195"
         y="22729"
         width="1802"
         height="526"
         id="rect332" /><text
         class="P"
         x="45268"
         y="23241"
         id="text334">H10M-1</text>
</g><g
       id="g336"><text
         class="R"
         x="41860"
         y="22002"
         id="text338">BATTERY SUBHARNESS</text>
</g><g
       id="g340"><rect
         class="S"
         x="41645"
         y="22729"
         width="1380"
         height="526"
         id="rect342" /><text
         class="P"
         x="41718"
         y="23241"
         id="text344">H10-1</text>
</g><g
       id="g346"><text
         class="R"
         x="59131"
         y="22644"
         id="text348">BATTERY NEGATIVE TERMINAL</text>
</g><g
       id="g350"><rect
         class="S"
         x="61867"
         y="22729"
         width="1436"
         height="526"
         id="rect352" /><text
         class="P"
         x="61940"
         y="23241"
         id="text354">M96-1</text>
</g><g
       id="g356"><text
         class="R"
         x="61422"
         y="13472"
         id="text358">LEFT HEATED GRIP</text>
</g><g
       id="g360"><rect
         class="S"
         x="60379"
         y="15390"
         width="1127"
         height="351"
         id="rect362" /><text
         class="T"
         x="60427"
         y="15731"
         id="text364">Ground</text>
</g><g
       id="g366"><rect
         class="U"
         x="60379"
         y="14714"
         width="957"
         height="351"
         id="rect368" /><text
         class="T"
         x="60427"
         y="15055"
         id="text370">Power</text>
</g><g
       id="g372"><rect
         class="U"
         x="60379"
         y="14038"
         width="995"
         height="351"
         id="rect374" /><text
         class="T"
         x="60427"
         y="14380"
         id="text376">Switch</text>
</g><g
       id="g378"><text
         class="R"
         x="61077"
         y="16830"
         id="text380">RIGHT HEATED GRIP</text>
</g><g
       id="g382"><rect
         class="S"
         x="60379"
         y="17417"
         width="957"
         height="351"
         id="rect384" /><text
         class="T"
         x="60427"
         y="17759"
         id="text386">Power</text>
</g><g
       id="g388"><rect
         class="U"
         x="60379"
         y="18093"
         width="1127"
         height="351"
         id="rect390" /><text
         class="T"
         x="60427"
         y="18435"
         id="text392">Ground</text>
</g><g
       id="g394"><text
         class="R"
         x="1557"
         y="15547"
         id="text396">CHASSIS ECM</text>
</g><g
       id="g398"><rect
         class="S"
         x="3338"
         y="17417"
         width="2873"
         height="351"
         id="rect400" /><text
         class="T"
         x="3386"
         y="17759"
         id="text402">Heated Grips Right</text>
</g><g
       id="g404"><rect
         class="U"
         x="3563"
         y="16742"
         width="2648"
         height="351"
         id="rect406" /><text
         class="T"
         x="3611"
         y="17083"
         id="text408">Heated Grips Left</text>
</g><g
       id="g410"><rect
         class="U"
         x="2362"
         y="16066"
         width="3849"
         height="351"
         id="rect412" /><text
         class="T"
         x="2410"
         y="16407"
         id="text414">Heated Grips Microswitch</text>
</g><g
       id="g416"><rect
         class="U"
         x="50755"
         y="15902"
         width="394"
         height="526"
         id="rect418" /><text
         class="P"
         x="50828"
         y="16413"
         id="text420">G</text>
</g><g
       id="g422"><rect
         class="Q"
         x="50463"
         y="16607"
         width="957"
         height="526"
         id="rect424" /><text
         class="P"
         x="50536"
         y="17119"
         id="text426">K/W</text>
</g><g
       id="g428"><rect
         class="Q"
         x="55478"
         y="15325"
         width="337"
         height="526"
         id="rect430" /><text
         class="P"
         x="55551"
         y="15837"
         id="text432">B</text>
</g><g
       id="g434"><rect
         class="Q"
         x="55474"
         y="17975"
         width="337"
         height="526"
         id="rect436" /><text
         class="P"
         x="55547"
         y="18487"
         id="text438">B</text>
</g><g
       id="g440"><rect
         class="Q"
         x="50480"
         y="17364"
         width="817"
         height="526"
         id="rect442" /><text
         class="P"
         x="50553"
         y="17875"
         id="text444">K/B</text>
</g><g
       id="g446"><rect
         class="Q"
         x="50771"
         y="17975"
         width="337"
         height="526"
         id="rect448" /><text
         class="P"
         x="50844"
         y="18487"
         id="text450">B</text>
</g><g
       id="g452"><rect
         class="Q"
         x="31944"
         y="18040"
         width="337"
         height="526"
         id="rect454" /><text
         class="P"
         x="32017"
         y="18551"
         id="text456">B</text>
</g><g
       id="g458"><rect
         class="Q"
         x="31640"
         y="15979"
         width="873"
         height="526"
         id="rect460" /><text
         class="P"
         x="31713"
         y="16490"
         id="text462">B/G</text>
</g><g
       id="g464"><rect
         class="Q"
         x="31668"
         y="17331"
         width="817"
         height="526"
         id="rect466" /><text
         class="P"
         x="31741"
         y="17842"
         id="text468">K/B</text>
</g><g
       id="g470"><rect
         class="Q"
         x="31944"
         y="22771"
         width="337"
         height="526"
         id="rect472" /><text
         class="P"
         x="32017"
         y="23283"
         id="text474">B</text>
</g><g
       id="g476"><rect
         class="Q"
         x="24325"
         y="20182"
         width="337"
         height="526"
         id="rect478" /><text
         class="P"
         x="24398"
         y="20694"
         id="text480">B</text>
</g><g
       id="g482"><rect
         class="Q"
         x="50776"
         y="22726"
         width="337"
         height="526"
         id="rect484" /><text
         class="P"
         x="50849"
         y="23238"
         id="text486">B</text>
</g><g
       id="g488"><rect
         class="Q"
         x="31598"
         y="16655"
         width="957"
         height="526"
         id="rect490" /><text
         class="P"
         x="31671"
         y="17166"
         id="text492">K/W</text>
</g></g></svg>