<?xml version="1.0" encoding="UTF-8" standalone="no"?>
<!-- Created with Inkscape (http://www.inkscape.org/) -->

<svg
   xmlns:dc="http://purl.org/dc/elements/1.1/"
   xmlns:cc="http://creativecommons.org/ns#"
   xmlns:rdf="http://www.w3.org/1999/02/22-rdf-syntax-ns#"
   xmlns:svg="http://www.w3.org/2000/svg"
   xmlns="http://www.w3.org/2000/svg"
   xmlns:sodipodi="http://sodipodi.sourceforge.net/DTD/sodipodi-0.dtd"
   xmlns:inkscape="http://www.inkscape.org/namespaces/inkscape"
   version="1.1"
   id="svg9096"
   xml:space="preserve"
   width="321.26001"
   height="245.66933"
   viewBox="0 0 321.26001 245.66933"
   sodipodi:docname="ckrv.svg"
   inkscape:version="0.92.4 (5da689c313, 2019-01-14)"><metadata
     id="metadata9102"><rdf:RDF><cc:Work
         rdf:about=""><dc:format>image/svg+xml</dc:format><dc:type
           rdf:resource="http://purl.org/dc/dcmitype/StillImage" /><dc:title></dc:title></cc:Work></rdf:RDF></metadata><defs
     id="defs9100"><clipPath
       clipPathUnits="userSpaceOnUse"
       id="clipPath9112"><path
         d="M 0,0 H 240.945 V 184.252 H 0 Z"
         id="path9110"
         inkscape:connector-curvature="0" /></clipPath></defs><sodipodi:namedview
     pagecolor="#ffffff"
     bordercolor="#666666"
     borderopacity="1"
     objecttolerance="10"
     gridtolerance="10"
     guidetolerance="10"
     inkscape:pageopacity="0"
     inkscape:pageshadow="2"
     inkscape:window-width="640"
     inkscape:window-height="480"
     id="namedview9098"
     showgrid="false"
     inkscape:zoom="4.9171788"
     inkscape:cx="160.63"
     inkscape:cy="122.83466"
     inkscape:window-x="0"
     inkscape:window-y="0"
     inkscape:window-maximized="1"
     inkscape:current-layer="g9104" /><g
     id="g9104"
     inkscape:groupmode="layer"
     inkscape:label="ckrv"
     transform="matrix(1.3333333,0,0,-1.3333333,0,245.66933)"><g
       id="g9106"><g
         id="g9108"
         clip-path="url(#clipPath9112)"><g
           id="g9114"
           transform="translate(52.5931,152.169)"><path
             d="m 0,0 c 3.879,-2.004 5.249,-7.062 3.061,-11.298 -2.189,-4.235 -7.108,-6.045 -10.986,-4.041"
             style="fill:none;stroke:#000000;stroke-width:0.5;stroke-linecap:round;stroke-linejoin:round;stroke-miterlimit:10;stroke-dasharray:none;stroke-opacity:1"
             id="path9116"
             inkscape:connector-curvature="0" /></g><g
           id="g9118"
           transform="translate(44.6683,136.8301)"><path
             d="m 0,0 c -3.879,2.004 -5.249,7.062 -3.061,11.298 2.189,4.236 7.108,6.045 10.986,4.041"
             style="fill:none;stroke:#000000;stroke-width:1;stroke-linecap:round;stroke-linejoin:round;stroke-miterlimit:10;stroke-dasharray:none;stroke-opacity:1"
             id="path9120"
             inkscape:connector-curvature="0" /></g><g
           id="g9122"
           transform="translate(52.0042,152.3492)"><path
             d="m 0,0 c 2.583,-2.417 3.266,-6.571 1.421,-10.141 -1.974,-3.822 -6.172,-5.669 -9.822,-4.521"
             style="fill:none;stroke:#000000;stroke-width:0.5;stroke-linecap:round;stroke-linejoin:round;stroke-miterlimit:10;stroke-dasharray:none;stroke-opacity:1"
             id="path9124"
             inkscape:connector-curvature="0" /></g><g
           id="g9126"
           transform="translate(50.7913,152.5137)"><path
             d="m 0,0 c 1.714,-2.455 1.979,-5.924 0.406,-8.969 -1.763,-3.412 -5.298,-5.25 -8.634,-4.787"
             style="fill:none;stroke:#000000;stroke-width:0.5;stroke-linecap:round;stroke-linejoin:round;stroke-miterlimit:10;stroke-dasharray:none;stroke-opacity:1"
             id="path9128"
             inkscape:connector-curvature="0" /></g><g
           id="g9130"
           transform="translate(49.3064,152.5254)"><path
             d="m 0,0 c 1.008,-2.291 0.97,-5.114 -0.337,-7.644 -1.49,-2.883 -4.246,-4.643 -7.076,-4.839"
             style="fill:none;stroke:#000000;stroke-width:0.5;stroke-linecap:round;stroke-linejoin:round;stroke-miterlimit:10;stroke-dasharray:none;stroke-opacity:1"
             id="path9132"
             inkscape:connector-curvature="0" /></g><g
           id="g9134"
           transform="translate(47.4861,152.7046)"><path
             d="m 0,0 c 0.554,-2.044 0.35,-4.368 -0.745,-6.486 -1.234,-2.39 -3.34,-4.008 -5.637,-4.604"
             style="fill:none;stroke:#000000;stroke-width:0.5;stroke-linecap:round;stroke-linejoin:round;stroke-miterlimit:10;stroke-dasharray:none;stroke-opacity:1"
             id="path9136"
             inkscape:connector-curvature="0" /></g><g
           id="g9138"
           transform="translate(45.5516,152.045)"><path
             d="m 0,0 c 0.044,-1.489 -0.288,-3.037 -1.038,-4.489 -0.909,-1.759 -2.289,-3.1 -3.87,-3.923"
             style="fill:none;stroke:#000000;stroke-width:0.5;stroke-linecap:round;stroke-linejoin:round;stroke-miterlimit:10;stroke-dasharray:none;stroke-opacity:1"
             id="path9140"
             inkscape:connector-curvature="0" /></g><g
           id="g9142"
           transform="translate(56.0569,51.9688)"><path
             d="m 0,0 c 2.717,-2.115 2.774,-6.584 0.128,-9.984 -2.645,-3.401 -6.992,-4.444 -9.708,-2.329"
             style="fill:none;stroke:#000000;stroke-width:0.5;stroke-linecap:round;stroke-linejoin:round;stroke-miterlimit:10;stroke-dasharray:none;stroke-opacity:1"
             id="path9144"
             inkscape:connector-curvature="0" /></g><g
           id="g9146"
           transform="translate(46.4769,39.6563)"><path
             d="m 0,0 c -2.717,2.112 -2.775,6.582 -0.129,9.981 2.645,3.402 6.993,4.444 9.709,2.332"
             style="fill:none;stroke:#000000;stroke-width:1;stroke-linecap:round;stroke-linejoin:round;stroke-miterlimit:10;stroke-dasharray:none;stroke-opacity:1"
             id="path9148"
             inkscape:connector-curvature="0" /></g><g
           id="g9150"
           transform="translate(55.6185,52.1827)"><path
             d="m 0,0 c 1.584,-2.335 1.274,-5.96 -0.955,-8.826 -2.387,-3.068 -6.16,-4.217 -8.869,-2.859"
             style="fill:none;stroke:#000000;stroke-width:0.5;stroke-linecap:round;stroke-linejoin:round;stroke-miterlimit:10;stroke-dasharray:none;stroke-opacity:1"
             id="path9152"
             inkscape:connector-curvature="0" /></g><g
           id="g9154"
           transform="translate(54.6731,52.4473)"><path
             d="m 0,0 c 0.875,-2.277 0.37,-5.272 -1.532,-7.717 -2.132,-2.738 -5.367,-3.949 -7.965,-3.209"
             style="fill:none;stroke:#000000;stroke-width:0.5;stroke-linecap:round;stroke-linejoin:round;stroke-miterlimit:10;stroke-dasharray:none;stroke-opacity:1"
             id="path9156"
             inkscape:connector-curvature="0" /></g><g
           id="g9158"
           transform="translate(53.4764,52.6114)"><path
             d="m 0,0 c 0.339,-2.065 -0.277,-4.478 -1.857,-6.508 -1.802,-2.314 -4.392,-3.538 -6.718,-3.415"
             style="fill:none;stroke:#000000;stroke-width:0.5;stroke-linecap:round;stroke-linejoin:round;stroke-miterlimit:10;stroke-dasharray:none;stroke-opacity:1"
             id="path9160"
             inkscape:connector-curvature="0" /></g><g
           id="g9162"
           transform="translate(52.0437,52.9502)"><path
             d="m 0,0 c 0.023,-1.805 -0.624,-3.772 -1.946,-5.473 -1.493,-1.92 -3.529,-3.088 -5.507,-3.362"
             style="fill:none;stroke:#000000;stroke-width:0.5;stroke-linecap:round;stroke-linejoin:round;stroke-miterlimit:10;stroke-dasharray:none;stroke-opacity:1"
             id="path9164"
             inkscape:connector-curvature="0" /></g><g
           id="g9166"
           transform="translate(50.345,52.585)"><path
             d="M 0,0 C -0.274,-1.277 -0.863,-2.569 -1.77,-3.735 -2.868,-5.147 -4.261,-6.153 -5.708,-6.694"
             style="fill:none;stroke:#000000;stroke-width:0.5;stroke-linecap:round;stroke-linejoin:round;stroke-miterlimit:10;stroke-dasharray:none;stroke-opacity:1"
             id="path9168"
             inkscape:connector-curvature="0" /></g><g
           id="g9170"
           transform="translate(165.1668,159.0855)"><path
             d="M 0,0 C 1.5,0 2.333,-0.667 2.333,-1.833 2.333,-3 2.5,-4.667 2.5,-5.5 2.5,-6.333 3.666,-8 -0.167,-8.333 -4,-8.667 -24,-13.333 -27.5,-14 c -3.5,-0.667 -5.333,-3 -5.833,-4.5"
             style="fill:none;stroke:#000000;stroke-width:1;stroke-linecap:round;stroke-linejoin:round;stroke-miterlimit:10;stroke-dasharray:none;stroke-opacity:1"
             id="path9172"
             inkscape:connector-curvature="0" /></g><g
           id="g9174"
           transform="translate(33.1824,134.0674)"><path
             d="M 0,0 C 0.833,-0.364 1.58,-0.928 2.163,-1.658 3.481,-3.31 5.134,-4.706 7.103,-5.723"
             style="fill:none;stroke:#000000;stroke-width:0.5;stroke-linecap:round;stroke-linejoin:round;stroke-miterlimit:10;stroke-dasharray:none;stroke-opacity:1"
             id="path9176"
             inkscape:connector-curvature="0" /></g><g
           id="g9178"
           transform="translate(-5.0002,131.9185)"><path
             d="m 0,0 35.496,2.608 c 0.932,0.068 1.853,-0.096 2.687,-0.459"
             style="fill:none;stroke:#000000;stroke-width:1;stroke-linecap:round;stroke-linejoin:round;stroke-miterlimit:10;stroke-dasharray:none;stroke-opacity:1"
             id="path9180"
             inkscape:connector-curvature="0" /></g><g
           id="g9182"
           transform="translate(56.9764,160.6534)"><path
             d="m 0,0 c -8.168,4.221 -18.529,0.412 -23.139,-8.51 -0.06,-0.116 -0.119,-0.233 -0.176,-0.35 -1.02,-2.078 -3.021,-3.501 -5.318,-3.786 l -32.844,-4.089"
             style="fill:none;stroke:#000000;stroke-width:0.5;stroke-linecap:round;stroke-linejoin:round;stroke-miterlimit:10;stroke-dasharray:none;stroke-opacity:1"
             id="path9184"
             inkscape:connector-curvature="0" /></g><g
           id="g9186"
           transform="translate(54.8152,163.6124)"><path
             d="m 0,0 c -8.168,4.221 -18.529,0.412 -23.139,-8.51 -0.06,-0.116 -0.119,-0.233 -0.176,-0.35 -1.02,-2.078 -3.021,-3.501 -5.318,-3.786 l -32.844,-4.089"
             style="fill:none;stroke:#000000;stroke-width:0.5;stroke-linecap:round;stroke-linejoin:round;stroke-miterlimit:10;stroke-dasharray:none;stroke-opacity:1"
             id="path9188"
             inkscape:connector-curvature="0" /></g><g
           id="g9190"
           transform="translate(64.5872,138.0596)"><path
             d="m 0,0 c -0.491,-0.274 -0.898,-0.689 -1.164,-1.203 -4.609,-8.92 -14.97,-12.733 -23.138,-8.512 l -11.285,5.574"
             style="fill:none;stroke:#000000;stroke-width:1;stroke-linecap:round;stroke-linejoin:round;stroke-miterlimit:10;stroke-dasharray:none;stroke-opacity:1"
             id="path9192"
             inkscape:connector-curvature="0" /></g><g
           id="g9194"
           transform="translate(166.9998,151.9185)"><path
             d="m 0,0 -101.382,-13.517 c -0.367,-0.049 -0.716,-0.167 -1.031,-0.342"
             style="fill:none;stroke:#000000;stroke-width:0.5;stroke-linecap:round;stroke-linejoin:round;stroke-miterlimit:10;stroke-dasharray:none;stroke-opacity:1"
             id="path9196"
             inkscape:connector-curvature="0" /></g><g
           id="g9198"
           transform="translate(56.9764,160.6534)"><path
             d="M 0,0 C 1.62,-0.837 3.033,-1.928 4.22,-3.207"
             style="fill:none;stroke:#000000;stroke-width:0.5;stroke-linecap:round;stroke-linejoin:round;stroke-miterlimit:10;stroke-dasharray:none;stroke-opacity:1"
             id="path9200"
             inkscape:connector-curvature="0" /></g><g
           id="g9202"
           transform="translate(165.1668,159.0855)"><path
             d="m 0,0 c -1.024,0 -59.03,-5.046 -95.76,-8.25 -2.386,-0.208 -4.664,1.037 -5.776,3.157 -0.657,1.253 -1.494,2.395 -2.435,3.454 -2.196,2.472 -5.362,5.139 -4.529,6.972"
             style="fill:none;stroke:#000000;stroke-width:1;stroke-linecap:round;stroke-linejoin:round;stroke-miterlimit:10;stroke-dasharray:none;stroke-opacity:1"
             id="path9204"
             inkscape:connector-curvature="0" /></g><g
           id="g9206"
           transform="translate(-3.0002,153.4185)"><path
             d="m 0,0 c 0,0 21.667,2.5 24.833,2.833 3.167,0.334 6.501,1.834 9.834,6.834 3.333,5 14.833,10.167 24,1.5"
             style="fill:none;stroke:#000000;stroke-width:0.5;stroke-linecap:round;stroke-linejoin:round;stroke-miterlimit:10;stroke-dasharray:none;stroke-opacity:1"
             id="path9208"
             inkscape:connector-curvature="0" /></g><g
           id="g9210"
           transform="translate(-2.1667,159.0855)"><path
             d="m 0,0 c 0,0 19.5,1.833 22.5,2.167 3,0.333 6.78,2.705 11.333,9 5.667,7.833 26.938,11.255 30.834,-9 0.833,-4.334 6,-5.501 8.833,-5.334 2.833,0.167 34.333,4 34.333,4"
             style="fill:none;stroke:#000000;stroke-width:0.5;stroke-linecap:round;stroke-linejoin:round;stroke-miterlimit:10;stroke-dasharray:none;stroke-opacity:1"
             id="path9212"
             inkscape:connector-curvature="0" /></g><g
           id="g9214"
           transform="translate(109.1663,154.752)"><path
             d="M 0,0 C -5.667,14.667 -18.5,28.167 -21.667,31.5"
             style="fill:none;stroke:#000000;stroke-width:1;stroke-linecap:round;stroke-linejoin:round;stroke-miterlimit:10;stroke-dasharray:none;stroke-opacity:1"
             id="path9216"
             inkscape:connector-curvature="0" /></g><g
           id="g9218"
           transform="translate(80.6668,136.585)"><path
             d="m 0,0 c 1.833,0 3,-0.5 4.167,-1 1.166,-0.5 4,-1.667 5.5,-5 1.5,-3.333 5.833,-15.5 6.666,-18.5 0.834,-3 -1,-11.666 -4.333,-21.833 C 8.667,-56.5 7.166,-61.667 3.833,-63 0.5,-64.333 -14.031,-68.921 -24.698,-69.088"
             style="fill:none;stroke:#000000;stroke-width:1;stroke-linecap:round;stroke-linejoin:round;stroke-miterlimit:10;stroke-dasharray:none;stroke-opacity:1"
             id="path9220"
             inkscape:connector-curvature="0" /></g><g
           id="g9222"
           transform="translate(93.3333,122.085)"><path
             d="m 0,0 c -24,0 -26.667,1.333 -52.167,0 -25.5,-1.333 -43,0.833 -43,0.833"
             style="fill:none;stroke:#000000;stroke-width:1;stroke-linecap:round;stroke-linejoin:round;stroke-miterlimit:10;stroke-dasharray:none;stroke-opacity:1"
             id="path9224"
             inkscape:connector-curvature="0" /></g><g
           id="g9226"
           transform="translate(94.1668,95.9185)"><path
             d="M 0,0 C -19.667,-1 -28.5,0.333 -48.333,-0.333 -68.167,-1 -94.5,-1.833 -95.667,-1.833"
             style="fill:none;stroke:#000000;stroke-width:1;stroke-linecap:round;stroke-linejoin:round;stroke-miterlimit:10;stroke-dasharray:none;stroke-opacity:1"
             id="path9228"
             inkscape:connector-curvature="0" /></g><g
           id="g9230"
           transform="translate(48.9998,95.4185)"><path
             d="M 0,0 C -18.833,-3.667 -41.166,-9.333 -50.833,-8.167"
             style="fill:none;stroke:#000000;stroke-width:1;stroke-linecap:round;stroke-linejoin:round;stroke-miterlimit:10;stroke-dasharray:none;stroke-opacity:1"
             id="path9232"
             inkscape:connector-curvature="0" /></g><g
           id="g9234"
           transform="translate(93.1668,92.252)"><path
             d="M 0,0 C -17,-6.833 -23.334,-10.167 -33.667,-20.667 -44,-31.167 -53,-40.166 -61.833,-37.5 c -8.834,2.667 -8.001,11.333 -7.334,14"
             style="fill:none;stroke:#000000;stroke-width:1;stroke-linecap:round;stroke-linejoin:round;stroke-miterlimit:10;stroke-dasharray:none;stroke-opacity:1"
             id="path9236"
             inkscape:connector-curvature="0" /></g><g
           id="g9238"
           transform="translate(64.6663,122.9185)"><path
             d="M 0,0 C 11.5,3 18.5,4.833 26.833,4.167"
             style="fill:none;stroke:#000000;stroke-width:1;stroke-linecap:round;stroke-linejoin:round;stroke-miterlimit:10;stroke-dasharray:none;stroke-opacity:1"
             id="path9240"
             inkscape:connector-curvature="0" /></g><g
           id="g9242"
           transform="translate(40.4998,122.085)"><path
             d="M 0,0 C 15.333,2.5 25.834,2.667 30.167,2.333"
             style="fill:none;stroke:#000000;stroke-width:1;stroke-linecap:round;stroke-linejoin:round;stroke-miterlimit:10;stroke-dasharray:none;stroke-opacity:1"
             id="path9244"
             inkscape:connector-curvature="0" /></g><g
           id="g9246"
           transform="translate(67.6668,95.752)"><path
             d="m 0,0 c -12,-4.5 -15.667,-11.167 -24.167,-19.167 -8.5,-8 -11.166,-12 -14.166,-10"
             style="fill:none;stroke:#000000;stroke-width:1;stroke-linecap:round;stroke-linejoin:round;stroke-miterlimit:10;stroke-dasharray:none;stroke-opacity:1"
             id="path9248"
             inkscape:connector-curvature="0" /></g><g
           id="g9250"
           transform="translate(-2.8332,72.752)"><path
             d="M 0,0 C 17.333,0.333 23,2.333 34.167,5.667 45.333,9 50,11 53.333,11.333"
             style="fill:none;stroke:#000000;stroke-width:1;stroke-linecap:round;stroke-linejoin:round;stroke-miterlimit:10;stroke-dasharray:none;stroke-opacity:1"
             id="path9252"
             inkscape:connector-curvature="0" /></g><g
           id="g9254"
           transform="translate(34.6668,68.4185)"><path
             d="M 0,0 C -12.167,0.5 -17.5,0.833 -22,4.833"
             style="fill:none;stroke:#000000;stroke-width:1;stroke-linecap:round;stroke-linejoin:round;stroke-miterlimit:10;stroke-dasharray:none;stroke-opacity:1"
             id="path9256"
             inkscape:connector-curvature="0" /></g><g
           id="g9258"
           transform="translate(21.9998,94.9185)"><path
             d="M 0,0 C -6.333,-3.167 -12.5,-4.833 -24.5,-5.5"
             style="fill:none;stroke:#000000;stroke-width:1;stroke-linecap:round;stroke-linejoin:round;stroke-miterlimit:10;stroke-dasharray:none;stroke-opacity:1"
             id="path9260"
             inkscape:connector-curvature="0" /></g><g
           id="g9262"
           transform="translate(73.9998,126.085)"><path
             d="m 0,0 c 0.667,4.333 5,12.333 6.833,12.333 1.834,0 14.667,1.167 21.334,1.5 6.666,0.334 18.5,0.334 21.166,0.334 2.667,0 30.334,0.333 46.667,1 16.333,0.666 62.667,8.833 74.5,13.333"
             style="fill:none;stroke:#000000;stroke-width:1;stroke-linecap:round;stroke-linejoin:round;stroke-miterlimit:10;stroke-dasharray:none;stroke-opacity:1"
             id="path9264"
             inkscape:connector-curvature="0" /></g><g
           id="g9266"
           transform="translate(66.6668,68.085)"><path
             d="m 0,0 c 5.5,-2.167 6,-2.166 15.833,-1.833 9.834,0.333 13.5,0.5 20,2.666 6.5,2.167 11.167,1.834 15,2.834 3.834,1 4.334,1.5 5.667,0.666 C 57.833,3.5 59.833,1.834 62.333,3.167 64.833,4.5 67,7 69.833,5.833 72.667,4.667 76,4 81.167,6.333 c 5.166,2.334 8.166,4.167 12.333,4.334 4.167,0.166 8,1.666 11.667,2.833 3.666,1.167 7.666,2 10.333,3 2.667,1 11.372,5.182 21.667,7.833 11,2.834 42.833,15.5 42.833,15.5"
             style="fill:none;stroke:#000000;stroke-width:1;stroke-linecap:round;stroke-linejoin:round;stroke-miterlimit:10;stroke-dasharray:none;stroke-opacity:1"
             id="path9268"
             inkscape:connector-curvature="0" /></g><g
           id="g9270"
           transform="translate(-3.0002,26.918)"><path
             d="m 0,0 38.491,9.586 c 1.316,0.328 2.698,-0.194 3.469,-1.31 0.61,-0.881 1.348,-1.673 2.218,-2.35"
             style="fill:none;stroke:#000000;stroke-width:1;stroke-linecap:round;stroke-linejoin:round;stroke-miterlimit:10;stroke-dasharray:none;stroke-opacity:1"
             id="path9272"
             inkscape:connector-curvature="0" /></g><g
           id="g9274"
           transform="translate(61.0677,58.9947)"><path
             d="m 0,0 c -5.736,4.161 -14.682,1.921 -20.162,-5.121 -0.84,-1.08 -1.546,-2.211 -2.126,-3.369 -0.664,-1.329 -1.88,-2.299 -3.324,-2.651 l -37.956,-9.269"
             style="fill:none;stroke:#000000;stroke-width:0.5;stroke-linecap:round;stroke-linejoin:round;stroke-miterlimit:10;stroke-dasharray:none;stroke-opacity:1"
             id="path9276"
             inkscape:connector-curvature="0" /></g><g
           id="g9278"
           transform="translate(63.783,56.5079)"><path
             d="m 0,0 c -0.327,0.217 -0.626,0.481 -0.887,0.79 -0.456,0.539 -0.968,1.036 -1.54,1.481 -0.095,0.073 -0.191,0.146 -0.288,0.216 l -7.808,5.455"
             style="fill:none;stroke:#000000;stroke-width:1;stroke-linecap:round;stroke-linejoin:round;stroke-miterlimit:10;stroke-dasharray:none;stroke-opacity:1"
             id="path9280"
             inkscape:connector-curvature="0" /></g><g
           id="g9282"
           transform="translate(137.221,73.5083)"><path
             d="m 0,0 -70.056,-17.583 c -1.175,-0.295 -2.402,-0.069 -3.382,0.583"
             style="fill:none;stroke:#000000;stroke-width:0.5;stroke-linecap:round;stroke-linejoin:round;stroke-miterlimit:10;stroke-dasharray:none;stroke-opacity:1"
             id="path9284"
             inkscape:connector-curvature="0" /></g><g
           id="g9286"
           transform="translate(41.1775,32.8438)"><path
             d="m 0,0 c 5.72,-4.452 14.878,-2.255 20.45,4.905 1.202,1.546 2.133,3.196 2.803,4.877 0.68,1.709 2.103,3.014 3.864,3.545 21.493,6.486 82.379,24.848 87.039,26.081 5.666,1.5 5,3.5 5,5.833 l -0.412,-0.073"
             style="fill:none;stroke:#000000;stroke-width:1;stroke-linecap:round;stroke-linejoin:round;stroke-miterlimit:10;stroke-dasharray:none;stroke-opacity:1"
             id="path9288"
             inkscape:connector-curvature="0" /></g><g
           id="g9290"
           transform="translate(92.7083,53.4444)"><path
             d="M 0,0 C -29.459,-38.264 -60.273,-42.158 -96.336,-42.327"
             style="fill:none;stroke:#000000;stroke-width:1;stroke-linecap:round;stroke-linejoin:round;stroke-miterlimit:10;stroke-dasharray:none;stroke-opacity:1"
             id="path9292"
             inkscape:connector-curvature="0" /></g><g
           id="g9294"
           transform="translate(25.3792,58.4942)"><path
             d="M 0,0 -9.706,5.786"
             style="fill:none;stroke:#000000;stroke-width:0.5;stroke-linecap:round;stroke-linejoin:round;stroke-miterlimit:10;stroke-dasharray:none;stroke-opacity:1"
             id="path9296"
             inkscape:connector-curvature="0" /></g><g
           id="g9298"
           transform="translate(38.7801,50.5049)"><path
             d="M 0,0 -7.264,4.331"
             style="fill:none;stroke:#000000;stroke-width:0.5;stroke-linecap:round;stroke-linejoin:round;stroke-miterlimit:10;stroke-dasharray:none;stroke-opacity:1"
             id="path9300"
             inkscape:connector-curvature="0" /></g><g
           id="g9302"
           transform="translate(34.9744,48.0264)"><path
             d="M 0,0 -23.106,13.775"
             style="fill:none;stroke:#000000;stroke-width:0.5;stroke-linecap:round;stroke-linejoin:round;stroke-miterlimit:10;stroke-dasharray:none;stroke-opacity:1"
             id="path9304"
             inkscape:connector-curvature="0" /></g><g
           id="g9306"
           transform="translate(96.4334,139.2837)"><path
             d="m 0,0 c 12.19,1.185 15.746,-12.021 17.439,-17.947 1.693,-5.926 -1.355,-23.703 -3.725,-29.629 -2.37,-5.925 -9.312,-24.38 -21.163,-25.226"
             style="fill:none;stroke:#000000;stroke-width:0.5;stroke-linecap:round;stroke-linejoin:round;stroke-miterlimit:10;stroke-dasharray:none;stroke-opacity:1"
             id="path9308"
             inkscape:connector-curvature="0" /></g><g
           id="g9310"
           transform="translate(111.6531,139.6617)"><path
             d="M 0,0 C 27.405,-1.336 18.716,-61.495 0.223,-69.07"
             style="fill:none;stroke:#000000;stroke-width:0.5;stroke-linecap:round;stroke-linejoin:round;stroke-miterlimit:10;stroke-dasharray:none;stroke-opacity:1"
             id="path9312"
             inkscape:connector-curvature="0" /></g><g
           id="g9314"
           transform="translate(124.576,139.8848)"><path
             d="M 0,0 C 27.405,-1.336 22.281,-61.272 3.788,-68.847"
             style="fill:none;stroke:#000000;stroke-width:0.5;stroke-linecap:round;stroke-linejoin:round;stroke-miterlimit:10;stroke-dasharray:none;stroke-opacity:1"
             id="path9316"
             inkscape:connector-curvature="0" /></g><g
           id="g9318"
           transform="translate(134.3797,140.3306)"><path
             d="M 0,0 C 27.405,-1.336 26.514,-59.713 8.021,-67.288"
             style="fill:none;stroke:#000000;stroke-width:0.5;stroke-linecap:round;stroke-linejoin:round;stroke-miterlimit:10;stroke-dasharray:none;stroke-opacity:1"
             id="path9320"
             inkscape:connector-curvature="0" /></g><g
           id="g9322"
           transform="translate(146.1888,140.3306)"><path
             d="M 0,0 C 27.405,-1.336 25.399,-55.702 6.906,-63.277"
             style="fill:none;stroke:#000000;stroke-width:0.5;stroke-linecap:round;stroke-linejoin:round;stroke-miterlimit:10;stroke-dasharray:none;stroke-opacity:1"
             id="path9324"
             inkscape:connector-curvature="0" /></g><g
           id="g9326"
           transform="translate(156.2151,140.3306)"><path
             d="M 0,0 C 27.405,-1.336 26.513,-53.474 8.02,-61.049"
             style="fill:none;stroke:#000000;stroke-width:0.5;stroke-linecap:round;stroke-linejoin:round;stroke-miterlimit:10;stroke-dasharray:none;stroke-opacity:1"
             id="path9328"
             inkscape:connector-curvature="0" /></g><g
           id="g9330"
           transform="translate(165.1282,140.7764)"><path
             d="M 0,0 C 27.405,-1.336 26.958,-51.246 8.465,-58.821"
             style="fill:none;stroke:#000000;stroke-width:0.5;stroke-linecap:round;stroke-linejoin:round;stroke-miterlimit:10;stroke-dasharray:none;stroke-opacity:1"
             id="path9332"
             inkscape:connector-curvature="0" /></g><g
           id="g9334"
           transform="translate(174.2635,141.4449)"><path
             d="M 0,0 C 27.404,-1.336 26.066,-49.464 7.573,-57.039"
             style="fill:none;stroke:#000000;stroke-width:0.5;stroke-linecap:round;stroke-linejoin:round;stroke-miterlimit:10;stroke-dasharray:none;stroke-opacity:1"
             id="path9336"
             inkscape:connector-curvature="0" /></g><g
           id="g9338"
           transform="translate(182.284,142.1133)"><path
             d="M 0,0 C 27.404,-1.336 26.513,-46.79 8.02,-54.365"
             style="fill:none;stroke:#000000;stroke-width:0.5;stroke-linecap:round;stroke-linejoin:round;stroke-miterlimit:10;stroke-dasharray:none;stroke-opacity:1"
             id="path9340"
             inkscape:connector-curvature="0" /></g><g
           id="g9342"
           transform="translate(190.7508,143.2271)"><path
             d="M 0,0 C 27.404,-1.336 25.845,-44.785 7.352,-52.36"
             style="fill:none;stroke:#000000;stroke-width:0.5;stroke-linecap:round;stroke-linejoin:round;stroke-miterlimit:10;stroke-dasharray:none;stroke-opacity:1"
             id="path9344"
             inkscape:connector-curvature="0" /></g><g
           id="g9346"
           transform="translate(199.4402,144.3414)"><path
             d="M 0,0 C 27.404,-1.336 25.845,-43.671 7.352,-51.246"
             style="fill:none;stroke:#000000;stroke-width:0.5;stroke-linecap:round;stroke-linejoin:round;stroke-miterlimit:10;stroke-dasharray:none;stroke-opacity:1"
             id="path9348"
             inkscape:connector-curvature="0" /></g><g
           id="g9350"
           transform="translate(208.3523,145.6783)"><path
             d="M 0,0 C 27.404,-1.336 28.072,-40.997 9.579,-48.572"
             style="fill:none;stroke:#000000;stroke-width:0.5;stroke-linecap:round;stroke-linejoin:round;stroke-miterlimit:10;stroke-dasharray:none;stroke-opacity:1"
             id="path9352"
             inkscape:connector-curvature="0" /></g><g
           id="g9354"
           transform="translate(217.9334,147.6836)"><path
             d="M 0,0 C 27.404,-1.336 25.398,-40.998 6.905,-48.573"
             style="fill:none;stroke:#000000;stroke-width:0.5;stroke-linecap:round;stroke-linejoin:round;stroke-miterlimit:10;stroke-dasharray:none;stroke-opacity:1"
             id="path9356"
             inkscape:connector-curvature="0" /></g><g
           id="g9358"
           transform="translate(226.1775,149.9117)"><path
             d="M 0,0 C 27.404,-1.336 25.398,-39.661 6.905,-47.236"
             style="fill:none;stroke:#000000;stroke-width:0.5;stroke-linecap:round;stroke-linejoin:round;stroke-miterlimit:10;stroke-dasharray:none;stroke-opacity:1"
             id="path9360"
             inkscape:connector-curvature="0" /></g><g
           id="g9362"
           transform="translate(235.535,151.6939)"><path
             d="M 0,0 C 5.801,-0.283 10.334,-2.842 13.7,-6.773"
             style="fill:none;stroke:#000000;stroke-width:0.5;stroke-linecap:round;stroke-linejoin:round;stroke-miterlimit:10;stroke-dasharray:none;stroke-opacity:1"
             id="path9364"
             inkscape:connector-curvature="0" /></g></g></g><text
       transform="matrix(1,0,0,-1,3.2393,2.8066)"
       style="font-variant:normal;font-weight:normal;font-stretch:normal;font-size:4px;font-family:Arial;-inkscape-font-specification:ArialMT;writing-mode:lr-tb;fill:#000000;fill-opacity:1;fill-rule:nonzero;stroke:none"
       id="text9368"><tspan
         x="0 2 4 5.3319998"
         y="0"
         sodipodi:role="line"
         id="tspan9366">ckrv</tspan></text>
<g
       id="g9370"
       transform="translate(143.5232,53.1436)"><path
         d="M 0,0 -14.856,23.775"
         style="fill:none;stroke:#ffffff;stroke-width:3;stroke-linecap:round;stroke-linejoin:miter;stroke-miterlimit:4;stroke-dasharray:none;stroke-opacity:1"
         id="path9372"
         inkscape:connector-curvature="0" /></g><g
       id="g9374"
       transform="translate(128.6668,76.9185)"><path
         d="M 0,0 V 0"
         style="fill:none;stroke:#ffffff;stroke-width:3.75;stroke-linecap:round;stroke-linejoin:miter;stroke-miterlimit:4;stroke-dasharray:none;stroke-opacity:1"
         id="path9376"
         inkscape:connector-curvature="0" /></g><g
       id="g9378"
       transform="translate(143.5232,53.1436)"><path
         d="M 0,0 -14.856,23.775"
         style="fill:none;stroke:#000000;stroke-width:0.5;stroke-linecap:round;stroke-linejoin:miter;stroke-miterlimit:4;stroke-dasharray:none;stroke-opacity:1"
         id="path9380"
         inkscape:connector-curvature="0" /></g><g
       id="g9382"
       transform="translate(128.6668,76.9185)"><path
         d="M 0,0 V 0"
         style="fill:none;stroke:#000000;stroke-width:1.5;stroke-linecap:round;stroke-linejoin:miter;stroke-miterlimit:4;stroke-dasharray:none;stroke-opacity:1"
         id="path9384"
         inkscape:connector-curvature="0" /></g><g
       id="g9386"
       transform="translate(124.9998,169.9185)"><path
         d="M 0,0 -8.667,-18.667"
         style="fill:none;stroke:#ffffff;stroke-width:3;stroke-linecap:round;stroke-linejoin:miter;stroke-miterlimit:4;stroke-dasharray:none;stroke-opacity:1"
         id="path9388"
         inkscape:connector-curvature="0" /></g><g
       id="g9390"
       transform="translate(116.3333,151.252)"><path
         d="M 0,0 V 0"
         style="fill:none;stroke:#ffffff;stroke-width:3.75;stroke-linecap:round;stroke-linejoin:miter;stroke-miterlimit:4;stroke-dasharray:none;stroke-opacity:1"
         id="path9392"
         inkscape:connector-curvature="0" /></g><g
       id="g9394"
       transform="translate(124.9998,169.9185)"><path
         d="M 0,0 -8.667,-18.667"
         style="fill:none;stroke:#000000;stroke-width:0.5;stroke-linecap:round;stroke-linejoin:miter;stroke-miterlimit:4;stroke-dasharray:none;stroke-opacity:1"
         id="path9396"
         inkscape:connector-curvature="0" /></g><g
       id="g9398"
       transform="translate(116.3333,151.252)"><path
         d="M 0,0 V 0"
         style="fill:none;stroke:#000000;stroke-width:1.5;stroke-linecap:round;stroke-linejoin:miter;stroke-miterlimit:4;stroke-dasharray:none;stroke-opacity:1"
         id="path9400"
         inkscape:connector-curvature="0" /></g><g
       id="g9402"
       transform="translate(81.3333,22.585)"><path
         d="M 0,0 -20.667,53.667"
         style="fill:none;stroke:#ffffff;stroke-width:3;stroke-linecap:round;stroke-linejoin:miter;stroke-miterlimit:4;stroke-dasharray:none;stroke-opacity:1"
         id="path9404"
         inkscape:connector-curvature="0" /></g><g
       id="g9406"
       transform="translate(60.6668,76.252)"><path
         d="M 0,0 V 0"
         style="fill:none;stroke:#ffffff;stroke-width:3.75;stroke-linecap:round;stroke-linejoin:miter;stroke-miterlimit:4;stroke-dasharray:none;stroke-opacity:1"
         id="path9408"
         inkscape:connector-curvature="0" /></g><g
       id="g9410"
       transform="translate(81.3333,22.585)"><path
         d="M 0,0 -20.667,53.667"
         style="fill:none;stroke:#000000;stroke-width:0.5;stroke-linecap:round;stroke-linejoin:miter;stroke-miterlimit:4;stroke-dasharray:none;stroke-opacity:1"
         id="path9412"
         inkscape:connector-curvature="0" /></g><g
       id="g9414"
       transform="translate(60.6668,76.252)"><path
         d="M 0,0 V 0"
         style="fill:none;stroke:#000000;stroke-width:1.5;stroke-linecap:round;stroke-linejoin:miter;stroke-miterlimit:4;stroke-dasharray:none;stroke-opacity:1"
         id="path9416"
         inkscape:connector-curvature="0" /></g><text
       transform="matrix(1,0,0,-1,79.9941,14.2871)"
       style="font-variant:normal;font-weight:bold;font-stretch:normal;font-size:10px;font-family:'Swiss 721 SWA';-inkscape-font-specification:Helvetica-Bold;writing-mode:lr-tb;fill:#000000;fill-opacity:1;fill-rule:nonzero;stroke:none"
       id="text9424"><tspan
         x="0"
         y="0"
         id="tspan9418">2</tspan><tspan
         x="62.330002"
         y="-30.67"
         id="tspan9420">1</tspan><tspan
         x="43.66"
         y="-157.34"
         id="tspan9422">3</tspan></text>
</g></svg>