<?xml version="1.0" encoding="UTF-8" standalone="no"?>
<!-- Created with Inkscape (http://www.inkscape.org/) -->

<svg
   xmlns:dc="http://purl.org/dc/elements/1.1/"
   xmlns:cc="http://creativecommons.org/ns#"
   xmlns:rdf="http://www.w3.org/1999/02/22-rdf-syntax-ns#"
   xmlns:svg="http://www.w3.org/2000/svg"
   xmlns="http://www.w3.org/2000/svg"
   xmlns:sodipodi="http://sodipodi.sourceforge.net/DTD/sodipodi-0.dtd"
   xmlns:inkscape="http://www.inkscape.org/namespaces/inkscape"
   version="1.1"
   id="svg2"
   xml:space="preserve"
   width="339.88541"
   height="262.53842"
   viewBox="0 0 339.88541 262.53842"
   sodipodi:docname="T1320.svg"
   inkscape:version="0.92.4 (5da689c313, 2019-01-14)"><metadata
     id="metadata8"><rdf:RDF><cc:Work
         rdf:about=""><dc:format>image/svg+xml</dc:format><dc:type
           rdf:resource="http://purl.org/dc/dcmitype/StillImage" /><dc:title></dc:title></cc:Work></rdf:RDF></metadata><defs
     id="defs6"><clipPath
       clipPathUnits="userSpaceOnUse"
       id="clipPath18"><path
         d="m 8.38721,-189.15039 c 0,0 240.94482,0 240.94482,0 0,0 0,184.25195 0,184.25195 0,0 -240.94482,0 -240.94482,0 0,0 0,-184.25195 0,-184.25195 0,0 0,0 0,0 z"
         id="path16"
         inkscape:connector-curvature="0" /></clipPath></defs><sodipodi:namedview
     pagecolor="#ffffff"
     bordercolor="#666666"
     borderopacity="1"
     objecttolerance="10"
     gridtolerance="10"
     guidetolerance="10"
     inkscape:pageopacity="0"
     inkscape:pageshadow="2"
     inkscape:window-width="640"
     inkscape:window-height="480"
     id="namedview4"
     showgrid="false"
     inkscape:zoom="0.86205525"
     inkscape:cx="169.9427"
     inkscape:cy="131.26921"
     inkscape:window-x="0"
     inkscape:window-y="0"
     inkscape:window-maximized="0"
     inkscape:current-layer="g10" /><g
     id="g10"
     inkscape:groupmode="layer"
     inkscape:label="T1320"
     transform="matrix(1.3333333,0,0,-1.3333333,0,262.53841)"><g
       id="g12"
       transform="scale(1,-1)"><g
         id="g14"
         clip-path="url(#clipPath18)"><path
           d="m 100.21777,-134.80322 c -0.39502,0.44336 -0.85205,0.72314 -1.36132,0.80371 -2.38965,0.3789 -5.03174,-3.76514 -5.90137,-9.25537 -0.6709,-4.2378 -0.15235,-8.03858 1.30859,-9.72657 0,0 7.92237,-10.01904 7.92237,-10.01904 0.36376,-0.49902 0.89843,-0.81347 1.44384,-0.89941 2.38916,-0.37842 5.03125,3.76513 5.90088,9.25537 0.68408,4.31933 0.0674,8.18555 -1.39062,9.82178 0,0 -7.92237,10.01953 -7.92237,10.01953 z"
           style="fill:none;stroke:#231f20;stroke-width:0.25;stroke-linecap:round;stroke-linejoin:round;stroke-miterlimit:3.8636899;stroke-dasharray:none;stroke-opacity:1"
           id="path20"
           inkscape:connector-curvature="0" /><path
           d="m 98.83398,-133.99561 c -2.43359,0.34913 -5.01171,-3.78613 -5.8789,-9.25927 -0.6709,-4.2378 -0.15235,-8.03858 1.30859,-9.72657 0,0 7.92237,-10.01904 7.92237,-10.01904 0.35058,-0.48096 0.86035,-0.79053 1.38525,-0.88965"
           style="fill:none;stroke:#231f20;stroke-width:0.5;stroke-linecap:round;stroke-linejoin:round;stroke-miterlimit:3.8636899;stroke-dasharray:none;stroke-opacity:1"
           id="path22"
           inkscape:connector-curvature="0" /><path
           d="m 97.00537,-156.26904 c 0.39356,1.20898 0.79981,2.57275 1.03076,4.03174 0.68408,4.31982 0.06739,8.18554 -1.39062,9.82226 0,0 -2.51319,3.17871 -2.51319,3.17871"
           style="fill:none;stroke:#231f20;stroke-width:0.25;stroke-linecap:round;stroke-linejoin:round;stroke-miterlimit:3.8636899;stroke-dasharray:none;stroke-opacity:1"
           id="path24"
           inkscape:connector-curvature="0" /><path
           d="m 95.8999,-154.74707 c 0.22168,0.76172 0.42383,1.57568 0.5586,2.42627 0.60205,3.80078 0.05957,7.20264 -1.22364,8.64307 0,0 -1.79834,2.2749 -1.79834,2.2749"
           style="fill:none;stroke:#231f20;stroke-width:0.25;stroke-linecap:round;stroke-linejoin:round;stroke-miterlimit:3.8636899;stroke-dasharray:none;stroke-opacity:1"
           id="path26"
           inkscape:connector-curvature="0" /><path
           d="m 95.33838,-130.33594 c 0,0 -2.45117,-5.21045 -2.45117,-5.21045 -0.85791,-1.88037 -1.5083,-4.15722 -1.90332,-6.65088 -0.86182,-5.44091 -0.1958,-10.32177 1.68066,-12.48877 0,0 9.00928,-11.26171 9.00928,-11.26171 0.4668,-0.64063 1.15381,-1.04395 1.85351,-1.15528 2.29102,-0.36279 4.76319,2.51221 6.33301,6.92725 0,0 2.56641,7.23779 2.56641,7.23779"
           style="fill:none;stroke:#231f20;stroke-width:0.25;stroke-linecap:round;stroke-linejoin:round;stroke-miterlimit:3.8636899;stroke-dasharray:none;stroke-opacity:1"
           id="path28"
           inkscape:connector-curvature="0" /><path
           d="m 95.42139,-130.21777 c 0.08691,-0.21973 0.31054,-0.36182 0.51513,-0.40137 0.73975,-0.14404 1.6045,1.104 1.93164,2.78711 0.16407,0.84326 0.16211,1.63574 0.02637,2.23486"
           style="fill:none;stroke:#231f20;stroke-width:0.25;stroke-linecap:round;stroke-linejoin:round;stroke-miterlimit:3.8636899;stroke-dasharray:none;stroke-opacity:1"
           id="path30"
           inkscape:connector-curvature="0" /><path
           d="m 85.479,-162.26709 c 0,0 0.27246,-0.34033 0.27246,-0.34033 0.41797,-0.57324 1.01172,-0.95654 1.63331,-1.11035 0,0 15.92236,-3.34034 15.92236,-3.34034 0,0 0.22021,-0.0449 0.22021,-0.0449 2.29102,-0.36279 4.76319,2.51221 6.33301,6.92725 0,0 2.56641,7.23779 2.56641,7.23779 -0.42188,0.57617 -0.46436,1.57373 -0.22754,2.79151 0.31641,1.62793 1.13574,2.84863 1.8584,2.79736"
           style="fill:none;stroke:#231f20;stroke-width:0.5;stroke-linecap:round;stroke-linejoin:round;stroke-miterlimit:3.8636899;stroke-dasharray:none;stroke-opacity:1"
           id="path32"
           inkscape:connector-curvature="0" /><path
           d="m 96.11475,-130.49121 c -0.38965,0 -0.77637,0.2334 -0.77637,0.2334 0,0 -15.92236,2.95215 -15.92236,2.95215 0,0 -2.45118,-4.90039 -2.45118,-4.90039 -0.85791,-1.88038 -1.5083,-4.15723 -1.90332,-6.6504 -0.86181,-5.4414 -0.1958,-10.32177 1.68067,-12.48925 0,0 4.88281,-6.10352 4.88281,-6.10352"
           style="fill:none;stroke:#231f20;stroke-width:0.5;stroke-linecap:round;stroke-linejoin:round;stroke-miterlimit:3.8636899;stroke-dasharray:none;stroke-opacity:1"
           id="path34"
           inkscape:connector-curvature="0" /><path
           d="m 79.85889,-127.51172 c 0.73974,-0.14404 1.60449,1.10401 1.93164,2.7876 0.16406,0.84277 0.16211,1.63525 0.02588,2.23437"
           style="fill:none;stroke:#231f20;stroke-width:0.25;stroke-linecap:round;stroke-linejoin:round;stroke-miterlimit:3.8636899;stroke-dasharray:none;stroke-opacity:1"
           id="path36"
           inkscape:connector-curvature="0" /><path
           d="m 89.66943,-159.77197 c 0,0 -0.85449,0.0776 -1.55468,-0.31055 -0.7002,-0.38818 -2.71778,-2.02002 -3.49463,-2.6416 -0.77637,-0.62109 -1.87207,-0.23242 -2.30908,0.18799 -0.48291,0.46533 -0.61133,0.62402 -1.34083,1.44287 -0.77099,0.86572 -0.31054,1.71094 -0.31054,1.71094 0,0 1.16504,2.01806 1.47558,2.9497 0.31055,0.93213 0.15528,1.63086 0.15528,1.63086"
           style="fill:none;stroke:#231f20;stroke-width:0.5;stroke-linecap:round;stroke-linejoin:round;stroke-miterlimit:3.8636899;stroke-dasharray:none;stroke-opacity:1"
           id="path38"
           inkscape:connector-curvature="0" /><path
           d="m 84.01123,-162.46436 c 0,0 -0.76953,0.93067 -1.10937,1.30665 -0.34034,0.37548 -0.07178,0.87646 0.19677,1.0913 0.26856,0.21485 2.52344,2.02246 3.09619,2.52344 0.57276,0.50147 0.85889,1.00244 0.85889,1.00244"
           style="fill:none;stroke:#231f20;stroke-width:0.25;stroke-linecap:round;stroke-linejoin:round;stroke-miterlimit:3.8636899;stroke-dasharray:none;stroke-opacity:1"
           id="path40"
           inkscape:connector-curvature="0" /><path
           d="m 81.52979,-157.5752 c 0,0 -2.81153,0.60157 -5.89454,1.27832 -3.083,0.67676 -4.61621,1.7754 -5.59375,2.93262 -0.97754,1.15723 -5.59375,6.4502 -8.60156,9.98438 -3.00781,3.53418 -1.27832,8.22558 -0.45117,9.65429 0.82715,1.42871 6.19531,12.13575 6.19531,12.13575"
           style="fill:none;stroke:#231f20;stroke-width:0.5;stroke-linecap:round;stroke-linejoin:round;stroke-miterlimit:3.8636899;stroke-dasharray:none;stroke-opacity:1"
           id="path42"
           inkscape:connector-curvature="0" /><path
           d="m 68.61279,-121.66504 c 0,0 11.93946,-2.10547 11.93946,-2.10547"
           style="fill:none;stroke:#231f20;stroke-width:0.25;stroke-linecap:round;stroke-linejoin:round;stroke-miterlimit:3.8636899;stroke-dasharray:none;stroke-opacity:1"
           id="path44"
           inkscape:connector-curvature="0" /><path
           d="m 82.73291,-122.64258 c 0,0 14.19531,-2.85742 14.19531,-2.85742"
           style="fill:none;stroke:#231f20;stroke-width:0.25;stroke-linecap:round;stroke-linejoin:round;stroke-miterlimit:3.8636899;stroke-dasharray:none;stroke-opacity:1"
           id="path46"
           inkscape:connector-curvature="0" /><path
           d="m 113.98096,-147.16895 c 0,0 -16,21.51856 -16,21.51856"
           style="fill:none;stroke:#231f20;stroke-width:0.25;stroke-linecap:round;stroke-linejoin:round;stroke-miterlimit:3.8636899;stroke-dasharray:none;stroke-opacity:1"
           id="path48"
           inkscape:connector-curvature="0" /><path
           d="m 112.23975,-150.16113 c 4.91406,0.0503 8.38379,1.3081 9.45459,3.8291 2.46142,5.79785 -8.69922,16.08203 -24.92871,22.97021 -16.2295,6.88819 -31.38135,7.77198 -33.84327,1.97364 -0.73974,-1.74268 -0.31103,-3.89112 1.24073,-6.23047"
           style="fill:none;stroke:#231f20;stroke-width:0.25;stroke-linecap:round;stroke-linejoin:round;stroke-miterlimit:3.8636899;stroke-dasharray:none;stroke-opacity:1"
           id="path50"
           inkscape:connector-curvature="0" /><path
           d="m 112.69531,-148.86182 c 3.32862,0.35938 5.64649,1.48194 6.45996,3.39698 2.26465,5.33447 -8.00293,14.79541 -22.93408,21.13232 -14.93115,6.33691 -28.8706,7.1499 -31.13574,1.81543 -0.39111,-0.92236 -0.4707,-1.96777 -0.09131,-3.09912"
           style="fill:none;stroke:#231f20;stroke-width:0.25;stroke-linecap:round;stroke-linejoin:round;stroke-miterlimit:3.8636899;stroke-dasharray:none;stroke-opacity:1"
           id="path52"
           inkscape:connector-curvature="0" /><path
           d="m 113.3335,-147.95947 c 2.62402,0.46435 4.4458,1.50342 5.13916,3.13623 2.19677,5.17431 -7.7627,14.35107 -22.2461,20.49804 -14.48291,6.14649 -28.00439,6.93506 -30.20117,1.76075 -0.21045,-0.49561 -0.37207,-1.02832 -0.30371,-1.5918"
           style="fill:none;stroke:#231f20;stroke-width:0.25;stroke-linecap:round;stroke-linejoin:round;stroke-miterlimit:3.8636899;stroke-dasharray:none;stroke-opacity:1"
           id="path54"
           inkscape:connector-curvature="0" /><path
           d="m 112.23975,-150.16113 c 4.91406,0.0503 8.38379,1.3081 9.45459,3.8291 2.46142,5.79785 -8.69922,16.08203 -24.92871,22.97021 -16.2295,6.88819 -31.38135,7.77198 -33.84327,1.97364 -0.73974,-1.74268 -0.31103,-3.89112 1.24073,-6.23047"
           style="fill:none;stroke:#231f20;stroke-width:0.5;stroke-linecap:round;stroke-linejoin:round;stroke-miterlimit:3.8636899;stroke-dasharray:none;stroke-opacity:1"
           id="path56"
           inkscape:connector-curvature="0" /><path
           d="m 123.60889,-158.22266 c 6.62646,0.24219 11.3164,2.11084 12.90869,5.6875 3.93359,8.83496 -12.52246,24.74317 -36.75684,35.53272 -24.23437,10.78955 -47.06836,12.37451 -51.00195,3.53955 -2.32617,-5.22412 2.41504,-12.92236 11.80322,-20.57227"
           style="fill:none;stroke:#231f20;stroke-width:0.25;stroke-linecap:round;stroke-linejoin:round;stroke-miterlimit:3.8636899;stroke-dasharray:none;stroke-opacity:1"
           id="path58"
           inkscape:connector-curvature="0" /><path
           d="m 53.56641,-98.44189 c 0,0 -2.98877,-6.31983 -2.98877,-6.31983 0,0 -3.34082,-14.88769 -3.34082,-14.88769 0,0 0.14306,-0.31836 0.14306,-0.31836 1.22217,-2.06202 2.85352,-4.22266 4.84961,-6.42578 0,0 8.45264,-7.88038 8.45264,-7.88038"
           style="fill:none;stroke:#231f20;stroke-width:0.5;stroke-linecap:round;stroke-linejoin:round;stroke-miterlimit:3.8636899;stroke-dasharray:none;stroke-opacity:1"
           id="path60"
           inkscape:connector-curvature="0" /><path
           d="m 141.82031,-144.53369 c -0.9375,2.1206 -2.47998,4.34473 -4.479,6.68115 0,0 -7.80371,2.49756 -16.78613,9.22022 -8.98243,6.72265 -12.83887,12.79101 -12.83887,12.79101 -1.7168,0.84473 -3.47608,1.66895 -5.27344,2.46924 -2.92187,1.30127 -5.82519,2.48389 -8.68457,3.54736 0,0 -9.52637,-0.64599 -19.63086,1.12256 -10.10498,1.76904 -15.60644,5.57813 -15.60644,5.57813 -3.09717,-0.14209 -5.76758,-0.62403 -7.90235,-1.45557 0,0 -0.04101,-0.18213 -0.04101,-0.18213"
           style="fill:none;stroke:#231f20;stroke-width:0.2775;stroke-linecap:round;stroke-linejoin:round;stroke-miterlimit:3.8636899;stroke-dasharray:none;stroke-opacity:1"
           id="path62"
           inkscape:connector-curvature="0" /><path
           d="m 138.23975,-150.41943 c 3.01025,1.02685 5.13867,2.65771 6.1416,4.90869 4.2876,9.62988 -13.64942,26.96924 -40.06446,38.72949 -26.41455,11.76074 -51.30322,13.48779 -55.5913,3.85791 -0.96778,-2.17383 -0.86573,-4.74023 0.33545,-7.54687"
           style="fill:none;stroke:#231f20;stroke-width:0.5;stroke-linecap:round;stroke-linejoin:round;stroke-miterlimit:3.8636899;stroke-dasharray:none;stroke-opacity:1"
           id="path64"
           inkscape:connector-curvature="0" /><path
           d="m 58.52051,-102.96191 c 0,0 2.75097,5.79736 2.75097,5.79736"
           style="fill:none;stroke:#231f20;stroke-width:0.25;stroke-linecap:round;stroke-linejoin:round;stroke-miterlimit:3.8636899;stroke-dasharray:none;stroke-opacity:1"
           id="path66"
           inkscape:connector-curvature="0" /><path
           d="m 93.66455,-109.68457 c 0,0 2.89063,5.93652 2.89063,5.93652"
           style="fill:none;stroke:#231f20;stroke-width:0.25;stroke-linecap:round;stroke-linejoin:round;stroke-miterlimit:3.8636899;stroke-dasharray:none;stroke-opacity:1"
           id="path68"
           inkscape:connector-curvature="0" /><path
           d="m 107.69922,-115.62109 c 0,0 2.84961,5.74023 2.84961,5.74023"
           style="fill:none;stroke:#231f20;stroke-width:0.25;stroke-linecap:round;stroke-linejoin:round;stroke-miterlimit:3.8636899;stroke-dasharray:none;stroke-opacity:1"
           id="path70"
           inkscape:connector-curvature="0" /><path
           d="m 137.14502,-137.75439 c 0,0 2.94727,6.1333 2.94727,6.1333"
           style="fill:none;stroke:#231f20;stroke-width:0.25;stroke-linecap:round;stroke-linejoin:round;stroke-miterlimit:3.8636899;stroke-dasharray:none;stroke-opacity:1"
           id="path72"
           inkscape:connector-curvature="0" /><path
           d="m 110.87939,-157.11621 c 4.71338,-0.86817 9.02442,-1.2417 12.7295,-1.10645 0,0 2.84179,0.0244 2.84179,0.0244 2.64014,0.0713 5.31348,0.43115 7.41016,0.90674 0,0 7.90186,12.75781 7.90186,12.75781 0,0 2.55468,5.69873 2.55468,5.69873"
           style="fill:none;stroke:#231f20;stroke-width:0.5;stroke-linecap:round;stroke-linejoin:round;stroke-miterlimit:3.8636899;stroke-dasharray:none;stroke-opacity:1"
           id="path74"
           inkscape:connector-curvature="0" /><path
           d="m 183.08936,-163.96289 c 13.08984,1.97412 17.55664,16.31152 14.75293,24.41553 -2.11622,6.11621 -15.27247,42.18213 -17.14307,45.60986 -1.49463,2.73828 -6.2334,7.68799 -12.98633,10.70166 -14.23389,6.35254 -48.00293,21.18555 -48.00293,21.18555 -27.99267,11.01318 -53.58447,11.14746 -62.91504,0.48681 0,0 -3.60937,-3.74267 -8.39892,-12.2749 -4.78955,-8.53223 -8.21875,-20.23633 -8.21875,-20.23633 -1.78174,-6.28125 1.24316,-14.03515 7.78125,-21.92578"
           style="fill:none;stroke:#231f20;stroke-width:0.5;stroke-linecap:round;stroke-linejoin:round;stroke-miterlimit:3.8636899;stroke-dasharray:none;stroke-opacity:1"
           id="path76"
           inkscape:connector-curvature="0" /><path
           d="m 146.73975,-105.19775 c 2.11328,-5.50489 9.1875,-7.90918 15.80127,-5.37061 6.61328,2.53906 10.26171,9.05957 8.14843,14.56445 -2.11279,5.50489 -9.18701,7.90918 -15.80078,5.37061 -6.61377,-2.53906 -10.26221,-9.05957 -8.14892,-14.56445 z"
           style="fill:none;stroke:#231f20;stroke-width:0.5;stroke-linecap:round;stroke-linejoin:round;stroke-miterlimit:3.8636899;stroke-dasharray:none;stroke-opacity:1"
           id="path78"
           inkscape:connector-curvature="0" /><path
           d="m 161.13574,-112.95313 c 0.72119,0.17481 1.54395,0.40821 2.31104,0.70264 7.21777,2.771 11.19922,9.88672 8.89306,15.89453 -2.30615,6.00733 -10.02636,8.63135 -17.24414,5.86084 -7.09716,-2.72412 -11.06494,-9.6499 -9.00293,-15.59228"
           style="fill:none;stroke:#231f20;stroke-width:0.5;stroke-linecap:round;stroke-linejoin:round;stroke-miterlimit:3.8636899;stroke-dasharray:none;stroke-opacity:1"
           id="path80"
           inkscape:connector-curvature="0" /><path
           d="m 182.56982,-98.71582 c 3.21924,-8 -3.53369,-19.74121 -13.35937,-22.72803 -5.85547,-1.77929 -10.84863,-2.10351 -18.74463,1.01221 -14.38623,6.11963 -48.97168,21.1333 -48.97168,21.1333 -28.33838,11.40186 -54.1499,12.00195 -59.08838,0.91162 -2.16064,-4.85303 0.02295,-11.18603 5.45947,-17.89648"
           style="fill:none;stroke:#231f20;stroke-width:0.25;stroke-linecap:round;stroke-linejoin:round;stroke-miterlimit:3.8636899;stroke-dasharray:none;stroke-opacity:1"
           id="path82"
           inkscape:connector-curvature="0" /><path
           d="m 141.63428,-133.41797 c 0,0 2.90771,-0.72754 16.51953,-3.32568 18.63867,-3.55762 33.17969,14.49511 27.11572,31.27441"
           style="fill:none;stroke:#231f20;stroke-width:0.5;stroke-linecap:round;stroke-linejoin:round;stroke-miterlimit:3.8636899;stroke-dasharray:none;stroke-opacity:1"
           id="path84"
           inkscape:connector-curvature="0" /><path
           d="m 142.56982,-134.97705 c 0,0 2.59571,-0.62354 16.51954,-3.3252 18.62793,-3.61474 33.38769,13.24756 27.32324,30.02735"
           style="fill:none;stroke:#231f20;stroke-width:0.25;stroke-linecap:round;stroke-linejoin:round;stroke-miterlimit:3.8636899;stroke-dasharray:none;stroke-opacity:1"
           id="path86"
           inkscape:connector-curvature="0" /><path
           d="m 172.22803,-95.81836 c -2.31592,5.99365 -10.02686,8.6084 -17.23633,5.84082 -7.06348,-2.71142 -11.09033,-9.58545 -9.03125,-15.50879"
           style="fill:none;stroke:#231f20;stroke-width:1.00011003;stroke-linecap:round;stroke-linejoin:round;stroke-miterlimit:3.8636899;stroke-dasharray:none;stroke-opacity:1"
           id="path88"
           inkscape:connector-curvature="0" /><path
           d="m 173.86328,-104.37061 c 1.375,6.01368 -2.42334,13.24366 -9.61523,17.22998 -8.28467,4.59229 -17.86866,3.14063 -21.40674,-3.24218 -0.54736,-0.98682 -0.91797,-2.03369 -1.12256,-3.11573"
           style="fill:none;stroke:#231f20;stroke-width:0.25;stroke-linecap:round;stroke-linejoin:round;stroke-miterlimit:3.8636899;stroke-dasharray:none;stroke-opacity:1"
           id="path90"
           inkscape:connector-curvature="0" /><path
           d="m 141.71875,-93.49854 c -1.12012,-5.91503 2.63965,-13.1455 9.64355,-17.02783 8.28418,-4.59179 17.94141,-2.86816 21.4795,3.51465 0.46679,0.8418 0.74267,1.72754 1.02148,2.64111 -0.27734,-0.76709 -0.52148,-1.51171 -0.91748,-2.22558 -3.53809,-6.38233 -13.12207,-7.83399 -21.40674,-3.24219 -6.83642,3.78955 -10.68359,10.51953 -9.82031,16.33984 z"
           style="fill:#231f20;fill-opacity:1;fill-rule:nonzero;stroke:none"
           id="path92"
           inkscape:connector-curvature="0" /><path
           d="m 141.71875,-93.49854 c -1.12012,-5.91503 2.63965,-13.1455 9.64355,-17.02783 8.28418,-4.59179 17.94141,-2.86816 21.4795,3.51465 0.46679,0.8418 0.74267,1.72754 1.02148,2.64111 -0.27734,-0.76709 -0.52148,-1.51171 -0.91748,-2.22558 -3.53809,-6.38233 -13.12207,-7.83399 -21.40674,-3.24219 -6.83642,3.78955 -10.68359,10.51953 -9.82031,16.33984 z"
           style="fill:none;stroke:#231f20;stroke-width:0.25;stroke-linecap:round;stroke-linejoin:round;stroke-miterlimit:3.8636899;stroke-dasharray:none;stroke-opacity:1"
           id="path94"
           inkscape:connector-curvature="0" /><path
           d="m 159.36572,-94.45898 c 0,0 -2.92187,-1.36231 -2.92187,-1.36231 0,0 -2.92237,-1.36279 -2.92237,-1.36279 0,0 -0.40136,-2.95459 -0.40136,-2.95459 0,0 -0.40088,-2.9541 -0.40088,-2.9541 0,0 2.52099,-1.5918 2.52099,-1.5918 0,0 2.521,-1.59131 2.521,-1.59131 0,0 2.92188,1.36231 2.92188,1.36231 0,0 2.92187,1.36279 2.92187,1.36279 0,0 0.40137,2.9541 0.40137,2.9541 0,0 0.40136,2.9541 0.40136,2.9541 0,0 -2.52099,1.5918 -2.52099,1.5918 0,0 -2.521,1.5918 -2.521,1.5918 z"
           style="fill:none;stroke:#231f20;stroke-width:0.5;stroke-linecap:round;stroke-linejoin:round;stroke-miterlimit:3.8636899;stroke-dasharray:none;stroke-opacity:1"
           id="path96"
           inkscape:connector-curvature="0" /><path
           d="m 163.85107,-100.34619 c 0,0 -2.52099,1.5918 -2.52099,1.5918 0,0 -2.92188,-1.36231 -2.92188,-1.36231 0,0 -2.92236,-1.36279 -2.92236,-1.36279 0,0 -0.40088,-2.9541 -0.40088,-2.9541"
           style="fill:none;stroke:#231f20;stroke-width:0.5;stroke-linecap:round;stroke-linejoin:round;stroke-miterlimit:3.8636899;stroke-dasharray:none;stroke-opacity:1"
           id="path98"
           inkscape:connector-curvature="0" /><path
           d="m 152.73682,-103.10352 c 0,0 2.50341,-1.58105 2.50341,-1.58105 0,0 2.521,-1.59131 2.521,-1.59131 0,0 2.92188,1.36231 2.92188,1.36231 0,0 2.92187,1.36279 2.92187,1.36279 0,0 0.40137,2.9541 0.40137,2.9541 0,0 0.34912,2.9873 0.34912,2.9873"
           style="fill:none;stroke:#231f20;stroke-width:1.00011003;stroke-linecap:round;stroke-linejoin:round;stroke-miterlimit:3.8636899;stroke-dasharray:none;stroke-opacity:1"
           id="path100"
           inkscape:connector-curvature="0" /><path
           d="m 155.43311,-101.40381 c 0,0 -1.96485,4.09766 -1.96485,4.09766"
           style="fill:none;stroke:#231f20;stroke-width:0.5;stroke-linecap:round;stroke-linejoin:round;stroke-miterlimit:3.8636899;stroke-dasharray:none;stroke-opacity:1"
           id="path102"
           inkscape:connector-curvature="0" /><path
           d="m 161.24365,-98.65332 c 0,0 -1.9375,3.90234 -1.9375,3.90234"
           style="fill:none;stroke:#231f20;stroke-width:0.5;stroke-linecap:round;stroke-linejoin:round;stroke-miterlimit:3.8636899;stroke-dasharray:none;stroke-opacity:1"
           id="path104"
           inkscape:connector-curvature="0" /><path
           d="m 73.03564,-53.79199 c 0,0 26.01075,53.09472 26.01075,53.09472"
           style="fill:none;stroke:#231f20;stroke-width:0.5;stroke-linecap:round;stroke-linejoin:round;stroke-miterlimit:3.8636899;stroke-dasharray:none;stroke-opacity:1"
           id="path106"
           inkscape:connector-curvature="0" /><path
           d="m 168.58838,-83.11084 c 0,0 32,82.86084 32,82.86084"
           style="fill:none;stroke:#231f20;stroke-width:0.5;stroke-linecap:round;stroke-linejoin:round;stroke-miterlimit:3.8636899;stroke-dasharray:none;stroke-opacity:1"
           id="path108"
           inkscape:connector-curvature="0" /><path
           d="m 47.73877,-74.66406 c 0,0 -42.01074,21.09521 -42.01074,21.09521"
           style="fill:none;stroke:#231f20;stroke-width:0.5;stroke-linecap:round;stroke-linejoin:round;stroke-miterlimit:3.8636899;stroke-dasharray:none;stroke-opacity:1"
           id="path110"
           inkscape:connector-curvature="0" /><path
           d="m 90.59961,-17.54688 c 0,0 -29.98877,16 -29.98877,16"
           style="fill:none;stroke:#231f20;stroke-width:0.5;stroke-linecap:round;stroke-linejoin:round;stroke-miterlimit:3.8636899;stroke-dasharray:none;stroke-opacity:1"
           id="path112"
           inkscape:connector-curvature="0" /><path
           d="m 5.72803,-17.32324 c 0.89355,-0.44678 35.23926,-14.40821 45.31836,-17.7876 15.32959,-5.13916 21.54199,12.20117 10.90478,20.4248 -8.73291,6.75147 -19.12793,13.3628 -19.12793,13.3628"
           style="fill:none;stroke:#231f20;stroke-width:0.25;stroke-linecap:round;stroke-linejoin:round;stroke-miterlimit:3.8636899;stroke-dasharray:none;stroke-opacity:1"
           id="path114"
           inkscape:connector-curvature="0" /><path
           d="m 3.94043,-30.23926 c 0,0 25.34033,-9.34082 42.90478,-16 17.56397,-6.65918 26.68116,2.01123 30.43555,8.22363 3.75488,6.21241 2.90528,15.55323 -8,24.22315 -10.90478,8.67041 -16.89355,13.09521 -16.89355,13.09521"
           style="fill:none;stroke:#231f20;stroke-width:0.25;stroke-linecap:round;stroke-linejoin:round;stroke-miterlimit:3.8636899;stroke-dasharray:none;stroke-opacity:1"
           id="path116"
           inkscape:connector-curvature="0" /><path
           d="m 19.27002,-100.22803 c 0,0 -16.22363,6.88282 -16.22363,6.88282"
           style="fill:none;stroke:#231f20;stroke-width:0.25;stroke-linecap:round;stroke-linejoin:round;stroke-miterlimit:3.8636899;stroke-dasharray:none;stroke-opacity:1"
           id="path118"
           inkscape:connector-curvature="0" /><path
           d="m 49.03564,-137.77002 c 0,0 -21.76562,43.53076 -22.88281,45.54199 -1.11719,2.01123 -4.20166,3.97803 -4.20166,3.97803 0,0 -16.89355,8.66992 -16.89355,8.66992"
           style="fill:none;stroke:#231f20;stroke-width:0.25;stroke-linecap:round;stroke-linejoin:round;stroke-miterlimit:3.8636899;stroke-dasharray:none;stroke-opacity:1"
           id="path120"
           inkscape:connector-curvature="0" /><path
           d="m 49.54639,-138.50293 c 0,0 -1.50928,-3.854 -3.30762,-5.58643 -1.46729,-1.41357 -3.70947,-1.66992 -3.70947,-1.66992 0,0 -42.2793,-7.17968 -42.2793,-7.17968"
           style="fill:none;stroke:#231f20;stroke-width:0.5;stroke-linecap:round;stroke-linejoin:round;stroke-miterlimit:3.8636899;stroke-dasharray:none;stroke-opacity:1"
           id="path122"
           inkscape:connector-curvature="0" /><path
           d="m 47.51563,-142.23926 c -1.56446,-2.01074 -2.90479,-1.11719 -4.02247,0.44727 -1.11718,1.56396 -18.86035,36.87158 -20.64795,40 -1.78759,3.12793 0.67042,10.45752 0.67042,10.45752"
           style="fill:none;stroke:#231f20;stroke-width:0.25;stroke-linecap:round;stroke-linejoin:round;stroke-miterlimit:3.8636899;stroke-dasharray:none;stroke-opacity:1"
           id="path124"
           inkscape:connector-curvature="0" /><path
           d="m 60.3252,-134.4541 c 0,0 -4.93799,-8.43555 -4.93799,-8.43555 -0.50879,-0.77832 -1.69532,-0.96094 -3.09912,-1.13721 -2.44873,-0.30712 -6.6543,-0.91064 -6.6543,-0.91064"
           style="fill:none;stroke:#231f20;stroke-width:0.5;stroke-linecap:round;stroke-linejoin:round;stroke-miterlimit:3.8636899;stroke-dasharray:none;stroke-opacity:1"
           id="path126"
           inkscape:connector-curvature="0" /><path
           d="m 5.95117,-76.00488 c 0,0 13.72119,-6.92676 18.63721,-10.01075 4.91601,-3.08398 7.32959,-6.25683 8.44726,-8.67041 1.11719,-2.41357 20.06641,-40.62597 21.80957,-44.64794 0.79493,-1.83399 0.84375,-2.90332 0.41749,-3.55567"
           style="fill:none;stroke:#231f20;stroke-width:0.25;stroke-linecap:round;stroke-linejoin:round;stroke-miterlimit:3.8636899;stroke-dasharray:none;stroke-opacity:1"
           id="path128"
           inkscape:connector-curvature="0" /><path
           d="m 6.18262,-64.71338 c 0,0 17.86572,-9.09619 22.78174,-12.18017 4.91601,-3.08399 7.32959,-6.25684 8.44677,-8.67041 0.2583,-0.55811 1.47022,-3.03077 3.20264,-6.55225"
           style="fill:none;stroke:#231f20;stroke-width:0.25;stroke-linecap:round;stroke-linejoin:round;stroke-miterlimit:3.8636899;stroke-dasharray:none;stroke-opacity:1"
           id="path130"
           inkscape:connector-curvature="0" /><path
           d="m 8.38721,-63.70361 c 0,0 17.86572,-9.09619 22.78174,-12.18018 4.91601,-3.08398 7.32959,-6.25684 8.44726,-8.67041 0.19678,-0.42529 0.94727,-1.96289 2.06055,-4.229"
           style="fill:none;stroke:#231f20;stroke-width:0.25;stroke-linecap:round;stroke-linejoin:round;stroke-miterlimit:3.8636899;stroke-dasharray:none;stroke-opacity:1"
           id="path132"
           inkscape:connector-curvature="0" /><path
           d="m 29.854,-67.82275 c 1.41895,-0.79053 2.61719,-1.48194 3.44678,-2.00245 4.91602,-3.08398 7.32959,-6.25683 8.44727,-8.67041 0.20654,-0.44677 1.02392,-2.11865 2.22998,-4.57373"
           style="fill:none;stroke:#231f20;stroke-width:0.5;stroke-linecap:round;stroke-linejoin:round;stroke-miterlimit:3.8636899;stroke-dasharray:none;stroke-opacity:1"
           id="path134"
           inkscape:connector-curvature="0" /><path
           d="m 29.76465,-67.66406 c 0,0 0.78515,1.5708 0.78515,1.5708"
           style="fill:none;stroke:#231f20;stroke-width:0.25;stroke-linecap:round;stroke-linejoin:round;stroke-miterlimit:3.8636899;stroke-dasharray:none;stroke-opacity:1"
           id="path136"
           inkscape:connector-curvature="0" /><path
           d="m 30.30176,-67.95068 c 0,0 0.78564,1.5708 0.78564,1.5708"
           style="fill:none;stroke:#231f20;stroke-width:0.5;stroke-linecap:round;stroke-linejoin:round;stroke-miterlimit:3.8636899;stroke-dasharray:none;stroke-opacity:1"
           id="path138"
           inkscape:connector-curvature="0" /><path
           d="m 1.70557,-169.09961 c 0,0 37.81006,1.07275 52.2456,2.18994 14.43604,1.11768 31.77686,3.79883 31.77686,3.79883"
           style="fill:none;stroke:#231f20;stroke-width:0.5;stroke-linecap:round;stroke-linejoin:round;stroke-miterlimit:3.8636899;stroke-dasharray:none;stroke-opacity:1"
           id="path140"
           inkscape:connector-curvature="0" /><path
           d="m 108.62598,-177.43359 c -1.91162,1.55322 0.59765,5.96875 0.47802,6.80517 -0.11962,0.83643 -1.1997,2.38477 -3.22607,2.26514 -2.02588,-0.11963 -6.09326,-0.71192 -8.23877,-4.05713 -2.14551,-3.3457 -7.28809,-14.57129 -9.0752,-19.10645"
           style="fill:none;stroke:#231f20;stroke-width:0.5;stroke-linecap:round;stroke-linejoin:round;stroke-miterlimit:3.8636899;stroke-dasharray:none;stroke-opacity:1"
           id="path142"
           inkscape:connector-curvature="0" /><path
           d="m 104.33008,-177.0752 c 0.95068,-0.95556 2.5039,-0.83642 2.5039,-0.83642 0,0 16.7168,2.02637 25.31446,2.86279 8.59717,0.83594 16.83594,10.74756 17.91162,11.70362 1.07519,0.95605 1.90625,1.07519 3.45947,1.07519 1.55322,0 10.27051,0.11963 24.71729,-1.43359 14.44629,-1.55323 25.5581,-4.41553 27.94238,-13.49073 2.38476,-9.07568 3.93799,-15.64697 3.93799,-15.64697"
           style="fill:none;stroke:#231f20;stroke-width:0.5;stroke-linecap:round;stroke-linejoin:round;stroke-miterlimit:3.8636899;stroke-dasharray:none;stroke-opacity:1"
           id="path144"
           inkscape:connector-curvature="0" /><path
           d="m 178.11719,-194.86719 c 0,0 12.65429,17.54785 16.71679,26.02588"
           style="fill:none;stroke:#231f20;stroke-width:0.25;stroke-linecap:round;stroke-linejoin:round;stroke-miterlimit:3.8636899;stroke-dasharray:none;stroke-opacity:1"
           id="path146"
           inkscape:connector-curvature="0" /><path
           d="m 190.06006,-196.77881 c 0,0 9.42822,13.96875 13.13232,22.44678"
           style="fill:none;stroke:#231f20;stroke-width:0.25;stroke-linecap:round;stroke-linejoin:round;stroke-miterlimit:3.8636899;stroke-dasharray:none;stroke-opacity:1"
           id="path148"
           inkscape:connector-curvature="0" /><path
           d="m 100.2793,-169.54883 c 0,0 -2.70166,3.46192 -2.70166,3.46192"
           style="fill:none;stroke:#231f20;stroke-width:0.5;stroke-linecap:round;stroke-linejoin:round;stroke-miterlimit:3.8636899;stroke-dasharray:none;stroke-opacity:1"
           id="path150"
           inkscape:connector-curvature="0" /><path
           d="m 115.73877,-176.57227 c 0,0 -0.64844,1.5127 -0.54004,3.34961 0.10791,1.83692 0.54004,6.05518 0.64795,8.75635 0.1084,2.70166 5.07861,10.48535 33.83691,0.97266"
           style="fill:none;stroke:#231f20;stroke-width:0.5;stroke-linecap:round;stroke-linejoin:round;stroke-miterlimit:3.8636899;stroke-dasharray:none;stroke-opacity:1"
           id="path152"
           inkscape:connector-curvature="0" /><path
           d="m 153.57764,-162.08887 c 0,0 -10.16504,4.00196 -19.46143,4.7583"
           style="fill:none;stroke:#231f20;stroke-width:0.5;stroke-linecap:round;stroke-linejoin:round;stroke-miterlimit:3.8636899;stroke-dasharray:none;stroke-opacity:1"
           id="path154"
           inkscape:connector-curvature="0" /><path
           d="m 120.71338,-159.59961 c 0,0 0.54004,1.18848 0.54004,1.18848"
           style="fill:none;stroke:#231f20;stroke-width:0.5;stroke-linecap:round;stroke-linejoin:round;stroke-miterlimit:3.8636899;stroke-dasharray:none;stroke-opacity:1"
           id="path156"
           inkscape:connector-curvature="0" /><path
           d="m 198.54834,-140.46631 c 0,0 18.27295,-3.45752 18.27295,-3.45752"
           style="fill:none;stroke:#231f20;stroke-width:0.5;stroke-linecap:round;stroke-linejoin:round;stroke-miterlimit:3.8636899;stroke-dasharray:none;stroke-opacity:1"
           id="path158"
           inkscape:connector-curvature="0" /><path
           d="m 197.57568,-150.73535 c 0,0 16.75635,-2.92139 16.75635,-2.92139"
           style="fill:none;stroke:#231f20;stroke-width:0.5;stroke-linecap:round;stroke-linejoin:round;stroke-miterlimit:3.8636899;stroke-dasharray:none;stroke-opacity:1"
           id="path160"
           inkscape:connector-curvature="0" /><path
           d="m 211.95508,-190.51904 c 0,0 -1.5127,12.21777 -1.94531,16.64795 -0.43213,4.43017 0.97265,8.43213 0.97265,8.43213 0,0 7.78418,28.43457 8.86426,32.2163 1.08105,3.78174 7.35205,4.97461 9.62109,5.19043 2.26905,0.21631 14.91944,0.64844 22.48731,0.32422"
           style="fill:none;stroke:#231f20;stroke-width:0.5;stroke-linecap:round;stroke-linejoin:round;stroke-miterlimit:3.8636899;stroke-dasharray:none;stroke-opacity:1"
           id="path162"
           inkscape:connector-curvature="0" /><path
           d="m 219.84668,-133.22266 c 0.75684,2.16114 5.07861,3.2417 10.80957,3.56592 5.73096,0.32422 17.08447,0.32422 20.8667,0.10791"
           style="fill:none;stroke:#231f20;stroke-width:0.25;stroke-linecap:round;stroke-linejoin:round;stroke-miterlimit:3.8636899;stroke-dasharray:none;stroke-opacity:1"
           id="path164"
           inkscape:connector-curvature="0" /><path
           d="m 220.49512,-185.54883 c 0,0 -9.4043,11.1377 -9.4043,11.1377"
           style="fill:none;stroke:#231f20;stroke-width:0.25;stroke-linecap:round;stroke-linejoin:round;stroke-miterlimit:3.8636899;stroke-dasharray:none;stroke-opacity:1"
           id="path166"
           inkscape:connector-curvature="0" /><path
           d="m 225.0376,-180.68213 c 0,0 -9.625,12.54199 -9.625,12.54199"
           style="fill:none;stroke:#231f20;stroke-width:0.25;stroke-linecap:round;stroke-linejoin:round;stroke-miterlimit:3.8636899;stroke-dasharray:none;stroke-opacity:1"
           id="path168"
           inkscape:connector-curvature="0" /><path
           d="m 210.55029,-172.35791 c 0,0 0.64453,2.81299 4.7544,5.94678 4.10986,3.1333 26.92138,14.16308 35.89404,17.18847"
           style="fill:none;stroke:#231f20;stroke-width:0.25;stroke-linecap:round;stroke-linejoin:round;stroke-miterlimit:3.8636899;stroke-dasharray:none;stroke-opacity:1"
           id="path170"
           inkscape:connector-curvature="0" /><path
           d="m 212.81934,-163.70996 c 0,0 15.24365,9.729 37.62304,17.62109"
           style="fill:none;stroke:#231f20;stroke-width:0.25;stroke-linecap:round;stroke-linejoin:round;stroke-miterlimit:3.8636899;stroke-dasharray:none;stroke-opacity:1"
           id="path172"
           inkscape:connector-curvature="0" /><path
           d="m 221.14355,-192.90039 c 0,0 0,2.81348 0,5.19043 0,2.37744 2.48926,4.97461 5.62305,6.59521 3.1333,1.6211 18.37695,9.94922 26.05274,12.75879"
           style="fill:none;stroke:#231f20;stroke-width:0.25;stroke-linecap:round;stroke-linejoin:round;stroke-miterlimit:3.8636899;stroke-dasharray:none;stroke-opacity:1"
           id="path174"
           inkscape:connector-curvature="0" /><path
           d="m 225.46973,-193.0083 c 0,0 -0.10791,2.05664 -0.10791,4.54199 0,2.48535 3.45752,3.89404 3.45752,3.89404 0,0 14.37939,8 23.45996,11.78174"
           style="fill:none;stroke:#231f20;stroke-width:0.25;stroke-linecap:round;stroke-linejoin:round;stroke-miterlimit:3.8636899;stroke-dasharray:none;stroke-opacity:1"
           id="path176"
           inkscape:connector-curvature="0" /><path
           d="m 185.48242,-99.11084 c 0,0 3.5752,3.30762 2.90479,11.97803 -0.67041,8.67041 -5.09522,27.12842 -5.09522,27.12842"
           style="fill:none;stroke:#231f20;stroke-width:0.25;stroke-linecap:round;stroke-linejoin:round;stroke-miterlimit:3.8636899;stroke-dasharray:none;stroke-opacity:1"
           id="path178"
           inkscape:connector-curvature="0" /><path
           d="m 180.93604,-51.17383 c -1.17579,-3.53125 2.35595,-4.62939 2.35595,-4.62939 0,0 29.58643,-7.32959 32.67041,-7.77686 3.08399,-0.44678 5.31836,1.34082 5.76563,3.35205 0.44677,2.01123 6.26709,21.60498 6.26709,21.60498"
           style="fill:none;stroke:#231f20;stroke-width:0.25;stroke-linecap:round;stroke-linejoin:round;stroke-miterlimit:3.8636899;stroke-dasharray:none;stroke-opacity:1"
           id="path180"
           inkscape:connector-curvature="0" /><path
           d="m 245.56299,-127.64258 c 0,0 -2.00244,0.86963 -2.00244,0.86963 -1.86377,0.91797 -4.46582,1.71289 -7.39698,2.17676 -6.02392,0.9541 -11.15722,0.15088 -11.46533,-1.79492 -0.11181,-0.70606 0.36475,-1.46534 1.44727,-2.1919"
           style="fill:none;stroke:#231f20;stroke-width:0.25;stroke-linecap:round;stroke-linejoin:round;stroke-miterlimit:3.8636899;stroke-dasharray:none;stroke-opacity:1"
           id="path182"
           inkscape:connector-curvature="0" /><path
           d="m 249.73584,-114.32861 c -1.72363,1.75244 -6.02295,3.46777 -11.21143,4.28955 -6.98779,1.10644 -12.9497,0.1206 -13.30712,-2.13623 0,0 -2.1167,-13.4126 -2.1167,-13.4126 -0.14161,-1.01123 0.87353,-2.11279 2.66504,-3.11816"
           style="fill:none;stroke:#231f20;stroke-width:0.5;stroke-linecap:round;stroke-linejoin:round;stroke-miterlimit:3.8636899;stroke-dasharray:none;stroke-opacity:1"
           id="path184"
           inkscape:connector-curvature="0" /><path
           d="m 231.91504,-109.36865 c 0,0 5.021,27.60986 19.7666,38.51025"
           style="fill:none;stroke:#231f20;stroke-width:0.25;stroke-linecap:round;stroke-linejoin:round;stroke-miterlimit:3.8636899;stroke-dasharray:none;stroke-opacity:1"
           id="path186"
           inkscape:connector-curvature="0" /><path
           d="m 235.40332,-109.57813 c 1.59375,6.93213 7.14404,27.17188 19.26074,36.1294"
           style="fill:none;stroke:#231f20;stroke-width:0.5;stroke-linecap:round;stroke-linejoin:round;stroke-miterlimit:3.8636899;stroke-dasharray:none;stroke-opacity:1"
           id="path188"
           inkscape:connector-curvature="0" /><path
           d="m 220.84424,-25.51416 c 0,0 8.0918,25.08789 8.0918,25.08789"
           style="fill:none;stroke:#231f20;stroke-width:0.5;stroke-linecap:round;stroke-linejoin:round;stroke-miterlimit:3.8636899;stroke-dasharray:none;stroke-opacity:1"
           id="path190"
           inkscape:connector-curvature="0" /><path
           d="m 198.6709,-23.12793 c -3.51611,-9.54736 -7.06299,-19.20117 -7.7749,-21.22168 -1.49317,-4.23682 2.27685,-4.78564 2.27685,-4.78564 0,0 11.68115,-3.05762 14.50684,-3.68457 2.82617,-0.62745 4.47217,0.62353 5.25635,2.90039 0.25781,0.74902 2.07714,6.35986 4.40234,13.55322"
           style="fill:none;stroke:#231f20;stroke-width:0.5;stroke-linecap:round;stroke-linejoin:round;stroke-miterlimit:3.8636899;stroke-dasharray:none;stroke-opacity:1"
           id="path192"
           inkscape:connector-curvature="0" /><path
           d="m 206.34717,-2.31152 c 0,0 -3.26074,-8.84278 -3.26074,-8.84278"
           style="fill:none;stroke:#231f20;stroke-width:0.5;stroke-linecap:round;stroke-linejoin:round;stroke-miterlimit:3.8636899;stroke-dasharray:none;stroke-opacity:1"
           id="path194"
           inkscape:connector-curvature="0" /><path
           d="m 198.26855,-6.3877 c 0,0 9.54102,-9.73486 15.27002,-15.17724 5.72852,-5.44238 16.49952,-6.76221 26.92627,-3.89649 0,0 0.1958,0.06055 0.1958,0.06055 0.80127,0.2002 2.03077,-1.96338 2.7461,-4.83154 0.70166,-2.81543 0.74951,-5.21094 0.0395,-5.49024 -14.2749,-3.92334 -29.021,-2.1167 -36.86377,5.33496 -7.84326,7.45118 -12.62549,12.31153 -12.62549,12.31153"
           style="fill:none;stroke:#231f20;stroke-width:0.5;stroke-linecap:round;stroke-linejoin:round;stroke-miterlimit:3.8636899;stroke-dasharray:none;stroke-opacity:1"
           id="path196"
           inkscape:connector-curvature="0" /><path
           d="m 244.07373,-33.84082 c 0,0 6.74561,1.6499 6.74561,1.6499"
           style="fill:none;stroke:#231f20;stroke-width:0.5;stroke-linecap:round;stroke-linejoin:round;stroke-miterlimit:3.8636899;stroke-dasharray:none;stroke-opacity:1"
           id="path198"
           inkscape:connector-curvature="0" /><path
           d="m 242.27051,-26.78174 c 0,0 8.07861,2.12012 8.07861,2.12012"
           style="fill:none;stroke:#231f20;stroke-width:0.5;stroke-linecap:round;stroke-linejoin:round;stroke-miterlimit:3.8636899;stroke-dasharray:none;stroke-opacity:1"
           id="path200"
           inkscape:connector-curvature="0" /></g></g><text
       transform="matrix(1,0,0,-1,8.40039,6.31055)"
       style="font-variant:normal;font-weight:normal;font-size:4.84308004px;font-family:Helvetica;-inkscape-font-specification:Helvetica;writing-mode:lr-tb;fill:#231f20;fill-opacity:1;fill-rule:nonzero;stroke:none"
       id="text204"><tspan
         x="0 2.4070108 4.891511 7.3760109 9.8605108"
         y="0"
         sodipodi:role="line"
         id="tspan202">T1320</tspan></text>
<g
       id="g206"
       transform="scale(1,-1)"><path
         d="m 136.56055,-52.68311 c 0,0 21.78222,-38.34033 21.78222,-38.34033"
         style="fill:none;stroke:#ffffff;stroke-width:3;stroke-linecap:round;stroke-linejoin:miter;stroke-miterlimit:4;stroke-dasharray:none;stroke-opacity:1"
         id="path208"
         inkscape:connector-curvature="0" /><path
         d="m 158.34375,-91.02295 c 0,0 0,0 0,0"
         style="fill:none;stroke:#ffffff;stroke-width:3.75;stroke-linecap:round;stroke-linejoin:miter;stroke-miterlimit:4;stroke-dasharray:none;stroke-opacity:1"
         id="path210"
         inkscape:connector-curvature="0" /><path
         d="m 136.56055,-52.68311 c 0,0 21.78222,-38.34033 21.78222,-38.34033"
         style="fill:none;stroke:#201d1c;stroke-width:0.5;stroke-linecap:round;stroke-linejoin:miter;stroke-miterlimit:4;stroke-dasharray:none;stroke-opacity:1"
         id="path212"
         inkscape:connector-curvature="0" /><path
         d="m 158.34375,-91.02295 c 0,0 0,0 0,0"
         style="fill:none;stroke:#201d1c;stroke-width:1.5;stroke-linecap:round;stroke-linejoin:miter;stroke-miterlimit:4;stroke-dasharray:none;stroke-opacity:1"
         id="path214"
         inkscape:connector-curvature="0" /><g
         id="g216"
         transform="scale(1,-1)"><text
           transform="matrix(1,0,0,-1,129.58057,44.16504)"
           style="font-variant:normal;font-weight:bold;font-size:12px;font-family:Helvetica;-inkscape-font-specification:Helvetica-Bold;writing-mode:lr-tb;fill:#231f20;fill-opacity:1;fill-rule:nonzero;stroke:none"
           id="text220"><tspan
             x="0"
             y="0"
             id="tspan218">1</tspan></text>
</g></g></g></svg>