<?xml version="1.0" encoding="UTF-8" standalone="no"?>
<!-- Created with Inkscape (http://www.inkscape.org/) -->

<svg
   xmlns:dc="http://purl.org/dc/elements/1.1/"
   xmlns:cc="http://creativecommons.org/ns#"
   xmlns:rdf="http://www.w3.org/1999/02/22-rdf-syntax-ns#"
   xmlns:svg="http://www.w3.org/2000/svg"
   xmlns="http://www.w3.org/2000/svg"
   xmlns:sodipodi="http://sodipodi.sourceforge.net/DTD/sodipodi-0.dtd"
   xmlns:inkscape="http://www.inkscape.org/namespaces/inkscape"
   version="1.1"
   id="svg2"
   xml:space="preserve"
   width="321.26001"
   height="245.66933"
   viewBox="0 0 321.26001 245.66933"
   sodipodi:docname="L0358_1.svg"
   inkscape:version="0.92.4 (5da689c313, 2019-01-14)"><metadata
     id="metadata8"><rdf:RDF><cc:Work
         rdf:about=""><dc:format>image/svg+xml</dc:format><dc:type
           rdf:resource="http://purl.org/dc/dcmitype/StillImage" /><dc:title></dc:title></cc:Work></rdf:RDF></metadata><defs
     id="defs6"><clipPath
       clipPathUnits="userSpaceOnUse"
       id="clipPath18"><path
         d="M 0,184.252 H 240.945 V 0 H 0 Z"
         id="path16"
         inkscape:connector-curvature="0" /></clipPath><clipPath
       clipPathUnits="userSpaceOnUse"
       id="clipPath376"><path
         d="M 0,184.252 H 240.945 V 0 H 0 Z"
         id="path374"
         inkscape:connector-curvature="0" /></clipPath><clipPath
       clipPathUnits="userSpaceOnUse"
       id="clipPath474"><path
         d="M 0,184.252 H 240.945 V 0 H 0 Z"
         id="path472"
         inkscape:connector-curvature="0" /></clipPath></defs><sodipodi:namedview
     pagecolor="#ffffff"
     bordercolor="#666666"
     borderopacity="1"
     objecttolerance="10"
     gridtolerance="10"
     guidetolerance="10"
     inkscape:pageopacity="0"
     inkscape:pageshadow="2"
     inkscape:window-width="640"
     inkscape:window-height="480"
     id="namedview4"
     showgrid="false"
     inkscape:zoom="0.94627402"
     inkscape:cx="160.63"
     inkscape:cy="122.83466"
     inkscape:window-x="0"
     inkscape:window-y="0"
     inkscape:window-maximized="0"
     inkscape:current-layer="g10" /><g
     id="g10"
     inkscape:groupmode="layer"
     inkscape:label="L0358_1"
     transform="matrix(1.3333333,0,0,-1.3333333,0,245.66933)"><g
       id="g12"><g
         id="g14"
         clip-path="url(#clipPath18)"><g
           id="g20"
           transform="translate(170.6973,91.5196)"><path
             d="M 0,0 C 1.777,3.033 2.639,7.085 2.572,11.143 2.495,15.941 1.149,20.205 -0.909,22.998"
             style="fill:none;stroke:#231f20;stroke-width:0.49900001;stroke-linecap:round;stroke-linejoin:miter;stroke-miterlimit:4;stroke-dasharray:none;stroke-opacity:1"
             id="path22"
             inkscape:connector-curvature="0" /></g><g
           id="g24"
           transform="translate(150.4619,80.9639)"><path
             d="M 0,0 C 9.101,-0.624 15.804,2.943 19.505,9.311"
             style="fill:none;stroke:#231f20;stroke-width:0.49900001;stroke-linecap:round;stroke-linejoin:miter;stroke-miterlimit:4;stroke-dasharray:none;stroke-opacity:1"
             id="path26"
             inkscape:connector-curvature="0" /></g><g
           id="g28"
           transform="translate(170.6953,91.5196)"><path
             d="M 0,0 -0.729,-1.245"
             style="fill:none;stroke:#231f20;stroke-width:0.49900001;stroke-linecap:round;stroke-linejoin:miter;stroke-miterlimit:4;stroke-dasharray:none;stroke-opacity:1"
             id="path30"
             inkscape:connector-curvature="0" /></g><g
           id="g32"
           transform="translate(126.5313,82.8223)"><path
             d="M 0,0 23.931,-1.858"
             style="fill:none;stroke:#231f20;stroke-width:0.49900001;stroke-linecap:round;stroke-linejoin:miter;stroke-miterlimit:4;stroke-dasharray:none;stroke-opacity:1"
             id="path34"
             inkscape:connector-curvature="0" /></g><g
           id="g36"
           transform="translate(144.4922,93.2872)"><path
             d="M 0,0 C 3.603,7.139 3.625,16.569 0.092,21.281"
             style="fill:none;stroke:#231f20;stroke-width:0.5;stroke-linecap:round;stroke-linejoin:miter;stroke-miterlimit:4;stroke-dasharray:none;stroke-opacity:1"
             id="path38"
             inkscape:connector-curvature="0" /></g><g
           id="g40"
           transform="translate(125.5703,139.875)"><path
             d="M 0,0 19.014,-25.307"
             style="fill:none;stroke:#231f20;stroke-width:0.5;stroke-linecap:round;stroke-linejoin:miter;stroke-miterlimit:4;stroke-dasharray:none;stroke-opacity:1"
             id="path42"
             inkscape:connector-curvature="0" /></g><g
           id="g44"
           transform="translate(144.4922,93.2872)"><path
             d="M 0,0 -0.334,-0.67"
             style="fill:none;stroke:#231f20;stroke-width:0.249;stroke-linecap:round;stroke-linejoin:miter;stroke-miterlimit:4;stroke-dasharray:none;stroke-opacity:1"
             id="path46"
             inkscape:connector-curvature="0" /></g><g
           id="g48"
           transform="translate(118.2129,137.8184)"><path
             d="M 0,0 -11.782,-19.213"
             style="fill:none;stroke:#231f20;stroke-width:0.5;stroke-linecap:round;stroke-linejoin:miter;stroke-miterlimit:4;stroke-dasharray:none;stroke-opacity:1"
             id="path50"
             inkscape:connector-curvature="0" /></g><g
           id="g52"
           transform="translate(125.5703,139.875)"><path
             d="M 0,0 C -1.617,1.98 -3.558,2.858 -4.809,1.465 -6.058,0.068 -7.135,-1.699 -7.357,-2.057"
             style="fill:none;stroke:#231f20;stroke-width:0.5;stroke-linecap:round;stroke-linejoin:miter;stroke-miterlimit:4;stroke-dasharray:none;stroke-opacity:1"
             id="path54"
             inkscape:connector-curvature="0" /></g><g
           id="g56"
           transform="translate(150.9902,139.8887)"><path
             d="M 0,0 18.798,-25.371"
             style="fill:none;stroke:#231f20;stroke-width:0.49900001;stroke-linecap:round;stroke-linejoin:miter;stroke-miterlimit:4;stroke-dasharray:none;stroke-opacity:1"
             id="path58"
             inkscape:connector-curvature="0" /></g><g
           id="g60"
           transform="translate(126.5313,82.8204)"><path
             d="M 0,0 C 4.73,-0.256 8.739,0.854 11.751,2.967"
             style="fill:none;stroke:#231f20;stroke-width:0.5;stroke-linecap:round;stroke-linejoin:miter;stroke-miterlimit:4;stroke-dasharray:none;stroke-opacity:1"
             id="path62"
             inkscape:connector-curvature="0" /></g><g
           id="g64"
           transform="translate(138.2822,85.7872)"><path
             d="M 0,0 C 2.571,1.74 4.563,4.132 5.872,6.828"
             style="fill:none;stroke:#231f20;stroke-width:0.5;stroke-linecap:round;stroke-linejoin:miter;stroke-miterlimit:4;stroke-dasharray:none;stroke-opacity:1"
             id="path66"
             inkscape:connector-curvature="0" /></g><g
           id="g68"
           transform="translate(119.9082,83.9903)"><path
             d="M 0,0 C 2.402,-0.697 4.688,-1.089 6.623,-1.17"
             style="fill:none;stroke:#231f20;stroke-width:0.49900001;stroke-linecap:round;stroke-linejoin:miter;stroke-miterlimit:4;stroke-dasharray:none;stroke-opacity:1"
             id="path70"
             inkscape:connector-curvature="0" /></g><g
           id="g72"
           transform="translate(92.6069,115.5157)"><path
             d="M 0,0 C -3.052,0.176 -5.852,-1.207 -7.729,-3.518"
             style="fill:none;stroke:#231f20;stroke-width:0.49900001;stroke-linecap:round;stroke-linejoin:miter;stroke-miterlimit:4;stroke-dasharray:none;stroke-opacity:1"
             id="path74"
             inkscape:connector-curvature="0" /></g><g
           id="g76"
           transform="translate(84.1704,99.876)"><path
             d="M 0,0 C 1.694,-2.69 4.413,-4.215 7.273,-4.391"
             style="fill:none;stroke:#231f20;stroke-width:0.49900001;stroke-linecap:round;stroke-linejoin:miter;stroke-miterlimit:4;stroke-dasharray:none;stroke-opacity:1"
             id="path78"
             inkscape:connector-curvature="0" /></g><g
           id="g80"
           transform="translate(91.4438,95.4854)"><path
             d="M 0,0 C 5.202,-0.306 9.681,3.935 10.003,9.464 10.326,14.995 6.368,19.726 1.163,20.03"
             style="fill:none;stroke:#231f20;stroke-width:1;stroke-linecap:round;stroke-linejoin:miter;stroke-miterlimit:4;stroke-dasharray:none;stroke-opacity:1"
             id="path82"
             inkscape:connector-curvature="0" /></g><g
           id="g84"
           transform="translate(93.709,115.3809)"><path
             d="M 0,0 C -3.428,-0.229 -6.323,-2.369 -7.844,-5.432"
             style="fill:none;stroke:#231f20;stroke-width:1;stroke-linecap:round;stroke-linejoin:miter;stroke-miterlimit:4;stroke-dasharray:none;stroke-opacity:1"
             id="path86"
             inkscape:connector-curvature="0" /></g><g
           id="g88"
           transform="translate(85.3882,101.7911)"><path
             d="M 0,0 C 1.205,-3.403 3.971,-5.693 7.16,-6.303"
             style="fill:none;stroke:#231f20;stroke-width:1;stroke-linecap:round;stroke-linejoin:miter;stroke-miterlimit:4;stroke-dasharray:none;stroke-opacity:1"
             id="path90"
             inkscape:connector-curvature="0" /></g><g
           id="g92"
           transform="translate(108.3516,114.5801)"><path
             d="M 0,0 C -1.279,0.074 -2.516,-0.129 -3.595,-0.537"
             style="fill:none;stroke:#231f20;stroke-width:0.49900001;stroke-linecap:round;stroke-linejoin:miter;stroke-miterlimit:4;stroke-dasharray:none;stroke-opacity:1"
             id="path94"
             inkscape:connector-curvature="0" /></g><g
           id="g96"
           transform="translate(99.3706,109.0577)"><path
             d="M 0,0 C -1.193,-2.509 -1.309,-5.286 -0.528,-7.744"
             style="fill:none;stroke:#231f20;stroke-width:0.49900001;stroke-linecap:round;stroke-linejoin:miter;stroke-miterlimit:4;stroke-dasharray:none;stroke-opacity:1"
             id="path98"
             inkscape:connector-curvature="0" /></g><g
           id="g100"
           transform="translate(103.6792,95.5313)"><path
             d="M 0,0 C 1.154,-0.582 2.371,-0.894 3.508,-0.945"
             style="fill:none;stroke:#231f20;stroke-width:0.49900001;stroke-linecap:round;stroke-linejoin:miter;stroke-miterlimit:4;stroke-dasharray:none;stroke-opacity:1"
             id="path102"
             inkscape:connector-curvature="0" /></g><g
           id="g104"
           transform="translate(107.1875,94.586)"><path
             d="m 0,0 c 5.195,-0.305 9.667,3.927 9.989,9.446 0.32,5.521 -3.63,10.245 -8.825,10.548"
             style="fill:none;stroke:#231f20;stroke-width:1;stroke-linecap:round;stroke-linejoin:miter;stroke-miterlimit:4;stroke-dasharray:none;stroke-opacity:1"
             id="path106"
             inkscape:connector-curvature="0" /></g><g
           id="g108"
           transform="translate(111.4395,113.8301)"><path
             d="M 0,0 C -1.971,-0.608 -3.619,-1.84 -4.782,-3.402"
             style="fill:none;stroke:#231f20;stroke-width:1;stroke-linecap:round;stroke-linejoin:miter;stroke-miterlimit:4;stroke-dasharray:none;stroke-opacity:1"
             id="path110"
             inkscape:connector-curvature="0" /></g><g
           id="g112"
           transform="translate(105.9883,98.9063)"><path
             d="M 0,0 C 1.075,-1.848 2.627,-3.186 4.352,-3.939"
             style="fill:none;stroke:#231f20;stroke-width:1;stroke-linecap:round;stroke-linejoin:miter;stroke-miterlimit:4;stroke-dasharray:none;stroke-opacity:1"
             id="path114"
             inkscape:connector-curvature="0" /></g><g
           id="g116"
           transform="translate(178.1445,110.1641)"><path
             d="M 0,0 C -1.28,0.074 -2.52,-0.125 -3.597,-0.535"
             style="fill:none;stroke:#231f20;stroke-width:0.49900001;stroke-linecap:round;stroke-linejoin:miter;stroke-miterlimit:4;stroke-dasharray:none;stroke-opacity:1"
             id="path118"
             inkscape:connector-curvature="0" /></g><g
           id="g120"
           transform="translate(173.4707,91.1211)"><path
             d="M 0,0 C 1.157,-0.59 2.369,-0.899 3.512,-0.952"
             style="fill:none;stroke:#231f20;stroke-width:0.49900001;stroke-linecap:round;stroke-linejoin:miter;stroke-miterlimit:4;stroke-dasharray:none;stroke-opacity:1"
             id="path122"
             inkscape:connector-curvature="0" /></g><g
           id="g124"
           transform="translate(203.5645,108.711)"><path
             d="M 0,0 C -2.844,0.166 -5.469,-1.023 -7.332,-3.048"
             style="fill:none;stroke:#231f20;stroke-width:0.49900001;stroke-linecap:round;stroke-linejoin:miter;stroke-miterlimit:4;stroke-dasharray:none;stroke-opacity:1"
             id="path126"
             inkscape:connector-curvature="0" /></g><g
           id="g128"
           transform="translate(195.4766,92.5567)"><path
             d="M 0,0 C 1.725,-2.393 4.273,-3.713 6.922,-3.875"
             style="fill:none;stroke:#231f20;stroke-width:0.49900001;stroke-linecap:round;stroke-linejoin:miter;stroke-miterlimit:4;stroke-dasharray:none;stroke-opacity:1"
             id="path130"
             inkscape:connector-curvature="0" /></g><g
           id="g132"
           transform="translate(194.1914,109.2032)"><path
             d="M 0,0 C -0.022,-0.023 -0.045,-0.049 -0.064,-0.066"
             style="fill:none;stroke:#231f20;stroke-width:0.49900001;stroke-linecap:round;stroke-linejoin:miter;stroke-miterlimit:4;stroke-dasharray:none;stroke-opacity:1"
             id="path134"
             inkscape:connector-curvature="0" /></g><g
           id="g136"
           transform="translate(192.9834,89.3438)"><path
             d="M 0,0 C 0.019,-0.018 0.036,-0.042 0.051,-0.059"
             style="fill:none;stroke:#231f20;stroke-width:0.49900001;stroke-linecap:round;stroke-linejoin:miter;stroke-miterlimit:4;stroke-dasharray:none;stroke-opacity:1"
             id="path138"
             inkscape:connector-curvature="0" /></g><g
           id="g140"
           transform="translate(202.1641,84.6143)"><path
             d="M 0,0 C 7.314,-0.427 13.611,5.534 14.066,13.312 14.52,21.088 8.954,27.739 1.637,28.165"
             style="fill:none;stroke:#231f20;stroke-width:0.49900001;stroke-linecap:round;stroke-linejoin:miter;stroke-miterlimit:4;stroke-dasharray:none;stroke-opacity:1"
             id="path142"
             inkscape:connector-curvature="0" /></g><g
           id="g144"
           transform="translate(128.0879,117.9209)"><path
             d="M 0,0 C -2.518,0.148 -4.922,-0.443 -6.954,-1.558"
             style="fill:none;stroke:#231f20;stroke-width:0.249;stroke-linecap:round;stroke-linejoin:miter;stroke-miterlimit:4;stroke-dasharray:none;stroke-opacity:1"
             id="path146"
             inkscape:connector-curvature="0" /></g><g
           id="g148"
           transform="translate(114.5684,108.7129)"><path
             d="M 0,0 C -1.107,-2.953 -1.234,-6.06 -0.566,-8.86"
             style="fill:none;stroke:#231f20;stroke-width:0.5;stroke-linecap:round;stroke-linejoin:miter;stroke-miterlimit:4;stroke-dasharray:none;stroke-opacity:1"
             id="path150"
             inkscape:connector-curvature="0" /></g><g
           id="g152"
           transform="translate(119.6777,91.3272)"><path
             d="M 0,0 C 2.099,-1.471 4.449,-2.239 6.723,-2.356"
             style="fill:none;stroke:#231f20;stroke-width:0.249;stroke-linecap:round;stroke-linejoin:miter;stroke-miterlimit:4;stroke-dasharray:none;stroke-opacity:1"
             id="path154"
             inkscape:connector-curvature="0" /></g><g
           id="g156"
           transform="translate(126.4004,88.9707)"><path
             d="M 0,0 C 7.522,-0.436 13.994,5.688 14.461,13.684 14.928,21.678 9.209,28.514 1.687,28.95"
             style="fill:none;stroke:#231f20;stroke-width:0.5;stroke-linecap:round;stroke-linejoin:miter;stroke-miterlimit:4;stroke-dasharray:none;stroke-opacity:1"
             id="path158"
             inkscape:connector-curvature="0" /></g><g
           id="g160"
           transform="translate(113.5156,90.1182)"><path
             d="M 0,0 C 7.32,-0.425 13.617,5.532 14.07,13.31 14.524,21.087 8.96,27.737 1.642,28.161"
             style="fill:none;stroke:#231f20;stroke-width:1;stroke-linecap:round;stroke-linejoin:miter;stroke-miterlimit:4;stroke-dasharray:none;stroke-opacity:1"
             id="path162"
             inkscape:connector-curvature="0" /></g><g
           id="g164"
           transform="translate(108.5898,118.6622)"><path
             d="M 0,0 C -2.497,0.147 -4.876,-0.454 -6.884,-1.58"
             style="fill:none;stroke:#231f20;stroke-width:1;stroke-linecap:round;stroke-linejoin:miter;stroke-miterlimit:4;stroke-dasharray:none;stroke-opacity:1"
             id="path166"
             inkscape:connector-curvature="0" /></g><g
           id="g168"
           transform="translate(96.2979,111.5879)"><path
             d="M 0,0 C -2.252,-4.125 -2.327,-8.941 -0.58,-12.999"
             style="fill:none;stroke:#231f20;stroke-width:1;stroke-linecap:round;stroke-linejoin:miter;stroke-miterlimit:4;stroke-dasharray:none;stroke-opacity:1"
             id="path170"
             inkscape:connector-curvature="0" /></g><g
           id="g172"
           transform="translate(100.2974,92.8702)"><path
             d="M 0,0 C 2.066,-1.479 4.393,-2.257 6.654,-2.372"
             style="fill:none;stroke:#231f20;stroke-width:1;stroke-linecap:round;stroke-linejoin:miter;stroke-miterlimit:4;stroke-dasharray:none;stroke-opacity:1"
             id="path174"
             inkscape:connector-curvature="0" /></g><g
           id="g176"
           transform="translate(93.4146,91.2862)"><path
             d="M 0,0 C 7.316,-0.423 13.615,5.537 14.068,13.313 14.513,20.979 9.114,27.55 1.935,28.144"
             style="fill:none;stroke:#231f20;stroke-width:1;stroke-linecap:round;stroke-linejoin:miter;stroke-miterlimit:4;stroke-dasharray:none;stroke-opacity:1"
             id="path178"
             inkscape:connector-curvature="0" /></g><g
           id="g180"
           transform="translate(92.8462,119.5811)"><path
             d="M 0,0 C -4.201,0.243 -8.065,-1.614 -10.705,-4.742"
             style="fill:none;stroke:#231f20;stroke-width:1;stroke-linecap:round;stroke-linejoin:miter;stroke-miterlimit:4;stroke-dasharray:none;stroke-opacity:1"
             id="path182"
             inkscape:connector-curvature="0" /></g><g
           id="g184"
           transform="translate(81.1245,97.3692)"><path
             d="M 0,0 C 2.401,-3.652 6.15,-5.711 10.079,-5.953"
             style="fill:none;stroke:#231f20;stroke-width:1;stroke-linecap:round;stroke-linejoin:miter;stroke-miterlimit:4;stroke-dasharray:none;stroke-opacity:1"
             id="path186"
             inkscape:connector-curvature="0" /></g><g
           id="g188"
           transform="translate(99.4336,89.9512)"><path
             d="M 0,0 20.476,-5.96"
             style="fill:none;stroke:#231f20;stroke-width:0.49900001;stroke-linecap:round;stroke-linejoin:miter;stroke-miterlimit:4;stroke-dasharray:none;stroke-opacity:1"
             id="path190"
             inkscape:connector-curvature="0" /></g><g
           id="g192"
           transform="translate(175.5078,114.084)"><path
             d="M 0,0 -0.006,-0.012"
             style="fill:none;stroke:#231f20;stroke-width:1;stroke-linecap:round;stroke-linejoin:miter;stroke-miterlimit:4;stroke-dasharray:none;stroke-opacity:1"
             id="path194"
             inkscape:connector-curvature="0" /></g><g
           id="g196"
           transform="translate(176.9824,90.169)"><path
             d="M 0,0 C 5.192,-0.3 9.664,3.929 9.985,9.448 10.309,14.97 6.355,19.69 1.162,19.995"
             style="fill:none;stroke:#231f20;stroke-width:1;stroke-linecap:round;stroke-linejoin:miter;stroke-miterlimit:4;stroke-dasharray:none;stroke-opacity:1"
             id="path198"
             inkscape:connector-curvature="0" /></g><g
           id="g200"
           transform="translate(181.2314,109.4161)"><path
             d="M 0,0 C -1.974,-0.608 -3.619,-1.838 -4.782,-3.406"
             style="fill:none;stroke:#231f20;stroke-width:1;stroke-linecap:round;stroke-linejoin:miter;stroke-miterlimit:4;stroke-dasharray:none;stroke-opacity:1"
             id="path202"
             inkscape:connector-curvature="0" /></g><g
           id="g204"
           transform="translate(175.7793,94.4893)"><path
             d="M 0,0 C 1.076,-1.846 2.627,-3.184 4.355,-3.935"
             style="fill:none;stroke:#231f20;stroke-width:0.5;stroke-linecap:round;stroke-linejoin:miter;stroke-miterlimit:4;stroke-dasharray:none;stroke-opacity:1"
             id="path206"
             inkscape:connector-curvature="0" /></g><g
           id="g208"
           transform="translate(202.3984,88.6817)"><path
             d="m 0,0 c 5.203,-0.299 9.685,3.936 10.006,9.467 0.32,5.531 -3.635,10.26 -8.84,10.562"
             style="fill:none;stroke:#231f20;stroke-width:1;stroke-linecap:round;stroke-linejoin:miter;stroke-miterlimit:4;stroke-dasharray:none;stroke-opacity:1"
             id="path210"
             inkscape:connector-curvature="0" /></g><g
           id="g212"
           transform="translate(203.8008,112.7793)"><path
             d="M 0,0 C -3.658,0.213 -7.061,-1.172 -9.609,-3.576"
             style="fill:none;stroke:#231f20;stroke-width:1;stroke-linecap:round;stroke-linejoin:miter;stroke-miterlimit:4;stroke-dasharray:none;stroke-opacity:1"
             id="path214"
             inkscape:connector-curvature="0" /></g><g
           id="g216"
           transform="translate(193.0342,89.2852)"><path
             d="M 0,0 C 2.423,-2.899 5.737,-4.471 9.13,-4.671"
             style="fill:none;stroke:#231f20;stroke-width:1;stroke-linecap:round;stroke-linejoin:miter;stroke-miterlimit:4;stroke-dasharray:none;stroke-opacity:1"
             id="path218"
             inkscape:connector-curvature="0" /></g><g
           id="g220"
           transform="translate(204.3701,84.4883)"><path
             d="M 0,0 C 7.319,-0.428 13.614,5.532 14.069,13.309 14.515,20.975 9.115,27.549 1.935,28.141"
             style="fill:none;stroke:#231f20;stroke-width:1;stroke-linecap:round;stroke-linejoin:miter;stroke-miterlimit:4;stroke-dasharray:none;stroke-opacity:1"
             id="path222"
             inkscape:connector-curvature="0" /></g><g
           id="g224"
           transform="translate(203.8008,112.7793)"><path
             d="M 0,0 2.504,-0.15"
             style="fill:none;stroke:#231f20;stroke-width:1;stroke-linecap:round;stroke-linejoin:miter;stroke-miterlimit:4;stroke-dasharray:none;stroke-opacity:1"
             id="path226"
             inkscape:connector-curvature="0" /></g><g
           id="g228"
           transform="translate(202.1641,84.6143)"><path
             d="M 0,0 2.206,-0.126"
             style="fill:none;stroke:#231f20;stroke-width:1;stroke-linecap:round;stroke-linejoin:miter;stroke-miterlimit:4;stroke-dasharray:none;stroke-opacity:1"
             id="path230"
             inkscape:connector-curvature="0" /></g><g
           id="g232"
           transform="translate(204.666,108.5772)"><path
             d="M 0,0 C -3.318,-0.22 -6.141,-2.233 -7.695,-5.135"
             style="fill:none;stroke:#231f20;stroke-width:1;stroke-linecap:round;stroke-linejoin:miter;stroke-miterlimit:4;stroke-dasharray:none;stroke-opacity:1"
             id="path234"
             inkscape:connector-curvature="0" /></g><g
           id="g236"
           transform="translate(196.4629,94.6758)"><path
             d="M 0,0 C 1.27,-3.25 3.964,-5.404 7.043,-5.988"
             style="fill:none;stroke:#231f20;stroke-width:1;stroke-linecap:round;stroke-linejoin:miter;stroke-miterlimit:4;stroke-dasharray:none;stroke-opacity:1"
             id="path238"
             inkscape:connector-curvature="0" /></g><g
           id="g240"
           transform="translate(183.3066,85.7032)"><path
             d="M 0,0 C 7.32,-0.428 13.621,5.533 14.073,13.31 14.524,21.086 8.959,27.734 1.644,28.162"
             style="fill:none;stroke:#231f20;stroke-width:1;stroke-linecap:round;stroke-linejoin:miter;stroke-miterlimit:4;stroke-dasharray:none;stroke-opacity:1"
             id="path242"
             inkscape:connector-curvature="0" /></g><g
           id="g244"
           transform="translate(178.3828,114.2491)"><path
             d="M 0,0 C -2.108,0.122 -4.135,-0.283 -5.88,-1.083"
             style="fill:none;stroke:#231f20;stroke-width:1;stroke-linecap:round;stroke-linejoin:miter;stroke-miterlimit:4;stroke-dasharray:none;stroke-opacity:1"
             id="path246"
             inkscape:connector-curvature="0" /></g><g
           id="g248"
           transform="translate(170.0898,88.4551)"><path
             d="M 0,0 C 2.068,-1.482 4.391,-2.256 6.652,-2.367"
             style="fill:none;stroke:#231f20;stroke-width:1;stroke-linecap:round;stroke-linejoin:miter;stroke-miterlimit:4;stroke-dasharray:none;stroke-opacity:1"
             id="path250"
             inkscape:connector-curvature="0" /></g><g
           id="g252"
           transform="translate(49.8599,114.2188)"><path
             d="m 0,0 c -3.24,0.189 -6.035,-2.451 -6.235,-5.898 -0.201,-3.45 2.265,-6.395 5.506,-6.584 0.824,-0.049 1.618,0.086 2.309,0.357"
             style="fill:none;stroke:#231f20;stroke-width:0.49900001;stroke-linecap:round;stroke-linejoin:miter;stroke-miterlimit:4;stroke-dasharray:none;stroke-opacity:1"
             id="path254"
             inkscape:connector-curvature="0" /></g><g
           id="g256"
           transform="translate(52.1064,113.5967)"><path
             d="M 0,0 C -0.735,0.386 -1.513,0.587 -2.247,0.622"
             style="fill:none;stroke:#231f20;stroke-width:0.49900001;stroke-linecap:round;stroke-linejoin:miter;stroke-miterlimit:4;stroke-dasharray:none;stroke-opacity:1"
             id="path258"
             inkscape:connector-curvature="0" /></g><g
           id="g260"
           transform="translate(49.6143,118.0196)"><path
             d="m 0,0 c -5.203,0.302 -9.683,-3.936 -10.007,-9.467 -0.32,-5.531 3.637,-10.26 8.84,-10.562"
             style="fill:none;stroke:#231f20;stroke-width:1;stroke-linecap:round;stroke-linejoin:miter;stroke-miterlimit:4;stroke-dasharray:none;stroke-opacity:1"
             id="path262"
             inkscape:connector-curvature="0" /></g><g
           id="g264"
           transform="translate(49.6143,118.0196)"><path
             d="M 0,0 27.992,-1.63"
             style="fill:none;stroke:#231f20;stroke-width:1;stroke-linecap:round;stroke-linejoin:miter;stroke-miterlimit:4;stroke-dasharray:none;stroke-opacity:1"
             id="path266"
             inkscape:connector-curvature="0" /></g><g
           id="g268"
           transform="translate(76.439,96.3594)"><path
             d="M 0,0 -27.993,1.631"
             style="fill:none;stroke:#231f20;stroke-width:1;stroke-linecap:round;stroke-linejoin:miter;stroke-miterlimit:4;stroke-dasharray:none;stroke-opacity:1"
             id="path270"
             inkscape:connector-curvature="0" /></g><g
           id="g272"
           transform="translate(95.7188,91.3653)"><path
             d="m 0,0 c 2.836,0.361 5.362,1.646 7.303,3.501 2.747,2.601 4.25,6.127 4.461,9.733 0.224,3.888 -1.053,7.494 -3.303,10.184 -1.819,2.174 -4.136,3.603 -6.559,4.248"
             style="fill:none;stroke:#ffffff;stroke-width:5.66900015;stroke-linecap:round;stroke-linejoin:miter;stroke-miterlimit:4;stroke-dasharray:none;stroke-opacity:1"
             id="path274"
             inkscape:connector-curvature="0" /></g><g
           id="g276"
           transform="translate(93.4146,91.2862)"><path
             d="M 0,0 C 7.316,-0.423 13.615,5.537 14.068,13.313 14.513,20.979 9.114,27.55 1.935,28.144"
             style="fill:none;stroke:#231f20;stroke-width:1;stroke-linecap:round;stroke-linejoin:miter;stroke-miterlimit:4;stroke-dasharray:none;stroke-opacity:1"
             id="path278"
             inkscape:connector-curvature="0" /></g><g
           id="g280"
           transform="translate(91.2036,91.4161)"><path
             d="M 0,0 C 7.317,-0.426 13.617,5.535 14.07,13.313 14.523,21.09 8.958,27.736 1.643,28.165"
             style="fill:none;stroke:#231f20;stroke-width:0.49900001;stroke-linecap:round;stroke-linejoin:miter;stroke-miterlimit:4;stroke-dasharray:none;stroke-opacity:1"
             id="path282"
             inkscape:connector-curvature="0" /></g><g
           id="g284"
           transform="translate(92.8462,119.5811)"><path
             d="M 0,0 2.503,-0.151"
             style="fill:none;stroke:#231f20;stroke-width:1;stroke-linecap:round;stroke-linejoin:miter;stroke-miterlimit:4;stroke-dasharray:none;stroke-opacity:1"
             id="path286"
             inkscape:connector-curvature="0" /></g><g
           id="g288"
           transform="translate(115.8242,90.1954)"><path
             d="m 0,0 c 2.831,0.359 5.359,1.645 7.301,3.498 2.748,2.602 4.253,6.131 4.461,9.734 0.226,3.889 -1.051,7.497 -3.301,10.184 -1.889,2.258 -4.315,3.711 -6.846,4.322"
             style="fill:none;stroke:#ffffff;stroke-width:5.66900015;stroke-linecap:round;stroke-linejoin:miter;stroke-miterlimit:4;stroke-dasharray:none;stroke-opacity:1"
             id="path290"
             inkscape:connector-curvature="0" /></g><g
           id="g292"
           transform="translate(113.5156,90.1182)"><path
             d="M 0,0 C 7.32,-0.425 13.617,5.532 14.07,13.31 14.524,21.087 8.96,27.737 1.642,28.161"
             style="fill:none;stroke:#231f20;stroke-width:1;stroke-linecap:round;stroke-linejoin:miter;stroke-miterlimit:4;stroke-dasharray:none;stroke-opacity:1"
             id="path294"
             inkscape:connector-curvature="0" /></g><g
           id="g296"
           transform="translate(115.1572,118.2793)"><path
             d="M 0,0 -6.567,0.383"
             style="fill:none;stroke:#231f20;stroke-width:1;stroke-linecap:round;stroke-linejoin:miter;stroke-miterlimit:4;stroke-dasharray:none;stroke-opacity:1"
             id="path298"
             inkscape:connector-curvature="0" /></g><g
           id="g300"
           transform="translate(106.9512,90.4981)"><path
             d="M 0,0 6.564,-0.38"
             style="fill:none;stroke:#231f20;stroke-width:1;stroke-linecap:round;stroke-linejoin:miter;stroke-miterlimit:4;stroke-dasharray:none;stroke-opacity:1"
             id="path302"
             inkscape:connector-curvature="0" /></g><g
           id="g304"
           transform="translate(106.9512,90.4981)"><path
             d="M 0,0 C 7.316,-0.425 13.615,5.536 14.066,13.313 14.52,21.089 8.956,27.74 1.639,28.164"
             style="fill:none;stroke:#231f20;stroke-width:0.49900001;stroke-linecap:round;stroke-linejoin:miter;stroke-miterlimit:4;stroke-dasharray:none;stroke-opacity:1"
             id="path306"
             inkscape:connector-curvature="0" /></g><g
           id="g308"
           transform="translate(185.6133,85.7823)"><path
             d="m 0,0 c 2.836,0.362 5.365,1.646 7.303,3.498 2.75,2.601 4.254,6.126 4.464,9.732 0.225,3.889 -1.052,7.496 -3.301,10.185 -1.892,2.255 -4.317,3.711 -6.851,4.322"
             style="fill:none;stroke:#ffffff;stroke-width:5.66900015;stroke-linecap:round;stroke-linejoin:miter;stroke-miterlimit:4;stroke-dasharray:none;stroke-opacity:1"
             id="path310"
             inkscape:connector-curvature="0" /></g><g
           id="g312"
           transform="translate(183.3066,85.7032)"><path
             d="M 0,0 C 7.32,-0.428 13.621,5.533 14.073,13.31 14.524,21.086 8.959,27.734 1.644,28.162"
             style="fill:none;stroke:#231f20;stroke-width:1;stroke-linecap:round;stroke-linejoin:miter;stroke-miterlimit:4;stroke-dasharray:none;stroke-opacity:1"
             id="path314"
             inkscape:connector-curvature="0" /></g><g
           id="g316"
           transform="translate(176.7422,86.0879)"><path
             d="M 0,0 C 7.317,-0.43 13.615,5.531 14.069,13.306 14.523,21.084 8.959,27.732 1.641,28.161"
             style="fill:none;stroke:#231f20;stroke-width:0.49900001;stroke-linecap:round;stroke-linejoin:miter;stroke-miterlimit:4;stroke-dasharray:none;stroke-opacity:1"
             id="path318"
             inkscape:connector-curvature="0" /></g><g
           id="g320"
           transform="translate(176.7422,86.084)"><path
             d="M 0,0 6.564,-0.381"
             style="fill:none;stroke:#231f20;stroke-width:1;stroke-linecap:round;stroke-linejoin:miter;stroke-miterlimit:4;stroke-dasharray:none;stroke-opacity:1"
             id="path322"
             inkscape:connector-curvature="0" /></g><g
           id="g324"
           transform="translate(178.3828,114.2491)"><path
             d="M 0,0 6.567,-0.384"
             style="fill:none;stroke:#231f20;stroke-width:1;stroke-linecap:round;stroke-linejoin:miter;stroke-miterlimit:4;stroke-dasharray:none;stroke-opacity:1"
             id="path326"
             inkscape:connector-curvature="0" /></g><g
           id="g328"
           transform="translate(81.1245,97.3692)"><path
             d="M 0,0 C 2.401,-3.652 6.15,-5.711 10.079,-5.953"
             style="fill:none;stroke:#231f20;stroke-width:1;stroke-linecap:round;stroke-linejoin:miter;stroke-miterlimit:4;stroke-dasharray:none;stroke-opacity:1"
             id="path330"
             inkscape:connector-curvature="0" /></g><g
           id="g332"
           transform="translate(91.2036,91.4161)"><path
             d="M 0,0 2.211,-0.13"
             style="fill:none;stroke:#231f20;stroke-width:1;stroke-linecap:round;stroke-linejoin:miter;stroke-miterlimit:4;stroke-dasharray:none;stroke-opacity:1"
             id="path334"
             inkscape:connector-curvature="0" /></g><g
           id="g336"
           transform="translate(76.439,96.3594)"><path
             d="M 0,0 C 5.205,-0.303 9.683,3.934 10.005,9.465 10.329,14.997 6.37,19.725 1.167,20.03"
             style="fill:none;stroke:#231f20;stroke-width:1;stroke-linecap:round;stroke-linejoin:miter;stroke-miterlimit:4;stroke-dasharray:none;stroke-opacity:1"
             id="path338"
             inkscape:connector-curvature="0" /></g><g
           id="g340"
           transform="translate(50.7773,97.8516)"><path
             d="m 0,0 25.662,-1.492 c 5.204,-0.303 9.683,3.933 10.005,9.465 0.323,5.532 -3.636,10.259 -8.838,10.565 l -27.992,1.63 C -6.366,20.47 -10.846,16.232 -11.17,10.701 -11.442,6.014 -8.641,1.902 -4.615,0.572"
             style="fill:none;stroke:#ffffff;stroke-width:5.66900015;stroke-linecap:round;stroke-linejoin:miter;stroke-miterlimit:4;stroke-dasharray:none;stroke-opacity:1"
             id="path342"
             inkscape:connector-curvature="0" /></g><g
           id="g344"
           transform="translate(48.4463,97.9903)"><path
             d="m 0,0 27.993,-1.631 c 5.204,-0.303 9.683,3.934 10.005,9.465 0.323,5.532 -3.636,10.26 -8.838,10.565 L 1.168,20.029 C -4.035,20.331 -8.515,16.094 -8.839,10.563 -9.159,5.031 -5.202,0.303 0,0"
             style="fill:none;stroke:#231f20;stroke-width:1;stroke-linecap:round;stroke-linejoin:miter;stroke-miterlimit:4;stroke-dasharray:none;stroke-opacity:1"
             id="path346"
             inkscape:connector-curvature="0" /></g><g
           id="g348"
           transform="translate(48.9536,114.7168)"><path
             d="m 0,0 c -3.471,0.205 -6.463,-2.626 -6.678,-6.318 -0.217,-3.694 2.426,-6.85 5.902,-7.054"
             style="fill:none;stroke:#231f20;stroke-width:0.49900001;stroke-linecap:round;stroke-linejoin:miter;stroke-miterlimit:4;stroke-dasharray:none;stroke-opacity:1"
             id="path350"
             inkscape:connector-curvature="0" /></g><g
           id="g352"
           transform="translate(48.1777,101.3448)"><path
             d="m 0,0 c 3.475,-0.202 6.464,2.627 6.678,6.32 0.218,3.693 -2.427,6.851 -5.902,7.052"
             style="fill:none;stroke:#231f20;stroke-width:1;stroke-linecap:round;stroke-linejoin:miter;stroke-miterlimit:4;stroke-dasharray:none;stroke-opacity:1"
             id="path354"
             inkscape:connector-curvature="0" /></g><g
           id="g356"
           transform="translate(48.4473,97.9903)"><path
             d="M 0,0 C 5.205,-0.303 9.685,3.936 10.005,9.465 10.329,14.998 6.371,19.726 1.167,20.029"
             style="fill:none;stroke:#231f20;stroke-width:0.49900001;stroke-linecap:round;stroke-linejoin:miter;stroke-miterlimit:4;stroke-dasharray:none;stroke-opacity:1"
             id="path358"
             inkscape:connector-curvature="0" /></g><g
           id="g360"
           transform="translate(49.1201,117.5508)"><path
             d="m 0,0 c -4.945,0.287 -9.204,-3.74 -9.51,-8.998 -0.306,-5.258 3.455,-9.752 8.4,-10.039 4.947,-0.289 9.206,3.741 9.514,8.994 C 8.708,-4.784 4.946,-0.287 0,0"
             style="fill:none;stroke:#231f20;stroke-width:0.49900001;stroke-linecap:round;stroke-linejoin:miter;stroke-miterlimit:4;stroke-dasharray:none;stroke-opacity:1"
             id="path362"
             inkscape:connector-curvature="0" /></g></g></g><path
       d="M 0.535,1.763 H 15.863 V 7.474 H 0.535 Z"
       style="fill:#ffffff;fill-opacity:1;fill-rule:nonzero;stroke:none"
       id="path364"
       inkscape:connector-curvature="0" /><text
       transform="matrix(1,0,0,-1,1.2422,2.8594)"
       style="font-variant:normal;font-weight:normal;font-stretch:normal;font-size:5px;font-family:'Swiss 721 SWA';-inkscape-font-specification:Helvetica;writing-mode:lr-tb;fill:#231f20;fill-opacity:1;fill-rule:nonzero;stroke:none"
       id="text368"><tspan
         x="0 2.78 5.5599999 8.3400002 11.12"
         y="0"
         sodipodi:role="line"
         id="tspan366">L0358</tspan></text>
<g
       id="g370"><g
         id="g372"
         clip-path="url(#clipPath376)"><g
           id="g378"
           transform="translate(56.186,97.0332)"><path
             d="M 0,0 C 0,1.035 -0.839,1.875 -1.875,1.875 -2.911,1.875 -3.75,1.035 -3.75,0 c 0,-1.035 0.839,-1.875 1.875,-1.875 C -0.839,-1.875 0,-1.035 0,0"
             style="fill:#ffffff;fill-opacity:1;fill-rule:evenodd;stroke:none"
             id="path380"
             inkscape:connector-curvature="0" /></g><g
           id="g382"
           transform="translate(54.311,97.0332)"><path
             d="M 0,0 18.967,-26.765"
             style="fill:none;stroke:#ffffff;stroke-width:2.99900007;stroke-linecap:round;stroke-linejoin:miter;stroke-miterlimit:4;stroke-dasharray:none;stroke-opacity:1"
             id="path384"
             inkscape:connector-curvature="0" /></g><g
           id="g386"
           transform="translate(54.311,97.0332)"><path
             d="M 0,0 18.967,-26.765"
             style="fill:none;stroke:#231f20;stroke-width:0.49900001;stroke-linecap:round;stroke-linejoin:miter;stroke-miterlimit:4;stroke-dasharray:none;stroke-opacity:1"
             id="path388"
             inkscape:connector-curvature="0" /></g><g
           id="g390"
           transform="translate(55.061,97.0332)"><path
             d="M 0,0 C 0,0.414 -0.336,0.75 -0.75,0.75 -1.165,0.75 -1.5,0.414 -1.5,0 c 0,-0.414 0.335,-0.75 0.75,-0.75 C -0.336,-0.75 0,-0.414 0,0"
             style="fill:#231f20;fill-opacity:1;fill-rule:evenodd;stroke:none"
             id="path392"
             inkscape:connector-curvature="0" /></g><g
           id="g394"
           transform="translate(91.5781,90.6495)"><path
             d="M 0,0 C 0,1.035 -0.839,1.875 -1.875,1.875 -2.911,1.875 -3.75,1.035 -3.75,0 c 0,-1.037 0.839,-1.875 1.875,-1.875 C -0.839,-1.875 0,-1.037 0,0"
             style="fill:#ffffff;fill-opacity:1;fill-rule:evenodd;stroke:none"
             id="path396"
             inkscape:connector-curvature="0" /></g><g
           id="g398"
           transform="translate(89.7036,90.6495)"><path
             d="M 0,0 18.968,-26.766"
             style="fill:none;stroke:#ffffff;stroke-width:2.99900007;stroke-linecap:round;stroke-linejoin:miter;stroke-miterlimit:4;stroke-dasharray:none;stroke-opacity:1"
             id="path400"
             inkscape:connector-curvature="0" /></g><g
           id="g402"
           transform="translate(89.7036,90.6495)"><path
             d="M 0,0 18.968,-26.766"
             style="fill:none;stroke:#231f20;stroke-width:0.49900001;stroke-linecap:round;stroke-linejoin:miter;stroke-miterlimit:4;stroke-dasharray:none;stroke-opacity:1"
             id="path404"
             inkscape:connector-curvature="0" /></g><g
           id="g406"
           transform="translate(90.4536,90.6495)"><path
             d="M 0,0 C 0,0.414 -0.335,0.75 -0.75,0.75 -1.164,0.75 -1.5,0.414 -1.5,0 c 0,-0.415 0.336,-0.75 0.75,-0.75 C -0.335,-0.75 0,-0.415 0,0"
             style="fill:#231f20;fill-opacity:1;fill-rule:evenodd;stroke:none"
             id="path408"
             inkscape:connector-curvature="0" /></g><g
           id="g410"
           transform="translate(115.1221,91.9629)"><path
             d="M 0,0 C 0,1.033 -0.842,1.875 -1.875,1.875 -2.912,1.875 -3.75,1.033 -3.75,0 c 0,-1.037 0.838,-1.875 1.875,-1.875 C -0.842,-1.875 0,-1.037 0,0"
             style="fill:#ffffff;fill-opacity:1;fill-rule:evenodd;stroke:none"
             id="path412"
             inkscape:connector-curvature="0" /></g><g
           id="g414"
           transform="translate(113.2471,91.9629)"><path
             d="M 0,0 45.977,-34.53"
             style="fill:none;stroke:#ffffff;stroke-width:2.99900007;stroke-linecap:round;stroke-linejoin:miter;stroke-miterlimit:4;stroke-dasharray:none;stroke-opacity:1"
             id="path416"
             inkscape:connector-curvature="0" /></g><g
           id="g418"
           transform="translate(113.2471,91.9629)"><path
             d="M 0,0 50.563,-39.507"
             style="fill:none;stroke:#231f20;stroke-width:0.49900001;stroke-linecap:round;stroke-linejoin:miter;stroke-miterlimit:4;stroke-dasharray:none;stroke-opacity:1"
             id="path420"
             inkscape:connector-curvature="0" /></g><g
           id="g422"
           transform="translate(113.9971,91.9629)"><path
             d="M 0,0 C 0,0.413 -0.338,0.748 -0.75,0.748 -1.165,0.748 -1.5,0.413 -1.5,0 c 0,-0.414 0.335,-0.75 0.75,-0.75 C -0.338,-0.75 0,-0.414 0,0"
             style="fill:#231f20;fill-opacity:1;fill-rule:evenodd;stroke:none"
             id="path424"
             inkscape:connector-curvature="0" /></g><g
           id="g426"
           transform="translate(184.6436,87.5352)"><path
             d="M 0,0 C 0,1.033 -0.839,1.875 -1.875,1.875 -2.911,1.875 -3.75,1.033 -3.75,0 c 0,-1.038 0.839,-1.875 1.875,-1.875 C -0.839,-1.875 0,-1.038 0,0"
             style="fill:#ffffff;fill-opacity:1;fill-rule:evenodd;stroke:none"
             id="path428"
             inkscape:connector-curvature="0" /></g><g
           id="g430"
           transform="translate(182.7686,87.5352)"><path
             d="M 0,0 -13.146,-39.621"
             style="fill:none;stroke:#ffffff;stroke-width:2.99900007;stroke-linecap:round;stroke-linejoin:miter;stroke-miterlimit:4;stroke-dasharray:none;stroke-opacity:1"
             id="path432"
             inkscape:connector-curvature="0" /></g><g
           id="g434"
           transform="translate(182.7686,87.5352)"><path
             d="M 0,0 -13.146,-39.621"
             style="fill:none;stroke:#231f20;stroke-width:0.49900001;stroke-linecap:round;stroke-linejoin:miter;stroke-miterlimit:4;stroke-dasharray:none;stroke-opacity:1"
             id="path436"
             inkscape:connector-curvature="0" /></g><g
           id="g438"
           transform="translate(183.5186,87.5352)"><path
             d="M 0,0 C 0,0.414 -0.338,0.75 -0.75,0.75 -1.164,0.75 -1.5,0.414 -1.5,0 c 0,-0.414 0.336,-0.75 0.75,-0.75 C -0.338,-0.75 0,-0.414 0,0"
             style="fill:#231f20;fill-opacity:1;fill-rule:evenodd;stroke:none"
             id="path440"
             inkscape:connector-curvature="0" /></g><g
           id="g442"
           transform="translate(205.2451,113.8877)"><path
             d="m 0,0 c 0,1.035 -0.842,1.875 -1.877,1.875 -1.034,0 -1.875,-0.84 -1.875,-1.875 0,-1.037 0.841,-1.875 1.875,-1.875 C -0.842,-1.875 0,-1.037 0,0"
             style="fill:#ffffff;fill-opacity:1;fill-rule:evenodd;stroke:none"
             id="path444"
             inkscape:connector-curvature="0" /></g><g
           id="g446"
           transform="translate(203.3682,113.8877)"><path
             d="M 0,0 -15.054,25.755"
             style="fill:none;stroke:#ffffff;stroke-width:2.99900007;stroke-linecap:round;stroke-linejoin:miter;stroke-miterlimit:4;stroke-dasharray:none;stroke-opacity:1"
             id="path448"
             inkscape:connector-curvature="0" /></g><g
           id="g450"
           transform="translate(203.3682,113.8877)"><path
             d="M 0,0 -15.054,25.755"
             style="fill:none;stroke:#231f20;stroke-width:0.49900001;stroke-linecap:round;stroke-linejoin:miter;stroke-miterlimit:4;stroke-dasharray:none;stroke-opacity:1"
             id="path452"
             inkscape:connector-curvature="0" /></g><g
           id="g454"
           transform="translate(204.1182,113.8877)"><path
             d="m 0,0 c 0,0.414 -0.336,0.75 -0.75,0.75 -0.413,0 -0.748,-0.336 -0.748,-0.75 0,-0.414 0.335,-0.75 0.748,-0.75 C -0.336,-0.75 0,-0.414 0,0"
             style="fill:#231f20;fill-opacity:1;fill-rule:evenodd;stroke:none"
             id="path456"
             inkscape:connector-curvature="0" /></g></g></g><text
       transform="matrix(1,0,0,-1,73.6138,61.1729)"
       style="font-variant:normal;font-weight:bold;font-stretch:normal;font-size:10px;font-family:'Swiss 721 SWA';-inkscape-font-specification:Helvetica-Bold;writing-mode:lr-tb;fill:#231f20;fill-opacity:1;fill-rule:nonzero;stroke:none"
       id="text466"><tspan
         x="0"
         y="0"
         id="tspan458">1</tspan><tspan
         x="33.889999"
         y="5.6599998"
         id="tspan460">2</tspan><tspan
         x="95.68"
         y="22.52"
         id="tspan462">3</tspan><tspan
         x="109.1"
         y="-80.660004"
         id="tspan464">2</tspan></text>
<g
       id="g468"><g
         id="g470"
         clip-path="url(#clipPath474)"><g
           id="g476"
           transform="translate(113.2471,91.9629)"><path
             d="M 0,0 56.375,-44.049"
             style="fill:none;stroke:#231f20;stroke-width:0.49900001;stroke-linecap:round;stroke-linejoin:miter;stroke-miterlimit:4;stroke-dasharray:none;stroke-opacity:1"
             id="path478"
             inkscape:connector-curvature="0" /></g><g
           id="g480"
           transform="translate(120.2451,130.8877)"><path
             d="m 0,0 c 0,1.035 -0.842,1.875 -1.877,1.875 -1.034,0 -1.875,-0.84 -1.875,-1.875 0,-1.036 0.841,-1.875 1.875,-1.875 C -0.842,-1.875 0,-1.036 0,0"
             style="fill:#ffffff;fill-opacity:1;fill-rule:evenodd;stroke:none"
             id="path482"
             inkscape:connector-curvature="0" /></g><g
           id="g484"
           transform="translate(118.3682,130.8877)"><path
             d="M 0,0 -15.054,25.755"
             style="fill:none;stroke:#ffffff;stroke-width:2.99900007;stroke-linecap:round;stroke-linejoin:miter;stroke-miterlimit:4;stroke-dasharray:none;stroke-opacity:1"
             id="path486"
             inkscape:connector-curvature="0" /></g><g
           id="g488"
           transform="translate(118.3682,130.8877)"><path
             d="M 0,0 -15.054,25.755"
             style="fill:none;stroke:#231f20;stroke-width:0.49900001;stroke-linecap:round;stroke-linejoin:miter;stroke-miterlimit:4;stroke-dasharray:none;stroke-opacity:1"
             id="path490"
             inkscape:connector-curvature="0" /></g><g
           id="g492"
           transform="translate(119.1182,130.8877)"><path
             d="m 0,0 c 0,0.414 -0.336,0.75 -0.75,0.75 -0.413,0 -0.748,-0.336 -0.748,-0.75 0,-0.413 0.335,-0.75 0.748,-0.75 C -0.336,-0.75 0,-0.413 0,0"
             style="fill:#231f20;fill-opacity:1;fill-rule:evenodd;stroke:none"
             id="path494"
             inkscape:connector-curvature="0" /></g></g></g><text
       transform="matrix(1,0,0,-1,97.7207,158.835)"
       style="font-variant:normal;font-weight:bold;font-stretch:normal;font-size:10px;font-family:'Swiss 721 SWA';-inkscape-font-specification:Helvetica-Bold;writing-mode:lr-tb;fill:#231f20;fill-opacity:1;fill-rule:nonzero;stroke:none"
       id="text498"><tspan
         x="0"
         y="0"
         id="tspan496">4</tspan></text>
</g></svg>