<?xml version="1.0" encoding="UTF-8" standalone="no"?>
<!-- Created with Inkscape (http://www.inkscape.org/) -->

<svg
   xmlns:dc="http://purl.org/dc/elements/1.1/"
   xmlns:cc="http://creativecommons.org/ns#"
   xmlns:rdf="http://www.w3.org/1999/02/22-rdf-syntax-ns#"
   xmlns:svg="http://www.w3.org/2000/svg"
   xmlns="http://www.w3.org/2000/svg"
   xmlns:sodipodi="http://sodipodi.sourceforge.net/DTD/sodipodi-0.dtd"
   xmlns:inkscape="http://www.inkscape.org/namespaces/inkscape"
   version="1.1"
   id="svg2"
   xml:space="preserve"
   width="661.41736"
   height="245.66933"
   viewBox="0 0 661.41736 245.66933"
   sodipodi:docname="PDI_keyless_models.svg"
   inkscape:version="0.92.4 (5da689c313, 2019-01-14)"><metadata
     id="metadata8"><rdf:RDF><cc:Work
         rdf:about=""><dc:format>image/svg+xml</dc:format><dc:type
           rdf:resource="http://purl.org/dc/dcmitype/StillImage" /><dc:title></dc:title></cc:Work></rdf:RDF></metadata><defs
     id="defs6"><clipPath
       clipPathUnits="userSpaceOnUse"
       id="clipPath18"><path
         d="M 0,184.252 H 496.063 V 0 H 0 Z"
         id="path16"
         inkscape:connector-curvature="0" /></clipPath><clipPath
       clipPathUnits="userSpaceOnUse"
       id="clipPath422"><path
         d="M 0,184.252 H 496.063 V 0 H 0 Z"
         id="path420"
         inkscape:connector-curvature="0" /></clipPath><clipPath
       clipPathUnits="userSpaceOnUse"
       id="clipPath554"><path
         d="M 0,184.252 H 496.063 V 0 H 0 Z"
         id="path552"
         inkscape:connector-curvature="0" /></clipPath><clipPath
       clipPathUnits="userSpaceOnUse"
       id="clipPath580"><path
         d="M 0,184.252 H 496.063 V 0 H 0 Z"
         id="path578"
         inkscape:connector-curvature="0" /></clipPath><clipPath
       clipPathUnits="userSpaceOnUse"
       id="clipPath626"><path
         d="M 0,184.252 H 496.063 V 0 H 0 Z"
         id="path624"
         inkscape:connector-curvature="0" /></clipPath><clipPath
       clipPathUnits="userSpaceOnUse"
       id="clipPath656"><path
         d="M 0,184.252 H 496.063 V 0 H 0 Z"
         id="path654"
         inkscape:connector-curvature="0" /></clipPath><clipPath
       clipPathUnits="userSpaceOnUse"
       id="clipPath702"><path
         d="M 0,184.252 H 496.063 V 0 H 0 Z"
         id="path700"
         inkscape:connector-curvature="0" /></clipPath><clipPath
       clipPathUnits="userSpaceOnUse"
       id="clipPath730"><path
         d="M 0,184.252 H 496.063 V 0 H 0 Z"
         id="path728"
         inkscape:connector-curvature="0" /></clipPath><clipPath
       clipPathUnits="userSpaceOnUse"
       id="clipPath762"><path
         d="M 0,184.252 H 496.063 V 0 H 0 Z"
         id="path760"
         inkscape:connector-curvature="0" /></clipPath></defs><sodipodi:namedview
     pagecolor="#ffffff"
     bordercolor="#666666"
     borderopacity="1"
     objecttolerance="10"
     gridtolerance="10"
     guidetolerance="10"
     inkscape:pageopacity="0"
     inkscape:pageshadow="2"
     inkscape:window-width="640"
     inkscape:window-height="480"
     id="namedview4"
     showgrid="false"
     inkscape:zoom="0.54428569"
     inkscape:cx="330.70868"
     inkscape:cy="122.83466"
     inkscape:window-x="0"
     inkscape:window-y="0"
     inkscape:window-maximized="0"
     inkscape:current-layer="g10" /><g
     id="g10"
     inkscape:groupmode="layer"
     inkscape:label="PDI_keyless_models"
     transform="matrix(1.3333333,0,0,-1.3333333,0,245.66933)"><g
       id="g12"><g
         id="g14"
         clip-path="url(#clipPath18)"><g
           id="g20"
           transform="translate(77.4956,127.8467)"><path
             d="m 0,0 c -0.059,-0.064 -0.117,-0.127 -0.176,-0.191 15.486,-6.972 31.13,-14.037 44.591,-24.391 7.243,-5.572 13.754,-12.022 20.41,-18.283 10.087,-9.489 20.548,-18.582 31.35,-27.248 1.097,-0.881 2.237,-1.778 3.59,-2.163 1.294,-0.37 2.672,-0.24 4.011,-0.101 23.553,2.439 46.932,6.538 69.909,12.26 -9.208,15.687 -19.496,30.742 -30.768,45.019 -3.233,4.097 -6.568,8.15 -10.497,11.585 -5.408,4.728 -11.804,8.168 -18.243,11.354 -8.813,4.36 -17.823,8.324 -26.992,11.874 -4.452,1.724 -8.968,3.358 -13.665,4.212 -4.564,0.83 -9.228,0.91 -13.867,0.974 -21.087,0.289 -42.178,0.275 -63.265,-0.043 -4.584,-0.069 -9.221,-0.158 -13.713,-1.175 -0.944,-0.213 -5.643,-1.001 -3.566,-2.342 1.325,-0.856 3.862,-0.283 5.37,-0.463 2.42,-0.288 4.831,-0.657 7.227,-1.105 4.699,-0.877 9.341,-2.06 13.887,-3.539 2.055,-0.669 4.483,-1.93 4.421,-4.09 C 9.979,10.914 9.097,9.894 8.264,8.988 5.509,5.992 2.755,2.996 0,0 Z"
             style="fill:none;stroke:#000000;stroke-width:1;stroke-linecap:butt;stroke-linejoin:miter;stroke-miterlimit:10;stroke-dasharray:none;stroke-opacity:1"
             id="path22"
             inkscape:connector-curvature="0" /></g><g
           id="g24"
           transform="translate(270.3027,123.2944)"><path
             d="m 0,0 c -3.41,-0.589 -6.826,-0.791 -10.247,-1.544 -3.403,-0.748 -6.897,-1.46 -10.393,-0.988 -3.141,0.425 -6.072,1.774 -8.943,3.12 -19.312,9.051 -38.457,18.697 -58.825,25.021 -8.204,2.547 -17.242,4.511 -25.22,1.325 4.503,-0.253 8.711,-2.212 12.791,-4.138 8.92,-4.209 17.839,-8.419 26.718,-12.713 3.995,-1.934 8.007,-3.898 11.59,-6.519 4.804,-3.514 8.7,-8.107 12.433,-12.744 11.522,-14.316 21.963,-29.516 30.973,-45.532 L 0,-49.855"
             style="fill:none;stroke:#000000;stroke-width:1;stroke-linecap:butt;stroke-linejoin:miter;stroke-miterlimit:10;stroke-dasharray:none;stroke-opacity:1"
             id="path26"
             inkscape:connector-curvature="0" /></g><g
           id="g28"
           transform="translate(154.543,151.9614)"><path
             d="m 0,0 c -1.241,4.839 -7.009,6.817 -10.139,10.711 -0.987,1.229 -1.74,2.688 -3.011,3.619 -1.165,0.853 -2.631,1.162 -4.051,1.42 -16.993,3.094 -34.435,2.059 -51.668,0.892 -18.782,-1.272 -37.555,-2.689 -56.316,-4.251"
             style="fill:none;stroke:#000000;stroke-width:0.5;stroke-linecap:butt;stroke-linejoin:miter;stroke-miterlimit:10;stroke-dasharray:none;stroke-opacity:1"
             id="path30"
             inkscape:connector-curvature="0" /></g><g
           id="g32"
           transform="translate(146.0542,160.2466)"><path
             d="m 0,0 c 0.595,-1.124 0.83,-2.434 0.664,-3.693 -4.22,0.13 -8.439,0.26 -12.659,0.391 0.246,1.858 -0.718,3.644 -1.714,5.232 -0.859,1.369 -1.768,2.707 -2.723,4.011 -0.182,0.25 -0.377,0.507 -0.654,0.645 -0.317,0.159 -0.689,0.136 -1.044,0.139 -0.915,0.009 -1.815,0.216 -2.709,0.407 -7.777,1.665 -15.789,2.226 -23.723,1.662 3.471,-1.537 7.438,-1.153 11.234,-1.188 5.117,-0.046 10.186,-0.906 15.23,-1.763 0.244,-0.042 0.493,-0.085 0.711,-0.201 0.304,-0.162 0.518,-0.448 0.722,-0.725 0.924,-1.253 1.851,-2.523 2.54,-3.926 0.685,-1.396 0.776,-2.743 1.117,-4.215"
             style="fill:none;stroke:#000000;stroke-width:0.5;stroke-linecap:butt;stroke-linejoin:miter;stroke-miterlimit:10;stroke-dasharray:none;stroke-opacity:1"
             id="path34"
             inkscape:connector-curvature="0" /></g><g
           id="g36"
           transform="translate(71.7935,167.2573)"><path
             d="m 0,0 c 0.469,-0.078 9.063,0.469 9.063,0.469 h 7.266 3.828 4.688 6.094"
             style="fill:none;stroke:#000000;stroke-width:0.25;stroke-linecap:butt;stroke-linejoin:miter;stroke-miterlimit:10;stroke-dasharray:none;stroke-opacity:1"
             id="path38"
             inkscape:connector-curvature="0" /></g><g
           id="g40"
           transform="translate(132.6558,156.9444)"><path
             d="M 0,0 -21.017,0.781 H -37.111 L -53.128,0.391 -70.941,0 l -2.266,-0.391 -3.75,-0.781 -10.157,0.781 -5.469,0.196 -5.156,-0.196 -5.559,-0.312 7.356,-0.078 7.266,-0.391 7.031,-0.625 c 0,0 3.985,-0.469 4.297,-0.391 0.313,0.079 4.141,0.782 4.141,0.782 l 2.344,0.312 c 0,0 28.049,0.78 28.283,0.703 0.234,-0.078 14.141,0 14.141,0 l 14.688,-0.317 27.865,-0.464 5.028,-0.234"
             style="fill:none;stroke:#000000;stroke-width:0.25;stroke-linecap:butt;stroke-linejoin:miter;stroke-miterlimit:10;stroke-dasharray:none;stroke-opacity:1"
             id="path42"
             inkscape:connector-curvature="0" /></g><g
           id="g44"
           transform="translate(149.2187,152.9546)"><path
             d="m 0,0 -2.449,0.708 -14.27,0.391 -15.392,0.694 -17.345,-0.46 -36.72,-0.937 -1.562,0.078 H -88.91 L -90.473,0 -91.098,-0.385 h -2.04 -1.007 -3.359 L -98.833,0 l -4.141,0.318 -2.422,0.386 h -2.734 -4.532 -6.718 l 0.312,-1.089"
             style="fill:none;stroke:#000000;stroke-width:0.25;stroke-linecap:butt;stroke-linejoin:miter;stroke-miterlimit:10;stroke-dasharray:none;stroke-opacity:1"
             id="path46"
             inkscape:connector-curvature="0" /></g><g
           id="g48"
           transform="translate(56.0806,151.085)"><path
             d="M 0,0 -1.163,-0.547 -1.71,-0.86 H -2.413 L -3.194,-1.25 -9.523,-0.625 -14.601,0 h -5.391 -3.906 -2.825"
             style="fill:none;stroke:#000000;stroke-width:0.25;stroke-linecap:butt;stroke-linejoin:miter;stroke-miterlimit:10;stroke-dasharray:none;stroke-opacity:1"
             id="path50"
             inkscape:connector-curvature="0" /></g><g
           id="g52"
           transform="translate(34.3677,120.4585)"><path
             d="m 0,0 c 1.154,-0.043 2.359,-0.647 3.408,-0.165 1.715,0.789 1.377,3.654 2.989,4.636 5.242,-2.705 9.937,-6.335 14.844,-9.608 4.907,-3.273 10.163,-6.246 15.949,-7.387 0.243,-0.048 0.492,-0.093 0.735,-0.05 0.596,0.103 0.935,0.663 1.062,1.282 0.05,0.244 0.067,0.497 0.054,0.735 -0.081,1.43 -0.75,2.75 -1.406,4.023 -1.972,3.826 -3.944,7.654 -5.916,11.48 -0.693,1.345 -1.406,2.799 -1.205,4.298 1.558,-0.379 3.115,-0.758 4.673,-1.137 2.326,-0.566 4.809,-1.127 7.068,-0.334"
             style="fill:none;stroke:#000000;stroke-width:0.75;stroke-linecap:butt;stroke-linejoin:miter;stroke-miterlimit:10;stroke-dasharray:none;stroke-opacity:1"
             id="path54"
             inkscape:connector-curvature="0" /></g><g
           id="g56"
           transform="translate(73.3716,107.8526)"><path
             d="m 0,0 c -0.212,-0.445 -0.725,-0.686 -1.217,-0.705 -0.493,-0.019 -0.972,0.144 -1.433,0.32 -1.475,0.564 -2.89,1.274 -4.301,1.983"
             style="fill:none;stroke:#000000;stroke-width:0.25;stroke-linecap:butt;stroke-linejoin:miter;stroke-miterlimit:10;stroke-dasharray:none;stroke-opacity:1"
             id="path58"
             inkscape:connector-curvature="0" /></g><g
           id="g60"
           transform="translate(29.3579,73.834)"><path
             d="m 0,0 c 10.594,7.245 21.065,14.769 31.616,22.107 6.479,4.506 12.958,9.013 19.437,13.518 2.587,1.8 5.297,3.649 8.414,4.111 3.117,0.462 6.751,-0.929 7.79,-3.904 1.231,-3.525 -1.533,-7.605 -0.076,-11.043 0.843,-1.991 2.872,-3.168 4.769,-4.206 4.782,-2.613 9.564,-5.228 14.346,-7.842 1.992,-1.088 4.228,-2.213 6.432,-1.669 0.815,0.201 1.582,0.628 2.421,0.677 0.734,0.043 1.45,-0.209 2.143,-0.457 2.906,-1.039 6.354,-2.813 6.313,-5.899 C 103.573,3.064 101.317,1.257 99.017,0.9 96.717,0.545 94.402,1.273 92.188,1.992 87.276,3.589 82.364,5.186 77.452,6.781 71.06,8.859 64.243,10.956 57.73,9.293 55.043,8.606 52.559,7.308 50.103,6.02 33.409,-2.733 16.715,-11.486 0.021,-20.239"
             style="fill:none;stroke:#000000;stroke-width:0.5;stroke-linecap:butt;stroke-linejoin:miter;stroke-miterlimit:10;stroke-dasharray:none;stroke-opacity:1"
             id="path62"
             inkscape:connector-curvature="0" /></g><g
           id="g64"
           transform="translate(97.5806,98.5274)"><path
             d="m 0,0 c 1.675,-1.262 3.526,-2.268 5.369,-3.269 4.992,-2.711 9.985,-5.422 14.977,-8.134 0.331,-0.179 0.666,-0.361 1.032,-0.449 0.302,-0.072 0.615,-0.078 0.926,-0.083 1.375,-0.024 2.749,-0.047 4.124,-0.072 0.591,-0.01 1.186,-0.021 1.765,-0.142 0.619,-0.13 1.203,-0.384 1.773,-0.659 1.03,-0.496 2.025,-1.064 2.975,-1.7 0.749,-0.502 1.486,-1.06 1.982,-1.813 0.496,-0.753 0.718,-1.739 0.373,-2.572"
             style="fill:none;stroke:#000000;stroke-width:0.5;stroke-linecap:butt;stroke-linejoin:miter;stroke-miterlimit:10;stroke-dasharray:none;stroke-opacity:1"
             id="path66"
             inkscape:connector-curvature="0" /></g><g
           id="g68"
           transform="translate(112.9893,81.0977)"><path
             d="M 0,0 H 2.323 4.421 5.21 l 5.922,2.528 h 0.789 L 13.974,1.895 16.026,1.264 16.974,0 17.842,-0.711"
             style="fill:none;stroke:#000000;stroke-width:0.5;stroke-linecap:butt;stroke-linejoin:miter;stroke-miterlimit:10;stroke-dasharray:none;stroke-opacity:1"
             id="path70"
             inkscape:connector-curvature="0" /></g><g
           id="g72"
           transform="translate(119.0684,78.0977)"><path
             d="M 0,0 8.526,-2.053"
             style="fill:none;stroke:#000000;stroke-width:0.25;stroke-linecap:butt;stroke-linejoin:miter;stroke-miterlimit:10;stroke-dasharray:none;stroke-opacity:1"
             id="path74"
             inkscape:connector-curvature="0" /></g><g
           id="g76"
           transform="translate(128.7788,79.5391)"><path
             d="m 0,0 c 0,-1.363 -1.219,-2.468 -2.724,-2.468 -1.504,0 -2.723,1.105 -2.723,2.468 0,1.362 1.219,2.467 2.723,2.467 C -1.219,2.467 0,1.362 0,0 Z"
             style="fill:none;stroke:#000000;stroke-width:0.708;stroke-linecap:butt;stroke-linejoin:miter;stroke-miterlimit:10;stroke-dasharray:none;stroke-opacity:1"
             id="path78"
             inkscape:connector-curvature="0" /></g><g
           id="g80"
           transform="translate(93.2524,107.8672)"><path
             d="m 0,0 c 0,-1.363 -1.325,-2.468 -2.96,-2.468 -1.636,0 -2.961,1.105 -2.961,2.468 0,1.363 1.325,2.468 2.961,2.468 C -1.325,2.468 0,1.363 0,0 Z"
             style="fill:none;stroke:#000000;stroke-width:0.73799998;stroke-linecap:butt;stroke-linejoin:miter;stroke-miterlimit:10;stroke-dasharray:none;stroke-opacity:1"
             id="path82"
             inkscape:connector-curvature="0" /></g><g
           id="g84"
           transform="translate(30.0947,63.9658)"><path
             d="m 0,0 c 2.752,1.731 5.503,3.462 8.255,5.193 5.822,3.663 11.644,7.326 17.466,10.989 5.241,3.297 10.482,6.594 15.723,9.891 2.136,1.344 4.142,2.976 6.773,3.012 1.349,0.018 2.707,-0.16 4.044,0.025"
             style="fill:none;stroke:#000000;stroke-width:0.5;stroke-linecap:butt;stroke-linejoin:miter;stroke-miterlimit:10;stroke-dasharray:none;stroke-opacity:1"
             id="path86"
             inkscape:connector-curvature="0" /></g><g
           id="g88"
           transform="translate(29.6997,72.5713)"><path
             d="m 0,0 c 0.483,0 1.464,0.93 1.843,1.179 1.598,1.05 3.191,2.112 4.783,3.173 5.055,3.368 10.1,6.752 15.144,10.135 5.727,3.843 11.452,7.689 17.175,11.538 4.242,2.851 8.482,5.704 12.721,8.558 0.601,0.405 1.201,0.812 1.804,1.214 1.572,1.05 3.089,2.818 4.981,3.228 1.291,0.28 2.615,-0.168 3.86,-0.609 1.401,-0.497 2.565,-1.049 3.374,-2.337"
             style="fill:none;stroke:#000000;stroke-width:0.5;stroke-linecap:butt;stroke-linejoin:miter;stroke-miterlimit:10;stroke-dasharray:none;stroke-opacity:1"
             id="path90"
             inkscape:connector-curvature="0" /></g><g
           id="g92"
           transform="translate(93.2524,106.6763)"><path
             d="m 0,0 h 1.421 c -1.188,-1.577 -2.469,-3.107 -4.033,-4.314 -1.563,-1.207 -3.435,-2.08 -5.407,-2.192 -0.219,2.019 -0.294,6.272 1.466,7.697"
             style="fill:none;stroke:#000000;stroke-width:0.25;stroke-linecap:butt;stroke-linejoin:miter;stroke-miterlimit:10;stroke-dasharray:none;stroke-opacity:1"
             id="path94"
             inkscape:connector-curvature="0" /></g><g
           id="g96"
           transform="translate(29.6997,118.4395)"><path
             d="m 0,0 9.316,-6.756 6.789,-4.537 6.948,-4.891 0.947,-0.711"
             style="fill:none;stroke:#000000;stroke-width:0.25;stroke-linecap:butt;stroke-linejoin:miter;stroke-miterlimit:10;stroke-dasharray:none;stroke-opacity:1"
             id="path98"
             inkscape:connector-curvature="0" /></g><g
           id="g100"
           transform="translate(84.0947,82.0059)"><path
             d="m 0,0 c 0.12,-0.784 2.622,-1.849 3.229,-2.22 1.36,-0.834 2.725,-1.66 4.095,-2.478 2.739,-1.638 5.494,-3.246 8.264,-4.831 5.539,-3.172 11.132,-6.252 16.748,-9.286 5.167,-2.792 10.355,-5.547 15.543,-8.301 2.767,-1.47 5.534,-2.939 8.301,-4.407 1.717,-0.913 3.496,-1.843 5.435,-2.004 0.978,-0.081 1.955,0.043 2.911,0.245 0.833,0.177 1.801,0.67 2.658,0.557 l 38.053,-26.683"
             style="fill:none;stroke:#000000;stroke-width:0.5;stroke-linecap:butt;stroke-linejoin:miter;stroke-miterlimit:10;stroke-dasharray:none;stroke-opacity:1"
             id="path102"
             inkscape:connector-curvature="0" /></g><g
           id="g104"
           transform="translate(143.9365,50.1494)"><path
             d="m 0,0 c 2.535,0.264 5.068,0.547 7.602,0.82 0.72,0.078 1.441,0.157 2.149,0.311 1.625,0.353 3.133,1.097 4.662,1.75 2.211,0.945 4.511,1.717 6.89,2.065 3.472,0.509 7.007,0.109 10.514,0.234"
             style="fill:none;stroke:#000000;stroke-width:1;stroke-linecap:butt;stroke-linejoin:miter;stroke-miterlimit:10;stroke-dasharray:none;stroke-opacity:1"
             id="path106"
             inkscape:connector-curvature="0" /></g><g
           id="g108"
           transform="translate(150.3315,50.1494)"><path
             d="M 0,0 -3.237,-0.552 H -5.053 L -7.026,0 l -24.553,13.343 -11.842,6.789 -9.711,5.764 -10.973,5.96"
             style="fill:none;stroke:#000000;stroke-width:1;stroke-linecap:butt;stroke-linejoin:miter;stroke-miterlimit:10;stroke-dasharray:none;stroke-opacity:1"
             id="path110"
             inkscape:connector-curvature="0" /></g><g
           id="g112"
           transform="translate(126.8843,74.2285)"><path
             d="m 0,0 c -3.589,0.167 -7.164,0.648 -10.737,1.194 0.144,0.325 -0.037,0.719 -0.323,0.929 -0.285,0.21 -0.648,0.279 -0.997,0.339 -1.403,0.24 -2.817,0.421 -4.235,0.543 -1.631,0.14 -3.274,0.202 -4.881,0.517 -1.316,0.259 -2.593,0.685 -3.875,1.08 -5.118,1.574 -10.369,2.666 -15.611,3.755"
             style="fill:none;stroke:#000000;stroke-width:0.5;stroke-linecap:butt;stroke-linejoin:miter;stroke-miterlimit:10;stroke-dasharray:none;stroke-opacity:1"
             id="path114"
             inkscape:connector-curvature="0" /></g><g
           id="g116"
           transform="translate(92.2261,83.626)"><path
             d="m 0,0 c 2.7,-0.929 5.464,-1.66 8.246,-2.302 1.397,-0.321 2.799,-0.62 4.203,-0.908 1.248,-0.257 2.918,-0.306 4.051,-0.877"
             style="fill:none;stroke:#000000;stroke-width:0.5;stroke-linecap:butt;stroke-linejoin:miter;stroke-miterlimit:10;stroke-dasharray:none;stroke-opacity:1"
             id="path118"
             inkscape:connector-curvature="0" /></g><g
           id="g120"
           transform="translate(102.5684,79.124)"><path
             d="M 0,0 7.263,-1.422"
             style="fill:none;stroke:#000000;stroke-width:0.5;stroke-linecap:butt;stroke-linejoin:miter;stroke-miterlimit:10;stroke-dasharray:none;stroke-opacity:1"
             id="path122"
             inkscape:connector-curvature="0" /></g><g
           id="g124"
           transform="translate(111.5337,75.8799)"><path
             d="M 0,0 C 0.1,0.603 1.124,0.934 2.285,0.74 3.447,0.547 4.307,-0.099 4.207,-0.7 4.106,-1.303 3.083,-1.634 1.922,-1.44 0.76,-1.247 -0.1,-0.602 0,0 Z"
             style="fill:none;stroke:#000000;stroke-width:0.5;stroke-linecap:butt;stroke-linejoin:miter;stroke-miterlimit:10;stroke-dasharray:none;stroke-opacity:1"
             id="path126"
             inkscape:connector-curvature="0" /></g><g
           id="g128"
           transform="translate(67.1997,101.5444)"><path
             d="m 0,0 c 0.527,0.598 0.613,1.418 0.278,2.134 -0.298,0.638 -0.849,1.122 -1.426,1.525 -1.47,1.028 -3.215,1.66 -5.002,1.812 -0.902,0.076 -1.844,0.04 -2.663,0.425 -0.752,0.353 -1.367,1.046 -2.193,1.141 -1.183,-3.943 -2.367,-7.886 -3.55,-11.829 -0.255,-0.851 -0.519,-1.719 -1.045,-2.436 -0.488,-0.666 -1.173,-1.158 -1.845,-1.638 -6.802,-4.856 -13.599,-9.718 -20.396,-14.581"
             style="fill:none;stroke:#000000;stroke-width:0.5;stroke-linecap:butt;stroke-linejoin:miter;stroke-miterlimit:10;stroke-dasharray:none;stroke-opacity:1"
             id="path130"
             inkscape:connector-curvature="0" /></g><g
           id="g132"
           transform="translate(57.7261,106.5186)"><path
             d="m 0,0 c -0.89,-1.335 -0.972,-3.837 -1.292,-5.386 -0.413,-1.998 -0.891,-4.02 -1.932,-5.798 -2.339,-3.993 -7.078,-6.471 -10.746,-9.124 -3.427,-2.478 -6.854,-4.957 -10.281,-7.435 -1.258,-0.91 -2.517,-1.82 -3.775,-2.731"
             style="fill:none;stroke:#000000;stroke-width:0.5;stroke-linecap:butt;stroke-linejoin:miter;stroke-miterlimit:10;stroke-dasharray:none;stroke-opacity:1"
             id="path134"
             inkscape:connector-curvature="0" /></g><g
           id="g136"
           transform="translate(60.8052,96.5708)"><path
             d="m 0,0 c -1.389,-0.463 -2.739,-1.243 -4.22,-1.339 -0.123,-0.008 -0.25,-0.013 -0.364,-0.062 -0.11,-0.048 -0.2,-0.133 -0.287,-0.216 -0.762,-0.717 -1.633,-1.26 -2.471,-1.878"
             style="fill:none;stroke:#000000;stroke-width:0.5;stroke-linecap:butt;stroke-linejoin:miter;stroke-miterlimit:10;stroke-dasharray:none;stroke-opacity:1"
             id="path138"
             inkscape:connector-curvature="0" /></g><g
           id="g140"
           transform="translate(58.2788,149.8345)"><path
             d="m 0,0 c 0.777,0.291 1.353,0.836 2.191,1.022 0.995,0.221 2.05,0.124 3.051,10e-4 5.864,-0.716 11.66,-1.924 17.386,-3.376 3.683,-0.934 7.388,-1.991 10.655,-3.93 0.445,-0.264 0.918,-0.594 1.035,-1.098 0.187,-0.797 -2.111,-3.062 -2.619,-3.619 -1.086,-1.191 -2.28,-2.278 -3.462,-3.373 -1.143,-1.06 -2.289,-2.122 -3.323,-3.29 -0.946,-1.067 -1.611,-2.723 -2.651,-3.627"
             style="fill:none;stroke:#000000;stroke-width:0.5;stroke-linecap:butt;stroke-linejoin:miter;stroke-miterlimit:10;stroke-dasharray:none;stroke-opacity:1"
             id="path142"
             inkscape:connector-curvature="0" /></g><g
           id="g144"
           transform="translate(67.6763,150.9883)"><path
             d="m 0,0 h 16.418 14.369 c 7.365,0 14.73,-0.023 22.095,-0.007 l 19.699,0.042 c 3.107,0.007 6.223,0.013 9.304,-0.386 6.041,-0.781 11.632,-3.415 17.233,-5.665 5.928,-2.381 11.829,-4.839 17.611,-7.56 0.405,-0.19 0.811,-0.382 1.215,-0.575 3.411,-1.632 6.79,-3.33 10.136,-5.094 3.748,-1.976 7.471,-4.047 10.797,-6.672 4.188,-3.307 7.658,-7.421 11.012,-11.571 7.784,-9.631 15.123,-19.622 21.984,-29.931 3.29,-4.942 6.423,-9.999 9.625,-14.987"
             style="fill:none;stroke:#000000;stroke-width:0.5;stroke-linecap:butt;stroke-linejoin:miter;stroke-miterlimit:10;stroke-dasharray:none;stroke-opacity:1"
             id="path146"
             inkscape:connector-curvature="0" /></g><g
           id="g148"
           transform="translate(192.1758,110.2319)"><path
             d="m 0,0 c 4.877,-3.822 9.555,-7.608 13.656,-10.74 10.157,-7.757 18.83,-14.635 32.052,-26.921"
             style="fill:none;stroke:#000000;stroke-width:0.25;stroke-linecap:butt;stroke-linejoin:miter;stroke-miterlimit:10;stroke-dasharray:none;stroke-opacity:1"
             id="path150"
             inkscape:connector-curvature="0" /></g><g
           id="g152"
           transform="translate(93.2388,140.898)"><path
             d="m 0,0 c 15.254,-0.9 30.521,-1.801 45.69,-3.654 4.127,-0.504 8.26,-1.081 12.27,-2.181 6.667,-1.828 11.718,-5.682 17.843,-8.887 4.161,-2.177 8.648,-5.133 13.178,-8.403"
             style="fill:none;stroke:#000000;stroke-width:0.25;stroke-linecap:butt;stroke-linejoin:miter;stroke-miterlimit:10;stroke-dasharray:none;stroke-opacity:1"
             id="path154"
             inkscape:connector-curvature="0" /></g><g
           id="g156"
           transform="translate(192.0684,113.7813)"><path
             d="m 0,0 c 0,-2.529 -2.05,-4.579 -4.579,-4.579 -2.529,0 -4.579,2.05 -4.579,4.579 0,2.529 2.05,4.579 4.579,4.579 C -2.05,4.579 0,2.529 0,0 Z"
             style="fill:none;stroke:#000000;stroke-width:0.25;stroke-linecap:butt;stroke-linejoin:miter;stroke-miterlimit:10;stroke-dasharray:none;stroke-opacity:1"
             id="path158"
             inkscape:connector-curvature="0" /></g><g
           id="g160"
           transform="translate(192.7588,113.7813)"><path
             d="m 0,0 c 0,-2.91 -2.359,-5.27 -5.27,-5.27 -2.91,0 -5.27,2.36 -5.27,5.27 0,2.911 2.36,5.27 5.27,5.27 C -2.359,5.27 0,2.911 0,0 Z"
             style="fill:none;stroke:#000000;stroke-width:1;stroke-linecap:butt;stroke-linejoin:miter;stroke-miterlimit:10;stroke-dasharray:none;stroke-opacity:1"
             id="path162"
             inkscape:connector-curvature="0" /></g><g
           id="g164"
           transform="translate(190.8545,113.7813)"><path
             d="m 0,0 c 0,-1.858 -1.507,-3.365 -3.365,-3.365 -1.859,0 -3.365,1.507 -3.365,3.365 0,1.859 1.506,3.365 3.365,3.365 C -1.507,3.365 0,1.859 0,0 Z"
             style="fill:none;stroke:#000000;stroke-width:0.184;stroke-linecap:butt;stroke-linejoin:miter;stroke-miterlimit:10;stroke-dasharray:none;stroke-opacity:1"
             id="path166"
             inkscape:connector-curvature="0" /></g><g
           id="g168"
           transform="translate(189.9019,113.6568)"><path
             d="m 0,0 c 0,-1.333 -1.08,-2.413 -2.413,-2.413 -1.332,0 -2.413,1.08 -2.413,2.413 0,1.333 1.081,2.413 2.413,2.413 C -1.08,2.413 0,1.333 0,0 Z"
             style="fill:none;stroke:#000000;stroke-width:0.132;stroke-linecap:butt;stroke-linejoin:miter;stroke-miterlimit:10;stroke-dasharray:none;stroke-opacity:1"
             id="path170"
             inkscape:connector-curvature="0" /></g><g
           id="g172"
           transform="translate(213.4883,59.2285)"><path
             d="m 0,0 c 3.346,-1.83 6.692,-3.66 10.038,-5.49 5.595,-3.062 11.191,-6.122 16.787,-9.183 2.239,-1.224 6.88,-4.928 8.961,-1.826 0.686,1.021 0.685,2.347 0.558,3.57 -0.132,1.28 -0.374,2.544 -0.615,3.807 -0.461,2.408 -0.922,4.817 -1.383,7.226 -0.3,1.57 -0.6,3.14 -1.012,4.684 -0.092,0.346 -0.194,0.7 -0.418,0.98 -0.15,0.186 -0.347,0.329 -0.541,0.468 -0.79,0.571 -1.663,1.098 -2.374,1.765"
             style="fill:none;stroke:#000000;stroke-width:1;stroke-linecap:butt;stroke-linejoin:miter;stroke-miterlimit:10;stroke-dasharray:none;stroke-opacity:1"
             id="path174"
             inkscape:connector-curvature="0" /></g><g
           id="g176"
           transform="translate(189.8052,55.7549)"><path
             d="m 0,0 18.868,-10.263 c 9.045,-4.889 17.986,-9.931 27.041,-14.805 5.632,-3.033 11.31,-5.979 17.032,-8.838 2.86,-1.43 5.732,-2.838 8.614,-4.224 2.744,-1.319 5.667,-3.177 8.587,-4.034 0.108,-0.032 0.243,-0.057 0.356,-0.072"
             style="fill:none;stroke:#000000;stroke-width:1;stroke-linecap:butt;stroke-linejoin:miter;stroke-miterlimit:10;stroke-dasharray:none;stroke-opacity:1"
             id="path178"
             inkscape:connector-curvature="0" /></g><g
           id="g180"
           transform="translate(270.3027,60.8867)"><path
             d="m 0,0 c 0,0 -5.868,1.022 -5.893,1.026 -1.643,0.286 -3.296,0.565 -4.965,0.642 -0.394,-0.44 -0.218,-1.127 -0.021,-1.684 2.963,-8.324 5.925,-16.649 8.887,-24.973 0.501,-1.408 1.02,-2.851 1.986,-3.991"
             style="fill:none;stroke:#000000;stroke-width:1;stroke-linecap:butt;stroke-linejoin:miter;stroke-miterlimit:10;stroke-dasharray:none;stroke-opacity:1"
             id="path182"
             inkscape:connector-curvature="0" /></g><g
           id="g184"
           transform="translate(155.7788,51.4922)"><path
             d="m 0,0 c 0.68,-0.446 0.936,-1.089 1.822,-1.253 0.59,-0.109 1.203,-0.071 1.786,-0.216 1.49,-0.369 2.418,-1.796 3.559,-2.822 1.376,-1.237 3.214,-1.948 5.065,-1.959 0.896,-0.005 1.785,0.146 2.668,0.299 8.751,1.503 17.501,3.006 26.252,4.509 0.454,0.078 0.858,0.26 1.006,0.731"
             style="fill:none;stroke:#000000;stroke-width:0.5;stroke-linecap:butt;stroke-linejoin:miter;stroke-miterlimit:10;stroke-dasharray:none;stroke-opacity:1"
             id="path186"
             inkscape:connector-curvature="0" /></g><g
           id="g188"
           transform="translate(270.3027,120.9263)"><path
             d="m 0,0 c -1.54,-0.018 -3.396,-1.107 -4.91,-1.518 -1.874,-0.509 -3.793,-0.87 -5.734,-0.986 -3.646,-0.219 -7.42,0.467 -10.503,2.427"
             style="fill:none;stroke:#000000;stroke-width:0.25;stroke-linecap:butt;stroke-linejoin:miter;stroke-miterlimit:10;stroke-dasharray:none;stroke-opacity:1"
             id="path190"
             inkscape:connector-curvature="0" /></g><g
           id="g192"
           transform="translate(270.3027,96.5313)"><path
             d="m 0,0 c -1.755,0.442 -3.678,0.133 -5.502,0.647 -2,0.563 -3.895,1.456 -5.734,2.41 -7.622,3.953 -14.65,8.943 -21.925,13.503 -7.863,4.929 -15.921,8.801 -24.837,11.388"
             style="fill:none;stroke:#000000;stroke-width:0.25;stroke-linecap:butt;stroke-linejoin:miter;stroke-miterlimit:10;stroke-dasharray:none;stroke-opacity:1"
             id="path194"
             inkscape:connector-curvature="0" /></g><g
           id="g196"
           transform="translate(269.3838,90.4922)"><path
             d="m 0,0 c -2.306,0.938 -4.534,1.36 -6.768,2.638 -5.956,3.405 -11.835,6.98 -17.261,11.178 -1.889,1.461 -3.724,2.998 -5.718,4.313 -1.937,1.278 -4.008,2.336 -6.007,3.514 -5.844,3.44 -11.384,8.02 -18.109,8.893"
             style="fill:none;stroke:#000000;stroke-width:0.25;stroke-linecap:butt;stroke-linejoin:miter;stroke-miterlimit:10;stroke-dasharray:none;stroke-opacity:1"
             id="path198"
             inkscape:connector-curvature="0" /></g><g
           id="g200"
           transform="translate(173.7598,46.0703)"><path
             d="m 0,0 9.15,-4.96 6.895,-4.855 8.132,-4.349 h 0.75 0.711 l 2.368,-0.743 1.066,-0.592"
             style="fill:none;stroke:#000000;stroke-width:0.5;stroke-linecap:butt;stroke-linejoin:miter;stroke-miterlimit:4;stroke-dasharray:none;stroke-opacity:1"
             id="path202"
             inkscape:connector-curvature="0" /></g><g
           id="g204"
           transform="translate(189.3315,29.0313)"><path
             d="m 0,0 c 2.297,0 4.864,0.679 7.202,0.86 2.822,0.22 5.648,0.384 8.471,0.58 5.625,0.392 11.267,0.903 16.767,2.199 0.324,0.076 0.655,0.159 0.932,0.343 0.314,0.209 0.531,0.532 0.778,0.817 0.732,0.847 1.788,1.409 2.9,1.542"
             style="fill:none;stroke:#000000;stroke-width:0.5;stroke-linecap:butt;stroke-linejoin:miter;stroke-miterlimit:4;stroke-dasharray:none;stroke-opacity:1"
             id="path206"
             inkscape:connector-curvature="0" /></g><g
           id="g208"
           transform="translate(202.8267,15.6621)"><path
             d="M 0,0 C 1.74,0.184 3.214,1.299 4.683,2.25 9.729,5.52 15.785,7.207 21.795,7.019"
             style="fill:none;stroke:#000000;stroke-width:0.5;stroke-linecap:butt;stroke-linejoin:miter;stroke-miterlimit:4;stroke-dasharray:none;stroke-opacity:1"
             id="path210"
             inkscape:connector-curvature="0" /></g><g
           id="g212"
           transform="translate(224.6216,16.2422)"><path
             d="m 0,0 -13.619,-1.658 h -1.54"
             style="fill:none;stroke:#000000;stroke-width:0.5;stroke-linecap:butt;stroke-linejoin:miter;stroke-miterlimit:4;stroke-dasharray:none;stroke-opacity:1"
             id="path214"
             inkscape:connector-curvature="0" /></g><g
           id="g216"
           transform="translate(222.5024,22.0488)"><path
             d="m 0,0 c 0.837,-2.596 2.001,-5.085 3.455,-7.394 0.108,-0.172 0.224,-0.349 0.394,-0.462 0.254,-0.169 0.581,-0.167 0.886,-0.157 3.434,0.126 6.675,1.032 10.055,1.377"
             style="fill:none;stroke:#000000;stroke-width:0.5;stroke-linecap:butt;stroke-linejoin:miter;stroke-miterlimit:4;stroke-dasharray:none;stroke-opacity:1"
             id="path218"
             inkscape:connector-curvature="0" /></g><g
           id="g220"
           transform="translate(179.5024,43.834)"><path
             d="m 0,0 16.816,2.236 h 0.71 l 3.671,2.297"
             style="fill:none;stroke:#000000;stroke-width:0.5;stroke-linecap:butt;stroke-linejoin:miter;stroke-miterlimit:4;stroke-dasharray:none;stroke-opacity:1"
             id="path222"
             inkscape:connector-curvature="0" /></g><g
           id="g224"
           transform="translate(183.5288,41.5205)"><path
             d="M 0,0 1.547,0.537 15.869,2.905 20.487,5.71"
             style="fill:none;stroke:#000000;stroke-width:0.5;stroke-linecap:butt;stroke-linejoin:miter;stroke-miterlimit:4;stroke-dasharray:none;stroke-opacity:1"
             id="path226"
             inkscape:connector-curvature="0" /></g><g
           id="g228"
           transform="translate(189.3315,38.3203)"><path
             d="M 0,0 16.224,2.435 V 3.2 l 1.421,3.722"
             style="fill:none;stroke:#000000;stroke-width:0.5;stroke-linecap:butt;stroke-linejoin:miter;stroke-miterlimit:4;stroke-dasharray:none;stroke-opacity:1"
             id="path230"
             inkscape:connector-curvature="0" /></g><g
           id="g232"
           transform="translate(204.8447,46.6758)"><path
             d="m 0,0 c -0.331,-0.895 -0.663,-1.789 -0.987,-2.687 -0.081,-0.222 -0.167,-0.455 -0.341,-0.617 -0.204,-0.189 -0.493,-0.251 -0.767,-0.304 -5.879,-1.153 -11.757,-2.306 -17.635,-3.458 -0.017,0.636 -0.034,1.274 -0.051,1.911"
             style="fill:none;stroke:#000000;stroke-width:0.5;stroke-linecap:butt;stroke-linejoin:miter;stroke-miterlimit:4;stroke-dasharray:none;stroke-opacity:1"
             id="path234"
             inkscape:connector-curvature="0" /></g><g
           id="g236"
           transform="translate(188.7393,39.6094)"><path
             d="M 0,0 H 0.592 L 0,-2.052"
             style="fill:none;stroke:#000000;stroke-width:0.5;stroke-linecap:butt;stroke-linejoin:miter;stroke-miterlimit:4;stroke-dasharray:none;stroke-opacity:1"
             id="path238"
             inkscape:connector-curvature="0" /></g><g
           id="g240"
           transform="translate(211.2393,43.1426)"><path
             d="M 0,0 -0.71,-3.533 H -1.776 L -19.063,-7.006"
             style="fill:none;stroke:#000000;stroke-width:0.5;stroke-linecap:butt;stroke-linejoin:miter;stroke-miterlimit:4;stroke-dasharray:none;stroke-opacity:1"
             id="path242"
             inkscape:connector-curvature="0" /></g><g
           id="g244"
           transform="translate(217.0425,40.2813)"><path
             d="m 0,0 -4.737,-3.197 -17.351,-2.96"
             style="fill:none;stroke:#000000;stroke-width:0.5;stroke-linecap:butt;stroke-linejoin:miter;stroke-miterlimit:4;stroke-dasharray:none;stroke-opacity:1"
             id="path246"
             inkscape:connector-curvature="0" /></g><g
           id="g248"
           transform="translate(222.5024,37.5576)"><path
             d="m 0,0 c -0.25,-0.355 -5.934,-3.434 -5.934,-3.434 l -18.632,-2.217 17.093,3.465 4.499,3.212"
             style="fill:none;stroke:#000000;stroke-width:0.5;stroke-linecap:butt;stroke-linejoin:miter;stroke-miterlimit:4;stroke-dasharray:none;stroke-opacity:1"
             id="path250"
             inkscape:connector-curvature="0" /></g><g
           id="g252"
           transform="translate(224.0288,36.1367)"><path
             d="M 0,0 C -0.474,-0.355 -5.996,-4.23 -5.996,-4.23 L -12.79,-5.147"
             style="fill:none;stroke:#000000;stroke-width:0.5;stroke-linecap:butt;stroke-linejoin:miter;stroke-miterlimit:4;stroke-dasharray:none;stroke-opacity:1"
             id="path254"
             inkscape:connector-curvature="0" /></g><g
           id="g256"
           transform="translate(179.6108,43.2578)"><path
             d="M 0,0 16.816,2.235"
             style="fill:none;stroke:#000000;stroke-width:0.25;stroke-linecap:butt;stroke-linejoin:miter;stroke-miterlimit:4;stroke-dasharray:none;stroke-opacity:1"
             id="path258"
             inkscape:connector-curvature="0" /></g><g
           id="g260"
           transform="translate(183.7388,40.9795)"><path
             d="m 0,0 1.547,0.537 14.321,2.368 4.619,2.804"
             style="fill:none;stroke:#000000;stroke-width:0.25;stroke-linecap:butt;stroke-linejoin:miter;stroke-miterlimit:4;stroke-dasharray:none;stroke-opacity:1"
             id="path262"
             inkscape:connector-curvature="0" /></g><g
           id="g264"
           transform="translate(205.4565,46.2393)"><path
             d="m 0,0 c -0.331,-0.895 -0.662,-1.789 -0.987,-2.687 -0.081,-0.222 -0.167,-0.455 -0.341,-0.617 -0.204,-0.189 -0.493,-0.251 -0.767,-0.304 -5.878,-1.153 -11.757,-2.306 -17.635,-3.458 -0.017,0.636 -0.034,1.274 -0.05,1.911"
             style="fill:none;stroke:#000000;stroke-width:0.25;stroke-linecap:butt;stroke-linejoin:miter;stroke-miterlimit:4;stroke-dasharray:none;stroke-opacity:1"
             id="path266"
             inkscape:connector-curvature="0" /></g><g
           id="g268"
           transform="translate(189.9565,38.0606)"><path
             d="M 0,0 16.224,2.435 V 3.2 l 1.421,3.721"
             style="fill:none;stroke:#000000;stroke-width:0.25;stroke-linecap:butt;stroke-linejoin:miter;stroke-miterlimit:4;stroke-dasharray:none;stroke-opacity:1"
             id="path270"
             inkscape:connector-curvature="0" /></g><g
           id="g272"
           transform="translate(211.7949,42.5635)"><path
             d="M 0,0 -0.71,-3.533 H -1.776 L -19.063,-7.006"
             style="fill:none;stroke:#000000;stroke-width:0.25;stroke-linecap:butt;stroke-linejoin:miter;stroke-miterlimit:4;stroke-dasharray:none;stroke-opacity:1"
             id="path274"
             inkscape:connector-curvature="0" /></g><g
           id="g276"
           transform="translate(217.3584,39.876)"><path
             d="m 0,0 -4.737,-3.197 -17.351,-2.96"
             style="fill:none;stroke:#000000;stroke-width:0.25;stroke-linecap:butt;stroke-linejoin:miter;stroke-miterlimit:4;stroke-dasharray:none;stroke-opacity:1"
             id="path278"
             inkscape:connector-curvature="0" /></g><g
           id="g280"
           transform="translate(222.9839,37.169)"><path
             d="m 0,0 c -0.25,-0.355 -5.934,-3.435 -5.934,-3.435 l -18.631,-2.216 17.092,3.464 4.499,3.212"
             style="fill:none;stroke:#000000;stroke-width:0.25;stroke-linecap:butt;stroke-linejoin:miter;stroke-miterlimit:4;stroke-dasharray:none;stroke-opacity:1"
             id="path282"
             inkscape:connector-curvature="0" /></g><g
           id="g284"
           transform="translate(295.0625,111.6231)"><path
             d="m 0,0 c -1.108,2.554 -0.017,4.409 0.707,6.114 0.723,1.707 3.002,5.896 4.407,8.32 1.406,2.422 3.938,4.242 6.761,5.56 2.823,1.318 11.066,4.739 14.968,6.229 3.903,1.49 6.034,0.586 10.263,0.177 4.229,-0.411 8.447,-2.325 10.616,-4.629 2.168,-2.303 23.001,-30.885 35.675,-57.644 1.125,-2.371 2.223,-4.841 2.333,-5.769 0.11,-0.926 0.388,-2.05 -1.501,-5.023 -1.889,-2.972 -3.734,-5.838 -7.416,-9.182 -3.682,-3.343 -25.624,-10.891 -28.118,-10.841 -2.495,0.052 -2.706,-0.808 -6.216,3.14 C 19.315,-37.498 2.812,-6.483 0,0 Z"
             style="fill:none;stroke:#000000;stroke-width:1.14199996;stroke-linecap:round;stroke-linejoin:round;stroke-miterlimit:10;stroke-dasharray:none;stroke-opacity:1"
             id="path286"
             inkscape:connector-curvature="0" /></g><g
           id="g288"
           transform="translate(301.1973,109.3794)"><path
             d="m 0,0 c 1.588,-2.323 2.842,-4.798 4.283,-7.198 1.419,-2.405 2.852,-4.802 4.322,-7.176 2.933,-4.753 5.959,-9.449 9.092,-14.072 3.134,-4.621 6.373,-9.171 9.756,-13.609 0.838,-1.115 1.684,-2.225 2.554,-3.315 0.842,-1.106 1.764,-2.151 2.556,-3.387 0.746,-1.236 1.398,-2.542 1.661,-4.03 0.103,-0.73 0.181,-1.586 -0.362,-2.385 -0.14,-0.179 -0.339,-0.347 -0.532,-0.467 -0.209,-0.078 -0.431,-0.215 -0.639,-0.218 -0.435,-0.082 -0.823,-0.022 -1.214,0.024 -0.254,0.03 -0.436,0.26 -0.407,0.514 0.031,0.254 0.261,0.436 0.515,0.406 l 0.018,-0.003 0.044,-0.006 c 0.615,-0.099 1.22,-0.055 1.465,0.316 0.267,0.376 0.282,1.039 0.171,1.66 -0.229,1.276 -0.845,2.523 -1.55,3.664 -0.722,1.118 -1.659,2.176 -2.518,3.287 -0.88,1.091 -1.742,2.195 -2.583,3.316 -3.387,4.464 -6.625,9.036 -9.758,13.678 -3.131,4.642 -6.153,9.355 -9.082,14.127 -1.47,2.382 -2.9,4.789 -4.317,7.204 -1.372,2.432 -2.912,4.804 -3.884,7.453 l -0.002,0.006 c -0.044,0.12 0.017,0.254 0.139,0.298 C -0.171,0.125 -0.059,0.086 0,0"
             style="fill:#000000;fill-opacity:1;fill-rule:nonzero;stroke:none"
             id="path290"
             inkscape:connector-curvature="0" /></g><g
           id="g292"
           transform="translate(304.3271,130.208)"><path
             d="m 0,0 c -1.621,-1.451 -2.997,-3.508 -4.73,-7.301 -1.736,-3.793 -2.733,-5.256 -1.874,-7.382 0.766,-1.894 1.663,-3.243 3.27,-6.254"
             style="fill:none;stroke:#000000;stroke-width:0.463;stroke-linecap:round;stroke-linejoin:round;stroke-miterlimit:10;stroke-dasharray:none;stroke-opacity:1"
             id="path294"
             inkscape:connector-curvature="0" /></g><g
           id="g296"
           transform="translate(309.6514,129.7105)"><path
             d="m 0,0 c 4.805,2.326 13.13,5.752 15.575,6.476 2.446,0.725 3.711,0.529 5.384,0.322 1.673,-0.206 2.432,0.012 4.812,-2.382 2.381,-2.393 13.669,-16.111 21.242,-28.504 7.574,-12.395 14.451,-33.548 14.713,-34.414 0.26,-0.866 -0.118,-1.46 -0.737,-2.33 -0.62,-0.869 -2.961,-4.907 -7.714,-6.916 -4.752,-2.01 -10.223,-2.457 -11.272,-2.263 -1.052,0.193 -1.432,0.481 -2.423,1.405 -0.992,0.923 -12.678,11.035 -25.242,28.565 -12.565,17.53 -18.089,30.425 -19.04,33.106 -0.247,0.694 0.198,1.694 1.142,3.288 C -2.55,-1.941 -2.216,-1.073 0,0 Z"
             style="fill:none;stroke:#000000;stroke-width:0.463;stroke-linecap:round;stroke-linejoin:round;stroke-miterlimit:10;stroke-dasharray:none;stroke-opacity:1"
             id="path298"
             inkscape:connector-curvature="0" /></g><g
           id="g300"
           transform="translate(310.7461,128.5747)"><path
             d="m 0,0 c 4.625,2.239 12.642,5.537 14.996,6.234 2.355,0.696 3.655,0.551 5.266,0.352 1.611,-0.198 2.34,-0.339 3.197,-1.25 2.227,-2.367 14.515,-16.597 21.806,-28.53 7.293,-11.932 14.131,-32.812 14.384,-33.646 0.251,-0.833 -0.112,-1.405 -0.71,-2.243 -0.596,-0.835 -2.79,-4.751 -7.365,-6.687 -4.574,-1.935 -10.392,-2.06 -10.868,-1.973 -0.475,0.088 -0.646,0.218 -1.095,0.636 -0.447,0.417 -13.71,11.677 -25.806,28.554 -12.099,16.877 -17.749,30.481 -18.594,33.087 -0.118,0.366 0.117,0.772 1.06,2.204 C -2.678,-1.668 -2.134,-1.033 0,0 Z"
             style="fill:none;stroke:#000000;stroke-width:0.463;stroke-linecap:round;stroke-linejoin:round;stroke-miterlimit:10;stroke-dasharray:none;stroke-opacity:1"
             id="path302"
             inkscape:connector-curvature="0" /></g><g
           id="g304"
           transform="translate(299.0459,123.6846)"><path
             d="M 0,0 C -1.484,-2.808 -1.665,-3.529 -1.98,-4.569 -2.295,-5.608 -2.46,-6 -1.179,-8.514"
             style="fill:none;stroke:#000000;stroke-width:0.463;stroke-linecap:round;stroke-linejoin:round;stroke-miterlimit:10;stroke-dasharray:none;stroke-opacity:1"
             id="path306"
             inkscape:connector-curvature="0" /></g><g
           id="g308"
           transform="translate(308.7549,129.3779)"><path
             d="m 0,0 c -2.763,-1.176 -3.272,-2.972 -4.99,-7.023 -1.719,-4.051 -2.117,-4.218 -0.969,-6.633 4.542,-9.557 20.477,-33.672 39.665,-58.916 0.881,-1.159 1.536,-1.324 2.65,-1.46 1.116,-0.138 11.425,-0.149 19.368,3.946 7.941,4.094 12.893,10.632 13.755,11.775 0.862,1.144 0.811,2.801 -0.233,5.381"
             style="fill:none;stroke:#000000;stroke-width:0.463;stroke-linecap:round;stroke-linejoin:round;stroke-miterlimit:10;stroke-dasharray:none;stroke-opacity:1"
             id="path310"
             inkscape:connector-curvature="0" /></g><g
           id="g312"
           transform="translate(325.8154,136.3736)"><path
             d="m 0,0 c 2.479,0.633 4.957,0.731 7.787,0.286 2.83,-0.446 7.013,-0.962 9.182,-3.265"
             style="fill:none;stroke:#000000;stroke-width:0.463;stroke-linecap:round;stroke-linejoin:round;stroke-miterlimit:10;stroke-dasharray:none;stroke-opacity:1"
             id="path314"
             inkscape:connector-curvature="0" /></g><g
           id="g316"
           transform="translate(302.0518,106.7163)"><path
             d="m 0,0 -1.802,-3.208 -0.847,0.083"
             style="fill:none;stroke:#000000;stroke-width:0.926;stroke-linecap:round;stroke-linejoin:round;stroke-miterlimit:10;stroke-dasharray:none;stroke-opacity:1"
             id="path318"
             inkscape:connector-curvature="0" /></g><g
           id="g320"
           transform="translate(299.4033,104.1143)"><path
             d="M 0,0 2.137,3.867"
             style="fill:none;stroke:#000000;stroke-width:0.463;stroke-linecap:round;stroke-linejoin:round;stroke-miterlimit:10;stroke-dasharray:none;stroke-opacity:1"
             id="path322"
             inkscape:connector-curvature="0" /></g><g
           id="g324"
           transform="translate(340.1396,117.3467)"><path
             d="m 0,0 c -0.14,-0.329 -0.586,-0.453 -1.001,-0.278 -0.412,0.176 -0.635,0.583 -0.495,0.912 0.139,0.328 0.588,0.452 1,0.277 C -0.083,0.736 0.14,0.329 0,0"
             style="fill:#00fb22;fill-opacity:1;fill-rule:nonzero;stroke:none"
             id="path326"
             inkscape:connector-curvature="0" /></g><g
           id="g328"
           transform="translate(340.1396,117.3467)"><path
             d="m 0,0 c -0.14,-0.329 -0.586,-0.453 -1.001,-0.278 -0.412,0.176 -0.635,0.583 -0.495,0.912 0.139,0.328 0.588,0.452 1,0.277 C -0.083,0.736 0.14,0.329 0,0 Z"
             style="fill:none;stroke:#000000;stroke-width:0.1;stroke-linecap:butt;stroke-linejoin:miter;stroke-miterlimit:10;stroke-dasharray:none;stroke-opacity:1"
             id="path330"
             inkscape:connector-curvature="0" /></g><g
           id="g332"
           transform="translate(337.2373,118.5772)"><path
             d="M 0,0 C 0.346,0.813 1.348,1.186 2.38,0.953 2.47,0.933 2.563,0.956 2.633,1.016 2.701,1.077 2.737,1.167 2.729,1.258 L 2.698,1.614 C 2.687,1.739 2.597,1.842 2.474,1.869 1.04,2.186 -0.353,1.718 -0.942,0.664 -0.961,0.633 -0.989,0.566 -1.017,0.496 -1.063,0.376 -1.019,0.241 -0.91,0.173 l 0.531,-0.327 c 0.064,-0.04 0.141,-0.049 0.211,-0.025 0.071,0.023 0.128,0.077 0.155,0.146 C -0.009,-0.022 -0.004,-0.011 0,0"
             style="fill:#00fb22;fill-opacity:1;fill-rule:nonzero;stroke:none"
             id="path334"
             inkscape:connector-curvature="0" /></g><g
           id="g336"
           transform="translate(337.2373,118.5772)"><path
             d="M 0,0 C 0.346,0.813 1.348,1.186 2.38,0.953 2.47,0.933 2.563,0.956 2.633,1.016 2.701,1.077 2.737,1.167 2.729,1.258 L 2.698,1.614 C 2.687,1.739 2.597,1.842 2.474,1.869 1.04,2.186 -0.353,1.718 -0.942,0.664 -0.961,0.633 -0.989,0.566 -1.017,0.496 -1.063,0.376 -1.019,0.241 -0.91,0.173 l 0.531,-0.327 c 0.064,-0.04 0.141,-0.049 0.211,-0.025 0.071,0.023 0.128,0.077 0.155,0.146 C -0.009,-0.022 -0.004,-0.011 0,0 Z"
             style="fill:none;stroke:#000000;stroke-width:0.1;stroke-linecap:butt;stroke-linejoin:miter;stroke-miterlimit:10;stroke-dasharray:none;stroke-opacity:1"
             id="path338"
             inkscape:connector-curvature="0" /></g><g
           id="g340"
           transform="translate(334.0605,120.5547)"><path
             d="m 0,0 c -0.1,-0.162 -0.049,-0.374 0.112,-0.474 l 0.489,-0.301 c 0.079,-0.049 0.174,-0.064 0.263,-0.041 0.091,0.022 0.169,0.08 0.215,0.16 0.78,1.329 2.498,1.966 4.319,1.688 0.087,-0.014 0.176,0.014 0.241,0.074 0.064,0.06 0.097,0.146 0.089,0.234 L 5.687,1.811 C 5.676,1.943 5.576,2.049 5.446,2.07 3.162,2.427 1.008,1.643 0,0"
             style="fill:#00fb22;fill-opacity:1;fill-rule:nonzero;stroke:none"
             id="path342"
             inkscape:connector-curvature="0" /></g><g
           id="g344"
           transform="translate(334.0605,120.5547)"><path
             d="m 0,0 c -0.1,-0.162 -0.049,-0.374 0.112,-0.474 l 0.489,-0.301 c 0.079,-0.049 0.174,-0.064 0.263,-0.041 0.091,0.022 0.169,0.08 0.215,0.16 0.78,1.329 2.498,1.966 4.319,1.688 0.087,-0.014 0.176,0.014 0.241,0.074 0.064,0.06 0.097,0.146 0.089,0.234 L 5.687,1.811 C 5.676,1.943 5.576,2.049 5.446,2.07 3.162,2.427 1.008,1.643 0,0 Z"
             style="fill:none;stroke:#000000;stroke-width:0.1;stroke-linecap:butt;stroke-linejoin:miter;stroke-miterlimit:10;stroke-dasharray:none;stroke-opacity:1"
             id="path346"
             inkscape:connector-curvature="0" /></g><g
           id="g348"
           transform="translate(340.7256,85.6983)"><path
             d="m 0,0 c -0.189,-0.094 -0.32,-0.182 -0.42,-0.287 -0.185,-0.2 -0.253,-0.429 -0.2,-0.675 0.061,-0.309 0.327,-0.638 0.707,-0.883 L 13.08,-9.891 c 0.489,-0.302 0.845,-0.362 1.192,-0.189 0.346,0.169 0.481,0.469 0.453,1.002 l -0.722,14.1 C 13.974,5.438 13.8,5.814 13.541,6.027 13.333,6.198 13.082,6.267 12.794,6.234 12.641,6.214 12.488,6.163 12.295,6.069 Z"
             style="fill:#231f20;fill-opacity:1;fill-rule:nonzero;stroke:none"
             id="path350"
             inkscape:connector-curvature="0" /></g><g
           id="g352"
           transform="translate(353.7344,74.6602)"><path
             d="m 0,0 c -0.149,0.064 -0.31,0.148 -0.48,0.254 l -12.994,8.047 c -0.638,0.41 -1.065,0.977 -1.184,1.565 -0.122,0.576 0.041,1.147 0.459,1.599 0.192,0.204 0.414,0.361 0.725,0.514 l 12.294,6.07 c 0.301,0.146 0.564,0.231 0.831,0.265 C 0.037,18.357 0.39,18.311 0.712,18.173 0.886,18.099 1.05,18 1.198,17.877 1.685,17.479 1.992,16.844 2.041,16.133 L 2.765,2.013 C 2.831,0.812 2.234,0.263 1.721,0.014 1.191,-0.251 0.608,-0.257 0,0 Z"
             style="fill:none;stroke:#231f20;stroke-width:0.463;stroke-linecap:round;stroke-linejoin:round;stroke-miterlimit:10;stroke-dasharray:none;stroke-opacity:1"
             id="path354"
             inkscape:connector-curvature="0" /></g><g
           id="g356"
           transform="translate(351.9961,85.4961)"><path
             d="M 0,0 1.903,-0.097 1.869,0.562 -0.393,0.633 1.81,1.719 1.761,2.733 -1.655,1.049 2.16,-5.112 2.069,-3.342 Z"
             style="fill:#ffffff;fill-opacity:1;fill-rule:nonzero;stroke:none"
             id="path358"
             inkscape:connector-curvature="0" /></g><g
           id="g360"
           transform="translate(347.2217,83.1387)"><path
             d="m 0,0 -0.92,-1.488 -0.609,0.376 1.136,1.746 -2.202,-1.086 -0.933,0.579 3.414,1.683 3.815,-6.162 -1.632,1.01 z"
             style="fill:#ffffff;fill-opacity:1;fill-rule:nonzero;stroke:none"
             id="path362"
             inkscape:connector-curvature="0" /></g><g
           id="g364"
           transform="translate(380.7148,135.8843)"><path
             d="M 0,0 0.028,-1.611 0.28,-3.079 0.825,-4.676 1.383,-6.212 c 0,0 0.822,-1.783 0.824,-1.787 2.117,-4.597 4.647,-8.861 7.36,-13.122 l 1.647,-2.419 2.585,-3.397 2.305,-2.629 2.211,-2.288 1.883,-1.829 1.666,-1.461 1.442,-1.025 1.34,-0.618 2.569,-0.569 1.427,0.068 1.815,0.368 2.018,0.708 3.113,1.3 4.919,2.504 3.894,2.218 2.289,1.354 0.999,0.741 0.904,0.891 0.822,1.101 0.605,1.278 0.311,1.408 0.339,1.529 -0.177,1.516 -0.423,1.57 -0.966,2.589 -1.246,2.779 -2.17,4.397 -1.49,2.833 -1.89,3.052 -1.218,1.746 -1.34,1.773 -1.564,2.208 -1.592,2.086 -2.007,2.242 -1.843,1.821 -1.455,1.542 -1.448,1.284 -0.858,0.768 -0.754,0.552 -0.891,0.711 -1.651,0.366 -1.041,0.231 -2.386,0.529 -1.284,-0.293 -1.978,-0.524 -2.12,-0.878 -2.915,-1.28 L 11.292,10.399 7.385,8.12 5.033,6.779 3.151,5.528 1.759,4.167 1.019,2.855 0.326,1.468 Z"
             style="fill:none;stroke:#000000;stroke-width:1.14199996;stroke-linecap:butt;stroke-linejoin:miter;stroke-miterlimit:10;stroke-dasharray:none;stroke-opacity:1"
             id="path366"
             inkscape:connector-curvature="0" /></g><g
           id="g368"
           transform="translate(403.5654,142.4175)"><path
             d="m 0,0 c -2.826,-1.457 -5.652,-2.914 -8.478,-4.37 -1.39,-0.717 -2.78,-1.433 -4.169,-2.15 -0.696,-0.358 -1.391,-0.716 -2.085,-1.074 -0.133,-0.069 -1.56,-0.822 -1.238,-0.051 0.063,0.15 0.202,0.25 0.336,0.342 4.494,3.08 9.406,5.551 14.559,7.322 C -0.719,0.142 -0.284,0.248 0,0 Z"
             style="fill:none;stroke:#000000;stroke-width:0.5;stroke-linecap:butt;stroke-linejoin:miter;stroke-miterlimit:10;stroke-dasharray:none;stroke-opacity:1"
             id="path370"
             inkscape:connector-curvature="0" /></g><g
           id="g372"
           transform="translate(409.3574,138.2647)"><path
             d="m 0,0 c -0.277,-0.65 -1.136,-1.027 -1.729,-1.335 -5.708,-2.977 -11.416,-5.953 -17.125,-8.929 -0.697,-0.363 -1.486,-0.737 -2.24,-0.515 -0.718,0.213 -1.177,0.904 -1.493,1.582 -0.556,1.191 -0.861,2.552 -0.549,3.829 0.166,0.676 0.574,1.39 1.294,1.573"
             style="fill:none;stroke:#000000;stroke-width:0.5;stroke-linecap:butt;stroke-linejoin:miter;stroke-miterlimit:10;stroke-dasharray:none;stroke-opacity:1"
             id="path374"
             inkscape:connector-curvature="0" /></g><g
           id="g376"
           transform="translate(409.1289,138.8286)"><path
             d="m 0,0 c -0.437,-0.582 -1.174,-0.915 -1.807,-1.236 -5.638,-2.864 -11.278,-5.728 -16.917,-8.592 -0.398,-0.202 -0.812,-0.408 -1.258,-0.426 -0.582,-0.024 -1.144,0.29 -1.524,0.732 -0.381,0.442 -0.599,1.001 -0.747,1.565 -0.219,0.844 -0.354,2.252 0.471,2.836"
             style="fill:none;stroke:#000000;stroke-width:0.5;stroke-linecap:butt;stroke-linejoin:miter;stroke-miterlimit:10;stroke-dasharray:none;stroke-opacity:1"
             id="path378"
             inkscape:connector-curvature="0" /></g><g
           id="g380"
           transform="translate(408.6699,138.9302)"><path
             d="m 0,0 c -0.118,0.921 -1.159,1.737 -1.802,2.321 -0.402,0.365 -1.236,1.056 -3.23,1.491"
             style="fill:none;stroke:#000000;stroke-width:0.5;stroke-linecap:butt;stroke-linejoin:miter;stroke-miterlimit:10;stroke-dasharray:none;stroke-opacity:1"
             id="path382"
             inkscape:connector-curvature="0" /></g><g
           id="g384"
           transform="translate(406.4463,140.771)"><path
             d="m 0,0 c -3.176,-1.519 -6.34,-3.064 -9.501,-4.615 -1.581,-0.776 -3.16,-1.552 -4.741,-2.327 -1.228,-0.602 -2.892,-1.858 -4.282,-1.922 -0.066,-0.003 -0.136,-0.002 -0.189,0.037 -0.062,0.046 -0.082,0.13 -0.097,0.206 -0.056,0.297 -0.112,0.594 -0.17,0.89"
             style="fill:none;stroke:#000000;stroke-width:0.25;stroke-linecap:butt;stroke-linejoin:miter;stroke-miterlimit:10;stroke-dasharray:none;stroke-opacity:1"
             id="path386"
             inkscape:connector-curvature="0" /></g><g
           id="g388"
           transform="translate(405.21,100.7354)"><path
             d="m 0,0 c 1.572,-0.927 3.525,-1.207 5.315,-0.887 1.369,0.244 2.648,0.833 3.911,1.415 3.131,1.447 6.275,2.898 9.221,4.702 2.773,1.697 5.122,3.397 5.344,6.906 0.129,2.031 -0.402,4.042 -0.963,5.999 -1.161,4.059 -3.612,7.521 -5.804,11.095 -2.275,3.713 -4.648,7.384 -7.389,10.773 -1.017,1.256 -2.083,2.472 -3.215,3.624 -1.174,1.197 -2.426,2.393 -3.991,2.991 -1.68,0.641 -3.569,0.524 -5.304,0.055 -1.736,-0.469 -3.359,-1.272 -5.003,-2 -3.569,-1.582 -7.341,-2.869 -10.421,-5.267 -2.948,-2.296 -5.405,-6.234 -4.659,-10.102"
             style="fill:none;stroke:#000000;stroke-width:0.5;stroke-linecap:butt;stroke-linejoin:miter;stroke-miterlimit:10;stroke-dasharray:none;stroke-opacity:1"
             id="path390"
             inkscape:connector-curvature="0" /></g><g
           id="g392"
           transform="translate(397.6904,121.4409)"><path
             d="M 0,0 C -0.187,-0.101 -0.312,-0.194 -0.408,-0.303 -0.586,-0.51 -0.645,-0.741 -0.583,-0.985 -0.509,-1.292 -0.23,-1.609 0.159,-1.84 l 13.296,-7.534 c 0.501,-0.283 0.858,-0.329 1.198,-0.142 0.339,0.182 0.463,0.487 0.413,1.018 L 13.796,5.564 C 13.751,5.979 13.563,6.347 13.296,6.55 13.081,6.712 12.828,6.771 12.541,6.728 12.389,6.702 12.238,6.645 12.049,6.543 Z"
             style="fill:#231f20;fill-opacity:1;fill-rule:nonzero;stroke:none"
             id="path394"
             inkscape:connector-curvature="0" /></g><g
           id="g396"
           transform="translate(411.1191,110.9185)"><path
             d="m 0,0 c -0.152,0.058 -0.315,0.136 -0.49,0.234 l -13.297,7.535 c -0.653,0.386 -1.103,0.936 -1.245,1.519 -0.144,0.571 -0.003,1.147 0.397,1.615 0.185,0.211 0.401,0.377 0.705,0.543 l 12.049,6.543 c 0.294,0.157 0.553,0.252 0.819,0.297 0.383,0.059 0.738,0.026 1.065,-0.099 0.178,-0.068 0.345,-0.161 0.498,-0.277 0.502,-0.379 0.834,-1.002 0.91,-1.71 L 2.685,2.119 C 2.797,0.921 2.222,0.349 1.719,0.08 1.2,-0.205 0.618,-0.233 0,0 Z"
             style="fill:none;stroke:#231f20;stroke-width:0.463;stroke-linecap:round;stroke-linejoin:round;stroke-miterlimit:10;stroke-dasharray:none;stroke-opacity:1"
             id="path398"
             inkscape:connector-curvature="0" /></g><g
           id="g400"
           transform="translate(408.96,121.6782)"><path
             d="M 0,0 1.906,-0.022 1.846,0.635 -0.417,0.617 1.741,1.788 1.653,2.799 -1.695,0.983 2.357,-5.024 2.197,-3.259 Z"
             style="fill:#ffffff;fill-opacity:1;fill-rule:nonzero;stroke:none"
             id="path402"
             inkscape:connector-curvature="0" /></g><g
           id="g404"
           transform="translate(404.2803,119.1367)"><path
             d="m 0,0 -0.86,-1.523 -0.624,0.352 1.068,1.788 -2.158,-1.17 -0.956,0.542 3.346,1.814 4.053,-6.007 -1.67,0.945 z"
             style="fill:#ffffff;fill-opacity:1;fill-rule:nonzero;stroke:none"
             id="path406"
             inkscape:connector-curvature="0" /></g></g></g><g
       id="g408"
       transform="translate(265.5225,10.8662)"><path
         d="m 0,0 h -85.145 v 50.21 h 16.816 l -8.937,52.016 27.54,-52.016 H 0 Z"
         style="fill:#ffffff;fill-opacity:1;fill-rule:nonzero;stroke:none"
         id="path410"
         inkscape:connector-curvature="0" /></g><g
       id="g412"
       transform="translate(265.5225,10.8662)"><path
         d="m 0,0 h -85.145 v 50.21 h 16.816 l -8.937,52.016 27.54,-52.016 H 0 Z"
         style="fill:none;stroke:#000000;stroke-width:0.5;stroke-linecap:butt;stroke-linejoin:miter;stroke-miterlimit:4;stroke-dasharray:none;stroke-opacity:1"
         id="path414"
         inkscape:connector-curvature="0" /></g><g
       id="g416"><g
         id="g418"
         clip-path="url(#clipPath422)"><g
           id="g424"
           transform="translate(188.5498,44.4043)"><path
             d="m 0,0 0.021,-1.187 0.186,-1.081 0.4,-1.175 0.412,-1.131 c 0,0 0.605,-1.314 0.606,-1.317 1.559,-3.383 3.421,-6.524 5.42,-9.662 l 1.212,-1.78 1.904,-2.502 1.697,-1.936 1.628,-1.684 1.387,-1.348 1.227,-1.075 1.061,-0.756 0.986,-0.455 1.893,-0.419 1.05,0.051 1.337,0.27 1.486,0.522 2.292,0.957 3.623,1.844 2.867,1.633 1.686,0.997 0.735,0.546 0.666,0.656 0.605,0.811 0.445,0.941 0.23,1.036 0.25,1.127 -0.131,1.116 -0.311,1.155 -0.712,1.908 -0.917,2.045 -1.598,3.239 -1.098,2.086 -1.392,2.247 -0.897,1.286 L 29.27,0.271 28.118,1.896 26.946,3.433 25.468,5.083 24.111,6.424 23.04,7.56 21.973,8.505 21.342,9.07 20.787,9.477 20.13,10.001 18.914,10.271 18.148,10.44 16.391,10.829 15.445,10.613 13.989,10.228 12.428,9.581 10.281,8.639 8.314,7.657 5.437,5.979 3.706,4.992 2.32,4.07 1.295,3.068 0.75,2.103 0.24,1.081 Z"
             style="fill:none;stroke:#000000;stroke-width:0.84100002;stroke-linecap:butt;stroke-linejoin:miter;stroke-miterlimit:10;stroke-dasharray:none;stroke-opacity:1"
             id="path426"
             inkscape:connector-curvature="0" /></g><g
           id="g428"
           transform="translate(205.376,49.2149)"><path
             d="m 0,0 c -2.081,-1.072 -4.162,-2.146 -6.243,-3.218 -1.024,-0.527 -2.047,-1.055 -3.07,-1.583 l -1.536,-0.791 c -0.097,-0.051 -1.148,-0.605 -0.911,-0.037 0.046,0.11 0.15,0.184 0.248,0.252 3.309,2.268 6.926,4.087 10.72,5.392 C -0.53,0.104 -0.209,0.183 0,0 Z"
             style="fill:none;stroke:#000000;stroke-width:0.368;stroke-linecap:butt;stroke-linejoin:miter;stroke-miterlimit:10;stroke-dasharray:none;stroke-opacity:1"
             id="path430"
             inkscape:connector-curvature="0" /></g><g
           id="g432"
           transform="translate(209.6406,46.1572)"><path
             d="m 0,0 c -0.204,-0.479 -0.836,-0.756 -1.272,-0.983 -4.204,-2.192 -8.407,-4.383 -12.61,-6.575 -0.514,-0.268 -1.095,-0.544 -1.651,-0.379 -0.528,0.156 -0.866,0.666 -1.099,1.165 -0.409,0.876 -0.635,1.878 -0.404,2.819 0.122,0.498 0.422,1.024 0.953,1.158"
             style="fill:none;stroke:#000000;stroke-width:0.368;stroke-linecap:butt;stroke-linejoin:miter;stroke-miterlimit:10;stroke-dasharray:none;stroke-opacity:1"
             id="path434"
             inkscape:connector-curvature="0" /></g><g
           id="g436"
           transform="translate(209.4727,46.5723)"><path
             d="m 0,0 c -0.322,-0.428 -0.865,-0.674 -1.331,-0.91 -4.152,-2.11 -8.304,-4.218 -12.457,-6.326 -0.293,-0.15 -0.598,-0.302 -0.926,-0.315 -0.429,-0.017 -0.842,0.214 -1.122,0.539 -0.28,0.325 -0.442,0.738 -0.55,1.153 -0.161,0.621 -0.261,1.658 0.346,2.088"
             style="fill:none;stroke:#000000;stroke-width:0.368;stroke-linecap:butt;stroke-linejoin:miter;stroke-miterlimit:10;stroke-dasharray:none;stroke-opacity:1"
             id="path438"
             inkscape:connector-curvature="0" /></g><g
           id="g440"
           transform="translate(209.1348,46.6475)"><path
             d="m 0,0 c -0.087,0.678 -0.854,1.279 -1.327,1.709 -0.297,0.269 -0.91,0.777 -2.379,1.098"
             style="fill:none;stroke:#000000;stroke-width:0.368;stroke-linecap:butt;stroke-linejoin:miter;stroke-miterlimit:10;stroke-dasharray:none;stroke-opacity:1"
             id="path442"
             inkscape:connector-curvature="0" /></g><g
           id="g444"
           transform="translate(207.4971,48.0029)"><path
             d="m 0,0 c -2.339,-1.119 -4.668,-2.257 -6.996,-3.398 -1.164,-0.572 -2.327,-1.143 -3.491,-1.714 -0.904,-0.444 -2.13,-1.368 -3.154,-1.415 -0.047,-0.003 -0.1,-10e-4 -0.138,0.027 -0.047,0.034 -0.06,0.096 -0.071,0.151 -0.042,0.219 -0.083,0.438 -0.126,0.656"
             style="fill:none;stroke:#000000;stroke-width:0.184;stroke-linecap:butt;stroke-linejoin:miter;stroke-miterlimit:10;stroke-dasharray:none;stroke-opacity:1"
             id="path446"
             inkscape:connector-curvature="0" /></g><g
           id="g448"
           transform="translate(206.5864,18.5225)"><path
             d="m 0,0 c 1.158,-0.684 2.597,-0.889 3.915,-0.653 1.007,0.179 1.949,0.613 2.878,1.042 2.307,1.064 4.621,2.133 6.791,3.462 2.041,1.25 3.771,2.502 3.935,5.086 0.095,1.495 -0.296,2.975 -0.709,4.417 -0.855,2.989 -2.66,5.538 -4.273,8.169 -1.676,2.735 -3.423,5.438 -5.442,7.933 -0.748,0.925 -1.534,1.82 -2.367,2.669 -0.865,0.881 -1.787,1.762 -2.939,2.202 -1.237,0.472 -2.628,0.386 -3.906,0.04 -1.278,-0.346 -2.473,-0.935 -3.684,-1.472 -2.628,-1.166 -5.405,-2.113 -7.673,-3.878 -2.172,-1.691 -3.981,-4.591 -3.431,-7.439"
             style="fill:none;stroke:#000000;stroke-width:0.368;stroke-linecap:butt;stroke-linejoin:miter;stroke-miterlimit:10;stroke-dasharray:none;stroke-opacity:1"
             id="path450"
             inkscape:connector-curvature="0" /></g><g
           id="g452"
           transform="translate(201.0498,33.7686)"><path
             d="m 0,0 c -0.137,-0.074 -0.23,-0.143 -0.301,-0.223 -0.131,-0.152 -0.174,-0.323 -0.128,-0.502 0.054,-0.226 0.259,-0.46 0.546,-0.629 l 9.79,-5.548 c 0.369,-0.208 0.633,-0.243 0.883,-0.105 0.25,0.134 0.341,0.359 0.304,0.75 L 10.159,4.098 C 10.125,4.402 9.987,4.674 9.791,4.823 9.632,4.943 9.446,4.986 9.235,4.954 9.122,4.935 9.012,4.894 8.872,4.818 Z"
             style="fill:#231f20;fill-opacity:1;fill-rule:nonzero;stroke:none"
             id="path454"
             inkscape:connector-curvature="0" /></g><g
           id="g456"
           transform="translate(210.938,26.0205)"><path
             d="m 0,0 c -0.112,0.043 -0.232,0.1 -0.361,0.172 l -9.791,5.549 c -0.482,0.284 -0.812,0.689 -0.917,1.118 -0.105,0.421 -0.002,0.845 0.293,1.189 0.135,0.156 0.294,0.278 0.519,0.4 l 8.872,4.818 c 0.217,0.116 0.407,0.187 0.603,0.219 0.282,0.043 0.544,0.018 0.784,-0.073 0.131,-0.05 0.254,-0.119 0.367,-0.204 0.37,-0.279 0.614,-0.738 0.671,-1.259 L 1.977,1.561 C 2.06,0.678 1.636,0.257 1.266,0.059 0.883,-0.151 0.455,-0.172 0,0 Z"
             style="fill:none;stroke:#231f20;stroke-width:0.34099999;stroke-linecap:round;stroke-linejoin:round;stroke-miterlimit:10;stroke-dasharray:none;stroke-opacity:1"
             id="path458"
             inkscape:connector-curvature="0" /></g><g
           id="g460"
           transform="translate(209.3481,33.9434)"><path
             d="M 0,0 1.403,-0.017 1.359,0.468 -0.307,0.454 1.282,1.316 1.217,2.062 -1.248,0.725 l 2.984,-4.424 -0.118,1.3 z"
             style="fill:#ffffff;fill-opacity:1;fill-rule:nonzero;stroke:none"
             id="path462"
             inkscape:connector-curvature="0" /></g><g
           id="g464"
           transform="translate(205.9023,32.0723)"><path
             d="m 0,0 -0.633,-1.122 -0.46,0.259 0.786,1.317 -1.589,-0.861 -0.704,0.399 2.464,1.336 2.985,-4.424 -1.23,0.697 z"
             style="fill:#ffffff;fill-opacity:1;fill-rule:nonzero;stroke:none"
             id="path466"
             inkscape:connector-curvature="0" /></g><g
           id="g468"
           transform="translate(103.396,6.5332)"><path
             d="M 0,0 H -71.833 V 75.686 H 0 V 59.269 L 78.823,105.28 0,39.624 Z"
             style="fill:#ffffff;fill-opacity:1;fill-rule:nonzero;stroke:none"
             id="path470"
             inkscape:connector-curvature="0" /></g><g
           id="g472"
           transform="translate(103.396,6.5332)"><path
             d="M 0,0 H -71.833 V 75.686 H 0 V 59.269 L 78.823,105.28 0,39.624 Z"
             style="fill:none;stroke:#000000;stroke-width:0.5;stroke-linecap:butt;stroke-linejoin:miter;stroke-miterlimit:4;stroke-dasharray:none;stroke-opacity:1"
             id="path474"
             inkscape:connector-curvature="0" /></g><g
           id="g476"
           transform="translate(38.6523,55.4414)"><path
             d="m 0,0 c -0.494,1.142 -0.007,1.972 0.317,2.733 0.323,0.763 1.342,2.636 1.97,3.72 0.627,1.083 1.759,1.896 3.021,2.485 1.263,0.589 4.947,2.119 6.692,2.785 1.743,0.666 2.696,0.261 4.587,0.079 1.891,-0.185 3.775,-1.039 4.744,-2.07 0.971,-1.03 10.282,-13.805 15.947,-25.766 0.505,-1.061 0.995,-2.164 1.045,-2.579 0.048,-0.415 0.172,-0.917 -0.672,-2.246 -0.844,-1.328 -1.669,-2.609 -3.315,-4.105 -1.645,-1.494 -11.454,-4.868 -12.569,-4.845 -1.115,0.023 -1.209,-0.362 -2.779,1.404 C 8.635,-16.761 1.257,-2.897 0,0 Z"
             style="fill:none;stroke:#000000;stroke-width:0.51599997;stroke-linecap:round;stroke-linejoin:round;stroke-miterlimit:10;stroke-dasharray:none;stroke-opacity:1"
             id="path478"
             inkscape:connector-curvature="0" /></g><g
           id="g480"
           transform="translate(41.418,54.4502)"><path
             d="m 0,0 c 0.744,-1.018 1.288,-2.133 1.936,-3.202 0.634,-1.074 1.274,-2.146 1.933,-3.206 1.31,-2.124 2.663,-4.223 4.064,-6.287 1.4,-2.066 2.848,-4.098 4.36,-6.08 0.739,-1.024 1.54,-1.918 2.285,-3.001 0.335,-0.558 0.629,-1.145 0.748,-1.822 0.046,-0.333 0.086,-0.725 -0.172,-1.106 -0.301,-0.393 -0.794,-0.369 -1.116,-0.315 -0.141,0.025 -0.235,0.158 -0.211,0.298 0.024,0.14 0.155,0.234 0.295,0.211 l 0.011,-0.002 c 0.269,-0.042 0.515,-0.017 0.604,0.123 0.104,0.145 0.116,0.431 0.066,0.702 -0.101,0.559 -0.375,1.113 -0.687,1.619 -0.677,0.972 -1.552,1.944 -2.28,2.945 -1.514,1.997 -2.961,4.042 -4.361,6.118 -1.4,2.076 -2.751,4.184 -4.059,6.318 -0.657,1.066 -1.296,2.142 -1.93,3.221 -0.61,1.09 -1.311,2.144 -1.715,3.347 -0.023,0.068 0.013,0.142 0.081,0.166 C -0.093,0.065 -0.033,0.045 0,0"
             style="fill:#000000;fill-opacity:1;fill-rule:nonzero;stroke:none"
             id="path482"
             inkscape:connector-curvature="0" /></g><g
           id="g484"
           transform="translate(42.7954,63.749)"><path
             d="m 0,0 c -0.725,-0.647 -1.342,-1.567 -2.116,-3.263 -0.775,-1.696 -1.22,-2.35 -0.837,-3.299 0.342,-0.848 0.744,-1.451 1.461,-2.796"
             style="fill:none;stroke:#000000;stroke-width:0.25799999;stroke-linecap:round;stroke-linejoin:round;stroke-miterlimit:10;stroke-dasharray:none;stroke-opacity:1"
             id="path486"
             inkscape:connector-curvature="0" /></g><g
           id="g488"
           transform="translate(45.1738,63.5274)"><path
             d="m 0,0 c 2.148,1.039 5.87,2.57 6.963,2.895 1.092,0.323 1.659,0.236 2.406,0.143 0.747,-0.093 1.088,0.006 2.152,-1.064 1.064,-1.071 6.109,-7.202 9.494,-12.742 3.386,-5.541 6.459,-14.996 6.577,-15.382 0.116,-0.388 -0.052,-0.653 -0.329,-1.042 -0.277,-0.388 -1.325,-2.194 -3.448,-3.091 -2.124,-0.9 -4.571,-1.099 -5.039,-1.013 -0.47,0.087 -0.64,0.216 -1.084,0.629 -0.442,0.412 -5.667,4.933 -11.283,12.769 -5.617,7.835 -8.086,13.599 -8.511,14.798 -0.109,0.31 0.089,0.757 0.511,1.47 C -1.14,-0.868 -0.989,-0.48 0,0 Z"
             style="fill:none;stroke:#000000;stroke-width:0.25799999;stroke-linecap:round;stroke-linejoin:round;stroke-miterlimit:10;stroke-dasharray:none;stroke-opacity:1"
             id="path490"
             inkscape:connector-curvature="0" /></g><g
           id="g492"
           transform="translate(45.6631,63.0195)"><path
             d="m 0,0 c 2.067,1.001 5.65,2.476 6.704,2.786 1.052,0.312 1.633,0.246 2.354,0.157 0.72,-0.088 1.045,-0.15 1.429,-0.558 0.995,-1.058 6.487,-7.418 9.746,-12.752 3.261,-5.334 6.317,-14.667 6.431,-15.04 0.111,-0.373 -0.051,-0.628 -0.318,-1.003 -0.266,-0.373 -1.247,-2.125 -3.292,-2.988 -2.044,-0.867 -4.646,-0.922 -4.858,-0.884 -0.213,0.04 -0.289,0.097 -0.489,0.285 -0.201,0.186 -6.129,5.22 -11.535,12.764 -5.41,7.544 -7.934,13.625 -8.312,14.789 -0.053,0.164 0.053,0.345 0.473,0.986 C -1.197,-0.746 -0.954,-0.462 0,0 Z"
             style="fill:none;stroke:#000000;stroke-width:0.25799999;stroke-linecap:round;stroke-linejoin:round;stroke-miterlimit:10;stroke-dasharray:none;stroke-opacity:1"
             id="path494"
             inkscape:connector-curvature="0" /></g><g
           id="g496"
           transform="translate(40.4336,60.834)"><path
             d="m 0,0 c -0.665,-1.256 -0.744,-1.578 -0.886,-2.044 -0.141,-0.463 -0.215,-0.638 0.358,-1.762"
             style="fill:none;stroke:#000000;stroke-width:0.25799999;stroke-linecap:round;stroke-linejoin:round;stroke-miterlimit:10;stroke-dasharray:none;stroke-opacity:1"
             id="path498"
             inkscape:connector-curvature="0" /></g><g
           id="g500"
           transform="translate(44.7739,63.3779)"><path
             d="m 0,0 c -1.237,-0.525 -1.463,-1.328 -2.231,-3.139 -0.768,-1.811 -0.946,-1.885 -0.434,-2.965 2.032,-4.272 9.154,-15.051 17.73,-26.334 0.395,-0.519 0.688,-0.593 1.186,-0.655 0.498,-0.059 5.107,-0.066 8.657,1.765 3.55,1.831 5.763,4.753 6.149,5.263 0.385,0.512 0.363,1.253 -0.104,2.406"
             style="fill:none;stroke:#000000;stroke-width:0.25799999;stroke-linecap:round;stroke-linejoin:round;stroke-miterlimit:10;stroke-dasharray:none;stroke-opacity:1"
             id="path502"
             inkscape:connector-curvature="0" /></g><g
           id="g504"
           transform="translate(52.3999,66.5059)"><path
             d="m 0,0 c 1.108,0.283 2.215,0.326 3.48,0.128 1.266,-0.2 3.135,-0.43 4.103,-1.46"
             style="fill:none;stroke:#000000;stroke-width:0.25799999;stroke-linecap:round;stroke-linejoin:round;stroke-miterlimit:10;stroke-dasharray:none;stroke-opacity:1"
             id="path506"
             inkscape:connector-curvature="0" /></g><g
           id="g508"
           transform="translate(41.7769,53.2481)"><path
             d="m 0,0 -0.806,-1.434 -0.379,0.038"
             style="fill:none;stroke:#000000;stroke-width:0.51599997;stroke-linecap:round;stroke-linejoin:round;stroke-miterlimit:10;stroke-dasharray:none;stroke-opacity:1"
             id="path510"
             inkscape:connector-curvature="0" /></g><g
           id="g512"
           transform="translate(40.5918,52.086)"><path
             d="M 0,0 0.957,1.728"
             style="fill:none;stroke:#000000;stroke-width:0.25799999;stroke-linecap:round;stroke-linejoin:round;stroke-miterlimit:10;stroke-dasharray:none;stroke-opacity:1"
             id="path514"
             inkscape:connector-curvature="0" /></g><g
           id="g516"
           transform="translate(58.8022,58.001)"><path
             d="m 0,0 c -0.062,-0.148 -0.262,-0.203 -0.447,-0.125 -0.184,0.079 -0.284,0.261 -0.221,0.408 0.061,0.147 0.262,0.202 0.446,0.124 C -0.038,0.329 0.062,0.146 0,0"
             style="fill:#000000;fill-opacity:1;fill-rule:nonzero;stroke:none"
             id="path518"
             inkscape:connector-curvature="0" /></g><g
           id="g520"
           transform="translate(57.5049,58.5508)"><path
             d="m 0,0 c 0.154,0.363 0.603,0.529 1.063,0.426 0.04,-0.01 0.082,0.002 0.114,0.028 0.03,0.027 0.048,0.067 0.043,0.108 L 1.207,0.722 C 1.202,0.777 1.16,0.823 1.106,0.835 0.465,0.977 -0.157,0.768 -0.421,0.297 -0.43,0.283 -0.443,0.253 -0.454,0.221 -0.476,0.168 -0.455,0.106 -0.407,0.077 l 0.237,-0.146 c 0.028,-0.018 0.064,-0.022 0.095,-0.012 0.032,0.012 0.057,0.035 0.07,0.066 C -0.004,-0.01 -0.002,-0.005 0,0"
             style="fill:#000000;fill-opacity:1;fill-rule:nonzero;stroke:none"
             id="path522"
             inkscape:connector-curvature="0" /></g><g
           id="g524"
           transform="translate(56.0845,59.4346)"><path
             d="M 0,0 C -0.044,-0.073 -0.021,-0.168 0.051,-0.213 L 0.27,-0.348 c 0.034,-0.02 0.077,-0.027 0.118,-0.017 0.04,0.01 0.073,0.036 0.095,0.071 0.349,0.595 1.116,0.879 1.93,0.755 C 2.452,0.455 2.492,0.468 2.521,0.494 2.55,0.521 2.564,0.56 2.561,0.599 L 2.542,0.81 C 2.538,0.868 2.493,0.915 2.436,0.926 1.415,1.085 0.451,0.735 0,0"
             style="fill:#000000;fill-opacity:1;fill-rule:nonzero;stroke:none"
             id="path526"
             inkscape:connector-curvature="0" /></g><g
           id="g528"
           transform="translate(59.064,43.8535)"><path
             d="M 0,0 C -0.083,-0.042 -0.143,-0.081 -0.187,-0.129 -0.271,-0.218 -0.3,-0.32 -0.278,-0.43 -0.25,-0.568 -0.13,-0.715 0.04,-0.824 l 5.807,-3.598 c 0.218,-0.134 0.378,-0.161 0.533,-0.084 0.154,0.075 0.215,0.21 0.202,0.448 L 6.259,2.245 C 6.246,2.432 6.169,2.599 6.053,2.694 5.959,2.771 5.849,2.801 5.721,2.787 5.65,2.778 5.583,2.755 5.495,2.713 Z"
             style="fill:#231f20;fill-opacity:1;fill-rule:nonzero;stroke:none"
             id="path530"
             inkscape:connector-curvature="0" /></g><g
           id="g532"
           transform="translate(64.8804,38.9199)"><path
             d="M 0,0 C -0.067,0.028 -0.14,0.066 -0.216,0.113 L -6.024,3.71 c -0.285,0.183 -0.476,0.437 -0.53,0.699 -0.054,0.258 0.018,0.513 0.206,0.716 0.085,0.09 0.185,0.161 0.324,0.229 l 5.495,2.713 c 0.135,0.066 0.251,0.104 0.373,0.12 C 0.015,8.205 0.172,8.185 0.317,8.123 0.395,8.09 0.469,8.045 0.535,7.991 0.752,7.812 0.89,7.528 0.911,7.211 L 1.234,0.899 C 1.264,0.362 0.997,0.117 0.768,0.006 0.532,-0.113 0.271,-0.115 0,0 Z"
             style="fill:none;stroke:#231f20;stroke-width:0.25799999;stroke-linecap:round;stroke-linejoin:round;stroke-miterlimit:10;stroke-dasharray:none;stroke-opacity:1"
             id="path534"
             inkscape:connector-curvature="0" /></g><g
           id="g536"
           transform="translate(64.103,43.7637)"><path
             d="M 0,0 0.85,-0.043 0.834,0.252 -0.176,0.283 0.808,0.768 0.786,1.222 -0.74,0.468 0.964,-2.285 0.924,-1.494 Z"
             style="fill:#ffffff;fill-opacity:1;fill-rule:nonzero;stroke:none"
             id="path538"
             inkscape:connector-curvature="0" /></g><g
           id="g540"
           transform="translate(61.9683,42.71)"><path
             d="m 0,0 -0.411,-0.665 -0.274,0.167 0.509,0.781 -0.984,-0.485 -0.418,0.259 1.526,0.751 1.706,-2.753 -0.729,0.451 z"
             style="fill:#ffffff;fill-opacity:1;fill-rule:nonzero;stroke:none"
             id="path542"
             inkscape:connector-curvature="0" /></g></g></g><g
       id="g544"
       transform="translate(187.5786,116.8037)"><path
         d="M 0,0 V 43.527"
         style="fill:none;stroke:#ffffff;stroke-width:3;stroke-linecap:round;stroke-linejoin:round;stroke-miterlimit:4;stroke-dasharray:none;stroke-opacity:1"
         id="path546"
         inkscape:connector-curvature="0" /></g><g
       id="g548"><g
         id="g550"
         clip-path="url(#clipPath554)"><g
           id="g556"
           transform="translate(187.5791,115.3809)"><path
             d="M 0,0 C 0.785,0 1.423,0.635 1.423,1.42 1.423,2.207 0.785,2.846 0,2.846 -0.785,2.846 -1.424,2.207 -1.424,1.42 -1.424,0.635 -0.785,0 0,0"
             style="fill:#231f20;fill-opacity:1;fill-rule:nonzero;stroke:none"
             id="path558"
             inkscape:connector-curvature="0" /></g><g
           id="g560"
           transform="translate(187.5791,115.3809)"><path
             d="M 0,0 C 0.785,0 1.423,0.635 1.423,1.42 1.423,2.207 0.785,2.846 0,2.846 -0.785,2.846 -1.424,2.207 -1.424,1.42 -1.424,0.635 -0.785,0 0,0 Z"
             style="fill:none;stroke:#ffffff;stroke-width:1;stroke-linecap:butt;stroke-linejoin:miter;stroke-miterlimit:4;stroke-dasharray:none;stroke-opacity:1"
             id="path562"
             inkscape:connector-curvature="0" /></g><g
           id="g564"
           transform="translate(187.5786,116.8037)"><path
             d="M 0,0 V 43.527"
             style="fill:none;stroke:#231f20;stroke-width:0.75;stroke-linecap:round;stroke-linejoin:round;stroke-miterlimit:4;stroke-dasharray:none;stroke-opacity:1"
             id="path566"
             inkscape:connector-curvature="0" /></g></g></g><text
       transform="matrix(1,0,0,-1,184.7988,163.6885)"
       style="font-variant:normal;font-weight:bold;font-stretch:normal;font-size:10px;font-family:Helvetica;-inkscape-font-specification:Helvetica-Bold;writing-mode:lr-tb;fill:#231f20;fill-opacity:1;fill-rule:nonzero;stroke:none"
       id="text572"><tspan
         x="0"
         y="0"
         id="tspan568">5</tspan><tspan
         x="-133.55"
         y="34.060001"
         id="tspan570">7</tspan></text>
<g
       id="g574"><g
         id="g576"
         clip-path="url(#clipPath580)"><g
           id="g582"
           transform="translate(89.124,132.7041)"><path
             d="M 0,0 H -29.931"
             style="fill:none;stroke:#ffffff;stroke-width:3.1500001;stroke-linecap:round;stroke-linejoin:round;stroke-miterlimit:4;stroke-dasharray:none;stroke-opacity:1"
             id="path584"
             inkscape:connector-curvature="0" /></g><g
           id="g586"
           transform="translate(89.5308,131.3067)"><path
             d="M 0,0 C -0.779,-0.14 -1.527,0.378 -1.675,1.17 -1.817,1.958 -1.309,2.716 -0.529,2.856 0.244,3 0.996,2.477 1.146,1.688 1.285,0.897 0.776,0.142 0,0"
             style="fill:#231f20;fill-opacity:1;fill-rule:nonzero;stroke:none"
             id="path588"
             inkscape:connector-curvature="0" /></g><g
           id="g590"
           transform="translate(89.5308,131.3067)"><path
             d="M 0,0 C -0.779,-0.14 -1.527,0.378 -1.675,1.17 -1.817,1.958 -1.309,2.716 -0.529,2.856 0.244,3 0.996,2.477 1.146,1.688 1.285,0.897 0.776,0.142 0,0 Z"
             style="fill:none;stroke:#ffffff;stroke-width:1.04999995;stroke-linecap:butt;stroke-linejoin:miter;stroke-miterlimit:4;stroke-dasharray:none;stroke-opacity:1"
             id="path592"
             inkscape:connector-curvature="0" /></g><g
           id="g594"
           transform="translate(89.124,132.7041)"><path
             d="M 0,0 H -29.931"
             style="fill:none;stroke:#231f20;stroke-width:0.75;stroke-linecap:round;stroke-linejoin:round;stroke-miterlimit:4;stroke-dasharray:none;stroke-opacity:1"
             id="path596"
             inkscape:connector-curvature="0" /></g><g
           id="g598"
           transform="translate(237.3813,115.6719)"><path
             d="M 0,0 V 43.527"
             style="fill:none;stroke:#ffffff;stroke-width:3;stroke-linecap:round;stroke-linejoin:round;stroke-miterlimit:4;stroke-dasharray:none;stroke-opacity:1"
             id="path600"
             inkscape:connector-curvature="0" /></g><g
           id="g602"
           transform="translate(237.3818,114.249)"><path
             d="M 0,0 C 0.785,0 1.423,0.635 1.423,1.42 1.423,2.207 0.785,2.846 0,2.846 -0.785,2.846 -1.424,2.207 -1.424,1.42 -1.424,0.635 -0.785,0 0,0"
             style="fill:#231f20;fill-opacity:1;fill-rule:nonzero;stroke:none"
             id="path604"
             inkscape:connector-curvature="0" /></g><g
           id="g606"
           transform="translate(237.3818,114.249)"><path
             d="M 0,0 C 0.785,0 1.423,0.635 1.423,1.42 1.423,2.207 0.785,2.846 0,2.846 -0.785,2.846 -1.424,2.207 -1.424,1.42 -1.424,0.635 -0.785,0 0,0 Z"
             style="fill:none;stroke:#ffffff;stroke-width:1;stroke-linecap:butt;stroke-linejoin:miter;stroke-miterlimit:4;stroke-dasharray:none;stroke-opacity:1"
             id="path608"
             inkscape:connector-curvature="0" /></g><g
           id="g610"
           transform="translate(237.3813,115.6719)"><path
             d="M 0,0 V 43.527"
             style="fill:none;stroke:#231f20;stroke-width:0.75;stroke-linecap:round;stroke-linejoin:round;stroke-miterlimit:4;stroke-dasharray:none;stroke-opacity:1"
             id="path612"
             inkscape:connector-curvature="0" /></g></g></g><text
       transform="matrix(1,0,0,-1,234.6016,162.5566)"
       style="font-variant:normal;font-weight:bold;font-stretch:normal;font-size:10px;font-family:Helvetica;-inkscape-font-specification:Helvetica-Bold;writing-mode:lr-tb;fill:#231f20;fill-opacity:1;fill-rule:nonzero;stroke:none"
       id="text618"><tspan
         x="0"
         y="0"
         id="tspan614">6</tspan><tspan
         x="15.37"
         y="139.25"
         id="tspan616">4</tspan></text>
<g
       id="g620"><g
         id="g622"
         clip-path="url(#clipPath626)"><g
           id="g628"
           transform="translate(217.6523,26.3848)"><path
             d="M 0,0 H 29.931"
             style="fill:none;stroke:#ffffff;stroke-width:3.1500001;stroke-linecap:round;stroke-linejoin:round;stroke-miterlimit:4;stroke-dasharray:none;stroke-opacity:1"
             id="path630"
             inkscape:connector-curvature="0" /></g><g
           id="g632"
           transform="translate(217.2456,24.9873)"><path
             d="M 0,0 C 0.779,-0.14 1.527,0.378 1.675,1.17 1.817,1.959 1.309,2.716 0.529,2.856 -0.244,3 -0.996,2.477 -1.146,1.688 -1.285,0.897 -0.776,0.142 0,0"
             style="fill:#231f20;fill-opacity:1;fill-rule:nonzero;stroke:none"
             id="path634"
             inkscape:connector-curvature="0" /></g><g
           id="g636"
           transform="translate(217.2456,24.9873)"><path
             d="M 0,0 C 0.779,-0.14 1.527,0.378 1.675,1.17 1.817,1.959 1.309,2.716 0.529,2.856 -0.244,3 -0.996,2.477 -1.146,1.688 -1.285,0.897 -0.776,0.142 0,0 Z"
             style="fill:none;stroke:#ffffff;stroke-width:1.04999995;stroke-linecap:butt;stroke-linejoin:miter;stroke-miterlimit:4;stroke-dasharray:none;stroke-opacity:1"
             id="path638"
             inkscape:connector-curvature="0" /></g><g
           id="g640"
           transform="translate(217.6523,26.3848)"><path
             d="M 0,0 H 29.931"
             style="fill:none;stroke:#231f20;stroke-width:0.75;stroke-linecap:round;stroke-linejoin:round;stroke-miterlimit:4;stroke-dasharray:none;stroke-opacity:1"
             id="path642"
             inkscape:connector-curvature="0" /></g></g></g><text
       transform="matrix(1,0,0,-1,226.2109,44.7061)"
       style="font-variant:normal;font-weight:bold;font-stretch:normal;font-size:8px;font-family:Helvetica;-inkscape-font-specification:Helvetica-Bold;writing-mode:lr-tb;fill:#000000;fill-opacity:1;fill-rule:nonzero;stroke:none"
       id="text648"><tspan
         x="0 4.6719999 9.1199999 13.568 15.792 22.903999"
         y="0"
         sodipodi:role="line"
         id="tspan644">+10 mm</tspan><tspan
         x="0 2.224 4.888 9.3360004 13.784 16.007999 23.120001"
         y="9.6000004"
         sodipodi:role="line"
         id="tspan646"> -10 mm</tspan></text>
<g
       id="g650"><g
         id="g652"
         clip-path="url(#clipPath656)"><g
           id="g658"
           transform="translate(354.6855,80.8164)"><path
             d="M 0,0 89.656,-0.149"
             style="fill:none;stroke:#ffffff;stroke-width:3;stroke-linecap:round;stroke-linejoin:round;stroke-miterlimit:4;stroke-dasharray:none;stroke-opacity:1"
             id="path660"
             inkscape:connector-curvature="0" /></g><g
           id="g662"
           transform="translate(355.6865,73.583)"><path
             d="M 0,0 C 0.68,0 1.232,0.551 1.232,1.232 1.232,1.913 0.68,2.467 0,2.467 -0.682,2.467 -1.234,1.913 -1.234,1.232 -1.234,0.551 -0.682,0 0,0"
             style="fill:#1d1d1b;fill-opacity:1;fill-rule:nonzero;stroke:none"
             id="path664"
             inkscape:connector-curvature="0" /></g><g
           id="g666"
           transform="translate(355.6865,73.583)"><path
             d="M 0,0 C 0.68,0 1.232,0.551 1.232,1.232 1.232,1.913 0.68,2.467 0,2.467 -0.682,2.467 -1.234,1.913 -1.234,1.232 -1.234,0.551 -0.682,0 0,0 Z"
             style="fill:none;stroke:#ffffff;stroke-width:1;stroke-linecap:butt;stroke-linejoin:miter;stroke-miterlimit:4;stroke-dasharray:none;stroke-opacity:1"
             id="path668"
             inkscape:connector-curvature="0" /></g><g
           id="g670"
           transform="translate(354.6855,80.8164)"><path
             d="M 0,0 89.656,-0.149"
             style="fill:none;stroke:#1d1d1b;stroke-width:0.5;stroke-linecap:round;stroke-linejoin:round;stroke-miterlimit:4;stroke-dasharray:none;stroke-opacity:1"
             id="path672"
             inkscape:connector-curvature="0" /></g><g
           id="g674"
           transform="translate(413.5508,112.1924)"><path
             d="M 0,0 33.791,-0.149"
             style="fill:none;stroke:#ffffff;stroke-width:3;stroke-linecap:round;stroke-linejoin:round;stroke-miterlimit:4;stroke-dasharray:none;stroke-opacity:1"
             id="path676"
             inkscape:connector-curvature="0" /></g><g
           id="g678"
           transform="translate(413.5527,110.959)"><path
             d="M 0,0 C 0.68,0 1.231,0.551 1.231,1.232 1.231,1.914 0.68,2.467 0,2.467 -0.683,2.467 -1.235,1.914 -1.235,1.232 -1.235,0.551 -0.683,0 0,0"
             style="fill:#1d1d1b;fill-opacity:1;fill-rule:nonzero;stroke:none"
             id="path680"
             inkscape:connector-curvature="0" /></g><g
           id="g682"
           transform="translate(413.5527,110.959)"><path
             d="M 0,0 C 0.68,0 1.231,0.551 1.231,1.232 1.231,1.914 0.68,2.467 0,2.467 -0.683,2.467 -1.235,1.914 -1.235,1.232 -1.235,0.551 -0.683,0 0,0 Z"
             style="fill:none;stroke:#ffffff;stroke-width:1;stroke-linecap:butt;stroke-linejoin:miter;stroke-miterlimit:4;stroke-dasharray:none;stroke-opacity:1"
             id="path684"
             inkscape:connector-curvature="0" /></g><g
           id="g686"
           transform="translate(413.5508,112.1924)"><path
             d="M 0,0 33.791,-0.149"
             style="fill:none;stroke:#1d1d1b;stroke-width:0.5;stroke-linecap:round;stroke-linejoin:round;stroke-miterlimit:4;stroke-dasharray:none;stroke-opacity:1"
             id="path688"
             inkscape:connector-curvature="0" /></g></g></g><text
       transform="matrix(1,0,0,-1,448.7642,77.9585)"
       style="font-variant:normal;font-weight:bold;font-stretch:normal;font-size:10px;font-family:Helvetica;-inkscape-font-specification:Helvetica-Bold;writing-mode:lr-tb;fill:#231f20;fill-opacity:1;fill-rule:nonzero;stroke:none"
       id="text694"><tspan
         x="0"
         y="0"
         id="tspan690">2</tspan><tspan
         x="1.4"
         y="-31.219999"
         id="tspan692">4</tspan></text>
<g
       id="g696"><g
         id="g698"
         clip-path="url(#clipPath702)"><g
           id="g704"
           transform="translate(332.5459,122.0298)"><path
             d="M 0,0 V 43.527"
             style="fill:none;stroke:#ffffff;stroke-width:3;stroke-linecap:round;stroke-linejoin:round;stroke-miterlimit:4;stroke-dasharray:none;stroke-opacity:1"
             id="path706"
             inkscape:connector-curvature="0" /></g><g
           id="g708"
           transform="translate(332.5459,120.6069)"><path
             d="M 0,0 C 0.785,0 1.423,0.635 1.423,1.42 1.423,2.207 0.785,2.846 0,2.846 -0.785,2.846 -1.424,2.207 -1.424,1.42 -1.424,0.635 -0.785,0 0,0"
             style="fill:#231f20;fill-opacity:1;fill-rule:nonzero;stroke:none"
             id="path710"
             inkscape:connector-curvature="0" /></g><g
           id="g712"
           transform="translate(332.5459,120.6069)"><path
             d="M 0,0 C 0.785,0 1.423,0.635 1.423,1.42 1.423,2.207 0.785,2.846 0,2.846 -0.785,2.846 -1.424,2.207 -1.424,1.42 -1.424,0.635 -0.785,0 0,0 Z"
             style="fill:none;stroke:#ffffff;stroke-width:1;stroke-linecap:butt;stroke-linejoin:miter;stroke-miterlimit:4;stroke-dasharray:none;stroke-opacity:1"
             id="path714"
             inkscape:connector-curvature="0" /></g><g
           id="g716"
           transform="translate(332.5459,122.0298)"><path
             d="M 0,0 V 43.527"
             style="fill:none;stroke:#231f20;stroke-width:0.75;stroke-linecap:round;stroke-linejoin:round;stroke-miterlimit:4;stroke-dasharray:none;stroke-opacity:1"
             id="path718"
             inkscape:connector-curvature="0" /></g></g></g><text
       transform="matrix(1,0,0,-1,329.7656,168.9141)"
       style="font-variant:normal;font-weight:bold;font-stretch:normal;font-size:10px;font-family:Helvetica;-inkscape-font-specification:Helvetica-Bold;writing-mode:lr-tb;fill:#231f20;fill-opacity:1;fill-rule:nonzero;stroke:none"
       id="text722"><tspan
         x="0"
         y="0"
         id="tspan720">3</tspan></text>
<g
       id="g724"><g
         id="g726"
         clip-path="url(#clipPath730)"><g
           id="g732"
           transform="translate(342.5049,59.9717)"><path
             d="M 0,0 V -43.527"
             style="fill:none;stroke:#ffffff;stroke-width:3;stroke-linecap:round;stroke-linejoin:round;stroke-miterlimit:4;stroke-dasharray:none;stroke-opacity:1"
             id="path734"
             inkscape:connector-curvature="0" /></g><g
           id="g736"
           transform="translate(342.5049,61.3945)"><path
             d="m 0,0 c 0.785,0 1.423,-0.635 1.423,-1.42 0,-0.787 -0.638,-1.426 -1.423,-1.426 -0.785,0 -1.424,0.639 -1.424,1.426 C -1.424,-0.635 -0.785,0 0,0"
             style="fill:#231f20;fill-opacity:1;fill-rule:nonzero;stroke:none"
             id="path738"
             inkscape:connector-curvature="0" /></g><g
           id="g740"
           transform="translate(342.5049,61.3945)"><path
             d="m 0,0 c 0.785,0 1.423,-0.635 1.423,-1.42 0,-0.787 -0.638,-1.426 -1.423,-1.426 -0.785,0 -1.424,0.639 -1.424,1.426 C -1.424,-0.635 -0.785,0 0,0 Z"
             style="fill:none;stroke:#ffffff;stroke-width:1;stroke-linecap:butt;stroke-linejoin:miter;stroke-miterlimit:4;stroke-dasharray:none;stroke-opacity:1"
             id="path742"
             inkscape:connector-curvature="0" /></g><g
           id="g744"
           transform="translate(342.5049,59.9717)"><path
             d="M 0,0 V -43.527"
             style="fill:none;stroke:#231f20;stroke-width:0.75;stroke-linecap:round;stroke-linejoin:round;stroke-miterlimit:4;stroke-dasharray:none;stroke-opacity:1"
             id="path746"
             inkscape:connector-curvature="0" /></g></g></g><text
       transform="matrix(1,0,0,-1,339.7896,5.2642)"
       style="font-variant:normal;font-weight:bold;font-stretch:normal;font-size:10px;font-family:Helvetica;-inkscape-font-specification:Helvetica-Bold;writing-mode:lr-tb;fill:#000000;fill-opacity:1;fill-rule:nonzero;stroke:none"
       id="text750"><tspan
         x="0"
         y="0"
         id="tspan748">1</tspan></text>
<text
       transform="matrix(0.74515,0,0,-1,92.5679,25.5869)"
       style="font-variant:normal;font-weight:bold;font-stretch:normal;font-size:10px;font-family:Helvetica;-inkscape-font-specification:Helvetica-Bold;writing-mode:lr-tb;fill:#231f20;fill-opacity:1;fill-rule:nonzero;stroke:none"
       id="text754"><tspan
         x="0"
         y="0"
         id="tspan752">1</tspan></text>
<g
       id="g756"><g
         id="g758"
         clip-path="url(#clipPath762)"><g
           id="g764"
           transform="translate(60.249,28.666)"><path
             d="M 0,0 H 29.931"
             style="fill:none;stroke:#ffffff;stroke-width:3.1500001;stroke-linecap:round;stroke-linejoin:round;stroke-miterlimit:4;stroke-dasharray:none;stroke-opacity:1"
             id="path766"
             inkscape:connector-curvature="0" /></g><g
           id="g768"
           transform="translate(59.8423,27.2686)"><path
             d="M 0,0 C 0.779,-0.14 1.527,0.378 1.675,1.17 1.817,1.959 1.309,2.716 0.529,2.856 -0.244,3 -0.996,2.477 -1.146,1.688 -1.285,0.897 -0.776,0.142 0,0"
             style="fill:#231f20;fill-opacity:1;fill-rule:nonzero;stroke:none"
             id="path770"
             inkscape:connector-curvature="0" /></g><g
           id="g772"
           transform="translate(59.8423,27.2686)"><path
             d="M 0,0 C 0.779,-0.14 1.527,0.378 1.675,1.17 1.817,1.959 1.309,2.716 0.529,2.856 -0.244,3 -0.996,2.477 -1.146,1.688 -1.285,0.897 -0.776,0.142 0,0 Z"
             style="fill:none;stroke:#ffffff;stroke-width:1.04999995;stroke-linecap:butt;stroke-linejoin:miter;stroke-miterlimit:4;stroke-dasharray:none;stroke-opacity:1"
             id="path774"
             inkscape:connector-curvature="0" /></g><g
           id="g776"
           transform="translate(60.249,28.666)"><path
             d="M 0,0 H 29.931"
             style="fill:none;stroke:#231f20;stroke-width:0.75;stroke-linecap:round;stroke-linejoin:round;stroke-miterlimit:4;stroke-dasharray:none;stroke-opacity:1"
             id="path778"
             inkscape:connector-curvature="0" /></g></g></g></g></svg>