<?xml version="1.0" encoding="UTF-8" standalone="no"?>
<!-- Created with Inkscape (http://www.inkscape.org/) -->

<svg
   xmlns:dc="http://purl.org/dc/elements/1.1/"
   xmlns:cc="http://creativecommons.org/ns#"
   xmlns:rdf="http://www.w3.org/1999/02/22-rdf-syntax-ns#"
   xmlns:svg="http://www.w3.org/2000/svg"
   xmlns="http://www.w3.org/2000/svg"
   xmlns:sodipodi="http://sodipodi.sourceforge.net/DTD/sodipodi-0.dtd"
   xmlns:inkscape="http://www.inkscape.org/namespaces/inkscape"
   id="svg2"
   version="1.1"
   inkscape:version="0.91 r13725"
   xml:space="preserve"
   width="301.18124"
   height="230.31375"
   viewBox="0 0 301.18124 230.31375"
   sodipodi:docname="cezh.svg"><metadata
     id="metadata8"><rdf:RDF><cc:Work
         rdf:about=""><dc:format>image/svg+xml</dc:format><dc:type
           rdf:resource="http://purl.org/dc/dcmitype/StillImage" /><dc:title></dc:title></cc:Work></rdf:RDF></metadata><defs
     id="defs6"><clipPath
       clipPathUnits="userSpaceOnUse"
       id="clipPath16"><path
         d="m 0.889,4.072 240.056,0 0,170.078 -240.056,0 0,-170.078 z"
         id="path18"
         inkscape:connector-curvature="0" /></clipPath><clipPath
       clipPathUnits="userSpaceOnUse"
       id="clipPath348"><path
         d="m 0,184.251 240.945,0 L 240.945,0 0,0 0,184.251 Z"
         id="path350"
         inkscape:connector-curvature="0" /></clipPath><clipPath
       clipPathUnits="userSpaceOnUse"
       id="clipPath394"><path
         d="m 0,184.251 240.945,0 L 240.945,0 0,0 0,184.251 Z"
         id="path396"
         inkscape:connector-curvature="0" /></clipPath></defs><sodipodi:namedview
     pagecolor="#ffffff"
     bordercolor="#666666"
     borderopacity="1"
     objecttolerance="10"
     gridtolerance="10"
     guidetolerance="10"
     inkscape:pageopacity="0"
     inkscape:pageshadow="2"
     inkscape:window-width="684"
     inkscape:window-height="480"
     id="namedview4"
     showgrid="false"
     inkscape:zoom="0.9595551"
     inkscape:cx="150.59062"
     inkscape:cy="115.15688"
     inkscape:window-x="0"
     inkscape:window-y="0"
     inkscape:window-maximized="0"
     inkscape:current-layer="g10" /><g
     id="g10"
     inkscape:groupmode="layer"
     inkscape:label="cezh"
     transform="matrix(1.25,0,0,-1.25,0,230.31375)"><g
       id="g12"><g
         id="g14"
         clip-path="url(#clipPath16)"><g
           id="g20"
           transform="translate(-8.3638,61.168)"><path
             d="m 0,0 c 8.459,2.277 32.534,9.435 40.667,10.736 8.134,1.302 16.267,5.206 19.846,7.484 3.579,2.277 19.195,13.012 24.401,15.615 5.206,2.603 15.311,5.429 21.8,7.008 6.49,1.578 15.084,3.157 15.084,3.157"
             style="fill:none;stroke:#231f20;stroke-width:1.5;stroke-linecap:round;stroke-linejoin:round;stroke-miterlimit:4;stroke-dasharray:none;stroke-opacity:1"
             id="path22"
             inkscape:connector-curvature="0" /></g><g
           id="g24"
           transform="translate(28.5391,133.3701)"><path
             d="M 0,0 C -0.011,-0.024 0.268,-0.215 0.624,-0.428 0.979,-0.64 1.278,-0.791 1.29,-0.765 2.748,2.316 3.607,5.525 4.119,8.785 L 4.04,8.806 3.959,8.815 C 3.013,5.652 1.744,2.688 0,0"
             style="fill:#231f20;fill-opacity:1;fill-rule:nonzero;stroke:none"
             id="path26"
             inkscape:connector-curvature="0" /></g><g
           id="g28"
           transform="translate(-6.5337,116.3931)"><path
             d="m 0,0 c 9.471,2.806 22.976,7.015 27.887,9.12 2.859,1.225 5.657,3.817 7.809,7.429"
             style="fill:none;stroke:#231f20;stroke-width:1.5;stroke-linecap:round;stroke-linejoin:round;stroke-miterlimit:4;stroke-dasharray:none;stroke-opacity:1"
             id="path30"
             inkscape:connector-curvature="0" /></g><g
           id="g32"
           transform="translate(72.5981,131.0215)"><path
             d="M 0,0 C -0.044,-0.009 -0.028,-0.348 0.036,-0.757 0.1,-1.167 0.189,-1.491 0.236,-1.481 5.718,-0.347 10.852,1.86 15.61,4.588 L 15.58,4.665 15.534,4.732 C 10.58,2.402 5.349,0.659 0,0"
             style="fill:#231f20;fill-opacity:1;fill-rule:nonzero;stroke:none"
             id="path34"
             inkscape:connector-curvature="0" /></g><g
           id="g36"
           transform="translate(27.8433,130.5996)"><path
             d="m 0,0 c 4.209,-1.403 10.523,1.579 14.558,2.456 4.034,0.877 7.542,-0.702 10.348,-0.702 2.002,0 8.736,-3.839 19.885,-2.089"
             style="fill:none;stroke:#231f20;stroke-width:1.5;stroke-linecap:round;stroke-linejoin:round;stroke-miterlimit:4;stroke-dasharray:none;stroke-opacity:1"
             id="path38"
             inkscape:connector-curvature="0" /></g><g
           id="g40"
           transform="translate(69.7622,129.5474)"><path
             d="m 0,0 c 6.139,-3.858 12.452,-9.646 22.274,-10.523 9.823,-0.877 19.117,-5.087 27.888,4.384 8.77,9.472 2.63,21.924 -2.982,31.22"
             style="fill:none;stroke:#231f20;stroke-width:1.5;stroke-linecap:round;stroke-linejoin:round;stroke-miterlimit:4;stroke-dasharray:none;stroke-opacity:1"
             id="path42"
             inkscape:connector-curvature="0" /></g><g
           id="g44"
           transform="translate(116.0771,150.4756)"><path
             d="m 0,0 c 0.616,3.949 1.621,5.874 -0.362,13.273 -2.632,9.822 -7.016,18.416 -7.016,18.416"
             style="fill:none;stroke:#231f20;stroke-width:1.5;stroke-linecap:round;stroke-linejoin:round;stroke-miterlimit:4;stroke-dasharray:none;stroke-opacity:1"
             id="path46"
             inkscape:connector-curvature="0" /></g><g
           id="g48"
           transform="translate(116.8018,150.2207)"><path
             d="m 0,0 c 0.009,0.077 -0.315,0.19 -0.725,0.255 -0.409,0.064 -0.749,0.051 -0.758,-0.03 0.286,-9.228 -2.469,-19.514 3.307,-27.604 l 0.071,0.041 0.051,0.066 C -3.331,-19.251 -0.133,-8.942 0,0"
             style="fill:#231f20;fill-opacity:1;fill-rule:nonzero;stroke:none"
             id="path50"
             inkscape:connector-curvature="0" /></g><g
           id="g52"
           transform="translate(21.5288,69.5645)"><path
             d="m 0,0 c -7.717,-9.647 -8.418,-17.539 -8.77,-24.38 -0.351,-6.841 -0.175,-12.978 1.754,-18.766 1.93,-5.789 2.631,-8.771 2.631,-8.771 l 14.558,-25.782"
             style="fill:none;stroke:#231f20;stroke-width:1;stroke-linecap:round;stroke-linejoin:round;stroke-miterlimit:4;stroke-dasharray:none;stroke-opacity:1"
             id="path54"
             inkscape:connector-curvature="0" /></g><g
           id="g56"
           transform="translate(165.0117,149.0864)"><path
             d="m 0,0 c -0.653,0.119 -1.373,-0.244 -1.94,-1.473 -1.053,-2.28 -1.754,-4.035 -4.912,-5.613 -3.157,-1.578 -10.874,-4.736 -14.031,-9.471 -3.157,-4.735 -9.471,-9.998 -12.453,-11.752"
             style="fill:none;stroke:#231f20;stroke-width:0.5;stroke-linecap:round;stroke-linejoin:round;stroke-miterlimit:4;stroke-dasharray:none;stroke-opacity:1"
             id="path58"
             inkscape:connector-curvature="0" /></g><g
           id="g60"
           transform="translate(65.2012,87.9795)"><path
             d="m 0,0 c 0,0 2.807,-10.348 7.191,-19.644 0,0 20.346,-31.218 23.503,-35.428 1.335,-1.781 2.984,-2.745 4.694,-3.16"
             style="fill:none;stroke:#231f20;stroke-width:0.5;stroke-linecap:round;stroke-linejoin:round;stroke-miterlimit:4;stroke-dasharray:none;stroke-opacity:1"
             id="path62"
             inkscape:connector-curvature="0" /></g><g
           id="g64"
           transform="translate(124.3936,88.5752)"><path
             d="m 0,0 c -0.514,0.851 1.072,2.75 3.543,4.242 2.471,1.491 4.89,2.011 5.402,1.161"
             style="fill:none;stroke:#231f20;stroke-width:0.5;stroke-linecap:round;stroke-linejoin:round;stroke-miterlimit:4;stroke-dasharray:none;stroke-opacity:1"
             id="path66"
             inkscape:connector-curvature="0" /></g><g
           id="g68"
           transform="translate(128.0908,88.8535)"><path
             d="M 0,0 C -1.795,-0.776 -3.305,-0.929 -3.697,-0.278 L -21.206,28.037"
             style="fill:none;stroke:#231f20;stroke-width:1.5;stroke-linecap:round;stroke-linejoin:round;stroke-miterlimit:4;stroke-dasharray:none;stroke-opacity:1"
             id="path70"
             inkscape:connector-curvature="0" /></g><g
           id="g72"
           transform="translate(116.5693,119.9336)"><path
             d="m 0,0 16.77,-25.955 c 0.224,-0.372 0.046,-0.945 -0.431,-1.596"
             style="fill:none;stroke:#231f20;stroke-width:1.5;stroke-linecap:round;stroke-linejoin:round;stroke-miterlimit:4;stroke-dasharray:none;stroke-opacity:1"
             id="path74"
             inkscape:connector-curvature="0" /></g><g
           id="g76"
           transform="translate(127.5127,89.5703)"><path
             d="M 0,0 C -0.607,-0.146 -1.067,-0.107 -1.223,0.15 -1.52,0.641 -0.605,1.735 0.818,2.594 2.242,3.454 3.635,3.753 3.93,3.263"
             style="fill:none;stroke:#231f20;stroke-width:1;stroke-linecap:round;stroke-linejoin:round;stroke-miterlimit:4;stroke-dasharray:none;stroke-opacity:1"
             id="path78"
             inkscape:connector-curvature="0" /></g><g
           id="g80"
           transform="translate(124.3164,138.0562)"><path
             d="M 0,0 C 7.47,-9.269 11.204,-19.368 0.553,-30.158"
             style="fill:none;stroke:#231f20;stroke-width:1.5;stroke-linecap:round;stroke-linejoin:round;stroke-miterlimit:4;stroke-dasharray:none;stroke-opacity:1"
             id="path82"
             inkscape:connector-curvature="0" /></g><g
           id="g84"
           transform="translate(125.1787,137.4849)"><path
             d="m 0,0 c 3.268,5.232 5.24,5.823 10.424,6.766 6.671,1.213 9.192,3.945 12.025,7.674 1.87,2.461 3.034,6.192 1.171,8.565 -1.711,2.18 -5.003,2.231 -9.786,0.151 C 6.754,20.079 -2,15.898 -6.027,13.956"
             style="fill:none;stroke:#231f20;stroke-width:1.5;stroke-linecap:round;stroke-linejoin:round;stroke-miterlimit:4;stroke-dasharray:none;stroke-opacity:1"
             id="path86"
             inkscape:connector-curvature="0" /></g><g
           id="g88"
           transform="translate(120.9941,147.8887)"><path
             d="m 0,0 c 4.044,1.95 12.653,6.058 19.614,9.084 3.614,1.571 4.935,1.188 5.045,1.047 C 24.904,9.818 24.702,8.107 23.448,6.456 20.959,3.18 19.288,1.278 13.894,0.297 8.51,-0.682 5.518,-1.679 2.144,-6.285"
             style="fill:none;stroke:#231f20;stroke-width:1.5;stroke-linecap:round;stroke-linejoin:round;stroke-miterlimit:4;stroke-dasharray:none;stroke-opacity:1"
             id="path90"
             inkscape:connector-curvature="0" /></g><g
           id="g92"
           transform="translate(134.9687,148.5698)"><path
             d="M 0,0 C 4.012,5.119 10.099,7.608 10.099,7.608"
             style="fill:none;stroke:#231f20;stroke-width:1;stroke-linecap:round;stroke-linejoin:round;stroke-miterlimit:4;stroke-dasharray:none;stroke-opacity:1"
             id="path94"
             inkscape:connector-curvature="0" /></g><g
           id="g96"
           transform="translate(150.1855,158.6685)"><path
             d="M 0,0 C 2.629,1.245 8.438,0.83 8.438,0.83"
             style="fill:none;stroke:#231f20;stroke-width:1;stroke-linecap:round;stroke-linejoin:round;stroke-miterlimit:4;stroke-dasharray:none;stroke-opacity:1"
             id="path98"
             inkscape:connector-curvature="0" /></g><g
           id="g100"
           transform="translate(155.9961,156.3169)"><path
             d="m 0,0 c 0,0 0.69,0.138 1.798,1.521 1.107,1.384 2.629,4.705 3.735,6.641 1.107,1.937 4.15,4.981 7.609,6.502 3.459,1.522 11.621,5.81 11.621,5.81"
             style="fill:none;stroke:#231f20;stroke-width:1;stroke-linecap:round;stroke-linejoin:round;stroke-miterlimit:4;stroke-dasharray:none;stroke-opacity:1"
             id="path102"
             inkscape:connector-curvature="0" /></g><g
           id="g104"
           transform="translate(164.2959,167.7988)"><path
             d="M 0,0 C 0,9.684 13.834,16.462 13.834,16.462"
             style="fill:none;stroke:#231f20;stroke-width:1;stroke-linecap:round;stroke-linejoin:round;stroke-miterlimit:4;stroke-dasharray:none;stroke-opacity:1"
             id="path106"
             inkscape:connector-curvature="0" /></g><g
           id="g108"
           transform="translate(137.5342,92.1685)"><path
             d="M 0,0 C 2.047,3.141 2.024,6.82 -0.134,10.628 L -7.244,23.62"
             style="fill:none;stroke:#231f20;stroke-width:1.5;stroke-linecap:round;stroke-linejoin:round;stroke-miterlimit:4;stroke-dasharray:none;stroke-opacity:1"
             id="path110"
             inkscape:connector-curvature="0" /></g><g
           id="g112"
           transform="translate(128.0732,111.5063)"><path
             d="m 0,0 5.847,-10.681 c 1.83,-3.229 1.436,-5.822 -1.238,-8.161"
             style="fill:none;stroke:#231f20;stroke-width:1.5;stroke-linecap:round;stroke-linejoin:round;stroke-miterlimit:4;stroke-dasharray:none;stroke-opacity:1"
             id="path114"
             inkscape:connector-curvature="0" /></g><g
           id="g116"
           transform="translate(150.6504,81.0068)"><path
             d="m 0,0 c -0.893,1.39 -1.671,2.503 -2.354,3.367 -1.27,1.611 -3.063,2.432 -5.047,2.313 -2.166,-0.13 -4.244,-1.409 -5.423,-3.339 -0.7,-1.147 -4.706,-6.642 -8.58,-11.956 -4.338,-5.952 -8.825,-12.108 -10.337,-14.412 -0.549,-0.837 -1.416,-1.829 -2.425,-1.806 -0.885,0.021 -1.914,0.807 -2.621,2.003 l -3.192,5.564 -0.66,1.177 c -1.008,1.794 -1.74,3.973 2.376,7.113 4.509,3.442 15.062,12.022 20.2,16.308"
             style="fill:none;stroke:#231f20;stroke-width:1.5;stroke-linecap:round;stroke-linejoin:round;stroke-miterlimit:4;stroke-dasharray:none;stroke-opacity:1"
             id="path118"
             inkscape:connector-curvature="0" /></g><g
           id="g120"
           transform="translate(127.3301,61.9551)"><path
             d="m 0,0 c 1.597,2.207 3.385,4.66 5.148,7.08 4.28,5.871 7.976,10.941 8.761,12.228 0.5,0.817 1.383,1.379 2.249,1.43 0.658,0.04 1.221,-0.228 1.67,-0.798 0.659,-0.835 1.46,-1.995 2.391,-3.462"
             style="fill:none;stroke:#231f20;stroke-width:1.5;stroke-linecap:round;stroke-linejoin:round;stroke-miterlimit:4;stroke-dasharray:none;stroke-opacity:1"
             id="path122"
             inkscape:connector-curvature="0" /></g><g
           id="g124"
           transform="translate(128.3711,89.0361)"><path
             d="m 0,0 c -5.826,-4.821 -14.634,-11.943 -18.411,-14.825 -4.794,-3.658 -5.949,-7.781 -3.435,-12.254 l 0.657,-1.171 3.238,-5.645 c 1.436,-2.429 3.668,-3.912 5.971,-3.966"
             style="fill:none;stroke:#231f20;stroke-width:1.5;stroke-linecap:round;stroke-linejoin:round;stroke-miterlimit:4;stroke-dasharray:none;stroke-opacity:1"
             id="path126"
             inkscape:connector-curvature="0" /></g><g
           id="g128"
           transform="translate(149.7705,74.6963)"><path
             d="m 0,0 c 1.034,-1.808 3.092,-5.395 3.092,-5.395 0.903,-1.633 1.225,-2.433 1.225,-3.01 0,-0.34 -0.111,-0.603 -0.281,-0.914 -0.864,-1.578 -3.617,-4.043 -8.177,-8.127 l -0.791,-0.708 c -9.728,-8.718 -19.803,-10.296 -24.202,-9.231 -0.178,0.044 -0.483,0.137 -0.513,0.271 -0.016,0.068 -0.024,0.145 -0.024,0.23 0,1.358 1.984,4.68 5.614,7.623 l 8.331,6.813 c 4.673,3.828 10.452,8.561 15.569,12.731 l 3.143,2.56 c 4.441,3.608 7.971,6.448 9.133,7.309 l 1.327,1.001 c 1.45,1.108 2.172,1.66 4.582,2.745 0,0 3.842,1.291 6.464,2.412 6.819,2.914 11.294,6.566 11.793,10.196 0.22,1.601 -0.343,3.046 -1.544,3.966 -1.655,1.268 -4.135,1.302 -6.982,0.098 C 22.482,28.338 0.48,21.176 -7.802,18.479 L -9.551,17.91 c -2.811,-0.917 -6.436,-1.503 -9.035,0.209 m -3.935,-2.592 c 2.315,-2.209 6.71,-4.392 14.365,-1.895 l 1.747,0.568 c 8.333,2.713 30.468,9.919 35.922,12.226 1.199,0.508 1.904,0.54 2.259,0.493 C 31.479,26 29.48,23.57 22.82,20.488 18.664,18.564 16.345,17.524 16.345,17.524 13.668,16.312 12.71,15.626 11.018,14.332 L 9.738,13.366 C 6.991,11.331 -8.205,-1.116 -18.261,-9.354 l -8.315,-6.799 c -4.058,-3.291 -7.788,-8.229 -6.974,-11.841 0.218,-0.963 0.957,-2.668 3.475,-3.277 4.491,-1.089 16.087,-0.373 27.813,10.138 l 0.789,0.707 c 6.82,6.107 9.783,8.76 9.783,11.958 0,1.438 -0.6,2.987 -1.718,5.009 0,0 -2.81,4.91 -3.606,6.302"
             style="fill:none;stroke:#231f20;stroke-width:1.5;stroke-linecap:round;stroke-linejoin:round;stroke-miterlimit:4;stroke-dasharray:none;stroke-opacity:1"
             id="path130"
             inkscape:connector-curvature="0" /></g><g
           id="g132"
           transform="translate(170.0342,132.2158)"><path
             d="m 0,0 11.277,-17.628 6.131,-6.022 2.409,0.547"
             style="fill:none;stroke:#231f20;stroke-width:1;stroke-linecap:round;stroke-linejoin:round;stroke-miterlimit:4;stroke-dasharray:none;stroke-opacity:1"
             id="path134"
             inkscape:connector-curvature="0" /></g><g
           id="g136"
           transform="translate(132.6982,112.6172)"><path
             d="m 0,0 c 0,0 26.495,12.811 28.576,13.905 2.081,1.095 8.76,5.694 8.76,5.694"
             style="fill:none;stroke:#231f20;stroke-width:0.5;stroke-linecap:round;stroke-linejoin:round;stroke-miterlimit:4;stroke-dasharray:none;stroke-opacity:1"
             id="path138"
             inkscape:connector-curvature="0" /></g><g
           id="g140"
           transform="translate(132.8076,112.0698)"><path
             d="m 0,0 c 20.256,5.365 28.467,13.905 30.985,15.657 2.519,1.752 5.804,2.408 7.227,2.408"
             style="fill:none;stroke:#231f20;stroke-width:1;stroke-linecap:round;stroke-linejoin:round;stroke-miterlimit:4;stroke-dasharray:none;stroke-opacity:1"
             id="path142"
             inkscape:connector-curvature="0" /></g><g
           id="g144"
           transform="translate(136.6396,105.3906)"><path
             d="m 0,0 c 12.92,3.066 25.729,11.059 29.015,14.015 3.285,2.956 5.585,4.926 8.978,5.036"
             style="fill:none;stroke:#231f20;stroke-width:0.5;stroke-linecap:round;stroke-linejoin:round;stroke-miterlimit:4;stroke-dasharray:none;stroke-opacity:1"
             id="path146"
             inkscape:connector-curvature="0" /></g><g
           id="g148"
           transform="translate(175.6182,120.8291)"><path
             d="M 0,0 C 0.985,-0.876 16.861,-22.117 16.861,-22.117"
             style="fill:none;stroke:#231f20;stroke-width:1;stroke-linecap:round;stroke-linejoin:round;stroke-miterlimit:4;stroke-dasharray:none;stroke-opacity:1"
             id="path150"
             inkscape:connector-curvature="0" /></g><g
           id="g152"
           transform="translate(139.4863,99.6973)"><path
             d="m 0,0 c 0,0 28.14,17.957 30.548,19.38 2.408,1.423 4.598,2.628 5.584,1.752"
             style="fill:none;stroke:#231f20;stroke-width:0.5;stroke-linecap:round;stroke-linejoin:round;stroke-miterlimit:4;stroke-dasharray:none;stroke-opacity:1"
             id="path154"
             inkscape:connector-curvature="0" /></g><g
           id="g156"
           transform="translate(168.9668,105.6177)"><path
             d="m 0,0 c 2.598,1.789 5.051,3.474 6.213,4.262 3.065,2.081 6.021,3.175 7.664,1.424"
             style="fill:none;stroke:#231f20;stroke-width:0.5;stroke-linecap:round;stroke-linejoin:round;stroke-miterlimit:4;stroke-dasharray:none;stroke-opacity:1"
             id="path158"
             inkscape:connector-curvature="0" /></g><g
           id="g160"
           transform="translate(160.0703,99.4785)"><path
             d="M 0,0 C 0,0 1.499,1.036 3.573,2.468"
             style="fill:none;stroke:#231f20;stroke-width:0.5;stroke-linecap:round;stroke-linejoin:round;stroke-miterlimit:4;stroke-dasharray:none;stroke-opacity:1"
             id="path162"
             inkscape:connector-curvature="0" /></g><g
           id="g164"
           transform="translate(116.335,100.2378)"><path
             d="m 0,0 c -5.167,-8.667 -15.333,-13.5 -19,-15.167 -3.667,-1.666 -6.5,-4.167 -5.167,-6.333 1.334,-2.167 3,-5.667 4.834,-6.5 1.833,-0.833 5,-2 5,-2"
             style="fill:none;stroke:#231f20;stroke-width:1;stroke-linecap:round;stroke-linejoin:round;stroke-miterlimit:4;stroke-dasharray:none;stroke-opacity:1"
             id="path166"
             inkscape:connector-curvature="0" /></g><g
           id="g168"
           transform="translate(101.1685,71.5713)"><path
             d="m 0,0 c -0.5,1.166 0.667,3.832 5.167,7.166 4.5,3.334 16.666,11 16.666,11"
             style="fill:none;stroke:#231f20;stroke-width:0.5;stroke-linecap:round;stroke-linejoin:round;stroke-miterlimit:4;stroke-dasharray:none;stroke-opacity:1"
             id="path170"
             inkscape:connector-curvature="0" /></g><g
           id="g172"
           transform="translate(105.835,63.5713)"><path
             d="M 0,0 C 0,0 -4.167,6.834 -4.667,8"
             style="fill:none;stroke:#231f20;stroke-width:1;stroke-linecap:round;stroke-linejoin:round;stroke-miterlimit:4;stroke-dasharray:none;stroke-opacity:1"
             id="path174"
             inkscape:connector-curvature="0" /></g><g
           id="g176"
           transform="translate(95.835,73.0713)"><path
             d="m 0,0 c -0.833,1.166 0.333,3.334 4.5,5 4.167,1.666 12.166,5.833 20.333,15.333"
             style="fill:none;stroke:#231f20;stroke-width:0.5;stroke-linecap:round;stroke-linejoin:round;stroke-miterlimit:4;stroke-dasharray:none;stroke-opacity:1"
             id="path178"
             inkscape:connector-curvature="0" /></g><g
           id="g180"
           transform="translate(128.002,102.9043)"><path
             d="M 0,0 C 1.5,1.833 3.166,1.667 3.166,1.667"
             style="fill:none;stroke:#231f20;stroke-width:0.5;stroke-linecap:round;stroke-linejoin:round;stroke-miterlimit:4;stroke-dasharray:none;stroke-opacity:1"
             id="path182"
             inkscape:connector-curvature="0" /></g><g
           id="g184"
           transform="translate(85.335,98.0713)"><path
             d="M 0,0 C 2.667,-6.667 15.334,-6.333 30.333,4"
             style="fill:none;stroke:#231f20;stroke-width:1.5;stroke-linecap:round;stroke-linejoin:round;stroke-miterlimit:4;stroke-dasharray:none;stroke-opacity:1"
             id="path186"
             inkscape:connector-curvature="0" /></g><g
           id="g188"
           transform="translate(90.335,99.4043)"><path
             d="M 0,0 C 2.5,-4.167 13,-0.333 19.833,5"
             style="fill:none;stroke:#231f20;stroke-width:1.5;stroke-linecap:round;stroke-linejoin:round;stroke-miterlimit:4;stroke-dasharray:none;stroke-opacity:1"
             id="path190"
             inkscape:connector-curvature="0" /></g><g
           id="g192"
           transform="translate(134.1689,67.2383)"><path
             d="m 0,0 c 0,0 1.167,3.999 3.5,5.666 2.333,1.667 9,5.167 9,5.167"
             style="fill:none;stroke:#231f20;stroke-width:1;stroke-linecap:round;stroke-linejoin:round;stroke-miterlimit:4;stroke-dasharray:none;stroke-opacity:1"
             id="path194"
             inkscape:connector-curvature="0" /></g><g
           id="g196"
           transform="translate(161.1689,84.2373)"><path
             d="M 0,0 36,16.167"
             style="fill:none;stroke:#231f20;stroke-width:1;stroke-linecap:round;stroke-linejoin:round;stroke-miterlimit:4;stroke-dasharray:none;stroke-opacity:1"
             id="path198"
             inkscape:connector-curvature="0" /></g><g
           id="g200"
           transform="translate(198.002,99.7378)"><path
             d="m 0,0 c 0,0 -5.999,-2.667 -3.833,-5.5 2.166,-2.833 7,-10.833 7,-10.833"
             style="fill:none;stroke:#231f20;stroke-width:1;stroke-linecap:round;stroke-linejoin:round;stroke-miterlimit:4;stroke-dasharray:none;stroke-opacity:1"
             id="path202"
             inkscape:connector-curvature="0" /></g><g
           id="g204"
           transform="translate(151.5908,70.4277)"><path
             d="m 0,0 c -4.028,-2.527 -8.023,-5.037 -11.7,-7.35 0,0 4.111,-5.173 0.111,-7.339 -2.819,-1.527 -5.631,3.868 -5.631,3.868 -6.9,-4.341 -11.702,-7.368 -11.702,-7.368"
             style="fill:none;stroke:#231f20;stroke-width:1;stroke-linecap:round;stroke-linejoin:round;stroke-miterlimit:4;stroke-dasharray:none;stroke-opacity:1"
             id="path206"
             inkscape:connector-curvature="0" /></g><g
           id="g208"
           transform="translate(155.709,73.0107)"><path
             d="m 0,0 c 6.054,3.794 11.961,7.487 16.744,10.461 0,0 2.216,-5.401 5.549,-3.567 3.333,1.834 0.193,7.122 0.193,7.122 2.113,1.299 3.672,2.247 4.474,2.711 6.334,3.667 10.166,3.167 11.666,1.5 1.5,-1.667 4.334,-5.166 4.334,-5.166"
             style="fill:none;stroke:#231f20;stroke-width:1;stroke-linecap:round;stroke-linejoin:round;stroke-miterlimit:4;stroke-dasharray:none;stroke-opacity:1"
             id="path210"
             inkscape:connector-curvature="0" /></g><g
           id="g212"
           transform="translate(199.6689,85.2373)"><path
             d="M 0,0 C 0,0 -4.168,0.501 -8.834,-2.833 -13.5,-6.166 -26.667,-14.832 -41.167,-18.999"
             style="fill:none;stroke:#231f20;stroke-width:1;stroke-linecap:round;stroke-linejoin:round;stroke-miterlimit:4;stroke-dasharray:none;stroke-opacity:1"
             id="path214"
             inkscape:connector-curvature="0" /></g><g
           id="g216"
           transform="translate(93.502,63.5713)"><path
             d="m 0,0 c -1.667,0 -3,-0.834 -2,-2.667 1,-1.833 13,-19 13.333,-19.833 0.334,-0.833 3.834,-1.499 5.834,-1.333 2,0.166 8.166,3 8.166,3"
             style="fill:none;stroke:#231f20;stroke-width:1;stroke-linecap:round;stroke-linejoin:round;stroke-miterlimit:4;stroke-dasharray:none;stroke-opacity:1"
             id="path218"
             inkscape:connector-curvature="0" /></g><g
           id="g220"
           transform="translate(176.168,129.2378)"><path
             d="m 0,0 c -1.5,5.167 12.501,16 21.334,21 8.833,5 22.5,13 26.833,8.167"
             style="fill:none;stroke:#231f20;stroke-width:0.5;stroke-linecap:round;stroke-linejoin:round;stroke-miterlimit:4;stroke-dasharray:none;stroke-opacity:1"
             id="path222"
             inkscape:connector-curvature="0" /></g><g
           id="g224"
           transform="translate(211.002,175.5713)"><path
             d="M 0,0 C 0,0 11.5,-14 14.5,-18.5 17.5,-23 34.833,-56 34.833,-56"
             style="fill:none;stroke:#231f20;stroke-width:1;stroke-linecap:round;stroke-linejoin:round;stroke-miterlimit:4;stroke-dasharray:none;stroke-opacity:1"
             id="path226"
             inkscape:connector-curvature="0" /></g><g
           id="g228"
           transform="translate(225.502,180.5713)"><path
             d="M 0,0 C -4.667,-2.833 -9,-10.333 -9,-10.333"
             style="fill:none;stroke:#231f20;stroke-width:1;stroke-linecap:round;stroke-linejoin:round;stroke-miterlimit:4;stroke-dasharray:none;stroke-opacity:1"
             id="path230"
             inkscape:connector-curvature="0" /></g><g
           id="g232"
           transform="translate(218.168,166.7378)"><path
             d="M 0,0 C 1.5,2.833 6.668,8.833 10.834,11.333"
             style="fill:none;stroke:#231f20;stroke-width:1;stroke-linecap:round;stroke-linejoin:round;stroke-miterlimit:4;stroke-dasharray:none;stroke-opacity:1"
             id="path234"
             inkscape:connector-curvature="0" /></g><g
           id="g236"
           transform="translate(218.835,166.0713)"><path
             d="M 0,0 C 0,0 1.666,-1.333 7.333,1.5 13,4.333 18.834,7.833 22.167,2.833 25.5,-2.167 28,-5.167 30.5,-9"
             style="fill:none;stroke:#231f20;stroke-width:1;stroke-linecap:round;stroke-linejoin:round;stroke-miterlimit:4;stroke-dasharray:none;stroke-opacity:1"
             id="path238"
             inkscape:connector-curvature="0" /></g><g
           id="g240"
           transform="translate(222.335,161.5713)"><path
             d="M 0,0 C 4.833,0.167 8.5,2.833 10.5,4.167 12.5,5.5 15.667,5 17,3.667 18.333,2.333 23.167,-4.5 23.167,-4.5"
             style="fill:none;stroke:#231f20;stroke-width:1;stroke-linecap:round;stroke-linejoin:round;stroke-miterlimit:4;stroke-dasharray:none;stroke-opacity:1"
             id="path242"
             inkscape:connector-curvature="0" /></g><g
           id="g244"
           transform="translate(232.835,145.0713)"><path
             d="M 0,0 C 0,0 7.334,1.833 11.167,4.333"
             style="fill:none;stroke:#231f20;stroke-width:1;stroke-linecap:round;stroke-linejoin:round;stroke-miterlimit:4;stroke-dasharray:none;stroke-opacity:1"
             id="path246"
             inkscape:connector-curvature="0" /></g><g
           id="g248"
           transform="translate(234.502,141.5713)"><path
             d="M 0,0 C 4.166,1.667 11.833,4.333 11.833,4.333"
             style="fill:none;stroke:#231f20;stroke-width:1;stroke-linecap:round;stroke-linejoin:round;stroke-miterlimit:4;stroke-dasharray:none;stroke-opacity:1"
             id="path250"
             inkscape:connector-curvature="0" /></g><g
           id="g252"
           transform="translate(239.002,132.2378)"><path
             d="M 0,0 6.166,5.167"
             style="fill:none;stroke:#231f20;stroke-width:1;stroke-linecap:round;stroke-linejoin:round;stroke-miterlimit:4;stroke-dasharray:none;stroke-opacity:1"
             id="path254"
             inkscape:connector-curvature="0" /></g><g
           id="g256"
           transform="translate(240.3906,169.6177)"><path
             d="M 0,0 C 1.394,1.114 2.684,2.227 3.777,3.287"
             style="fill:none;stroke:#231f20;stroke-width:1;stroke-linecap:round;stroke-linejoin:round;stroke-miterlimit:4;stroke-dasharray:none;stroke-opacity:1"
             id="path258"
             inkscape:connector-curvature="0" /></g><g
           id="g260"
           transform="translate(224.668,159.4043)"><path
             d="M 0,0 C 2.109,0.904 6.76,3.684 11.326,6.917"
             style="fill:none;stroke:#231f20;stroke-width:1;stroke-linecap:round;stroke-linejoin:round;stroke-miterlimit:4;stroke-dasharray:none;stroke-opacity:1"
             id="path262"
             inkscape:connector-curvature="0" /></g><g
           id="g264"
           transform="translate(228.668,152.0713)"><path
             d="M 0,0 C 7.167,3.833 13.167,9.167 13.167,9.167"
             style="fill:none;stroke:#231f20;stroke-width:0.5;stroke-linecap:round;stroke-linejoin:round;stroke-miterlimit:4;stroke-dasharray:none;stroke-opacity:1"
             id="path266"
             inkscape:connector-curvature="0" /></g><g
           id="g268"
           transform="translate(229.168,150.9043)"><path
             d="M 0,0 13.667,6.833"
             style="fill:none;stroke:#231f20;stroke-width:0.5;stroke-linecap:round;stroke-linejoin:round;stroke-miterlimit:4;stroke-dasharray:none;stroke-opacity:1"
             id="path270"
             inkscape:connector-curvature="0" /></g><g
           id="g272"
           transform="translate(192.1582,92.5918)"><path
             d="M 0,0 1.844,0.812"
             style="fill:none;stroke:#231f20;stroke-width:0.5;stroke-linecap:round;stroke-linejoin:round;stroke-miterlimit:4;stroke-dasharray:none;stroke-opacity:1"
             id="path274"
             inkscape:connector-curvature="0" /></g><g
           id="g276"
           transform="translate(154.6689,76.0713)"><path
             d="M 0,0 23.562,10.383"
             style="fill:none;stroke:#231f20;stroke-width:0.5;stroke-linecap:round;stroke-linejoin:round;stroke-miterlimit:4;stroke-dasharray:none;stroke-opacity:1"
             id="path278"
             inkscape:connector-curvature="0" /></g><g
           id="g280"
           transform="translate(113.1685,59.2373)"><path
             d="M 0,0 5.333,-2.666"
             style="fill:none;stroke:#231f20;stroke-width:1;stroke-linecap:round;stroke-linejoin:round;stroke-miterlimit:4;stroke-dasharray:none;stroke-opacity:1"
             id="path282"
             inkscape:connector-curvature="0" /></g><g
           id="g284"
           transform="translate(165.8154,109.1826)"><path
             d="m 0,0 c -0.773,0.362 -1.667,0.428 -2.646,-0.111 -3.334,-1.834 0.666,-7 0.666,-7 l 0.667,-0.834"
             style="fill:none;stroke:#231f20;stroke-width:0.5;stroke-linecap:round;stroke-linejoin:round;stroke-miterlimit:4;stroke-dasharray:none;stroke-opacity:1"
             id="path286"
             inkscape:connector-curvature="0" /></g><g
           id="g288"
           transform="translate(170.835,102.5713)"><path
             d="m 0,0 -2,3.167 c 0,0 -1.162,2.575 -3.02,3.444"
             style="fill:none;stroke:#231f20;stroke-width:1;stroke-linecap:round;stroke-linejoin:round;stroke-miterlimit:4;stroke-dasharray:none;stroke-opacity:1"
             id="path290"
             inkscape:connector-curvature="0" /></g><g
           id="g292"
           transform="translate(123.4375,79.4395)"><path
             d="M 0,0 C 0.584,-1.521 1.584,-2.813 1.584,-2.813 L 5.897,-7.035"
             style="fill:none;stroke:#231f20;stroke-width:0.5;stroke-linecap:round;stroke-linejoin:round;stroke-miterlimit:4;stroke-dasharray:none;stroke-opacity:1"
             id="path294"
             inkscape:connector-curvature="0" /></g><g
           id="g296"
           transform="translate(133.002,77.2373)"><path
             d="m 0,0 -2.98,3.056 c 0,0 -0.718,1.591 -1.928,2.694"
             style="fill:none;stroke:#231f20;stroke-width:1;stroke-linecap:round;stroke-linejoin:round;stroke-miterlimit:4;stroke-dasharray:none;stroke-opacity:1"
             id="path298"
             inkscape:connector-curvature="0" /></g><g
           id="g300"
           transform="translate(123.9736,77.4453)"><path
             d="M 0,0 -13.305,-8.208"
             style="fill:none;stroke:#231f20;stroke-width:0.5;stroke-linecap:round;stroke-linejoin:round;stroke-miterlimit:4;stroke-dasharray:none;stroke-opacity:1"
             id="path302"
             inkscape:connector-curvature="0" /></g><g
           id="g304"
           transform="translate(141.6143,88.3281)"><path
             d="M 0,0 -11.52,-7.107"
             style="fill:none;stroke:#231f20;stroke-width:0.5;stroke-linecap:round;stroke-linejoin:round;stroke-miterlimit:4;stroke-dasharray:none;stroke-opacity:1"
             id="path306"
             inkscape:connector-curvature="0" /></g><g
           id="g308"
           transform="translate(92.335,63.0713)"><path
             d="M 0,0 -19.942,5.265 C -19.942,5.265 -37,-5.5 -47.75,-12.25 -58.5,-19 -73.382,-43.098 -75.191,-45.424"
             style="fill:none;stroke:#231f20;stroke-width:0.5;stroke-linecap:round;stroke-linejoin:round;stroke-miterlimit:4;stroke-dasharray:none;stroke-opacity:1"
             id="path310"
             inkscape:connector-curvature="0" /></g><g
           id="g312"
           transform="translate(35.835,-3.6787)"><path
             d="M 0,0 C 0,0 3.5,27.75 4.25,33.5 5,39.25 5.25,42 17,38 28.75,34 47,23.5 50.75,20.75 54.5,18 54,11.5 52.75,0.75"
             style="fill:none;stroke:#231f20;stroke-width:0.5;stroke-linecap:round;stroke-linejoin:round;stroke-miterlimit:4;stroke-dasharray:none;stroke-opacity:1"
             id="path314"
             inkscape:connector-curvature="0" /></g><g
           id="g316"
           transform="translate(93.835,-2.9287)"><path
             d="m 0,0 c 0,0 1.25,13.25 1.25,15.25 0,2 4,6 8.25,5.5 4.25,-0.5 26.25,-0.75 31,1.5 0,0 43,22 51,26.75 8,4.75 9,7.75 9,7.75"
             style="fill:none;stroke:#231f20;stroke-width:0.5;stroke-linecap:round;stroke-linejoin:round;stroke-miterlimit:4;stroke-dasharray:none;stroke-opacity:1"
             id="path318"
             inkscape:connector-curvature="0" /></g><g
           id="g320"
           transform="translate(120.085,3.8213)"><path
             d="m 0,0 18.25,10.5 c 0,0 1.5,1 3,-2.25 1.5,-3.25 8.25,-16 8.25,-16"
             style="fill:none;stroke:#231f20;stroke-width:0.5;stroke-linecap:round;stroke-linejoin:round;stroke-miterlimit:4;stroke-dasharray:none;stroke-opacity:1"
             id="path322"
             inkscape:connector-curvature="0" /></g><g
           id="g324"
           transform="translate(184.085,-3.6787)"><path
             d="M 0,0 C 4.75,7 20,16 28.25,17.75 36.5,19.5 50.25,21.25 50,36 49.75,50.75 44,80.5 47.75,87"
             style="fill:none;stroke:#231f20;stroke-width:0.5;stroke-linecap:round;stroke-linejoin:round;stroke-miterlimit:4;stroke-dasharray:none;stroke-opacity:1"
             id="path326"
             inkscape:connector-curvature="0" /></g><g
           id="g328"
           transform="translate(242.835,87.0713)"><path
             d="m 0,0 c -4.5,-2 -10.5,-4.75 -5.75,-25.5 4.75,-20.75 11,-29.75 11,-29.75"
             style="fill:none;stroke:#231f20;stroke-width:0.5;stroke-linecap:round;stroke-linejoin:round;stroke-miterlimit:4;stroke-dasharray:none;stroke-opacity:1"
             id="path330"
             inkscape:connector-curvature="0" /></g><g
           id="g332"
           transform="translate(125.5986,41.957)"><path
             d="M 0,0 23.401,10.73 24.321,9.3 13.285,-0.613 1.022,-2.248 0,0 Z"
             style="fill:#ffffff;fill-opacity:1;fill-rule:nonzero;stroke:none"
             id="path334"
             inkscape:connector-curvature="0" /></g><g
           id="g336"
           transform="translate(100.5889,29.7471)"><path
             d="m 0,0 c 2.334,-0.565 4.783,-0.106 6.707,0.704 3.332,1.403 7.367,3.858 10.173,4.911 2.806,1.053 1.754,3.508 3.332,4.385 1.578,0.877 8.594,3.509 21.047,9.472 12.453,5.963 15.962,8.243 17.54,9.12 1.578,0.877 3.858,-0.351 6.489,0.877 2.631,1.227 8.77,4.559 11.751,7.366 2.982,2.807 9.823,8.067 15.26,10.874 5.436,2.807 7.365,4.561 9.471,6.84 2.105,2.28 3.683,5.789 -3.683,14.909 -7.366,9.12 -17.189,18.767 -22.626,30.518 0,0 -8.945,17.013 -9.647,18.241 -0.323,0.566 -0.833,1.02 -1.391,1.122"
             style="fill:none;stroke:#231f20;stroke-width:1;stroke-linecap:round;stroke-linejoin:round;stroke-miterlimit:4;stroke-dasharray:none;stroke-opacity:1"
             id="path338"
             inkscape:connector-curvature="0" /></g></g></g><g
       id="g340"
       transform="translate(27.1685,49.7383)"><path
         d="M 0,0 -11,32"
         style="fill:none;stroke:#ffffff;stroke-width:3;stroke-linecap:round;stroke-linejoin:round;stroke-miterlimit:4;stroke-dasharray:none;stroke-opacity:1"
         id="path342"
         inkscape:connector-curvature="0" /></g><g
       id="g344"><g
         id="g346"
         clip-path="url(#clipPath348)"><g
           id="g352"
           transform="translate(27.0464,48.5039)"><path
             d="M 0,0 C 0.681,0 1.233,0.553 1.233,1.234 1.233,1.916 0.681,2.467 0,2.467 -0.681,2.467 -1.233,1.916 -1.233,1.234 -1.233,0.553 -0.681,0 0,0"
             style="fill:#231f20;fill-opacity:1;fill-rule:nonzero;stroke:none"
             id="path354"
             inkscape:connector-curvature="0" /></g><g
           id="g356"
           transform="translate(27.0464,48.5039)"><path
             d="M 0,0 C 0.681,0 1.233,0.553 1.233,1.234 1.233,1.916 0.681,2.467 0,2.467 -0.681,2.467 -1.233,1.916 -1.233,1.234 -1.233,0.553 -0.681,0 0,0 Z"
             style="fill:none;stroke:#ffffff;stroke-width:1;stroke-linecap:butt;stroke-linejoin:miter;stroke-miterlimit:4;stroke-dasharray:none;stroke-opacity:1"
             id="path358"
             inkscape:connector-curvature="0" /></g><g
           id="g360"
           transform="translate(27.1685,49.7383)"><path
             d="M 0,0 -11,32"
             style="fill:none;stroke:#231f20;stroke-width:0.5;stroke-linecap:round;stroke-linejoin:round;stroke-miterlimit:4;stroke-dasharray:none;stroke-opacity:1"
             id="path362"
             inkscape:connector-curvature="0" /></g><g
           id="g364"
           transform="translate(180.835,105.0713)"><path
             d="M 0,0 23,22.667"
             style="fill:none;stroke:#ffffff;stroke-width:3;stroke-linecap:round;stroke-linejoin:round;stroke-miterlimit:4;stroke-dasharray:none;stroke-opacity:1"
             id="path366"
             inkscape:connector-curvature="0" /></g><g
           id="g368"
           transform="translate(180.7129,103.8369)"><path
             d="M 0,0 C 0.681,0 1.233,0.553 1.233,1.234 1.233,1.916 0.681,2.467 0,2.467 -0.681,2.467 -1.233,1.916 -1.233,1.234 -1.233,0.553 -0.681,0 0,0"
             style="fill:#231f20;fill-opacity:1;fill-rule:nonzero;stroke:none"
             id="path370"
             inkscape:connector-curvature="0" /></g><g
           id="g372"
           transform="translate(180.7129,103.8369)"><path
             d="M 0,0 C 0.681,0 1.233,0.553 1.233,1.234 1.233,1.916 0.681,2.467 0,2.467 -0.681,2.467 -1.233,1.916 -1.233,1.234 -1.233,0.553 -0.681,0 0,0 Z"
             style="fill:none;stroke:#ffffff;stroke-width:1;stroke-linecap:butt;stroke-linejoin:miter;stroke-miterlimit:4;stroke-dasharray:none;stroke-opacity:1"
             id="path374"
             inkscape:connector-curvature="0" /></g><g
           id="g376"
           transform="translate(180.835,105.0713)"><path
             d="M 0,0 23,22.667"
             style="fill:none;stroke:#231f20;stroke-width:0.5;stroke-linecap:round;stroke-linejoin:round;stroke-miterlimit:4;stroke-dasharray:none;stroke-opacity:1"
             id="path378"
             inkscape:connector-curvature="0" /></g></g></g><text
       transform="matrix(1,0,0,-1,11.502,83.9082)"
       style="font-variant:normal;font-weight:bold;font-stretch:normal;font-size:12px;font-family:Helvetica;-inkscape-font-specification:Helvetica-Bold;writing-mode:lr-tb;fill:#231f20;fill-opacity:1;fill-rule:nonzero;stroke:none"
       id="text380"><tspan
         x="0"
         y="0"
         id="tspan382">1</tspan><tspan
         x="192.996"
         y="-45"
         id="tspan384">2</tspan></text>
<text
       transform="matrix(1,0,0,-1,4.5015,7.4072)"
       style="font-variant:normal;font-weight:normal;font-stretch:normal;font-size:5px;font-family:Helvetica;-inkscape-font-specification:Helvetica;writing-mode:lr-tb;fill:#231f20;fill-opacity:1;fill-rule:nonzero;stroke:none"
       id="text386"><tspan
         x="0 2.5 5.2800002 7.7800002"
         y="0"
         sodipodi:role="line"
         id="tspan388">cezh</tspan></text>
<g
       id="g390"><g
         id="g392"
         clip-path="url(#clipPath394)"><g
           id="g398"
           transform="translate(119.3896,60.4922)"><path
             d="m 0,0 -4.309,6.961 -11.776,-7.292 -2.73,4.41 -3.078,-9.787 3.412,-4.549 9.601,-1.711 -2.896,4.678 L 0,0 Z"
             style="fill:#ffffff;fill-opacity:1;fill-rule:nonzero;stroke:none"
             id="path400"
             inkscape:connector-curvature="0" /></g><g
           id="g402"
           transform="translate(119.3896,60.4922)"><path
             d="m 0,0 -4.309,6.961 -11.776,-7.292 -2.73,4.41 -3.078,-9.787 3.412,-4.549 9.601,-1.711 -2.896,4.678 L 0,0 Z"
             style="fill:none;stroke:#ffffff;stroke-width:2;stroke-linecap:butt;stroke-linejoin:miter;stroke-miterlimit:4;stroke-dasharray:none;stroke-opacity:1"
             id="path404"
             inkscape:connector-curvature="0" /></g><g
           id="g406"
           transform="translate(110.501,54.9893)"><path
             d="m 0,0 -4.309,6.96 -2.887,-1.788 -2.73,4.41 -3.329,-10.749 2.433,-3.531 10.83,-1.767 -2.895,4.678 L 0,0 Z"
             style="fill:#231f20;fill-opacity:1;fill-rule:nonzero;stroke:none"
             id="path408"
             inkscape:connector-curvature="0" /></g><g
           id="g410"
           transform="translate(113.9746,57.1387)"><path
             d="M 0,0 1.124,0.697 -3.185,7.657 -4.31,6.961 0,0 Z"
             style="fill:#231f20;fill-opacity:1;fill-rule:nonzero;stroke:none"
             id="path412"
             inkscape:connector-curvature="0" /></g><g
           id="g414"
           transform="translate(112.1001,65.6074)"><path
             d="M 0,0 4.309,-6.96 4.95,-6.563 0.642,0.397 0,0 Z"
             style="fill:#231f20;fill-opacity:1;fill-rule:nonzero;stroke:none"
             id="path416"
             inkscape:connector-curvature="0" /></g><g
           id="g418"
           transform="translate(118.8447,60.1543)"><path
             d="M 0,0 0.545,0.338 -3.764,7.299 -4.31,6.961 0,0 Z"
             style="fill:#231f20;fill-opacity:1;fill-rule:nonzero;stroke:none"
             id="path420"
             inkscape:connector-curvature="0" /></g><g
           id="g422"
           transform="translate(111.54,55.6328)"><path
             d="M 0,0 1.606,0.994 -2.704,7.954 -4.309,6.959 0,0 Z"
             style="fill:#231f20;fill-opacity:1;fill-rule:nonzero;stroke:none"
             id="path424"
             inkscape:connector-curvature="0" /></g></g></g></g></svg>