<?xml version="1.0" encoding="UTF-8" standalone="no"?>
<!-- Created with Inkscape (http://www.inkscape.org/) -->

<svg
   xmlns:dc="http://purl.org/dc/elements/1.1/"
   xmlns:cc="http://creativecommons.org/ns#"
   xmlns:rdf="http://www.w3.org/1999/02/22-rdf-syntax-ns#"
   xmlns:svg="http://www.w3.org/2000/svg"
   xmlns="http://www.w3.org/2000/svg"
   xmlns:sodipodi="http://sodipodi.sourceforge.net/DTD/sodipodi-0.dtd"
   xmlns:inkscape="http://www.inkscape.org/namespaces/inkscape"
   version="1.1"
   id="svg1302"
   xml:space="preserve"
   width="325.4935"
   height="254.34766"
   viewBox="0 0 325.4935 254.34766"
   sodipodi:docname="T3659.svg"
   inkscape:version="0.92.4 (5da689c313, 2019-01-14)"><metadata
     id="metadata1308"><rdf:RDF><cc:Work
         rdf:about=""><dc:format>image/svg+xml</dc:format><dc:type
           rdf:resource="http://purl.org/dc/dcmitype/StillImage" /><dc:title></dc:title></cc:Work></rdf:RDF></metadata><defs
     id="defs1306"><clipPath
       clipPathUnits="userSpaceOnUse"
       id="clipPath1318"><path
         d="m 3.17871,-3.33398 c 0,0 240.94141,0 240.94141,0 0,0 0,-184.25 0,-184.25 0,0 -240.94141,0 -240.94141,0 0,0 0,184.25 0,184.25 z"
         id="path1316"
         inkscape:connector-curvature="0" /></clipPath></defs><sodipodi:namedview
     pagecolor="#ffffff"
     bordercolor="#666666"
     borderopacity="1"
     objecttolerance="10"
     gridtolerance="10"
     guidetolerance="10"
     inkscape:pageopacity="0"
     inkscape:pageshadow="2"
     inkscape:window-width="640"
     inkscape:window-height="480"
     id="namedview1304"
     showgrid="false"
     inkscape:zoom="0.90017159"
     inkscape:cx="162.74675"
     inkscape:cy="127.17383"
     inkscape:window-x="0"
     inkscape:window-y="0"
     inkscape:window-maximized="0"
     inkscape:current-layer="g1310" /><g
     id="g1310"
     inkscape:groupmode="layer"
     inkscape:label="T3659"
     transform="matrix(1.3333333,0,0,-1.3333333,0,254.34765)"><g
       id="g1312"
       transform="scale(1,-1)"><g
         id="g1314"
         clip-path="url(#clipPath1318)"><path
           d="m 118.52783,-147.81055 c 0,0 15.18311,-6.71924 30.61475,-5.10107"
           style="fill:none;stroke:#ffffff;stroke-width:3;stroke-linecap:round;stroke-linejoin:round;stroke-miterlimit:4;stroke-dasharray:none;stroke-opacity:1"
           id="path1320"
           inkscape:connector-curvature="0" /><path
           d="m 105.70508,-167.34424 c -1.49317,-2.52246 -2.47608,-4.20459 -2.64404,-4.53564 -1.16114,-2.28418 -2.80909,-3.14502 -5.69288,-3.70703 -2.88427,-0.56202 -13.89404,-2.92188 -13.89404,-2.92188"
           style="fill:none;stroke:#231f20;stroke-width:1;stroke-linecap:round;stroke-linejoin:round;stroke-miterlimit:4;stroke-dasharray:none;stroke-opacity:1"
           id="path1322"
           inkscape:connector-curvature="0" /><path
           d="m 115.55957,-150.85352 c -0.99951,-1.66113 -1.99463,-3.31836 -2.96191,-4.93261"
           style="fill:none;stroke:#231f20;stroke-width:1;stroke-linecap:round;stroke-linejoin:round;stroke-miterlimit:4;stroke-dasharray:none;stroke-opacity:1"
           id="path1324"
           inkscape:connector-curvature="0" /><path
           d="m 0.5,-143.56494 c 0,0 15.83203,3.61914 21.71094,4.70703 7.70703,1.4248 18.82715,4.55469 23.38086,7.28809 4.55517,2.73193 8.04736,3.79589 11.53906,4.55371 3.49219,0.75927 7.13623,1.51806 7.13623,1.51806 0,0 -0.30615,1.25684 -0.68018,2.38086 -0.375,1.12305 -0.52392,2.99512 0.89893,5.8042 1.42334,2.81006 3.10937,5.61914 4.00732,7.41602 0.89893,1.79687 2.09668,2.24707 3.66993,2.65918 1.57275,0.41162 19.6997,4.60595 29.13769,5.91699 9.43848,1.31103 23.28125,2.28369 26.98926,-9.625 0,0 0.68945,-2.51416 1.51172,-6.96631 0.16113,-0.87305 2.11523,-6.58984 -1.29297,-11.7749 -1.21484,-1.84815 -4.00781,-6.3916 -7.31934,-11.84668"
           style="fill:none;stroke:#231f20;stroke-width:1;stroke-linecap:round;stroke-linejoin:round;stroke-miterlimit:4;stroke-dasharray:none;stroke-opacity:1"
           id="path1326"
           inkscape:connector-curvature="0" /><path
           d="m 7.00732,-188.44629 c 0,0 0.85987,2.66699 1.63379,5.24707 0.77442,2.58008 0.60205,4.4707 -0.81689,7.396 -1.41895,2.9248 -6.66602,11.69775 -6.66602,11.69775"
           style="fill:none;stroke:#231f20;stroke-width:0.25;stroke-linecap:round;stroke-linejoin:round;stroke-miterlimit:4;stroke-dasharray:none;stroke-opacity:1"
           id="path1328"
           inkscape:connector-curvature="0" /><path
           d="m 11.91016,-188.79053 c 0,0 0.43017,1.03223 1.03173,3.61182 0.60206,2.58105 2.1504,2.83935 4.98926,3.26904 2.83789,0.43018 36.03906,4.98926 37.06983,5.16113"
           style="fill:none;stroke:#231f20;stroke-width:0.25;stroke-linecap:round;stroke-linejoin:round;stroke-miterlimit:4;stroke-dasharray:none;stroke-opacity:1"
           id="path1330"
           inkscape:connector-curvature="0" /><path
           d="m 1.93262,-155.41846 c 0,0 8.68799,-16.16894 9.97802,-18.57812 1.29004,-2.40869 4.72999,-3.18311 6.53614,-2.75293 1.80566,0.43115 29.75976,4.64502 35.60888,5.59082 5.84815,0.94629 10.14795,1.80615 12.38477,4.30127"
           style="fill:none;stroke:#231f20;stroke-width:0.25;stroke-linecap:round;stroke-linejoin:round;stroke-miterlimit:4;stroke-dasharray:none;stroke-opacity:1"
           id="path1332"
           inkscape:connector-curvature="0" /><path
           d="m 5.12793,-154.90234 c 0,0 24.75879,2.92382 34.39209,3.69775 9.63184,0.77539 15.91211,3.69824 20.72803,9.80518"
           style="fill:none;stroke:#231f20;stroke-width:0.25;stroke-linecap:round;stroke-linejoin:round;stroke-miterlimit:4;stroke-dasharray:none;stroke-opacity:1"
           id="path1334"
           inkscape:connector-curvature="0" /><path
           d="m 1.93262,-148.5376 c 0,0 18.92187,3.35401 29.33008,5.41797 10.40673,2.06494 16.34179,5.16211 18.57812,6.62402 2.23682,1.46094 9.97656,2.66602 11.00879,0 1.0332,-2.66699 8.77295,-23.93798 11.09619,-29.64502 2.32178,-5.70605 8.60059,-12.36816 8.60059,-12.36816 2.23632,-2.79883 0.68945,-5.1206 2.4082,-7.78662 1.72021,-2.66699 2.9248,-3.87109 2.9248,-3.87109"
           style="fill:none;stroke:#231f20;stroke-width:0.25;stroke-linecap:round;stroke-linejoin:round;stroke-miterlimit:4;stroke-dasharray:none;stroke-opacity:1"
           id="path1336"
           inkscape:connector-curvature="0" /><path
           d="m 63.34424,-174.08252 c 1.03174,-1.80615 1.54883,-2.75195 4.81689,-3.26904 3.26807,-0.51612 8.85791,-2.92383 6.70801,-11.09473"
           style="fill:none;stroke:#231f20;stroke-width:0.5;stroke-linecap:round;stroke-linejoin:round;stroke-miterlimit:4;stroke-dasharray:none;stroke-opacity:1"
           id="path1338"
           inkscape:connector-curvature="0" /><path
           d="m 94.05029,-190.1665 c 0,0 1.54785,7.82714 1.03223,13.89111"
           style="fill:none;stroke:#231f20;stroke-width:0.25;stroke-linecap:round;stroke-linejoin:round;stroke-miterlimit:4;stroke-dasharray:none;stroke-opacity:1"
           id="path1340"
           inkscape:connector-curvature="0" /><path
           d="m 112.54199,-190.51074 c 0.17188,2.92676 -0.17187,5.84912 -0.77392,7.74121 -0.60205,1.8916 0.81787,2.23682 0.81787,2.23682"
           style="fill:none;stroke:#231f20;stroke-width:0.5;stroke-linecap:round;stroke-linejoin:round;stroke-miterlimit:4;stroke-dasharray:none;stroke-opacity:1"
           id="path1342"
           inkscape:connector-curvature="0" /><path
           d="m 112.58643,-187.15625 c 0,0 2.10595,2.23584 5.375,2.66699 3.26806,0.43018 4.729,0.51514 7.39599,0.77295 2.66699,0.25928 5.25098,4.55908 0,7.99902 -2.61084,1.71045 -7.61279,5.27051 -11.60254,8.14112"
           style="fill:none;stroke:#231f20;stroke-width:0.5;stroke-linecap:round;stroke-linejoin:round;stroke-miterlimit:4;stroke-dasharray:none;stroke-opacity:1"
           id="path1344"
           inkscape:connector-curvature="0" /><path
           d="m 65.64014,-119.95264 c 0,0 26.74511,5.36719 36.94873,7.10498 10.20508,1.73877 30.12011,0.35987 27.33496,-13.84619"
           style="fill:none;stroke:#231f20;stroke-width:0.5;stroke-linecap:round;stroke-linejoin:round;stroke-miterlimit:4;stroke-dasharray:none;stroke-opacity:1"
           id="path1346"
           inkscape:connector-curvature="0" /><path
           d="m 124.16943,-127.70459 c -1.06103,5.31494 -8.91797,8.2251 -17.54589,6.50195 -8.62793,-1.72314 -14.76416,-7.42675 -13.70313,-12.7417"
           style="fill:none;stroke:#231f20;stroke-width:0.5;stroke-linecap:round;stroke-linejoin:round;stroke-miterlimit:4;stroke-dasharray:none;stroke-opacity:1"
           id="path1348"
           inkscape:connector-curvature="0" /><path
           d="m 92.40039,-132.18945 c 0,0 0.35938,-1.80176 0.35938,-1.80176 1.07226,-5.37012 9.01025,-8.31104 17.729,-6.56983 8.71924,1.74073 14.91943,7.50586 13.84619,12.87403"
           style="fill:none;stroke:#231f20;stroke-width:1;stroke-linecap:round;stroke-linejoin:round;stroke-miterlimit:4;stroke-dasharray:none;stroke-opacity:1"
           id="path1350"
           inkscape:connector-curvature="0" /><path
           d="m 129.41699,-115.91553 c 0,0 10.61231,13.98096 10.61231,13.98096 0,0 -3.8877,8.20605 -18.32422,11.10547"
           style="fill:none;stroke:#231f20;stroke-width:0.25;stroke-linecap:round;stroke-linejoin:round;stroke-miterlimit:4;stroke-dasharray:none;stroke-opacity:1"
           id="path1352"
           inkscape:connector-curvature="0" /><path
           d="m 110.29102,-91.5498 c -1.66602,-0.90528 -7.95899,-3.4751 -14.86914,-5.75782 -6.90967,-2.2832 -9.99805,-6.95996 -9.99805,-6.95996 0,0 0.6914,3.50293 4.4292,6.81104 3.73877,3.30713 9.72021,8.29052 9.72021,8.29052"
           style="fill:none;stroke:#231f20;stroke-width:0.25;stroke-linecap:round;stroke-linejoin:round;stroke-miterlimit:4;stroke-dasharray:none;stroke-opacity:1"
           id="path1354"
           inkscape:connector-curvature="0" /><path
           d="m 97.14941,-101.97852 c 4.56592,1.52393 14.94483,3.86914 22.89698,9.4834 0,0 12.8872,-2.71435 17.51513,-9.19238 0,0 -8.70019,-11.61377 -8.70019,-11.61377"
           style="fill:none;stroke:#231f20;stroke-width:0.25;stroke-linecap:round;stroke-linejoin:round;stroke-miterlimit:4;stroke-dasharray:none;stroke-opacity:1"
           id="path1356"
           inkscape:connector-curvature="0" /><path
           d="m 129.59277,-116.80615 c 5.37793,2.4082 13.52149,8.85498 14.2627,17.70898 0,0 15.19043,20.87647 26.24707,48.62744 6.14258,15.41797 9.80371,33.25293 11.40918,50.21875"
           style="fill:none;stroke:#231f20;stroke-width:0.5;stroke-linecap:round;stroke-linejoin:round;stroke-miterlimit:4;stroke-dasharray:none;stroke-opacity:1"
           id="path1358"
           inkscape:connector-curvature="0" /><path
           d="m 119.72021,-188.77246 c 0,0 0.74415,4.58691 0.74415,4.58691"
           style="fill:none;stroke:#231f20;stroke-width:0.5;stroke-linecap:round;stroke-linejoin:round;stroke-miterlimit:4;stroke-dasharray:none;stroke-opacity:1"
           id="path1360"
           inkscape:connector-curvature="0" /><path
           d="m 136.58984,-184.18555 c 0,0 -3.0957,1.23096 -3.0957,1.23096 0,0 -0.0508,2.66992 0.0859,7.07178 0.12207,3.91943 -5.25879,5.95898 -8.85449,3.90918"
           style="fill:none;stroke:#231f20;stroke-width:0.25;stroke-linecap:round;stroke-linejoin:round;stroke-miterlimit:4;stroke-dasharray:none;stroke-opacity:1"
           id="path1362"
           inkscape:connector-curvature="0" /><path
           d="m 133.49414,-182.9541 c 1.0127,0.94726 1.8252,2.1958 2.29785,3.66406 1.32715,4.11719 -0.59863,8.31299 -4.20117,9.4751"
           style="fill:none;stroke:#231f20;stroke-width:0.25;stroke-linecap:round;stroke-linejoin:round;stroke-miterlimit:4;stroke-dasharray:none;stroke-opacity:1"
           id="path1364"
           inkscape:connector-curvature="0" /><path
           d="m 136.25195,-188.52637 c 0,0.30811 0.67578,4.34082 0.67578,4.34082 1.08594,0.96338 1.80762,2.31494 2.30567,3.85938 1.32715,4.1167 -0.51758,8.39599 -4.12012,9.55664 0,0 -3.4414,1.03613 -3.4414,1.03613 -2.40918,0.77686 -4.92872,-0.11377 -6.77442,-1.97119 -0.87353,-0.49756 -1.64062,-1.22363 -2.19775,-2.21289"
           style="fill:none;stroke:#231f20;stroke-width:0.5;stroke-linecap:round;stroke-linejoin:round;stroke-miterlimit:4;stroke-dasharray:none;stroke-opacity:1"
           id="path1366"
           inkscape:connector-curvature="0" /><path
           d="m 23.82031,-95.11328 c -13.51904,-7.46582 -20.44677,-20.87012 -15.5,-30.22315"
           style="fill:none;stroke:#231f20;stroke-width:0.25;stroke-linecap:round;stroke-linejoin:round;stroke-miterlimit:4;stroke-dasharray:none;stroke-opacity:1"
           id="path1368"
           inkscape:connector-curvature="0" /><path
           d="m 23.74463,-105.04395 c -6.64697,-5.43994 -9.59522,-13.00293 -6.65723,-18.55908 0.07813,-0.14697 0.15918,-0.29199 0.24414,-0.43408"
           style="fill:none;stroke:#231f20;stroke-width:0.5;stroke-linecap:round;stroke-linejoin:round;stroke-miterlimit:4;stroke-dasharray:none;stroke-opacity:1"
           id="path1370"
           inkscape:connector-curvature="0" /><path
           d="m 17.33203,-124.03662 c 3.81201,-6.38281 14.51221,-7.44287 24.23682,-2.29883 5.93603,3.13867 10.16601,7.88086 11.84814,12.63184"
           style="fill:none;stroke:#231f20;stroke-width:0.25;stroke-linecap:round;stroke-linejoin:round;stroke-miterlimit:4;stroke-dasharray:none;stroke-opacity:1"
           id="path1372"
           inkscape:connector-curvature="0" /><path
           d="m 23.67773,-112.13232 c -1.49023,-2.66602 -1.80712,-5.48487 -0.59326,-7.78174 2.35205,-4.44629 9.55323,-5.25 16.08545,-1.79639 1.86279,0.98633 3.47168,2.2124 4.7627,3.56494"
           style="fill:none;stroke:#231f20;stroke-width:0.5;stroke-linecap:round;stroke-linejoin:round;stroke-miterlimit:4;stroke-dasharray:none;stroke-opacity:1"
           id="path1374"
           inkscape:connector-curvature="0" /><path
           d="m 0.8335,-101.66602 c 0,0 5.66015,-2.65478 9.01318,0.3501 3.354,3.00391 10.20068,8.5249 19.56396,11.4585"
           style="fill:none;stroke:#231f20;stroke-width:0.5;stroke-linecap:round;stroke-linejoin:round;stroke-miterlimit:4;stroke-dasharray:none;stroke-opacity:1"
           id="path1376"
           inkscape:connector-curvature="0" /><path
           d="m 15.57568,-139.53955 c -11.31884,2.93799 -12.75781,11.04297 -14.06396,13.48877"
           style="fill:none;stroke:#231f20;stroke-width:0.25;stroke-linecap:round;stroke-linejoin:round;stroke-miterlimit:4;stroke-dasharray:none;stroke-opacity:1"
           id="path1378"
           inkscape:connector-curvature="0" /><path
           d="m 0.8335,-116.19873 c 1.25683,4.40185 2.72509,8.17383 6.35791,12.43701"
           style="fill:none;stroke:#231f20;stroke-width:0.25;stroke-linecap:round;stroke-linejoin:round;stroke-miterlimit:4;stroke-dasharray:none;stroke-opacity:1"
           id="path1380"
           inkscape:connector-curvature="0" /><path
           d="m 27.78809,-117.30127 c -1.45508,0.88623 -2.51075,1.98975 -2.50977,3.19482 0,0.98633 0.57861,1.90918 1.58691,2.69727 0,0 12.07081,10.10693 13.8711,11.37695 1.79883,1.27002 20.17676,13.5459 24.90381,16.50879 4.72705,2.96289 10.65381,6.77246 12.55908,12.48731 1.90381,5.71484 4.18603,13.33496 7.2251,16.93261"
           style="fill:none;stroke:#231f20;stroke-width:0.25;stroke-linecap:round;stroke-linejoin:round;stroke-miterlimit:4;stroke-dasharray:none;stroke-opacity:1"
           id="path1382"
           inkscape:connector-curvature="0" /><path
           d="m 8.17236,-125.17676 c 5.02784,-9.50683 20.42725,-11.22705 34.39307,-3.83984 5.72314,3.02685 10.06787,7.29687 13.3999,11.53564 1.00196,1.27637 1.85205,1.60303 2.70899,1.76612 0,0 7.74609,2.0122 7.74609,2.0122"
           style="fill:none;stroke:#231f20;stroke-width:0.5;stroke-linecap:round;stroke-linejoin:round;stroke-miterlimit:4;stroke-dasharray:none;stroke-opacity:1"
           id="path1384"
           inkscape:connector-curvature="0" /><path
           d="m 75.61084,-106.42529 c 0,0 -1.01025,4.27588 2.90479,7.97998 3.91601,3.7041 9.73632,8.72851 11.32421,10.13183 1.58692,1.40332 2.76612,3.50782 2.76612,3.50782"
           style="fill:none;stroke:#231f20;stroke-width:0.5;stroke-linecap:round;stroke-linejoin:round;stroke-miterlimit:4;stroke-dasharray:none;stroke-opacity:1"
           id="path1386"
           inkscape:connector-curvature="0" /><path
           d="m 61.90967,-114.82227 c 0,0 -3.91797,0.71485 -6.08887,1.11914 -1.58008,0.29395 -4.12207,0.02 -5.65918,-0.83691 -1.53711,-0.85644 -4.76904,-2.67725 -4.76904,-2.67725 -2.02881,-1.29199 -5.29199,-2.12988 -8.96973,-2.12988 -3.59228,0 -6.78711,0.79883 -8.82519,2.04004 0,0 0.0039,0.006 0.0039,0.006 -2.87597,1.68604 -3.85693,3.29102 -3.85693,6.52295 0,3.23193 -0.01416,8.84082 0.07617,11.69824 0.08887,2.85791 -0.12012,3.94678 2.73486,6.58496 2.85401,2.6377 7.30225,7.21387 10.3711,9.8916 3.06787,2.67676 3.7251,2.63965 8.14795,5.42969 4.42285,2.78906 11.11181,7.30078 17.46093,11.95801 6.3501,4.65723 8.57227,8.7832 8.25489,12.69922 0,0 -0.44287,2.2666 0.4292,3.26562 1.03418,1.18555 2.479,3.10352 3.36181,4.2461 0.88428,1.14258 1.83301,0.94726 2.65235,0.7539"
           style="fill:none;stroke:#231f20;stroke-width:0.5;stroke-linecap:round;stroke-linejoin:round;stroke-miterlimit:4;stroke-dasharray:none;stroke-opacity:1"
           id="path1388"
           inkscape:connector-curvature="0" /><path
           d="m 76.43555,-45.11328 c 0,0 0.47509,0.0791 1.14306,1.00976 0.66797,0.93067 2.00391,2.6543 2.77979,3.73243 0.77588,1.07812 1.93994,1.07812 2.82422,0.73339 0.88379,-0.34472 3.03906,-1.24902 3.81494,-1.59472 0.77588,-0.34571 1.16406,-1.04102 1.16406,-1.04102 0,0 1.66504,-6.85644 1.66504,-6.85644"
           style="fill:none;stroke:#231f20;stroke-width:0.5;stroke-linecap:round;stroke-linejoin:round;stroke-miterlimit:4;stroke-dasharray:none;stroke-opacity:1"
           id="path1390"
           inkscape:connector-curvature="0" /><path
           d="m 66.07275,-81.72559 c 3.47901,3.14258 8.00098,7.42969 9.4209,11.63672 1.41992,4.20703 2.40088,7.19824 3.61524,11.16211 1.21289,3.96387 4.27685,7.76953 4.27685,7.76953"
           style="fill:none;stroke:#231f20;stroke-width:0.25;stroke-linecap:round;stroke-linejoin:round;stroke-miterlimit:4;stroke-dasharray:none;stroke-opacity:1"
           id="path1392"
           inkscape:connector-curvature="0" /><path
           d="m 86.99951,-53.53809 c -0.54199,0.25489 -1.15722,0.53223 -1.57519,0.68164 -0.90577,0.32422 -1.7959,0.89161 -2.03858,2.50879 -0.24219,1.61719 -1.78027,9.87012 -1.78027,9.87012"
           style="fill:none;stroke:#231f20;stroke-width:0.25;stroke-linecap:round;stroke-linejoin:round;stroke-miterlimit:4;stroke-dasharray:none;stroke-opacity:1"
           id="path1394"
           inkscape:connector-curvature="0" /><path
           d="m 88.67041,-43.96484 c 0.04688,0.06347 0.09277,0.12793 0.13721,0.18847 0.77588,1.0791 1.93994,1.0791 2.82275,0.73438 0.75684,-0.29492 1.62012,-0.64746 2.57715,-1.06153"
           style="fill:none;stroke:#231f20;stroke-width:0.5;stroke-linecap:round;stroke-linejoin:round;stroke-miterlimit:4;stroke-dasharray:none;stroke-opacity:1"
           id="path1396"
           inkscape:connector-curvature="0" /><path
           d="m 90.80762,-47.2334 c -0.50489,2.28809 -0.75293,3.35156 -0.75293,3.35156"
           style="fill:none;stroke:#231f20;stroke-width:0.25;stroke-linecap:round;stroke-linejoin:round;stroke-miterlimit:4;stroke-dasharray:none;stroke-opacity:1"
           id="path1398"
           inkscape:connector-curvature="0" /><path
           d="m 80.63428,-105.29932 c 1.6831,2.03711 2.32617,2.85401 3.14404,5.36621 0.81689,2.51172 0.93408,5.08301 4.32178,8.06202 3.38916,2.97949 6.36719,5.69824 6.36719,5.69824"
           style="fill:none;stroke:#231f20;stroke-width:0.5;stroke-linecap:round;stroke-linejoin:round;stroke-miterlimit:4;stroke-dasharray:none;stroke-opacity:1"
           id="path1400"
           inkscape:connector-curvature="0" /><path
           d="m 84.27881,-104.5166 c 0.69678,2.35889 1.00195,4.78808 4.17187,7.57617 3.38916,2.97949 9.81495,8.62695 9.81495,8.62695"
           style="fill:none;stroke:#231f20;stroke-width:0.25;stroke-linecap:round;stroke-linejoin:round;stroke-miterlimit:4;stroke-dasharray:none;stroke-opacity:1"
           id="path1402"
           inkscape:connector-curvature="0" /><path
           d="m 152.47461,-51.74121 c -5.18848,12.7793 -23.8418,17.27148 -41.66211,10.03613 -17.82275,-7.23535 -28.06592,-23.45898 -22.87793,-36.23633"
           style="fill:none;stroke:#231f20;stroke-width:0.25;stroke-linecap:round;stroke-linejoin:round;stroke-miterlimit:4;stroke-dasharray:none;stroke-opacity:1"
           id="path1404"
           inkscape:connector-curvature="0" /><path
           d="m 150.16699,-45.42871 c -5.1875,12.7793 -23.84179,17.27148 -41.66211,10.03613 -17.82275,-7.23535 -28.06592,-23.45898 -22.87793,-36.23633 0,0 2.30811,-6.3125 2.30811,-6.3125 5.18799,-12.77832 23.83984,-17.2705 41.6626,-10.03515 17.82129,7.23535 28.06543,23.45898 22.87695,36.23535 0,0 -2.30762,6.3125 -2.30762,6.3125 z"
           style="fill:none;stroke:#231f20;stroke-width:0.5;stroke-linecap:round;stroke-linejoin:round;stroke-miterlimit:4;stroke-dasharray:none;stroke-opacity:1"
           id="path1406"
           inkscape:connector-curvature="0" /><path
           d="m 0.5,-45.55762 c 0,0 9.82617,-12.30566 14.771,-20.88379 4.9458,-8.57812 14.13916,-23.41601 14.13916,-23.41601"
           style="fill:none;stroke:#231f20;stroke-width:0.5;stroke-linecap:round;stroke-linejoin:round;stroke-miterlimit:4;stroke-dasharray:none;stroke-opacity:1"
           id="path1408"
           inkscape:connector-curvature="0" /><path
           d="m 2.37207,-43.4707 c 0,0 9.82617,-12.30567 14.771,-20.88379 4.9458,-8.57813 14.13916,-23.41602 14.13916,-23.41602"
           style="fill:none;stroke:#231f20;stroke-width:0.25;stroke-linecap:round;stroke-linejoin:round;stroke-miterlimit:4;stroke-dasharray:none;stroke-opacity:1"
           id="path1410"
           inkscape:connector-curvature="0" /><path
           d="m 44.70801,-77.40332 c 0,0 -28.89893,46.77539 -28.89893,46.77539 C 10.9502,-22.35742 3.95996,-13.4668 1.51123,-9.43555"
           style="fill:none;stroke:#231f20;stroke-width:0.5;stroke-linecap:round;stroke-linejoin:round;stroke-miterlimit:4;stroke-dasharray:none;stroke-opacity:1"
           id="path1412"
           inkscape:connector-curvature="0" /><path
           d="m 87.62988,-41.64746 c 0,0 8.50098,40.48242 8.50098,40.48242"
           style="fill:none;stroke:#231f20;stroke-width:0.5;stroke-linecap:round;stroke-linejoin:round;stroke-miterlimit:4;stroke-dasharray:none;stroke-opacity:1"
           id="path1414"
           inkscape:connector-curvature="0" /><path
           d="m 97.52393,-41.64746 c 0,0 8.63476,39.86133 8.63476,39.86133"
           style="fill:none;stroke:#231f20;stroke-width:0.5;stroke-linecap:round;stroke-linejoin:round;stroke-miterlimit:4;stroke-dasharray:none;stroke-opacity:1"
           id="path1416"
           inkscape:connector-curvature="0" /><path
           d="m 101.84131,-38.24902 c 0,0 1.54101,7.00097 1.54101,7.00097"
           style="fill:none;stroke:#231f20;stroke-width:0.25;stroke-linecap:round;stroke-linejoin:round;stroke-miterlimit:4;stroke-dasharray:none;stroke-opacity:1"
           id="path1418"
           inkscape:connector-curvature="0" /><path
           d="m 152.25,-43.68066 c 1.34277,-3.58301 1.95605,-7.97071 1.57324,-13.31934"
           style="fill:none;stroke:#231f20;stroke-width:0.25;stroke-linecap:round;stroke-linejoin:round;stroke-miterlimit:4;stroke-dasharray:none;stroke-opacity:1"
           id="path1420"
           inkscape:connector-curvature="0" /><path
           d="m 103.5752,-31.24805 c 0,0 1.51513,-1.67383 5.24316,-0.24218 8.02978,3.083 36.22949,7.03027 43.43164,-12.19043"
           style="fill:none;stroke:#231f20;stroke-width:0.5;stroke-linecap:round;stroke-linejoin:round;stroke-miterlimit:4;stroke-dasharray:none;stroke-opacity:1"
           id="path1422"
           inkscape:connector-curvature="0" /><path
           d="m 104.8457,-30.58301 c 0,0 4.917,28.79688 4.917,28.79688"
           style="fill:none;stroke:#231f20;stroke-width:0.25;stroke-linecap:round;stroke-linejoin:round;stroke-miterlimit:4;stroke-dasharray:none;stroke-opacity:1"
           id="path1424"
           inkscape:connector-curvature="0" /><path
           d="m 108.81836,-30.58301 c 0,0 5.27685,28.79688 5.27685,28.79688"
           style="fill:none;stroke:#231f20;stroke-width:0.25;stroke-linecap:round;stroke-linejoin:round;stroke-miterlimit:4;stroke-dasharray:none;stroke-opacity:1"
           id="path1426"
           inkscape:connector-curvature="0" /><path
           d="m 0.5,-65.4707 c 0,0 23.31982,-25.96192 23.31982,-25.96192"
           style="fill:none;stroke:#231f20;stroke-width:0.25;stroke-linecap:round;stroke-linejoin:round;stroke-miterlimit:4;stroke-dasharray:none;stroke-opacity:1"
           id="path1428"
           inkscape:connector-curvature="0" /><path
           d="m 29.41016,-52.64258 c 0,0 41.34375,2.30274 41.34375,2.30274"
           style="fill:none;stroke:#231f20;stroke-width:0.5;stroke-linecap:round;stroke-linejoin:round;stroke-miterlimit:4;stroke-dasharray:none;stroke-opacity:1"
           id="path1430"
           inkscape:connector-curvature="0" /><path
           d="m 7.19141,-17.64551 c 0,0 57.1372,17.39551 57.1372,17.39551"
           style="fill:none;stroke:#231f20;stroke-width:0.5;stroke-linecap:round;stroke-linejoin:round;stroke-miterlimit:4;stroke-dasharray:none;stroke-opacity:1"
           id="path1432"
           inkscape:connector-curvature="0" /><path
           d="m 5.12793,-14.74512 c 0,0 41.36475,12.63184 41.36475,12.63184"
           style="fill:none;stroke:#231f20;stroke-width:0.25;stroke-linecap:round;stroke-linejoin:round;stroke-miterlimit:4;stroke-dasharray:none;stroke-opacity:1"
           id="path1434"
           inkscape:connector-curvature="0" /><path
           d="m 127.02637,-83.27246 c 0,0 -0.16797,0.5625 -0.16797,0.5625 -0.74512,-0.16797 -1.2793,-0.23535 -1.60352,-0.20215 -0.32422,0.03516 -0.625,0.25684 -0.90429,0.66406 0,0 -0.79737,-0.24023 -0.79737,-0.24023 0,0 1.7544,-5.81152 1.7544,-5.81152 0,0 1.07617,0.32519 1.07617,0.32519 0,0 -1.24707,4.13184 -1.24707,4.13184 0,0 1.88965,0.57031 1.88965,0.57031 z"
           style="fill:none;stroke:#231f20;stroke-width:0.25;stroke-linecap:butt;stroke-linejoin:miter;stroke-miterlimit:4;stroke-dasharray:none;stroke-opacity:1"
           id="path1436"
           inkscape:connector-curvature="0" /><path
           d="m 148.43848,-65.02539 c -0.73535,-0.2959 -1.5625,-0.86133 -2.47852,-1.69531 0,0 -1.36719,-1.2461 -1.36719,-1.2461 -0.61523,-0.55859 -1.09472,-0.95019 -1.44043,-1.17773 -0.54199,-0.3584 -1.04101,-0.54199 -1.49707,-0.55078 -0.53125,-0.01172 -0.87011,0.13965 -1.01074,0.45312 -0.14258,0.31348 -0.0684,0.73926 0.21582,1.27149 0.42481,0.79101 1.0166,1.34375 1.77442,1.66015 0.4082,0.16992 0.90039,0.26856 1.47656,0.29688 0,0 0.62988,1.17383 0.62988,1.17383 -0.80371,-0.0293 -1.53125,-0.18946 -2.18359,-0.4834 -1.15528,-0.51953 -2.06836,-1.41114 -2.74512,-2.67481 -0.56445,-1.05273 -0.69238,-1.8164 -0.38867,-2.28808 0.30664,-0.47266 0.80762,-0.70117 1.5,-0.68653 0.73242,0.01563 1.49609,0.28614 2.29297,0.81446 0.46093,0.30566 1.11328,0.84961 1.95898,1.63379 0,0 0.95508,0.88769 0.95508,0.88769 0.4541,0.42285 0.84766,0.75781 1.18555,1.00195 0.59863,0.43262 1.15234,0.71094 1.66504,0.83204 0,0 -2.68653,-5.01172 -2.68653,-5.01172 0,0 1.08594,0.02343 1.08594,0.02343 0,0 3.37402,6.30079 3.37402,6.30079 -0.80957,-0.05957 -1.58105,-0.23926 -2.3164,-0.53516 z"
           style="fill:none;stroke:#231f20;stroke-width:0.25;stroke-linecap:butt;stroke-linejoin:miter;stroke-miterlimit:4;stroke-dasharray:none;stroke-opacity:1"
           id="path1438"
           inkscape:connector-curvature="0" /><path
           d="m 135.40723,-43.25293 c -0.65723,-0.39062 -1.16309,-0.99219 -1.51758,-1.80762 0,0 1.00976,-0.43847 1.00976,-0.43847 0.28907,0.54687 0.56055,0.91797 0.81641,1.11328 0.45117,0.35156 1.00391,0.38379 1.65918,0.09863 0.50879,-0.2207 0.85059,-0.55273 1.02344,-0.99609 0.17383,-0.44434 0.15429,-0.91016 -0.0586,-1.39844 -0.26269,-0.60352 -0.60644,-0.95508 -1.03515,-1.05469 -0.42871,-0.09863 -0.93262,-0.02344 -1.50879,0.22754 -0.0644,0.02832 -0.12793,0.05664 -0.19434,0.08789 -0.0654,0.03027 -0.13183,0.06445 -0.19824,0.09668 0,0 -0.42187,-0.97168 -0.42187,-0.97168 0.10546,-0.03125 0.19238,-0.05957 0.26269,-0.08496 0.0693,-0.02539 0.14453,-0.05566 0.22363,-0.08984 0.36133,-0.15723 0.62989,-0.35157 0.80664,-0.58301 0.30957,-0.40527 0.33594,-0.90234 0.0811,-1.48828 -0.18945,-0.43653 -0.47168,-0.71387 -0.84668,-0.83106 -0.37402,-0.11816 -0.74316,-0.09863 -1.10547,0.0586 -0.64453,0.28027 -0.98437,0.71777 -1.01855,1.31543 -0.0195,0.32714 0.0703,0.74316 0.26757,1.24902 0,0 -0.95703,0.41602 -0.95703,0.41602 -0.2832,-0.65235 -0.4082,-1.25586 -0.37793,-1.8125 0.04,-0.98536 0.55567,-1.69532 1.54785,-2.12598 0.78516,-0.34082 1.47852,-0.40625 2.08106,-0.19629 0.60351,0.21094 1.06836,0.69238 1.39551,1.44629 0.2334,0.53906 0.2959,1.0293 0.18652,1.47363 -0.0664,0.27735 -0.20019,0.52832 -0.39941,0.75488 0.45898,-0.04882 0.88183,0.05665 1.2666,0.31836 0.38379,0.26172 0.68847,0.6543 0.91504,1.17481 0.36328,0.83496 0.41699,1.62109 0.16211,2.35742 -0.25489,0.73438 -0.82715,1.2959 -1.71582,1.68262 -0.91016,0.39551 -1.69239,0.39746 -2.34961,0.0078 z"
           style="fill:none;stroke:#231f20;stroke-width:0.25;stroke-linecap:butt;stroke-linejoin:miter;stroke-miterlimit:4;stroke-dasharray:none;stroke-opacity:1"
           id="path1440"
           inkscape:connector-curvature="0" /><path
           d="m 102.73486,-54.70898 c 0,0 2.60108,-3.6211 2.60108,-3.6211 0,0 -4.78614,2.05176 -4.78614,2.05176 0,0 2.18506,1.56934 2.18506,1.56934 z m -2.01416,2.833 c 0,0 1.40039,-1.94922 1.40039,-1.94922 0,0 -2.98925,-2.14648 -2.98925,-2.14648 0,0 0.7041,-0.97949 0.7041,-0.97949 0,0 6.76074,-2.82422 6.76074,-2.82422 0,0 0.72314,0.51953 0.72314,0.51953 0,0 -3.71386,5.17188 -3.71386,5.17188 0,0 1.0039,0.72168 1.0039,0.72168 0,0 -0.62793,0.87402 -0.62793,0.87402 0,0 -1.0039,-0.72168 -1.0039,-0.72168 0,0 -1.3999,1.94922 -1.3999,1.94922 0,0 -0.85743,-0.61524 -0.85743,-0.61524 z"
           style="fill:none;stroke:#231f20;stroke-width:0.25;stroke-linecap:butt;stroke-linejoin:miter;stroke-miterlimit:4;stroke-dasharray:none;stroke-opacity:1"
           id="path1442"
           inkscape:connector-curvature="0" /><path
           d="m 96.25635,-82.95898 c -0.54395,-0.17969 -1.05713,-0.09766 -1.53809,0.24218 -0.24707,0.17578 -0.4668,0.40918 -0.66113,0.70117 -0.36963,0.55567 -0.47803,1.04786 -0.32275,1.47559 0.1538,0.42774 0.4331,0.73926 0.83789,0.93457 0.49023,0.23633 0.97412,0.25879 1.45312,0.07227 0.47998,-0.19043 0.8667,-0.50684 1.16309,-0.95118 0.21484,-0.32226 0.33984,-0.6289 0.37695,-0.91601 0.03711,-0.28711 0.0049,-0.56445 -0.09522,-0.82813 0,0 0.58594,-0.79394 0.58594,-0.79394 0,0 3.39405,2.39062 3.39405,2.39062 0,0 -2.58204,3.87696 -2.58204,3.87696 0,0 -0.85205,-0.41016 -0.85205,-0.41016 0,0 2.11426,-3.17383 2.11426,-3.17383 0,0 -1.73584,-1.25781 -1.73584,-1.25781 0.0078,0.2334 -0.0093,0.44434 -0.05127,0.62891 -0.07812,0.33105 -0.23681,0.67773 -0.47998,1.04101 -0.45605,0.68555 -1.04883,1.16602 -1.78076,1.44238 -0.73145,0.2754 -1.41504,0.26075 -2.05127,-0.04589 -0.66211,-0.32032 -1.10205,-0.81934 -1.31689,-1.49903 -0.21485,-0.67968 -0.0039,-1.49804 0.63183,-2.45312 0.40527,-0.60938 0.92334,-1.06836 1.55713,-1.37988 0.63184,-0.3125 1.29981,-0.33692 2.00098,-0.07129 0,0 -0.64795,0.97461 -0.64795,0.97461 z"
           style="fill:none;stroke:#231f20;stroke-width:0.25;stroke-linecap:butt;stroke-linejoin:miter;stroke-miterlimit:4;stroke-dasharray:none;stroke-opacity:1"
           id="path1444"
           inkscape:connector-curvature="0" /></g></g><g
       id="g1446"
       transform="scale(1,-1)"><path
         d="m 122.80371,-153.49414 c -0.77441,3.87891 -6.50976,6.00391 -12.80762,4.74609 -6.29882,-1.25781 -10.77636,-5.4209 -10.00293,-9.30078"
         style="fill:none;stroke:#231f20;stroke-width:1;stroke-linecap:round;stroke-linejoin:round;stroke-miterlimit:4;stroke-dasharray:none;stroke-opacity:1"
         id="path1448"
         inkscape:connector-curvature="0" /><path
         d="m 99.99316,-158.04883 c 0.77539,-3.87793 6.50879,-6.00293 12.8086,-4.74609 6.29687,1.25928 10.77637,5.42187 10.00195,9.30078"
         style="fill:none;stroke:#231f20;stroke-width:0.5;stroke-linecap:round;stroke-linejoin:round;stroke-miterlimit:4;stroke-dasharray:none;stroke-opacity:1"
         id="path1450"
         inkscape:connector-curvature="0" /><path
         d="m 100.48535,-155.48438 c 2.26172,-2.11718 6.61328,-3.03906 11.27735,-2.10742 4.66796,0.93164 8.33789,3.46192 9.60937,6.28907"
         style="fill:none;stroke:#231f20;stroke-width:0.5;stroke-linecap:round;stroke-linejoin:round;stroke-miterlimit:4;stroke-dasharray:none;stroke-opacity:1"
         id="path1452"
         inkscape:connector-curvature="0" /><path
         d="m 127.0127,-152.60156 c -1.06055,5.31543 -8.91797,8.22558 -17.54493,6.50195 -8.6289,-1.72266 -14.76464,-7.42578 -13.70312,-12.74121"
         style="fill:none;stroke:#231f20;stroke-width:0.5;stroke-linecap:round;stroke-linejoin:round;stroke-miterlimit:4;stroke-dasharray:none;stroke-opacity:1"
         id="path1454"
         inkscape:connector-curvature="0" /><path
         d="m 108.87793,-143.15234 c -8.71875,-1.74024 -14.91797,-7.50391 -13.8457,-12.875 0,0 0.57129,-2.86036 0.57129,-2.86036 1.07226,-5.37011 9.01074,-8.31103 17.72949,-6.56982 8.71875,1.74072 14.91894,7.50635 13.8457,12.87354 0,0 -0.57129,2.8623 -0.57129,2.8623 -1.07129,5.37012 -9.00976,8.31152 -17.72949,6.56934"
         style="fill:none;stroke:#231f20;stroke-width:1;stroke-linecap:round;stroke-linejoin:round;stroke-miterlimit:4;stroke-dasharray:none;stroke-opacity:1"
         id="path1456"
         inkscape:connector-curvature="0" /><path
         d="m 93.13086,-131.35986 c 2.04834,-4.30762 9.11133,-6.50782 16.79785,-4.97412 7.28223,1.45654 12.76074,5.79101 13.51709,10.29492"
         style="fill:none;stroke:#231f20;stroke-width:0.5;stroke-linecap:round;stroke-linejoin:round;stroke-miterlimit:4;stroke-dasharray:none;stroke-opacity:1"
         id="path1458"
         inkscape:connector-curvature="0" /><path
         d="m 117.46973,-127.93066 c -0.23194,2.37695 -4.63575,3.89306 -9.83545,3.38427 -5.19971,-0.5083 -9.22803,-2.84668 -8.99414,-5.22412 0.23193,-2.37744 4.63574,-3.89258 9.83545,-3.38379 5.20019,0.50733 9.22802,2.84571 8.99414,5.22364 z"
         style="fill:none;stroke:#231f20;stroke-width:0.25;stroke-linecap:round;stroke-linejoin:round;stroke-miterlimit:4;stroke-dasharray:none;stroke-opacity:1"
         id="path1460"
         inkscape:connector-curvature="0" /><path
         d="m 99.71045,-126.81934 c 1.3291,-1.66601 5.06006,-2.61132 9.32715,-2.19433 3.3872,0.33008 6.27734,1.43799 7.81543,2.82666"
         style="fill:none;stroke:#231f20;stroke-width:0.25;stroke-linecap:round;stroke-linejoin:round;stroke-miterlimit:4;stroke-dasharray:none;stroke-opacity:1"
         id="path1462"
         inkscape:connector-curvature="0" /><g
         id="g1464"
         transform="scale(1,-1)"><text
           transform="matrix(1,0,0,-1,163.29248,158.87451)"
           style="font-variant:normal;font-weight:bold;font-size:12px;font-family:Helvetica;-inkscape-font-specification:Helvetica-Bold;writing-mode:lr-tb;fill:#231f20;fill-opacity:1;fill-rule:nonzero;stroke:none"
           id="text1468"><tspan
             x="0"
             y="0"
             id="tspan1466">1</tspan></text>
<g
           id="g1470"
           transform="scale(1,-1)"><path
             d="m 151.2627,-136.27734 c 0,0 -29.64991,8.00781 -29.64991,8.00781"
             style="fill:none;stroke:#ffffff;stroke-width:3;stroke-linecap:round;stroke-linejoin:miter;stroke-miterlimit:4;stroke-dasharray:none;stroke-opacity:1"
             id="path1472"
             inkscape:connector-curvature="0" /><path
             d="m 121.61426,-128.27051 c 0,0 0,0 0,0"
             style="fill:none;stroke:#ffffff;stroke-width:3.75;stroke-linecap:round;stroke-linejoin:miter;stroke-miterlimit:4;stroke-dasharray:none;stroke-opacity:1"
             id="path1474"
             inkscape:connector-curvature="0" /><path
             d="m 162.53125,-138.15137 c 0,0 -40.91846,9.88184 -40.91846,9.88184"
             style="fill:none;stroke:#201d1c;stroke-width:0.5;stroke-linecap:round;stroke-linejoin:miter;stroke-miterlimit:4;stroke-dasharray:none;stroke-opacity:1"
             id="path1476"
             inkscape:connector-curvature="0" /><path
             d="m 121.61426,-128.27051 c 0,0 0,0 0,0"
             style="fill:none;stroke:#201d1c;stroke-width:1.5;stroke-linecap:round;stroke-linejoin:miter;stroke-miterlimit:4;stroke-dasharray:none;stroke-opacity:1"
             id="path1478"
             inkscape:connector-curvature="0" /><g
             id="g1480"
             transform="scale(1,-1)"><text
               transform="matrix(1,0,0,-1,184.604,98.78613)"
               style="font-variant:normal;font-weight:bold;font-size:12px;font-family:Helvetica;-inkscape-font-specification:Helvetica-Bold;writing-mode:lr-tb;fill:#231f20;fill-opacity:1;fill-rule:nonzero;stroke:none"
               id="text1484"><tspan
                 x="0"
                 y="0"
                 id="tspan1482">2</tspan></text>
<text
               transform="matrix(1,0,0,-1,164.90869,135.97754)"
               style="font-variant:normal;font-weight:bold;font-size:12px;font-family:Helvetica;-inkscape-font-specification:Helvetica-Bold;writing-mode:lr-tb;fill:#231f20;fill-opacity:1;fill-rule:nonzero;stroke:none"
               id="text1488"><tspan
                 x="0"
                 y="0"
                 id="tspan1486">3</tspan></text>
<g
               id="g1490"
               transform="scale(1,-1)"><path
                 d="m 160.17871,-106.58398 c 0,0 -35.86719,-5.01954 -35.86719,-5.01954"
                 style="fill:none;stroke:#ffffff;stroke-width:3;stroke-linecap:round;stroke-linejoin:miter;stroke-miterlimit:4;stroke-dasharray:none;stroke-opacity:1"
                 id="path1492"
                 inkscape:connector-curvature="0" /><path
                 d="m 124.31152,-111.60254 c 0,0 0,0 0,0"
                 style="fill:none;stroke:#ffffff;stroke-width:3.75;stroke-linecap:round;stroke-linejoin:miter;stroke-miterlimit:4;stroke-dasharray:none;stroke-opacity:1"
                 id="path1494"
                 inkscape:connector-curvature="0" /><path
                 d="m 181.67871,-102.58398 c 0,0 -57.36719,-9.01954 -57.36719,-9.01954"
                 style="fill:none;stroke:#201d1c;stroke-width:0.5;stroke-linecap:round;stroke-linejoin:miter;stroke-miterlimit:4;stroke-dasharray:none;stroke-opacity:1"
                 id="path1496"
                 inkscape:connector-curvature="0" /><path
                 d="m 124.31152,-111.60254 c 0,0 0,0 0,0"
                 style="fill:none;stroke:#201d1c;stroke-width:1.5;stroke-linecap:round;stroke-linejoin:miter;stroke-miterlimit:4;stroke-dasharray:none;stroke-opacity:1"
                 id="path1498"
                 inkscape:connector-curvature="0" /><path
                 d="m 143.73047,-157.40869 c 0,0 -18.06934,2.19678 -18.06934,2.19678"
                 style="fill:none;stroke:#ffffff;stroke-width:3;stroke-linecap:round;stroke-linejoin:miter;stroke-miterlimit:4;stroke-dasharray:none;stroke-opacity:1"
                 id="path1500"
                 inkscape:connector-curvature="0" /><path
                 d="m 125.66309,-155.21191 c 0,0 0,0 0,0"
                 style="fill:none;stroke:#ffffff;stroke-width:3.75;stroke-linecap:round;stroke-linejoin:miter;stroke-miterlimit:4;stroke-dasharray:none;stroke-opacity:1"
                 id="path1502"
                 inkscape:connector-curvature="0" /><path
                 d="m 162.26367,-160.64014 c 0,0 -36.60254,5.42823 -36.60254,5.42823"
                 style="fill:none;stroke:#201d1c;stroke-width:0.5;stroke-linecap:round;stroke-linejoin:miter;stroke-miterlimit:4;stroke-dasharray:none;stroke-opacity:1"
                 id="path1504"
                 inkscape:connector-curvature="0" /><path
                 d="m 125.66309,-155.21191 c 0,0 0,0 0,0"
                 style="fill:none;stroke:#201d1c;stroke-width:1.5;stroke-linecap:round;stroke-linejoin:miter;stroke-miterlimit:4;stroke-dasharray:none;stroke-opacity:1"
                 id="path1506"
                 inkscape:connector-curvature="0" /></g></g></g></g></g></g></svg>