<?xml version="1.0" encoding="UTF-8" standalone="no"?>
<!-- Created with Inkscape (http://www.inkscape.org/) -->

<svg
   xmlns:dc="http://purl.org/dc/elements/1.1/"
   xmlns:cc="http://creativecommons.org/ns#"
   xmlns:rdf="http://www.w3.org/1999/02/22-rdf-syntax-ns#"
   xmlns:svg="http://www.w3.org/2000/svg"
   xmlns="http://www.w3.org/2000/svg"
   xmlns:sodipodi="http://sodipodi.sourceforge.net/DTD/sodipodi-0.dtd"
   xmlns:inkscape="http://www.inkscape.org/namespaces/inkscape"
   version="1.1"
   id="svg32"
   xml:space="preserve"
   width="321.26001"
   height="245.66933"
   viewBox="0 0 321.26001 245.66933"
   sodipodi:docname="T3880454.svg"
   inkscape:version="0.92.4 (5da689c313, 2019-01-14)"><metadata
     id="metadata38"><rdf:RDF><cc:Work
         rdf:about=""><dc:format>image/svg+xml</dc:format><dc:type
           rdf:resource="http://purl.org/dc/dcmitype/StillImage" /><dc:title></dc:title></cc:Work></rdf:RDF></metadata><defs
     id="defs36" /><sodipodi:namedview
     pagecolor="#ffffff"
     bordercolor="#666666"
     borderopacity="1"
     objecttolerance="10"
     gridtolerance="10"
     guidetolerance="10"
     inkscape:pageopacity="0"
     inkscape:pageshadow="2"
     inkscape:window-width="640"
     inkscape:window-height="480"
     id="namedview34"
     showgrid="false"
     inkscape:zoom="1.2659293"
     inkscape:cx="160.63"
     inkscape:cy="122.83466"
     inkscape:window-x="0"
     inkscape:window-y="0"
     inkscape:window-maximized="1"
     inkscape:current-layer="g40" /><g
     id="g40"
     inkscape:groupmode="layer"
     inkscape:label="T3880454"
     transform="matrix(1.3333333,0,0,-1.3333333,0,245.66933)"><g
       id="g42"
       transform="translate(198.9421,27.673)"><path
         d="m 0,0 1.4,0.7 m 17.2,29.8 v 1.6 m -5.5,12 -157.6,91 m -26.3,-45.4 157.7,-91 M -157.6,133.8 -159,133 m -17.2,-29.8 v -1.5 m 194.8,-71.2 -0.1,1.2 -0.1,1.2 -0.1,1.1 -0.2,1 -0.3,1 -0.4,1 -0.4,0.9 -0.4,0.8 -0.6,0.7 -0.5,0.7 -0.7,0.6 -0.6,0.6 -0.8,0.4 -0.7,0.4 -0.8,0.3 -0.9,0.2 -0.9,0.1 -0.9,0.1 H 8.3 l -1,-0.1 -1,-0.2 -1,-0.3 -1.1,-0.4 -1,-0.4 -1,-0.5 -1.1,-0.6 -1,-0.7 -1.1,-0.7 -1,-0.8 -1,-0.9 -1,-0.9 -1,-1 -1,-1 -0.9,-1.1 -0.9,-1.1 -0.9,-1.2 -0.8,-1.2 -0.8,-1.3 -0.8,-1.3 -0.7,-1.3 -0.6,-1.3 -0.6,-1.3 -0.6,-1.4 -0.5,-1.3 -0.4,-1.4 -0.4,-1.3 -0.3,-1.4 -0.2,-1.3 -0.2,-1.3 -0.2,-1.3 V 11.3 10.1 8.9 l 0.2,-1.1 0.2,-1.1 0.2,-1.1 0.3,-0.9 0.4,-0.9 0.4,-0.9 0.5,-0.8 0.6,-0.7 0.6,-0.6 0.6,-0.6 0.7,-0.5 0.8,-0.4 0.8,-0.4 0.8,-0.2 0.9,-0.2 0.9,-0.1 H -6 l 1,0.1 1,0.1 1,0.2 1,0.4 1,0.4 1.1,0.4 1,0.6 1.1,0.6 1,0.7 1,0.8 1.1,0.8 1,0.9 1,0.9 1,1.1 0.9,1 0.9,1.1 0.9,1.2 0.9,1.2 0.8,1.2 0.7,1.3 0.8,1.3 0.6,1.3 0.7,1.4 0.5,1.3 0.6,1.3 0.4,1.4 0.4,1.4 0.4,1.3 0.3,1.3 0.2,1.3 0.1,1.3 0.1,1.3 0.1,1.2 M 0,0 l -0.2,-0.2 -1.1,-0.6 -1.1,-0.5 -1.1,-0.4 -1,-0.3 -1.1,-0.3 -1,-0.2 -1,-0.1 h -1 l -0.9,0.1 -1,0.2 -0.8,0.2 -0.9,0.3 -0.8,0.4 -0.7,0.5 -0.7,0.5 -0.7,0.7 -0.6,0.6 -0.5,0.8 -0.5,0.9 -0.5,0.9 -0.3,0.9 -0.4,1 -0.2,1.1 -0.2,1.1 -0.1,1.2 -0.1,1.2 v 1.3 l 0.1,1.3 0.1,1.3 0.2,1.4 0.2,1.3 0.4,1.4 0.3,1.4 0.5,1.4 0.5,1.4 0.5,1.4 0.6,1.4 0.7,1.4 0.7,1.4 0.7,1.3 0.8,1.3 0.9,1.3 0.8,1.3 1,1.2 0.9,1.1 1,1.1 1,1.1 1,1 1.1,1 1,0.9 1.1,0.8 1.1,0.7 1.1,0.7 1.1,0.6 1,0.6 1.1,0.4 1.1,0.4 1,0.3 1.1,0.2 1,0.1 1,0.1 h 0.9 l 1,-0.1 0.9,-0.2 0.8,-0.3 0.9,-0.4 0.7,-0.4 0.8,-0.5 0.6,-0.6 0.7,-0.7 0.5,-0.7 0.6,-0.8 0.4,-0.9 0.4,-0.9 0.4,-1 0.3,-1 0.2,-1.1 0.1,-1.2 0.1,-1.2 0.1,-1.2 m -95.3,10.3 -0.8,0.5 m 0.7,0.4 0.1,-0.1 V 43.1 43 42.8 42.7 42.6 42.5 42.4 m -0.9,1.4 0.8,-0.5 m -0.5,5.4 -0.1,-0.6 -0.1,-0.7 v -0.6 l -0.1,-0.6 V 45.6 45 44.4 43.8 m -0.3,5.2 0.6,-0.3 m -4.1,-2.7 1.6,1.5 1.9,1.5 m -3.5,-3 v -0.1 -0.2 -0.1 -0.1 l 0.1,-0.1 V 45.3 45.2 45 m 2.9,-1.6 -2.9,1.6 m 2.9,-1.6 v -0.3 -0.2 l 0.1,-0.2 V 42.5 42.3 42 l 0.1,-0.2 v -0.2 m 0.9,-0.5 -0.9,0.5 m 0.7,1.3 V 42.6 42.4 42.2 42 l 0.1,-0.2 v -0.2 -0.3 l 0.1,-0.2 m -4.6,5 v -0.3 -0.3 -0.3 l -0.1,-0.1 -0.1,-0.2 v -0.1 l -0.1,-0.1 m -1.6,5 0.2,-0.1 0.2,-0.2 0.3,-0.4 0.4,-0.4 0.3,-0.5 0.2,-0.5 0.2,-0.6 v -0.2 l 0.1,-0.3 v -0.2 -0.2 m -3.1,3.8 h 0.5 l 0.7,-0.2 m -0.8,2 -0.4,-1.8 m 2.9,0.4 -2.5,1.4 M -82,51.4 V 51.2 51.1 51 50.8 l -0.1,-0.1 v -0.1 -0.2 -0.1 m -3,2.9 3.1,-1.8 m -4.1,-1.9 0.4,1.8 0.6,1.9 m -0.1,-4.3 -0.9,0.6 m 2,-0.6 -0.3,0.2 h -0.4 -0.2 l -0.2,-0.2 m 2.5,-2.4 -0.1,0.7 -0.1,0.3 -0.2,0.4 -0.2,0.3 -0.3,0.3 -0.5,0.4 m 0.2,-3.3 0.2,-0.1 0.2,-0.1 h 0.1 0.3 l 0.1,0.1 0.2,0.2 v 0.2 l 0.1,0.2 v 0.2 0.2 m -2.6,1.1 0.2,-0.6 0.3,-0.6 0.2,-0.2 0.2,-0.3 0.5,-0.3 m -2.2,2.4 0.8,-0.4 m 1.5,-2.8 -0.3,0.1 -0.2,0.2 -0.3,0.2 -0.4,0.4 -0.3,0.4 -0.3,0.5 -0.1,0.2 -0.2,0.3 -0.1,0.2 v 0.2 l -0.1,0.3 V 48 m 3.9,-3.3 -0.3,-0.2 -0.4,-0.1 -0.4,0.2 -0.3,0.1 -0.2,0.1 m -3.2,3.5 -0.8,0.5 m 0.8,0.5 V 49.1 49 48.9 48.8 48.7 48.5 48.4 48.3 m -0.9,1.4 0.9,-0.4 m -0.6,5.3 -0.1,-0.6 -0.1,-0.6 v -0.7 l -0.1,-0.6 v -0.6 -0.6 -0.6 -0.6 m -0.3,5.3 0.6,-0.4 m -4.1,-2.7 1.6,1.5 1.9,1.6 m -3.5,-3.1 0.1,-0.1 V 51.7 51.6 51.4 51.3 51.2 51.1 51 m 2.9,-1.7 -2.9,1.7 m 2.9,-1.7 v -0.2 l 0.1,-0.3 v -0.2 -0.2 -0.2 l 0.1,-0.2 v -0.2 -0.2 m 0.9,-0.5 -0.9,0.5 m 0.7,1.2 v -0.2 -0.2 -0.3 l 0.1,-0.2 v -0.2 -0.2 l 0.1,-0.2 v -0.2 m -4.6,6 v -0.3 -0.3 -0.3 -0.3 l -0.1,-0.4 v -0.3 l -0.1,-0.3 -0.2,-0.4 -0.2,-0.1 h -0.2 -0.2 -0.3 l -0.1,0.1 -0.2,0.1 -0.2,0.1 m 0,7.7 0.2,-0.1 0.1,-0.1 0.2,-0.2 0.3,-0.2 0.2,-0.3 0.2,-0.4 0.2,-0.3 0.1,-0.4 0.1,-0.4 0.1,-0.5 V 55 l 0.1,-0.5 v -0.4 -0.5 -0.5 m -4.3,2.5 v 0.3 l 0.1,0.4 v 0.3 0.3 l 0.2,0.6 0.2,0.5 0.4,0.5 0.2,0.1 0.2,0.1 h 0.3 0.3 l 0.2,-0.1 0.2,-0.1 0.2,-0.1 m -1.6,-6.2 -0.2,0.3 -0.1,0.3 -0.1,0.3 -0.2,0.4 -0.1,0.4 -0.1,0.5 v 0.4 l -0.1,0.4 v 0.4 m 2.5,-4.9 -0.3,0.2 -0.3,0.2 -0.3,0.2 -0.4,0.4 -0.1,0.2 V 52 l -0.2,0.2 m -1.7,2.4 V 54.3 54 l -0.1,-0.2 -0.1,-0.3 -0.2,-0.2 h -0.3 -0.4 l -0.1,0.1 h -0.2 l -0.2,0.1 -0.3,0.1 m 0.6,3.7 0.5,-0.6 0.5,-0.7 0.2,-0.7 0.1,-0.7 m -0.2,3.6 -0.1,-0.4 -0.2,-0.4 -0.4,-0.1 -0.2,-0.1 -0.2,0.1 m -0.6,4.1 0.7,-0.5 0.3,-0.4 0.3,-0.4 0.2,-0.5 0.1,-0.4 0.1,-0.5 v -0.2 -0.3 m -3.8,2.2 0.1,0.3 V 61 l 0.1,0.2 0.3,0.3 0.2,0.1 0.4,0.1 h 0.1 0.2 l 0.2,-0.1 0.3,-0.1 0.2,-0.1 m -1.1,-3.1 -0.4,0.4 -0.4,0.6 -0.2,0.6 v 0.3 0.2 m -0.3,-3.3 0.1,0.6 0.2,0.4 0.4,0.2 h 0.6 m 1.1,-4.7 -0.2,0.2 -0.3,0.2 -0.3,0.3 -0.4,0.4 -0.4,0.4 -0.3,0.5 -0.2,0.5 -0.1,0.2 -0.1,0.3 v 0.2 l -0.1,0.3 m -0.8,0.5 V 57.3 57 l -0.1,-0.2 -0.1,-0.3 -0.3,-0.2 -0.3,-0.1 -0.3,0.1 h -0.2 l -0.2,0.1 -0.2,0.1 -0.2,0.1 m 0.6,3.6 0.5,-0.6 0.4,-0.6 0.3,-0.8 0.1,-0.6 m -0.3,3.6 -0.1,-0.5 -0.2,-0.3 -0.3,-0.2 h -0.2 -0.2 m -0.6,4.2 0.7,-0.5 0.3,-0.4 0.2,-0.4 0.2,-0.5 0.2,-0.5 v -0.4 l 0.1,-0.3 -0.1,-0.2 m -3.7,2.2 v 0.3 l 0.1,0.2 0.1,0.3 0.2,0.2 0.3,0.2 0.3,0.1 h 0.2 0.2 l 0.2,-0.1 0.2,-0.1 0.3,-0.1 m -1.2,-3.2 -0.4,0.5 -0.3,0.5 -0.2,0.6 v 0.3 0.3 m -0.3,-3.4 v 0.6 l 0.3,0.5 0.4,0.2 0.5,-0.1 m 1.2,-4.6 -0.3,0.2 -0.3,0.2 -0.2,0.2 -0.4,0.4 -0.4,0.5 -0.3,0.5 -0.3,0.5 -0.1,0.2 v 0.3 l -0.1,0.2 V 60 m -2.2,3.2 0.6,-0.6 0.4,-0.6 0.2,-0.7 0.1,-0.7 m -0.3,3.6 -0.1,-0.4 -0.2,-0.4 -0.3,-0.2 h -0.2 -0.2 m -0.7,4.2 0.3,-0.2 0.2,-0.1 0.2,-0.2 0.3,-0.4 0.3,-0.4 0.2,-0.5 0.1,-0.4 0.1,-0.5 v -0.1 -0.1 -0.3 m -3.8,2.2 v 0.3 l 0.1,0.2 0.2,0.2 0.2,0.3 0.3,0.2 0.3,0.1 h 0.3 l 0.2,-0.1 h 0.2 l 0.2,-0.1 0.1,-0.1 m -1.3,-1.6 -0.8,0.6 m 2.1,0 -0.5,0.2 h -0.2 l -0.2,-0.1 -0.1,-0.1 -0.1,-0.1 -0.2,-0.5 m 2.2,-1.1 -0.1,0.5 v 0.2 l -0.2,0.3 -0.1,0.2 -0.2,0.2 -0.3,0.3 m -0.4,-2.2 0.4,-0.2 h 0.4 l 0.2,0.1 0.1,0.1 0.1,0.2 v 0.2 l 0.1,0.1 m -1.5,-0.4 0.2,-0.1 m -0.3,-0.8 0.1,0.9 m 0.5,-1.1 -0.6,0.2 m 1.9,-2.3 -0.1,0.6 -0.2,0.3 -0.1,0.3 -0.2,0.3 -0.2,0.2 -0.5,0.4 m 0.1,-2.8 0.5,-0.2 h 0.2 l 0.2,0.1 0.1,0.1 0.1,0.2 0.1,0.5 m -2.6,1.3 0.2,-0.6 0.3,-0.5 0.2,-0.3 0.2,-0.2 0.5,-0.4 m -2.2,2.4 0.8,-0.4 m 1.5,-2.8 -0.3,0.2 -0.2,0.2 -0.3,0.2 -0.4,0.4 -0.3,0.4 -0.3,0.4 -0.3,0.5 v 0.2 l -0.1,0.3 -0.1,0.2 v 0.2 m 4.2,-2.2 V 60.3 60 59.8 l -0.2,-0.3 -0.2,-0.2 h -0.3 -0.4 -0.2 l -0.2,0.1 -0.2,0.1 -0.2,0.1 m -2.9,8.4 -2.1,1.3 m 2.2,-0.3 v -0.1 -0.2 -0.1 -0.1 l -0.1,-0.1 V 68.3 68.1 68 m -5.1,4 5.2,-3 m -5.2,3 v -0.1 -0.1 l -0.1,-0.2 V 71.5 71.4 71.3 71.2 71 m 2.1,-1.2 -2.1,1.2 m 2.1,-1.2 -0.1,-0.9 V 68 l -0.1,-0.8 v -0.9 l 0.1,-0.8 v -0.8 l 0.1,-0.8 0.1,-0.8 m 1,-0.6 -1,0.6 m 0.9,6.2 -0.1,-0.9 -0.1,-0.9 v -0.9 -0.8 -0.9 l 0.1,-0.8 0.1,-0.8 0.1,-0.8 m -30.1,72.6 -0.5,0.3 -0.8,0.3 -0.9,0.3 -0.9,0.2 -0.9,0.1 h -1 -1 l -1,-0.2 -1,-0.2 -1.1,-0.3 -1.1,-0.4 -1,-0.4 -1.1,-0.5 -1.1,-0.7 -1.1,-0.6 -1.1,-0.8 -1.1,-0.8 -1,-0.9 -1.1,-1 -1,-1 -1,-1 -1,-1.1 -0.9,-1.2 -0.9,-1.2 -0.9,-1.3 -0.9,-1.3 -0.8,-1.3 -0.7,-1.3 -0.7,-1.4 -0.7,-1.4 -0.6,-1.4 -0.5,-1.4 -0.5,-1.4 -0.5,-1.4 -0.3,-1.4 -0.3,-1.4 -0.3,-1.3 -0.2,-1.4 -0.1,-1.3 -0.1,-1.3 v -1.2 l 0.1,-1.3 0.1,-1.1 0.2,-1.2 0.3,-1 0.3,-1.1 0.3,-0.9 0.5,-0.9 0.5,-0.9 0.5,-0.7 0.6,-0.7 0.7,-0.6 0.7,-0.6 0.6,-0.4 M 15.9,29 v 1.1 l -0.1,1 -0.2,1.1 -0.2,0.9 -0.3,0.9 -0.4,0.9 -0.4,0.7 -0.4,0.8 -0.5,0.6 -0.6,0.6 -0.7,0.5 -0.6,0.4 -0.7,0.3 -0.8,0.3 -0.8,0.2 H 8.4 7.5 6.6 L 5.7,39.1 4.7,38.9 3.8,38.5 2.8,38.1 1.9,37.6 0.9,37.1 -0.1,36.4 -1,35.7 -2,35 -2.9,34.1 -3.9,33.2 -4.7,32.3 -5.6,31.3 -6.4,30.2 -7.2,29.1 -8,28 -8.7,26.8 -9.4,25.6 -10,24.4 l -0.6,-1.2 -0.5,-1.3 -0.5,-1.2 -0.4,-1.3 -0.4,-1.2 -0.2,-1.3 -0.3,-1.2 -0.1,-1.2 -0.1,-1.2 -0.1,-1.1 0.1,-1.1 0.1,-1.1 0.1,-1 0.3,-0.9 0.2,-0.9 0.4,-0.9 0.4,-0.8 0.5,-0.7 0.5,-0.6 L -10,3.6 -9.4,3.1 -8.7,2.7 -8,2.4 -7.2,2.1 -6.4,1.9 -5.6,1.8 h 0.9 l 0.8,0.1 1,0.2 0.9,0.2 1,0.3 0.9,0.5 1,0.4 1,0.6 0.9,0.6 1,0.7 0.9,0.8 1,0.9 0.9,0.8 0.9,1 0.9,1 0.8,1.1 0.8,1.1 0.8,1.1 0.7,1.2 0.6,1.2 0.7,1.2 0.6,1.2 0.5,1.3 0.4,1.2 0.4,1.3 0.4,1.2 0.3,1.2 0.2,1.3 0.2,1.2 0.1,1.1 V 29 m -94.3,18.1 v -0.3 l -0.1,-0.4 V 46 45.7 45.3 45 44.6 44.3 m 0.1,2.8 -1,-0.9 -0.9,-0.8 m 0,0 1.8,-1.1 M -88.7,53 V 52.7 52.3 L -88.8,52 v -0.4 -0.3 -0.4 -0.3 l 0.1,-0.4 m 0,2.8 -1,-0.8 -0.9,-0.9 m 0,0 1.9,-1.1 m -6.9,4.9 v -0.4 -0.3 l 0.1,-0.4 v -0.4 l 0.1,-0.4 0.1,-0.3 0.1,-0.2 0.3,-0.5 0.2,-0.2 0.2,-0.2 0.1,-0.1 0.1,-0.1 0.2,-0.1 m 0,0 0.2,-0.1 0.1,-0.1 0.4,0.1 0.1,0.1 0.1,0.1 v 0.1 0.1 l 0.1,0.1 v 0.3 0.3 l 0.1,0.4 v 0.3 0.4 m 0,0 V 54 l -0.1,0.4 v 0.4 0.5 0.3 l -0.1,0.3 v 0.3 l -0.3,0.5 -0.3,0.5 -0.1,0.1 -0.1,0.1 -0.2,0.1 m 0,0 -0.2,0.1 h -0.3 -0.2 l -0.2,-0.1 m 0,0 -0.3,-0.5 -0.1,-0.6 -0.1,-1.3 m -4.8,4.8 v -0.5 l 0.1,-0.2 0.1,-0.3 0.2,-0.2 0.2,-0.2 0.4,-0.3 m 0,0 0.3,-0.2 h 0.2 l 0.2,0.1 0.1,0.1 0.1,0.1 0.1,0.2 v 0.2 m 0,0 v 0.5 l -0.1,0.3 -0.1,0.2 -0.1,0.3 -0.2,0.2 -0.4,0.3 m 0,0 -0.4,0.1 h -0.2 -0.1 l -0.2,-0.1 -0.1,-0.2 -0.1,-0.4 m -0.3,-3.3 0.1,-0.6 0.1,-0.3 0.2,-0.3 0.3,-0.3 0.2,-0.3 0.5,-0.4 m 0,0 0.5,-0.2 h 0.2 l 0.2,0.1 0.1,0.1 0.1,0.2 0.1,0.5 m 0,0 -0.1,0.6 -0.2,0.3 -0.1,0.4 -0.2,0.3 -0.3,0.2 -0.5,0.4 m 0,0 -0.5,0.2 h -0.2 l -0.2,-0.1 -0.2,-0.1 -0.1,-0.2 v -0.5 m -4.9,6.3 0.1,-0.5 0.1,-0.3 0.1,-0.2 0.1,-0.3 0.2,-0.1 0.4,-0.3 m 0,0 0.4,-0.2 h 0.2 0.1 l 0.2,0.1 0.1,0.2 0.1,0.2 v 0.2 m 0,0 v 0.5 l -0.1,0.2 -0.1,0.3 -0.2,0.2 -0.1,0.2 -0.4,0.3 m 0,0 -0.4,0.2 h -0.2 -0.2 l -0.1,-0.1 -0.1,-0.2 -0.2,-0.4 m -0.2,-3.3 0.1,-0.6 0.1,-0.4 0.2,-0.3 0.2,-0.2 0.3,-0.3 0.5,-0.4 m 0,0 0.5,-0.2 h 0.2 l 0.2,0.1 0.1,0.1 0.1,0.2 v 0.5 m 0,0 -0.1,0.6 -0.1,0.3 -0.2,0.3 -0.2,0.3 -0.2,0.3 -0.5,0.4 m 0,0 -0.5,0.2 h -0.3 l -0.1,-0.1 -0.2,-0.1 -0.1,-0.2 v -0.5 m -70.4,43.6 v 0.6 l 0.1,1.3 0.1,1.3 0.2,1.3 0.3,1.3 0.3,1.3 0.3,1.4 0.5,1.3 0.5,1.4 0.5,1.3 0.6,1.4 0.7,1.3 0.7,1.3 0.7,1.3 0.8,1.2 0.8,1.3 0.9,1.1 0.9,1.2 1,1.1 0.9,1 1,1 1,0.9 1,0.9 1.1,0.8 1,0.7 1.1,0.7 0.2,0.1"
         style="fill:none;stroke:#000000;stroke-width:0.79400003;stroke-linecap:round;stroke-linejoin:round;stroke-miterlimit:10;stroke-dasharray:none;stroke-opacity:1"
         id="path44"
         inkscape:connector-curvature="0" /></g></g></svg>