<?xml version="1.0" encoding="UTF-8" standalone="no"?>
<!-- Created with Inkscape (http://www.inkscape.org/) -->

<svg
   xmlns:dc="http://purl.org/dc/elements/1.1/"
   xmlns:cc="http://creativecommons.org/ns#"
   xmlns:rdf="http://www.w3.org/1999/02/22-rdf-syntax-ns#"
   xmlns:svg="http://www.w3.org/2000/svg"
   xmlns="http://www.w3.org/2000/svg"
   xmlns:sodipodi="http://sodipodi.sourceforge.net/DTD/sodipodi-0.dtd"
   xmlns:inkscape="http://www.inkscape.org/namespaces/inkscape"
   version="1.1"
   id="svg18312"
   xml:space="preserve"
   width="321.25333"
   height="245.66667"
   viewBox="0 0 321.25333 245.66667"
   sodipodi:docname="IASM00057.svg"
   inkscape:version="0.92.4 (5da689c313, 2019-01-14)"><metadata
     id="metadata18318"><rdf:RDF><cc:Work
         rdf:about=""><dc:format>image/svg+xml</dc:format><dc:type
           rdf:resource="http://purl.org/dc/dcmitype/StillImage" /><dc:title></dc:title></cc:Work></rdf:RDF></metadata><defs
     id="defs18316"><clipPath
       clipPathUnits="userSpaceOnUse"
       id="clipPath18328"><path
         d="M 0.009,0 H 240.94 V 184.243 H 0.009 Z"
         id="path18326"
         inkscape:connector-curvature="0" /></clipPath></defs><sodipodi:namedview
     pagecolor="#ffffff"
     bordercolor="#666666"
     borderopacity="1"
     objecttolerance="10"
     gridtolerance="10"
     guidetolerance="10"
     inkscape:pageopacity="0"
     inkscape:pageshadow="2"
     inkscape:window-width="640"
     inkscape:window-height="480"
     id="namedview18314"
     showgrid="false"
     inkscape:zoom="0.96065127"
     inkscape:cx="160.62666"
     inkscape:cy="122.83334"
     inkscape:window-x="0"
     inkscape:window-y="0"
     inkscape:window-maximized="0"
     inkscape:current-layer="g18320" /><g
     id="g18320"
     inkscape:groupmode="layer"
     inkscape:label="IASM00057"
     transform="matrix(1.3333333,0,0,-1.3333333,0,245.66667)"><g
       id="g18322"><g
         id="g18324"
         clip-path="url(#clipPath18328)"><g
           id="g18330"
           transform="translate(32.78,186.19)"><path
             d="m 0,0 0.78,-4.5 c 0,0 -4.776,-2.25 -6.18,-3.06 -1.56,-0.9 -2.52,-1.56 -3.06,-2.82 -0.54,-1.26 -0.48,-1.86 -0.12,-4.62 0.36,-2.76 2.46,-15.48 2.82,-17.22 0.36,-1.74 1.2,-2.7 1.92,-3.18 0.72,-0.48 2.7,-0.96 2.7,-0.96 l 2.94,-2.88 c 0.72,-0.72 3.66,-4.26 4.44,-5.52 0.78,-1.26 1.08,-2.34 1.44,-3.96 0.36,-1.62 1.02,-5.82 1.26,-7.08 0.24,-1.26 -0.24,-1.98 -1.08,-2.82 -0.84,-0.84 -2.76,-2.58 -2.82,-6.66 -0.06,-4.08 0.54,-8.94 2.58,-13.26 2.04,-4.32 3.6,-5.82 4.44,-6.48 0.84,-0.66 1.8,-1.38 1.8,-1.38 l 1.2,-7.62 c 0,0 -2.52,-6.78 -3.48,-8.58 -0.96,-1.8 -2.46,-3.96 -2.94,-5.88 -0.48,-1.92 -0.54,-2.16 -0.54,-2.16 0,0 -1.02,-0.72 -0.54,-3.3 0.48,-2.58 2.415,-15.72 3.015,-18.24 0.6,-2.52 1.275,-3.69 3.195,-4.23 1.92,-0.54 6.221,-1.73 7.965,-2.07 1.845,-0.36 1.665,0.735 4.365,-0.045 2.7,-0.78 6.075,-1.62 9.585,-2.16 3.045,-0.469 27.795,-2.235 27.795,-2.235 0,0 -6.12,-1.86 -7.2,-2.52 -1.08,-0.66 -2.7,-1.74 -3.78,-4.14 -1.08,-2.4 -1.74,-4.32 -1.98,-7.98 -0.24,-3.66 -0.72,-15.24 -0.72,-15.24 0,0 -4.44,-1.26 -6.6,-3.9 -2.16,-2.64 -3,-4.14 -3.24,-10.92"
             style="fill:none;stroke:#231f20;stroke-width:1;stroke-linecap:round;stroke-linejoin:round;stroke-miterlimit:4;stroke-dasharray:none;stroke-opacity:1"
             id="path18332"
             inkscape:connector-curvature="0" /></g><g
           id="g18334"
           transform="translate(115.4,174.01)"><path
             d="M 0,0 C 0,0 1.92,-1.56 2.64,-2.28 3.36,-3 4.02,-3.6 4.26,-5.34 4.5,-7.08 4.68,-7.98 4.68,-7.98 c 0,0 5.28,1.56 6.6,1.86 1.32,0.3 2.16,-0.3 2.28,-1.8 0.12,-1.5 1.44,-18.18 1.5,-19.5 0.06,-1.32 -0.12,-3.12 -1.02,-4.08 -0.9,-0.96 -2.34,-1.26 -3.36,-1.56 -1.02,-0.3 -1.08,-0.36 -2.04,0.12 -0.96,0.48 -1.38,1.86 -1.5,2.7 -0.12,0.84 -0.48,2.04 -0.96,2.82 -0.48,0.78 -1.62,1.92 -2.34,1.86 -0.72,-0.06 -1.08,-0.18 -1.98,-0.48 -0.9,-0.3 -1.08,0.36 -1.44,0.84 -0.36,0.48 -0.96,1.14 -0.96,1.14 l -6,0.42 -6.3,-1.5 -0.615,-1.44 c 0,0 1.335,-2.64 2.055,-3.72 0.72,-1.08 1.56,-1.38 2.88,-1.08 1.32,0.3 2.1,0 2.4,-0.9 0.3,-0.9 0.84,-2.28 0.48,-3.6 -0.36,-1.32 -0.66,-2.28 -2.22,-2.82 -1.56,-0.54 -1.635,-0.555 -2.715,-0.795 -1.08,-0.24 -3,0.03 -3.24,2.07 -0.24,2.04 -1.08,14.31 -1.08,14.31 l -6.39,0.36 c 0,0 -2.205,-4.185 -2.7,-6.21 -0.495,-2.025 -0.99,-3.78 -0.99,-3.78 0,0 0.45,-7.065 0.765,-9.63 0.315,-2.565 2.385,-15.57 3.015,-18.405 0.63,-2.835 4.68,-19.44 4.68,-19.44 0,0 1.71,-4.185 3.51,-7.065 1.8,-2.88 4.77,-6.84 4.77,-6.84 0,0 37.71,11.025 41.22,12.06 3.51,1.035 5.265,3.195 4.14,7.56 -1.125,4.365 -6.3,24.975 -6.84,27.315 -0.54,2.34 -1.215,5.985 -1.71,9.675 -0.495,3.69 -1.44,7.65 -1.8,12.69 -0.36,5.04 -1.62,21.78 -1.89,24.795 C 24.615,2.985 24.345,4.2 23.04,5.235 21.735,6.27 20.745,6.27 18,5.46 15.255,4.65 0,0 0,0 Z"
             style="fill:none;stroke:#231f20;stroke-width:1;stroke-linecap:round;stroke-linejoin:round;stroke-miterlimit:4;stroke-dasharray:none;stroke-opacity:1"
             id="path18336"
             inkscape:connector-curvature="0" /></g><g
           id="g18338"
           transform="translate(117.14,91.27)"><path
             d="m 0,0 c 0,0 15.36,4.8 18.3,5.46 2.94,0.66 4.92,2.58 4.08,6.6 -0.84,4.02 -3.9,16.56 -4.56,18.84 -0.66,2.28 -1.68,3.96 -3.9,3.48 C 11.7,33.9 10.26,33.12 9.6,31.8 8.94,30.48 9.18,29.88 9.36,28.74 9.54,27.6 9.72,26.58 9.24,25.74 8.76,24.9 8.4,24.9 7.5,24.54 6.6,24.18 -1.545,21.735 -2.865,21.375 c -1.32,-0.36 -2.025,0.27 -2.025,0.27 l -4.005,-1.215 -0.27,1.575 5.58,2.43 c 0,0 0.105,2.205 -0.495,2.925 -0.6,0.72 -1.476,1.127 -2.28,0.9 -1.275,-0.36 -2.352,-0.591 -3.12,-0.99 -1.155,-0.6 -1.586,-1.359 -1.74,-2.61 -0.15,-1.215 -0.015,-2.25 0.54,-4.38 C -9.99,17.632 -6.9,4.98 -6.24,2.4 -5.58,-0.18 -3.6,-1.02 0,0 Z"
             style="fill:none;stroke:#231f20;stroke-width:1;stroke-linecap:round;stroke-linejoin:round;stroke-miterlimit:4;stroke-dasharray:none;stroke-opacity:1"
             id="path18340"
             inkscape:connector-curvature="0" /></g><g
           id="g18342"
           transform="translate(124.67,45.19)"><path
             d="m 0,0 c 0,0 32.49,9.72 35.73,10.62 3.24,0.9 5.22,0.18 5.67,-1.53 0.45,-1.71 0.45,-1.8 0.54,-3.15 0.09,-1.35 -0.09,-0.99 0.36,-1.8 0.45,-0.81 1.53,-1.53 1.53,-1.53 l 2.43,-15.66 -7.74,1.71 c 0,0 -0.54,3.06 -1.53,4.95 -0.99,1.89 -2.07,2.25 -4.23,2.79 -2.16,0.54 -5.13,0.99 -5.13,0.99 0,0 -17.55,-6.48 -19.35,-7.38 -1.8,-0.9 -3.96,-2.16 -4.5,-4.77 -0.54,-2.61 -0.09,-3.69 0.36,-6.21 0.45,-2.52 0.9,-4.32 0.9,-4.32 0,0 -0.18,-0.18 -1.53,-0.36 -1.35,-0.18 -1.89,-0.27 -2.88,0.09 -0.99,0.36 -4.59,1.26 -4.59,1.26 l -0.18,1.35 c 0,0 -3.69,-0.72 -4.41,-2.79 -0.72,-2.07 -0.45,-2.97 1.35,-4.95 1.8,-1.98 4.29,-4.35 5.19,-5.61 0.9,-1.26 1.59,-2.55 1.5,-3.9 -0.09,-1.35 -0.6,-2.28 -1.5,-2.82 -0.9,-0.54 -2.16,-1.02 -2.16,-1.02 l -5.1,1.2 -0.54,2.7 c 0,0 1.26,0.18 1.71,0.9 0.45,0.72 0.54,1.35 -0.72,2.34 -1.26,0.99 -4.41,4.59 -5.76,6.03 -1.35,1.44 -2.07,3.6 -1.71,5.85 0.36,2.25 2.04,3.54 2.04,3.54 0,0 -6.36,1.32 -8.34,1.77 -1.98,0.45 -2.76,1.41 -3.3,3.21 -0.54,1.8 -0.93,3.99 -1.11,5.61 -0.18,1.62 1.167,3.12 3.75,3.93 C -20.19,-6 0,0 0,0 Z"
             style="fill:none;stroke:#231f20;stroke-width:1;stroke-linecap:round;stroke-linejoin:round;stroke-miterlimit:4;stroke-dasharray:none;stroke-opacity:1"
             id="path18344"
             inkscape:connector-curvature="0" /></g><g
           id="g18346"
           transform="translate(185.5435,135.0287)"><path
             d="m 0,0 c 6.229,-20.666 3.45,-39.778 -6.207,-42.689 -9.657,-2.911 -22.535,11.483 -28.763,32.149 -6.229,20.666 -3.45,39.778 6.206,42.689 C -19.107,35.059 -6.229,20.666 0,0 Z"
             style="fill:none;stroke:#231f20;stroke-width:0.25;stroke-linecap:round;stroke-linejoin:round;stroke-miterlimit:4;stroke-dasharray:none;stroke-opacity:1"
             id="path18348"
             inkscape:connector-curvature="0" /></g><g
           id="g18350"
           transform="translate(191.7262,119.0708)"><path
             d="m 0,0 c 1.843,-16.795 -1.943,-30.182 -10.318,-32.706 -11.01,-3.318 -25.781,13.387 -32.992,37.312 -7.211,23.925 -4.132,46.01 6.878,49.329 11.009,3.318 25.78,-13.387 32.991,-37.312 0.187,-0.621 0.367,-1.24 0.54,-1.858"
             style="fill:none;stroke:#231f20;stroke-width:0.25;stroke-linecap:round;stroke-linejoin:round;stroke-miterlimit:4;stroke-dasharray:none;stroke-opacity:1"
             id="path18352"
             inkscape:connector-curvature="0" /></g><g
           id="g18354"
           transform="translate(197.4134,96.9872)"><path
             d="m 0,0 c -1.802,-4.769 -4.597,-8.037 -8.297,-9.152 l -8.691,-1.695"
             style="fill:none;stroke:#231f20;stroke-width:0.25;stroke-linecap:round;stroke-linejoin:round;stroke-miterlimit:4;stroke-dasharray:none;stroke-opacity:1"
             id="path18356"
             inkscape:connector-curvature="0" /></g><g
           id="g18358"
           transform="translate(154.91,172.9)"><path
             d="m 0,0 7.233,2.71 c 0.155,0.056 0.312,0.108 0.471,0.155 9.633,2.904 22.213,-9.744 30.11,-29.218"
             style="fill:none;stroke:#231f20;stroke-width:0.25;stroke-linecap:round;stroke-linejoin:round;stroke-miterlimit:4;stroke-dasharray:none;stroke-opacity:1"
             id="path18360"
             inkscape:connector-curvature="0" /></g><g
           id="g18362"
           transform="translate(184.8966,96.7427)"><path
             d="m 0,0 c -1.104,-1.059 -2.36,-1.821 -3.76,-2.243 -9.657,-2.911 -22.535,11.483 -28.764,32.149 -4.787,15.885 -4.197,30.89 0.692,38.286"
             style="fill:none;stroke:#231f20;stroke-width:0.25;stroke-linecap:round;stroke-linejoin:round;stroke-miterlimit:4;stroke-dasharray:none;stroke-opacity:1"
             id="path18364"
             inkscape:connector-curvature="0" /></g><g
           id="g18366"
           transform="translate(248.6,164.89)"><path
             d="m 0,0 c 0,0 -14.16,-1.8 -20.04,-3.24 -5.88,-1.44 -12.96,-3.72 -20.64,-6.96 -7.68,-3.24 -14.88,-6.12 -17.04,-11.16 -2.16,-5.04 -3.24,-7.23 0.12,-21.39 3.36,-14.16 9.6,-36.21 11.64,-45.81 2.04,-9.6 3.84,-16.2 1.44,-23.52 -2.4,-7.32 -13.44,-11.04 -13.44,-11.04"
             style="fill:none;stroke:#231f20;stroke-width:0.25;stroke-linecap:round;stroke-linejoin:round;stroke-miterlimit:4;stroke-dasharray:none;stroke-opacity:1"
             id="path18368"
             inkscape:connector-curvature="0" /></g><g
           id="g18370"
           transform="translate(115.265,4.69)"><path
             d="m 0,0 4.77,-1.215 c 0,0 1.98,-0.315 2.07,1.35 0.09,1.665 -1.215,2.835 -2.475,3.96 -1.26,1.125 -4.14,4.32 -5.175,5.76 -1.035,1.44 -1.08,3.15 -0.45,5.175 0.63,2.025 2.115,3.24 3.645,3.87 1.53,0.63 2.535,0.915 3.57,1.14 C 6.99,20.265 7.695,19.665 6.66,19.35 5.625,19.035 5.4,18.765 5.4,18.765 c 0,0 -0.27,-0.36 1.26,-0.63 1.53,-0.27 3.555,-0.945 4.365,-1.125 0.81,-0.18 1.485,-0.495 1.35,1.08 -0.135,1.575 -0.855,6.57 -0.99,7.605 -0.135,1.035 -0.405,2.61 1.035,3.15 1.44,0.54 4.77,1.845 4.77,1.845"
             style="fill:none;stroke:#231f20;stroke-width:0.25;stroke-linecap:round;stroke-linejoin:round;stroke-miterlimit:4;stroke-dasharray:none;stroke-opacity:1"
             id="path18372"
             inkscape:connector-curvature="0" /></g><g
           id="g18374"
           transform="translate(126.605,19.765)"><path
             d="M 0,0 C 0,0 2.43,-0.135 2.25,2.16"
             style="fill:none;stroke:#231f20;stroke-width:0.25;stroke-linecap:round;stroke-linejoin:round;stroke-miterlimit:4;stroke-dasharray:none;stroke-opacity:1"
             id="path18376"
             inkscape:connector-curvature="0" /></g><g
           id="g18378"
           transform="translate(128.09,28.5625)"><path
             d="m 0,0 c 0,0 -0.18,0.788 -0.315,1.508 -0.135,0.72 -0.135,1.349 0.248,2.137 0.403,0.831 2.295,1.26 2.295,1.26"
             style="fill:none;stroke:#231f20;stroke-width:0.25;stroke-linecap:round;stroke-linejoin:round;stroke-miterlimit:4;stroke-dasharray:none;stroke-opacity:1"
             id="path18380"
             inkscape:connector-curvature="0" /></g><g
           id="g18382"
           transform="translate(127.595,33.5575)"><path
             d="m 0,0 c 0,0 -0.63,0.18 -0.9,0.293 -0.27,0.112 -0.45,0.517 0.563,0.9 1.012,0.382 3.622,1.035 4.252,1.282 0.63,0.248 0.99,0.54 0.652,1.89 C 4.23,5.715 3.78,6.795 3.6,7.403 3.42,8.01 3.173,9.135 4.387,9.585 c 1.215,0.45 5.828,1.8 6.863,2.138 1.035,0.337 1.732,0.315 2.227,-0.923 0.496,-1.237 0.946,-2.587 1.17,-3.465 0.225,-0.877 0.158,-1.755 0.158,-1.755"
             style="fill:none;stroke:#231f20;stroke-width:0.25;stroke-linecap:round;stroke-linejoin:round;stroke-miterlimit:4;stroke-dasharray:none;stroke-opacity:1"
             id="path18384"
             inkscape:connector-curvature="0" /></g><g
           id="g18386"
           transform="translate(133.2425,35.785)"><path
             d="m 0,0 c 0,0 0.293,0.428 0.203,1.08 -0.09,0.652 -0.675,2.475 -0.855,3.015 -0.18,0.54 -0.383,1.08 -0.495,1.507 -0.113,0.428 -0.248,1.688 0.472,1.935"
             style="fill:none;stroke:#231f20;stroke-width:0.25;stroke-linecap:round;stroke-linejoin:round;stroke-miterlimit:4;stroke-dasharray:none;stroke-opacity:1"
             id="path18388"
             inkscape:connector-curvature="0" /></g><g
           id="g18390"
           transform="translate(141.7858,42.597)"><path
             d="M 0,0 21.434,6.493"
             style="fill:none;stroke:#231f20;stroke-width:0.25;stroke-linecap:round;stroke-linejoin:round;stroke-miterlimit:4;stroke-dasharray:none;stroke-opacity:1"
             id="path18392"
             inkscape:connector-curvature="0" /></g><g
           id="g18394"
           transform="translate(109.94,32.95)"><path
             d="M 0,0 21.654,6.56"
             style="fill:none;stroke:#231f20;stroke-width:0.25;stroke-linecap:round;stroke-linejoin:round;stroke-miterlimit:4;stroke-dasharray:none;stroke-opacity:1"
             id="path18396"
             inkscape:connector-curvature="0" /></g><g
           id="g18398"
           transform="translate(162.98,35.83)"><path
             d="M 0,0 7.38,-1.68"
             style="fill:none;stroke:#231f20;stroke-width:0.25;stroke-linecap:round;stroke-linejoin:round;stroke-miterlimit:4;stroke-dasharray:none;stroke-opacity:1"
             id="path18400"
             inkscape:connector-curvature="0" /></g><g
           id="g18402"
           transform="translate(110.18,22.93)"><path
             d="M 0,0 C 0,0 1.02,0.96 1.92,1.56 2.82,2.16 3.48,2.52 4.68,2.7 5.88,2.88 5.719,4.068 3.9,3.54 2.04,3 1.14,2.28 -1.08,2.76 -3.3,3.24 -6.72,4.02 -7.8,4.38 c -1.08,0.36 -1.74,0.96 -1.92,2.04 -0.18,1.08 -1.02,3.36 -1.2,4.14 -0.18,0.78 0.18,2.4 1.86,2.94 1.68,0.54 58.02,17.64 59.46,18 1.44,0.36 4.44,1.98 5.22,-0.66"
             style="fill:none;stroke:#231f20;stroke-width:0.25;stroke-linecap:round;stroke-linejoin:round;stroke-miterlimit:4;stroke-dasharray:none;stroke-opacity:1"
             id="path18404"
             inkscape:connector-curvature="0" /></g><g
           id="g18406"
           transform="translate(120.665,23.455)"><path
             d="M 0,0 0.435,-2.325"
             style="fill:none;stroke:#231f20;stroke-width:0.25;stroke-linecap:round;stroke-linejoin:round;stroke-miterlimit:4;stroke-dasharray:none;stroke-opacity:1"
             id="path18408"
             inkscape:connector-curvature="0" /></g><g
           id="g18410"
           transform="translate(127.28,168.31)"><path
             d="m 0,0 c 0,0 2.52,0.45 3.06,-2.7 0.54,-3.15 1.62,-19.08 1.62,-20.61 0,-1.53 -0.36,-2.97 -1.35,-3.69 -0.99,-0.72 -2.52,-1.17 -3.24,-1.35 -0.72,-0.18 -2.34,-0.18 -3.42,0.54"
             style="fill:none;stroke:#231f20;stroke-width:0.25;stroke-linecap:round;stroke-linejoin:round;stroke-miterlimit:4;stroke-dasharray:none;stroke-opacity:1"
             id="path18412"
             inkscape:connector-curvature="0" /></g><g
           id="g18414"
           transform="translate(103.43,145.27)"><path
             d="m 0,0 c 0,0 1.35,-1.71 2.97,-1.35 1.62,0.36 3.45,0.6 4.08,-1.11 0.63,-1.71 0.84,-2.04 0.84,-3.66 0,-1.62 -0.06,-2.79 -0.6,-3.42 -0.54,-0.63 -1.17,-1.35 -2.43,-1.71 -1.26,-0.36 -2.7,-0.63 -2.7,-0.63 0,0 -1.47,-0.3 -3.27,1.14"
             style="fill:none;stroke:#231f20;stroke-width:0.25;stroke-linecap:round;stroke-linejoin:round;stroke-miterlimit:4;stroke-dasharray:none;stroke-opacity:1"
             id="path18416"
             inkscape:connector-curvature="0" /></g><g
           id="g18418"
           transform="translate(122.78,170.29)"><path
             d="M 0,0 17.01,4.86"
             style="fill:none;stroke:#231f20;stroke-width:0.25;stroke-linecap:round;stroke-linejoin:round;stroke-miterlimit:4;stroke-dasharray:none;stroke-opacity:1"
             id="path18420"
             inkscape:connector-curvature="0" /></g><g
           id="g18422"
           transform="translate(142.22,145.72)"><path
             d="M 0,0 -7.56,-2.16"
             style="fill:none;stroke:#231f20;stroke-width:0.25;stroke-linecap:round;stroke-linejoin:round;stroke-miterlimit:4;stroke-dasharray:none;stroke-opacity:1"
             id="path18424"
             inkscape:connector-curvature="0" /></g><g
           id="g18426"
           transform="translate(91.82,130.69)"><path
             d="M 0,0 8.55,2.25"
             style="fill:none;stroke:#231f20;stroke-width:0.25;stroke-linecap:round;stroke-linejoin:round;stroke-miterlimit:4;stroke-dasharray:none;stroke-opacity:1"
             id="path18428"
             inkscape:connector-curvature="0" /></g><g
           id="g18430"
           transform="translate(108.92,85.15)"><path
             d="M 0,0 39.6,11.7"
             style="fill:none;stroke:#231f20;stroke-width:0.25;stroke-linecap:round;stroke-linejoin:round;stroke-miterlimit:4;stroke-dasharray:none;stroke-opacity:1"
             id="path18432"
             inkscape:connector-curvature="0" /></g><g
           id="g18434"
           transform="translate(112.4,113.23)"><path
             d="M 0,0 -1.14,0.96"
             style="fill:none;stroke:#231f20;stroke-width:0.25;stroke-linecap:round;stroke-linejoin:round;stroke-miterlimit:4;stroke-dasharray:none;stroke-opacity:1"
             id="path18436"
             inkscape:connector-curvature="0" /></g><g
           id="g18438"
           transform="translate(113.96,115.705)"><path
             d="M 0,0 C 0,0 -0.045,-0.63 -0.135,-1.125 -0.225,-1.62 -1.17,-1.665 -1.62,-0.99"
             style="fill:none;stroke:#231f20;stroke-width:0.25;stroke-linecap:round;stroke-linejoin:round;stroke-miterlimit:4;stroke-dasharray:none;stroke-opacity:1"
             id="path18440"
             inkscape:connector-curvature="0" /></g><g
           id="g18442"
           transform="translate(111.44,119.935)"><path
             d="M 0,0 C 0,0 1.708,0.033 2.88,-1.53 3.69,-2.61 3.6,-3.6 3.555,-4.365 3.51,-5.13 3.78,-6.57 2.565,-6.93"
             style="fill:none;stroke:#231f20;stroke-width:0.25;stroke-linecap:round;stroke-linejoin:round;stroke-miterlimit:4;stroke-dasharray:none;stroke-opacity:1"
             id="path18444"
             inkscape:connector-curvature="0" /></g><g
           id="g18446"
           transform="translate(132.5,126.07)"><path
             d="m 0,0 c 0,0 2.46,-0.06 3.3,-2.28 0.84,-2.22 2.52,-9.42 2.52,-9.42 0,0 2.16,-9.12 2.64,-11.28 0.48,-2.16 0.12,-4.68 -3.24,-5.94"
             style="fill:none;stroke:#231f20;stroke-width:0.25;stroke-linecap:round;stroke-linejoin:round;stroke-miterlimit:4;stroke-dasharray:none;stroke-opacity:1"
             id="path18448"
             inkscape:connector-curvature="0" /></g><g
           id="g18450"
           transform="translate(143.12,159.73)"><path
             d="M 0,0 C 0,0 0.84,18.12 7.8,25.8"
             style="fill:none;stroke:#231f20;stroke-width:0.25;stroke-linecap:round;stroke-linejoin:round;stroke-miterlimit:4;stroke-dasharray:none;stroke-opacity:1"
             id="path18452"
             inkscape:connector-curvature="0" /></g><g
           id="g18454"
           transform="translate(170.3,184.87)"><path
             d="m 0,0 c 0,0 8.19,-6.21 15.12,-15.84 6.93,-9.63 10.71,-19.89 10.71,-19.89"
             style="fill:none;stroke:#231f20;stroke-width:0.25;stroke-linecap:round;stroke-linejoin:round;stroke-miterlimit:4;stroke-dasharray:none;stroke-opacity:1"
             id="path18456"
             inkscape:connector-curvature="0" /></g><g
           id="g18458"
           transform="translate(182.99,176.95)"><path
             d="M 0,0 C 0,0 11.07,-13.95 15.66,-26.37"
             style="fill:none;stroke:#231f20;stroke-width:0.25;stroke-linecap:round;stroke-linejoin:round;stroke-miterlimit:4;stroke-dasharray:none;stroke-opacity:1"
             id="path18460"
             inkscape:connector-curvature="0" /></g><g
           id="g18462"
           transform="translate(216.11,185.68)"><path
             d="m 0,0 c 0,0 3.51,-3.42 5.4,-4.68 1.89,-1.26 10.62,-8.55 12.42,-9.99 1.8,-1.44 3.15,-1.98 5.04,-2.52 1.89,-0.54 7.65,-1.89 7.65,-1.89"
             style="fill:none;stroke:#231f20;stroke-width:0.25;stroke-linecap:round;stroke-linejoin:round;stroke-miterlimit:4;stroke-dasharray:none;stroke-opacity:1"
             id="path18464"
             inkscape:connector-curvature="0" /></g><g
           id="g18466"
           transform="translate(234.83,162.91)"><path
             d="M 0,0 C 0,0 2.07,4.14 6.93,4.05"
             style="fill:none;stroke:#231f20;stroke-width:0.25;stroke-linecap:round;stroke-linejoin:round;stroke-miterlimit:4;stroke-dasharray:none;stroke-opacity:1"
             id="path18468"
             inkscape:connector-curvature="0" /></g><g
           id="g18470"
           transform="translate(231.23,162.28)"><path
             d="M 0,0 C 0,0 -3.87,10.89 -9.18,18.18"
             style="fill:none;stroke:#231f20;stroke-width:0.25;stroke-linecap:round;stroke-linejoin:round;stroke-miterlimit:4;stroke-dasharray:none;stroke-opacity:1"
             id="path18472"
             inkscape:connector-curvature="0" /></g><g
           id="g18474"
           transform="translate(115.85,173.08)"><path
             d="m 0,0 c 0,0 -2.43,2.25 -4.77,3.69 -2.34,1.44 -5.94,2.88 -7.92,3.24 -1.98,0.36 -5.67,2.97 -7.38,6.84"
             style="fill:none;stroke:#231f20;stroke-width:0.25;stroke-linecap:round;stroke-linejoin:round;stroke-miterlimit:4;stroke-dasharray:none;stroke-opacity:1"
             id="path18476"
             inkscape:connector-curvature="0" /></g><g
           id="g18478"
           transform="translate(119.54,166.81)"><path
             d="m 0,0 c 0,0 0.6,-5.22 1.02,-7.68 0.42,-2.46 0.54,-4.14 0.48,-4.92 -0.06,-0.78 0,-1.86 -0.24,-2.64 -0.24,-0.78 -1.02,-1.44 -1.02,-1.44 l -20.04,1.17"
             style="fill:none;stroke:#231f20;stroke-width:0.25;stroke-linecap:round;stroke-linejoin:round;stroke-miterlimit:4;stroke-dasharray:none;stroke-opacity:1"
             id="path18480"
             inkscape:connector-curvature="0" /></g><g
           id="g18482"
           transform="translate(90.68,143.83)"><path
             d="M 0,0 C 0,0 -1.56,-2.28 -1.08,-13.56 -0.6,-24.84 0.9,-29.28 2.4,-35.82 3.9,-42.36 8.88,-52.38 8.88,-52.38"
             style="fill:none;stroke:#231f20;stroke-width:0.25;stroke-linecap:round;stroke-linejoin:round;stroke-miterlimit:4;stroke-dasharray:none;stroke-opacity:1"
             id="path18484"
             inkscape:connector-curvature="0" /></g><g
           id="g18486"
           transform="translate(90.7326,137.0375)"><path
             d="M 0,0 -1.073,-0.167"
             style="fill:none;stroke:#231f20;stroke-width:0.25;stroke-linecap:round;stroke-linejoin:round;stroke-miterlimit:4;stroke-dasharray:none;stroke-opacity:1"
             id="path18488"
             inkscape:connector-curvature="0" /></g><g
           id="g18490"
           transform="translate(109.7741,140.0109)"><path
             d="M 0,0 -8.282,-1.293"
             style="fill:none;stroke:#231f20;stroke-width:0.25;stroke-linecap:round;stroke-linejoin:round;stroke-miterlimit:4;stroke-dasharray:none;stroke-opacity:1"
             id="path18492"
             inkscape:connector-curvature="0" /></g><g
           id="g18494"
           transform="translate(129.62,143.11)"><path
             d="M 0,0 -6.446,-1.007"
             style="fill:none;stroke:#231f20;stroke-width:0.25;stroke-linecap:round;stroke-linejoin:round;stroke-miterlimit:4;stroke-dasharray:none;stroke-opacity:1"
             id="path18496"
             inkscape:connector-curvature="0" /></g><g
           id="g18498"
           transform="translate(95.1215,108.3665)"><path
             d="M 0,0 -1.861,-0.777"
             style="fill:none;stroke:#231f20;stroke-width:0.25;stroke-linecap:round;stroke-linejoin:round;stroke-miterlimit:4;stroke-dasharray:none;stroke-opacity:1"
             id="path18500"
             inkscape:connector-curvature="0" /></g><g
           id="g18502"
           transform="translate(108.0283,113.7082)"><path
             d="M 0,0 -1.657,-0.691"
             style="fill:none;stroke:#231f20;stroke-width:0.25;stroke-linecap:round;stroke-linejoin:round;stroke-miterlimit:4;stroke-dasharray:none;stroke-opacity:1"
             id="path18504"
             inkscape:connector-curvature="0" /></g><g
           id="g18506"
           transform="translate(133.64,124.51)"><path
             d="M 0,0 -7.199,-3.003"
             style="fill:none;stroke:#231f20;stroke-width:0.25;stroke-linecap:round;stroke-linejoin:round;stroke-miterlimit:4;stroke-dasharray:none;stroke-opacity:1"
             id="path18508"
             inkscape:connector-curvature="0" /></g><g
           id="g18510"
           transform="translate(111.62,176.5)"><path
             d="m 0,0 c 0,0 11.34,4.59 12.78,5.04 1.44,0.45 3.8,1.09 5.31,1.35 2.61,0.45 11.97,2.34 11.97,2.34"
             style="fill:none;stroke:#231f20;stroke-width:0.25;stroke-linecap:round;stroke-linejoin:round;stroke-miterlimit:4;stroke-dasharray:none;stroke-opacity:1"
             id="path18512"
             inkscape:connector-curvature="0" /></g><g
           id="g18514"
           transform="translate(33.68,183.25)"><path
             d="M 0,0 C 0,0 1.53,-5.76 -0.36,-8.55"
             style="fill:none;stroke:#231f20;stroke-width:0.25;stroke-linecap:round;stroke-linejoin:round;stroke-miterlimit:4;stroke-dasharray:none;stroke-opacity:1"
             id="path18516"
             inkscape:connector-curvature="0" /></g><g
           id="g18518"
           transform="translate(24.32,174.7)"><path
             d="M 0,0 4.95,-1.17"
             style="fill:none;stroke:#231f20;stroke-width:0.25;stroke-linecap:round;stroke-linejoin:round;stroke-miterlimit:4;stroke-dasharray:none;stroke-opacity:1"
             id="path18520"
             inkscape:connector-curvature="0" /></g><g
           id="g18522"
           transform="translate(34.58,150.13)"><path
             d="M 0,0 C 0,0 1.62,-0.18 2.34,-0.45 3.06,-0.72 4.14,0 4.32,1.98 4.5,3.96 3.78,5.04 6.21,5.22 c 2.43,0.18 4.59,0.54 5.31,0.54 0.72,0 3.96,-0.54 5.85,-1.26 1.89,-0.72 4.59,-1.35 5.4,-1.8 0.81,-0.45 5.31,-0.63 8.64,-0.18 3.33,0.45 29.25,3.33 38.43,2.97 9.18,-0.36 12.87,-1.8 12.87,-1.8"
             style="fill:none;stroke:#231f20;stroke-width:0.25;stroke-linecap:round;stroke-linejoin:round;stroke-miterlimit:4;stroke-dasharray:none;stroke-opacity:1"
             id="path18524"
             inkscape:connector-curvature="0" /></g><g
           id="g18526"
           transform="translate(42.77,180.37)"><path
             d="m 0,0 c 0,0 -0.27,-6.48 6.39,-10.35 6.66,-3.87 13.5,-3.78 18.99,-3.69 5.49,0.09 13.59,-0.18 16.74,-0.27 3.15,-0.09 10.08,-2.7 15.12,-2.7 5.04,0 15.48,3.87 15.48,3.87"
             style="fill:none;stroke:#231f20;stroke-width:0.25;stroke-linecap:round;stroke-linejoin:round;stroke-miterlimit:4;stroke-dasharray:none;stroke-opacity:1"
             id="path18528"
             inkscape:connector-curvature="0" /></g><g
           id="g18530"
           transform="translate(72.08,146.41)"><path
             d="m 0,0 c 0,0 -11.52,-12.96 -8.16,-32.28 3.36,-19.32 11.159,-25.554 19.32,-33.36 2.76,-2.64 4.2,-4.32 4.08,-7.44 -0.12,-3.12 0.6,-6.6 3.84,-8.52 3.24,-1.92 10.08,-2.64 15.48,-1.8 5.4,0.84 22.32,7.32 23.88,7.92 1.56,0.6 2.16,0.72 3.12,-0.6 0.96,-1.32 1.92,-3.6 2.64,-6.24 0.72,-2.64 0.96,-5.28 1.56,-7.8 0.6,-2.52 0.36,-5.4 -0.48,-7.2"
             style="fill:none;stroke:#231f20;stroke-width:0.25;stroke-linecap:round;stroke-linejoin:round;stroke-miterlimit:4;stroke-dasharray:none;stroke-opacity:1"
             id="path18532"
             inkscape:connector-curvature="0" /></g><g
           id="g18534"
           transform="translate(48.68,147.49)"><path
             d="M 0,0 13.2,-76.8"
             style="fill:none;stroke:#231f20;stroke-width:0.25;stroke-linecap:round;stroke-linejoin:round;stroke-miterlimit:4;stroke-dasharray:none;stroke-opacity:1"
             id="path18536"
             inkscape:connector-curvature="0" /></g><g
           id="g18538"
           transform="translate(45.92,100.81)"><path
             d="M 0,0 C 0,0 0.12,-0.84 4.92,-2.4"
             style="fill:none;stroke:#231f20;stroke-width:0.25;stroke-linecap:round;stroke-linejoin:miter;stroke-miterlimit:4;stroke-dasharray:none;stroke-opacity:1"
             id="path18540"
             inkscape:connector-curvature="0" /></g><g
           id="g18542"
           transform="translate(40.64,74.89)"><path
             d="m 0,0 c 0,0 0.96,1.2 2.04,2.16 1.08,0.96 3,0.48 3.84,0.36 0.84,-0.12 3.84,-0.96 5.04,-1.2 1.2,-0.24 2.4,-1.32 2.04,-2.76 -0.36,-1.44 -0.48,-3 -0.6,-4.44 -0.12,-1.44 0.48,-3.12 3,-4.68"
             style="fill:none;stroke:#231f20;stroke-width:0.25;stroke-linecap:round;stroke-linejoin:miter;stroke-miterlimit:4;stroke-dasharray:none;stroke-opacity:1"
             id="path18544"
             inkscape:connector-curvature="0" /></g><g
           id="g18546"
           transform="translate(39.68,125.89)"><path
             d="M 0,0 C 0,0 2.4,3 5.4,2.76"
             style="fill:none;stroke:#231f20;stroke-width:0.25;stroke-linecap:round;stroke-linejoin:miter;stroke-miterlimit:4;stroke-dasharray:none;stroke-opacity:1"
             id="path18548"
             inkscape:connector-curvature="0" /></g><g
           id="g18550"
           transform="translate(69.8,60.37)"><path
             d="M 0,0 C 0,0 1.92,0.72 4.56,1.44 7.2,2.16 9,1.56 13.68,0.48 18.36,-0.6 33.6,-3 38.88,-3.96 44.16,-4.92 54.72,-3.72 60,1.32"
             style="fill:none;stroke:#231f20;stroke-width:0.25;stroke-linecap:round;stroke-linejoin:miter;stroke-miterlimit:4;stroke-dasharray:none;stroke-opacity:1"
             id="path18552"
             inkscape:connector-curvature="0" /></g><g
           id="g18554"
           transform="translate(169.28,49.51)"><path
             d="M 0,0 C 0,0 -0.84,0.45 -1.2,2.7 -1.56,4.95 -2.28,8.07 -2.64,9.42 -3,10.77 -3.3,12.45 -7.26,11.64 -11.22,10.83 -25.44,6.48 -31.02,4.23"
             style="fill:none;stroke:#231f20;stroke-width:0.25;stroke-linecap:round;stroke-linejoin:round;stroke-miterlimit:4;stroke-dasharray:none;stroke-opacity:1"
             id="path18556"
             inkscape:connector-curvature="0" /></g><g
           id="g18558"
           transform="translate(165.02,61.27)"><path
             d="M 0,0 C 0,0 -4.89,2.1 -9.93,1.65 -14.97,1.2 -19.47,0.48 -27.48,-2.31"
             style="fill:none;stroke:#231f20;stroke-width:0.25;stroke-linecap:round;stroke-linejoin:round;stroke-miterlimit:4;stroke-dasharray:none;stroke-opacity:1"
             id="path18560"
             inkscape:connector-curvature="0" /></g><g
           id="g18562"
           transform="translate(134.93,67.78)"><path
             d="m 0,0 9.18,3.69 19.44,3.33 c 0,0 5.67,-4.59 7.65,-10.89"
             style="fill:none;stroke:#231f20;stroke-width:0.25;stroke-linecap:round;stroke-linejoin:round;stroke-miterlimit:4;stroke-dasharray:none;stroke-opacity:1"
             id="path18564"
             inkscape:connector-curvature="0" /></g><g
           id="g18566"
           transform="translate(204.95,57.61)"><path
             d="M 0,0 C 0,0 -3.15,0.45 -6.21,0.18 -9.27,-0.09 -7.92,0 -14.85,-1.44 c -6.93,-1.44 -18.72,-6.03 -21.42,-7.02 0,0 2.4,-14.64 2.58,-16.44 0.18,-1.8 0.788,-5.738 -1.62,-6.24 -1.44,-0.3 -2.84,0.093 -4.02,2.04 -1.2,1.98 -1.5,3.72 -1.5,3.72 l -0.829,0.157"
             style="fill:none;stroke:#231f20;stroke-width:0.25;stroke-linecap:round;stroke-linejoin:round;stroke-miterlimit:4;stroke-dasharray:none;stroke-opacity:1"
             id="path18568"
             inkscape:connector-curvature="0" /></g><g
           id="g18570"
           transform="translate(168.05,69.76)"><path
             d="m 0,0 c 0,0 2.34,-15.03 2.52,-16.11 0.09,-0.54 0.045,-1.508 0.315,-2.216 0.27,-0.709 0.855,-1.159 2.205,-0.664"
             style="fill:none;stroke:#231f20;stroke-width:0.25;stroke-linecap:round;stroke-linejoin:round;stroke-miterlimit:4;stroke-dasharray:none;stroke-opacity:1"
             id="path18572"
             inkscape:connector-curvature="0" /></g><g
           id="g18574"
           transform="translate(171.02,51.13)"><path
             d="m 0,0 c 0,0 1.35,5.58 5.4,7.38 4.05,1.8 8.55,1.26 12.51,-2.52"
             style="fill:none;stroke:#231f20;stroke-width:0.25;stroke-linecap:round;stroke-linejoin:round;stroke-miterlimit:4;stroke-dasharray:none;stroke-opacity:1"
             id="path18576"
             inkscape:connector-curvature="0" /></g><g
           id="g18578"
           transform="translate(177.14,52.39)"><path
             d="m 0,0 c 0,0 1.26,4.05 4.86,4.77 3.6,0.72 6.03,-1.44 6.03,-1.44"
             style="fill:none;stroke:#231f20;stroke-width:0.25;stroke-linecap:round;stroke-linejoin:round;stroke-miterlimit:4;stroke-dasharray:none;stroke-opacity:1"
             id="path18580"
             inkscape:connector-curvature="0" /></g><g
           id="g18582"
           transform="translate(166.52,86.68)"><path
             d="m 0,0 c 0,0 4.14,-6.66 9.9,-8.55 5.76,-1.89 9.54,-2.61 15.21,-1.44 5.67,1.17 8.73,9.09 8.73,9.09"
             style="fill:none;stroke:#231f20;stroke-width:0.25;stroke-linecap:round;stroke-linejoin:round;stroke-miterlimit:4;stroke-dasharray:none;stroke-opacity:1"
             id="path18584"
             inkscape:connector-curvature="0" /></g><g
           id="g18586"
           transform="translate(106.22,80.47)"><path
             d="M 0,0 C 0,0 5.58,-9.09 17.91,-11.97"
             style="fill:none;stroke:#231f20;stroke-width:0.25;stroke-linecap:round;stroke-linejoin:round;stroke-miterlimit:4;stroke-dasharray:none;stroke-opacity:1"
             id="path18588"
             inkscape:connector-curvature="0" /></g><g
           id="g18590"
           transform="translate(107.39,78.85)"><path
             d="m 0,0 c 0,0 33.48,4.59 34.92,4.77 1.44,0.18 2.07,0.36 3.51,1.26 1.44,0.9 3.78,2.07 5.58,2.88 1.8,0.81 2.97,0.54 4.05,0.18 1.08,-0.36 2.16,-0.63 2.79,-2.52 0.63,-1.89 1.08,-3.78 1.35,-4.95 0.27,-1.17 0.36,-2.61 -1.44,-3.96 -1.8,-1.35 -1.44,-1.26 -3.06,-1.53 -1.62,-0.27 -4.14,-0.36 -5.58,-0.45 -1.44,-0.09 -3.33,0 -4.59,-0.36 -1.26,-0.36 -10.44,-5.13 -10.44,-5.13"
             style="fill:none;stroke:#231f20;stroke-width:0.25;stroke-linecap:round;stroke-linejoin:round;stroke-miterlimit:4;stroke-dasharray:none;stroke-opacity:1"
             id="path18592"
             inkscape:connector-curvature="0" /></g><g
           id="g18594"
           transform="translate(159.05,77.32)"><path
             d="m 0,0 c 0,0 2.34,2.25 3.6,3.51 1.26,1.26 0.36,3.06 0.36,3.96 0,0.9 -0.99,3.33 -1.8,4.95 -0.81,1.62 -2.88,4.23 -3.69,5.13 -0.81,0.9 -3.33,1.17 -4.68,1.17"
             style="fill:none;stroke:#231f20;stroke-width:0.25;stroke-linecap:round;stroke-linejoin:round;stroke-miterlimit:4;stroke-dasharray:none;stroke-opacity:1"
             id="path18596"
             inkscape:connector-curvature="0" /></g><g
           id="g18598"
           transform="translate(143.75,83.89)"><path
             d="M 0,0 -3.06,3.78"
             style="fill:none;stroke:#231f20;stroke-width:0.25;stroke-linecap:round;stroke-linejoin:round;stroke-miterlimit:4;stroke-dasharray:none;stroke-opacity:1"
             id="path18600"
             inkscape:connector-curvature="0" /></g><g
           id="g18602"
           transform="translate(201.26,57.79)"><path
             d="M 0,0 C 0,0 -0.48,9.78 1.98,15.36"
             style="fill:none;stroke:#231f20;stroke-width:0.25;stroke-linecap:round;stroke-linejoin:round;stroke-miterlimit:4;stroke-dasharray:none;stroke-opacity:1"
             id="path18604"
             inkscape:connector-curvature="0" /></g><g
           id="g18606"
           transform="translate(193.34,143.11)"><path
             d="m 0,0 c 0,0 4.95,4.41 13.41,5.4 8.46,0.99 41.67,4.59 41.67,4.59"
             style="fill:none;stroke:#231f20;stroke-width:0.25;stroke-linecap:round;stroke-linejoin:round;stroke-miterlimit:4;stroke-dasharray:none;stroke-opacity:1"
             id="path18608"
             inkscape:connector-curvature="0" /></g><g
           id="g18610"
           transform="translate(246.08,74.26)"><path
             d="m 0,0 c 0,0 -6.93,-0.45 -10.08,-0.45 -3.15,0 -5.13,0.99 -7.83,3.69 -2.7,2.7 -4.41,6.57 -4.86,11.61 -0.45,5.04 2.43,9.36 4.05,12.42 1.62,3.06 3.87,7.2 5.31,9.9 1.44,2.7 4.68,6.39 11.97,5.85"
             style="fill:none;stroke:#231f20;stroke-width:0.25;stroke-linecap:round;stroke-linejoin:round;stroke-miterlimit:4;stroke-dasharray:none;stroke-opacity:1"
             id="path18612"
             inkscape:connector-curvature="0" /></g><g
           id="g18614"
           transform="translate(202.6793,129.0386)"><path
             d="m 0,0 c 1.424,-4.701 0.715,-9.077 -1.586,-9.774 -2.3,-0.697 -5.319,2.549 -6.743,7.25 -1.425,4.702 -0.715,9.078 1.585,9.775 C -4.444,7.948 -1.424,4.701 0,0 Z"
             style="fill:none;stroke:#231f20;stroke-width:0.25;stroke-linecap:round;stroke-linejoin:round;stroke-miterlimit:4;stroke-dasharray:none;stroke-opacity:1"
             id="path18616"
             inkscape:connector-curvature="0" /></g><g
           id="g18618"
           transform="translate(203.333,122.9693)"><path
             d="m 0,0 c -1.113,1.306 -2.114,3.17 -2.773,5.346 -0.665,2.195 -0.865,4.32 -0.655,6.032"
             style="fill:none;stroke:#231f20;stroke-width:0.25;stroke-linecap:round;stroke-linejoin:round;stroke-miterlimit:4;stroke-dasharray:none;stroke-opacity:1"
             id="path18620"
             inkscape:connector-curvature="0" /></g><g
           id="g18622"
           transform="translate(162.7175,34.2775)"><path
             d="M 0,0 9.383,-36.367"
             style="fill:none;stroke:#231f20;stroke-width:0.25;stroke-linecap:round;stroke-linejoin:round;stroke-miterlimit:4;stroke-dasharray:none;stroke-opacity:1"
             id="path18624"
             inkscape:connector-curvature="0" /></g><g
           id="g18626"
           transform="translate(129.8,21.52)"><path
             d="m 0,0 c 0,0 0.3,-1.29 0.63,-2.94 0.33,-1.65 0.131,-4.707 -1.83,-4.92 -2.49,-0.27 -4.47,3.93 -4.92,6.15"
             style="fill:none;stroke:#231f20;stroke-width:0.25;stroke-linecap:round;stroke-linejoin:round;stroke-miterlimit:4;stroke-dasharray:none;stroke-opacity:1"
             id="path18628"
             inkscape:connector-curvature="0" /></g><g
           id="g18630"
           transform="translate(121.31,20.47)"><path
             d="m 0,0 c 0,0 -0.03,-1.41 -0.39,-2.61 -0.36,-1.2 -0.45,-1.86 0.21,-3.9 0.66,-2.04 3.75,-6.87 5.58,-14.7"
             style="fill:none;stroke:#231f20;stroke-width:0.25;stroke-linecap:round;stroke-linejoin:round;stroke-miterlimit:4;stroke-dasharray:none;stroke-opacity:1"
             id="path18632"
             inkscape:connector-curvature="0" /></g><g
           id="g18634"
           transform="translate(81.26,12.55)"><path
             d="m 0,0 c 0,0 8.04,3.12 9.3,3.54 1.26,0.42 3.66,1.74 5.94,1.02"
             style="fill:none;stroke:#231f20;stroke-width:0.25;stroke-linecap:round;stroke-linejoin:round;stroke-miterlimit:4;stroke-dasharray:none;stroke-opacity:1"
             id="path18636"
             inkscape:connector-curvature="0" /></g><g
           id="g18638"
           transform="translate(94.34,20.47)"><path
             d="m 0,0 c 0,0 4.68,2.22 8.76,-1.8 3.446,-3.395 6.66,-9.3 9.54,-19.8"
             style="fill:none;stroke:#231f20;stroke-width:0.25;stroke-linecap:round;stroke-linejoin:round;stroke-miterlimit:4;stroke-dasharray:none;stroke-opacity:1"
             id="path18640"
             inkscape:connector-curvature="0" /></g><g
           id="g18642"
           transform="translate(76.7,7.93)"><path
             d="m 0,0 c 0,0 2.76,2.94 6.6,-0.48 3.84,-3.42 5.46,-10.2 5.46,-10.2"
             style="fill:none;stroke:#231f20;stroke-width:0.25;stroke-linecap:round;stroke-linejoin:round;stroke-miterlimit:4;stroke-dasharray:none;stroke-opacity:1"
             id="path18644"
             inkscape:connector-curvature="0" /></g><g
           id="g18646"
           transform="translate(168.68,49.15)"><path
             d="m 0,0 c 0,0 5.82,-0.9 7.2,-1.26 1.38,-0.36 3.84,-1.98 5.22,-2.88 1.38,-0.9 4.86,-3.06 5.58,-3.66 0.72,-0.6 1.98,-1.74 3.36,-6.9 1.38,-5.16 9.66,-38.88 9.66,-38.88"
             style="fill:none;stroke:#231f20;stroke-width:0.25;stroke-linecap:round;stroke-linejoin:round;stroke-miterlimit:4;stroke-dasharray:none;stroke-opacity:1"
             id="path18648"
             inkscape:connector-curvature="0" /></g><g
           id="g18650"
           transform="translate(213.32,94.69)"><path
             d="m 0,0 c 0,0 9.18,-35.28 11.52,-45.36 2.34,-10.08 3.06,-28.08 1.08,-36.9"
             style="fill:none;stroke:#231f20;stroke-width:0.25;stroke-linecap:round;stroke-linejoin:round;stroke-miterlimit:4;stroke-dasharray:none;stroke-opacity:1"
             id="path18652"
             inkscape:connector-curvature="0" /></g></g></g><text
       transform="matrix(1,0,0,-1,3.71,3.25)"
       style="font-variant:normal;font-weight:300;font-stretch:normal;font-size:6px;font-family:'Myriad Pro';-inkscape-font-specification:Helvetica-Light;writing-mode:lr-tb;fill:#231f20;fill-opacity:1;fill-rule:nonzero;stroke:none"
       id="text18656"><tspan
         x="0 1.434 5.1059999 8.0640001 12.888 15.966 19.044001 22.122 25.200001"
         y="0"
         sodipodi:role="line"
         id="tspan18654">IASM00057</tspan></text>
<text
       transform="matrix(1,0,0,-1,27.5146,18.2285)"
       style="font-variant:normal;font-weight:bold;font-stretch:normal;font-size:12px;font-family:'Swiss 721 SWA';-inkscape-font-specification:Helvetica-Bold;writing-mode:lr-tb;fill:#231f20;fill-opacity:1;fill-rule:nonzero;stroke:none"
       id="text18660"><tspan
         x="0"
         y="0"
         id="tspan18658">1</tspan></text>
<g
       id="g18662"
       transform="translate(38.02,22.83)"><path
         d="M 0,0 67.893,8.23"
         style="fill:none;stroke:#ffffff;stroke-width:3.07999992;stroke-linecap:round;stroke-linejoin:miter;stroke-miterlimit:4;stroke-dasharray:none;stroke-opacity:1"
         id="path18664"
         inkscape:connector-curvature="0" /></g><g
       id="g18666"
       transform="translate(105.9125,31.06)"><path
         d="M 0,0 V 0"
         style="fill:none;stroke:#ffffff;stroke-width:3.8499999;stroke-linecap:round;stroke-linejoin:miter;stroke-miterlimit:4;stroke-dasharray:none;stroke-opacity:1"
         id="path18668"
         inkscape:connector-curvature="0" /></g><g
       id="g18670"
       transform="translate(38.02,22.83)"><path
         d="M 0,0 67.893,8.23"
         style="fill:none;stroke:#231f20;stroke-width:0.51300001;stroke-linecap:round;stroke-linejoin:miter;stroke-miterlimit:4;stroke-dasharray:none;stroke-opacity:1"
         id="path18672"
         inkscape:connector-curvature="0" /></g><g
       id="g18674"
       transform="translate(105.9125,31.06)"><path
         d="M 0,0 V 0"
         style="fill:none;stroke:#231f20;stroke-width:1.53999996;stroke-linecap:round;stroke-linejoin:miter;stroke-miterlimit:4;stroke-dasharray:none;stroke-opacity:1"
         id="path18676"
         inkscape:connector-curvature="0" /></g><g
       id="g18678"
       transform="translate(37.64,27.01)"><path
         d="M 0,0 62.872,80.77"
         style="fill:none;stroke:#ffffff;stroke-width:3.07999992;stroke-linecap:round;stroke-linejoin:miter;stroke-miterlimit:4;stroke-dasharray:none;stroke-opacity:1"
         id="path18680"
         inkscape:connector-curvature="0" /></g><g
       id="g18682"
       transform="translate(100.5125,107.78)"><path
         d="M 0,0 V 0"
         style="fill:none;stroke:#ffffff;stroke-width:3.8499999;stroke-linecap:round;stroke-linejoin:miter;stroke-miterlimit:4;stroke-dasharray:none;stroke-opacity:1"
         id="path18684"
         inkscape:connector-curvature="0" /></g><g
       id="g18686"
       transform="translate(37.64,27.01)"><path
         d="M 0,0 62.872,80.77"
         style="fill:none;stroke:#231f20;stroke-width:0.51300001;stroke-linecap:round;stroke-linejoin:miter;stroke-miterlimit:4;stroke-dasharray:none;stroke-opacity:1"
         id="path18688"
         inkscape:connector-curvature="0" /></g><g
       id="g18690"
       transform="translate(100.5125,107.78)"><path
         d="M 0,0 V 0"
         style="fill:none;stroke:#231f20;stroke-width:1.53999996;stroke-linecap:round;stroke-linejoin:miter;stroke-miterlimit:4;stroke-dasharray:none;stroke-opacity:1"
         id="path18692"
         inkscape:connector-curvature="0" /></g><text
       transform="matrix(1,0,0,-1,10.0586,105.8506)"
       style="font-variant:normal;font-weight:bold;font-stretch:normal;font-size:12px;font-family:'Swiss 721 SWA';-inkscape-font-specification:Helvetica-Bold;writing-mode:lr-tb;fill:#231f20;fill-opacity:1;fill-rule:nonzero;stroke:none"
       id="text18696"><tspan
         x="0"
         y="0"
         id="tspan18694">2</tspan></text>
<g
       id="g18698"
       transform="translate(20.5639,110.4517)"><path
         d="M 0,0 29.796,3.918"
         style="fill:none;stroke:#ffffff;stroke-width:3.07999992;stroke-linecap:round;stroke-linejoin:miter;stroke-miterlimit:4;stroke-dasharray:none;stroke-opacity:1"
         id="path18700"
         inkscape:connector-curvature="0" /></g><g
       id="g18702"
       transform="translate(50.36,114.37)"><path
         d="M 0,0 V 0"
         style="fill:none;stroke:#ffffff;stroke-width:3.8499999;stroke-linecap:round;stroke-linejoin:miter;stroke-miterlimit:4;stroke-dasharray:none;stroke-opacity:1"
         id="path18704"
         inkscape:connector-curvature="0" /></g><g
       id="g18706"
       transform="translate(20.5639,110.4517)"><path
         d="M 0,0 29.796,3.918"
         style="fill:none;stroke:#231f20;stroke-width:0.51300001;stroke-linecap:round;stroke-linejoin:miter;stroke-miterlimit:4;stroke-dasharray:none;stroke-opacity:1"
         id="path18708"
         inkscape:connector-curvature="0" /></g><g
       id="g18710"
       transform="translate(50.36,114.37)"><path
         d="M 0,0 V 0"
         style="fill:none;stroke:#231f20;stroke-width:1.53999996;stroke-linecap:round;stroke-linejoin:miter;stroke-miterlimit:4;stroke-dasharray:none;stroke-opacity:1"
         id="path18712"
         inkscape:connector-curvature="0" /></g></g></svg>