<?xml version="1.0" encoding="UTF-8" standalone="no"?>
<!-- Created with Inkscape (http://www.inkscape.org/) -->

<svg
   xmlns:dc="http://purl.org/dc/elements/1.1/"
   xmlns:cc="http://creativecommons.org/ns#"
   xmlns:rdf="http://www.w3.org/1999/02/22-rdf-syntax-ns#"
   xmlns:svg="http://www.w3.org/2000/svg"
   xmlns="http://www.w3.org/2000/svg"
   xmlns:sodipodi="http://sodipodi.sourceforge.net/DTD/sodipodi-0.dtd"
   xmlns:inkscape="http://www.inkscape.org/namespaces/inkscape"
   version="1.1"
   id="svg868"
   xml:space="preserve"
   width="321.26001"
   height="245.66933"
   viewBox="0 0 321.26001 245.66933"
   sodipodi:docname="EVAP Vent.svg"
   inkscape:version="0.92.4 (5da689c313, 2019-01-14)"><metadata
     id="metadata874"><rdf:RDF><cc:Work
         rdf:about=""><dc:format>image/svg+xml</dc:format><dc:type
           rdf:resource="http://purl.org/dc/dcmitype/StillImage" /><dc:title></dc:title></cc:Work></rdf:RDF></metadata><defs
     id="defs872"><clipPath
       clipPathUnits="userSpaceOnUse"
       id="clipPath884"><path
         d="M 0,184.252 H 240.945 V 0 H 0 Z"
         id="path882"
         inkscape:connector-curvature="0" /></clipPath></defs><sodipodi:namedview
     pagecolor="#ffffff"
     bordercolor="#666666"
     borderopacity="1"
     objecttolerance="10"
     gridtolerance="10"
     guidetolerance="10"
     inkscape:pageopacity="0"
     inkscape:pageshadow="2"
     inkscape:window-width="640"
     inkscape:window-height="480"
     id="namedview870"
     showgrid="false"
     inkscape:zoom="1.2659293"
     inkscape:cx="160.63"
     inkscape:cy="122.83466"
     inkscape:window-x="0"
     inkscape:window-y="0"
     inkscape:window-maximized="1"
     inkscape:current-layer="g876" /><g
     id="g876"
     inkscape:groupmode="layer"
     inkscape:label="EVAP Vent"
     transform="matrix(1.3333333,0,0,-1.3333333,0,245.66933)"><g
       id="g878"><g
         id="g880"
         clip-path="url(#clipPath884)"><g
           id="g886"
           transform="translate(2.8333,101.752)"><path
             d="m 0,0 97.5,27.167 c 4.667,1.5 7.167,-0.667 7.167,-0.667 l 45,-63.5 c 11.333,-16.333 6.666,-30.833 6.666,-30.833 L 148,-95.333"
             style="fill:none;stroke:#1d1d1b;stroke-width:0.5;stroke-linecap:round;stroke-linejoin:round;stroke-miterlimit:10;stroke-dasharray:none;stroke-opacity:1"
             id="path888"
             inkscape:connector-curvature="0" /></g><g
           id="g890"
           transform="translate(161.8333,6.4186)"><path
             d="M 0,0 9.667,30.167 C 15.833,46.833 0,66 0,66 l -42.833,60.333 c -3.834,5.667 -11.5,3.5 -11.5,3.5"
             style="fill:none;stroke:#1d1d1b;stroke-width:0.75;stroke-linecap:round;stroke-linejoin:round;stroke-miterlimit:10;stroke-dasharray:none;stroke-opacity:1"
             id="path892"
             inkscape:connector-curvature="0" /></g><g
           id="g894"
           transform="translate(152.8333,6.4186)"><path
             d="M 0,0 8.333,27.167 C 13.667,42.833 1,59.167 1,59.167 L -45.333,124.5 c -5.5,9 -11.167,1.5 -11.167,1.5 -2.333,-2.667 -3.365,-5.552 -3.365,-5.552"
             style="fill:none;stroke:#1d1d1b;stroke-width:0.5;stroke-linecap:round;stroke-linejoin:round;stroke-miterlimit:10;stroke-dasharray:none;stroke-opacity:1"
             id="path896"
             inkscape:connector-curvature="0" /></g><g
           id="g898"
           transform="translate(157.8333,6.4186)"><path
             d="m 0,0 8.5,28 c 5,16.5 -7.667,32.667 -7.667,32.667 l -45.666,65 c -5.667,7.333 -10.108,3.06 -10.108,3.06"
             style="fill:none;stroke:#1d1d1b;stroke-width:0.5;stroke-linecap:round;stroke-linejoin:round;stroke-miterlimit:10;stroke-dasharray:none;stroke-opacity:1"
             id="path900"
             inkscape:connector-curvature="0" /></g><g
           id="g902"
           transform="translate(2.8333,138.5853)"><path
             d="m 0,0 c 50.333,5 101.833,12.667 101.833,12.667 59.5,10.166 95.5,-17 95.5,-17 3.167,-2 38.334,-45.834 38.334,-45.834"
             style="fill:none;stroke:#1d1d1b;stroke-width:0.5;stroke-linecap:round;stroke-linejoin:round;stroke-miterlimit:10;stroke-dasharray:none;stroke-opacity:1"
             id="path904"
             inkscape:connector-curvature="0" /></g><g
           id="g906"
           transform="translate(129.8312,153.5233)"><path
             d="M 0,0 4.169,-5.271 C 4.544,-5.73 4.812,-6.857 4.812,-6.857"
             style="fill:none;stroke:#1d1d1b;stroke-width:0.75;stroke-linecap:round;stroke-linejoin:round;stroke-miterlimit:10;stroke-dasharray:none;stroke-opacity:1"
             id="path908"
             inkscape:connector-curvature="0" /></g><g
           id="g910"
           transform="translate(167.8329,111.13)"><path
             d="m 0,0 c -0.697,0.869 -1.528,1.817 -2.5,2.789 0,0 -13.101,12.934 -18.27,18.104 -0.25,0.25 -2.609,-0.551 -2.609,-0.551"
             style="fill:none;stroke:#1d1d1b;stroke-width:0.75;stroke-linecap:round;stroke-linejoin:round;stroke-miterlimit:10;stroke-dasharray:none;stroke-opacity:1"
             id="path912"
             inkscape:connector-curvature="0" /></g><g
           id="g914"
           transform="translate(236.7553,32.4186)"><path
             d="m 0,0 c 0,0 -10.589,2.167 -14.422,11.167 0,0 -13,5.833 -18.333,10.666 0,0 -4,2.334 -8,9.5 L -66.089,74.5 c 0,0 -0.9,1.801 -2.833,4.211"
             style="fill:none;stroke:#1d1d1b;stroke-width:0.75;stroke-linecap:round;stroke-linejoin:round;stroke-miterlimit:10;stroke-dasharray:none;stroke-opacity:1"
             id="path916"
             inkscape:connector-curvature="0" /></g><g
           id="g918"
           transform="translate(172.6213,147.252)"><path
             d="M 0,0 C 4.545,-6.333 18.045,-26.278 18.045,-26.278"
             style="fill:none;stroke:#1d1d1b;stroke-width:0.5;stroke-linecap:round;stroke-linejoin:round;stroke-miterlimit:10;stroke-dasharray:none;stroke-opacity:1"
             id="path920"
             inkscape:connector-curvature="0" /></g><g
           id="g922"
           transform="translate(215.1667,88.4186)"><path
             d="m 0,0 c 0,0 -9.845,13.825 -11.833,16.667 -0.292,0.416 0.148,2.928 0.148,2.928"
             style="fill:none;stroke:#1d1d1b;stroke-width:0.5;stroke-linecap:round;stroke-linejoin:round;stroke-miterlimit:10;stroke-dasharray:none;stroke-opacity:1"
             id="path924"
             inkscape:connector-curvature="0" /></g><g
           id="g926"
           transform="translate(232.3333,65.252)"><path
             d="M 0,0 C 1.667,-2.167 5.167,-6.167 5.167,-6.167"
             style="fill:none;stroke:#1d1d1b;stroke-width:0.5;stroke-linecap:round;stroke-linejoin:round;stroke-miterlimit:10;stroke-dasharray:none;stroke-opacity:1"
             id="path928"
             inkscape:connector-curvature="0" /></g><g
           id="g930"
           transform="translate(144.6791,152.8858)"><path
             d="m 0,0 c 7.988,-10.301 24.654,-33.634 24.654,-33.634 1.334,-2.166 2.5,-7.333 2.5,-7.333"
             style="fill:none;stroke:#1d1d1b;stroke-width:0.5;stroke-linecap:round;stroke-linejoin:round;stroke-miterlimit:10;stroke-dasharray:none;stroke-opacity:1"
             id="path932"
             inkscape:connector-curvature="0" /></g><g
           id="g934"
           transform="translate(176.5,103.9186)"><path
             d="M 0,0 C 5.667,-8.667 21.333,-35.986 21.333,-35.986"
             style="fill:none;stroke:#1d1d1b;stroke-width:0.5;stroke-linecap:round;stroke-linejoin:round;stroke-miterlimit:10;stroke-dasharray:none;stroke-opacity:1"
             id="path936"
             inkscape:connector-curvature="0" /></g><g
           id="g938"
           transform="translate(203.3333,62.1686)"><path
             d="M 0,0 C 4.833,-6.417 8.23,-9.292 8.23,-9.292 12.173,-13.526 19,-18.583 19,-18.583"
             style="fill:none;stroke:#1d1d1b;stroke-width:0.5;stroke-linecap:round;stroke-linejoin:round;stroke-miterlimit:10;stroke-dasharray:none;stroke-opacity:1"
             id="path940"
             inkscape:connector-curvature="0" /></g><g
           id="g942"
           transform="translate(194.7981,109.5597)"><path
             d="m 0,0 c -0.418,-2.037 -3.48,-3.129 -6.839,-2.439 -3.359,0.69 -5.742,2.901 -5.324,4.938 0.419,2.037 3.481,3.129 6.839,2.439 C -1.965,4.248 0.418,2.037 0,0 Z"
             style="fill:none;stroke:#1d1d1b;stroke-width:0.5;stroke-linecap:round;stroke-linejoin:round;stroke-miterlimit:10;stroke-dasharray:none;stroke-opacity:1"
             id="path944"
             inkscape:connector-curvature="0" /></g><g
           id="g946"
           transform="translate(192.6347,109.2157)"><path
             d="m 0,0 c -0.271,-1.32 -2.371,-2.003 -4.691,-1.527 -2.319,0.476 -3.979,1.933 -3.708,3.252 0.271,1.32 2.371,2.004 4.69,1.527 C -1.389,2.776 0.271,1.32 0,0 Z"
             style="fill:none;stroke:#1d1d1b;stroke-width:0.5;stroke-linecap:round;stroke-linejoin:round;stroke-miterlimit:10;stroke-dasharray:none;stroke-opacity:1"
             id="path948"
             inkscape:connector-curvature="0" /></g><g
           id="g950"
           transform="translate(203.4818,108.0133)"><path
             d="m 0,0 c -1.116,-5.432 -8.785,-8.446 -17.129,-6.732 -8.344,1.714 -14.204,7.507 -13.088,12.94 1.116,5.432 8.785,8.446 17.129,6.732 C -4.744,11.226 1.116,5.432 0,0 Z"
             style="fill:none;stroke:#1d1d1b;stroke-width:0.5;stroke-linecap:round;stroke-linejoin:round;stroke-miterlimit:10;stroke-dasharray:none;stroke-opacity:1"
             id="path952"
             inkscape:connector-curvature="0" /></g><g
           id="g954"
           transform="translate(143.0019,153.0391)"><path
             d="M 0,0 C 1.983,-1.785 3.709,-4.959 4.543,-8.779 5.944,-15.194 4.3,-21.001 0.873,-21.75 c -3.428,-0.748 -7.342,3.846 -8.743,10.26 -1.126,5.159 -0.284,9.924 1.871,11.982"
             style="fill:none;stroke:#1d1d1b;stroke-width:0.75;stroke-linecap:round;stroke-linejoin:round;stroke-miterlimit:10;stroke-dasharray:none;stroke-opacity:1"
             id="path956"
             inkscape:connector-curvature="0" /></g><g
           id="g958"
           transform="translate(81.4759,147.9823)"><path
             d="M 0,0 13.593,-17.194"
             style="fill:none;stroke:#1d1d1b;stroke-width:0.5;stroke-linecap:round;stroke-linejoin:round;stroke-miterlimit:10;stroke-dasharray:none;stroke-opacity:1"
             id="path960"
             inkscape:connector-curvature="0" /></g><g
           id="g962"
           transform="translate(74.6843,121.772)"><path
             d="m 0,0 2.066,3.647 c 0.5,0.666 2.083,1.166 2.083,1.166 l 9.917,2.417 c 4.5,1.333 2,4 2,4 L 4.88,25.951"
             style="fill:none;stroke:#1d1d1b;stroke-width:0.5;stroke-linecap:round;stroke-linejoin:round;stroke-miterlimit:10;stroke-dasharray:none;stroke-opacity:1"
             id="path964"
             inkscape:connector-curvature="0" /></g><g
           id="g966"
           transform="translate(68.7353,146.2807)"><path
             d="M 0,0 12.741,-19.051"
             style="fill:none;stroke:#1d1d1b;stroke-width:0.5;stroke-linecap:round;stroke-linejoin:round;stroke-miterlimit:10;stroke-dasharray:none;stroke-opacity:1"
             id="path968"
             inkscape:connector-curvature="0" /></g><g
           id="g970"
           transform="translate(52.9984,144.2652)"><path
             d="M 0,0 C 0.051,0.006 16.13,-24.041 16.13,-24.041"
             style="fill:none;stroke:#1d1d1b;stroke-width:0.5;stroke-linecap:round;stroke-linejoin:round;stroke-miterlimit:10;stroke-dasharray:none;stroke-opacity:1"
             id="path972"
             inkscape:connector-curvature="0" /></g><g
           id="g974"
           transform="translate(3.75,120.974)"><path
             d="m 0,0 9.75,-13.889 c 0.75,-1.083 0.592,-2.196 0.592,-2.196"
             style="fill:none;stroke:#1d1d1b;stroke-width:0.5;stroke-linecap:round;stroke-linejoin:round;stroke-miterlimit:10;stroke-dasharray:none;stroke-opacity:1"
             id="path976"
             inkscape:connector-curvature="0" /></g><g
           id="g978"
           transform="translate(3.75,108.752)"><path
             d="M 0,0 C 1.583,0.583 2.667,-0.583 2.667,-0.583 L 5.731,-5.148"
             style="fill:none;stroke:#1d1d1b;stroke-width:0.5;stroke-linecap:round;stroke-linejoin:round;stroke-miterlimit:10;stroke-dasharray:none;stroke-opacity:1"
             id="path980"
             inkscape:connector-curvature="0" /></g><g
           id="g982"
           transform="translate(168.1111,67.3631)"><path
             d="M 0,0 21.111,-29.444 19.556,-33.556 35.122,-56.667 40,-59.222 c 0.667,-0.334 1.089,-1.722 1.089,-1.722"
             style="fill:none;stroke:#1d1d1b;stroke-width:0.75;stroke-linecap:round;stroke-linejoin:round;stroke-miterlimit:10;stroke-dasharray:none;stroke-opacity:1"
             id="path984"
             inkscape:connector-curvature="0" /></g><g
           id="g986"
           transform="translate(167.5017,63.9186)"><path
             d="m 0,0 18.998,-26 -2.222,-5.222 c 10.167,-12.889 16.167,-23.056 16.167,-23.056 1.722,-1.166 3.889,-2.111 3.889,-2.111 1,-0.611 0.889,-1.444 0.889,-1.444"
             style="fill:none;stroke:#1d1d1b;stroke-width:0.5;stroke-linecap:round;stroke-linejoin:round;stroke-miterlimit:10;stroke-dasharray:none;stroke-opacity:1"
             id="path988"
             inkscape:connector-curvature="0" /></g><g
           id="g990"
           transform="translate(236.7535,33.8917)"><path
             d="m 0,0 c -0.738,0.207 -1.482,0.45 -2.227,0.728 -8.078,3.016 -13.269,9.094 -11.595,13.577 1.255,3.361 6.015,4.871 11.724,4.143"
             style="fill:none;stroke:#1d1d1b;stroke-width:0.5;stroke-linecap:round;stroke-linejoin:round;stroke-miterlimit:10;stroke-dasharray:none;stroke-opacity:1"
             id="path992"
             inkscape:connector-curvature="0" /></g><g
           id="g994"
           transform="translate(202.6667,103.252)"><path
             d="M 0,0 10.556,-14.833"
             style="fill:none;stroke:#1d1d1b;stroke-width:0.5;stroke-linecap:round;stroke-linejoin:round;stroke-miterlimit:10;stroke-dasharray:none;stroke-opacity:1"
             id="path996"
             inkscape:connector-curvature="0" /></g><g
           id="g998"
           transform="translate(229.3333,64.6964)"><path
             d="M 0,0 8.167,-10.667"
             style="fill:none;stroke:#1d1d1b;stroke-width:0.5;stroke-linecap:round;stroke-linejoin:round;stroke-miterlimit:10;stroke-dasharray:none;stroke-opacity:1"
             id="path1000"
             inkscape:connector-curvature="0" /></g><g
           id="g1002"
           transform="translate(228.2654,73.7807)"><path
             d="m 0,0 c -1.191,-5.798 -8.824,-9.129 -17.048,-7.439 -8.224,1.689 -13.925,7.759 -12.734,13.557 1.191,5.798 8.823,9.129 17.048,7.44 C -4.51,11.868 1.191,5.798 0,0 Z"
             style="fill:none;stroke:#1d1d1b;stroke-width:0.5;stroke-linecap:round;stroke-linejoin:round;stroke-miterlimit:10;stroke-dasharray:none;stroke-opacity:1"
             id="path1004"
             inkscape:connector-curvature="0" /></g><g
           id="g1006"
           transform="translate(209.9167,79.1686)"><path
             d="M 0,0 0.028,3.076"
             style="fill:none;stroke:#1d1d1b;stroke-width:0.5;stroke-linecap:round;stroke-linejoin:round;stroke-miterlimit:10;stroke-dasharray:none;stroke-opacity:1"
             id="path1008"
             inkscape:connector-curvature="0" /></g><g
           id="g1010"
           transform="translate(213.8889,83.502)"><path
             d="M 0,0 -3.944,-1.257"
             style="fill:none;stroke:#1d1d1b;stroke-width:0.5;stroke-linecap:round;stroke-linejoin:round;stroke-miterlimit:10;stroke-dasharray:none;stroke-opacity:1"
             id="path1012"
             inkscape:connector-curvature="0" /></g><g
           id="g1014"
           transform="translate(218.1389,81.4464)"><path
             d="M 0,0 -4.25,2.056"
             style="fill:none;stroke:#1d1d1b;stroke-width:0.5;stroke-linecap:round;stroke-linejoin:round;stroke-miterlimit:10;stroke-dasharray:none;stroke-opacity:1"
             id="path1016"
             inkscape:connector-curvature="0" /></g><g
           id="g1018"
           transform="translate(217.8889,78.252)"><path
             d="M 0,0 0.25,3.194"
             style="fill:none;stroke:#1d1d1b;stroke-width:0.5;stroke-linecap:round;stroke-linejoin:round;stroke-miterlimit:10;stroke-dasharray:none;stroke-opacity:1"
             id="path1020"
             inkscape:connector-curvature="0" /></g><g
           id="g1022"
           transform="translate(214.0278,77.1409)"><path
             d="M 0,0 3.861,1.111"
             style="fill:none;stroke:#1d1d1b;stroke-width:0.5;stroke-linecap:round;stroke-linejoin:round;stroke-miterlimit:10;stroke-dasharray:none;stroke-opacity:1"
             id="path1024"
             inkscape:connector-curvature="0" /></g><g
           id="g1026"
           transform="translate(209.9167,79.1686)"><path
             d="M 0,0 4.111,-2.028"
             style="fill:none;stroke:#1d1d1b;stroke-width:0.5;stroke-linecap:round;stroke-linejoin:round;stroke-miterlimit:10;stroke-dasharray:none;stroke-opacity:1"
             id="path1028"
             inkscape:connector-curvature="0" /></g><g
           id="g1030"
           transform="translate(213.8889,83.502)"><path
             d="M 0,0 -0.139,-3.139"
             style="fill:none;stroke:#1d1d1b;stroke-width:0.5;stroke-linecap:round;stroke-linejoin:round;stroke-miterlimit:10;stroke-dasharray:none;stroke-opacity:1"
             id="path1032"
             inkscape:connector-curvature="0" /></g><g
           id="g1034"
           transform="translate(210.1389,79.4186)"><path
             d="M 0,0 3.611,0.944"
             style="fill:none;stroke:#1d1d1b;stroke-width:0.5;stroke-linecap:round;stroke-linejoin:round;stroke-miterlimit:10;stroke-dasharray:none;stroke-opacity:1"
             id="path1036"
             inkscape:connector-curvature="0" /></g><g
           id="g1038"
           transform="translate(217.75,78.4742)"><path
             d="M 0,0 -4,1.889"
             style="fill:none;stroke:#1d1d1b;stroke-width:0.5;stroke-linecap:round;stroke-linejoin:round;stroke-miterlimit:10;stroke-dasharray:none;stroke-opacity:1"
             id="path1040"
             inkscape:connector-curvature="0" /></g><g
           id="g1042"
           transform="translate(224.2955,105.9682)"><path
             d="m 0,0 -0.462,-11.994 c 0,-3.833 -4.889,-4.556 -4.889,-4.556 l -7,-1.653"
             style="fill:none;stroke:#1d1d1b;stroke-width:0.5;stroke-linecap:round;stroke-linejoin:round;stroke-miterlimit:10;stroke-dasharray:none;stroke-opacity:1"
             id="path1044"
             inkscape:connector-curvature="0" /></g><g
           id="g1046"
           transform="translate(237.8889,69.5853)"><path
             d="m 0,0 -17.722,-4.889 c -18.222,-2.528 -23.111,9.167 -23.111,9.167 -2.778,9.555 7.296,12.555 7.296,12.555"
             style="fill:none;stroke:#1d1d1b;stroke-width:0.5;stroke-linecap:round;stroke-linejoin:round;stroke-miterlimit:10;stroke-dasharray:none;stroke-opacity:1"
             id="path1048"
             inkscape:connector-curvature="0" /></g><g
           id="g1050"
           transform="translate(237.5,66.8631)"><path
             d="m 0,0 -16.111,-4.167 c -17.278,-4.055 -24.445,8.187 -24.445,8.187 -2.222,5.202 0.092,9.008 0.092,9.008"
             style="fill:none;stroke:#1d1d1b;stroke-width:0.5;stroke-linecap:round;stroke-linejoin:round;stroke-miterlimit:10;stroke-dasharray:none;stroke-opacity:1"
             id="path1052"
             inkscape:connector-curvature="0" /></g><g
           id="g1054"
           transform="translate(182.0822,9.5267)"><path
             d="m 0,0 c 0.984,-3.42 0.087,-6.681 -2.003,-7.283 -2.091,-0.601 -4.584,1.684 -5.568,5.104 -0.985,3.421 -0.088,6.681 2.003,7.283 C -3.477,5.705 -0.984,3.42 0,0 Z"
             style="fill:none;stroke:#1d1d1b;stroke-width:0.5;stroke-linecap:round;stroke-linejoin:round;stroke-miterlimit:10;stroke-dasharray:none;stroke-opacity:1"
             id="path1056"
             inkscape:connector-curvature="0" /></g><g
           id="g1058"
           transform="translate(184.5816,16.952)"><path
             d="m 0,0 c 2.091,0.602 4.584,-1.683 5.568,-5.104 0.984,-3.42 0.087,-6.681 -2.004,-7.282"
             style="fill:none;stroke:#1d1d1b;stroke-width:0.5;stroke-linecap:round;stroke-linejoin:round;stroke-miterlimit:10;stroke-dasharray:none;stroke-opacity:1"
             id="path1060"
             inkscape:connector-curvature="0" /></g><g
           id="g1062"
           transform="translate(179.5769,15.5118)"><path
             d="m 0,0 c 0.125,3.947 1.58,6.991 4.042,7.7 3.701,1.065 8.277,-3.547 10.22,-10.302 1.944,-6.754 0.52,-13.093 -3.181,-14.158 -2.463,-0.708 -5.312,1.097 -7.517,4.374"
             style="fill:none;stroke:#1d1d1b;stroke-width:0.5;stroke-linecap:round;stroke-linejoin:round;stroke-miterlimit:10;stroke-dasharray:none;stroke-opacity:1"
             id="path1064"
             inkscape:connector-curvature="0" /></g><g
           id="g1066"
           transform="translate(185.9148,23.8721)"><path
             d="m 0,0 c 3.701,1.065 8.277,-3.547 10.22,-10.301 1.944,-6.755 0.519,-13.094 -3.181,-14.158"
             style="fill:none;stroke:#1d1d1b;stroke-width:0.5;stroke-linecap:round;stroke-linejoin:round;stroke-miterlimit:10;stroke-dasharray:none;stroke-opacity:1"
             id="path1068"
             inkscape:connector-curvature="0" /></g><g
           id="g1070"
           transform="translate(176.5144,14.6305)"><path
             d="M 0,0 8.067,2.321"
             style="fill:none;stroke:#1d1d1b;stroke-width:0.5;stroke-linecap:round;stroke-linejoin:round;stroke-miterlimit:10;stroke-dasharray:none;stroke-opacity:1"
             id="path1072"
             inkscape:connector-curvature="0" /></g><g
           id="g1074"
           transform="translate(180.0788,2.2442)"><path
             d="M 0,0 8.067,2.321"
             style="fill:none;stroke:#1d1d1b;stroke-width:0.5;stroke-linecap:round;stroke-linejoin:round;stroke-miterlimit:10;stroke-dasharray:none;stroke-opacity:1"
             id="path1076"
             inkscape:connector-curvature="0" /></g><g
           id="g1078"
           transform="translate(183.6192,23.2115)"><path
             d="M 0,0 2.296,0.661"
             style="fill:none;stroke:#1d1d1b;stroke-width:0.5;stroke-linecap:round;stroke-linejoin:round;stroke-miterlimit:10;stroke-dasharray:none;stroke-opacity:1"
             id="path1080"
             inkscape:connector-curvature="0" /></g><g
           id="g1082"
           transform="translate(180.6242,9.1072)"><path
             d="M 0,0 C 0.605,-2.103 0.054,-4.108 -1.232,-4.478 -2.517,-4.848 -4.05,-3.443 -4.655,-1.34 -5.26,0.763 -4.709,2.768 -3.423,3.138 -2.138,3.508 -0.605,2.103 0,0 Z"
             style="fill:none;stroke:#1d1d1b;stroke-width:0.5;stroke-linecap:round;stroke-linejoin:round;stroke-miterlimit:10;stroke-dasharray:none;stroke-opacity:1"
             id="path1084"
             inkscape:connector-curvature="0" /></g><g
           id="g1086"
           transform="translate(175.7448,9.0147)"><path
             d="M 0,0 4.431,1.217"
             style="fill:none;stroke:#1d1d1b;stroke-width:0.5;stroke-linecap:round;stroke-linejoin:round;stroke-miterlimit:10;stroke-dasharray:none;stroke-opacity:1"
             id="path1088"
             inkscape:connector-curvature="0" /></g><g
           id="g1090"
           transform="translate(177.1946,5.5086)"><path
             d="M 0,0 3.569,0.91"
             style="fill:none;stroke:#1d1d1b;stroke-width:0.5;stroke-linecap:round;stroke-linejoin:round;stroke-miterlimit:10;stroke-dasharray:none;stroke-opacity:1"
             id="path1092"
             inkscape:connector-curvature="0" /></g><g
           id="g1094"
           transform="translate(86.67,141.4122)"><path
             d="M 0,0 13.969,9.252"
             style="fill:none;stroke:#1d1d1b;stroke-width:0.25;stroke-linecap:round;stroke-linejoin:round;stroke-miterlimit:10;stroke-dasharray:none;stroke-opacity:1"
             id="path1096"
             inkscape:connector-curvature="0" /></g><g
           id="g1098"
           transform="translate(104.8889,145.1409)"><path
             d="M 0,0 8.32,7.34"
             style="fill:none;stroke:#1d1d1b;stroke-width:0.25;stroke-linecap:round;stroke-linejoin:round;stroke-miterlimit:10;stroke-dasharray:none;stroke-opacity:1"
             id="path1100"
             inkscape:connector-curvature="0" /></g><g
           id="g1102"
           transform="translate(88.2724,140.0297)"><path
             d="M 0,0 16.616,5.111"
             style="fill:none;stroke:#1d1d1b;stroke-width:0.25;stroke-linecap:round;stroke-linejoin:round;stroke-miterlimit:10;stroke-dasharray:none;stroke-opacity:1"
             id="path1104"
             inkscape:connector-curvature="0" /></g><g
           id="g1106"
           transform="translate(113.1111,136.6588)"><path
             d="M 0,0 -8.222,8.482"
             style="fill:none;stroke:#1d1d1b;stroke-width:0.25;stroke-linecap:round;stroke-linejoin:round;stroke-miterlimit:10;stroke-dasharray:none;stroke-opacity:1"
             id="path1108"
             inkscape:connector-curvature="0" /></g><g
           id="g1110"
           transform="translate(195.3286,22.4324)"><path
             d="M 0,0 31.449,10.597"
             style="fill:none;stroke:#1d1d1b;stroke-width:0.25;stroke-linecap:round;stroke-linejoin:round;stroke-miterlimit:10;stroke-dasharray:none;stroke-opacity:1"
             id="path1112"
             inkscape:connector-curvature="0" /></g><g
           id="g1114"
           transform="translate(218.0139,45.6485)"><path
             d="M 0,0 4.836,-13.942"
             style="fill:none;stroke:#1d1d1b;stroke-width:0.25;stroke-linecap:round;stroke-linejoin:round;stroke-miterlimit:10;stroke-dasharray:none;stroke-opacity:1"
             id="path1116"
             inkscape:connector-curvature="0" /></g><g
           id="g1118"
           transform="translate(213.2222,7.252)"><path
             d="m 0,0 15.222,5.778 c 3.111,1.333 3.889,-1.311 3.889,-1.311 0.778,-2.023 2.583,-6.578 2.583,-6.578"
             style="fill:none;stroke:#1d1d1b;stroke-width:0.25;stroke-linecap:round;stroke-linejoin:round;stroke-miterlimit:10;stroke-dasharray:none;stroke-opacity:1"
             id="path1120"
             inkscape:connector-curvature="0" /></g><g
           id="g1122"
           transform="translate(224.9642,32.4186)"><path
             d="m 0,0 c 2.036,2.278 3.591,-0.611 3.591,-0.611 2,-4.333 1.334,-9 1.334,-9 -0.667,-6.111 0.777,-9.402 0.777,-9.402"
             style="fill:none;stroke:#1d1d1b;stroke-width:0.25;stroke-linecap:round;stroke-linejoin:round;stroke-miterlimit:10;stroke-dasharray:none;stroke-opacity:1"
             id="path1124"
             inkscape:connector-curvature="0" /></g><g
           id="g1126"
           transform="translate(175.4634,98.8583)"><path
             d="m 0,0 c -1.957,-6.042 -7.787,-9.565 -13.022,-7.87 -5.235,1.696 -7.893,7.968 -5.936,14.01 1.509,4.66 5.322,7.821 9.389,8.247"
             style="fill:none;stroke:#1d1d1b;stroke-width:0.25;stroke-linecap:round;stroke-linejoin:round;stroke-miterlimit:10;stroke-dasharray:none;stroke-opacity:1"
             id="path1128"
             inkscape:connector-curvature="0" /></g><g
           id="g1130"
           transform="translate(159.1667,101.9285)"><path
             d="M 0,0 1.611,4.379"
             style="fill:none;stroke:#1d1d1b;stroke-width:0.25;stroke-linecap:round;stroke-linejoin:round;stroke-miterlimit:10;stroke-dasharray:none;stroke-opacity:1"
             id="path1132"
             inkscape:connector-curvature="0" /></g><g
           id="g1134"
           transform="translate(164.7778,107.5298)"><path
             d="M 0,0 -4,-1.222"
             style="fill:none;stroke:#1d1d1b;stroke-width:0.25;stroke-linecap:round;stroke-linejoin:round;stroke-miterlimit:10;stroke-dasharray:none;stroke-opacity:1"
             id="path1136"
             inkscape:connector-curvature="0" /></g><g
           id="g1138"
           transform="translate(167,104.118)"><path
             d="M 0,0 -2.222,3.412"
             style="fill:none;stroke:#1d1d1b;stroke-width:0.25;stroke-linecap:round;stroke-linejoin:round;stroke-miterlimit:10;stroke-dasharray:none;stroke-opacity:1"
             id="path1140"
             inkscape:connector-curvature="0" /></g><g
           id="g1142"
           transform="translate(161.5,98.5853)"><path
             d="M 0,0 -2.333,3.343"
             style="fill:none;stroke:#1d1d1b;stroke-width:0.25;stroke-linecap:round;stroke-linejoin:round;stroke-miterlimit:10;stroke-dasharray:none;stroke-opacity:1"
             id="path1144"
             inkscape:connector-curvature="0" /></g><g
           id="g1146"
           transform="translate(165.5,99.6409)"><path
             d="M 0,0 1.5,4.477"
             style="fill:none;stroke:#1d1d1b;stroke-width:0.25;stroke-linecap:round;stroke-linejoin:round;stroke-miterlimit:10;stroke-dasharray:none;stroke-opacity:1"
             id="path1148"
             inkscape:connector-curvature="0" /></g><g
           id="g1150"
           transform="translate(161.5,98.5853)"><path
             d="M 0,0 4,1.056"
             style="fill:none;stroke:#1d1d1b;stroke-width:0.25;stroke-linecap:round;stroke-linejoin:round;stroke-miterlimit:10;stroke-dasharray:none;stroke-opacity:1"
             id="path1152"
             inkscape:connector-curvature="0" /></g><g
           id="g1154"
           transform="translate(161.3889,101.4742)"><path
             d="M 0,0 1.389,4"
             style="fill:none;stroke:#1d1d1b;stroke-width:0.25;stroke-linecap:round;stroke-linejoin:round;stroke-miterlimit:10;stroke-dasharray:none;stroke-opacity:1"
             id="path1156"
             inkscape:connector-curvature="0" /></g><g
           id="g1158"
           transform="translate(165.4006,106.5736)"><path
             d="M 0,0 -2.623,-1.099"
             style="fill:none;stroke:#1d1d1b;stroke-width:0.25;stroke-linecap:round;stroke-linejoin:round;stroke-miterlimit:10;stroke-dasharray:none;stroke-opacity:1"
             id="path1160"
             inkscape:connector-curvature="0" /></g><g
           id="g1162"
           transform="translate(161.3889,101.4742)"><path
             d="M 0,0 1.389,-2.361"
             style="fill:none;stroke:#1d1d1b;stroke-width:0.25;stroke-linecap:round;stroke-linejoin:round;stroke-miterlimit:10;stroke-dasharray:none;stroke-opacity:1"
             id="path1164"
             inkscape:connector-curvature="0" /></g><g
           id="g1166"
           transform="translate(159.1667,101.9285)"><path
             d="M 0,0 2.222,-0.454"
             style="fill:none;stroke:#1d1d1b;stroke-width:0.25;stroke-linecap:round;stroke-linejoin:round;stroke-miterlimit:10;stroke-dasharray:none;stroke-opacity:1"
             id="path1168"
             inkscape:connector-curvature="0" /></g><g
           id="g1170"
           transform="translate(160.7778,106.3075)"><path
             d="M 0,0 2,-0.833"
             style="fill:none;stroke:#1d1d1b;stroke-width:0.25;stroke-linecap:round;stroke-linejoin:round;stroke-miterlimit:10;stroke-dasharray:none;stroke-opacity:1"
             id="path1172"
             inkscape:connector-curvature="0" /></g><g
           id="g1174"
           transform="translate(176.2287,97.3983)"><path
             d="m 0,0 c -1.957,-6.042 -7.787,-9.565 -13.022,-7.87 -2.602,0.843 -4.567,2.815 -5.645,5.328"
             style="fill:none;stroke:#1d1d1b;stroke-width:0.25;stroke-linecap:round;stroke-linejoin:round;stroke-miterlimit:10;stroke-dasharray:none;stroke-opacity:1"
             id="path1176"
             inkscape:connector-curvature="0" /></g><g
           id="g1178"
           transform="translate(178.5931,93.4127)"><path
             d="M 0,0 C -2.523,-4.611 -7.506,-7.06 -12.042,-5.591"
             style="fill:none;stroke:#1d1d1b;stroke-width:0.25;stroke-linecap:round;stroke-linejoin:round;stroke-miterlimit:10;stroke-dasharray:none;stroke-opacity:1"
             id="path1180"
             inkscape:connector-curvature="0" /></g><g
           id="g1182"
           transform="translate(177.4091,95.4301)"><path
             d="M 0,0 C -2.867,-6.136 -8.828,-7.814 -13.671,-6.245"
             style="fill:none;stroke:#1d1d1b;stroke-width:0.25;stroke-linecap:round;stroke-linejoin:round;stroke-miterlimit:10;stroke-dasharray:none;stroke-opacity:1"
             id="path1184"
             inkscape:connector-curvature="0" /></g><g
           id="g1186"
           transform="translate(166.5511,87.822)"><path
             d="M 0,0 -4.192,2.031"
             style="fill:none;stroke:#1d1d1b;stroke-width:0.25;stroke-linecap:round;stroke-linejoin:round;stroke-miterlimit:10;stroke-dasharray:none;stroke-opacity:1"
             id="path1188"
             inkscape:connector-curvature="0" /></g><g
           id="g1190"
           transform="translate(223.52,106.9186)"><path
             d="m 0,0 -7.506,-8.222 c -0.57,-0.889 -8.453,0.416 -8.453,0.416"
             style="fill:none;stroke:#1d1d1b;stroke-width:0.25;stroke-linecap:round;stroke-linejoin:round;stroke-miterlimit:10;stroke-dasharray:none;stroke-opacity:1"
             id="path1192"
             inkscape:connector-curvature="0" /></g><g
           id="g1194"
           transform="translate(204.3066,103.7037)"><path
             d="m 0,0 10.193,-2.243 c 1.042,-0.292 1.459,0.458 1.459,0.458 l 6.133,6.749"
             style="fill:none;stroke:#1d1d1b;stroke-width:0.25;stroke-linecap:round;stroke-linejoin:round;stroke-miterlimit:10;stroke-dasharray:none;stroke-opacity:1"
             id="path1196"
             inkscape:connector-curvature="0" /></g><g
           id="g1198"
           transform="translate(196.5068,136.6588)"><path
             d="m 0,0 -7.423,-11.449 c 1.333,-2.583 3.416,-3.041 3.416,-3.041 4.375,-1.195 23.041,-20.632 23.041,-20.632"
             style="fill:none;stroke:#1d1d1b;stroke-width:0.25;stroke-linecap:round;stroke-linejoin:round;stroke-miterlimit:10;stroke-dasharray:none;stroke-opacity:1"
             id="path1200"
             inkscape:connector-curvature="0" /></g><g
           id="g1202"
           transform="translate(189.0833,125.2103)"><path
             d="M 0,0 -14.029,18.588"
             style="fill:none;stroke:#1d1d1b;stroke-width:0.25;stroke-linecap:round;stroke-linejoin:round;stroke-miterlimit:10;stroke-dasharray:none;stroke-opacity:1"
             id="path1204"
             inkscape:connector-curvature="0" /></g><g
           id="g1206"
           transform="translate(154.2139,83.1511)"><path
             d="M 0,0 3.731,0.879 C 4.758,1.14 5.691,0.931 6.477,0.537 6.599,0.476 6.718,0.411 6.833,0.342 c 1.344,-0.807 2.175,-2.074 2.175,-2.074 4.056,-6 3.028,-10.536 3.028,-10.536 -0.083,-1.909 -0.869,-3.52 -0.869,-3.52"
             style="fill:none;stroke:#1d1d1b;stroke-width:1;stroke-linecap:round;stroke-linejoin:round;stroke-miterlimit:10;stroke-dasharray:none;stroke-opacity:1"
             id="path1208"
             inkscape:connector-curvature="0" /></g><g
           id="g1210"
           transform="translate(182.9867,85.9259)"><path
             d="M 0,0 C -5.578,2.911 -22.296,-2.237 -22.296,-2.237"
             style="fill:none;stroke:#1d1d1b;stroke-width:1;stroke-linecap:round;stroke-linejoin:round;stroke-miterlimit:10;stroke-dasharray:none;stroke-opacity:1"
             id="path1212"
             inkscape:connector-curvature="0" /></g><g
           id="g1214"
           transform="translate(165.8889,66.9186)"><path
             d="m 0,0 c 3.167,0.778 9.111,1.944 9.111,1.944 5.222,0.889 2.409,-2.666 2.409,-2.666 L 7.796,-7.329"
             style="fill:none;stroke:#1d1d1b;stroke-width:1;stroke-linecap:round;stroke-linejoin:round;stroke-miterlimit:10;stroke-dasharray:none;stroke-opacity:1"
             id="path1216"
             inkscape:connector-curvature="0" /></g><g
           id="g1218"
           transform="translate(184.857,44.0069)"><path
             d="m 0,0 c 7.754,12.967 9.921,17.866 9.921,17.866 0.555,1.268 0.668,2.823 0.668,2.823"
             style="fill:none;stroke:#1d1d1b;stroke-width:1;stroke-linecap:round;stroke-linejoin:round;stroke-miterlimit:10;stroke-dasharray:none;stroke-opacity:1"
             id="path1220"
             inkscape:connector-curvature="0" /></g></g></g><g
       id="g1222"
       transform="translate(224.2075,129.2369)"><path
         d="M 0,0 -43.827,-47.855"
         style="fill:none;stroke:#ffffff;stroke-width:3;stroke-linecap:round;stroke-linejoin:miter;stroke-miterlimit:4;stroke-dasharray:none;stroke-opacity:1"
         id="path1224"
         inkscape:connector-curvature="0" /></g><g
       id="g1226"
       transform="translate(180.3808,81.3816)"><path
         d="M 0,0 V 0"
         style="fill:none;stroke:#ffffff;stroke-width:3.75;stroke-linecap:round;stroke-linejoin:miter;stroke-miterlimit:4;stroke-dasharray:none;stroke-opacity:1"
         id="path1228"
         inkscape:connector-curvature="0" /></g><g
       id="g1230"
       transform="translate(224.2075,129.2369)"><path
         d="M 0,0 -43.827,-47.855"
         style="fill:none;stroke:#222020;stroke-width:0.5;stroke-linecap:round;stroke-linejoin:miter;stroke-miterlimit:4;stroke-dasharray:none;stroke-opacity:1"
         id="path1232"
         inkscape:connector-curvature="0" /></g><g
       id="g1234"
       transform="translate(180.3808,81.3816)"><path
         d="M 0,0 V 0"
         style="fill:none;stroke:#222020;stroke-width:1.5;stroke-linecap:round;stroke-linejoin:miter;stroke-miterlimit:4;stroke-dasharray:none;stroke-opacity:1"
         id="path1236"
         inkscape:connector-curvature="0" /></g><text
       transform="matrix(1,0,0,-1,224.0347,129.0713)"
       style="font-variant:normal;font-weight:bold;font-stretch:normal;font-size:10px;font-family:'Swiss 721 SWA';-inkscape-font-specification:Helvetica-Bold;writing-mode:lr-tb;fill:#231f20;fill-opacity:1;fill-rule:nonzero;stroke:none"
       id="text1240"><tspan
         x="0"
         y="0"
         id="tspan1238">1</tspan></text>
<g
       id="g1242"
       transform="translate(114.0875,28.808)"><path
         d="M 0,0 64.892,-0.001"
         style="fill:none;stroke:#ffffff;stroke-width:3;stroke-linecap:round;stroke-linejoin:miter;stroke-miterlimit:4;stroke-dasharray:none;stroke-opacity:1"
         id="path1244"
         inkscape:connector-curvature="0" /></g><g
       id="g1246"
       transform="translate(178.9791,28.807)"><path
         d="M 0,0 V 0"
         style="fill:none;stroke:#ffffff;stroke-width:3.75;stroke-linecap:round;stroke-linejoin:miter;stroke-miterlimit:4;stroke-dasharray:none;stroke-opacity:1"
         id="path1248"
         inkscape:connector-curvature="0" /></g><g
       id="g1250"
       transform="translate(114.0875,28.808)"><path
         d="M 0,0 64.892,-0.001"
         style="fill:none;stroke:#222020;stroke-width:0.5;stroke-linecap:round;stroke-linejoin:miter;stroke-miterlimit:4;stroke-dasharray:none;stroke-opacity:1"
         id="path1252"
         inkscape:connector-curvature="0" /></g><g
       id="g1254"
       transform="translate(178.9791,28.807)"><path
         d="M 0,0 V 0"
         style="fill:none;stroke:#222020;stroke-width:1.5;stroke-linecap:round;stroke-linejoin:miter;stroke-miterlimit:4;stroke-dasharray:none;stroke-opacity:1"
         id="path1256"
         inkscape:connector-curvature="0" /></g><text
       transform="matrix(1,0,0,-1,106.457,26.124)"
       style="font-variant:normal;font-weight:bold;font-stretch:normal;font-size:10px;font-family:'Swiss 721 SWA';-inkscape-font-specification:Helvetica-Bold;writing-mode:lr-tb;fill:#231f20;fill-opacity:1;fill-rule:nonzero;stroke:none"
       id="text1260"><tspan
         x="0"
         y="0"
         id="tspan1258">2</tspan></text>
<g
       id="g1262"
       transform="translate(115.3517,164.6829)"><path
         d="M 0,0 54.732,-34.862"
         style="fill:none;stroke:#ffffff;stroke-width:3;stroke-linecap:round;stroke-linejoin:miter;stroke-miterlimit:4;stroke-dasharray:none;stroke-opacity:1"
         id="path1264"
         inkscape:connector-curvature="0" /></g><g
       id="g1266"
       transform="translate(170.0835,129.821)"><path
         d="M 0,0 V 0"
         style="fill:none;stroke:#ffffff;stroke-width:3.75;stroke-linecap:round;stroke-linejoin:miter;stroke-miterlimit:4;stroke-dasharray:none;stroke-opacity:1"
         id="path1268"
         inkscape:connector-curvature="0" /></g><g
       id="g1270"
       transform="translate(115.3517,164.6829)"><path
         d="M 0,0 54.732,-34.862"
         style="fill:none;stroke:#222020;stroke-width:0.5;stroke-linecap:round;stroke-linejoin:miter;stroke-miterlimit:4;stroke-dasharray:none;stroke-opacity:1"
         id="path1272"
         inkscape:connector-curvature="0" /></g><g
       id="g1274"
       transform="translate(170.0835,129.821)"><path
         d="M 0,0 V 0"
         style="fill:none;stroke:#222020;stroke-width:1.5;stroke-linecap:round;stroke-linejoin:miter;stroke-miterlimit:4;stroke-dasharray:none;stroke-opacity:1"
         id="path1276"
         inkscape:connector-curvature="0" /></g><text
       transform="matrix(1,0,0,-1,108.2192,163.6831)"
       style="font-variant:normal;font-weight:bold;font-stretch:normal;font-size:10px;font-family:'Swiss 721 SWA';-inkscape-font-specification:Helvetica-Bold;writing-mode:lr-tb;fill:#231f20;fill-opacity:1;fill-rule:nonzero;stroke:none"
       id="text1280"><tspan
         x="0"
         y="0"
         id="tspan1278">3</tspan></text>
</g></svg>