<?xml version="1.0" encoding="UTF-8" standalone="no"?>
<!-- Created with Inkscape (http://www.inkscape.org/) -->

<svg
   xmlns:dc="http://purl.org/dc/elements/1.1/"
   xmlns:cc="http://creativecommons.org/ns#"
   xmlns:rdf="http://www.w3.org/1999/02/22-rdf-syntax-ns#"
   xmlns:svg="http://www.w3.org/2000/svg"
   xmlns="http://www.w3.org/2000/svg"
   xmlns:sodipodi="http://sodipodi.sourceforge.net/DTD/sodipodi-0.dtd"
   xmlns:inkscape="http://www.inkscape.org/namespaces/inkscape"
   version="1.1"
   id="svg7371"
   xml:space="preserve"
   width="321.26001"
   height="245.66933"
   viewBox="0 0 321.26001 245.66933"
   sodipodi:docname="Rebound Adjuster_1.svg"
   inkscape:version="0.92.4 (5da689c313, 2019-01-14)"><metadata
     id="metadata7377"><rdf:RDF><cc:Work
         rdf:about=""><dc:format>image/svg+xml</dc:format><dc:type
           rdf:resource="http://purl.org/dc/dcmitype/StillImage" /><dc:title></dc:title></cc:Work></rdf:RDF></metadata><defs
     id="defs7375"><clipPath
       clipPathUnits="userSpaceOnUse"
       id="clipPath7387"><path
         d="M 26.289,12.524 H 217.526 V 176.826 H 26.289 Z"
         id="path7385"
         inkscape:connector-curvature="0" /></clipPath></defs><sodipodi:namedview
     pagecolor="#ffffff"
     bordercolor="#666666"
     borderopacity="1"
     objecttolerance="10"
     gridtolerance="10"
     guidetolerance="10"
     inkscape:pageopacity="0"
     inkscape:pageshadow="2"
     inkscape:window-width="640"
     inkscape:window-height="480"
     id="namedview7373"
     showgrid="false"
     inkscape:zoom="0.96064089"
     inkscape:cx="160.63"
     inkscape:cy="122.83466"
     inkscape:window-x="0"
     inkscape:window-y="0"
     inkscape:window-maximized="0"
     inkscape:current-layer="g7379" /><g
     id="g7379"
     inkscape:groupmode="layer"
     inkscape:label="Rebound Adjuster_1"
     transform="matrix(1.3333333,0,0,-1.3333333,0,245.66933)"><g
       id="g7381"><g
         id="g7383"
         clip-path="url(#clipPath7387)"><g
           id="g7389"
           transform="translate(53.3055,77.387)"><path
             d="m 0,0 0.04,0.093 0.036,0.096 m 0,0 0.001,0.003 0.001,0.002 0.002,0.002 0.002,0.002 V 0.199 H 0.083 0.084 L 0.085,0.197 m -0.306,-1.073 0.064,0.218 0.064,0.218 0.09,0.318 0.088,0.319 m -0.409,-1.199 0.001,0.021 0.001,0.021 m 0.249,0.292 0.13,0.535 0.12,0.54 m 0,-10e-4 L 0.186,0.431 0.195,0.455 0.2,0.47 0.205,0.481 0.21,0.494 0.214,0.504 0.215,0.508 0.216,0.511 m -1.242,4.006 0.124,0.098 0.123,0.099 m -0.247,-0.197 0.019,0.028 0.02,0.03 0.15,0.217 0.156,0.214 0.083,0.107 0.084,0.109 0.267,0.326 M 0.085,0.197 0.093,0.219 0.103,0.242 0.109,0.257 0.117,0.274 0.122,0.284 0.127,0.295 0.13,0.3 0.133,0.303 m -0.278,-1.073 0.057,0.204 0.054,0.207 0.085,0.33 0.082,0.332 m 0,0 0.003,0.007 0.003,0.007 0.009,0.025 0.01,0.023 0.004,0.012 0.005,0.01 0.002,0.005 0.003,0.004 0.001,0.005 0.002,0.002 0.001,0.002 0.001,0.001 M 0.169,0.474 0.144,0.395 0.118,0.315 0.097,0.253 0.076,0.189 M 0.169,0.474 0.268,0.73 m -0.411,-0.937 0.076,0.15 0.071,0.15 M 0,0 -0.003,-0.002 -0.004,-0.003 -0.005,-0.002 -0.006,0 -0.007,0.004 v 0.004 0.006 0.008 l 0.001,0.01 0.002,0.008 0.001,0.013 0.002,0.012 0.003,0.014 0.002,0.014 m -0.326,-1.053 0.08,0.368 0.099,0.385 m 0.08,1.904 0.056,0.176 0.058,0.176 M 0.215,0.611 0.192,0.543 0.169,0.474 m -1.268,3.926 0.036,0.059 0.037,0.058 m 1.03,-4.424 0.015,0.05 0.015,0.05 m 0,0 0.12,0.342 0.12,0.34 0.011,0.033 m -0.394,-1.004 0.073,0.143 0.07,0.146 m -0.143,-0.289 0.01,0.029 0.009,0.027 0.075,0.213 0.08,0.217 0.043,0.112 0.043,0.114 0.126,0.32 m -0.42,-1.143 0.017,0.055 0.017,0.056 M 0.57,7.304 0.582,7.303 0.594,7.302 0.611,7.303 0.628,7.304 0.659,7.31 0.689,7.319 0.707,7.324 0.725,7.33 m -2.253,-1.213 0.037,0.084 0.037,0.084 0.043,0.094 0.044,0.093 0.051,0.103 0.05,0.102 0.071,0.135 0.073,0.134 0.076,0.13 0.077,0.13 M 0.793,8.198 0.92,8.221 1.046,8.243 1.267,8.288 M 1.067,8.384 0.793,8.198 m 3.039,-11.339 0.18,-0.131 m 0,0 L 3.987,-3.295 3.965,-3.324 3.947,-3.354 3.929,-3.39 m 0,0 L 3.889,-3.396 3.848,-3.403 3.81,-3.414 3.771,-3.428 3.736,-3.444 3.7,-3.461 3.667,-3.481 3.635,-3.503 3.605,-3.528 3.575,-3.555 3.547,-3.582 3.52,-3.613 3.494,-3.644 3.47,-3.678 3.446,-3.714 3.423,-3.75 m 0,0 L 3.412,-3.766 3.402,-3.783 3.391,-3.8 3.381,-3.817 m 0,0 L 3.359,-3.85 3.339,-3.884 3.319,-3.917 3.3,-3.952 3.283,-3.987 3.265,-4.023 3.248,-4.059 3.232,-4.095 3.216,-4.132 3.201,-4.169 3.172,-4.247 3.146,-4.32 3.122,-4.392 3.101,-4.461 m 0.212,1.532 -0.083,0.034 -0.083,0.036 -0.082,0.038 -0.082,0.042 -0.082,0.044 -0.08,0.047 -0.079,0.05 -0.08,0.052 M 0.793,8.198 0.722,8.157 0.651,8.115 M 0.171,7.925 0.169,7.929 0.168,7.933 V 7.94 L 0.17,7.946 0.173,7.954 0.178,7.963 0.184,7.973 0.191,7.982 0.2,7.995 0.21,8.006 0.221,8.021 0.233,8.033 0.247,8.049 0.261,8.063 m 0.001,0 0.05,0.038 0.051,0.038 m 0,0 0.443,0.272 M 0.171,7.925 0.268,7.948 0.364,7.973 M 4.011,-3.272 3.97,-3.185 3.927,-3.098 M 0.57,7.304 0.802,7.459 1.032,7.613 1.196,7.725 1.359,7.837 M 0.433,7.294 0.692,7.463 0.949,7.631 1.104,7.735 1.258,7.838 M 0.305,7.292 0.735,7.565 1.159,7.842 m -1.262,-2.28 -0.109,-0.15 m -0.058,0.191 0.001,0.055 v 0.055 l -0.004,0.05 -0.007,0.052 -0.01,0.046 -0.012,0.046 -0.014,0.043 -0.019,0.041 -0.019,0.038 -0.024,0.036 -0.025,0.032 -0.029,0.03 -0.031,0.028 -0.034,0.024 -0.037,0.022 -0.038,0.02 m 0,0 -0.017,0.008 -0.018,0.008 -0.019,0.008 -0.02,0.006 m 0,0 -0.037,0.013 -0.038,0.011 -0.041,0.009 -0.041,0.006 -0.044,0.004 H -0.891 L -0.937,6.293 -0.984,6.289 -1.034,6.283 -1.082,6.273 -1.192,6.248 -1.298,6.213 -1.409,6.165 -1.519,6.112 M 0.139,6.135 0.174,6.223 0.21,6.308 0.249,6.391 0.29,6.471 0.331,6.549 0.375,6.625 0.421,6.699 0.468,6.771 M -0.212,5.412 -0.221,5.464 -0.233,5.516 -0.25,5.56 -0.27,5.603 M 0.18,7.294 0.624,7.57 1.062,7.85 M 0.054,8.103 0.209,8.121 0.363,8.139 M 0.054,8.103 0.083,8.123 0.114,8.142 0.338,8.281 0.566,8.412 0.708,8.488 M 0.056,7.297 0.513,7.577 0.965,7.86 M -0.067,7.304 0.403,7.586 0.869,7.872 M -0.194,7.31 0.292,7.597 0.773,7.885 M -0.318,7.319 -0.311,7.315 -0.303,7.312 M -0.318,7.319 0.181,7.608 0.676,7.9 M -0.435,7.334 0.073,7.623 0.578,7.916 M -0.435,7.334 -0.419,7.328 -0.403,7.323 -0.384,7.32 -0.364,7.319 h 0.023 0.023 m -0.239,0.028 0.2,0.113 0.2,0.113 0.318,0.18 0.316,0.179 m -1.034,-0.585 0.017,-0.005 0.016,-0.004 0.021,-0.003 0.02,-0.001 0.024,-10e-4 0.024,10e-4 m -0.25,0.025 0.217,0.121 0.217,0.12 0.312,0.174 0.311,0.173 M -0.685,7.359 -0.667,7.354 -0.65,7.351 -0.629,7.347 h 0.022 0.025 0.025 m -0.252,0.066 0.156,0.088 0.156,0.086 0.133,0.074 0.133,0.07 0.111,0.057 0.112,0.055 0.09,0.041 0.089,0.041 M -0.844,7.376 -0.828,7.371 -0.813,7.367 -0.795,7.363 -0.776,7.361 -0.755,7.359 -0.733,7.358 h 0.023 l 0.025,0.001 m -0.159,0.017 0.017,0.018 0.018,0.019 m 0.749,0.613 0.162,0.018 0.16,0.019 m -1.071,-0.65 0.365,0.319 0.384,0.294 m -0.909,-0.82 0.051,0.071 0.052,0.069 0.011,0.015 0.011,0.015 m 0.784,0.65 0.057,0.039 0.057,0.038 M 2.3,-4.034 l 0.007,0.014 0.008,0.014 0.007,0.017 0.006,0.016 0.007,0.019 0.006,0.018 0.006,0.021 0.005,0.021 m 0,0 0.007,0.016 0.006,0.016 0.006,0.02 0.005,0.02 0.006,0.022 0.004,0.021 m 0,0 0.007,0.016 0.005,0.017 0.006,0.019 0.004,0.018 0.004,0.022 0.005,0.021 m 0,0 0.005,0.017 0.005,0.015 0.005,0.019 0.003,0.019 0.003,0.021 0.004,0.021 m 0,0 0.002,0.009 0.003,0.007 M 2.383,-4.112 2.348,-4.081 2.314,-4.048 2.307,-4.041 2.3,-4.034 M 0.596,0.061 0.593,0.09 0.589,0.119 M 0.288,-2.368 0.278,-2.233 0.269,-2.098 0.263,-1.97 0.262,-1.84 v 0.122 l 0.002,0.123 0.005,0.118 0.009,0.117 0.01,0.111 0.012,0.112 0.02,0.135 0.023,0.137 0.025,0.127 0.029,0.128 0.031,0.12 0.032,0.119 0.034,0.113 0.035,0.112 0.033,0.105 0.034,0.102 M 0.28,-2.374 0.284,-2.371 0.288,-2.368 M 0.28,-2.374 0.237,-2.292 0.194,-2.21 l -0.048,0.094 -0.047,0.094 -0.053,0.108 -0.052,0.108 -0.069,0.148 -0.067,0.15 -0.066,0.153 -0.064,0.152 m 0,0 0.045,0.105 0.043,0.106 0.047,0.107 0.046,0.109 0.049,0.111 0.048,0.112 m 0,0 0.014,0.023 0.013,0.022 0.014,0.028 0.012,0.029 m 0,0 0.009,0.012 0.009,0.013 0.024,0.047 0.02,0.047 m 0,0 0.01,0.016 0.01,0.015 0.01,0.021 0.009,0.021 0.009,0.024 0.009,0.025 m 0,0 0.01,0.016 0.009,0.016 0.009,0.02 0.009,0.022 0.008,0.025 0.008,0.025 m 0,0 0.01,0.017 0.008,0.017 0.009,0.021 0.007,0.022 0.008,0.027 0.007,0.026 m 0,0 0.009,0.017 0.008,0.02 0.008,0.023 0.006,0.023 0.007,0.029 0.007,0.027 m 0,0 0.006,0.014 0.005,0.014 0.006,0.018 0.005,0.018 0.005,0.021 0.004,0.021 0.004,0.025 0.004,0.024 m 0,0 0.006,0.014 0.003,0.012 0.006,0.02 0.004,0.019 0.006,0.038 0.005,0.036 0.004,0.039 m 1.897,-4.532 0.017,0.098 0.017,0.099 0.014,0.086 0.015,0.087 0.011,0.074 0.013,0.075 0.009,0.061 0.01,0.062 m 0,0 0.011,0.079 0.006,0.079 m -0.066,-0.678 0.017,0.142 0.015,0.143 0.018,0.208 0.016,0.207 M 2.3,-4.034 2.298,-4.025 2.295,-4.016 m 0.091,0.237 0.01,0.134 0.01,0.133 0.009,0.214 0.007,0.216 m -0.06,-0.558 0.025,0.139 0.021,0.138 M 2.401,-3.374 2.4,-3.377 v -0.004 -0.003 -0.002 l 10e-4,-10e-4 v -10e-4 10e-4 10e-4 l 0.001,0.002 10e-4,0.002 0.002,0.004 0.001,0.004 v 0.005 l 0.002,0.005 m 0.014,0.282 v 0.006 l 10e-4,0.007 10e-4,0.037 m -0.007,-0.634 0.008,0.347 -0.003,0.347 m 0,-10e-4 v 0.023 0.023 0.015 0.012 l -0.001,0.014 -0.002,0.014 v 0.004 l -10e-4,0.004 m 0.024,-0.69 -0.007,0.346 -0.017,0.344 m 0,0 v 0.017 L 2.417,-2.83 2.416,-2.8 2.413,-2.769 2.412,-2.762 2.41,-2.753 m 0.052,-0.682 -0.02,0.341 -0.032,0.341 m 10e-4,0 -0.002,0.03 -0.003,0.031 -0.004,0.025 -0.004,0.024 m 0.079,-0.67 -0.034,0.335 -0.045,0.335 m -0.903,1.156 0.11,-0.245 m 0,0 -0.033,0.011 -0.033,0.006 -0.031,-0.002 -0.032,-0.005 m 0,0 -0.041,0.034 -0.043,0.034 -0.041,0.027 -0.042,0.024 -0.04,0.02 -0.041,0.015 -0.039,0.012 -0.04,0.008 -0.038,0.003 H 1.072 L 1.034,-1.549 0.997,-1.556 0.96,-1.568 0.923,-1.583 0.887,-1.602 0.852,-1.624 m 0,0 -0.017,-0.01 -0.017,-0.01 -0.016,-0.011 -0.017,-0.012 m 0,0 L 0.753,-1.689 0.721,-1.713 0.689,-1.74 0.659,-1.768 0.629,-1.799 0.599,-1.832 0.57,-1.867 0.541,-1.904 0.513,-1.944 0.486,-1.985 0.429,-2.076 0.379,-2.167 0.332,-2.268 0.288,-2.368 M 1.077,-0.804 1.012,-0.7 0.947,-0.596 0.885,-0.489 0.823,-0.381 0.764,-0.273 0.706,-0.162 0.651,-0.051 0.596,0.061 M 2.398,-2.643 2.396,-2.622 2.394,-2.602 2.391,-2.577 2.386,-2.553 2.384,-2.542 2.381,-2.53 M 2.487,-3.191 2.439,-2.86 2.381,-2.53 M 2.492,-3.067 2.431,-2.742 2.36,-2.416 M 2.492,-2.941 2.417,-2.619 2.334,-2.3 m 0.15,-0.51 -0.053,0.197 -0.056,0.196 -0.016,0.055 m -0.754,0.63 -0.009,0.165 -0.009,0.166 m 0.881,-1.268 -0.092,0.288 m -2.646,6.138 0.007,0.03 0.009,0.029 m -1.283,-2.008 0.045,0.135 0.045,0.135 0.046,0.126 0.049,0.123 0.049,0.117 0.052,0.115 0.052,0.107 0.053,0.104 0.054,0.097 0.057,0.095 0.072,0.112 0.076,0.108 0.076,0.097 0.078,0.092 0.077,0.082 0.079,0.076 0.078,0.069 0.078,0.06 0.076,0.052 0.075,0.047 M -1.546,1.808 h 0.005 0.004 m -0.009,0 -0.008,0.106 -0.007,0.108 -0.008,0.121 -0.007,0.121 -0.006,0.136 -0.006,0.136 -0.005,0.183 -0.004,0.183 v 0.183 l 10e-4,0.183 m 0.001,0 0.082,0.079 0.082,0.076 0.086,0.079 0.087,0.076 0.089,0.078 0.089,0.075 m 0,0 0.022,0.012 0.022,0.014 0.023,0.016 0.023,0.018 m 0,0 0.014,0.007 0.013,0.007 0.041,0.026 0.038,0.029 m 0,0 0.016,0.008 0.015,0.008 0.018,0.011 0.017,0.013 0.018,0.015 0.018,0.017 m 0,0 0.016,0.006 0.015,0.01 0.017,0.011 0.017,0.013 0.018,0.016 0.017,0.018 m 0,0 0.015,0.007 0.015,0.01 0.017,0.011 0.016,0.015 0.018,0.017 0.018,0.019 m 0,0 0.015,0.009 0.015,0.01 0.017,0.014 0.016,0.015 0.017,0.02 0.018,0.02 m -0.001,0.001 0.012,0.007 0.011,0.007 0.013,0.011 0.011,0.011 0.013,0.015 0.014,0.016 0.013,0.017 0.014,0.02 m 0,-10e-4 0.01,0.007 0.009,0.009 0.012,0.012 0.012,0.013 0.022,0.028 0.019,0.028 0.011,0.017 0.012,0.018 m 0.066,1.003 0.124,0.112 0.124,0.112 M 2.445,-3.021 2.438,-3.074 2.43,-3.128 2.424,-3.172 2.418,-3.216 M -0.064,1.948 -0.063,1.697 M -0.182,1.828 -0.207,1.887 -0.234,1.946 -0.261,1.997 -0.29,2.047 -0.321,2.091 -0.353,2.132 -0.385,2.168 -0.419,2.201 -0.453,2.229 -0.49,2.253 -0.526,2.274 -0.564,2.29 -0.604,2.302 -0.643,2.31 -0.684,2.313 -0.726,2.314 m 0,0 h -0.02 L -0.764,2.313 -0.785,2.311 -0.805,2.31 m 0,0 L -0.843,2.305 -0.882,2.3 -0.923,2.289 -0.961,2.277 -1.003,2.261 -1.042,2.242 -1.083,2.221 -1.124,2.197 -1.166,2.169 -1.207,2.14 -1.295,2.069 -1.376,1.992 -1.458,1.901 -1.537,1.808 m 1.36,0.967 -0.018,0.126 -0.017,0.124 -0.015,0.124 -0.014,0.123 -0.011,0.122 -0.008,0.122 -0.006,0.121 -0.004,0.12 m 0.207,-2.06 -0.027,0.042 -0.03,0.037 -0.03,0.028 -0.032,0.024 m -0.135,3.051 0.014,0.014 0.014,0.014 0.017,0.015 0.015,0.011 0.007,0.005 0.007,0.004 m -0.151,-0.123 0.024,0.022 0.022,0.018 0.016,0.01 0.015,0.01 m -0.154,-0.117 0.013,0.012 0.013,0.012 0.022,0.018 0.02,0.011 0.005,0.002 0.004,0.002 m -0.157,-0.112 0.017,0.017 0.02,0.015 0.01,0.007 0.009,0.007 0.01,0.006 0.009,0.003 h 0.002 0.003 m -0.164,-0.11 0.005,0.006 0.006,0.005 0.019,0.016 0.018,0.014 0.01,0.007 0.008,0.004 0.004,0.002 0.004,0.002 h 0.004 0.003 l 0.001,-0.001 h 0.002 m -0.172,-0.11 0.017,0.016 0.017,0.016 0.013,0.011 0.014,0.009 0.009,0.006 0.008,0.002 0.005,-0.001 0.005,-0.004 m -0.101,-0.044 0.003,0.001 h 0.002 0.002 L -0.726,4.608 -0.725,4.606 -0.724,4.603 -0.723,4.6 V 4.597 M -0.539,4.871 -0.593,4.796 -0.647,4.722 -0.691,4.665 -0.736,4.608 m 0.197,0.263 0.111,0.104 0.108,0.105 0.101,0.102 0.099,0.104 0.065,0.07 m -0.33,-1.078 0.202,0.451 m -0.303,-0.555 0.145,0.305 0.142,0.307 0.04,0.086 m -0.285,0.136 0.096,0.092 0.095,0.093 0.091,0.09 0.087,0.093 0.022,0.024 m -0.53,-1.315 0.245,0.496 0.238,0.5 m -0.582,-1.075 0.259,0.5 0.252,0.503 M -0.444,5.008 -0.492,4.94 -0.539,4.871 m -0.243,-0.939 0.274,0.503 0.265,0.507 m -0.641,-1.082 0.287,0.508 0.28,0.511 m -0.673,-1.088 0.302,0.512 0.295,0.516 m -0.703,-1.09 0.008,10e-4 0.008,10e-4 m -0.016,-0.002 0.317,0.514 0.308,0.519 m -0.728,-1.085 0.327,0.512 0.321,0.518 m -0.648,-1.03 0.016,0.003 0.015,0.005 0.017,0.008 0.017,0.009 0.02,0.013 0.018,0.014 m 0.216,0.733 -0.003,0.002 -0.002,0.002 -0.001,0.004 -0.001,0.005 0.001,0.008 0.001,0.008 0.003,0.011 0.002,0.01 0.005,0.013 0.005,0.014 0.005,0.016 0.006,0.015 0.008,0.018 0.008,0.019 m 0,0 0.032,0.054 0.032,0.053 m 0,0 0.241,0.348 0.24,0.344 0.067,0.095 m -0.649,-1.039 0.074,0.072 0.07,0.074 m -0.571,-0.985 0.131,0.198 0.131,0.197 0.206,0.317 0.204,0.317 m -0.672,-1.029 0.016,0.005 0.016,0.005 0.018,0.008 0.018,0.01 0.02,0.012 0.02,0.014 m -0.222,-0.109 0.144,0.209 0.144,0.21 0.205,0.305 0.205,0.305 m -0.698,-1.029 0.017,0.004 0.017,0.005 0.019,0.01 0.019,0.009 0.021,0.013 0.021,0.014 m -0.242,-0.07 0.105,0.149 0.105,0.148 0.09,0.125 0.091,0.125 0.076,0.102 0.077,0.102 0.061,0.08 0.064,0.078 m -0.686,-0.958 0.016,0.003 0.016,0.003 0.017,0.006 0.017,0.006 0.019,0.01 0.019,0.01 0.021,0.012 0.02,0.014 m -0.145,-0.064 0.009,0.025 0.008,0.024 m 1.225,-4.555 0.013,0.01 0.011,0.011 0.014,0.014 0.012,0.013 0.014,0.017 0.012,0.019 0.013,0.021 0.014,0.021 m 0,0 0.012,0.012 0.012,0.014 0.013,0.017 0.013,0.017 0.014,0.024 0.012,0.022 m 0,0 0.012,0.012 0.012,0.013 0.012,0.017 0.012,0.018 0.012,0.021 0.012,0.021 m 0,0 0.012,0.013 0.01,0.012 0.012,0.018 0.01,0.016 0.012,0.022 0.011,0.021 m 0,0 L 0,-0.56 0.006,-0.553 m -0.278,-0.65 -0.022,0.083 -0.021,0.083 -0.005,0.018 -0.004,0.017 M -1.099,4.4 -0.971,4.502 -0.843,4.606 M -1.549,3.553 -1.336,3.98 -1.099,4.4 m -0.497,-1.132 0.012,0.097 0.012,0.098 0.004,0.021 0.002,0.02 M 0.325,0.183 0.348,0.545 M 0.364,0.338 0.373,0.544 M 0.28,0.044 0.326,0.548 M 0.231,-0.086 0.321,0.728 M 0.178,-0.21 0.252,0.312 0.316,0.839 M 0.121,-0.332 0.209,0.195 0.286,0.726 m -0.292,-1.292 0.116,0.537 0.106,0.54 m 0,0 0.007,0.018 0.006,0.019 0.011,0.029 0.009,0.027 0.002,0.007 0.002,0.007 M 0.059,-0.451 0.162,0.082 0.253,0.618 m 0,0 0.01,0.032 0.011,0.032 0.006,0.022 0.006,0.022 m -0.608,-1.686 0.049,0.152 0.05,0.153 0.043,0.131 0.044,0.131 0.037,0.109 0.038,0.109 0.03,0.087 L 0,0 M 3.183,8.686 3.326,8.627 3.47,8.568 3.606,8.512 3.742,8.459 3.871,8.41 3.999,8.362 4.12,8.318 4.242,8.275 4.357,8.237 4.471,8.199 M 4.587,7.557 4.555,7.596 4.523,7.637 4.497,7.677 4.473,7.719 4.454,7.758 4.438,7.801 4.425,7.841 4.415,7.882 4.41,7.923 4.407,7.964 l 0.002,0.04 0.005,0.04 0.008,0.04 0.013,0.039 0.017,0.038 0.019,0.038 M 5.868,-2.268 6.03,-2.2 m 0,0 -0.003,-0.048 -0.002,-0.05 10e-4,-0.046 0.003,-0.047 m 0,0 L 6.006,-2.436 5.983,-2.482 5.963,-2.526 5.943,-2.572 5.925,-2.617 5.907,-2.662 5.891,-2.705 5.876,-2.749 5.863,-2.791 5.849,-2.834 5.837,-2.875 5.826,-2.916 5.815,-2.956 5.805,-2.994 5.795,-3.033 5.786,-3.069 m 0,0 L 5.781,-3.086 5.777,-3.103 5.772,-3.119 5.768,-3.135 m 0,0 L 5.757,-3.167 5.746,-3.197 5.737,-3.225 5.727,-3.253 5.718,-3.279 5.709,-3.304 5.699,-3.328 5.69,-3.35 5.68,-3.372 5.671,-3.392 5.65,-3.429 5.629,-3.457 5.608,-3.477 5.586,-3.493 M 5.485,-2.604 5.422,-2.656 5.358,-2.707 5.294,-2.754 5.228,-2.799 5.161,-2.84 5.095,-2.879 5.028,-2.913 4.96,-2.947 M 3.348,8.69 3.475,8.639 3.601,8.589 3.722,8.542 3.844,8.496 3.96,8.453 4.076,8.411 4.188,8.373 4.299,8.336 4.406,8.301 4.512,8.268 M 4.741,8.851 4.56,8.828 4.379,8.805 4.146,8.778 3.914,8.751 3.631,8.721 3.348,8.69 M 4.512,8.268 4.531,8.294 4.551,8.321 4.574,8.348 4.598,8.373 4.624,8.399 4.652,8.422 4.683,8.446 4.714,8.469 4.748,8.49 4.783,8.512 4.821,8.533 4.859,8.552 4.965,8.597 5.074,8.634 5.194,8.663 5.316,8.687 M 2.465,7.693 H 2.492 L 2.517,7.692 M 0.332,8.53 0.455,8.52 0.579,8.508 0.697,8.495 0.815,8.478 0.928,8.46 1.04,8.44 1.148,8.417 1.255,8.392 1.357,8.366 1.459,8.336 1.582,8.294 1.704,8.247 1.819,8.197 1.931,8.14 2.034,8.08 2.135,8.013 2.227,7.943 2.314,7.864 2.391,7.781 2.465,7.693 M 0.327,8.538 0.329,8.534 0.332,8.53 M 1.315,8.77 1.424,8.734 1.533,8.698 1.644,8.656 1.753,8.612 1.864,8.563 1.975,8.512 m 0,0 L 1.997,8.499 2.02,8.485 2.047,8.47 2.074,8.456 m 0,0 L 2.087,8.447 2.1,8.437 2.144,8.41 2.188,8.385 m 0,0 L 2.204,8.373 2.219,8.363 2.238,8.349 2.257,8.338 2.279,8.325 2.301,8.313 m 0,0 L 2.316,8.3 2.332,8.289 2.35,8.276 2.369,8.264 2.391,8.251 2.414,8.239 m 0,0 L 2.429,8.225 2.445,8.214 2.464,8.2 2.483,8.188 2.507,8.175 2.529,8.163 m 0,0 L 2.545,8.149 2.561,8.137 2.581,8.123 2.602,8.11 2.626,8.097 2.651,8.084 m 0,0.001 L 2.662,8.075 2.674,8.065 2.688,8.054 2.704,8.045 2.722,8.034 2.741,8.025 2.762,8.014 2.783,8.003 m 0,0 L 2.794,7.995 2.805,7.986 2.821,7.976 2.837,7.966 2.869,7.949 2.9,7.934 2.919,7.927 2.938,7.918 m 0,0 0.159,-0.119 0.154,-0.122 m 3.348,-9.084 0.012,-0.07 0.013,-0.072 0.017,-0.093 0.018,-0.094 0.023,-0.115 0.023,-0.115 M 7.323,-2.315 7.354,-2.327 7.385,-2.34 7.416,-2.353 7.447,-2.369 7.478,-2.384 7.508,-2.401 7.539,-2.417 7.569,-2.435 7.6,-2.454 7.629,-2.474 7.661,-2.494 7.69,-2.514 7.765,-2.568 7.832,-2.619 7.899,-2.675 7.96,-2.728 M 6.51,-2.311 6.487,-2.201 6.464,-2.09 M 6.51,-2.311 h 0.032 l 0.034,-0.005 0.032,-0.011 0.033,-0.015 m -0.7,-1.291 -0.025,0.058 -0.025,0.057 -0.021,0.054 -0.02,0.054 -0.017,0.051 -0.016,0.048 -0.014,0.047 -0.014,0.045 -0.011,0.042 -0.01,0.042 m -0.081,-0.549 0.004,0.001 0.003,10e-4 0.026,0.007 0.025,0.006 0.051,0.011 0.052,0.01 0.047,0.008 0.046,0.007 m -3.279,12.4 v 0.005 l 10e-4,0.005 0.003,0.006 0.005,0.005 0.006,0.006 0.007,0.005 0.01,0.006 0.01,0.005 0.014,0.006 0.013,0.006 0.016,0.007 0.016,0.006 0.02,0.006 0.018,0.006 m 0,0 0.063,0.008 0.062,0.009 m 0,0 0.422,0.024 0.417,0.022 0.27,0.013 0.267,0.012 M 3.348,8.69 3.267,8.688 3.183,8.686 m -0.521,0.081 0.1,-0.029 0.099,-0.03 m 1.61,-0.509 0.01,0.018 0.009,0.017 0.011,0.017 0.011,0.017 m -1.886,0.718 0.15,-0.06 0.15,-0.062 m 3.035,-11.625 0.005,0.054 0.006,0.052 0.008,0.049 0.008,0.048 0.009,0.045 0.01,0.043 0.011,0.04 0.011,0.039 m -0.08,-0.438 0.003,0.017 0.002,0.017 0.004,0.017 0.003,0.017 m -0.023,-0.161 0.001,0.023 0.003,0.025 0.003,0.022 0.004,0.024 m -0.019,-0.185 0.001,0.022 0.001,0.025 0.002,0.022 0.004,0.022 m -0.01,-0.181 -0.001,0.021 v 0.025 l 0.001,0.022 0.002,0.022 m 0,-0.177 -0.002,0.021 -0.001,0.023 v 0.021 l 0.001,0.022 M 5.937,-3.276 5.935,-3.263 5.932,-3.248 5.931,-3.23 5.93,-3.21 v 0.009 0.011 M 5.948,-3.36 5.943,-3.341 5.94,-3.318 5.938,-3.298 5.937,-3.276 M 5.962,-3.443 5.959,-3.433 5.956,-3.422 5.952,-3.4 5.948,-3.374 v 0.006 0.008 m 0.032,-0.163 -0.005,0.012 -0.004,0.015 -0.002,0.01 -0.003,0.01 -0.002,0.011 -0.001,0.014 -0.001,0.003 v 0.005 M 6.002,-3.604 6.001,-3.601 6,-3.597 5.995,-3.584 5.989,-3.569 5.987,-3.561 5.985,-3.55 5.984,-3.545 5.982,-3.541 5.981,-3.535 5.98,-3.529 v 0.002 0.004 m 0.049,-0.161 -0.005,0.01 -0.005,0.01 -0.004,0.009 -0.004,0.012 -0.003,0.008 -0.002,0.011 -0.002,0.01 -0.002,0.01 M 6.03,-3.692 v 0 l -0.001,0.004 v 0.004 M 5.969,-3.64 5.985,-3.652 6.001,-3.666 6.016,-3.678 6.03,-3.692 m -0.061,0.051 -0.03,0.068 -0.027,0.067 -0.023,0.062 -0.021,0.063 -0.019,0.057 -0.016,0.057 -0.014,0.053 -0.013,0.052 -0.01,0.047 -0.01,0.045 M 2.783,8.003 3.062,7.974 3.342,7.944 3.54,7.923 3.74,7.903 M 2.651,8.085 2.961,8.053 3.271,8.022 3.458,8.004 3.644,7.986 M 2.529,8.163 3.043,8.116 3.553,8.068 M 1.55,8.811 1.73,8.81 1.909,8.809 2.061,8.805 2.214,8.801 2.339,8.795 2.465,8.787 2.564,8.778 2.662,8.768 M 1.642,8.724 1.891,8.717 2.141,8.708 2.5,8.695 2.858,8.68 M 1.503,8.802 1.515,8.793 1.528,8.783 1.543,8.774 1.559,8.765 1.577,8.755 1.597,8.745 1.619,8.734 1.642,8.724 M 6.082,-3.789 V -3.795 -3.802 -3.811 L 6.081,-3.816 6.08,-3.823 6.078,-3.83 6.076,-3.837 6.073,-3.842 m 0,0 -0.009,-0.004 -0.009,-0.003 m 0,0 -0.07,0.007 -0.071,0.009 -0.06,0.008 -0.059,0.009 M 5.941,-3.633 5.954,-3.636 5.969,-3.64 M 6.082,-3.789 6.053,-3.741 6.03,-3.692 M 2.414,8.239 2.941,8.194 3.464,8.148 M 2.49,8.974 2.646,8.91 2.801,8.847 M 1.755,8.659 1.986,8.65 2.216,8.641 2.583,8.625 2.95,8.607 M 1.642,8.724 1.657,8.714 1.671,8.703 1.689,8.693 1.709,8.682 1.731,8.67 1.755,8.66 M 2.301,8.313 2.841,8.27 3.377,8.227 M 2.188,8.385 2.742,8.346 3.291,8.305 M 1.963,8.525 1.969,8.519 1.975,8.512 M 1.963,8.525 2.544,8.492 3.122,8.458 M 2.074,8.456 2.642,8.42 3.206,8.383 M 1.861,8.592 2.45,8.564 3.037,8.533 M 1.754,8.659 1.768,8.648 1.782,8.638 1.799,8.627 1.817,8.615 1.839,8.604 1.861,8.592 m 0,0 L 1.874,8.582 1.886,8.571 1.903,8.559 1.92,8.549 1.942,8.537 1.963,8.525 M 1.412,7.639 1.227,7.674 M 1.253,7.833 1.279,7.857 1.302,7.884 1.321,7.909 1.336,7.937 1.348,7.964 1.356,7.992 1.361,8.019 1.362,8.049 1.359,8.076 1.353,8.104 1.344,8.132 1.332,8.161 1.315,8.188 1.295,8.215 1.27,8.242 1.243,8.269 m 0,0 L 1.231,8.28 1.218,8.292 1.204,8.303 1.189,8.315 m 0,0 L 1.16,8.336 1.13,8.356 1.097,8.375 1.061,8.393 1.023,8.411 0.983,8.427 0.94,8.443 0.896,8.458 0.848,8.471 0.799,8.484 0.726,8.499 M 1.875,7.703 1.946,7.711 2.018,7.717 2.091,7.72 H 2.165 L 2.238,7.718 2.313,7.712 2.389,7.703 2.465,7.693 m -1.238,-0.019 0.015,0.038 0.01,0.041 0.002,0.04 -0.001,0.04 m 4.9,-11.834 -0.051,0.075 -0.047,0.077 m -0.977,-0.324 0.003,0.012 0.003,0.012 0.003,0.014 0.002,0.011 0.002,0.014 10e-4,0.012 0.002,0.013 10e-4,0.013 m 0,0 0.002,0.013 0.002,0.013 0.002,0.013 v 0.013 l 0.001,0.013 v 0.015 m 0,0 10e-4,0.012 0.001,0.013 0.001,0.013 v 0.013 l -0.001,0.013 -0.001,0.013 m 0,0 0.001,0.014 0.001,0.012 -0.001,0.014 v 0.011 l -0.001,0.013 -0.002,0.013 m 0,0 0.001,0.006 -0.001,0.008 m 0,-0.014 0.004,0.012 m -0.011,0.063 -0.007,0.026 -0.019,0.021 m 0.001,0 -0.008,0.015 -0.01,0.018 -0.01,0.016 -0.011,0.016 M 5.082,-3.688 5.061,-3.667 5.03,-3.651 m 0.967,0.109 -0.03,0.09 -0.019,0.093 M 6.039,-3.615 5.996,-3.53 5.962,-3.443 M 5.03,-3.651 5.024,-3.641 5.018,-3.63 5.009,-3.618 4.999,-3.603 4.993,-3.595 4.987,-3.587 m 0.079,-0.028 -0.035,0.017 -0.044,0.011 m 1.1,-0.101 -0.059,0.08 -0.048,0.085 M 4.987,-3.587 4.977,-3.572 4.965,-3.556 4.954,-3.542 4.94,-3.526 M 5.044,-3.544 4.996,-3.532 4.94,-3.526 M 6.138,-3.76 6.109,-3.731 6.081,-3.703 6.04,-3.654 6.002,-3.604 M 6.138,-3.76 6.129,-3.748 6.12,-3.738 6.111,-3.726 6.103,-3.715 6.094,-3.7 6.087,-3.688 M 6.174,-3.999 6.122,-3.921 6.073,-3.842 M 6.194,-3.83 6.158,-3.802 6.123,-3.773 6.075,-3.73 6.029,-3.683 m 0.165,-0.147 -0.01,0.011 -0.009,0.01 -0.01,0.012 -0.009,0.012 -0.009,0.013 -0.009,0.012 M 4.94,-3.525 4.929,-3.511 4.916,-3.495 4.902,-3.481 4.888,-3.465 m 0.128,-0.008 -0.06,0.006 -0.068,0.002 M 6.275,-3.919 6.246,-3.904 6.216,-3.888 6.19,-3.873 6.164,-3.856 6.142,-3.84 6.119,-3.822 6.101,-3.806 6.082,-3.789 m 0.191,-0.124 -0.011,0.008 -0.01,0.009 -0.01,0.011 -0.01,0.01 -0.01,0.011 -0.009,0.011 -0.009,0.011 -0.01,0.012 M 4.888,-3.465 4.875,-3.45 4.861,-3.435 4.847,-3.422 4.831,-3.406 M 4.982,-3.404 4.938,-3.402 4.891,-3.403 4.862,-3.404 4.831,-3.406 m 0,0 -0.014,0.013 -0.016,0.016 -0.015,0.013 -0.017,0.014 M 4.941,-3.337 4.893,-3.339 4.843,-3.342 4.807,-3.346 4.769,-3.35 M 4.888,-3.273 4.865,-3.276 4.843,-3.278 4.816,-3.284 4.788,-3.291 4.755,-3.301 4.722,-3.311 m 0.048,-0.039 -0.011,0.009 -0.012,0.01 -0.011,0.01 -0.013,0.01 m -10e-4,0 -0.032,0.027 -0.032,0.027 -0.031,0.024 -0.031,0.022 -0.03,0.018 -0.031,0.018 -0.029,0.016 -0.029,0.013 m -1.815,0.56 -0.01,0.014 -0.009,0.016 m 0.458,-1.905 -0.041,0.076 -0.039,0.079 -0.036,0.076 -0.033,0.079 -0.03,0.077 -0.029,0.08 -0.025,0.077 -0.024,0.08 -0.021,0.079 -0.018,0.08 -0.022,0.103 -0.019,0.107 -0.016,0.104 -0.014,0.11 -0.013,0.107 -0.011,0.112 -0.011,0.109 -0.011,0.113 -0.013,0.114 -0.013,0.113 m 0.435,-1.885 10e-4,0.005 0.003,0.005 m -0.004,-0.01 -0.052,0.02 -0.052,0.02 -0.059,0.025 -0.06,0.026 -0.066,0.03 -0.067,0.033 -0.09,0.046 -0.09,0.05 -0.089,0.054 -0.089,0.055 m 10e-4,0 0.011,0.089 0.011,0.09 0.011,0.095 0.011,0.097 0.01,0.101 0.009,0.102 m 0,0 0.005,0.025 0.004,0.024 0.004,0.027 0.002,0.027 m 0,0 0.003,0.014 0.004,0.015 0.006,0.047 0.002,0.046 m 0,0 0.004,0.018 0.003,0.017 0.002,0.021 10e-4,0.021 v 0.022 0.023 m 0,0 0.003,0.018 0.002,0.017 0.002,0.022 v 0.02 L 2.493,-3.09 2.492,-3.067 m 0,0 0.002,0.018 0.002,0.019 v 0.021 0.022 l -0.002,0.023 -0.002,0.023 m 0,0 v 0.02 l 10e-4,0.019 -10e-4,0.022 -10e-4,0.022 -0.004,0.025 -0.003,0.024 m 0,-10e-4 v 0.015 0.015 l -10e-4,0.017 -0.002,0.016 -0.002,0.019 -0.003,0.018 -0.004,0.021 -0.004,0.02 m 0,0 -10e-4,0.014 -10e-4,0.012 -0.002,0.018 -0.003,0.017 -0.006,0.032 -0.006,0.029 -0.005,0.018 -0.005,0.017 M 0.725,7.33 0.895,7.327 1.06,7.325 M 0.725,7.33 0.819,7.394 0.913,7.459 1.032,7.544 1.151,7.631 1.247,7.703 M 1.159,7.842 1.189,7.845 H 1.218 L 1.238,7.842 1.258,7.838 M 1.062,7.85 1.092,7.852 H 1.119 L 1.14,7.848 1.159,7.842 M 0.965,7.859 0.995,7.862 1.024,7.86 1.043,7.856 1.062,7.851 M 0.869,7.872 0.889,7.873 H 0.908 L 0.93,7.872 0.949,7.868 0.958,7.864 0.965,7.859 M 0.773,7.885 0.803,7.888 0.832,7.885 0.851,7.88 0.869,7.872 M 0.676,7.9 0.694,7.902 0.71,7.903 0.738,7.901 0.763,7.893 0.768,7.889 0.773,7.885 M 0.578,7.916 0.602,7.919 H 0.625 L 0.638,7.918 0.651,7.916 0.662,7.912 0.671,7.905 0.673,7.904 0.676,7.9 M 0.477,7.932 0.485,7.933 0.492,7.934 0.516,7.937 H 0.54 L 0.55,7.935 0.561,7.932 0.565,7.93 0.569,7.927 0.572,7.924 0.576,7.92 0.577,7.918 0.578,7.916 M 0.372,7.948 0.395,7.952 0.417,7.955 0.433,7.956 0.449,7.955 0.46,7.953 0.47,7.948 0.474,7.941 0.477,7.932 M 0.364,7.973 0.367,7.972 0.37,7.969 0.371,7.967 0.373,7.964 0.374,7.96 V 7.956 7.952 L 0.372,7.947 M 0.651,8.114 0.572,8.073 0.492,8.033 0.428,8.002 0.364,7.973 M 0.651,8.115 0.796,8.138 0.94,8.161 1.076,8.187 1.21,8.214 1.268,8.227 m -0.8,-1.456 0.019,0.018 0.02,0.019 m -2.026,-0.696 0.096,0.078 0.098,0.077 0.095,0.069 0.097,0.067 0.093,0.061 0.096,0.057 0.091,0.052 0.094,0.049 0.09,0.042 0.092,0.039 0.112,0.043 0.116,0.036 0.11,0.026 0.112,0.019 0.105,0.01 L 0.084,6.841 0.185,6.836 0.285,6.822 0.377,6.799 0.468,6.771 M -1.528,6.117 -1.524,6.114 -1.519,6.112 m 0.55,1.093 0.108,0.024 0.108,0.022 0.112,0.02 0.111,0.015 0.113,0.013 0.114,0.013 m 0,0 0.026,-0.002 0.025,-0.002 0.03,0.001 0.028,10e-4 m 0,0 0.016,-0.003 0.015,-0.003 0.049,-0.003 0.047,0.003 m 0,0 0.017,-0.005 0.018,-0.002 0.021,-0.002 H 0.01 0.034 l 0.022,0.002 m 0,0.001 L 0.075,7.294 0.092,7.292 0.113,7.29 h 0.02 L 0.157,7.291 0.18,7.294 m 0,0 L 0.198,7.29 0.215,7.287 0.237,7.286 h 0.021 l 0.023,0.002 0.024,0.004 m 0,0 L 0.323,7.288 0.342,7.285 0.363,7.284 0.385,7.286 0.409,7.289 0.433,7.294 m 0,0 L 0.447,7.292 0.46,7.29 H 0.476 L 0.492,7.291 0.511,7.293 0.529,7.295 0.55,7.299 0.57,7.304 M 5.571,6.454 5.589,6.438 5.605,6.422 5.616,6.41 5.625,6.396 5.63,6.386 5.632,6.376 5.629,6.368 5.625,6.362 M 5.586,6.472 5.587,6.469 V 6.468 L 5.586,6.464 5.584,6.461 5.582,6.459 5.58,6.457 5.576,6.454 H 5.571 M 5.873,6.319 5.98,6.214 6.087,6.108 6.189,6.007 6.292,5.906 6.39,5.81 6.489,5.714 6.582,5.624 6.677,5.534 6.767,5.449 6.857,5.366 M 6.713,4.643 6.698,4.705 6.685,4.768 6.676,4.826 6.67,4.884 6.667,4.936 6.668,4.989 6.672,5.038 6.68,5.085 6.691,5.129 6.705,5.172 6.722,5.209 6.743,5.246 6.767,5.28 6.794,5.311 6.825,5.34 6.857,5.366 M 5.357,6.799 5.473,6.696 5.589,6.589 M 4.426,7.097 4.59,7.02 4.753,6.943 4.892,6.877 5.03,6.809 5.143,6.752 5.255,6.693 5.342,6.645 5.428,6.597 M 7.572,2.026 7.62,1.945 7.668,1.864 7.714,1.784 7.761,1.701 7.806,1.622 7.852,1.541 7.897,1.463 7.943,1.384 7.987,1.308 8.033,1.231 m 0,0 L 8.065,1.233 8.099,1.234 8.134,1.233 8.169,1.23 8.205,1.226 8.24,1.22 8.278,1.211 8.315,1.203 8.355,1.191 8.393,1.179 8.433,1.164 8.474,1.15 8.576,1.105 8.675,1.056 8.776,0.996 8.873,0.934 M 6.664,2.636 6.963,2.228 7.257,1.814 m 0.696,-0.588 0.02,0.002 0.019,0.002 0.02,0.001 h 0.02 M 4.471,7.023 4.698,6.909 4.923,6.794 5.248,6.625 5.571,6.453 M 4.378,7.113 4.385,7.106 4.392,7.098 4.401,7.088 4.412,7.078 4.425,7.065 4.438,7.053 4.454,7.039 4.471,7.023 m 3.315,-8.208 v 0 l -10e-4,0.001 -0.002,0.002 -0.005,0.004 -0.005,0.007 -0.006,0.007 -0.008,0.008 -0.008,0.01 m 0,0 -0.024,0.024 -0.023,0.024 m 0,0 -0.16,0.154 -0.16,0.154 -0.136,0.131 -0.135,0.13 m 0.311,-0.247 0.034,-0.036 0.035,-0.036 m -0.001,0 0.045,-0.051 0.044,-0.051 0.037,-0.042 0.038,-0.043 m 0.13,-0.15 -0.067,0.072 -0.063,0.078 M 6.686,2.553 6.973,2.141 7.255,1.724 M 4.067,6.947 3.982,7.023 3.896,7.095 3.821,7.152 3.747,7.209 m 0,0 -0.165,0.216 M 4.22,6.745 4.293,6.67 4.365,6.593 4.437,6.516 4.508,6.434 4.578,6.352 4.649,6.267 4.718,6.18 4.788,6.092 m -1.206,1.333 0.03,0.007 0.027,0.01 0.019,0.017 0.017,0.019 M 4.546,6.944 4.756,6.834 4.964,6.724 5.295,6.544 5.625,6.361 M 4.47,7.023 4.48,7.013 4.489,7.002 4.501,6.99 4.514,6.977 4.53,6.96 4.546,6.944 M 6.857,5.366 6.873,5.378 6.888,5.39 6.905,5.4 6.922,5.411 M 7.057,0.099 7.017,0.194 6.978,0.29 6.943,0.38 6.909,0.471 6.878,0.556 6.847,0.642 6.82,0.723 6.793,0.804 M 7.089,0.003 7.08,0.028 7.071,0.053 7.064,0.076 7.057,0.099 m 0.077,-0.22 -0.014,0.033 -0.013,0.033 -0.01,0.029 -0.008,0.03 M 7.181,-0.24 7.166,-0.208 7.152,-0.176 7.143,-0.149 7.134,-0.122 M 7.23,-0.354 7.214,-0.323 7.2,-0.291 7.19,-0.266 7.18,-0.24 m 0.102,-0.22 -0.015,0.028 -0.016,0.03 -0.01,0.024 -0.011,0.024 M 7.337,-0.564 7.326,-0.545 7.315,-0.527 7.303,-0.504 7.292,-0.482 7.287,-0.471 7.282,-0.46 M 7.395,-0.663 7.377,-0.636 7.36,-0.609 7.348,-0.587 7.337,-0.564 M 7.454,-0.759 7.444,-0.744 7.434,-0.73 7.417,-0.704 7.402,-0.677 7.398,-0.67 7.395,-0.663 M 7.517,-0.852 7.503,-0.833 7.489,-0.813 7.48,-0.801 7.473,-0.79 7.465,-0.779 7.459,-0.768 7.457,-0.763 7.454,-0.759 M 7.584,-0.943 7.58,-0.939 7.576,-0.933 7.561,-0.914 7.546,-0.894 7.539,-0.885 7.532,-0.875 7.528,-0.87 7.526,-0.865 7.523,-0.861 7.52,-0.856 7.518,-0.854 7.517,-0.852 M 7.655,-1.034 7.642,-1.018 7.629,-1.002 7.618,-0.989 7.608,-0.976 7.6,-0.965 7.592,-0.957 7.588,-0.949 7.584,-0.943 m 0.072,-0.092 v 0 l -10e-4,10e-4 v 0 m -0.162,0.186 -0.082,0.102 -0.08,0.103 -0.074,0.099 -0.071,0.1 -0.066,0.096 -0.064,0.095 -0.06,0.091 -0.057,0.09 L 6.886,0.013 6.834,0.099 M 4.616,6.864 5.146,6.57 5.674,6.269 M 4.546,6.944 4.554,6.933 4.562,6.924 4.573,6.911 4.585,6.897 4.6,6.881 4.616,6.864 M 6.709,2.46 6.879,2.204 7.049,1.944 7.15,1.787 7.252,1.628 M 4.681,6.784 5.203,6.482 5.722,6.174 M 4.616,6.864 4.622,6.854 4.63,6.843 4.64,6.831 4.651,6.816 4.666,6.8 4.681,6.784 M 5.326,5.898 5.428,5.821 5.53,5.742 5.661,5.645 5.793,5.548 5.953,5.431 6.113,5.315 M 6.698,4.458 6.549,4.564 6.4,4.668 M 6.698,4.458 6.695,4.509 6.696,4.56 6.703,4.602 6.713,4.643 M 4.681,6.784 4.683,6.778 4.686,6.773 M 4.753,6.694 5.262,6.389 5.768,6.077 M 6.735,2.351 6.886,2.112 7.036,1.872 7.144,1.698 7.251,1.524 M 4.829,6.599 5.324,6.291 5.815,5.977 m 2.101,-7.292 -0.107,0.107 -0.105,0.11 M 4.902,6.501 5.384,6.189 5.863,5.873 m 0.91,-3.658 0.06,-0.101 0.062,-0.101 0.08,-0.128 0.08,-0.13 0.1,-0.157 0.1,-0.158 M 7.432,0.634 7.338,0.78 7.244,0.926 m 0,0 L 7.216,1.01 7.187,1.095 7.153,1.188 7.116,1.279 7.073,1.38 7.028,1.481 6.977,1.59 6.922,1.699 6.861,1.815 6.798,1.933 M 7.432,0.634 7.45,0.667 7.472,0.696 7.496,0.717 7.524,0.734 M 4.975,6.399 5.444,6.084 5.911,5.764 M 5.05,6.292 5.507,5.974 5.96,5.651 M 7.372,0.784 7.34,0.182 7.259,-0.39 M 5.129,6.175 5.405,5.977 5.679,5.777 5.846,5.656 6.012,5.533 M 5.218,6.048 5.465,5.862 5.713,5.677 5.89,5.543 6.066,5.409 M 7.154,-1.859 7.169,-1.873 7.182,-1.891 M 7.083,-1.789 7.086,-1.791 7.09,-1.795 7.094,-1.8 7.099,-1.804 7.105,-1.811 7.111,-1.816 7.118,-1.823 7.125,-1.831 7.134,-1.84 7.142,-1.848 7.152,-1.859 7.161,-1.869 7.172,-1.88 7.182,-1.891 M 6.73,-1.386 6.791,-1.455 6.852,-1.523 6.902,-1.579 6.951,-1.635 6.991,-1.68 7.028,-1.724 7.056,-1.757 7.083,-1.79 m 0,0.001 0.015,-0.02 0.013,-0.023 m 0,0 H 7.109 L 7.108,-1.831 7.106,-1.829 7.102,-1.827 7.1,-1.825 7.097,-1.822 7.093,-1.819 7.089,-1.816 m -0.364,0.488 0.078,-0.099 0.076,-0.098 0.027,-0.036 m 0.085,-0.117 0.098,-0.138 m 10e-4,0 L 7.092,-1.82 7.093,-1.824 7.092,-1.826 7.091,-1.827 7.087,-1.826 7.082,-1.823 7.076,-1.819 7.069,-1.814 m -0.174,0.266 0.173,-0.266 m 0.001,0 v -0.002 0 -0.004 L 7.066,-1.822 H 7.064 7.06 L 7.057,-1.82 7.055,-1.819 7.051,-1.817 7.047,-1.816 7.045,-1.815 7.044,-1.813 M 6.903,-1.572 7.044,-1.813 M 4.741,8.851 4.893,8.813 5.044,8.772 5.181,8.731 5.316,8.687 M 4.302,8.935 4.421,8.916 4.539,8.895 4.64,8.873 4.741,8.851 M 2.626,8.986 2.662,8.99 2.696,8.992 2.96,9.009 3.223,9.015 3.358,9.014 3.494,9.012 3.72,9.001 3.946,8.98 4.124,8.959 4.302,8.935 M 2.49,8.974 2.558,8.98 2.626,8.986 M 1.55,8.811 2.017,8.909 2.49,8.974 M 1.503,8.802 1.527,8.806 1.55,8.811 M 1.315,8.771 1.392,8.783 1.47,8.796 1.486,8.799 1.503,8.802 M 0.327,8.538 0.397,8.562 0.467,8.585 0.548,8.61 0.629,8.633 0.72,8.656 0.811,8.679 0.935,8.707 1.061,8.731 1.188,8.751 1.315,8.77 M 0.785,8.737 0.664,8.687 0.544,8.636 0.434,8.587 0.327,8.538 M 1.236,8.9 1.113,8.857 0.991,8.815 0.888,8.777 0.785,8.737 M 2.885,9.219 2.849,9.217 2.815,9.214 2.55,9.188 2.288,9.15 2.153,9.128 2.019,9.102 1.797,9.055 1.577,9.001 1.407,8.951 1.236,8.9 M 3.022,9.227 2.953,9.224 2.885,9.219 M 3.983,9.198 3.502,9.23 3.022,9.227 M 4.033,9.192 4.008,9.195 3.983,9.198 M 4.538,9.052 4.286,9.127 4.033,9.192 M 5.152,8.788 5.03,8.845 4.908,8.901 4.724,8.979 4.539,9.052 M 5.316,8.687 5.235,8.738 5.152,8.788 M 5.316,8.687 v 0 M 7.044,-1.813 7.043,-1.817 7.039,-1.82 7.037,-1.821 H 7.033 L 7.028,-1.82 7.021,-1.817 7.018,-1.816 H 7.015 m -0.147,0.284 0.147,-0.284 m 0,0 L 7.014,-1.817 7.012,-1.821 7.005,-1.823 6.993,-1.822 6.989,-1.821 6.984,-1.819 M 6.811,-1.451 6.984,-1.819 M 3.251,7.677 2.879,7.73 2.509,7.755 M 2.535,5.9 1.937,5.167 1.646,4.022 1.706,2.641 2.109,1.241 2.791,0.039 3.647,-0.777 4.543,-1.08 M 7.259,-0.522 7.235,-0.454 7.19,-0.317 7.146,-0.181 7.118,-0.088 7.089,0.004 M 7.292,-0.564 7.278,-0.527 7.23,-0.395 7.182,-0.26 7.157,-0.191 7.134,-0.122 M 6.984,-1.819 6.98,-1.825 6.972,-1.829 H 6.962 L 6.95,-1.827 M 6.798,-1.459 6.95,-1.827 M 7.336,-0.634 7.181,-0.24 M 7.406,-0.753 7.23,-0.354 M 7.418,-0.747 7.282,-0.46 M 7.21,-1.917 7.225,-1.931 7.238,-1.948 M 7.182,-1.891 7.21,-1.919 7.238,-1.948 m 0.249,1.096 -0.15,0.288 m 0.258,-0.45 -0.2,0.351 M 6.95,-1.827 6.947,-1.832 6.943,-1.835 6.935,-1.838 6.926,-1.84 H 6.92 6.913 M 6.758,-1.413 6.913,-1.84 m 0.724,0.784 -0.183,0.297 M 7.679,-1.095 7.517,-0.852 M 7.722,-1.135 7.584,-0.943 M 7.238,-1.948 7.407,-2.109 7.573,-2.269 7.68,-2.373 7.784,-2.474 M 6.913,-1.84 6.907,-1.846 6.898,-1.852 6.887,-1.854 6.874,-1.855 M 6.691,-1.29 6.786,-1.57 6.874,-1.855 m 1.007,-0.732 -0.082,0.076 -0.081,0.076 -0.103,0.096 -0.103,0.096 -0.123,0.116 -0.124,0.116 m 0,0 -0.03,0.031 -0.031,0.033 m 0,0 -0.027,0.034 -0.027,0.032 -0.02,0.024 -0.019,0.025 M 6.874,-1.855 6.867,-1.864 6.857,-1.869 6.845,-1.873 6.831,-1.876 M 6.672,-1.304 6.755,-1.587 6.831,-1.876 M 4.96,-2.947 4.954,-2.952 4.947,-2.956 M 5.586,-3.493 5.553,-3.504 5.52,-3.515 5.49,-3.521 5.46,-3.523 5.432,-3.522 5.405,-3.518 5.379,-3.511 5.353,-3.5 l -0.024,0.014 -0.024,0.017 -0.03,0.027 -0.03,0.035 -0.03,0.038 -0.031,0.045 -0.031,0.05 -0.033,0.056 -0.034,0.06 -0.039,0.066 -0.042,0.071 -0.045,0.074 m 0.625,-0.555 0.001,0.005 v 0.004 M 5.585,-3.502 5.555,-3.551 5.524,-3.601 5.488,-3.656 5.452,-3.709 5.41,-3.767 5.367,-3.823 5.308,-3.897 5.248,-3.968 5.188,-4.034 5.127,-4.1 m 0,0 -10e-4,0.04 -0.002,0.041 -0.003,0.044 -0.004,0.047 -0.008,0.052 -0.008,0.052 m 0,0 v 0.016 l -0.002,0.015 -0.002,0.016 -0.003,0.014 m 0,0 v 0.011 l -0.001,0.011 -0.004,0.028 -0.007,0.025 m 0,0 -10e-4,0.013 -0.002,0.012 -0.003,0.013 -0.002,0.011 -0.004,0.013 -0.004,0.011 m 0,0 -0.002,0.013 -0.003,0.011 -0.003,0.014 -0.004,0.011 -0.005,0.011 -0.005,0.011 m 0,0 -0.004,0.014 -0.003,0.011 -0.004,0.013 -0.005,0.01 -0.005,0.012 -0.007,0.011 m 0,0 -0.004,0.013 -0.004,0.012 -0.006,0.013 -0.006,0.011 -0.006,0.01 -0.008,0.01 m 0,0 -0.003,0.008 -0.004,0.01 L 4.97,-3.377 4.965,-3.369 4.96,-3.36 4.954,-3.353 4.948,-3.345 4.941,-3.337 m 0,0 -0.004,0.008 -0.004,0.006 -0.006,0.009 -0.005,0.009 -0.011,0.011 -0.01,0.01 -0.007,0.006 -0.006,0.005 m 0,-10e-4 -0.067,0.096 -0.074,0.095 m 0.109,0.017 0.112,0.049 M 6.831,-1.876 6.823,-1.885 6.812,-1.893 6.8,-1.898 6.787,-1.903 m -0.136,0.579 0.044,-0.177 0.042,-0.18 0.025,-0.11 0.025,-0.112 M 6.705,-1.966 6.695,-2.011 6.686,-2.058 6.677,-2.104 6.668,-2.151 6.661,-2.199 6.653,-2.247 6.647,-2.294 6.641,-2.342 M 6.739,-1.936 6.732,-1.944 6.724,-1.953 6.715,-1.96 6.705,-1.966 M 6.787,-1.903 6.778,-1.912 6.766,-1.923 6.753,-1.929 6.738,-1.936 M 7.204,-1.947 7.21,-1.974 7.215,-2.003 7.219,-2.033 7.223,-2.065 7.227,-2.099 7.23,-2.135 7.234,-2.171 7.238,-2.209 7.243,-2.247 7.248,-2.285 m -0.607,-0.057 0.035,0.025 0.036,0.023 0.035,0.019 0.038,0.017 0.036,0.012 0.038,0.01 0.037,0.006 0.039,0.005 0.038,10e-4 0.039,-0.002 0.038,-0.003 0.039,-0.007 0.04,-0.008 0.039,-0.012 0.041,-0.014 0.039,-0.015 M 6.626,-1.355 6.66,-1.522 6.693,-1.69 6.716,-1.812 6.738,-1.936 M 7.265,-2.011 7.271,-2.035 7.277,-2.061 7.283,-2.088 7.288,-2.118 7.293,-2.148 7.299,-2.18 7.304,-2.212 7.31,-2.247 7.316,-2.279 7.323,-2.315 M 7.248,-2.285 7.267,-2.293 7.285,-2.3 7.304,-2.306 7.323,-2.315 m -1.688,-0.225 0.067,0.07 0.065,0.072 0.051,0.065 0.05,0.065 m 0.596,0.178 0.011,0.046 0.011,0.047 0.009,0.053 0.006,0.054 0.006,0.059 0.002,0.063 v 0.067 L 6.507,-1.632 6.501,-1.555 6.494,-1.476 M 6.502,-2.172 6.277,-2.417 6.03,-2.619 M 5.348,-4.284 6.201,-3.992 M 5.267,-4.295 H 5.273 5.28 l 0.068,0.011 M 5.244,-4.291 5.256,-4.294 5.267,-4.295 m -0.186,0.111 0.086,-0.07 0.077,-0.037 M 5.078,-4.173 5.08,-4.179 5.081,-4.184 M 5.127,-4.1 5.107,-4.13 5.087,-4.161 5.082,-4.167 5.078,-4.173 m 0.609,0.489 -0.028,0.043 -0.028,0.047 -0.023,0.045 -0.023,0.047 m 0.21,-0.314 -0.033,0.031 -0.031,0.033 -0.023,0.033 -0.021,0.035 M 6.153,-4.001 H 6.146 6.14 L 6.09,-3.997 6.036,-3.982 6.007,-3.97 5.978,-3.957 5.928,-3.928 5.877,-3.89 5.837,-3.855 5.795,-3.816 M 6.174,-3.999 6.163,-4 6.153,-4.001 M 6.275,-3.919 6.23,-3.975 6.174,-3.999 m 0.099,0.086 0.001,-0.003 0.001,-0.003 M 3.74,7.904 3.761,7.889 3.782,7.874 3.8,7.859 3.816,7.844 M 3.644,7.986 3.673,7.966 3.701,7.944 3.721,7.924 3.74,7.903 M 3.553,8.068 3.582,8.049 3.608,8.026 3.627,8.006 3.645,7.986 M 3.464,8.148 3.492,8.129 3.518,8.107 3.536,8.089 3.553,8.068 M 3.377,8.227 3.406,8.209 3.431,8.188 3.449,8.169 3.464,8.148 M 3.291,8.305 3.311,8.294 3.328,8.281 3.348,8.265 3.364,8.246 3.371,8.238 3.377,8.227 M 3.206,8.383 3.236,8.366 3.262,8.344 3.278,8.326 3.291,8.305 M 3.122,8.458 3.139,8.449 3.155,8.439 3.18,8.42 3.199,8.397 3.204,8.39 3.206,8.383 M 3.037,8.533 3.06,8.522 3.082,8.508 3.094,8.499 3.104,8.49 3.113,8.48 3.119,8.467 3.121,8.463 3.122,8.458 M 2.95,8.607 2.957,8.604 2.965,8.601 2.987,8.59 3.009,8.576 3.018,8.568 3.027,8.559 3.03,8.554 3.033,8.549 3.035,8.544 3.036,8.538 3.037,8.536 V 8.533 M 2.859,8.681 2.88,8.672 2.903,8.663 2.918,8.655 2.933,8.645 2.943,8.636 2.949,8.627 2.95,8.617 V 8.607 M 2.861,8.708 2.863,8.707 2.864,8.703 2.865,8.7 V 8.696 L 2.864,8.692 V 8.688 L 2.861,8.684 2.858,8.681 M 3.183,8.686 3.093,8.69 3.002,8.696 2.932,8.703 2.861,8.708 M 5.357,6.799 5.422,6.776 5.487,6.752 M 4.426,7.097 4.895,6.959 5.357,6.799 M 4.378,7.113 4.401,7.105 4.426,7.097 M 4.188,7.228 4.266,7.182 4.344,7.134 4.361,7.124 4.377,7.113 M 3.15,7.937 3.226,7.891 3.303,7.845 3.39,7.79 3.477,7.735 3.573,7.671 3.67,7.605 3.8,7.515 3.929,7.421 4.058,7.326 4.188,7.228 M 3.656,7.857 3.523,7.879 3.391,7.9 3.27,7.919 3.15,7.937 M 4.137,7.771 4.007,7.793 3.877,7.815 3.766,7.836 3.656,7.857 M 5.783,7.314 5.75,7.326 5.717,7.338 5.464,7.427 5.208,7.507 5.075,7.546 4.941,7.584 4.718,7.642 4.493,7.695 4.316,7.734 4.137,7.771 M 5.912,7.262 5.847,7.288 5.783,7.314 m 1,-0.48 L 6.354,7.059 5.912,7.262 M 6.826,6.805 6.805,6.82 6.783,6.834 M 7.242,6.359 7.037,6.586 6.826,6.805 M 7.714,5.679 7.622,5.817 7.529,5.954 7.387,6.157 7.242,6.359 M 7.83,5.444 7.772,5.563 7.713,5.679 M 7.829,5.443 H 7.83 V 5.444 M 6.415,2.67 6.378,2.666 M 6.347,2.716 6.363,2.691 6.378,2.666 M 5.619,4.596 5.685,4.476 5.75,4.358 5.811,4.246 5.871,4.135 5.927,4.031 5.98,3.929 6.03,3.834 6.079,3.738 6.123,3.65 6.165,3.563 6.212,3.459 6.256,3.357 6.292,3.263 6.323,3.172 6.346,3.087 6.363,3.005 6.372,2.928 V 2.854 L 6.363,2.785 6.347,2.716 M 5.619,4.597 V 4.596 M 6.305,3.301 6.352,3.237 6.398,3.173 6.443,3.107 6.485,3.041 6.524,2.974 6.563,2.906 m -10e-4,0 L 6.568,2.894 6.574,2.882 6.581,2.865 6.59,2.849 m 0,0 L 6.592,2.843 6.595,2.837 6.605,2.811 6.617,2.783 m 0,0 L 6.619,2.774 6.622,2.766 6.625,2.755 6.63,2.742 6.635,2.727 6.641,2.712 m 0,0 L 6.643,2.704 6.645,2.693 6.649,2.683 6.653,2.668 6.658,2.652 6.664,2.636 m 0,0 L 6.666,2.626 6.667,2.617 6.67,2.603 6.674,2.589 6.68,2.571 6.686,2.553 m 0,0 L 6.687,2.543 6.688,2.531 6.692,2.517 6.696,2.5 6.702,2.481 6.709,2.46 m 0,0 V 2.451 L 6.71,2.443 6.713,2.431 6.715,2.419 6.719,2.404 6.724,2.389 6.73,2.37 6.735,2.351 m 0,0 L 6.736,2.343 6.737,2.334 6.74,2.321 6.743,2.306 6.751,2.279 6.76,2.251 6.766,2.233 6.773,2.215 m 0,0 0.015,-0.138 0.01,-0.144 m 0,0 -0.183,0.368 -0.2,0.369 M 5.783,4.632 5.75,4.782 m 0,0 L 5.781,4.753 5.812,4.729 5.838,4.713 5.863,4.702 m 0,-0.001 L 5.89,4.649 5.916,4.597 5.94,4.551 5.963,4.507 5.983,4.47 6.002,4.433 6.019,4.402 6.034,4.373 6.048,4.349 6.059,4.327 6.067,4.31 6.074,4.296 6.078,4.285 6.081,4.278 6.079,4.274 6.077,4.273 M 6.076,3.71 6.115,3.587 6.153,3.463 6.189,3.339 6.224,3.215 6.257,3.09 6.288,2.965 6.318,2.841 6.348,2.716 M 7.198,2.522 7.259,2.437 7.319,2.349 M 7.174,2.428 H 7.177 7.181 L 7.187,2.426 7.193,2.423 7.201,2.421 7.209,2.417 7.219,2.411 7.23,2.405 7.243,2.397 7.257,2.39 7.271,2.38 7.286,2.371 7.303,2.36 7.319,2.349 M 6.471,3.068 6.589,2.965 6.705,2.863 6.804,2.775 6.9,2.688 6.98,2.615 7.057,2.543 7.116,2.485 7.174,2.428 m 0,0 L 7.219,2.37 7.264,2.309 m 0,0 L 7.263,2.308 7.262,2.306 7.261,2.305 H 7.258 7.255 7.251 L 7.247,2.306 7.242,2.308 M 6.478,3.054 6.637,2.904 6.794,2.752 7.019,2.531 7.242,2.308 M 6.459,-0.931 6.422,-0.894 m -0.006,0.041 0.003,-0.021 0.003,-0.02 M 6.581,0.084 6.59,-0.005 6.598,-0.093 6.606,-0.173 6.613,-0.251 6.618,-0.322 6.624,-0.389 6.628,-0.451 6.63,-0.508 6.632,-0.561 V -0.609 L 6.629,-0.663 6.624,-0.712 6.615,-0.752 6.602,-0.786 6.585,-0.812 6.562,-0.832 6.536,-0.846 6.502,-0.854 6.461,-0.855 6.416,-0.853 m 0.165,0.932 v 0.003 0.003 m 0,-0.006 0.012,-0.093 0.011,-0.095 0.011,-0.106 0.009,-0.106 0.01,-0.117 0.01,-0.117 0.01,-0.157 L 6.662,-0.866 6.67,-1.02 6.676,-1.173 M 6.691,-1.29 6.688,-1.289 6.685,-1.288 6.682,-1.29 6.678,-1.292 6.676,-1.298 6.672,-1.304 m 0,0 L 6.669,-1.303 6.665,-1.302 6.661,-1.304 6.657,-1.308 6.654,-1.316 6.65,-1.323 M 6.651,-1.324 6.648,-1.323 6.645,-1.324 6.641,-1.326 6.638,-1.328 6.634,-1.333 6.632,-1.339 6.629,-1.348 6.626,-1.355 m 0,0 H 6.623 L 6.62,-1.357 6.616,-1.36 6.613,-1.365 6.608,-1.377 6.603,-1.389 6.601,-1.398 6.599,-1.407 m 0,0 -0.05,-0.032 -0.055,-0.037 m 0,0 -0.009,0.263 -0.026,0.282 M 6.478,3.054 6.481,3.05 6.485,3.044 6.491,3.038 6.496,3.029 6.504,3.018 6.512,3.007 m 0,0 L 6.514,3.002 6.517,2.997 6.521,2.99 6.526,2.981 6.533,2.97 6.539,2.958 m 0,10e-4 L 6.541,2.954 6.543,2.949 6.546,2.942 6.55,2.933 6.556,2.922 6.563,2.909 m 0,0 L 6.562,2.908 6.563,2.906 M -0.175,2.51 0.114,1.275 0.56,0.092 M -0.177,2.775 -0.175,2.51 M -0.254,3.816 -0.232,3.3 -0.177,2.775 M -0.295,3.833 -0.254,3.816 M 0.027,5.983 -0.221,4.977 -0.295,3.833 M 0.139,6.135 0.027,5.983 M 0.507,6.808 0.309,6.491 0.139,6.135 M 0.476,6.859 0.507,6.808 M 1.702,7.735 1.034,7.428 0.476,6.859 M 1.875,7.703 1.702,7.735 M 2.509,7.755 2.517,7.692 M 4.067,6.947 3.291,7.483 2.509,7.755 M 4.22,6.745 4.067,6.947 M 4.854,6.101 4.836,6.055 M 5.772,4.565 5.344,5.376 4.854,6.101 M 6.634,0.239 6.612,1.433 6.415,2.67 m -0.78,-5.211 0.488,0.7 0.336,0.91 m -0.974,-1.673 0.15,0.063 M 4.968,-3.017 4.947,-2.956 m -1.461,-0.098 0.768,-0.122 0.714,0.159 m -1.655,0.088 0.173,-0.125 m -0.843,0.498 0.334,-0.211 0.336,-0.162 m -0.676,0.315 0.006,0.058 m -1.452,1.497 0.69,-0.885 0.756,-0.67 m -1.56,1.81 0.114,-0.255 M 0.589,0.118 0.822,-0.355 1.077,-0.804 M 0.56,0.092 0.589,0.118 M 5.452,1.273 5.306,0.099 4.874,-0.776 4.211,-1.237 3.409,-1.218 2.575,-0.723 1.822,0.18 1.253,1.37 0.943,2.688 0.934,3.953 1.229,4.995 1.786,5.675 2.531,5.9 3.363,5.639 4.17,4.927 4.842,3.862 5.289,2.587 5.452,1.273 M 6.459,4.027 6.375,4.114 6.293,4.202 6.215,4.287 6.14,4.374 6.067,4.457 5.996,4.54 5.929,4.62 5.863,4.701 M 7.881,-2.587 7.907,-2.625 7.931,-2.662 7.947,-2.695 7.96,-2.728 m -0.176,0.254 0.031,-0.028 0.028,-0.03 0.02,-0.028 0.018,-0.027 m -0.671,0.67 0.015,-0.014 0.015,-0.013 0.107,-0.102 0.1,-0.095 0.049,-0.047 0.048,-0.045 0.074,-0.072 0.069,-0.069 0.05,-0.05 0.047,-0.049 M 7.154,-1.859 7.182,-1.888 7.21,-1.917 M 6.73,-1.386 6.951,-1.632 7.154,-1.859 M 6.711,-1.354 6.72,-1.371 6.73,-1.386 M 6.676,-1.173 6.69,-1.248 6.704,-1.323 6.708,-1.339 6.711,-1.354 M 6.855,-0.25 6.783,-0.168 6.712,-0.084 6.646,-0.003 6.581,0.079 m 0.532,-0.608 -0.072,0.07 -0.07,0.073 -0.059,0.066 -0.057,0.069 M 7.916,-1.315 7.902,-1.301 7.887,-1.287 7.774,-1.179 7.655,-1.065 7.591,-1.003 7.525,-0.94 7.414,-0.832 7.299,-0.719 7.207,-0.625 7.113,-0.529 M 7.969,-1.37 7.943,-1.343 7.916,-1.315 M 8.279,-1.727 8.135,-1.56 7.969,-1.37 m 0.319,-0.378 -0.005,0.01 -0.004,0.011 m -0.035,-0.36 0.027,0.166 0.017,0.173 m -0.228,-0.814 0.04,0.09 0.039,0.092 0.054,0.145 0.051,0.148 m -0.282,-0.639 0.05,0.081 0.048,0.083 m -0.1,-0.166 0.001,0.001 10e-4,10e-4 M 7.242,2.308 7.251,2.295 7.26,2.28 7.265,2.271 7.267,2.261 V 2.254 L 7.265,2.249 7.259,2.247 7.251,2.246 M 6.512,3.007 6.656,2.862 6.8,2.716 7.027,2.482 7.251,2.246 M 4.788,6.092 4.811,6.074 4.836,6.055 M 3.151,7.931 3.263,7.843 3.373,7.755 3.477,7.669 3.581,7.583 3.678,7.5 3.775,7.416 3.866,7.336 3.956,7.254 4.039,7.175 4.121,7.096 4.219,6.997 4.313,6.895 4.398,6.797 4.478,6.697 4.549,6.598 4.613,6.498 4.67,6.399 4.718,6.297 4.755,6.195 4.788,6.092 M 3.149,7.937 3.151,7.934 V 7.932 M 4.188,7.228 4.273,7.158 4.357,7.086 4.442,7.012 4.523,6.935 4.605,6.855 4.686,6.773 m 0,0 L 4.7,6.756 4.716,6.737 4.735,6.715 4.753,6.694 m 0,0 L 4.761,6.684 4.769,6.673 4.798,6.637 4.829,6.599 m 0,0 L 4.837,6.586 4.847,6.572 4.858,6.556 4.871,6.54 4.886,6.52 4.902,6.501 m 0,0 L 4.911,6.488 4.92,6.473 4.932,6.456 4.944,6.439 4.959,6.419 4.975,6.399 m 0,0 L 4.984,6.384 4.992,6.37 5.005,6.352 5.018,6.333 5.034,6.313 5.05,6.292 m 0,0 L 5.059,6.275 5.068,6.259 5.081,6.24 5.094,6.22 5.111,6.198 5.129,6.175 m 0,0 L 5.135,6.163 5.142,6.15 5.151,6.135 5.161,6.121 5.174,6.103 5.187,6.087 5.203,6.067 5.218,6.048 m 0,0 L 5.224,6.035 5.23,6.024 5.241,6.007 5.252,5.992 5.274,5.961 5.298,5.932 5.312,5.915 5.326,5.899 m 0,0 0.098,-0.174 0.094,-0.178 m 0,0 L 5.191,5.833 4.854,6.101 M 7.251,2.246 7.254,2.242 7.257,2.236 7.264,2.221 7.269,2.206 7.27,2.199 7.269,2.194 7.267,2.19 7.266,2.188 7.263,2.185 7.261,2.183 H 7.259 7.257 M 6.539,2.958 6.9,2.574 7.257,2.183 m 0,0 L 7.264,2.167 7.269,2.151 7.27,2.142 V 2.134 L 7.268,2.127 7.264,2.12 7.262,2.119 7.259,2.117 M 6.563,2.909 6.914,2.518 7.259,2.117 M 7.297,2.447 7.356,2.365 7.413,2.28 m 0,0 L 7.71,2.054 8.002,1.829 8.191,1.684 8.377,1.54 M 7.319,2.349 7.366,2.315 7.413,2.28 M 8.608,1.29 8.472,1.385 8.336,1.481 8.163,1.603 7.991,1.726 7.782,1.876 7.572,2.026 m 0,0 L 7.517,2.072 7.46,2.119 m 0,0 L 7.404,2.172 7.348,2.226 7.306,2.268 7.264,2.309 M 7.259,2.117 7.264,2.105 7.267,2.093 7.271,2.073 7.267,2.056 7.264,2.052 7.261,2.048 M 6.59,2.849 6.927,2.452 7.261,2.048 M 7.424,-0.776 7.352,-0.687 7.283,-0.598 7.217,-0.51 7.154,-0.423 7.094,-0.339 7.035,-0.255 6.98,-0.174 6.927,-0.093 6.877,-0.017 6.828,0.061 M 6.855,-0.25 6.863,-0.258 6.872,-0.265 6.927,-0.316 6.984,-0.369 7.099,-0.476 7.217,-0.583 7.32,-0.679 7.424,-0.776 M 6.828,0.061 6.823,0.042 6.818,0.026 6.811,0.013 6.804,0.003 6.795,-0.007 6.786,-0.013 6.776,-0.017 6.764,-0.019 H 6.751 L 6.738,-0.016 6.705,-0.004 6.669,0.016 6.626,0.048 6.581,0.085 m 0.053,0.154 0.01,0.136 0.006,0.136 0.003,0.114 0.001,0.117 m 0,0 0.062,0.239 m 0,0 0.019,-0.05 0.019,-0.048 0.019,-0.041 0.02,-0.038 m 0,0 L 6.796,0.741 6.8,0.677 6.804,0.619 6.809,0.561 6.812,0.508 6.816,0.455 6.821,0.408 6.824,0.362 6.827,0.32 6.83,0.279 6.832,0.242 6.834,0.207 6.836,0.176 V 0.147 L 6.835,0.122 6.834,0.099 m 0,0 L 6.832,0.088 6.831,0.078 6.83,0.069 6.828,0.061 M 6.576,0.018 6.561,-0.097 6.545,-0.21 6.528,-0.322 6.507,-0.431 6.486,-0.54 6.464,-0.646 6.441,-0.75 6.416,-0.853 M 7.261,2.048 7.267,2.026 7.27,2.004 7.267,1.989 7.26,1.975 M 6.617,2.783 6.941,2.382 7.26,1.975 M 6.4,4.668 6.334,4.748 6.267,4.827 6.191,4.911 6.113,4.996 6.026,5.085 5.937,5.172 5.839,5.266 5.739,5.357 5.629,5.453 5.518,5.547 M 6.572,4.607 6.698,4.305 6.814,3.999 M 5.428,6.597 5.43,6.6 5.432,6.603 5.438,6.606 5.443,6.607 5.453,6.608 H 5.461 5.473 5.485 L 5.499,6.606 5.514,6.604 5.532,6.602 5.549,6.598 5.569,6.594 5.589,6.59 m 0,-10e-4 L 5.65,6.57 5.71,6.55 m 0,0 0.397,-0.153 0.392,-0.152 0.252,-0.1 0.25,-0.099 M 7.368,5.806 7.193,5.863 7.017,5.92 6.794,5.994 6.57,6.069 6.298,6.161 6.026,6.252 m 0,0 -0.077,0.033 -0.076,0.034 m 0,0 L 5.791,6.36 5.71,6.402 5.648,6.437 5.586,6.472 M 5.428,6.597 5.507,6.536 5.586,6.472 M 5.487,6.752 5.599,6.652 5.71,6.55 M 7.26,1.975 7.264,1.96 7.267,1.944 V 1.928 L 7.265,1.912 7.262,1.904 7.259,1.896 M 6.641,2.712 6.953,2.307 7.259,1.896 M 7.255,1.44 7.288,1.348 7.322,1.256 7.356,1.166 7.39,1.076 7.423,0.989 7.457,0.901 7.491,0.817 7.524,0.734 M 7.251,1.524 7.254,1.502 7.256,1.48 V 1.46 L 7.255,1.44 M 7.252,1.628 7.257,1.599 V 1.571 L 7.255,1.547 7.251,1.524 M 7.255,1.724 7.259,1.697 7.26,1.67 7.257,1.649 7.253,1.628 M 7.257,1.814 7.262,1.789 7.263,1.763 7.26,1.743 7.255,1.724 M 7.259,1.896 7.264,1.873 7.266,1.849 7.262,1.832 7.257,1.814 M 7.46,2.119 7.513,2.028 7.566,1.934 7.617,1.843 7.667,1.75 7.716,1.66 7.765,1.569 7.812,1.481 7.86,1.394 7.907,1.31 7.953,1.226 m -0.429,-0.492 0.012,0.057 0.013,0.055 0.016,0.05 0.018,0.047 0.019,0.043 0.023,0.04 0.024,0.035 0.026,0.032 0.028,0.029 0.031,0.025 0.031,0.021 0.034,0.019 0.036,0.015 0.038,0.011 0.04,0.007 0.04,0.006 M 6.026,6.252 6.121,6.161 6.216,6.07 6.308,5.981 6.4,5.894 6.49,5.81 6.58,5.725 6.666,5.643 6.753,5.564 6.837,5.487 6.922,5.411 m 0,0 L 6.951,5.428 6.98,5.444 7.012,5.46 7.044,5.472 7.078,5.484 7.113,5.493 7.15,5.502 7.187,5.508 7.228,5.514 7.269,5.518 7.312,5.519 H 7.356 L 7.47,5.514 7.585,5.499 7.708,5.474 7.83,5.443 M 6.113,5.315 6.192,5.224 6.271,5.132 6.347,5.046 6.423,4.959 6.496,4.878 6.571,4.796 6.641,4.72 6.713,4.643 M 6.067,5.41 6.081,5.385 6.094,5.361 6.104,5.338 6.113,5.315 M 6.012,5.533 6.031,5.501 6.048,5.468 6.058,5.439 6.066,5.409 M 5.96,5.651 5.979,5.62 5.995,5.588 6.004,5.561 6.012,5.533 M 5.911,5.764 5.929,5.735 5.944,5.704 5.954,5.678 5.96,5.651 M 5.863,5.873 5.881,5.844 5.896,5.814 5.905,5.789 5.911,5.764 M 5.815,5.977 5.828,5.958 5.839,5.939 5.851,5.917 5.858,5.895 5.861,5.883 5.863,5.873 M 5.768,6.077 5.789,6.05 5.805,6.023 5.811,6 5.815,5.977 M 5.722,6.174 5.734,6.16 5.745,6.145 5.76,6.119 5.768,6.092 5.769,6.084 5.768,6.077 M 5.674,6.269 5.691,6.25 5.706,6.23 5.713,6.219 5.719,6.206 5.722,6.195 5.723,6.182 V 6.178 L 5.722,6.174 M 5.625,6.362 5.63,6.356 5.636,6.351 5.652,6.332 5.667,6.313 5.672,6.303 5.676,6.294 5.677,6.289 V 6.283 6.278 6.273 L 5.676,6.271 5.674,6.269 m 28.891,13.506 -0.148,-0.266 -0.304,-0.182 m -5.844,-8.149 -0.908,1.958 -1.104,1.72 -1.251,1.402 -1.338,1.018 -1.361,0.586 -1.324,0.128 -1.222,-0.337 -1.063,-0.786 -0.856,-1.197 -0.608,-1.554 -0.33,-1.839 -0.04,-2.035 0.254,-2.138 0.536,-2.14 0.792,-2.042 1.013,-1.85 1.185,-1.57 1.301,-1.217 1.358,-0.808 1.35,-0.358 1.281,0.105 1.149,0.565 0.965,0.997 0.737,1.384 0.472,1.706 0.186,1.948 -0.108,2.099 -0.397,2.151 -0.669,2.104 m 7.847,-15.796 -0.01,0.039 -0.01,0.039 -0.135,0.741 -0.071,0.77 -0.038,0.767 v 0.756 l 0.04,0.735 0.08,0.707 0.114,0.662 0.143,0.613 0.165,0.541 0.186,0.477 0.194,0.393 0.199,0.315 0.13,0.161 M 36.112,-4.62 35.968,-4.563 35.616,-4.571 M 26.905,10.346 27.455,8.55 27.736,6.723 27.727,4.98 27.431,3.428 26.865,2.169 26.066,1.279 25.083,0.814 23.977,0.803 l -1.156,0.446 -1.137,0.872 -1.045,1.246 -0.887,1.539 -0.675,1.738 -0.418,1.825 -0.137,1.8 0.153,1.66 0.435,1.417 0.688,1.084 0.898,0.683 1.053,0.239 1.139,-0.219 1.157,-0.665 1.099,-1.067 0.974,-1.403 0.787,-1.652 m -2.959,15.152 -1.405,-0.412 -1.404,-0.412 m 6.572,-2.726 -0.123,0.056 -0.132,0.064 -0.135,0.071 -0.067,0.037 -0.068,0.039 -0.069,0.039 -0.068,0.042 -0.273,0.175 -0.274,0.194 -0.274,0.213 -0.275,0.232 -0.068,0.06 -0.068,0.062 -0.068,0.064 -0.068,0.064 -0.136,0.131 -0.133,0.135 -0.263,0.278 -0.255,0.293 -0.248,0.306 -0.242,0.319 -0.058,0.083 -0.059,0.083 -0.058,0.084 -0.058,0.084 -0.112,0.17 -0.111,0.172 m 4.45,-2.808 0.242,0.008 0.256,-0.136 m 5.512,-2.112 -0.169,0.086 -0.282,-0.034 m 0.451,-0.052 -0.346,0.476 -0.354,0.46 -0.695,0.828 -0.72,0.764 -0.235,0.23 -0.236,0.223 m 0,0 -0.2,0.091 -0.261,-0.024 m -0.488,0.119 -1.237,-0.462 -1.238,-0.465 m 2.475,0.927 0.237,0.01 0.251,-0.129 m -6.624,-9.646 -1.144,0.769 -1.143,0.298 -1.058,-0.196 -0.897,-0.673 -0.671,-1.103 -0.394,-1.449 -0.089,-1.694 0.221,-1.811 0.518,-1.797 0.774,-1.653 0.976,-1.387 1.105,-1.019 1.153,-0.576 1.118,-0.094 1.001,0.397 0.809,0.86 0.561,1.258 m 0.247,18.131 -0.445,0.266 -0.464,0.331 -0.469,0.392 -0.475,0.459 -0.465,0.508 -0.455,0.56 -0.418,0.607 -0.134,0.225 -0.127,0.23 m -0.018,-0.012 -0.001,0.001 -10e-4,0.001 m 0,0 -0.122,-0.04 -0.282,-0.143 m 8.883,-30.951 0.115,-0.62 -0.139,-0.434 m -0.935,0.34 0.449,-0.313 0.486,-0.027 m 2.811,1.936 0.114,-0.609 -0.133,-0.433 m 0,0 -1.396,-0.447 -1.396,-0.447 m 0,0 -0.962,-0.719 -1.045,-0.505 m 0,0 -0.466,0.039 -0.398,0.344 m 3.344,0.32 1.215,0.564 1.104,0.851 m -4.799,-2.118 1.24,0.351 1.24,0.352 M 39.27,21.69 34.486,20.314 M 37.097,3.066 37.15,3.082 m 1.924,0.553 4.979,1.433 M 45.57,6.074 44.299,5.708 m -0.246,-0.64 0.809,0.375 0.708,0.631 m -6.082,15.67 -0.11,-0.024 -0.108,-0.03 m -1.052,-0.311 1.27,0.365 m 4.811,-16.036 0.775,1.258 0.484,1.632 0.167,1.904 -0.162,2.058 -0.482,2.088 -0.771,1.985 -1.012,1.764 -1.192,1.43 -1.297,1.011 -1.324,0.528 -1.267,0.013 m -14.437,-24.518 0.019,0.007 0.03,0.003 0.161,-0.003 0.242,-0.036 0.313,-0.084 0.359,-0.131 0.42,-0.189 0.453,-0.24 0.483,-0.293 0.495,-0.337 0.538,-0.407 0.534,-0.449 0.558,-0.519 0.537,-0.557 0.439,-0.509 0.417,-0.533 m 0.155,0.068 -0.104,-0.055 -0.042,-0.005 m -6.041,4.27 -0.201,-0.06 -0.071,-0.034 -0.067,-0.041 -0.032,-0.023 -0.031,-0.025 -0.029,-0.025 -0.028,-0.027 -0.098,-0.122 -0.08,-0.143 -0.033,-0.079 -0.029,-0.086 -0.012,-0.045 -0.011,-0.045 -0.011,-0.047 -0.01,-0.049 -0.027,-0.206 -0.009,-0.225 0.006,-0.242 0.024,-0.26 m -1.189,0.184 0.546,-0.269 0.643,0.085 M 35.843,-5.473 35.73,-5.557 35.597,-5.613 m -9.775,1.286 0.231,0.357 m -3.055,-0.952 1.411,0.297 1.413,0.298 m 4.976,-3.404 -0.012,-0.004 -0.012,-0.004 m -10.301,33.006 -0.021,-0.006 -0.02,-0.008 m 0,0 -0.338,-0.284 -0.122,-0.477 m 0.501,0.775 0.35,-0.108 0.314,-0.485 m -0.664,0.593 1.41,0.412 1.411,0.41 m 0,0 0.345,-0.114 0.307,-0.477 m -5.91,-2.187 0.027,0.339 0.169,0.264 m 0,0 0.108,0.077 0.127,0.052 m 0,0 0.961,0.719 1.045,0.505 m -2.796,-6.518 -0.039,-0.267 -0.044,-0.261 -0.152,-0.711 -0.176,-0.665 -0.157,-0.529 -0.162,-0.481 -0.172,-0.446 -0.17,-0.372 -0.153,-0.281 -0.136,-0.199 -0.103,-0.108 -0.045,-0.044 0.005,-0.002 m 1.75,8.77 0.007,-0.064 0.008,-0.066 0.042,-0.781 -0.015,-0.818 -0.045,-0.823 -0.078,-0.814 -0.074,-0.522 -0.091,-0.516 m -3.017,-5.067 0.205,0.607 0.539,0.356 m 0,0 0.06,-0.06 0.062,-0.053 0.06,-0.047 0.061,-0.038 0.119,-0.061 0.119,-0.033 0.059,-0.007 h 0.059 l 0.029,0.003 0.03,0.005 0.029,0.007 0.03,0.007 0.044,0.016 m 1.871,8.927 -0.084,-0.078 -0.022,-0.078 m 7.892,-27.482 0.217,0.052 0.137,0.122 m -9.522,19.289 -1.25,-0.491 m 2.581,-10.915 0.238,-0.636 0.223,-0.625 0.226,-0.667 0.207,-0.646 0.186,-0.641 0.158,-0.608 0.128,-0.589 0.089,-0.533 0.034,-0.334 0.013,-0.3 M 15.181,9.446 15.3,9.341 l 0.138,-0.155 0.195,-0.26 0.213,-0.328 0.243,-0.422 0.251,-0.487 0.263,-0.555 0.269,-0.609 0.269,-0.641 0.274,-0.676 0.27,-0.68 0.261,-0.691 0.02,-0.053 0.019,-0.054 m 1.657,-5.967 -0.1,0.172 -0.039,0.188 m 0,0 v 0.013 0.015 m -4.611,11.85 0.089,-0.299 0.191,-0.238 m 0,0 0.008,-0.007 0.007,-0.006 m 30.24,-1.449 0.434,-1.118 m -0.291,-0.81 0.146,0.405 0.145,0.405 M 22.998,-4.922 22.89,-5.105 22.742,-5.193 m -0.933,0.455 0.036,-0.123 0.07,-0.098 m 0.828,-0.228 1.414,0.297 1.412,0.298 m 0.253,0.265 -0.107,-0.181 -0.146,-0.086 m -5.891,2.215 0.351,-0.469 0.358,-0.452 0.664,-0.772 0.686,-0.714 0.089,-0.086 0.089,-0.087 m -2.273,2.722 0.006,-0.079 0.03,-0.063 m 20.609,23.626 -0.399,0.249 -0.4,0.248 m 0.799,-0.497 0.066,-0.171 m -25.151,-6.435 0.005,0.002 0.006,0.003 m 0,0 0.091,0.013 0.1,-0.014 m -0.744,-0.963 -0.034,0.055 -0.011,0.056 m 0.277,-3.792 -0.03,0.022 -0.011,0.025 m 1.836,5.165 -1.471,-0.575 m 133.036,53.315 -3.197,-1.703 -3.573,-1.605 -3.93,-1.494 -4.255,-1.373 -4.552,-1.242 -4.818,-1.103 -5.05,-0.957 -5.248,-0.803 -5.408,-0.644 -5.531,-0.482 -5.615,-0.314 -5.662,-0.145 -5.667,0.025 -5.635,0.194 -5.563,0.363 -5.451,0.529 -5.303,0.692 m 71.717,12.988 -3.042,-1.613 -3.477,-1.494 -3.877,-1.364 -4.235,-1.216 -4.551,-1.058 -4.817,-0.887 -5.035,-0.707 m -61.391,-5.839 -4.471,1.558 -4.046,1.703 -3.588,1.832 -3.097,1.946 -2.581,2.043 -2.044,2.122 -1.488,2.186 -0.92,2.228 m 133.08,-3.515 -1.813,-1.967 -2.264,-1.908 -2.699,-1.835 -3.116,-1.75 -3.51,-1.65 -3.879,-1.543 -4.22,-1.42 -4.532,-1.289 -4.812,-1.149 -5.057,-1.001 -5.265,-0.846 -5.438,-0.684 -5.571,-0.518 -5.666,-0.348 -5.719,-0.175 -5.732,-0.003 -5.704,0.173 -5.636,0.343 -5.527,0.514 -5.381,0.681 -5.194,0.842 -4.972,0.998 -4.715,1.146 -4.423,1.286 m 1.493,-3.07 -5.724,2.061 -4.96,2.303 m 109.855,0.922 -4.177,-2.083 -4.766,-1.913 -5.302,-1.721 m 0,0 -4.672,-1.245 -4.951,-1.095 -5.19,-0.937 -5.392,-0.771 -5.551,-0.6 -5.668,-0.422 -5.74,-0.243 -5.77,-0.063 -5.754,0.121 -5.695,0.301 -5.592,0.48 -5.445,0.655 -5.258,0.825 -5.029,0.989 -4.762,1.144 -4.457,1.292 m -7.199,2.685 8.194,-3.595 m 86.227,0.575 8.145,3.706 m -88.32,-6.539 -3.154,1.085 -2.899,1.173 m 86.23,0.576 -3.504,-1.448 -3.868,-1.324 -4.196,-1.187 -4.486,-1.039 -4.734,-0.881 -4.938,-0.717 -5.099,-0.543 -5.213,-0.367 -5.277,-0.186 -5.295,-0.005 -5.264,0.177 -5.185,0.359 -5.057,0.535 -4.884,0.707 -4.667,0.874 -4.405,1.031 -4.105,1.18 m -16.022,42.655 0.043,-6.48 m 17.486,-7.512 -3.58,1.251 -3.227,1.371 -2.844,1.477 -2.438,1.57 -2.006,1.648 -1.559,1.713 -1.096,1.761 -0.624,1.792 -0.146,1.809 0.334,1.808 0.809,1.792 1.279,1.759 0.263,0.258 m 17.917,-18.756 -3.526,1.242 -3.147,1.37 -2.731,1.481 -2.288,1.578 -1.82,1.655 -1.332,1.718 -0.831,1.761 -0.32,1.785 0.194,1.791 0.705,1.777 1.211,1.744 0.858,0.854 m 91.013,0 1.196,-1.512 m -72.021,-19.117 -3.704,0.876 -3.457,0.997 m -15.411,10.117 1.056,1.83 1.595,1.783 2.114,1.715 2.61,1.625 3.075,1.519 0.423,0.167 m 74.496,0 1.457,-0.649 2.647,-1.467 2.215,-1.559 m -89.485,-8.069 1.054,1.693 1.535,1.646 2,1.583 2.444,1.502 2.859,1.404 3.247,1.293 3.595,1.167 3.909,1.027 2.044,0.429 m 46.825,0 1.628,-0.334 4.316,-1.153 3.902,-1.329 3.435,-1.488 2.92,-1.625 M 22.71,72.504 l 0.045,-0.222 0.253,-1.029 0.323,-1.009 0.41,-1.004 0.487,-0.976 0.577,-0.98 0.646,-0.949 0.749,-0.96 0.818,-0.927 0.926,-0.937 0.996,-0.904 1.105,-0.903 1.173,-0.874 1.267,-0.861 1.345,-0.829 0.943,-0.532 0.982,-0.517 m 110.167,0.939 0.479,0.256 0.469,0.259 1.382,0.84 1.289,0.877 1.228,0.907 1.158,0.937 1.075,0.968 0.994,1.004 0.899,1.024 0.815,1.062 0.634,0.951 0.565,0.981 0.401,0.814 m -180.68,-76.989 0.547,-0.437 0.581,-0.418 m 0,0 0.127,0.427 0.139,0.443 m 0,0 -0.581,0.419 -0.547,0.436 m 0,0 -0.075,0.069 -0.072,0.078 -0.034,0.041 -0.032,0.044 -0.031,0.045 -0.029,0.047 -0.054,0.098 -0.047,0.102 -0.01,0.026 -0.01,0.027 -0.011,0.027 -0.009,0.027 -0.017,0.055 -0.014,0.054 -0.024,0.111 -0.015,0.11 -0.004,0.056 -0.002,0.056 v 0.054 l 0.003,0.053 0.004,0.054 0.006,0.053 0.009,0.052 0.011,0.051 0.027,0.098 0.036,0.092 m 0,0 0.287,0.607 0.325,0.61 m 0,0 -0.338,0.357 -0.322,0.353 m 0,0 -0.325,-0.61 -0.287,-0.607 m 0,0 -0.042,-0.085 -0.046,-0.078 -0.024,-0.034 -0.026,-0.034 -0.027,-0.03 -0.028,-0.029 -0.057,-0.049 -0.061,-0.04 -0.015,-0.007 -0.016,-0.008 -0.015,-0.007 -0.016,-0.006 -0.032,-0.01 -0.032,-0.007 -0.065,-0.005 -0.065,0.006 -0.033,0.007 -0.032,0.01 -0.032,0.013 -0.031,0.015 -0.031,0.018 -0.03,0.022 -0.031,0.023 -0.029,0.026 -0.056,0.06 -0.053,0.068 m 0,0 -0.324,0.502 -0.277,0.505 m 0,0 -0.148,-0.434 -0.118,-0.437 m 0,0 0.277,-0.505 0.324,-0.5 m 0,0 0.05,-0.078 0.049,-0.083 0.023,-0.045 0.023,-0.047 0.023,-0.048 0.022,-0.049 0.04,-0.101 0.038,-0.104 0.009,-0.027 0.009,-0.027 0.008,-0.028 0.008,-0.027 0.016,-0.054 0.014,-0.055 0.024,-0.11 0.022,-0.11 0.008,-0.054 0.007,-0.054 0.006,-0.053 0.005,-0.052 0.003,-0.051 0.002,-0.051 v -0.048 -0.048 l -0.005,-0.092 -0.01,-0.085 m 0,0 -0.064,-0.543 -0.021,-0.522 m 0,0 0.319,-0.363 0.341,-0.347 m 0,0 0.021,0.522 0.064,0.543 m 0,0 0.016,0.078 0.024,0.07 0.014,0.033 0.017,0.031 0.018,0.028 0.02,0.026 0.044,0.046 0.052,0.036 0.013,0.008 0.015,0.006 0.014,0.007 0.015,0.006 0.03,0.009 0.031,0.007 0.067,0.007 0.071,-0.005 0.037,-0.006 0.037,-0.009 0.038,-0.011 0.038,-0.013 0.038,-0.016 0.04,-0.019 0.039,-0.021 0.04,-0.022 0.079,-0.054 0.078,-0.061 m 1.896,6.573 -0.737,0.668 -0.765,0.453 m 0,0 -1.057,0.243 -0.97,-0.231 -0.807,-0.685 -0.58,-1.085 -0.309,-1.402 -0.013,-1.609 0.283,-1.689 0.558,-1.641 0.789,-1.462 0.958,-1.17 1.053,-0.786 1.066,-0.343 0.996,0.129 0.847,0.59 0.634,1.006 0.369,1.342 0.079,1.574 -0.221,1.684 -0.501,1.662 -0.745,1.511 -0.927,1.241 m 0.29,0.11 1.004,-1.368 0.781,-1.674 0.485,-1.829 0.146,-1.814 -0.207,-1.635 m 0,0 -0.609,-1.411 -0.944,-0.861 -1.175,-0.215 m 0.257,11.072 0.133,-0.129 0.129,-0.136 m 2.209,-8.319 0.57,2.241 m -1.365,4.746 -1.675,1.596 m 1.818,-1.743 0.677,-0.974 0.467,-1.208 0.191,-1.268 -0.113,-1.149 m -1.365,4.746 0.072,-0.071 0.071,-0.076 m -3.351,-1.705 -1.18,-0.339 m 1.795,-2.87 -1.007,-0.29 m 13.245,9.157 -10.476,-3.015 m 1.914,-6.649 10.475,3.015 m 0,0 0.657,0.463 0.411,0.899 0.104,1.197 -0.222,1.314 -0.511,1.231 -0.723,0.959 -0.826,0.542 -0.803,0.044 m -14.428,-6.411 1.387,0.399 m 0.415,-2.561 -1.258,-0.363 m 0.688,2.611 -0.666,0.077 m -1.123,0.13 -0.84,0.096 m 2.563,-0.441 -1.962,-0.564 m 2.095,-1.091 -1.701,-0.49 m 1.847,0.326 -1.932,-1.391 m 17.89,4.36 0.235,0.924 m -0.911,3.164 -0.69,0.658 m 0.69,-0.658 0.625,-0.905 0.334,-1.16 -0.048,-1.099 m 88.403,-33.002 0.166,3.513 0.544,3.565 0.912,3.554 1.265,3.484 1.596,3.354 1.9,3.17 2.173,2.93 2.408,2.642 2.603,2.309 2.754,1.935 2.858,1.532 2.915,1.101 2.922,0.652 2.879,0.192 2.788,-0.273 2.651,-0.731 2.467,-1.177 2.245,-1.605 1.98,-2.004 1.685,-2.369 1.361,-2.696 m -19.498,-43.008 -3.018,-0.77 -2.983,-0.279 -2.894,0.213 -2.752,0.703 -2.563,1.18 -2.327,1.636 -2.048,2.062 -1.734,2.451 -1.387,2.797 -1.016,3.093 -0.627,3.332 -0.225,3.512 M 8.608,1.29 8.683,1.199 8.755,1.107 8.815,1.021 8.873,0.935 M 8.377,1.54 8.443,1.476 8.506,1.411 8.558,1.351 8.609,1.29 M 7.297,2.447 7.323,2.428 7.348,2.409 7.534,2.268 7.714,2.127 7.804,2.055 7.892,1.982 8.034,1.86 8.171,1.737 8.275,1.639 8.377,1.54 M 7.198,2.522 7.248,2.484 7.297,2.447 M 6.471,3.068 6.843,2.797 7.198,2.522 M 6.434,3.103 6.453,3.086 6.471,3.068 M 6.305,3.301 6.358,3.22 6.411,3.138 6.422,3.12 6.434,3.103 M 5.619,4.597 5.673,4.504 5.726,4.411 5.786,4.305 5.845,4.199 5.909,4.08 5.973,3.958 6.058,3.795 6.141,3.631 6.224,3.467 6.305,3.301 M 6.053,4.308 5.94,4.382 5.827,4.456 5.724,4.526 5.619,4.596 M 6.459,4.047 6.348,4.114 6.239,4.182 6.145,4.244 6.053,4.308 M 7.771,3.154 7.746,3.172 7.72,3.191 7.527,3.332 7.327,3.472 7.222,3.544 7.116,3.617 6.936,3.737 6.753,3.858 6.606,3.952 6.459,4.047 M 7.866,3.077 7.819,3.115 7.771,3.154 M 8.48,2.519 8.184,2.799 7.866,3.077 M 8.506,2.484 8.493,2.502 8.48,2.519 M 8.706,1.96 8.611,2.223 8.506,2.484 M 8.862,1.197 8.834,1.348 8.805,1.499 8.757,1.729 8.706,1.96 M 8.874,0.937 8.868,1.066 8.862,1.197 M 8.873,0.935 8.874,0.936 V 0.937 M 7.368,5.806 7.493,5.715 7.615,5.622 7.723,5.533 7.83,5.443 M 7.001,6.046 7.102,5.986 7.201,5.923 7.285,5.865 7.368,5.806 M 5.487,6.752 5.52,6.74 5.554,6.728 5.801,6.634 6.046,6.533 6.17,6.479 6.293,6.422 6.495,6.324 6.694,6.221 6.848,6.134 7.001,6.046 m 51.493,72.57 -0.856,0.04 -0.878,-0.212 -0.869,-0.46 -0.829,-0.683 -0.76,-0.87 -0.675,-1.01 -0.577,-1.101 -0.526,-1.285 -0.451,-1.456 -0.346,-1.593 -0.215,-1.679 -0.068,-1.702 0.084,-1.654 0.231,-1.542 0.358,-1.376 0.463,-1.175 0.538,-0.957 0.433,-0.575 0.491,-0.494 m 13.4,-1.02 -0.177,-10e-4 h -0.147 -0.145 l -0.293,10e-4 -0.291,0.003 -0.581,0.008 -0.578,0.015 -0.576,0.017 -0.575,0.023 -0.572,0.026 -0.57,0.03 -1.136,0.071 -1.129,0.083 -1.124,0.097 -1.117,0.108 -0.278,0.029 -0.278,0.029 -0.278,0.03 -0.277,0.031 -0.553,0.064 -0.55,0.066 -1.092,0.14 -1.083,0.15 m 109.765,21.304 0.007,0.041 0.006,0.041 0.095,1.435 -0.072,1.451 -0.228,1.888 -0.379,1.851 -0.551,1.787 -0.708,1.726 -1.284,2.402 M 22.552,99.135 21.664,98.13 20.608,96.743 19.626,95.213 18.778,93.594 18.22,92.267 17.763,90.895 17.402,89.42 l -0.235,-1.51 -0.104,-1.564 0.032,-1.567 0.146,-1.38 0.253,-1.36 0.195,-0.785 0.226,-0.766 0.306,-0.879 0.34,-0.845 0.529,-1.132 0.597,-1.086 0.616,-0.98 0.667,-0.954 0.832,-1.076 0.932,-1.035 0.374,-0.367 0.39,-0.36 m 34.985,6.843 -2.818,0.58 -2.666,0.633 -2.209,0.598 -2.088,0.634 -1.675,0.565 -1.575,0.585 -1.218,0.495 -1.144,0.504 -0.843,0.399 -0.785,0.399 -0.55,0.297 -0.511,0.292 -0.627,0.382 -0.55,0.362 -0.452,0.323 -0.381,0.293 -0.342,0.287 -0.266,0.247 -0.233,0.239 -0.15,0.173 -0.078,0.092 m 98.01,-16.223 0.104,1.679 m 9.967,5.539 1.765,-0.913 1.575,-1.209 1.319,-1.393 1.119,-1.601 0.911,-1.855 0.613,-2.023 0.243,-2.07 m -98.906,-8.095 -2.294,0.489 -2.229,0.519 -2.164,0.549 -2.1,0.577 -2.037,0.606 -1.973,0.635 -0.963,0.328 -0.948,0.335 -0.467,0.171 -0.464,0.172 -0.231,0.086 -0.229,0.088 -0.228,0.088 -0.227,0.087 -1.77,0.716 -1.687,0.737 -1.604,0.757 -1.522,0.778 -1.44,0.799 -1.356,0.82 -0.645,0.417 -0.625,0.424 -0.304,0.213 -0.299,0.214 -0.293,0.217 -0.288,0.218 -1.086,0.875 -0.986,0.887 -0.121,0.116 m 140.351,8.387 -0.043,-0.399 -0.074,-0.479 -0.098,-0.481 -0.058,-0.241 -0.064,-0.24 -0.035,-0.121 -0.036,-0.12 -0.038,-0.121 -0.038,-0.121 -0.363,-0.958 -0.454,-0.95 -0.545,-0.941 -0.635,-0.933 -0.723,-0.923 -0.815,-0.915 -0.905,-0.907 -0.999,-0.898 -0.534,-0.445 -0.56,-0.443 -0.144,-0.11 -0.145,-0.11 -0.147,-0.11 -0.148,-0.109 -0.3,-0.219 -0.306,-0.217 -1.282,-0.859 -1.376,-0.84 m 0,0 -17.616,3.846 m -28.711,13.898 -0.097,14.464 m -32.29,0 0.099,-14.68 m 22.071,-116.843 -0.066,-0.071 -0.066,-0.07 m 5.411,11.936 -0.563,-3.196 -1.108,-3.13 -1.597,-2.913 -2.011,-2.556 m 2.063,9.318 -0.966,-2.82 -1.484,-2.585 m -25.876,44.873 -0.244,0.408 -0.234,0.418 -0.425,0.838 -0.388,0.875 -0.348,0.906 -0.305,0.929 -0.258,0.945 -0.211,0.952 -0.16,0.952 -0.11,0.945 -0.058,0.926 -0.006,0.905 0.044,0.872 0.095,0.833 0.144,0.786 0.19,0.735 0.232,0.675 0.272,0.612 0.307,0.544 0.339,0.474 0.366,0.403 0.389,0.328 0.417,0.263 0.437,0.187 0.955,0.162 m 6.817,-20.149 -0.616,-0.555 -0.42,-0.256 -0.439,-0.183 -0.486,-0.115 -0.51,-0.034 -0.412,0.031 -0.428,0.08 m -0.011,0.002 -0.678,-0.272 -0.256,-0.835 m -5.13,4.407 0.615,0.3 0.456,0.43 0.031,0.308 -0.413,0.004 -0.614,-0.3 -0.457,-0.43 m 0.221,-0.346 0.077,0.013 0.084,0.021 M 19.642,-2.237 20.697,-3.57 21.809,-4.738 M 14.892,10.001 15.053,9.852 15.218,9.672 15.383,9.464 15.552,9.227 15.595,9.163 15.638,9.098 15.68,9.03 15.723,8.962 15.808,8.82 15.893,8.671 16.066,8.357 16.24,8.016 16.284,7.927 16.328,7.836 16.372,7.743 16.417,7.65 16.505,7.459 16.595,7.262 16.773,6.857 16.953,6.433 17.045,6.215 17.137,5.991 17.228,5.764 17.321,5.536 17.505,5.072 17.69,4.6 17.781,4.362 17.874,4.121 17.92,4.001 17.966,3.879 18.012,3.757 18.058,3.636 18.238,3.153 18.413,2.671 18.456,2.55 18.499,2.431 18.541,2.312 18.582,2.194 18.663,1.96 18.741,1.727 18.89,1.272 19.029,0.826 19.094,0.607 19.156,0.39 l 0.03,-0.108 0.029,-0.107 0.029,-0.107 0.027,-0.105 0.1,-0.412 0.086,-0.392 0.07,-0.375 0.054,-0.358 0.039,-0.34 0.022,-0.323 m -4.982,15.919 0.047,-1.818 0.185,-1.863 m 3.144,13.31 0.029,-0.494 0.014,-0.5 v -0.505 l -0.016,-0.51 -0.005,-0.129 -0.007,-0.129 -0.008,-0.13 -0.009,-0.128 -0.019,-0.257 -0.024,-0.256 -0.055,-0.508 -0.069,-0.503 -0.079,-0.497 -0.092,-0.494 -0.024,-0.123 -0.024,-0.122 -0.026,-0.12 -0.027,-0.119 -0.053,-0.235 -0.054,-0.231 -0.116,-0.449 -0.12,-0.43 -0.063,-0.208 -0.063,-0.203 -0.033,-0.1 L 17.06,15.832 17.027,15.735 16.994,15.64 16.928,15.455 16.861,15.276 16.827,15.188 16.793,15.104 16.76,15.021 16.725,14.941 16.59,14.637 16.452,14.367 16.383,14.243 16.314,14.128 16.279,14.073 16.244,14.02 16.208,13.97 16.173,13.921 16.03,13.747 15.886,13.608 15.74,13.504 l -0.149,-0.073 -0.038,-0.013 -0.037,-0.01 -0.038,-0.009 -0.038,-0.006 -0.076,-0.008 -0.077,0.002 -0.154,0.026 -0.155,0.059 -0.158,0.089 -0.16,0.121 m 5.312,10.81 -1.009,-0.488 -0.927,-0.693 M 28.097,21.881 27.827,21.498 27.541,21.137 27.242,20.8 26.927,20.487 26.846,20.413 26.764,20.34 26.683,20.27 26.6,20.201 26.434,20.068 26.264,19.943 25.921,19.716 25.57,19.518 25.481,19.473 25.392,19.43 l -0.091,-0.04 -0.09,-0.039 -0.18,-0.07 -0.179,-0.063 -0.359,-0.097 -0.356,-0.063 -0.177,-0.018 -0.177,-0.009 -0.174,0.001 -0.172,0.01 -0.333,0.047 -0.322,0.084 -0.156,0.055 -0.153,0.066 -0.075,0.035 -0.075,0.039 -0.073,0.041 -0.071,0.042 -0.277,0.192 -0.259,0.226 -0.062,0.061 -0.061,0.064 -0.059,0.066 -0.058,0.067 -0.112,0.139 -0.108,0.147 -0.2,0.311 -0.181,0.338 -0.085,0.178 -0.08,0.185 -0.038,0.095 -0.038,0.096 -0.036,0.098 -0.036,0.1 -0.13,0.408 -0.111,0.425 -0.095,0.439 -0.076,0.454 -0.061,0.469 -0.044,0.483 m 10.292,-5.11 -1.054,1.33 -1.113,1.169 m 6.917,-14.738 -0.437,0.071 -0.436,0.101 -0.432,0.13 -0.431,0.163 -0.106,0.044 -0.107,0.047 -0.106,0.049 -0.105,0.051 -0.208,0.106 -0.205,0.114 -0.403,0.25 -0.391,0.278 -0.096,0.074 -0.095,0.077 -0.094,0.078 -0.093,0.079 -0.182,0.165 -0.176,0.17 -0.338,0.359 -0.314,0.386 -0.148,0.202 -0.143,0.209 -0.135,0.214 -0.128,0.219 -0.23,0.45 -0.2,0.468 -0.088,0.24 -0.08,0.244 -0.036,0.123 -0.036,0.125 -0.032,0.125 -0.03,0.126 -0.1,0.506 -0.066,0.513 -0.011,0.129 -0.009,0.13 -0.008,0.129 -0.005,0.129 -0.003,0.257 0.004,0.256 0.031,0.507 0.061,0.503 0.041,0.25 0.048,0.248 0.026,0.124 0.029,0.123 0.03,0.124 0.032,0.123 0.142,0.481 0.167,0.465 0.189,0.45 0.209,0.434 0.232,0.418 0.252,0.403 M 35.246,3.461 35.198,5.279 35.014,7.143 m -3.144,-13.31 -0.304,0.415 -0.286,0.421 -0.265,0.428 -0.246,0.436 -0.059,0.11 -0.056,0.11 -0.056,0.112 -0.054,0.111 -0.103,0.221 -0.097,0.221 -0.173,0.442 -0.147,0.441 -0.12,0.441 -0.09,0.442 -0.018,0.109 -0.016,0.111 -0.014,0.109 -0.012,0.108 -0.017,0.216 -0.008,0.212 0.007,0.417 0.043,0.407 0.033,0.2 0.044,0.198 0.025,0.098 0.027,0.096 0.03,0.097 0.032,0.095 0.07,0.186 0.079,0.183 0.043,0.089 0.045,0.089 0.047,0.086 0.049,0.085 0.215,0.325 0.244,0.302 0.133,0.142 0.139,0.135 0.074,0.066 0.074,0.064 0.076,0.063 0.078,0.061 0.325,0.226 0.344,0.196 0.362,0.168 0.38,0.138 0.098,0.03 0.098,0.029 0.1,0.026 0.1,0.024 0.202,0.043 0.204,0.035 0.413,0.049 0.421,0.018 0.427,-0.013 0.436,-0.041 m -5.312,-10.809 1.009,0.487 0.927,0.694 m -10.061,1.429 -0.005,0.305 0.014,0.282 0.033,0.261 0.052,0.237 0.017,0.055 0.018,0.054 0.018,0.053 0.021,0.051 0.043,0.097 0.049,0.091 0.114,0.161 0.135,0.135 0.037,0.03 0.038,0.028 0.041,0.027 0.041,0.024 0.087,0.044 0.091,0.037 0.2,0.051 0.223,0.025 0.119,0.002 0.127,-0.006 0.131,-0.013 0.136,-0.02 0.287,-0.062 0.306,-0.087 0.161,-0.055 0.165,-0.061 0.085,-0.034 0.085,-0.035 0.086,-0.037 0.088,-0.037 0.356,-0.169 0.369,-0.194 0.093,-0.053 0.094,-0.054 0.095,-0.056 0.095,-0.056 0.189,-0.118 0.19,-0.122 0.38,-0.26 0.381,-0.28 0.191,-0.148 0.19,-0.153 0.095,-0.079 0.095,-0.08 0.095,-0.081 0.095,-0.082 0.374,-0.339 0.363,-0.351 0.352,-0.366 0.341,-0.377 0.33,-0.391 0.319,-0.404 M 17.906,4.84 l -0.689,2.169 -0.41,2.218 -0.111,2.163 0.192,2.009 0.487,1.759 0.759,1.427 0.995,1.028 1.184,0.582 1.32,0.108 1.392,-0.37 1.4,-0.832 1.342,-1.255 1.221,-1.617 1.044,-1.908 0.817,-2.105 L 29.401,8.009 29.664,5.806 29.623,3.708 29.281,1.814 28.655,0.21 27.773,-1.024 26.676,-1.834 25.417,-2.181 24.053,-2.05 22.649,-1.445 21.27,-0.396 19.981,1.05 18.842,2.822 17.906,4.84 M 31.305,18.779 31.185,18.605 31.068,18.427 30.956,18.247 30.849,18.062 30.648,17.685 30.465,17.293 30.302,16.888 30.158,16.47 30.125,16.363 30.094,16.256 30.065,16.148 30.036,16.04 29.985,15.823 29.939,15.606 29.868,15.166 29.822,14.723 29.81,14.498 29.805,14.272 V 14.16 l 0.002,-0.114 0.004,-0.114 0.006,-0.113 0.046,-0.453 0.078,-0.446 0.024,-0.111 0.027,-0.11 0.03,-0.11 0.031,-0.109 0.069,-0.214 0.077,-0.212 0.176,-0.408 0.209,-0.392 0.057,-0.095 0.058,-0.095 0.061,-0.093 0.063,-0.093 0.131,-0.18 0.135,-0.173 0.288,-0.329 L 31.686,9.892 31.848,9.749 32.014,9.611 32.099,9.544 32.185,9.48 32.272,9.416 32.359,9.354 32.715,9.123 33.081,8.92 33.267,8.826 33.455,8.74 33.55,8.698 33.646,8.659 33.742,8.621 33.839,8.585 34.227,8.454 34.618,8.351 35.01,8.272 35.404,8.219 m 0,0 -0.293,-0.435 -0.097,-0.641 m -3.709,11.636 -0.54,0.204 -0.501,0.399 M 33.979,2.779 34.771,2.89 35.618,2.8 M 33.96,2.803 33.835,2.778 33.744,2.757 33.653,2.735 33.564,2.711 33.475,2.686 33.127,2.569 32.795,2.428 32.48,2.263 32.18,2.071 32.108,2.018 32.038,1.965 31.969,1.911 31.902,1.854 31.773,1.738 31.65,1.616 31.424,1.355 31.227,1.072 31.183,0.998 31.14,0.923 31.099,0.845 31.061,0.767 30.99,0.608 30.928,0.444 30.9,0.359 30.875,0.275 30.851,0.19 30.83,0.104 30.795,-0.07 l -0.027,-0.176 -0.027,-0.357 0.006,-0.366 0.016,-0.187 0.022,-0.188 0.015,-0.095 0.016,-0.096 0.019,-0.095 0.02,-0.096 0.098,-0.383 0.124,-0.381 0.148,-0.379 0.17,-0.38 0.094,-0.189 0.099,-0.19 0.052,-0.095 0.053,-0.094 0.054,-0.095 0.056,-0.095 0.231,-0.37 0.249,-0.364 0.265,-0.36 0.281,-0.352 m 0,0 -0.503,-0.396 -0.456,-0.318 m 3.752,9.005 -0.251,0.185 -0.125,0.438 m -1.133,15.866 -1.404,-0.274 -1.404,-0.274 m 6.712,-9.51 -0.186,0.129 -0.185,0.151 -0.186,0.173 -0.186,0.194 -0.186,0.217 -0.183,0.234 -0.181,0.253 -0.18,0.272 -0.088,0.142 -0.089,0.147 -0.045,0.076 -0.044,0.077 -0.043,0.077 -0.044,0.078 -0.171,0.32 -0.168,0.332 -0.162,0.343 -0.16,0.357 -0.078,0.183 -0.077,0.185 -0.076,0.186 -0.074,0.187 -0.142,0.378 -0.135,0.382 -0.066,0.193 -0.063,0.194 -0.031,0.097 -0.031,0.098 -0.03,0.097 -0.029,0.097 -0.111,0.387 -0.101,0.381 -0.092,0.379 -0.08,0.375 -0.019,0.093 -0.017,0.093 -0.018,0.093 -0.016,0.093 -0.03,0.183 -0.027,0.18 -0.045,0.352 -0.032,0.342 -0.019,0.332 -0.006,0.321 10e-4,0.079 0.001,0.078 0.002,0.077 0.003,0.075 0.01,0.15 0.011,0.146 m 1.291,-11.108 1.307,0.525 1.306,0.525 M 36.063,7.287 36.254,5.356 36.303,3.471 m 0,0 -0.52,-0.069 -0.537,0.059 M 36.063,7.287 35.545,7.181 35.014,7.143 M 38.67,8.355 37.367,7.82 36.063,7.287 M 38.948,3.943 38.904,6.119 38.67,8.355 m -2.367,-4.884 1.322,0.237 1.323,0.235 m -3.544,4.276 0.402,-0.341 0.257,-0.591 m -0.447,-11.858 -0.065,0.398 -0.052,0.401 -0.04,0.404 -0.027,0.408 -0.009,0.204 -0.006,0.204 -0.003,0.202 v 0.201 l 0.009,0.401 0.021,0.395 0.015,0.196 0.018,0.195 0.009,0.098 0.011,0.096 0.011,0.097 0.013,0.096 0.054,0.375 0.064,0.362 0.074,0.351 0.083,0.337 0.045,0.164 0.047,0.16 0.05,0.155 0.05,0.15 0.107,0.286 0.114,0.265 0.06,0.126 0.062,0.121 0.031,0.057 0.032,0.058 0.033,0.056 0.032,0.054 0.135,0.203 0.139,0.179 0.227,0.23 m -4.131,-8.567 1.394,0.441 1.393,0.441 M 38.017,9.269 38.414,8.934 38.67,8.355 M 36.303,3.471 36.171,3.046 35.9,2.847 m 0,0 L 35.895,2.846 35.89,2.845 m -4.75,17.126 -0.47,-0.228 -0.406,-0.361 m 0.876,0.589 0.204,-0.596 -0.039,-0.596 m 4.584,-15.931 1.32,0.244 1.321,0.245 M 38.948,3.943 38.814,3.529 38.546,3.335 m 0,0 -0.008,-0.002 -0.006,-0.001 m -9.638,19.23 1.152,-1.212 1.094,-1.379 m -2.246,2.591 -0.449,-0.253 -0.348,-0.428 M 39.301,4.22 39.308,4.823 39.299,5.432 39.242,6.603 39.129,7.789 39.082,8.17 39.029,8.551 M 39.301,4.22 39.206,4.064 38.948,3.943 M 39.029,8.551 38.94,8.458 38.67,8.355 m -7.53,11.616 1.408,0.266 1.407,0.265 m 0,0 0.198,-0.588 -0.04,-0.587 m -6.17,3.017 -0.035,-0.062 -0.034,-0.06 -0.418,-0.577 -0.474,-0.49 -0.484,-0.429 -0.493,-0.338 -0.195,-0.097 -0.197,-0.077 m -4.476,4.46 0.008,-0.214 0.012,-0.211 0.016,-0.208 0.018,-0.205 0.049,-0.4 0.063,-0.388 0.079,-0.376 0.095,-0.363 0.026,-0.088 0.027,-0.088 0.028,-0.086 0.029,-0.085 0.061,-0.165 0.065,-0.16 0.142,-0.304 0.159,-0.282 0.087,-0.133 0.091,-0.127 0.048,-0.061 0.049,-0.06 0.05,-0.058 0.052,-0.056 0.217,-0.206 0.236,-0.175 0.062,-0.038 0.063,-0.037 0.064,-0.035 0.066,-0.032 0.133,-0.058 0.136,-0.049 0.284,-0.072 0.295,-0.037 0.077,-0.004 0.076,-10e-4 0.078,10e-4 0.079,0.002 0.157,0.013 0.159,0.02 0.319,0.066 0.322,0.097 0.202,0.077 m 0,0 0.121,0.052 0.103,0.046 m 2.314,2.153 -0.015,-0.194 0.158,-0.264 m -6.96,2.793 -0.647,-0.027 -0.518,-0.155 M 31.359,23.498 30.126,23.03 28.894,22.562 m 5.061,-2.06 -1.258,1.611 -1.338,1.385 m 3.9,-8.583 -0.09,0.266 -0.082,0.265 -0.192,0.715 -0.149,0.704 -0.113,0.682 -0.078,0.656 -0.037,0.618 0.013,0.556 0.023,0.205 0.033,0.191 m 3.999,-10.558 -0.278,0.188 -0.294,0.262 -0.314,0.338 -0.323,0.41 -0.323,0.472 -0.319,0.529 -0.317,0.593 -0.305,0.637 -0.293,0.674 -0.27,0.7 -0.151,0.445 -0.14,0.452 M 38.584,9.213 38.314,9.3 38.017,9.269 m -3.448,10.533 -0.003,-0.014 -0.001,-0.013 m 70.743,-74.949 2.842,1.039 2.791,1.463 2.69,1.863 2.547,2.228 2.356,2.559 2.128,2.843 1.861,3.081 1.565,3.263 1.24,3.392 0.894,3.462 0.534,3.473 0.165,3.424 -0.21,3.316 -0.578,3.153 -0.938,2.936 -1.28,2.666 -1.601,2.352 -1.897,2 -2.157,1.61 -2.382,1.195 -2.566,0.758 -2.705,0.309 -2.8,-0.144 -2.844,-0.597 -2.841,-1.039 -2.792,-1.464 -2.69,-1.862 -2.546,-2.228 -2.357,-2.559 -2.128,-2.845 -1.861,-3.079 -1.564,-3.264 -1.24,-3.392 -0.895,-3.462 -0.535,-3.472 -0.163,-3.425 0.21,-3.316 0.577,-3.153 0.937,-2.936 1.281,-2.665 1.602,-2.354 1.895,-1.999 2.159,-1.61 2.381,-1.195 2.565,-0.758 2.706,-0.31 2.799,0.145 2.845,0.598 m 11.256,51.028 -0.541,0.245 m -22.856,-50.412 0.541,-0.245 m 22.314,50.657 -3.103,1.018 -3.314,0.348 -3.443,-0.332 m 0,0 -2.951,-0.807 -2.926,-1.274 -2.846,-1.716 -2.715,-2.129 -2.535,-2.5 -2.306,-2.829 -2.036,-3.103 -1.729,-3.322 -1.391,-3.478 -1.025,-3.571 -0.642,-3.599 -0.248,-3.562 0.154,-3.457 0.549,-3.29 0.937,-3.063 1.306,-2.779 m 0,0 2.041,-2.911 2.491,-2.343 2.876,-1.712 m 12.333,12.996 1.947,0.788 1.867,1.212 1.72,1.591 1.503,1.906 1.23,2.152 0.908,2.311 0.554,2.383 0.176,2.364 -0.206,2.254 -0.584,2.057 -0.936,1.78 -1.254,1.437 -1.522,1.036 -1.734,0.597 -1.878,0.135 -1.95,-0.334 -1.946,-0.787 -1.868,-1.213 -1.718,-1.59 -1.505,-1.907 -1.228,-2.152 -0.909,-2.311 -0.553,-2.383 -0.177,-2.364 0.208,-2.254 0.582,-2.057 0.936,-1.78 1.254,-1.436 1.523,-1.036 1.733,-0.598 1.878,-0.134 1.949,0.333 m 0.415,38.443 -0.411,-0.063 -0.412,-0.077 -1.235,-0.324 -1.231,-0.427 -1.227,-0.499 -1.216,-0.572 -1.203,-0.651 -1.185,-0.727 -1.163,-0.799 -1.138,-0.869 -1.11,-0.936 -1.077,-1.001 -1.042,-1.06 -1.003,-1.12 -0.96,-1.172 -0.916,-1.223 -0.867,-1.269 -0.816,-1.311 -0.763,-1.351 -0.708,-1.383 -0.65,-1.414 -0.59,-1.438 -0.528,-1.46 -0.465,-1.475 -0.401,-1.487 -0.333,-1.494 -0.267,-1.496 -0.199,-1.494 -0.13,-1.487 -0.059,-1.475 0.009,-1.46 0.079,-1.438 0.15,-1.413 0.218,-1.383 0.288,-1.348 0.355,-1.31 0.42,-1.268 0.49,-1.218 0.46,-0.969 0.51,-0.93 m 19.193,7.247 1.826,0.745 1.748,1.156 1.598,1.519 1.384,1.819 1.113,2.045 0.796,2.187 0.446,2.24 0.078,2.2 -0.293,2.072 -0.65,1.858 -0.984,1.568 -1.276,1.214 -1.516,0.81 -1.693,0.373 -1.802,-0.08 -1.837,-0.528 -1.796,-0.956 -1.682,-1.344 -1.5,-1.677 -1.254,-1.943 -0.96,-2.126 -0.623,-2.226 -0.264,-2.231 0.107,-2.147 0.475,-1.976 0.821,-1.721 1.136,-1.398 1.404,-1.017 1.613,-0.595 1.756,-0.148 1.829,0.307 m -9.083,6.957 1.821,1.573 1.576,1.959 1.251,2.248 0.866,2.421 0.434,2.478 -0.016,2.406 m 7,109.657 2.212,-1.211 1.581,-1.335 0.903,-1.417 m -39.603,-7.061 -2.246,0.986 -1.791,1.102 -1.292,1.191 -0.763,1.252 -0.214,1.282 0.34,1.281 0.885,1.251 1.408,1.189 1.899,1.1 2.343,0.984 m 32.288,0.216 1.063,-0.393 0.987,-0.417 m 18.153,5.224 1.952,-0.955 1.754,-1.003 m -85.38,-5.759 1.095,1.668 1.564,1.621 2.016,1.557 2.448,1.478 2.851,1.382 3.227,1.271 3.567,1.147 3.87,1.011 3.403,0.711 m 43.893,0 2.539,-0.508 4.104,-1.054 3.749,-1.212 3.348,-1.355 m -46.386,-130.634 0.164,3.56 0.532,3.611 0.894,3.604 1.24,3.542 1.568,3.423 1.871,3.251 2.145,3.026 2.383,2.754 2.586,2.44 2.747,2.087 2.865,1.7 2.937,1.286 2.963,0.852 2.945,0.406 2.876,-0.048 2.763,-0.5 2.609,-0.945 2.411,-1.375 2.177,-1.783 1.907,-2.163 1.608,-2.51 1.284,-2.814 0.937,-3.079 0.579,-3.291 0.209,-3.452 -0.162,-3.559 -0.533,-3.611 -0.893,-3.605 -1.241,-3.541 -1.568,-3.423 -1.871,-3.25 -2.145,-3.027 -2.384,-2.755 -2.585,-2.439 -2.747,-2.086 -2.864,-1.7 -2.938,-1.286 -2.964,-0.853 -2.942,-0.406 -2.877,0.047 -2.765,0.5 -2.608,0.946 -2.412,1.375 -2.175,1.783 -1.908,2.163 -1.607,2.509 -1.284,2.817 -0.938,3.076 -0.578,3.291 -0.211,3.452 m 1.091,0.315 0.166,3.513 0.544,3.565 0.912,3.554 1.265,3.484 1.596,3.354 1.9,3.17 2.173,2.93 2.408,2.642 2.603,2.309 2.754,1.935 2.858,1.532 2.915,1.101 2.922,0.652 2.879,0.192 2.788,-0.273 2.651,-0.731 2.467,-1.177 2.245,-1.605 1.98,-2.004 1.685,-2.369 1.361,-2.696 m -19.498,-43.008 -3.018,-0.77 -2.983,-0.279 -2.894,0.213 -2.752,0.703 -2.563,1.18 -2.327,1.636 -2.048,2.062 -1.734,2.451 -1.387,2.797 -1.016,3.093 -0.627,3.332 -0.225,3.512 m 24.618,81.815 -3.914,-0.832 -4.233,-0.591 -3.47,-0.281 -3.536,-0.117 -3.541,0.05 -3.485,0.216 -3.369,0.378 -3.197,0.534 -1.72,0.37 m 36.107,39.519 -2.14,1.818 M 71.307,87.31 69.191,85.464 m 42.558,0.283 0.176,-0.154 0.168,-0.154 m -44.477,-2.11 0.591,1.085 0.983,1.05 m 37.625,3.795 2.215,-1.245 1.478,-1.383 0.681,-1.465 m -34.658,-6.221 -2.155,0.807 -1.789,0.915 -1.38,1.004 -0.942,1.071 -0.481,1.111 -0.009,1.128 0.463,1.117 0.924,1.083 1.365,1.023 1.774,0.94 m 32.288,0.216 0.114,-0.05 0.112,-0.051 m -0.194,-4.593 -0.044,-0.442 -0.137,-0.439 m -24.029,-4.305 -2.302,0.566 -1.988,0.702 -1.614,0.818 -1.191,0.908 -0.732,0.971 -0.251,1.005 M 118.068,12.719 117.83,48.315 M 63.61,47.953 63.848,12.357 m 1.207,3.572 -0.12,0.634 -0.108,0.639 -0.097,0.645 -0.086,0.65 -0.077,0.655 -0.067,0.66 -0.015,0.166 -0.016,0.165 -0.015,0.167 -0.014,0.166 -0.026,0.332 -0.024,0.331 -0.044,0.657 -0.036,0.654 -0.03,0.648 -0.024,0.644 -0.017,0.639 -0.013,0.633 -0.002,0.159 -0.002,0.156 -0.002,0.157 -0.001,0.155 v 0.309 0.303 l 0.005,0.598 0.011,0.583 0.017,0.568 0.023,0.554 0.015,0.271 0.015,0.268 0.01,0.133 0.008,0.131 0.01,0.132 0.01,0.129 0.046,0.505 0.053,0.484 0.062,0.461 0.071,0.441 0.081,0.42 0.092,0.399 0.051,0.191 0.053,0.187 0.028,0.091 0.029,0.089 0.03,0.088 0.03,0.086 0.129,0.328 0.144,0.302 0.157,0.276 0.172,0.248 0.189,0.222 0.207,0.196 0.055,0.044 0.055,0.042 0.057,0.042 0.059,0.038 0.12,0.072 0.124,0.063 0.261,0.104 0.28,0.07 0.299,0.037 0.319,0.004 0.083,-0.005 0.085,-0.006 0.086,-0.009 0.087,-0.012 0.176,-0.028 0.18,-0.037 0.372,-0.101 0.386,-0.136 0.402,-0.17 0.418,-0.204 0.106,-0.058 0.108,-0.058 0.107,-0.061 0.11,-0.063 0.217,-0.131 0.22,-0.139 0.442,-0.299 0.447,-0.328 0.226,-0.176 0.226,-0.181 0.114,-0.094 0.114,-0.096 0.114,-0.097 0.114,-0.098 0.452,-0.407 0.446,-0.427 0.441,-0.449 0.435,-0.468 0.109,-0.12 0.107,-0.121 0.107,-0.123 0.106,-0.124 0.211,-0.251 0.208,-0.253 0.405,-0.517 0.391,-0.53 0.377,-0.542 0.363,-0.557 0.089,-0.141 0.088,-0.142 0.086,-0.143 0.085,-0.144 0.168,-0.288 0.163,-0.291 0.31,-0.585 0.289,-0.591 0.268,-0.6 0.248,-0.605 0.224,-0.614 0.202,-0.621 0.092,-0.312 0.085,-0.313 0.078,-0.312 0.073,-0.312 0.124,-0.624 0.097,-0.622 0.071,-0.622 0.044,-0.623 0.011,-0.31 0.004,-0.311 -0.001,-0.155 -0.001,-0.155 -0.004,-0.156 -0.006,-0.154 -0.04,-0.613 -0.068,-0.602 -0.094,-0.592 -0.12,-0.582 L 79.111,14.968 78.94,14.407 78.844,14.13 78.741,13.856 78.633,13.585 78.519,13.32 78.275,12.803 78.01,12.306 77.725,11.827 77.421,11.367 77.096,10.927 76.754,10.508 76.665,10.406 76.574,10.305 76.483,10.207 76.393,10.11 76.206,9.921 76.017,9.739 75.631,9.396 75.233,9.082 74.824,8.797 74.404,8.541 73.974,8.317 73.533,8.123 73.422,8.081 73.31,8.041 73.199,8.002 73.086,7.967 72.864,7.903 72.64,7.848 72.191,7.767 71.745,7.727 71.521,7.722 71.298,7.727 71.186,7.734 71.075,7.742 71.019,7.748 70.963,7.755 70.908,7.761 70.852,7.768 70.417,7.853 69.993,7.978 69.58,8.145 l -0.402,0.209 -0.196,0.12 -0.194,0.13 -0.095,0.069 -0.094,0.072 -0.093,0.074 -0.093,0.076 -0.355,0.326 -0.337,0.362 -0.319,0.394 -0.302,0.428 -0.073,0.112 -0.072,0.114 -0.07,0.115 -0.069,0.117 -0.134,0.239 -0.129,0.244 -0.245,0.505 -0.227,0.529 -0.107,0.273 -0.102,0.277 -0.051,0.14 -0.049,0.143 -0.047,0.143 -0.048,0.144 -0.177,0.588 -0.163,0.6 -0.075,0.305 -0.072,0.309 -0.035,0.155 -0.034,0.157 -0.017,0.078 -0.016,0.079 -0.008,0.039 -0.008,0.039 -0.008,0.04 -0.009,0.04 m 53.013,-3.21 -0.142,-1.022 -0.439,-1.014 m -0.021,3.163 0.021,-3.163 m -1.763,12.029 0.247,-0.298 0.221,-0.334 0.199,-0.369 0.176,-0.408 0.158,-0.445 0.139,-0.485 0.016,-0.064 0.016,-0.064 0.016,-0.064 0.015,-0.065 0.03,-0.132 0.028,-0.133 0.054,-0.272 0.05,-0.28 0.09,-0.582 0.074,-0.613 0.063,-0.644 0.051,-0.675 0.011,-0.174 0.011,-0.175 0.009,-0.176 0.009,-0.178 0.015,-0.359 0.015,-0.365 0.019,-0.746 0.01,-0.766 m -22.045,3.024 2.376,1.921 2.321,1.669 2.249,1.406 2.157,1.129 2.049,0.845 1.922,0.553 1.782,0.257 1.626,-0.04 1.457,-0.34 1.278,-0.633 1.086,-0.925 M 90.012,5.947 l 0.017,0.772 0.063,0.766 0.11,0.757 0.154,0.751 0.198,0.743 0.245,0.738 0.033,0.091 0.036,0.092 0.034,0.091 0.036,0.091 0.074,0.181 0.076,0.179 0.159,0.355 0.17,0.351 0.371,0.686 0.41,0.67 0.449,0.652 0.488,0.635 0.129,0.155 0.131,0.155 0.132,0.154 0.135,0.151 0.275,0.299 0.282,0.293 0.586,0.569 0.616,0.546 M 90.033,2.784 90.012,5.947 m 0.021,-3.163 -3.759,0.119 -3.666,0.306 -3.504,0.487 -3.275,0.66 -2.981,0.818 -2.629,0.96 -2.225,1.086 -1.78,1.189 -1.3,1.269 -0.793,1.324 -0.273,1.355 m 63.749,-34.403 -0.162,-3.559 -0.533,-3.611 -0.893,-3.605 -1.241,-3.541 -1.568,-3.423 -1.871,-3.25 -2.145,-3.027 -2.384,-2.755 -2.585,-2.439 -2.747,-2.086 -2.864,-1.7 -2.938,-1.286 -2.964,-0.853 -2.942,-0.406 -2.877,0.047 -2.765,0.5 -2.608,0.946 -2.412,1.375 -2.175,1.783 -1.908,2.163 -1.607,2.509 -1.284,2.817 -0.938,3.076 -0.578,3.291 -0.211,3.452 0.164,3.56 0.532,3.611 0.894,3.604 1.24,3.542 1.568,3.423 1.871,3.251 2.145,3.026 2.383,2.754 2.586,2.44 2.747,2.087 2.865,1.7 2.937,1.286 2.963,0.852 2.945,0.406 2.876,-0.048 2.763,-0.5 2.609,-0.945 2.411,-1.375 2.177,-1.783 1.907,-2.163 1.608,-2.51 1.284,-2.814 0.937,-3.079 0.579,-3.291 0.209,-3.452 m -10.11,32.729 0.029,-0.728 0.074,-0.705 0.119,-0.685 0.16,-0.662 0.047,-0.163 0.049,-0.161 0.053,-0.161 0.054,-0.157 0.115,-0.31 0.124,-0.304 0.272,-0.584 0.303,-0.557 0.081,-0.135 0.083,-0.134 0.041,-0.066 0.042,-0.067 0.043,-0.065 0.043,-0.064 0.175,-0.254 0.18,-0.246 0.376,-0.47 0.395,-0.445 0.414,-0.417 0.431,-0.394 0.448,-0.369 0.464,-0.347 m 0,0 2.399,-1.999 2.122,-2.387 1.819,-2.745 1.488,-3.064 1.138,-3.344 0.774,-3.576 0.398,-3.762 0.018,-3.897 -0.364,-3.979 -0.739,-4.007 -1.105,-3.982 -1.456,-3.904 -1.789,-3.77 -2.096,-3.589 -2.374,-3.357 -2.622,-3.082 -2.833,-2.763 -3.008,-2.409 -3.14,-2.02 -3.232,-1.607 -3.278,-1.17 -3.282,-0.717 -3.24,-0.256 -3.155,0.209 -3.028,0.671 -2.861,1.125 -2.653,1.564 -2.409,1.981 -2.136,2.371 -1.832,2.73 -1.502,3.051 -1.155,3.332 -0.789,3.568 -0.415,3.755 -0.035,3.892 0.347,3.976 0.723,4.008 1.089,3.984 1.442,3.907 1.774,3.778 2.083,3.599 2.363,3.367 m 0,0 0.456,0.61 0.442,0.626 0.215,0.319 0.211,0.325 0.106,0.163 0.103,0.166 0.103,0.167 0.101,0.167 0.391,0.677 0.369,0.688 0.345,0.699 0.32,0.713 0.15,0.36 0.143,0.365 0.068,0.183 0.066,0.185 0.066,0.185 0.062,0.187 0.23,0.746 0.19,0.748 0.152,0.75 0.109,0.75 0.021,0.187 0.017,0.188 0.015,0.189 0.012,0.187 0.015,0.372 0.004,0.367 m -0.021,3.163 27.454,7.899 m -46.701,20.028 -1.421,-0.17 -1.276,-0.665 -1.073,-1.13 -0.827,-1.545 -0.544,-1.896 -0.235,-2.162 0.08,-2.335 0.394,-2.407 0.691,-2.374 0.957,-2.239 1.184,-2.007 1.357,-1.687 1.472,-1.295 1.522,-0.846 1.508,-0.361 1.429,0.141 1.285,0.636 1.087,1.101 M 59.947,3.124 57.508,-0.364 55.37,-4.095 l -1.806,-3.921 -1.448,-4.053 -1.07,-4.127 -0.675,-4.142 -0.271,-4.097 0.137,-3.994 0.542,-3.833 0.94,-3.614 m 33.832,27.391 -4.006,0.335 -3.84,0.522 -3.606,0.701 -3.308,0.87 -2.954,1.02 -2.546,1.154 -2.093,1.268 -1.606,1.359 -1.087,1.426 -0.551,1.469 -0.007,1.485 m 60.341,3.458 1.187,-1.479 0.609,-1.525 0.018,-1.545 M 95.421,16.87 115.724,22.712 M 63.812,12.363 63.817,11.697 63.775,11.044 63.632,10.145 63.413,9.304 63.227,8.769 63.013,8.276 M 63.034,8.268 62.445,7.032 62.078,6.347 61.689,5.676 61.282,5.018 60.854,4.372 60.744,4.213 60.633,4.055 60.521,3.896 60.407,3.739 60.178,3.428 59.947,3.124 m 9.191,12.347 1.588,-2.158 1.764,-1.64 M 70.509,33.235 69.478,31.886 68.741,30.1 68.336,27.966 m 3.794,-12.918 1.414,-1.49 1.498,-1.062 1.514,-0.584 m -6.953,21.862 -1.246,-0.689 -1.047,-1.139 -0.804,-1.541 -0.527,-1.878 -0.228,-2.136 0.08,-2.302 0.386,-2.374 0.673,-2.344 0.935,-2.217 1.157,-1.993 1.327,-1.688 1.446,-1.31 1.5,-0.879 1.492,-0.408 1.422,0.077 m 44.093,-4.344 -0.007,0.005 -0.007,0.009 -0.14,0.151 -0.22,0.263 -0.248,0.338 -0.26,0.409 -0.281,0.516 -0.272,0.596 -0.258,0.707 -0.219,0.769 -0.18,0.87 -0.083,0.902 0.002,0.284 0.015,0.285 m 21.128,86.422 -1.272,-1.095 -1.532,-1.193 -0.934,-0.673 -0.984,-0.673 -1.256,-0.814 -1.32,-0.803 -1.631,-0.932 -1.709,-0.913 -2.059,-1.028 -2.147,-0.996 -2.534,-1.09 -2.633,-1.044 -3.05,-1.111 -3.152,-1.048 -3.59,-1.081 -3.684,-0.996 -4.123,-0.996 -4.187,-0.89 -3.023,-0.573 -3.037,-0.518 -3.206,-0.484 -3.203,-0.424 -3.349,-0.376 -3.323,-0.308 -3.433,-0.251 -3.382,-0.178 -3.442,-0.111 -3.356,-0.035 -3.348,0.043 -3.24,0.121 m 9.348,-20.805 2.309,0.03 2.347,0.07 3.924,0.207 4.001,0.304 3.822,0.366 3.849,0.442 3.657,0.494 3.662,0.567 3.45,0.599 3.435,0.662 3.207,0.678 3.181,0.733 2.945,0.734 2.908,0.782 2.673,0.77 2.631,0.809 3.506,1.165 3.415,1.236 2.908,1.139 2.824,1.19 2.35,1.06 2.282,1.096 1.842,0.938 1.794,0.964 1.39,0.785 1.361,0.803 1.017,0.625 1.002,0.636 0.921,0.607 0.905,0.616 0.883,0.623 0.866,0.632 0.845,0.639 0.827,0.649 0.807,0.656 0.786,0.664 1.017,0.897 0.988,0.916 1.072,1.056 1.035,1.084 1.173,1.32 1.108,1.358 1.214,1.643 1.11,1.684 1.147,2.002 0.989,2.043 0.901,2.302 m -58.138,-154.008 2.855,1.048 2.799,1.483 2.696,1.891 2.543,2.264 2.347,2.598 2.107,2.887 1.831,3.121 1.521,3.303 1.183,3.423 0.826,3.484 0.454,3.481 0.073,3.418 -0.309,3.292 -0.686,3.109 -1.049,2.869 -1.396,2.579 -1.715,2.242 -2.005,1.865 -2.261,1.457 -2.473,1.02 -2.644,0.566 -2.766,0.102 -2.839,-0.364 -2.861,-0.824 -2.833,-1.267 -2.754,-1.691 -2.626,-2.082 -2.45,-2.437 -2.232,-2.748 -1.973,-3.011 -1.679,-3.219 -1.355,-3.37 -1.008,-3.461 -0.641,-3.492 -0.264,-3.457 0.118,-3.362 0.498,-3.207 0.87,-2.996 1.225,-2.731 1.559,-2.415 1.865,-2.058 2.138,-1.665 2.371,-1.241 2.564,-0.795 2.712,-0.335 2.809,0.132 2.855,0.594 m -33.224,80.366 -0.81,0.086 -0.673,-0.422 -0.435,-0.867 -0.13,-1.18 0.194,-1.312 0.49,-1.245 0.71,-0.988 0.822,-0.582 0.81,-0.085 0.673,0.422 0.435,0.867 0.13,1.179 m -3.827,2.475 -0.291,0.341 -0.294,0.337 m 0,0 -0.214,-1.27 0.181,-1.464 0.542,-1.398 0.808,-1.083 0.929,-0.571 m -2.246,5.786 -1.281,3.301 m 3.527,-9.087 v 0.421 l -0.006,0.422 m 1.287,-4.145 -1.281,3.302 m -3.527,9.087 -0.6,-1.147 -0.335,-1.459 -0.043,-1.67 0.252,-1.767 0.527,-1.74 0.767,-1.594 0.953,-1.337 1.075,-0.989 1.122,-0.571 1.09,-0.115 m -4.808,12.389 -0.02,0.053 -0.017,0.054 -0.015,0.054 -0.013,0.055 -0.019,0.11 -0.01,0.107 -10e-4,0.054 v 0.054 l 0.002,0.026 0.003,0.027 0.001,0.026 0.004,0.026 0.019,0.101 0.027,0.097 0.019,0.047 0.019,0.046 0.023,0.043 0.023,0.042 0.055,0.078 0.062,0.07 0.036,0.032 0.035,0.03 0.039,0.027 0.038,0.025 0.042,0.022 0.042,0.02 0.043,0.017 0.045,0.015 M 75.029,14.596 75.006,14.59 74.983,14.585 74.96,14.58 74.936,14.576 74.889,14.569 74.84,14.566 l -0.096,0.002 -0.1,0.012 -0.099,0.023 -0.099,0.035 -0.048,0.021 -0.047,0.023 -0.048,0.026 -0.048,0.028 -0.09,0.063 -0.086,0.072 -0.041,0.038 -0.039,0.041 -0.038,0.043 -0.037,0.043 -0.068,0.091 -0.062,0.098 -0.027,0.051 -0.026,0.051 -0.023,0.052 -0.022,0.052 M 69.075,29.024 68.853,28.746 68.65,28.449 68.347,27.897 68.099,27.295 67.9,26.63 l -0.141,-0.707 -0.085,-0.755 -0.027,-0.784 0.031,-0.805 0.089,-0.817 0.143,-0.818 0.198,-0.814 0.249,-0.801 0.298,-0.778 0.345,-0.75 0.387,-0.712 0.431,-0.67 0.465,-0.615 0.504,-0.561 0.532,-0.493 0.568,-0.423 0.591,-0.342 0.536,-0.228 0.55,-0.153 0.529,-0.072 0.528,0.003 0.214,0.024 0.212,0.037 m 2.16,0.627 -0.195,0.503 m -6.258,8.115 -0.061,-1.2 0.31,-1.285 0.615,-1.099 0.791,-0.681 m 0,0 1.74,0.501 m -1.116,4.421 -2.279,-0.657 m 1.15,1.737 0.295,-0.337 0.29,-0.34 m 1.655,-4.266 0.062,1.2 -0.311,1.286 -0.614,1.099 -0.792,0.681 m 1.655,-4.266 0.006,-0.423 v -0.42 m -3.527,9.087 1.281,-3.301 m 2.246,-5.786 0.214,1.269 -0.181,1.464 -0.542,1.399 -0.808,1.081 -0.929,0.573 m 2.246,-5.786 1.281,-3.302 m 3.512,-0.208 -0.801,-0.703 -0.935,-0.356 m 0,0 -2.178,-0.627 m -5.659,14.582 1.182,0.34 m 2.199,1.192 0.263,0.09 0.269,0.063 m 0,0 -2.177,-0.627 m 5.659,-14.582 2.178,0.628 m -4.952,14.8 -0.977,-0.282 m 4.464,-15.515 1.829,0.528 m -2.542,-0.159 0.702,1.184 0.435,1.519 0.144,1.764 -0.157,1.904 -0.447,1.926 -0.712,1.834 -0.933,1.631 -1.098,1.329 -1.196,0.946 -1.222,0.508 -1.175,0.037 m 0,0 -0.045,-0.014 -0.045,-0.018 -0.042,-0.019 -0.041,-0.023 -0.076,-0.051 -0.07,-0.061 -0.033,-0.035 -0.03,-0.036 -0.029,-0.038 -0.026,-0.04 -0.046,-0.085 -0.038,-0.092 -0.015,-0.048 -0.013,-0.05 -0.01,-0.049 -0.009,-0.052 -0.006,-0.052 -0.003,-0.052 -10e-4,-0.054 10e-4,-0.054 0.01,-0.109 0.019,-0.109 0.013,-0.054 0.015,-0.054 0.017,-0.054 0.02,-0.054 m 4.808,-12.389 0.601,1.147 0.334,1.458 0.043,1.671 -0.252,1.767 -0.527,1.74 -0.766,1.594 -0.954,1.338 -1.075,0.988 -1.122,0.571 -1.09,0.115 m 4.808,-12.389 0.045,-0.105 0.054,-0.101 0.029,-0.049 0.032,-0.049 0.033,-0.047 0.035,-0.044 0.075,-0.086 0.08,-0.079 0.022,-0.019 0.021,-0.018 0.022,-0.018 0.022,-0.017 0.045,-0.033 0.045,-0.029 0.046,-0.029 0.047,-0.026 0.024,-0.012 0.024,-0.011 0.025,-0.011 0.024,-0.01 0.1,-0.034 0.098,-0.024 0.05,-0.008 0.049,-0.004 0.025,-0.001 0.025,-10e-4 h 0.024 0.025 l 0.095,0.009 0.093,0.02"
             style="fill:none;stroke:#010101;stroke-width:0.72500002;stroke-linecap:round;stroke-linejoin:round;stroke-miterlimit:10;stroke-dasharray:none;stroke-opacity:1"
             id="path7391"
             inkscape:connector-curvature="0" /></g><g
           id="g7393"
           transform="translate(105.0241,41.5123)"><path
             d="m 0,0 c 7.092,-21.802 30.517,-33.727 52.319,-26.635 1.191,0.387 2.363,0.828 3.514,1.322 m 23.121,50.998 c -2.063,6.344 -5.625,12.097 -10.385,16.772 m -84.675,-3.743 c 0.096,-0.013 0.193,-0.011 0.288,0.008 m 3.128,5.703 c -0.04,0.277 -0.203,0.52 -0.443,0.662 m -0.039,-5.878 c 0.428,0.079 0.743,0.448 0.754,0.885 m -10.905,18.47 c -0.182,-0.068 -0.338,-0.192 -0.445,-0.354 m 6.618,-2.533 c 0.028,0.228 -0.029,0.459 -0.162,0.647 m -2.587,2.982 c -0.256,0.236 -0.622,0.308 -0.949,0.186 m 4.972,-29.091 c 0.23,0.219 0.332,0.541 0.269,0.851 m -6.323,-2.787 c 0.229,-0.302 0.62,-0.432 0.985,-0.329 m -10.284,33.011 c -0.019,-0.006 -0.039,-0.012 -0.058,-0.018 m 3.921,0.425 c -0.216,0.36 -0.647,0.529 -1.05,0.412 m 9.961,-33.123 c 0.013,0.003 0.025,0.007 0.036,0.011 m -15.068,30.935 c -0.212,-0.191 -0.324,-0.471 -0.302,-0.755 m 3.985,-28.117 c 0.221,-0.21 0.53,-0.298 0.827,-0.235 m 2.827,0.598 c 0.258,0.055 0.479,0.217 0.609,0.445 m -6.674,2.272 c 0.004,-0.099 0.025,-0.199 0.061,-0.293 m 0,0 c 0.029,-0.074 0.067,-0.144 0.114,-0.208 m -4.477,17.019 c -0.35,-0.136 -0.582,-0.471 -0.586,-0.847 m 0.235,-3.746 c 0.01,-0.072 0.027,-0.143 0.054,-0.21 m 0,0 c 0.056,-0.145 0.148,-0.274 0.267,-0.374"
             style="fill:none;stroke:#010101;stroke-width:0.72500002;stroke-linecap:round;stroke-linejoin:miter;stroke-miterlimit:10;stroke-dasharray:none;stroke-opacity:1"
             id="path7395"
             inkscape:connector-curvature="0" /></g></g></g><g
       id="g7397"
       transform="translate(37,75.6964)"><path
         d="M 0,0 -14.667,32.667"
         style="fill:none;stroke:#1d1d1b;stroke-width:0.5;stroke-linecap:butt;stroke-linejoin:miter;stroke-miterlimit:10;stroke-dasharray:none;stroke-opacity:1"
         id="path7399"
         inkscape:connector-curvature="0" /></g><text
       transform="matrix(1,0,0,-1,11.4893,110.6392)"
       style="font-variant:normal;font-weight:normal;font-stretch:normal;font-size:10px;font-family:Helvetica;-inkscape-font-specification:Helvetica;writing-mode:lr-tb;fill:#1d1d1b;fill-opacity:1;fill-rule:nonzero;stroke:none"
       id="text7403"><tspan
         x="0 5.5599999 8.3400002 15.56"
         y="0"
         sodipodi:role="line"
         id="tspan7401">1 Nm</tspan></text>
</g></svg>