<?xml version="1.0" encoding="UTF-8" standalone="no"?>
<!-- Created with Inkscape (http://www.inkscape.org/) -->

<svg
   xmlns:dc="http://purl.org/dc/elements/1.1/"
   xmlns:cc="http://creativecommons.org/ns#"
   xmlns:rdf="http://www.w3.org/1999/02/22-rdf-syntax-ns#"
   xmlns:svg="http://www.w3.org/2000/svg"
   xmlns="http://www.w3.org/2000/svg"
   xmlns:sodipodi="http://sodipodi.sourceforge.net/DTD/sodipodi-0.dtd"
   xmlns:inkscape="http://www.inkscape.org/namespaces/inkscape"
   version="1.1"
   id="svg1122"
   xml:space="preserve"
   width="321.26001"
   height="245.668"
   viewBox="0 0 321.26001 245.668"
   sodipodi:docname="T0907_2 (Gen 3).svg"
   inkscape:version="0.92.4 (5da689c313, 2019-01-14)"><metadata
     id="metadata1128"><rdf:RDF><cc:Work
         rdf:about=""><dc:format>image/svg+xml</dc:format><dc:type
           rdf:resource="http://purl.org/dc/dcmitype/StillImage" /><dc:title></dc:title></cc:Work></rdf:RDF></metadata><defs
     id="defs1126"><clipPath
       clipPathUnits="userSpaceOnUse"
       id="clipPath1138"><path
         d="M 0,184.251 H 240.945 V 0 H 0 Z"
         id="path1136"
         inkscape:connector-curvature="0" /></clipPath><clipPath
       clipPathUnits="userSpaceOnUse"
       id="clipPath1198"><path
         d="M 0,184.251 H 240.945 V 0 H 0 Z"
         id="path1196"
         inkscape:connector-curvature="0" /></clipPath><clipPath
       clipPathUnits="userSpaceOnUse"
       id="clipPath1426"><path
         d="M 0,184.251 H 240.945 V 0 H 0 Z"
         id="path1424"
         inkscape:connector-curvature="0" /></clipPath><clipPath
       clipPathUnits="userSpaceOnUse"
       id="clipPath1482"><path
         d="M 0,184.251 H 240.945 V 0 H 0 Z"
         id="path1480"
         inkscape:connector-curvature="0" /></clipPath><clipPath
       clipPathUnits="userSpaceOnUse"
       id="clipPath1510"><path
         d="M 0,184.251 H 240.945 V 0 H 0 Z"
         id="path1508"
         inkscape:connector-curvature="0" /></clipPath></defs><sodipodi:namedview
     pagecolor="#ffffff"
     bordercolor="#666666"
     borderopacity="1"
     objecttolerance="10"
     gridtolerance="10"
     guidetolerance="10"
     inkscape:pageopacity="0"
     inkscape:pageshadow="2"
     inkscape:window-width="867"
     inkscape:window-height="652"
     id="namedview1124"
     showgrid="false"
     inkscape:zoom="1.4474257"
     inkscape:cx="160.63"
     inkscape:cy="122.834"
     inkscape:window-x="183"
     inkscape:window-y="51"
     inkscape:window-maximized="0"
     inkscape:current-layer="g1130" /><g
     id="g1130"
     inkscape:groupmode="layer"
     inkscape:label="T0907_2 (Gen 3)"
     transform="matrix(1.3333333,0,0,-1.3333333,0,245.668)"><g
       id="g1132"><g
         id="g1134"
         clip-path="url(#clipPath1138)"><g
           id="g1140"
           transform="translate(59.1885,-0.002)"><path
             d="M 0,0 C -20.881,14.429 -40.662,30.338 -59.189,47.576"
             style="fill:none;stroke:#231f20;stroke-width:1.13399994;stroke-linecap:round;stroke-linejoin:round;stroke-miterlimit:3.86400008;stroke-dasharray:none;stroke-opacity:1"
             id="path1142"
             inkscape:connector-curvature="0" /></g><g
           id="g1144"
           transform="translate(147.2549)"><path
             d="M 0,0 C -56.086,27.261 -106.046,65.159 -147.255,111.072 M -41.151,0.002 c -39.055,22.729 -74.735,50.621 -106.105,82.741 M -69.95,-0.48 c -27.729,17.975 -53.614,38.554 -77.309,61.39"
             style="fill:none;stroke:#231f20;stroke-width:0.28299999;stroke-linecap:round;stroke-linejoin:round;stroke-miterlimit:3.86400008;stroke-dasharray:none;stroke-opacity:1"
             id="path1146"
             inkscape:connector-curvature="0" /></g><g
           id="g1148"
           transform="translate(38.2432,171.934)"><path
             d="M 0,0 C -2.465,4.014 -4.683,8.217 -6.24,12.317"
             style="fill:none;stroke:#231f20;stroke-width:1.13399994;stroke-linecap:round;stroke-linejoin:round;stroke-miterlimit:3.86400008;stroke-dasharray:none;stroke-opacity:1"
             id="path1150"
             inkscape:connector-curvature="0" /></g><g
           id="g1152"
           transform="translate(116.8584,105.998)"><path
             d="M 0,0 C 0,1.332 1.075,2.399 2.399,2.399 3.723,2.399 4.796,1.332 4.796,0 4.796,-1.315 3.723,-2.39 2.399,-2.39 1.075,-2.39 0,-1.315 0,0 Z m -2.337,0 c 0,2.618 2.119,4.745 4.736,4.745 2.617,0 4.736,-2.127 4.736,-4.745 0,-2.608 -2.119,-4.734 -4.736,-4.734 -2.617,0 -4.736,2.126 -4.736,4.734 z"
             style="fill:none;stroke:#231f20;stroke-width:0.28299999;stroke-linecap:round;stroke-linejoin:round;stroke-miterlimit:3.86400008;stroke-dasharray:none;stroke-opacity:1"
             id="path1154"
             inkscape:connector-curvature="0" /></g><g
           id="g1156"
           transform="translate(128.6758,106.8388)"><path
             d="m 0,0 c -0.092,-5.062 -4.222,-9.139 -9.309,-9.139 -5.117,0 -9.511,4.131 -9.308,9.237 l 0.336,2.451 c -0.193,5.212 4.167,9.382 9.309,9.382 5.139,0 9.303,-4.335 9.303,-9.48 z"
             style="fill:none;stroke:#231f20;stroke-width:0.56699997;stroke-linecap:round;stroke-linejoin:round;stroke-miterlimit:3.86400008;stroke-dasharray:none;stroke-opacity:1"
             id="path1158"
             inkscape:connector-curvature="0" /></g><g
           id="g1160"
           transform="translate(110.2622,104.9775)"><path
             d="m 0,0 c -1.32,1.824 -2.098,4.062 -2.098,6.482 0,0.553 0.04,1.09 0.118,1.62 l -0.006,0.673 0.841,3.571 c 0.926,5.19 5.461,9.131 10.918,9.131 6.129,0 11.091,-4.962 11.091,-11.091 0,-0.581 -0.666,-4.62 -0.889,-6.074 M -1.98,8.102 c 0.327,2.247 1.331,4.284 2.797,5.879 0,0 6.028,5.849 12.717,2.631 3.66,-1.76 6.553,-5.62 6.553,-10.13 0,-2.176 -0.629,-4.212 -1.719,-5.93"
             style="fill:none;stroke:#231f20;stroke-width:0.28299999;stroke-linecap:round;stroke-linejoin:round;stroke-miterlimit:3.86400008;stroke-dasharray:none;stroke-opacity:1"
             id="path1162"
             inkscape:connector-curvature="0" /></g><g
           id="g1164"
           transform="translate(66.1133,103.2295)"><path
             d="m 0,0 73.438,-50.021 -14.923,-21.917 -73.44,50.019 z"
             style="fill:#cccbcb;fill-opacity:1;fill-rule:nonzero;stroke:none"
             id="path1166"
             inkscape:connector-curvature="0" /></g><g
           id="g1168"
           transform="translate(66.1133,103.2295)"><path
             d="m 0,0 73.438,-50.021 -14.923,-21.917 -73.44,50.019 z"
             style="fill:none;stroke:#231f20;stroke-width:0.59899998;stroke-linecap:round;stroke-linejoin:round;stroke-miterlimit:3.86400008;stroke-dasharray:none;stroke-opacity:1"
             id="path1170"
             inkscape:connector-curvature="0" /></g><g
           id="g1172"
           transform="translate(107.7217,139.7348)"><path
             d="M 0,0 H -83.011 L -52.371,-53.458 -96.479,0 h -5.655 V 33.683 H 0 Z"
             style="fill:#ffffff;fill-opacity:1;fill-rule:nonzero;stroke:none"
             id="path1174"
             inkscape:connector-curvature="0" /></g><g
           id="g1176"
           transform="translate(107.7217,139.7348)"><path
             d="M 0,0 H -83.011 L -52.371,-53.458 -96.479,0 h -5.655 V 33.683 H 0 Z"
             style="fill:none;stroke:#231f20;stroke-width:0.5;stroke-linecap:round;stroke-linejoin:round;stroke-miterlimit:3.86400008;stroke-dasharray:none;stroke-opacity:1"
             id="path1178"
             inkscape:connector-curvature="0" /></g><g
           id="g1180"
           transform="translate(239.6934,38.5771)"><path
             d="m 0,0 c -19.486,3.453 -72.398,26.888 -72.398,26.888 -15.475,7.564 -25.887,13.647 -40.068,23.21 0,0 -3.9,3.675 -1.558,7.905 2.336,4.235 7.441,10.725 7.441,10.725 l -0.357,7.679 c 0,0 -2.084,9.357 -6.642,11.471 -5.639,2.615 -9.327,1.104 -10.509,0.853 -3.457,-0.734 -6.666,-2.037 -6.666,-2.037 -3.15,-4.093 -6.507,-8.348 -8.239,-10.294 -3.565,-4.015 -8.308,-0.966 -8.308,-0.966 -10.394,8.667 -20.308,17.892 -29.696,27.629"
             style="fill:none;stroke:#231f20;stroke-width:1;stroke-linecap:round;stroke-linejoin:round;stroke-miterlimit:10;stroke-dasharray:none;stroke-opacity:1"
             id="path1182"
             inkscape:connector-curvature="0" /></g></g></g><g
       id="g1184"
       transform="translate(237.5147,94.779)"><path
         d="m 0,0 h -91.427 l -0.082,32.874 -17.37,-2.191 17.394,19.226 v 36.552 l 91.485,0 z"
         style="fill:#ffffff;fill-opacity:1;fill-rule:nonzero;stroke:none"
         id="path1186"
         inkscape:connector-curvature="0" /></g><g
       id="g1188"
       transform="translate(237.5147,94.779)"><path
         d="m 0,0 h -91.427 l -0.082,32.874 -17.37,-2.191 17.394,19.226 v 36.552 l 91.485,0 z"
         style="fill:none;stroke:#231f20;stroke-width:0.70899999;stroke-linecap:round;stroke-linejoin:round;stroke-miterlimit:3.86400008;stroke-dasharray:none;stroke-opacity:1"
         id="path1190"
         inkscape:connector-curvature="0" /></g><g
       id="g1192"><g
         id="g1194"
         clip-path="url(#clipPath1198)"><g
           id="g1200"
           transform="translate(168.6032,101.7258)"><path
             d="M 0,0 C 1.038,-0.248 1.975,-0.142 2.676,0.379 4.628,1.833 4.01,5.966 1.296,9.611 -1.418,13.256 -5.2,15.032 -7.152,13.579 -7.756,13.13 -8.114,12.424 -8.24,11.555"
             style="fill:none;stroke:#231f20;stroke-width:0.249;stroke-linecap:butt;stroke-linejoin:miter;stroke-miterlimit:10;stroke-dasharray:none;stroke-opacity:1"
             id="path1202"
             inkscape:connector-curvature="0" /></g><g
           id="g1204"
           transform="translate(191.6866,116.931)"><path
             d="m 0,0 c 1.857,1.383 1.163,5.459 -1.551,9.104 -2.714,3.645 -6.42,5.479 -8.277,4.096"
             style="fill:none;stroke:#231f20;stroke-width:0.249;stroke-linecap:butt;stroke-linejoin:miter;stroke-miterlimit:10;stroke-dasharray:none;stroke-opacity:1"
             id="path1206"
             inkscape:connector-curvature="0" /></g><g
           id="g1208"
           transform="translate(179.4056,128.5291)"><path
             d="m 0,0 c 0.063,1.804 0.694,3.08 1.921,3.994 l 8.638,6.19"
             style="fill:none;stroke:#231f20;stroke-width:0.99199998;stroke-linecap:round;stroke-linejoin:miter;stroke-miterlimit:10;stroke-dasharray:none;stroke-opacity:1"
             id="path1210"
             inkscape:connector-curvature="0" /></g><g
           id="g1212"
           transform="translate(194.0193,115.345)"><path
             d="m 0,0 c 2.852,2.123 2.356,7.615 -1.108,12.267 -3.463,4.652 -8.582,6.701 -11.434,4.578"
             style="fill:none;stroke:#231f20;stroke-width:0.249;stroke-linecap:butt;stroke-linejoin:miter;stroke-miterlimit:10;stroke-dasharray:none;stroke-opacity:1"
             id="path1214"
             inkscape:connector-curvature="0" /></g><g
           id="g1216"
           transform="translate(171.4367,101.4138)"><path
             d="m 0,0 c 0.666,0.023 1.264,0.211 1.761,0.581 2.244,1.671 1.534,6.424 -1.587,10.616 -3.121,4.191 -7.471,6.235 -9.716,4.563 -0.542,-0.403 -0.912,-0.987 -1.117,-1.699"
             style="fill:none;stroke:#231f20;stroke-width:0.249;stroke-linecap:butt;stroke-linejoin:miter;stroke-miterlimit:10;stroke-dasharray:none;stroke-opacity:1"
             id="path1218"
             inkscape:connector-curvature="0" /></g><g
           id="g1220"
           transform="translate(174.262,126.1203)"><path
             d="m 0,0 c 0.154,0.115 0.318,0.212 0.491,0.292 l 0.884,0.552 c 0.4,0.185 0.846,0.28 1.327,0.29"
             style="fill:none;stroke:#231f20;stroke-width:0.70899999;stroke-linecap:round;stroke-linejoin:miter;stroke-miterlimit:10;stroke-dasharray:none;stroke-opacity:1"
             id="path1222"
             inkscape:connector-curvature="0" /></g><g
           id="g1224"
           transform="translate(176.9737,126.2932)"><path
             d="m 0,0 c -0.395,0.086 -0.776,0.126 -1.138,0.118 l 0.796,0.51"
             style="fill:none;stroke:#231f20;stroke-width:0.249;stroke-linecap:butt;stroke-linejoin:miter;stroke-miterlimit:10;stroke-dasharray:none;stroke-opacity:1"
             id="path1226"
             inkscape:connector-curvature="0" /></g><g
           id="g1228"
           transform="translate(177.159,126.3935)"><path
             d="M 0,0 C 0,0 0.806,0.722 0.943,0.743 1.456,0.818 1.978,0.448 2.517,0.195 v -0.468"
             style="fill:none;stroke:#231f20;stroke-width:0.70899999;stroke-linecap:round;stroke-linejoin:miter;stroke-miterlimit:10;stroke-dasharray:none;stroke-opacity:1"
             id="path1230"
             inkscape:connector-curvature="0" /></g><g
           id="g1232"
           transform="translate(179.7119,125.1012)"><path
             d="m 0,0 c -0.39,0.248 -0.621,0.376 -1.005,0.556 l 0.969,0.736"
             style="fill:none;stroke:#231f20;stroke-width:0.249;stroke-linecap:butt;stroke-linejoin:miter;stroke-miterlimit:10;stroke-dasharray:none;stroke-opacity:1"
             id="path1234"
             inkscape:connector-curvature="0" /></g><g
           id="g1236"
           transform="translate(179.909,125.2483)"><path
             d="M 0,0 0.931,0.696 C 1.538,0.309 2.148,-0.157 2.743,-0.696 l -0.187,-0.52"
             style="fill:none;stroke:#231f20;stroke-width:0.70899999;stroke-linecap:round;stroke-linejoin:miter;stroke-miterlimit:10;stroke-dasharray:none;stroke-opacity:1"
             id="path1238"
             inkscape:connector-curvature="0" /></g><g
           id="g1240"
           transform="translate(182.5459,122.6973)"><path
             d="m 0,0 c -0.334,0.361 -0.675,0.699 -1.022,1.012 l 0.83,0.643"
             style="fill:none;stroke:#231f20;stroke-width:0.249;stroke-linecap:butt;stroke-linejoin:miter;stroke-miterlimit:10;stroke-dasharray:none;stroke-opacity:1"
             id="path1242"
             inkscape:connector-curvature="0" /></g><g
           id="g1244"
           transform="translate(183.8581,123.6001)"><path
             d="M 0,0 C 0.41,-0.444 0.808,-0.922 1.188,-1.432 1.283,-1.56 1.374,-1.684 1.46,-1.806 L 0.412,-2.595"
             style="fill:none;stroke:#231f20;stroke-width:0.70899999;stroke-linecap:round;stroke-linejoin:miter;stroke-miterlimit:10;stroke-dasharray:none;stroke-opacity:1"
             id="path1246"
             inkscape:connector-curvature="0" /></g><g
           id="g1248"
           transform="translate(185.8754,120.0191)"><path
             d="m 0,0 -0.933,-0.61 c -0.293,0.532 -0.583,0.988 -0.936,1.483"
             style="fill:none;stroke:#231f20;stroke-width:0.249;stroke-linecap:butt;stroke-linejoin:miter;stroke-miterlimit:10;stroke-dasharray:none;stroke-opacity:1"
             id="path1250"
             inkscape:connector-curvature="0" /></g><g
           id="g1252"
           transform="translate(185.8754,117.5602)"><path
             d="M 0,0 1.128,0.727 C 0.893,1.335 0.603,1.954 0.261,2.574 l -0.505,0.144"
             style="fill:none;stroke:#231f20;stroke-width:0.70899999;stroke-linecap:round;stroke-linejoin:miter;stroke-miterlimit:10;stroke-dasharray:none;stroke-opacity:1"
             id="path1254"
             inkscape:connector-curvature="0" /></g><g
           id="g1256"
           transform="translate(185.8754,117.4439)"><path
             d="m 0,0 c 0.198,-0.511 0.284,-0.781 0.404,-1.27 l 0.88,0.61"
             style="fill:none;stroke:#231f20;stroke-width:0.249;stroke-linecap:butt;stroke-linejoin:miter;stroke-miterlimit:10;stroke-dasharray:none;stroke-opacity:1"
             id="path1258"
             inkscape:connector-curvature="0" /></g><g
           id="g1260"
           transform="translate(186.6308,114.338)"><path
             d="M 0,0 1.121,0.668 C 1.095,1.229 1.005,1.826 0.851,2.446 L 0.373,2.889"
             style="fill:none;stroke:#231f20;stroke-width:0.70899999;stroke-linecap:round;stroke-linejoin:miter;stroke-miterlimit:10;stroke-dasharray:none;stroke-opacity:1"
             id="path1262"
             inkscape:connector-curvature="0" /></g><g
           id="g1264"
           transform="translate(186.5405,112.7888)"><path
             d="M 0,0 C 0.078,0.424 0.105,0.886 0.083,1.375"
             style="fill:none;stroke:#231f20;stroke-width:0.249;stroke-linecap:butt;stroke-linejoin:miter;stroke-miterlimit:10;stroke-dasharray:none;stroke-opacity:1"
             id="path1266"
             inkscape:connector-curvature="0" /></g><g
           id="g1268"
           transform="translate(187.6687,113.6317)"><path
             d="m 0,0 c -0.076,-0.414 -0.2,-0.793 -0.374,-1.129 l -0.855,-0.843 -0.336,-0.961 c 0,0 -11.5,-8.333 -12.806,-9.101 -1.305,-0.767 -2.444,-0.788 -4.217,-0.372 -2.035,0.477 -4.423,2.206 -6.33,4.768 -2.056,2.761 -3.059,5.784 -2.706,7.904 0.281,1.69 0.253,2.385 1.642,3.607 1.389,1.222 12.821,9.417 12.821,9.417"
             style="fill:none;stroke:#231f20;stroke-width:0.99199998;stroke-linecap:round;stroke-linejoin:miter;stroke-miterlimit:10;stroke-dasharray:none;stroke-opacity:1"
             id="path1270"
             inkscape:connector-curvature="0" /></g><g
           id="g1272"
           transform="translate(185.3206,110.6494)"><path
             d="M 0,0 C 0.355,0.264 0.636,0.606 0.846,1.011"
             style="fill:none;stroke:#231f20;stroke-width:0.249;stroke-linecap:butt;stroke-linejoin:miter;stroke-miterlimit:10;stroke-dasharray:none;stroke-opacity:1"
             id="path1274"
             inkscape:connector-curvature="0" /></g><g
           id="g1276"
           transform="translate(186.891,136.5106)"><path
             d="m 0,0 c -1.121,3.161 1.435,9.525 6.61,15.677 5.98,7.109 13.32,10.775 16.394,8.189 0,0 5.014,-3.804 6.264,-4.866 1.25,-1.062 1.167,-1.145 1.5,-2.478 0.333,-1.334 2.167,-12.073 2.167,-12.073 0.666,-4.594 -1.584,-8.482 -3.167,-9.705 l -1.667,-1.25 c 0.334,-0.278 -0.389,-0.965 -0.389,-0.965 l -3.888,-2.924 h -0.417 c 0,0 -0.583,-0.611 -1.222,-1 -0.575,-0.35 -1.111,-0.929 -1.639,-1.139 -0.417,-0.165 -0.843,0.111 -0.843,0.111 0,0 -0.192,-0.24 -0.322,-0.472 -0.262,-0.472 -1.53,-1.278 -1.807,-1.528 -0.278,-0.25 -0.556,-0.277 -0.556,-0.277 0,0 -0.611,-0.695 -1.75,-1.473 h -0.583 c -0.666,-1.28 -2.354,-2.481 -2.973,-2.5 l -0.722,0.306 -3.75,-3.138 c -1.589,-0.905 -2.897,-1.076 -4.396,-0.62"
             style="fill:none;stroke:#231f20;stroke-width:0.99199998;stroke-linecap:round;stroke-linejoin:miter;stroke-miterlimit:10;stroke-dasharray:none;stroke-opacity:1"
             id="path1278"
             inkscape:connector-curvature="0" /></g><g
           id="g1280"
           transform="translate(216.659,154.8424)"><path
             d="m 0,0 c -3.333,1.023 -5.917,0.94 -7.583,-0.727 -1.667,-1.666 -6,-7.25 -4.584,-14.833"
             style="fill:none;stroke:#231f20;stroke-width:0.249;stroke-linecap:butt;stroke-linejoin:miter;stroke-miterlimit:10;stroke-dasharray:none;stroke-opacity:1"
             id="path1282"
             inkscape:connector-curvature="0" /></g><g
           id="g1284"
           transform="translate(190.0757,139.2824)"><path
             d="M 0,0 C 1.167,3.417 9.333,5.417 12.917,0"
             style="fill:none;stroke:#231f20;stroke-width:0.249;stroke-linecap:butt;stroke-linejoin:miter;stroke-miterlimit:10;stroke-dasharray:none;stroke-opacity:1"
             id="path1286"
             inkscape:connector-curvature="0" /></g><g
           id="g1288"
           transform="translate(190.4524,138.7132)"><path
             d="M 0,0 C 1.057,3.097 8.459,4.909 11.707,0"
             style="fill:none;stroke:#231f20;stroke-width:0.249;stroke-linecap:round;stroke-linejoin:miter;stroke-miterlimit:10;stroke-dasharray:none;stroke-opacity:1"
             id="path1290"
             inkscape:connector-curvature="0" /></g><g
           id="g1292"
           transform="translate(213.7701,133.7268)"><path
             d="M 0,0 0.361,-0.224 C 0.389,-1.278 0.278,-3.639 -0.278,-4.472"
             style="fill:none;stroke:#231f20;stroke-width:0.249;stroke-linecap:round;stroke-linejoin:miter;stroke-miterlimit:10;stroke-dasharray:none;stroke-opacity:1"
             id="path1294"
             inkscape:connector-curvature="0" /></g><g
           id="g1296"
           transform="translate(206.5501,128.6589)"><path
             d="M 0,0 0.361,-0.224 C 0.389,-1.278 0.278,-3.639 -0.278,-4.472"
             style="fill:none;stroke:#231f20;stroke-width:0.249;stroke-linecap:round;stroke-linejoin:miter;stroke-miterlimit:10;stroke-dasharray:none;stroke-opacity:1"
             id="path1298"
             inkscape:connector-curvature="0" /></g><g
           id="g1300"
           transform="translate(203.8472,126.588)"><path
             d="M 0,0 0.361,-0.224 C 0.389,-1.278 0.278,-3.639 -0.278,-4.472"
             style="fill:none;stroke:#231f20;stroke-width:0.249;stroke-linecap:round;stroke-linejoin:miter;stroke-miterlimit:10;stroke-dasharray:none;stroke-opacity:1"
             id="path1302"
             inkscape:connector-curvature="0" /></g><g
           id="g1304"
           transform="translate(204.9475,127.4506)"><path
             d="M 0,0 0.361,-0.224 C 0.628,-1.335 0.617,-1.946 0.365,-3.689"
             style="fill:none;stroke:#231f20;stroke-width:0.249;stroke-linecap:round;stroke-linejoin:miter;stroke-miterlimit:10;stroke-dasharray:none;stroke-opacity:1"
             id="path1306"
             inkscape:connector-curvature="0" /></g><g
           id="g1308"
           transform="translate(214.1351,130.1435)"><path
             d="M 0,0 0.357,-0.278"
             style="fill:none;stroke:#231f20;stroke-width:0.249;stroke-linecap:round;stroke-linejoin:miter;stroke-miterlimit:10;stroke-dasharray:none;stroke-opacity:1"
             id="path1310"
             inkscape:connector-curvature="0" /></g><g
           id="g1312"
           transform="translate(210.4356,131.4907)"><path
             d="m 0,0 0.446,-0.236 c 0,0 -0.25,-3.417 -0.834,-4.667"
             style="fill:none;stroke:#231f20;stroke-width:0.249;stroke-linecap:round;stroke-linejoin:miter;stroke-miterlimit:10;stroke-dasharray:none;stroke-opacity:1"
             id="path1314"
             inkscape:connector-curvature="0" /></g><g
           id="g1316"
           transform="translate(209.2146,126.7268)"><path
             d="m 0,0 c 0,0 -0.333,-0.25 -0.611,-0.472 -0.278,-0.222 -0.472,-0.584 -0.417,-0.75"
             style="fill:none;stroke:#231f20;stroke-width:0.249;stroke-linecap:round;stroke-linejoin:miter;stroke-miterlimit:10;stroke-dasharray:none;stroke-opacity:1"
             id="path1318"
             inkscape:connector-curvature="0" /></g><g
           id="g1320"
           transform="translate(204.9475,124.1866)"><path
             d="M 0,0 C -0.261,-0.599 -0.9,-1.821 -0.9,-1.821"
             style="fill:none;stroke:#231f20;stroke-width:0.249;stroke-linecap:round;stroke-linejoin:miter;stroke-miterlimit:10;stroke-dasharray:none;stroke-opacity:1"
             id="path1322"
             inkscape:connector-curvature="0" /></g><g
           id="g1324"
           transform="translate(201.7423,124.7268)"><path
             d="m 0,0 c 0.639,-0.222 0.722,-1.25 0.639,-1.722 l -0.806,-0.5 -0.472,0.305"
             style="fill:none;stroke:#231f20;stroke-width:0.249;stroke-linecap:round;stroke-linejoin:miter;stroke-miterlimit:10;stroke-dasharray:none;stroke-opacity:1"
             id="path1326"
             inkscape:connector-curvature="0" /></g><g
           id="g1328"
           transform="translate(201.2423,123.0602)"><path
             d="M 0,0 C -0.278,0.028 -1.638,-0.944 -1.166,-1.583"
             style="fill:none;stroke:#231f20;stroke-width:0.249;stroke-linecap:round;stroke-linejoin:miter;stroke-miterlimit:10;stroke-dasharray:none;stroke-opacity:1"
             id="path1330"
             inkscape:connector-curvature="0" /></g><g
           id="g1332"
           transform="translate(198.6034,120.3935)"><path
             d="M 0,0 C 0,0 0.25,-0.222 0.528,-0.361 0.806,-0.5 1.636,0.507 1.889,0"
             style="fill:none;stroke:#231f20;stroke-width:0.249;stroke-linecap:round;stroke-linejoin:miter;stroke-miterlimit:10;stroke-dasharray:none;stroke-opacity:1"
             id="path1334"
             inkscape:connector-curvature="0" /></g><g
           id="g1336"
           transform="translate(186.5172,112.9768)"><path
             d="M 0,0 0.777,0.655"
             style="fill:none;stroke:#231f20;stroke-width:0.249;stroke-linecap:butt;stroke-linejoin:miter;stroke-miterlimit:10;stroke-dasharray:none;stroke-opacity:1"
             id="path1338"
             inkscape:connector-curvature="0" /></g><g
           id="g1340"
           transform="translate(181.5239,130.0046)"><path
             d="M 0,0 -3.948,-2.75"
             style="fill:none;stroke:#231f20;stroke-width:0.99199998;stroke-linecap:round;stroke-linejoin:miter;stroke-miterlimit:10;stroke-dasharray:none;stroke-opacity:1"
             id="path1342"
             inkscape:connector-curvature="0" /></g><g
           id="g1344"
           transform="translate(191.5757,116.5046)"><path
             d="M 0,0 -3.824,-2.694"
             style="fill:none;stroke:#231f20;stroke-width:0.99199998;stroke-linecap:round;stroke-linejoin:miter;stroke-miterlimit:10;stroke-dasharray:none;stroke-opacity:1"
             id="path1346"
             inkscape:connector-curvature="0" /></g><g
           id="g1348"
           transform="translate(183.7146,123.5246)"><path
             d="M 0,0 -0.917,-0.575"
             style="fill:none;stroke:#231f20;stroke-width:0.70899999;stroke-linecap:round;stroke-linejoin:miter;stroke-miterlimit:10;stroke-dasharray:none;stroke-opacity:1"
             id="path1350"
             inkscape:connector-curvature="0" /></g><g
           id="g1352"
           transform="translate(169.3257,115.7824)"><path
             d="M 0,0 11.25,8.25"
             style="fill:none;stroke:#231f20;stroke-width:0.249;stroke-linecap:round;stroke-linejoin:miter;stroke-miterlimit:10;stroke-dasharray:none;stroke-opacity:1"
             id="path1354"
             inkscape:connector-curvature="0" /></g><g
           id="g1356"
           transform="translate(167.9594,116.7667)"><path
             d="M 0,0 11.25,8.25"
             style="fill:none;stroke:#231f20;stroke-width:0.249;stroke-linecap:round;stroke-linejoin:miter;stroke-miterlimit:10;stroke-dasharray:none;stroke-opacity:1"
             id="path1358"
             inkscape:connector-curvature="0" /></g><g
           id="g1360"
           transform="translate(165.659,117.7407)"><path
             d="M 0,0 11.5,8.653"
             style="fill:none;stroke:#231f20;stroke-width:0.249;stroke-linecap:round;stroke-linejoin:miter;stroke-miterlimit:10;stroke-dasharray:none;stroke-opacity:1"
             id="path1362"
             inkscape:connector-curvature="0" /></g><g
           id="g1364"
           transform="translate(166.6049,117.2027)"><path
             d="M 0,0 11.5,8.653"
             style="fill:none;stroke:#231f20;stroke-width:0.249;stroke-linecap:round;stroke-linejoin:miter;stroke-miterlimit:10;stroke-dasharray:none;stroke-opacity:1"
             id="path1366"
             inkscape:connector-curvature="0" /></g><g
           id="g1368"
           transform="translate(170.7797,114.4473)"><path
             d="M 0,0 11.25,8.25"
             style="fill:none;stroke:#231f20;stroke-width:0.249;stroke-linecap:round;stroke-linejoin:miter;stroke-miterlimit:10;stroke-dasharray:none;stroke-opacity:1"
             id="path1370"
             inkscape:connector-curvature="0" /></g><g
           id="g1372"
           transform="translate(172.3549,112.3546)"><path
             d="M 0,0 11.503,8.183"
             style="fill:none;stroke:#231f20;stroke-width:0.249;stroke-linecap:round;stroke-linejoin:miter;stroke-miterlimit:10;stroke-dasharray:none;stroke-opacity:1"
             id="path1374"
             inkscape:connector-curvature="0" /></g><g
           id="g1376"
           transform="translate(173.3383,110.6494)"><path
             d="M 0,0 11.603,7.923"
             style="fill:none;stroke:#231f20;stroke-width:0.249;stroke-linecap:round;stroke-linejoin:miter;stroke-miterlimit:10;stroke-dasharray:none;stroke-opacity:1"
             id="path1378"
             inkscape:connector-curvature="0" /></g><g
           id="g1380"
           transform="translate(173.8748,109.0154)"><path
             d="M 0,0 11.603,7.923"
             style="fill:none;stroke:#231f20;stroke-width:0.249;stroke-linecap:round;stroke-linejoin:miter;stroke-miterlimit:10;stroke-dasharray:none;stroke-opacity:1"
             id="path1382"
             inkscape:connector-curvature="0" /></g><g
           id="g1384"
           transform="translate(174.5074,107.4222)"><path
             d="M 0,0 11.603,7.923"
             style="fill:none;stroke:#231f20;stroke-width:0.249;stroke-linecap:round;stroke-linejoin:miter;stroke-miterlimit:10;stroke-dasharray:none;stroke-opacity:1"
             id="path1386"
             inkscape:connector-curvature="0" /></g><g
           id="g1388"
           transform="translate(174.5074,106.0157)"><path
             d="M 0,0 11.81,7.794"
             style="fill:none;stroke:#231f20;stroke-width:0.249;stroke-linecap:round;stroke-linejoin:miter;stroke-miterlimit:10;stroke-dasharray:none;stroke-opacity:1"
             id="path1390"
             inkscape:connector-curvature="0" /></g><g
           id="g1392"
           transform="translate(174.6707,104.8197)"><path
             d="M 0,0 11.81,7.794"
             style="fill:none;stroke:#231f20;stroke-width:0.249;stroke-linecap:round;stroke-linejoin:miter;stroke-miterlimit:10;stroke-dasharray:none;stroke-opacity:1"
             id="path1394"
             inkscape:connector-curvature="0" /></g><g
           id="g1396"
           transform="translate(174.6707,103.8656)"><path
             d="M 0,0 11.81,7.794"
             style="fill:none;stroke:#231f20;stroke-width:0.249;stroke-linecap:round;stroke-linejoin:miter;stroke-miterlimit:10;stroke-dasharray:none;stroke-opacity:1"
             id="path1398"
             inkscape:connector-curvature="0" /></g><g
           id="g1400"
           transform="translate(164.3193,117.9852)"><path
             d="M 0,0 11.5,8.653"
             style="fill:none;stroke:#231f20;stroke-width:0.249;stroke-linecap:round;stroke-linejoin:miter;stroke-miterlimit:10;stroke-dasharray:none;stroke-opacity:1"
             id="path1402"
             inkscape:connector-curvature="0" /></g><g
           id="g1404"
           transform="translate(163.2182,117.7892)"><path
             d="M 0,0 11.5,8.653"
             style="fill:none;stroke:#231f20;stroke-width:0.249;stroke-linecap:round;stroke-linejoin:miter;stroke-miterlimit:10;stroke-dasharray:none;stroke-opacity:1"
             id="path1406"
             inkscape:connector-curvature="0" /></g><g
           id="g1408"
           transform="translate(220.548,171.6117)"><path
             d="m 0,0 c -5.634,4.922 -19.857,-2.14 -31.766,-15.774 -9.476,-10.847 -14.632,-22.586 -13.507,-29.41"
             style="fill:none;stroke:#231f20;stroke-width:0.249;stroke-linecap:round;stroke-linejoin:miter;stroke-miterlimit:10;stroke-dasharray:none;stroke-opacity:1"
             id="path1410"
             inkscape:connector-curvature="0" /></g><g
           id="g1412"
           transform="translate(218.1949,150.3574)"><path
             d="M 0,0 C 4.704,9.142 4.626,15.879 2.353,21.254 1.776,22.618 1.658,23.447 1.658,23.447"
             style="fill:none;stroke:#231f20;stroke-width:0.99199998;stroke-linecap:round;stroke-linejoin:miter;stroke-miterlimit:10;stroke-dasharray:none;stroke-opacity:1"
             id="path1414"
             inkscape:connector-curvature="0" /></g><g
           id="g1416"
           transform="translate(170.8265,126.7916)"><path
             d="m 0,0 c -1.421,1.066 -2.487,1.658 -3.434,4.145 -0.948,2.487 -2.724,8.763 6.868,19.066 9.592,10.302 19.895,16.223 25.816,20.368 5.751,4.026 10.832,9.951 15.785,8.66 0.146,-0.038 0.299,-0.068 0.439,-0.134 2.013,-0.947 2.842,-1.302 3.552,-4.5"
             style="fill:none;stroke:#231f20;stroke-width:0.249;stroke-linecap:round;stroke-linejoin:miter;stroke-miterlimit:10;stroke-dasharray:none;stroke-opacity:1"
             id="path1418"
             inkscape:connector-curvature="0" /></g></g></g><g
       id="g1420"><g
         id="g1422"
         clip-path="url(#clipPath1426)"><g
           id="g1428"
           transform="translate(84.1934,147.9526)"><path
             d="m 0,0 h -1.067 c -0.787,0 -1.062,0.751 -1.062,0.751 l -0.539,1.453 c -0.088,0.233 -0.28,0.594 -0.28,0.594 -0.987,1.595 -1.569,3.374 -1.569,3.374 -0.688,2.08 -0.239,4.517 -0.239,4.517 0.306,1.998 1.634,3.86 1.634,3.86 0.665,0.983 0.617,1.782 0.617,1.782 v 0.922 c 0,0.787 0.753,0.873 0.753,0.873 l 0.938,0.126 c 0.763,0.121 0.687,-0.731 0.687,-0.731 v -0.894 c 0,-1.141 -0.726,-1.806 -0.726,-1.806 -0.602,-0.56 -1.324,-1.367 -1.324,-1.367 -1.103,-1.302 -1.376,-2.929 -1.376,-2.929 -0.387,-1.753 0.15,-3.809 0.15,-3.809 0.74,-2.749 3.089,-4.405 3.089,-4.405 h -0.003 9.759 c 0,0 2.351,1.656 3.091,4.405 0,0 0.536,2.056 0.147,3.809 0,0 -0.271,1.627 -1.374,2.929 0,0 -0.721,0.808 -1.325,1.368 0,0 -0.725,0.665 -0.725,1.805 v 0.895 c 0,0 -0.076,0.851 0.686,0.731 l 0.94,-0.126 c 0,0 0.751,-0.087 0.751,-0.874 v -0.922 c 0,0 -0.048,-0.799 0.618,-1.782 0,0 1.328,-1.862 1.634,-3.86 0,0 0.447,-2.436 -0.239,-4.515 0,0 -0.583,-1.78 -1.568,-3.376 0,0 -0.193,-0.359 -0.282,-0.592 L 11.257,0.751 c 0,0 -0.272,-0.749 -1.064,-0.749 H 9.131 V 1.188 H 7.941 V 0.002 H 6.502 V 1.188 H 5.315 V 0.002 H 3.812 V 1.188 H 2.623 V 0.002 H 1.184 V 1.188 H -0.005 V 0.002 Z"
             style="fill:#231f20;fill-opacity:1;fill-rule:nonzero;stroke:none"
             id="path1430"
             inkscape:connector-curvature="0" /></g><g
           id="g1432"
           transform="translate(84.1934,147.9526)"><path
             d="m 0,0 h -1.067 c -0.787,0 -1.062,0.751 -1.062,0.751 l -0.539,1.453 c -0.088,0.233 -0.28,0.594 -0.28,0.594 -0.987,1.595 -1.569,3.374 -1.569,3.374 -0.688,2.08 -0.239,4.517 -0.239,4.517 0.306,1.998 1.634,3.86 1.634,3.86 0.665,0.983 0.617,1.782 0.617,1.782 v 0.922 c 0,0.787 0.753,0.873 0.753,0.873 l 0.938,0.126 c 0.763,0.121 0.687,-0.731 0.687,-0.731 v -0.894 c 0,-1.141 -0.726,-1.806 -0.726,-1.806 -0.602,-0.56 -1.324,-1.367 -1.324,-1.367 -1.103,-1.302 -1.376,-2.929 -1.376,-2.929 -0.387,-1.753 0.15,-3.809 0.15,-3.809 0.74,-2.749 3.089,-4.405 3.089,-4.405 h -0.003 9.759 c 0,0 2.351,1.656 3.091,4.405 0,0 0.536,2.056 0.147,3.809 0,0 -0.271,1.627 -1.374,2.929 0,0 -0.721,0.808 -1.325,1.368 0,0 -0.725,0.665 -0.725,1.805 v 0.895 c 0,0 -0.076,0.851 0.686,0.731 l 0.94,-0.126 c 0,0 0.751,-0.087 0.751,-0.874 v -0.922 c 0,0 -0.048,-0.799 0.618,-1.782 0,0 1.328,-1.862 1.634,-3.86 0,0 0.447,-2.436 -0.239,-4.515 0,0 -0.583,-1.78 -1.568,-3.376 0,0 -0.193,-0.359 -0.282,-0.592 L 11.257,0.751 c 0,0 -0.272,-0.749 -1.064,-0.749 H 9.131 V 1.188 H 7.941 V 0.002 H 6.502 V 1.188 H 5.315 V 0.002 H 3.812 V 1.188 H 2.623 V 0.002 H 1.184 V 1.188 H -0.005 V 0.002 Z"
             style="fill:none;stroke:#231f20;stroke-width:0.5;stroke-linecap:round;stroke-linejoin:round;stroke-miterlimit:10;stroke-dasharray:none;stroke-opacity:1"
             id="path1434"
             inkscape:connector-curvature="0" /></g><g
           id="g1436"
           transform="translate(87.5118,152.9731)"><path
             d="m 0,0 c 0,-0.688 0.559,-1.245 1.246,-1.245 0.686,0 1.245,0.557 1.245,1.245 0,0.689 -0.559,1.247 -1.245,1.247 C 0.559,1.247 0,0.689 0,0"
             style="fill:#11100e;fill-opacity:1;fill-rule:nonzero;stroke:none"
             id="path1438"
             inkscape:connector-curvature="0" /></g><g
           id="g1440"
           transform="translate(87.5635,156.7241)"><path
             d="m 0,0 c 0,-0.664 0.534,-1.196 1.196,-1.196 0.661,0 1.196,0.532 1.196,1.196 0,0.033 -10e-4,6.887 -10e-4,6.887 0,0.66 -0.536,1.196 -1.197,1.196 -0.662,0 -1.197,-0.536 -1.197,-1.196 C -0.003,6.887 0,0.063 0,0"
             style="fill:#11100e;fill-opacity:1;fill-rule:nonzero;stroke:none"
             id="path1442"
             inkscape:connector-curvature="0" /></g><path
           d="M 106.627,141.473 H 7.044 v 30.383 h 99.583 z"
           style="fill:none;stroke:#110f0d;stroke-width:0.5;stroke-linecap:butt;stroke-linejoin:miter;stroke-miterlimit:4;stroke-dasharray:none;stroke-opacity:1"
           id="path1444"
           inkscape:connector-curvature="0" /><path
           d="M 104.938,170.616 H 8.733 v -28.092 h 96.205 z"
           style="fill:none;stroke:#110f0d;stroke-width:0.5;stroke-linecap:butt;stroke-linejoin:miter;stroke-miterlimit:4;stroke-dasharray:none;stroke-opacity:1"
           id="path1446"
           inkscape:connector-curvature="0" /><g
           id="g1448"
           transform="translate(23.8052,151.5317)"><path
             d="m 0,0 c 0,-0.459 -0.373,-0.832 -0.833,-0.832 -0.461,0 -0.834,0.373 -0.834,0.832 0,0.461 0.373,0.834 0.834,0.834 C -0.373,0.834 0,0.461 0,0"
             style="fill:#110f0d;fill-opacity:1;fill-rule:nonzero;stroke:none"
             id="path1450"
             inkscape:connector-curvature="0" /></g><g
           id="g1452"
           transform="translate(21.7828,160.5136)"><path
             d="m 0,0 c -0.01,0.062 -0.015,0.128 -0.015,0.194 0,0.664 0.539,1.203 1.204,1.203 0.665,0 1.205,-0.539 1.205,-1.203 0,-0.037 -0.002,-0.073 -0.005,-0.109 L 1.812,-6.759 C 1.75,-7.048 1.495,-7.263 1.189,-7.263 c -0.312,0 -0.571,0.224 -0.625,0.521 z"
             style="fill:#110f0d;fill-opacity:1;fill-rule:nonzero;stroke:none"
             id="path1454"
             inkscape:connector-curvature="0" /></g><g
           id="g1456"
           transform="translate(14.105,150.5493)"><path
             d="m 0,0 c -0.083,-0.156 -0.13,-0.338 -0.13,-0.529 0,-0.627 0.509,-1.137 1.137,-1.137 h 15.654 c 0.629,0 1.137,0.51 1.137,1.137 0,0.24 -0.073,0.461 -0.199,0.644 L 9.804,14.176 c -0.205,0.298 -0.548,0.493 -0.937,0.493 -0.437,0 -0.816,-0.246 -1.007,-0.608 z"
             style="fill:none;stroke:#110f0d;stroke-width:1;stroke-linecap:butt;stroke-linejoin:miter;stroke-miterlimit:4;stroke-dasharray:none;stroke-opacity:1"
             id="path1458"
             inkscape:connector-curvature="0" /></g><g
           id="g1460"
           transform="translate(53.8565,162.5019)"><path
             d="m 0,0 v -11.216 c -2.298,2.09 -5.153,2.506 -8.078,1.045 V 1.045 C -5.779,2.577 -2.02,2.438 0,0 Z"
             style="fill:none;stroke:#110f0d;stroke-width:0.5;stroke-linecap:round;stroke-linejoin:round;stroke-miterlimit:4;stroke-dasharray:none;stroke-opacity:1"
             id="path1462"
             inkscape:connector-curvature="0" /></g><g
           id="g1464"
           transform="translate(45.7779,162.4087)"><path
             d="m 0,0 c -0.826,-0.616 -1.565,-1.386 -2.157,-2.274 v -11.773 c 2.367,3.551 7.102,5.221 10.236,2.645"
             style="fill:none;stroke:#110f0d;stroke-width:0.5;stroke-linecap:round;stroke-linejoin:round;stroke-miterlimit:4;stroke-dasharray:none;stroke-opacity:1"
             id="path1466"
             inkscape:connector-curvature="0" /></g><g
           id="g1468"
           transform="translate(53.8565,162.5019)"><path
             d="m 0,0 v -11.216 c 2.297,2.09 5.153,2.506 8.078,1.045 V 1.045 C 5.78,2.577 2.019,2.438 0,0 Z"
             style="fill:none;stroke:#110f0d;stroke-width:0.5;stroke-linecap:round;stroke-linejoin:round;stroke-miterlimit:4;stroke-dasharray:none;stroke-opacity:1"
             id="path1470"
             inkscape:connector-curvature="0" /></g><g
           id="g1472"
           transform="translate(61.9366,162.4087)"><path
             d="m 0,0 c 0.825,-0.616 1.565,-1.386 2.156,-2.274 v -11.773 c -2.366,3.551 -7.102,5.221 -10.236,2.645"
             style="fill:none;stroke:#110f0d;stroke-width:0.5;stroke-linecap:round;stroke-linejoin:round;stroke-miterlimit:4;stroke-dasharray:none;stroke-opacity:1"
             id="path1474"
             inkscape:connector-curvature="0" /></g></g></g><g
       id="g1476"><g
         id="g1478"
         clip-path="url(#clipPath1482)"><g
           id="g1484"
           transform="translate(208.2907,124.6451)"><path
             d="M 0,0 C 0,1.037 -0.842,1.875 -1.875,1.875 -2.911,1.875 -3.75,1.037 -3.75,0 c 0,-1.035 0.839,-1.875 1.875,-1.875 C -0.842,-1.875 0,-1.035 0,0"
             style="fill:#ffffff;fill-opacity:1;fill-rule:evenodd;stroke:none"
             id="path1486"
             inkscape:connector-curvature="0" /></g><g
           id="g1488"
           transform="translate(206.4157,124.6451)"><path
             d="M 0,0 1.655,-45.155"
             style="fill:none;stroke:#ffffff;stroke-width:2.99900007;stroke-linecap:round;stroke-linejoin:miter;stroke-miterlimit:4;stroke-dasharray:none;stroke-opacity:1"
             id="path1490"
             inkscape:connector-curvature="0" /></g><g
           id="g1492"
           transform="translate(206.4157,124.6451)"><path
             d="M 0,0 1.655,-45.155"
             style="fill:none;stroke:#231f20;stroke-width:0.49900001;stroke-linecap:round;stroke-linejoin:miter;stroke-miterlimit:4;stroke-dasharray:none;stroke-opacity:1"
             id="path1494"
             inkscape:connector-curvature="0" /></g><g
           id="g1496"
           transform="translate(207.1657,124.6451)"><path
             d="M 0,0 C 0,0.413 -0.336,0.75 -0.75,0.75 -1.165,0.75 -1.5,0.413 -1.5,0 c 0,-0.413 0.335,-0.75 0.75,-0.75 C -0.336,-0.75 0,-0.413 0,0"
             style="fill:#231f20;fill-opacity:1;fill-rule:evenodd;stroke:none"
             id="path1498"
             inkscape:connector-curvature="0" /></g></g></g><text
       transform="matrix(1,0,0,-1,205.5117,66.3359)"
       style="font-variant:normal;font-weight:bold;font-stretch:normal;font-size:10px;font-family:Helvetica;-inkscape-font-specification:Helvetica-Bold;writing-mode:lr-tb;fill:#231f20;fill-opacity:1;fill-rule:nonzero;stroke:none"
       id="text1502"><tspan
         x="0"
         y="0"
         id="tspan1500">1</tspan></text>
<g
       id="g1504"><g
         id="g1506"
         clip-path="url(#clipPath1510)"><g
           id="g1512"
           transform="translate(135.253,43.8964)"><path
             d="M 0,0 C 0,1.037 -0.842,1.875 -1.875,1.875 -2.911,1.875 -3.75,1.037 -3.75,0 c 0,-1.035 0.839,-1.875 1.875,-1.875 C -0.842,-1.875 0,-1.035 0,0"
             style="fill:#ffffff;fill-opacity:1;fill-rule:evenodd;stroke:none"
             id="path1514"
             inkscape:connector-curvature="0" /></g><g
           id="g1516"
           transform="translate(133.378,43.8964)"><path
             d="M 0,0 33.192,-18.406"
             style="fill:none;stroke:#ffffff;stroke-width:2.99900007;stroke-linecap:round;stroke-linejoin:miter;stroke-miterlimit:4;stroke-dasharray:none;stroke-opacity:1"
             id="path1518"
             inkscape:connector-curvature="0" /></g><g
           id="g1520"
           transform="translate(133.378,43.8964)"><path
             d="M 0,0 33.192,-18.406"
             style="fill:none;stroke:#231f20;stroke-width:0.49900001;stroke-linecap:round;stroke-linejoin:miter;stroke-miterlimit:4;stroke-dasharray:none;stroke-opacity:1"
             id="path1522"
             inkscape:connector-curvature="0" /></g><g
           id="g1524"
           transform="translate(134.128,43.8964)"><path
             d="M 0,0 C 0,0.412 -0.336,0.75 -0.75,0.75 -1.165,0.75 -1.5,0.412 -1.5,0 c 0,-0.414 0.335,-0.75 0.75,-0.75 C -0.336,-0.75 0,-0.414 0,0"
             style="fill:#231f20;fill-opacity:1;fill-rule:evenodd;stroke:none"
             id="path1526"
             inkscape:connector-curvature="0" /></g></g></g><text
       transform="matrix(1,0,0,-1,170.5117,21.3359)"
       style="font-variant:normal;font-weight:bold;font-stretch:normal;font-size:10px;font-family:Helvetica;-inkscape-font-specification:Helvetica-Bold;writing-mode:lr-tb;fill:#231f20;fill-opacity:1;fill-rule:nonzero;stroke:none"
       id="text1530"><tspan
         x="0"
         y="0"
         id="tspan1528">2</tspan></text>
<text
       transform="matrix(1,0,0,-1,4.6641,4.5703)"
       style="font-variant:normal;font-weight:normal;font-stretch:normal;font-size:5px;font-family:Helvetica;-inkscape-font-specification:Helvetica;writing-mode:lr-tb;fill:#231f20;fill-opacity:1;fill-rule:nonzero;stroke:none"
       id="text1534"><tspan
         x="0 3.0550001 5.835 8.6149998 11.395 14.175 16.955"
         y="0"
         sodipodi:role="line"
         id="tspan1532">T0907_2</tspan></text>
</g></svg>