<?xml version="1.0" encoding="UTF-8" standalone="no"?>
<!-- Created with Inkscape (http://www.inkscape.org/) -->

<svg
   xmlns:dc="http://purl.org/dc/elements/1.1/"
   xmlns:cc="http://creativecommons.org/ns#"
   xmlns:rdf="http://www.w3.org/1999/02/22-rdf-syntax-ns#"
   xmlns:svg="http://www.w3.org/2000/svg"
   xmlns="http://www.w3.org/2000/svg"
   xmlns:sodipodi="http://sodipodi.sourceforge.net/DTD/sodipodi-0.dtd"
   xmlns:inkscape="http://www.inkscape.org/namespaces/inkscape"
   id="svg40404"
   version="1.1"
   inkscape:version="0.91 r13725"
   xml:space="preserve"
   width="620.07874"
   height="566.92877"
   viewBox="0 0 620.07874 566.92877"
   sodipodi:docname="Alternator flow_EN.svg"><metadata
     id="metadata40410"><rdf:RDF><cc:Work
         rdf:about=""><dc:format>image/svg+xml</dc:format><dc:type
           rdf:resource="http://purl.org/dc/dcmitype/StillImage" /><dc:title></dc:title></cc:Work></rdf:RDF></metadata><defs
     id="defs40408" /><sodipodi:namedview
     pagecolor="#ffffff"
     bordercolor="#666666"
     borderopacity="1"
     objecttolerance="10"
     gridtolerance="10"
     guidetolerance="10"
     inkscape:pageopacity="0"
     inkscape:pageshadow="2"
     inkscape:window-width="640"
     inkscape:window-height="480"
     id="namedview40406"
     showgrid="false"
     inkscape:zoom="2.132543"
     inkscape:cx="310.03937"
     inkscape:cy="283.46439"
     inkscape:window-x="0"
     inkscape:window-y="0"
     inkscape:window-maximized="1"
     inkscape:current-layer="g40412" /><g
     id="g40412"
     inkscape:groupmode="layer"
     inkscape:label="Alternator flow_EN"
     transform="matrix(1.25,0,0,-1.25,0,566.92875)"><g
       id="g40414"
       transform="translate(137.1211,183.5928)"><path
         d="M 0,0 0,-44.165"
         style="fill:none;stroke:#000000;stroke-width:0.73699999;stroke-linecap:round;stroke-linejoin:round;stroke-miterlimit:10;stroke-dasharray:none;stroke-opacity:1"
         id="path40416"
         inkscape:connector-curvature="0" /></g><g
       id="g40418"
       transform="translate(140.0582,140.1485)"><path
         d="M 0,0 -2.937,-5.818 -5.818,0 0,0 Z"
         style="fill:#000000;fill-opacity:1;fill-rule:evenodd;stroke:none"
         id="path40420"
         inkscape:connector-curvature="0" /></g><g
       id="g40422"
       transform="translate(223.1221,329.8824)"><path
         d="M 0,0 80.903,0"
         style="fill:none;stroke:#000000;stroke-width:0.73699999;stroke-linecap:round;stroke-linejoin:round;stroke-miterlimit:10;stroke-dasharray:none;stroke-opacity:1"
         id="path40424"
         inkscape:connector-curvature="0" /></g><g
       id="g40426"
       transform="translate(303.3057,332.8189)"><path
         d="M 0,0 5.817,-2.937 0,-5.874 0,0 Z"
         style="fill:#000000;fill-opacity:1;fill-rule:evenodd;stroke:none"
         id="path40428"
         inkscape:connector-curvature="0" /></g><path
       d="m 51.121,311.43 172.001,0 0,36.849 -172.001,0 0,-36.849 z"
       style="fill:#ffffff;fill-opacity:1;fill-rule:nonzero;stroke:#000000;stroke-width:0.73699999;stroke-linecap:round;stroke-linejoin:round;stroke-miterlimit:10;stroke-dasharray:none;stroke-opacity:1"
       id="path40430"
       inkscape:connector-curvature="0" /><text
       transform="matrix(1,0,0,-1,67.5786,340.3003)"
       style="font-variant:normal;font-weight:normal;font-stretch:normal;font-size:6.92659998px;font-family:TriumphBrokman;-inkscape-font-specification:TriumphBrokman-Regular;writing-mode:lr-tb;fill:#000000;fill-opacity:1;fill-rule:nonzero;stroke:none"
       id="text40432"><tspan
         x="0 6.3932519 8.1179752 12.086917 16.942463 19.034296 23.003239 27.810299 31.848507 33.940338 37.936989 42.529324 47.024689 48.770191 53.362526 57.359173 59.451008 64.029488 68.788063 73.380402 78.021225 79.745949 84.386765 88.833649 90.925476 95.40699 99.417488 101.50932 105.99083 110.52083 115.05083 119.8094 124.40173 128.99406"
         y="0"
         sodipodi:role="line"
         id="tspan40434">WITH THE ENGINE RUNNING AT AROUND </tspan><tspan
         x="8.2565069 11.858339 13.278293 17.344206 21.451681 25.517595 27.609428 32.194836 36.55167 42.16914 43.589092 45.680927 51.298401 55.336609 59.811192 63.60004 68.414032 72.944023 76.982231 79.025581 83.036079 87.850067 91.888275 93.98011 98.406204 102.88079 106.89129 110.85331 114.89152 119.42151 124.1316"
         y="8.3119202"
         sodipodi:role="line"
         id="tspan40436">2,000 RPM, MEASURE THE BATTERY </tspan><tspan
         x="-2.8745389 1.6416042 6.1646738 9.9258175 13.929393 18.397049 22.830074 26.861355 28.953188 33.420845 37.424419 39.467766 43.47134 48.2784 52.309685 54.353031 58.820686 63.288345 67.291916 71.247009 75.27829 79.808289 84.462959 85.952179 88.044014 91.9991 96.854645 100.83744 102.92928 107.39693 111.86459 115.81968 119.82325 123.80605 128.38454 133.0392"
         y="16.62384"
         sodipodi:role="line"
         id="tspan40438">VOLTAGE AT THE BATTERY. THE BATTERY </tspan><tspan
         x="4.3914642 8.9630203 13.44453 17.205675 21.216175 25.69076 30.186123 34.175846 36.267677 40.056526 44.912075 49.386658 54.138306 57.94101 62.484859 64.576691 69.051277 73.041 75.132828 77.370125 81.110489 82.613556 86.180756 88.279518 91.271805 93.370567 95.607857 99.175056 101.27382 105.83152 110.34074 114.14344 118.14009 121.96357"
         y="24.93576"
         sodipodi:role="line"
         id="tspan40440">VOLTAGE SHOULD BE 13.5 - 15 VOLTS </tspan></text>
<path
       d="m 309.123,305.279 135.152,0 0,49.151 -135.152,0 0,-49.151 z"
       style="fill:#ffffff;fill-opacity:1;fill-rule:nonzero;stroke:#000000;stroke-width:0.73699999;stroke-linecap:round;stroke-linejoin:round;stroke-miterlimit:10;stroke-dasharray:none;stroke-opacity:1"
       id="path40442"
       inkscape:connector-curvature="0" /><text
       transform="matrix(1,0,0,-1,321.5908,327.8315)"
       style="font-variant:normal;font-weight:normal;font-stretch:normal;font-size:6.92659998px;font-family:TriumphBrokman;-inkscape-font-specification:TriumphBrokman-Regular;writing-mode:lr-tb;fill:#000000;fill-opacity:1;fill-rule:nonzero;stroke:none"
       id="text40444"><tspan
         x="0 3.7888503 8.3119202 13.070495 16.873198 20.835213 25.545301 27.588648 32.160202 36.149925 40.09116 44.053177 45.812531 49.601383 51.360741 55.35046 59.922016 62.955868 67.485863 71.475586 75.957092 80.715668 84.525299 88.999886 93.003456 97.48497"
         y="0"
         sodipodi:role="line"
         id="tspan40446">FAULTY RECTIFIER/REGULATOR</tspan><tspan
         x="-67.880676 -63.357609 -58.931511 -54.450001 -49.878448"
         y="-13.022008"
         sodipodi:role="line"
         id="tspan40448">ABOVE</tspan><tspan
         x="-72.092056 -69.896324 -64.389671 -59.873531 -55.405872 -51.603168 -47.648083"
         y="-4.7100878"
         sodipodi:role="line"
         id="tspan40450">15VOLTS</tspan></text>
<g
       id="g40452"
       transform="translate(137.1211,311.4297)"><path
         d="M 0,0 0,-42.834"
         style="fill:none;stroke:#000000;stroke-width:0.73699999;stroke-linecap:round;stroke-linejoin:round;stroke-miterlimit:10;stroke-dasharray:none;stroke-opacity:1"
         id="path40454"
         inkscape:connector-curvature="0" /></g><g
       id="g40456"
       transform="translate(140.0582,269.3159)"><path
         d="M 0,0 -2.937,-5.874 -5.818,0 0,0 Z"
         style="fill:#000000;fill-opacity:1;fill-rule:evenodd;stroke:none"
         id="path40458"
         inkscape:connector-curvature="0" /></g><path
       d="m 51.121,183.593 172.001,0 0,79.849 -172.001,0 0,-79.849 z"
       style="fill:#ffffff;fill-opacity:1;fill-rule:nonzero;stroke:#000000;stroke-width:0.73699999;stroke-linecap:round;stroke-linejoin:round;stroke-miterlimit:10;stroke-dasharray:none;stroke-opacity:1"
       id="path40460"
       inkscape:connector-curvature="0" /><text
       transform="matrix(1,0,0,-1,65.4727,246.4307)"
       style="font-variant:normal;font-weight:normal;font-stretch:normal;font-size:6.92659998px;font-family:TriumphBrokman;-inkscape-font-specification:TriumphBrokman-Regular;writing-mode:lr-tb;fill:#000000;fill-opacity:1;fill-rule:nonzero;stroke:none"
       id="text40462"><tspan
         x="0 3.7888503 7.7993517 12.273935 16.630766 18.722599 22.733101 27.540161 31.529882 33.621716 37.659924 42.252258 46.692211 48.437714 53.078537 57.068256 59.160091 63.634674 68.275497 72.819344 74.911179 79.455032 81.200531 84.98938 88.937546 93.412125 98.004463 102.64529 106.63501 110.58317 114.54518 116.63702 120.59903 125.45458 129.44431"
         y="0"
         sodipodi:role="line"
         id="tspan40464">STOP THE ENGINE AND DISCONNECT THE </tspan><tspan
         x="-2.0987599 2.3827505 6.1854539 10.154396 14.192603 18.722599 23.314936 27.838005 31.806948 36.336945 40.86694 42.958775 46.858448 51.339958 55.980782 60.573116 64.611328 68.511002 72.479942 77.009941 81.539932 83.015305 85.107132 89.637131 93.633781 96.619141 100.45648 104.42542 108.94849 113.47849 117.44743 119.53926 123.54977 128.35683 132.35347"
         y="8.3119202"
         sodipodi:role="line"
         id="tspan40466">ALTERNATOR CONNECTOR. RE-START THE </tspan><tspan
         x="21.569433 25.559155 30.199976 34.639927 36.385429 40.977764 45.009048 47.10088 51.575462 56.167801 60.760136 62.851967 67.326553 71.129257 74.897324 79.427322 85.813644 87.856995 91.867493 96.349007 98.440842 100.18634 104.73019 108.5329 112.51569 114.01183"
         y="16.62384"
         sodipodi:role="line"
         id="tspan40468">ENGINE AND ALLOW TO IDLE. </tspan><tspan
         x="-4.6338954 1.0459166 5.0356383 9.5102215 13.347558 18.106133 22.691542 26.681263 28.773096 32.735111 37.597584 41.587307 43.679138 48.153725 51.963352 55.925369 59.963577 64.493576 69.141319 73.615906 77.626404 79.3442 83.991951 88.4319 90.523735 94.423409 99.237396 103.7674 108.29739 112.3356 116.92793 120.93844 122.98178 124.75499 129.27806 133.17773 134.95094"
         y="24.93576"
         sodipodi:role="line"
         id="tspan40470">MEASURE THE ALTERNATING CURRENT (AC) </tspan><tspan
         x="-6.1854539 -1.6208245 2.8537593 6.6633892 10.618478 15.134621 19.574572 23.605852 25.6492 29.47961 34.009605 38.525749 44.15015 46.241982 50.197071 55.004131 59.035412 61.127247 64.819122 66.910957 71.378616 75.18132 79.136406 83.167686 87.697685 92.338501 96.80616 100.80974 105.28432 109.81432 111.90615 116.38073 121.18779 125.14288 129.54128 134.29985 138.25493"
         y="33.247681"
         sodipodi:role="line"
         id="tspan40472">VOLTAGE FROM THE 3 ALTERNATOR OUTPUT </tspan><tspan
         x="-6.8988938 -0.51256841 1.2329348 5.7629313 9.7526531 13.58999 15.681823 17.39962 22.040442 24.132275 28.09429 32.852863 37.431347 42.023682 43.519829 45.61166 49.573677 54.380737 58.418945 60.510777 64.985359 69.743935 73.75444 78.111267 82.918327 86.880341 88.972176 93.495247 98.025246 101.79331 105.80382 110.2784 114.77377 118.76348 120.85532 126.47279 131.23137 135.0687 139.03072"
         y="41.615013"
         sodipodi:role="line"
         id="tspan40474">WIRES IN TURN. THE OUTPUT VOLTAGE MUST </tspan><tspan
         x="1.7455032 5.7282982 10.403753 14.303429 18.334711 22.317505 26.909842 28.953188 31.190479 34.757679 36.856438 41.414143 45.888725 49.691429 53.646519 57.470001 59.513348 64.02256 67.922241 70.014076 73.795998 78.374481 82.84906 88.473465 90.565292 94.589653 99.057304 102.95699 107.81253 109.90437 116.32532 118.01541 122.58004 126.56284"
         y="49.926933"
         sodipodi:role="line"
         id="tspan40476">EXCEED 15 VOLTS AC FROM EACH WIRE.</tspan><tspan
         x="32.499607 36.960339 40.950058 44.745834 49.227345 55.648304"
         y="-43.443634"
         sodipodi:role="line"
         id="tspan40478">BELOW </tspan><tspan
         x="28.842361 31.079655 34.820019 36.32309 39.890289 41.982124 46.505192 51.035191 54.789406 58.799908"
         y="-35.076302"
         sodipodi:role="line"
         id="tspan40480">13.5 VOLTS</tspan></text>
<path
       d="m 51.121,79.194 172.001,0 0,55.136 -172.001,0 0,-55.136 z"
       style="fill:#ffffff;fill-opacity:1;fill-rule:nonzero;stroke:#000000;stroke-width:0.73699999;stroke-linecap:round;stroke-linejoin:round;stroke-miterlimit:10;stroke-dasharray:none;stroke-opacity:1"
       id="path40482"
       inkscape:connector-curvature="0" /><text
       transform="matrix(1,0,0,-1,59.6548,121.3633)"
       style="font-variant:normal;font-weight:normal;font-stretch:normal;font-size:6.92659998px;font-family:TriumphBrokman;-inkscape-font-specification:TriumphBrokman-Regular;writing-mode:lr-tb;fill:#000000;fill-opacity:1;fill-rule:nonzero;stroke:none"
       id="text40484"><tspan
         x="0 4.5715561 9.0392132 10.79857 14.580493 18.611774 20.655121 24.658695 29.465755 33.497036 35.540386 39.571667 44.164001 48.645512 50.342529 54.976425 58.959221 61.051052 64.881462 69.231369 73.214165 77.245445 81.789291 83.881126 88.39727 92.816437 97.297951 101.86258 105.84538 107.93721 111.90615 113.27762 117.38509 121.49256 125.54462 127.63646 132.16646 136.56485 142.18924 143.68539"
         y="0"
         sodipodi:role="line"
         id="tspan40486">RAISE THE ENGINE SPEED ABOVE 4,000 RPM. </tspan><tspan
         x="1.1636688 6.8434806 10.833202 15.307786 19.145123 23.903696 28.489105 32.478828 34.57066 38.532677 43.395149 47.384872 49.476704 53.951286 57.760918 61.722931 65.761139 70.291138 74.938889 79.413467 83.423973 85.141769 89.789513 94.229469 96.321297 100.22098 105.03497 109.56496 114.09496 118.13316 122.7255 126.736 128.77934 130.55255 135.07562 138.9753 140.7485"
         y="8.3673325"
         sodipodi:role="line"
         id="tspan40488">MEASURE THE ALTERNATING CURRENT (AC) </tspan><tspan
         x="-0.38788959 4.1767397 8.6513233 12.460954 16.416042 20.932186 25.372135 29.403418 31.446764 35.277172 39.807171 44.323315 49.947712 52.039547 55.994633 60.801693 64.832977 66.924812 70.616684 72.708519 77.176178 80.978882 84.933968 88.965248 93.495247 98.13607 102.60373 106.6073 111.08189 115.61188 117.70371 122.1783 126.98536 130.94044 135.33884 140.09741 144.05251"
         y="16.679253"
         sodipodi:role="line"
         id="tspan40490">VOLTAGE FROM THE 3 ALTERNATOR OUTPUT </tspan><tspan
         x="-1.1013294 5.284996 7.030499 11.560495 15.550217 19.387554 21.479387 23.197184 27.838005 29.929838 33.891853 38.650429 43.228912 47.821247 49.31739 51.409225 55.371239 60.178299 64.216507 66.308342 70.782928 75.541496 79.552002 83.908829 88.715897 92.67791 94.769745 99.292809 103.82281 107.59088 111.60138 116.07597 120.57133 124.56105 126.65288 132.27036 137.02893 140.86626 144.82828"
         y="24.991173"
         sodipodi:role="line"
         id="tspan40492">WIRES IN TURN. THE OUTPUT VOLTAGE MUST </tspan><tspan
         x="-1.8771086 2.7152271 7.1898108 13.576136 15.667969 19.699251 24.32622 28.274382 32.264103 36.253826 40.846161 42.937992 46.643723 50.74427 52.836105 57.359173 61.833759 65.636459 69.591553 73.421959 75.513794 79.98838 83.888054 85.979889 89.810295 94.340294 98.814873 104.48776 106.53111 110.56239 115.03004 118.97821 123.78527 125.8771 132.26343 134.002 138.532 142.56328"
         y="33.303093"
         sodipodi:role="line"
         id="tspan40494">NOW EXCEED 30 VOLTS AC FROM EACH WIRE.</tspan></text>
<path
       d="m 51.121,5.495 172.001,0 0,24.548 -172.001,0 0,-24.548 z"
       style="fill:#ffffff;fill-opacity:1;fill-rule:nonzero;stroke:#000000;stroke-width:0.73699999;stroke-linecap:round;stroke-linejoin:round;stroke-miterlimit:10;stroke-dasharray:none;stroke-opacity:1"
       id="path40496"
       inkscape:connector-curvature="0" /><text
       transform="matrix(1,0,0,-1,82.0415,15.6914)"
       style="font-variant:normal;font-weight:normal;font-stretch:normal;font-size:6.92659998px;font-family:TriumphBrokman;-inkscape-font-specification:TriumphBrokman-Regular;writing-mode:lr-tb;fill:#000000;fill-opacity:1;fill-rule:nonzero;stroke:none"
       id="text40498"><tspan
         x="0 3.7888503 8.3049936 13.063567 16.86627 20.828287 25.482962 27.574795 32.146351 36.129147 40.02882 44.039322 45.798679 49.587528 51.346886 55.329681 59.901237 62.872749 67.444305 71.427101 75.908607 80.667183 84.476814 88.944473 92.948044 97.429558 101.95955"
         y="0"
         sodipodi:role="line"
         id="tspan40500">FAULTY RECTIFIER/REGULATOR </tspan><tspan
         x="16.069712 20.592781 25.011953 29.535023 34.051167"
         y="-143.96245"
         sodipodi:role="line"
         id="tspan40502">ABOVE</tspan><tspan
         x="6.0399952 10.161323 15.612556 20.177185 24.658695 28.468327 32.43034 36.26075 38.304096 42.82024"
         y="-135.59512"
         sodipodi:role="line"
         id="tspan40504">15VOLTS AC</tspan></text>
<g
       id="g40506"
       transform="translate(137.1211,79.1944)"><path
         d="M 0,0 0,-44.053"
         style="fill:none;stroke:#000000;stroke-width:0.73699999;stroke-linecap:round;stroke-linejoin:round;stroke-miterlimit:10;stroke-dasharray:none;stroke-opacity:1"
         id="path40508"
         inkscape:connector-curvature="0" /></g><g
       id="g40510"
       transform="translate(140.0582,35.8614)"><path
         d="M 0,0 -2.937,-5.818 -5.818,0 0,0 Z"
         style="fill:#000000;fill-opacity:1;fill-rule:evenodd;stroke:none"
         id="path40512"
         inkscape:connector-curvature="0" /></g><text
       transform="matrix(1,0,0,-1,252.9902,117.8721)"
       style="font-variant:normal;font-weight:normal;font-stretch:normal;font-size:6.92659998px;font-family:TriumphBrokman;-inkscape-font-specification:TriumphBrokman-Regular;writing-mode:lr-tb;fill:#000000;fill-opacity:1;fill-rule:nonzero;stroke:none"
       id="text40514"><tspan
         x="0 4.4191709 8.4573784 12.218522 16.748518"
         y="0"
         sodipodi:role="line"
         id="tspan40516">BELOW</tspan><tspan
         x="-9.4755888 -5.7282982 0.25628421 4.8209138 9.3024235 13.112054 17.074068 20.904478 22.947826 27.463968"
         y="8.3119202"
         sodipodi:role="line"
         id="tspan40518">30VOLTS AC</tspan></text>
<path
       d="m 309.732,86.73 133.933,0 0,39.953 -133.933,0 0,-39.953 z"
       style="fill:#ffffff;fill-opacity:1;fill-rule:nonzero;stroke:#000000;stroke-width:0.73699999;stroke-linecap:round;stroke-linejoin:round;stroke-miterlimit:10;stroke-dasharray:none;stroke-opacity:1"
       id="path40520"
       inkscape:connector-curvature="0" /><text
       transform="matrix(1,0,0,-1,339.1016,104.6289)"
       style="font-variant:normal;font-weight:normal;font-stretch:normal;font-size:6.92659998px;font-family:TriumphBrokman;-inkscape-font-specification:TriumphBrokman-Regular;writing-mode:lr-tb;fill:#000000;fill-opacity:1;fill-rule:nonzero;stroke:none"
       id="text40522"><tspan
         x="0 3.8304098 8.2980671 13.056641 16.859344 20.862919 25.517595 27.609428 32.084011 35.886715 39.848728 43.880013 48.410007 53.002342 57.518486 61.480503 66.003571"
         y="0"
         sodipodi:role="line"
         id="tspan40524">FAULTY ALTERNATOR</tspan><tspan
         x="-240.99026 -236.46719 -232.04802 -227.52496 -223.00882"
         y="50.536472"
         sodipodi:role="line"
         id="tspan40526">ABOVE</tspan><tspan
         x="-251.01999 -247.27269 -241.28812 -236.72348 -232.24197 -228.43234 -224.47032 -220.63992 -218.59657 -214.08043"
         y="58.848392"
         sodipodi:role="line"
         id="tspan40528">30VOLTS AC</tspan></text>
<path
       d="m 51.121,403.526 172.001,0 0,44.219 -172.001,0 0,-44.219 z"
       style="fill:#ffffff;fill-opacity:1;fill-rule:nonzero;stroke:#000000;stroke-width:0.73699999;stroke-linecap:round;stroke-linejoin:round;stroke-miterlimit:10;stroke-dasharray:none;stroke-opacity:1"
       id="path40530"
       inkscape:connector-curvature="0" /><text
       transform="matrix(1,0,0,-1,77.6089,436.0532)"
       style="font-variant:normal;font-weight:normal;font-stretch:normal;font-size:6.92659998px;font-family:TriumphBrokman;-inkscape-font-specification:TriumphBrokman-Regular;writing-mode:lr-tb;fill:#000000;fill-opacity:1;fill-rule:nonzero;stroke:none"
       id="text40532"><tspan
         x="0 3.9897215 8.6305437 12.419394 17.177967 21.756451 25.746172 27.838005 31.80002 36.655567 40.64529 42.737122 47.211704 51.686291 55.648304 59.658806 63.648529 68.227013 72.888611 74.980446 76.725945 80.514801 82.606628 84.352135 88.944473 91.036301 95.476257 100.00625 104.48083 109.02468"
         y="0"
         sodipodi:role="line"
         id="tspan40534">ENSURE THE BATTERY IS IN GOOD </tspan><tspan
         x="0.77577919 4.6754551 9.1569653 13.79086 18.334711 20.094067 24.056082 25.815437 30.296947 34.930843 37.022678 41.490334 46.082668 50.668079 52.759911 56.548763 61.307335 65.116966 68.926598 73.581268 75.673103 79.572784 84.428329 88.895981 93.42598 97.907494 101.89029 106.47569"
         y="8.3119202"
         sodipodi:role="line"
         id="tspan40536">CONDITION AND FULLY CHARGED.</tspan><tspan
         x="-1.3853199 2.5628419 7.3768291 11.415037 15.321639 19.616131 21.707964 26.231033 29.992178 33.808735 35.900566 40.326664 44.80125 48.811749 52.773766 56.811974 61.348896 66.058983 68.102333 72.625404 77.224663 81.817001 83.860344 88.348785 92.885704 97.367218 102.18121 106.78046 111.37973"
         y="16.62384"
         sodipodi:role="line"
         id="tspan40538">CHECK ALL BATTERY AND GROUND </tspan><tspan
         x="-1.5515584 2.4104569 6.4486647 10.978661 16.596134 18.341637 22.982458 27.457043 31.259747 35.048595 37.14043 41.615013 46.193497 50.183216 52.275051 56.174725 59.977428 63.967152 68.490219 73.082558 75.174393 79.648972 84.289795 88.833649 90.925476 94.887497 96.632996 101.07294 105.9285 109.89051"
         y="24.93576"
         sodipodi:role="line"
         id="tspan40540">TERMINALS ARE CLEAN AND TIGHT.</tspan></text>
<g
       id="g40542"
       transform="translate(137.1211,403.5264)"><path
         d="M 0,0 0,-50.094"
         style="fill:none;stroke:#000000;stroke-width:0.73699999;stroke-linecap:round;stroke-linejoin:round;stroke-miterlimit:10;stroke-dasharray:none;stroke-opacity:1"
         id="path40544"
         inkscape:connector-curvature="0" /></g><g
       id="g40546"
       transform="translate(140.0582,354.1534)"><path
         d="M 0,0 -2.937,-5.875 -5.818,0 0,0 Z"
         style="fill:#000000;fill-opacity:1;fill-rule:evenodd;stroke:none"
         id="path40548"
         inkscape:connector-curvature="0" /></g><text
       transform="matrix(1,0,0,-1,116.564,372.2734)"
       style="font-variant:normal;font-weight:normal;font-stretch:normal;font-size:6.92659998px;font-family:TriumphBrokman;-inkscape-font-specification:TriumphBrokman-Regular;writing-mode:lr-tb;fill:#000000;fill-opacity:1;fill-rule:nonzero;stroke:none"
       id="text40550"><tspan
         x="0 4.5299964"
         y="0"
         sodipodi:role="line"
         id="tspan40552">OK</tspan></text>
<path
       d="m 309.123,401.032 135.152,0 0,49.151 -135.152,0 0,-49.151 z"
       style="fill:#ffffff;fill-opacity:1;fill-rule:nonzero;stroke:#000000;stroke-width:0.73699999;stroke-linecap:round;stroke-linejoin:round;stroke-miterlimit:10;stroke-dasharray:none;stroke-opacity:1"
       id="path40554"
       inkscape:connector-curvature="0" /><text
       transform="matrix(1,0,0,-1,319.4297,431.8984)"
       style="font-variant:normal;font-weight:normal;font-stretch:normal;font-size:6.92659998px;font-family:TriumphBrokman;-inkscape-font-specification:TriumphBrokman-Regular;writing-mode:lr-tb;fill:#000000;fill-opacity:1;fill-rule:nonzero;stroke:none"
       id="text40556"><tspan
         x="0 4.5854092 8.5751305 12.530219 17.344206 21.81879 26.4042 30.844151 34.882359 36.925705 41.4557 45.992622 48.084457 52.614452 56.65266 61.009491 64.819122 69.293709 73.248795 77.238518 79.330353 83.119202 87.642273 92.400841 96.210472 100.17249 104.88258"
         y="0"
         sodipodi:role="line"
         id="tspan40558">RECHARGE OR REPLACE FAULTY </tspan><tspan
         x="12.911182 17.385765 21.86035 25.870852 29.832867 33.871075 38.40107 43.11116 45.154507 49.677574 54.269913 58.813759 61.833759 66.356827 70.886826 72.978661 77.508652 81.54686 85.903694 90.426765 92.123779 96.702263"
         y="8.3119202"
         sodipodi:role="line"
         id="tspan40560">BATTERY AND/OR REPAIR </tspan><tspan
         x="6.3724718 10.964808 12.661825 17.240307 21.202322 25.912411 28.883923 32.700478 37.181988 41.705059 45.493908 49.532116 51.575462 55.523624 60.005135 64.597473 69.238297 73.228012 77.176178 81.138191 82.883698 87.365204 92.006027 95.794876"
         y="16.62384"
         sodipodi:role="line"
         id="tspan40562">DIRTY/LOOSE CONNECTIONS.</tspan></text>
<g
       id="g40564"
       transform="translate(223.1221,425.6353)"><path
         d="M 0,0 80.903,0"
         style="fill:none;stroke:#000000;stroke-width:0.73699999;stroke-linecap:round;stroke-linejoin:round;stroke-miterlimit:10;stroke-dasharray:none;stroke-opacity:1"
         id="path40566"
         inkscape:connector-curvature="0" /></g><g
       id="g40568"
       transform="translate(303.3057,428.5728)"><path
         d="M 0,0 5.817,-2.938 0,-5.874 0,0 Z"
         style="fill:#000000;fill-opacity:1;fill-rule:evenodd;stroke:none"
         id="path40570"
         inkscape:connector-curvature="0" /></g><g
       id="g40572"
       transform="translate(376.7276,401.0323)"><path
         d="m 0,0 0,-20.336 -215.002,0 0,-27.264"
         style="fill:none;stroke:#000000;stroke-width:0.73699999;stroke-linecap:round;stroke-linejoin:round;stroke-miterlimit:10;stroke-dasharray:none;stroke-opacity:1"
         id="path40574"
         inkscape:connector-curvature="0" /></g><g
       id="g40576"
       transform="translate(164.6065,354.1534)"><path
         d="M 0,0 -2.881,-5.875 -5.819,0 0,0 Z"
         style="fill:#000000;fill-opacity:1;fill-rule:evenodd;stroke:none"
         id="path40578"
         inkscape:connector-curvature="0" /></g><text
       transform="matrix(1,0,0,-1,261.5244,386.4043)"
       style="font-variant:normal;font-weight:normal;font-stretch:normal;font-size:6.92659998px;font-family:TriumphBrokman;-inkscape-font-specification:TriumphBrokman-Regular;writing-mode:lr-tb;fill:#000000;fill-opacity:1;fill-rule:nonzero;stroke:none"
       id="text40580"><tspan
         x="0 4.5299964"
         y="0"
         sodipodi:role="line"
         id="tspan40582">OK</tspan><tspan
         x="-9.918891 -5.3265553 -0.80348557 3.1585295 5.2503629 9.724946"
         y="-43.332809"
         sodipodi:role="line"
         id="tspan40584">NOT OK</tspan></text>
<g
       id="g40586"
       transform="translate(223.1221,106.7344)"><path
         d="m 0,0 18.453,0 0,-0.056 63.06,0"
         style="fill:none;stroke:#000000;stroke-width:0.73699999;stroke-linecap:round;stroke-linejoin:round;stroke-miterlimit:10;stroke-dasharray:none;stroke-opacity:1"
         id="path40588"
         inkscape:connector-curvature="0" /></g><g
       id="g40590"
       transform="translate(303.9141,109.6162)"><path
         d="M 0,0 5.818,-2.938 0,-5.818 0,0 Z"
         style="fill:#000000;fill-opacity:1;fill-rule:evenodd;stroke:none"
         id="path40592"
         inkscape:connector-curvature="0" /></g><g
       id="g40594"
       transform="translate(223.7959,224.6514)"><path
         d="M 0,0 149.421,0"
         style="fill:none;stroke:#000000;stroke-width:0.73699999;stroke-linecap:round;stroke-linejoin:round;stroke-miterlimit:10;stroke-dasharray:none;stroke-opacity:1"
         id="path40596"
         inkscape:connector-curvature="0" /></g><text
       transform="matrix(1,0,0,-1,252.3848,234.6245)"
       style="font-variant:normal;font-weight:normal;font-stretch:normal;font-size:6.92659998px;font-family:TriumphBrokman;-inkscape-font-specification:TriumphBrokman-Regular;writing-mode:lr-tb;fill:#000000;fill-opacity:1;fill-rule:nonzero;stroke:none"
       id="text40598"><tspan
         x="0 4.4745836 8.5127916 12.329348 16.852417"
         y="0"
         sodipodi:role="line"
         id="tspan40600">BELOW</tspan><tspan
         x="-7.2105904 -5.0148582 0.4917886 5.0079317 9.4755888 13.278293 17.233381 21.036085 23.114063 27.602501"
         y="7.3144894"
         sodipodi:role="line"
         id="tspan40602">15VOLTS AC</tspan></text>
<g
       id="g40604"
       transform="translate(373.2119,224.5938)"><path
         d="M 0,0 0,-92.157"
         style="fill:none;stroke:#000000;stroke-width:0.73699999;stroke-linecap:round;stroke-linejoin:round;stroke-miterlimit:10;stroke-dasharray:none;stroke-opacity:1"
         id="path40606"
         inkscape:connector-curvature="0" /></g><g
       id="g40608"
       transform="translate(376.1494,133.1573)"><path
         d="M 0,0 -2.938,-5.874 -5.818,0 0,0 Z"
         style="fill:#000000;fill-opacity:1;fill-rule:evenodd;stroke:none"
         id="path40610"
         inkscape:connector-curvature="0" /></g></g></svg>