<?xml version="1.0" encoding="UTF-8" standalone="no"?>
<!-- Created with Inkscape (http://www.inkscape.org/) -->

<svg
   xmlns:dc="http://purl.org/dc/elements/1.1/"
   xmlns:cc="http://creativecommons.org/ns#"
   xmlns:rdf="http://www.w3.org/1999/02/22-rdf-syntax-ns#"
   xmlns:svg="http://www.w3.org/2000/svg"
   xmlns="http://www.w3.org/2000/svg"
   xmlns:sodipodi="http://sodipodi.sourceforge.net/DTD/sodipodi-0.dtd"
   xmlns:inkscape="http://www.inkscape.org/namespaces/inkscape"
   version="1.1"
   id="svg2106"
   xml:space="preserve"
   width="321.26001"
   height="245.66933"
   viewBox="0 0 321.26001 245.66933"
   sodipodi:docname="clev.svg"
   inkscape:version="0.92.4 (5da689c313, 2019-01-14)"><metadata
     id="metadata2112"><rdf:RDF><cc:Work
         rdf:about=""><dc:format>image/svg+xml</dc:format><dc:type
           rdf:resource="http://purl.org/dc/dcmitype/StillImage" /><dc:title></dc:title></cc:Work></rdf:RDF></metadata><defs
     id="defs2110"><clipPath
       clipPathUnits="userSpaceOnUse"
       id="clipPath2122"><path
         d="M 0,184.252 H 240.945 V 0 H 0 Z"
         id="path2120"
         inkscape:connector-curvature="0" /></clipPath><clipPath
       clipPathUnits="userSpaceOnUse"
       id="clipPath2158"><path
         d="M 0,184.252 H 240.945 V 0 H 0 Z"
         id="path2156"
         inkscape:connector-curvature="0" /></clipPath></defs><sodipodi:namedview
     pagecolor="#ffffff"
     bordercolor="#666666"
     borderopacity="1"
     objecttolerance="10"
     gridtolerance="10"
     guidetolerance="10"
     inkscape:pageopacity="0"
     inkscape:pageshadow="2"
     inkscape:window-width="2560"
     inkscape:window-height="1377"
     id="namedview2108"
     showgrid="false"
     inkscape:zoom="4.9171788"
     inkscape:cx="160.63"
     inkscape:cy="122.83466"
     inkscape:window-x="-8"
     inkscape:window-y="-8"
     inkscape:window-maximized="1"
     inkscape:current-layer="g2114" /><g
     id="g2114"
     inkscape:groupmode="layer"
     inkscape:label="clev"
     transform="matrix(1.3333333,0,0,-1.3333333,0,245.66933)"><g
       id="g2116"><g
         id="g2118"
         clip-path="url(#clipPath2122)"><g
           id="g2124"
           transform="translate(25.9253,83.04)"><path
             d="m 0,0 v 16.008 c 0,1.088 0.312,1.243 0.777,2.176 0.466,0.932 9.015,14.298 10.724,16.474 1.71,2.175 5.595,3.574 16.785,2.952 5.411,-0.3 29.802,-1.505 53.928,-1.554 25.096,-0.052 49.941,1.065 54.862,1.399 9.17,0.622 15.23,-0.777 16.318,-2.797 1.088,-2.021 8.704,-16.008 9.17,-16.941 0.466,-0.932 0.777,-1.399 0.777,-3.574 V 0.155"
             style="fill:none;stroke:#000000;stroke-width:1;stroke-linecap:round;stroke-linejoin:round;stroke-miterlimit:10;stroke-dasharray:none;stroke-opacity:1"
             id="path2126"
             inkscape:connector-curvature="0" /></g><g
           id="g2128"
           transform="translate(26.7026,101.2236)"><path
             d="m 0,0 c -1.088,-2.021 -0.777,-3.73 7.771,-4.973 8.547,-1.244 34.036,-2.487 71.801,-2.487 37.765,0 69.47,1.709 75.065,2.176 5.595,0.466 8.081,2.487 7.616,3.73"
             style="fill:none;stroke:#000000;stroke-width:0.5;stroke-linecap:round;stroke-linejoin:round;stroke-miterlimit:10;stroke-dasharray:none;stroke-opacity:1"
             id="path2130"
             inkscape:connector-curvature="0" /></g><g
           id="g2132"
           transform="translate(25.9199,82.9736)"><path
             d="m 0,0 c 0.096,-1.394 2.063,-2.564 8.553,-3.508 8.548,-1.244 34.037,-2.487 71.802,-2.487 37.765,0 69.47,1.71 75.065,2.176 5.595,0.465 8.005,2.378 7.898,3.94"
             style="fill:none;stroke:#000000;stroke-width:0.5;stroke-linecap:round;stroke-linejoin:round;stroke-miterlimit:10;stroke-dasharray:none;stroke-opacity:1"
             id="path2134"
             inkscape:connector-curvature="0" /></g><g
           id="g2136"
           transform="translate(226,74.5849)"><path
             d="m 0,0 c 0,-1.702 -4.775,-3.081 -10.666,-3.081 -5.891,0 -10.666,1.379 -10.666,3.081"
             style="fill:none;stroke:#000000;stroke-width:1;stroke-linecap:round;stroke-linejoin:round;stroke-miterlimit:10;stroke-dasharray:none;stroke-opacity:1"
             id="path2138"
             inkscape:connector-curvature="0" /></g><g
           id="g2140"
           transform="translate(204.668,74.5849)"><path
             d="M 0,0 C 0,1.702 4.775,3.081 10.666,3.081 16.557,3.081 21.332,1.702 21.332,0"
             style="fill:none;stroke:#000000;stroke-width:0.5;stroke-linecap:round;stroke-linejoin:round;stroke-miterlimit:10;stroke-dasharray:none;stroke-opacity:1"
             id="path2142"
             inkscape:connector-curvature="0" /></g><g
           id="g2144"
           transform="translate(25.8584,92.5683)"><path
             d="m 0,0 c 0,0 -15.525,0.07 -17.405,0.07 -1.88,0 -2.924,-0.487 -3.063,-1.184 -0.139,-0.696 -0.906,-13.993 -0.975,-14.829 -0.011,-0.127 -0.013,-0.246 -0.004,-0.358 v -8.563 c 0.05,-0.617 0.456,-0.976 1.814,-1.034 1.602,-0.07 3.62,-0.071 5.5,-0.14 1.88,-0.069 2.158,0.487 4.038,1.393 1.88,0.905 5.082,1.74 11.557,1.322 6.475,-0.418 15.039,-0.904 18.31,-1.184 3.272,-0.279 4.456,-0.487 6.545,-1.183 2.089,-0.697 2.367,-0.905 4.595,-1.044 2.227,-0.14 8.424,-0.557 11,-0.488 2.575,0.07 4.525,0.557 6.823,1.044 2.298,0.488 2.645,0.976 7.936,1.045 5.291,0.07 43.374,-0.069 48.526,0 5.153,0.07 6.893,-0.765 9.19,-1.392 2.297,-0.627 3.481,-0.906 6.196,-0.906 2.715,0 8.354,0.349 10.025,0.418 1.671,0.07 3.203,0.557 4.804,1.253 1.601,0.697 2.298,0.975 6.336,1.184 4.038,0.209 7.867,0.487 15.804,0.765 7.936,0.279 10.443,-1.67 11.346,-3.56 1.397,-2.921 10.074,-5.176 20.578,-5.176 11.47,0 20.77,2.686 20.77,6 v 8.564 c 0,1.242 -1.308,2.396 -3.547,3.354 L 163.404,1.029"
             style="fill:none;stroke:#000000;stroke-width:1;stroke-linecap:round;stroke-linejoin:round;stroke-miterlimit:10;stroke-dasharray:none;stroke-opacity:1"
             id="path2146"
             inkscape:connector-curvature="0" /></g><g
           id="g2148"
           transform="translate(236.1045,74.5849)"><path
             d="m 0,0 c 0,-3.314 -9.3,-6 -20.77,-6 -10.504,0 -19.181,2.255 -20.578,5.176 -0.903,1.889 -3.41,3.839 -11.346,3.56 -7.937,-0.278 -11.766,-0.556 -15.804,-0.765 -4.038,-0.209 -4.735,-0.488 -6.336,-1.184 -1.601,-0.696 -3.133,-1.184 -4.804,-1.253 -1.671,-0.069 -7.31,-0.418 -10.025,-0.418 -2.715,0 -3.899,0.278 -6.196,0.905 -2.297,0.627 -4.037,1.462 -9.19,1.393 -5.152,-0.069 -43.235,0.069 -48.526,0 -5.291,-0.069 -5.638,-0.558 -7.936,-1.045 -2.298,-0.487 -4.248,-0.975 -6.823,-1.044 -2.576,-0.069 -8.773,0.348 -11,0.487 -2.228,0.14 -2.506,0.348 -4.595,1.044 -2.089,0.697 -3.273,0.905 -6.545,1.184 -3.272,0.279 -11.835,0.766 -18.31,1.184 -6.475,0.418 -9.677,-0.417 -11.557,-1.323 -1.88,-0.905 -2.158,-1.462 -4.038,-1.392 -1.88,0.069 -3.898,0.07 -5.5,0.139 -1.358,0.059 -1.764,0.417 -1.814,1.035"
             style="fill:none;stroke:#000000;stroke-width:0.5;stroke-linecap:round;stroke-linejoin:round;stroke-miterlimit:10;stroke-dasharray:none;stroke-opacity:1"
             id="path2150"
             inkscape:connector-curvature="0" /></g></g></g><g
       id="g2152"><g
         id="g2154"
         clip-path="url(#clipPath2158)"><text
           transform="matrix(1,0,0,-1,2.3228,2.0566)"
           style="font-variant:normal;font-weight:normal;font-stretch:normal;font-size:4px;font-family:Arial;-inkscape-font-specification:ArialMT;writing-mode:lr-tb;fill:#000000;fill-opacity:1;fill-rule:nonzero;stroke:none"
           id="text2162"><tspan
             x="0 2 2.888 5.112"
             y="0"
             sodipodi:role="line"
             id="tspan2160">clev</tspan></text>
</g></g><g
       id="g2164"
       transform="translate(47.9399,144.0605)"><path
         d="M 0,0 15.227,-31.392"
         style="fill:none;stroke:#ffffff;stroke-width:3;stroke-linecap:round;stroke-linejoin:miter;stroke-miterlimit:4;stroke-dasharray:none;stroke-opacity:1"
         id="path2166"
         inkscape:connector-curvature="0" /></g><g
       id="g2168"
       transform="translate(63.167,112.6689)"><path
         d="M 0,0 V 0"
         style="fill:none;stroke:#ffffff;stroke-width:3.75;stroke-linecap:round;stroke-linejoin:miter;stroke-miterlimit:4;stroke-dasharray:none;stroke-opacity:1"
         id="path2170"
         inkscape:connector-curvature="0" /></g><g
       id="g2172"
       transform="translate(47.9399,144.0605)"><path
         d="M 0,0 15.227,-31.392"
         style="fill:none;stroke:#000000;stroke-width:0.5;stroke-linecap:round;stroke-linejoin:miter;stroke-miterlimit:4;stroke-dasharray:none;stroke-opacity:1"
         id="path2174"
         inkscape:connector-curvature="0" /></g><g
       id="g2176"
       transform="translate(63.167,112.6689)"><path
         d="M 0,0 V 0"
         style="fill:none;stroke:#000000;stroke-width:1.5;stroke-linecap:round;stroke-linejoin:miter;stroke-miterlimit:4;stroke-dasharray:none;stroke-opacity:1"
         id="path2178"
         inkscape:connector-curvature="0" /></g><g
       id="g2180"
       transform="translate(187.917,40.4189)"><path
         d="M 0,0 10.25,36"
         style="fill:none;stroke:#ffffff;stroke-width:3;stroke-linecap:round;stroke-linejoin:miter;stroke-miterlimit:4;stroke-dasharray:none;stroke-opacity:1"
         id="path2182"
         inkscape:connector-curvature="0" /></g><g
       id="g2184"
       transform="translate(198.167,76.4189)"><path
         d="M 0,0 V 0"
         style="fill:none;stroke:#ffffff;stroke-width:3.75;stroke-linecap:round;stroke-linejoin:miter;stroke-miterlimit:4;stroke-dasharray:none;stroke-opacity:1"
         id="path2186"
         inkscape:connector-curvature="0" /></g><g
       id="g2188"
       transform="translate(187.917,40.4189)"><path
         d="M 0,0 10.25,36"
         style="fill:none;stroke:#000000;stroke-width:0.5;stroke-linecap:round;stroke-linejoin:miter;stroke-miterlimit:4;stroke-dasharray:none;stroke-opacity:1"
         id="path2190"
         inkscape:connector-curvature="0" /></g><g
       id="g2192"
       transform="translate(198.167,76.4189)"><path
         d="M 0,0 V 0"
         style="fill:none;stroke:#000000;stroke-width:1.5;stroke-linecap:round;stroke-linejoin:miter;stroke-miterlimit:4;stroke-dasharray:none;stroke-opacity:1"
         id="path2194"
         inkscape:connector-curvature="0" /></g><text
       transform="matrix(1,0,0,-1,43.5767,146.2715)"
       style="font-variant:normal;font-weight:bold;font-stretch:normal;font-size:10px;font-family:'Swiss 721 SWA';-inkscape-font-specification:Helvetica-Bold;writing-mode:lr-tb;fill:#000000;fill-opacity:1;fill-rule:nonzero;stroke:none"
       id="text2200"><tspan
         x="0"
         y="0"
         id="tspan2196">2</tspan><tspan
         x="140"
         y="115.15"
         id="tspan2198">1</tspan></text>
</g></svg>