<?xml version="1.0" encoding="UTF-8" standalone="no"?>
<!-- Created with Inkscape (http://www.inkscape.org/) -->

<svg
   xmlns:dc="http://purl.org/dc/elements/1.1/"
   xmlns:cc="http://creativecommons.org/ns#"
   xmlns:rdf="http://www.w3.org/1999/02/22-rdf-syntax-ns#"
   xmlns:svg="http://www.w3.org/2000/svg"
   xmlns="http://www.w3.org/2000/svg"
   xmlns:sodipodi="http://sodipodi.sourceforge.net/DTD/sodipodi-0.dtd"
   xmlns:inkscape="http://www.inkscape.org/namespaces/inkscape"
   version="1.1"
   id="svg34328"
   xml:space="preserve"
   width="84.998428mm"
   height="65mm"
   viewBox="0 0 321.25391 245.66931"
   sodipodi:docname="TP0098.svg"
   inkscape:version="0.92.4 (5da689c313, 2019-01-14)"><metadata
     id="metadata34334"><rdf:RDF><cc:Work
         rdf:about=""><dc:format>image/svg+xml</dc:format><dc:type
           rdf:resource="http://purl.org/dc/dcmitype/StillImage" /><dc:title></dc:title></cc:Work></rdf:RDF></metadata><defs
     id="defs34332"><clipPath
       clipPathUnits="userSpaceOnUse"
       id="clipPath34344"><path
         d="m 0,-185.10938 c 0,0 240.94043,0 240.94043,0 0,0 0,184.25 0,184.25 0,0 -240.94043,0 -240.94043,0 0,0 0,-184.25 0,-184.25 z"
         id="path34342"
         inkscape:connector-curvature="0" /></clipPath></defs><sodipodi:namedview
     pagecolor="#ffffff"
     bordercolor="#666666"
     borderopacity="1"
     objecttolerance="10"
     gridtolerance="10"
     guidetolerance="10"
     inkscape:pageopacity="0"
     inkscape:pageshadow="2"
     inkscape:window-width="1194"
     inkscape:window-height="801"
     id="namedview34330"
     showgrid="false"
     units="mm"
     inkscape:zoom="2.4653397"
     inkscape:cx="160.62695"
     inkscape:cy="123.40626"
     inkscape:window-x="114"
     inkscape:window-y="88"
     inkscape:window-maximized="0"
     inkscape:current-layer="g34336" /><g
     id="g34336"
     inkscape:groupmode="layer"
     inkscape:label="TP0098"
     transform="matrix(1.3333333,0,0,-1.3333333,0,245.6693)"><g
       id="g34338"
       transform="scale(1,-1)"><g
         id="g34340"
         clip-path="url(#clipPath34344)"><path
           d="m 152.34961,-18.61523 c 31.28711,-16.56348 40.25781,-60.95704 20.03809,-99.1504 -20.21875,-38.1958 -61.97706,-55.73193 -93.26416,-39.16894"
           style="fill:none;stroke:#231f20;stroke-width:0.5;stroke-linecap:round;stroke-linejoin:round;stroke-miterlimit:4;stroke-dasharray:none;stroke-opacity:1"
           id="path34346"
           inkscape:connector-curvature="0" /><path
           d="m 163.04785,-24.10156 c 31.32324,-16.58301 40.30567,-61.02637 20.06153,-99.26319 -20.24317,-38.24023 -62.04786,-55.79589 -93.37159,-39.21191 0,0 -10.67383,5.6499 -10.67383,5.6499 -31.32177,16.58399 -40.30419,61.0249 -20.06201,99.26465 20.24317,38.23828 62.04785,55.79492 93.37207,39.21191 0,0 10.67383,-5.65136 10.67383,-5.65136 z"
           style="fill:none;stroke:#231f20;stroke-width:1;stroke-linecap:round;stroke-linejoin:round;stroke-miterlimit:4;stroke-dasharray:none;stroke-opacity:1"
           id="path34348"
           inkscape:connector-curvature="0" /><path
           d="m 164.18164,-110.05664 c 1.98438,-1.14502 2.45801,-4.03711 1.06055,-6.45801 -1.39844,-2.4209 -4.14063,-3.45605 -6.12305,-2.31006 -1.98437,1.14502 -2.45801,4.03516 -1.06055,6.45703 1.39746,2.4209 4.13868,3.45704 6.12305,2.31104"
           style="fill:none;stroke:#231f20;stroke-width:0.5;stroke-linecap:round;stroke-linejoin:round;stroke-miterlimit:4;stroke-dasharray:none;stroke-opacity:1"
           id="path34350"
           inkscape:connector-curvature="0" /><path
           d="m 164.11133,-111.31152 c -1.54297,0.89111 -3.67383,0.0859 -4.76172,-1.7959 -1.08594,-1.88428 -0.7168,-4.13281 0.82617,-5.02295 1.54102,-0.89014 3.67285,-0.0859 4.76074,1.79687 1.08692,1.88282 0.71875,4.13184 -0.82519,5.02198 z"
           style="fill:none;stroke:#231f20;stroke-width:0.5;stroke-linecap:round;stroke-linejoin:round;stroke-miterlimit:4;stroke-dasharray:none;stroke-opacity:1"
           id="path34352"
           inkscape:connector-curvature="0" /><path
           d="m 85.22607,-139.97656 c 1.98389,-1.14502 2.45801,-4.03711 1.06006,-6.45703 -1.39795,-2.42237 -4.13916,-3.45704 -6.12304,-2.31104 -1.98291,1.14404 -2.45899,4.03565 -1.06006,6.45801 1.39697,2.41992 4.13916,3.45605 6.12304,2.31006"
           style="fill:none;stroke:#231f20;stroke-width:0.5;stroke-linecap:round;stroke-linejoin:round;stroke-miterlimit:4;stroke-dasharray:none;stroke-opacity:1"
           id="path34354"
           inkscape:connector-curvature="0" /><path
           d="m 85.15625,-141.23145 c -1.54199,0.89209 -3.67432,0.0859 -4.76221,-1.79589 -1.08691,-1.88526 -0.71679,-4.1333 0.8252,-5.02295 1.54297,-0.89014 3.67383,-0.0864 4.76074,1.79687 1.08789,1.88281 0.71924,4.13184 -0.82373,5.02197 z"
           style="fill:none;stroke:#231f20;stroke-width:0.5;stroke-linecap:round;stroke-linejoin:round;stroke-miterlimit:4;stroke-dasharray:none;stroke-opacity:1"
           id="path34356"
           inkscape:connector-curvature="0" /><path
           d="m 70.47314,-56.0332 c 1.98389,-1.14746 2.45899,-4.03809 1.06006,-6.45801 -1.39697,-2.42383 -4.13916,-3.45703 -6.12304,-2.3125 -1.98194,1.14648 -2.45703,4.03711 -1.06006,6.45898 1.39892,2.41993 4.13916,3.45508 6.12304,2.31153"
           style="fill:none;stroke:#231f20;stroke-width:0.5;stroke-linecap:round;stroke-linejoin:round;stroke-miterlimit:4;stroke-dasharray:none;stroke-opacity:1"
           id="path34358"
           inkscape:connector-curvature="0" /><path
           d="m 70.40332,-57.28906 c -1.54102,0.8916 -3.67432,0.08593 -4.76123,-1.79688 -1.08691,-1.88281 -0.71777,-4.13086 0.82422,-5.02246 1.54297,-0.89062 3.6748,-0.08594 4.76172,1.79688 1.0874,1.88379 0.71924,4.13183 -0.82471,5.02246 z"
           style="fill:none;stroke:#231f20;stroke-width:0.5;stroke-linecap:round;stroke-linejoin:round;stroke-miterlimit:4;stroke-dasharray:none;stroke-opacity:1"
           id="path34360"
           inkscape:connector-curvature="0" /><path
           d="m 149.61621,-26.05176 c 1.98438,-1.14648 2.45801,-4.03515 1.06055,-6.45703 -1.39844,-2.42383 -4.14063,-3.45703 -6.12305,-2.3125 -1.98437,1.14649 -2.45703,4.03711 -1.06055,6.45899 1.39844,2.42187 4.13868,3.45507 6.12305,2.31054"
           style="fill:none;stroke:#231f20;stroke-width:0.5;stroke-linecap:round;stroke-linejoin:round;stroke-miterlimit:4;stroke-dasharray:none;stroke-opacity:1"
           id="path34362"
           inkscape:connector-curvature="0" /><path
           d="m 149.54688,-27.30664 c -1.54395,0.8916 -3.67481,0.08594 -4.7627,-1.79688 -1.08691,-1.88378 -0.7168,-4.13183 0.82617,-5.02246 1.54102,-0.89062 3.67285,-0.08593 4.75977,1.79688 1.08789,1.88281 0.71972,4.13086 -0.82324,5.02246 z"
           style="fill:none;stroke:#231f20;stroke-width:0.5;stroke-linecap:round;stroke-linejoin:round;stroke-miterlimit:4;stroke-dasharray:none;stroke-opacity:1"
           id="path34364"
           inkscape:connector-curvature="0" /><path
           d="m 151.34668,-19.38379 c 30.79395,-16.30078 39.62402,-59.99512 19.72266,-97.58887 -19.90235,-37.59277 -61.00147,-54.85205 -91.79541,-38.5498 -30.7959,16.30371 -39.625,59.99609 -19.72266,97.58887 19.90186,37.59277 61,54.85449 91.79541,38.5498"
           style="fill:none;stroke:#231f20;stroke-width:0.5;stroke-linecap:round;stroke-linejoin:round;stroke-miterlimit:4;stroke-dasharray:none;stroke-opacity:1"
           id="path34366"
           inkscape:connector-curvature="0" /><path
           d="m 100.78857,-135.40576 c -0.0391,0.32812 -0.6538,0.79101 -1.23974,0.94678 0,0 -0.07031,0.0381 -0.07031,0.0381 -0.95899,0.20899 -1.53077,-0.31396 -1.53077,-0.31396 0,0 -0.27929,-0.1709 -0.57129,-0.52881 -0.29296,-0.35791 -1.16894,-0.4209 -1.16894,-0.4209 0,0 -1.52588,-0.0332 -2.0459,-0.0654 -0.52002,-0.0327 -1.05273,-0.60791 -1.05273,-0.60791 0,0 -3.89942,-3.06104 -3.89942,-3.06104"
           style="fill:none;stroke:#231f20;stroke-width:0.5;stroke-linecap:round;stroke-linejoin:round;stroke-miterlimit:4;stroke-dasharray:none;stroke-opacity:1"
           id="path34368"
           inkscape:connector-curvature="0" /><path
           d="m 139.21387,-39.3623 c 6.25781,-3.37891 11.22265,-8.33497 14.68652,-14.13965"
           style="fill:none;stroke:#231f20;stroke-width:0.5;stroke-linecap:round;stroke-linejoin:round;stroke-miterlimit:4;stroke-dasharray:none;stroke-opacity:1"
           id="path34370"
           inkscape:connector-curvature="0" /><path
           d="m 157.83398,-61.99609 c 0.59082,-1.71582 1.08008,-3.44922 1.45118,-5.10352"
           style="fill:none;stroke:#231f20;stroke-width:0.5;stroke-linecap:round;stroke-linejoin:round;stroke-miterlimit:4;stroke-dasharray:none;stroke-opacity:1"
           id="path34372"
           inkscape:connector-curvature="0" /><path
           d="m 160.48047,-76.0752 c 0.47949,-9.91015 -1.69629,-19.78076 -5.7959,-28.52294"
           style="fill:none;stroke:#231f20;stroke-width:0.5;stroke-linecap:round;stroke-linejoin:round;stroke-miterlimit:4;stroke-dasharray:none;stroke-opacity:1"
           id="path34374"
           inkscape:connector-curvature="0" /><path
           d="m 149.99805,-112.97998 c -1.66211,-2.52295 -3.44629,-4.85596 -5.19336,-6.83594"
           style="fill:none;stroke:#231f20;stroke-width:0.5;stroke-linecap:round;stroke-linejoin:round;stroke-miterlimit:4;stroke-dasharray:none;stroke-opacity:1"
           id="path34376"
           inkscape:connector-curvature="0" /><path
           d="m 138.59961,-125.98389 c -7.52246,-6.47998 -15.89258,-10.48681 -24.03613,-12.03515"
           style="fill:none;stroke:#231f20;stroke-width:0.5;stroke-linecap:round;stroke-linejoin:round;stroke-miterlimit:4;stroke-dasharray:none;stroke-opacity:1"
           id="path34378"
           inkscape:connector-curvature="0" /><path
           d="m 106.17188,-139.22412 c -2.32813,0.005 -4.58985,0.20508 -6.52393,0.5459"
           style="fill:none;stroke:#231f20;stroke-width:0.5;stroke-linecap:round;stroke-linejoin:round;stroke-miterlimit:4;stroke-dasharray:none;stroke-opacity:1"
           id="path34380"
           inkscape:connector-curvature="0" /><path
           d="m 90.42871,-135.50684 c -7.43213,3.31836 -13.29394,8.81836 -17.25586,15.542"
           style="fill:none;stroke:#231f20;stroke-width:0.5;stroke-linecap:round;stroke-linejoin:round;stroke-miterlimit:4;stroke-dasharray:none;stroke-opacity:1"
           id="path34382"
           inkscape:connector-curvature="0" /><path
           d="m 69.3457,-111.67725 c -0.67968,1.9712 -1.22509,3.96289 -1.60791,5.82178"
           style="fill:none;stroke:#231f20;stroke-width:0.5;stroke-linecap:round;stroke-linejoin:round;stroke-miterlimit:4;stroke-dasharray:none;stroke-opacity:1"
           id="path34384"
           inkscape:connector-curvature="0" /><path
           d="m 66.68848,-97.53809 c -0.48584,10.33008 1.89795,20.59082 6.30713,29.54786"
           style="fill:none;stroke:#231f20;stroke-width:0.5;stroke-linecap:round;stroke-linejoin:round;stroke-miterlimit:4;stroke-dasharray:none;stroke-opacity:1"
           id="path34386"
           inkscape:connector-curvature="0" /><path
           d="m 77.18115,-60.66016 c 1.57373,2.38868 3.26709,4.61719 4.90381,6.50098"
           style="fill:none;stroke:#231f20;stroke-width:0.5;stroke-linecap:round;stroke-linejoin:round;stroke-miterlimit:4;stroke-dasharray:none;stroke-opacity:1"
           id="path34388"
           inkscape:connector-curvature="0" /><path
           d="m 88.06348,-48.11035 c 7.94091,6.99902 16.87207,11.21094 25.54101,12.66015"
           style="fill:none;stroke:#231f20;stroke-width:0.5;stroke-linecap:round;stroke-linejoin:round;stroke-miterlimit:4;stroke-dasharray:none;stroke-opacity:1"
           id="path34390"
           inkscape:connector-curvature="0" /><path
           d="m 121.56738,-34.83008 c 1.9043,-0.03027 3.75977,-0.18847 5.4541,-0.45215"
           style="fill:none;stroke:#231f20;stroke-width:0.5;stroke-linecap:round;stroke-linejoin:round;stroke-miterlimit:4;stroke-dasharray:none;stroke-opacity:1"
           id="path34392"
           inkscape:connector-curvature="0" /><path
           d="m 135.64551,-37.67383 c 1.28906,-0.52539 2.5039,-1.10254 3.56836,-1.6875"
           style="fill:none;stroke:#231f20;stroke-width:0.5;stroke-linecap:round;stroke-linejoin:round;stroke-miterlimit:4;stroke-dasharray:none;stroke-opacity:1"
           id="path34394"
           inkscape:connector-curvature="0" /><path
           d="m 66.26611,-114.75391 c 0,0 3.10498,1.53516 3.10498,1.53516 0,0 -0.01611,-0.007 -0.01611,-0.007 0,0 0.09912,0.0522 0.26025,0.12011 0.32666,0.13916 1.396,0.29688 1.396,0.29688 0,0 3.42481,-0.0757 3.42481,-0.0757 0,0 -0.01416,0 -0.01416,0 0,0 0.11035,0 0.26806,-0.0132 0.60303,-0.0488 1.10938,-0.34814 1.34229,-0.72119 0.40869,-0.65381 0.32666,-1.00781 0.2998,-1.44385"
           style="fill:none;stroke:#231f20;stroke-width:0.5;stroke-linecap:round;stroke-linejoin:round;stroke-miterlimit:4;stroke-dasharray:none;stroke-opacity:1"
           id="path34396"
           inkscape:connector-curvature="0" /><path
           d="m 110.00781,-136.56445 c 0,0 0.41309,0.74218 1.45313,0.78222 0.82666,0.0298 1.30078,-0.29443 1.35595,-0.62841"
           style="fill:none;stroke:#231f20;stroke-width:0.25;stroke-linecap:round;stroke-linejoin:round;stroke-miterlimit:4;stroke-dasharray:none;stroke-opacity:1"
           id="path34398"
           inkscape:connector-curvature="0" /><path
           d="m 112.8208,-136.43311 c 0,0 0.0757,-0.49609 0.0757,-0.49609"
           style="fill:none;stroke:#231f20;stroke-width:0.25;stroke-linecap:round;stroke-linejoin:round;stroke-miterlimit:4;stroke-dasharray:none;stroke-opacity:1"
           id="path34400"
           inkscape:connector-curvature="0" /><path
           d="m 106.44043,-142.9458 c 0,0 0.68994,3.15723 0.68994,3.15723 0,0 0.004,0.0879 0.0469,0.27685 0.0581,0.25781 0.19482,0.62402 0.47998,0.91797 0.13525,0.13721 0.29882,0.25879 0.50097,0.34912 0,0 0.24121,0.10205 0.24121,0.10205 0.33985,0.14404 0.70508,0.28174 1.01612,0.65186 0.13086,0.15918 0.48291,0.66992 0.59179,0.92578"
           style="fill:none;stroke:#231f20;stroke-width:0.25;stroke-linecap:round;stroke-linejoin:round;stroke-miterlimit:4;stroke-dasharray:none;stroke-opacity:1"
           id="path34402"
           inkscape:connector-curvature="0" /><path
           d="m 141.48633,-43.05957 c 5.06933,-2.92773 9.1914,-6.94727 12.20019,-11.54785"
           style="fill:none;stroke:#231f20;stroke-width:0.5;stroke-linecap:round;stroke-linejoin:round;stroke-miterlimit:4;stroke-dasharray:none;stroke-opacity:1"
           id="path34404"
           inkscape:connector-curvature="0" /><path
           d="m 108.01611,-137.1543 c -2.07177,0.023 -4.12011,0.20508 -6.12695,0.54492"
           style="fill:none;stroke:#231f20;stroke-width:0.5;stroke-linecap:round;stroke-linejoin:round;stroke-miterlimit:4;stroke-dasharray:none;stroke-opacity:1"
           id="path34406"
           inkscape:connector-curvature="0" /><path
           d="m 138.48242,-125.8125 c -7.38379,-5.98779 -15.52051,-9.5791 -23.55127,-10.83594"
           style="fill:none;stroke:#231f20;stroke-width:0.5;stroke-linecap:round;stroke-linejoin:round;stroke-miterlimit:4;stroke-dasharray:none;stroke-opacity:1"
           id="path34408"
           inkscape:connector-curvature="0" /><path
           d="m 94.25293,-134.4292 c -7.9917,3.25879 -14.20801,9.14209 -18.21191,16.52686"
           style="fill:none;stroke:#231f20;stroke-width:0.5;stroke-linecap:round;stroke-linejoin:round;stroke-miterlimit:4;stroke-dasharray:none;stroke-opacity:1"
           id="path34410"
           inkscape:connector-curvature="0" /><path
           d="m 73.17236,-111.37549 c -0.64404,1.87012 -1.15722,3.75391 -1.51611,5.52002"
           style="fill:none;stroke:#231f20;stroke-width:0.5;stroke-linecap:round;stroke-linejoin:round;stroke-miterlimit:4;stroke-dasharray:none;stroke-opacity:1"
           id="path34412"
           inkscape:connector-curvature="0" /><path
           d="m 70.77002,-99.45166 c -0.79297,10.78857 1.80615,21.63721 6.79639,31.03955"
           style="fill:none;stroke:#231f20;stroke-width:0.5;stroke-linecap:round;stroke-linejoin:round;stroke-miterlimit:4;stroke-dasharray:none;stroke-opacity:1"
           id="path34414"
           inkscape:connector-curvature="0" /><path
           d="m 80.91602,-62.80176 c 1.47314,2.2002 3.05127,4.25684 4.59814,6.03321"
           style="fill:none;stroke:#231f20;stroke-width:0.5;stroke-linecap:round;stroke-linejoin:round;stroke-miterlimit:4;stroke-dasharray:none;stroke-opacity:1"
           id="path34416"
           inkscape:connector-curvature="0" /><path
           d="m 90.04932,-52.08398 c 8.17724,7.58203 17.58935,12.05468 26.74511,13.40527"
           style="fill:none;stroke:#231f20;stroke-width:0.5;stroke-linecap:round;stroke-linejoin:round;stroke-miterlimit:4;stroke-dasharray:none;stroke-opacity:1"
           id="path34418"
           inkscape:connector-curvature="0" /><path
           d="m 123.16309,-38.21094 c 1.88379,-0.0088 3.71484,-0.14551 5.40429,-0.3916"
           style="fill:none;stroke:#231f20;stroke-width:0.5;stroke-linecap:round;stroke-linejoin:round;stroke-miterlimit:4;stroke-dasharray:none;stroke-opacity:1"
           id="path34420"
           inkscape:connector-curvature="0" /><path
           d="m 135.64551,-40.35938 c 2.13965,-0.76074 4.1289,-1.6875 5.83984,-2.70019"
           style="fill:none;stroke:#231f20;stroke-width:0.5;stroke-linecap:round;stroke-linejoin:round;stroke-miterlimit:4;stroke-dasharray:none;stroke-opacity:1"
           id="path34422"
           inkscape:connector-curvature="0" /><path
           d="m 129.46582,-31.42969 c -0.0303,0.0068 -0.58105,-2.48047 -0.78418,-3.47754 -0.20312,-0.99609 0.45508,-1.92382 0.45508,-1.92382 0,0 0.92773,-1.35059 1.08008,-1.58594 0.15234,-0.23731 0.0889,-0.62305 0.0889,-0.62305 0,0 9.8e-4,-1.27441 1.22071,-1.63965"
           style="fill:none;stroke:#231f20;stroke-width:0.5;stroke-linecap:round;stroke-linejoin:round;stroke-miterlimit:4;stroke-dasharray:none;stroke-opacity:1"
           id="path34424"
           inkscape:connector-curvature="0" /><path
           d="m 132.46777,-40.36035 c -0.94629,0.32617 -0.8164,1.45215 -0.8164,1.45215 0,0 0.0615,0.38476 -0.0889,0.62207 -0.1543,0.23633 -1.08203,1.58593 -1.08203,1.58593 0,0 -0.6582,0.92969 -0.45508,1.92579 0.20313,0.99609 0.70215,3.08593 0.73047,3.08007 0,0 -0.0283,0.14161 -0.0283,0.14161 -2.90332,0.66992 -6.29102,1.03027 -9.81641,0.98339 0,0 0.0391,0.002 0.0391,0.002 0,0 -0.63965,-2.15039 -0.8667,-3.28125 -0.22608,-1.13086 0.15088,-1.73242 0.15088,-1.73242 0,0 0.86718,-1.47168 1.16894,-1.84766 0.29981,-0.37695 0.34863,-0.60742 0.23731,-1.06055 -0.11329,-0.45312 -0.53321,-0.87012 -1.3252,-0.79394 -0.77197,0.07422 -1.21191,0.64843 -1.21191,0.68652 0,0 -3.01416,2.93945 -3.01416,2.93945 0,0 -0.83008,0.75293 -1.16993,1.39453 -0.33838,0.64063 -1.78711,2.93165 -1.78711,2.93165 -8.93603,-1.56348 -18.22412,-5.91993 -26.57421,-13.09766 0,0 0.03125,0.02441 0.03125,0.02441 0,0 -0.01221,-3.0498 -0.0503,-4.03125 -0.0376,-0.97851 0.45313,-1.88476 0.7544,-2.33593 0.30175,-0.45215 1.65771,-2.29883 1.65771,-2.29883 0,0 0.8291,-1.20703 -0.45068,-2.22364 -1.04541,-0.8291 -2.15039,0 -2.18701,0 -0.03711,0 -1.80811,1.35645 -2.4502,1.77051 -0.64014,0.41406 -1.20605,0.9043 -1.20605,0.9043 0,0 -2.27393,2.13086 -2.27393,2.13086 -2.24902,-2.47266 -4.56787,-5.49902 -6.67383,-8.78027 0,0 -0.0542,-0.08399 -0.0542,-0.08399 0,0 1.8418,-1.63184 2.31787,-1.98144 0.47413,-0.34864 1.57325,-1.14844 1.57325,-1.14844 0,0 1.5,-0.82422 2.39892,-1.44922 0.89795,-0.62305 0.29883,-2.07227 -0.2749,-2.47363 -0.75488,-0.52442 -1.60107,-0.42676 -1.84912,-0.39942 -0.25879,0.0293 -0.7002,0.12598 -0.7002,0.12598 0,0 -1.84765,0.22461 -2.34668,0.2998 -0.5,0.07422 -1.37402,-0.02636 -1.37402,-0.02636 0,0 -3.88721,-0.37598 -3.88721,-0.37598 0,0 0,-0.0019 0,-0.0019 -4.53711,-9.3086 -7.05908,-20.00098 -6.69775,-30.81201 0,0 2.95801,-1.08106 2.95801,-1.08106 0,0 1.1289,-0.37695 1.73291,-0.75293 0.60205,-0.37695 2.14892,-1.24268 2.75097,-1.5459 0.60303,-0.30078 0.90479,-0.33789 1.20606,-0.45215 0.30176,-0.11279 0.97998,-0.63964 0.97998,-1.50781 0,-0.86621 -0.64111,-1.24219 -1.24414,-1.31885 -0.60303,-0.0742 -2.6001,0.11377 -2.6001,0.11377 0,0 -1.13086,0.0752 -1.77099,-0.26318 -0.64161,-0.33984 -3.1167,-1.60986 -3.1167,-1.60986 0.55371,-3.18409 1.52295,-6.6377 2.85302,-9.96582 0,0 0.0166,-0.0439 0.0166,-0.0439 0.20948,0.085 3.14942,1.55566 3.14942,1.55566 0,0 0.71582,0.37745 1.31885,0.33936 0.60205,-0.0371 3.4292,-0.0762 3.4292,-0.0762 0,0 0.7539,0 0.98095,-0.30078 0.70996,-0.55518 0.34082,-1.30616 0.34082,-1.30616 0,0 0.24903,0.58985 0.24903,0.58985 -0.09327,-0.38086 -0.26807,-0.67871 -0.49707,-0.88184 -0.25391,-0.2251 -0.81202,-0.54785 -0.81202,-0.54785 0,0 -0.60888,-0.26709 -1.19775,-0.36523 -0.76611,-0.12891 -1.23828,-0.99512 -1.23828,-0.99512 0,0 -2.43408,-4.67188 -2.43408,-4.67188 0,0 -9.8e-4,0.003 -9.8e-4,0.003 4.56641,-7.77295 11.51709,-14.05273 20.39111,-17.54003 0,0 0.002,0 0.002,0 0,0 3.89697,3.06103 3.89697,3.06103 0,0 0.39111,0.35693 0.91113,0.39014 0.51905,0.0317 2.04395,0.0649 2.04395,0.0649 0,0 0.87793,0.0649 1.16992,0.42187 0.29199,0.35694 0.71533,0.7461 0.71533,0.7461 0,0 0.69678,0.54297 1.78858,-0.11475"
           style="fill:none;stroke:#231f20;stroke-width:1;stroke-linecap:round;stroke-linejoin:round;stroke-miterlimit:4;stroke-dasharray:none;stroke-opacity:1"
           id="path34426"
           inkscape:connector-curvature="0" /><path
           d="m 84.16309,-111.90576 c 0,0 -0.02491,0.0132 -0.02491,0.0132"
           style="fill:none;stroke:#231f20;stroke-width:0.41701001;stroke-linecap:round;stroke-linejoin:round;stroke-miterlimit:4;stroke-dasharray:none;stroke-opacity:1"
           id="path34428"
           inkscape:connector-curvature="0" /><path
           d="m 100.63525,-65.55078 c 0,0 0.33204,0.44824 0.33204,0.44824"
           style="fill:none;stroke:#231f20;stroke-width:0.41701001;stroke-linecap:round;stroke-linejoin:round;stroke-miterlimit:4;stroke-dasharray:none;stroke-opacity:1"
           id="path34430"
           inkscape:connector-curvature="0" /><path
           d="m 87.56592,-89.29199 c 5.09717,-4.42578 0.6831,-10.15869 -0.31787,-11.30664"
           style="fill:none;stroke:#231f20;stroke-width:1;stroke-linecap:round;stroke-linejoin:round;stroke-miterlimit:4;stroke-dasharray:none;stroke-opacity:1"
           id="path34432"
           inkscape:connector-curvature="0" /><path
           d="m 94.3374,-74.05859 c -0.16504,-0.22266 -0.354,-0.37696 -0.57275,-0.42969 -0.20313,-0.04688 -0.41602,0.0029 -0.62305,0.10937 0,0 0.0088,-0.0039 0.0088,-0.0039 0,0 -5.98193,3.16797 -5.98193,3.16797 0,0 -0.0078,0.0039 -0.0078,0.0039 -0.37011,0.19336 -0.75097,0.28711 -1.12304,0.29688 -0.39209,0.01074 -0.7749,-0.07129 -1.13281,-0.24317 -0.59522,-0.28222 -1.14014,-0.83203 -1.45801,-1.66113 0,0 -3.41016,-8.91992 -3.41016,-8.91992 0,0 9.8e-4,0.002 9.8e-4,0.002 -0.21387,-0.55566 -0.29102,-1.24316 -0.15821,-1.96191 0,0 9.8e-4,-0.0049 9.8e-4,-0.0049 0.09522,-0.49121 0.27832,-0.9541 0.52734,-1.34277 0.292,-0.45508 0.67383,-0.81152 1.10401,-1.04199 0,0 6.05371,-3.2041 6.05371,-3.2041"
           style="fill:none;stroke:#231f20;stroke-width:0.5;stroke-linecap:round;stroke-linejoin:round;stroke-miterlimit:4;stroke-dasharray:none;stroke-opacity:1"
           id="path34434"
           inkscape:connector-curvature="0" /><path
           d="m 100.88232,-64.98438 c 0,0 -5.75097,3.04395 -5.75097,3.04395 -0.44092,0.23438 -0.771,0.53906 -1,0.86621 -0.28076,0.4043 -0.41895,0.85156 -0.42578,1.30078 0,0 0,0.0059 0,0.0059 -0.0029,0.41113 0.104,0.80567 0.30908,1.16504 0.17187,0.30176 0.41894,0.5791 0.73096,0.81152 0,0 7.94091,5.89063 7.94091,5.89063 0.55078,0.41016 1.25977,0.65527 1.9878,0.70508 0.71826,0.04883 1.44824,-0.09473 2.05029,-0.41211 0,0 0.004,-0.002 0.004,-0.002 0,0 6.72412,-3.55859 6.72412,-3.55859"
           style="fill:none;stroke:#231f20;stroke-width:0.5;stroke-linecap:round;stroke-linejoin:round;stroke-miterlimit:4;stroke-dasharray:none;stroke-opacity:1"
           id="path34436"
           inkscape:connector-curvature="0" /><path
           d="m 122.84277,-52.95996 c 0,0 0.083,0.02344 0.083,0.02344"
           style="fill:none;stroke:#231f20;stroke-width:0.41701001;stroke-linecap:round;stroke-linejoin:round;stroke-miterlimit:4;stroke-dasharray:none;stroke-opacity:1"
           id="path34438"
           inkscape:connector-curvature="0" /><path
           d="m 120.72559,-50.01953 c 0,0 5.99609,-0.14258 5.99609,-0.14258 0,0 0.002,0 0.002,0 0.57032,-0.01269 1.2627,-0.15234 1.63575,-0.34863 0,0 -0.003,0.002 -0.003,0.002 0,0 3.7832,-2.00293 3.7832,-2.00293"
           style="fill:none;stroke:#231f20;stroke-width:0.5;stroke-linecap:round;stroke-linejoin:round;stroke-miterlimit:4;stroke-dasharray:none;stroke-opacity:1"
           id="path34440"
           inkscape:connector-curvature="0" /><path
           d="m 122.92578,-52.93652 c 0,0 -4.63135,2.45214 -4.63135,2.45214 -0.1372,0.07129 -0.35302,0.21387 -0.35302,0.21387 0,0 -0.60401,0.61719 -0.6919,0.86231 -0.10742,0.29101 -0.0562,0.82324 -0.0562,0.82324 0,0 0.18701,0.51465 0.41016,0.73437 0.18896,0.1836 0.5039,0.38477 0.96972,0.47266 0.20606,0.03711 0.46729,0.05957 0.77002,0.05273 0,0 7.44287,-0.17773 7.44287,-0.17773 0.98242,-0.02246 2.16895,-0.31445 2.81348,-0.65332 0,0 9.8e-4,-9.8e-4 9.8e-4,-9.8e-4 0,0 2.06738,-1.0957 2.06738,-1.0957"
           style="fill:none;stroke:#231f20;stroke-width:0.5;stroke-linecap:round;stroke-linejoin:round;stroke-miterlimit:4;stroke-dasharray:none;stroke-opacity:1"
           id="path34442"
           inkscape:connector-curvature="0" /><path
           d="m 151.2832,-89.12109 c 0,0 0.0117,-0.19825 0.13868,-0.39649"
           style="fill:none;stroke:#231f20;stroke-width:0.41701001;stroke-linecap:round;stroke-linejoin:round;stroke-miterlimit:4;stroke-dasharray:none;stroke-opacity:1"
           id="path34444"
           inkscape:connector-curvature="0" /><path
           d="m 151.2832,-89.12109 c 0,0 0.22266,9.94726 0.22266,9.94726 0,0 0.0332,0.1211 0.0332,0.1211 0.0283,0.09179 0.0801,0.20898 0.18555,0.30273 0,0 0.16992,0.10352 0.16992,0.10352 0.0684,0.03027 0.14356,0.05371 0.22852,0.07031"
           style="fill:none;stroke:#231f20;stroke-width:0.5;stroke-linecap:round;stroke-linejoin:round;stroke-miterlimit:4;stroke-dasharray:none;stroke-opacity:1"
           id="path34446"
           inkscape:connector-curvature="0" /><path
           d="m 138.27441,-114.67871 c 0,0 6.56446,8.54004 6.56446,8.54004"
           style="fill:none;stroke:#231f20;stroke-width:0.5;stroke-linecap:round;stroke-linejoin:round;stroke-miterlimit:4;stroke-dasharray:none;stroke-opacity:1"
           id="path34448"
           inkscape:connector-curvature="0" /><path
           d="m 112.50293,-127.34717 c -0.0713,0.27783 -0.0781,0.54883 -0.0303,0.79004 0.0561,0.271 0.17187,0.5249 0.36718,0.75 0.18604,0.21777 0.45801,0.42774 0.88282,0.55664 0,0 10.00683,3.01807 10.00683,3.01807 0,0 -0.13281,-0.0469 -0.13281,-0.0469 0,0 0.27344,0.12012 0.7207,0.21387 0.5752,0.11914 1.46289,0.19092 2.41309,-0.11865 0.25391,-0.083 0.51465,-0.19336 0.77246,-0.3374"
           style="fill:none;stroke:#231f20;stroke-width:1;stroke-linecap:round;stroke-linejoin:round;stroke-miterlimit:4;stroke-dasharray:none;stroke-opacity:1"
           id="path34450"
           inkscape:connector-curvature="0" /><path
           d="m 94.17236,-115.90088 c -1.10009,2.32324 -3.83398,3.73682 -3.83398,3.73682 0,0 -4.93115,2.61035 -4.93115,2.61035 -0.69922,0.36865 -1.36621,1.16504 -1.51416,1.84766 0,0 0,-0.003 0,-0.003 0,0 -1.43409,6.6499 -1.43409,6.6499 0,0 3.98633,-2.10889 3.98633,-2.10889 0.35694,-0.18994 1.09082,-0.32373 1.09082,-0.32373 0,0 0.84619,0.0469 1.22705,0.23779 0,0 0.0049,0.002 0.0049,0.002 0.41211,0.20703 0.76318,0.53515 1.00927,0.97607 0.20264,0.36182 0.33594,0.80518 0.35498,1.3208 0,0 0.39209,10.94043 0.39209,10.94043 0,0 0,0.0049 0,0.0049 0.021,0.59473 -0.13525,1.21778 -0.42627,1.75586 -0.30712,0.56836 -0.76416,1.03516 -1.2871,1.31348 0,0 -0.002,0 -0.002,0 0,0 -6.05273,3.2041 -6.05273,3.2041 0,0 -0.11035,0.125 -0.11035,0.125 -0.07276,0.11719 -0.15284,0.40528 -0.15284,0.40528 0,0 -0.02978,0.36914 0.02588,0.5166 0,0 0.002,0.0029 0.002,0.0029 0,0 3.41113,8.91894 3.41113,8.91894 0,0 -0.0088,0.20215 -0.0088,0.20215 0,0 5.98389,-3.16797 5.98389,-3.16797 0,0 0.0088,-0.0049 0.0088,-0.0049 0.80908,-0.42188 1.65918,-0.52442 2.45507,-0.33887 0.77832,0.18262 1.51807,0.64551 2.10303,1.43652 0,0 6.62988,8.95606 6.62988,8.95606 0,0 -0.005,-0.0059 -0.005,-0.0059 0.46192,0.61719 0.53906,2.05762 0.53906,2.05762 0,0 -0.23681,0.81933 -0.51806,1.17968 -0.24317,0.3125 -0.5708,0.59571 -0.99317,0.82032 0,0 -5.50683,2.91504 -5.50683,2.91504 0,0 7.65185,5.68164 7.65185,5.68164 0.16016,0.11816 0.3711,0.17285 0.58203,0.1875 0.2212,0.01465 0.44825,-0.01465 0.6333,-0.11231 0,0 -0.002,9.8e-4 -0.002,9.8e-4 0,0 6.72266,-3.55859 6.72266,-3.55859 0,0 0.002,-0.002 0.002,-0.002 0.79736,-0.41992 2.22217,-0.55859 3.29541,-0.25879 0,0 9.8e-4,0 9.8e-4,0 0,0 9.76513,2.73828 9.76513,2.73828 0,0 0.004,0 0.004,0 0.67969,0.19239 1.15527,0.54493 1.40234,0.87891 0.0859,0.11523 0.15235,0.27832 0.20411,0.43848"
           style="fill:none;stroke:#231f20;stroke-width:1;stroke-linecap:round;stroke-linejoin:round;stroke-miterlimit:4;stroke-dasharray:none;stroke-opacity:1"
           id="path34452"
           inkscape:connector-curvature="0" /><path
           d="m 97.66797,-125.22363 c 0,0 -6.5918,3.5957 -6.5918,3.5957 0,0 0,-9.8e-4 0,-9.8e-4 -0.43994,0.24024 -0.68994,0.6919 -0.69336,1.16895 0,0.73389 0.59424,1.3291 1.33008,1.3291 0.23389,0 0.45313,-0.0601 0.63818,-0.16309 0,0 -0.002,0 -0.002,0 0,0 11.45606,-6.24707 11.45606,-6.24707"
           style="fill:none;stroke:#231f20;stroke-width:0.5;stroke-linecap:round;stroke-linejoin:round;stroke-miterlimit:4;stroke-dasharray:none;stroke-opacity:1"
           id="path34454"
           inkscape:connector-curvature="0" /><path
           d="m 82.51953,-82.68945 c 0,0 4.99707,3.32422 3.41211,8.9209"
           style="fill:none;stroke:#231f20;stroke-width:0.5;stroke-linecap:round;stroke-linejoin:round;stroke-miterlimit:4;stroke-dasharray:none;stroke-opacity:1"
           id="path34456"
           inkscape:connector-curvature="0" /><path
           d="m 88.57764,-86.81836 c 0,0 5.52588,3.88867 4.0083,9.80566"
           style="fill:none;stroke:#231f20;stroke-width:1;stroke-linecap:round;stroke-linejoin:round;stroke-miterlimit:4;stroke-dasharray:none;stroke-opacity:1"
           id="path34458"
           inkscape:connector-curvature="0" /><path
           d="m 80.56348,-85.86133 c -1.271,-6.38525 -0.69532,-11.75244 -0.69532,-11.75244 0,0 6.39893,6.80029 0.69532,11.75244 z"
           style="fill:none;stroke:#231f20;stroke-width:0.5;stroke-linecap:round;stroke-linejoin:round;stroke-miterlimit:4;stroke-dasharray:none;stroke-opacity:1"
           id="path34460"
           inkscape:connector-curvature="0" /><path
           d="m 84.45117,-108.33643 c 0,0 1.51416,4.91114 -1.99219,7.27784"
           style="fill:none;stroke:#231f20;stroke-width:0.5;stroke-linecap:round;stroke-linejoin:round;stroke-miterlimit:4;stroke-dasharray:none;stroke-opacity:1"
           id="path34462"
           inkscape:connector-curvature="0" /><path
           d="m 90.33789,-112.16406 c 0,0 1.58594,5.65918 -2.5791,8.6914"
           style="fill:none;stroke:#231f20;stroke-width:1;stroke-linecap:round;stroke-linejoin:round;stroke-miterlimit:4;stroke-dasharray:none;stroke-opacity:1"
           id="path34464"
           inkscape:connector-curvature="0" /><path
           d="m 102.27881,-126.80518 c 0,0 4.42676,4.38721 10.19385,0.24805"
           style="fill:none;stroke:#231f20;stroke-width:1;stroke-linecap:round;stroke-linejoin:round;stroke-miterlimit:4;stroke-dasharray:none;stroke-opacity:1"
           id="path34466"
           inkscape:connector-curvature="0" /><path
           d="m 102.27881,-126.80518 c -1.67188,0.42188 -3.26904,0.97803 -4.61133,1.58106"
           style="fill:none;stroke:#231f20;stroke-width:0.41701001;stroke-linecap:round;stroke-linejoin:round;stroke-miterlimit:4;stroke-dasharray:none;stroke-opacity:1"
           id="path34468"
           inkscape:connector-curvature="0" /><path
           d="m 90.38721,-120.25977 c 0,0 -4.39209,4.1377 -6.27832,8.16895"
           style="fill:none;stroke:#231f20;stroke-width:0.5;stroke-linecap:round;stroke-linejoin:round;stroke-miterlimit:4;stroke-dasharray:none;stroke-opacity:1"
           id="path34470"
           inkscape:connector-curvature="0" /><path
           d="m 84.33447,-111.97998 c 0,0 -0.17187,0.0742 -0.17187,0.0742 -1.35498,0.71777 -2.58008,2.31006 -2.86914,3.63379 0,0 0,0.003 0,0.003 0,0 -1.72705,8.00585 -1.72705,8.00585 -0.14698,0.68409 -0.03125,1.22901 0.16699,1.60206 0.14599,0.27587 0.34717,0.49169 0.58398,0.65087 0,0 0.0088,0.0049 0.0088,0.0049 0.21143,0.13916 0.44727,0.22998 0.70606,0.26709 0.38525,0.0581 0.85009,-0.0049 1.32422,-0.25684 0,0 -0.002,0.002 -0.002,0.002 0,0 4.90186,-2.59716 4.90186,-2.59716"
           style="fill:none;stroke:#231f20;stroke-width:0.5;stroke-linecap:round;stroke-linejoin:round;stroke-miterlimit:4;stroke-dasharray:none;stroke-opacity:1"
           id="path34472"
           inkscape:connector-curvature="0" /><path
           d="m 84.33447,-111.97998 c 0,0 1.68604,0.37744 3.33399,-0.50098 0,0 -0.002,9.8e-4 -0.002,9.8e-4 0,0 6.78565,-3.6416 6.78565,-3.6416 0,0 -0.64697,0.34668 -0.64697,0.34668 1.30127,-0.5708 2.64843,-1.86084 3.18408,-4.67676"
           style="fill:none;stroke:#231f20;stroke-width:1;stroke-linecap:round;stroke-linejoin:round;stroke-miterlimit:4;stroke-dasharray:none;stroke-opacity:1"
           id="path34474"
           inkscape:connector-curvature="0" /><path
           d="m 87.66797,-112.77979 c 1.47021,-0.78417 2.90625,-2.60888 2.97314,-6.74121"
           style="fill:none;stroke:#231f20;stroke-width:0.5;stroke-linecap:round;stroke-linejoin:round;stroke-miterlimit:4;stroke-dasharray:none;stroke-opacity:1"
           id="path34476"
           inkscape:connector-curvature="0" /><path
           d="m 98.09033,-121.37646 c 0.88086,-0.51172 1.68604,-1.21583 2.16895,-2.17872"
           style="fill:none;stroke:#231f20;stroke-width:0.5;stroke-linecap:round;stroke-linejoin:round;stroke-miterlimit:4;stroke-dasharray:none;stroke-opacity:1"
           id="path34478"
           inkscape:connector-curvature="0" /><path
           d="m 104.36426,-125.20166 c -0.56299,0.86084 -1.39697,1.48584 -2.27197,1.93799 0,0 -4.27588,2.33301 -4.27588,2.33301 0,0 0.30273,-0.167 0.30273,-0.167 -1.94873,1.13477 -4.26904,1.33399 -4.26904,1.33399"
           style="fill:none;stroke:#231f20;stroke-width:1;stroke-linecap:round;stroke-linejoin:round;stroke-miterlimit:4;stroke-dasharray:none;stroke-opacity:1"
           id="path34480"
           inkscape:connector-curvature="0" /><path
           d="m 127.35742,-122.9624 c 0.43848,1.44922 2.49317,6.74023 9.00586,6.27002 0,0 0.008,0.0781 0.008,0.0781 0,0 -0.0371,0.061 -0.0371,0.061 -0.33789,0.55273 -0.68554,1.38965 -0.65332,2.14795 0.0225,0.47998 0.1709,0.93994 0.48536,1.34765 0,0 6.56445,8.54102 6.56445,8.54102 0,0 0.0371,0.0454 0.0371,0.0454 0,0 0.20312,0.25098 0.57031,0.52881 0.51856,0.39306 1.35938,0.81884 2.36719,0.73388 0.26562,-0.022 0.54394,-0.0791 0.83203,-0.18505 0,0 0.0859,0.16406 0.0859,0.16406 0,0 -2.49414,7.61426 4.14258,10.75 0,0 0.0332,0.12207 0.0332,0.12207 -0.37988,0.18799 -0.69238,0.41308 -0.95313,0.65234 -0.68066,0.63086 -0.99218,1.37695 -1.13086,1.8916 -0.11132,0.41114 -0.11718,0.68946 -0.11718,0.68946 0,0 0.002,-0.05664 0.002,-0.05664 0,0 0.24805,10.07324 0.24805,10.07324 0,0 0,-0.002 0,-0.002 0,0 -9.8e-4,0.36915 0.15527,0.86231 0.14844,0.45996 0.43262,1.0293 0.97559,1.50293 0.23339,0.20215 0.51367,0.38672 0.85253,0.53516 0.11329,0.04882 0.23438,0.0957 0.36133,0.13671"
           style="fill:none;stroke:#231f20;stroke-width:1;stroke-linecap:round;stroke-linejoin:round;stroke-miterlimit:4;stroke-dasharray:none;stroke-opacity:1"
           id="path34482"
           inkscape:connector-curvature="0" /><path
           d="m 134.39063,-54.49023 c 2.95996,-1.7461 6.24414,0.07617 6.24414,0.07617"
           style="fill:none;stroke:#231f20;stroke-width:0.5;stroke-linecap:round;stroke-linejoin:round;stroke-miterlimit:4;stroke-dasharray:none;stroke-opacity:1"
           id="path34484"
           inkscape:connector-curvature="0" /><path
           d="m 148.26172,-66.68066 c 0,0 -1.48926,0.78906 -1.48926,0.78906 -0.95898,0.50781 -1.73144,1.20117 -2.27344,1.95508 0,0 0.006,-0.0078 0.006,-0.0078 0,0 -4.42675,6.08692 -4.42675,6.08692 0,0 0.002,0.002 0.002,0.002 -0.53809,0.12109 -1.08594,0.32715 -1.62403,0.64453 -0.0889,0.05176 -0.17285,0.10547 -0.25488,0.15918 0,0 0.25488,-0.15918 0.25488,-0.15918 0,0 -4.3955,2.7168 -4.3955,2.7168 -3.11817,1.83789 -2.3916,5.24219 -2.3916,5.24219"
           style="fill:none;stroke:#231f20;stroke-width:1;stroke-linecap:round;stroke-linejoin:round;stroke-miterlimit:4;stroke-dasharray:none;stroke-opacity:1"
           id="path34486"
           inkscape:connector-curvature="0" /><path
           d="m 147.58691,-63 c -0.41308,0.26172 -0.75488,0.58105 -1.00488,0.93066 0,0 -0.005,0.0059 -0.005,0.0059 0,0 -4.88574,6.71778 -4.88574,6.71778 0,0 0,-0.002 0,-0.002 -0.22852,0.31543 -0.59766,0.51661 -1.0127,0.51661 -0.69238,0 -1.25195,-0.56055 -1.25195,-1.25196 -0.002,-0.25293 0.0771,-0.51269 0.23926,-0.73633 0,0 0.71582,-0.98535 0.71582,-0.98535"
           style="fill:none;stroke:#231f20;stroke-width:0.5;stroke-linecap:round;stroke-linejoin:round;stroke-miterlimit:4;stroke-dasharray:none;stroke-opacity:1"
           id="path34488"
           inkscape:connector-curvature="0" /><path
           d="m 96.94873,-59.47266 c 0,0 5.26856,-0.71386 7.32275,5.4375"
           style="fill:none;stroke:#231f20;stroke-width:0.5;stroke-linecap:round;stroke-linejoin:round;stroke-miterlimit:4;stroke-dasharray:none;stroke-opacity:1"
           id="path34490"
           inkscape:connector-curvature="0" /><path
           d="m 102.78271,-63.08984 c 0,0 6.07667,-0.54883 8.23096,6.2041"
           style="fill:none;stroke:#231f20;stroke-width:1;stroke-linecap:round;stroke-linejoin:round;stroke-miterlimit:4;stroke-dasharray:none;stroke-opacity:1"
           id="path34492"
           inkscape:connector-curvature="0" /><path
           d="m 113.25391,-55.06348 c 0,0 5.55273,-3.73047 9.59277,2.08789"
           style="fill:none;stroke:#231f20;stroke-width:1;stroke-linecap:round;stroke-linejoin:round;stroke-miterlimit:4;stroke-dasharray:none;stroke-opacity:1"
           id="path34494"
           inkscape:connector-curvature="0" /><path
           d="m 132.09668,-49.47852 c 1.6377,-0.60156 3.18555,-1.333 4.47363,-2.09375 16.53614,-9.54687 20.60742,-33.45703 9.09082,-53.40332 -11.5166,-19.9458 -34.25781,-28.37597 -50.79443,-18.82959 -0.53125,0.30567 -1.04736,0.62793 -1.48096,0.91602"
           style="fill:none;stroke:#231f20;stroke-width:1;stroke-linecap:round;stroke-linejoin:round;stroke-miterlimit:4;stroke-dasharray:none;stroke-opacity:1"
           id="path34496"
           inkscape:connector-curvature="0" /><path
           d="m 117.33057,-48.26855 c -3.41797,-0.44727 -7.14258,-1.53907 -10.84766,-3.28418 0,0 0.2417,-0.05372 0.2417,-0.05372 0,0 5.99121,-4.12304 10.46924,3.02247"
           style="fill:none;stroke:#231f20;stroke-width:0.5;stroke-linecap:round;stroke-linejoin:round;stroke-miterlimit:4;stroke-dasharray:none;stroke-opacity:1"
           id="path34498"
           inkscape:connector-curvature="0" /><path
           d="m 86.55225,-70.98145 c 0,0 7.8872,1.81934 7.34716,10.32129 -2.80517,-2.82714 -5.47314,-6.32324 -7.7041,-10.26367"
           style="fill:none;stroke:#231f20;stroke-width:0.5;stroke-linecap:round;stroke-linejoin:round;stroke-miterlimit:4;stroke-dasharray:none;stroke-opacity:1"
           id="path34500"
           inkscape:connector-curvature="0" /><path
           d="m 93.1416,-74.37891 c 0,0 7.50684,1.11817 7.49121,9.50391"
           style="fill:none;stroke:#231f20;stroke-width:1;stroke-linecap:round;stroke-linejoin:round;stroke-miterlimit:4;stroke-dasharray:none;stroke-opacity:1"
           id="path34502"
           inkscape:connector-curvature="0" /><path
           d="m 120.87354,-50.21289 c 0,0 0.27001,-0.28027 0.81396,-0.58106 0,0 6.95508,-3.9248 6.95508,-3.9248 1.17187,-0.50195 2.99121,-0.82422 5.06055,0.44141"
           style="fill:none;stroke:#231f20;stroke-width:1;stroke-linecap:round;stroke-linejoin:round;stroke-miterlimit:4;stroke-dasharray:none;stroke-opacity:1"
           id="path34504"
           inkscape:connector-curvature="0" /><path
           d="m 121.99512,-50.75879 c 1.10644,-0.60937 3.23633,-1.29687 5.68652,0.44434"
           style="fill:none;stroke:#231f20;stroke-width:0.5;stroke-linecap:round;stroke-linejoin:round;stroke-miterlimit:4;stroke-dasharray:none;stroke-opacity:1"
           id="path34506"
           inkscape:connector-curvature="0" /><path
           d="m 151.92383,-76.37988 c 0,0 -2.90918,0.84961 -4.02149,4.09082 -1.19531,3.48047 1.15235,6.57812 1.15235,6.57812"
           style="fill:none;stroke:#231f20;stroke-width:1;stroke-linecap:round;stroke-linejoin:round;stroke-miterlimit:4;stroke-dasharray:none;stroke-opacity:1"
           id="path34508"
           inkscape:connector-curvature="0" /><path
           d="m 155.83301,-61.48438 c 0,0 -0.83692,0.85059 -0.70508,1.90235 0.13184,1.05273 0.10059,1.10254 0.0293,1.95605 -0.0742,0.85254 -0.33594,1.46778 0.14746,2.82813 0.48144,1.36133 1.54101,4.08984 1.54101,4.08984"
           style="fill:none;stroke:#231f20;stroke-width:0.5;stroke-linecap:round;stroke-linejoin:round;stroke-miterlimit:4;stroke-dasharray:none;stroke-opacity:1"
           id="path34510"
           inkscape:connector-curvature="0" /><path
           d="m 156.68945,-61.48438 c -0.19629,0.2295 -0.52343,0.73438 -0.42968,1.48243 0.13086,1.05273 0.0996,1.10156 0.0293,1.95507 -0.0742,0.85352 -0.33593,1.46875 0.14649,2.82911 0.33984,0.96289 0.97168,2.61035 1.31152,3.49218 0,0 -0.002,-0.0039 -0.002,-0.0039 -3.72559,6.66308 -9.30469,12.40527 -16.43457,16.25488 -1.1875,0.65137 -2.60547,1.32324 -4.08106,1.91602 0,0 -0.0186,0.0088 -0.0186,0.0088 0,0 -2.94141,-2.50489 -3.55957,-3.01465 -0.61817,-0.50879 -0.47364,-1.12793 -0.47364,-1.12793 0,0 0.13379,-0.83106 0.21973,-1.3086 0.0723,-0.41504 -0.0508,-0.625 -0.0508,-0.625 0,0 -0.60449,-1.19433 -1.55078,-0.86718"
           style="fill:none;stroke:#231f20;stroke-width:1;stroke-linecap:round;stroke-linejoin:round;stroke-miterlimit:4;stroke-dasharray:none;stroke-opacity:1"
           id="path34512"
           inkscape:connector-curvature="0" /><path
           d="m 150.49121,-111.21875 c 0,0 -0.10742,0.32129 0.0293,0.54004 0.13672,0.22021 0.19336,0.30322 0.13672,0.54883 -0.0527,0.24707 0.10937,0.65625 0.48047,1.16504 0.37109,0.51025 1.25097,0.32519 1.43554,0.65039 0.18653,0.32373 -0.22851,1.45459 0.49024,1.63183 0.71679,0.17481 4.60547,1.08106 4.60547,1.08106"
           style="fill:none;stroke:#231f20;stroke-width:0.5;stroke-linecap:round;stroke-linejoin:round;stroke-miterlimit:4;stroke-dasharray:none;stroke-opacity:1"
           id="path34514"
           inkscape:connector-curvature="0" /><path
           d="m 151.48438,-112.15869 c 0,0 -0.2627,0.25586 -0.0137,0.5957"
           style="fill:none;stroke:#231f20;stroke-width:0.41701001;stroke-linecap:round;stroke-linejoin:round;stroke-miterlimit:4;stroke-dasharray:none;stroke-opacity:1"
           id="path34516"
           inkscape:connector-curvature="0" /><path
           d="m 158.60742,-72.95898 c 0.0742,-0.48243 0.90039,-0.99805 1.3086,-1.07129 0.4082,-0.07422 1.26171,-0.33496 1.26171,-0.33496 0,0 3.16797,-1.34864 3.16797,-1.34864 0,0 0,0.002 0,0.002 0.42383,-10.86133 -2.07031,-21.62061 -6.61132,-30.99756 0,0 0.006,-0.004 0.006,-0.004 -1.125,-0.26269 -3.59375,-0.83984 -3.7871,-0.87597 -0.18848,-0.04 -0.15235,-0.11866 -0.15235,-0.11866 -0.004,-0.0991 0.009,-0.20703 0.0117,-0.30713 0.007,-0.20507 0.009,-0.39404 -0.0137,-0.54199 -0.0234,-0.15625 -0.0693,-0.28711 -0.13086,-0.39209 -0.11231,-0.19775 -0.29297,-0.35498 -0.54785,-0.45898 -0.1416,-0.0561 -0.31543,-0.0962 -0.50586,-0.13184 -0.13184,-0.0249 -0.27832,-0.042 -0.40137,-0.10791 0,0 -0.0254,-0.0161 -0.0254,-0.0161 -0.19727,-0.27002 -0.33203,-0.48193 -0.34961,-0.64307 0,0 0.0215,-0.0972 0.0215,-0.0972 0.0332,-0.27587 -0.009,-0.46386 -0.11329,-0.67968 -0.0352,-0.0723 -0.21093,-0.3794 -0.27441,-0.47803"
           style="fill:none;stroke:#231f20;stroke-width:1;stroke-linecap:round;stroke-linejoin:round;stroke-miterlimit:4;stroke-dasharray:none;stroke-opacity:1"
           id="path34518"
           inkscape:connector-curvature="0" /><path
           d="m 158.44922,-72.53613 c 0,0 -0.22754,0.86816 0.20019,1.20996 0.42676,0.34375 0.9209,0.42187 0.84961,0.90137 -0.0713,0.47949 -0.82129,1.52441 0.40528,2.2373 1.22754,0.71387 2.96093,1.65039 2.96093,1.65039"
           style="fill:none;stroke:#231f20;stroke-width:0.5;stroke-linecap:round;stroke-linejoin:round;stroke-miterlimit:4;stroke-dasharray:none;stroke-opacity:1"
           id="path34520"
           inkscape:connector-curvature="0" /><path
           d="m 159.91504,-74.03125 c 0,0 -0.49805,0.46094 -0.47363,1.19434 -0.0156,0.125 -0.0352,0.30175 0.0225,0.44726 0,0 0.0225,0.04004 0.0225,0.04004 0.10449,0.08301 0.21387,0.14648 0.31445,0.20508 0.21289,0.12695 0.39453,0.24902 0.51563,0.39648 0.14453,0.17188 0.23144,0.37403 0.22754,0.63672 0,0 -0.0127,0.16016 -0.0127,0.16016 -0.0176,0.125 -0.0693,0.28125 -0.12988,0.45801 -0.0703,0.20019 -0.1709,0.44238 -0.15332,0.69043 0,0 0.0576,0.20507 0.0576,0.20507 0.0645,0.12207 0.36329,0.33496 0.36329,0.33496 0,0 2.80371,1.56348 2.80371,1.56348 0,0 0,-0.0039 0,-0.0039 -0.53125,3.07227 -1.45215,6.41211 -2.71094,9.64063 0,0 0.0176,-0.04395 0.0176,-0.04395 0,0 -2.08692,-0.87402 -2.61426,-1.18261 -0.52637,-0.30664 -0.9209,-0.17481 -1.17383,-1.44239 -0.25195,-1.26855 -0.80078,-0.79492 -0.80078,-0.79492"
           style="fill:none;stroke:#231f20;stroke-width:1;stroke-linecap:round;stroke-linejoin:round;stroke-miterlimit:4;stroke-dasharray:none;stroke-opacity:1"
           id="path34522"
           inkscape:connector-curvature="0" /><path
           d="m 143.99219,-120.72461 c 1.17187,-0.37402 3.11426,-2.05615 3.11426,-2.05615 0,0 0.0303,0.0112 0.0303,0.0112 2.20703,2.46387 4.4834,5.47558 6.5498,8.73682 0,0 0.004,0.008 0.004,0.008 0,0 -2.42969,1.48388 -3.07324,2.53418"
           style="fill:none;stroke:#231f20;stroke-width:1;stroke-linecap:round;stroke-linejoin:round;stroke-miterlimit:4;stroke-dasharray:none;stroke-opacity:1"
           id="path34524"
           inkscape:connector-curvature="0" /><path
           d="m 143.67578,-120.40674 c 0,0 -0.33789,0.0278 -0.51953,-0.15869 -0.17969,-0.18506 -0.24609,-0.2583 -0.5,-0.26318 -0.25195,-0.005 -0.60937,-0.26221 -1.01562,-0.74219 -0.40821,-0.48291 -0.0166,-1.29395 -0.28907,-1.55274 -0.27051,-0.25732 -1.46777,-0.12304 -1.46777,-0.86132 0,-0.73975 0.20605,-5.09668 0.20605,-5.09668"
           style="fill:none;stroke:#231f20;stroke-width:0.5;stroke-linecap:round;stroke-linejoin:round;stroke-miterlimit:4;stroke-dasharray:none;stroke-opacity:1"
           id="path34526"
           inkscape:connector-curvature="0" /><path
           d="m 144.76855,-121.08447 c 0,0 -0.31152,0.1958 -0.58203,-0.12793 -0.082,-0.083 -0.33691,-0.32813 -0.40039,-0.38086 -0.18164,-0.15235 -0.35547,-0.23926 -0.63281,-0.271 0,0 -0.0977,-0.003 -0.0977,-0.003 -0.15625,-0.0547 -0.32812,-0.23779 -0.54199,-0.49267 0,0 -0.01,-0.0283 -0.01,-0.0283 -0.0342,-0.13477 -0.0166,-0.28174 -0.01,-0.41504 0.01,-0.19287 0.0137,-0.37256 -0.009,-0.52393 -0.0371,-0.27099 -0.14746,-0.48388 -0.3125,-0.6416 -0.0879,-0.083 -0.20508,-0.16113 -0.35156,-0.22021 -0.13672,-0.0562 -0.32129,-0.10108 -0.52149,-0.14307 -0.0977,-0.02 -0.20507,-0.0327 -0.30078,-0.061 0,0 -0.0869,0.0171 -0.0801,-0.17579 0.0127,-0.19726 0.21679,-3.03125 0.22851,-4.18701 -8.37012,-7.35693 -17.73242,-11.85205 -26.77002,-13.5 0,0 0.002,0 0.002,0 0,0 -1.52099,2.35694 -1.95996,3.11768 -0.44091,0.7583 0.23926,1.5581 0.43897,1.95605 0.20019,0.40137 -0.28174,0.9541 -1.31983,0.88135 -0.97607,-0.0703 -1.23779,-0.80029 -1.23779,-0.80029 -0.5083,-1.18506 -1.25635,-1.37207 -1.91211,-1.66407 -0.65429,-0.29101 -0.68994,-1.09082 -0.68994,-1.09082 0,0 -0.70312,-3.21093 -0.70312,-3.21093 -3.50391,-0.10205 -6.87696,0.1958 -9.77002,0.80566 0,0 0.52783,2.90625 0.52783,2.90625 0,0 0.04297,0.9292 0.46533,1.30811 0.18506,0.16601 1.44678,0.77783 2.03906,1.35205 0.375,0.36474 0.56787,0.72998 0.53076,1.04492"
           style="fill:none;stroke:#231f20;stroke-width:1;stroke-linecap:round;stroke-linejoin:round;stroke-miterlimit:4;stroke-dasharray:none;stroke-opacity:1"
           id="path34528"
           inkscape:connector-curvature="0" /><path
           d="m 156.16406,-56.37695 c 0.62891,-1.04785 1.20996,-2.1211 1.66992,-3.07422"
           style="fill:none;stroke:#231f20;stroke-width:0.5;stroke-linecap:round;stroke-linejoin:round;stroke-miterlimit:4;stroke-dasharray:none;stroke-opacity:1"
           id="path34530"
           inkscape:connector-curvature="0" /><path
           d="m 161.18848,-68.97461 c 0.45996,-1.99609 0.79004,-4.01465 0.96875,-5.80762"
           style="fill:none;stroke:#231f20;stroke-width:0.5;stroke-linecap:round;stroke-linejoin:round;stroke-miterlimit:4;stroke-dasharray:none;stroke-opacity:1"
           id="path34532"
           inkscape:connector-curvature="0" /><path
           d="m 155.75293,-107.17725 c -1.08105,-2.10302 -2.26074,-4.11718 -3.38672,-5.8081"
           style="fill:none;stroke:#231f20;stroke-width:0.5;stroke-linecap:round;stroke-linejoin:round;stroke-miterlimit:4;stroke-dasharray:none;stroke-opacity:1"
           id="path34534"
           inkscape:connector-curvature="0" /><path
           d="m 145.55273,-121.58398 c -1.52734,-1.60791 -3.10937,-3.10303 -4.54687,-4.31299"
           style="fill:none;stroke:#231f20;stroke-width:0.5;stroke-linecap:round;stroke-linejoin:round;stroke-miterlimit:4;stroke-dasharray:none;stroke-opacity:1"
           id="path34536"
           inkscape:connector-curvature="0" /><path
           d="m 112.3374,-138.19189 c -1.04492,-0.0698 -2.07812,-0.10108 -2.95996,-0.0937"
           style="fill:none;stroke:#231f20;stroke-width:0.5;stroke-linecap:round;stroke-linejoin:round;stroke-miterlimit:4;stroke-dasharray:none;stroke-opacity:1"
           id="path34538"
           inkscape:connector-curvature="0" /><path
           d="m 99.82568,-137.05225 c -0.66406,0.17334 -1.31836,0.36426 -1.87109,0.542"
           style="fill:none;stroke:#231f20;stroke-width:0.5;stroke-linecap:round;stroke-linejoin:round;stroke-miterlimit:4;stroke-dasharray:none;stroke-opacity:1"
           id="path34540"
           inkscape:connector-curvature="0" /></g></g><g
       id="g34542"
       transform="scale(1,-1)"><path
         d="m 25.16748,-0.85938 c 0,0 -23.25,0 -23.25,0 0,0 -0.16699,-6.83398 -0.16699,-6.83398 0,0 23.25,0 23.25,0 0,0 0.16699,6.83398 0.16699,6.83398 z"
         style="fill:#ffffff;fill-opacity:1;fill-rule:nonzero;stroke:none"
         id="path34544"
         inkscape:connector-curvature="0" /><path
         d="m 42.82568,-155.35596 c 0,0 33.14551,29.08301 33.14551,29.08301"
         style="fill:none;stroke:#ffffff;stroke-width:3;stroke-linecap:round;stroke-linejoin:miter;stroke-miterlimit:4;stroke-dasharray:none;stroke-opacity:1"
         id="path34546"
         inkscape:connector-curvature="0" /><path
         d="m 75.97021,-126.27197 c 0,0 0,0 0,0"
         style="fill:none;stroke:#ffffff;stroke-width:3.75;stroke-linecap:round;stroke-linejoin:miter;stroke-miterlimit:4;stroke-dasharray:none;stroke-opacity:1"
         id="path34548"
         inkscape:connector-curvature="0" /><path
         d="m 42.82568,-155.35596 c 0,0 33.14551,29.08301 33.14551,29.08301"
         style="fill:none;stroke:#201d1c;stroke-width:0.5;stroke-linecap:round;stroke-linejoin:miter;stroke-miterlimit:4;stroke-dasharray:none;stroke-opacity:1"
         id="path34550"
         inkscape:connector-curvature="0" /><path
         d="m 75.97021,-126.27197 c 0,0 0,0 0,0"
         style="fill:none;stroke:#201d1c;stroke-width:1.5;stroke-linecap:round;stroke-linejoin:miter;stroke-miterlimit:4;stroke-dasharray:none;stroke-opacity:1"
         id="path34552"
         inkscape:connector-curvature="0" /><g
         id="g34554"
         transform="scale(1,-1)"><text
           transform="matrix(1,0,0,-1,206.46533,160.86621)"
           style="font-variant:normal;font-weight:bold;font-size:10px;font-family:Arial;-inkscape-font-specification:Arial-BoldMT;writing-mode:lr-tb;fill:#231f20;fill-opacity:1;fill-rule:nonzero;stroke:none"
           id="text34558"><tspan
             x="0"
             y="0"
             id="tspan34556">2</tspan></text>
<text
           transform="matrix(1,0,0,-1,36.36035,154.45898)"
           style="font-variant:normal;font-weight:bold;font-size:10px;font-family:Arial;-inkscape-font-specification:Arial-BoldMT;writing-mode:lr-tb;fill:#231f20;fill-opacity:1;fill-rule:nonzero;stroke:none"
           id="text34562"><tspan
             x="0"
             y="0"
             id="tspan34560">1</tspan></text>
<text
           transform="matrix(1,0,0,-1,3.01367,1.94775)"
           style="font-variant:normal;font-weight:normal;font-size:6px;font-family:Arial;-inkscape-font-specification:ArialMT;writing-mode:lr-tb;fill:#231f20;fill-opacity:1;fill-rule:nonzero;stroke:none"
           id="text34566"><tspan
             x="0 3.6659999 7.6680002 11.004 14.34 17.676001"
             y="0"
             sodipodi:role="line"
             id="tspan34564">TP0098</tspan></text>
<g
           id="g34568"
           transform="scale(1,-1)"><path
             d="m 205.58301,-158.81836 c 0,0 -26.36817,35.34277 -26.36817,35.34277"
             style="fill:none;stroke:#ffffff;stroke-width:3;stroke-linecap:round;stroke-linejoin:miter;stroke-miterlimit:4;stroke-dasharray:none;stroke-opacity:1"
             id="path34570"
             inkscape:connector-curvature="0" /><path
             d="m 179.21289,-123.47559 c 0,0 0,0 0,0"
             style="fill:none;stroke:#ffffff;stroke-width:3.75;stroke-linecap:round;stroke-linejoin:miter;stroke-miterlimit:4;stroke-dasharray:none;stroke-opacity:1"
             id="path34572"
             inkscape:connector-curvature="0" /><path
             d="m 205.58301,-158.81836 c 0,0 -26.36817,35.34277 -26.36817,35.34277"
             style="fill:none;stroke:#201d1c;stroke-width:0.5;stroke-linecap:round;stroke-linejoin:miter;stroke-miterlimit:4;stroke-dasharray:none;stroke-opacity:1"
             id="path34574"
             inkscape:connector-curvature="0" /><path
             d="m 179.21289,-123.47559 c 0,0 0,0 0,0"
             style="fill:none;stroke:#201d1c;stroke-width:1.5;stroke-linecap:round;stroke-linejoin:miter;stroke-miterlimit:4;stroke-dasharray:none;stroke-opacity:1"
             id="path34576"
             inkscape:connector-curvature="0" /></g></g></g></g></svg>