<?xml version="1.0" encoding="UTF-8" standalone="no"?>
<svg
   xmlns:dc="http://purl.org/dc/elements/1.1/"
   xmlns:cc="http://creativecommons.org/ns#"
   xmlns:rdf="http://www.w3.org/1999/02/22-rdf-syntax-ns#"
   xmlns:svg="http://www.w3.org/2000/svg"
   xmlns="http://www.w3.org/2000/svg"
   xmlns:sodipodi="http://sodipodi.sourceforge.net/DTD/sodipodi-0.dtd"
   xmlns:inkscape="http://www.inkscape.org/namespaces/inkscape"
   xml:space="preserve"
   height="768.0"
   viewBox="0,0 65416,45683"
   width="1024.0"
   id="svg5957"
   version="1.1"
   inkscape:version="0.91 r13725"
   sodipodi:docname="13 - ENGINE MANAGEMENT CIRCUIT - THROTTLE CONTROL.svg"><metadata
     id="metadata6691"><rdf:RDF><cc:Work
         rdf:about=""><dc:format>image/svg+xml</dc:format><dc:type
           rdf:resource="http://purl.org/dc/dcmitype/StillImage" /></cc:Work></rdf:RDF></metadata><sodipodi:namedview
     pagecolor="#ffffff"
     bordercolor="#666666"
     borderopacity="1"
     objecttolerance="10"
     gridtolerance="10"
     guidetolerance="10"
     inkscape:pageopacity="0"
     inkscape:pageshadow="2"
     inkscape:window-width="2560"
     inkscape:window-height="1378"
     id="namedview6689"
     showgrid="false"
     inkscape:zoom="1.5742188"
     inkscape:cx="512"
     inkscape:cy="384"
     inkscape:window-x="-8"
     inkscape:window-y="-8"
     inkscape:window-maximized="1"
     inkscape:current-layer="g5963" /><defs
     id="defs5959"><style
       type="text/css"
       id="style5961"><![CDATA[
.A{stroke-width:59px;stroke:#808080;}
.A,.H,.T,.N,.R,.L,.J,.P,.U,.E,.C,.G,.B,.F1,.D1,.E1,.Z,.A1,.Y,.B1,.C1,.F,.Q,.D,.W,.X,.G1{stroke-dasharray:none;}
.B{stroke-width:88px;}
.B1,.C1{font-family:Tahoma;font-size:392px;}
.C{stroke:#990;}
.C,.G{stroke-width:50px;}
.D{fill:#CCC;}
.D1{fill:#999;}
.E,.C,.G,.B,.F1,.D1,.E1,.Z,.A1,.Y,.B1,.C1,.F,.Q,.D,.W,.X,.G1{stroke-linecap:square;}
.E,.E1,.A1,.Y,.C1,.F,.Q,.D{stroke-width:16px;}
.E1,.A1,.Y,.C1{fill:#FFF;}
.F1,.D1,.E1{font-size:312px;}
.F1,.D1,.E1,.Z,.A1,.Y,.B1,.C1,.F,.Q,.D{stroke-opacity:0.0;}
.F1,.D1,.E1,.Z,.A1,.Y,.B1,.C1,.F,.Q,.D,.W,.X,.G1{fill-opacity:1.0;}
.F1,.D1,.E1,.Z,.A1,.Y,.W,.X{font-family:Arial;}
.F1,.D1,.Z,.B1,.W,.X{stroke-width:0.5px;}
.F1,.Z,.B1,.F,.W,.X,.G1{fill:#000;}
.G1{stroke-width:16.0px;}
.I,.H,.E,.B,.F1,.E1,.Z,.A1,.Y,.B1,.C1,.F,.D,.W,.X,.G1{stroke:#000;}
.I,.O,.S,.M,.K,.V{stroke-dasharray:117,58;}
.I,.O,.S,.M,.K,.V,.A,.H,.T,.N,.R,.L,.J,.P,.U{stroke-linecap:butt;}
.I,.O,.S,.M,.K,.V,.A,.H,.T,.N,.R,.L,.J,.P,.U,.E,.C,.G,.B{fill-opacity:0.0;fill:none;}
.I,.O,.S,.M,.K,.V,.A,.H,.T,.N,.R,.L,.J,.P,.U,.E,.C,.G,.B,.F,.Q,.D,.G1{font-family:sans-serif;}
.I,.O,.S,.M,.K,.V,.A,.H,.T,.N,.R,.L,.J,.P,.U,.E,.C,.G,.B,.F1,.D1,.E1,.Z,.A1,.Y,.B1,.C1,.F,.Q,.D,.W,.X,.G1{fill-rule:evenodd;font-style:normal;font-weight:normal;stroke-linejoin:miter;stroke-miterlimit:10;}
.I,.O,.S,.M,.K,.V,.A,.H,.T,.N,.R,.L,.J,.P,.U,.E,.C,.G,.B,.W,.X,.G1{stroke-opacity:1.0;}
.I,.O,.S,.M,.K,.V,.H,.T,.N,.R,.L,.J,.P,.U{stroke-width:84px;}
.K,.J{stroke:#F4F4F4;}
.M,.L{stroke:#F30;}
.N{stroke:#0C0;}
.O,.T{stroke:#03F;}
.P,.Q{stroke:#F90;}
.Q{fill:#03F;}
.S,.R,.G,.D1{stroke:#999;}
.V,.U{stroke:#F9F;}
.X{font-size:770px;}
.Y,.W{font-size:660px;}
.Z,.A1{font-size:468px;}
]]></style></defs><g
     id="g5963"><g
       id="g5967"><path
         class="B"
         d="M10203,21449h44v111l133,1351v111h44"
         id="path5969" /></g><g
       id="g5971"><path
         class="B"
         d="M37240,16042h44v111l133,1351v111h44"
         id="path5973" /></g><g
       id="g5975"><path
         class="B"
         d="M10203,16042h44v111l133,1351v111h44"
         id="path5977" /></g><g
       id="g5979"><path
         class="B"
         d="M37240,21449h44v111l133,1351v111h44"
         id="path5981" /></g><g
       id="g5983"><path
         class="C"
         d="M53573,37107v-453M53573,34856 C53450,34856 53350,34956 53350,35079 M53796,35079 C53796,34956 53696,34856 53573,34856 M53350,36431 C53350,36554 53450,36654 53573,36654 M53573,36654 C53696,36654 53796,36554 53796,36431 M53350,35079v1351m445,-1351v1351"
         id="path5985" /></g><g
       id="g5987"><path
         class="B"
         d="M53462,34968h44v111l133,1351v111h44"
         id="path5989" /></g><g
       id="g5991"><path
         class="C"
         d="M10990,37107v-453M10990,34856 C10867,34856 10767,34956 10767,35079 M11213,35079 C11213,34956 11113,34856 10990,34856 M10767,36431 C10767,36554 10867,36654 10990,36654 M10990,36654 C11113,36654 11213,36554 11213,36431 M10767,35079v1351m445,-1351v1351"
         id="path5993" /></g><g
       id="g5995"><path
         class="B"
         d="M10879,34968h44v111l133,1351v111h44"
         id="path5997" /></g><g
       id="g5999"><path
         class="D"
         d="M44448,24940h-337v-337v-8787v-337h337h337v337v8787v337 z"
         id="path6001" /><path
         class="E"
         d="M44786,24602v337h-675v-337m0,-3379v-2027m675,2027v-2027m0,-3379v-337h-675v337m337,337h-675m1013,1013v-675m-675,675v-675m337,1013h-675m1013,1013v-675m-675,675v-675m337,1013h-675m675,2703h-675m1013,1013v-675m-675,675v-675m337,1013h-675m1013,1013v-675m-675,675v-675m337,1013h-675"
         id="path6003" /></g><g
       id="g6005"><path
         class="D"
         d="M61346,8718h337v-337v-2027v-337h-337h-337v337v2027v337 z"
         id="path6007" /><path
         class="E"
         d="M61008,8380v337h675v-337m-675,-2027v-337h675v337m-675,1351v-675m675,675v-675"
         id="path6009" /></g><g
       id="g6011"><path
         class="D"
         d="M43772,24940h-337v-337v-8787v-337h337h337v337v8787v337 z"
         id="path6013" /><path
         class="E"
         d="M44110,24602v337h-675v-337m0,-3379v-2027m675,2027v-2027m0,-3379v-337h-675v337m1013,337h-675m337,1013v-675m-675,675v-675m1013,1013h-675m337,1013v-675m-675,675v-675m1013,1013h-675m675,2703h-675m337,1013v-675m-675,675v-675m1013,1013h-675m337,1013v-675m-675,675v-675m1013,1013h-675"
         id="path6015" /></g><g
       id="g6017"><circle
         class="G1"
         cx="62360"
         cy="39811"
         r="270"
         id="circle6019" /></g><g
       id="g6021"><circle
         class="G1"
         cx="17073"
         cy="37783"
         r="270"
         id="circle6023" /></g><g
       id="g6025"><path
         class="D"
         d="M61346,38459h337v-337v-4731v-337h-337h-337v337v4731v337 z"
         id="path6027" /><path
         class="E"
         d="M61008,38121v337h675v-337m-675,-4731v-337h675v337m-675,1351v-675m675,675v-675m-675,2027v-675m675,675v-675m-675,2027v-675m675,675v-675"
         id="path6029" /></g><g
       id="g6031"><path
         class="D"
         d="M4907,24940v-337v-18249v-337h337h337v337v18249v337 z"
         id="path6033" /><path
         class="E"
         d="M4907,23250v675m675,-675v675m-675,-2027v675m675,-675v675m-675,-4731v675m675,-675v675m-675,-2027v675m675,-675v675m-675,-10138v675m675,-675v675m-675,-1351v-337h675v337m0,2027v7435m-675,-7435v7435m675,3379v2027m-675,-2027v2027m675,3379v337h-675v-337"
         id="path6035" /></g><g
       id="g6037"><path
         class="D"
         d="M4907,38459v-337v-4731v-337h337h337v337v4731v337 z"
         id="path6039" /><path
         class="E"
         d="M4907,36769v675m675,-675v675m-675,-2027v675m675,-675v675m-675,-2027v675m675,-675v675m-675,-1351v-337h675v337m0,4731v337h-675v-337"
         id="path6041" /></g><g
       id="g6043"><path
         class="E"
         d="M61008,23250v675m0,-2027v675m0,-4731v675m0,-2027v675m0,2027v2027m0,3379v337h2703v-9462h-2703v337"
         id="path6045" /></g><g
       id="g6047"><path
         class="E"
         d="M61684,7028v675m0,675v337h2027v-2703h-2027v337"
         id="path6049" /></g><g
       id="g6051"><path
         class="E"
         d="M61684,36769v675m0,-2027v675m0,-2027v675m0,3379v337h2027v-5407h-2027v337"
         id="path6053" /></g><g
       id="g6055"><path
         class="E"
         d="M4907,36769v675m0,-2027v675m0,-2027v675m0,-11490v675m0,-2027v675m0,-4731v675m0,-2027v675m0,-10138v675m0,675v7435m0,3379v2027m0,3379v8787m0,-27036v-337h-3379v32444h3379v-337"
         id="path6057" /></g><g
       id="g6059"><path
         class="G"
         d="M53573,37107v2703h8787"
         id="path6061" /></g><g
       id="g6063"><path
         class="G"
         d="M10990,37107v2703h6083v-2027"
         id="path6065" /></g><g
       id="g6067"><path
         class="H"
         d="M61008,16153h-16222"
         id="path6069" /><path
         class="I"
         d="M61008,16153h-16222"
         id="path6071" /></g><g
       id="g6073"><path
         class="J"
         d="M61008,17505h-16222"
         id="path6075" /><path
         class="K"
         d="M61008,17505h-16222"
         id="path6077" /></g><g
       id="g6079"><path
         class="J"
         d="M61008,22913h-16222"
         id="path6081" /><path
         class="K"
         d="M61008,22913h-16222"
         id="path6083" /></g><g
       id="g6085"><path
         class="L"
         d="M61008,18857h-16222"
         id="path6087" /><path
         class="M"
         d="M61008,18857h-16222"
         id="path6089" /></g><g
       id="g6091"><path
         class="H"
         d="M61008,21561h-16222"
         id="path6093" /><path
         class="I"
         d="M61008,21561h-16222"
         id="path6095" /></g><g
       id="g6097"><path
         class="L"
         d="M61008,24264h-16222"
         id="path6099" /><path
         class="M"
         d="M61008,24264h-16222"
         id="path6101" /></g><g
       id="g6103"><path
         class="N"
         d="M5583,6690h55425"
         id="path6105" /><path
         class="O"
         d="M5583,6690h55425"
         id="path6107" /></g><g
       id="g6109"><path
         class="P"
         d="M6934,8042h54073"
         id="path6111" /><circle
         class="Q"
         cx="6934"
         cy="8042"
         r="42"
         id="circle6113" /><path
         class="O"
         d="M6934,8042h54073"
         id="path6115" /><path
         class="P"
         d="M5583,8042h1351"
         id="path6117" /><circle
         class="Q"
         cx="6934"
         cy="8042"
         r="42"
         id="circle6119" /><path
         class="O"
         d="M5583,8042h1351"
         id="path6121" /></g><g
       id="g6123"><path
         class="R"
         d="M43434,17505h-37851"
         id="path6125" /><path
         class="S"
         d="M43434,17505h-37851"
         id="path6127" /></g><g
       id="g6129"><path
         class="R"
         d="M43434,22913h-37851"
         id="path6131" /><path
         class="S"
         d="M43434,22913h-37851"
         id="path6133" /></g><g
       id="g6135"><path
         class="L"
         d="M43434,18857h-37851"
         id="path6137" /><path
         class="M"
         d="M43434,18857h-37851"
         id="path6139" /></g><g
       id="g6141"><path
         class="H"
         d="M43434,21561h-37851"
         id="path6143" /><path
         class="I"
         d="M43434,21561h-37851"
         id="path6145" /></g><g
       id="g6147"><path
         class="L"
         d="M43434,24264h-37851"
         id="path6149" /><path
         class="M"
         d="M43434,24264h-37851"
         id="path6151" /></g><g
       id="g6153"><path
         class="H"
         d="M17073,37783h43935"
         id="path6155" /><circle
         class="F"
         cx="17073"
         cy="37783"
         r="42"
         id="circle6157" /><path
         class="I"
         d="M17073,37783h43935"
         id="path6159" /></g><g
       id="g6161"><path
         class="H"
         d="M5583,37783h11490"
         id="path6163" /><circle
         class="F"
         cx="17073"
         cy="37783"
         r="42"
         id="circle6165" /><path
         class="I"
         d="M5583,37783h11490"
         id="path6167" /></g><g
       id="g6169"><path
         class="T"
         d="M5583,36431h55425"
         id="path6171" /><path
         class="O"
         d="M5583,36431h55425"
         id="path6173" /></g><g
       id="g6175"><path
         class="U"
         d="M5583,35079h55425"
         id="path6177" /><path
         class="V"
         d="M5583,35079h55425"
         id="path6179" /></g><g
       id="g6181"><path
         class="L"
         d="M5583,33727h55425"
         id="path6183" /><path
         class="M"
         d="M5583,33727h55425"
         id="path6185" /></g><g
       id="g6187"><path
         class="H"
         d="M43434,16153h-37851"
         id="path6189" /><path
         class="I"
         d="M43434,16153h-37851"
         id="path6191" /></g><g
       id="g6201"><rect
         class="Y"
         x="45195"
         y="15848"
         width="1859"
         height="526"
         id="rect6203" /><text
         class="Z"
         x="45268"
         y="16359"
         id="text6205">M73M-1</text>
</g><g
       id="g6207"><rect
         class="A1"
         x="45195"
         y="17200"
         width="1859"
         height="526"
         id="rect6209" /><text
         class="Z"
         x="45268"
         y="17711"
         id="text6211">M73M-3</text>
</g><g
       id="g6213"><rect
         class="A1"
         x="45195"
         y="22607"
         width="1859"
         height="526"
         id="rect6215" /><text
         class="Z"
         x="45268"
         y="23119"
         id="text6217">M73M-4</text>
</g><g
       id="g6219"><rect
         class="A1"
         x="45195"
         y="18551"
         width="1859"
         height="526"
         id="rect6221" /><text
         class="Z"
         x="45268"
         y="19063"
         id="text6223">M73M-5</text>
</g><g
       id="g6225"><rect
         class="A1"
         x="45195"
         y="21255"
         width="1859"
         height="526"
         id="rect6227" /><text
         class="Z"
         x="45268"
         y="21767"
         id="text6229">M73M-6</text>
</g><g
       id="g6231"><rect
         class="A1"
         x="45195"
         y="23959"
         width="1859"
         height="526"
         id="rect6233" /><text
         class="Z"
         x="45268"
         y="24471"
         id="text6235">M73M-2</text>
</g><g
       id="g6237"><rect
         class="A1"
         x="59247"
         y="6385"
         width="1352"
         height="526"
         id="rect6239" /><text
         class="Z"
         x="59320"
         y="6897"
         id="text6241">E52-2</text>
</g><g
       id="g6243"><rect
         class="A1"
         x="59247"
         y="7737"
         width="1352"
         height="526"
         id="rect6245" /><text
         class="Z"
         x="59320"
         y="8248"
         id="text6247">E52-1</text>
</g><g
       id="g6249"><text
         class="B1"
         x="41307"
         y="15356"
         id="text6251">TWIST GRIP POSITION SENSOR</text>
</g><g
       id="g6253"><rect
         class="C1"
         x="41589"
         y="15848"
         width="1436"
         height="526"
         id="rect6255" /><text
         class="Z"
         x="41662"
         y="16359"
         id="text6257">M73-1</text>
</g><g
       id="g6259"><rect
         class="A1"
         x="41589"
         y="17200"
         width="1436"
         height="526"
         id="rect6261" /><text
         class="Z"
         x="41662"
         y="17711"
         id="text6263">M73-3</text>
</g><g
       id="g6265"><rect
         class="A1"
         x="41589"
         y="22607"
         width="1436"
         height="526"
         id="rect6267" /><text
         class="Z"
         x="41662"
         y="23119"
         id="text6269">M73-4</text>
</g><g
       id="g6271"><rect
         class="A1"
         x="41589"
         y="18551"
         width="1436"
         height="526"
         id="rect6273" /><text
         class="Z"
         x="41662"
         y="19063"
         id="text6275">M73-5</text>
</g><g
       id="g6277"><rect
         class="A1"
         x="41589"
         y="21255"
         width="1436"
         height="526"
         id="rect6279" /><text
         class="Z"
         x="41662"
         y="21767"
         id="text6281">M73-6</text>
</g><g
       id="g6283"><rect
         class="A1"
         x="41589"
         y="23959"
         width="1436"
         height="526"
         id="rect6285" /><text
         class="Z"
         x="41662"
         y="24471"
         id="text6287">M73-2</text>
</g><g
       id="g6289"><rect
         class="A1"
         x="60789"
         y="40138"
         width="3155"
         height="633"
         id="rect6291" /><text
         class="Z"
         x="60933"
         y="40640"
         id="text6293">BARE_END1</text>
</g><g
       id="g6295"><rect
         class="A1"
         x="16566"
         y="38384"
         width="1155"
         height="633"
         id="rect6297" /><text
         class="Z"
         x="16710"
         y="38886"
         id="text6299">SG1</text>
</g><g
       id="g6301"><rect
         class="A1"
         x="59247"
         y="37477"
         width="1352"
         height="526"
         id="rect6303" /><text
         class="Z"
         x="59320"
         y="37989"
         id="text6305">E08-5</text>
</g><g
       id="g6307"><rect
         class="A1"
         x="59247"
         y="36125"
         width="1352"
         height="526"
         id="rect6309" /><text
         class="Z"
         x="59320"
         y="36637"
         id="text6311">E08-4</text>
</g><g
       id="g6313"><rect
         class="A1"
         x="59247"
         y="34774"
         width="1352"
         height="526"
         id="rect6315" /><text
         class="Z"
         x="59320"
         y="35285"
         id="text6317">E08-3</text>
</g><g
       id="g6319"><rect
         class="A1"
         x="59247"
         y="33422"
         width="1352"
         height="526"
         id="rect6321" /><text
         class="Z"
         x="59320"
         y="33934"
         id="text6323">E08-2</text>
</g><g
       id="g6325"><rect
         class="A1"
         x="5991"
         y="18551"
         width="1972"
         height="526"
         id="rect6327" /><text
         class="Z"
         x="6064"
         y="19063"
         id="text6329">E02B-26</text>
</g><g
       id="g6331"><rect
         class="A1"
         x="5991"
         y="23959"
         width="1972"
         height="526"
         id="rect6333" /><text
         class="Z"
         x="6064"
         y="24471"
         id="text6335">E02B-25</text>
</g><g
       id="g6337"><rect
         class="A1"
         x="5991"
         y="22607"
         width="1972"
         height="526"
         id="rect6339" /><text
         class="Z"
         x="6064"
         y="23119"
         id="text6341">E02B-28</text>
</g><g
       id="g6343"><rect
         class="A1"
         x="5991"
         y="21255"
         width="1972"
         height="526"
         id="rect6345" /><text
         class="Z"
         x="6064"
         y="21767"
         id="text6347">E02B-13</text>
</g><g
       id="g6349"><rect
         class="A1"
         x="5991"
         y="17200"
         width="1972"
         height="526"
         id="rect6351" /><text
         class="Z"
         x="6064"
         y="17711"
         id="text6353">E02B-27</text>
</g><g
       id="g6355"><rect
         class="A1"
         x="5991"
         y="15848"
         width="1972"
         height="526"
         id="rect6357" /><text
         class="Z"
         x="6064"
         y="16359"
         id="text6359">E02B-24</text>
</g><g
       id="g6361"><rect
         class="A1"
         x="5991"
         y="7737"
         width="1690"
         height="526"
         id="rect6363" /><text
         class="Z"
         x="6064"
         y="8248"
         id="text6365">E02B-4</text>
</g><g
       id="g6367"><rect
         class="A1"
         x="5991"
         y="6385"
         width="1690"
         height="526"
         id="rect6369" /><text
         class="Z"
         x="6064"
         y="6897"
         id="text6371">E02B-3</text>
</g><g
       id="g6373"><rect
         class="A1"
         x="5991"
         y="34774"
         width="1972"
         height="526"
         id="rect6375" /><text
         class="Z"
         x="6064"
         y="35285"
         id="text6377">E02A-26</text>
</g><g
       id="g6379"><rect
         class="A1"
         x="5991"
         y="36125"
         width="1972"
         height="526"
         id="rect6381" /><text
         class="Z"
         x="6064"
         y="36637"
         id="text6383">E02A-38</text>
</g><g
       id="g6385"><rect
         class="A1"
         x="5991"
         y="33422"
         width="1972"
         height="526"
         id="rect6387" /><text
         class="Z"
         x="6064"
         y="33934"
         id="text6389">E02A-32</text>
</g><g
       id="g6391"><rect
         class="A1"
         x="5991"
         y="37477"
         width="1972"
         height="526"
         id="rect6393" /><text
         class="Z"
         x="6064"
         y="37989"
         id="text6395">E02A-20</text>
</g><g
       id="g6397"><text
         class="B1"
         x="57645"
         y="15356"
         id="text6399">TWIST GRIP POSITION SENSOR</text>
</g><g
       id="g6401"><rect
         class="C1"
         x="61055"
         y="15944"
         width="2553"
         height="351"
         id="rect6403" /><text
         class="D1"
         x="61103"
         y="16285"
         id="text6405">APS 1 GROUND</text>
</g><g
       id="g6407"><rect
         class="E1"
         x="61055"
         y="24055"
         width="1990"
         height="351"
         id="rect6409" /><text
         class="D1"
         x="61103"
         y="24397"
         id="text6411">APS 2 SVCC</text>
</g><g
       id="g6413"><rect
         class="E1"
         x="61055"
         y="17296"
         width="2291"
         height="351"
         id="rect6415" /><text
         class="D1"
         x="61103"
         y="17637"
         id="text6417">APS 1 SIGNAL</text>
</g><g
       id="g6419"><rect
         class="E1"
         x="61055"
         y="22703"
         width="2291"
         height="351"
         id="rect6421" /><text
         class="D1"
         x="61103"
         y="23045"
         id="text6423">APS 2 SIGNAL</text>
</g><g
       id="g6425"><rect
         class="E1"
         x="61055"
         y="18647"
         width="1990"
         height="351"
         id="rect6427" /><text
         class="D1"
         x="61103"
         y="18989"
         id="text6429">APS 1 SVCC</text>
</g><g
       id="g6431"><rect
         class="E1"
         x="61055"
         y="21351"
         width="2553"
         height="351"
         id="rect6433" /><text
         class="D1"
         x="61103"
         y="21693"
         id="text6435">APS 2 GROUND</text>
</g><g
       id="g6437"><text
         class="B1"
         x="57882"
         y="5893"
         id="text6439">THROTTLE ACTUATOR MOTOR</text>
</g><g
       id="g6441"><rect
         class="C1"
         x="61731"
         y="7833"
         width="1257"
         height="351"
         id="rect6443" /><text
         class="D1"
         x="61779"
         y="8174"
         id="text6445">DBW_M</text>
</g><g
       id="g6447"><rect
         class="E1"
         x="61731"
         y="7833"
         width="1257"
         height="351"
         id="rect6449" /><text
         class="D1"
         x="61779"
         y="8174"
         id="text6451">DBW_M</text>
</g><g
       id="g6453"><rect
         class="E1"
         x="61731"
         y="6481"
         width="1201"
         height="351"
         id="rect6455" /><text
         class="D1"
         x="61779"
         y="6823"
         id="text6457">DBW_P</text>
</g><g
       id="g6459"><rect
         class="E1"
         x="61731"
         y="6481"
         width="1201"
         height="351"
         id="rect6461" /><text
         class="D1"
         x="61779"
         y="6823"
         id="text6463">DBW_P</text>
</g><g
       id="g6465"><text
         class="B1"
         x="57945"
         y="32930"
         id="text6467">THROTTLE POSITION SENSOR</text>
</g><g
       id="g6469"><rect
         class="C1"
         x="61731"
         y="33518"
         width="938"
         height="351"
         id="rect6471" /><text
         class="D1"
         x="61779"
         y="33859"
         id="text6473">SVCC</text>
</g><g
       id="g6475"><rect
         class="E1"
         x="61731"
         y="34870"
         width="1521"
         height="351"
         id="rect6477" /><text
         class="D1"
         x="61779"
         y="35211"
         id="text6479">SIGNAL 1</text>
</g><g
       id="g6481"><rect
         class="E1"
         x="61731"
         y="36222"
         width="1521"
         height="351"
         id="rect6483" /><text
         class="D1"
         x="61779"
         y="36563"
         id="text6485">SIGNAL 2</text>
</g><g
       id="g6487"><rect
         class="E1"
         x="61731"
         y="37573"
         width="1501"
         height="351"
         id="rect6489" /><text
         class="D1"
         x="61779"
         y="37915"
         id="text6491">GROUND</text>
</g><g
       id="g6493"><text
         class="B1"
         x="1650"
         y="5893"
         id="text6495">ENGINE ECM</text>
</g><g
       id="g6497"><rect
         class="C1"
         x="3996"
         y="15944"
         width="863"
         height="351"
         id="rect6499" /><text
         class="D1"
         x="4044"
         y="16285"
         id="text6501">SG#2</text>
</g><g
       id="g6503"><rect
         class="E1"
         x="3808"
         y="17296"
         width="1051"
         height="351"
         id="rect6505" /><text
         class="D1"
         x="3856"
         y="17637"
         id="text6507">APS#1</text>
</g><g
       id="g6509"><rect
         class="E1"
         x="3808"
         y="22703"
         width="1051"
         height="351"
         id="rect6511" /><text
         class="D1"
         x="3856"
         y="23045"
         id="text6513">APS#2</text>
</g><g
       id="g6515"><rect
         class="E1"
         x="3545"
         y="24055"
         width="1314"
         height="351"
         id="rect6517" /><text
         class="D1"
         x="3593"
         y="24397"
         id="text6519">SVCC#3</text>
</g><g
       id="g6521"><rect
         class="E1"
         x="3996"
         y="21351"
         width="863"
         height="351"
         id="rect6523" /><text
         class="D1"
         x="4044"
         y="21693"
         id="text6525">SG#3</text>
</g><g
       id="g6527"><rect
         class="E1"
         x="3545"
         y="18647"
         width="1314"
         height="351"
         id="rect6529" /><text
         class="D1"
         x="3593"
         y="18989"
         id="text6531">SVCC#2</text>
</g><g
       id="g6533"><rect
         class="E1"
         x="3996"
         y="37573"
         width="863"
         height="351"
         id="rect6535" /><text
         class="D1"
         x="4044"
         y="37915"
         id="text6537">SG#1</text>
</g><g
       id="g6539"><rect
         class="E1"
         x="3545"
         y="33518"
         width="1314"
         height="351"
         id="rect6541" /><text
         class="D1"
         x="3593"
         y="33859"
         id="text6543">SVCC#1</text>
</g><g
       id="g6545"><rect
         class="E1"
         x="3827"
         y="36222"
         width="1032"
         height="351"
         id="rect6547" /><text
         class="D1"
         x="3875"
         y="36563"
         id="text6549">TPS#2</text>
</g><g
       id="g6551"><rect
         class="E1"
         x="3827"
         y="34870"
         width="1032"
         height="351"
         id="rect6553" /><text
         class="D1"
         x="3875"
         y="35211"
         id="text6555">TPS#1</text>
</g><g
       id="g6557"><rect
         class="E1"
         x="3734"
         y="6481"
         width="1126"
         height="351"
         id="rect6559" /><text
         class="D1"
         x="3782"
         y="6823"
         id="text6561">DBW-P</text>
</g><g
       id="g6563"><rect
         class="E1"
         x="3677"
         y="7833"
         width="1182"
         height="351"
         id="rect6565" /><text
         class="D1"
         x="3725"
         y="8174"
         id="text6567">DBW-M</text>
</g><g
       id="g6569"><rect
         class="E1"
         x="57215"
         y="39593"
         width="1502"
         height="351"
         id="rect6571" /><text
         class="F1"
         x="57263"
         y="39934"
         id="text6573">SH_TPS1</text>
</g><g
       id="g6575"><rect
         class="E1"
         x="13280"
         y="39593"
         width="1502"
         height="351"
         id="rect6577" /><text
         class="F1"
         x="13328"
         y="39934"
         id="text6579">SH_TPS1</text>
</g><g
       id="g6581"><rect
         class="E1"
         x="52728"
         y="15831"
         width="337"
         height="526"
         id="rect6583" /><text
         class="Z"
         x="52801"
         y="16343"
         id="text6585">B</text>
</g><g
       id="g6587"><rect
         class="A1"
         x="52658"
         y="17183"
         width="478"
         height="526"
         id="rect6589" /><text
         class="Z"
         x="52731"
         y="17694"
         id="text6591">W</text>
</g><g
       id="g6593"><rect
         class="A1"
         x="52658"
         y="22590"
         width="478"
         height="526"
         id="rect6595" /><text
         class="Z"
         x="52731"
         y="23102"
         id="text6597">W</text>
</g><g
       id="g6599"><rect
         class="A1"
         x="52715"
         y="18534"
         width="365"
         height="526"
         id="rect6601" /><text
         class="Z"
         x="52788"
         y="19046"
         id="text6603">R</text>
</g><g
       id="g6605"><rect
         class="A1"
         x="52728"
         y="21238"
         width="337"
         height="526"
         id="rect6607" /><text
         class="Z"
         x="52801"
         y="21750"
         id="text6609">B</text>
</g><g
       id="g6611"><rect
         class="A1"
         x="52715"
         y="23942"
         width="365"
         height="526"
         id="rect6613" /><text
         class="Z"
         x="52788"
         y="24454"
         id="text6615">R</text>
</g><g
       id="g6617"><rect
         class="A1"
         x="26153"
         y="6368"
         width="901"
         height="526"
         id="rect6619" /><text
         class="Z"
         x="26226"
         y="6880"
         id="text6621">U/G</text>
</g><g
       id="g6623"><rect
         class="A1"
         x="26153"
         y="7720"
         width="901"
         height="526"
         id="rect6625" /><text
         class="Z"
         x="26226"
         y="8232"
         id="text6627">U/O</text>
</g><g
       id="g6629"><rect
         class="A1"
         x="26435"
         y="17183"
         width="337"
         height="526"
         id="rect6631" /><text
         class="Z"
         x="26508"
         y="17694"
         id="text6633">S</text>
</g><g
       id="g6635"><rect
         class="A1"
         x="26435"
         y="22590"
         width="337"
         height="526"
         id="rect6637" /><text
         class="Z"
         x="26508"
         y="23102"
         id="text6639">S</text>
</g><g
       id="g6641"><rect
         class="A1"
         x="26421"
         y="18602"
         width="365"
         height="526"
         id="rect6643" /><text
         class="Z"
         x="26494"
         y="19114"
         id="text6645">R</text>
</g><g
       id="g6647"><rect
         class="A1"
         x="26435"
         y="21306"
         width="337"
         height="526"
         id="rect6649" /><text
         class="Z"
         x="26508"
         y="21818"
         id="text6651">B</text>
</g><g
       id="g6653"><rect
         class="A1"
         x="26421"
         y="23942"
         width="365"
         height="526"
         id="rect6655" /><text
         class="Z"
         x="26494"
         y="24454"
         id="text6657">R</text>
</g><g
       id="g6659"><rect
         class="A1"
         x="26423"
         y="37494"
         width="337"
         height="526"
         id="rect6661" /><text
         class="Z"
         x="26496"
         y="38006"
         id="text6663">B</text>
</g><g
       id="g6665"><rect
         class="A1"
         x="26421"
         y="36109"
         width="365"
         height="526"
         id="rect6667" /><text
         class="Z"
         x="26494"
         y="36620"
         id="text6669">U</text>
</g><g
       id="g6671"><rect
         class="A1"
         x="26435"
         y="34824"
         width="337"
         height="526"
         id="rect6673" /><text
         class="Z"
         x="26508"
         y="35336"
         id="text6675">K</text>
</g><g
       id="g6677"><rect
         class="A1"
         x="26354"
         y="33405"
         width="365"
         height="526"
         id="rect6679" /><text
         class="Z"
         x="26427"
         y="33917"
         id="text6681">R</text>
</g><g
       id="g6683"><rect
         class="A1"
         x="26435"
         y="15831"
         width="337"
         height="526"
         id="rect6685" /><text
         class="Z"
         x="26508"
         y="16343"
         id="text6687">B</text>
</g></g></svg>