<?xml version="1.0" encoding="UTF-8" standalone="no"?>
<!-- Created with Inkscape (http://www.inkscape.org/) -->

<svg
   xmlns:dc="http://purl.org/dc/elements/1.1/"
   xmlns:cc="http://creativecommons.org/ns#"
   xmlns:rdf="http://www.w3.org/1999/02/22-rdf-syntax-ns#"
   xmlns:svg="http://www.w3.org/2000/svg"
   xmlns="http://www.w3.org/2000/svg"
   xmlns:sodipodi="http://sodipodi.sourceforge.net/DTD/sodipodi-0.dtd"
   xmlns:inkscape="http://www.inkscape.org/namespaces/inkscape"
   id="svg5456"
   version="1.1"
   inkscape:version="0.91 r13725"
   xml:space="preserve"
   width="301.18124"
   height="230.315"
   viewBox="0 0 301.18124 230.315"
   sodipodi:docname="chag.svg"><metadata
     id="metadata5462"><rdf:RDF><cc:Work
         rdf:about=""><dc:format>image/svg+xml</dc:format><dc:type
           rdf:resource="http://purl.org/dc/dcmitype/StillImage" /><dc:title></dc:title></cc:Work></rdf:RDF></metadata><defs
     id="defs5460"><clipPath
       clipPathUnits="userSpaceOnUse"
       id="clipPath5470"><path
         d="m 0.275,0 240.671,0 0,183.937 -240.671,0 L 0.275,0 Z"
         id="path5472"
         inkscape:connector-curvature="0" /></clipPath><clipPath
       clipPathUnits="userSpaceOnUse"
       id="clipPath5610"><path
         d="m 0,184.252 240.945,0 L 240.945,0 0,0 0,184.252 Z"
         id="path5612"
         inkscape:connector-curvature="0" /></clipPath></defs><sodipodi:namedview
     pagecolor="#ffffff"
     bordercolor="#666666"
     borderopacity="1"
     objecttolerance="10"
     gridtolerance="10"
     guidetolerance="10"
     inkscape:pageopacity="0"
     inkscape:pageshadow="2"
     inkscape:window-width="640"
     inkscape:window-height="480"
     id="namedview5458"
     showgrid="false"
     inkscape:zoom="4.2072813"
     inkscape:cx="150.59062"
     inkscape:cy="115.1575"
     inkscape:window-x="0"
     inkscape:window-y="0"
     inkscape:window-maximized="1"
     inkscape:current-layer="g5464" /><g
     id="g5464"
     inkscape:groupmode="layer"
     inkscape:label="chag"
     transform="matrix(1.25,0,0,-1.25,0,230.315)"><g
       id="g5466"><g
         id="g5468"
         clip-path="url(#clipPath5470)"><g
           id="g5474"
           transform="translate(134.6094,81.7539)"><path
             d="M 0,0 C 54.653,-21.385 118.112,-46.293 118.112,-46.293"
             style="fill:none;stroke:#100f0d;stroke-width:0.5;stroke-linecap:round;stroke-linejoin:round;stroke-miterlimit:4;stroke-dasharray:none;stroke-opacity:1"
             id="path5476"
             inkscape:connector-curvature="0" /></g><g
           id="g5478"
           transform="translate(50.8574,116.6084)"><path
             d="m 0,0 c 0.512,-1.765 2.542,-3.38 6.531,-4.812 0.764,-0.274 2.57,-0.959 5.253,-1.991"
             style="fill:none;stroke:#100f0d;stroke-width:0.5;stroke-linecap:round;stroke-linejoin:round;stroke-miterlimit:4;stroke-dasharray:none;stroke-opacity:1"
             id="path5480"
             inkscape:connector-curvature="0" /></g><g
           id="g5482"
           transform="translate(248.6709,77.0234)"><path
             d="m 0,0 c 0,0 -154.271,49.912 -163.126,52.485 -8.855,2.573 -20.891,1.135 -28.384,-4.163 -4.478,-3.167 -7.064,-6.117 -6.303,-8.737 0,0 0.855,-4.659 1.278,-6.938 0.394,-2.116 0.65,-3.501 6.118,-6.063"
             style="fill:none;stroke:#100f0d;stroke-width:1.5;stroke-linecap:round;stroke-linejoin:round;stroke-miterlimit:4;stroke-dasharray:none;stroke-opacity:1"
             id="path5484"
             inkscape:connector-curvature="0" /></g><g
           id="g5486"
           transform="translate(99.9736,134.5254)"><path
             d="m 0,0 c 0.363,1.07 0.588,1.565 1.248,2.061 1,0.75 6.25,5.25 7.75,6.5 1.5,1.25 8.851,2.695 8.851,2.695"
             style="fill:none;stroke:#100f0d;stroke-width:1.5;stroke-linecap:round;stroke-linejoin:round;stroke-miterlimit:4;stroke-dasharray:none;stroke-opacity:1"
             id="path5488"
             inkscape:connector-curvature="0" /></g><g
           id="g5490"
           transform="translate(95.4717,126.8359)"><path
             d="M 0,0 C 1.75,1.25 2.75,2.75 3.75,5.5 4.09,6.435 4.314,7.138 4.502,7.689"
             style="fill:none;stroke:#100f0d;stroke-width:1.5;stroke-linecap:round;stroke-linejoin:round;stroke-miterlimit:4;stroke-dasharray:none;stroke-opacity:1"
             id="path5492"
             inkscape:connector-curvature="0" /></g><g
           id="g5494"
           transform="translate(117.7354,145.3281)"><path
             d="m 0,0 c 0.184,0.337 0.348,0.674 0.486,1.008 1.25,3 2.5,5.75 7.75,7.25 5.25,1.5 12.25,4.75 14.5,6.25 2.25,1.5 4.75,2 4.75,2 l 6.75,-1.5"
             style="fill:none;stroke:#100f0d;stroke-width:1.5;stroke-linecap:round;stroke-linejoin:round;stroke-miterlimit:4;stroke-dasharray:none;stroke-opacity:1"
             id="path5496"
             inkscape:connector-curvature="0" /></g><g
           id="g5498"
           transform="translate(118.3691,144.9302)"><path
             d="m 0,0 c 0.014,0.021 -0.27,0.199 -0.634,0.398 -0.365,0.199 -0.669,0.344 -0.68,0.325 -1.169,-2.428 -2.928,-4.743 -5.121,-6.494 l 0.038,-0.073 0.043,-0.068 C -3.85,-4.479 -1.708,-2.462 0,0"
             style="fill:#231f20;fill-opacity:1;fill-rule:nonzero;stroke:none"
             id="path5500"
             inkscape:connector-curvature="0" /></g><g
           id="g5502"
           transform="translate(151.291,159.2061)"><path
             d="m 0,0 c 0.516,0.753 0.928,1.559 1.181,2.38 1,3.25 0,1.5 5.5,3.25 5.5,1.75 0.5,3.5 11.75,0.25 11.25,-3.25 16,-7 18,-10 2,-3 4.25,-14 8,-16.5 3.75,-2.5 20.75,-12 13.5,-24.75 -7.25,-12.75 -11.5,-15.5 -6.25,-22"
             style="fill:none;stroke:#100f0d;stroke-width:1.5;stroke-linecap:round;stroke-linejoin:round;stroke-miterlimit:4;stroke-dasharray:none;stroke-opacity:1"
             id="path5504"
             inkscape:connector-curvature="0" /></g><g
           id="g5506"
           transform="translate(151.6787,158.8931)"><path
             d="m 0,0 c 0.014,0.017 -0.159,0.157 -0.388,0.313 -0.228,0.157 -0.423,0.27 -0.435,0.255 -1.249,-1.977 -3.074,-3.783 -5.391,-4.57 l 0.007,-0.055 0.015,-0.051 C -3.734,-3.59 -1.611,-1.977 0,0"
             style="fill:#231f20;fill-opacity:1;fill-rule:nonzero;stroke:none"
             id="path5508"
             inkscape:connector-curvature="0" /></g><g
           id="g5510"
           transform="translate(103.1611,133.4897)"><path
             d="m 0,0 c -0.096,0.077 -0.403,-0.102 -0.689,-0.404 -0.286,-0.3 -0.429,-0.616 -0.322,-0.704 2.993,-3.144 7.878,-3.198 11.513,-2.001 3.806,0.987 7.457,2.343 11.18,3.321 7.41,1.595 15.534,3.076 22.813,0.323 l 0.066,0.061 0.016,0.08 C 37.238,3.689 29.054,2.416 21.489,1.021 14.268,-0.113 5.682,-5.718 0,0"
             style="fill:#231f20;fill-opacity:1;fill-rule:nonzero;stroke:none"
             id="path5512"
             inkscape:connector-curvature="0" /></g><g
           id="g5514"
           transform="translate(163.1846,158.855)"><path
             d="M 0,0 C -0.032,0.054 -0.35,-0.066 -0.713,-0.269 -1.074,-0.471 -1.341,-0.68 -1.308,-0.736 2.502,-6.875 8.164,-14.245 16.282,-13.6 l 0.005,0.081 -0.02,0.081 C 8.339,-13.588 3.379,-6.2 0,0"
             style="fill:#231f20;fill-opacity:1;fill-rule:nonzero;stroke:none"
             id="path5516"
             inkscape:connector-curvature="0" /></g><g
           id="g5518"
           transform="translate(190.5732,132.3271)"><path
             d="m 0,0 c 0.04,0.016 -0.005,0.354 -0.102,0.759 -0.096,0.403 -0.252,0.705 -0.346,0.673 -3.014,-1.238 -2.238,-4.511 -2.378,-6.235 -0.007,-2.15 0.139,-4.312 0.526,-6.436 0.73,-4.194 2.669,-8.512 6.392,-10.812 l 0.056,0.06 0.034,0.076 C -2.491,-17.096 -3.092,-5.064 0,0"
             style="fill:#231f20;fill-opacity:1;fill-rule:nonzero;stroke:none"
             id="path5520"
             inkscape:connector-curvature="0" /></g><g
           id="g5522"
           transform="translate(253.9717,22.0859)"><path
             d="m 0,0 -75.75,32 c 0,0 -14.25,7.5 -18.75,11.5 -4.5,4 -7.5,8.75 -14.75,11.25 -7.25,2.5 -8,2.75 -8.5,3.5 -0.5,0.75 -12.5,10.25 -19.25,14 -6.75,3.75 -22.75,13.5 -25.25,15.5 -2.5,2 -9.75,4.75 -12.5,4.75 -2.75,0 -8,1.25 -15,-4 -7,-5.25 -8.75,-15.75 -7.5,-18.25 1.25,-2.5 8.75,-18.25 10.25,-21.75 1.5,-3.5 0.25,-12.5 6.25,-16.5 6,-4 12.25,-15.25 12.25,-15.25 0,0 -3.75,-9.25 4.25,-13.75 8,-4.5 12.25,-6.25 15.75,-8.75 3.5,-2.5 9.25,-4.75 12.25,-2.75 3,2 8,6.75 17.75,15.25 9.75,8.5 19,11.25 25,10.5 6,-0.75 25.75,2.25 28.5,9.75"
             style="fill:none;stroke:#100f0d;stroke-width:1.5;stroke-linecap:round;stroke-linejoin:round;stroke-miterlimit:4;stroke-dasharray:none;stroke-opacity:1"
             id="path5524"
             inkscape:connector-curvature="0" /></g><g
           id="g5526"
           transform="translate(119.9717,15.0859)"><path
             d="M 0,0 C 3.75,-2.5 15,-21.75 15,-21.75"
             style="fill:none;stroke:#100f0d;stroke-width:1.5;stroke-linecap:round;stroke-linejoin:round;stroke-miterlimit:4;stroke-dasharray:none;stroke-opacity:1"
             id="path5528"
             inkscape:connector-curvature="0" /></g><g
           id="g5530"
           transform="translate(93.2617,83.124)"><path
             d="m 0,0 c 0.111,0.08 -0.018,0.397 -0.29,0.712 -0.272,0.313 -0.564,0.517 -0.653,0.454 -2.895,-1.684 -6.407,-4.824 -6.36,-8.867 -0.183,-3.886 1.277,-7.349 2.257,-10.82 1.944,-6.971 4.906,-13.853 5.682,-20.965 l 0.074,-0.052 0.079,-0.003 c -0.547,7.346 -3.313,14.195 -5.036,21.253 -0.894,3.502 -2.19,7.056 -1.896,10.479 C -5.958,-4.17 -3.275,-1.889 0,0"
             style="fill:#231f20;fill-opacity:1;fill-rule:nonzero;stroke:none"
             id="path5532"
             inkscape:connector-curvature="0" /></g><g
           id="g5534"
           transform="translate(208.876,40.6768)"><path
             d="M 0,0 C 0.054,0.183 -0.24,0.366 -0.654,0.409 -1.066,0.452 -1.43,0.427 -1.458,0.352 -5.894,-4.754 -15.437,-5.85 -22.585,-8.363 c -3.842,-1.177 -7.665,-2.22 -11.572,-3.127 -3.703,-0.906 -8.426,-1.724 -10.059,-5.795 l 0.062,-0.056 0.087,-0.009 C -32.169,-7.303 -12.983,-11.302 0,0"
             style="fill:#231f20;fill-opacity:1;fill-rule:nonzero;stroke:none"
             id="path5536"
             inkscape:connector-curvature="0" /></g><g
           id="g5538"
           transform="translate(223.3066,34.6113)"><path
             d="m 0,0 c 0.048,0.078 -0.212,0.29 -0.585,0.475 -0.372,0.183 -0.703,0.286 -0.74,0.228 -4.983,-6.748 -15.465,-13.662 -12.84,-23.992 l 0.08,0.014 0.072,0.044 c -1.286,4.69 1.312,9.255 4.08,12.878 C -7.103,-6.611 -2.927,-4.222 0,0"
             style="fill:#231f20;fill-opacity:1;fill-rule:nonzero;stroke:none"
             id="path5540"
             inkscape:connector-curvature="0" /></g><g
           id="g5542"
           transform="translate(78.0547,123.3662)"><path
             d="m 0,0 c 0.479,-2.054 -2.849,-4.583 -7.429,-5.649 -4.581,-1.066 -8.682,-0.265 -9.16,1.788"
             style="fill:none;stroke:#100f0d;stroke-width:1.5;stroke-linecap:round;stroke-linejoin:round;stroke-miterlimit:4;stroke-dasharray:none;stroke-opacity:1"
             id="path5544"
             inkscape:connector-curvature="0" /></g><g
           id="g5546"
           transform="translate(61.4658,119.5049)"><path
             d="m 0,0 c -0.479,2.054 2.847,4.584 7.428,5.649 4.581,1.067 8.682,0.266 9.161,-1.788"
             style="fill:none;stroke:#100f0d;stroke-width:0.5;stroke-linecap:round;stroke-linejoin:round;stroke-miterlimit:4;stroke-dasharray:none;stroke-opacity:1"
             id="path5548"
             inkscape:connector-curvature="0" /></g><g
           id="g5550"
           transform="translate(47.7603,121.7324)"><path
             d="m 0,0 c 4.243,17.599 28.909,26.75 55.067,20.421 1.361,-0.328 2.7,-0.692 4.014,-1.089"
             style="fill:none;stroke:#100f0d;stroke-width:0.5;stroke-linecap:round;stroke-linejoin:round;stroke-miterlimit:4;stroke-dasharray:none;stroke-opacity:1"
             id="path5552"
             inkscape:connector-curvature="0" /></g><g
           id="g5554"
           transform="translate(56.3438,95.7012)"><path
             d="M 0,0 C -7.283,7.87 -10.724,17.179 -8.583,26.031"
             style="fill:none;stroke:#100f0d;stroke-width:1.5;stroke-linecap:round;stroke-linejoin:round;stroke-miterlimit:4;stroke-dasharray:none;stroke-opacity:1"
             id="path5556"
             inkscape:connector-curvature="0" /></g><g
           id="g5558"
           transform="translate(47.4185,120.6631)"><path
             d="m 0,0 c 5.142,16.721 29.214,25.25 54.701,19.084 0.671,-0.162 1.335,-0.333 1.994,-0.511"
             style="fill:none;stroke:#100f0d;stroke-width:1.5;stroke-linecap:round;stroke-linejoin:round;stroke-miterlimit:4;stroke-dasharray:none;stroke-opacity:1"
             id="path5560"
             inkscape:connector-curvature="0" /></g><g
           id="g5562"
           transform="translate(47.3828,119.2119)"><path
             d="M 0,0 C 6.098,15.71 29.469,23.539 54.171,17.562"
             style="fill:none;stroke:#100f0d;stroke-width:0.5;stroke-linecap:round;stroke-linejoin:round;stroke-miterlimit:4;stroke-dasharray:none;stroke-opacity:1"
             id="path5564"
             inkscape:connector-curvature="0" /></g><g
           id="g5566"
           transform="translate(47.4185,118.2275)"><path
             d="M 0,0 C 6.988,14.376 29.058,21.431 52.508,16.073"
             style="fill:none;stroke:#100f0d;stroke-width:1.5;stroke-linecap:round;stroke-linejoin:round;stroke-miterlimit:4;stroke-dasharray:none;stroke-opacity:1"
             id="path5568"
             inkscape:connector-curvature="0" /></g><g
           id="g5570"
           transform="translate(47.3115,115.583)"><path
             d="M 0,0 C 7.841,12.936 28.562,19.152 50.655,14.372"
             style="fill:none;stroke:#100f0d;stroke-width:0.5;stroke-linecap:round;stroke-linejoin:round;stroke-miterlimit:4;stroke-dasharray:none;stroke-opacity:1"
             id="path5572"
             inkscape:connector-curvature="0" /></g><g
           id="g5574"
           transform="translate(65.5586,73.6797)"><path
             d="m 0,0 c -19.728,10.648 -31.277,28.521 -27.24,45.221 5.195,21.548 34.341,33.007 65.068,25.573 1.884,-0.455 3.731,-0.97 5.536,-1.542"
             style="fill:none;stroke:#100f0d;stroke-width:0.5;stroke-linecap:round;stroke-linejoin:round;stroke-miterlimit:4;stroke-dasharray:none;stroke-opacity:1"
             id="path5576"
             inkscape:connector-curvature="0" /></g><g
           id="g5578"
           transform="translate(68.3804,61.9795)"><path
             d="M 0,0 C -26.349,11.152 -42.61,33.349 -37.631,53.946"
             style="fill:none;stroke:#100f0d;stroke-width:0.5;stroke-linecap:round;stroke-linejoin:round;stroke-miterlimit:4;stroke-dasharray:none;stroke-opacity:1"
             id="path5580"
             inkscape:connector-curvature="0" /></g><g
           id="g5582"
           transform="translate(108.9336,142.9502)"><path
             d="M 0,0 C -1.813,0.56 -3.663,1.068 -5.547,1.523 -39.85,9.822 -72.386,-2.97 -78.185,-27.024 l -1,-4.25 c -5.186,-21.457 12.677,-44.65 40.982,-55.285"
             style="fill:none;stroke:#100f0d;stroke-width:1.5;stroke-linecap:round;stroke-linejoin:round;stroke-miterlimit:4;stroke-dasharray:none;stroke-opacity:1"
             id="path5584"
             inkscape:connector-curvature="0" /></g><g
           id="g5586"
           transform="translate(74.5742,53.209)"><path
             d="M 0,0 C -31.174,9.913 -51.485,34.544 -46.366,57.379"
             style="fill:none;stroke:#100f0d;stroke-width:0.5;stroke-linecap:round;stroke-linejoin:round;stroke-miterlimit:4;stroke-dasharray:none;stroke-opacity:1"
             id="path5588"
             inkscape:connector-curvature="0" /></g><g
           id="g5590"
           transform="translate(31.5244,119.3096)"><path
             d="m 0,0 c -1.417,-2.56 -2.495,-5.296 -3.193,-8.191 -0.043,-0.177 -0.084,-0.354 -0.123,-0.531 l -7.063,-42.129 c -5.635,-23.308 16.779,-48.731 50.055,-56.782 15.227,-3.673 30.092,-3.074 42.277,0.891"
             style="fill:none;stroke:#100f0d;stroke-width:1.5;stroke-linecap:round;stroke-linejoin:round;stroke-miterlimit:4;stroke-dasharray:none;stroke-opacity:1"
             id="path5592"
             inkscape:connector-curvature="0" /></g><g
           id="g5594"
           transform="translate(26.7217,40.5859)"><path
             d="M 0,0 -10,-49"
             style="fill:none;stroke:#100f0d;stroke-width:1.5;stroke-linecap:round;stroke-linejoin:round;stroke-miterlimit:4;stroke-dasharray:none;stroke-opacity:1"
             id="path5596"
             inkscape:connector-curvature="0" /></g><g
           id="g5598"
           transform="translate(116.4717,12.5859)"><path
             d="M 0,0 -5.25,-18"
             style="fill:none;stroke:#100f0d;stroke-width:1.5;stroke-linecap:round;stroke-linejoin:round;stroke-miterlimit:4;stroke-dasharray:none;stroke-opacity:1"
             id="path5600"
             inkscape:connector-curvature="0" /></g></g></g><g
       id="g5602"
       transform="translate(199.6777,85.0205)"><path
         d="M 0,0 18.878,16.898"
         style="fill:none;stroke:#ffffff;stroke-width:3;stroke-linecap:round;stroke-linejoin:round;stroke-miterlimit:4;stroke-dasharray:none;stroke-opacity:1"
         id="path5604"
         inkscape:connector-curvature="0" /></g><g
       id="g5606"><g
         id="g5608"
         clip-path="url(#clipPath5610)"><g
           id="g5614"
           transform="translate(199.5557,83.7861)"><path
             d="M 0,0 C 0.681,0 1.233,0.553 1.233,1.234 1.233,1.916 0.681,2.467 0,2.467 -0.681,2.467 -1.233,1.916 -1.233,1.234 -1.233,0.553 -0.681,0 0,0"
             style="fill:#231f20;fill-opacity:1;fill-rule:nonzero;stroke:none"
             id="path5616"
             inkscape:connector-curvature="0" /></g><g
           id="g5618"
           transform="translate(199.5557,83.7861)"><path
             d="M 0,0 C 0.681,0 1.233,0.553 1.233,1.234 1.233,1.916 0.681,2.467 0,2.467 -0.681,2.467 -1.233,1.916 -1.233,1.234 -1.233,0.553 -0.681,0 0,0 Z"
             style="fill:none;stroke:#ffffff;stroke-width:1;stroke-linecap:butt;stroke-linejoin:miter;stroke-miterlimit:4;stroke-dasharray:none;stroke-opacity:1"
             id="path5620"
             inkscape:connector-curvature="0" /></g><g
           id="g5622"
           transform="translate(199.6777,85.0205)"><path
             d="M 0,0 18.878,16.898"
             style="fill:none;stroke:#231f20;stroke-width:0.5;stroke-linecap:round;stroke-linejoin:round;stroke-miterlimit:4;stroke-dasharray:none;stroke-opacity:1"
             id="path5624"
             inkscape:connector-curvature="0" /></g><g
           id="g5626"
           transform="translate(40.8887,126.5859)"><path
             d="M 0,0 -18.333,18"
             style="fill:none;stroke:#ffffff;stroke-width:3;stroke-linecap:round;stroke-linejoin:round;stroke-miterlimit:4;stroke-dasharray:none;stroke-opacity:1"
             id="path5628"
             inkscape:connector-curvature="0" /></g><g
           id="g5630"
           transform="translate(40.7666,125.3516)"><path
             d="M 0,0 C 0.681,0 1.233,0.553 1.233,1.234 1.233,1.916 0.681,2.467 0,2.467 -0.681,2.467 -1.233,1.916 -1.233,1.234 -1.233,0.553 -0.681,0 0,0"
             style="fill:#231f20;fill-opacity:1;fill-rule:nonzero;stroke:none"
             id="path5632"
             inkscape:connector-curvature="0" /></g><g
           id="g5634"
           transform="translate(40.7666,125.3516)"><path
             d="M 0,0 C 0.681,0 1.233,0.553 1.233,1.234 1.233,1.916 0.681,2.467 0,2.467 -0.681,2.467 -1.233,1.916 -1.233,1.234 -1.233,0.553 -0.681,0 0,0 Z"
             style="fill:none;stroke:#ffffff;stroke-width:1;stroke-linecap:butt;stroke-linejoin:miter;stroke-miterlimit:4;stroke-dasharray:none;stroke-opacity:1"
             id="path5636"
             inkscape:connector-curvature="0" /></g><g
           id="g5638"
           transform="translate(40.8887,126.5859)"><path
             d="M 0,0 -18.333,18"
             style="fill:none;stroke:#231f20;stroke-width:0.5;stroke-linecap:round;stroke-linejoin:round;stroke-miterlimit:4;stroke-dasharray:none;stroke-opacity:1"
             id="path5640"
             inkscape:connector-curvature="0" /></g><g
           id="g5642"
           transform="translate(34.2217,52.2529)"><path
             d="M 0,0 -21,-5.334"
             style="fill:none;stroke:#ffffff;stroke-width:3;stroke-linecap:round;stroke-linejoin:round;stroke-miterlimit:4;stroke-dasharray:none;stroke-opacity:1"
             id="path5644"
             inkscape:connector-curvature="0" /></g><g
           id="g5646"
           transform="translate(34.0996,51.0186)"><path
             d="M 0,0 C 0.681,0 1.233,0.553 1.233,1.234 1.233,1.916 0.681,2.467 0,2.467 -0.681,2.467 -1.233,1.916 -1.233,1.234 -1.233,0.553 -0.681,0 0,0"
             style="fill:#231f20;fill-opacity:1;fill-rule:nonzero;stroke:none"
             id="path5648"
             inkscape:connector-curvature="0" /></g><g
           id="g5650"
           transform="translate(34.0996,51.0186)"><path
             d="M 0,0 C 0.681,0 1.233,0.553 1.233,1.234 1.233,1.916 0.681,2.467 0,2.467 -0.681,2.467 -1.233,1.916 -1.233,1.234 -1.233,0.553 -0.681,0 0,0 Z"
             style="fill:none;stroke:#ffffff;stroke-width:1;stroke-linecap:butt;stroke-linejoin:miter;stroke-miterlimit:4;stroke-dasharray:none;stroke-opacity:1"
             id="path5652"
             inkscape:connector-curvature="0" /></g><g
           id="g5654"
           transform="translate(34.2217,52.2529)"><path
             d="M 0,0 -21,-5.334"
             style="fill:none;stroke:#231f20;stroke-width:0.5;stroke-linecap:round;stroke-linejoin:round;stroke-miterlimit:4;stroke-dasharray:none;stroke-opacity:1"
             id="path5656"
             inkscape:connector-curvature="0" /></g><g
           id="g5658"
           transform="translate(189.5557,146.5859)"><path
             d="M 0,0 19.333,15.667"
             style="fill:none;stroke:#ffffff;stroke-width:3;stroke-linecap:round;stroke-linejoin:round;stroke-miterlimit:4;stroke-dasharray:none;stroke-opacity:1"
             id="path5660"
             inkscape:connector-curvature="0" /></g><g
           id="g5662"
           transform="translate(189.4336,145.3516)"><path
             d="M 0,0 C 0.681,0 1.233,0.553 1.233,1.234 1.233,1.916 0.681,2.467 0,2.467 -0.681,2.467 -1.233,1.916 -1.233,1.234 -1.233,0.553 -0.681,0 0,0"
             style="fill:#231f20;fill-opacity:1;fill-rule:nonzero;stroke:none"
             id="path5664"
             inkscape:connector-curvature="0" /></g><g
           id="g5666"
           transform="translate(189.4336,145.3516)"><path
             d="M 0,0 C 0.681,0 1.233,0.553 1.233,1.234 1.233,1.916 0.681,2.467 0,2.467 -0.681,2.467 -1.233,1.916 -1.233,1.234 -1.233,0.553 -0.681,0 0,0 Z"
             style="fill:none;stroke:#ffffff;stroke-width:1;stroke-linecap:butt;stroke-linejoin:miter;stroke-miterlimit:4;stroke-dasharray:none;stroke-opacity:1"
             id="path5668"
             inkscape:connector-curvature="0" /></g><g
           id="g5670"
           transform="translate(189.5557,146.5859)"><path
             d="M 0,0 19.333,15.667"
             style="fill:none;stroke:#231f20;stroke-width:0.5;stroke-linecap:round;stroke-linejoin:round;stroke-miterlimit:4;stroke-dasharray:none;stroke-opacity:1"
             id="path5672"
             inkscape:connector-curvature="0" /></g></g></g><text
       transform="matrix(1,0,0,-1,220.8887,103.4229)"
       style="font-variant:normal;font-weight:bold;font-stretch:normal;font-size:12px;font-family:'Swiss 721 SWA';-inkscape-font-specification:Helvetica-Bold;writing-mode:lr-tb;fill:#231f20;fill-opacity:1;fill-rule:nonzero;stroke:none"
       id="text5674"><tspan
         x="0"
         y="0"
         id="tspan5676">1</tspan><tspan
         x="-10.332"
         y="-60.335999"
         id="tspan5678">3</tspan><tspan
         x="-207.66"
         y="-43.007999"
         id="tspan5680">2</tspan><tspan
         x="-216.66"
         y="62.327999"
         id="tspan5682">4</tspan></text>
<text
       transform="matrix(1,0,0,-1,3.5576,2.5264)"
       style="font-variant:normal;font-weight:normal;font-stretch:normal;font-size:5px;font-family:'Swiss 721 SWA';-inkscape-font-specification:Helvetica;writing-mode:lr-tb;fill:#231f20;fill-opacity:1;fill-rule:nonzero;stroke:none"
       id="text5684"><tspan
         x="0 2.5 5.2800002 8.0600004"
         y="0"
         sodipodi:role="line"
         id="tspan5686">chag</tspan></text>
</g></svg>