<?xml version="1.0" encoding="UTF-8" standalone="no"?>
<svg
   xmlns:dc="http://purl.org/dc/elements/1.1/"
   xmlns:cc="http://creativecommons.org/ns#"
   xmlns:rdf="http://www.w3.org/1999/02/22-rdf-syntax-ns#"
   xmlns:svg="http://www.w3.org/2000/svg"
   xmlns="http://www.w3.org/2000/svg"
   viewBox="0 0 301.18124 230.31375"
   height="230.31375"
   width="301.18124"
   xml:space="preserve"
   version="1.1"
   id="svg2"><metadata
     id="metadata8"><rdf:RDF><cc:Work
         rdf:about=""><dc:format>image/svg+xml</dc:format><dc:type
           rdf:resource="http://purl.org/dc/dcmitype/StillImage" /></cc:Work></rdf:RDF></metadata><defs
     id="defs6"><clipPath
       id="clipPath26"
       clipPathUnits="userSpaceOnUse"><path
         id="path28"
         d="m 13.622,3.464 215.792,0 0,172.636 -215.792,0 0,-172.636 z" /></clipPath></defs><g
     transform="matrix(1.25,0,0,-1.25,0,230.31375)"
     id="g10"><text
       id="text12"
       style="font-variant:normal;font-weight:normal;font-stretch:normal;font-size:10.65789986px;font-family:Helvetica;-inkscape-font-specification:Helvetica;writing-mode:lr-tb;fill:#231f20;fill-opacity:1;fill-rule:nonzero;stroke:none"
       transform="matrix(1,0,0,-1,35.0044,144.6699)"><tspan
         id="tspan14"
         y="0"
         x="0 9.8478994 18.139746 25.834749 33.529755 35.959755 42.045414 50.337261 58.202793 64.714767">WORN TOOTH</tspan><tspan
         id="tspan16"
         y="12.78948"
         x="-18.459482 -14.910402 -7.8015828 -0.106579 8.1852674 11.148164 18.843166 25.951986 28.914883 36.023701 43.132523 50.614368 58.906212 66.601219 73.710037 80.818855 87.330833">(ENGINE SPROCKET)</tspan><tspan
         id="tspan18"
         y="0"
         x="106.96268 116.81059 125.10243 132.79744 140.49243 142.92244 149.00917 157.30101 165.16655 171.67851">WORN TOOTH</tspan><tspan
         id="tspan20"
         y="12.78948"
         x="94.130569 97.679657 105.37466 112.48347 119.59229 127.2873 130.2502 137.35901 144.46783 151.95074 160.2426 167.93759 175.04642 182.15523 188.66721">(REAR SPROCKET)</tspan></text>
<g
       id="g22"><g
         clip-path="url(#clipPath26)"
         id="g24"><g
           transform="translate(24.98,72.1904)"
           id="g30"><path
             id="path32"
             style="fill:none;stroke:#231f20;stroke-width:1.14199996;stroke-linecap:round;stroke-linejoin:round;stroke-miterlimit:4;stroke-dasharray:none;stroke-opacity:1"
             d="m 0,0 c 0.428,1.699 0.657,3.477 0.657,5.31 0,2.602 -0.46,5.096 -1.302,7.406 0,0 -1.698,2.858 0.282,4.041 1.972,1.177 3.488,-1.652 3.488,-1.652 3.951,-5.201 10.202,-8.558 17.237,-8.558 11.948,0 21.633,9.684 21.633,21.632 0,2.29 -0.348,4.499 -1.014,6.568 -0.69,2.14 -0.399,4.806 1.394,5.387 1.793,0.582 3.713,0.141 4.548,-3.346 2.156,-9.026 10.944,-15.345 20.703,-15.345 11.948,0 21.633,9.685 21.633,21.634 0,2.742 1.672,4.835 3.765,4.835 2.094,0 4.092,-1.427 4.092,-4.092 L 95.688,39.728 96.259,34.97 94.642,33.163 96.926,29.26 91.882,18.032 94.261,13.56 93.88,11.656" /></g><g
           transform="translate(65.4761,110.2061)"
           id="g34"><path
             id="path36"
             style="fill:none;stroke:#231f20;stroke-width:1.14199996;stroke-linecap:butt;stroke-linejoin:miter;stroke-miterlimit:4;stroke-dasharray:3.045, 2.284;stroke-dashoffset:0;stroke-opacity:1"
             d="M 0,0 C 0.381,-3.997 -0.19,-21.507 -6.471,-26.264" /></g><g
           transform="translate(57.4829,124.8608)"
           id="g38"><path
             id="path40"
             style="fill:none;stroke:#231f20;stroke-width:1.14199996;stroke-linecap:round;stroke-linejoin:round;stroke-miterlimit:4;stroke-dasharray:none;stroke-opacity:1"
             d="M 0,0 C -6.471,-10.658 -2.093,-24.932 0.761,-28.929" /></g><g
           transform="translate(60.354,94.7358)"
           id="g42"><path
             id="path44"
             style="fill:#231f20;fill-opacity:1;fill-rule:nonzero;stroke:none"
             d="M 0,0 C -0.562,1.66 -0.816,2.816 -1.158,4.226 L -5.322,1.251 C -4.857,0.992 -3.088,-0.145 -1.701,-1.215 -0.217,-2.36 1.031,-3.47 1.751,-4.25 1.247,-3.315 0.603,-1.776 0,0" /></g><g
           transform="translate(223.9697,72.1904)"
           id="g46"><path
             id="path48"
             style="fill:none;stroke:#231f20;stroke-width:1.14199996;stroke-linecap:round;stroke-linejoin:round;stroke-miterlimit:4;stroke-dasharray:none;stroke-opacity:1"
             d="m 0,0 c -0.429,1.699 -0.657,3.477 -0.657,5.31 0,2.602 0.46,5.096 1.303,7.406 0,0 1.698,2.858 -0.283,4.041 -1.971,1.177 -3.489,-1.652 -3.489,-1.652 -3.952,-5.201 -10.202,-8.558 -17.237,-8.558 -11.946,0 -21.632,9.684 -21.632,21.632 0,2.29 0.349,4.499 1.015,6.568 0.69,2.14 0.397,4.806 -1.395,5.387 -1.794,0.582 -3.714,0.141 -4.548,-3.346 -2.156,-9.026 -10.944,-15.345 -20.702,-15.345 -11.949,0 -21.635,9.685 -21.635,21.634 0,2.742 -1.67,4.835 -3.764,4.835 -2.094,0 -4.092,-1.427 -4.092,-4.092 l 1.427,-4.092 -0.571,-4.758 1.618,-1.807 -2.284,-3.903 5.044,-11.228 -2.38,-4.472 0.382,-1.904" /></g><g
           transform="translate(183.4736,110.2061)"
           id="g50"><path
             id="path52"
             style="fill:none;stroke:#231f20;stroke-width:1.14199996;stroke-linecap:butt;stroke-linejoin:miter;stroke-miterlimit:4;stroke-dasharray:3.045, 2.284;stroke-dashoffset:0;stroke-opacity:1"
             d="M 0,0 C -0.381,-3.997 0.19,-21.507 6.471,-26.264" /></g><g
           transform="translate(191.4668,124.8608)"
           id="g54"><path
             id="path56"
             style="fill:none;stroke:#231f20;stroke-width:1.14199996;stroke-linecap:round;stroke-linejoin:round;stroke-miterlimit:4;stroke-dasharray:none;stroke-opacity:1"
             d="M 0,0 C 6.472,-10.658 2.094,-24.932 -0.761,-28.929" /></g><g
           transform="translate(188.5947,94.7358)"
           id="g58"><path
             id="path60"
             style="fill:#231f20;fill-opacity:1;fill-rule:nonzero;stroke:none"
             d="M 0,0 C 0.562,1.66 0.816,2.816 1.159,4.226 L 5.322,1.251 C 4.857,0.992 3.09,-0.145 1.702,-1.215 0.217,-2.36 -1.03,-3.47 -1.752,-4.25 -1.246,-3.315 -0.602,-1.776 0,0" /></g><g
           transform="translate(109.043,62.3408)"
           id="g62"><path
             id="path64"
             style="fill:#231f20;fill-opacity:1;fill-rule:nonzero;stroke:none"
             d="M 0,0 -0.364,5.233 -16.732,-4.663 0.777,-11.135 0.42,-6.007 c 21.324,1.121 39.563,-5.888 39.563,-5.888 l 3.425,11.8 C 43.408,-0.095 22.063,5.062 0,0" /></g></g></g><text
       id="text66"
       style="font-variant:normal;font-weight:normal;font-stretch:normal;font-size:6.09019995px;font-family:Helvetica;-inkscape-font-specification:Helvetica;writing-mode:lr-tb;fill:#231f20;fill-opacity:1;fill-rule:nonzero;stroke:none"
       transform="matrix(1,0,0,-1,16.4785,6.292)"><tspan
         id="tspan68"
         y="0"
         x="0 3.0451 6.0901999 9.4763508">ccol</tspan></text>
</g></svg>