<?xml version="1.0" encoding="UTF-8" standalone="no"?>
<!-- Created with Inkscape (http://www.inkscape.org/) -->

<svg
   xmlns:dc="http://purl.org/dc/elements/1.1/"
   xmlns:cc="http://creativecommons.org/ns#"
   xmlns:rdf="http://www.w3.org/1999/02/22-rdf-syntax-ns#"
   xmlns:svg="http://www.w3.org/2000/svg"
   xmlns="http://www.w3.org/2000/svg"
   xmlns:sodipodi="http://sodipodi.sourceforge.net/DTD/sodipodi-0.dtd"
   xmlns:inkscape="http://www.inkscape.org/namespaces/inkscape"
   id="svg9244"
   version="1.1"
   inkscape:version="0.91 r13725"
   xml:space="preserve"
   width="297.63751"
   height="230.315"
   viewBox="0 0 297.63751 230.315"
   sodipodi:docname="cgfa_1.svg"><metadata
     id="metadata9250"><rdf:RDF><cc:Work
         rdf:about=""><dc:format>image/svg+xml</dc:format><dc:type
           rdf:resource="http://purl.org/dc/dcmitype/StillImage" /><dc:title></dc:title></cc:Work></rdf:RDF></metadata><defs
     id="defs9248"><clipPath
       clipPathUnits="userSpaceOnUse"
       id="clipPath9258"><path
         d="m 11.813,1.076 218.49,0 0,180.466 -218.49,0 0,-180.466 z"
         id="path9260"
         inkscape:connector-curvature="0" /></clipPath><clipPath
       clipPathUnits="userSpaceOnUse"
       id="clipPath9638"><path
         d="m 0,184.252 238.11,0 L 238.11,0 0,0 0,184.252 Z"
         id="path9640"
         inkscape:connector-curvature="0" /></clipPath><clipPath
       clipPathUnits="userSpaceOnUse"
       id="clipPath9694"><path
         d="m 0,184.252 238.11,0 L 238.11,0 0,0 0,184.252 Z"
         id="path9696"
         inkscape:connector-curvature="0" /></clipPath></defs><sodipodi:namedview
     pagecolor="#ffffff"
     bordercolor="#666666"
     borderopacity="1"
     objecttolerance="10"
     gridtolerance="10"
     guidetolerance="10"
     inkscape:pageopacity="0"
     inkscape:pageshadow="2"
     inkscape:window-width="640"
     inkscape:window-height="480"
     id="namedview9246"
     showgrid="false"
     inkscape:zoom="1.0079375"
     inkscape:cx="148.81876"
     inkscape:cy="115.1575"
     inkscape:window-x="0"
     inkscape:window-y="0"
     inkscape:window-maximized="0"
     inkscape:current-layer="g9252" /><g
     id="g9252"
     inkscape:groupmode="layer"
     inkscape:label="cgfa_1"
     transform="matrix(1.25,0,0,-1.25,0,230.315)"><g
       id="g9254"><g
         id="g9256"
         clip-path="url(#clipPath9258)"><g
           id="g9262"
           transform="translate(82.4624,50.001)"><path
             d="m 0,0 c 0.292,-7.161 -1.343,-13.893 -11.282,-19.663 -9.296,-5.399 -33.633,-16.092 -47.117,-21.903"
             style="fill:none;stroke:#000000;stroke-width:0.34999999;stroke-linecap:round;stroke-linejoin:round;stroke-miterlimit:4;stroke-dasharray:none;stroke-opacity:1"
             id="path9264"
             inkscape:connector-curvature="0" /></g><g
           id="g9266"
           transform="translate(13.0337,118.6191)"><path
             d="m 0,0 c 47.96,-24.192 66.721,-44.231 68.758,-61.543 0.282,-2.391 0.577,-4.756 0.671,-7.075"
             style="fill:none;stroke:#000000;stroke-width:0.34999999;stroke-linecap:round;stroke-linejoin:round;stroke-miterlimit:4;stroke-dasharray:none;stroke-opacity:1"
             id="path9268"
             inkscape:connector-curvature="0" /></g><g
           id="g9270"
           transform="translate(81.7915,57.0762)"><path
             d="M 0,0 C 27.065,21.803 40.038,48.245 24.571,86.162"
             style="fill:none;stroke:#000000;stroke-width:0.75;stroke-linecap:round;stroke-linejoin:round;stroke-miterlimit:4;stroke-dasharray:none;stroke-opacity:1"
             id="path9272"
             inkscape:connector-curvature="0" /></g><g
           id="g9274"
           transform="translate(46.9878,187.8013)"><path
             d="M 0,0 71.092,-52.629"
             style="fill:none;stroke:#000000;stroke-width:0.34999999;stroke-linecap:round;stroke-linejoin:round;stroke-miterlimit:4;stroke-dasharray:none;stroke-opacity:1"
             id="path9276"
             inkscape:connector-curvature="0" /></g><g
           id="g9278"
           transform="translate(113.1982,138.3555)"><path
             d="m 0,0 c 0,-4.669 7.429,-12.097 16.342,-14.431 8.912,-2.334 30.133,5.518 41.805,16.977 9.532,9.357 11.461,23.768 -1.697,30.348 L 33.742,55.813"
             style="fill:none;stroke:#000000;stroke-width:0.34999999;stroke-linecap:round;stroke-linejoin:round;stroke-miterlimit:4;stroke-dasharray:none;stroke-opacity:1"
             id="path9280"
             inkscape:connector-curvature="0" /></g><g
           id="g9282"
           transform="translate(131.874,123.2881)"><path
             d="M 0,0 89.979,-65.362"
             style="fill:none;stroke:#000000;stroke-width:0.34999999;stroke-linecap:round;stroke-linejoin:round;stroke-miterlimit:4;stroke-dasharray:none;stroke-opacity:1"
             id="path9284"
             inkscape:connector-curvature="0" /></g><g
           id="g9286"
           transform="translate(118.9282,134.7476)"><path
             d="m 0,0 c 5.306,-4.032 25.252,-0.849 35.652,6.154 10.399,7.003 21.435,21.858 14.22,30.135"
             style="fill:none;stroke:#000000;stroke-width:0.15000001;stroke-linecap:round;stroke-linejoin:round;stroke-miterlimit:4;stroke-dasharray:none;stroke-opacity:1"
             id="path9288"
             inkscape:connector-curvature="0" /></g><g
           id="g9290"
           transform="translate(178.9854,160.2129)"><path
             d="m 0,0 c 0,0 11.036,-11.247 14.006,-14.218 2.971,-2.971 8.063,-5.306 10.823,-2.971"
             style="fill:none;stroke:#000000;stroke-width:0.34999999;stroke-linecap:round;stroke-linejoin:round;stroke-miterlimit:4;stroke-dasharray:none;stroke-opacity:1"
             id="path9292"
             inkscape:connector-curvature="0" /></g><g
           id="g9294"
           transform="translate(189.1719,149.8149)"><path
             d="m 0,0 c 2.547,-0.212 4.67,2.759 6.367,5.517 1.697,2.759 4.88,10.399 7.427,16.129 2.546,5.729 0.636,12.308 -3.184,16.34"
             style="fill:none;stroke:#000000;stroke-width:0.15000001;stroke-linecap:round;stroke-linejoin:round;stroke-miterlimit:4;stroke-dasharray:none;stroke-opacity:1"
             id="path9296"
             inkscape:connector-curvature="0" /></g><g
           id="g9298"
           transform="translate(188.959,150.4517)"><path
             d="m 0,0 c 1.062,1.061 1.911,1.591 2.76,2.971 1.697,2.759 4.88,10.398 7.427,16.128 2.546,5.73 0.636,12.309 -3.184,16.341"
             style="fill:none;stroke:#000000;stroke-width:0.34999999;stroke-linecap:round;stroke-linejoin:round;stroke-miterlimit:4;stroke-dasharray:none;stroke-opacity:1"
             id="path9300"
             inkscape:connector-curvature="0" /></g><g
           id="g9302"
           transform="translate(83.1143,50.707)"><path
             d="m 0,0 c 0.786,1.072 1.634,2.113 2.497,2.975 3.395,3.396 5.942,5.517 7.215,6.366 1.273,0.849 2.759,0.637 4.245,-0.637 1.485,-1.272 5.518,-3.606 9.125,-5.729 3.606,-2.122 11.671,-1.061 18.463,10.399 6.789,11.459 12.308,28.012 9.55,48.172 -0.394,2.861 -0.214,3.183 1.273,3.608 1.485,0.425 10.611,-2.972 10.611,-2.972"
             style="fill:none;stroke:#000000;stroke-width:0.75;stroke-linecap:round;stroke-linejoin:round;stroke-miterlimit:4;stroke-dasharray:none;stroke-opacity:1"
             id="path9304"
             inkscape:connector-curvature="0" /></g><g
           id="g9306"
           transform="translate(103.4365,-6.376)"><path
             d="m 0,0 c 0,0 3.396,17.19 4.245,22.707 0.848,5.518 2.334,11.036 8.7,15.492 6.367,4.457 31.196,27.163 29.922,80.218"
             style="fill:none;stroke:#000000;stroke-width:0.15000001;stroke-linecap:round;stroke-linejoin:round;stroke-miterlimit:4;stroke-dasharray:none;stroke-opacity:1"
             id="path9308"
             inkscape:connector-curvature="0" /></g><g
           id="g9310"
           transform="translate(109.1665,-10.832)"><path
             d="m 0,0 c 0,0 3.396,17.189 4.244,22.707 0.848,5.518 2.335,11.035 8.701,15.492 6.366,4.456 32.045,27.162 30.771,80.217"
             style="fill:none;stroke:#000000;stroke-width:0.15000001;stroke-linecap:round;stroke-linejoin:round;stroke-miterlimit:4;stroke-dasharray:none;stroke-opacity:1"
             id="path9312"
             inkscape:connector-curvature="0" /></g><g
           id="g9314"
           transform="translate(147.5771,-7.6484)"><path
             d="M 0,0 C 15.279,18.249 42.655,33.954 42.655,33.954"
             style="fill:none;stroke:#000000;stroke-width:0.34999999;stroke-linecap:round;stroke-linejoin:round;stroke-miterlimit:4;stroke-dasharray:none;stroke-opacity:1"
             id="path9316"
             inkscape:connector-curvature="0" /></g><g
           id="g9318"
           transform="translate(160.0986,5.085)"><path
             d="m 0,0 c 0,0 16.979,27.798 23.556,39.046 6.578,11.248 17.402,20.161 28.011,20.586"
             style="fill:none;stroke:#000000;stroke-width:0.75;stroke-linecap:round;stroke-linejoin:round;stroke-miterlimit:4;stroke-dasharray:none;stroke-opacity:1"
             id="path9320"
             inkscape:connector-curvature="0" /></g><g
           id="g9322"
           transform="translate(59.2959,23.5469)"><path
             d="M 0,0 18.463,-26.103"
             style="fill:none;stroke:#000000;stroke-width:0.34999999;stroke-linecap:round;stroke-linejoin:round;stroke-miterlimit:4;stroke-dasharray:none;stroke-opacity:1"
             id="path9324"
             inkscape:connector-curvature="0" /></g><g
           id="g9326"
           transform="translate(83.064,40.0996)"><path
             d="m 0,0 c 0,0 -1.486,-17.402 -1.91,-22.92 -0.424,-5.517 4.881,-8.487 6.155,-17.612"
             style="fill:none;stroke:#000000;stroke-width:0.15000001;stroke-linecap:round;stroke-linejoin:round;stroke-miterlimit:4;stroke-dasharray:none;stroke-opacity:1"
             id="path9328"
             inkscape:connector-curvature="0" /></g><g
           id="g9330"
           transform="translate(62.479,19.3027)"><path
             d="M 0,0 0.212,5.941"
             style="fill:none;stroke:#000000;stroke-width:0.75;stroke-linecap:round;stroke-linejoin:round;stroke-miterlimit:4;stroke-dasharray:none;stroke-opacity:1"
             id="path9332"
             inkscape:connector-curvature="0" /></g><g
           id="g9334"
           transform="translate(25.5527,112.3037)"><path
             d="m 0,0 c 0,0 27.368,7.853 38.8,12.356 11.432,4.504 23.096,8.545 22.98,9.239"
             style="fill:none;stroke:#000000;stroke-width:0.34999999;stroke-linecap:round;stroke-linejoin:round;stroke-miterlimit:4;stroke-dasharray:none;stroke-opacity:1"
             id="path9336"
             inkscape:connector-curvature="0" /></g><g
           id="g9338"
           transform="translate(72.3208,139.3257)"><path
             d="M 0,0 C 1.732,-2.31 8.199,-6.583 8.776,-8.199"
             style="fill:none;stroke:#000000;stroke-width:0.34999999;stroke-linecap:round;stroke-linejoin:round;stroke-miterlimit:4;stroke-dasharray:none;stroke-opacity:1"
             id="path9340"
             inkscape:connector-curvature="0" /></g><g
           id="g9342"
           transform="translate(40.6797,103.4126)"><path
             d="m 0,0 c 16.052,4.272 46.538,14.204 48.27,14.896 1.732,0.693 3.695,1.962 3.695,5.773 0,3.812 -1.963,11.434 -3.58,15.244 -1.616,3.811 -16.398,16.282 -16.398,16.282"
             style="fill:none;stroke:#000000;stroke-width:0.34999999;stroke-linecap:round;stroke-linejoin:round;stroke-miterlimit:4;stroke-dasharray:none;stroke-opacity:1"
             id="path9344"
             inkscape:connector-curvature="0" /></g><g
           id="g9346"
           transform="translate(206.7686,14.9932)"><path
             d="m 0,0 c -4.368,2.856 -4.04,11.086 0.728,18.376 4.768,7.29 12.176,10.887 16.545,8.029 C 21.642,23.547 21.313,15.318 16.546,8.026 15.051,5.742 13.296,3.82 11.459,2.345"
             style="fill:none;stroke:#000000;stroke-width:0.15000001;stroke-linecap:round;stroke-linejoin:round;stroke-miterlimit:4;stroke-dasharray:none;stroke-opacity:1"
             id="path9348"
             inkscape:connector-curvature="0" /></g><g
           id="g9350"
           transform="translate(218.2275,17.3379)"><path
             d="M 0,0 C -4.027,-3.229 -8.46,-4.309 -11.459,-2.345 L -25.887,7.672 c -4.366,2.855 -4.196,10.845 0.379,17.839 4.38,6.699 11.217,10.059 15.624,7.823 l 0.405,0.012 9.152,7.959"
             style="fill:none;stroke:#000000;stroke-width:0.34999999;stroke-linecap:round;stroke-linejoin:round;stroke-miterlimit:4;stroke-dasharray:none;stroke-opacity:1"
             id="path9352"
             inkscape:connector-curvature="0" /></g><g
           id="g9354"
           transform="translate(218.042,17.3086)"><path
             d="m 0,0 c -3.644,-2.731 -7.565,-3.581 -10.259,-1.819 -4.095,2.678 -3.789,10.398 0.685,17.236 4.472,6.84 11.422,10.211 15.519,7.53 C 10.043,20.269 9.737,12.549 5.263,5.709 3.728,3.363 1.903,1.426 0,0"
             style="fill:none;stroke:#000000;stroke-width:0.15000001;stroke-linecap:round;stroke-linejoin:round;stroke-miterlimit:4;stroke-dasharray:none;stroke-opacity:1"
             id="path9356"
             inkscape:connector-curvature="0" /></g><g
           id="g9358"
           transform="translate(209.7266,18.7246)"><path
             d="m 0,0 c -3.193,2.086 -2.955,8.105 0.533,13.437 3.487,5.331 8.905,7.959 12.098,5.87"
             style="fill:none;stroke:#000000;stroke-width:0.15000001;stroke-linecap:round;stroke-linejoin:round;stroke-miterlimit:4;stroke-dasharray:none;stroke-opacity:1"
             id="path9360"
             inkscape:connector-curvature="0" /></g><g
           id="g9362"
           transform="translate(211.1582,17.6904)"><path
             d="m 0,0 c -3.193,2.087 -2.954,8.104 0.533,13.437 3.488,5.331 8.905,7.959 12.098,5.869 0.049,-0.033 0.096,-0.066 0.143,-0.098"
             style="fill:none;stroke:#000000;stroke-width:0.15000001;stroke-linecap:round;stroke-linejoin:round;stroke-miterlimit:4;stroke-dasharray:none;stroke-opacity:1"
             id="path9364"
             inkscape:connector-curvature="0" /></g><g
           id="g9366"
           transform="translate(223.9326,36.8984)"><path
             d="m 0,0 c 3.046,-2.173 2.761,-8.09 -0.676,-13.342 -3.485,-5.329 -8.903,-7.957 -12.098,-5.866 l -1.654,1.201"
             style="fill:none;stroke:#000000;stroke-width:0.34999999;stroke-linecap:round;stroke-linejoin:round;stroke-miterlimit:4;stroke-dasharray:none;stroke-opacity:1"
             id="path9368"
             inkscape:connector-curvature="0" /></g><g
           id="g9370"
           transform="translate(161.7168,7.1533)"><path
             d="m 0,0 c 0,0 26.897,33.503 30.956,38.597 4.06,5.093 9.789,7.958 12.973,5.65"
             style="fill:none;stroke:#000000;stroke-width:0.15000001;stroke-linecap:round;stroke-linejoin:round;stroke-miterlimit:4;stroke-dasharray:none;stroke-opacity:1"
             id="path9372"
             inkscape:connector-curvature="0" /></g><g
           id="g9374"
           transform="translate(206.8389,51.4004)"><path
             d="M 0,0 -11.619,6.207"
             style="fill:none;stroke:#000000;stroke-width:0.34999999;stroke-linecap:round;stroke-linejoin:round;stroke-miterlimit:4;stroke-dasharray:none;stroke-opacity:1"
             id="path9376"
             inkscape:connector-curvature="0" /></g><g
           id="g9378"
           transform="translate(169.6748,12.4854)"><path
             d="m 0,0 c 0,0 8.992,10.982 11.856,14.244 2.867,3.263 5.174,3.741 7.641,3.263"
             style="fill:none;stroke:#000000;stroke-width:0.34999999;stroke-linecap:round;stroke-linejoin:round;stroke-miterlimit:4;stroke-dasharray:none;stroke-opacity:1"
             id="path9380"
             inkscape:connector-curvature="0" /></g><g
           id="g9382"
           transform="translate(154.0762,-6.2168)"><path
             d="M 0,0 C 15.439,15.439 28.173,24.591 39.234,30.321"
             style="fill:none;stroke:#000000;stroke-width:0.15000001;stroke-linecap:round;stroke-linejoin:round;stroke-miterlimit:4;stroke-dasharray:none;stroke-opacity:1"
             id="path9384"
             inkscape:connector-curvature="0" /></g><g
           id="g9386"
           transform="translate(156.3047,-8.2061)"><path
             d="M 0,0 C 15.439,15.438 27.535,24.989 38.597,30.719"
             style="fill:none;stroke:#000000;stroke-width:0.15000001;stroke-linecap:round;stroke-linejoin:round;stroke-miterlimit:4;stroke-dasharray:none;stroke-opacity:1"
             id="path9388"
             inkscape:connector-curvature="0" /></g><g
           id="g9390"
           transform="translate(51.9395,95.7715)"><path
             d="m 0,0 c 0,0 7.89,4.791 10.708,6.575 2.817,1.784 5.446,3.757 4.789,8.641"
             style="fill:none;stroke:#000000;stroke-width:0.34999999;stroke-linecap:round;stroke-linejoin:round;stroke-miterlimit:4;stroke-dasharray:none;stroke-opacity:1"
             id="path9392"
             inkscape:connector-curvature="0" /></g><g
           id="g9394"
           transform="translate(42.6401,102.1582)"><path
             d="M 0,0 8.641,4.227"
             style="fill:none;stroke:#000000;stroke-width:0.34999999;stroke-linecap:round;stroke-linejoin:round;stroke-miterlimit:4;stroke-dasharray:none;stroke-opacity:1"
             id="path9396"
             inkscape:connector-curvature="0" /></g><g
           id="g9398"
           transform="translate(42.4521,117.4683)"><path
             d="M 0,0 C -3.663,12.681 -8.735,26.676 -19.913,27.709"
             style="fill:none;stroke:#000000;stroke-width:0.34999999;stroke-linecap:round;stroke-linejoin:round;stroke-miterlimit:4;stroke-dasharray:none;stroke-opacity:1"
             id="path9400"
             inkscape:connector-curvature="0" /></g><g
           id="g9402"
           transform="translate(33.9048,114.9326)"><path
             d="m 0,0 c 0,0 0.188,6.105 -0.469,9.768 -0.658,3.664 -4.039,13.901 -8.923,14.653"
             style="fill:none;stroke:#000000;stroke-width:0.34999999;stroke-linecap:round;stroke-linejoin:round;stroke-miterlimit:4;stroke-dasharray:none;stroke-opacity:1"
             id="path9404"
             inkscape:connector-curvature="0" /></g><g
           id="g9406"
           transform="translate(40.9492,123.1982)"><path
             d="M 0,0 C 6.012,1.127 16.531,1.127 16.531,1.127"
             style="fill:none;stroke:#000000;stroke-width:0.34999999;stroke-linecap:round;stroke-linejoin:round;stroke-miterlimit:4;stroke-dasharray:none;stroke-opacity:1"
             id="path9408"
             inkscape:connector-curvature="0" /></g><g
           id="g9410"
           transform="translate(33.623,122.1646)"><path
             d="M 0,0 C -6.011,-1.315 -9.581,-3.193 -9.581,-3.193"
             style="fill:none;stroke:#000000;stroke-width:0.34999999;stroke-linecap:round;stroke-linejoin:round;stroke-miterlimit:4;stroke-dasharray:none;stroke-opacity:1"
             id="path9412"
             inkscape:connector-curvature="0" /></g><g
           id="g9414"
           transform="translate(26.3906,120.4741)"><path
             d="m 0,0 3.288,9.675 0,1.033 0.563,1.409"
             style="fill:none;stroke:#000000;stroke-width:0.34999999;stroke-linecap:round;stroke-linejoin:round;stroke-miterlimit:4;stroke-dasharray:none;stroke-opacity:1"
             id="path9416"
             inkscape:connector-curvature="0" /></g><g
           id="g9418"
           transform="translate(36.8169,145.2715)"><path
             d="M 0,0 18.503,-13.526"
             style="fill:none;stroke:#000000;stroke-width:0.34999999;stroke-linecap:round;stroke-linejoin:round;stroke-miterlimit:4;stroke-dasharray:none;stroke-opacity:1"
             id="path9420"
             inkscape:connector-curvature="0" /></g><g
           id="g9422"
           transform="translate(57.7632,123.0107)"><path
             d="m 0,0 c 0.093,2.724 -1.409,6.104 -2.349,10.237 -0.939,4.134 -3.288,9.769 -4.227,12.587 -0.939,2.818 -0.844,3.663 -0.469,4.415"
             style="fill:none;stroke:#000000;stroke-width:0.34999999;stroke-linecap:round;stroke-linejoin:round;stroke-miterlimit:4;stroke-dasharray:none;stroke-opacity:1"
             id="path9424"
             inkscape:connector-curvature="0" /></g><g
           id="g9426"
           transform="translate(29.2144,130.0259)"><path
             d="M 0,0 -7.003,1.591"
             style="fill:none;stroke:#000000;stroke-width:0.15000001;stroke-linecap:round;stroke-linejoin:round;stroke-miterlimit:4;stroke-dasharray:none;stroke-opacity:1"
             id="path9428"
             inkscape:connector-curvature="0" /></g><g
           id="g9430"
           transform="translate(29.5327,133.6865)"><path
             d="M 0,0 -7.321,2.229"
             style="fill:none;stroke:#000000;stroke-width:0.15000001;stroke-linecap:round;stroke-linejoin:round;stroke-miterlimit:4;stroke-dasharray:none;stroke-opacity:1"
             id="path9432"
             inkscape:connector-curvature="0" /></g><g
           id="g9434"
           transform="translate(28.1006,136.7109)"><path
             d="M 0,0 -3.661,1.432"
             style="fill:none;stroke:#000000;stroke-width:0.34999999;stroke-linecap:round;stroke-linejoin:round;stroke-miterlimit:4;stroke-dasharray:none;stroke-opacity:1"
             id="path9436"
             inkscape:connector-curvature="0" /></g><g
           id="g9438"
           transform="translate(42.4248,147.2158)"><path
             d="M 0,0 11.301,-8.277"
             style="fill:none;stroke:#000000;stroke-width:0.34999999;stroke-linecap:round;stroke-linejoin:round;stroke-miterlimit:4;stroke-dasharray:none;stroke-opacity:1"
             id="path9440"
             inkscape:connector-curvature="0" /></g><g
           id="g9442"
           transform="translate(65.8213,139.5757)"><path
             d="M 0,0 C 1.592,-4.138 2.069,-13.21 2.069,-13.21"
             style="fill:none;stroke:#000000;stroke-width:0.34999999;stroke-linecap:round;stroke-linejoin:round;stroke-miterlimit:4;stroke-dasharray:none;stroke-opacity:1"
             id="path9444"
             inkscape:connector-curvature="0" /></g><g
           id="g9446"
           transform="translate(67.4131,133.0503)"><path
             d="M 0,0 C 2.069,3.342 3.979,4.615 6.367,4.138"
             style="fill:none;stroke:#000000;stroke-width:0.34999999;stroke-linecap:round;stroke-linejoin:round;stroke-miterlimit:4;stroke-dasharray:none;stroke-opacity:1"
             id="path9448"
             inkscape:connector-curvature="0" /></g><g
           id="g9450"
           transform="translate(41.5347,186.0176)"><path
             d="m 0,0 c 2.893,-8.415 7.364,-13.324 10.257,-21.039 2.892,-7.713 9.204,-16.042 9.204,-16.042"
             style="fill:none;stroke:#000000;stroke-width:0.34999999;stroke-linecap:round;stroke-linejoin:round;stroke-miterlimit:4;stroke-dasharray:none;stroke-opacity:1"
             id="path9452"
             inkscape:connector-curvature="0" /></g><g
           id="g9454"
           transform="translate(64.9404,174.6216)"><path
             d="M 0,0 C 5.435,-8.766 8.678,-23.494 8.678,-23.494"
             style="fill:none;stroke:#000000;stroke-width:0.34999999;stroke-linecap:round;stroke-linejoin:round;stroke-miterlimit:4;stroke-dasharray:none;stroke-opacity:1"
             id="path9456"
             inkscape:connector-curvature="0" /></g><g
           id="g9458"
           transform="translate(38.4873,148.8096)"><path
             d="m 0,0 c -2.52,-3.496 -7.268,-4.378 -10.609,-1.971 -3.34,2.407 -4.005,7.191 -1.486,10.688 2.519,3.495 7.269,4.378 10.609,1.97 C 1.854,8.282 2.519,3.496 0,0 Z"
             style="fill:none;stroke:#000000;stroke-width:0.34999999;stroke-linecap:round;stroke-linejoin:round;stroke-miterlimit:4;stroke-dasharray:none;stroke-opacity:1"
             id="path9460"
             inkscape:connector-curvature="0" /></g><g
           id="g9462"
           transform="translate(25.6138,146.0098)"><path
             d="m 0,0 c -4.424,3.188 -5.305,9.526 -1.969,14.157 1.056,1.466 2.408,2.585 3.904,3.329 l 20.297,9.986"
             style="fill:none;stroke:#000000;stroke-width:0.15000001;stroke-linecap:round;stroke-linejoin:round;stroke-miterlimit:4;stroke-dasharray:none;stroke-opacity:1"
             id="path9464"
             inkscape:connector-curvature="0" /></g><g
           id="g9466"
           transform="translate(51.9668,151.0405)"><path
             d="m 0,0 -17.047,-6.122 c -3.047,-1.192 -6.541,-0.902 -9.306,1.091 l -5.731,4.155"
             style="fill:none;stroke:#000000;stroke-width:0.34999999;stroke-linecap:round;stroke-linejoin:round;stroke-miterlimit:4;stroke-dasharray:none;stroke-opacity:1"
             id="path9468"
             inkscape:connector-curvature="0" /></g><g
           id="g9470"
           transform="translate(24.353,168.8369)"><path
             d="m 0,0 c 1.315,0.263 4.121,0.35 4.909,0.263 0.789,-0.088 3.77,0.262 4.909,0.876 1.14,0.613 12.448,5.172 12.448,5.172"
             style="fill:none;stroke:#000000;stroke-width:0.34999999;stroke-linecap:round;stroke-linejoin:round;stroke-miterlimit:4;stroke-dasharray:none;stroke-opacity:1"
             id="path9472"
             inkscape:connector-curvature="0" /></g><g
           id="g9474"
           transform="translate(48.5474,171.3789)"><path
             d="m 0,0 c -2.717,0.789 -9.993,-9.468 -6.224,-12.799 3.769,-3.331 9.556,-7.452 10.432,-7.977 0.877,-0.526 4.471,2.981 4.471,2.981"
             style="fill:none;stroke:#000000;stroke-width:0.34999999;stroke-linecap:round;stroke-linejoin:round;stroke-miterlimit:4;stroke-dasharray:none;stroke-opacity:1"
             id="path9476"
             inkscape:connector-curvature="0" /></g><g
           id="g9478"
           transform="translate(41.4473,160.2451)"><path
             d="M 0,0 C -2.893,3.507 -0.614,9.73 6.487,12.711"
             style="fill:none;stroke:#000000;stroke-width:0.15000001;stroke-linecap:round;stroke-linejoin:round;stroke-miterlimit:4;stroke-dasharray:none;stroke-opacity:1"
             id="path9480"
             inkscape:connector-curvature="0" /></g><g
           id="g9482"
           transform="translate(54.7715,151.479)"><path
             d="M 0,0 5.085,-2.717"
             style="fill:none;stroke:#000000;stroke-width:0.34999999;stroke-linecap:round;stroke-linejoin:round;stroke-miterlimit:4;stroke-dasharray:none;stroke-opacity:1"
             id="path9484"
             inkscape:connector-curvature="0" /></g><g
           id="g9486"
           transform="translate(37.8125,154.4971)"><path
             d="m 0,0 -3.397,-0.872 -0.871,3.397 -1.953,-0.501 0.87,-3.397 -3.396,-0.872 0.501,-1.952 3.397,0.87 0.87,-3.395 1.954,0.501 -0.871,3.395 L 0.5,-1.954 0,0 Z"
             style="fill:none;stroke:#000000;stroke-width:0.15000001;stroke-linecap:round;stroke-linejoin:round;stroke-miterlimit:4;stroke-dasharray:none;stroke-opacity:1"
             id="path9488"
             inkscape:connector-curvature="0" /></g><g
           id="g9490"
           transform="translate(27.8882,124.4556)"><path
             d="M 0,0 5.412,-1.698"
             style="fill:none;stroke:#000000;stroke-width:0.34999999;stroke-linecap:round;stroke-linejoin:round;stroke-miterlimit:4;stroke-dasharray:none;stroke-opacity:1"
             id="path9492"
             inkscape:connector-curvature="0" /></g><g
           id="g9494"
           transform="translate(82.958,116.0728)"><path
             d="m 0,0 c 0,0 0.955,-5.199 1.167,-9.019 0.213,-3.819 -0.425,-7.747 0,-11.035"
             style="fill:none;stroke:#000000;stroke-width:0.34999999;stroke-linecap:round;stroke-linejoin:round;stroke-miterlimit:4;stroke-dasharray:none;stroke-opacity:1"
             id="path9496"
             inkscape:connector-curvature="0" /></g><g
           id="g9498"
           transform="translate(84.4434,87.2109)"><path
             d="m 0,0 c 0,0 0,-0.105 0.213,-2.228 0.212,-2.123 5.941,-3.607 9.762,-3.501 3.819,0.105 8.806,1.698 8.913,3.713 0.106,2.016 0.318,4.033 0.106,5.412"
             style="fill:none;stroke:#000000;stroke-width:0.34999999;stroke-linecap:round;stroke-linejoin:round;stroke-miterlimit:4;stroke-dasharray:none;stroke-opacity:1"
             id="path9500"
             inkscape:connector-curvature="0" /></g><g
           id="g9502"
           transform="translate(94.9482,152.1494)"><path
             d="m 0,0 c 0,0 2.44,-9.762 3.713,-18.781 1.274,-9.02 3.396,-24.193 4.139,-27.588 0.743,-3.396 0.743,-7.746 0.531,-10.293 0,0 0.7,-0.574 0.7,-1.036 0,-0.461 -0.153,-0.691 -0.077,-1.613 0.077,-0.922 -0.384,-1.921 -0.384,-1.921"
             style="fill:none;stroke:#000000;stroke-width:0.34999999;stroke-linecap:round;stroke-linejoin:round;stroke-miterlimit:4;stroke-dasharray:none;stroke-opacity:1"
             id="path9504"
             inkscape:connector-curvature="0" /></g><g
           id="g9506"
           transform="translate(99.6167,126.6836)"><path
             d="M 0,0 C 3.608,7.215 3.608,19.099 3.608,19.099"
             style="fill:none;stroke:#000000;stroke-width:0.34999999;stroke-linecap:round;stroke-linejoin:round;stroke-miterlimit:4;stroke-dasharray:none;stroke-opacity:1"
             id="path9508"
             inkscape:connector-curvature="0" /></g><g
           id="g9510"
           transform="translate(101.7393,111.7222)"><path
             d="M 0,0 8.17,20.161"
             style="fill:none;stroke:#000000;stroke-width:0.34999999;stroke-linecap:round;stroke-linejoin:round;stroke-miterlimit:4;stroke-dasharray:none;stroke-opacity:1"
             id="path9512"
             inkscape:connector-curvature="0" /></g><g
           id="g9514"
           transform="translate(83.4888,88.9082)"><path
             d="m 0,0 c -2.547,-1.06 -16.234,-1.804 -16.553,0.106 -0.319,1.911 -0.425,4.564 -0.425,4.564 0,0 6.473,13.051 7.958,15.279 1.486,2.229 4.564,2.865 6.261,0.212 1.697,-2.653 3.183,-4.35 3.183,-4.35"
             style="fill:none;stroke:#000000;stroke-width:0.34999999;stroke-linecap:round;stroke-linejoin:round;stroke-miterlimit:4;stroke-dasharray:none;stroke-opacity:1"
             id="path9516"
             inkscape:connector-curvature="0" /></g><g
           id="g9518"
           transform="translate(84.4395,82.3105)"><path
             d="m 0,0 c 0,-1.271 -2.683,-2.304 -5.993,-2.304 -3.309,0 -5.992,1.033 -5.992,2.304"
             style="fill:none;stroke:#000000;stroke-width:0.15000001;stroke-linecap:round;stroke-linejoin:round;stroke-miterlimit:4;stroke-dasharray:none;stroke-opacity:1"
             id="path9520"
             inkscape:connector-curvature="0" /></g><g
           id="g9522"
           transform="translate(93.0435,91.0049)"><path
             d="M 0,0 C -5.153,-0.166 -9.263,0.955 -9.368,2.621"
             style="fill:none;stroke:#000000;stroke-width:0.34999999;stroke-linecap:round;stroke-linejoin:round;stroke-miterlimit:4;stroke-dasharray:none;stroke-opacity:1"
             id="path9524"
             inkscape:connector-curvature="0" /></g><g
           id="g9526"
           transform="translate(103.9756,94.8936)"><path
             d="M 0,0 C 0.107,-1.714 -4.057,-3.379 -9.403,-3.804"
             style="fill:none;stroke:#000000;stroke-width:0.15000001;stroke-linecap:round;stroke-linejoin:round;stroke-miterlimit:4;stroke-dasharray:none;stroke-opacity:1"
             id="path9528"
             inkscape:connector-curvature="0" /></g><g
           id="g9530"
           transform="translate(102.77,95.3843)"><path
             d="M 0,0 C 0.095,-1.508 -3.564,-2.974 -8.264,-3.351"
             style="fill:none;stroke:#000000;stroke-width:0.15000001;stroke-linecap:round;stroke-linejoin:round;stroke-miterlimit:4;stroke-dasharray:none;stroke-opacity:1"
             id="path9532"
             inkscape:connector-curvature="0" /></g><g
           id="g9534"
           transform="translate(103.8843,92.3569)"><path
             d="m 0,0 c 0.111,-1.771 -4.344,-3.492 -9.951,-3.842 -2.672,-0.168 -5.124,0.008 -6.969,0.427 l -0.066,2.129"
             style="fill:none;stroke:#000000;stroke-width:0.15000001;stroke-linecap:round;stroke-linejoin:round;stroke-miterlimit:4;stroke-dasharray:none;stroke-opacity:1"
             id="path9536"
             inkscape:connector-curvature="0" /></g><g
           id="g9538"
           transform="translate(93.3438,85.9463)"><path
             d="M 0,0 C -5.339,-0.237 -9.663,0.897 -9.77,2.607"
             style="fill:none;stroke:#000000;stroke-width:0.34999999;stroke-linecap:round;stroke-linejoin:round;stroke-miterlimit:4;stroke-dasharray:none;stroke-opacity:1"
             id="path9540"
             inkscape:connector-curvature="0" /></g><g
           id="g9542"
           transform="translate(73.4766,83.5996)"><path
             d="m 0,0 c -0.646,-0.368 -1.022,-0.812 -1.022,-1.289 l 0,-1.382"
             style="fill:none;stroke:#000000;stroke-width:0.34999999;stroke-linecap:round;stroke-linejoin:round;stroke-miterlimit:4;stroke-dasharray:none;stroke-opacity:1"
             id="path9544"
             inkscape:connector-curvature="0" /></g><g
           id="g9546"
           transform="translate(84.4395,80.9287)"><path
             d="M 0,0 0,1.382 C 0,1.843 -0.35,2.271 -0.954,2.631"
             style="fill:none;stroke:#000000;stroke-width:0.34999999;stroke-linecap:round;stroke-linejoin:round;stroke-miterlimit:4;stroke-dasharray:none;stroke-opacity:1"
             id="path9548"
             inkscape:connector-curvature="0" /></g><g
           id="g9550"
           transform="translate(84.4395,80.9287)"><path
             d="m 0,0 c 0,-1.272 -2.683,-2.305 -5.993,-2.305 -3.309,0 -5.992,1.033 -5.992,2.305"
             style="fill:none;stroke:#000000;stroke-width:0.15000001;stroke-linecap:round;stroke-linejoin:round;stroke-miterlimit:4;stroke-dasharray:none;stroke-opacity:1"
             id="path9552"
             inkscape:connector-curvature="0" /></g><g
           id="g9554"
           transform="translate(83.2241,82.6855)"><path
             d="m 0,0 -2.389,-1.504 -4.776,0 L -9.554,0"
             style="fill:none;stroke:#000000;stroke-width:0.15000001;stroke-linecap:round;stroke-linejoin:round;stroke-miterlimit:4;stroke-dasharray:none;stroke-opacity:1"
             id="path9556"
             inkscape:connector-curvature="0" /></g><g
           id="g9558"
           transform="translate(83.2241,85.9121)"><path
             d="m 0,0 -2.389,-1.504 -4.776,0 L -9.554,0"
             style="fill:none;stroke:#000000;stroke-width:0.15000001;stroke-linecap:round;stroke-linejoin:round;stroke-miterlimit:4;stroke-dasharray:none;stroke-opacity:1"
             id="path9560"
             inkscape:connector-curvature="0" /></g><g
           id="g9562"
           transform="translate(83.2241,82.6855)"><path
             d="m 0,0 0,3.227 -2.389,1.502 -4.776,0 -2.389,-1.502 0,-3.227"
             style="fill:none;stroke:#000000;stroke-width:0.34999999;stroke-linecap:round;stroke-linejoin:round;stroke-miterlimit:4;stroke-dasharray:none;stroke-opacity:1"
             id="path9564"
             inkscape:connector-curvature="0" /></g><g
           id="g9566"
           transform="translate(76.0591,81.1816)"><path
             d="M 0,0 0,3.227"
             style="fill:none;stroke:#000000;stroke-width:0.15000001;stroke-linecap:round;stroke-linejoin:round;stroke-miterlimit:4;stroke-dasharray:none;stroke-opacity:1"
             id="path9568"
             inkscape:connector-curvature="0" /></g><g
           id="g9570"
           transform="translate(80.8989,81.1816)"><path
             d="M 0,0 0,3.227"
             style="fill:none;stroke:#000000;stroke-width:0.15000001;stroke-linecap:round;stroke-linejoin:round;stroke-miterlimit:4;stroke-dasharray:none;stroke-opacity:1"
             id="path9572"
             inkscape:connector-curvature="0" /></g><g
           id="g9574"
           transform="translate(83.6714,97.3711)"><path
             d="m 0,0 c 0,0 -0.691,-1.306 -0.614,-1.998 0.076,-0.692 0.153,-1.998 0.537,-2.381 0.385,-0.385 1.845,-1.076 1.845,-1.076 0,0 -2.46,-0.615 -2.306,-2.305 0.155,-1.689 3.535,-0.614 3.535,-0.614"
             style="fill:none;stroke:#000000;stroke-width:0.34999999;stroke-linecap:round;stroke-linejoin:round;stroke-miterlimit:4;stroke-dasharray:none;stroke-opacity:1"
             id="path9576"
             inkscape:connector-curvature="0" /></g><g
           id="g9578"
           transform="translate(84.4434,87.2109)"><path
             d="M 0,0 C 0,0 -0.542,0.709 -0.542,1.171"
             style="fill:none;stroke:#000000;stroke-width:0.34999999;stroke-linecap:round;stroke-linejoin:round;stroke-miterlimit:4;stroke-dasharray:none;stroke-opacity:1"
             id="path9580"
             inkscape:connector-curvature="0" /></g><g
           id="g9582"
           transform="translate(92.9673,93.397)"><path
             d="M 0,0 C -5.304,-0.224 -9.583,0.908 -9.691,2.609"
             style="fill:none;stroke:#000000;stroke-width:0.15000001;stroke-linecap:round;stroke-linejoin:round;stroke-miterlimit:4;stroke-dasharray:none;stroke-opacity:1"
             id="path9584"
             inkscape:connector-curvature="0" /></g><g
           id="g9586"
           transform="translate(84.3667,96.7671)"><path
             d="m 0,0 c 0.095,-1.51 3.889,-2.315 8.601,-2.315 1.229,0 1.152,-1.153 1.152,-1.153 l 0.385,-3.457 -0.846,-0.231 -0.46,3.611"
             style="fill:none;stroke:#000000;stroke-width:0.34999999;stroke-linecap:round;stroke-linejoin:round;stroke-miterlimit:4;stroke-dasharray:none;stroke-opacity:1"
             id="path9588"
             inkscape:connector-curvature="0" /></g><g
           id="g9590"
           transform="translate(93.0439,88.1514)"><path
             d="m 0,0 0.846,-3.458 0.845,0.231 -0.538,2.998"
             style="fill:none;stroke:#000000;stroke-width:0.34999999;stroke-linecap:round;stroke-linejoin:round;stroke-miterlimit:4;stroke-dasharray:none;stroke-opacity:1"
             id="path9592"
             inkscape:connector-curvature="0" /></g><g
           id="g9594"
           transform="translate(215.6084,32.0205)"><path
             d="m 0,0 -3.763,-8.446 4.517,-5.602"
             style="fill:none;stroke:#000000;stroke-width:0.15000001;stroke-linecap:round;stroke-linejoin:round;stroke-miterlimit:4;stroke-dasharray:none;stroke-opacity:1"
             id="path9596"
             inkscape:connector-curvature="0" /></g><g
           id="g9598"
           transform="translate(211.8457,23.5742)"><path
             d="M 0,0 4.349,-2.257"
             style="fill:none;stroke:#000000;stroke-width:0.15000001;stroke-linecap:round;stroke-linejoin:round;stroke-miterlimit:4;stroke-dasharray:none;stroke-opacity:1"
             id="path9600"
             inkscape:connector-curvature="0" /></g><g
           id="g9602"
           transform="translate(215.6934,31.4355)"><path
             d="M 0,0 3.261,-1.756"
             style="fill:none;stroke:#000000;stroke-width:0.15000001;stroke-linecap:round;stroke-linejoin:round;stroke-miterlimit:4;stroke-dasharray:none;stroke-opacity:1"
             id="path9604"
             inkscape:connector-curvature="0" /></g><g
           id="g9606"
           transform="translate(39.5537,14.9932)"><path
             d="M 0,0 17.081,-23.505"
             style="fill:none;stroke:#000000;stroke-width:0.34999999;stroke-linecap:round;stroke-linejoin:round;stroke-miterlimit:4;stroke-dasharray:none;stroke-opacity:1"
             id="path9608"
             inkscape:connector-curvature="0" /></g><g
           id="g9610"
           transform="translate(132.9355,89.6514)"><path
             d="M 0,0 C 0,0 8.276,-7.64 13.369,-6.049"
             style="fill:none;stroke:#000000;stroke-width:0.75;stroke-linecap:round;stroke-linejoin:round;stroke-miterlimit:4;stroke-dasharray:none;stroke-opacity:1"
             id="path9612"
             inkscape:connector-curvature="0" /></g><g
           id="g9614"
           transform="translate(126.6738,68.6436)"><path
             d="M 0,0 C 0,0 8.276,-7.641 13.369,-6.049"
             style="fill:none;stroke:#000000;stroke-width:0.75;stroke-linecap:round;stroke-linejoin:round;stroke-miterlimit:4;stroke-dasharray:none;stroke-opacity:1"
             id="path9616"
             inkscape:connector-curvature="0" /></g></g></g><text
       transform="matrix(1,0,0,-1,198.0791,106.4253)"
       style="font-variant:normal;font-weight:bold;font-stretch:normal;font-size:12px;font-family:'Swiss 721 SWA';-inkscape-font-specification:Helvetica-Bold;writing-mode:lr-tb;fill:#231f20;fill-opacity:1;fill-rule:nonzero;stroke:none"
       id="text9618"><tspan
         x="0"
         y="0"
         id="tspan9620">1</tspan><tspan
         x="-56.916"
         y="-41.088001"
         id="tspan9622">2</tspan><tspan
         x="-94.919998"
         y="71.748001"
         id="tspan9624">3</tspan></text>
<text
       transform="matrix(1,0,0,-1,6,2.7783)"
       style="font-variant:normal;font-weight:normal;font-stretch:normal;font-size:5px;font-family:'Swiss 721 SWA';-inkscape-font-specification:Helvetica;writing-mode:lr-tb;fill:#231f20;fill-opacity:1;fill-rule:nonzero;stroke:none"
       id="text9626"><tspan
         x="0 2.5 5.2800002 6.6700001 9.4499998 12.23"
         y="0"
         sodipodi:role="line"
         id="tspan9628">cgfa_1</tspan></text>
<g
       id="g9630"
       transform="translate(170.0918,84.584)"><path
         d="M 0,0 26.771,22.155"
         style="fill:none;stroke:#ffffff;stroke-width:2;stroke-linecap:round;stroke-linejoin:round;stroke-miterlimit:4;stroke-dasharray:none;stroke-opacity:1"
         id="path9632"
         inkscape:connector-curvature="0" /></g><g
       id="g9634"><g
         id="g9636"
         clip-path="url(#clipPath9638)"><g
           id="g9642"
           transform="translate(169.9687,83.6152)"><path
             d="M 0,0 C 0.537,0 0.971,0.434 0.971,0.971 0.971,1.506 0.537,1.939 0,1.939 -0.535,1.939 -0.969,1.506 -0.969,0.971 -0.969,0.434 -0.535,0 0,0"
             style="fill:#231f20;fill-opacity:1;fill-rule:nonzero;stroke:none"
             id="path9644"
             inkscape:connector-curvature="0" /></g><g
           id="g9646"
           transform="translate(169.9687,83.6152)"><path
             d="M 0,0 C 0.537,0 0.971,0.434 0.971,0.971 0.971,1.506 0.537,1.939 0,1.939 -0.535,1.939 -0.969,1.506 -0.969,0.971 -0.969,0.434 -0.535,0 0,0 Z"
             style="fill:none;stroke:#ffffff;stroke-width:1;stroke-linecap:butt;stroke-linejoin:miter;stroke-miterlimit:4;stroke-dasharray:none;stroke-opacity:1"
             id="path9648"
             inkscape:connector-curvature="0" /></g><g
           id="g9650"
           transform="translate(170.0918,84.584)"><path
             d="M 0,0 26.771,22.155"
             style="fill:none;stroke:#231f20;stroke-width:0.34999999;stroke-linecap:round;stroke-linejoin:round;stroke-miterlimit:4;stroke-dasharray:none;stroke-opacity:1"
             id="path9652"
             inkscape:connector-curvature="0" /></g><g
           id="g9654"
           transform="translate(138.0898,87.585)"><path
             d="M 0,0 5.25,56"
             style="fill:none;stroke:#ffffff;stroke-width:2;stroke-linecap:round;stroke-linejoin:round;stroke-miterlimit:4;stroke-dasharray:none;stroke-opacity:1"
             id="path9656"
             inkscape:connector-curvature="0" /></g><g
           id="g9658"
           transform="translate(137.9668,86.6152)"><path
             d="M 0,0 C 0.537,0 0.973,0.434 0.973,0.971 0.973,1.506 0.537,1.94 0,1.94 -0.535,1.94 -0.969,1.506 -0.969,0.971 -0.969,0.434 -0.535,0 0,0"
             style="fill:#231f20;fill-opacity:1;fill-rule:nonzero;stroke:none"
             id="path9660"
             inkscape:connector-curvature="0" /></g><g
           id="g9662"
           transform="translate(137.9668,86.6152)"><path
             d="M 0,0 C 0.537,0 0.973,0.434 0.973,0.971 0.973,1.506 0.537,1.94 0,1.94 -0.535,1.94 -0.969,1.506 -0.969,0.971 -0.969,0.434 -0.535,0 0,0 Z"
             style="fill:none;stroke:#ffffff;stroke-width:1;stroke-linecap:butt;stroke-linejoin:miter;stroke-miterlimit:4;stroke-dasharray:none;stroke-opacity:1"
             id="path9664"
             inkscape:connector-curvature="0" /></g><g
           id="g9666"
           transform="translate(138.0898,87.585)"><path
             d="M 0,0 5.25,56"
             style="fill:none;stroke:#231f20;stroke-width:0.34999999;stroke-linecap:round;stroke-linejoin:round;stroke-miterlimit:4;stroke-dasharray:none;stroke-opacity:1"
             id="path9668"
             inkscape:connector-curvature="0" /></g><g
           id="g9670"
           transform="translate(131.5918,63.418)"><path
             d="M 0,0 -20.666,-21.333"
             style="fill:none;stroke:#ffffff;stroke-width:2;stroke-linecap:round;stroke-linejoin:round;stroke-miterlimit:4;stroke-dasharray:none;stroke-opacity:1"
             id="path9672"
             inkscape:connector-curvature="0" /></g><g
           id="g9674"
           transform="translate(131.4687,62.4482)"><path
             d="M 0,0 C 0.537,0 0.972,0.434 0.972,0.971 0.972,1.506 0.537,1.94 0,1.94 -0.535,1.94 -0.969,1.506 -0.969,0.971 -0.969,0.434 -0.535,0 0,0"
             style="fill:#231f20;fill-opacity:1;fill-rule:nonzero;stroke:none"
             id="path9676"
             inkscape:connector-curvature="0" /></g><g
           id="g9678"
           transform="translate(131.4687,62.4482)"><path
             d="M 0,0 C 0.537,0 0.972,0.434 0.972,0.971 0.972,1.506 0.537,1.94 0,1.94 -0.535,1.94 -0.969,1.506 -0.969,0.971 -0.969,0.434 -0.535,0 0,0 Z"
             style="fill:none;stroke:#ffffff;stroke-width:1;stroke-linecap:butt;stroke-linejoin:miter;stroke-miterlimit:4;stroke-dasharray:none;stroke-opacity:1"
             id="path9680"
             inkscape:connector-curvature="0" /></g><g
           id="g9682"
           transform="translate(131.5918,63.418)"><path
             d="M 0,0 -20.666,-21.333"
             style="fill:none;stroke:#231f20;stroke-width:0.34999999;stroke-linecap:round;stroke-linejoin:round;stroke-miterlimit:4;stroke-dasharray:none;stroke-opacity:1"
             id="path9684"
             inkscape:connector-curvature="0" /></g></g></g><text
       transform="matrix(1,0,0,-1,111.1558,154.6758)"
       style="font-variant:normal;font-weight:bold;font-stretch:normal;font-size:12px;font-family:'Swiss 721 SWA';-inkscape-font-specification:Helvetica-Bold;writing-mode:lr-tb;fill:#231f20;fill-opacity:1;fill-rule:nonzero;stroke:none"
       id="text9686"><tspan
         x="0"
         y="0"
         id="tspan9688">4</tspan></text>
<g
       id="g9690"><g
         id="g9692"
         clip-path="url(#clipPath9694)"><g
           id="g9698"
           transform="translate(111.417,85.252)"><path
             d="M 0,0 1.917,67"
             style="fill:none;stroke:#ffffff;stroke-width:2;stroke-linecap:round;stroke-linejoin:round;stroke-miterlimit:4;stroke-dasharray:none;stroke-opacity:1"
             id="path9700"
             inkscape:connector-curvature="0" /></g><g
           id="g9702"
           transform="translate(111.2939,84.2832)"><path
             d="M 0,0 C 0.537,0 0.973,0.434 0.973,0.971 0.973,1.506 0.537,1.939 0,1.939 -0.535,1.939 -0.969,1.506 -0.969,0.971 -0.969,0.434 -0.535,0 0,0"
             style="fill:#231f20;fill-opacity:1;fill-rule:nonzero;stroke:none"
             id="path9704"
             inkscape:connector-curvature="0" /></g><g
           id="g9706"
           transform="translate(111.2939,84.2832)"><path
             d="M 0,0 C 0.537,0 0.973,0.434 0.973,0.971 0.973,1.506 0.537,1.939 0,1.939 -0.535,1.939 -0.969,1.506 -0.969,0.971 -0.969,0.434 -0.535,0 0,0 Z"
             style="fill:none;stroke:#ffffff;stroke-width:1;stroke-linecap:butt;stroke-linejoin:miter;stroke-miterlimit:4;stroke-dasharray:none;stroke-opacity:1"
             id="path9708"
             inkscape:connector-curvature="0" /></g><g
           id="g9710"
           transform="translate(111.417,85.252)"><path
             d="M 0,0 1.917,67"
             style="fill:none;stroke:#231f20;stroke-width:0.34999999;stroke-linecap:round;stroke-linejoin:round;stroke-miterlimit:4;stroke-dasharray:none;stroke-opacity:1"
             id="path9712"
             inkscape:connector-curvature="0" /></g></g></g></g></svg>