<?xml version="1.0" encoding="UTF-8" standalone="no"?>
<svg
   xmlns:dc="http://purl.org/dc/elements/1.1/"
   xmlns:cc="http://creativecommons.org/ns#"
   xmlns:rdf="http://www.w3.org/1999/02/22-rdf-syntax-ns#"
   xmlns:svg="http://www.w3.org/2000/svg"
   xmlns="http://www.w3.org/2000/svg"
   xmlns:sodipodi="http://sodipodi.sourceforge.net/DTD/sodipodi-0.dtd"
   xmlns:inkscape="http://www.inkscape.org/namespaces/inkscape"
   xml:space="preserve"
   height="768.0"
   viewBox="0,0 65416,45683"
   width="1024.0"
   id="svg3336"
   version="1.1"
   inkscape:version="0.91 r13725"
   sodipodi:docname="15 - ENGINE MANAGEMENT CIRCUIT - FUEL PUMP.svg"><metadata
     id="metadata3672"><rdf:RDF><cc:Work
         rdf:about=""><dc:format>image/svg+xml</dc:format><dc:type
           rdf:resource="http://purl.org/dc/dcmitype/StillImage" /></cc:Work></rdf:RDF></metadata><sodipodi:namedview
     pagecolor="#ffffff"
     bordercolor="#666666"
     borderopacity="1"
     objecttolerance="10"
     gridtolerance="10"
     guidetolerance="10"
     inkscape:pageopacity="0"
     inkscape:pageshadow="2"
     inkscape:window-width="2560"
     inkscape:window-height="1378"
     id="namedview3670"
     showgrid="false"
     inkscape:zoom="1.5742188"
     inkscape:cx="512"
     inkscape:cy="384"
     inkscape:window-x="-8"
     inkscape:window-y="-8"
     inkscape:window-maximized="1"
     inkscape:current-layer="g3342" /><defs
     id="defs3338"><style
       type="text/css"
       id="style3340"><![CDATA[
.A{stroke-width:59px;stroke:#808080;}
.A,.G,.N,.K,.M,.B,.C,.U,.S,.W,.Z,.V,.T,.R,.A1,.B1,.X,.Y,.F,.O,.I,.E,.P,.Q,.D1,.C1{stroke-dasharray:none;}
.A1,.B1{font-family:Lucida Sans;}
.B,.C,.U,.S,.W,.Z,.V,.T,.R,.A1,.B1,.X,.Y,.F,.O,.I,.E,.P,.Q,.D1,.C1{stroke-linecap:square;}
.D{stroke-dasharray:395,197;}
.D,.B,.C,.Z,.V,.T,.R,.B1,.Y,.F,.O,.I,.E{stroke-width:16px;}
.D1,.C1{stroke-width:16.0px;}
.E,.C1{fill:#CCC;}
.H,.D,.G,.B,.C,.U,.S,.Z,.V,.T,.R,.A1,.B1,.X,.Y,.F,.I,.E,.P,.Q,.D1,.C1{stroke:#000;}
.H,.L,.J{stroke-dasharray:117,58;}
.H,.L,.J,.D,.A,.G,.N,.K,.M{stroke-linecap:butt;}
.H,.L,.J,.D,.A,.G,.N,.K,.M,.B,.C{fill-opacity:0.0;fill:none;}
.H,.L,.J,.D,.A,.G,.N,.K,.M,.B,.C,.F,.O,.I,.E,.D1,.C1{font-family:sans-serif;}
.H,.L,.J,.D,.A,.G,.N,.K,.M,.B,.C,.P,.Q,.D1,.C1{stroke-opacity:1.0;}
.H,.L,.J,.D,.A,.G,.N,.K,.M,.B,.C,.U,.S,.W,.Z,.V,.T,.R,.A1,.B1,.X,.Y,.F,.O,.I,.E,.P,.Q,.D1,.C1{fill-rule:evenodd;font-style:normal;font-weight:normal;stroke-linejoin:miter;stroke-miterlimit:10;}
.H,.L,.J,.G,.N,.K,.M{stroke-width:84px;}
.I{fill:#C0F;}
.J,.N,.O{stroke:#C0F;}
.K{stroke:#F30;}
.L{stroke:#0C0;}
.M{stroke:#F4F4F4;}
.Q{font-size:770px;}
.R,.P{font-size:660px;}
.S,.T,.A1,.B1{font-size:468px;}
.U,.S,.A1,.X,.F,.O,.P,.Q,.D1{fill:#000;}
.U,.S,.W,.A1,.X,.P,.Q{stroke-width:0.5px;}
.U,.S,.W,.Z,.V,.T,.R,.A1,.B1,.X,.Y,.F,.O,.I,.E{stroke-opacity:0.0;}
.U,.S,.W,.Z,.V,.T,.R,.A1,.B1,.X,.Y,.F,.O,.I,.E,.P,.Q,.D1,.C1{fill-opacity:1.0;}
.U,.S,.W,.Z,.V,.T,.R,.P,.Q{font-family:Arial;}
.U,.V{font-size:389px;}
.W{fill:#999;stroke:#999;}
.W,.Z{font-size:312px;}
.X,.Y{font-family:Tahoma;font-size:392px;}
.Z,.V,.T,.R,.B1,.Y{fill:#FFF;}
]]></style></defs><g
     id="g3342"><path
       class="B"
       d="M33971,15545h-337m-1013,675h202l811,-675m202,675h-270"
       id="path3346" /><rect
       class="C"
       x="33025"
       y="16897"
       width="540"
       height="946"
       id="rect3348" /><path
       class="B"
       d="M33025,17100l540,270m-540,0l540,270m-540,-67h-405m1351,0h-405"
       id="path3350" /><path
       class="D"
       d="M33295,16897l-3,-1123"
       id="path3352" /><g
       id="g3354"><path
         class="E"
         d="M4231,5338v-337v-675v-337h337h337v337v675v337 z"
         id="path3356" /><path
         class="B"
         d="M4231,4325v-337h675v337m0,675v337h-675v-337"
         id="path3358" /></g><g
       id="g3360"><path
         class="E"
         d="M3555,20885v-337v-3379v-337h337h337v337v3379v337 z"
         id="path3362" /><path
         class="B"
         d="M3555,17167v-337h675v337m0,675v2027m-675,-2027v2027m675,675v337h-675v-337"
         id="path3364" /></g><g
       id="g3366"><path
         class="E"
         d="M32620,18181v-337v-2027v-337h-337h-337v337v2027v337 z"
         id="path3368" /><path
         class="B"
         d="M32620,16491v675m-675,-675v675m675,-1351v-337h-675v337m0,2027v337h675v-337"
         id="path3370" /></g><g
       id="g3372"><path
         class="E"
         d="M61684,20209v-337v-4055v-337h-337h-337v337v4055v337 z"
         id="path3374" /><path
         class="B"
         d="M61684,15815v-337h-675v337m0,675v2703m675,-2703v2703m-675,675v337h675v-337"
         id="path3376" /></g><g
       id="g3378"><circle
         class="C1"
         cx="64219"
         cy="43190"
         r="168"
         id="circle3380" /><circle
         class="C1"
         cx="64219"
         cy="43190"
         r="101"
         id="circle3382" /><rect
         class="C1"
         x="61346"
         y="43123"
         width="2703"
         height="135"
         id="rect3384" /><rect
         class="C1"
         x="61008"
         y="43123"
         width="337"
         height="135"
         id="rect3386" /></g><g
       id="g3388"><circle
         class="D1"
         cx="49518"
         cy="43190"
         r="270"
         id="circle3390" /></g><g
       id="g3392"><path
         class="E"
         d="M33971,18181v-337v-2027v-337h337h337v337v2027v337 z"
         id="path3394" /><path
         class="B"
         d="M33971,16491v675m675,-675v675m-675,-1351v-337h675v337m0,2027v337h-675v-337"
         id="path3396" /></g><g
       id="g3398"><rect
         class="C"
         x="2203"
         y="4460"
         width="1351"
         height="405"
         id="rect3400" /><path
         class="B"
         d="M1527,4663h675m2027,0h-675"
         id="path3402" /></g><g
       id="g3404"><path
         class="B"
         d="M4231,4325v-337h-2703v1351h2703v-337"
         id="path3406" /></g><g
       id="g3408"><path
         class="B"
         d="M3555,20547v337h-2027v-4055h2027v337m0,2703v-2027"
         id="path3410" /></g><g
       id="g3412"><path
         class="B"
         d="M61684,16491v2703m0,675v337h2703v-4731h-2703v337"
         id="path3414" /></g><g
       id="g3416"><path
         class="B"
         d="M32620,16491v675m1351,-675v675m-1351,-1351v-337h1351v337m-1351,2027v337h1351v-337"
         id="path3418" /></g><g
       id="g3420"><circle
         class="F"
         cx="49518"
         cy="43190"
         r="42"
         id="circle3422" /><path
         class="G"
         d="M49518,43190h11490"
         id="path3424" /><circle
         class="F"
         cx="49518"
         cy="43190"
         r="42"
         id="circle3426" /><path
         class="H"
         d="M49518,43190h11490"
         id="path3428" /></g><g
       id="g3430"><path
         class="G"
         d="M49518,43190v-23657"
         id="path3432" /><circle
         class="F"
         cx="49518"
         cy="43190"
         r="42"
         id="circle3434" /><circle
         class="F"
         cx="49518"
         cy="19533"
         r="42"
         id="circle3436" /><path
         class="H"
         d="M49518,43190v-23657"
         id="path3438" /><path
         class="G"
         d="M49518,19533h11490"
         id="path3440" /><circle
         class="F"
         cx="49518"
         cy="19533"
         r="42"
         id="circle3442" /><path
         class="H"
         d="M49518,19533h11490"
         id="path3444" /></g><g
       id="g3446"><path
         class="G"
         d="M4907,4663h8787"
         id="path3448" /><circle
         class="I"
         cx="13694"
         cy="4663"
         r="42"
         id="circle3450" /><path
         class="J"
         d="M4907,4663h8787"
         id="path3452" /><path
         class="G"
         d="M13694,4663v11490"
         id="path3454" /><circle
         class="I"
         cx="13694"
         cy="4663"
         r="42"
         id="circle3456" /><circle
         class="I"
         cx="13694"
         cy="16153"
         r="42"
         id="circle3458" /><path
         class="J"
         d="M13694,4663v11490"
         id="path3460" /><path
         class="G"
         d="M13694,16153h18249"
         id="path3462" /><circle
         class="I"
         cx="13694"
         cy="16153"
         r="42"
         id="circle3464" /><path
         class="J"
         d="M13694,16153h18249"
         id="path3466" /></g><g
       id="g3468"><path
         class="K"
         d="M4231,17505h27712"
         id="path3470" /><path
         class="L"
         d="M4231,17505h27712"
         id="path3472" /></g><g
       id="g3474"><path
         class="M"
         d="M34647,16153h26361"
         id="path3476" /><path
         class="J"
         d="M34647,16153h26361"
         id="path3478" /></g><g
       id="g3480"><path
         class="N"
         d="M4231,20209h33796"
         id="path3482" /><circle
         class="O"
         cx="38027"
         cy="20209"
         r="42"
         id="circle3484" /><path
         class="H"
         d="M4231,20209h33796"
         id="path3486" /><path
         class="N"
         d="M38027,20209v-2703"
         id="path3488" /><circle
         class="O"
         cx="38027"
         cy="20209"
         r="42"
         id="circle3490" /><circle
         class="O"
         cx="38027"
         cy="17505"
         r="42"
         id="circle3492" /><path
         class="H"
         d="M38027,20209v-2703"
         id="path3494" /><path
         class="N"
         d="M38027,17505h-3379"
         id="path3496" /><circle
         class="O"
         cx="38027"
         cy="17505"
         r="42"
         id="circle3498" /><path
         class="H"
         d="M38027,17505h-3379"
         id="path3500" /></g><g
       id="g3510"><rect
         class="R"
         x="5315"
         y="4357"
         width="1662"
         height="526"
         id="rect3512" /><text
         class="S"
         x="5388"
         y="4869"
         id="text3514">F29-8B</text>
</g><g
       id="g3516"><rect
         class="T"
         x="4639"
         y="19903"
         width="1972"
         height="526"
         id="rect3518" /><text
         class="S"
         x="4712"
         y="20415"
         id="text3520">E02A-12</text>
</g><g
       id="g3522"><rect
         class="T"
         x="4639"
         y="17200"
         width="1972"
         height="526"
         id="rect3524" /><text
         class="S"
         x="4712"
         y="17711"
         id="text3526">E02A-11</text>
</g><g
       id="g3528"><rect
         class="T"
         x="29253"
         y="15848"
         width="2282"
         height="526"
         id="rect3530" /><text
         class="S"
         x="29326"
         y="16359"
         id="text3532">R0403-B3</text>
</g><g
       id="g3534"><rect
         class="T"
         x="29253"
         y="17200"
         width="2282"
         height="526"
         id="rect3536" /><text
         class="S"
         x="29326"
         y="17711"
         id="text3538">R0403-B1</text>
</g><g
       id="g3540"><rect
         class="T"
         x="59247"
         y="19227"
         width="1352"
         height="526"
         id="rect3542" /><text
         class="S"
         x="59320"
         y="19739"
         id="text3544">E06-2</text>
</g><g
       id="g3546"><rect
         class="T"
         x="59247"
         y="15848"
         width="1352"
         height="526"
         id="rect3548" /><text
         class="S"
         x="59320"
         y="16359"
         id="text3550">E06-1</text>
</g><g
       id="g3552"><text
         class="U"
         x="60559"
         y="42616"
         id="text3554">ENGINE GROUND 1</text>
</g><g
       id="g3556"><rect
         class="V"
         x="59163"
         y="42885"
         width="1436"
         height="526"
         id="rect3558" /><text
         class="S"
         x="59236"
         y="43396"
         id="text3560">M98-1</text>
</g><g
       id="g3562"><rect
         class="T"
         x="49011"
         y="43635"
         width="1155"
         height="633"
         id="rect3564" /><text
         class="S"
         x="49154"
         y="44137"
         id="text3566">PG4</text>
</g><g
       id="g3568"><rect
         class="T"
         x="35056"
         y="15848"
         width="2282"
         height="526"
         id="rect3570" /><text
         class="S"
         x="35129"
         y="16359"
         id="text3572">R0403-B5</text>
</g><g
       id="g3574"><rect
         class="T"
         x="35056"
         y="17200"
         width="2282"
         height="526"
         id="rect3576" /><text
         class="S"
         x="35129"
         y="17711"
         id="text3578">R0403-B2</text>
</g><g
       id="g3580"><text
         class="W"
         x="2598"
         y="4809"
         id="text3582">10.0</text>
</g><g
       id="g3584"><text
         class="W"
         x="2648"
         y="4421"
         id="text3586">F28</text>
</g><g
       id="g3588"><text
         class="W"
         x="1960"
         y="5143"
         id="text3590">FUEL PUMP</text>
</g><g
       id="g3592"><text
         class="X"
         x="1650"
         y="3865"
         id="text3594">FUSE BOX 2</text>
</g><g
       id="g3596"><text
         class="X"
         x="1650"
         y="16708"
         id="text3598">ENGINE ECM</text>
</g><g
       id="g3600"><rect
         class="Y"
         x="2926"
         y="17296"
         width="581"
         height="351"
         id="rect3602" /><text
         class="W"
         x="2974"
         y="17637"
         id="text3604">IGP</text>
</g><g
       id="g3606"><rect
         class="Z"
         x="2644"
         y="19999"
         width="863"
         height="351"
         id="rect3608" /><text
         class="W"
         x="2692"
         y="20341"
         id="text3610">FLPR</text>
</g><g
       id="g3612"><text
         class="X"
         x="62234"
         y="15356"
         id="text3614">FUEL PUMP</text>
</g><g
       id="g3616"><rect
         class="Y"
         x="61731"
         y="15944"
         width="1558"
         height="351"
         id="rect3618" /><text
         class="W"
         x="61779"
         y="16285"
         id="text3620">POSITIVE</text>
</g><g
       id="g3622"><rect
         class="Z"
         x="61731"
         y="19323"
         width="1501"
         height="351"
         id="rect3624" /><text
         class="W"
         x="61779"
         y="19665"
         id="text3626">GROUND</text>
</g><g
       id="g3628"><text
         class="X"
         x="31124"
         y="14709"
         id="text3630">A COOLING FAN RELAY</text>
<text
         class="X"
         x="31124"
         y="15237"
         id="text3632">B FUEL PUMP RELAY</text>
</g><g
       id="g3634"><rect
         class="Y"
         x="55094"
         y="42868"
         width="337"
         height="526"
         id="rect3636" /><text
         class="S"
         x="55167"
         y="43380"
         id="text3638">B</text>
</g><g
       id="g3640"><rect
         class="T"
         x="55117"
         y="19210"
         width="291"
         height="526"
         id="rect3642" /><text
         class="A1"
         x="55193"
         y="19722"
         id="text3644">B</text>
</g><g
       id="g3646"><rect
         class="B1"
         x="22450"
         y="15796"
         width="817"
         height="526"
         id="rect3648" /><text
         class="S"
         x="22523"
         y="16308"
         id="text3650">P/B</text>
</g><g
       id="g3652"><rect
         class="T"
         x="22408"
         y="17216"
         width="901"
         height="526"
         id="rect3654" /><text
         class="S"
         x="22481"
         y="17728"
         id="text3656">G/R</text>
</g><g
       id="g3658"><rect
         class="T"
         x="54717"
         y="15831"
         width="957"
         height="526"
         id="rect3660" /><text
         class="S"
         x="54790"
         y="16343"
         id="text3662">P/W</text>
</g><g
       id="g3664"><rect
         class="T"
         x="22450"
         y="19852"
         width="817"
         height="526"
         id="rect3666" /><text
         class="S"
         x="22523"
         y="20364"
         id="text3668">B/P</text>
</g></g></svg>