<?xml version="1.0" encoding="iso-8859-1"?>
<!-- Generator: Adobe Illustrator 16.0.3, SVG Export Plug-In . SVG Version: 6.00 Build 0)  -->
<!DOCTYPE svg PUBLIC "-//W3C//DTD SVG 1.1//EN" "http://www.w3.org/Graphics/SVG/1.1/DTD/svg11.dtd">
<svg version="1.1" xmlns="http://www.w3.org/2000/svg" xmlns:xlink="http://www.w3.org/1999/xlink" x="0px" y="0px"
	 width="240.945px" height="170.079px" viewBox="0 0 240.945 170.079" style="enable-background:new 0 0 240.945 170.079;"
	 xml:space="preserve">
<g id="Layer_1">
	<g>
		<defs>
			<rect id="SVGID_1_" width="240.945" height="170.079"/>
		</defs>
		<clipPath id="SVGID_2_">
			<use xlink:href="#SVGID_1_"  style="overflow:visible;"/>
		</clipPath>
		
			<path style="clip-path:url(#SVGID_2_);fill:none;stroke:#000000;stroke-width:0.5;stroke-linecap:round;stroke-linejoin:round;" d="
			M111.427,162.234c-21.203-7.602-27.616-43.818-14.322-80.894c13.292-37.071,41.257-60.961,62.459-53.359"/>
		
			<path style="clip-path:url(#SVGID_2_);fill:none;stroke:#000000;stroke-width:1.5;stroke-linecap:round;stroke-linejoin:round;" d="
			M152.839,25.57c-21.204-7.603-49.168,16.287-62.46,53.359c-13.293,37.074-6.881,73.291,14.323,80.894l6.726,2.411
			c21.202,7.603,49.167-16.287,62.46-53.362c13.292-37.071,6.879-73.288-14.323-80.891L152.839,25.57z"/>
		
			<path style="clip-path:url(#SVGID_2_);fill:none;stroke:#000000;stroke-width:0.5;stroke-linecap:round;stroke-linejoin:round;" d="
			M55.007,117.961c-14.474-5.19-18.852-29.912-9.777-55.221c9.074-25.306,28.163-41.614,42.637-36.424"/>
		
			<path style="clip-path:url(#SVGID_2_);fill:none;stroke:#000000;stroke-width:1.5;stroke-linecap:round;stroke-linejoin:round;" d="
			M77.235,71.342c1.118,0.4,1.613,1.866,1.108,3.273c-0.504,1.406-1.818,2.223-2.935,1.822"/>
		
			<path style="clip-path:url(#SVGID_2_);fill:none;stroke:#000000;stroke-width:0.5;stroke-linecap:round;stroke-linejoin:round;" d="
			M75.408,76.438c-1.117-0.4-1.613-1.866-1.108-3.272c0.504-1.407,1.818-2.224,2.935-1.823"/>
		
			<path style="clip-path:url(#SVGID_2_);fill:none;stroke:#000000;stroke-width:1.5;stroke-linecap:round;stroke-linejoin:round;" d="
			M70.417,100.19c1.12-0.396,2.429,0.426,2.927,1.836c0.498,1.409-0.004,2.871-1.124,3.267"/>
		
			<path style="clip-path:url(#SVGID_2_);fill:none;stroke:#000000;stroke-width:0.5;stroke-linecap:round;stroke-linejoin:round;" d="
			M72.22,105.293c-1.12,0.396-2.429-0.426-2.927-1.835c-0.498-1.41,0.004-2.872,1.123-3.268"/>
		
			<path style="clip-path:url(#SVGID_2_);fill:none;stroke:#000000;stroke-width:1.5;stroke-linecap:round;stroke-linejoin:round;" d="
			M88.569,49.563c0.613,1.018,2.146,1.215,3.427,0.442c1.28-0.771,1.821-2.22,1.208-3.236"/>
		
			<path style="clip-path:url(#SVGID_2_);fill:none;stroke:#000000;stroke-width:0.5;stroke-linecap:round;stroke-linejoin:round;" d="
			M93.205,46.769c-0.613-1.018-2.146-1.215-3.426-0.442c-1.281,0.772-1.822,2.22-1.209,3.236"/>
		
			<path style="clip-path:url(#SVGID_2_);fill:none;stroke:#000000;stroke-width:1.5;stroke-linecap:round;stroke-linejoin:round;" d="
			M51.471,104.746c0.487-0.406,1.657,0.198,2.614,1.346c0.956,1.147,1.336,2.407,0.849,2.814"/>
		
			<path style="clip-path:url(#SVGID_2_);fill:none;stroke:#000000;stroke-width:0.5;stroke-linecap:round;stroke-linejoin:round;" d="
			M54.934,108.906c-0.488,0.404-1.659-0.197-2.614-1.347c-0.957-1.147-1.337-2.409-0.849-2.813"/>
		
			<path style="clip-path:url(#SVGID_2_);fill:none;stroke:#000000;stroke-width:1.5;stroke-linecap:round;stroke-linejoin:round;" d="
			M76.415,123.203c0.174-0.433,1.44-0.325,2.825,0.236c1.384,0.562,2.365,1.367,2.19,1.799"/>
		
			<path style="clip-path:url(#SVGID_2_);fill:none;stroke:#000000;stroke-width:0.5;stroke-linecap:round;stroke-linejoin:round;" d="
			M81.43,125.238c-0.177,0.431-1.441,0.327-2.826-0.237c-1.385-0.56-2.366-1.368-2.189-1.798"/>
		
			<path style="clip-path:url(#SVGID_2_);fill:none;stroke:#000000;stroke-width:1.5;stroke-linecap:round;stroke-linejoin:round;" d="
			M107.633,36.136c-0.14,0.445,0.905,1.166,2.332,1.612c1.426,0.446,2.694,0.447,2.834,0.003"/>
		
			<path style="clip-path:url(#SVGID_2_);fill:none;stroke:#000000;stroke-width:0.5;stroke-linecap:round;stroke-linejoin:round;" d="
			M112.799,37.751c0.137-0.444-0.905-1.169-2.333-1.612c-1.426-0.448-2.697-0.447-2.833-0.003"/>
		
			<path style="clip-path:url(#SVGID_2_);fill:none;stroke:#000000;stroke-width:1.5;stroke-linecap:round;stroke-linejoin:round;" d="
			M117.271,36.555L88.29,26.163l-9.475-2.485c-14.305-5.129-33.17,10.987-42.137,35.997c-8.968,25.011-4.642,49.443,9.663,54.572
			l8.309,3.976l29.68,10.643"/>
		
			<path style="clip-path:url(#SVGID_2_);fill:none;stroke:#000000;stroke-width:0.5;stroke-linecap:round;stroke-linejoin:round;" d="
			M139.025,106.48c-2.691-0.965-3.434-5.756-1.659-10.703c1.772-4.945,5.391-8.173,8.081-7.208"/>
		
			<path style="clip-path:url(#SVGID_2_);fill:none;stroke:#000000;stroke-width:1.5;stroke-linecap:round;stroke-linejoin:round;" d="
			M150.891,92.093c4.008,1.437,6.043,5.988,4.547,10.164c-1.498,4.177-5.963,6.396-9.97,4.96"/>
		
			<path style="clip-path:url(#SVGID_2_);fill:none;stroke:#000000;stroke-width:1.5;stroke-linecap:round;stroke-linejoin:round;" d="
			M145.468,107.217c-2.69-0.965-3.656-5.132-2.158-9.309c1.497-4.176,4.891-6.78,7.581-5.815"/>
		
			<path style="clip-path:url(#SVGID_2_);fill:none;stroke:#000000;stroke-width:0.5;stroke-linecap:round;stroke-linejoin:round;" d="
			M155.349,102.225c-0.87,2.429-2.646,4.014-3.964,3.541c-1.322-0.474-1.686-2.825-0.814-5.254c0.869-2.426,2.645-4.013,3.967-3.539
			C155.855,97.445,156.219,99.799,155.349,102.225z"/>
		
			<path style="clip-path:url(#SVGID_2_);fill:none;stroke:#000000;stroke-width:0.5;stroke-linecap:round;stroke-linejoin:round;" d="
			M114.768,116.266c1.031,0.369,1.315,2.206,0.636,4.101c-0.68,1.897-2.067,3.135-3.097,2.765"/>
		
			<path style="clip-path:url(#SVGID_2_);fill:none;stroke:#000000;stroke-width:1.5;stroke-linecap:round;stroke-linejoin:round;" d="
			M112.307,123.131c-1.032-0.37-1.317-2.206-0.637-4.104c0.679-1.895,2.066-3.132,3.098-2.762"/>
		
			<path style="clip-path:url(#SVGID_2_);fill:none;stroke:#000000;stroke-width:0.5;stroke-linecap:round;stroke-linejoin:round;" d="
			M161.839,64.74c1.03,0.369,1.314,2.207,0.636,4.102c-0.68,1.896-2.066,3.132-3.098,2.763"/>
		
			<path style="clip-path:url(#SVGID_2_);fill:none;stroke:#000000;stroke-width:1.5;stroke-linecap:round;stroke-linejoin:round;" d="
			M159.377,71.604c-1.031-0.37-1.316-2.205-0.637-4.102c0.68-1.895,2.066-3.133,3.099-2.763"/>
		
			<ellipse transform="matrix(0.9413 0.3375 -0.3375 0.9413 43.1845 -45.6747)" style="clip-path:url(#SVGID_2_);fill:none;stroke:#000000;stroke-width:0.5;stroke-linecap:round;stroke-linejoin:round;" cx="152.96" cy="101.369" rx="0.673" ry="1.237"/>
		
			<polyline style="clip-path:url(#SVGID_2_);fill:none;stroke:#000000;stroke-width:0.5;stroke-linecap:round;stroke-linejoin:round;" points="
			138.209,108.755 135.176,101.329 139.201,90.102 146.262,86.296 		"/>
		
			<polyline style="clip-path:url(#SVGID_2_);fill:none;stroke:#000000;stroke-width:1.5;stroke-linecap:round;stroke-linejoin:round;" points="
			143.684,105.804 138.209,108.755 131.852,106.475 128.818,99.05 132.844,87.822 139.904,84.016 146.262,86.296 148.614,92.054 		
			"/>
		
			<path style="clip-path:url(#SVGID_2_);fill:none;stroke:#000000;stroke-width:1.5;stroke-linecap:round;stroke-linejoin:round;" d="
			M147.93,92.306c0,0-1.549-1.093-1.407-3.061"/>
		
			<path style="clip-path:url(#SVGID_2_);fill:none;stroke:#000000;stroke-width:1.5;stroke-linecap:round;stroke-linejoin:round;" d="
			M143.316,105.171c0,0-2.693-0.073-3.386,1.477"/>
		
			<line style="clip-path:url(#SVGID_2_);fill:none;stroke:#000000;stroke-width:0.5;stroke-linecap:round;stroke-linejoin:round;" x1="132.844" y1="87.822" x2="139.201" y2="90.102"/>
		
			<line style="clip-path:url(#SVGID_2_);fill:none;stroke:#000000;stroke-width:0.5;stroke-linecap:round;stroke-linejoin:round;" x1="128.852" y1="98.958" x2="135.209" y2="101.237"/>
	</g>
</g>
<g id="Layer_2">
</g>
</svg>
