<?xml version="1.0" encoding="UTF-8" standalone="no"?>
<!-- Created with Inkscape (http://www.inkscape.org/) -->

<svg
   xmlns:dc="http://purl.org/dc/elements/1.1/"
   xmlns:cc="http://creativecommons.org/ns#"
   xmlns:rdf="http://www.w3.org/1999/02/22-rdf-syntax-ns#"
   xmlns:svg="http://www.w3.org/2000/svg"
   xmlns="http://www.w3.org/2000/svg"
   xmlns:sodipodi="http://sodipodi.sourceforge.net/DTD/sodipodi-0.dtd"
   xmlns:inkscape="http://www.inkscape.org/namespaces/inkscape"
   id="svg5476"
   version="1.1"
   inkscape:version="0.91 r13725"
   xml:space="preserve"
   width="301.18124"
   height="230.315"
   viewBox="0 0 301.18124 230.315"
   sodipodi:docname="ccyp.svg"><metadata
     id="metadata5482"><rdf:RDF><cc:Work
         rdf:about=""><dc:format>image/svg+xml</dc:format><dc:type
           rdf:resource="http://purl.org/dc/dcmitype/StillImage" /><dc:title></dc:title></cc:Work></rdf:RDF></metadata><defs
     id="defs5480"><clipPath
       clipPathUnits="userSpaceOnUse"
       id="clipPath5490"><path
         d="m 1.549,3.147 239.396,0 0,170.078 -239.396,0 0,-170.078 z"
         id="path5492"
         inkscape:connector-curvature="0" /></clipPath></defs><sodipodi:namedview
     pagecolor="#ffffff"
     bordercolor="#666666"
     borderopacity="1"
     objecttolerance="10"
     gridtolerance="10"
     guidetolerance="10"
     inkscape:pageopacity="0"
     inkscape:pageshadow="2"
     inkscape:window-width="640"
     inkscape:window-height="480"
     id="namedview5478"
     showgrid="false"
     inkscape:zoom="4.2072813"
     inkscape:cx="150.59062"
     inkscape:cy="115.1575"
     inkscape:window-x="0"
     inkscape:window-y="0"
     inkscape:window-maximized="1"
     inkscape:current-layer="g5484" /><g
     id="g5484"
     inkscape:groupmode="layer"
     inkscape:label="ccyp"
     transform="matrix(1.25,0,0,-1.25,0,230.315)"><g
       id="g5486"><g
         id="g5488"
         clip-path="url(#clipPath5490)"><g
           id="g5494"
           transform="translate(22.3726,170.5259)"><path
             d="m 0,0 c 0.8,-3.5 2.3,-6.7 4.1,-9.7 1.6,-2.4 3.5,-4.9 5.6,-6.8 0.2,-0.1 0.2,0.1 0.3,0.1 -0.6,1.2 -1.5,2.4 -2.1,3.6 C 5.3,-8.1 3.3,-3 2.8,2.5 3.3,2.6 3.9,2.5 4,2 4.2,0.4 4.6,-1.1 4.9,-2.7 5.5,-3.4 5.3,-4.5 6,-5.3 c 0.7,-2.7 2,-5.1 3.4,-7.5 0.5,-0.5 0.5,-1.2 1.1,-1.6 1.9,-3.2 4.9,-5.8 7.8,-8.2 7.2,-5.2 16,-7.2 25.5,-6.4 1.8,0.3 3.7,0.4 5.4,0.9 3.9,0.5 7.5,1.8 11,3.2 7.3,2.9 14.4,7.1 20.3,12.3 4,3.5 8.1,7.2 11.1,11.4 0.8,0.8 1.2,1.8 2,2.5 0.6,-0.2 1.3,0.3 1.6,-0.3 -3.9,-5.4 -9,-10.3 -13.9,-14.8 -2.5,-1.9 -5.1,-4.1 -7.7,-5.6 -1,-0.7 -2,-1.4 -3.1,-1.9 -0.7,-0.6 -1.5,-1.3 -2.5,-1.4 -3.4,-2.2 -7.3,-3.3 -11,-4.9 -3.1,-0.7 -6.1,-1.7 -9.3,-2.2 -2.9,-3.4 -5.5,-7 -7.5,-10.8 -0.9,-1.9 -1.9,-3.6 -2.5,-5.5 -0.1,-1 -0.5,-1.8 -1,-2.7 -0.5,-1.4 -0.7,-2.9 -0.9,-4.4 -0.5,-0.5 0,-1.4 -0.4,-1.9 -0.3,-2.7 -0.7,-5.5 -0.9,-8.2 -0.5,-1.5 -0.2,-3.3 -0.7,-4.7 0.2,-1.1 -0.3,-2 -0.2,-3 -0.3,-1 -0.2,-2 -0.5,-3 -0.3,-0.4 -0.2,-1.1 -0.1,-1.5 1.2,-0.8 3.1,-1.3 3,-3.1 -0.3,-1.7 -1.7,-2.9 -3.1,-3.5 -0.9,0.3 -1.2,-0.4 -1.4,-1 0,-2 -1.1,-3.7 -2.4,-5.1 -0.5,-1.6 -1.5,-2.8 -1.5,-4.5 -0.6,-0.8 0,-1.8 -0.3,-2.6 -0.1,-1 0.5,-1.9 0.6,-2.8 0.2,-1 1.3,-1.2 2,-1.6 6,-5 11.8,-9.9 17.9,-15.1 0.1,0.1 0.2,0 0.3,0.1 -0.1,1.6 0.2,3.2 0.6,4.6 0.6,1.4 1.1,2.7 2,3.9 1.2,1.7 2.6,3 4.3,4.5 0.7,0.9 1.4,1.6 2.1,2.6 1.3,2.1 2.3,4.7 2.6,7.1 0.3,1.6 -0.6,3.8 0.7,4.9 0.6,-0.1 0.2,-0.9 0.4,-1.3 1.7,-2.2 3.9,-4 5.7,-6 0.3,0.2 0,0.6 -0.1,0.8 -2.4,3.9 -3.7,8.7 -3.4,13.3 -0.3,3.6 0.7,7 1.7,10.2 -0.1,0.6 0.3,1.1 0.4,1.7 1.3,4.5 4,8.5 6.6,12.5 0.9,0.8 1,2.1 2.1,2.8 0.8,1.3 2.1,2 3,3.4 0.1,0.6 -0.7,0.4 -0.9,0.8 -0.8,1.5 -2.8,2.2 -3.5,3.7 0.9,0 1.4,-1.1 2.2,-1.6 1,-0.7 1.3,-1.9 2.5,-2.4 0.2,-0.1 0.4,0.1 0.4,0.3 -0.2,0.4 -0.8,0.8 -1.2,1.3 -0.3,0.4 -0.7,0.9 -1.2,1.1 -0.7,0.7 -1.5,1.5 -1.9,2.2 l 0.1,0.2 c 1.7,-1.3 3.1,-2.9 4.5,-4.2 2.3,-0.1 4.9,0 6.8,1.1 3,1.3 5.9,4.1 7.2,7 l 0,0.4 -3.6,3.8 c -0.1,0.2 0,0.3 0.2,0.3 l 0.4,-0.1 c 0.7,-1 1.7,-2 2.7,-2.7 0,-0.3 0.3,-0.7 0.6,-0.7 0.2,-0.1 0.3,0 0.4,0.2 0.1,0.6 -0.7,0.6 -1,1 l -2.7,2.9 0,0.4 c 1.3,-0.3 1.8,-1.8 2.8,-2.5 0.7,-0.4 0.9,-1.6 2,-1.2 2.5,1.2 5.5,1.3 8.2,1.8 0.5,0.6 -0.3,1.2 -0.1,1.9 -0.7,1.4 -0.2,3 -0.5,4.5 -1.5,0.8 -3.3,0.8 -4.9,1.1 -2.5,0.4 -5,-0.2 -7.5,-0.5 -0.5,-0.6 0.2,-1.3 0.4,-1.9 0.4,-0.6 1.1,-0.6 1.6,-1.1 -0.1,-0.3 -0.6,-0.4 -0.8,-0.3 -1,0.2 -1.2,1.4 -1.8,2.1 -0.2,1.7 -1.3,3.1 -1.7,4.8 -0.7,1.9 -2.5,3.2 -4.3,3.7 -2.1,0.3 -4,-0.2 -5.7,-0.9 C 75,-24 73.8,-25 72.6,-26 c -2.3,-3.3 -5,-7 -3.7,-11.5 -0.2,-1 0.5,-1.9 0.4,-2.8 0.7,-1.1 0.7,-2.6 0.7,-3.8 -0.2,-0.4 -0.1,-0.9 0,-1.2 0.7,0.6 1.1,1.3 1.8,1.9 l 3.9,0.2 c 1.3,0.3 2.4,1 3.7,1 0.2,-0.7 -0.8,-0.5 -1.2,-0.8 -1.3,-1 -3.1,-0.7 -4.6,-1 -0.4,0.3 -1.1,0.2 -1.6,0.2 -1.1,-1.1 -1.7,-2.3 -2.2,-3.6 -0.6,-0.5 -0.8,-1.4 -1.4,-1.7 -0.1,1.3 0.7,2.3 0.9,3.5 0.9,4.3 -2.2,7.9 -1,12.1 0.2,2.3 1.3,4.6 2.8,6.3 0.6,0.9 1.6,2 2.5,2.7 2.2,1.9 5.2,3.1 8.4,2.7 2.6,-0.3 4.9,-2.5 5.5,-5.1 0.2,-0.8 0.2,-1.7 1,-2.2 3.8,0.9 8.6,1 12.3,-0.3 0.5,-0.2 0.5,0.4 0.7,0.7 0,0.3 -0.3,0.6 -0.6,0.8 -4,1 -8.3,1.2 -12.6,0.5 -0.1,0.1 -0.3,0.2 -0.1,0.4 1.3,0.7 3.1,0.3 4.5,0.7 3,0.1 5.8,-0.4 8.5,-1.3 0.9,-0.2 0.8,0.9 1.2,1.3 1.2,2.3 3.1,4 4.3,6.3 0.8,1.7 1.3,3.8 0.7,5.7 -0.9,2.2 -3.3,2.5 -5.1,3.2 -2.1,-0.5 -4.1,-1.7 -5.4,-3.3 -2.1,-1.3 -2,-3.9 -4,-5.4 -1.5,-1.4 -2.7,-3.5 -4.8,-4 l -0.7,0.1 c -0.2,0.7 0.8,0.3 1.2,0.6 2,1.5 3.6,3.5 5.2,5.4 0.3,0.8 1,1.3 1.2,2.2 1.4,1.6 2.9,3.6 5.2,4 0.3,0.4 1,0.2 1,0.8 -2.2,1.1 -4.5,1.8 -6.7,2.8 -0.5,0.1 -1.1,0.4 -1.3,0.8 0,0.3 0.1,0.7 0.4,0.6 2.8,-0.7 5.3,-1.8 7.9,-2.9 1.7,-0.8 3.4,-1.3 5.1,-1.9 2.1,-1.1 2.1,-3.3 2.6,-5.1 -0.2,-1 -0.4,-1.9 -0.6,-2.8 -0.5,-0.7 -0.7,-1.4 -1,-2.1 l 0.4,-0.2 c 2.8,0.8 6.1,0.6 8.7,-0.7 0.7,-0.3 1.3,-0.8 2.1,-0.8 1.2,1.3 2.2,2.6 3.5,3.8 2,1.8 4.7,3.1 7.7,2.6 2.4,-0.6 3.7,-2.8 4,-5.1 -0.1,-2 -0.4,-3.7 -1.6,-5.2 l -0.2,0 c -0.1,0.8 0.3,1.3 0.7,1.9 0.7,1.9 0.6,4.5 -0.5,6.2 -1,1.4 -2.5,1.6 -4,1.9 -2.2,-0.1 -4,-1.3 -5.7,-2.6 0,-0.3 -0.3,-0.2 -0.4,-0.4 -1.1,-1 -1.5,-2.3 -2.8,-3.2 l 0.1,-0.4 c 3.4,-2 6.3,-4.8 9.1,-7.7 1,-1.2 2.6,-1.5 3.9,-2.2 3.4,-2 7.9,-1.4 11.3,-3.4 3.2,-2.2 5.6,-5.8 9.4,-6.8 2.2,-0.9 4.4,-1.6 6.6,-2.5 1.1,-0.2 2.1,-0.6 3.1,-0.9 2.9,-0.9 5.6,-2.4 8.7,-2.8 4.4,-1.2 8.6,-2.1 13.1,-2.7 0.3,-0.5 0.9,-0.2 1.3,-0.3 6.4,-1.1 12.7,-1.9 19.4,-2.3 l 0.5,-0.2 c 4.6,0 9.3,-0.3 13.5,0.7 0.5,-0.1 1,-0.2 1.1,-0.7 0.1,-0.7 -0.9,-0.3 -1.2,-0.8 -4.5,-0.3 -9.6,-0.9 -14.1,-0.2 -3.4,0.1 -6.7,0.6 -10,0.8 -1.2,0.3 -2.6,0.2 -3.8,0.6 -3.1,0.4 -5.9,0.9 -9,1.4 -1.6,0.2 -3,0.8 -4.6,0.8 -2.2,0.6 -4.4,1.1 -6.5,1.7 -0.9,0.1 -1.8,0.4 -2.7,0.6 -1.2,0.4 -2.4,0.9 -3.6,1.3 -0.8,-0.1 -1.3,0.7 -2.1,0.7 -3.2,1.4 -6.7,2.2 -9.9,3.6 -2.1,0.9 -4.1,1.9 -5.9,3.4 -1,0.1 -1.8,-0.7 -2.7,-1.1 -0.4,-0.5 -1.3,-0.6 -1.7,-1.2 -1.6,-0.6 -2.6,-1.9 -4.1,-2.9 -0.3,0.3 0.3,0.5 0.3,0.8 1.9,1.6 3.8,3.2 6.1,4.4 0.4,0.1 0.9,0.3 1,0.8 -0.3,0.9 -1.1,1.5 -1.8,2 -2.8,0 -5,-1.9 -7.4,-3 -0.3,-0.2 -0.5,-0.8 -1,-0.6 l -0.1,0.2 c 2.1,1.6 4.4,3.1 6.8,4.2 -0.1,0.7 -1,0.7 -1.5,1 -1.7,0.4 -3.5,-0.5 -5.1,-0.9 -2.5,-1.1 -5.1,-2.4 -7.2,-4.1 l -0.1,0 c -0.1,0.4 0.4,0.4 0.4,0.7 2.3,2 5,3.3 7.8,4.3 l 0.3,0.3 c -1.2,1.1 -3,0.9 -4.3,1.7 -1.9,0.7 -3.8,1.5 -5.4,2.8 -3.9,-0.6 -7.8,-1 -11.1,-2.7 -2.5,-1.3 -5.5,-0.4 -7.7,0.7 -1.7,1.1 -3.2,2.8 -4.6,4 -0.4,0.4 -0.6,1.2 -1.2,1.2 -0.8,-4.4 0.7,-8.8 2.4,-12.6 0.3,-1 0.7,-2.1 1.3,-3 1.6,-4.8 3.8,-9.4 7.5,-12.9 4,-4.2 9.1,-7.9 13.8,-11.4 2.1,-0.9 3.9,-2.2 6,-3 0.5,-0.6 1.3,-0.4 1.7,-0.9 4.6,-2.4 9.4,-4.3 13.4,-7.8 2.5,-1.4 3.6,-4.3 5.1,-6.6 -0.1,-0.7 0.4,-1.1 0.5,-1.7 0.3,-2.5 0.2,-4.5 -0.4,-6.9 -0.5,-1.7 -1.2,-3.4 -1.5,-5.2 -0.3,-0.2 -0.2,-0.6 -0.6,-0.8 -0.1,0.4 0,1 0.1,1.5 0.9,3.4 1.8,6.9 1.1,10.4 -0.2,0.3 -0.5,-0.1 -0.8,-0.2 -1.7,-2.2 -3.2,-4.2 -5.4,-5.8 -1.3,-1.5 -2.9,-2.9 -4.5,-4.2 -2.6,-2.3 -5.3,-4.2 -8,-6.3 -1.1,-0.5 -1.8,-1.3 -2.8,-2 -0.1,-0.4 0.2,-0.6 0.6,-0.5 2.8,-0.3 5.3,0.4 7.8,1 0.1,-0.5 -0.6,-0.7 -1,-0.8 -4.2,-1.6 -9.6,-1.9 -14,-0.5 -3.1,0.4 -5.9,1.4 -9,1.6 -2.3,0.4 -4.5,0.8 -6.9,0.8 -3.7,0.3 -6.6,-1.9 -9.1,-4.1 0.7,1.7 2.4,2.6 3.7,3.7 0.4,0.3 0.1,0.7 -0.2,0.8 -1.9,0.4 -3.8,1.1 -5.8,1.2 -1.9,0.7 -4.1,0.6 -6,1 -3.4,0.5 -6.4,-0.2 -9.6,-0.3 -4.7,-0.8 -9.5,-1.1 -13.2,-4.5 -0.3,-0.5 0.4,-0.7 0.7,-0.9 1.1,-0.8 1.7,-2 2.5,-3.1 -0.1,-1 1.7,-1.1 1,-2.3 0,-0.6 0.5,-1.1 0.7,-1.6 0.6,-2.4 1.1,-4.9 1.7,-7.3 1.7,-1.8 3.9,-2.9 6.1,-3.6 1.6,-1 3.4,-1.7 5,-2.6 2.4,-1.1 4.3,-2.8 6.2,-4.5 0.2,-0.4 0.7,-1 1.2,-1.1 -0.2,0.7 -0.7,1.2 -0.8,2 -0.9,1.5 -1.5,3.2 -2,5 0.2,0.4 -0.4,1 0.2,1 0.5,-2.2 1.6,-4.1 2.4,-6.2 1,-2 2.3,-3.9 3.9,-5.7 0.5,-0.2 1,-0.7 1.6,-0.6 -0.4,1.7 -2.2,2.9 -2.6,4.7 -1.1,1.9 -1.8,4 -2.1,6.3 0.1,0.3 0.5,-0.1 0.5,-0.3 0.7,-4.5 4,-8.3 6.6,-12 2.7,-1.3 5.8,-1.9 8.5,-3.5 4.3,-1.4 8.2,-4 12.3,-6.1 0.9,-0.7 1.9,-1.3 2.9,-1.7 3.1,-2.2 6.3,-4.2 9.2,-6.6 2.3,-1.5 4.2,-3.299 6.3,-5 0.3,-0.299 0.5,-0.7 0.3,-1.1 -0.3,-0.4 -0.8,-0.3 -1.2,-0.199 -3.2,3.199 -6.8,5.599 -10.1,8.299 -1.9,1.1 -3.7,2.6 -5.6,3.4 -1.4,1.1 -2.7,1.801 -4.1,2.7 -0.2,0.101 -0.6,0.2 -0.8,0 2.6,-5.2 6.9,-9.8 11.3,-13.6 0.6,-1.299 2.1,-1.9 2.9,-3 -0.5,-0.4 -1.2,0 -1.8,0 -1.4,0.6 -2.1,2 -3.2,2.9 -4.6,4.301 -9,9.301 -11.2,15 -1.6,1.2 -3.5,2.1 -5.3,2.801 -4.2,2.5 -9.1,3.399 -13.4,5.699 -1,0.1 -1.6,0.9 -2.5,1.3 -3,1.7 -4.4,5.4 -7.3,7.2 -1.2,1.1 -2.7,1.6 -4,2.1 1.5,-1.6 3.7,-2.6 4.7,-4.7 1.1,-1.5 0.8,-3.4 0.7,-5.1 -0.8,-1.6 -1.1,-3.2 -1.7,-4.8 -0.4,-1.199 -0.9,-2.8 -2.3,-3.4 -3.1,-2.4 -6.2,-4.299 -9.5,-6.299 -1,-0.601 -2.1,-1.201 -3.1,-1.801 -1.3,-0.9 -2.6,-1.6 -3.8,-2.5 -0.5,-1 0.8,-1.699 0.7,-2.699 0.4,-1.401 0,-2.5 0,-3.801 -0.1,-0.5 -0.7,-0.4 -1,-0.3 -0.9,1.101 -0.2,2.7 -0.4,3.9 -0.9,3.201 -3.8,5.3 -6,7.8 l -3.8,3.2 c -1.8,0 -3.3,-0.9 -5,-1 -2.1,-0.299 -3.7,-1.5 -5.5,-2.299 -3.7,-2.801 -4.2,-7.5 -4.4,-11.801 -0.5,-0.3 -1.1,-0.3 -1.6,-0.199 -0.1,0.799 0.2,1.699 0.2,2.599 0.3,4.1 1.9,8.5 5.5,10.8 3.2,1.9 7,2.5 10.7,3.3 1.9,-0.199 2.6,-2.199 4.2,-2.9 1.9,-1.799 3.4,-3.7 5.2,-5.6 1.8,0.801 3.3,2 5,3 2.4,1.2 4.1,2.801 6.4,3.9 0.7,0.901 2,1.2 2.9,2 0.6,0.401 1.3,0.901 2,1.401 1.7,0.799 2.1,2.599 2.6,4.099 0.1,0.9 0.8,1.5 0.8,2.3 0.5,1.7 1,3.9 0,5.6 -2.6,3.8 -6.9,5.5 -10.3,8 -0.5,0.1 -1.1,0.1 -0.9,-0.6 0,-1.5 0.5,-3.1 1,-4.6 0.1,-0.4 -0.4,-0.6 -0.6,-0.8 -1.2,0.1 -1.2,1.6 -1.5,2.5 -0.2,1.4 -0.8,3.6 0.5,4.7 -0.1,0.9 -1.4,1 -1.8,1.8 -3.5,4.1 -8.5,7.6 -8.7,13.2 l -0.2,0.2 c -1.6,-2 -2.8,-4.6 -5.1,-6 -1.9,-1.5 -4.1,-2.8 -6.8,-2.3 -4.5,0.2 -6.7,4.5 -10.4,6.8 -4.2,3.6 -8.5,7.4 -12.8,11 -1,0.3 -1.6,-0.9 -2.5,-1 -1.2,-1 -2.9,-1 -4.2,-1.8 -2.5,-0.6 -5.3,-1.2 -7.7,0 -0.7,0.2 -1.3,1.2 -2.1,0.9 1.2,-3.4 -0.9,-6.4 -3.1,-8.8 -0.8,-0.4 -1.4,-0.9 -2.1,-1.3 -0.3,-0.1 -0.7,-0.2 -0.9,-0.5 0.7,-1.2 1.8,-1.7 2.5,-2.8 0.7,-1 1,-2.1 1.6,-3.2 0.8,-0.7 1.9,-0.1 2.8,-0.1 3.6,0.3 7.3,1.2 9.1,4.5 0.3,0.3 0.7,0.1 1.1,0.1 0.9,-0.9 -0.5,-1.4 -0.8,-2 -1.1,-1.4 -2.9,-2.4 -4.5,-3.1 -1.5,-0.3 -2.9,-0.7 -4.5,-0.8 l -2.6,-0.3 c 0.3,-1.3 0.4,-3 0.2,-4.4 0.1,-0.4 0,-0.9 -0.1,-1.3 -3.3,-1.1 -6.8,-1.6 -10.2,-2.1 -1.3,1.2 -0.2,3.3 -2,4.4 -2.2,0.8 -4.3,-0.6 -6.5,-0.6 -2.2,-0.3 -4.2,-0.9 -6.4,-1.3 -0.4,-0.3 0,-0.6 0.2,-0.9 1.5,-1.2 2.4,-2.8 3.9,-4 3.2,-4 7,-7.2 10.1,-11.3 1,-2.5 -0.8,-5.1 -2.6,-6.699 -1.6,-1.301 -3.3,-2.201 -5.5,-1.901 -2.1,0.7 -3.3,2.901 -4.9,4.5 -3.1,3.8 -6.5,7.1 -9.7,10.8 0,0.5 -0.2,1 0.2,1.3 1.4,0 1.8,-1.6 2.6,-2.4 1.4,-1.8 3.6,-3.1 4.8,-5.2 1.4,-1.4 2.9,-3.4 4.4,-4.8 0.7,-0.299 0.6,0.701 0.9,1 1,2.4 3.5,4.7 6.3,4.8 0.4,0.2 -0.1,0.6 -0.2,0.9 -3.4,3.2 -6.5,6.8 -9.7,10.2 -1.1,1.1 -1.6,2.4 -2.9,3.2 -1.2,-0.4 -2.5,-0.4 -3.6,-0.9 -0.4,-0.1 -0.8,0.1 -0.9,0.5 -0.1,0.6 0.5,1 1.1,1.1 5.7,1.1 11.4,2.8 17.4,3.2 1.3,0 2.6,-0.4 3.2,-1.6 0.5,-0.8 0.7,-1.8 0.5,-2.6 0.8,-0.4 1.7,0 2.4,0.1 1.9,0.5 3.8,0.7 5.7,1.2 0.5,4.9 -1.4,10 -6,12.4 -1.3,-0.1 -2.4,0.5 -3.2,1.3 -0.1,0 -0.3,0 -0.4,-0.1 l 0.3,-0.8 c 1.8,-1.7 3.4,-3.6 5,-5.4 0.1,-0.4 0,-0.7 -0.2,-1 -0.8,-0.9 -1.8,-1.8 -2.7,-2.6 -1,0 -1.7,1.1 -2.6,1.5 -3,2.4 -7.7,5.3 -6.2,10 -0.1,0.2 -0.4,0.4 -0.5,0.2 -0.6,-1.2 -2,-1.6 -2.5,-2.9 -0.2,-0.1 -0.5,-0.1 -0.4,-0.4 -1.5,-1.6 -3,-3 -4.1,-4.7 -1.8,-1.8 -3.4,-3.5 -5.1,-5.4 -0.4,-0.2 -0.8,0 -1,0.4 0.2,1.2 1.4,2.3 2.2,3.1 1.7,1.6 3.1,3.5 4.8,5.3 3.3,3.3 6.2,7.3 9.6,10.4 0.2,1.3 -0.6,2.5 -1.1,3.7 -0.3,0.8 -0.7,1.6 -1.5,2 -1.6,-0.2 -3.3,-1.5 -4.9,-0.4 -1.2,-0.4 -1.7,0.7 -2.3,1.4 -0.5,0.7 0,1.9 -0.9,2.3 -3.1,0.4 -5.8,1.6 -8.8,2.1 -0.1,0.4 -0.1,0.9 0.3,1.1 4.6,-0.8 8.9,-2.3 13.4,-3.2 0.2,0.1 0.4,0 0.6,0.2 0,1 -1.1,1 -1.7,1.3 -4.4,0.8 -8.6,2.1 -12.9,3 -0.3,0.5 -0.3,1.1 -0.1,1.5 3.2,-1 6.6,-1.6 9.8,-2.6 1.4,0 1.1,1.6 2.1,2 l 0,0.2 c 1,0.9 1.5,1.7 2.6,2.3 1.2,4.3 4.5,8.1 8.4,10.3 1.7,0.7 3.3,1.6 5.4,1.6 2.1,0.2 3.7,-1.2 5.8,-1.4 0.6,0.5 -0.2,1.1 -0.1,1.7 -1.6,5.1 -3.1,10.3 -4.8,15.3 -0.5,2.2 -1.1,4.3 -1.9,6.3 C 6,-54 5.5,-52.8 5,-51.5 l -0.5,-0.2 c -0.9,-1.2 -2.1,-2.1 -3.2,-2.8 -2.7,-2.2 -3.7,-5.4 -4,-8.8 -0.5,-2.2 -0.6,-4.8 -0.9,-6.9 0,-5.1 -1.4,-10.7 -6.5,-12.9 -1.3,-0.7 -3.4,-0.9 -4.7,0.1 -0.7,0.3 -0.4,1.2 -1.1,1.3 -0.7,0.3 -1.4,0.4 -1.9,1.1 0,0.4 -0.3,0.9 0.2,1.1 1.1,0 1.4,-1.3 2.4,-1.2 2.8,-0.4 5.1,1.8 6.5,3.7 1.1,1.4 0.9,3.3 1.3,5 0.2,2.2 0.6,4.2 0.8,6.6 -0.1,0.4 -0.4,0.1 -0.6,0 -1.2,-1.3 -2.3,-2.8 -3.8,-3.9 -1.4,0 -1.8,1.6 -3,2.2 -0.6,0.6 -1.8,1.1 -1.9,2.1 0.2,0.5 0.7,0.4 1,0.3 0.9,-0.6 1.7,-1.4 2.7,-1.9 0.1,1.1 -0.9,2.1 -1.2,3.2 -1,1.2 -0.8,2.9 -2,3.9 -0.5,-0.1 -1,-0.1 -1.4,0.2 l 0,0.4 c 4.2,3.7 6.7,9.4 12.2,11 2.1,0.7 4.5,0.3 6.2,-0.7 0.5,-0.6 0.7,-1.4 0.3,-2 -1.1,-2.2 -3.8,-2.6 -4.5,-5 -2.8,-3.5 -2,-8.8 -3.1,-13.1 -0.3,-1.8 0,-3.6 -0.7,-5.5 0.1,-1.7 -0.7,-3.1 -1.6,-4.4 -1.3,-1.6 -2.9,-2.7 -4.8,-3.2 -0.1,-0.4 0.3,-0.4 0.5,-0.6 2.8,0 5.5,1.9 6.5,4.4 1.3,4 1.1,8.6 1.9,12.8 0.3,1.2 0,2.7 0.6,3.7 0.2,1.1 0.6,2.3 1,3.4 1.1,3.5 4.7,4.8 6.9,7.4 -0.1,0.7 0,1.7 -0.7,2.4 -2.3,2 -5.9,2.4 -8.8,1.5 -4.6,-1.2 -7.3,-5.8 -10.8,-8.6 -0.3,0 -0.9,-0.1 -0.8,0.4 -0.1,1.2 1.3,1.4 1.8,2.3 2.1,1.8 3.7,4.4 6.3,5.7 1.7,1.1 3.7,1.6 5.7,2 3.3,0 6.9,-0.5 8.5,-3.7 0.7,-2.1 1.2,-4.3 1.8,-6.5 0.9,-0.8 2.3,-0.6 3.3,-1.1 1.4,-0.3 2.9,-0.5 4.4,-0.1 3.2,1.3 8,1.6 10.8,-0.9 2.8,-1.4 4.7,-4.4 4.7,-7.4 0.1,-3.2 -0.6,-6.4 -2.2,-9 l 0.1,-0.4 c 0.9,-0.4 1.9,-1 2.9,-0.9 0.3,1.4 0.5,2.9 0.6,4.4 0.6,4.3 1,8.5 1.5,12.9 0.1,1 0.4,2.1 0.4,3.2 0.3,2.5 0.5,5 1,7.5 0.4,3.2 0.5,6.3 1.1,9.5 0.3,1.5 1.2,2.7 1.7,4.2 0.7,0.7 1.4,1.7 2.1,2.5 -0.5,0.6 -1.5,0.5 -2.2,0.3 -4.2,-1.9 -8.4,-3.7 -12.6,-5.7 -1.3,-0.7 -2.7,-1.2 -4.1,-1.8 -2.4,-1.1 -4.7,-2.3 -7.2,-3.1 -1.1,0.2 -0.2,1.6 -1,2.3 -1.2,4.3 3.1,6.5 5,9.7 0.6,1.1 1.5,2.2 2.4,3.3 0.2,0.3 -0.3,0.5 -0.5,0.6 -0.6,-0.2 -1.1,-0.8 -1.4,-1.4 -1.8,-2.6 -3.4,-5.2 -5.8,-7.3 -0.7,-1.5 -1.6,-3.7 -0.5,-5.4 l 0.4,-0.5 c -0.2,-0.2 -0.3,-0.3 -0.6,-0.1 -1.3,1.1 -0.4,3 -0.8,4.4 -1.2,-1.1 -2.3,-2.6 -3.8,-3.5 -2.3,-1.3 -5.4,-1.8 -7.9,-0.9 -1.9,0.5 -2.1,2.3 -3.3,3.5 -1.7,2.8 -0.5,6.4 0.8,9 2.4,3.3 6.3,6.2 10.9,4.8 1,-0.6 2.3,-0.8 3.3,-1.4 2,-2.3 2.4,-6.2 1.2,-9 0.3,-0.2 0.5,0.3 0.8,0.4 1.3,1.4 2.5,2.7 3.5,4.4 0.8,1 1.5,1.9 2.3,3 l 0,0.6 c -3.3,2.6 -7.3,3.9 -10.2,7.2 -3.3,3.2 -6,7.3 -8,11.5 -0.5,1.6 -1.3,3.1 -1.6,4.8 -0.8,-0.4 -0.6,-1.5 -0.5,-2.2 -0.5,-0.3 0,-1.1 -0.5,-1.4 0,-3 -0.9,-5.9 -1.3,-8.8 -0.6,-2.4 -1.2,-4.8 -2.9,-6.6 -3.3,-2.8 -8,-1.4 -12.2,-2.1 -0.1,0.4 0.3,0.6 0.3,1 l 0.4,0.2 c 4.2,0.5 9.5,-0.9 12.1,2.9 1,1.9 1.4,4 1.8,6.2 0,1.3 0.4,2.6 0.5,4 0.2,1.2 0.6,2.3 0.6,3.5 0.1,2.3 1.4,4.2 0.8,6.8 0,0.2 0.2,0.2 0.4,0.3 C -0.2,2.4 -0.5,0.8 0,0"
             style="fill:#231f20;fill-opacity:1;fill-rule:nonzero;stroke:none"
             id="path5496"
             inkscape:connector-curvature="0" /></g><g
           id="g5498"
           transform="translate(19.1729,172.9258)"><path
             d="m 0,0 c -0.5,-4.4 -1.4,-8.8 -2.1,-13.1 -0.2,-1.9 -0.8,-3.9 -1.7,-5.7 -2.6,-4.5 -8.3,-2.5 -12.7,-3.4 -0.4,0.2 -0.2,0.9 -0.2,1.3 2.7,-0.1 5.2,0.3 7.9,0.3 0.6,0.5 1.6,0.2 2.2,0.9 2.3,1.7 3.1,4.7 3.3,7.5 0.5,0.7 -0.1,1.5 0.5,2.1 0.2,2.8 0.7,5.5 1.2,8.3 0.3,0.7 -0.2,1.6 0.4,2 0.4,-0.3 1,0.3 1.2,-0.2"
             style="fill:#231f20;fill-opacity:1;fill-rule:nonzero;stroke:none"
             id="path5500"
             inkscape:connector-curvature="0" /></g><g
           id="g5502"
           transform="translate(33.8726,172.5259)"><path
             d="m 0,0 c 0.5,-2.3 1.4,-4.5 2.3,-6.7 0.9,-0.5 1.9,-0.5 2.9,-0.7 8,-0.9 15.9,0.8 22.8,3.6 1.6,0.6 3.1,1.7 4.7,2.1 3.2,0.4 5.4,-2 8.1,-2.9 1.8,0.4 3.3,1.8 5,2.6 1.2,0.8 2.4,2.4 4.2,1.6 -2.1,-2.2 -5,-3.4 -7.4,-5.1 -2.1,-1.2 -4,0.6 -5.8,1.3 -1.3,1 -3.1,1.9 -4.7,1.1 -2,-1.4 -4.4,-1.9 -6.4,-3.1 -6.9,-2.1 -14.5,-3.7 -22,-2.3 -0.6,-0.7 0.6,-1.2 0.8,-1.9 4,-2 8.3,-3.6 13.1,-3.8 9.2,-0.5 17.9,1.8 25.5,5.9 0.9,0.5 1.8,0.9 2.8,1.3 0.8,1.1 2.1,1.1 2.9,2.1 1,0.5 2.1,1.4 3.1,1.9 1,0.8 2,1.7 3,2.6 0.3,0.1 0.8,0.2 0.8,-0.1 0,-0.6 -0.6,-0.5 -0.9,-0.9 -2.5,-2.3 -5.5,-3.9 -8.1,-5.9 -3.3,-1.4 -6.1,-3.6 -9.5,-4.5 -4.7,-2.1 -9.9,-3.2 -15.2,-3.5 l -2.3,-0.2 -0.2,-0.2 0.4,-0.3 c 7,-0.2 13.6,1.5 19.8,3.9 0.5,0.5 1.2,0.4 1.8,0.8 5.9,2.6 11.5,6.2 16.4,10.7 0.5,0.4 1.5,0.3 2.1,0.1 -0.7,-0.8 -1.6,-1.6 -2.4,-2.2 -4,-3.4 -8.3,-6 -12.7,-8.5 -8.6,-4 -18.3,-7.1 -28.4,-5.5 -2.7,0.4 -5.2,1.1 -7.6,2 -0.3,0.3 -0.7,0.6 -1.2,0.5 l -0.1,-0.3 c 1.6,-2 3.8,-3.3 5.9,-4.6 1.6,-1.3 3.6,-2.1 5.4,-2.9 4.9,-1.8 10.5,-2 15.9,-1.6 7.1,0.7 13.8,2.8 19.9,6.2 0.7,0.2 1.2,1.1 2,1 5,3.1 9.5,6.6 13.8,10.7 1.7,1.7 3,3.5 4.7,5.1 l 0.4,-0.1 0,-0.4 c -1.8,-1.8 -3.5,-3.9 -5.2,-5.8 -1,-1.1 -2.3,-1.7 -3.2,-2.7 -3.4,-3 -7.2,-5.8 -11.2,-7.9 -10.7,-6 -24.4,-10.2 -37.1,-5.9 -2.5,0.8 -4.8,2.2 -7.2,3.4 -1.8,1.7 -4,3 -5.4,5.1 -3.9,4.1 -6.4,9.2 -7.8,14.7 0.1,0.1 0,0.5 0.3,0.6 0.5,-0.1 1,0.1 1.2,-0.4"
             style="fill:#231f20;fill-opacity:1;fill-rule:nonzero;stroke:none"
             id="path5504"
             inkscape:connector-curvature="0" /></g><g
           id="g5506"
           transform="translate(169.4727,170.626)"><path
             d="m 0,0 c -0.7,-2.6 -1.2,-5.1 -1.7,-7.6 -0.2,-0.8 -0.3,-1.6 -0.7,-2.3 0,-1.5 -0.8,-2.7 -0.7,-4.2 -0.5,-1.7 -0.8,-3.2 -1.4,-4.9 -0.3,-2.8 -1.1,-5.6 -1.9,-8.3 -0.4,-2.2 -1.1,-4.6 -1.5,-6.9 -0.2,-0.1 -0.2,-0.4 -0.5,-0.3 -0.2,1.4 0.6,2.7 0.6,4.1 0.8,2.8 1.5,5.6 2,8.5 0.6,1.2 0.8,2.5 1,3.9 0.2,0.2 0.2,0.6 0.2,1 0.6,0.9 0.4,2.2 0.9,3.1 0.8,3.6 1.4,7.3 2.4,10.8 0.3,1.1 0.4,2.3 0.9,3.3 0.1,0 0.3,0 0.4,-0.2"
             style="fill:#231f20;fill-opacity:1;fill-rule:nonzero;stroke:none"
             id="path5508"
             inkscape:connector-curvature="0" /></g><g
           id="g5510"
           transform="translate(172.7725,170.8262)"><path
             d="m 0,0 c 0.2,-1.2 -0.6,-2.3 -0.6,-3.3 -0.4,-2.1 -1,-3.9 -1.299,-5.9 -0.5,-1.9 -0.901,-3.8 -1.401,-5.7 -0.7,-2.5 -1,-5 -1.8,-7.5 -0.4,-2.3 -0.799,-4.3 -1.299,-6.4 C -6.8,-30.2 -7,-31.6 -7.399,-33 -7.6,-33.9 -7.7,-34.8 -8.2,-35.4 l -0.4,0.3 c 0.5,1.1 0.4,2.5 1,3.6 -0.2,1 0.701,1.7 0.4,2.8 0.9,2.5 1.2,5.1 1.9,7.7 0.5,1.2 0.2,2.6 1,3.9 0.1,1.3 0.6,2.7 0.7,4.1 0.3,1.3 0.9,2.5 1,3.9 0.3,0.3 0.201,0.7 0.3,1 0.7,2.7 1.1,5.5 1.901,8.1 L 0,0 Z"
             style="fill:#231f20;fill-opacity:1;fill-rule:nonzero;stroke:none"
             id="path5512"
             inkscape:connector-curvature="0" /></g><g
           id="g5514"
           transform="translate(193.7725,149.2261)"><path
             d="M 0,0 C 3.5,0.1 7.3,-0.3 10.5,0.9 11.1,1.2 11.6,0.8 11.9,0.3 11.7,-0.5 10.8,-0.4 10.1,-0.6 5,-1.8 -0.7,-1.2 -5.7,-0.2 -7.399,0.6 -9.3,1 -11.1,1.9 -12.399,2.2 -14.2,3 -15.5,2 c -1.1,-5.3 -2.8,-10 -4,-15.2 -0.7,-1.9 -0.6,-4.1 -1.7,-5.7 -0.4,0 -1,0 -1,0.5 0.801,2.5 1.1,5 2,7.5 1,4.7 2.2,9.2 3.801,13.8 C -14.7,4.6 -12.3,3.2 -10.3,3 -7.1,1.6 -3.8,0.2 0,0"
             style="fill:#231f20;fill-opacity:1;fill-rule:nonzero;stroke:none"
             id="path5516"
             inkscape:connector-curvature="0" /></g><g
           id="g5518"
           transform="translate(68.4727,149.9258)"><path
             d="M 0,0 C 0,-0.1 -0.2,-0.1 -0.2,-0.1 -0.2,0 -0.3,0.3 -0.1,0.3 0.1,0.3 0,0.1 0,0"
             style="fill:#231f20;fill-opacity:1;fill-rule:nonzero;stroke:none"
             id="path5520"
             inkscape:connector-curvature="0" /></g><g
           id="g5522"
           transform="translate(149.0723,139.3262)"><path
             d="m 0,0 c 0.2,-0.7 -0.6,-0.4 -0.899,-0.5 -4.601,0 -8.3,-1.9 -12.401,-3 -3.8,0.1 -6.2,3.3 -8.599,6 -0.901,1 -0.401,2.4 0,3.6 1.7,1.6 3.799,2.8 6.299,2.9 C -9.199,8.7 -4.3,4.4 0,0"
             style="fill:#ffffff;fill-opacity:1;fill-rule:nonzero;stroke:none"
             id="path5524"
             inkscape:connector-curvature="0" /></g><g
           id="g5526"
           transform="translate(31.6729,146.5259)"><path
             d="M 0,0 C 0.5,-0.8 1,-1.6 1.6,-2.3 L 1.5,-2.7 c -1.7,1.4 -3.9,2 -6.3,1.6 -2.1,-0.8 -4.2,-2.2 -5.1,-4.4 -0.9,-1.3 -1.4,-2.9 -1.2,-4.6 0.5,-1.8 0.9,-3.6 2.7,-4.6 -0.4,-0.3 -0.9,0.1 -1.3,0.1 -1.1,0.9 -3.1,1.1 -3.1,2.9 -0.4,0.8 -0.4,1.9 -0.7,2.7 -0.1,1.3 0.8,2.2 0.7,3.4 l 1.4,2.5 c 2.3,3.2 6.3,5 10.3,3.8 L 0,0 Z"
             style="fill:#ffffff;fill-opacity:1;fill-rule:nonzero;stroke:none"
             id="path5528"
             inkscape:connector-curvature="0" /></g><g
           id="g5530"
           transform="translate(33.5728,142.126)"><path
             d="m 0,0 c 1,-3.8 -1.5,-7.2 -4.5,-9.3 -1.4,-0.8 -3,-1.6 -4.6,-0.9 -1.8,0.7 -2.9,2.5 -3.2,4.2 0.2,1.2 -0.1,2.4 0.5,3.5 0.9,2.7 3.6,4.9 6.5,5.2 C -3.1,3 -0.9,1.9 0,0"
             style="fill:#ffffff;fill-opacity:1;fill-rule:nonzero;stroke:none"
             id="path5532"
             inkscape:connector-curvature="0" /></g><g
           id="g5534"
           transform="translate(49.0728,142.2261)"><path
             d="M 0,0 C 1.8,-0.8 3.7,-1.1 5.6,-1.6 6.2,-1.7 7.2,-1.5 7.8,-2 7.3,-2.6 6.4,-2.8 5.7,-3.1 c -6.1,-2.7 -12.1,-5.7 -18.3,-8.2 -0.9,0.4 -0.8,1.5 -0.8,2.4 0.2,0.7 0.4,1.3 0.6,2.1 0.6,1.6 2.3,2.3 3,3.8 1.5,1.7 2.7,3.4 3.9,5.2 0.7,0.3 1.4,-0.4 2.1,-0.6 C -2.5,1 -1.4,0.2 0,0"
             style="fill:#ffffff;fill-opacity:1;fill-rule:nonzero;stroke:none"
             id="path5536"
             inkscape:connector-curvature="0" /></g><g
           id="g5538"
           transform="translate(106.1729,141.626)"><path
             d="m 0,0 c 0.7,-1.5 0.7,-3.5 -0.2,-4.9 0,-0.9 -0.8,-1.4 -1,-2.2 -1.7,-2 -4.3,-4.2 -7.3,-3.2 -1.1,0.5 -2,1.5 -2.4,2.6 -0.7,2.4 0.4,4.6 1.7,6.5 1.6,2 4.1,3.4 6.8,2.9 C -1.6,1.2 -0.4,1 0,0"
             style="fill:#231f20;fill-opacity:1;fill-rule:nonzero;stroke:none"
             id="path5540"
             inkscape:connector-curvature="0" /></g><g
           id="g5542"
           transform="translate(104.9727,140.8262)"><path
             d="m 0,0 c 1,-1.6 0.7,-4 -0.4,-5.4 -1.3,-1.9 -3.4,-3.3 -5.8,-3 -0.7,0.4 -1.8,0.6 -2,1.5 0,1.5 -0.4,3.5 0.8,4.7 0.8,1.8 2.5,2.8 4.3,3.5 1.2,0.1 2.6,0 3.1,-1.3"
             style="fill:#ffffff;fill-opacity:1;fill-rule:nonzero;stroke:none"
             id="path5544"
             inkscape:connector-curvature="0" /></g><g
           id="g5546"
           transform="translate(68.8726,140.3262)"><path
             d="m 0,0 c -1.4,-2.2 -3.5,-4.1 -4.8,-6.5 -0.5,-1.3 -1.3,-2.3 -2,-3.4 -0.1,-0.9 -1,-1.5 -1.1,-2.4 -0.4,-1.1 -1.2,-2 -1.4,-3.1 -0.6,-0.5 -0.2,-1.5 -0.8,-2.1 -0.2,-1.3 -0.8,-2.5 -1,-3.8 -0.3,-0.2 0.1,-0.4 -0.1,-0.6 -0.1,0 -0.2,-0.1 -0.3,0 0.5,0.3 0,0.8 0.2,1.2 -0.1,1.7 0.7,3.4 0.6,5.2 0.2,1.4 0.3,2.8 0.4,4.3 0.5,3.1 1.1,6.1 3,8.7 0.8,0.7 1,1.8 2,2.2 1.8,0 3.5,0.4 5.2,0.4 L 0,0 Z"
             style="fill:#ffffff;fill-opacity:1;fill-rule:nonzero;stroke:none"
             id="path5548"
             inkscape:connector-curvature="0" /></g><g
           id="g5550"
           transform="translate(124.9727,131.9258)"><path
             d="m 0,0 c 1,-2.8 2.1,-5.6 3.3,-8.3 -0.7,-1.4 -2.4,-2 -3.5,-3.2 -2.1,-2.3 -4.7,-4.2 -6.9,-6.4 -0.5,-0.6 -0.7,-1.6 -0.4,-2.5 l -0.3,-0.1 c -1.5,0 -3,-0.1 -4.3,-0.6 -0.9,-0.6 -2,-0.8 -2.9,-1.5 -3.6,-1.9 -5.5,-5.6 -7.3,-8.6 -0.8,-1.9 -1.5,-4 -1.4,-6.2 0.3,-0.5 0.1,-1.1 0.1,-1.7 -3,-2.6 -6.1,-5.4 -8.5,-8.6 -0.7,-1.2 -0.9,-2.6 -0.7,-4.1 0.5,-0.9 0.9,-2.1 2,-2.4 1.2,-0.2 2.2,0.2 3.2,0.6 2.4,1.7 4.2,4 6.6,5.8 0.7,0.8 1.7,1.6 2.3,2.6 1.9,-0.6 4,-1.1 6.1,-0.5 1,-0.2 1.6,-1.5 2.7,-1.8 1.2,-0.7 2.8,-0.4 4.2,-0.3 1.9,1.6 4.1,3.2 5.7,5.1 1.5,1 3.1,2.2 3.4,4.2 0.5,1.2 0.4,2.5 0.3,4 -0.4,1.6 -1.6,2.8 -2.9,3.6 -0.1,0.7 -0.3,1.7 -0.1,2.4 2.7,1.7 4.9,3.8 7.5,6 1.1,0.6 1.7,1.5 2.7,2.1 l 0.5,-0.2 c 2.1,-2.4 4.6,-4 6.9,-6.1 0.2,-1.2 -0.5,-2.2 -0.8,-3.4 -0.8,-2.4 -1.9,-4.6 -3,-6.9 -1.3,-0.4 -2.5,-0.8 -3.7,-1.3 C 9.9,-38.6 8.9,-39.3 8,-39.9 4.5,-42.2 2,-46 0.7,-50 0.2,-51.1 0.8,-52.8 0,-53.7 c -2.1,-1.6 -4.2,-3 -6.6,-4.1 -1.4,-0.8 -2.9,-1.3 -4.4,-1.9 -4.5,-1.7 -10.4,-2.4 -15.3,-1 -0.4,0.3 -1,0.2 -1.5,0.4 -4.7,2.1 -8.8,6.6 -9.8,11.6 -1.2,3.8 -1.3,7.9 -0.6,11.8 0.2,2.3 0.8,4.3 1.3,6.3 0.8,3.8 2.9,6.7 4.5,10 1.4,2.1 2.9,4.5 4.8,6.5 0.8,1.1 2,2 2.8,3.1 0.9,0.4 1.7,-0.2 2.6,0 2.1,0.3 4.1,0.9 5.8,2.1 1.7,1 3,2.6 4.4,3.9 0.5,1.2 1.5,2.2 1.9,3.5 1.6,0.7 3.3,1.4 5.2,1.7 1.5,0.4 3,0.6 4.6,0.5 L 0,0 Z"
             style="fill:#ffffff;fill-opacity:1;fill-rule:nonzero;stroke:none"
             id="path5552"
             inkscape:connector-curvature="0" /></g><g
           id="g5554"
           transform="translate(22.8726,121.2261)"><path
             d="m 0,0 c 0.4,-1.8 -1.9,-2.2 -2.8,-3.3 -2.6,-2.6 -3.9,-6.2 -4,-9.8 -1,-1.4 -2.3,-2.3 -3.3,-3.5 -0.4,-0.5 -1,-1.3 -1.6,-1.3 -0.6,1.4 -1.2,2.7 -1.7,4.1 -0.3,1.2 -1,2.2 -1.2,3.4 -0.5,0.2 -0.8,0.7 -0.6,1.2 3.1,3.2 5.6,6.7 9.2,9.5 1.6,0.7 3.6,1.1 5.4,0.5 L 0,0 Z"
             style="fill:#ffffff;fill-opacity:1;fill-rule:nonzero;stroke:none"
             id="path5556"
             inkscape:connector-curvature="0" /></g><g
           id="g5558"
           transform="translate(129.5723,120.626)"><path
             d="M 0,0 C 0.301,-1.2 1.301,-2.1 1.7,-3.3 1.301,-4.1 0.5,-4.4 -0.1,-5 c -0.799,-0.9 -2,-1.4 -2.9,-2.3 -1.6,-0.9 -2.399,-2.4 -4,-3.3 -0.899,0.3 -1.6,1.3 -2.6,1.5 -0.4,0.4 -1.299,0.5 -1.2,1.2 1.2,1.5 2.8,2.3 4,3.8 2,1.5 3.8,3.7 6.101,5.1 C -0.1,1 -0.399,0.3 0,0"
             style="fill:#ffffff;fill-opacity:1;fill-rule:nonzero;stroke:none"
             id="path5560"
             inkscape:connector-curvature="0" /></g><g
           id="g5562"
           transform="translate(131.6729,116.3262)"><path
             d="M 0,0 C -0.601,-0.3 -0.8,-1.2 -1.601,-1.2 L -1.8,-1.4 c 0.199,0.4 1,1.1 1.5,1.6 0.1,0 0.3,0 0.3,-0.2"
             style="fill:#ffffff;fill-opacity:1;fill-rule:nonzero;stroke:none"
             id="path5564"
             inkscape:connector-curvature="0" /></g><g
           id="g5566"
           transform="translate(133.2725,114.626)"><path
             d="m 0,0 1.9,-2.1 0,-0.5 c -2.5,-2 -5,-4.1 -7.5,-6 -0.7,-0.4 -1,-1.3 -1.9,-0.9 -0.899,1 -0.8,2.5 -1.899,3.3 -0.101,0.8 0.899,1.1 1.399,1.6 0.5,0.2 0.601,1 1.3,1 0.301,0.8 1.4,1.1 1.801,1.7 C -3.5,-1 -2.6,0.2 -1.3,1.1 -0.5,1.3 -0.5,0.4 0,0"
             style="fill:#ffffff;fill-opacity:1;fill-rule:nonzero;stroke:none"
             id="path5568"
             inkscape:connector-curvature="0" /></g><g
           id="g5570"
           transform="translate(129.4727,114.626)"><path
             d="M 0,0 C -0.1,-0.6 -1,-0.6 -1.4,-1.2 -1.1,-0.8 -0.5,-0.3 0,0"
             style="fill:#ffffff;fill-opacity:1;fill-rule:nonzero;stroke:none"
             id="path5572"
             inkscape:connector-curvature="0" /></g><g
           id="g5574"
           transform="translate(44.2725,113.5259)"><path
             d="m 0,0 c -2.6,0.1 -4.5,-1.6 -7.1,-1.2 l -0.1,0 c 0.2,0.5 1.1,0.4 1.7,0.7 1.6,0.8 3.6,0.9 5.5,0.6 L 0,0 Z"
             style="fill:#ffffff;fill-opacity:1;fill-rule:nonzero;stroke:none"
             id="path5576"
             inkscape:connector-curvature="0" /></g><g
           id="g5578"
           transform="translate(127.4727,113.0259)"><path
             d="M 0,0 0.5,0.3 C 0.4,0.2 0.3,-0.1 0,0"
             style="fill:#ffffff;fill-opacity:1;fill-rule:nonzero;stroke:none"
             id="path5580"
             inkscape:connector-curvature="0" /></g><g
           id="g5582"
           transform="translate(39.1729,111.7261)"><path
             d="m 0,0 c 2.6,1 6.5,2.3 9,0 3.1,-1.7 3.9,-5.1 3.6,-8.5 -0.7,-3.4 -2,-6.7 -4.6,-9.1 -2.2,-3.4 -4.9,-6.5 -7.4,-9.9 l -0.3,0 c -0.3,2 -1,3.7 -1.5,5.5 -0.2,1 -0.8,1.9 -0.9,2.9 1.5,1.5 3,2.9 3.4,5 0.1,0.9 0,1.7 -0.5,2.4 -1.1,1.6 -3,1.1 -4.6,1.2 -0.4,-0.2 -0.8,-0.3 -1,0.1 -0.6,0.9 -0.2,2.1 -0.9,2.9 -0.5,1.5 -0.7,3.1 -1.4,4.5 -0.1,0.3 0.1,0.9 -0.4,1.1 0,1.1 -1,2 -0.5,3.1 2.8,-0.3 5.1,-1.5 8,-1.2"
             style="fill:#ffffff;fill-opacity:1;fill-rule:nonzero;stroke:none"
             id="path5584"
             inkscape:connector-curvature="0" /></g><g
           id="g5586"
           transform="translate(124.873,110.8262)"><path
             d="M 0,0 -0.101,0 C 0.1,0.6 1,0.5 1.1,1.3 L 1.6,1.5 C 1.399,0.9 0.5,0.4 0,0"
             style="fill:#ffffff;fill-opacity:1;fill-rule:nonzero;stroke:none"
             id="path5588"
             inkscape:connector-curvature="0" /></g><g
           id="g5590"
           transform="translate(119.5728,109.9258)"><path
             d="m 0,0 c -1.9,0.2 -3.5,-0.4 -5.3,-0.6 -0.9,-0.7 -2.1,-1 -2.9,-1.8 -0.7,-0.3 -1.3,-0.9 -2,-1.4 -0.6,-0.8 -1.5,-0.9 -1.8,-1.9 -0.8,-0.7 -1.6,-1.7 -1.9,-2.8 -1.3,-1.7 -1.9,-3.9 -2.3,-6.1 -0.1,-1.8 -0.3,-3.8 0.6,-5.5 l 0,-0.2 -0.3,0.2 c -0.8,1 -1.7,2.2 -1.7,3.5 -0.6,2.9 0.8,5.2 1.4,7.9 0.9,1.4 1.8,2.9 2.9,4.3 1.5,1.7 3.5,2.9 5.4,4.1 2.3,0.9 5.6,2 7.9,0.4 L 0,0 Z"
             style="fill:#ffffff;fill-opacity:1;fill-rule:nonzero;stroke:none"
             id="path5592"
             inkscape:connector-curvature="0" /></g><g
           id="g5594"
           transform="translate(124.6729,110.626)"><path
             d="M 0,0 0,0 0,0.1 0,0 Z"
             style="fill:#ffffff;fill-opacity:1;fill-rule:nonzero;stroke:none"
             id="path5596"
             inkscape:connector-curvature="0" /></g><g
           id="g5598"
           transform="translate(124.373,110.4258)"><path
             d="M 0,0 C -0.301,-0.4 -0.601,-0.9 -1.101,-1 -1,-0.5 -0.5,-0.1 0,0"
             style="fill:#ffffff;fill-opacity:1;fill-rule:nonzero;stroke:none"
             id="path5600"
             inkscape:connector-curvature="0" /></g><g
           id="g5602"
           transform="translate(121.7725,108.2261)"><path
             d="m 0,0 c 1.101,-1.7 2.601,-3.4 2.2,-5.5 -1.8,0.5 -2,2.5 -3.3,3.4 -2.1,1.9 -5.4,1.2 -7.7,0.3 -3.1,-1.7 -5.6,-4.5 -6.9,-7.6 -0.7,-2.1 -0.9,-4.3 -0.2,-6.3 0.8,-1.3 1.5,-3.2 3.3,-3.3 0.9,-0.1 1.7,-0.9 2.1,-1.701 -2.1,-0.599 -4.1,0.401 -5.8,1.401 -2.7,3 -1.7,7.5 -0.5,10.8 1.1,2.2 2.6,4.3 4.5,5.9 1.6,1.3 3.4,2.5 5.4,2.9 0.7,0.6 1.9,0.3 2.7,0.8 C -2.7,1 -1.2,0.7 0,0"
             style="fill:#ffffff;fill-opacity:1;fill-rule:nonzero;stroke:none"
             id="path5604"
             inkscape:connector-curvature="0" /></g><g
           id="g5606"
           transform="translate(63.8726,106.126)"><path
             d="m 0,0 c 0,-1.9 -0.8,-3.8 -0.6,-5.7 -0.5,-0.7 -0.1,-1.4 -0.6,-2.1 0.5,-1.6 -0.5,-3 -0.4,-4.8 0,-0.2 0.1,-0.7 -0.2,-0.9 0,-1 0.1,-2 -0.3,-2.8 -0.3,-3.1 -0.8,-6.5 -1.2,-9.6 -0.2,-0.701 -0.5,-1.5 -0.3,-2.3 -0.1,-0.1 -0.3,-0.2 -0.5,-0.1 -0.3,0.6 0.2,1.4 0.1,2.1 0.4,2.7 0.8,5.599 1.2,8.3 0.5,3.5 0.8,7.1 1.3,10.6 0,1.5 0.8,2.6 0.5,4 0.2,1.1 0.3,2.3 0.5,3.3 L 0,0 Z"
             style="fill:#231f20;fill-opacity:1;fill-rule:nonzero;stroke:none"
             id="path5608"
             inkscape:connector-curvature="0" /></g><g
           id="g5610"
           transform="translate(120.4727,103.626)"><path
             d="M 0,0 C 0.8,-0.8 1.9,-1.4 2.7,-2.3 2.6,-2.6 2.2,-2.5 1.9,-2.5 0.8,-1.9 0.3,-0.7 -0.8,-0.1 -3,0.2 -4.3,-1.2 -5.9,-2 -7.2,-3.1 -8.2,-4.3 -9,-5.8 -9,-6 -8.8,-6.2 -8.6,-6 c 1.3,2.3 3.5,3.9 5.8,5.2 l 0.5,0 c 0,-0.3 -0.2,-0.5 -0.4,-0.6 -2,-2.1 -4.2,-3.3 -6.2,-5.4 -0.1,0.2 0,0.5 -0.1,0.6 -0.5,-0.6 -0.7,-1.4 -1.1,-2 0.5,-1.6 2.7,-2 2.5,-3.6 -0.1,-1 -0.6,-1.801 -0.3,-2.9 -0.6,-0.2 -0.9,0.8 -1.5,1 -1.2,1.4 -3.1,2.4 -4.1,4.1 0.1,1.5 0,2.8 0.4,4.3 0.3,0.3 0.5,0.6 0.5,1 2.2,3.2 5,7 9.4,6.5 C -2,1.8 -1.2,0.5 0,0"
             style="fill:#ffffff;fill-opacity:1;fill-rule:nonzero;stroke:none"
             id="path5612"
             inkscape:connector-curvature="0" /></g><g
           id="g5614"
           transform="translate(65.1729,104.9258)"><path
             d="m 0,0 c 0.1,-0.8 -0.7,-1.6 0.4,-1.9 0.1,-4.3 1.5,-7.9 3.3,-11.4 0.5,-1 1.3,-2 1.7,-3.2 -0.1,-1 -0.3,-2.2 -1.1,-3 -0.2,-0.4 -0.4,-1 -0.8,-1.3 -0.5,0 -0.3,-0.6 -0.7,-0.8 -1.8,-2 -3.3,-4.1 -4.8,-6.3 l -0.2,0 c -0.2,1.3 1.4,1.9 1.6,3.1 1.4,1.8 2.8,3.7 4.4,5.3 0.5,1.1 0.8,2.3 0.1,3.3 -2.2,3.3 -3.8,7 -4.2,11 -0.1,0.1 -0.2,0.2 -0.3,0.1 -0.4,-1.9 -0.7,-3.7 -0.8,-5.7 -0.2,-2.8 -0.9,-5.4 -1.1,-8.1 0.1,-1.7 -0.7,-3.1 -0.4,-4.8 -0.6,-1.3 -0.3,-2.9 -0.8,-4.3 l -0.5,0 c 0,0.9 0.5,2 0.2,2.9 0.4,2.4 0.9,5 1,7.5 0.5,2.4 0.7,4.8 1,7.3 0.2,0.7 0.2,1.3 0.3,1.9 0.3,2.5 1.1,4.9 0.9,7.5 0.4,0.4 -0.2,1.6 0.7,1.4 L 0,0 Z"
             style="fill:#231f20;fill-opacity:1;fill-rule:nonzero;stroke:none"
             id="path5616"
             inkscape:connector-curvature="0" /></g><g
           id="g5618"
           transform="translate(150.9727,100.126)"><path
             d="m 0,0 c 2.5,-1.7 5.2,-2.7 7.9,-4 5.9,-3.1 13.2,-6.101 16,-12.9 0,-0.9 -0.8,-1.201 -1,-2 -0.8,-0.701 -1.2,-1.6 -2,-2.1 -1.5,-1.5 -2.7,-3.101 -4.4,-4.3 -0.5,-1 -1.8,-1.5 -2.4,-2.4 -2.3,-1.901 -4.4,-3.6 -6.8,-5.3 -0.5,-1 -1.8,-0.9 -2.4,-1.9 -1.6,-0.9 -2.8,-2.201 -4.2,-3.201 -1.9,0.201 -3.8,0.701 -5.6,1.101 -2.4,0.6 -4.8,1.1 -7.3,1.3 -2.7,0.4 -5.4,0.8 -8.1,0.8 -0.8,-0.3 -2,-0.701 -2.8,-0.1 -4.4,1.3 -8.9,2.2 -13.6,2.8 -0.2,-0.1 -0.4,-0.1 -0.6,0.099 -0.2,0.801 0.3,1.701 0.5,2.5 0.8,0.601 1.8,0.901 2.7,1.301 3.4,1.4 6.5,3.4 9.6,5.5 0.7,0.5 0,2.1 1.4,1.8 3.6,0.899 7.1,3.6 8.5,7.1 0.4,0.2 0.2,0.7 0.6,0.9 0,0.7 0.6,1.2 0.5,2.1 0.7,1 0.2,2.2 0.1,3.4 l 0.1,0.3 c 1.1,0.4 2.8,0.1 3.2,1.5 0.8,1.3 1.5,2.6 2.1,4.1 0.6,1.7 1.3,3.4 1.7,5.2 C -6,3.7 -5.8,3.7 -5.5,3.5 -3.7,2.4 -2.1,0.6 0,0"
             style="fill:#ffffff;fill-opacity:1;fill-rule:nonzero;stroke:none"
             id="path5620"
             inkscape:connector-curvature="0" /></g><g
           id="g5622"
           transform="translate(121.5723,101.0259)"><path
             d="m 0,0 c -0.199,-1.3 -1.7,-1.8 -2.5,-2.7 -1.8,-1.6 -3.5,-3.6 -5.6,-4.9 -0.799,0.5 -2.2,1.2 -2,2.4 1.5,1 2.5,2.2 4,3.2 0.9,1.4 2.6,2.1 3.6,3.5 1,0.2 1.601,-1 2.5,-1.5"
             style="fill:#ffffff;fill-opacity:1;fill-rule:nonzero;stroke:none"
             id="path5624"
             inkscape:connector-curvature="0" /></g><g
           id="g5626"
           transform="translate(126.1729,98.8262)"><path
             d="m 0,0 c 1.1,-1.7 1.2,-4 0.3,-5.8 -0.7,-1.9 -2.6,-2.6 -4,-4.1 l -0.1,0 c 0.1,0.5 0.699,0.7 0.9,1.2 0.5,0.599 0.6,1.6 1.2,2.1 0.5,1.5 1.3,3.4 0,4.7 -0.5,0.9 -1.5,1.2 -2.5,1.2 -1,-0.2 -1.9,-0.3 -2.7,-0.8 -0.2,0.6 0.8,0.7 1.1,1.2 1.1,1 2.199,2.7 4,1.8 L 0,0 Z"
             style="fill:#ffffff;fill-opacity:1;fill-rule:nonzero;stroke:none"
             id="path5628"
             inkscape:connector-curvature="0" /></g><g
           id="g5630"
           transform="translate(39.0728,98.626)"><path
             d="m 0,0 c 0.6,-1.4 -0.1,-2.8 -0.8,-3.8 -0.5,-0.3 -0.9,-1.1 -1.5,-0.9 -0.5,1.8 -1.5,3.6 -1.7,5.5 0.8,0.4 1.9,0.4 2.8,0.3 C -0.8,0.8 -0.3,0.4 0,0"
             style="fill:#ffffff;fill-opacity:1;fill-rule:nonzero;stroke:none"
             id="path5632"
             inkscape:connector-curvature="0" /></g><g
           id="g5634"
           transform="translate(123.7725,95.5259)"><path
             d="m 0,0 c 0.8,-1.3 0.3,-3.1 -0.5,-4.2 -1.1,-1.5 -2.7,-2.8 -4.8,-2.4 -0.7,-0.2 -1.2,0.4 -1.5,0.9 -0.1,0.9 0.1,2 0.2,2.9 0.8,1.7 2.2,3.4 4.201,3.8 1,0.2 2,0 2.399,-1"
             style="fill:#ffffff;fill-opacity:1;fill-rule:nonzero;stroke:none"
             id="path5636"
             inkscape:connector-curvature="0" /></g><g
           id="g5638"
           transform="translate(55.6729,93.3262)"><path
             d="m 0,0 c 0.4,-0.4 1,-0.5 1.1,-1.1 0.1,-1 -0.8,-1.501 -1.3,-2.1 -2.4,-0.901 -4.5,0.899 -7,0.399 -0.6,0.101 -1.3,0.101 -1.7,0.5 C -8,-0.9 -6.7,0.5 -5.6,1.8 -3.8,1.1 -1.8,0.7 0,0"
             style="fill:#ffffff;fill-opacity:1;fill-rule:nonzero;stroke:none"
             id="path5640"
             inkscape:connector-curvature="0" /></g><g
           id="g5642"
           transform="translate(116.5728,94.9258)"><path
             d="m 0,0 c -0.5,-0.9 -0.8,-1.8 -1.1,-2.8 -0.3,-1.7 0,-3.4 1.5,-4.3 C 1.5,-8 3,-7.4 4.1,-6.9 4.5,-6.6 5,-6.3 5.5,-6.2 5.1,-7 3.8,-7.5 3.2,-8.4 2.5,-9.4 1.4,-9.5 0.3,-9.5 -1.3,-9.3 -2.4,-8 -3.3,-6.8 -3,-5 -4,-2.2 -1.6,-1.3 -1.2,-0.8 -0.4,-0.4 0,0"
             style="fill:#ffffff;fill-opacity:1;fill-rule:nonzero;stroke:none"
             id="path5644"
             inkscape:connector-curvature="0" /></g><g
           id="g5646"
           transform="translate(30.7725,92.5259)"><path
             d="m 0,0 c -1.6,-0.8 -4,-0.7 -5.6,-1.8 -3.7,-1.9 -6.4,-5.2 -8,-8.7 -0.4,-1.4 -0.8,-2.6 -1,-4.1 l -0.3,-0.5 c -0.4,0.4 0.4,0.9 0,1.3 0.1,1.4 0.4,2.7 1.1,3.9 0.3,1.6 1.5,2.7 2.2,4.1 2.5,2.9 5.7,5 9.3,5.9 L 0,0 Z"
             style="fill:#ffffff;fill-opacity:1;fill-rule:nonzero;stroke:none"
             id="path5648"
             inkscape:connector-curvature="0" /></g><g
           id="g5650"
           transform="translate(31.7725,92.3262)"><path
             d="M 0,0 0.2,0 0,0 Z"
             style="fill:#ffffff;fill-opacity:1;fill-rule:nonzero;stroke:none"
             id="path5652"
             inkscape:connector-curvature="0" /></g><g
           id="g5654"
           transform="translate(136.0723,91.9258)"><path
             d="m 0,0 c 0.4,-2.7 -0.899,-5.2 -2.3,-7.3 -1.7,-2 -3.8,-3.9 -6.599,-4.1 -0.101,0.8 0.2,1.6 0.5,2.4 0.7,1.3 2.099,1.7 3,2.7 0.7,1.1 1.5,1.9 1.799,3.2 0.5,0.6 0.3,1.7 1.3,2 0.601,0.5 1.401,1 2.101,1.3 L 0,0 Z"
             style="fill:#ffffff;fill-opacity:1;fill-rule:nonzero;stroke:none"
             id="path5656"
             inkscape:connector-curvature="0" /></g><g
           id="g5658"
           transform="translate(35.8726,89.4258)"><path
             d="m 0,0 c 2.7,-3 2.3,-7.7 0.6,-11.1 -1.3,-2.2 -2.9,-4.5 -5.1,-5.9 -2.3,-2.1 -5.3,-2.9 -8.6,-2.9 -0.4,0.4 -0.9,0.4 -1.5,0.5 -1.7,0.6 -2.6,2.3 -4,3.3 0,0.9 -0.4,1.6 -0.6,2.4 0,4.2 1.7,7.8 4.4,10.9 1.2,1.3 2.5,2.2 3.9,3.2 2.5,1.5 6,2.3 8.9,1.4 L 0,0 Z"
             style="fill:#ffffff;fill-opacity:1;fill-rule:nonzero;stroke:none"
             id="path5660"
             inkscape:connector-curvature="0" /></g><g
           id="g5662"
           transform="translate(103.3726,87.4258)"><path
             d="m 0,0 0,-0.4 c -2.5,-1.9 -4.6,-4.4 -7.1,-6.4 -0.6,-0.5 -1.5,-0.5 -2.2,-0.8 -1.1,0.8 -0.1,2.1 -0.2,3.2 1.3,2.2 3.2,3.8 5,5.6 0.8,0.5 1.2,1.6 2.2,1.8 C -1.7,2 -0.8,0.9 0,0"
             style="fill:#ffffff;fill-opacity:1;fill-rule:nonzero;stroke:none"
             id="path5664"
             inkscape:connector-curvature="0" /></g><g
           id="g5666"
           transform="translate(50.3726,89.0254)"><path
             d="m 0,0 c 0.2,-0.1 0.2,-0.399 0.1,-0.6 -1.2,-0.7 -2.6,-0.4 -3.8,0 -0.2,0.1 -0.2,0.5 -0.1,0.701 C -2.6,0.4 -1.2,0.2 0,0"
             style="fill:#ffffff;fill-opacity:1;fill-rule:nonzero;stroke:none"
             id="path5668"
             inkscape:connector-curvature="0" /></g><g
           id="g5670"
           transform="translate(47.0728,87.7256)"><path
             d="m 0,0 0.2,-0.2 c -1.2,-0.6 -2.6,-0.9 -3.9,-1 -0.2,0.4 0.6,0.5 0.7,1 0.4,0.7 0.8,1.7 1.7,1.7 C -1.1,0.8 -1.1,-0.399 0,0"
             style="fill:#ffffff;fill-opacity:1;fill-rule:nonzero;stroke:none"
             id="path5672"
             inkscape:connector-curvature="0" /></g><g
           id="g5674"
           transform="translate(52.1729,86.3262)"><path
             d="m 0,0 c -1.2,-1.5 -2.8,-2.4 -3.6,-4.2 -1.8,-2.2 -2.2,-5.2 -1.5,-8.101 0.5,-1.899 2.2,-3.5 4.1,-4 0.5,-0.599 0.8,-0.899 1.3,-1.399 -0.6,-0.5 -1.5,-0.901 -2.3,-1.2 -3.6,-1.5 -8.7,-3.701 -12.4,-0.701 -1.2,0.601 -1.9,2.101 -3.3,2.401 -0.5,0.899 -1.3,1.3 -1.9,2 0.3,0.7 1,0.8 1.4,1.399 1.1,1.2 2.2,2.301 2.9,3.801 1.7,2.3 2.1,5.199 4.3,7.399 l 0.4,0.5 c 3.3,0.8 6.5,2.201 9.9,2.901 0.8,0.2 0,2.599 1,1.2 L 0,0 Z"
             style="fill:#ffffff;fill-opacity:1;fill-rule:nonzero;stroke:none"
             id="path5676"
             inkscape:connector-curvature="0" /></g><g
           id="g5678"
           transform="translate(131.6729,88.7256)"><path
             d="m 0,0 c -0.101,-1.3 -1.4,-2.2 -2.2,-3 -0.2,-0.1 -0.1,0.101 -0.2,0.2 0.6,1 1.299,2.2 2.4,2.8"
             style="fill:#ffffff;fill-opacity:1;fill-rule:nonzero;stroke:none"
             id="path5680"
             inkscape:connector-curvature="0" /></g><g
           id="g5682"
           transform="translate(53.5728,88.2256)"><path
             d="M 0,0 C -0.1,-0.3 -0.1,-0.7 -0.5,-0.899 -0.8,-0.6 -0.4,-0.2 -0.3,0.2 -0.2,0.2 -0.1,0.101 0,0"
             style="fill:#ffffff;fill-opacity:1;fill-rule:nonzero;stroke:none"
             id="path5684"
             inkscape:connector-curvature="0" /></g><g
           id="g5686"
           transform="translate(104.8726,86.5254)"><path
             d="M 0,0 0,-0.199 C -1,-1.699 -2.6,-2.3 -3.7,-3.8 -5,-4.899 -5.9,-6 -7.4,-6.899 c -0.7,-0.3 -1.6,-1 -2.5,-0.5 -0.2,0.799 0.8,0.299 1,0.7 1.3,0.3 2,1.599 3.1,2.3 1.6,1.599 3.1,3.299 4.8,4.7 0.4,0 0.8,0 1,-0.301"
             style="fill:#ffffff;fill-opacity:1;fill-rule:nonzero;stroke:none"
             id="path5688"
             inkscape:connector-curvature="0" /></g><g
           id="g5690"
           transform="translate(52.8726,85.5254)"><path
             d="m 0,0 c -1.1,-2 -2.8,-3.899 -3.3,-6.199 -0.6,-1.7 -0.8,-3.601 -0.5,-5.401 0.3,-0.9 0.8,-1.9 1.2,-2.799 C -3.9,-14 -4.8,-12.6 -5.2,-11.3 -6,-7.199 -4.4,-3 -1,-0.6 -0.5,-0.399 -0.3,0.2 -0.1,0.601 0.2,0.5 -0.1,0.2 0,0"
             style="fill:#ffffff;fill-opacity:1;fill-rule:nonzero;stroke:none"
             id="path5692"
             inkscape:connector-curvature="0" /></g><g
           id="g5694"
           transform="translate(91.9727,73.0254)"><path
             d="M 0,0 C -0.3,-1.6 0.1,-3 0.4,-4.6 0.9,-5.699 1.3,-6.8 2,-7.699 1.5,-8.399 0.4,-8 -0.4,-8.3 c -2.3,-0.399 -2.8,-2.7 -3.8,-4.3 -2,-3.5 -4.7,-7.299 -8.7,-8.599 -2.2,-0.301 -4.9,-0.2 -6.2,1.8 -2.3,2.899 -1.1,7.2 0.6,10.099 1.2,1.8 3,2.8 4.2,4.7 1.1,0.5 1.5,1.701 2.2,2.5 0.9,1.201 1.4,2.401 1.9,3.8 0.8,2 1.4,4 1.3,6.3 l 0.2,0.101 C -6.1,5.101 -3.2,2.2 0,0"
             style="fill:#ffffff;fill-opacity:1;fill-rule:nonzero;stroke:none"
             id="path5696"
             inkscape:connector-curvature="0" /></g><g
           id="g5698"
           transform="translate(15.1729,78.3262)"><path
             d="m 0,0 c 0,-0.7 0.3,-1.601 -0.2,-2.2 -0.6,0.099 -1.3,0 -1.6,0.5 0.1,0.899 1,1.2 1.5,1.899 C -0.2,0.1 -0.1,0.1 0,0"
             style="fill:#ffffff;fill-opacity:1;fill-rule:nonzero;stroke:none"
             id="path5700"
             inkscape:connector-curvature="0" /></g><path
           d="m 16.073,76.426 0.1,0 0,0.1 -0.1,0 0,-0.1 z"
           style="fill:#ffffff;fill-opacity:1;fill-rule:nonzero;stroke:none"
           id="path5702"
           inkscape:connector-curvature="0" /><g
           id="g5704"
           transform="translate(14.2725,72.126)"><path
             d="m 0,0 c -0.6,0 -1.5,-0.3 -1.8,0.3 0.3,0.7 1.2,0.099 1.7,0 C 0,0.3 -0.1,0.1 0,0"
             style="fill:#ffffff;fill-opacity:1;fill-rule:nonzero;stroke:none"
             id="path5706"
             inkscape:connector-curvature="0" /></g><g
           id="g5708"
           transform="translate(95.2725,71.0254)"><path
             d="m 0,0 c 1.1,-0.3 2.1,-1.1 3.4,-1.199 0.5,-0.7 -0.2,-1.5 -0.1,-2.2 0.1,-2 -2.4,-1.201 -3.5,-2.201 -1.4,0.3 -1.6,2 -1.9,3.201 -0.6,0.7 -0.2,1.899 -0.6,2.7 C -2.7,0.7 -2.8,1.2 -2.6,1.5 -1.6,1.4 -1,0.301 0,0"
             style="fill:#ffffff;fill-opacity:1;fill-rule:nonzero;stroke:none"
             id="path5710"
             inkscape:connector-curvature="0" /></g><g
           id="g5712"
           transform="translate(17.6729,70.7256)"><path
             d="M 0,0 C -0.8,-1 -2.7,-0.8 -3.9,-0.399 -3.7,0.5 -2.5,0 -1.8,0.4 -1.3,0.9 -0.3,0.9 0,0"
             style="fill:#ffffff;fill-opacity:1;fill-rule:nonzero;stroke:none"
             id="path5714"
             inkscape:connector-curvature="0" /></g><g
           id="g5716"
           transform="translate(31.2725,70.126)"><path
             d="m 0,0 c 1.6,-1.7 4.1,-2.9 4.4,-5.3 0.1,-2.4 -1.1,-4.5 -2.7,-6.2 -1.2,-0.9 -2.5,-1.7 -4,-2 -0.9,0.1 -1.9,0.3 -2.6,0.8 -1.5,1.4 -1.5,3.4 -2.4,5.099 -0.6,1 -0.9,2.201 -1.5,3.301 0,0.9 -0.9,1.5 -0.9,2.5 0.9,0.199 1.8,-0.4 2.9,-0.301 2.2,0.401 4.6,0.701 6.3,2.201 L 0,0 Z"
             style="fill:#ffffff;fill-opacity:1;fill-rule:nonzero;stroke:none"
             id="path5718"
             inkscape:connector-curvature="0" /></g><g
           id="g5720"
           transform="translate(112.3726,70.0254)"><path
             d="m 0,0 c -0.2,-0.699 0.1,-1.699 -0.7,-2 -0.8,-0.199 -1.7,0.301 -2.4,-0.199 -3.3,-0.101 -6.7,-0.5 -9.9,-1 -0.2,0.8 0.1,1.8 0.4,2.5 0.4,0.3 0.7,-0.101 1.2,-0.101 2.8,-0.2 5.9,-0.3 8.6,0.3 1,0.101 1.8,0.7 2.8,0.5"
             style="fill:#ffffff;fill-opacity:1;fill-rule:nonzero;stroke:none"
             id="path5722"
             inkscape:connector-curvature="0" /></g><g
           id="g5724"
           transform="translate(84.7725,64.9258)"><path
             d="m 0,0 c 1.6,-1.7 1.1,-4.4 0.3,-6.2 -1.4,-2.7 -3.8,-4.7 -6.8,-5.1 -1.3,-0.3 -2.3,0.5 -3.2,1.3 -0.9,1.6 -1.3,4.1 -0.4,5.9 0.7,1.6 1.8,3 3.4,4 l 2.2,1 C -2.9,1.2 -1.2,1 0,0"
             style="fill:#231f20;fill-opacity:1;fill-rule:nonzero;stroke:none"
             id="path5726"
             inkscape:connector-curvature="0" /></g><g
           id="g5728"
           transform="translate(83.9727,63.5254)"><path
             d="M 0,0 C 1,-1.3 1,-3.5 0.2,-4.899 -0.2,-5.3 -0.1,-6 -0.7,-6.1 c -0.4,-0.7 -1,-0.9 -1.6,-1.4 -0.9,-1 -2.2,-1.1 -3.5,-1.1 -0.9,0.3 -1.9,0.6 -2.4,1.6 -0.3,1.9 0.1,3.9 1.2,5.4 1.5,2 4.8,3.901 7,1.6"
             style="fill:#ffffff;fill-opacity:1;fill-rule:nonzero;stroke:none"
             id="path5730"
             inkscape:connector-curvature="0" /></g><g
           id="g5732"
           transform="translate(22.7725,61.3262)"><path
             d="M 0,0 C 0,-1 -1,-1.7 -1.2,-2.7 -2,-7.101 3.7,-7.9 5.3,-11.2 5,-11.7 4.6,-12.301 4.1,-12.601 c -1.3,0.3 -2.2,1.5 -3.3,2.101 -1.4,1.5 -3.3,2.5 -4,4.5 -0.6,2.6 0.8,5.1 2.5,6.899 C -0.2,0.899 -0.2,0.3 0,0"
             style="fill:#ffffff;fill-opacity:1;fill-rule:nonzero;stroke:none"
             id="path5734"
             inkscape:connector-curvature="0" /></g><g
           id="g5736"
           transform="translate(91.3726,60.8262)"><path
             d="m 0,0 c 3.8,-3.101 4.3,-7.801 5.2,-12.301 l -0.4,0 c -2.3,2 -3.7,4.401 -5.3,6.801 -0.7,1.5 -1.3,4.1 0,5.5 L 0,0 Z"
             style="fill:#ffffff;fill-opacity:1;fill-rule:nonzero;stroke:none"
             id="path5738"
             inkscape:connector-curvature="0" /></g><g
           id="g5740"
           transform="translate(23.6729,59.0254)"><path
             d="m 0,0 c 0.3,-1.199 -1,-1.899 -0.4,-3.1 0,-0.5 0.7,-0.799 0.6,-1.2 -1,0.7 -2,1.7 -1.8,3 0,0.901 0.2,1.7 0.9,2.2 C -0.1,1 -0.3,0.301 0,0"
             style="fill:#ffffff;fill-opacity:1;fill-rule:nonzero;stroke:none"
             id="path5742"
             inkscape:connector-curvature="0" /></g><g
           id="g5744"
           transform="translate(80.6729,45.2256)"><path
             d="m 0,0 c 1.2,-1.7 2.8,-2.7 4.2,-4.1 2.4,-2.2 4.8,-4.299 7.1,-6.5 2,-1.299 4.6,-0.299 6.6,0.4 0.4,0.5 0.9,0.7 1.5,0.7 0.4,-0.3 0.7,-0.8 0.3,-1.2 -2.2,-1 -4.5,-2.4 -7.3,-1.699 -0.8,0.199 -1.4,0.699 -2.2,0.899 -3.2,3.2 -7,6.3 -10.3,9.4 -0.1,0.5 -0.6,0.6 -0.9,0.8 -2.2,1.901 -4.5,4.3 -7.8,3.6 -2.3,-0.3 -1.4,-3.1 -3.1,-3.9 -3.4,-0.4 -6.5,0.8 -9.8,0.4 -4.3,0.5 -8.4,-0.4 -12.3,-1.5 -2.2,-1.1 -3.2,-3.4 -5.3,-4.8 -2.6,-2 -5.7,-3.5 -8.8,-4.5 -0.5,0.101 -1.3,-0.3 -1.4,0.3 l 0.1,0.801 c 5.4,1.099 9.9,4.599 13.5,8.699 5.3,2.7 11.7,2.5 17.9,2.301 2,0.099 4.2,-1 5.9,0 0.1,1.199 0.6,2.299 1.8,3 C -6.4,5 -2.9,2.2 0,0"
             style="fill:#231f20;fill-opacity:1;fill-rule:nonzero;stroke:none"
             id="path5746"
             inkscape:connector-curvature="0" /></g><g
           id="g5748"
           transform="translate(23.3726,25.7266)"><path
             d="M 0,0 C 0.4,-2.9 -1.9,-5 -4.1,-6.101 -5,-6.4 -6.5,-7 -7.4,-6.101 c -0.7,0.701 -1.1,1.5 -0.8,2.4 0.8,2.6 3.3,4.9 6,5.4 1.3,0.3 1.5,-1 2.2,-1.699"
             style="fill:#ffffff;fill-opacity:1;fill-rule:nonzero;stroke:none"
             id="path5750"
             inkscape:connector-curvature="0" /></g></g></g><text
       transform="matrix(1,0,0,-1,4.9117,5.7754)"
       style="font-variant:normal;font-weight:normal;font-stretch:normal;font-size:5px;font-family:Arial;-inkscape-font-specification:ArialMT;writing-mode:lr-tb;fill:#231f20;fill-opacity:1;fill-rule:nonzero;stroke:none"
       id="text5752"><tspan
         x="0 2.5 5 7.5"
         y="0"
         sodipodi:role="line"
         id="tspan5754">ccyp</tspan></text>
</g></svg>