<?xml version="1.0" encoding="UTF-8" standalone="no"?>
<!-- Created with Inkscape (http://www.inkscape.org/) -->

<svg
   xmlns:dc="http://purl.org/dc/elements/1.1/"
   xmlns:cc="http://creativecommons.org/ns#"
   xmlns:rdf="http://www.w3.org/1999/02/22-rdf-syntax-ns#"
   xmlns:svg="http://www.w3.org/2000/svg"
   xmlns="http://www.w3.org/2000/svg"
   xmlns:sodipodi="http://sodipodi.sourceforge.net/DTD/sodipodi-0.dtd"
   xmlns:inkscape="http://www.inkscape.org/namespaces/inkscape"
   id="svg10342"
   version="1.1"
   inkscape:version="0.91 r13725"
   xml:space="preserve"
   width="301.18124"
   height="230.315"
   viewBox="0 0 301.18124 230.315"
   sodipodi:docname="cgrx_1.svg"><metadata
     id="metadata10348"><rdf:RDF><cc:Work
         rdf:about=""><dc:format>image/svg+xml</dc:format><dc:type
           rdf:resource="http://purl.org/dc/dcmitype/StillImage" /><dc:title></dc:title></cc:Work></rdf:RDF></metadata><defs
     id="defs10346"><clipPath
       clipPathUnits="userSpaceOnUse"
       id="clipPath10356"><path
         d="m 0.311,0 240.634,0 0,184.171 -240.634,0 L 0.311,0 Z"
         id="path10358"
         inkscape:connector-curvature="0" /></clipPath><clipPath
       clipPathUnits="userSpaceOnUse"
       id="clipPath10504"><path
         d="m 0,184.252 240.945,0 L 240.945,0 0,0 0,184.252 Z"
         id="path10506"
         inkscape:connector-curvature="0" /></clipPath></defs><sodipodi:namedview
     pagecolor="#ffffff"
     bordercolor="#666666"
     borderopacity="1"
     objecttolerance="10"
     gridtolerance="10"
     guidetolerance="10"
     inkscape:pageopacity="0"
     inkscape:pageshadow="2"
     inkscape:window-width="640"
     inkscape:window-height="480"
     id="namedview10344"
     showgrid="false"
     inkscape:zoom="0.99607796"
     inkscape:cx="150.59062"
     inkscape:cy="115.1575"
     inkscape:window-x="0"
     inkscape:window-y="0"
     inkscape:window-maximized="0"
     inkscape:current-layer="g10350" /><g
     id="g10350"
     inkscape:groupmode="layer"
     inkscape:label="cgrx_1"
     transform="matrix(1.25,0,0,-1.25,0,230.315)"><g
       id="g10352"><g
         id="g10354"
         clip-path="url(#clipPath10356)"><g
           id="g10360"
           transform="translate(245.1484,142.4868)"><path
             d="m 0,0 c 0,0 -38.348,-0.872 -64.713,-1.743 -26.01,-0.86 -57.958,-0.76 -66.761,-0.445 -82.341,2.953 -119.674,7.287 -119.674,7.287"
             style="fill:none;stroke:#231f20;stroke-width:1.5;stroke-linecap:round;stroke-linejoin:round;stroke-miterlimit:4;stroke-dasharray:none;stroke-opacity:1"
             id="path10362"
             inkscape:connector-curvature="0" /></g><g
           id="g10364"
           transform="translate(44.4829,50.3584)"><path
             d="M 0,0 C 0,0 109.441,-18.105 215.773,-20.938"
             style="fill:none;stroke:#231f20;stroke-width:1.5;stroke-linecap:round;stroke-linejoin:round;stroke-miterlimit:4;stroke-dasharray:none;stroke-opacity:1"
             id="path10366"
             inkscape:connector-curvature="0" /></g><g
           id="g10368"
           transform="translate(152.3809,59.1699)"><path
             d="M 0,0 C 0,0 0.125,0.625 0.375,1.625 0.625,2.625 1,4.75 1,6.25 c 0,1.5 -1.125,10.25 -1.375,11.375 -0.25,1.125 -0.5,1 -1.375,1.125 -0.875,0.125 -0.75,4.75 -1.125,9.375 -0.375,4.625 -0.5,12.25 -0.5,13.25 0,1 1.625,2.375 1.625,3.5 0,1.125 0.25,11.875 0.25,13.375 0,1.5 -0.75,2.25 -0.75,2.25"
             style="fill:none;stroke:#231f20;stroke-width:1.5;stroke-linecap:round;stroke-linejoin:round;stroke-miterlimit:4;stroke-dasharray:none;stroke-opacity:1"
             id="path10370"
             inkscape:connector-curvature="0" /></g><g
           id="g10372"
           transform="translate(163.7559,59.2949)"><path
             d="M 0,0 C 0,0 0.875,4.375 0.625,6.75"
             style="fill:none;stroke:#231f20;stroke-width:1.5;stroke-linecap:round;stroke-linejoin:round;stroke-miterlimit:4;stroke-dasharray:none;stroke-opacity:1"
             id="path10374"
             inkscape:connector-curvature="0" /></g><g
           id="g10376"
           transform="translate(164.7559,65.6699)"><path
             d="m 0,0 c 0,0 1.25,0.125 2.25,0 1,-0.125 1.625,-0.5 1.875,-1.25 0.25,-0.75 1.5,-3 2.375,-3 l 2,0"
             style="fill:none;stroke:#231f20;stroke-width:1.5;stroke-linecap:round;stroke-linejoin:round;stroke-miterlimit:4;stroke-dasharray:none;stroke-opacity:1"
             id="path10378"
             inkscape:connector-curvature="0" /></g><g
           id="g10380"
           transform="translate(159.8809,120.5449)"><path
             d="m 0,0 c 0,0 1.375,-0.625 1.5,-1.75 0.125,-1.125 0.75,-3.875 0.75,-3.875 0,0 2.375,-0.5 3.625,0.875 C 7.125,-3.375 7,-2.5 8,-2.5 l 3,0"
             style="fill:none;stroke:#231f20;stroke-width:1.5;stroke-linecap:round;stroke-linejoin:round;stroke-miterlimit:4;stroke-dasharray:none;stroke-opacity:1"
             id="path10382"
             inkscape:connector-curvature="0" /></g><g
           id="g10384"
           transform="translate(171.5059,107.9199)"><path
             d="m 0,0 -3.375,0.125 c 0,0 -1,-2.375 -2.875,-2.875 -1.875,-0.5 -3,-0.5 -3,-0.5 0,0 0.125,-2.125 -2,-3.75 l 0.625,-20.625"
             style="fill:none;stroke:#231f20;stroke-width:1.5;stroke-linecap:round;stroke-linejoin:round;stroke-miterlimit:4;stroke-dasharray:none;stroke-opacity:1"
             id="path10386"
             inkscape:connector-curvature="0" /></g><g
           id="g10388"
           transform="translate(151.8809,79.0449)"><path
             d="m 0,0 c 0,0 7.125,0.75 8.5,0.75 1.375,0 1.625,-0.625 2,-1.375 0.375,-0.75 0.875,-2.75 0.875,-2.75 0,0 4.125,0.875 5.25,-2.125 1.125,-3 2.25,-2.875 2.25,-2.875 L 21.5,-8 l 0.75,-9.5"
             style="fill:none;stroke:#231f20;stroke-width:1.5;stroke-linecap:round;stroke-linejoin:round;stroke-miterlimit:4;stroke-dasharray:none;stroke-opacity:1"
             id="path10390"
             inkscape:connector-curvature="0" /></g><g
           id="g10392"
           transform="translate(150.1309,100.6699)"><path
             d="M 0,0 9.375,0.125"
             style="fill:none;stroke:#231f20;stroke-width:0.5;stroke-linecap:round;stroke-linejoin:round;stroke-miterlimit:4;stroke-dasharray:none;stroke-opacity:1"
             id="path10394"
             inkscape:connector-curvature="0" /></g><g
           id="g10396"
           transform="translate(168.3809,116.7949)"><path
             d="M 0,0 -0.25,-8.375"
             style="fill:none;stroke:#231f20;stroke-width:0.5;stroke-linecap:round;stroke-linejoin:round;stroke-miterlimit:4;stroke-dasharray:none;stroke-opacity:1"
             id="path10398"
             inkscape:connector-curvature="0" /></g><g
           id="g10400"
           transform="translate(150.5059,120.0449)"><path
             d="m 0,0 c 0,0 2.25,0.5 3.75,0.375 1.5,-0.125 4,0 4,0 0,0 1.625,0.5 1.875,1.25 C 9.875,2.375 9.25,3.25 8.375,3.25 7.5,3.25 4.625,3.375 4,3.375 3.375,3.375 0.375,3.125 -0.5,3 -1.375,2.875 -2.375,0.75 -0.875,-0.375"
             style="fill:none;stroke:#231f20;stroke-width:0.5;stroke-linecap:round;stroke-linejoin:round;stroke-miterlimit:4;stroke-dasharray:none;stroke-opacity:1"
             id="path10402"
             inkscape:connector-curvature="0" /></g><g
           id="g10404"
           transform="translate(167.3809,118.1699)"><path
             d="m 0,0 c 0,0 -0.75,1.5 0.375,1.75 1.125,0.25 2.5,0.125 3.5,0.125 1,0 1.875,-0.5 2.375,-1.375 0.5,-0.875 1.5,-2.25 1.375,-3.75 C 7.5,-4.75 7.125,-5 7.625,-7 8.125,-9 6,-12.5 4.25,-11"
             style="fill:none;stroke:#231f20;stroke-width:0.5;stroke-linecap:round;stroke-linejoin:round;stroke-miterlimit:4;stroke-dasharray:none;stroke-opacity:1"
             id="path10406"
             inkscape:connector-curvature="0" /></g><g
           id="g10408"
           transform="translate(171.2559,118.0449)"><path
             d="m 0,0 c 0,0 0.125,-1.125 0.25,-1.875 0.125,-0.75 0.125,-3 0.375,-3.5 0.25,-0.5 0,-4.25 0,-4.25"
             style="fill:none;stroke:#231f20;stroke-width:0.5;stroke-linecap:round;stroke-linejoin:round;stroke-miterlimit:4;stroke-dasharray:none;stroke-opacity:1"
             id="path10410"
             inkscape:connector-curvature="0" /></g><g
           id="g10412"
           transform="translate(160.7559,96.2949)"><path
             d="M 0,0 C 0,0 2.25,-1 2.125,-2.5 2,-4 2.625,-6.75 2.875,-8.125 c 0.25,-1.375 0.5,-4.5 0.25,-5.125 -0.25,-0.625 -2.375,-1.5 -2.75,-1.375"
             style="fill:none;stroke:#231f20;stroke-width:0.5;stroke-linecap:round;stroke-linejoin:round;stroke-miterlimit:4;stroke-dasharray:none;stroke-opacity:1"
             id="path10414"
             inkscape:connector-curvature="0" /></g><g
           id="g10416"
           transform="translate(149.0059,95.7949)"><path
             d="M 0,0 C 0,0 -2.125,1.75 -1.625,-2.125 -1.125,-6 -1.25,-9 -1.375,-10 -1.5,-11 0.75,-14 0.75,-14"
             style="fill:none;stroke:#231f20;stroke-width:0.5;stroke-linecap:round;stroke-linejoin:round;stroke-miterlimit:4;stroke-dasharray:none;stroke-opacity:1"
             id="path10418"
             inkscape:connector-curvature="0" /></g><g
           id="g10420"
           transform="translate(152.2559,58.5449)"><path
             d="m 0,0 c 0,0 0.5,-1.75 1.375,-2 0.875,-0.25 3.75,0.5 4.875,0 1.125,-0.5 4.25,0.5 4.875,0.5 0.625,0 1.375,1.25 0.875,1.75"
             style="fill:none;stroke:#231f20;stroke-width:0.5;stroke-linecap:round;stroke-linejoin:round;stroke-miterlimit:4;stroke-dasharray:none;stroke-opacity:1"
             id="path10422"
             inkscape:connector-curvature="0" /></g><g
           id="g10424"
           transform="translate(152.5059,59.5449)"><path
             d="m 0,0 c 0,0 1.125,0.25 2.125,0.125 1,-0.125 5.125,-0.5 6,-0.375 0.875,0.125 2.125,0.125 2.125,0.125"
             style="fill:none;stroke:#231f20;stroke-width:0.5;stroke-linecap:round;stroke-linejoin:round;stroke-miterlimit:4;stroke-dasharray:none;stroke-opacity:1"
             id="path10426"
             inkscape:connector-curvature="0" /></g><g
           id="g10428"
           transform="translate(171.8809,61.0449)"><path
             d="M 0,0 C 0,0 1.25,-1.5 2.125,-1.375 3,-1.25 4.25,-1 4.625,0.5 5,2 4.625,5.375 4.5,6.5 4.375,7.625 3.75,10 1.625,9.5"
             style="fill:none;stroke:#231f20;stroke-width:0.5;stroke-linecap:round;stroke-linejoin:round;stroke-miterlimit:4;stroke-dasharray:none;stroke-opacity:1"
             id="path10430"
             inkscape:connector-curvature="0" /></g><g
           id="g10432"
           transform="translate(151.5898,117.9199)"><path
             d="M 0,0 9.666,0.5"
             style="fill:none;stroke:#231f20;stroke-width:0.5;stroke-linecap:round;stroke-linejoin:round;stroke-miterlimit:4;stroke-dasharray:none;stroke-opacity:1"
             id="path10434"
             inkscape:connector-curvature="0" /></g><g
           id="g10436"
           transform="translate(151.5898,116.2534)"><path
             d="M 0,0 9.666,0.5"
             style="fill:none;stroke:#231f20;stroke-width:0.5;stroke-linecap:round;stroke-linejoin:round;stroke-miterlimit:4;stroke-dasharray:none;stroke-opacity:1"
             id="path10438"
             inkscape:connector-curvature="0" /></g><g
           id="g10440"
           transform="translate(158.0898,109.7534)"><path
             d="m 0,0 c 0,-0.92 -0.82,-1.667 -1.834,-1.667 -1.012,0 -1.834,0.747 -1.834,1.667 0,0.92 0.822,1.667 1.834,1.667 C -0.82,1.667 0,0.92 0,0 Z"
             style="fill:none;stroke:#231f20;stroke-width:1.5;stroke-linecap:round;stroke-linejoin:round;stroke-miterlimit:4;stroke-dasharray:none;stroke-opacity:1"
             id="path10442"
             inkscape:connector-curvature="0" /></g><g
           id="g10444"
           transform="translate(157.2559,87.5869)"><path
             d="m 0,0 c 0,-1.104 -0.895,-2 -2,-2 -1.104,0 -2,0.896 -2,2 0,1.104 0.896,2 2,2 1.105,0 2,-0.896 2,-2 z"
             style="fill:none;stroke:#231f20;stroke-width:1.5;stroke-linecap:round;stroke-linejoin:round;stroke-miterlimit:4;stroke-dasharray:none;stroke-opacity:1"
             id="path10446"
             inkscape:connector-curvature="0" /></g><g
           id="g10448"
           transform="translate(160.2148,70.7529)"><path
             d="m 0,0 c 0,-0.553 -0.85,-1 -1.896,-1 -1.045,0 -1.895,0.447 -1.895,1 0,0.553 0.85,1 1.895,1 C -0.85,1 0,0.553 0,0 Z"
             style="fill:none;stroke:#231f20;stroke-width:1.5;stroke-linecap:round;stroke-linejoin:round;stroke-miterlimit:4;stroke-dasharray:none;stroke-opacity:1"
             id="path10450"
             inkscape:connector-curvature="0" /></g><g
           id="g10452"
           transform="translate(170.2852,70.4316)"><path
             d="M 0,0 1.201,-7.781"
             style="fill:none;stroke:#231f20;stroke-width:0.5;stroke-linecap:round;stroke-linejoin:round;stroke-miterlimit:4;stroke-dasharray:none;stroke-opacity:1"
             id="path10454"
             inkscape:connector-curvature="0" /></g><g
           id="g10456"
           transform="translate(153.6934,64.9395)"><path
             d="M 0,0 10.471,0.114"
             style="fill:none;stroke:#231f20;stroke-width:0.5;stroke-linecap:round;stroke-linejoin:round;stroke-miterlimit:4;stroke-dasharray:none;stroke-opacity:1"
             id="path10458"
             inkscape:connector-curvature="0" /></g><g
           id="g10460"
           transform="translate(153.8652,63.2236)"><path
             d="M 0,0 10.471,0.114"
             style="fill:none;stroke:#231f20;stroke-width:0.5;stroke-linecap:round;stroke-linejoin:round;stroke-miterlimit:4;stroke-dasharray:none;stroke-opacity:1"
             id="path10462"
             inkscape:connector-curvature="0" /></g><g
           id="g10464"
           transform="translate(150.6309,77.9199)"><path
             d="m 0,0 c 0,0 -1.057,-0.681 -1.172,-1.481 -0.113,-0.801 -0.857,-2.002 -0.342,-5.721 0.514,-3.719 0.799,-7.952 1.315,-9.383 0.515,-1.431 1.888,-1.259 1.888,-1.259"
             style="fill:none;stroke:#231f20;stroke-width:1.5;stroke-linecap:round;stroke-linejoin:round;stroke-miterlimit:4;stroke-dasharray:none;stroke-opacity:1"
             id="path10466"
             inkscape:connector-curvature="0" /></g><g
           id="g10468"
           transform="translate(164.3926,62.0215)"><path
             d="M 0,0 C 0,0 2.859,0.572 2.746,3.604"
             style="fill:none;stroke:#231f20;stroke-width:1.5;stroke-linecap:round;stroke-linejoin:round;stroke-miterlimit:4;stroke-dasharray:none;stroke-opacity:1"
             id="path10470"
             inkscape:connector-curvature="0" /></g><g
           id="g10472"
           transform="translate(150.3184,74.7793)"><path
             d="M 0,0 C 0,0 0.4,-0.057 0.457,-0.801 0.514,-1.545 1.373,-6.693 1.43,-8.181 1.486,-9.668 0.973,-10.47 0.973,-10.47"
             style="fill:none;stroke:#231f20;stroke-width:1.5;stroke-linecap:round;stroke-linejoin:round;stroke-miterlimit:4;stroke-dasharray:none;stroke-opacity:1"
             id="path10474"
             inkscape:connector-curvature="0" /></g><g
           id="g10476"
           transform="translate(143.166,118.0298)"><path
             d="M 0,0 7.609,0.515"
             style="fill:none;stroke:#231f20;stroke-width:1.5;stroke-linecap:round;stroke-linejoin:round;stroke-miterlimit:4;stroke-dasharray:none;stroke-opacity:1"
             id="path10478"
             inkscape:connector-curvature="0" /></g><g
           id="g10480"
           transform="translate(140.1348,117.4009)"><path
             d="m 0,0 c 0,2.174 3.146,3.089 3.604,-3.318 0.458,-6.408 0.171,-8.926 0.058,-11.9 -0.115,-2.975 -3.891,-4.291 -3.834,1.716 C -0.115,-7.495 0,0 0,0 Z"
             style="fill:none;stroke:#231f20;stroke-width:1.5;stroke-linecap:round;stroke-linejoin:round;stroke-miterlimit:4;stroke-dasharray:none;stroke-opacity:1"
             id="path10482"
             inkscape:connector-curvature="0" /></g><g
           id="g10484"
           transform="translate(141.2793,115.1123)"><path
             d="m 0,0 c 0,0 0.857,-0.572 0.857,-1.43 l 0,-10.642"
             style="fill:none;stroke:#231f20;stroke-width:1.5;stroke-linecap:round;stroke-linejoin:round;stroke-miterlimit:4;stroke-dasharray:none;stroke-opacity:1"
             id="path10486"
             inkscape:connector-curvature="0" /></g><g
           id="g10488"
           transform="translate(144.0254,101.3242)"><path
             d="M 0,0 5.836,1.087"
             style="fill:none;stroke:#231f20;stroke-width:1.5;stroke-linecap:round;stroke-linejoin:round;stroke-miterlimit:4;stroke-dasharray:none;stroke-opacity:1"
             id="path10490"
             inkscape:connector-curvature="0" /></g><g
           id="g10492"
           transform="translate(49.6587,49.5332)"><path
             d="M 0,0 C -63.992,8.052 -66.659,11.719 -66.659,11.719"
             style="fill:none;stroke:#231f20;stroke-width:1.5;stroke-linecap:round;stroke-linejoin:round;stroke-miterlimit:4;stroke-dasharray:none;stroke-opacity:1"
             id="path10494"
             inkscape:connector-curvature="0" /></g></g></g><g
       id="g10496"
       transform="translate(141.5898,116.2529)"><path
         d="M 0,0 -27.667,42.333"
         style="fill:none;stroke:#ffffff;stroke-width:3;stroke-linecap:round;stroke-linejoin:round;stroke-miterlimit:4;stroke-dasharray:none;stroke-opacity:1"
         id="path10498"
         inkscape:connector-curvature="0" /></g><g
       id="g10500"><g
         id="g10502"
         clip-path="url(#clipPath10504)"><g
           id="g10508"
           transform="translate(141.4668,115.0186)"><path
             d="M 0,0 C 0.682,0 1.234,0.553 1.234,1.234 1.234,1.916 0.682,2.467 0,2.467 -0.68,2.467 -1.232,1.916 -1.232,1.234 -1.232,0.553 -0.68,0 0,0"
             style="fill:#231f20;fill-opacity:1;fill-rule:nonzero;stroke:none"
             id="path10510"
             inkscape:connector-curvature="0" /></g><g
           id="g10512"
           transform="translate(141.4668,115.0186)"><path
             d="M 0,0 C 0.682,0 1.234,0.553 1.234,1.234 1.234,1.916 0.682,2.467 0,2.467 -0.68,2.467 -1.232,1.916 -1.232,1.234 -1.232,0.553 -0.68,0 0,0 Z"
             style="fill:none;stroke:#ffffff;stroke-width:1;stroke-linecap:butt;stroke-linejoin:miter;stroke-miterlimit:4;stroke-dasharray:none;stroke-opacity:1"
             id="path10514"
             inkscape:connector-curvature="0" /></g><g
           id="g10516"
           transform="translate(141.5898,116.2529)"><path
             d="M 0,0 -27.667,42.333"
             style="fill:none;stroke:#231f20;stroke-width:0.5;stroke-linecap:round;stroke-linejoin:round;stroke-miterlimit:4;stroke-dasharray:none;stroke-opacity:1"
             id="path10518"
             inkscape:connector-curvature="0" /></g><g
           id="g10520"
           transform="translate(150.9238,64.9199)"><path
             d="M 0,0 -26.334,-38.334"
             style="fill:none;stroke:#ffffff;stroke-width:3;stroke-linecap:round;stroke-linejoin:round;stroke-miterlimit:4;stroke-dasharray:none;stroke-opacity:1"
             id="path10522"
             inkscape:connector-curvature="0" /></g><g
           id="g10524"
           transform="translate(150.8008,63.6855)"><path
             d="M 0,0 C 0.682,0 1.234,0.553 1.234,1.234 1.234,1.916 0.682,2.467 0,2.467 -0.68,2.467 -1.232,1.916 -1.232,1.234 -1.232,0.553 -0.68,0 0,0"
             style="fill:#231f20;fill-opacity:1;fill-rule:nonzero;stroke:none"
             id="path10526"
             inkscape:connector-curvature="0" /></g><g
           id="g10528"
           transform="translate(150.8008,63.6855)"><path
             d="M 0,0 C 0.682,0 1.234,0.553 1.234,1.234 1.234,1.916 0.682,2.467 0,2.467 -0.68,2.467 -1.232,1.916 -1.232,1.234 -1.232,0.553 -0.68,0 0,0 Z"
             style="fill:none;stroke:#ffffff;stroke-width:1;stroke-linecap:butt;stroke-linejoin:miter;stroke-miterlimit:4;stroke-dasharray:none;stroke-opacity:1"
             id="path10530"
             inkscape:connector-curvature="0" /></g><g
           id="g10532"
           transform="translate(150.9238,64.9199)"><path
             d="M 0,0 -26.334,-38.334"
             style="fill:none;stroke:#231f20;stroke-width:0.5;stroke-linecap:round;stroke-linejoin:round;stroke-miterlimit:4;stroke-dasharray:none;stroke-opacity:1"
             id="path10534"
             inkscape:connector-curvature="0" /></g><g
           id="g10536"
           transform="translate(191.0449,135.0205)"><path
             d="M 0,0 6.545,21.566"
             style="fill:none;stroke:#ffffff;stroke-width:3;stroke-linecap:round;stroke-linejoin:round;stroke-miterlimit:4;stroke-dasharray:none;stroke-opacity:1"
             id="path10538"
             inkscape:connector-curvature="0" /></g><g
           id="g10540"
           transform="translate(190.9238,133.7861)"><path
             d="M 0,0 C 0.68,0 1.232,0.553 1.232,1.234 1.232,1.916 0.68,2.467 0,2.467 -0.682,2.467 -1.234,1.916 -1.234,1.234 -1.234,0.553 -0.682,0 0,0"
             style="fill:#231f20;fill-opacity:1;fill-rule:nonzero;stroke:none"
             id="path10542"
             inkscape:connector-curvature="0" /></g><g
           id="g10544"
           transform="translate(190.9238,133.7861)"><path
             d="M 0,0 C 0.68,0 1.232,0.553 1.232,1.234 1.232,1.916 0.68,2.467 0,2.467 -0.682,2.467 -1.234,1.916 -1.234,1.234 -1.234,0.553 -0.682,0 0,0 Z"
             style="fill:none;stroke:#ffffff;stroke-width:1;stroke-linecap:butt;stroke-linejoin:miter;stroke-miterlimit:4;stroke-dasharray:none;stroke-opacity:1"
             id="path10546"
             inkscape:connector-curvature="0" /></g><g
           id="g10548"
           transform="translate(191.0449,135.0205)"><path
             d="M 0,0 6.545,21.566"
             style="fill:none;stroke:#231f20;stroke-width:0.5;stroke-linecap:round;stroke-linejoin:round;stroke-miterlimit:4;stroke-dasharray:none;stroke-opacity:1"
             id="path10550"
             inkscape:connector-curvature="0" /></g></g></g><text
       transform="matrix(1,0,0,-1,107.9233,160.7578)"
       style="font-variant:normal;font-weight:bold;font-stretch:normal;font-size:12px;font-family:'Swiss 721 SWA';-inkscape-font-specification:Helvetica-Bold;writing-mode:lr-tb;fill:#231f20;fill-opacity:1;fill-rule:nonzero;stroke:none"
       id="text10552"><tspan
         x="0"
         y="0"
         id="tspan10554">1</tspan><tspan
         x="9.3360004"
         y="144"
         id="tspan10556">2</tspan><tspan
         x="87.671997"
         y="0"
         id="tspan10558">3</tspan></text>
<text
       transform="matrix(1,0,0,-1,3.5923,3.8604)"
       style="font-variant:normal;font-weight:normal;font-stretch:normal;font-size:5px;font-family:'Swiss 721 SWA';-inkscape-font-specification:Helvetica;writing-mode:lr-tb;fill:#231f20;fill-opacity:1;fill-rule:nonzero;stroke:none"
       id="text10560"><tspan
         x="0 2.5 5.2800002 6.9450002"
         y="0"
         sodipodi:role="line"
         id="tspan10562">cgrx</tspan></text>
</g></svg>