<?xml version="1.0" encoding="UTF-8" standalone="no"?>
<!-- Created with Inkscape (http://www.inkscape.org/) -->

<svg
   xmlns:dc="http://purl.org/dc/elements/1.1/"
   xmlns:cc="http://creativecommons.org/ns#"
   xmlns:rdf="http://www.w3.org/1999/02/22-rdf-syntax-ns#"
   xmlns:svg="http://www.w3.org/2000/svg"
   xmlns="http://www.w3.org/2000/svg"
   xmlns:sodipodi="http://sodipodi.sourceforge.net/DTD/sodipodi-0.dtd"
   xmlns:inkscape="http://www.inkscape.org/namespaces/inkscape"
   id="svg13354"
   version="1.1"
   inkscape:version="0.91 r13725"
   xml:space="preserve"
   width="301.18124"
   height="230.315"
   viewBox="0 0 301.18124 230.315"
   sodipodi:docname="cjqs.svg"><metadata
     id="metadata13360"><rdf:RDF><cc:Work
         rdf:about=""><dc:format>image/svg+xml</dc:format><dc:type
           rdf:resource="http://purl.org/dc/dcmitype/StillImage" /><dc:title></dc:title></cc:Work></rdf:RDF></metadata><defs
     id="defs13358"><clipPath
       clipPathUnits="userSpaceOnUse"
       id="clipPath13368"><path
         d="m 0,0 240.945,0 0,184.252 L 0,184.252 0,0 Z"
         id="path13370"
         inkscape:connector-curvature="0" /></clipPath></defs><sodipodi:namedview
     pagecolor="#ffffff"
     bordercolor="#666666"
     borderopacity="1"
     objecttolerance="10"
     gridtolerance="10"
     guidetolerance="10"
     inkscape:pageopacity="0"
     inkscape:pageshadow="2"
     inkscape:window-width="640"
     inkscape:window-height="480"
     id="namedview13356"
     showgrid="false"
     inkscape:zoom="3.4517942"
     inkscape:cx="150.59062"
     inkscape:cy="115.1575"
     inkscape:window-x="0"
     inkscape:window-y="0"
     inkscape:window-maximized="1"
     inkscape:current-layer="g13362" /><g
     id="g13362"
     inkscape:groupmode="layer"
     inkscape:label="cjqs"
     transform="matrix(1.25,0,0,-1.25,0,230.315)"><g
       id="g13364"><g
         id="g13366"
         clip-path="url(#clipPath13368)"><g
           id="g13372"
           transform="translate(223.582,101.0054)"><path
             d="M 0,0 C 8.087,-0.52 13.925,-12.134 13.038,-25.956 12.149,-39.777 4.873,-50.559 -3.217,-50.04"
             style="fill:none;stroke:#000000;stroke-width:0.25;stroke-linecap:round;stroke-linejoin:round;stroke-miterlimit:10;stroke-dasharray:none;stroke-opacity:1"
             id="path13374"
             inkscape:connector-curvature="0" /></g><g
           id="g13376"
           transform="translate(223.668,101.8926)"><path
             d="m 0,0 c 2.28,1.712 4.775,2.595 7.341,2.43 9.034,-0.579 15.53,-13.933 14.51,-29.842 -1.024,-15.909 -9.176,-28.335 -18.212,-27.755 -2.427,0.156 -4.67,1.234 -6.633,3.036"
             style="fill:none;stroke:#000000;stroke-width:0.25;stroke-linecap:round;stroke-linejoin:round;stroke-miterlimit:10;stroke-dasharray:none;stroke-opacity:1"
             id="path13378"
             inkscape:connector-curvature="0" /></g><g
           id="g13380"
           transform="translate(222.4746,100.8979)"><path
             d="M 0,0 C 4.222,6.431 9.796,10.237 15.671,9.859 27.197,9.119 35.516,-7.447 34.25,-27.144 32.985,-46.84 22.616,-62.206 11.088,-61.464 c -5.749,0.369 -10.7,4.675 -14.063,11.343"
             style="fill:none;stroke:#000000;stroke-width:0.5;stroke-linecap:round;stroke-linejoin:round;stroke-miterlimit:10;stroke-dasharray:none;stroke-opacity:1"
             id="path13382"
             inkscape:connector-curvature="0" /></g><g
           id="g13384"
           transform="translate(97.6123,108.3335)"><path
             d="m 0,0 c 0,0 119.015,-7.16 125.103,-7.551 6.087,-0.391 10.23,2.468 10.23,2.468"
             style="fill:none;stroke:#000000;stroke-width:0.5;stroke-linecap:round;stroke-linejoin:round;stroke-miterlimit:10;stroke-dasharray:none;stroke-opacity:1"
             id="path13386"
             inkscape:connector-curvature="0" /></g><g
           id="g13388"
           transform="translate(91.4395,58.9082)"><path
             d="m 0,0 c 0,0 120.266,-7.441 128.731,-7.985 8.466,-0.544 8.775,-5.423 8.775,-5.423"
             style="fill:none;stroke:#000000;stroke-width:0.5;stroke-linecap:round;stroke-linejoin:round;stroke-miterlimit:10;stroke-dasharray:none;stroke-opacity:1"
             id="path13390"
             inkscape:connector-curvature="0" /></g><g
           id="g13392"
           transform="translate(113.6396,87.3311)"><path
             d="M 0,0 C 0.149,-0.767 -0.328,-1.504 -1.064,-1.646 -1.801,-1.79 -2.519,-1.283 -2.667,-0.518 -2.816,0.25 -2.339,0.987 -1.603,1.131 -0.866,1.273 -0.148,0.767 0,0 Z"
             style="fill:none;stroke:#000000;stroke-width:0.25;stroke-linecap:round;stroke-linejoin:round;stroke-miterlimit:10;stroke-dasharray:none;stroke-opacity:1"
             id="path13394"
             inkscape:connector-curvature="0" /></g><g
           id="g13396"
           transform="translate(128.8369,84.6406)"><path
             d="M 0,0 C -0.736,-0.145 -1.454,0.363 -1.602,1.129 -1.751,1.896 -1.274,2.634 -0.538,2.777 0.198,2.92 0.916,2.412 1.065,1.646 1.214,0.88 0.737,0.142 0,0 Z"
             style="fill:none;stroke:#000000;stroke-width:0.25;stroke-linecap:round;stroke-linejoin:round;stroke-miterlimit:10;stroke-dasharray:none;stroke-opacity:1"
             id="path13398"
             inkscape:connector-curvature="0" /></g><g
           id="g13400"
           transform="translate(145.0996,83.5957)"><path
             d="M 0,0 C -0.736,-0.144 -1.454,0.363 -1.603,1.129 -1.752,1.896 -1.274,2.634 -0.538,2.777 0.198,2.92 0.916,2.413 1.064,1.646 1.214,0.88 0.736,0.143 0,0 Z"
             style="fill:none;stroke:#000000;stroke-width:0.25;stroke-linecap:round;stroke-linejoin:round;stroke-miterlimit:10;stroke-dasharray:none;stroke-opacity:1"
             id="path13402"
             inkscape:connector-curvature="0" /></g><g
           id="g13404"
           transform="translate(161.3613,82.5508)"><path
             d="m 0,0 c -0.736,-0.144 -1.454,0.363 -1.602,1.129 -0.15,0.767 0.329,1.506 1.064,1.648 C 0.198,2.92 0.916,2.413 1.064,1.646 1.215,0.88 0.736,0.143 0,0 Z"
             style="fill:none;stroke:#000000;stroke-width:0.25;stroke-linecap:round;stroke-linejoin:round;stroke-miterlimit:10;stroke-dasharray:none;stroke-opacity:1"
             id="path13406"
             inkscape:connector-curvature="0" /></g><g
           id="g13408"
           transform="translate(177.623,81.5068)"><path
             d="M 0,0 C -0.735,-0.144 -1.453,0.363 -1.602,1.129 -1.751,1.896 -1.273,2.634 -0.537,2.777 0.199,2.92 0.916,2.413 1.065,1.646 1.215,0.88 0.737,0.143 0,0 Z"
             style="fill:none;stroke:#000000;stroke-width:0.25;stroke-linecap:round;stroke-linejoin:round;stroke-miterlimit:10;stroke-dasharray:none;stroke-opacity:1"
             id="path13410"
             inkscape:connector-curvature="0" /></g><g
           id="g13412"
           transform="translate(193.8857,80.4619)"><path
             d="M 0,0 C -0.736,-0.144 -1.454,0.363 -1.603,1.129 -1.752,1.896 -1.274,2.634 -0.538,2.777 0.198,2.92 0.916,2.413 1.064,1.646 1.214,0.88 0.736,0.143 0,0 Z"
             style="fill:none;stroke:#000000;stroke-width:0.25;stroke-linecap:round;stroke-linejoin:round;stroke-miterlimit:10;stroke-dasharray:none;stroke-opacity:1"
             id="path13414"
             inkscape:connector-curvature="0" /></g><g
           id="g13416"
           transform="translate(210.1484,79.417)"><path
             d="M 0,0 C -0.736,-0.144 -1.454,0.364 -1.603,1.13 -1.752,1.896 -1.274,2.635 -0.538,2.778 0.197,2.921 0.916,2.413 1.064,1.647 1.214,0.881 0.736,0.144 0,0 Z"
             style="fill:none;stroke:#000000;stroke-width:0.25;stroke-linecap:round;stroke-linejoin:round;stroke-miterlimit:10;stroke-dasharray:none;stroke-opacity:1"
             id="path13418"
             inkscape:connector-curvature="0" /></g><g
           id="g13420"
           transform="translate(227.4746,80.0195)"><path
             d="M 0,0 C 0.149,-0.767 -0.328,-1.504 -1.064,-1.646 -1.801,-1.79 -2.519,-1.283 -2.667,-0.518 -2.816,0.25 -2.339,0.987 -1.603,1.131 -0.866,1.273 -0.148,0.767 0,0 Z"
             style="fill:none;stroke:#000000;stroke-width:0.25;stroke-linecap:round;stroke-linejoin:round;stroke-miterlimit:10;stroke-dasharray:none;stroke-opacity:1"
             id="path13422"
             inkscape:connector-curvature="0" /></g><g
           id="g13424"
           transform="translate(105.6328,63.249)"><path
             d="m 0,0 c -0.634,-0.456 -1.354,-0.54 -1.606,-0.187 -0.254,0.35 0.056,1.006 0.69,1.461 0.634,0.456 1.353,0.54 1.607,0.189 C 0.944,1.11 0.635,0.456 0,0 Z"
             style="fill:none;stroke:#000000;stroke-width:0.25;stroke-linecap:round;stroke-linejoin:round;stroke-miterlimit:10;stroke-dasharray:none;stroke-opacity:1"
             id="path13426"
             inkscape:connector-curvature="0" /></g><g
           id="g13428"
           transform="translate(120.3057,61.9961)"><path
             d="M 0,0 C -0.279,0.365 0.004,1.042 0.628,1.508 1.253,1.977 1.985,2.058 2.263,1.692 2.541,1.326 2.259,0.65 1.634,0.184 1.01,-0.284 0.277,-0.366 0,0 Z"
             style="fill:none;stroke:#000000;stroke-width:0.25;stroke-linecap:round;stroke-linejoin:round;stroke-miterlimit:10;stroke-dasharray:none;stroke-opacity:1"
             id="path13430"
             inkscape:connector-curvature="0" /></g><g
           id="g13432"
           transform="translate(136.585,60.9307)"><path
             d="M 0,0 C -0.302,0.38 -0.048,1.077 0.566,1.555 1.182,2.034 1.926,2.114 2.229,1.733 2.531,1.354 2.276,0.657 1.661,0.179 1.047,-0.301 0.303,-0.38 0,0 Z"
             style="fill:none;stroke:#000000;stroke-width:0.25;stroke-linecap:round;stroke-linejoin:round;stroke-miterlimit:10;stroke-dasharray:none;stroke-opacity:1"
             id="path13434"
             inkscape:connector-curvature="0" /></g><g
           id="g13436"
           transform="translate(152.8643,59.8652)"><path
             d="M 0,0 C -0.327,0.393 -0.1,1.111 0.505,1.602 1.11,2.092 1.866,2.17 2.194,1.775 2.521,1.382 2.294,0.664 1.688,0.174 1.084,-0.316 0.327,-0.395 0,0 Z"
             style="fill:none;stroke:#000000;stroke-width:0.25;stroke-linecap:round;stroke-linejoin:round;stroke-miterlimit:10;stroke-dasharray:none;stroke-opacity:1"
             id="path13438"
             inkscape:connector-curvature="0" /></g><g
           id="g13440"
           transform="translate(169.1445,58.8008)"><path
             d="M 0,0 C -0.352,0.407 -0.153,1.146 0.442,1.646 1.039,2.149 1.807,2.225 2.159,1.816 2.511,1.408 2.311,0.67 1.715,0.169 1.12,-0.334 0.353,-0.408 0,0 Z"
             style="fill:none;stroke:#000000;stroke-width:0.25;stroke-linecap:round;stroke-linejoin:round;stroke-miterlimit:10;stroke-dasharray:none;stroke-opacity:1"
             id="path13442"
             inkscape:connector-curvature="0" /></g><g
           id="g13444"
           transform="translate(185.4238,57.7344)"><path
             d="M 0,0 C -0.377,0.423 -0.205,1.182 0.38,1.694 0.968,2.208 1.748,2.281 2.125,1.859 2.501,1.437 2.328,0.679 1.742,0.165 1.156,-0.349 0.376,-0.422 0,0 Z"
             style="fill:none;stroke:#000000;stroke-width:0.25;stroke-linecap:round;stroke-linejoin:round;stroke-miterlimit:10;stroke-dasharray:none;stroke-opacity:1"
             id="path13446"
             inkscape:connector-curvature="0" /></g><g
           id="g13448"
           transform="translate(201.7031,56.6699)"><path
             d="M 0,0 C -0.401,0.436 -0.258,1.215 0.318,1.739 0.896,2.266 1.688,2.337 2.09,1.9 2.491,1.464 2.347,0.685 1.77,0.159 1.193,-0.366 0.401,-0.437 0,0 Z"
             style="fill:none;stroke:#000000;stroke-width:0.25;stroke-linecap:round;stroke-linejoin:round;stroke-miterlimit:10;stroke-dasharray:none;stroke-opacity:1"
             id="path13450"
             inkscape:connector-curvature="0" /></g><g
           id="g13452"
           transform="translate(219.7793,55.7598)"><path
             d="m 0,0 c -0.566,-0.537 -1.372,-0.606 -1.797,-0.155 -0.427,0.449 -0.309,1.25 0.257,1.786 0.568,0.537 1.373,0.606 1.799,0.156 C 0.685,1.337 0.567,0.536 0,0 Z"
             style="fill:none;stroke:#000000;stroke-width:0.25;stroke-linecap:round;stroke-linejoin:round;stroke-miterlimit:10;stroke-dasharray:none;stroke-opacity:1"
             id="path13454"
             inkscape:connector-curvature="0" /></g><g
           id="g13456"
           transform="translate(107.3516,76.998)"><path
             d="M 0,0 C -0.89,1.653 1.272,2.543 2.29,1.271 3.308,0 5.216,-3.562 5.979,-5.47 6.741,-7.378 4.397,-7.845 3.587,-6.269 2.677,-4.498 0,0 0,0 Z"
             style="fill:none;stroke:#000000;stroke-width:0.25;stroke-linecap:round;stroke-linejoin:round;stroke-miterlimit:10;stroke-dasharray:none;stroke-opacity:1"
             id="path13458"
             inkscape:connector-curvature="0" /></g><g
           id="g13460"
           transform="translate(125.7666,77.2344)"><path
             d="M 0,0 C 1.018,-1.271 2.926,-4.833 3.688,-6.741 4.451,-8.65 2.107,-9.116 1.297,-7.54 0.387,-5.77 -2.29,-1.271 -2.29,-1.271 -3.179,0.382 -1.018,1.271 0,0 Z"
             style="fill:none;stroke:#000000;stroke-width:0.25;stroke-linecap:round;stroke-linejoin:round;stroke-miterlimit:10;stroke-dasharray:none;stroke-opacity:1"
             id="path13462"
             inkscape:connector-curvature="0" /></g><g
           id="g13464"
           transform="translate(141.8926,76.1982)"><path
             d="M 0,0 C 1.018,-1.271 2.926,-4.833 3.688,-6.741 4.451,-8.649 2.106,-9.116 1.297,-7.54 0.387,-5.77 -2.29,-1.271 -2.29,-1.271 -3.18,0.382 -1.018,1.271 0,0 Z"
             style="fill:none;stroke:#000000;stroke-width:0.25;stroke-linecap:round;stroke-linejoin:round;stroke-miterlimit:10;stroke-dasharray:none;stroke-opacity:1"
             id="path13466"
             inkscape:connector-curvature="0" /></g><g
           id="g13468"
           transform="translate(158.0176,75.1621)"><path
             d="M 0,0 C 1.018,-1.271 2.926,-4.832 3.688,-6.74 4.451,-8.649 2.107,-9.116 1.297,-7.539 0.387,-5.77 -2.29,-1.271 -2.29,-1.271 -3.18,0.383 -1.018,1.271 0,0 Z"
             style="fill:none;stroke:#000000;stroke-width:0.25;stroke-linecap:round;stroke-linejoin:round;stroke-miterlimit:10;stroke-dasharray:none;stroke-opacity:1"
             id="path13470"
             inkscape:connector-curvature="0" /></g><g
           id="g13472"
           transform="translate(174.1426,74.127)"><path
             d="M 0,0 C 1.018,-1.271 2.926,-4.833 3.688,-6.741 4.451,-8.649 2.107,-9.116 1.297,-7.54 0.387,-5.77 -2.29,-1.271 -2.29,-1.271 -3.18,0.382 -1.018,1.271 0,0 Z"
             style="fill:none;stroke:#000000;stroke-width:0.25;stroke-linecap:round;stroke-linejoin:round;stroke-miterlimit:10;stroke-dasharray:none;stroke-opacity:1"
             id="path13474"
             inkscape:connector-curvature="0" /></g><g
           id="g13476"
           transform="translate(190.2676,73.0908)"><path
             d="M 0,0 C 1.018,-1.271 2.926,-4.833 3.688,-6.741 4.451,-8.649 2.107,-9.116 1.298,-7.54 0.387,-5.77 -2.29,-1.271 -2.29,-1.271 -3.18,0.382 -1.018,1.271 0,0 Z"
             style="fill:none;stroke:#000000;stroke-width:0.25;stroke-linecap:round;stroke-linejoin:round;stroke-miterlimit:10;stroke-dasharray:none;stroke-opacity:1"
             id="path13478"
             inkscape:connector-curvature="0" /></g><g
           id="g13480"
           transform="translate(206.3936,72.0557)"><path
             d="M 0,0 C 1.018,-1.271 2.926,-4.833 3.688,-6.741 4.45,-8.65 2.107,-9.116 1.297,-7.54 0.387,-5.77 -2.29,-1.271 -2.29,-1.271 -3.18,0.382 -1.019,1.271 0,0 Z"
             style="fill:none;stroke:#000000;stroke-width:0.25;stroke-linecap:round;stroke-linejoin:round;stroke-miterlimit:10;stroke-dasharray:none;stroke-opacity:1"
             id="path13482"
             inkscape:connector-curvature="0" /></g><g
           id="g13484"
           transform="translate(220.2285,69.748)"><path
             d="M 0,0 C -0.89,1.653 1.272,2.543 2.29,1.271 3.308,0 5.216,-3.562 5.979,-5.47 6.741,-7.378 4.397,-7.845 3.587,-6.269 2.677,-4.498 0,0 0,0 Z"
             style="fill:none;stroke:#000000;stroke-width:0.25;stroke-linecap:round;stroke-linejoin:round;stroke-miterlimit:10;stroke-dasharray:none;stroke-opacity:1"
             id="path13486"
             inkscape:connector-curvature="0" /></g><g
           id="g13488"
           transform="translate(103.5703,101.875)"><path
             d="m 0,0 c -1.646,0.898 0.875,1.625 3,0.375 2.125,-1.25 5.75,-4 7.25,-5.375 1.5,-1.375 -1.375,-2.5 -2.5,-1.375 C 6.625,-5.25 1.375,-0.75 0,0 Z"
             style="fill:none;stroke:#000000;stroke-width:0.25;stroke-linecap:round;stroke-linejoin:round;stroke-miterlimit:10;stroke-dasharray:none;stroke-opacity:1"
             id="path13490"
             inkscape:connector-curvature="0" /></g><g
           id="g13492"
           transform="translate(127.4526,94.4639)"><path
             d="M 0,0 C -1.125,1.125 -6.375,5.625 -7.75,6.375 -9.396,7.273 -6.875,8 -4.75,6.75 -2.625,5.5 1,2.75 2.5,1.375 4,0 1.125,-1.125 0,0 Z"
             style="fill:none;stroke:#000000;stroke-width:0.25;stroke-linecap:round;stroke-linejoin:round;stroke-miterlimit:10;stroke-dasharray:none;stroke-opacity:1"
             id="path13494"
             inkscape:connector-curvature="0" /></g><g
           id="g13496"
           transform="translate(143.5859,93.4277)"><path
             d="M 0,0 C -1.125,1.125 -6.375,5.625 -7.75,6.375 -9.396,7.272 -6.875,8 -4.75,6.75 -2.625,5.5 1,2.75 2.5,1.375 4,0 1.125,-1.125 0,0 Z"
             style="fill:none;stroke:#000000;stroke-width:0.25;stroke-linecap:round;stroke-linejoin:round;stroke-miterlimit:10;stroke-dasharray:none;stroke-opacity:1"
             id="path13498"
             inkscape:connector-curvature="0" /></g><g
           id="g13500"
           transform="translate(159.7178,92.3911)"><path
             d="m 0,0 c -1.124,1.125 -6.374,5.625 -7.749,6.375 -1.647,0.898 0.875,1.625 3,0.375 2.124,-1.25 5.75,-4 7.25,-5.375 C 4.001,0 1.126,-1.125 0,0 Z"
             style="fill:none;stroke:#000000;stroke-width:0.25;stroke-linecap:round;stroke-linejoin:round;stroke-miterlimit:10;stroke-dasharray:none;stroke-opacity:1"
             id="path13502"
             inkscape:connector-curvature="0" /></g><g
           id="g13504"
           transform="translate(175.8506,91.3545)"><path
             d="M 0,0 C -1.124,1.125 -6.374,5.625 -7.749,6.375 -9.396,7.273 -6.874,8 -4.75,6.751 -2.625,5.5 1.001,2.75 2.501,1.375 4,0 1.126,-1.124 0,0 Z"
             style="fill:none;stroke:#000000;stroke-width:0.25;stroke-linecap:round;stroke-linejoin:round;stroke-miterlimit:10;stroke-dasharray:none;stroke-opacity:1"
             id="path13506"
             inkscape:connector-curvature="0" /></g><g
           id="g13508"
           transform="translate(191.9834,90.3184)"><path
             d="M 0,0 C -1.125,1.125 -6.375,5.625 -7.749,6.375 -9.396,7.273 -6.874,8 -4.75,6.75 -2.625,5.5 1.001,2.75 2.5,1.375 4,0 1.126,-1.125 0,0 Z"
             style="fill:none;stroke:#000000;stroke-width:0.25;stroke-linecap:round;stroke-linejoin:round;stroke-miterlimit:10;stroke-dasharray:none;stroke-opacity:1"
             id="path13510"
             inkscape:connector-curvature="0" /></g><g
           id="g13512"
           transform="translate(208.1162,89.2822)"><path
             d="M 0,0 C -1.125,1.125 -6.375,5.625 -7.75,6.375 -9.396,7.273 -6.875,8 -4.75,6.75 -2.625,5.5 1,2.75 2.5,1.375 4,0 1.125,-1.125 0,0 Z"
             style="fill:none;stroke:#000000;stroke-width:0.25;stroke-linecap:round;stroke-linejoin:round;stroke-miterlimit:10;stroke-dasharray:none;stroke-opacity:1"
             id="path13514"
             inkscape:connector-curvature="0" /></g><g
           id="g13516"
           transform="translate(216.499,94.6211)"><path
             d="m 0,0 c -1.646,0.898 0.875,1.625 3,0.375 2.125,-1.25 5.75,-4 7.25,-5.375 1.5,-1.375 -1.375,-2.5 -2.5,-1.375 C 6.625,-5.25 1.375,-0.75 0,0 Z"
             style="fill:none;stroke:#000000;stroke-width:0.25;stroke-linecap:round;stroke-linejoin:round;stroke-miterlimit:10;stroke-dasharray:none;stroke-opacity:1"
             id="path13518"
             inkscape:connector-curvature="0" /></g><g
           id="g13520"
           transform="translate(55.7783,86.5137)"><path
             d="m 0,0 c -0.387,-6.312 -3.58,-11.252 -7.13,-11.034 -3.551,0.219 -6.115,5.512 -5.727,11.823 0.387,6.312 3.58,11.252 7.13,11.034 C -2.176,11.605 0.388,6.312 0,0 Z"
             style="fill:none;stroke:#000000;stroke-width:0.5;stroke-linecap:round;stroke-linejoin:round;stroke-miterlimit:10;stroke-dasharray:none;stroke-opacity:1"
             id="path13522"
             inkscape:connector-curvature="0" /></g><g
           id="g13524"
           transform="translate(64.7861,85.8955)"><path
             d="m 0,0 c -0.84,-13.684 -7.762,-24.391 -15.457,-23.918 -7.697,0.475 -13.255,11.947 -12.415,25.629 0.84,13.683 7.761,24.391 15.457,23.918 C -4.719,25.157 0.84,13.682 0,0 Z"
             style="fill:none;stroke:#000000;stroke-width:0.5;stroke-linecap:round;stroke-linejoin:round;stroke-miterlimit:10;stroke-dasharray:none;stroke-opacity:1"
             id="path13526"
             inkscape:connector-curvature="0" /></g><g
           id="g13528"
           transform="translate(68.96,85.5508)"><path
             d="m 0,0 c -0.967,-15.744 -8.931,-28.063 -17.785,-27.521 -8.857,0.547 -15.251,13.748 -14.284,29.49 0.965,15.743 8.929,28.063 17.784,27.519 C -5.43,28.945 0.966,15.742 0,0 Z"
             style="fill:none;stroke:#000000;stroke-width:0.5;stroke-linecap:round;stroke-linejoin:round;stroke-miterlimit:10;stroke-dasharray:none;stroke-opacity:1"
             id="path13530"
             inkscape:connector-curvature="0" /></g><g
           id="g13532"
           transform="translate(54.7314,55.3047)"><path
             d="m 0,0 c 0.426,-0.082 0.858,-0.137 1.296,-0.164 7.381,-0.453 14.572,7.186 17.47,18.63 1.995,7.877 2.373,11.912 4.265,16.956 1.891,5.044 2.774,6.305 4.665,9.962 1.892,3.657 12.106,8.7 16.519,1.891"
             style="fill:none;stroke:#000000;stroke-width:0.5;stroke-linecap:round;stroke-linejoin:round;stroke-miterlimit:10;stroke-dasharray:none;stroke-opacity:1"
             id="path13534"
             inkscape:connector-curvature="0" /></g><g
           id="g13536"
           transform="translate(50.3262,57.2529)"><path
             d="m 0,0 c 1.372,-0.98 2.855,-1.613 4.405,-1.948 5.464,-1.18 14.089,-1.387 18.589,-1.033 6.512,0.511 11.823,8.085 15.322,17.929 1.928,5.424 5.928,16.049 8.303,20.424 2.375,4.375 2.875,9.5 1.25,13.25 0,0 -1.719,2.878 -3.25,5.875 -3,5.875 -16.252,4.407 -20.75,-4.875 -2.977,-6.145 -2.706,-5.125 -2.706,-5.125"
             style="fill:none;stroke:#000000;stroke-width:1;stroke-linecap:round;stroke-linejoin:round;stroke-miterlimit:10;stroke-dasharray:none;stroke-opacity:1"
             id="path13538"
             inkscape:connector-curvature="0" /></g><g
           id="g13540"
           transform="translate(99.5508,99.4756)"><path
             d="m 0,0 c 1.539,-4.675 2.26,-10.132 1.905,-15.91 -1.008,-16.415 -10.311,-29.197 -20.774,-28.555 -0.997,0.062 -1.968,0.242 -2.909,0.533"
             style="fill:none;stroke:#000000;stroke-width:0.5;stroke-linecap:round;stroke-linejoin:round;stroke-miterlimit:10;stroke-dasharray:none;stroke-opacity:1"
             id="path13542"
             inkscape:connector-curvature="0" /></g><g
           id="g13544"
           transform="translate(73.1187,85.2656)"><path
             d="m 0,0 c -1.01,-16.454 -9.333,-29.328 -18.587,-28.761 -9.255,0.572 -19.019,8.721 -17.656,30.935 1.364,22.217 12.06,29.211 21.314,28.642 C -5.674,30.249 1.01,16.451 0,0 Z"
             style="fill:none;stroke:#000000;stroke-width:1;stroke-linecap:round;stroke-linejoin:round;stroke-miterlimit:10;stroke-dasharray:none;stroke-opacity:1"
             id="path13546"
             inkscape:connector-curvature="0" /></g><g
           id="g13548"
           transform="translate(55.8213,86.4648)"><path
             d="m 0,0 c -0.336,-5.473 -3.104,-9.755 -6.182,-9.566 -3.079,0.189 -5.301,4.779 -4.965,10.251 0.335,5.472 3.104,9.755 6.182,9.566 C -1.887,10.062 0.336,5.473 0,0 Z"
             style="fill:none;stroke:#000000;stroke-width:1;stroke-linecap:round;stroke-linejoin:round;stroke-miterlimit:10;stroke-dasharray:none;stroke-opacity:1"
             id="path13550"
             inkscape:connector-curvature="0" /></g><g
           id="g13552"
           transform="translate(52.6152,86.6611)"><path
             d="m 0,0 c -0.143,-2.325 -1.318,-4.144 -2.626,-4.063 -1.308,0.08 -2.252,2.03 -2.109,4.354 0.142,2.325 1.318,4.145 2.626,4.064 C -0.802,4.274 0.143,2.325 0,0 Z"
             style="fill:none;stroke:#000000;stroke-width:0.5;stroke-linecap:round;stroke-linejoin:round;stroke-miterlimit:10;stroke-dasharray:none;stroke-opacity:1"
             id="path13554"
             inkscape:connector-curvature="0" /></g><g
           id="g13556"
           transform="translate(95.207,99.9746)"><path
             d="m 0,0 c 0.897,-1.908 -1.25,-4.809 -4.798,-6.477 -3.549,-1.671 -7.15,-1.475 -8.049,0.433"
             style="fill:none;stroke:#000000;stroke-width:1;stroke-linecap:round;stroke-linejoin:round;stroke-miterlimit:10;stroke-dasharray:none;stroke-opacity:1"
             id="path13558"
             inkscape:connector-curvature="0" /></g><g
           id="g13560"
           transform="translate(82.3604,93.9307)"><path
             d="m 0,0 c -0.899,1.909 1.25,4.811 4.796,6.479 3.549,1.669 7.153,1.474 8.051,-0.435"
             style="fill:none;stroke:#000000;stroke-width:0.5;stroke-linecap:round;stroke-linejoin:round;stroke-miterlimit:10;stroke-dasharray:none;stroke-opacity:1"
             id="path13562"
             inkscape:connector-curvature="0" /></g><g
           id="g13564"
           transform="translate(81.8203,95)"><path
             d="M 0,0 C 2.104,4.908 7.375,8.75 12.125,8.625 16.875,8.5 18.375,4.125 15.625,-1 12.875,-6.125 11.25,-10.5 4.75,-10.125 -1.75,-9.75 -1.125,-2.625 0,0 Z"
             style="fill:none;stroke:#000000;stroke-width:0.5;stroke-linecap:round;stroke-linejoin:round;stroke-miterlimit:10;stroke-dasharray:none;stroke-opacity:1"
             id="path13566"
             inkscape:connector-curvature="0" /></g><g
           id="g13568"
           transform="translate(48.2788,113.3335)"><path
             d="M 0,0 29.333,84.667"
             style="fill:none;stroke:#000000;stroke-width:1;stroke-linecap:round;stroke-linejoin:round;stroke-miterlimit:10;stroke-dasharray:none;stroke-opacity:1"
             id="path13570"
             inkscape:connector-curvature="0" /></g><g
           id="g13572"
           transform="translate(93.2612,113.7563)"><path
             d="m 0,0 c 0.16,2.562 -0.641,3.522 -1.281,5.443 -0.64,1.921 -0.32,4.963 -0.16,6.724 0.16,1.76 12.007,63.874 12.007,63.874"
             style="fill:none;stroke:#000000;stroke-width:1;stroke-linecap:round;stroke-linejoin:round;stroke-miterlimit:10;stroke-dasharray:none;stroke-opacity:1"
             id="path13574"
             inkscape:connector-curvature="0" /></g><g
           id="g13576"
           transform="translate(69.4082,107.1924)"><path
             d="m 0,0 c 0,0 0.8,1.121 4.482,7.364 3.683,6.243 16.489,8.004 19.211,1.601"
             style="fill:none;stroke:#000000;stroke-width:0.5;stroke-linecap:round;stroke-linejoin:round;stroke-miterlimit:10;stroke-dasharray:none;stroke-opacity:1"
             id="path13578"
             inkscape:connector-curvature="0" /></g><g
           id="g13580"
           transform="translate(77.4126,118.3984)"><path
             d="m 0,0 c 0,0 -1.281,6.403 0.16,12.647 1.441,6.244 12.967,58.272 12.967,58.272"
             style="fill:none;stroke:#000000;stroke-width:0.5;stroke-linecap:round;stroke-linejoin:round;stroke-miterlimit:10;stroke-dasharray:none;stroke-opacity:1"
             id="path13582"
             inkscape:connector-curvature="0" /></g><g
           id="g13584"
           transform="translate(74.6914,115.9971)"><path
             d="m 0,0 c 0,0 -0.961,8.004 0.48,14.248 1.441,6.244 12.647,56.671 12.647,56.671"
             style="fill:none;stroke:#000000;stroke-width:0.5;stroke-linecap:round;stroke-linejoin:round;stroke-miterlimit:10;stroke-dasharray:none;stroke-opacity:1"
             id="path13586"
             inkscape:connector-curvature="0" /></g><g
           id="g13588"
           transform="translate(82.5508,189.5815)"><path
             d="m 0,0 c -1.625,0.231 -3.749,-1.356 -5.458,-6.187 -3.683,-10.406 -14.088,-41.783 -15.209,-45.465 -0.84,-2.762 -0.69,-4.983 0.72,-5.516"
             style="fill:none;stroke:#000000;stroke-width:0.5;stroke-linecap:round;stroke-linejoin:round;stroke-miterlimit:10;stroke-dasharray:none;stroke-opacity:1"
             id="path13590"
             inkscape:connector-curvature="0" /></g><g
           id="g13592"
           transform="translate(62.604,132.4136)"><path
             d="m 0,0 c 0.47,-0.178 1.081,-0.167 1.841,0.073 0,0 4.162,2.401 5.924,3.201 1.761,0.801 2.721,1.441 4.322,6.084 1.601,4.642 8.484,36.5 10.085,41.943 0.858,2.915 -0.351,5.601 -2.225,5.867"
             style="fill:none;stroke:#000000;stroke-width:1;stroke-linecap:round;stroke-linejoin:round;stroke-miterlimit:10;stroke-dasharray:none;stroke-opacity:1"
             id="path13594"
             inkscape:connector-curvature="0" /></g><g
           id="g13596"
           transform="translate(93.0283,98.833)"><path
             d="m 0,0 -1.222,-2.882 -4.213,-1.962 -2.992,0.92"
             style="fill:none;stroke:#000000;stroke-width:0.5;stroke-linecap:round;stroke-linejoin:round;stroke-miterlimit:10;stroke-dasharray:none;stroke-opacity:1"
             id="path13598"
             inkscape:connector-curvature="0" /></g><g
           id="g13600"
           transform="translate(84.6016,94.9092)"><path
             d="M 0,0 1.222,2.882 5.435,4.845 8.427,3.924"
             style="fill:none;stroke:#000000;stroke-width:1;stroke-linecap:butt;stroke-linejoin:round;stroke-miterlimit:10;stroke-dasharray:none;stroke-opacity:1"
             id="path13602"
             inkscape:connector-curvature="0" /></g><g
           id="g13604"
           transform="translate(50.3438,89.0664)"><path
             d="M 0,0 1.048,-1.188 0.935,-3.456 -0.227,-4.535"
             style="fill:none;stroke:#000000;stroke-width:1;stroke-linecap:butt;stroke-linejoin:round;stroke-miterlimit:10;stroke-dasharray:none;stroke-opacity:1"
             id="path13606"
             inkscape:connector-curvature="0" /></g><g
           id="g13608"
           transform="translate(50.1172,84.5313)"><path
             d="m 0,0 -1.049,1.189 0.113,2.269 1.163,1.077"
             style="fill:none;stroke:#000000;stroke-width:0.5;stroke-linecap:round;stroke-linejoin:round;stroke-miterlimit:10;stroke-dasharray:none;stroke-opacity:1"
             id="path13610"
             inkscape:connector-curvature="0" /></g><g
           id="g13612"
           transform="translate(91.8066,95.9512)"><path
             d="M 0,0 -1.771,3.803"
             style="fill:none;stroke:#000000;stroke-width:0.5;stroke-linecap:round;stroke-linejoin:round;stroke-miterlimit:10;stroke-dasharray:none;stroke-opacity:1"
             id="path13614"
             inkscape:connector-curvature="0" /></g><g
           id="g13616"
           transform="translate(87.5703,94.125)"><path
             d="M 0,0 -1.771,3.803"
             style="fill:none;stroke:#000000;stroke-width:0.5;stroke-linecap:round;stroke-linejoin:round;stroke-miterlimit:10;stroke-dasharray:none;stroke-opacity:1"
             id="path13618"
             inkscape:connector-curvature="0" /></g><g
           id="g13620"
           transform="translate(49.1816,87.9893)"><path
             d="M 0,0 2.21,-0.111"
             style="fill:none;stroke:#000000;stroke-width:0.5;stroke-linecap:round;stroke-linejoin:round;stroke-miterlimit:10;stroke-dasharray:none;stroke-opacity:1"
             id="path13622"
             inkscape:connector-curvature="0" /></g><g
           id="g13624"
           transform="translate(49.1328,85.834)"><path
             d="M 0,0 2.21,-0.111"
             style="fill:none;stroke:#000000;stroke-width:0.5;stroke-linecap:round;stroke-linejoin:round;stroke-miterlimit:10;stroke-dasharray:none;stroke-opacity:1"
             id="path13626"
             inkscape:connector-curvature="0" /></g><g
           id="g13628"
           transform="translate(73.4751,85.5566)"><path
             d="m 0,0 c 2.396,9.709 3.782,11.097 6.935,17.275 3.153,6.179 15.636,8.07 18.284,1.64"
             style="fill:none;stroke:#000000;stroke-width:0.5;stroke-linecap:round;stroke-linejoin:round;stroke-miterlimit:10;stroke-dasharray:none;stroke-opacity:1"
             id="path13630"
             inkscape:connector-curvature="0" /></g></g></g><text
       transform="matrix(1,0,0,-1,2.5176,2.2207)"
       style="font-variant:normal;font-weight:normal;font-stretch:normal;font-size:4px;font-family:'Swiss 721 SWA';-inkscape-font-specification:Helvetica;writing-mode:lr-tb;fill:#231f20;fill-opacity:1;fill-rule:nonzero;stroke:none"
       id="text13632"><tspan
         x="0 2 2.888 5.112"
         y="0"
         sodipodi:role="line"
         id="tspan13634">cjqs</tspan></text>
<g
       id="g13636"
       transform="translate(23.8013,128.5581)"><path
         d="M 0,0 24.333,-38.667"
         style="fill:none;stroke:#ffffff;stroke-width:3;stroke-linecap:round;stroke-linejoin:miter;stroke-miterlimit:4;stroke-dasharray:none;stroke-opacity:1"
         id="path13638"
         inkscape:connector-curvature="0" /></g><g
       id="g13640"
       transform="translate(48.1348,89.8916)"><path
         d="M 0,0 0,0"
         style="fill:none;stroke:#ffffff;stroke-width:3.75;stroke-linecap:round;stroke-linejoin:miter;stroke-miterlimit:4;stroke-dasharray:none;stroke-opacity:1"
         id="path13642"
         inkscape:connector-curvature="0" /></g><g
       id="g13644"
       transform="translate(23.8013,128.5581)"><path
         d="M 0,0 24.333,-38.667"
         style="fill:none;stroke:#211f1f;stroke-width:0.5;stroke-linecap:round;stroke-linejoin:miter;stroke-miterlimit:4;stroke-dasharray:none;stroke-opacity:1"
         id="path13646"
         inkscape:connector-curvature="0" /></g><g
       id="g13648"
       transform="translate(48.1348,89.8916)"><path
         d="M 0,0 0,0"
         style="fill:none;stroke:#211f1f;stroke-width:1.5;stroke-linecap:round;stroke-linejoin:miter;stroke-miterlimit:4;stroke-dasharray:none;stroke-opacity:1"
         id="path13650"
         inkscape:connector-curvature="0" /></g><g
       id="g13652"
       transform="translate(38.9453,39)"><path
         d="M 0,0 11.667,26.667"
         style="fill:none;stroke:#ffffff;stroke-width:3;stroke-linecap:round;stroke-linejoin:miter;stroke-miterlimit:4;stroke-dasharray:none;stroke-opacity:1"
         id="path13654"
         inkscape:connector-curvature="0" /></g><g
       id="g13656"
       transform="translate(50.6123,65.667)"><path
         d="M 0,0 0,0"
         style="fill:none;stroke:#ffffff;stroke-width:3.75;stroke-linecap:round;stroke-linejoin:miter;stroke-miterlimit:4;stroke-dasharray:none;stroke-opacity:1"
         id="path13658"
         inkscape:connector-curvature="0" /></g><g
       id="g13660"
       transform="translate(38.9453,39)"><path
         d="M 0,0 11.667,26.667"
         style="fill:none;stroke:#211f1f;stroke-width:0.5;stroke-linecap:round;stroke-linejoin:miter;stroke-miterlimit:4;stroke-dasharray:none;stroke-opacity:1"
         id="path13662"
         inkscape:connector-curvature="0" /></g><g
       id="g13664"
       transform="translate(50.6123,65.667)"><path
         d="M 0,0 0,0"
         style="fill:none;stroke:#211f1f;stroke-width:1.5;stroke-linecap:round;stroke-linejoin:miter;stroke-miterlimit:4;stroke-dasharray:none;stroke-opacity:1"
         id="path13666"
         inkscape:connector-curvature="0" /></g><text
       transform="matrix(1,0,0,-1,19.9385,130.3687)"
       style="font-variant:normal;font-weight:bold;font-stretch:normal;font-size:10px;font-family:'Swiss 721 SWA';-inkscape-font-specification:Helvetica-Bold;writing-mode:lr-tb;fill:#231f20;fill-opacity:1;fill-rule:nonzero;stroke:none"
       id="text13668"><tspan
         x="0"
         y="0"
         id="tspan13670">1</tspan><tspan
         x="14.33"
         y="99.330002"
         id="tspan13672">2</tspan></text>
<g
       id="g13674"
       transform="translate(124.6123,136.333)"><path
         d="M 0,0 -31,-36.667"
         style="fill:none;stroke:#ffffff;stroke-width:3;stroke-linecap:round;stroke-linejoin:miter;stroke-miterlimit:4;stroke-dasharray:none;stroke-opacity:1"
         id="path13676"
         inkscape:connector-curvature="0" /></g><g
       id="g13678"
       transform="translate(93.6123,99.6665)"><path
         d="M 0,0 0,0"
         style="fill:none;stroke:#ffffff;stroke-width:3.75;stroke-linecap:round;stroke-linejoin:miter;stroke-miterlimit:4;stroke-dasharray:none;stroke-opacity:1"
         id="path13680"
         inkscape:connector-curvature="0" /></g><g
       id="g13682"
       transform="translate(124.6123,136.333)"><path
         d="M 0,0 -31,-36.667"
         style="fill:none;stroke:#211f1f;stroke-width:0.5;stroke-linecap:round;stroke-linejoin:miter;stroke-miterlimit:4;stroke-dasharray:none;stroke-opacity:1"
         id="path13684"
         inkscape:connector-curvature="0" /></g><g
       id="g13686"
       transform="translate(93.6123,99.6665)"><path
         d="M 0,0 0,0"
         style="fill:none;stroke:#211f1f;stroke-width:1.5;stroke-linecap:round;stroke-linejoin:miter;stroke-miterlimit:4;stroke-dasharray:none;stroke-opacity:1"
         id="path13688"
         inkscape:connector-curvature="0" /></g><text
       transform="matrix(1,0,0,-1,124.75,137.8101)"
       style="font-variant:normal;font-weight:bold;font-stretch:normal;font-size:10px;font-family:'Swiss 721 SWA';-inkscape-font-specification:Helvetica-Bold;writing-mode:lr-tb;fill:#231f20;fill-opacity:1;fill-rule:nonzero;stroke:none"
       id="text13690"><tspan
         x="0"
         y="0"
         id="tspan13692">3</tspan></text>
</g></svg>