<?xml version="1.0" encoding="UTF-8" standalone="no"?>
<!-- Created with Inkscape (http://www.inkscape.org/) -->

<svg
   xmlns:dc="http://purl.org/dc/elements/1.1/"
   xmlns:cc="http://creativecommons.org/ns#"
   xmlns:rdf="http://www.w3.org/1999/02/22-rdf-syntax-ns#"
   xmlns:svg="http://www.w3.org/2000/svg"
   xmlns="http://www.w3.org/2000/svg"
   xmlns:sodipodi="http://sodipodi.sourceforge.net/DTD/sodipodi-0.dtd"
   xmlns:inkscape="http://www.inkscape.org/namespaces/inkscape"
   version="1.1"
   id="svg494"
   xml:space="preserve"
   width="321.26001"
   height="245.66933"
   viewBox="0 0 321.26001 245.66933"
   sodipodi:docname="JST 02T-JWPF-VSLE-S.svg"
   inkscape:version="0.92.4 (5da689c313, 2019-01-14)"><metadata
     id="metadata500"><rdf:RDF><cc:Work
         rdf:about=""><dc:format>image/svg+xml</dc:format><dc:type
           rdf:resource="http://purl.org/dc/dcmitype/StillImage" /><dc:title></dc:title></cc:Work></rdf:RDF></metadata><defs
     id="defs498"><clipPath
       clipPathUnits="userSpaceOnUse"
       id="clipPath510"><path
         d="M 0,184.252 H 240.945 V 0 H 0 Z"
         id="path508"
         inkscape:connector-curvature="0" /></clipPath></defs><sodipodi:namedview
     pagecolor="#ffffff"
     bordercolor="#666666"
     borderopacity="1"
     objecttolerance="10"
     gridtolerance="10"
     guidetolerance="10"
     inkscape:pageopacity="0"
     inkscape:pageshadow="2"
     inkscape:window-width="640"
     inkscape:window-height="480"
     id="namedview496"
     showgrid="false"
     inkscape:zoom="4.9171788"
     inkscape:cx="160.63"
     inkscape:cy="122.83466"
     inkscape:window-x="893"
     inkscape:window-y="454"
     inkscape:window-maximized="0"
     inkscape:current-layer="g502" /><g
     id="g502"
     inkscape:groupmode="layer"
     inkscape:label="JST 02T-JWPF-VSLE-S"
     transform="matrix(1.3333333,0,0,-1.3333333,0,245.66933)"><g
       id="g504"><g
         id="g506"
         clip-path="url(#clipPath510)"><g
           id="g512"
           transform="translate(132.0107,59.9343)"><path
             d="m 0,0 h -21.833 c -8.745,0 -15.834,7.089 -15.834,15.833 v 39.042 c 0,3.935 3.19,7.125 7.125,7.125 H 9.042 c 3.935,0 7.125,-3.19 7.125,-7.125 V 16.167 C 16.167,7.238 8.929,0 0,0 Z"
             style="fill:none;stroke:#000000;stroke-width:0.99199998;stroke-linecap:butt;stroke-linejoin:miter;stroke-miterlimit:10;stroke-dasharray:none;stroke-opacity:1"
             id="path514"
             inkscape:connector-curvature="0" /></g><g
           id="g516"
           transform="translate(140.6614,105.0517)"><path
             d="m 0,0 c 1.734,-2.042 2.781,-4.687 2.781,-7.576 v -21.098 c 0,-6.466 -5.242,-11.708 -11.708,-11.708 h -21.099 c -3.399,0 -6.46,1.448 -8.598,3.762"
             style="fill:none;stroke:#000000;stroke-width:0.50999999;stroke-linecap:butt;stroke-linejoin:miter;stroke-miterlimit:10;stroke-dasharray:none;stroke-opacity:1"
             id="path518"
             inkscape:connector-curvature="0" /></g><g
           id="g520"
           transform="translate(102.0369,68.4312)"><path
             d="m 0,0 c -1.93,2.088 -3.11,4.879 -3.11,7.946 v 21.099 c 0,6.466 5.242,11.708 11.709,11.708 h 21.098 c 3.577,0 6.78,-1.604 8.927,-4.133"
             style="fill:none;stroke:#000000;stroke-width:0.70899999;stroke-linecap:butt;stroke-linejoin:miter;stroke-miterlimit:10;stroke-dasharray:none;stroke-opacity:1"
             id="path522"
             inkscape:connector-curvature="0" /></g><g
           id="g524"
           transform="translate(131.8173,68.4532)"><path
             d="m 0,0 h -21.265 c -4.33,0 -7.841,3.511 -7.841,7.841 v 21.265 c 0,4.331 3.511,7.841 7.841,7.841 H 0 c 4.331,0 7.841,-3.51 7.841,-7.841 V 7.841 C 7.841,3.511 4.331,0 0,0 Z"
             style="fill:none;stroke:#000000;stroke-width:0.249;stroke-linecap:butt;stroke-linejoin:miter;stroke-miterlimit:10;stroke-dasharray:none;stroke-opacity:1"
             id="path526"
             inkscape:connector-curvature="0" /></g><g
           id="g528"
           transform="translate(132.859,71.3466)"><path
             d="m 0,0 h -23.348 c -2.158,0 -3.906,1.749 -3.906,3.906 v 22.859 c 0,2.157 1.748,3.906 3.906,3.906 H 0 c 2.157,0 3.906,-1.749 3.906,-3.906 V 3.906 C 3.906,1.749 2.157,0 0,0 Z"
             style="fill:none;stroke:#000000;stroke-width:0.249;stroke-linecap:butt;stroke-linejoin:miter;stroke-miterlimit:10;stroke-dasharray:none;stroke-opacity:1"
             id="path530"
             inkscape:connector-curvature="0" /></g><g
           id="g532"
           transform="translate(109.6774,85.9343)"><path
             d="M 0,0 V 13.083 H 7.833"
             style="fill:none;stroke:#000000;stroke-width:0.70899999;stroke-linecap:butt;stroke-linejoin:miter;stroke-miterlimit:10;stroke-dasharray:none;stroke-opacity:1"
             id="path534"
             inkscape:connector-curvature="0" /></g><g
           id="g536"
           transform="translate(117.5107,99.0176)"><path
             d="M 0,0 V -13.083 H -7.833"
             style="fill:none;stroke:#000000;stroke-width:0.50999999;stroke-linecap:butt;stroke-linejoin:miter;stroke-miterlimit:10;stroke-dasharray:none;stroke-opacity:1"
             id="path538"
             inkscape:connector-curvature="0" /></g><g
           id="g540"
           transform="translate(132.8685,99.0176)"><path
             d="M 0,0 V -13.083 H -7.833"
             style="fill:none;stroke:#000000;stroke-width:0.50999999;stroke-linecap:butt;stroke-linejoin:miter;stroke-miterlimit:10;stroke-dasharray:none;stroke-opacity:1"
             id="path542"
             inkscape:connector-curvature="0" /></g><g
           id="g544"
           transform="translate(125.0352,85.9343)"><path
             d="M 0,0 V 13.083 H 7.833"
             style="fill:none;stroke:#000000;stroke-width:0.70899999;stroke-linecap:butt;stroke-linejoin:miter;stroke-miterlimit:10;stroke-dasharray:none;stroke-opacity:1"
             id="path546"
             inkscape:connector-curvature="0" /></g><g
           id="g548"
           transform="translate(116.5941,82.601)"><path
             d="M 0,0 V -5.5 H -6.417"
             style="fill:none;stroke:#000000;stroke-width:0.70899999;stroke-linecap:butt;stroke-linejoin:miter;stroke-miterlimit:10;stroke-dasharray:none;stroke-opacity:1"
             id="path550"
             inkscape:connector-curvature="0" /></g><g
           id="g552"
           transform="translate(110.1774,77.101)"><path
             d="M 0,0 V 5.5 H 6.417"
             style="fill:none;stroke:#000000;stroke-width:0.50999999;stroke-linecap:butt;stroke-linejoin:miter;stroke-miterlimit:10;stroke-dasharray:none;stroke-opacity:1"
             id="path554"
             inkscape:connector-curvature="0" /></g><g
           id="g556"
           transform="translate(132.1602,82.4343)"><path
             d="M 0,0 V -5.5 H -6.417"
             style="fill:none;stroke:#000000;stroke-width:0.70899999;stroke-linecap:butt;stroke-linejoin:miter;stroke-miterlimit:10;stroke-dasharray:none;stroke-opacity:1"
             id="path558"
             inkscape:connector-curvature="0" /></g><g
           id="g560"
           transform="translate(125.7435,76.9343)"><path
             d="M 0,0 V 5.5 H 6.417"
             style="fill:none;stroke:#000000;stroke-width:0.50999999;stroke-linecap:butt;stroke-linejoin:miter;stroke-miterlimit:10;stroke-dasharray:none;stroke-opacity:1"
             id="path562"
             inkscape:connector-curvature="0" /></g><g
           id="g564"
           transform="translate(141.6612,111.495)"><path
             d="M 0,0 C -0.475,-0.443 -1.141,-0.727 -2.003,-0.727"
             style="fill:none;stroke:#000000;stroke-width:0.50999999;stroke-linecap:butt;stroke-linejoin:miter;stroke-miterlimit:10;stroke-dasharray:none;stroke-opacity:1"
             id="path566"
             inkscape:connector-curvature="0" /></g><g
           id="g568"
           transform="translate(139.6585,116.6843)"><path
             d="M 0,0 C 2.955,0.001 3.695,-3.608 2.003,-5.189"
             style="fill:none;stroke:#000000;stroke-width:0.70899999;stroke-linecap:butt;stroke-linejoin:miter;stroke-miterlimit:10;stroke-dasharray:none;stroke-opacity:1"
             id="path570"
             inkscape:connector-curvature="0" /></g><g
           id="g572"
           transform="translate(139.6585,119.351)"><path
             d="M 0,0 V -2.667"
             style="fill:none;stroke:#000000;stroke-width:0.50999999;stroke-linecap:butt;stroke-linejoin:miter;stroke-miterlimit:10;stroke-dasharray:none;stroke-opacity:1"
             id="path574"
             inkscape:connector-curvature="0" /></g><g
           id="g576"
           transform="translate(102.7112,110.7676)"><path
             d="M 0,0 C -3.784,0 -3.784,5.918 0,5.917 V 8.583 H 36.947"
             style="fill:none;stroke:#000000;stroke-width:0.70899999;stroke-linecap:butt;stroke-linejoin:miter;stroke-miterlimit:10;stroke-dasharray:none;stroke-opacity:1"
             id="path578"
             inkscape:connector-curvature="0" /></g><g
           id="g580"
           transform="translate(102.7112,110.7676)"><path
             d="M 0,0 C 2.133,1.333 5.966,2.167 5.966,2.167 H 30.8 C 34.05,2.25 36.947,0 36.947,0"
             style="fill:none;stroke:#000000;stroke-width:0.50999999;stroke-linecap:butt;stroke-linejoin:miter;stroke-miterlimit:10;stroke-dasharray:none;stroke-opacity:1"
             id="path582"
             inkscape:connector-curvature="0" /></g><g
           id="g584"
           transform="translate(102.7112,116.6843)"><path
             d="M 0,0 H 5.966 36.947"
             style="fill:none;stroke:#000000;stroke-width:0.70899999;stroke-linecap:butt;stroke-linejoin:miter;stroke-miterlimit:10;stroke-dasharray:none;stroke-opacity:1"
             id="path586"
             inkscape:connector-curvature="0" /></g><g
           id="g588"
           transform="translate(108.6774,113.7676)"><path
             d="M 0,0 V 2.917"
             style="fill:none;stroke:#000000;stroke-width:0.50999999;stroke-linecap:butt;stroke-linejoin:miter;stroke-miterlimit:10;stroke-dasharray:none;stroke-opacity:1"
             id="path590"
             inkscape:connector-curvature="0" /></g><g
           id="g592"
           transform="translate(133.5107,116.6843)"><path
             d="M 0,0 V -2.917 H -24.833"
             style="fill:none;stroke:#000000;stroke-width:0.70899999;stroke-linecap:butt;stroke-linejoin:miter;stroke-miterlimit:10;stroke-dasharray:none;stroke-opacity:1"
             id="path594"
             inkscape:connector-curvature="0" /></g><g
           id="g596"
           transform="translate(112.9274,109.1843)"><path
             d="M 0,0 -1.124,2.311 H 17.489 L 16.176,0"
             style="fill:none;stroke:#000000;stroke-width:0.50999999;stroke-linecap:butt;stroke-linejoin:miter;stroke-miterlimit:10;stroke-dasharray:none;stroke-opacity:1"
             id="path598"
             inkscape:connector-curvature="0" /></g></g></g><text
       transform="matrix(1,0,0,-1,80.4805,76.9341)"
       style="font-variant:normal;font-weight:bold;font-stretch:normal;font-size:10px;font-family:Helvetica;-inkscape-font-specification:Helvetica-Bold;writing-mode:lr-tb;fill:#000000;fill-opacity:1;fill-rule:nonzero;stroke:none"
       id="text602"><tspan
         x="0 75.669998"
         y="0"
         sodipodi:role="line"
         id="tspan600">21</tspan></text>
</g></svg>