<?xml version="1.0" encoding="UTF-8" standalone="no"?>
<!-- Created with Inkscape (http://www.inkscape.org/) -->

<svg
   xmlns:dc="http://purl.org/dc/elements/1.1/"
   xmlns:cc="http://creativecommons.org/ns#"
   xmlns:rdf="http://www.w3.org/1999/02/22-rdf-syntax-ns#"
   xmlns:svg="http://www.w3.org/2000/svg"
   xmlns="http://www.w3.org/2000/svg"
   xmlns:sodipodi="http://sodipodi.sourceforge.net/DTD/sodipodi-0.dtd"
   xmlns:inkscape="http://www.inkscape.org/namespaces/inkscape"
   id="svg17936"
   version="1.1"
   inkscape:version="0.91 r13725"
   xml:space="preserve"
   width="301.18124"
   height="230.315"
   viewBox="0 0 301.18124 230.315"
   sodipodi:docname="cjss.svg"><metadata
     id="metadata17942"><rdf:RDF><cc:Work
         rdf:about=""><dc:format>image/svg+xml</dc:format><dc:type
           rdf:resource="http://purl.org/dc/dcmitype/StillImage" /><dc:title></dc:title></cc:Work></rdf:RDF></metadata><defs
     id="defs17940"><clipPath
       clipPathUnits="userSpaceOnUse"
       id="clipPath17950"><path
         d="m 0,0 240.945,0 0,184.252 L 0,184.252 0,0 Z"
         id="path17952"
         inkscape:connector-curvature="0" /></clipPath></defs><sodipodi:namedview
     pagecolor="#ffffff"
     bordercolor="#666666"
     borderopacity="1"
     objecttolerance="10"
     gridtolerance="10"
     guidetolerance="10"
     inkscape:pageopacity="0"
     inkscape:pageshadow="2"
     inkscape:window-width="640"
     inkscape:window-height="480"
     id="namedview17938"
     showgrid="false"
     inkscape:zoom="3.3779823"
     inkscape:cx="150.59062"
     inkscape:cy="115.1575"
     inkscape:window-x="0"
     inkscape:window-y="0"
     inkscape:window-maximized="1"
     inkscape:current-layer="g17944" /><g
     id="g17944"
     inkscape:groupmode="layer"
     inkscape:label="cjss"
     transform="matrix(1.25,0,0,-1.25,0,230.315)"><g
       id="g17946"><g
         id="g17948"
         clip-path="url(#clipPath17950)"><g
           id="g17954"
           transform="translate(-3.9844,11.9033)"><path
             d="M 0,0 C 5.215,4.867 9.04,6.258 14.603,4.867 20.166,3.477 66.409,-11.82 82.751,-21.557"
             style="fill:none;stroke:#000000;stroke-width:0.5;stroke-linecap:round;stroke-linejoin:round;stroke-miterlimit:10;stroke-dasharray:none;stroke-opacity:1"
             id="path17956"
             inkscape:connector-curvature="0" /></g><g
           id="g17958"
           transform="translate(-14.415,89.7861)"><path
             d="m 0,0 29.554,-47.634 c 0,0 0.695,-4.172 4.172,-11.821 3.477,-7.649 11.127,-11.821 11.127,-11.821 l 8.344,-11.127"
             style="fill:none;stroke:#000000;stroke-width:0.5;stroke-linecap:round;stroke-linejoin:round;stroke-miterlimit:10;stroke-dasharray:none;stroke-opacity:1"
             id="path17960"
             inkscape:connector-curvature="0" /></g><g
           id="g17962"
           transform="translate(21.3975,192.0083)"><path
             d="m 0,0 60.499,-112.305 c 0,0 5.91,-0.347 7.996,-4.172 2.086,-3.825 2.434,-12.17 2.434,-12.17 l 3.539,-6.059"
             style="fill:none;stroke:#000000;stroke-width:0.5;stroke-linecap:round;stroke-linejoin:round;stroke-miterlimit:10;stroke-dasharray:none;stroke-opacity:1"
             id="path17964"
             inkscape:connector-curvature="0" /></g><g
           id="g17966"
           transform="translate(179.0625,161.502)"><path
             d="m 0,0 c 0,0 0.347,-0.463 0.723,-1.504 0.376,-1.041 4.525,-13.507 4.525,-13.507 2.247,-6.543 -6.669,-15.536 -19.915,-20.087 -13.248,-4.549 -25.81,-2.935 -28.057,3.608 l -4.786,14.103"
             style="fill:none;stroke:#000000;stroke-width:0.5;stroke-linecap:round;stroke-linejoin:round;stroke-miterlimit:10;stroke-dasharray:none;stroke-opacity:1"
             id="path17968"
             inkscape:connector-curvature="0" /></g><g
           id="g17970"
           transform="translate(179.5859,160.29)"><path
             d="m 0,0 c 2.136,-6.217 -6.871,-14.946 -20.117,-19.497 -13.248,-4.55 -25.719,-3.2 -27.855,3.018"
             style="fill:none;stroke:#000000;stroke-width:0.25;stroke-linecap:round;stroke-linejoin:round;stroke-miterlimit:10;stroke-dasharray:none;stroke-opacity:1"
             id="path17972"
             inkscape:connector-curvature="0" /></g><g
           id="g17974"
           transform="translate(115.8652,198.3027)"><path
             d="m 0,0 7.34,-22.761 c 2.002,-6.262 13.67,-8.126 26.063,-4.166 12.392,3.962 20.814,12.249 18.812,18.511 L 48.25,7.25"
             style="fill:none;stroke:#000000;stroke-width:0.5;stroke-linecap:round;stroke-linejoin:round;stroke-miterlimit:10;stroke-dasharray:none;stroke-opacity:1"
             id="path17976"
             inkscape:connector-curvature="0" /></g><g
           id="g17978"
           transform="translate(173.5244,157.8652)"><path
             d="m 0,0 c -0.082,-4.453 -6.393,-9.989 -15.236,-13.027 -2.717,-0.934 -5.39,-1.535 -7.87,-1.818"
             style="fill:none;stroke:#000000;stroke-width:0.25;stroke-linecap:round;stroke-linejoin:round;stroke-miterlimit:10;stroke-dasharray:none;stroke-opacity:1"
             id="path17980"
             inkscape:connector-curvature="0" /></g><g
           id="g17982"
           transform="translate(91.998,81.8691)"><path
             d="M 0,0 C -0.834,1.642 0.705,4.015 3.517,5.666"
             style="fill:none;stroke:#000000;stroke-width:0.5;stroke-linecap:round;stroke-linejoin:round;stroke-miterlimit:10;stroke-dasharray:none;stroke-opacity:1"
             id="path17984"
             inkscape:connector-curvature="0" /></g><g
           id="g17986"
           transform="translate(105.0391,87.7236)"><path
             d="m 0,0 c 0.955,-1.877 -1.191,-4.708 -4.795,-6.325 -3.601,-1.617 -7.293,-1.405 -8.246,0.471"
             style="fill:none;stroke:#000000;stroke-width:1;stroke-linecap:round;stroke-linejoin:round;stroke-miterlimit:10;stroke-dasharray:none;stroke-opacity:1"
             id="path17988"
             inkscape:connector-curvature="0" /></g><g
           id="g17990"
           transform="translate(99.0498,88.9727)"><path
             d="M 0,0 C 2.776,0.677 5.238,0.234 5.989,-1.249"
             style="fill:none;stroke:#000000;stroke-width:0.5;stroke-linecap:round;stroke-linejoin:round;stroke-miterlimit:10;stroke-dasharray:none;stroke-opacity:1"
             id="path17992"
             inkscape:connector-curvature="0" /></g><g
           id="g17994"
           transform="translate(99.8887,92.4834)"><path
             d="M 0,0 C -0.025,0.045 -0.049,0.091 -0.07,0.138 -0.436,0.917 -0.283,1.839 0.269,2.75"
             style="fill:none;stroke:#000000;stroke-width:0.5;stroke-linecap:round;stroke-linejoin:round;stroke-miterlimit:10;stroke-dasharray:none;stroke-opacity:1"
             id="path17996"
             inkscape:connector-curvature="0" /></g><g
           id="g17998"
           transform="translate(112.0439,97.8892)"><path
             d="m 0,0 c 0.022,-0.04 0.043,-0.081 0.062,-0.123 0.868,-1.851 -1.181,-4.502 -4.577,-5.923 -3.307,-1.385 -6.671,-1.087 -7.64,0.64"
             style="fill:none;stroke:#000000;stroke-width:1;stroke-linecap:round;stroke-linejoin:round;stroke-miterlimit:10;stroke-dasharray:none;stroke-opacity:1"
             id="path18000"
             inkscape:connector-curvature="0" /></g><g
           id="g18002"
           transform="translate(103.7383,98.2471)"><path
             d="M 0,0 C 0.213,0.104 0.433,0.204 0.657,0.298 3.976,1.686 7.35,1.385 8.306,-0.358"
             style="fill:none;stroke:#000000;stroke-width:0.5;stroke-linecap:round;stroke-linejoin:round;stroke-miterlimit:10;stroke-dasharray:none;stroke-opacity:1"
             id="path18004"
             inkscape:connector-curvature="0" /></g><g
           id="g18006"
           transform="translate(89.5459,80.7695)"><path
             d="m 0,0 c 1.312,-2.582 6.393,-2.872 11.348,-0.648 4.957,2.224 7.911,6.119 6.598,8.701 -0.234,0.463 -0.594,0.849 -1.05,1.164 0.557,0.165 1.118,0.362 1.678,0.596 4.671,1.955 7.489,5.603 6.298,8.149"
             style="fill:none;stroke:#000000;stroke-width:0.5;stroke-linecap:round;stroke-linejoin:round;stroke-miterlimit:10;stroke-dasharray:none;stroke-opacity:1"
             id="path18008"
             inkscape:connector-curvature="0" /></g><g
           id="g18010"
           transform="translate(92.248,87.0635)"><path
             d="m 0,0 c -2.457,-2.063 -3.614,-4.497 -2.702,-6.294 l 17.824,-30.89"
             style="fill:none;stroke:#000000;stroke-width:1;stroke-linecap:round;stroke-linejoin:round;stroke-miterlimit:10;stroke-dasharray:none;stroke-opacity:1"
             id="path18012"
             inkscape:connector-curvature="0" /></g><g
           id="g18014"
           transform="translate(85.0098,88.8154)"><path
             d="M 0,0 C 0.948,-1.894 3.916,-2.518 7.238,-1.752"
             style="fill:none;stroke:#000000;stroke-width:0.5;stroke-linecap:round;stroke-linejoin:round;stroke-miterlimit:10;stroke-dasharray:none;stroke-opacity:1"
             id="path18016"
             inkscape:connector-curvature="0" /></g><g
           id="g18018"
           transform="translate(101.6094,98.6826)"><path
             d="m 0,0 c 0.672,0.414 1.408,0.792 2.197,1.123 4.669,1.954 9.419,1.475 10.612,-1.074 l 9.007,-20.29 1.267,0.085 5.408,-11.323 c 0,0 2.873,-3.888 -3.971,-8.367 l -2.282,-0.253"
             style="fill:none;stroke:#000000;stroke-width:1;stroke-linecap:round;stroke-linejoin:round;stroke-miterlimit:10;stroke-dasharray:none;stroke-opacity:1"
             id="path18020"
             inkscape:connector-curvature="0" /></g><g
           id="g18022"
           transform="translate(89.4551,80.8086)"><path
             d="m 0,0 -4.445,8.007 c -1.124,2.249 1,5.485 4.802,7.498"
             style="fill:none;stroke:#000000;stroke-width:1;stroke-linecap:round;stroke-linejoin:round;stroke-miterlimit:10;stroke-dasharray:none;stroke-opacity:1"
             id="path18024"
             inkscape:connector-curvature="0" /></g><g
           id="g18026"
           transform="translate(117.0049,49.2852)"><path
             d="m 0,0 c -4.234,-1.668 -8.4,-1.315 -9.521,0.891 -0.025,0.049 -0.048,0.1 -0.07,0.151"
             style="fill:none;stroke:#000000;stroke-width:0.5;stroke-linecap:round;stroke-linejoin:round;stroke-miterlimit:10;stroke-dasharray:none;stroke-opacity:1"
             id="path18028"
             inkscape:connector-curvature="0" /></g><g
           id="g18030"
           transform="translate(134.4854,67.5127)"><path
             d="m 0,0 c 0.872,-1.864 0.224,-4.146 -1.522,-6.294 l -5.985,-9.059 c -1.699,-2.171 -4.446,-4.27 -7.868,-5.805 -6.804,-3.054 -13.776,-2.756 -15.872,0.61"
             style="fill:none;stroke:#000000;stroke-width:0.5;stroke-linecap:round;stroke-linejoin:round;stroke-miterlimit:10;stroke-dasharray:none;stroke-opacity:1"
             id="path18032"
             inkscape:connector-curvature="0" /></g><g
           id="g18034"
           transform="translate(128.5801,71.0908)"><path
             d="m 0,0 2.9,-1.034 c 1.407,-0.535 2.465,-1.389 3.005,-2.544 l 4.56,-7.23 c 0.861,-1.842 0.222,-4.098 -1.506,-6.222 l -5.918,-8.957 c -1.679,-2.148 -4.395,-4.222 -7.779,-5.741 -6.727,-3.019 -13.621,-2.724 -15.693,0.603 l -4.911,6.999 c -0.061,0.1 -0.119,0.202 -0.173,0.308 l -5.533,8.161 c -0.042,0.073 -0.082,0.147 -0.12,0.223 -1.051,2.103 -0.113,4.812 2.182,7.239"
             style="fill:none;stroke:#000000;stroke-width:1;stroke-linecap:round;stroke-linejoin:round;stroke-miterlimit:10;stroke-dasharray:none;stroke-opacity:1"
             id="path18036"
             inkscape:connector-curvature="0" /></g><g
           id="g18038"
           transform="translate(94.7129,89.3301)"><path
             d="M 0,0 C -0.099,-0.048 -0.198,-0.095 -0.3,-0.141 -3.438,-1.564 -6.691,-1.296 -7.566,0.454"
             style="fill:none;stroke:#000000;stroke-width:1;stroke-linecap:round;stroke-linejoin:round;stroke-miterlimit:10;stroke-dasharray:none;stroke-opacity:1"
             id="path18040"
             inkscape:connector-curvature="0" /></g><g
           id="g18042"
           transform="translate(98.5088,94.9365)"><path
             d="M 0,0 C 0.438,-0.876 0.199,-1.956 -0.542,-2.996"
             style="fill:none;stroke:#000000;stroke-width:1;stroke-linecap:round;stroke-linejoin:round;stroke-miterlimit:10;stroke-dasharray:none;stroke-opacity:1"
             id="path18044"
             inkscape:connector-curvature="0" /></g><g
           id="g18046"
           transform="translate(95.6367,96.4307)"><path
             d="M 0,0 C 1.357,-0.092 2.426,-0.599 2.872,-1.494"
             style="fill:none;stroke:#000000;stroke-width:0.5;stroke-linecap:round;stroke-linejoin:round;stroke-miterlimit:10;stroke-dasharray:none;stroke-opacity:1"
             id="path18048"
             inkscape:connector-curvature="0" /></g><g
           id="g18050"
           transform="translate(87.1465,89.7842)"><path
             d="M 0,0 C -0.865,1.728 0.912,4.259 3.979,5.693"
             style="fill:none;stroke:#000000;stroke-width:0.5;stroke-linecap:round;stroke-linejoin:round;stroke-miterlimit:10;stroke-dasharray:none;stroke-opacity:1"
             id="path18052"
             inkscape:connector-curvature="0" /></g><g
           id="g18054"
           transform="translate(100.0313,87.1406)"><path
             d="M 0,0 C 2.104,0.534 4.039,0.43 5.204,-0.279"
             style="fill:none;stroke:#000000;stroke-width:0.5;stroke-linecap:round;stroke-linejoin:round;stroke-miterlimit:10;stroke-dasharray:none;stroke-opacity:1"
             id="path18056"
             inkscape:connector-curvature="0" /></g><g
           id="g18058"
           transform="translate(92.875,81.1826)"><path
             d="M 0,0 C 0.086,1.441 1.426,3.133 3.527,4.424"
             style="fill:none;stroke:#000000;stroke-width:0.5;stroke-linecap:round;stroke-linejoin:round;stroke-miterlimit:10;stroke-dasharray:none;stroke-opacity:1"
             id="path18060"
             inkscape:connector-curvature="0" /></g><g
           id="g18062"
           transform="translate(106.1309,96.9888)"><path
             d="M 0,0 C 2.331,0.824 4.611,0.821 5.981,0.077"
             style="fill:none;stroke:#000000;stroke-width:0.5;stroke-linecap:round;stroke-linejoin:round;stroke-miterlimit:10;stroke-dasharray:none;stroke-opacity:1"
             id="path18064"
             inkscape:connector-curvature="0" /></g><g
           id="g18066"
           transform="translate(100.7207,91.8457)"><path
             d="M 0,0 C 0.046,0.955 0.655,2.006 1.675,2.951"
             style="fill:none;stroke:#000000;stroke-width:0.5;stroke-linecap:round;stroke-linejoin:round;stroke-miterlimit:10;stroke-dasharray:none;stroke-opacity:1"
             id="path18068"
             inkscape:connector-curvature="0" /></g><g
           id="g18070"
           transform="translate(96.3984,94.6426)"><path
             d="M 0,0 C 0.936,-0.017 1.755,-0.219 2.358,-0.599"
             style="fill:none;stroke:#000000;stroke-width:0.5;stroke-linecap:round;stroke-linejoin:round;stroke-miterlimit:10;stroke-dasharray:none;stroke-opacity:1"
             id="path18072"
             inkscape:connector-curvature="0" /></g><g
           id="g18074"
           transform="translate(88.0273,89.0176)"><path
             d="m 0,0 c 0.059,1.62 1.75,3.549 4.313,4.711 0.08,0.036 0.159,0.071 0.238,0.105"
             style="fill:none;stroke:#000000;stroke-width:0.5;stroke-linecap:round;stroke-linejoin:round;stroke-miterlimit:10;stroke-dasharray:none;stroke-opacity:1"
             id="path18076"
             inkscape:connector-curvature="0" /></g><g
           id="g18078"
           transform="translate(123.4258,78.4414)"><path
             d="M 0,0 C 1.014,-2.281 -2.535,-6.337 -5.324,-7.773 L 0.76,-19.688"
             style="fill:none;stroke:#000000;stroke-width:0.5;stroke-linecap:round;stroke-linejoin:round;stroke-miterlimit:10;stroke-dasharray:none;stroke-opacity:1"
             id="path18080"
             inkscape:connector-curvature="0" /></g><g
           id="g18082"
           transform="translate(124.6924,78.5264)"><path
             d="M 0,0 C 2.028,-3.803 -4.225,-8.281 -4.225,-8.281 L 1.353,-19.773"
             style="fill:none;stroke:#000000;stroke-width:0.5;stroke-linecap:round;stroke-linejoin:round;stroke-miterlimit:10;stroke-dasharray:none;stroke-opacity:1"
             id="path18084"
             inkscape:connector-curvature="0" /></g><g
           id="g18086"
           transform="translate(120.4678,70.2451)"><path
             d="M 0,0 -2.366,0.423"
             style="fill:none;stroke:#000000;stroke-width:0.5;stroke-linecap:round;stroke-linejoin:round;stroke-miterlimit:10;stroke-dasharray:none;stroke-opacity:1"
             id="path18088"
             inkscape:connector-curvature="0" /></g><g
           id="g18090"
           transform="translate(106.4424,89.9863)"><path
             d="m 0,0 c 0,0 0.327,0.344 1.05,-1.164 0.722,-1.508 9.933,-20.606 9.933,-20.606 l 1.691,-0.506 5.408,-10.732"
             style="fill:none;stroke:#000000;stroke-width:1;stroke-linecap:round;stroke-linejoin:round;stroke-miterlimit:10;stroke-dasharray:none;stroke-opacity:1"
             id="path18092"
             inkscape:connector-curvature="0" /></g><g
           id="g18094"
           transform="translate(117.4258,68.2168)"><path
             d="m 0,0 c 0.93,-2.704 -6.76,-7.521 -6.76,-7.521 l 6.253,-11.576 1.86,-0.254 c 0,0 7.013,3.887 5.746,8.028"
             style="fill:none;stroke:#000000;stroke-width:0.5;stroke-linecap:round;stroke-linejoin:round;stroke-miterlimit:10;stroke-dasharray:none;stroke-opacity:1"
             id="path18096"
             inkscape:connector-curvature="0" /></g><g
           id="g18098"
           transform="translate(118.7783,48.8662)"><path
             d="M 0,0 -5.749,11.154 -8.112,11.83"
             style="fill:none;stroke:#000000;stroke-width:0.5;stroke-linecap:round;stroke-linejoin:round;stroke-miterlimit:10;stroke-dasharray:none;stroke-opacity:1"
             id="path18100"
             inkscape:connector-curvature="0" /></g><g
           id="g18102"
           transform="translate(113.0293,60.0205)"><path
             d="M 0,0 C 3.214,1.943 6.003,4.985 6.087,7.689"
             style="fill:none;stroke:#000000;stroke-width:0.5;stroke-linecap:round;stroke-linejoin:round;stroke-miterlimit:10;stroke-dasharray:none;stroke-opacity:1"
             id="path18104"
             inkscape:connector-curvature="0" /></g><g
           id="g18106"
           transform="translate(182.3066,52.2275)"><path
             d="m 0,0 c -0.81,0.475 -1.724,0.742 -2.691,0.742 -1.658,0 -3.157,-0.784 -4.243,-2.052 l -12.45,-12.422 c -1.308,-1.285 -2.14,-3.208 -2.14,-5.36 0,-2.196 0.867,-4.156 2.223,-5.439"
             style="fill:none;stroke:#000000;stroke-width:0.5;stroke-linecap:round;stroke-linejoin:round;stroke-miterlimit:10;stroke-dasharray:none;stroke-opacity:1"
             id="path18108"
             inkscape:connector-curvature="0" /></g><g
           id="g18110"
           transform="translate(163.0059,27.6963)"><path
             d="m 0,0 c 1.031,-0.976 2.346,-1.561 3.776,-1.561 1.387,0 2.663,0.549 3.679,1.47 L 20.101,12.58 c 1.518,1.271 2.508,3.347 2.508,5.693 0,2.738 -1.346,5.108 -3.308,6.258"
             style="fill:none;stroke:#000000;stroke-width:0.25;stroke-linecap:round;stroke-linejoin:round;stroke-miterlimit:10;stroke-dasharray:none;stroke-opacity:1"
             id="path18112"
             inkscape:connector-curvature="0" /></g><g
           id="g18114"
           transform="translate(163.2383,7.7305)"><path
             d="m 0,0 c -0.968,0.524 -1.953,1.309 -2.956,2.405 -5.334,5.834 -15,17.5 -15,17.5 -3.334,4.167 -3.5,9.5 3.333,16.5 6.833,7 18.834,18.5 24.167,23.667 4.469,4.33 9.054,5.733 12.678,3.526"
             style="fill:none;stroke:#000000;stroke-width:0.25;stroke-linecap:round;stroke-linejoin:round;stroke-miterlimit:10;stroke-dasharray:none;stroke-opacity:1"
             id="path18116"
             inkscape:connector-curvature="0" /></g><g
           id="g18118"
           transform="translate(199.6152,53.9697)"><path
             d="m 0,0 c -5.167,6.667 -8.333,11.333 -12.167,15.666 -0.622,0.702 -1.287,1.265 -1.988,1.692 l -4.004,2.076 c -3.415,1.304 -7.508,-0.226 -11.508,-4.101 C -35,10.166 -47.001,-1.334 -53.834,-8.334 c -6.833,-7 -6.667,-12.333 -3.333,-16.5 0,0 9.666,-11.666 15,-17.5 0.707,-0.773 1.405,-1.392 2.095,-1.872 l 3.695,-2.033 c 4.183,-2.266 8.056,0.324 11.71,3.572 4.5,4 19.167,19.333 24,24.167 C 4.166,-13.666 5.167,-6.667 0,0 Z"
             style="fill:none;stroke:#000000;stroke-width:0.5;stroke-linecap:round;stroke-linejoin:round;stroke-miterlimit:10;stroke-dasharray:none;stroke-opacity:1"
             id="path18120"
             inkscape:connector-curvature="0" /></g><g
           id="g18122"
           transform="translate(94.9482,56.8027)"><path
             d="m 0,0 c 5,-7.333 5.166,-13.999 2.5,-22.833 0,0 1.667,-4.417 2.417,-5.167"
             style="fill:none;stroke:#000000;stroke-width:0.25;stroke-linecap:round;stroke-linejoin:round;stroke-miterlimit:10;stroke-dasharray:none;stroke-opacity:1"
             id="path18124"
             inkscape:connector-curvature="0" /></g><g
           id="g18126"
           transform="translate(98.7822,32.4697)"><path
             d="m 0,0 c 20,0.666 37.333,6.166 46.333,17.166 9,11 10.166,12 15.833,18.667 C 67.833,42.5 86.334,52 97.5,39.333"
             style="fill:none;stroke:#000000;stroke-width:0.25;stroke-linecap:round;stroke-linejoin:round;stroke-miterlimit:10;stroke-dasharray:none;stroke-opacity:1"
             id="path18128"
             inkscape:connector-curvature="0" /></g><g
           id="g18130"
           transform="translate(201.6162,51.5225)"><path
             d="m 0,0 c 1.099,6.271 0.482,13.683 -5.334,20.28 0,0 -1,1.333 -5,5.5 -4,4.167 -21.834,10.333 -35.334,-6.167 -13.5,-16.5 -19.832,-24.499 -25.166,-27.166"
             style="fill:none;stroke:#000000;stroke-width:0.5;stroke-linecap:round;stroke-linejoin:round;stroke-miterlimit:10;stroke-dasharray:none;stroke-opacity:1"
             id="path18132"
             inkscape:connector-curvature="0" /></g><g
           id="g18134"
           transform="translate(193.1152,69.3027)"><path
             d="M 0,0 C 3.436,-4.501 5,-7.667 5.333,-13.167"
             style="fill:none;stroke:#000000;stroke-width:0.25;stroke-linecap:round;stroke-linejoin:round;stroke-miterlimit:10;stroke-dasharray:none;stroke-opacity:1"
             id="path18136"
             inkscape:connector-curvature="0" /></g><g
           id="g18138"
           transform="translate(101.9482,28.1357)"><path
             d="m 0,0 c 18.334,0 32.333,4.834 40.5,12.834 8.167,8 16.668,18.666 24.334,27.166 7.666,8.5 21.5,7.5 26.333,1.167"
             style="fill:none;stroke:#000000;stroke-width:0.5;stroke-linecap:round;stroke-linejoin:round;stroke-miterlimit:10;stroke-dasharray:none;stroke-opacity:1"
             id="path18140"
             inkscape:connector-curvature="0" /></g><g
           id="g18142"
           transform="translate(161.6152,8.4697)"><path
             d="M 0,0 C -5.167,-4.5 -22.667,-13.5 -22.667,-13.5"
             style="fill:none;stroke:#000000;stroke-width:0.5;stroke-linecap:round;stroke-linejoin:round;stroke-miterlimit:10;stroke-dasharray:none;stroke-opacity:1"
             id="path18144"
             inkscape:connector-curvature="0" /></g><g
           id="g18146"
           transform="translate(177.3652,132.0527)"><path
             d="M 0,0 C 0,0 2.75,-10.5 4.25,-15 5.75,-19.5 2.75,-28.5 3.5,-34.75 4.25,-41 6,-50.5 6,-50.5"
             style="fill:none;stroke:#000000;stroke-width:0.5;stroke-linecap:round;stroke-linejoin:round;stroke-miterlimit:10;stroke-dasharray:none;stroke-opacity:1"
             id="path18148"
             inkscape:connector-curvature="0" /></g><g
           id="g18150"
           transform="translate(202.6152,51.5527)"><path
             d="M 0,0 C 9.5,-11 23,-15 42,-6.25"
             style="fill:none;stroke:#000000;stroke-width:0.5;stroke-linecap:round;stroke-linejoin:round;stroke-miterlimit:10;stroke-dasharray:none;stroke-opacity:1"
             id="path18152"
             inkscape:connector-curvature="0" /></g><g
           id="g18154"
           transform="translate(195.8652,32.5527)"><path
             d="M 0,0 C 14,-10.75 29.25,-14.75 51.75,-5.75"
             style="fill:none;stroke:#000000;stroke-width:0.5;stroke-linecap:round;stroke-linejoin:round;stroke-miterlimit:10;stroke-dasharray:none;stroke-opacity:1"
             id="path18156"
             inkscape:connector-curvature="0" /></g><g
           id="g18158"
           transform="translate(147.8652,123.8027)"><path
             d="M 0,0 C 0,0 4.5,-12.75 6.25,-17 8,-21.25 10.5,-24.25 11,-30.25 c 0.5,-6 2.5,-17 2.5,-17"
             style="fill:none;stroke:#000000;stroke-width:0.5;stroke-linecap:round;stroke-linejoin:round;stroke-miterlimit:10;stroke-dasharray:none;stroke-opacity:1"
             id="path18160"
             inkscape:connector-curvature="0" /></g><g
           id="g18162"
           transform="translate(105.1152,28.0527)"><path
             d="M 0,0 25,-38"
             style="fill:none;stroke:#000000;stroke-width:0.25;stroke-linecap:round;stroke-linejoin:round;stroke-miterlimit:10;stroke-dasharray:none;stroke-opacity:1"
             id="path18164"
             inkscape:connector-curvature="0" /></g><g
           id="g18166"
           transform="translate(15.1387,42.1523)"><path
             d="m 0,0 c 7.727,-3.1 15.477,4.9 26.227,5.65 10.75,0.75 20,11.25 26,14.5 6,3.25 14.311,12.801 14.53,17.401"
             style="fill:none;stroke:#000000;stroke-width:0.25;stroke-linecap:round;stroke-linejoin:round;stroke-miterlimit:10;stroke-dasharray:none;stroke-opacity:1"
             id="path18168"
             inkscape:connector-curvature="0" /></g><g
           id="g18170"
           transform="translate(30.4375,18.5098)"><path
             d="m 0,0 c 8.678,1.043 10.428,10.293 17.928,11.043 7.5,0.75 13.75,2 19.75,7.25 6,5.25 0.25,5.5 10,7.25 9.75,1.75 12.5,15.25 14,17.75"
             style="fill:none;stroke:#000000;stroke-width:0.25;stroke-linecap:round;stroke-linejoin:round;stroke-miterlimit:10;stroke-dasharray:none;stroke-opacity:1"
             id="path18172"
             inkscape:connector-curvature="0" /></g><g
           id="g18174"
           transform="translate(44.1152,193.8027)"><path
             d="m 0,0 c 8.5,-21.75 12.25,-39.25 14.5,-49 2.25,-9.75 3.5,-13.25 9,-20.5 5.5,-7.25 20.75,-24.75 22,-27.25 1.25,-2.5 10,1.75 7.5,6.5 -2.5,4.75 -15.25,17.5 -19,25.5 -3.75,8 -5.5,8 -9.5,24.25 -4,16.25 -10,34.5 -12.25,42.25"
             style="fill:none;stroke:#000000;stroke-width:1;stroke-linecap:round;stroke-linejoin:round;stroke-miterlimit:10;stroke-dasharray:none;stroke-opacity:1"
             id="path18176"
             inkscape:connector-curvature="0" /></g><g
           id="g18178"
           transform="translate(63.6152,191.3027)"><path
             d="m 0,0 c 0,0 15.75,-37.75 20.75,-43.75 5,-6 12.5,-14.75 21.75,-21.5 9.25,-6.75 36.5,-27 46.25,-58.25"
             style="fill:none;stroke:#000000;stroke-width:0.5;stroke-linecap:round;stroke-linejoin:round;stroke-miterlimit:10;stroke-dasharray:none;stroke-opacity:1"
             id="path18180"
             inkscape:connector-curvature="0" /></g><g
           id="g18182"
           transform="translate(25.1152,191.5527)"><path
             d="M 0,0 C 15.75,-27.5 24,-40.75 34.25,-50.75"
             style="fill:none;stroke:#000000;stroke-width:0.5;stroke-linecap:round;stroke-linejoin:round;stroke-miterlimit:10;stroke-dasharray:none;stroke-opacity:1"
             id="path18184"
             inkscape:connector-curvature="0" /></g><g
           id="g18186"
           transform="translate(119.8652,86.0527)"><path
             d="M 0,0 C 10.25,-7.5 15.75,-20.25 15.75,-20.25"
             style="fill:none;stroke:#000000;stroke-width:0.5;stroke-linecap:round;stroke-linejoin:round;stroke-miterlimit:10;stroke-dasharray:none;stroke-opacity:1"
             id="path18188"
             inkscape:connector-curvature="0" /></g><g
           id="g18190"
           transform="translate(91.2236,96.231)"><path
             d="M 0,0 C 3.764,-4.783 4.782,-11.132 7.84,-14.425"
             style="fill:none;stroke:#000000;stroke-width:1;stroke-linecap:round;stroke-linejoin:round;stroke-miterlimit:10;stroke-dasharray:none;stroke-opacity:1"
             id="path18192"
             inkscape:connector-curvature="0" /></g><g
           id="g18194"
           transform="translate(94.5947,97.2505)"><path
             d="M 0,0 C 2.588,-3.685 5.097,-10.663 7.37,-14.347"
             style="fill:none;stroke:#000000;stroke-width:1;stroke-linecap:round;stroke-linejoin:round;stroke-miterlimit:10;stroke-dasharray:none;stroke-opacity:1"
             id="path18196"
             inkscape:connector-curvature="0" /></g><g
           id="g18198"
           transform="translate(97.417,100.3076)"><path
             d="M 0,0 C 3.293,-2.587 9.958,-2.273 12.31,-6.82"
             style="fill:none;stroke:#000000;stroke-width:1;stroke-linecap:round;stroke-linejoin:round;stroke-miterlimit:10;stroke-dasharray:none;stroke-opacity:1"
             id="path18200"
             inkscape:connector-curvature="0" /></g><g
           id="g18202"
           transform="translate(95.5361,97.7993)"><path
             d="M 0,0 C 4.312,-2.744 9.251,-2.43 11.211,-6.272"
             style="fill:none;stroke:#000000;stroke-width:1;stroke-linecap:round;stroke-linejoin:round;stroke-miterlimit:10;stroke-dasharray:none;stroke-opacity:1"
             id="path18204"
             inkscape:connector-curvature="0" /></g><g
           id="g18206"
           transform="translate(165.1152,180.0527)"><path
             d="m 0,0 7,-21.5 c 2.368,-1.275 4.678,-0.217 5.257,0.362 C 14.77,-18.625 14,-17 12.75,-12.5 11.5,-8 6,8.75 6,8.75"
             style="fill:none;stroke:#000000;stroke-width:0.5;stroke-linecap:round;stroke-linejoin:round;stroke-miterlimit:10;stroke-dasharray:none;stroke-opacity:1"
             id="path18208"
             inkscape:connector-curvature="0" /></g><g
           id="g18210"
           transform="translate(167.4336,183.7129)"><path
             d="M 0,0 1.641,0 9.553,-24.605"
             style="fill:none;stroke:#000000;stroke-width:0.25;stroke-linecap:round;stroke-linejoin:round;stroke-miterlimit:10;stroke-dasharray:none;stroke-opacity:1"
             id="path18212"
             inkscape:connector-curvature="0" /></g><g
           id="g18214"
           transform="translate(140.126,169.3354)"><path
             d="m 0,0 c 0,0 2.799,-0.193 3.185,-1.544 0.385,-1.351 6.657,-21.999 6.947,-23.447 0.29,-1.448 -0.965,-4.246 -2.509,-4.246 -1.544,0 -14.473,-0.772 -20.263,8.395 0,0 -15.037,-13.524 -36.871,-8.024"
             style="fill:none;stroke:#000000;stroke-width:0.5;stroke-linecap:round;stroke-linejoin:round;stroke-miterlimit:10;stroke-dasharray:none;stroke-opacity:1"
             id="path18216"
             inkscape:connector-curvature="0" /></g><g
           id="g18218"
           transform="translate(142.8652,167.5527)"><path
             d="m 0,0 c 0.125,-1.25 -2.283,-1.5 -2.283,-1.5 -10.875,-0.375 -14.342,2 -20.342,6.5 -6,4.5 -13.5,6.75 -13.5,6.75 0,0 -19.625,-7.167 -31.625,-3.333 0,0 -2.667,-2.334 -3.167,-3.5"
             style="fill:none;stroke:#000000;stroke-width:0.25;stroke-linecap:round;stroke-linejoin:round;stroke-miterlimit:10;stroke-dasharray:none;stroke-opacity:1"
             id="path18220"
             inkscape:connector-curvature="0" /></g><g
           id="g18222"
           transform="translate(140.582,166.0527)"><path
             d="M 0,0 7.658,-25.125"
             style="fill:none;stroke:#000000;stroke-width:0.25;stroke-linecap:round;stroke-linejoin:round;stroke-miterlimit:10;stroke-dasharray:none;stroke-opacity:1"
             id="path18224"
             inkscape:connector-curvature="0" /></g><g
           id="g18226"
           transform="translate(122.2402,154.4277)"><path
             d="M 0,0 C -3.25,1.625 -2.625,6 3.125,7.625"
             style="fill:none;stroke:#000000;stroke-width:0.25;stroke-linecap:round;stroke-linejoin:round;stroke-miterlimit:10;stroke-dasharray:none;stroke-opacity:1"
             id="path18228"
             inkscape:connector-curvature="0" /></g><g
           id="g18230"
           transform="translate(141.0625,152.2295)"><path
             d="M 0,0 C -1.689,-1.698 -7.392,-3.517 -18.822,2.198"
             style="fill:none;stroke:#000000;stroke-width:0.5;stroke-linecap:round;stroke-linejoin:round;stroke-miterlimit:10;stroke-dasharray:none;stroke-opacity:1"
             id="path18232"
             inkscape:connector-curvature="0" /></g><g
           id="g18234"
           transform="translate(107.6152,178.5527)"><path
             d="m 0,0 c 9.75,-4.5 14.875,-7 17.75,-16.5 0,0 5.625,-4.5 9.25,-5.25 3.625,-0.75 7.75,-2.25 6.875,-4 -0.091,-0.182 -0.232,-0.376 -0.428,-0.573"
             style="fill:none;stroke:#000000;stroke-width:0.25;stroke-linecap:round;stroke-linejoin:round;stroke-miterlimit:10;stroke-dasharray:none;stroke-opacity:1"
             id="path18236"
             inkscape:connector-curvature="0" /></g><g
           id="g18238"
           transform="translate(122.7822,177.6357)"><path
             d="m 0,0 c 0,0 -6.834,3 -9.334,4 -2.5,1 -3.5,0 -6.833,0.5 -3.333,0.5 -3.5,4 -3.5,4"
             style="fill:none;stroke:#000000;stroke-width:0.5;stroke-linecap:round;stroke-linejoin:round;stroke-miterlimit:10;stroke-dasharray:none;stroke-opacity:1"
             id="path18240"
             inkscape:connector-curvature="0" /></g><g
           id="g18242"
           transform="translate(75.1152,175.9692)"><path
             d="M 0,0 -4.333,11.5"
             style="fill:none;stroke:#000000;stroke-width:0.25;stroke-linecap:round;stroke-linejoin:round;stroke-miterlimit:10;stroke-dasharray:none;stroke-opacity:1"
             id="path18244"
             inkscape:connector-curvature="0" /></g><g
           id="g18246"
           transform="translate(73.7817,168.4692)"><path
             d="M 0,0 C 14,-8 35.334,-0.667 43.5,3.833"
             style="fill:none;stroke:#000000;stroke-width:0.25;stroke-linecap:round;stroke-linejoin:round;stroke-miterlimit:10;stroke-dasharray:none;stroke-opacity:1"
             id="path18248"
             inkscape:connector-curvature="0" /></g><g
           id="g18250"
           transform="translate(78.6152,158.9692)"><path
             d="M 0,0 C 7.167,-3.5 15.999,-1 24.833,0.5 33.667,2 44,7.833 44,7.833"
             style="fill:none;stroke:#000000;stroke-width:0.25;stroke-linecap:round;stroke-linejoin:round;stroke-miterlimit:10;stroke-dasharray:none;stroke-opacity:1"
             id="path18252"
             inkscape:connector-curvature="0" /></g><g
           id="g18254"
           transform="translate(127.4863,148.4932)"><path
             d="M 0,0 -1.204,3.31"
             style="fill:none;stroke:#000000;stroke-width:0.25;stroke-linecap:round;stroke-linejoin:round;stroke-miterlimit:10;stroke-dasharray:none;stroke-opacity:1"
             id="path18256"
             inkscape:connector-curvature="0" /></g><g
           id="g18258"
           transform="translate(96.7822,133.6362)"><path
             d="M 0,0 C 8.833,-3.167 20,0.833 26.5,2.833 33,4.833 36.5,4 36.5,4"
             style="fill:none;stroke:#000000;stroke-width:0.5;stroke-linecap:round;stroke-linejoin:round;stroke-miterlimit:10;stroke-dasharray:none;stroke-opacity:1"
             id="path18260"
             inkscape:connector-curvature="0" /></g><g
           id="g18262"
           transform="translate(93.2822,139.4692)"><path
             d="M 0,0 C 12.5,-2.833 19.833,-1.333 25.5,0.333 31.167,2 34.333,2.667 38,3"
             style="fill:none;stroke:#000000;stroke-width:0.25;stroke-linecap:round;stroke-linejoin:round;stroke-miterlimit:10;stroke-dasharray:none;stroke-opacity:1"
             id="path18264"
             inkscape:connector-curvature="0" /></g><g
           id="g18266"
           transform="translate(190.8652,27.3027)"><path
             d="M 0,0 C 18,-18 36.25,-17.5 55.25,-5.75"
             style="fill:none;stroke:#000000;stroke-width:0.5;stroke-linecap:round;stroke-linejoin:round;stroke-miterlimit:10;stroke-dasharray:none;stroke-opacity:1"
             id="path18268"
             inkscape:connector-curvature="0" /></g><g
           id="g18270"
           transform="translate(94.0459,154.2852)"><path
             d="m 0,0 c 1.838,3.028 6.252,3.707 9.857,1.517 3.606,-2.19 5.039,-6.42 3.202,-9.448"
             style="fill:none;stroke:#000000;stroke-width:0.5;stroke-linecap:round;stroke-linejoin:round;stroke-miterlimit:10;stroke-dasharray:none;stroke-opacity:1"
             id="path18272"
             inkscape:connector-curvature="0" /></g><g
           id="g18274"
           transform="translate(107.1045,146.3545)"><path
             d="m 0,0 c -1.842,-3.027 -6.254,-3.706 -9.859,-1.517 -3.606,2.191 -5.04,6.42 -3.2,9.448"
             style="fill:none;stroke:#000000;stroke-width:0.25;stroke-linecap:round;stroke-linejoin:round;stroke-miterlimit:10;stroke-dasharray:none;stroke-opacity:1"
             id="path18276"
             inkscape:connector-curvature="0" /></g><g
           id="g18278"
           transform="translate(107.5986,147.8013)"><path
             d="m 0,0 c -2.181,-1.756 -5.665,-1.881 -8.61,-0.093 -2.961,1.8 -4.458,4.973 -3.878,7.728"
             style="fill:none;stroke:#000000;stroke-width:0.5;stroke-linecap:round;stroke-linejoin:round;stroke-miterlimit:10;stroke-dasharray:none;stroke-opacity:1"
             id="path18280"
             inkscape:connector-curvature="0" /></g></g></g><text
       transform="matrix(1,0,0,-1,5.0215,2.5234)"
       style="font-variant:normal;font-weight:normal;font-stretch:normal;font-size:4px;font-family:'Swiss 721 SWA';-inkscape-font-specification:Helvetica;writing-mode:lr-tb;fill:#231f20;fill-opacity:1;fill-rule:nonzero;stroke:none"
       id="text18282"><tspan
         x="0 2 2.888 4.888"
         y="0"
         sodipodi:role="line"
         id="tspan18284">cjss</tspan></text>
<g
       id="g18286"
       transform="translate(202.3047,117.5278)"><path
         d="M 0,0 -78.189,-44.225"
         style="fill:none;stroke:#ffffff;stroke-width:3;stroke-linecap:round;stroke-linejoin:miter;stroke-miterlimit:4;stroke-dasharray:none;stroke-opacity:1"
         id="path18288"
         inkscape:connector-curvature="0" /></g><g
       id="g18290"
       transform="translate(124.1152,73.3027)"><path
         d="M 0,0 0,0"
         style="fill:none;stroke:#ffffff;stroke-width:3.75;stroke-linecap:round;stroke-linejoin:miter;stroke-miterlimit:4;stroke-dasharray:none;stroke-opacity:1"
         id="path18292"
         inkscape:connector-curvature="0" /></g><g
       id="g18294"
       transform="translate(202.3047,117.5278)"><path
         d="M 0,0 -78.189,-44.225"
         style="fill:none;stroke:#211f1f;stroke-width:0.5;stroke-linecap:round;stroke-linejoin:miter;stroke-miterlimit:4;stroke-dasharray:none;stroke-opacity:1"
         id="path18296"
         inkscape:connector-curvature="0" /></g><g
       id="g18298"
       transform="translate(124.1152,73.3027)"><path
         d="M 0,0 0,0"
         style="fill:none;stroke:#211f1f;stroke-width:1.5;stroke-linecap:round;stroke-linejoin:miter;stroke-miterlimit:4;stroke-dasharray:none;stroke-opacity:1"
         id="path18300"
         inkscape:connector-curvature="0" /></g><text
       transform="matrix(1,0,0,-1,204.1089,116.3379)"
       style="font-variant:normal;font-weight:bold;font-stretch:normal;font-size:10px;font-family:'Swiss 721 SWA';-inkscape-font-specification:Helvetica-Bold;writing-mode:lr-tb;fill:#231f20;fill-opacity:1;fill-rule:nonzero;stroke:none"
       id="text18302"><tspan
         x="0"
         y="0"
         id="tspan18304">1</tspan></text>
</g></svg>