<?xml version="1.0" encoding="UTF-8" standalone="no"?>
<!-- Created with Inkscape (http://www.inkscape.org/) -->

<svg
   xmlns:dc="http://purl.org/dc/elements/1.1/"
   xmlns:cc="http://creativecommons.org/ns#"
   xmlns:rdf="http://www.w3.org/1999/02/22-rdf-syntax-ns#"
   xmlns:svg="http://www.w3.org/2000/svg"
   xmlns="http://www.w3.org/2000/svg"
   xmlns:sodipodi="http://sodipodi.sourceforge.net/DTD/sodipodi-0.dtd"
   xmlns:inkscape="http://www.inkscape.org/namespaces/inkscape"
   id="svg6288"
   version="1.1"
   inkscape:version="0.91 r13725"
   xml:space="preserve"
   width="301.18124"
   height="230.315"
   viewBox="0 0 301.18124 230.315"
   sodipodi:docname="cgfg_2.svg"><metadata
     id="metadata6294"><rdf:RDF><cc:Work
         rdf:about=""><dc:format>image/svg+xml</dc:format><dc:type
           rdf:resource="http://purl.org/dc/dcmitype/StillImage" /><dc:title></dc:title></cc:Work></rdf:RDF></metadata><defs
     id="defs6292"><clipPath
       clipPathUnits="userSpaceOnUse"
       id="clipPath6302"><path
         d="m 0,184.252 240.945,0 L 240.945,0 0,0 0,184.252 Z"
         id="path6304"
         inkscape:connector-curvature="0" /></clipPath><clipPath
       clipPathUnits="userSpaceOnUse"
       id="clipPath6546"><path
         d="m 0,184.252 240.945,0 L 240.945,0 0,0 0,184.252 Z"
         id="path6548"
         inkscape:connector-curvature="0" /></clipPath></defs><sodipodi:namedview
     pagecolor="#ffffff"
     bordercolor="#666666"
     borderopacity="1"
     objecttolerance="10"
     gridtolerance="10"
     guidetolerance="10"
     inkscape:pageopacity="0"
     inkscape:pageshadow="2"
     inkscape:window-width="640"
     inkscape:window-height="480"
     id="namedview6290"
     showgrid="false"
     inkscape:zoom="4.2072813"
     inkscape:cx="150.59062"
     inkscape:cy="115.1575"
     inkscape:window-x="0"
     inkscape:window-y="0"
     inkscape:window-maximized="1"
     inkscape:current-layer="g6296" /><g
     id="g6296"
     inkscape:groupmode="layer"
     inkscape:label="cgfg_2"
     transform="matrix(1.25,0,0,-1.25,0,230.315)"><g
       id="g6298"><g
         id="g6300"
         clip-path="url(#clipPath6302)"><g
           id="g6306"
           transform="translate(65.8696,178.4019)"><path
             d="m 0,0 c -11.196,-13.397 -33.694,-40.334 -36.149,-43.403 -3.285,-4.103 -5.475,-12.04 -6.02,-14.231 -0.548,-2.188 -4.928,-15.871 -6.296,-18.336 -0.379,-0.683 -6.629,-8.373 -15.465,-19.131"
             style="fill:none;stroke:#000000;stroke-width:0.5;stroke-linecap:round;stroke-linejoin:round;stroke-miterlimit:4;stroke-dasharray:none;stroke-opacity:1"
             id="path6308"
             inkscape:connector-curvature="0" /></g><g
           id="g6310"
           transform="translate(33.2773,139.6519)"><path
             d="M 0,0 C 0,0 -2.728,23.603 -4.332,37.479"
             style="fill:none;stroke:#000000;stroke-width:0.5;stroke-linecap:round;stroke-linejoin:round;stroke-miterlimit:4;stroke-dasharray:none;stroke-opacity:1"
             id="path6312"
             inkscape:connector-curvature="0" /></g><g
           id="g6314"
           transform="translate(2.7358,91.9673)"><path
             d="M 0,0 C 2.308,0.146 4.733,0.437 7.28,0.886"
             style="fill:none;stroke:#000000;stroke-width:0.5;stroke-linecap:round;stroke-linejoin:round;stroke-miterlimit:4;stroke-dasharray:none;stroke-opacity:1"
             id="path6316"
             inkscape:connector-curvature="0" /></g><g
           id="g6318"
           transform="translate(2.4756,114.5459)"><path
             d="M 0,0 C 6.744,0.295 13.964,2.213 21.225,6.222"
             style="fill:none;stroke:#000000;stroke-width:0.5;stroke-linecap:round;stroke-linejoin:round;stroke-miterlimit:4;stroke-dasharray:none;stroke-opacity:1"
             id="path6320"
             inkscape:connector-curvature="0" /></g><g
           id="g6322"
           transform="translate(2.0088,107.0977)"><path
             d="M 0,0 C 6.792,0.381 13.543,2.456 19.5,6.555"
             style="fill:none;stroke:#000000;stroke-width:0.5;stroke-linecap:round;stroke-linejoin:round;stroke-miterlimit:4;stroke-dasharray:none;stroke-opacity:1"
             id="path6324"
             inkscape:connector-curvature="0" /></g><g
           id="g6326"
           transform="translate(215.4014,180.6587)"><path
             d="M 0,0 C 5.083,-5.3 13.75,-14.349 22.238,-23.274"
             style="fill:none;stroke:#000000;stroke-width:0.5;stroke-linecap:round;stroke-linejoin:round;stroke-miterlimit:4;stroke-dasharray:none;stroke-opacity:1"
             id="path6328"
             inkscape:connector-curvature="0" /></g><g
           id="g6330"
           transform="translate(225.3945,170.3037)"><path
             d="M 0,0 C 0,0 1.813,4.817 3.79,10.067"
             style="fill:none;stroke:#000000;stroke-width:0.5;stroke-linecap:round;stroke-linejoin:round;stroke-miterlimit:4;stroke-dasharray:none;stroke-opacity:1"
             id="path6332"
             inkscape:connector-curvature="0" /></g><g
           id="g6334"
           transform="translate(115.7197,179.5371)"><path
             d="M 0,0 C 15.986,-9.507 41.047,-13.626 63.7,0.439"
             style="fill:none;stroke:#000000;stroke-width:0.5;stroke-linecap:round;stroke-linejoin:round;stroke-miterlimit:4;stroke-dasharray:none;stroke-opacity:1"
             id="path6336"
             inkscape:connector-curvature="0" /></g><g
           id="g6338"
           transform="translate(119.8418,181.6885)"><path
             d="M 0,0 C 14.983,-7.349 35.995,-9.923 55.705,0.449"
             style="fill:none;stroke:#000000;stroke-width:0.5;stroke-linecap:round;stroke-linejoin:round;stroke-miterlimit:4;stroke-dasharray:none;stroke-opacity:1"
             id="path6340"
             inkscape:connector-curvature="0" /></g><g
           id="g6342"
           transform="translate(71.8667,104.897)"><path
             d="m 0,0 c 0,0 30.104,41.324 34.757,47.071 4.652,5.748 8.893,6.595 13.41,4.379 13.956,-6.842 36.122,-4.926 44.333,-1.642 6.042,2.418 10.126,5.473 17.243,-2.189 7.114,-7.662 53.363,-62.945 53.363,-62.945"
             style="fill:none;stroke:#000000;stroke-width:0.5;stroke-linecap:round;stroke-linejoin:round;stroke-miterlimit:4;stroke-dasharray:none;stroke-opacity:1"
             id="path6344"
             inkscape:connector-curvature="0" /></g><g
           id="g6346"
           transform="translate(87.7397,97.7822)"><path
             d="m 0,0 c 0,0 -3.559,5.198 -5.2,8.208 -1.642,3.014 -2.188,5.476 0.274,8.759 2.463,3.285 23.535,30.924 27.367,35.85 3.831,4.925 8.482,4.107 13.684,1.643 5.2,-2.463 12.042,-3.557 23.261,-3.557 11.222,0 15.05,1.367 18.61,3.283 3.556,1.916 8.209,4.104 13.135,-0.821 4.927,-4.927 28.736,-32.567 30.926,-35.851 2.191,-3.285 1.643,-6.021 -4.929,-6.021 l -38.584,0 c -3.831,0 -5.473,-4.653 -5.473,-4.653 l -4.655,1.368 c 0,0 -5.201,0 -7.115,-2.735 C 59.386,2.736 55.83,-0.548 55.83,-0.548"
             style="fill:none;stroke:#000000;stroke-width:0.5;stroke-linecap:round;stroke-linejoin:round;stroke-miterlimit:4;stroke-dasharray:none;stroke-opacity:1"
             id="path6348"
             inkscape:connector-curvature="0" /></g><g
           id="g6350"
           transform="translate(137.5908,92.6704)"><path
             d="M 0,0 9.05,0.784 8.125,5.988"
             style="fill:none;stroke:#000000;stroke-width:0.5;stroke-linecap:round;stroke-linejoin:round;stroke-miterlimit:4;stroke-dasharray:none;stroke-opacity:1"
             id="path6352"
             inkscape:connector-curvature="0" /></g><g
           id="g6354"
           transform="translate(204.7656,109.0273)"><path
             d="M 0,0 14.775,-17.539"
             style="fill:none;stroke:#000000;stroke-width:0.5;stroke-linecap:round;stroke-linejoin:round;stroke-miterlimit:4;stroke-dasharray:none;stroke-opacity:1"
             id="path6356"
             inkscape:connector-curvature="0" /></g><g
           id="g6358"
           transform="translate(208.8516,109.9873)"><path
             d="M 0,0 20.181,-23.183"
             style="fill:none;stroke:#000000;stroke-width:0.5;stroke-linecap:round;stroke-linejoin:round;stroke-miterlimit:4;stroke-dasharray:none;stroke-opacity:1"
             id="path6360"
             inkscape:connector-curvature="0" /></g><g
           id="g6362"
           transform="translate(187.9492,87.042)"><path
             d="m 0,0 c 0,0 5.407,-0.479 8.408,-0.479 3.003,0 33.636,-0.36 35.798,-0.24 2.163,0.117 2.761,-0.12 3.243,2.762 0.384,2.295 1.298,6.497 2.02,9.569"
             style="fill:none;stroke:#000000;stroke-width:0.5;stroke-linecap:round;stroke-linejoin:round;stroke-miterlimit:4;stroke-dasharray:none;stroke-opacity:1"
             id="path6364"
             inkscape:connector-curvature="0" /></g><g
           id="g6366"
           transform="translate(190.5928,68.3027)"><path
             d="M 0,0 C 0,0 19.803,0.086 42.661,0.186"
             style="fill:none;stroke:#000000;stroke-width:0.5;stroke-linecap:round;stroke-linejoin:round;stroke-miterlimit:4;stroke-dasharray:none;stroke-opacity:1"
             id="path6368"
             inkscape:connector-curvature="0" /></g><g
           id="g6370"
           transform="translate(160.0674,5.0293)"><path
             d="m 0,0 c -3.131,36.556 -6.355,74.521 -6.355,76.247 0,2.884 -6.847,17.302 -3.604,17.302 3.243,0 29.192,0 37.12,-1.443 0,0 0.36,-12.253 1.08,-16.218 0.611,-3.358 7.94,-50.637 10.827,-71.397"
             style="fill:none;stroke:#000000;stroke-width:0.5;stroke-linecap:round;stroke-linejoin:round;stroke-miterlimit:4;stroke-dasharray:none;stroke-opacity:1"
             id="path6372"
             inkscape:connector-curvature="0" /></g><g
           id="g6374"
           transform="translate(234.0098,38.752)"><path
             d="M 0,0 C -20.869,-0.266 -37.892,-0.481 -37.892,-0.481"
             style="fill:none;stroke:#000000;stroke-width:0.5;stroke-linecap:round;stroke-linejoin:round;stroke-miterlimit:4;stroke-dasharray:none;stroke-opacity:1"
             id="path6376"
             inkscape:connector-curvature="0" /></g><g
           id="g6378"
           transform="translate(234.001,34.4307)"><path
             d="M 0,0 C -21.028,-0.267 -38.241,-0.484 -38.241,-0.484"
             style="fill:none;stroke:#000000;stroke-width:0.5;stroke-linecap:round;stroke-linejoin:round;stroke-miterlimit:4;stroke-dasharray:none;stroke-opacity:1"
             id="path6380"
             inkscape:connector-curvature="0" /></g><g
           id="g6382"
           transform="translate(152.0225,86.1455)"><path
             d="m 0,0 c 0,0 -68.855,-0.274 -69.846,-0.185 -0.992,0.093 -0.661,1.081 -0.661,1.081"
             style="fill:none;stroke:#000000;stroke-width:0.5;stroke-linecap:round;stroke-linejoin:round;stroke-miterlimit:4;stroke-dasharray:none;stroke-opacity:1"
             id="path6384"
             inkscape:connector-curvature="0" /></g><g
           id="g6386"
           transform="translate(24.7847,66.9521)"><path
             d="m 0,0 c 0,0 0.361,4.053 4.144,3.785 3.784,-0.271 33.517,0.629 36.67,0.899 3.153,0.272 3.513,1.624 3.604,3.426 0.09,1.8 -0.451,16.938 -0.631,23.873 -0.18,6.939 11.832,5.556 12.102,2.043 0.271,-3.515 1.051,-23.843 1.322,-26.098 0.271,-2.25 0.361,-3.155 3.154,-3.331 l 68.825,-0.1"
             style="fill:none;stroke:#000000;stroke-width:0.5;stroke-linecap:round;stroke-linejoin:round;stroke-miterlimit:4;stroke-dasharray:none;stroke-opacity:1"
             id="path6388"
             inkscape:connector-curvature="0" /></g><g
           id="g6390"
           transform="translate(68.7808,91.25)"><path
             d="M 0,0 C 0.122,-3.366 -0.6,-6.368 -3.122,-7.332 -5.645,-8.293 -11.411,-8.17 -11.411,-8.17"
             style="fill:none;stroke:#000000;stroke-width:0.5;stroke-linecap:round;stroke-linejoin:round;stroke-miterlimit:4;stroke-dasharray:none;stroke-opacity:1"
             id="path6392"
             inkscape:connector-curvature="0" /></g><g
           id="g6394"
           transform="translate(56.769,71.7861)"><path
             d="M 0,0 -0.12,29.313"
             style="fill:none;stroke:#000000;stroke-width:0.5;stroke-linecap:round;stroke-linejoin:round;stroke-miterlimit:4;stroke-dasharray:none;stroke-opacity:1"
             id="path6396"
             inkscape:connector-curvature="0" /></g><g
           id="g6398"
           transform="translate(29.9805,71.1865)"><path
             d="m 0,0 c 0,0 -0.121,10.213 -0.121,13.094 0,2.882 1.924,14.417 1.924,14.417"
             style="fill:none;stroke:#000000;stroke-width:0.5;stroke-linecap:round;stroke-linejoin:round;stroke-miterlimit:4;stroke-dasharray:none;stroke-opacity:1"
             id="path6400"
             inkscape:connector-curvature="0" /></g><g
           id="g6402"
           transform="translate(31.542,97.6748)"><path
             d="m 0,0 -2.521,9.91 c 0,0 -20.38,-9.57 -26.842,-29.572"
             style="fill:none;stroke:#000000;stroke-width:0.5;stroke-linecap:round;stroke-linejoin:round;stroke-miterlimit:4;stroke-dasharray:none;stroke-opacity:1"
             id="path6404"
             inkscape:connector-curvature="0" /></g><g
           id="g6406"
           transform="translate(30.8218,96.0537)"><path
             d="m 0,0 c -4.144,-3.424 -17.299,-12.075 -18.921,-28.11 -1.621,-16.037 -3.062,-33.875 -7.207,-59.825 -0.087,-0.54 -0.166,-1.077 -0.238,-1.611"
             style="fill:none;stroke:#000000;stroke-width:0.5;stroke-linecap:round;stroke-linejoin:round;stroke-miterlimit:4;stroke-dasharray:none;stroke-opacity:1"
             id="path6408"
             inkscape:connector-curvature="0" /></g><g
           id="g6410"
           transform="translate(245.4463,74.3428)"><path
             d="M 0,0 C 0.726,0.776 1,1.985 0.576,3.9 -0.498,8.724 -4.968,26.778 -4.968,26.778"
             style="fill:none;stroke:#000000;stroke-width:0.30000001;stroke-linecap:round;stroke-linejoin:round;stroke-miterlimit:4;stroke-dasharray:none;stroke-opacity:1"
             id="path6412"
             inkscape:connector-curvature="0" /></g><g
           id="g6414"
           transform="translate(190.6152,71.9863)"><path
             d="M 0,0 C 0,0 26.687,0.419 40.901,0.695"
             style="fill:none;stroke:#000000;stroke-width:0.5;stroke-linecap:round;stroke-linejoin:round;stroke-miterlimit:4;stroke-dasharray:none;stroke-opacity:1"
             id="path6416"
             inkscape:connector-curvature="0" /></g><g
           id="g6418"
           transform="translate(233.8672,85.5713)"><path
             d="M 0,0 2.146,-11.44"
             style="fill:none;stroke:#000000;stroke-width:0.30000001;stroke-linecap:round;stroke-linejoin:round;stroke-miterlimit:4;stroke-dasharray:none;stroke-opacity:1"
             id="path6420"
             inkscape:connector-curvature="0" /></g><g
           id="g6422"
           transform="translate(236.1895,86.8203)"><path
             d="M 0,0 3.576,-13.225"
             style="fill:none;stroke:#000000;stroke-width:0.30000001;stroke-linecap:round;stroke-linejoin:round;stroke-miterlimit:4;stroke-dasharray:none;stroke-opacity:1"
             id="path6424"
             inkscape:connector-curvature="0" /></g><g
           id="g6426"
           transform="translate(154.5547,68.3027)"><path
             d="m 0,0 -132.142,-1.683 -1.682,-29.55 0.241,-6.247"
             style="fill:none;stroke:#000000;stroke-width:0.5;stroke-linecap:round;stroke-linejoin:round;stroke-miterlimit:4;stroke-dasharray:none;stroke-opacity:1"
             id="path6428"
             inkscape:connector-curvature="0" /></g><g
           id="g6430"
           transform="translate(33.2241,105.3022)"><path
             d="m 0,0 22.586,0.241 c 0,0 0.478,-6.968 0.478,-14.655 0,-7.689 -24.746,-12.733 -25.227,-0.241 C -2.642,-2.161 0,0 0,0 Z"
             style="fill:none;stroke:#000000;stroke-width:0.5;stroke-linecap:round;stroke-linejoin:round;stroke-miterlimit:4;stroke-dasharray:none;stroke-opacity:1"
             id="path6432"
             inkscape:connector-curvature="0" /></g><g
           id="g6434"
           transform="translate(31.542,78.1533)"><path
             d="M 0,0 24.268,0"
             style="fill:none;stroke:#000000;stroke-width:0.5;stroke-linecap:round;stroke-linejoin:round;stroke-miterlimit:4;stroke-dasharray:none;stroke-opacity:1"
             id="path6436"
             inkscape:connector-curvature="0" /></g><g
           id="g6438"
           transform="translate(21.6924,36.5898)"><path
             d="M 0,0 135.264,1.681"
             style="fill:none;stroke:#000000;stroke-width:0.5;stroke-linecap:round;stroke-linejoin:round;stroke-miterlimit:4;stroke-dasharray:none;stroke-opacity:1"
             id="path6440"
             inkscape:connector-curvature="0" /></g><g
           id="g6442"
           transform="translate(20.9717,32.2656)"><path
             d="M 0,0 C 0,0 -1.398,-20.983 -1.81,-29.534"
             style="fill:none;stroke:#000000;stroke-width:0.5;stroke-linecap:round;stroke-linejoin:round;stroke-miterlimit:4;stroke-dasharray:none;stroke-opacity:1"
             id="path6444"
             inkscape:connector-curvature="0" /></g><g
           id="g6446"
           transform="translate(22.4126,29.6211)"><path
             d="m 0,0 c 0,0 0.721,3.124 5.045,3.124 4.326,0 129.979,0.964 129.979,0.964"
             style="fill:none;stroke:#000000;stroke-width:0.5;stroke-linecap:round;stroke-linejoin:round;stroke-miterlimit:4;stroke-dasharray:none;stroke-opacity:1"
             id="path6448"
             inkscape:connector-curvature="0" /></g><g
           id="g6450"
           transform="translate(22.1724,3.6738)"><path
             d="m 0,0 c 0,-2.882 1.684,-5.046 4.086,-5.046 l 133.823,0"
             style="fill:none;stroke:#000000;stroke-width:0.5;stroke-linecap:round;stroke-linejoin:round;stroke-miterlimit:4;stroke-dasharray:none;stroke-opacity:1"
             id="path6452"
             inkscape:connector-curvature="0" /></g><g
           id="g6454"
           transform="translate(140.2705,94.6772)"><path
             d="M 0,0 -11.169,47.901"
             style="fill:none;stroke:#000000;stroke-width:0.5;stroke-linecap:round;stroke-linejoin:round;stroke-miterlimit:4;stroke-dasharray:none;stroke-opacity:1"
             id="path6456"
             inkscape:connector-curvature="0" /></g><g
           id="g6458"
           transform="translate(156.7432,109.4448)"><path
             d="M 0,0 C 0.19,0.757 5.68,35.595 5.68,35.595"
             style="fill:none;stroke:#000000;stroke-width:0.5;stroke-linecap:round;stroke-linejoin:round;stroke-miterlimit:4;stroke-dasharray:none;stroke-opacity:1"
             id="path6460"
             inkscape:connector-curvature="0" /></g><g
           id="g6462"
           transform="translate(156.5059,131.3262)"><path
             d="m 0,0 c 0,-4.702 -4.356,-8.514 -9.729,-8.514 -5.376,0 -9.732,3.812 -9.732,8.514"
             style="fill:none;stroke:#000000;stroke-width:0.5;stroke-linecap:round;stroke-linejoin:round;stroke-miterlimit:4;stroke-dasharray:none;stroke-opacity:1"
             id="path6464"
             inkscape:connector-curvature="0" /></g><g
           id="g6466"
           transform="translate(137.0449,128.9404)"><path
             d="m 0,0 c 0,-4.704 4.355,-8.516 9.731,-8.516 5.373,0 9.73,3.812 9.73,8.516 l 0,2.386 c 0,4.701 -4.357,8.515 -9.73,8.515 C 4.355,10.901 0,7.087 0,2.386 L 0,0 Z"
             style="fill:none;stroke:#000000;stroke-width:0.5;stroke-linecap:round;stroke-linejoin:round;stroke-miterlimit:4;stroke-dasharray:none;stroke-opacity:1"
             id="path6468"
             inkscape:connector-curvature="0" /></g><g
           id="g6470"
           transform="translate(151.2695,132.6387)"><path
             d="m 0,0 -2.181,-1.17 -0.089,-2.216 -2.27,1.043 -2.275,-1.039 -0.091,2.214 -2.178,1.171 2.178,1.171 0.091,2.209 L -4.543,2.346 -2.27,3.383 -2.181,1.171 0,0 Z"
             style="fill:none;stroke:#000000;stroke-width:0.5;stroke-linecap:round;stroke-linejoin:round;stroke-miterlimit:4;stroke-dasharray:none;stroke-opacity:1"
             id="path6472"
             inkscape:connector-curvature="0" /></g><g
           id="g6474"
           transform="translate(92.8076,86.5625)"><path
             d="m 0,0 c 0,0 -2.403,7.45 -2.523,8.171 -0.118,0.718 -1.561,8.408 -0.48,8.768 1.082,0.361 36.04,9.97 37,10.089 0.96,0.122 2.762,-0.959 3.004,-2.038 0.239,-1.082 6.727,-24.511 6.727,-24.511"
             style="fill:none;stroke:#000000;stroke-width:1.5;stroke-linecap:round;stroke-linejoin:round;stroke-miterlimit:4;stroke-dasharray:none;stroke-opacity:1"
             id="path6476"
             inkscape:connector-curvature="0" /></g><g
           id="g6478"
           transform="translate(133.0508,100.498)"><path
             d="M 0,0 1.081,0.241 3.245,-6.006 2.402,-7.207"
             style="fill:none;stroke:#000000;stroke-width:0.5;stroke-linecap:round;stroke-linejoin:round;stroke-miterlimit:4;stroke-dasharray:none;stroke-opacity:1"
             id="path6480"
             inkscape:connector-curvature="0" /></g><g
           id="g6482"
           transform="translate(91.6064,94.9722)"><path
             d="M 0,0 38.681,10.211"
             style="fill:none;stroke:#000000;stroke-width:1.5;stroke-linecap:round;stroke-linejoin:round;stroke-miterlimit:4;stroke-dasharray:none;stroke-opacity:1"
             id="path6484"
             inkscape:connector-curvature="0" /></g><g
           id="g6486"
           transform="translate(109.5059,86.8047)"><path
             d="M 0,0 -1.321,3.603 9.01,6.728 11.052,0.357"
             style="fill:none;stroke:#000000;stroke-width:0.5;stroke-linecap:round;stroke-linejoin:round;stroke-miterlimit:4;stroke-dasharray:none;stroke-opacity:1"
             id="path6488"
             inkscape:connector-curvature="0" /></g><g
           id="g6490"
           transform="translate(121.6377,86.8047)"><path
             d="M 0,0 13.334,4.563"
             style="fill:none;stroke:#000000;stroke-width:0.5;stroke-linecap:round;stroke-linejoin:round;stroke-miterlimit:4;stroke-dasharray:none;stroke-opacity:1"
             id="path6492"
             inkscape:connector-curvature="0" /></g><g
           id="g6494"
           transform="translate(187.5889,91.9082)"><path
             d="m 0,0 c 0,0 6.306,-0.719 8.829,-0.719 2.522,0 1.144,-4.567 -0.06,-4.627"
             style="fill:none;stroke:#000000;stroke-width:0.5;stroke-linecap:round;stroke-linejoin:round;stroke-miterlimit:4;stroke-dasharray:none;stroke-opacity:1"
             id="path6496"
             inkscape:connector-curvature="0" /></g><g
           id="g6498"
           transform="translate(149.3877,91.9082)"><path
             d="m 0,0 c 0,0 -5.587,0.721 -7.93,0.721 -2.341,0 -3.963,-3.964 -0.719,-4.326 3.244,-0.357 11.172,-1.082 11.172,-1.082"
             style="fill:none;stroke:#000000;stroke-width:0.5;stroke-linecap:round;stroke-linejoin:round;stroke-miterlimit:4;stroke-dasharray:none;stroke-opacity:1"
             id="path6500"
             inkscape:connector-curvature="0" /></g><g
           id="g6502"
           transform="translate(29.8257,104.8643)"><path
             d="M 0,0 2.108,0.405"
             style="fill:none;stroke:#000000;stroke-width:0.5;stroke-linecap:round;stroke-linejoin:round;stroke-miterlimit:4;stroke-dasharray:none;stroke-opacity:1"
             id="path6504"
             inkscape:connector-curvature="0" /></g><g
           id="g6506"
           transform="translate(53.8384,90.7148)"><path
             d="m 0,0 c 0,-2.694 -3.726,-6.09 -10.117,-6.09 -6.394,0 -10.117,3.396 -10.117,6.09 l 0,5.065 c 0,2.7 3.725,6.095 10.117,6.095 C -3.726,11.166 0,7.765 0,5.065 L 0,0 Z"
             style="fill:none;stroke:#000000;stroke-width:0.5;stroke-linecap:round;stroke-linejoin:round;stroke-miterlimit:4;stroke-dasharray:none;stroke-opacity:1"
             id="path6508"
             inkscape:connector-curvature="0" /></g><g
           id="g6510"
           transform="translate(43.7236,101.9165)"><path
             d="m 0,0 c 4.755,0 8.615,-2.233 8.615,-4.98 0,-2.754 -3.86,-4.981 -8.615,-4.981 -4.764,0 -8.619,2.227 -8.619,4.981 C -8.619,-2.233 -4.761,0 0,0 Z"
             style="fill:none;stroke:#000000;stroke-width:0.5;stroke-linecap:round;stroke-linejoin:round;stroke-miterlimit:4;stroke-dasharray:none;stroke-opacity:1"
             id="path6512"
             inkscape:connector-curvature="0" /></g><g
           id="g6514"
           transform="translate(53.8682,96.0596)"><path
             d="m 0,0 c -1.571,-0.423 -3.317,-1.898 -4.548,-4.032 -0.191,-0.325 -0.348,-0.659 -0.497,-0.989 -1.465,0.571 -3.23,0.908 -5.131,0.908 -1.88,0 -3.625,-0.33 -5.079,-0.894 -0.149,0.328 -0.304,0.65 -0.49,0.975 -1.212,2.101 -2.918,3.561 -4.468,4.008"
             style="fill:none;stroke:#000000;stroke-width:0.5;stroke-linecap:round;stroke-linejoin:round;stroke-miterlimit:4;stroke-dasharray:none;stroke-opacity:1"
             id="path6516"
             inkscape:connector-curvature="0" /></g><g
           id="g6518"
           transform="translate(38.6128,91.0527)"><path
             d="M 0,0 0,-5.523"
             style="fill:none;stroke:#000000;stroke-width:0.5;stroke-linecap:round;stroke-linejoin:round;stroke-miterlimit:4;stroke-dasharray:none;stroke-opacity:1"
             id="path6520"
             inkscape:connector-curvature="0" /></g><g
           id="g6522"
           transform="translate(48.7939,91.0527)"><path
             d="M 0,0 0,-5.523"
             style="fill:none;stroke:#000000;stroke-width:0.5;stroke-linecap:round;stroke-linejoin:round;stroke-miterlimit:4;stroke-dasharray:none;stroke-opacity:1"
             id="path6524"
             inkscape:connector-curvature="0" /></g><g
           id="g6526"
           transform="translate(46.2798,99.4482)"><path
             d="m 0,0 -2.638,-1.636 -2.253,1.896 -1.233,-0.766 2.252,-1.899 -2.632,-1.639 1.081,-0.909 2.63,1.636 2.253,-1.898 1.233,0.768 -2.251,1.896 2.637,1.639 L 0,0 Z"
             style="fill:none;stroke:#000000;stroke-width:0.5;stroke-linecap:round;stroke-linejoin:round;stroke-miterlimit:4;stroke-dasharray:none;stroke-opacity:1"
             id="path6528"
             inkscape:connector-curvature="0" /></g></g></g><text
       transform="matrix(1,0,0,-1,198.3545,151.8584)"
       style="font-variant:normal;font-weight:bold;font-stretch:normal;font-size:12px;font-family:'Swiss 721 SWA';-inkscape-font-specification:Helvetica-Bold;writing-mode:lr-tb;fill:#231f20;fill-opacity:1;fill-rule:nonzero;stroke:none"
       id="text6530"><tspan
         x="0"
         y="0"
         id="tspan6532">2</tspan></text>
<text
       transform="matrix(1,0,0,-1,2.9326,3.5908)"
       style="font-variant:normal;font-weight:normal;font-stretch:normal;font-size:5px;font-family:'Swiss 721 SWA';-inkscape-font-specification:Helvetica;writing-mode:lr-tb;fill:#231f20;fill-opacity:1;fill-rule:nonzero;stroke:none"
       id="text6534"><tspan
         x="0 2.5 5.2800002 6.6700001 9.4499998 12.23"
         y="0"
         sodipodi:role="line"
         id="tspan6536">cgfg_2</tspan></text>
<g
       id="g6538"
       transform="translate(114.6318,51.2568)"><path
         d="M 0,0 81.352,99.571"
         style="fill:none;stroke:#ffffff;stroke-width:2;stroke-linecap:round;stroke-linejoin:round;stroke-miterlimit:4;stroke-dasharray:none;stroke-opacity:1"
         id="path6540"
         inkscape:connector-curvature="0" /></g><g
       id="g6542"><g
         id="g6544"
         clip-path="url(#clipPath6546)"><g
           id="g6550"
           transform="translate(114.5088,50.2871)"><path
             d="M 0,0 C 0.537,0 0.972,0.434 0.972,0.971 0.972,1.506 0.537,1.94 0,1.94 -0.535,1.94 -0.969,1.506 -0.969,0.971 -0.969,0.434 -0.535,0 0,0"
             style="fill:#231f20;fill-opacity:1;fill-rule:nonzero;stroke:none"
             id="path6552"
             inkscape:connector-curvature="0" /></g><g
           id="g6554"
           transform="translate(114.5088,50.2871)"><path
             d="M 0,0 C 0.537,0 0.972,0.434 0.972,0.971 0.972,1.506 0.537,1.94 0,1.94 -0.535,1.94 -0.969,1.506 -0.969,0.971 -0.969,0.434 -0.535,0 0,0 Z"
             style="fill:none;stroke:#ffffff;stroke-width:1;stroke-linecap:butt;stroke-linejoin:miter;stroke-miterlimit:4;stroke-dasharray:none;stroke-opacity:1"
             id="path6556"
             inkscape:connector-curvature="0" /></g><g
           id="g6558"
           transform="translate(114.6318,51.2568)"><path
             d="M 0,0 81.352,99.571"
             style="fill:none;stroke:#231f20;stroke-width:0.5;stroke-linecap:round;stroke-linejoin:round;stroke-miterlimit:4;stroke-dasharray:none;stroke-opacity:1"
             id="path6560"
             inkscape:connector-curvature="0" /></g><g
           id="g6562"
           transform="translate(104.1763,102.0776)"><path
             d="M 0,0 -43.64,39.208"
             style="fill:none;stroke:#ffffff;stroke-width:2;stroke-linecap:round;stroke-linejoin:round;stroke-miterlimit:4;stroke-dasharray:none;stroke-opacity:1"
             id="path6564"
             inkscape:connector-curvature="0" /></g><g
           id="g6566"
           transform="translate(104.0532,101.1079)"><path
             d="M 0,0 C 0.537,0 0.972,0.434 0.972,0.971 0.972,1.506 0.537,1.94 0,1.94 -0.535,1.94 -0.969,1.506 -0.969,0.971 -0.969,0.434 -0.535,0 0,0"
             style="fill:#231f20;fill-opacity:1;fill-rule:nonzero;stroke:none"
             id="path6568"
             inkscape:connector-curvature="0" /></g><g
           id="g6570"
           transform="translate(104.0532,101.1079)"><path
             d="M 0,0 C 0.537,0 0.972,0.434 0.972,0.971 0.972,1.506 0.537,1.94 0,1.94 -0.535,1.94 -0.969,1.506 -0.969,0.971 -0.969,0.434 -0.535,0 0,0 Z"
             style="fill:none;stroke:#ffffff;stroke-width:1;stroke-linecap:butt;stroke-linejoin:miter;stroke-miterlimit:4;stroke-dasharray:none;stroke-opacity:1"
             id="path6572"
             inkscape:connector-curvature="0" /></g><g
           id="g6574"
           transform="translate(104.1763,102.0776)"><path
             d="M 0,0 -43.64,39.208"
             style="fill:none;stroke:#231f20;stroke-width:0.5;stroke-linecap:round;stroke-linejoin:round;stroke-miterlimit:4;stroke-dasharray:none;stroke-opacity:1"
             id="path6576"
             inkscape:connector-curvature="0" /></g></g></g><text
       transform="matrix(1,0,0,-1,54.8364,144.1411)"
       style="font-variant:normal;font-weight:bold;font-stretch:normal;font-size:12px;font-family:'Swiss 721 SWA';-inkscape-font-specification:Helvetica-Bold;writing-mode:lr-tb;fill:#231f20;fill-opacity:1;fill-rule:nonzero;stroke:none"
       id="text6578"><tspan
         x="0"
         y="0"
         id="tspan6580">1</tspan></text>
</g></svg>