<?xml version="1.0" encoding="UTF-8" standalone="no"?>
<!-- Created with Inkscape (http://www.inkscape.org/) -->

<svg
   xmlns:dc="http://purl.org/dc/elements/1.1/"
   xmlns:cc="http://creativecommons.org/ns#"
   xmlns:rdf="http://www.w3.org/1999/02/22-rdf-syntax-ns#"
   xmlns:svg="http://www.w3.org/2000/svg"
   xmlns="http://www.w3.org/2000/svg"
   xmlns:sodipodi="http://sodipodi.sourceforge.net/DTD/sodipodi-0.dtd"
   xmlns:inkscape="http://www.inkscape.org/namespaces/inkscape"
   id="svg302662"
   version="1.1"
   inkscape:version="0.91 r13725"
   xml:space="preserve"
   width="301.18124"
   height="230.315"
   viewBox="0 0 301.18124 230.315"
   sodipodi:docname="gagd.svg"><metadata
     id="metadata302668"><rdf:RDF><cc:Work
         rdf:about=""><dc:format>image/svg+xml</dc:format><dc:type
           rdf:resource="http://purl.org/dc/dcmitype/StillImage" /><dc:title></dc:title></cc:Work></rdf:RDF></metadata><defs
     id="defs302666"><clipPath
       clipPathUnits="userSpaceOnUse"
       id="clipPath302678"><path
         d="m 0,184.252 240.945,0 L 240.945,0 0,0 0,184.252 Z"
         id="path302680"
         inkscape:connector-curvature="0" /></clipPath></defs><sodipodi:namedview
     pagecolor="#ffffff"
     bordercolor="#666666"
     borderopacity="1"
     objecttolerance="10"
     gridtolerance="10"
     guidetolerance="10"
     inkscape:pageopacity="0"
     inkscape:pageshadow="2"
     inkscape:window-width="640"
     inkscape:window-height="480"
     id="namedview302664"
     showgrid="false"
     inkscape:zoom="4.2072813"
     inkscape:cx="150.59062"
     inkscape:cy="115.1575"
     inkscape:window-x="0"
     inkscape:window-y="0"
     inkscape:window-maximized="1"
     inkscape:current-layer="g302670" /><g
     id="g302670"
     inkscape:groupmode="layer"
     inkscape:label="gagd"
     transform="matrix(1.25,0,0,-1.25,0,230.315)"><path
       d="m 0,0 240.945,0 0,184.252 L 0,184.252 0,0 Z"
       style="fill:#ffffff;fill-opacity:1;fill-rule:nonzero;stroke:none"
       id="path302672"
       inkscape:connector-curvature="0" /><g
       id="g302674"><g
         id="g302676"
         clip-path="url(#clipPath302678)"><g
           id="g302682"
           transform="translate(175.8721,93.2412)"><path
             d="m 0,0 c -0.383,-0.009 -0.898,0.29 -1.281,0.162 l -22.391,4.764 c -2.178,-2.587 -2.382,-6.329 -3.606,-9.46 l -2.79,-13.407 -1.634,-11.911 0.204,-3.606 11.774,-2.45 12.249,-2.45 c 0.681,-0.34 0,-1.225 0,-1.769 -0.953,-0.137 -2.177,0.068 -3.13,0.477 l -9.324,1.769 c -3.334,0.68 -6.601,1.292 -9.935,1.973 -1.294,-2.11 -1.157,-5.921 -4.424,-6.057 -0.749,-1.156 -0.885,-2.859 -2.315,-3.402 -2.45,-0.204 -4.899,0.884 -7.486,0.953 l -8.303,1.633 c -0.952,-2.246 -1.564,-4.697 -1.973,-7.146 0.341,-0.886 -0.544,-1.293 -0.68,-1.974 -0.885,-3.47 -4.22,-6.397 -7.351,-7.691 -4.695,-1.02 -9.459,0.205 -12.386,4.084 0.501,-0.536 0.522,15.484 0.604,14.904 l -3.054,0.612 c -3.402,-2.518 -6.465,-6.873 -11.433,-5.375 l -9.46,1.633 -9.664,1.974 c -2.995,-4.152 -7.01,-8.031 -6.398,-13.408 l -1.769,-7.69 -2.926,-13.066 c -0.136,-0.613 -0.34,-1.498 -1.021,-1.634 l 0.681,3.744 4.764,21.232 c -0.341,1.021 0.612,2.314 -0.205,3.268 -1.905,0.203 -3.742,0.816 -5.512,1.293 2.042,0.135 4.152,-0.477 6.193,-0.954 1.429,2.451 2.926,4.968 4.9,7.215 -1.77,1.224 -1.361,4.151 -1.497,5.852 -1.566,-0.544 -3.608,-1.634 -5.717,-0.952 -2.041,0.816 -3.403,2.721 -3.743,4.9 0,2.586 0.953,5.376 3.403,6.329 1.77,0.612 3.403,0.407 4.9,-0.477 l 1.633,-1.634 c 0.613,1.225 0.953,2.928 0.34,4.221 l -13.406,2.653 -0.272,-0.34 -1.634,-8.304 c -1.769,-7.214 4.22,-12.113 3.879,-19.123 0.068,-2.926 -0.612,-5.511 -1.157,-8.167 l -4.355,-20.28 c -0.749,-0.611 -1.362,-1.293 -1.634,-2.245 l -0.545,0 0,0.816 2.655,12.387 3.267,16.333 c 0.476,5.581 -4.015,10.412 -3.743,16.47 l -0.205,2.79 c -2.449,2.313 -5.58,0.613 -8.302,0.204 l -13.067,-2.314 -4.9,0.135 -8.167,1.635 c -2.042,0.407 -4.151,0.475 -5.716,1.837 0.067,0.952 1.293,0.886 1.973,0.612 6.874,-0.407 13.339,-4.354 20.417,-1.905 l 2.449,0.136 12.251,2.449 0.136,0 c 0,1.498 -0.409,3.199 -0.476,4.901 l 0,10.276 1.156,10.617 c 0.477,2.79 0.953,5.581 1.43,8.37 l 2.109,9.801 2.791,9.256 c 1.497,4.151 2.722,8.371 5.92,11.773 l -1.973,1.838 -15.04,10.752 -2.314,0.953 -17.15,3.131 c -0.817,0 -1.497,-0.953 -1.77,-1.634 l -2.586,-7.009 -2.314,-8.031 -1.497,-5.512 -2.246,-9.801 c -0.885,-2.518 -0.953,-5.24 -1.837,-7.69 l -0.613,-0.34 c -0.408,1.089 -0.816,2.518 -0.204,3.608 l 2.45,11.432 c 0.477,1.293 0.612,2.722 1.021,4.084 l 3.402,12.386 c 1.43,2.995 1.702,6.533 3.607,9.324 l -0.68,0.68 c 0.749,0 1.566,-0.204 1.973,0.613 4.22,-0.477 8.303,-1.293 12.454,-1.973 l 8.44,-1.907 1.837,-1.361 17.491,-12.522 c 3.266,-1.973 2.313,2.586 3.879,3.743 l 3.13,3.403 6.67,5.716 1.294,1.634 1.972,9.46 2.928,13.271 1.02,3.878 0.612,0.341 c 0,-0.613 0.613,-0.613 1.021,-0.817 l -2.11,-10.616 -3.811,-16.674 0,-0.273 6.534,-1.36 c 1.633,2.042 0.884,5.036 1.974,7.213 l 0.68,3.607 1.974,8.303 c 0.544,2.178 0.748,4.56 1.769,6.534 -0.068,-2.45 -1.089,-5.172 -1.497,-7.826 -1.43,-7.215 -4.492,-14.157 -3.743,-21.914 0.271,-0.681 0.136,-1.566 0.817,-2.11 l 19.463,-3.608 c 3.743,-1.02 5.508,-7.818 7.958,-10.268 1.974,2.994 3.815,7.415 7.626,7.483 4.084,-0.068 7.419,-0.073 10.346,-2.387 3.538,-3.811 3.607,-9.8 2.45,-14.7 l 4.083,-1.021 9.189,-1.768 c 1.496,-0.613 4.014,0.066 4.218,-2.315 0.681,-1.157 -0.749,-3.675 1.497,-3.744 0.614,-1.428 0.204,-3.265 0.34,-4.899 L -21.698,6.219 -13.872,4.79 0.012,1.795 C 0.216,1.863 0.352,1.591 0.488,1.523 L 0,0 Z"
             style="fill:#231f20;fill-opacity:1;fill-rule:nonzero;stroke:none"
             id="path302684"
             inkscape:connector-curvature="0" /></g><g
           id="g302686"
           transform="translate(149.0703,94.8999)"><path
             d="m 0,0 c -1.158,-4.627 -2.382,-9.188 -3.267,-13.883 l -1.769,-9.937 -0.953,-8.37 c 0.272,-1.362 -0.817,-3.607 0.953,-4.084 -0.409,-1.701 -1.089,-3.334 -1.975,-4.899 l 0,5.58 1.294,11.093 c -0.885,0.136 -0.341,-1.498 -0.953,-2.11 l -1.293,-11.638 -0.204,-2.722 c -0.817,-0.068 -0.341,0.953 -0.612,1.43 -0.205,4.151 0.884,7.757 0.952,11.773 l 1.974,11.569 3.266,14.429 2.45,8.303 c 0.408,0.68 0.545,1.633 1.157,2.109 l 0.477,0 C 0.885,6.329 -0.205,3.812 -0.816,1.293 -1.565,-1.633 -2.587,-4.696 -2.723,-7.69 -0.953,-2.585 0.34,2.655 2.654,7.486 2.858,6.602 2.858,5.376 2.654,4.424 1.089,3.54 0.748,1.566 0,0"
             style="fill:#ffffff;fill-opacity:1;fill-rule:nonzero;stroke:none"
             id="path302688"
             inkscape:connector-curvature="0" /></g><g
           id="g302690"
           transform="translate(148.2539,103.543)"><path
             d="m 0,0 c -1.09,-3.334 -2.179,-6.737 -3.268,-10.14 l -3.402,-16.809 -1.634,-9.324 c -0.068,0.748 0.204,1.428 0,1.974 -0.476,-0.137 -0.136,-0.68 -0.476,-0.954 l 0.135,-0.204 -0.135,0 -0.816,-4.561 -1.158,-10.276 -0.136,-3.266 c -1.701,0.204 -3.743,0.137 -4.763,1.293 l 0.135,5.718 1.022,8.165 1.769,11.435 3.471,16.537 c 1.293,5.444 2.449,10.957 4.9,15.993 C -3.063,6.125 -1.226,5.24 0.34,5.104 -0.478,2.586 -1.294,-0.34 -2.11,-3.063 l -2.11,-8.166 c 0.272,-1.77 -1.157,-2.994 -0.68,-4.628 0.816,0.613 0.544,1.565 0.816,2.314 l 1.157,4.56 L 0,1.021 C 0.611,2.042 0.748,3.268 1.496,4.288 2.722,2.518 0.748,1.361 0,0"
             style="fill:#ffffff;fill-opacity:1;fill-rule:nonzero;stroke:none"
             id="path302692"
             inkscape:connector-curvature="0" /></g><g
           id="g302694"
           transform="translate(136.207,85.7803)"><path
             d="m 0,0 -2.109,-10.82 -1.634,-10.753 -1.021,-11.093 0,-2.179 c -2.994,0.614 -6.192,0.749 -8.983,1.838 -0.477,4.901 0.408,8.848 0.817,13.679 l 1.974,12.455 1.633,8.303 2.109,9.664 2.315,8.507 c 0.749,2.041 1.088,4.491 2.79,5.988 L 6.329,23.957 C 3.471,16.266 1.361,8.303 0,0"
             style="fill:#ffffff;fill-opacity:1;fill-rule:nonzero;stroke:none"
             id="path302696"
             inkscape:connector-curvature="0" /></g><g
           id="g302698"
           transform="translate(138.793,50.3232)"><path
             d="M 0,0 C -1.021,0.953 -0.068,3.335 -0.34,4.9 L 0.205,9.324 C 0.341,7.01 -0.204,5.037 0.681,3.063 l 0.817,0 C 0.477,2.246 0.748,0.953 0,0"
             style="fill:#ffffff;fill-opacity:1;fill-rule:nonzero;stroke:none"
             id="path302700"
             inkscape:connector-curvature="0" /></g><path
           d="m 139.609,65.363 0.204,0 0,-0.681 -0.204,0 0,0.681 z"
           style="fill:#ffffff;fill-opacity:1;fill-rule:nonzero;stroke:none"
           id="path302702"
           inkscape:connector-curvature="0" /><g
           id="g302704"
           transform="translate(132.124,112.3906)"><path
             d="m 0,0 0.34,-0.476 -1.837,-4.628 -3.063,-11.094 -3.811,-18.443 -1.905,-12.114 -1.021,-11.569 c 0,-1.429 0.477,-2.722 1.497,-3.607 -1.769,-4.423 -1.565,-9.595 -5.24,-13.203 3.335,3.472 4.22,8.78 2.789,13.406 l -0.68,0.819 -0.34,-0.546 -0.136,0.204 c -0.068,-1.225 0.136,-3.062 0,-3.742 -0.613,1.7 -1.429,3.334 -1.77,5.172 l 0.613,0.679 0.681,8.509 c 0.816,0.817 -0.273,1.837 0.339,2.789 l 1.293,8.44 3.268,17.49 1.633,8.167 3.062,11.433 c 0.272,0.885 1.021,1.974 0.341,2.791 0.204,0.135 0.68,0.339 0.816,0.135 0.409,0.544 1.838,0.886 1.634,1.634 0.681,0.476 0.068,1.429 0.476,1.973 0.068,1.77 0.544,3.267 0.817,4.9 C 0.477,7.486 -0.681,4.083 -0.816,2.246 0.136,3.062 0.952,4.219 1.293,5.376 1.157,4.833 0.952,4.083 1.157,3.607 L 1.43,3.879 C 1.226,2.518 1.43,0.612 0,0"
             style="fill:#ffffff;fill-opacity:1;fill-rule:nonzero;stroke:none"
             id="path302706"
             inkscape:connector-curvature="0" /></g><g
           id="g302708"
           transform="translate(130.1504,123.3477)"><path
             d="m 0,0 c 0,-3.199 -0.136,-7.623 -3.606,-9.324 -1.43,-0.477 -2.723,-1.497 -4.424,-1.497 0.135,-0.272 -0.137,-0.748 -0.614,-0.816 -0.679,-0.205 -0.884,0.544 -1.292,0.816 l 0.136,0.204 c -2.382,0.749 -3.335,3.063 -5.581,4.356 0.749,1.701 0.681,3.743 1.021,5.58 0.068,1.293 0.884,2.451 0.817,3.607 2.585,1.089 5.376,2.79 8.303,2.11 1.564,-1.497 3.675,-2.314 4.763,-4.22 0.069,0.069 0.206,0.137 0.137,0.272 0.748,0.137 0.748,-0.884 0.476,-1.293 L 0,0 Z"
             style="fill:#ffffff;fill-opacity:1;fill-rule:nonzero;stroke:none"
             id="path302710"
             inkscape:connector-curvature="0" /></g><g
           id="g302712"
           transform="translate(126.0674,129.3369)"><path
             d="M 0,0 C 1.36,-0.205 3.198,-1.293 4.083,-2.927 2.722,-1.906 1.225,-1.293 0,0"
             style="fill:#ffffff;fill-opacity:1;fill-rule:nonzero;stroke:none"
             id="path302714"
             inkscape:connector-curvature="0" /></g><g
           id="g302716"
           transform="translate(128.9932,115.3169)"><path
             d="M 0,0 -0.34,0 0.205,0.477 C 0.205,0.34 0.205,0.068 0,0"
             style="fill:#ffffff;fill-opacity:1;fill-rule:nonzero;stroke:none"
             id="path302718"
             inkscape:connector-curvature="0" /></g><g
           id="g302720"
           transform="translate(125.9307,117.2905)"><path
             d="m 0,0 c -1.293,-1.157 -3.063,-1.633 -4.764,-1.157 -1.701,0.476 -2.858,2.314 -3.267,3.948 -0.272,1.564 0.273,2.857 1.157,4.083 1.09,1.225 2.927,1.769 4.696,1.293 C -0.68,7.35 1.09,6.057 1.293,4.219 1.157,2.722 1.021,1.157 0,0"
             style="fill:#231f20;fill-opacity:1;fill-rule:nonzero;stroke:none"
             id="path302722"
             inkscape:connector-curvature="0" /></g><g
           id="g302724"
           transform="translate(123.957,116.6099)"><path
             d="M 0,0 C -1.225,-0.476 -2.382,0.204 -3.471,0.681 -4.832,1.702 -4.968,3.402 -4.56,4.9 c 0.272,1.361 1.498,2.246 2.586,2.926 1.158,0.409 2.383,0 3.268,-0.816 C 2.45,5.785 2.994,3.879 2.247,2.314 1.771,1.293 1.021,0.544 0,0"
             style="fill:#ffffff;fill-opacity:1;fill-rule:nonzero;stroke:none"
             id="path302726"
             inkscape:connector-curvature="0" /></g><g
           id="g302728"
           transform="translate(122.7998,97.6909)"><path
             d="m 0,0 -1.156,-6.193 -3.064,-15.858 -0.544,-2.45 -1.633,-14.087 c 0.205,-2.109 -1.088,-4.22 0,-6.194 l -0.953,0 -8.983,2.315 c -1.497,-2.041 -3.471,-3.199 -5.376,-4.901 -1.294,6.126 0.204,12.727 0.612,18.921 l 2.654,16.536 3.267,16.47 2.789,10.617 c 0.682,2.586 1.431,5.036 2.723,7.35 0.068,-1.361 -0.885,-3.811 0.817,-4.9 0.749,-0.068 1.089,-0.885 1.633,-1.293 l -2.45,-8.371 c -1.225,-4.56 -2.109,-9.324 -3.063,-14.019 l -2.449,-13.068 -1.634,-11.092 -0.816,-11.638 c 0,-0.34 -0.068,-0.749 0.34,-0.953 l 0.613,0.68 c 0.135,6.127 0.952,11.978 1.633,17.967 l 3.471,19.056 c 1.7,7.078 2.653,13.816 5.172,20.417 1.429,-0.477 3.13,-2.109 4.424,-3.266 L 3.744,14.36 3.268,12.25 0,0 Z"
             style="fill:#ffffff;fill-opacity:1;fill-rule:nonzero;stroke:none"
             id="path302730"
             inkscape:connector-curvature="0" /></g><g
           id="g302732"
           transform="translate(117.5601,42.4971)"><path
             d="m 0,0 c -0.136,0 -0.204,-0.136 -0.34,-0.204 -0.205,0.204 0,0.612 0.204,0.816 L 0,0.612 0,0 Z"
             style="fill:#ffffff;fill-opacity:1;fill-rule:nonzero;stroke:none"
             id="path302734"
             inkscape:connector-curvature="0" /></g><g
           id="g302736"
           transform="translate(113.1362,38.0732)"><path
             d="m 0,0 c -2.314,-1.634 -6.329,-0.612 -8.779,0.953 0,-0.409 -0.204,-0.272 -0.68,-0.341 -0.613,2.451 -1.43,5.172 -2.247,7.691 l 0,1.294 c 2.79,1.633 4.628,6.192 8.439,4.899 C -0.545,13.952 2.858,12.795 3.471,9.597 4.492,5.921 3.402,2.11 0,0"
             style="fill:#ffffff;fill-opacity:1;fill-rule:nonzero;stroke:none"
             id="path302738"
             inkscape:connector-curvature="0" /></g><g
           id="g302740"
           transform="translate(113.1362,35.7598)"><path
             d="M 0,0 C 0.34,0.68 2.382,1.77 3.471,2.926 2.858,1.36 1.429,0.748 0,0"
             style="fill:#ffffff;fill-opacity:1;fill-rule:nonzero;stroke:none"
             id="path302742"
             inkscape:connector-curvature="0" /></g><g
           id="g302744"
           transform="translate(113.4766,121.5098)"><path
             d="M 0,0 C -0.204,0.272 0,1.021 0.204,1.497 L 0,0 Z"
             style="fill:#ffffff;fill-opacity:1;fill-rule:nonzero;stroke:none"
             id="path302746"
             inkscape:connector-curvature="0" /></g><g
           id="g302748"
           transform="translate(111.2305,40.5234)"><path
             d="M 0,0 C -1.293,-0.816 -3.266,-0.544 -4.423,0.341 -6.397,1.564 -6.601,4.015 -6.397,6.057 -5.921,7.622 -4.355,9.188 -2.654,9.46 -0.681,9.597 0.817,8.167 1.906,6.67 2.995,4.356 2.246,1.226 0,0"
             style="fill:#231f20;fill-opacity:1;fill-rule:nonzero;stroke:none"
             id="path302750"
             inkscape:connector-curvature="0" /></g><g
           id="g302752"
           transform="translate(111.2305,41)"><path
             d="m 0,0 c -1.497,-0.205 -3.335,-0.409 -4.423,0.817 -1.089,1.088 -1.158,2.789 -0.817,4.219 0.341,0.885 1.088,1.77 1.974,2.315 0.952,0.407 2.449,0.544 3.402,0 C 1.361,6.737 1.633,5.444 2.11,4.423 2.11,2.655 1.701,0.885 0,0"
             style="fill:#ffffff;fill-opacity:1;fill-rule:nonzero;stroke:none"
             id="path302754"
             inkscape:connector-curvature="0" /></g><g
           id="g302756"
           transform="translate(112.2441,117.3647)"><path
             d="M 0,0 C -1.769,0.068 -4.008,4.145 -5.097,4.825 -6.39,3.26 -4.212,1.559 -6.254,0.266 c -2.042,-6.397 -3.947,-13.134 -5.104,-19.464 l 0.204,-0.817 c 0.953,1.43 0.749,3.335 1.429,4.9 l 2.995,9.665 -2.45,-9.665 -1.838,-9.935 0.34,-0.341 c 1.09,0.885 0.545,2.79 1.157,4.083 l 3.744,14.837 c 0.476,2.313 1.632,4.492 2.11,6.533 0.339,-0.136 0.884,-0.204 0.679,-0.817 -0.34,-1.974 -1.361,-3.675 -1.632,-5.716 -2.042,-8.168 -3.88,-16.879 -5.377,-25.453 l -2.178,-13.543 -1.293,-14.428 0,-0.272 c -1.837,0.407 -4.219,0.135 -5.512,-1.837 -0.205,-0.41 0.272,-0.41 0.477,-0.614 0.883,1.225 2.041,0.477 3.061,0 -2.654,-3.198 -6.124,-6.193 -10.752,-4.899 l -15.994,3.061 c -0.953,0.34 -2.518,-0.135 -2.79,1.158 l 0.137,7.215 2.176,14.835 3.064,16.674 c 0.68,1.837 0.68,4.015 1.293,5.853 l 3.607,15.38 2.45,8.643 c 1.157,4.424 2.79,8.643 4.764,12.727 l 15.857,-2.926 c 1.429,-0.205 2.994,-0.205 4.219,-1.158 1.293,0.272 2.11,-0.952 2.791,-1.769 1.292,-2.042 3.941,-5.848 5.371,-7.822 L 1.362,3.134 C 1.022,1.637 1.021,1.021 0,0"
             style="fill:#ffffff;fill-opacity:1;fill-rule:nonzero;stroke:none"
             id="path302758"
             inkscape:connector-curvature="0" /></g><g
           id="g302760"
           transform="translate(105.3096,36.1006)"><path
             d="M 0,0 -0.816,0.68 C 1.089,0.407 3.471,-0.341 5.581,-0.953 3.539,-1.498 1.906,-0.273 0,0"
             style="fill:#ffffff;fill-opacity:1;fill-rule:nonzero;stroke:none"
             id="path302762"
             inkscape:connector-curvature="0" /></g><g
           id="g302764"
           transform="translate(107.4189,117.6309)"><path
             d="M 0,0 0.205,-0.068 0,-0.749 -0.136,-0.681 0,0 Z"
             style="fill:#ffffff;fill-opacity:1;fill-rule:nonzero;stroke:none"
             id="path302766"
             inkscape:connector-curvature="0" /></g><g
           id="g302768"
           transform="translate(105.6499,112.3906)"><path
             d="M 0,0 C 0.34,1.226 0.612,2.654 1.293,3.607 L 0,0 Z"
             style="fill:#ffffff;fill-opacity:1;fill-rule:nonzero;stroke:none"
             id="path302770"
             inkscape:connector-curvature="0" /></g><g
           id="g302772"
           transform="translate(101.2261,117.2905)"><path
             d="m 0,0 -3.402,-13.271 c -0.885,-4.9 -2.179,-9.663 -3.267,-14.496 0.067,0.341 -0.204,1.02 0.34,1.429 -0.817,0.545 0.068,1.225 0,1.838 0.204,3.471 1.43,6.601 1.905,9.936 l 1.974,8.847 1.974,7.146 3.13,8.984 c 0.068,0.544 0.341,0.953 0.817,1.36 L 4.424,11.229 C 1.974,8.03 1.225,3.811 0,0"
             style="fill:#231f20;fill-opacity:1;fill-rule:nonzero;stroke:none"
             id="path302774"
             inkscape:connector-curvature="0" /></g><path
           d="m 101.43,90.885 0.205,0 0,0.272 -0.205,0 0,-0.272 z"
           style="fill:#231f20;fill-opacity:1;fill-rule:nonzero;stroke:none"
           id="path302776"
           inkscape:connector-curvature="0" /><g
           id="g302778"
           transform="translate(97.6191,58.626)"><path
             d="m 0,0 c -0.068,-0.203 -0.271,-0.136 -0.477,-0.136 l -0.34,1.157 0.546,8.167 c 0.543,3.062 0.68,6.873 1.769,9.255 L 0.681,11.434 0,0 Z"
             style="fill:#231f20;fill-opacity:1;fill-rule:nonzero;stroke:none"
             id="path302780"
             inkscape:connector-curvature="0" /></g><g
           id="g302782"
           transform="translate(95.8501,57.8096)"><path
             d="m 0,0 c -0.272,0.068 -0.34,-0.272 -0.68,-0.136 l 0,5.513 1.157,8.711 0.339,1.089 C 0.544,9.937 0,5.172 0,0"
             style="fill:#231f20;fill-opacity:1;fill-rule:nonzero;stroke:none"
             id="path302784"
             inkscape:connector-curvature="0" /></g><g
           id="g302786"
           transform="translate(94.353,88.2305)"><path
             d="M 0,0 0.204,0.953 0,0.137 0,0 Z"
             style="fill:#231f20;fill-opacity:1;fill-rule:nonzero;stroke:none"
             id="path302788"
             inkscape:connector-curvature="0" /></g><g
           id="g302790"
           transform="translate(90.4736,51.6162)"><path
             d="M 0,0 C -0.477,-0.135 -0.477,0.545 -0.681,0.817 -0.953,8.167 0.34,15.244 1.429,22.187 0.749,14.905 -0.477,7.622 0,0"
             style="fill:#231f20;fill-opacity:1;fill-rule:nonzero;stroke:none"
             id="path302792"
             inkscape:connector-curvature="0" /></g><g
           id="g302794"
           transform="translate(82.647,56.3809)"><path
             d="m 0,0 c -2.926,-0.954 -6.533,-0.137 -8.507,2.45 0,0.613 -0.817,0.884 -1.02,1.429 2.177,-2.586 5.172,-4.356 8.71,-3.608 1.974,0.545 3.267,2.655 3.88,4.424 0.953,3.539 -0.613,6.601 -2.927,8.848 -1.769,1.564 -4.084,2.383 -6.532,1.769 -2.655,-1.088 -4.424,-3.47 -4.424,-6.33 -0.205,2.247 0.816,4.832 2.79,6.33 2.586,1.633 6.261,1.293 8.643,-0.476 C 3.199,12.114 5.512,8.438 4.083,4.561 3.403,2.722 2.042,0.476 0,0"
             style="fill:#231f20;fill-opacity:1;fill-rule:nonzero;stroke:none"
             id="path302796"
             inkscape:connector-curvature="0" /></g><g
           id="g302798"
           transform="translate(82.647,135.7334)"><path
             d="m 0,0 c -1.225,-1.225 -0.817,-3.402 -2.314,-4.219 -1.02,1.565 -2.586,2.45 -4.219,2.926 -2.314,0 -4.492,-1.021 -5.581,-3.13 -0.884,-1.293 -0.953,-3.131 -0.68,-4.697 0.884,-1.905 2.518,-4.219 4.764,-4.423 1.021,-0.068 1.905,0 2.79,0.34 0.272,-1.225 -0.476,-1.973 -0.68,-2.994 l -2.247,0 -11.296,1.838 c 1.36,6.261 1.769,13.271 8.03,17.286 2.45,1.157 4.424,3.742 6.806,5.104 L 1.77,7.01 C 1.77,5.172 2.45,3.607 2.45,1.77 1.293,1.906 0.34,0.885 0,0"
             style="fill:#ffffff;fill-opacity:1;fill-rule:nonzero;stroke:none"
             id="path302800"
             inkscape:connector-curvature="0" /></g><g
           id="g302802"
           transform="translate(77.8838,124.9814)"><path
             d="m 0,0 c -0.953,-0.886 -1.974,-1.702 -3.267,-1.838 -1.361,0.068 -2.45,1.021 -3.267,1.974 -0.884,1.293 -0.953,3.13 -0.681,4.763 0.817,1.294 1.634,2.655 3.131,3.268 C -2.586,8.643 -1.089,8.03 0,7.009 1.632,5.24 1.632,1.769 0,0"
             style="fill:#ffffff;fill-opacity:1;fill-rule:nonzero;stroke:none"
             id="path302804"
             inkscape:connector-curvature="0" /></g><g
           id="g302806"
           transform="translate(72.167,100.4805)"><path
             d="m 0,0 c -1.838,-6.329 -2.587,-12.522 -4.084,-18.986 l -1.633,-10.278 c -0.205,-0.068 -0.136,-0.34 -0.136,-0.476 l -8.167,1.633 c -2.042,0.476 -5.036,0.069 -5.716,2.246 l -0.341,5.922 0.613,8.302 0.544,2.654 2.11,10.889 2.45,8.711 c 1.021,3.198 2.245,6.533 4.56,9.12 L -7.351,19.601 4.083,17.626 0,0 Z"
             style="fill:#ffffff;fill-opacity:1;fill-rule:nonzero;stroke:none"
             id="path302808"
             inkscape:connector-curvature="0" /></g><path
           d="m 71.827,64.683 0.204,0 0,-0.68 -0.204,0 0,0.68 z"
           style="fill:#231f20;fill-opacity:1;fill-rule:nonzero;stroke:none"
           id="path302810"
           inkscape:connector-curvature="0" /><g
           id="g302812"
           transform="translate(62.2305,57.4697)"><path
             d="m 0,0 c -0.953,-0.34 -2.178,-0.817 -3.131,-0.137 -1.497,0.885 -2.858,2.382 -2.926,4.084 -0.34,2.382 1.225,4.219 3.062,5.376 0.885,0.477 2.314,0.477 3.131,0 C 1.701,8.371 2.382,6.806 2.722,5.24 2.722,3.131 2.042,1.021 0,0"
             style="fill:#ffffff;fill-opacity:1;fill-rule:nonzero;stroke:none"
             id="path302814"
             inkscape:connector-curvature="0" /></g><g
           id="g302816"
           transform="translate(61.6855,121.5098)"><path
             d="m 0,0 c -0.476,0.068 -0.953,-0.068 -1.293,-0.476 l 0.204,-0.136 c -3.402,-5.173 -4.764,-11.161 -6.397,-17.015 l -1.973,-9.799 -1.157,-10.617 c -0.273,-3.403 -0.273,-7.145 0.68,-10.277 l -1.633,-8.166 c -0.885,0.34 -1.021,2.313 -1.157,3.607 -0.204,3.742 -0.204,7.146 0,10.889 l 1.157,10.821 c 0.273,3.198 1.497,6.601 1.497,9.936 l 1.905,8.37 c 2.042,6.738 3.813,13.612 7.691,19.601 0.136,0.612 1.021,0 0.816,0.816 l 1.294,0 L 0,0 Z"
             style="fill:#ffffff;fill-opacity:1;fill-rule:nonzero;stroke:none"
             id="path302818"
             inkscape:connector-curvature="0" /></g><path
           d="m 62.843,128.656 0.271,0 0,0.204 -0.271,0 0,-0.204 z"
           style="fill:#231f20;fill-opacity:1;fill-rule:nonzero;stroke:none"
           id="path302820"
           inkscape:connector-curvature="0" /><g
           id="g302822"
           transform="translate(55.3569,117.9033)"><path
             d="M 0,0 -2.791,-9.596 -4.9,-19.6 c -1.293,-10.821 -3.607,-20.077 -2.45,-31.306 l 0.612,-2.178 c -1.021,0.137 -1.293,0.953 -1.634,1.838 -0.816,4.559 -0.408,9.8 -0.272,14.495 l 1.43,12.114 2.45,12.727 2.654,9.459 c 1.633,5.036 2.926,10.277 6.67,14.225 l 0.816,0 C 2.654,8.234 1.498,4.083 0,0"
             style="fill:#ffffff;fill-opacity:1;fill-rule:nonzero;stroke:none"
             id="path302824"
             inkscape:connector-curvature="0" /></g><g
           id="g302826"
           transform="translate(39.4995,137.5029)"><path
             d="m 0,0 -2.79,-8.643 -1.157,-4.56 -2.246,-9.324 c -0.476,-1.837 -1.02,-4.354 -1.497,-6.193 0.68,4.697 1.837,8.916 2.79,13.748 l 2.314,8.439 c 1.225,3.402 1.498,7.214 3.879,10.14 C 1.43,4.083 1.837,3.539 2.11,3.471 1.021,2.451 1.157,1.021 0,0"
             style="fill:#231f20;fill-opacity:1;fill-rule:nonzero;stroke:none"
             id="path302828"
             inkscape:connector-curvature="0" /></g><g
           id="g302830"
           transform="translate(29.019,92.4497)"><path
             d="m 0,0 -1.905,-17.285 c 0,-1.975 -0.749,-4.016 0,-5.921 l 0,-5.514 c -0.409,-0.068 -0.953,0 -1.022,0.477 -0.204,5.037 0.342,10.753 0.818,15.654 l 1.497,10.276 C -0.272,-0.748 0,1.43 0.34,2.927 0.068,1.907 0.204,0.817 0,0"
             style="fill:#231f20;fill-opacity:1;fill-rule:nonzero;stroke:none"
             id="path302832"
             inkscape:connector-curvature="0" /></g><g
           id="g302834"
           transform="translate(21.0566,73.667)"><path
             d="m 0,0 c -1.906,-1.157 -4.696,-0.613 -6.533,0.34 -0.341,0.341 -0.817,0.544 -1.157,0.953 1.565,-0.748 4.218,-2.247 6.397,-0.953 2.11,0.544 3.13,2.653 3.743,4.559 0.613,3.812 -0.68,7.351 -3.948,9.664 -1.428,0.749 -3.13,1.226 -4.899,0.818 -1.906,-0.818 -4.016,-2.587 -4.424,-4.765 -0.068,-1.224 -0.408,-2.994 -0.272,-3.607 -0.681,3.402 0.68,6.602 3.403,8.644 2.109,0.952 4.899,1.157 6.873,-0.136 2.859,-1.77 4.628,-4.901 4.9,-8.167 C 3.947,4.423 2.79,1.429 0,0"
             style="fill:#231f20;fill-opacity:1;fill-rule:nonzero;stroke:none"
             id="path302836"
             inkscape:connector-curvature="0" /></g><g
           id="g302838"
           transform="translate(113.9429,127.4438)"><path
             d="m 0,0 -1.628,-8.141 -3.256,-1.628 -7.055,-27.679 -3.799,-30.934 2.442,-6.241 23.607,-2.17 L 21.98,-14.925 0,0 Z"
             style="fill:#ffffff;fill-opacity:1;fill-rule:nonzero;stroke:none"
             id="path302840"
             inkscape:connector-curvature="0" /></g><g
           id="g302842"
           transform="translate(100.6973,39.7578)"><path
             d="m 0,0 c -1.595,4.384 0.161,9.638 0.562,14.296 -2.514,1.138 -5.676,1.345 -7.909,-0.28 -0.306,1.026 1.051,1.624 1.574,2.227 l 2.392,0.555 34.038,-5.764 c 0.519,1.369 0.025,2.916 0.285,4.4 l 0.949,8.179 1.836,13.239 3.035,16.505 3.181,12.585 c 0.518,1.371 1.283,2.558 1.556,4.109 l -2.045,0.637 -13.029,2.634 -14.117,3.172 c -1.925,0.129 -4.897,0.233 -5.562,2.784 0.139,0.392 -0.152,0.722 0.067,1.17 1.502,0.641 1.504,-1.724 2.774,-2.016 0.699,0.016 1.506,-0.542 2.017,-0.006 0.601,5.805 2.607,11.295 8.478,13.046 3.086,1.337 7.523,0.071 10.029,-1.898 4.9,-3.781 5.105,-10.145 3.547,-15.852 l 0.279,-0.397 c 4.213,-0.948 7.464,-1.449 11.565,-2.655 -0.333,-0.706 0.602,-0.523 0.802,-0.975 -1.3,-0.676 -3.291,1.064 -4.249,-0.437 C 39.545,62.883 38.311,55.45 36.464,48.889 L 33.341,29.896 31.907,18.951 31.609,11.701 c -0.566,-1.638 3.18,-2.088 0.685,-2.832 l -8.771,1.538 C 22.579,10.573 23.164,9.15 22.608,8.76 21.737,3.002 20.979,-4.098 14.708,-6.544 11.511,-7.722 6.805,-7.592 3.93,-5.349 2.138,-4.061 0.827,-2.023 0,0"
             style="fill:#231f20;fill-opacity:1;fill-rule:nonzero;stroke:none"
             id="path302844"
             inkscape:connector-curvature="0" /></g><g
           id="g302846"
           transform="translate(102.4111,40.0137)"><path
             d="M 0,0 -0.808,2.924 0.618,13.035 0.736,13.711 19.56,10.407 17.241,-0.034 C 15.716,-3.175 12.191,-5.824 8.699,-5.907 4.839,-5.717 1.738,-3.574 0,0"
             style="fill:#ffffff;fill-opacity:1;fill-rule:nonzero;stroke:none"
             id="path302848"
             inkscape:connector-curvature="0" /></g><g
           id="g302850"
           transform="translate(105.981,41.334)"><path
             d="M 0,0 C -0.287,1.929 -0.223,4.282 1.332,5.609 2.711,6.34 3.949,7.444 5.444,7.252 7.401,6.908 8.898,5.533 9.547,3.681 10.144,2.324 9.502,1.046 9.107,-0.415 8.465,-1.693 7.093,-2.774 5.637,-3.146 3.372,-3.373 0.915,-2.315 0,0"
             style="fill:#231f20;fill-opacity:1;fill-rule:nonzero;stroke:none"
             id="path302852"
             inkscape:connector-curvature="0" /></g><g
           id="g302854"
           transform="translate(106.8501,41.5303)"><path
             d="M 0,0 C -0.256,1.713 -0.349,3.955 0.935,5.329 1.958,6.401 3.56,6.815 4.95,6.016 6.125,5.184 6.698,3.692 6.81,2.351 6.522,0.315 5.628,-1.613 3.529,-2.08 1.879,-2.765 0.584,-1.424 0,0"
             style="fill:#ffffff;fill-opacity:1;fill-rule:nonzero;stroke:none"
             id="path302856"
             inkscape:connector-curvature="0" /></g><g
           id="g302858"
           transform="translate(125.6211,115.2207)"><path
             d="M 0,0 C 2.173,1.288 3.956,3.13 3.528,5.849 3.27,7.146 2.776,8.692 1.533,9.536 c -1.409,1.082 -3.727,1.35 -5.277,0.44 -1.903,-1.335 -3.025,-3.364 -2.832,-5.832 0.227,-1.083 0.76,-2.011 1.495,-2.975 -2.148,0.447 -4.477,0.647 -6.778,1.398 0.142,4.773 2.161,9.149 6.48,11.173 2.602,1.351 6.475,1.228 8.845,-0.718 C 6.639,11.283 7.766,7.4 7.748,4.134 L 6.813,-1.195 C 4.738,-1.527 2.281,-0.47 0,0"
             style="fill:#ffffff;fill-opacity:1;fill-rule:nonzero;stroke:none"
             id="path302860"
             inkscape:connector-curvature="0" /></g><g
           id="g302862"
           transform="translate(120.5742,117.7749)"><path
             d="M 0,0 C -0.787,1.46 -0.805,3.34 -0.092,5.023 0.522,5.75 1.228,6.6 2.255,6.906 3.101,6.967 4.104,7.138 4.854,6.66 5.871,5.716 6.479,4.427 6.604,3.153 6.522,1.498 5.758,0.311 4.747,-0.694 3.327,-2.044 0.946,-1.348 0,0"
             style="fill:#ffffff;fill-opacity:1;fill-rule:nonzero;stroke:none"
             id="path302864"
             inkscape:connector-curvature="0" /></g><g
           id="g302866"
           transform="translate(134.585,100.8921)"><path
             d="m 0,0 c 0.333,1.446 0.475,2.999 0.737,4.47 l 1.974,10.617 1.02,5.172 2.11,11.638 c -4.695,3.539 -6.942,9.188 -5.92,15.041 1.02,3.402 1.974,6.873 3.13,10.276 1.768,4.696 3.063,9.596 4.56,14.36 L 8.087,70.417 7.951,61.297 C 7.814,57.826 7.271,53.811 9.108,51.021 l 0.136,0 1.021,3.879 1.906,10.957 c 0.544,2.246 0.34,4.287 0.816,6.533 0.817,1.497 3.334,-0.953 2.994,1.497 -0.271,1.43 0.205,3.132 1.43,4.084 l 0.34,-8.507 c -1.77,-5.649 -3.267,-12.25 -3.743,-18.784 1.02,-5.58 7.145,-3.675 11.094,-4.763 5.648,1.225 7.212,7.554 9.798,11.773 1.362,2.314 1.022,5.309 -0.339,7.486 -1.089,1.702 -2.79,1.906 -4.084,3.131 -2.654,1.769 -5.989,1.905 -9.119,2.45 L 20.065,70.28 c 3.199,1.566 8.098,-0.068 11.57,-1.497 2.313,-0.884 4.355,-3.266 4.763,-5.717 0.544,-4.219 -2.042,-7.621 -3.47,-11.229 -2.315,-3.062 -4.697,-6.805 -8.984,-6.533 -2.11,0.204 -4.219,0.817 -6.193,0.817 l 0,-0.341 c -0.477,-0.068 -0.885,0.681 -1.293,0.341 3.403,-3.607 8.915,-3.472 13.543,-2.654 l 4.083,2.109 6.398,5.445 c 5.58,5.444 7.35,12.454 11.706,18.443 l 1.02,0 c 0.952,-1.294 -2.178,-3.88 1.157,-3.471 1.633,0.476 2.11,-1.225 1.633,-2.45 -0.272,-1.021 -0.544,-2.11 -0.681,-3.267 1.43,-0.817 2.996,0.204 4.561,0 1.768,-0.068 3.401,-0.407 5.24,-0.272 l -0.341,-0.341 c 2.246,-0.952 4.697,-1.292 6.873,-2.313 l 8.849,-3.743 c 1.429,-0.885 3.13,-1.633 4.218,-3.131 -2.041,-0.408 -3.471,2.042 -5.58,2.314 C 72.06,55.648 64.845,59.323 56.61,58.506 55.931,58.303 55.046,57.962 54.637,57.35 53.684,50.34 52.052,43.603 51.099,36.593 l 0.271,-0.272 c 7.895,-0.953 14.973,1.021 22.731,0.816 3.131,0.136 5.921,0.818 8.643,1.906 0.68,-0.885 -0.341,-1.837 -1.156,-2.11 C 76.075,35.164 70.29,35.64 64.164,35.3 59.809,34.824 55.317,34.278 50.895,34.483 49.669,32.237 50.078,29.311 49.261,26.792 55.931,23.73 62.667,17.333 64.981,10.323 65.05,7.125 66.411,3.177 63.824,0.66 60.422,-2.131 55.658,0.387 51.915,1 49.737,1.749 47.424,2.157 45.177,2.837 L 44.7,2.021 42.932,-8.801 40.958,-19.213 c 0,-2.245 -1.429,-4.287 -0.681,-6.397 4.697,0.818 9.119,-1.497 11.638,-5.037 2.858,-4.491 3.743,-9.731 4.899,-14.903 -0.204,-0.886 0.273,-1.498 0.477,-2.246 2.518,4.219 3.335,9.186 6.873,13.066 1.362,1.022 3.199,1.634 5.037,1.088 3.403,-0.611 6.057,-4.15 6.669,-7.146 2.247,-6.873 2.723,-14.359 1.838,-21.573 -1.089,-1.702 -0.545,-4.015 -1.974,-5.58 0,-1.089 1.293,-1.769 1.633,-2.723 2.179,-5.715 2.927,-11.977 4.424,-17.965 l -0.203,-0.205 c -1.702,1.905 -1.226,4.696 -2.587,6.738 -1.565,4.355 -0.953,10.683 -6.533,12.386 l 0,0.34 c 0.272,0.067 0.613,-0.136 0.816,0.135 -0.68,1.09 -2.109,0.954 -2.926,1.158 0.205,-0.068 0.34,0.204 0.476,0.34 -1.021,0.34 -1.633,1.565 -2.789,1.634 2.313,-0.069 5.443,-3.675 6.873,-0.204 3.334,7.418 0.749,16.47 -0.341,24.023 -1.089,2.927 -2.654,7.01 -6.329,7.35 -2.79,0.272 -4.627,-2.653 -5.716,-4.695 -0.953,-4.629 -4.016,-8.576 -4.9,-13.273 l 0.136,-9.596 c 1.565,-3.265 2.926,-6.6 3.267,-10.343 l 0.816,-9.46 c -0.408,-0.408 0.135,-1.293 -0.476,-1.633 -0.408,0.136 -0.204,0.408 -0.477,0.681 0.137,5.92 -1.429,11.365 -2.45,16.672 -0.68,1.089 -0.953,2.791 -2.45,3.063 -0.272,0.068 -0.477,-0.34 -0.681,0 0.544,0.273 0.409,0.817 0.137,1.294 -1.225,-1.226 -2.858,-0.137 -4.084,-1.43 2.11,1.838 6.125,3.199 4.765,7.01 l -0.477,6.67 -1.293,8.167 c -1.362,4.015 -1.702,8.437 -4.9,11.637 -2.722,2.177 -5.172,3.879 -8.847,3.607 -0.205,-0.204 -0.409,-0.408 -0.341,-0.681 -0.068,0.204 -0.272,0.137 -0.476,0.137 l -0.34,-0.272 -2.11,-12.115 c 0.273,-0.68 1.157,-1.361 1.769,-1.769 2.315,-2.45 4.016,-5.105 3.947,-8.508 5.581,-6.056 3.744,-14.494 3.404,-22.39 l 7.553,-6.533 c 0.477,-1.224 1.634,-2.178 2.451,-3.266 l 11.093,-5.854 c 1.565,-1.497 3.948,-2.109 4.9,-3.947 -5.24,2.518 -10.278,5.378 -15.654,7.487 l -0.543,0 c -0.545,-0.544 0.408,-1.089 -0.136,-1.633 -0.137,0.067 -0.204,-0.069 -0.341,-0.136 -0.952,2.245 -1.837,4.695 -3.879,6.396 l -5.24,4.56 -10.482,8.167 c -4.831,3.947 -10.412,6.601 -16.808,6.329 0.067,-0.204 0.34,-0.136 0.476,-0.136 -2.11,0.272 -4.56,0.272 -6.33,-0.681 6.261,-0.408 12.864,-4.015 15.177,-10.276 l 0.477,-0.34 -2.314,-5.514 -4.56,-7.552 c -1.702,-1.703 -3.403,-5.241 -6.33,-4.084 -0.748,0 -1.157,0.68 -1.973,0.545 0.204,-1.974 2.109,-3.54 3.266,-5.242 0.477,-1.293 2.314,-2.042 2.451,-3.47 -1.633,0.612 -2.859,2.177 -4.287,3.266 -0.545,0.817 -0.682,1.974 -1.77,2.45 l -17.49,2.996 -11.23,2.109 c -0.341,0.068 -0.613,0.407 -0.817,0.613 l 4.084,21.778 1.769,10.071 1.77,9.664 c 0.816,1.633 0.408,3.811 1.02,5.581 0.613,3.539 1.293,6.941 1.974,10.753 l -1.837,0.681 -8.508,1.632 c -2.109,0.817 -5.24,1.225 -5.852,4.083 -0.34,1.703 -0.885,3.745 0.476,5.173 3.267,2.994 7.895,2.722 12.25,3.13 l 6.058,0 0.34,0.477 1.637,9.382 L 0,0 Z"
             style="fill:#231f20;fill-opacity:1;fill-rule:nonzero;stroke:none"
             id="path302868"
             inkscape:connector-curvature="0" /></g><path
           d="m 204.604,32.542 0.271,0 0,0.273 -0.271,0 0,-0.273 z"
           style="fill:#231f20;fill-opacity:1;fill-rule:nonzero;stroke:none"
           id="path302870"
           inkscape:connector-curvature="0" /><g
           id="g302872"
           transform="translate(196.4355,102.5728)"><path
             d="m 0,0 c -5.853,-0.817 -11.161,1.564 -16.196,3.742 l 0.204,1.77 2.109,11.637 1.157,5.853 C -5.716,19.803 1.157,13.066 1.974,5.035 1.634,3.198 2.178,0.749 0,0"
             style="fill:#ffffff;fill-opacity:1;fill-rule:nonzero;stroke:none"
             id="path302874"
             inkscape:connector-curvature="0" /></g><g
           id="g302876"
           transform="translate(186.1592,150.0752)"><path
             d="M 0,0 -2.449,-12.862 -6.057,-32.19 -8.982,-48.66 c -0.817,-4.9 -1.634,-9.187 -2.451,-14.02 l -1.973,-10.616 -3.268,-18.648 -1.972,-11.092 c -0.614,-2.383 -0.545,-4.968 -1.429,-7.215 -6.195,3.471 -15.314,3.335 -21.574,0.205 -3.539,-3.267 -5.581,-7.418 -6.738,-11.774 -0.341,-3.948 2.314,-6.602 4.083,-9.664 l 5.241,-7.147 0,-0.34 -24.84,4.221 c -0.41,0.34 -1.158,0 -1.634,0.34 l 0,1.633 1.634,8.303 c 0.476,0.816 1.36,-0.136 2.176,0.203 2.927,-0.339 5.65,-1.36 8.644,-1.632 0.477,0.68 1.021,-0.069 1.43,0.816 l 1.496,8.507 1.973,10.889 c 0,0.408 0.07,0.817 -0.339,1.021 l -10.957,1.77 c -0.476,1.02 0.272,2.586 0.34,3.946 l 2.11,0 8.371,-1.496 c 1.156,-0.613 1.224,1.156 1.633,1.837 l 1.633,9.256 c 0.34,1.701 0.544,3.403 0.817,5.104 l -1.021,0.476 -10.276,1.769 c -0.273,1.362 0.408,2.723 0.681,4.084 l 1.632,0 9.121,-1.634 c 0.476,0 0.952,0.545 0.952,1.022 0.476,4.083 1.702,8.031 2.177,11.91 -1.156,0.34 -2.245,0.68 -3.47,0.816 l -7.826,1.497 c -0.069,0.818 0.068,2.655 0.476,3.878 l 2.314,0 8.506,-1.427 c 1.429,0.544 1.158,2.177 1.429,3.402 0.613,2.451 1.498,5.444 0.818,7.827 l -2.586,0.476 -8.167,1.497 c 0,1.701 0.544,3.13 0.817,4.764 l 1.769,0 8.847,-1.837 c 0.612,-0.205 0.885,0.34 1.293,0.68 l 1.293,8.303 c 0.204,0.137 0.204,0.34 0.204,0.477 -0.34,0.883 -0.816,-0.273 -1.157,0.34 l -10.276,2.109 c 0.271,1.429 0,3.063 0.816,4.288 l 10.617,-1.974 c 1.838,1.633 1.226,4.56 2.246,6.669 l -0.476,0.546 c -3.743,0.407 -7.214,1.36 -10.957,1.904 -0.136,1.226 0.136,2.723 0.476,3.948 l 1.838,0 8.643,-1.633 c 0.612,-0.341 1.021,0.476 1.294,0.952 0.203,1.634 1.088,3.403 0.476,4.9 l -2.451,0.205 -8.303,1.633 -0.135,0 c -0.273,1.428 0.408,2.926 0.612,4.423 l 1.293,0 8.848,-1.837 0.339,-0.34 c 1.022,0.544 1.293,1.497 1.634,2.654 7.01,-2.314 14.087,1.225 19.124,6.874 l 3.742,4.559 4.901,7.146 c 1.769,1.293 1.36,6.261 4.899,3.947 C 2.109,9.8 0.545,5.104 0,0"
             style="fill:#ffffff;fill-opacity:1;fill-rule:nonzero;stroke:none"
             id="path302878"
             inkscape:connector-curvature="0" /></g><g
           id="g302880"
           transform="translate(178.9453,30.7051)"><path
             d="m 0,0 -1.293,0.612 -9.663,7.351 2.789,14.904 C -3.675,22.662 -1.156,17.627 0,14.021 0.204,12.795 0.34,11.501 0.477,10.277 L 0.34,1.771 0,0 Z"
             style="fill:#ffffff;fill-opacity:1;fill-rule:nonzero;stroke:none"
             id="path302882"
             inkscape:connector-curvature="0" /></g><g
           id="g302884"
           transform="translate(175.8828,53.5723)"><path
             d="m 0,0 c -1.633,0.748 -3.063,1.77 -4.764,2.245 l 0.681,3.471 C -1.974,5.24 -1.293,2.586 -0.203,0.952 -0.34,0.544 0.137,0.408 0,0"
             style="fill:#ffffff;fill-opacity:1;fill-rule:nonzero;stroke:none"
             id="path302886"
             inkscape:connector-curvature="0" /></g><g
           id="g302888"
           transform="translate(156.8955,16.8213)"><path
             d="m 0,0 c -2.109,-1.77 -3.675,-5.717 -7.01,-3.947 -2.313,0.885 -4.083,3.402 -5.852,5.24 -2.111,3.947 -6.398,8.235 -3.267,13.067 1.156,2.859 3.131,6.738 6.669,7.213 C -3.538,22.391 1.361,18.716 4.9,14.36 7.418,8.849 2.11,4.56 0,0"
             style="fill:#ffffff;fill-opacity:1;fill-rule:nonzero;stroke:none"
             id="path302890"
             inkscape:connector-curvature="0" /></g><g
           id="g302892"
           transform="translate(147.2998,158.2417)"><path
             d="m 0,0 c -0.272,-0.612 -0.136,-1.565 -0.681,-1.973 l 0,1.497 1.497,8.302 1.09,5.581 C 2.586,13.951 2.653,13.135 3.063,12.726 2.995,8.099 0,4.697 0,0"
             style="fill:#ffffff;fill-opacity:1;fill-rule:nonzero;stroke:none"
             id="path302894"
             inkscape:connector-curvature="0" /></g><g
           id="g302896"
           transform="translate(144.8496,147.4893)"><path
             d="M 0,0 C 0.137,1.361 0.204,2.722 0.816,3.879 2.655,3.947 2.45,1.633 3.267,0.477 L 4.356,-0.817 0,0 Z"
             style="fill:#ffffff;fill-opacity:1;fill-rule:nonzero;stroke:none"
             id="path302898"
             inkscape:connector-curvature="0" /></g><g
           id="g302900"
           transform="translate(140.7666,135.2393)"><path
             d="M 0,0 C -0.137,-0.136 -0.272,-0.204 -0.204,-0.34 -2.722,2.722 -5.513,6.602 -4.628,10.617 -4.491,16.333 -1.838,21.505 0,26.746 0.136,22.935 -0.749,17.15 2.586,13.543 L 0,0 Z"
             style="fill:#ffffff;fill-opacity:1;fill-rule:nonzero;stroke:none"
             id="path302902"
             inkscape:connector-curvature="0" /></g><g
           id="g302904"
           transform="translate(129.333,73.6484)"><path
             d="m 0,0 c -4.627,1.564 -9.868,1.361 -14.088,3.947 -1.292,1.225 -1.497,3.13 -1.157,4.9 1.361,3.335 5.241,3.267 8.168,4.085 l 9.527,0 C 1.497,8.439 1.021,4.424 0,0"
             style="fill:#ffffff;fill-opacity:1;fill-rule:nonzero;stroke:none"
             id="path302906"
             inkscape:connector-curvature="0" /></g><g
           id="g302908"
           transform="translate(2.3403,6.6406)"><path
             d="m 0,0 c -0.279,-0.32 -0.418,-0.766 -0.418,-1.336 0,-0.603 0.138,-1.037 0.415,-1.299 0.277,-0.261 0.599,-0.392 0.968,-0.392 0.265,0 0.478,0.042 0.639,0.127 0.161,0.085 0.299,0.213 0.414,0.387 0.006,-0.468 -0.031,-0.794 -0.111,-0.975 -0.136,-0.31 -0.423,-0.465 -0.862,-0.465 -0.278,0 -0.482,0.063 -0.61,0.191 -0.083,0.082 -0.139,0.199 -0.166,0.353 l -0.582,0 c 0.029,-0.35 0.169,-0.608 0.419,-0.772 0.251,-0.164 0.559,-0.246 0.926,-0.246 0.659,0 1.108,0.233 1.345,0.695 0.127,0.249 0.191,0.589 0.191,1.023 l 0,3.097 -0.528,0 0,-0.429 C 1.928,0.101 1.817,0.209 1.709,0.282 1.51,0.414 1.277,0.48 1.009,0.48 0.615,0.48 0.279,0.32 0,0 M 1.9,-2.004 C 1.733,-2.375 1.443,-2.561 1.032,-2.561 0.769,-2.561 0.56,-2.46 0.404,-2.259 0.248,-2.06 0.17,-1.768 0.17,-1.384 c 0,0.327 0.039,0.591 0.118,0.792 0.149,0.377 0.424,0.568 0.826,0.568 0.27,0 0.491,-0.104 0.665,-0.306 0.174,-0.205 0.261,-0.517 0.261,-0.939 0,-0.28 -0.046,-0.525 -0.14,-0.735"
             style="fill:#231f20;fill-opacity:1;fill-rule:nonzero;stroke:none"
             id="path302910"
             inkscape:connector-curvature="0" /></g><g
           id="g302912"
           transform="translate(5.9053,5.2822)"><path
             d="m 0,0 c -0.197,-0.174 -0.296,-0.418 -0.296,-0.734 0,-0.288 0.1,-0.529 0.301,-0.72 0.2,-0.192 0.458,-0.288 0.774,-0.288 0.263,0 0.504,0.055 0.721,0.168 0.219,0.113 0.387,0.245 0.503,0.397 0.019,-0.135 0.052,-0.241 0.099,-0.314 0.089,-0.14 0.232,-0.209 0.429,-0.209 0.081,0 0.144,0.002 0.191,0.009 0.047,0.006 0.114,0.022 0.203,0.047 l 0,0.422 C 2.889,-1.228 2.855,-1.232 2.823,-1.234 2.792,-1.238 2.763,-1.239 2.738,-1.239 c -0.078,0 -0.13,0.017 -0.154,0.053 -0.025,0.036 -0.037,0.083 -0.037,0.143 l 0,1.962 c 0,0.322 -0.124,0.56 -0.372,0.712 C 1.925,1.785 1.6,1.86 1.199,1.86 0.853,1.86 0.55,1.779 0.288,1.614 0.026,1.449 -0.11,1.158 -0.121,0.738 l 0.534,0 C 0.435,0.914 0.48,1.046 0.55,1.135 0.675,1.297 0.887,1.377 1.186,1.377 1.445,1.377 1.643,1.334 1.782,1.246 1.921,1.157 1.99,1.016 1.99,0.821 1.99,0.726 1.978,0.652 1.952,0.602 1.908,0.508 1.82,0.453 1.688,0.436 L 0.776,0.321 C 0.456,0.281 0.197,0.174 0,0 m 0.566,-0.245 c 0.104,0.06 0.26,0.103 0.467,0.131 l 0.347,0.045 c 0.106,0.012 0.214,0.034 0.325,0.062 0.11,0.03 0.2,0.068 0.27,0.112 l 0,-0.46 c 0,-0.352 -0.16,-0.606 -0.477,-0.761 -0.189,-0.093 -0.384,-0.14 -0.585,-0.14 -0.166,0 -0.309,0.048 -0.43,0.144 -0.121,0.094 -0.181,0.225 -0.181,0.389 0,0.219 0.088,0.378 0.264,0.478"
             style="fill:#231f20;fill-opacity:1;fill-rule:nonzero;stroke:none"
             id="path302914"
             inkscape:connector-curvature="0" /></g><g
           id="g302916"
           transform="translate(9.5811,6.6406)"><path
             d="m 0,0 c -0.279,-0.32 -0.418,-0.766 -0.418,-1.336 0,-0.603 0.138,-1.037 0.415,-1.299 0.276,-0.261 0.599,-0.392 0.968,-0.392 0.265,0 0.478,0.042 0.639,0.127 0.162,0.085 0.299,0.213 0.414,0.387 0.006,-0.468 -0.031,-0.794 -0.112,-0.975 -0.135,-0.31 -0.423,-0.465 -0.862,-0.465 -0.277,0 -0.481,0.063 -0.61,0.191 -0.082,0.082 -0.138,0.199 -0.165,0.353 l -0.582,0 c 0.029,-0.35 0.169,-0.608 0.419,-0.772 0.251,-0.164 0.56,-0.246 0.926,-0.246 0.659,0 1.108,0.233 1.345,0.695 0.127,0.249 0.191,0.589 0.191,1.023 l 0,3.097 -0.528,0 0,-0.429 C 1.928,0.101 1.817,0.209 1.709,0.282 1.51,0.414 1.277,0.48 1.01,0.48 0.615,0.48 0.279,0.32 0,0 M 1.9,-2.004 C 1.732,-2.375 1.443,-2.561 1.032,-2.561 0.769,-2.561 0.56,-2.46 0.404,-2.259 0.248,-2.06 0.17,-1.768 0.17,-1.384 c 0,0.327 0.039,0.591 0.118,0.792 0.148,0.377 0.424,0.568 0.827,0.568 0.269,0 0.49,-0.104 0.664,-0.306 0.174,-0.205 0.261,-0.517 0.261,-0.939 0,-0.28 -0.047,-0.525 -0.14,-0.735"
             style="fill:#231f20;fill-opacity:1;fill-rule:nonzero;stroke:none"
             id="path302918"
             inkscape:connector-curvature="0" /></g><g
           id="g302920"
           transform="translate(13.1475,6.5752)"><path
             d="m 0,0 c -0.253,-0.363 -0.38,-0.793 -0.38,-1.289 0,-0.53 0.139,-0.955 0.417,-1.274 0.277,-0.319 0.606,-0.479 0.985,-0.479 0.236,0 0.445,0.048 0.627,0.14 0.182,0.093 0.34,0.245 0.474,0.455 l 0,-0.474 0.515,0 0,4.688 -0.551,0 0,-1.721 C 1.958,0.205 1.843,0.316 1.741,0.38 1.565,0.49 1.347,0.546 1.086,0.546 0.615,0.546 0.253,0.363 0,0 m 0.493,-0.285 c 0.179,0.222 0.413,0.331 0.701,0.331 0.259,0 0.476,-0.104 0.652,-0.311 0.176,-0.206 0.263,-0.524 0.263,-0.954 0,-0.427 -0.085,-0.754 -0.255,-0.981 -0.171,-0.229 -0.388,-0.342 -0.653,-0.342 -0.342,0 -0.59,0.123 -0.745,0.369 -0.155,0.245 -0.232,0.551 -0.232,0.916 0,0.428 0.089,0.751 0.269,0.972"
             style="fill:#231f20;fill-opacity:1;fill-rule:nonzero;stroke:none"
             id="path302922"
             inkscape:connector-curvature="0" /></g></g></g></g></svg>