<?xml version="1.0" encoding="UTF-8" standalone="no"?>
<!-- Created with Inkscape (http://www.inkscape.org/) -->

<svg
   xmlns:dc="http://purl.org/dc/elements/1.1/"
   xmlns:cc="http://creativecommons.org/ns#"
   xmlns:rdf="http://www.w3.org/1999/02/22-rdf-syntax-ns#"
   xmlns:svg="http://www.w3.org/2000/svg"
   xmlns="http://www.w3.org/2000/svg"
   xmlns:sodipodi="http://sodipodi.sourceforge.net/DTD/sodipodi-0.dtd"
   xmlns:inkscape="http://www.inkscape.org/namespaces/inkscape"
   id="svg4814"
   version="1.1"
   inkscape:version="0.91 r13725"
   xml:space="preserve"
   width="301.18124"
   height="230.31375"
   viewBox="0 0 301.18124 230.31375"
   sodipodi:docname="cars.svg"><metadata
     id="metadata4820"><rdf:RDF><cc:Work
         rdf:about=""><dc:format>image/svg+xml</dc:format><dc:type
           rdf:resource="http://purl.org/dc/dcmitype/StillImage" /><dc:title></dc:title></cc:Work></rdf:RDF></metadata><defs
     id="defs4818"><clipPath
       clipPathUnits="userSpaceOnUse"
       id="clipPath4828"><path
         d="m 3.517,6.034 232.472,0 0,164.099 -232.472,0 0,-164.099 z"
         id="path4830"
         inkscape:connector-curvature="0" /></clipPath><clipPath
       clipPathUnits="userSpaceOnUse"
       id="clipPath5496"><path
         d="m 0,184.251 240.945,0 L 240.945,0 0,0 0,184.251 Z"
         id="path5498"
         inkscape:connector-curvature="0" /></clipPath></defs><sodipodi:namedview
     pagecolor="#ffffff"
     bordercolor="#666666"
     borderopacity="1"
     objecttolerance="10"
     gridtolerance="10"
     guidetolerance="10"
     inkscape:pageopacity="0"
     inkscape:pageshadow="2"
     inkscape:window-width="640"
     inkscape:window-height="480"
     id="namedview4816"
     showgrid="false"
     inkscape:zoom="1.3503319"
     inkscape:cx="150.59062"
     inkscape:cy="115.15688"
     inkscape:window-x="0"
     inkscape:window-y="0"
     inkscape:window-maximized="1"
     inkscape:current-layer="g4822" /><g
     id="g4822"
     inkscape:groupmode="layer"
     inkscape:label="cars"
     transform="matrix(1.25,0,0,-1.25,0,230.31375)"><g
       id="g4824"><g
         id="g4826"
         clip-path="url(#clipPath4828)"><g
           id="g4832"
           transform="translate(111.8521,120.7822)"><path
             d="m 0,0 c -0.118,-0.762 -1.461,-1.187 -3.001,-0.948 -1.54,0.237 -2.692,1.047 -2.575,1.808"
             style="fill:none;stroke:#231f20;stroke-width:1.44700003;stroke-linecap:round;stroke-linejoin:round;stroke-miterlimit:4;stroke-dasharray:none;stroke-opacity:1"
             id="path4834"
             inkscape:connector-curvature="0" /></g><g
           id="g4836"
           transform="translate(107,121.6426)"><path
             d="m 0,0 c 0.475,1.599 4.157,0.758 4.128,-0.86 -0.004,-0.26 1.443,-0.273 1.448,0 C 5.602,0.61 3.188,1.111 2.089,1.168 1.033,1.224 -1.06,1.304 -1.447,0 -1.49,-0.143 -0.103,-0.347 0,0"
             style="fill:#231f20;fill-opacity:1;fill-rule:nonzero;stroke:none"
             id="path4838"
             inkscape:connector-curvature="0" /></g><g
           id="g4840"
           transform="translate(107.1406,121.1758)"><path
             d="m 0,0 c 0.55,0.191 1.301,0.248 2.105,0.124 0.77,-0.12 1.444,-0.382 1.909,-0.708"
             style="fill:none;stroke:#231f20;stroke-width:0.48199999;stroke-linecap:round;stroke-linejoin:round;stroke-miterlimit:4;stroke-dasharray:none;stroke-opacity:1"
             id="path4842"
             inkscape:connector-curvature="0" /></g><g
           id="g4844"
           transform="translate(100.9688,121.9888)"><path
             d="m 0,0 c 0.038,-0.493 0.224,-0.915 0.49,-1.325 0.163,-0.251 0.374,-0.468 0.586,-0.678 0.236,-0.233 0.56,-0.401 0.6,-0.76 0.033,-0.304 1.471,-0.222 1.447,0 C 3.068,-2.271 2.524,-1.973 2.211,-1.64 1.784,-1.184 1.495,-0.626 1.447,0 1.425,0.293 -0.018,0.237 0,0"
             style="fill:#231f20;fill-opacity:1;fill-rule:nonzero;stroke:none"
             id="path4846"
             inkscape:connector-curvature="0" /></g><g
           id="g4848"
           transform="translate(110.5347,125.2134)"><path
             d="m 0,0 c -0.047,-0.356 -0.347,-0.476 -0.91,-0.366 -4.03,0.791 -7.602,-0.492 -7.912,-2.5 -0.019,-0.119 -0.026,-0.238 -0.02,-0.359"
             style="fill:none;stroke:#231f20;stroke-width:1.44700003;stroke-linecap:round;stroke-linejoin:round;stroke-miterlimit:4;stroke-dasharray:none;stroke-opacity:1"
             id="path4850"
             inkscape:connector-curvature="0" /></g><g
           id="g4852"
           transform="translate(109.0835,131.4082)"><path
             d="m 0,0 c -0.141,-1.045 -0.159,-2.06 -0.036,-3.107 0.123,-1.048 0.754,-2.051 0.764,-3.088 0.002,-0.27 1.449,-0.263 1.447,0 C 2.167,-5.313 1.667,-4.417 1.484,-3.552 1.237,-2.385 1.289,-1.173 1.447,0 1.476,0.212 0.042,0.311 0,0"
             style="fill:#231f20;fill-opacity:1;fill-rule:nonzero;stroke:none"
             id="path4854"
             inkscape:connector-curvature="0" /></g><g
           id="g4856"
           transform="translate(216.502,146.686)"><path
             d="m 0,0 c 0.367,1.076 10.828,-2.013 12.261,-2.277 0.725,-0.133 2.434,-0.555 3.111,0.084 1.1,1.036 1.492,3.078 1.823,4.499 0.04,0.17 -1.369,0.335 -1.447,0 C 15.369,0.677 14.926,-2.358 12.862,-1.937 10.857,-1.526 8.865,-1.046 6.873,-0.581 5.601,-0.284 -0.688,2.221 -1.447,0 -1.489,-0.124 -0.12,-0.353 0,0"
             style="fill:#231f20;fill-opacity:1;fill-rule:nonzero;stroke:none"
             id="path4858"
             inkscape:connector-curvature="0" /></g><g
           id="g4860"
           transform="translate(206.8633,132.0864)"><path
             d="m 0,0 c 0.158,0.218 0.419,0.389 0.8,0.469 5.853,1.232 9.637,3.642 10.311,6.902 0.035,0.159 0.059,0.317 0.077,0.477"
             style="fill:none;stroke:#231f20;stroke-width:1.44700003;stroke-linecap:round;stroke-linejoin:round;stroke-miterlimit:4;stroke-dasharray:none;stroke-opacity:1"
             id="path4862"
             inkscape:connector-curvature="0" /></g><g
           id="g4864"
           transform="translate(203.21,124.5371)"><path
             d="M 0,0 C 0.021,0.452 0.426,0.832 1.151,0.927 3.542,1.238 5.366,1.94 5.572,3.263"
             style="fill:none;stroke:#231f20;stroke-width:1.44700003;stroke-linecap:round;stroke-linejoin:round;stroke-miterlimit:4;stroke-dasharray:none;stroke-opacity:1"
             id="path4866"
             inkscape:connector-curvature="0" /></g><g
           id="g4868"
           transform="translate(190.79,103.6938)"><path
             d="M 0,0 C 0.021,0.422 0.431,0.791 1.301,1.098 8.524,3.656 13.159,7.91 13.954,13.062"
             style="fill:none;stroke:#231f20;stroke-width:1.44700003;stroke-linecap:round;stroke-linejoin:round;stroke-miterlimit:4;stroke-dasharray:none;stroke-opacity:1"
             id="path4870"
             inkscape:connector-curvature="0" /></g><g
           id="g4872"
           transform="translate(185.8691,95.1997)"><path
             d="M 0,0 C 0.421,0.496 1.279,0.81 2.342,0.895 5.363,1.138 7.649,2.174 7.907,3.848"
             style="fill:none;stroke:#231f20;stroke-width:1.44700003;stroke-linecap:round;stroke-linejoin:round;stroke-miterlimit:4;stroke-dasharray:none;stroke-opacity:1"
             id="path4874"
             inkscape:connector-curvature="0" /></g><g
           id="g4876"
           transform="translate(190.79,103.6938)"><path
             d="M 0,0 C -0.02,-0.422 0.349,-0.899 1.033,-1.423 2.36,-2.435 3.158,-3.531 2.986,-4.646 l 0,-2.831 c -0.257,-1.673 -2.544,-2.71 -5.565,-2.953 -0.471,-0.037 -0.902,-0.12 -1.274,-0.244"
             style="fill:none;stroke:#231f20;stroke-width:1.44700003;stroke-linecap:round;stroke-linejoin:round;stroke-miterlimit:4;stroke-dasharray:none;stroke-opacity:1"
             id="path4878"
             inkscape:connector-curvature="0" /></g><g
           id="g4880"
           transform="translate(174.9893,68.8506)"><path
             d="m 0,0 c 0.746,1.725 2.269,2.43 3.807,3.344 1.804,1.072 3.445,2.39 4.935,3.864 2.321,2.294 3.865,5.217 4.442,8.42 0.035,0.192 -1.39,0.323 -1.448,0 C 11.06,11.865 9.042,8.832 6.264,6.271 3.921,4.111 -0.134,3.035 -1.447,0 -1.485,-0.088 -0.156,-0.36 0,0"
             style="fill:#231f20;fill-opacity:1;fill-rule:nonzero;stroke:none"
             id="path4882"
             inkscape:connector-curvature="0" /></g><g
           id="g4884"
           transform="translate(185.8691,95.1997)"><path
             d="m 0,0 c -0.309,-0.361 -0.383,-0.821 -0.135,-1.36 1.446,-3.146 2.197,-6.244 1.715,-9.361 l 0,-2.829 c -0.786,-5.096 -4.422,-9.406 -10.077,-12.669 -1.367,-0.658 -2.242,-1.42 -2.746,-2.219"
             style="fill:none;stroke:#231f20;stroke-width:1.44700003;stroke-linecap:round;stroke-linejoin:round;stroke-miterlimit:4;stroke-dasharray:none;stroke-opacity:1"
             id="path4886"
             inkscape:connector-curvature="0" /></g><g
           id="g4888"
           transform="translate(41.2769,72.6514)"><path
             d="m 0,0 c -0.37,-4.25 3.745,-6.44 7.046,-8.006 3.348,-1.588 7.063,-2.967 10.106,-5.104 1.029,-0.723 1.802,-3.155 2.386,-4.244 0.912,-1.702 1.842,-3.394 2.775,-5.085 2.202,-3.993 5.533,-5.823 10.053,-6.382 3.262,-0.404 6.692,0.547 9.894,1.105 2.056,0.359 4.112,0.715 6.169,1.069 2.261,0.388 4.811,1.108 7.083,0.637 3.683,-0.761 7.339,-2.298 10.914,-3.445 3.995,-1.282 7.99,-2.567 11.991,-3.828 1.562,-0.492 3.206,-0.842 4.572,-1.78 1.27,-0.875 2.158,-2.368 3.057,-3.606 1.902,-2.617 3.803,-5.234 5.705,-7.852 5.272,-7.255 14.818,-4.569 22.061,-3.09 4.025,0.821 9.162,2.697 13.265,1.797 2.731,-0.6 5.476,-1.141 8.214,-1.711 6.529,-1.361 15.457,-4.164 20.741,1.531 1.027,1.107 1.493,2.841 2.051,4.203 1.209,2.948 2.417,5.896 3.625,8.845 1.903,4.642 3.806,9.284 5.709,13.926 0.04,0.098 -1.298,0.358 -1.448,0 -1.877,-4.489 -3.397,-9.191 -5.49,-13.584 -0.034,-0.072 1.274,-0.362 1.447,0 2.093,4.393 3.614,9.095 5.491,13.584 l -1.448,0 c -2.273,-5.547 -4.548,-11.095 -6.821,-16.643 -1.125,-2.746 -2.251,-5.492 -3.376,-8.238 -1.954,-4.768 -7.94,-5.768 -12.515,-4.815 -3.268,0.681 -6.538,1.362 -9.807,2.043 -2.623,0.546 -5.722,1.612 -8.424,1.544 -3.242,-0.082 -6.535,-1.061 -9.7,-1.709 -3.173,-0.648 -6.347,-1.295 -9.521,-1.941 -11.233,-2.288 -14.618,8.306 -20.502,14.974 -1.953,2.214 -5.825,2.762 -8.541,3.626 -4.312,1.371 -8.619,2.756 -12.927,4.14 -3.227,1.037 -6.682,2.599 -10.108,2.601 -3.474,10e-4 -7.23,-1.102 -10.638,-1.694 -5.041,-0.876 -10.091,-2.301 -14.988,0.06 -3.534,1.703 -5.137,6.055 -6.901,9.319 -0.866,1.602 -1.594,3.995 -3.119,5.066 -1.64,1.153 -3.627,1.915 -5.421,2.78 C 8.564,-7.934 0.954,-5.679 1.447,0 1.467,0.232 0.026,0.297 0,0"
             style="fill:#231f20;fill-opacity:1;fill-rule:nonzero;stroke:none"
             id="path4890"
             inkscape:connector-curvature="0" /></g><g
           id="g4892"
           transform="translate(174.2656,68.8506)"><path
             d="m 0,0 c -0.995,-2.821 2.027,-5.852 4.128,-6.378 2.893,-0.723 8.441,-2.411 10.613,-3.256 l 19.16,-7.189 0.099,-3.353"
             style="fill:none;stroke:#231f20;stroke-width:1.44700003;stroke-linecap:round;stroke-linejoin:round;stroke-miterlimit:4;stroke-dasharray:none;stroke-opacity:1"
             id="path4894"
             inkscape:connector-curvature="0" /></g><g
           id="g4896"
           transform="translate(137.3086,146.8965)"><path
             d="m 0,0 c -0.11,-0.702 -1.347,-1.094 -2.767,-0.875 -1.421,0.22 -2.482,0.966 -2.375,1.668"
             style="fill:none;stroke:#231f20;stroke-width:1.44700003;stroke-linecap:round;stroke-linejoin:round;stroke-miterlimit:4;stroke-dasharray:none;stroke-opacity:1"
             id="path4898"
             inkscape:connector-curvature="0" /></g><g
           id="g4900"
           transform="translate(132.8906,147.6899)"><path
             d="m 0,0 c 0.432,1.455 3.721,0.66 3.694,-0.793 -0.005,-0.26 1.443,-0.273 1.448,0 C 5.166,0.577 2.904,1.037 1.885,1.09 0.897,1.142 -1.084,1.223 -1.447,0 -1.489,-0.143 -0.103,-0.347 0,0"
             style="fill:#231f20;fill-opacity:1;fill-rule:nonzero;stroke:none"
             id="path4902"
             inkscape:connector-curvature="0" /></g><g
           id="g4904"
           transform="translate(132.6406,147.2793)"><path
             d="M 0,0 C 0.516,0.238 1.296,0.324 2.138,0.194 3.064,0.051 3.837,-0.317 4.234,-0.749"
             style="fill:none;stroke:#231f20;stroke-width:0.48199999;stroke-linecap:round;stroke-linejoin:round;stroke-miterlimit:4;stroke-dasharray:none;stroke-opacity:1"
             id="path4906"
             inkscape:connector-curvature="0" /></g><g
           id="g4908"
           transform="translate(203.7939,128.9648)"><path
             d="m 0,0 c -0.133,-0.855 -1.653,-1.33 -3.396,-1.062 -1.747,0.27 -3.049,1.181 -2.919,2.036"
             style="fill:none;stroke:#231f20;stroke-width:1.44700003;stroke-linecap:round;stroke-linejoin:round;stroke-miterlimit:4;stroke-dasharray:none;stroke-opacity:1"
             id="path4910"
             inkscape:connector-curvature="0" /></g><g
           id="g4912"
           transform="translate(198.2021,129.9385)"><path
             d="m 0,0 c 0.545,1.824 4.899,0.91 4.868,-0.974 -0.004,-0.259 1.443,-0.272 1.447,0 C 6.358,1.584 -0.729,2.402 -1.447,0 -1.489,-0.142 -0.104,-0.347 0,0"
             style="fill:#231f20;fill-opacity:1;fill-rule:nonzero;stroke:none"
             id="path4914"
             inkscape:connector-curvature="0" /></g><g
           id="g4916"
           transform="translate(198.3145,129.2979)"><path
             d="M 0,0 C 0.623,0.22 1.485,0.284 2.406,0.141 3.468,-0.021 4.369,-0.424 4.88,-0.906"
             style="fill:none;stroke:#231f20;stroke-width:0.48199999;stroke-linecap:round;stroke-linejoin:round;stroke-miterlimit:4;stroke-dasharray:none;stroke-opacity:1"
             id="path4918"
             inkscape:connector-curvature="0" /></g><g
           id="g4920"
           transform="translate(215.7842,151.3271)"><path
             d="m 0,0 c -0.117,-0.75 -1.592,-1.143 -3.297,-0.881 -1.706,0.264 -2.994,1.084 -2.88,1.834"
             style="fill:none;stroke:#231f20;stroke-width:1.44700003;stroke-linecap:round;stroke-linejoin:round;stroke-miterlimit:4;stroke-dasharray:none;stroke-opacity:1"
             id="path4922"
             inkscape:connector-curvature="0" /></g><g
           id="g4924"
           transform="translate(210.3311,152.2803)"><path
             d="m 0,0 c 0.492,1.555 4.732,0.724 4.729,-0.953 0,-0.266 1.447,-0.267 1.448,0 C 6.18,0.562 3.441,1.036 2.346,1.106 1.283,1.174 -1.028,1.324 -1.447,0 -1.49,-0.134 -0.11,-0.35 0,0"
             style="fill:#231f20;fill-opacity:1;fill-rule:nonzero;stroke:none"
             id="path4926"
             inkscape:connector-curvature="0" /></g><g
           id="g4928"
           transform="translate(209.9326,151.5249)"><path
             d="M 0,0 C 0.545,0.414 1.694,0.586 2.973,0.388 4.013,0.229 4.897,-0.139 5.402,-0.571"
             style="fill:none;stroke:#231f20;stroke-width:0.48199999;stroke-linecap:round;stroke-linejoin:round;stroke-miterlimit:4;stroke-dasharray:none;stroke-opacity:1"
             id="path4930"
             inkscape:connector-curvature="0" /></g><g
           id="g4932"
           transform="translate(161.1133,165.8486)"><path
             d="M 0,0 C -0.105,-0.672 -1.427,-1.023 -2.958,-0.789 -4.486,-0.552 -5.64,0.184 -5.537,0.855"
             style="fill:none;stroke:#231f20;stroke-width:1.44700003;stroke-linecap:round;stroke-linejoin:round;stroke-miterlimit:4;stroke-dasharray:none;stroke-opacity:1"
             id="path4934"
             inkscape:connector-curvature="0" /></g><g
           id="g4936"
           transform="translate(156.2998,166.7041)"><path
             d="m 0,0 c 0.431,1.374 4.093,0.599 4.09,-0.855 -10e-4,-0.266 1.446,-0.268 1.447,0 C 5.54,0.522 3.039,0.947 2.047,1.01 1.078,1.072 -1.067,1.214 -1.447,0 -1.49,-0.136 -0.109,-0.349 0,0"
             style="fill:#231f20;fill-opacity:1;fill-rule:nonzero;stroke:none"
             id="path4938"
             inkscape:connector-curvature="0" /></g><g
           id="g4940"
           transform="translate(156.0312,166.0801)"><path
             d="M 0,0 C 0.549,0.235 1.408,0.31 2.343,0.167 3.108,0.048 3.78,-0.195 4.248,-0.492"
             style="fill:none;stroke:#231f20;stroke-width:0.48199999;stroke-linecap:round;stroke-linejoin:round;stroke-miterlimit:4;stroke-dasharray:none;stroke-opacity:1"
             id="path4942"
             inkscape:connector-curvature="0" /></g><g
           id="g4944"
           transform="translate(228.9238,148.2212)"><path
             d="m 0,0 c -0.36,-0.518 -1.557,-0.761 -2.911,-0.553 -1.563,0.242 -2.738,0.991 -2.633,1.678"
             style="fill:none;stroke:#231f20;stroke-width:1.44700003;stroke-linecap:round;stroke-linejoin:round;stroke-miterlimit:4;stroke-dasharray:none;stroke-opacity:1"
             id="path4946"
             inkscape:connector-curvature="0" /></g><g
           id="g4948"
           transform="translate(224.1035,149.3462)"><path
             d="m 0,0 c 0.479,1.518 4.749,0.452 4.097,-1.125 -0.039,-0.095 1.299,-0.359 1.447,0 C 6.392,0.922 -0.751,2.205 -1.447,0 -1.49,-0.135 -0.11,-0.35 0,0"
             style="fill:#231f20;fill-opacity:1;fill-rule:nonzero;stroke:none"
             id="path4950"
             inkscape:connector-curvature="0" /></g><g
           id="g4952"
           transform="translate(224.126,148.7769)"><path
             d="m 0,0 c 0.558,0.181 1.346,0.229 2.196,0.097 0.781,-0.12 1.465,-0.368 1.943,-0.671"
             style="fill:none;stroke:#231f20;stroke-width:0.48199999;stroke-linecap:round;stroke-linejoin:round;stroke-miterlimit:4;stroke-dasharray:none;stroke-opacity:1"
             id="path4954"
             inkscape:connector-curvature="0" /></g><g
           id="g4956"
           transform="translate(153.958,168.0508)"><path
             d="m 0,0 c -0.078,-0.498 -1.055,-0.757 -2.184,-0.584 -1.132,0.175 -1.985,0.718 -1.91,1.215"
             style="fill:none;stroke:#231f20;stroke-width:1.44700003;stroke-linecap:round;stroke-linejoin:round;stroke-miterlimit:4;stroke-dasharray:none;stroke-opacity:1"
             id="path4958"
             inkscape:connector-curvature="0" /></g><g
           id="g4960"
           transform="translate(149.8643,168.6821)"><path
             d="M 0,0 C 0.077,0.497 1.056,0.758 2.185,0.582 3.316,0.408 4.171,-0.135 4.094,-0.631"
             style="fill:none;stroke:#231f20;stroke-width:0.48199999;stroke-linecap:round;stroke-linejoin:round;stroke-miterlimit:4;stroke-dasharray:none;stroke-opacity:1"
             id="path4962"
             inkscape:connector-curvature="0" /></g><g
           id="g4964"
           transform="translate(188.6738,100.3047)"><path
             d="m 0,0 c -0.179,-1.146 -2.196,-1.783 -4.513,-1.426 -2.311,0.357 -4.043,1.574 -3.868,2.72"
             style="fill:none;stroke:#231f20;stroke-width:1.44700003;stroke-linecap:round;stroke-linejoin:round;stroke-miterlimit:4;stroke-dasharray:none;stroke-opacity:1"
             id="path4966"
             inkscape:connector-curvature="0" /></g><g
           id="g4968"
           transform="translate(181.0166,101.5986)"><path
             d="m 0,0 c 0.752,2.524 6.974,1.375 6.934,-1.294 -0.004,-0.261 1.443,-0.272 1.447,0 C 8.431,2.001 -0.515,3.131 -1.447,0 -1.489,-0.143 -0.104,-0.347 0,0"
             style="fill:#231f20;fill-opacity:1;fill-rule:nonzero;stroke:none"
             id="path4970"
             inkscape:connector-curvature="0" /></g><g
           id="g4972"
           transform="translate(181.6045,100.9678)"><path
             d="M 0,0 C 1.76,0.838 4.061,0.323 5.545,-0.878 5.854,-1.127 7.007,-0.835 6.941,-0.782 4.853,0.908 1.184,1.341 -1.25,0.183 -1.552,0.039 -0.281,-0.134 0,0"
             style="fill:#231f20;fill-opacity:1;fill-rule:nonzero;stroke:none"
             id="path4974"
             inkscape:connector-curvature="0" /></g><g
           id="g4976"
           transform="translate(182.2705,99.7222)"><path
             d="m 0,0 c 1.334,0.239 2.659,-0.033 3.868,-0.616 0.28,-0.135 0.694,-0.108 0.99,-0.065 0.105,0.015 0.538,0.114 0.26,0.248 C 3.331,0.429 1.217,0.661 -0.73,0.312 -1.633,0.151 -0.318,-0.057 0,0"
             style="fill:#231f20;fill-opacity:1;fill-rule:nonzero;stroke:none"
             id="path4978"
             inkscape:connector-curvature="0" /></g><g
           id="g4980"
           transform="translate(165.6602,60.5381)"><path
             d="M 0,0 C -0.406,-1.653 -2.888,-2.465 -5.55,-1.817 -8.205,-1.166 -10.032,0.7 -9.631,2.354"
             style="fill:none;stroke:#231f20;stroke-width:1.44700003;stroke-linecap:round;stroke-linejoin:round;stroke-miterlimit:4;stroke-dasharray:none;stroke-opacity:1"
             id="path4982"
             inkscape:connector-curvature="0" /></g><g
           id="g4984"
           transform="translate(156.7529,62.8926)"><path
             d="m 0,0 c 1.309,3.691 8.7,1.376 8.184,-2.354 -0.03,-0.211 1.404,-0.313 1.447,0 C 10.27,2.258 0.053,4.23 -1.447,0 -1.489,-0.119 -0.126,-0.354 0,0"
             style="fill:#231f20;fill-opacity:1;fill-rule:nonzero;stroke:none"
             id="path4986"
             inkscape:connector-curvature="0" /></g><g
           id="g4988"
           transform="translate(202.8516,49.0371)"><path
             d="M 0,0 C -0.259,-1.055 -1.841,-1.572 -3.538,-1.159 -5.23,-0.745 -6.395,0.444 -6.14,1.501"
             style="fill:none;stroke:#231f20;stroke-width:1.44700003;stroke-linecap:round;stroke-linejoin:round;stroke-miterlimit:4;stroke-dasharray:none;stroke-opacity:1"
             id="path4990"
             inkscape:connector-curvature="0" /></g><g
           id="g4992"
           transform="translate(197.4355,50.5381)"><path
             d="m 0,0 c 0.8,2.258 4.994,0.676 4.692,-1.501 -0.029,-0.21 1.405,-0.312 1.448,0 C 6.569,1.597 -0.463,2.777 -1.447,0 -1.489,-0.119 -0.126,-0.354 0,0"
             style="fill:#231f20;fill-opacity:1;fill-rule:nonzero;stroke:none"
             id="path4994"
             inkscape:connector-curvature="0" /></g><g
           id="g4996"
           transform="translate(156.9795,62.335)"><path
             d="m 0,0 c 2.277,1.898 6.7,0.479 7.616,-2.344 0.114,-0.35 1.49,-0.131 1.447,0 C 7.865,1.349 1.428,2.449 -1.396,0.096 -1.465,0.038 -0.304,-0.253 0,0"
             style="fill:#231f20;fill-opacity:1;fill-rule:nonzero;stroke:none"
             id="path4998"
             inkscape:connector-curvature="0" /></g><g
           id="g5000"
           transform="translate(157.1084,61.1904)"><path
             d="M 0,0 C 2.315,1.204 5.347,0.117 6.794,-1.889 7.001,-2.175 8.3,-1.945 8.19,-1.793 6.237,0.915 1.654,1.693 -1.25,0.182 -1.555,0.023 -0.275,-0.144 0,0"
             style="fill:#231f20;fill-opacity:1;fill-rule:nonzero;stroke:none"
             id="path5002"
             inkscape:connector-curvature="0" /></g><g
           id="g5004"
           transform="translate(157.4609,60.0039)"><path
             d="M 0,0 C 1.826,0.522 3.721,-0.089 5.185,-1.206 5.503,-1.448 6.639,-1.154 6.581,-1.11 4.47,0.5 1.521,0.983 -1.023,0.256 -1.657,0.074 -0.249,-0.071 0,0"
             style="fill:#231f20;fill-opacity:1;fill-rule:nonzero;stroke:none"
             id="path5006"
             inkscape:connector-curvature="0" /></g><g
           id="g5008"
           transform="translate(87.8105,85.6445)"><path
             d="m 0,0 c -0.012,-1.701 -2.237,-3.064 -4.978,-3.052 -2.734,0.02 -4.943,1.412 -4.936,3.114"
             style="fill:none;stroke:#231f20;stroke-width:1.44700003;stroke-linecap:round;stroke-linejoin:round;stroke-miterlimit:4;stroke-dasharray:none;stroke-opacity:1"
             id="path5010"
             inkscape:connector-curvature="0" /></g><g
           id="g5012"
           transform="translate(78.6201,85.707)"><path
             d="m 0,0 c 0.417,3.895 8.096,3.83 8.467,-0.062 0.028,-0.299 1.469,-0.229 1.447,0 C 9.484,4.445 -0.965,4.502 -1.447,0 -1.471,-0.224 -0.032,-0.303 0,0"
             style="fill:#231f20;fill-opacity:1;fill-rule:nonzero;stroke:none"
             id="path5014"
             inkscape:connector-curvature="0" /></g><g
           id="g5016"
           transform="translate(78.916,85.0586)"><path
             d="M 0,0 C 1.717,2.392 5.631,2.352 7.623,0.312 7.888,0.04 9.109,0.314 9.018,0.408 6.623,2.86 0.728,3.054 -1.396,0.096 -1.505,-0.058 -0.205,-0.286 0,0"
             style="fill:#231f20;fill-opacity:1;fill-rule:nonzero;stroke:none"
             id="path5018"
             inkscape:connector-curvature="0" /></g><g
           id="g5020"
           transform="translate(79.6089,84.1514)"><path
             d="M 0,0 C 1.827,1.334 4.204,1.336 6.135,0.232 6.404,0.079 7.692,0.24 7.385,0.415 4.823,1.878 1.019,1.858 -1.396,0.097 -1.447,0.059 -0.324,-0.236 0,0"
             style="fill:#231f20;fill-opacity:1;fill-rule:nonzero;stroke:none"
             id="path5022"
             inkscape:connector-curvature="0" /></g><g
           id="g5024"
           transform="translate(80.646,83.0879)"><path
             d="M 0,0 C 1.331,0.526 2.703,0.572 4.064,0.118 4.378,0.014 4.729,0.006 5.054,0.054 5.128,0.064 5.619,0.199 5.314,0.301 3.198,1.007 0.834,1.007 -1.25,0.183 -1.542,0.066 -0.291,-0.115 0,0"
             style="fill:#231f20;fill-opacity:1;fill-rule:nonzero;stroke:none"
             id="path5026"
             inkscape:connector-curvature="0" /></g><g
           id="g5028"
           transform="translate(184.0596,52.2998)"><path
             d="M 0,0 C -0.477,-1.4 -2.658,-1.924 -4.879,-1.176 -7.097,-0.42 -8.512,1.322 -8.038,2.728"
             style="fill:none;stroke:#231f20;stroke-width:0.48199999;stroke-linecap:round;stroke-linejoin:round;stroke-miterlimit:4;stroke-dasharray:none;stroke-opacity:1"
             id="path5030"
             inkscape:connector-curvature="0" /></g><g
           id="g5032"
           transform="translate(176.0215,55.0273)"><path
             d="M 0,0 1.784,6.541 C 2.261,7.937 4.441,8.46 6.66,7.709 8.877,6.957 10.293,5.214 9.82,3.813 L 8.038,-2.728"
             style="fill:#ffffff;fill-opacity:1;fill-rule:nonzero;stroke:#231f20;stroke-width:1.44700003;stroke-linecap:round;stroke-linejoin:round;stroke-miterlimit:4;stroke-dasharray:none;stroke-opacity:1"
             id="path5034"
             inkscape:connector-curvature="0" /></g><g
           id="g5036"
           transform="translate(185.1182,58.8398)"><path
             d="m 0,0 c -1.368,-3.017 -7.319,-0.334 -6.589,2.729 0.04,0.167 -1.367,0.335 -1.447,0 C -9.005,-1.336 -0.175,-3.576 1.447,0 1.483,0.08 0.164,0.361 0,0"
             style="fill:#231f20;fill-opacity:1;fill-rule:nonzero;stroke:none"
             id="path5038"
             inkscape:connector-curvature="0" /></g><g
           id="g5040"
           transform="translate(78.7798,50.3008)"><path
             d="m 0,0 c 0.016,-1.709 -2.098,-3.115 -4.719,-3.139 -2.62,-0.022 -4.758,1.345 -4.772,3.058"
             style="fill:none;stroke:#231f20;stroke-width:1.44700003;stroke-linecap:round;stroke-linejoin:round;stroke-miterlimit:4;stroke-dasharray:none;stroke-opacity:1"
             id="path5042"
             inkscape:connector-curvature="0" /></g><g
           id="g5044"
           transform="translate(70.0122,50.2197)"><path
             d="m 0,0 c 0.335,3.872 7.641,3.957 8.044,0.081 0.031,-0.302 1.471,-0.225 1.447,0 C 9.022,4.587 -1.056,4.523 -1.447,0 -1.467,-0.232 -0.026,-0.297 0,0"
             style="fill:#231f20;fill-opacity:1;fill-rule:nonzero;stroke:none"
             id="path5046"
             inkscape:connector-curvature="0" /></g><g
           id="g5048"
           transform="translate(70.2432,49.5771)"><path
             d="M 0,0 C 1.494,2.514 5.319,2.6 7.281,0.58 7.545,0.308 8.768,0.581 8.676,0.676 6.331,3.092 0.462,3.222 -1.396,0.096 -1.508,-0.093 -0.17,-0.286 0,0"
             style="fill:#231f20;fill-opacity:1;fill-rule:nonzero;stroke:none"
             id="path5050"
             inkscape:connector-curvature="0" /></g><g
           id="g5052"
           transform="translate(70.7231,48.6543)"><path
             d="M 0,0 C 1.74,1.691 4.521,1.794 6.446,0.315 6.763,0.072 7.9,0.366 7.842,0.411 5.367,2.313 0.892,2.319 -1.396,0.096 -1.482,0.012 -0.275,-0.269 0,0"
             style="fill:#231f20;fill-opacity:1;fill-rule:nonzero;stroke:none"
             id="path5054"
             inkscape:connector-curvature="0" /></g><g
           id="g5056"
           transform="translate(71.772,47.8623)"><path
             d="M 0,0 C 1.465,0.714 3.016,0.771 4.515,0.117 4.802,-0.007 6.062,0.171 5.765,0.301 3.591,1.247 0.887,1.223 -1.25,0.184 -1.552,0.036 -0.28,-0.136 0,0"
             style="fill:#231f20;fill-opacity:1;fill-rule:nonzero;stroke:none"
             id="path5058"
             inkscape:connector-curvature="0" /></g><g
           id="g5060"
           transform="translate(147.0254,27.1182)"><path
             d="m 0,0 c -0.397,-1.779 -2.856,-2.741 -5.486,-2.153 -2.631,0.59 -4.443,2.508 -4.043,4.285"
             style="fill:none;stroke:#231f20;stroke-width:1.44700003;stroke-linecap:round;stroke-linejoin:round;stroke-miterlimit:4;stroke-dasharray:none;stroke-opacity:1"
             id="path5062"
             inkscape:connector-curvature="0" /></g><g
           id="g5064"
           transform="translate(138.2197,29.25)"><path
             d="m 0,0 c 1.271,3.948 8.591,1.81 8.082,-2.132 -0.027,-0.215 1.407,-0.309 1.447,0 C 10.158,2.742 0.003,4.506 -1.447,0 -1.49,-0.133 -0.112,-0.351 0,0"
             style="fill:#231f20;fill-opacity:1;fill-rule:nonzero;stroke:none"
             id="path5066"
             inkscape:connector-curvature="0" /></g><g
           id="g5068"
           transform="translate(138.3242,28.7305)"><path
             d="m 0,0 c 2.268,1.981 6.233,0.717 7.359,-1.917 0.155,-0.36 1.486,-0.09 1.448,0 C 7.312,1.577 1.384,2.524 -1.396,0.096 -1.471,0.03 -0.295,-0.258 0,0"
             style="fill:#231f20;fill-opacity:1;fill-rule:nonzero;stroke:none"
             id="path5070"
             inkscape:connector-curvature="0" /></g><g
           id="g5072"
           transform="translate(138.6914,27.7158)"><path
             d="M 0,0 C 2.276,0.951 5.052,-0.092 6.307,-2.163 6.48,-2.449 7.814,-2.252 7.703,-2.067 5.97,0.792 1.648,1.394 -1.25,0.184 -1.546,0.06 -0.288,-0.12 0,0"
             style="fill:#231f20;fill-opacity:1;fill-rule:nonzero;stroke:none"
             id="path5074"
             inkscape:connector-curvature="0" /></g><g
           id="g5076"
           transform="translate(139.2871,26.4316)"><path
             d="M 0,0 C 1.664,0.157 3.272,-0.461 4.479,-1.586 4.764,-1.851 5.958,-1.566 5.876,-1.49 4.2,0.071 1.845,0.56 -0.385,0.35 -1.383,0.255 -0.532,-0.05 0,0"
             style="fill:#231f20;fill-opacity:1;fill-rule:nonzero;stroke:none"
             id="path5078"
             inkscape:connector-curvature="0" /></g><g
           id="g5080"
           transform="translate(53.7075,70.8955)"><path
             d="m 0,0 c 0.411,1.08 1.672,2.05 2.43,2.857 1.41,1.5 2.82,3.001 4.231,4.501 1.39,1.48 2.026,2.716 4.665,2.084 0.492,-0.118 0.984,-0.238 1.476,-0.359 9.236,-2.266 18.425,-4.726 27.584,-7.284 26.801,-7.487 53.274,-16.195 79.76,-24.719 1.72,-0.554 3.439,-1.107 5.157,-1.666 1.762,-0.572 2.761,-2.602 4.566,-2.887 0.553,-0.087 1.223,-0.175 1.76,0.052 0.987,0.419 1.728,1.422 2.918,0.973 2.137,-0.806 6.008,-1.574 7.04,-3.776 0.17,-0.362 1.483,-0.074 1.448,0 -1.048,2.234 -5.482,3.647 -7.786,4.16 -1.054,0.234 -2.312,0.408 -3.293,-0.184 -0.353,-0.213 -0.676,-0.446 -1.006,-0.692 -0.648,-0.484 -1.712,0.819 -2.063,1.18 -0.527,0.544 -1.068,0.943 -1.787,1.179 -7.614,2.497 -15.257,4.914 -22.892,7.348 C 77.05,-8.575 49.894,0.062 22.288,7.202 19.548,7.91 16.804,8.605 14.056,9.282 12.361,9.7 10.786,10.191 9.011,10.059 6.729,9.889 5.103,7.283 3.685,5.773 2.158,4.148 -0.635,2.135 -1.447,0 -1.489,-0.108 -0.136,-0.356 0,0"
             style="fill:#231f20;fill-opacity:1;fill-rule:nonzero;stroke:none"
             id="path5082"
             inkscape:connector-curvature="0" /></g><g
           id="g5084"
           transform="translate(196.0186,40.6719)"><path
             d="m 0,0 c 0.104,-0.315 0.122,-0.635 0.037,-0.944 l -4.735,-11.294 c -0.474,-1.096 -2.221,-1.575 -4.05,-1.074 l -7.791,2.43 c 0,0 0.12,1.809 -1.328,2.291 -1.809,0.604 -1.568,-2.773 -6.993,-1.327 -5.428,1.448 -27.417,7.68 -61.992,18.613 -34.573,10.936 -54.514,19.454 -54.514,19.454 -1.095,0.467 -1.791,1.276 -1.669,2.075"
             style="fill:none;stroke:#231f20;stroke-width:1.44700003;stroke-linecap:round;stroke-linejoin:round;stroke-miterlimit:4;stroke-dasharray:none;stroke-opacity:1"
             id="path5086"
             inkscape:connector-curvature="0" /></g><g
           id="g5088"
           transform="translate(171.0283,87.0127)"><path
             d="M 0,0 C -1.569,-10.166 -19.491,-15.829 -40.044,-12.657 -60.583,-9.486 -75.971,1.32 -74.401,11.484"
             style="fill:none;stroke:#231f20;stroke-width:1.44700003;stroke-linecap:round;stroke-linejoin:round;stroke-miterlimit:4;stroke-dasharray:none;stroke-opacity:1"
             id="path5090"
             inkscape:connector-curvature="0" /></g><g
           id="g5092"
           transform="translate(97.3511,98.4966)"><path
             d="m 0,0 c 1.049,5.874 6.708,9.084 11.873,10.923 9.107,3.244 19.435,2.894 28.822,1.28 8.632,-1.485 17.357,-4.551 24.435,-9.807 4.335,-3.22 8.576,-8.115 7.824,-13.88 -0.029,-0.214 1.407,-0.309 1.447,0 C 75.254,-4.939 69.859,0.234 64.947,3.621 57.29,8.901 47.889,11.587 38.785,12.938 29.949,14.25 20.59,14.104 11.984,11.548 6.306,9.862 -0.305,6.393 -1.447,0 -1.482,-0.193 -0.058,-0.323 0,0"
             style="fill:#231f20;fill-opacity:1;fill-rule:nonzero;stroke:none"
             id="path5094"
             inkscape:connector-curvature="0" /></g><g
           id="g5096"
           transform="translate(190.0771,119.3647)"><path
             d="m 0,0 c -1.291,-8.365 -16.996,-11.788 -35.091,-8.994 -18.081,2.79 -31.7,10.74 -30.409,19.104"
             style="fill:none;stroke:#231f20;stroke-width:1.44700003;stroke-linecap:round;stroke-linejoin:round;stroke-miterlimit:4;stroke-dasharray:none;stroke-opacity:1"
             id="path5098"
             inkscape:connector-curvature="0" /></g><g
           id="g5100"
           transform="translate(125.3008,129.4746)"><path
             d="m 0,0 c 0.96,5.212 6.467,7.733 11.032,9.093 7.936,2.365 16.665,1.934 24.726,0.537 7.435,-1.289 14.936,-3.832 21.175,-8.151 3.745,-2.591 7.737,-6.653 7.12,-11.589 -0.028,-0.216 1.409,-0.308 1.447,0 0.713,5.703 -4.503,10.028 -8.795,12.764 C 49.892,6.995 41.739,9.199 33.821,10.371 26.182,11.501 18.159,11.456 10.651,9.527 5.755,8.27 -0.424,5.552 -1.447,0 -1.482,-0.191 -0.06,-0.324 0,0"
             style="fill:#231f20;fill-opacity:1;fill-rule:nonzero;stroke:none"
             id="path5102"
             inkscape:connector-curvature="0" /></g><g
           id="g5104"
           transform="translate(119.7402,130.1089)"><path
             d="m 0,0 c -0.899,-7.444 6.796,-12.727 12.445,-15.842 0.272,-0.15 1.557,0.013 1.25,0.182 C 8.116,-12.583 0.561,-7.336 1.447,0 1.474,0.218 0.037,0.307 0,0"
             style="fill:#231f20;fill-opacity:1;fill-rule:nonzero;stroke:none"
             id="path5106"
             inkscape:connector-curvature="0" /></g><g
           id="g5108"
           transform="translate(142.9102,154.8237)"><path
             d="m 0,0 c -1.037,-6.573 9.371,-11.079 13.965,-13.122 0.285,-0.127 1.549,0.05 1.25,0.183 C 10.725,-10.942 0.426,-6.477 1.447,0 1.479,0.202 0.05,0.317 0,0"
             style="fill:#231f20;fill-opacity:1;fill-rule:nonzero;stroke:none"
             id="path5110"
             inkscape:connector-curvature="0" /></g><g
           id="g5112"
           transform="translate(179.1416,135.498)"><path
             d="m 0,0 c 6.971,-1.019 14.126,-1.465 21.114,-0.354 3.597,0.571 9.22,1.86 10.259,6.006 0.041,0.162 -1.362,0.339 -1.447,0 C 29.028,2.072 24.631,0.853 21.495,0.166 14.754,-1.311 7.488,-0.675 0.73,0.312 0.414,0.359 -0.905,0.132 0,0"
             style="fill:#231f20;fill-opacity:1;fill-rule:nonzero;stroke:none"
             id="path5114"
             inkscape:connector-curvature="0" /></g><g
           id="g5116"
           transform="translate(159.7158,106.5713)"><path
             d="m 0,0 c 7.728,-0.639 15.881,-0.466 23.322,1.947 4.984,1.616 10.845,4.519 11.877,10.211 0.035,0.193 -1.388,0.323 -1.447,0 C 32.855,7.213 28.211,4.442 23.885,2.755 16.527,-0.114 8.147,-0.293 0.385,0.349 -0.146,0.393 -1,0.083 0,0"
             style="fill:#231f20;fill-opacity:1;fill-rule:nonzero;stroke:none"
             id="path5118"
             inkscape:connector-curvature="0" /></g><g
           id="g5120"
           transform="translate(90.521,99.3271)"><path
             d="m 0,0 c -0.907,-7.088 4.572,-12.747 9.841,-16.611 1.717,-1.258 3.735,-2.808 5.805,-3.422 1.521,-0.451 3.042,-0.903 4.563,-1.354 7.739,-2.296 15.478,-4.592 23.217,-6.887 0.249,-0.075 1.657,0.068 1.024,0.255 -7.35,2.181 -14.7,4.361 -22.049,6.541 -1.608,0.478 -3.216,0.955 -4.825,1.432 -2.101,0.623 -3.838,1.822 -5.662,3.055 C 6.361,-13.24 0.519,-7.256 1.447,0 1.475,0.215 0.04,0.309 0,0"
             style="fill:#231f20;fill-opacity:1;fill-rule:nonzero;stroke:none"
             id="path5122"
             inkscape:connector-curvature="0" /></g><g
           id="g5124"
           transform="translate(175.6885,86.1816)"><path
             d="m 0,0 c -1.085,-6.168 -6.712,-9.799 -12.116,-11.975 -9.032,-3.637 -19.371,-3.842 -28.921,-2.851 -0.532,0.055 -1.381,-0.246 -0.385,-0.35 9.3,-0.964 19.147,-0.785 28.109,2.152 6.291,2.06 13.5,5.865 14.76,13.024 C 1.481,0.194 0.057,0.322 0,0"
             style="fill:#231f20;fill-opacity:1;fill-rule:nonzero;stroke:none"
             id="path5126"
             inkscape:connector-curvature="0" /></g><g
           id="g5128"
           transform="translate(120.2095,119.6484)"><path
             d="m 0,0 c -1.015,-2.782 -4.604,-2.601 -7.092,-2.895 -1.94,-0.23 -3.864,-0.576 -5.775,-0.974 -3.582,-0.746 -7.09,-1.889 -10.399,-3.451 -5.126,-2.419 -9.97,-6.457 -10.996,-12.295 -0.034,-0.195 1.391,-0.322 1.448,0 1.147,6.532 6.93,10.498 12.637,12.939 4.12,1.762 8.564,2.729 12.984,3.36 2.76,0.394 7.435,0.013 8.64,3.316 C 1.489,0.115 0.13,0.355 0,0"
             style="fill:#231f20;fill-opacity:1;fill-rule:nonzero;stroke:none"
             id="path5130"
             inkscape:connector-curvature="0" /></g><g
           id="g5132"
           transform="translate(144.3955,146.4697)"><path
             d="m 0,0 c -0.551,-3.228 -7.037,-3.037 -9.516,-3.488 -3.068,-0.56 -6.073,-1.44 -8.94,-2.667 -4.235,-1.814 -8.434,-4.947 -9.307,-9.726 -0.035,-0.192 1.388,-0.324 1.447,0 1.051,5.753 6.71,8.788 11.751,10.571 3.64,1.289 7.419,1.676 11.192,2.343 C -1.639,-2.661 1.095,-2.062 1.447,0 1.48,0.197 0.055,0.321 0,0"
             style="fill:#231f20;fill-opacity:1;fill-rule:nonzero;stroke:none"
             id="path5134"
             inkscape:connector-curvature="0" /></g><g
           id="g5136"
           transform="translate(213.1357,140.6074)"><path
             d="m 0,0 c 0.881,5.174 -5.375,9.303 -9.053,11.586 -7.516,4.666 -16.295,7.355 -24.908,9.091 -8.419,1.696 -17.23,2.326 -25.764,1.165 -4.325,-0.589 -11.867,-1.982 -13.123,-7.084 -0.04,-0.164 1.365,-0.338 1.448,0 1.255,5.103 8.835,6.286 13.087,6.865 9.208,1.252 18.825,-0.022 27.792,-2.19 7.571,-1.83 15.143,-4.641 21.663,-8.963 C -5.589,8.303 -0.68,4.51 -1.447,0 -1.48,-0.197 -0.055,-0.321 0,0"
             style="fill:#231f20;fill-opacity:1;fill-rule:nonzero;stroke:none"
             id="path5138"
             inkscape:connector-curvature="0" /></g><g
           id="g5140"
           transform="translate(198.0234,118.2495)"><path
             d="m 0,0 c 0.279,2.426 -0.297,4.567 -1.435,6.705 -0.513,0.965 -1.192,1.831 -1.876,2.678 -1.028,1.274 -2.783,2.273 -2.738,4.081 0.007,0.257 -1.44,0.276 -1.447,0 C -7.55,11.277 -4.903,9.615 -3.696,7.98 -1.977,5.649 -1.116,2.876 -1.447,0 -1.473,-0.22 -0.035,-0.305 0,0"
             style="fill:#231f20;fill-opacity:1;fill-rule:nonzero;stroke:none"
             id="path5142"
             inkscape:connector-curvature="0" /></g><g
           id="g5144"
           transform="translate(181.5303,84.5664)"><path
             d="m 0,0 c 0.647,3.332 0.052,6.367 -1.459,9.383 -0.757,1.513 -1.797,2.87 -2.872,4.166 -1.141,1.374 -3.225,2.605 -3.046,4.591 0.021,0.231 -1.421,0.297 -1.447,0 -0.108,-1.191 0.412,-1.877 1.219,-2.694 1.455,-1.472 2.769,-2.996 3.917,-4.722 C -1.553,7.509 -0.713,3.779 -1.447,0 -1.483,-0.187 -0.063,-0.326 0,0"
             style="fill:#231f20;fill-opacity:1;fill-rule:nonzero;stroke:none"
             id="path5146"
             inkscape:connector-curvature="0" /></g><g
           id="g5148"
           transform="translate(91.6519,80.416)"><path
             d="m 0,0 c -0.22,-0.731 0.122,-1.463 1.779,-2.048 3.315,-1.171 46.804,-14.822 50.12,-15.601 3.316,-0.781 4.877,-0.393 6.046,1.559 1.17,1.951 1.683,4.089 4.645,4.58 14.136,2.342 24.637,7.539 26.565,15.66"
             style="fill:none;stroke:#231f20;stroke-width:1.44700003;stroke-linecap:round;stroke-linejoin:round;stroke-miterlimit:4;stroke-dasharray:none;stroke-opacity:1"
             id="path5150"
             inkscape:connector-curvature="0" /></g><g
           id="g5152"
           transform="translate(93.3306,83.9043)"><path
             d="m 0,0 c 0.038,-0.722 -0.631,-1.233 -1.097,-1.697 -0.528,-0.526 -1.048,-1.079 -1.305,-1.791 -0.042,-0.116 1.319,-0.356 1.447,0 0.269,0.744 0.86,1.302 1.409,1.849 C 0.904,-1.191 1.483,-0.69 1.447,0 1.432,0.285 -0.013,0.246 0,0"
             style="fill:#231f20;fill-opacity:1;fill-rule:nonzero;stroke:none"
             id="path5154"
             inkscape:connector-curvature="0" /></g><g
           id="g5156"
           transform="translate(205.6104,142.0151)"><path
             d="M 0,0 C -1.14,-5.507 -14.996,-7.295 -30.961,-3.996 -46.916,-0.698 -58.933,6.441 -57.795,11.945"
             style="fill:none;stroke:#231f20;stroke-width:1.44700003;stroke-linecap:round;stroke-linejoin:round;stroke-miterlimit:4;stroke-dasharray:none;stroke-opacity:1"
             id="path5158"
             inkscape:connector-curvature="0" /></g><g
           id="g5160"
           transform="translate(148.5391,153.9604)"><path
             d="m 0,0 c 1.068,4.183 7.245,5.136 10.758,5.62 7.551,1.039 15.446,-0.052 22.782,-1.891 5.969,-1.498 11.916,-3.803 17.023,-7.276 2.614,-1.777 6.367,-4.807 5.785,-8.398 -0.033,-0.201 1.395,-0.319 1.447,0 0.688,4.25 -4.372,7.616 -7.399,9.514 C 44.303,1.392 37.157,3.575 30.153,4.977 23.347,6.338 16.232,6.787 9.341,5.838 5.772,5.347 -0.38,4.178 -1.447,0 -1.488,-0.161 -0.087,-0.34 0,0"
             style="fill:#231f20;fill-opacity:1;fill-rule:nonzero;stroke:none"
             id="path5162"
             inkscape:connector-curvature="0" /></g><g
           id="g5164"
           transform="translate(208.6592,65.46)"><path
             d="m 0,0 c 10.183,1.036 23.364,-4.55 26.192,-15.237 0.025,-0.093 0.318,-0.464 0.26,-0.244 C 23.545,-4.5 10.34,1.494 -0.199,0.422 -0.308,0.411 -0.11,-0.012 0,0"
             style="fill:#231f20;fill-opacity:1;fill-rule:nonzero;stroke:none"
             id="path5166"
             inkscape:connector-curvature="0" /></g><g
           id="g5168"
           transform="translate(210.8936,60.8574)"><path
             d="m 0,0 c 8.353,0.007 20.529,-5.606 20.049,-15.493 -0.005,-0.11 0.264,-0.465 0.271,-0.324 C 20.814,-5.648 8.395,0.429 -0.199,0.422 -0.297,0.422 -0.119,0 0,0"
             style="fill:#231f20;fill-opacity:1;fill-rule:nonzero;stroke:none"
             id="path5170"
             inkscape:connector-curvature="0" /></g><g
           id="g5172"
           transform="translate(46.981,27.5186)"><path
             d="m 0,0 c 2.131,2.052 4.969,1.934 7.61,0.997 2.61,-0.925 4.871,-3.079 6.1,-5.515 1.008,-1.996 0.786,-3.763 0.633,-5.856 -0.144,-1.981 0.514,-3.568 1.633,-5.173 0.997,-1.431 2.795,-2.39 3.001,-4.319 0.18,-1.7 -0.994,-3.518 -1.813,-4.906 -0.181,-0.306 0.647,-1.407 0.797,-1.151 1.392,2.358 2.719,5.248 0.956,7.794 -0.438,0.631 -0.702,0.94 -1.237,1.502 -1.872,1.973 -2.735,3.722 -2.365,6.339 0.191,1.351 -0.022,2.89 -0.473,4.175 C 12.938,-0.687 4.832,6.603 -0.724,1.254 -1.004,0.983 -0.163,-0.156 0,0"
             style="fill:#231f20;fill-opacity:1;fill-rule:nonzero;stroke:none"
             id="path5174"
             inkscape:connector-curvature="0" /></g><g
           id="g5176"
           transform="translate(49.5879,37.6299)"><path
             d="m 0,0 c 0.965,-4.824 -0.482,-6.514 -2.969,-9.484 -2.398,-2.864 -1.284,-7.717 2.444,-11.454 1.249,-1.254 1.008,-2.46 -0.44,-3.666 -1.447,-1.207 -2.653,-1.93 -2.412,-7.96"
             style="fill:none;stroke:#231f20;stroke-width:1.44700003;stroke-linecap:round;stroke-linejoin:round;stroke-miterlimit:4;stroke-dasharray:none;stroke-opacity:1"
             id="path5178"
             inkscape:connector-curvature="0" /></g><g
           id="g5180"
           transform="translate(51.2515,23.877)"><path
             d="m 0,0 c 0.805,0.873 2.532,0.59 3.856,-0.633 1.326,-1.219 1.747,-2.919 0.942,-3.79"
             style="fill:none;stroke:#231f20;stroke-width:0.48199999;stroke-linecap:round;stroke-linejoin:round;stroke-miterlimit:4;stroke-dasharray:none;stroke-opacity:1"
             id="path5182"
             inkscape:connector-curvature="0" /></g><g
           id="g5184"
           transform="translate(48.1201,20.4814)"><path
             d="m 0,0 c 0.805,0.873 2.532,0.591 3.856,-0.631 1.326,-1.221 1.747,-2.92 0.943,-3.792"
             style="fill:none;stroke:#231f20;stroke-width:0.48199999;stroke-linecap:round;stroke-linejoin:round;stroke-miterlimit:4;stroke-dasharray:none;stroke-opacity:1"
             id="path5186"
             inkscape:connector-curvature="0" /></g><g
           id="g5188"
           transform="translate(49.085,21.6885)"><path
             d="m 0,0 c 0.805,0.873 2.531,0.59 3.856,-0.633 1.326,-1.22 1.747,-2.919 0.943,-3.791"
             style="fill:none;stroke:#231f20;stroke-width:0.48199999;stroke-linecap:round;stroke-linejoin:round;stroke-miterlimit:4;stroke-dasharray:none;stroke-opacity:1"
             id="path5190"
             inkscape:connector-curvature="0" /></g><g
           id="g5192"
           transform="translate(50.0498,22.8936)"><path
             d="m 0,0 c 0.805,0.873 2.532,0.591 3.856,-0.632 1.326,-1.22 1.747,-2.919 0.942,-3.791"
             style="fill:none;stroke:#231f20;stroke-width:0.48199999;stroke-linecap:round;stroke-linejoin:round;stroke-miterlimit:4;stroke-dasharray:none;stroke-opacity:1"
             id="path5194"
             inkscape:connector-curvature="0" /></g><g
           id="g5196"
           transform="translate(48.1201,20.4814)"><path
             d="M 0,0 C -0.804,-0.871 -0.381,-2.571 0.943,-3.79 2.268,-5.014 3.994,-5.296 4.799,-4.423 L 7.93,-1.027"
             style="fill:none;stroke:#231f20;stroke-width:1.44700003;stroke-linecap:round;stroke-linejoin:round;stroke-miterlimit:4;stroke-dasharray:none;stroke-opacity:1"
             id="path5198"
             inkscape:connector-curvature="0" /></g><g
           id="g5200"
           transform="translate(132.8105,114.3579)"><path
             d="M 0,0 27.098,-7.612"
             style="fill:none;stroke:#231f20;stroke-width:0.48199999;stroke-linecap:round;stroke-linejoin:round;stroke-miterlimit:4;stroke-dasharray:none;stroke-opacity:1"
             id="path5202"
             inkscape:connector-curvature="0" /></g><g
           id="g5204"
           transform="translate(157.5,141.793)"><path
             d="M 0,0 22.007,-6.139"
             style="fill:none;stroke:#231f20;stroke-width:0.48199999;stroke-linecap:round;stroke-linejoin:round;stroke-miterlimit:4;stroke-dasharray:none;stroke-opacity:1"
             id="path5206"
             inkscape:connector-curvature="0" /></g><g
           id="g5208"
           transform="translate(157.5,141.793)"><path
             d="m 0,0 c -19.302,2.382 -35.644,-2.655 -37.036,-11.684 l -1.33,-6.608"
             style="fill:none;stroke:#231f20;stroke-width:1.44700003;stroke-linecap:round;stroke-linejoin:round;stroke-miterlimit:4;stroke-dasharray:none;stroke-opacity:1"
             id="path5210"
             inkscape:connector-curvature="0" /></g><g
           id="g5212"
           transform="translate(142.7217,150.2324)"><path
             d="M 0,0 0.912,4.591 C 2.213,10.892 18.43,13.606 36.691,9.831 54.968,6.053 68.369,-2.785 67.069,-9.083 l -1.025,-4.125"
             style="fill:none;stroke:#231f20;stroke-width:1.44700003;stroke-linecap:round;stroke-linejoin:round;stroke-miterlimit:4;stroke-dasharray:none;stroke-opacity:1"
             id="path5214"
             inkscape:connector-curvature="0" /></g><g
           id="g5216"
           transform="translate(179.5068,135.6543)"><path
             d="M 0,0 C 9.694,-4.602 15.61,-10.919 14.685,-16.925 L 13.22,-23.79"
             style="fill:none;stroke:#231f20;stroke-width:1.44700003;stroke-linecap:round;stroke-linejoin:round;stroke-miterlimit:4;stroke-dasharray:none;stroke-opacity:1"
             id="path5218"
             inkscape:connector-curvature="0" /></g><g
           id="g5220"
           transform="translate(159.9082,106.7456)"><path
             d="m 0,0 c 10.993,-5.551 17.639,-13.205 16.504,-20.564 l -1.927,-9.54"
             style="fill:none;stroke:#231f20;stroke-width:1.44700003;stroke-linecap:round;stroke-linejoin:round;stroke-miterlimit:4;stroke-dasharray:none;stroke-opacity:1"
             id="path5222"
             inkscape:connector-curvature="0" /></g><g
           id="g5224"
           transform="translate(86.6714,100.0332)"><path
             d="m 0,0 c -0.745,-4.83 1.532,-9.773 6.041,-14.282 0.855,-0.856 1.279,-1.385 1.342,-1.847 l -0.665,-5.012"
             style="fill:none;stroke:#231f20;stroke-width:1.44700003;stroke-linecap:round;stroke-linejoin:round;stroke-miterlimit:4;stroke-dasharray:none;stroke-opacity:1"
             id="path5226"
             inkscape:connector-curvature="0" /></g><g
           id="g5228"
           transform="translate(117.356,130.5889)"><path
             d="m 0,0 c -0.479,-3.1 0.724,-6.274 3.246,-9.289 0.358,-0.578 0.447,-1.137 0.331,-1.651 l -1.169,-4.01"
             style="fill:none;stroke:#231f20;stroke-width:1.44700003;stroke-linecap:round;stroke-linejoin:round;stroke-miterlimit:4;stroke-dasharray:none;stroke-opacity:1"
             id="path5230"
             inkscape:connector-curvature="0" /></g><g
           id="g5232"
           transform="translate(141.0117,155.3657)"><path
             d="M 0,0 C -0.424,-2.049 0.628,-4.282 2.845,-6.512 3.759,-7.45 4.129,-8.237 4.107,-8.896 l -0.51,-3.47"
             style="fill:none;stroke:#231f20;stroke-width:1.44700003;stroke-linecap:round;stroke-linejoin:round;stroke-miterlimit:4;stroke-dasharray:none;stroke-opacity:1"
             id="path5234"
             inkscape:connector-curvature="0" /></g><g
           id="g5236"
           transform="translate(212.4121,140.6074)"><path
             d="m 0,0 c -0.868,-4.185 -7.682,-6.629 -17.388,-6.942 -2.388,-0.075 -3.578,-0.92 -3.773,-1.952 l -0.727,-2.866"
             style="fill:none;stroke:#231f20;stroke-width:1.44700003;stroke-linecap:round;stroke-linejoin:round;stroke-miterlimit:4;stroke-dasharray:none;stroke-opacity:1"
             id="path5238"
             inkscape:connector-curvature="0" /></g><g
           id="g5240"
           transform="translate(197.2998,118.2495)"><path
             d="m 0,0 c -0.952,-6.157 -8.303,-10.605 -18.831,-12.418 -2.984,-0.617 -4.733,-1.786 -5.039,-3.125 l -1.146,-3.736"
             style="fill:none;stroke:#231f20;stroke-width:1.44700003;stroke-linecap:round;stroke-linejoin:round;stroke-miterlimit:4;stroke-dasharray:none;stroke-opacity:1"
             id="path5242"
             inkscape:connector-curvature="0" /></g><g
           id="g5244"
           transform="translate(132.8105,114.3579)"><path
             d="m 0,0 c -21.68,2.268 -39.881,-4.113 -41.566,-15.031 l -1.043,-10.106"
             style="fill:none;stroke:#231f20;stroke-width:1.44700003;stroke-linecap:round;stroke-linejoin:round;stroke-miterlimit:4;stroke-dasharray:none;stroke-opacity:1"
             id="path5246"
             inkscape:connector-curvature="0" /></g><g
           id="g5248"
           transform="translate(103.3682,119.2261)"><path
             d="m 0,0 c -0.003,-0.498 -0.867,-0.842 -1.295,-0.948 -12.248,-3.028 -20.624,-9.187 -21.868,-17.246 -0.109,-0.711 -0.161,-1.423 -0.159,-2.134 0.269,-4.849 -3.443,-5.309 -4.89,-4.826 l -10.528,3.092 -21.623,-22.312 c -0.532,-0.655 -0.88,-1.394 -1.005,-2.201 l -0.047,-3.315 c -0.1,-2.496 1.966,-4.967 5.206,-6.582 0,0 9.665,-4.559 10.872,-5.282 1.206,-0.724 1.567,-0.965 1.929,-1.929 0.362,-0.966 4.863,-9.081 4.863,-9.081 1.061,-2.458 4.254,-4.572 8.272,-5.193 1.84,-0.284 3.609,-0.218 5.156,0.132 0,0 11.86,2.08 14.152,2.443 2.291,0.361 3.135,0.722 6.512,-0.363 3.377,-1.085 20.986,-6.753 23.035,-7.356 2.05,-0.603 3.135,-0.965 4.945,-3.376 l 6.847,-9.423 c 1.382,-1.847 3.808,-3.451 6.795,-4.272 2.521,-0.694 4.987,-0.702 6.976,-0.157 0,0 14.719,2.996 16.407,3.359 1.689,0.362 3.016,0.362 4.945,-0.12 l 15.462,-3.223 c 6.045,-1.063 11.496,0.713 13.172,4.343 l 10.766,25.419"
             style="fill:none;stroke:#231f20;stroke-width:1.44700003;stroke-linecap:round;stroke-linejoin:round;stroke-miterlimit:4;stroke-dasharray:none;stroke-opacity:1"
             id="path5250"
             inkscape:connector-curvature="0" /></g><g
           id="g5252"
           transform="translate(203.21,124.5371)"><path
             d="M 0,0 C -0.008,-0.151 0.029,-0.31 0.109,-0.47 1.288,-2.795 1.852,-5.118 1.583,-7.424 1.569,-7.543 1.553,-7.663 1.534,-7.782 l 0,-2.83 c -0.782,-5.062 -5.27,-9.257 -12.28,-11.828"
             style="fill:none;stroke:#231f20;stroke-width:1.44700003;stroke-linecap:round;stroke-linejoin:round;stroke-miterlimit:4;stroke-dasharray:none;stroke-opacity:1"
             id="path5254"
             inkscape:connector-curvature="0" /></g><g
           id="g5256"
           transform="translate(215.7783,146.686)"><path
             d="m 0,0 c -0.081,-0.532 0.316,-1.274 0.63,-1.713 1.231,-1.728 1.818,-3.428 1.643,-5.038 l -0.077,-3.308 c -0.653,-3.153 -4.214,-5.512 -9.742,-6.776"
             style="fill:none;stroke:#231f20;stroke-width:1.44700003;stroke-linecap:round;stroke-linejoin:round;stroke-miterlimit:4;stroke-dasharray:none;stroke-opacity:1"
             id="path5258"
             inkscape:connector-curvature="0" /></g><g
           id="g5260"
           transform="translate(206.8633,132.0864)"><path
             d="m 0,0 c -0.379,-0.517 -0.183,-1.292 0.353,-1.726 1.037,-0.838 1.702,-1.676 1.566,-2.56 l 0,-2.831 C 1.727,-8.352 0.124,-9.046 -2.033,-9.387"
             style="fill:none;stroke:#231f20;stroke-width:1.44700003;stroke-linecap:round;stroke-linejoin:round;stroke-miterlimit:4;stroke-dasharray:none;stroke-opacity:1"
             id="path5262"
             inkscape:connector-curvature="0" /></g><g
           id="g5264"
           transform="translate(109.8071,131.4082)"><path
             d="m 0,0 c 0.94,6.102 7.332,10.814 16.892,13.303 2.415,0.629 2.89,0.819 2.128,1.576 -0.649,0.645 -0.975,1.358 -0.867,2.052 0.271,1.766 3.29,2.997 6.78,2.376 1.121,-0.201 1.833,0.911 1.436,1.642 -0.767,1.413 -1.003,2.826 -0.726,4.158 0.221,1.066 0.775,2.036 1.627,2.902 0,0 11.809,9.751 13.257,10.554 1.445,0.804 3.054,0.965 4.019,0.644 0.964,-0.321 6.592,-1.93 10.131,-3.699 3.536,-1.769 6.11,-0.965 10.451,-1.929 4.343,-0.965 54.033,-13.99 56.283,-14.633 1.589,-0.454 1.815,-0.908 1.756,-1.362 l -0.003,-2.856 c -0.028,-0.18 -0.1,-0.361 -0.145,-0.543 -0.16,-0.642 -0.643,-2.25 -1.125,-3.216 -0.483,-0.965 -0.966,-0.965 -2.573,-0.643 -1.61,0.322 -7.88,1.769 -11.097,2.573 -0.162,0.041 -0.314,0.074 -0.458,0.101"
             style="fill:none;stroke:#231f20;stroke-width:1.44700003;stroke-linecap:round;stroke-linejoin:round;stroke-miterlimit:4;stroke-dasharray:none;stroke-opacity:1"
             id="path5266"
             inkscape:connector-curvature="0" /></g><g
           id="g5268"
           transform="translate(106.1821,79.5693)"><path
             d="M 0,0 -0.414,-5.029"
             style="fill:none;stroke:#231f20;stroke-width:0.48199999;stroke-linecap:round;stroke-linejoin:round;stroke-miterlimit:4;stroke-dasharray:none;stroke-opacity:1"
             id="path5270"
             inkscape:connector-curvature="0" /></g><g
           id="g5272"
           transform="translate(134.1309,70.9619)"><path
             d="M 0,0 -0.413,-5.029"
             style="fill:none;stroke:#231f20;stroke-width:0.48199999;stroke-linecap:round;stroke-linejoin:round;stroke-miterlimit:4;stroke-dasharray:none;stroke-opacity:1"
             id="path5274"
             inkscape:connector-curvature="0" /></g><g
           id="g5276"
           transform="translate(230.0117,141.8311)"><path
             d="m 0,0 c 0,0 0,-1.688 -0.482,-2.895 -0.482,-1.206 -0.964,-1.688 -3.377,-1.688 -2.412,0 -6.706,0.447 -8.178,-0.621"
             style="fill:none;stroke:#231f20;stroke-width:1.44700003;stroke-linecap:round;stroke-linejoin:round;stroke-miterlimit:4;stroke-dasharray:none;stroke-opacity:1"
             id="path5278"
             inkscape:connector-curvature="0" /></g><g
           id="g5280"
           transform="translate(226.1523,137.248)"><path
             d="m 0,0 c -4.1,-2.895 -6.753,-8.442 -5.789,-16.402 0.965,-7.96 1.689,-12.06 16.886,-31.116"
             style="fill:none;stroke:#231f20;stroke-width:1.44700003;stroke-linecap:round;stroke-linejoin:round;stroke-miterlimit:4;stroke-dasharray:none;stroke-opacity:1"
             id="path5282"
             inkscape:connector-curvature="0" /></g><g
           id="g5284"
           transform="translate(212.8867,131.2178)"><path
             d="M 0,0 -8.442,-35.94"
             style="fill:none;stroke:#231f20;stroke-width:1.44700003;stroke-linecap:round;stroke-linejoin:round;stroke-miterlimit:4;stroke-dasharray:none;stroke-opacity:1"
             id="path5286"
             inkscape:connector-curvature="0" /></g><g
           id="g5288"
           transform="translate(206.1318,97.9316)"><path
             d="M 0,0 C -0.483,-6.996 6.514,-20.745 16.403,-26.533"
             style="fill:none;stroke:#231f20;stroke-width:1.44700003;stroke-linecap:round;stroke-linejoin:round;stroke-miterlimit:4;stroke-dasharray:none;stroke-opacity:1"
             id="path5290"
             inkscape:connector-curvature="0" /></g><g
           id="g5292"
           transform="translate(205.2305,96.9312)"><path
             d="m 0,0 c -0.231,-4.911 2.02,-9.833 4.36,-14.017 3.034,-5.422 7.324,-10.368 12.666,-13.598 0.345,-0.209 -0.152,1.021 -0.435,1.192 -4.84,2.926 -8.61,7.217 -11.51,12.03 C 2.717,-10.47 0.594,-5.652 0.814,-0.973 0.83,-0.644 0.02,0.422 0,0"
             style="fill:#231f20;fill-opacity:1;fill-rule:nonzero;stroke:none"
             id="path5294"
             inkscape:connector-curvature="0" /></g><g
           id="g5296"
           transform="translate(219.3994,49.4482)"><path
             d="M 0,0 C -8.686,7.479 -19.056,22.433 -17.609,39.558"
             style="fill:none;stroke:#231f20;stroke-width:1.44700003;stroke-linecap:round;stroke-linejoin:round;stroke-miterlimit:4;stroke-dasharray:none;stroke-opacity:1"
             id="path5298"
             inkscape:connector-curvature="0" /></g><g
           id="g5300"
           transform="translate(218.2852,48.2344)"><path
             d="m 0,0 c -10.954,9.559 -18.158,23.837 -17.077,38.552 0.024,0.327 -0.783,1.4 -0.815,0.972 C -19.022,24.141 -11.188,8.938 0.246,-1.039 0.769,-1.496 0.22,-0.191 0,0"
             style="fill:#231f20;fill-opacity:1;fill-rule:nonzero;stroke:none"
             id="path5302"
             inkscape:connector-curvature="0" /></g><g
           id="g5304"
           transform="translate(205.1133,41.2129)"><path
             d="M 0,0 C 2.141,-3.002 4.636,-5.994 7.532,-8.89"
             style="fill:none;stroke:#231f20;stroke-width:1.44700003;stroke-linecap:round;stroke-linejoin:round;stroke-miterlimit:4;stroke-dasharray:none;stroke-opacity:1"
             id="path5306"
             inkscape:connector-curvature="0" /></g><g
           id="g5308"
           transform="translate(193.5889,75.499)"><path
             d="M 0,0 C -0.496,-3.475 0.156,-10.396 3.173,-18.562"
             style="fill:none;stroke:#231f20;stroke-width:1.44700003;stroke-linecap:round;stroke-linejoin:round;stroke-miterlimit:4;stroke-dasharray:none;stroke-opacity:1"
             id="path5310"
             inkscape:connector-curvature="0" /></g><g
           id="g5312"
           transform="translate(192.4482,74.0928)"><path
             d="m 0,0 c -0.685,-5.475 0.732,-11.208 2.354,-16.393 0.109,-0.346 0.966,-1.328 0.69,-0.445 -1.55,4.954 -2.9,10.457 -2.247,15.688 C 0.849,-0.742 0.017,0.138 0,0"
             style="fill:#231f20;fill-opacity:1;fill-rule:nonzero;stroke:none"
             id="path5314"
             inkscape:connector-curvature="0" /></g><g
           id="g5316"
           transform="translate(204.2324,39.0342)"><path
             d="M 0,0 C 2.354,-3.277 4.953,-6.346 7.793,-9.212 8.272,-9.696 7.748,-8.376 7.547,-8.173 4.859,-5.459 2.397,-2.56 0.17,0.543 -0.412,1.354 -0.328,0.457 0,0"
             style="fill:#231f20;fill-opacity:1;fill-rule:nonzero;stroke:none"
             id="path5318"
             inkscape:connector-curvature="0" /></g><g
           id="g5320"
           transform="translate(185.3877,61.9912)"><path
             d="M 0,0 0.725,7.236"
             style="fill:none;stroke:#231f20;stroke-width:1.44700003;stroke-linecap:round;stroke-linejoin:round;stroke-miterlimit:4;stroke-dasharray:none;stroke-opacity:1"
             id="path5322"
             inkscape:connector-curvature="0" /></g><g
           id="g5324"
           transform="translate(180.8066,63.6787)"><path
             d="m 0,0 c 0.723,3.619 4.341,4.342 6.994,8.685 2.652,4.34 6.272,8.923 6.272,8.923"
             style="fill:none;stroke:#231f20;stroke-width:1.44700003;stroke-linecap:round;stroke-linejoin:round;stroke-miterlimit:4;stroke-dasharray:none;stroke-opacity:1"
             id="path5326"
             inkscape:connector-curvature="0" /></g><g
           id="g5328"
           transform="translate(191.6592,18.332)"><path
             d="M 0,0 C 0,0 -5.789,-13.508 -8.441,-16.402"
             style="fill:none;stroke:#231f20;stroke-width:1.44700003;stroke-linecap:round;stroke-linejoin:round;stroke-miterlimit:4;stroke-dasharray:none;stroke-opacity:1"
             id="path5330"
             inkscape:connector-curvature="0" /></g><g
           id="g5332"
           transform="translate(130.3926,23.3984)"><path
             d="M 0,0 -2.17,-20.263"
             style="fill:none;stroke:#231f20;stroke-width:1.44700003;stroke-linecap:round;stroke-linejoin:round;stroke-miterlimit:4;stroke-dasharray:none;stroke-opacity:1"
             id="path5334"
             inkscape:connector-curvature="0" /></g><g
           id="g5336"
           transform="translate(151.3779,15.9199)"><path
             d="m 0,0 c 0,0 4.101,1.206 7.96,1.206 3.859,0 19.296,-1.446 21.949,-1.446 2.654,0 8.202,0.481 9.65,2.652"
             style="fill:none;stroke:#231f20;stroke-width:1.44700003;stroke-linecap:round;stroke-linejoin:round;stroke-miterlimit:4;stroke-dasharray:none;stroke-opacity:1"
             id="path5338"
             inkscape:connector-curvature="0" /></g><g
           id="g5340"
           transform="translate(152.6143,18.6865)"><path
             d="m 0,0 c 9.503,2.724 19.719,-0.192 29.397,-0.293 0.837,-0.009 0.835,0.353 0,0.361 C 19.314,0.173 8.901,3.101 -1.023,0.256 -1.657,0.074 -0.249,-0.071 0,0"
             style="fill:#231f20;fill-opacity:1;fill-rule:nonzero;stroke:none"
             id="path5342"
             inkscape:connector-curvature="0" /></g><g
           id="g5344"
           transform="translate(44.7637,64.1621)"><path
             d="m 0,0 c 0.482,-3.859 1.447,-8.684 7.96,-11.097 6.513,-2.411 9.648,-3.859 10.854,-6.029"
             style="fill:none;stroke:#231f20;stroke-width:1.44700003;stroke-linecap:round;stroke-linejoin:round;stroke-miterlimit:4;stroke-dasharray:none;stroke-opacity:1"
             id="path5346"
             inkscape:connector-curvature="0" /></g><g
           id="g5348"
           transform="translate(49.1055,54.7549)"><path
             d="M 0,0 C -2.653,-2.171 -8.925,-12.543 0.482,-17.125 9.89,-21.709 15.92,-26.051 15.92,-26.051"
             style="fill:none;stroke:#231f20;stroke-width:1.44700003;stroke-linecap:round;stroke-linejoin:round;stroke-miterlimit:4;stroke-dasharray:none;stroke-opacity:1"
             id="path5350"
             inkscape:connector-curvature="0" /></g><g
           id="g5352"
           transform="translate(63.8193,46.3125)"><path
             d="m 0,0 c 0,0 0.483,-19.297 2.894,-24.604 2.413,-5.306 6.996,-9.889 12.061,-6.512"
             style="fill:none;stroke:#231f20;stroke-width:1.44700003;stroke-linecap:round;stroke-linejoin:round;stroke-miterlimit:4;stroke-dasharray:none;stroke-opacity:1"
             id="path5354"
             inkscape:connector-curvature="0" /></g><g
           id="g5356"
           transform="translate(78.292,18.5742)"><path
             d="m 0,0 c 0.723,1.445 1.688,2.17 3.859,1.445 2.171,-0.722 16.644,-6.51 17.85,-6.753 1.206,-0.24 4.341,-4.099 4.341,-5.546 0,-1.45 0.724,-7.72 0.724,-7.72"
             style="fill:none;stroke:#231f20;stroke-width:1.44700003;stroke-linecap:round;stroke-linejoin:round;stroke-miterlimit:4;stroke-dasharray:none;stroke-opacity:1"
             id="path5358"
             inkscape:connector-curvature="0" /></g><g
           id="g5360"
           transform="translate(102.5986,18.2363)"><path
             d="m 0,0 c -3.084,-1.658 -8.11,1.625 -11.068,2.835 -2.282,0.933 -9.505,2.698 -9.696,5.7 -0.021,0.33 -0.839,1.362 -0.814,0.973 0.247,-3.9 3.981,-4.993 7.104,-6.296 2.504,-1.045 5.022,-2.053 7.528,-3.093 2.438,-1.013 5.064,-2.773 7.67,-1.373 C 0.993,-1.108 0.288,0.154 0,0"
             style="fill:#231f20;fill-opacity:1;fill-rule:nonzero;stroke:none"
             id="path5362"
             inkscape:connector-curvature="0" /></g><g
           id="g5364"
           transform="translate(103.6719,23.79)"><path
             d="m 0,0 c -4.154,1.731 -8.495,3.213 -12.464,5.349 -2.111,1.135 -1.172,6.522 -1.172,8.486 0,0.33 -0.815,1.382 -0.815,0.973 0,-2.932 -0.739,-6.819 0.955,-9.393 0.95,-1.443 3.044,-2.087 4.565,-2.747 C -5.779,1.301 -2.573,0.056 0.598,-1.266 0.728,-1.32 0.38,-0.158 0,0"
             style="fill:#231f20;fill-opacity:1;fill-rule:nonzero;stroke:none"
             id="path5366"
             inkscape:connector-curvature="0" /></g><g
           id="g5368"
           transform="translate(84.3389,38.9971)"><path
             d="m 0,0 c 0.766,0.169 1.569,0.229 2.396,0.078 2.652,-0.481 12.06,-4.582 14.713,-5.788 2.653,-1.206 3.377,-2.412 3.377,-4.824 0,-2.412 -0.241,-6.03 -0.483,-8.444 -0.103,-1.029 -0.6,-1.882 -1.381,-2.41"
             style="fill:none;stroke:#231f20;stroke-width:1.44700003;stroke-linecap:round;stroke-linejoin:round;stroke-miterlimit:4;stroke-dasharray:none;stroke-opacity:1"
             id="path5370"
             inkscape:connector-curvature="0" /></g><g
           id="g5372"
           transform="translate(84.4736,38.2842)"><path
             d="m 0,0 c 0.006,0.002 -0.006,0.082 -0.031,0.211 -0.027,0.129 -0.063,0.306 -0.104,0.502 -0.046,0.195 -0.087,0.371 -0.117,0.498 -0.033,0.127 -0.056,0.203 -0.063,0.201 0,0 -0.286,-0.125 -0.714,-0.313 -0.438,-0.17 -0.953,-0.474 -1.47,-0.768 -0.507,-0.288 -0.976,-0.609 -1.372,-0.81 -0.388,-0.205 -0.646,-0.341 -0.646,-0.341 0,0 0.009,-0.034 0.023,-0.076 0.015,-0.041 0.028,-0.072 0.028,-0.072 0,0 1.139,0.23 2.277,0.559 0.557,0.137 1.109,0.28 1.517,0.315 C -0.269,-0.038 0,0 0,0"
             style="fill:#231f20;fill-opacity:1;fill-rule:nonzero;stroke:none"
             id="path5374"
             inkscape:connector-curvature="0" /></g><g
           id="g5376"
           transform="translate(109.7358,30.1377)"><path
             d="m 0,0 c -1.838,-0.425 -2.113,-1.918 -2.183,-3.601 -0.103,-2.452 -0.374,-5.164 0.018,-7.596 0.414,-2.563 2.318,-5.561 4.789,-6.547 2.961,-1.183 6.143,-1.981 9.166,-3.002 2.316,-0.782 6.97,-3.375 7.819,0.405 0.089,0.395 -0.758,1.325 -0.797,1.151 -0.685,-3.048 -3.682,-1.643 -5.694,-0.947 -2.457,0.849 -4.924,1.668 -7.393,2.48 -3.494,1.148 -6.836,1.86 -7.157,6.53 -0.129,1.871 0.012,3.759 0.056,5.631 0.042,1.842 0,3.758 2.1,4.242 C 0.921,-1.208 0.392,0.09 0,0"
             style="fill:#231f20;fill-opacity:1;fill-rule:nonzero;stroke:none"
             id="path5378"
             inkscape:connector-curvature="0" /></g><g
           id="g5380"
           transform="translate(112.3774,29.1904)"><path
             d="m 0,0 c -0.023,-4.303 -0.905,-10.853 4.385,-12.57 4.27,-1.386 8.514,-2.908 12.723,-4.469 0.147,-0.055 -0.214,1.124 -0.598,1.266 -2.906,1.079 -5.84,2.089 -8.766,3.112 -1.39,0.485 -2.78,0.975 -4.181,1.43 -3.76,1.221 -2.764,7.312 -2.749,10.258 C 0.816,-0.643 0.002,0.411 0,0"
             style="fill:#231f20;fill-opacity:1;fill-rule:nonzero;stroke:none"
             id="path5382"
             inkscape:connector-curvature="0" /></g><g
           id="g5384"
           transform="translate(129.6699,18.8145)"><path
             d="m 0,0 c 0.24,2.171 -0.483,4.101 -2.896,5.307 -2.412,1.206 -12.3,4.823 -14.954,5.306 -0.663,0.121 -1.236,0.152 -1.722,0.083"
             style="fill:none;stroke:#231f20;stroke-width:1.44700003;stroke-linecap:round;stroke-linejoin:round;stroke-miterlimit:4;stroke-dasharray:none;stroke-opacity:1"
             id="path5386"
             inkscape:connector-curvature="0" /></g><g
           id="g5388"
           transform="translate(151.1377,17.8496)"><path
             d="M 0,0 -4.101,-13.749"
             style="fill:none;stroke:#231f20;stroke-width:1.44700003;stroke-linecap:round;stroke-linejoin:round;stroke-miterlimit:4;stroke-dasharray:none;stroke-opacity:1"
             id="path5390"
             inkscape:connector-curvature="0" /></g><g
           id="g5392"
           transform="translate(87.9404,42.2119)"><path
             d="M 0,0 41.006,-14.472"
             style="fill:none;stroke:#231f20;stroke-width:0.48199999;stroke-linecap:round;stroke-linejoin:round;stroke-miterlimit:4;stroke-dasharray:none;stroke-opacity:1"
             id="path5394"
             inkscape:connector-curvature="0" /></g><g
           id="g5396"
           transform="translate(63.0957,13.5088)"><path
             d="M 0,0 36.422,-13.509"
             style="fill:none;stroke:#231f20;stroke-width:0.48199999;stroke-linecap:round;stroke-linejoin:round;stroke-miterlimit:4;stroke-dasharray:none;stroke-opacity:1"
             id="path5398"
             inkscape:connector-curvature="0" /></g><g
           id="g5400"
           transform="translate(210.6143,85.5322)"><path
             d="m 0,0 c 8.666,-6.009 20.141,-8.689 30.516,-6.946 0.058,0.009 -0.105,0.44 -0.241,0.418 C 19.939,-8.265 8.484,-5.586 -0.145,0.397 -0.25,0.47 -0.091,0.062 0,0"
             style="fill:#231f20;fill-opacity:1;fill-rule:nonzero;stroke:none"
             id="path5402"
             inkscape:connector-curvature="0" /></g><g
           id="g5404"
           transform="translate(203.9297,74.5801)"><path
             d="m 0,0 c -0.048,-0.002 -0.082,-0.11 -0.076,-0.244 0.006,-0.133 0.049,-0.239 0.096,-0.237 0,0 1.041,0.057 2.614,0.018 1.571,-0.04 3.669,-0.183 5.739,-0.526 2.072,-0.335 4.099,-0.919 5.551,-1.531 0.716,-0.326 1.314,-0.597 1.701,-0.847 0.398,-0.23 0.626,-0.362 0.626,-0.362 0.004,-10e-4 0.015,0.006 0.022,0.018 0.008,0.012 0.011,0.023 0.007,0.026 0,0 -0.225,0.138 -0.619,0.379 -0.384,0.261 -0.976,0.549 -1.689,0.897 -1.446,0.651 -3.473,1.292 -5.551,1.682 -2.078,0.4 -4.188,0.598 -5.772,0.679 C 1.065,0.032 0,0 0,0"
             style="fill:#231f20;fill-opacity:1;fill-rule:nonzero;stroke:none"
             id="path5406"
             inkscape:connector-curvature="0" /></g><g
           id="g5408"
           transform="translate(203.6816,73.3408)"><path
             d="m 0,0 c -0.048,-0.002 -0.082,-0.11 -0.076,-0.244 0.006,-0.133 0.049,-0.239 0.096,-0.237 0,0 1.041,0.057 2.614,0.018 1.571,-0.04 3.668,-0.183 5.739,-0.526 2.071,-0.335 4.099,-0.919 5.55,-1.531 0.716,-0.326 1.314,-0.598 1.701,-0.847 0.398,-0.231 0.626,-0.362 0.626,-0.362 0.004,-0.002 0.015,0.005 0.022,0.017 0.008,0.012 0.011,0.024 0.006,0.026 0,0 -0.224,0.138 -0.618,0.379 -0.383,0.262 -0.976,0.549 -1.689,0.897 -1.445,0.652 -3.472,1.293 -5.551,1.683 -2.077,0.4 -4.187,0.598 -5.771,0.679 C 1.065,0.032 0,0 0,0"
             style="fill:#231f20;fill-opacity:1;fill-rule:nonzero;stroke:none"
             id="path5410"
             inkscape:connector-curvature="0" /></g><g
           id="g5412"
           transform="translate(209.1709,51.3789)"><path
             d="M 0,0 C -0.021,0.007 -0.07,-0.09 -0.11,-0.218 -0.15,-0.345 -0.166,-0.453 -0.146,-0.46 l 7.451,-2.12 c 0.002,-10e-4 0.007,0.01 0.011,0.023 0.004,0.014 0.006,0.026 0.004,0.027 L 0,0 Z"
             style="fill:#231f20;fill-opacity:1;fill-rule:nonzero;stroke:none"
             id="path5414"
             inkscape:connector-curvature="0" /></g><g
           id="g5416"
           transform="translate(208.9687,49.958)"><path
             d="m 0,0 c -0.021,0.007 -0.071,-0.09 -0.111,-0.218 -0.04,-0.127 -0.055,-0.235 -0.035,-0.242 l 7.653,-2.185 c 0.002,-10e-4 0.008,0.01 0.012,0.024 0.003,0.014 0.005,0.025 0.003,0.026 L 0,0 Z"
             style="fill:#231f20;fill-opacity:1;fill-rule:nonzero;stroke:none"
             id="path5418"
             inkscape:connector-curvature="0" /></g><g
           id="g5420"
           transform="translate(201.7158,32.9482)"><path
             d="m 0,0 c -0.023,0.005 -0.064,-0.097 -0.092,-0.228 -0.027,-0.13 -0.031,-0.24 -0.009,-0.245 l 8.173,-1.512 c 0.002,-10e-4 0.007,0.009 0.01,0.024 0.003,0.015 0.003,0.025 10e-4,0.026 L 0,0 Z"
             style="fill:#231f20;fill-opacity:1;fill-rule:nonzero;stroke:none"
             id="path5422"
             inkscape:connector-curvature="0" /></g><g
           id="g5424"
           transform="translate(201.7158,31.4629)"><path
             d="m 0,0 c -0.023,0.005 -0.064,-0.097 -0.092,-0.228 -0.027,-0.13 -0.031,-0.24 -0.009,-0.245 l 8.173,-1.512 c 0.002,-10e-4 0.007,0.009 0.01,0.024 0.003,0.015 0.003,0.025 10e-4,0.026 L 0,0 Z"
             style="fill:#231f20;fill-opacity:1;fill-rule:nonzero;stroke:none"
             id="path5426"
             inkscape:connector-curvature="0" /></g><g
           id="g5428"
           transform="translate(197.165,21.3262)"><path
             d="M 0,0 25.267,-21.303"
             style="fill:none;stroke:#231f20;stroke-width:1.44700003;stroke-linecap:round;stroke-linejoin:round;stroke-miterlimit:4;stroke-dasharray:none;stroke-opacity:1"
             id="path5430"
             inkscape:connector-curvature="0" /></g><g
           id="g5432"
           transform="translate(168.3896,32.333)"><path
             d="m 0,0 c 4.504,9.01 15.266,21.805 15.748,22.502 1.995,2.881 3.556,4.524 6.13,2.916 3.726,-2.327 5.306,-0.801 6.757,1.608 l 4.566,11.592 C 34.752,44.16 25.663,46.156 19.232,41.057 14.965,37.672 3.366,21.774 -8.814,1.806"
             style="fill:#ffffff;fill-opacity:1;fill-rule:nonzero;stroke:#231f20;stroke-width:1.44700003;stroke-linecap:round;stroke-linejoin:round;stroke-miterlimit:4;stroke-dasharray:none;stroke-opacity:1"
             id="path5434"
             inkscape:connector-curvature="0" /></g><g
           id="g5436"
           transform="translate(99.9185,52.7998)"><path
             d="m 0,0 -1.774,5.895 c 0,0 -4.759,1.488 -6.544,5.056 -1.784,3.569 -6.246,13.683 -14.871,26.769 -8.626,13.087 -24.111,27.464 -33.858,18.294 l -1.513,-1.661 c -0.578,-0.604 -1.03,-1.263 -1.369,-1.963"
             style="fill:#ffffff;fill-opacity:1;fill-rule:nonzero;stroke:#231f20;stroke-width:1.44700003;stroke-linecap:round;stroke-linejoin:round;stroke-miterlimit:4;stroke-dasharray:none;stroke-opacity:1"
             id="path5438"
             inkscape:connector-curvature="0" /></g><g
           id="g5440"
           transform="translate(81.6387,59.9395)"><path
             d="m 0,0 c -2.312,4.8 -6.567,13.452 -13.559,24.061 -8.626,13.085 -23.862,27.378 -33.801,18.08 l -1.57,-1.448 c -6.543,-6.841 3.293,-18.013 13.109,-21.88 6.219,-2.45 9.869,-4.752 9.869,-4.752 l 3.556,-6.815"
             style="fill:#ffffff;fill-opacity:1;fill-rule:nonzero;stroke:#231f20;stroke-width:1.44700003;stroke-linecap:round;stroke-linejoin:round;stroke-miterlimit:4;stroke-dasharray:none;stroke-opacity:1"
             id="path5442"
             inkscape:connector-curvature="0" /></g><g
           id="g5444"
           transform="translate(79.8188,59.3623)"><path
             d="m 0,0 c -5.478,11.29 -11.626,22.778 -19.987,32.214 -5.837,6.586 -18.804,18.59 -27.485,9.682 -0.277,-0.284 0.576,-1.405 0.724,-1.252 8.519,8.741 20.982,-2.828 26.801,-9.25 8.184,-9.033 14.1,-20.362 19.392,-31.271 C -0.312,-0.378 0.436,-0.899 0,0"
             style="fill:#231f20;fill-opacity:1;fill-rule:nonzero;stroke:none"
             id="path5446"
             inkscape:connector-curvature="0" /></g><g
           id="g5448"
           transform="translate(97.7686,53.7949)"><path
             d="m 0,0 c -0.321,1.068 -0.535,3.592 -1.603,4.281 -0.769,0.497 -1.786,0.737 -2.602,1.191 -2.021,1.122 -3.263,2.81 -4.243,4.846 -3.515,7.303 -7.318,14.429 -11.603,21.313 -4.808,7.726 -10.363,14.978 -17.673,20.508 -5.472,4.139 -13.438,7.602 -19.048,1.845 -0.277,-0.284 0.575,-1.405 0.724,-1.253 5.196,5.332 12.251,2.659 17.615,-0.964 7.846,-5.3 13.556,-13.201 18.487,-21.125 3.848,-6.184 7.282,-12.606 10.445,-19.163 1.886,-3.913 4.047,-7.009 8.415,-8.426 -0.229,0.333 -0.458,0.666 -0.687,0.999 l 0.996,-3.32 C -0.696,0.461 0.194,-0.647 0,0"
             style="fill:#231f20;fill-opacity:1;fill-rule:nonzero;stroke:none"
             id="path5450"
             inkscape:connector-curvature="0" /></g><g
           id="g5452"
           transform="translate(95.291,55.1533)"><path
             d="m 0,0 -0.369,1.23 c 0,0 -4.759,1.488 -6.544,5.056 -1.784,3.57 -6.246,13.683 -14.872,26.771 -8.625,13.086 -24.732,27.433 -33.61,17.845"
             style="fill:none;stroke:#231f20;stroke-width:0.48300001;stroke-linecap:round;stroke-linejoin:round;stroke-miterlimit:4;stroke-dasharray:none;stroke-opacity:1"
             id="path5454"
             inkscape:connector-curvature="0" /></g><g
           id="g5456"
           transform="translate(95.5566,54.2695)"><path
             d="M 0,0 -0.266,0.884"
             style="fill:none;stroke:#231f20;stroke-width:0.48300001;stroke-linecap:round;stroke-linejoin:round;stroke-miterlimit:4;stroke-dasharray:none;stroke-opacity:1"
             id="path5458"
             inkscape:connector-curvature="0" /></g><g
           id="g5460"
           transform="translate(33.7593,96.9829)"><path
             d="m 0,0 c 5.71,4.55 17.33,-7.51 12.329,-12.867 -0.275,-0.294 0.585,-1.401 0.723,-1.253 C 18.529,-8.254 5.607,6.298 -0.724,1.253 -1.008,1.026 -0.205,-0.164 0,0"
             style="fill:#231f20;fill-opacity:1;fill-rule:nonzero;stroke:none"
             id="path5462"
             inkscape:connector-curvature="0" /></g><g
           id="g5464"
           transform="translate(35.4067,98.3262)"><path
             d="m 0,0 c 5.71,4.55 17.329,-7.51 12.329,-12.866 -0.275,-0.294 0.585,-1.403 0.723,-1.253 C 18.528,-8.254 5.607,6.298 -0.724,1.253 -1.008,1.026 -0.205,-0.164 0,0"
             style="fill:#231f20;fill-opacity:1;fill-rule:nonzero;stroke:none"
             id="path5466"
             inkscape:connector-curvature="0" /></g><g
           id="g5468"
           transform="translate(161.0996,34.0049)"><path
             d="m 0,0 c 5.679,8.882 11.529,17.752 18.205,25.926 2.228,2.728 4.491,5.434 7.893,6.694 3.758,1.392 10.945,-0.179 9.757,-5.462 -0.022,-0.098 1.34,-0.129 1.426,0.252 0.921,4.099 -3.449,6.095 -6.893,6.15 -3.925,0.062 -7.532,-1.34 -10.32,-4.107 -3.26,-3.236 -5.992,-7.07 -8.696,-10.766 C 6.892,12.567 2.693,6.24 -1.391,-0.148 -1.468,-0.269 -0.202,-0.316 0,0"
             style="fill:#231f20;fill-opacity:1;fill-rule:nonzero;stroke:none"
             id="path5470"
             inkscape:connector-curvature="0" /></g><g
           id="g5472"
           transform="translate(161.3213,35.4443)"><path
             d="m 0,0 c 5.431,8.753 11.077,17.387 17.193,25.679 4.221,5.722 10.025,15.109 18.448,13.092 0.303,-0.073 1.514,0.322 1.199,0.397 C 29.298,40.974 23.866,35.775 19.554,30.422 11.816,20.815 5.103,10.319 -1.391,-0.148 -1.469,-0.273 -0.196,-0.317 0,0"
             style="fill:#231f20;fill-opacity:1;fill-rule:nonzero;stroke:none"
             id="path5474"
             inkscape:connector-curvature="0" /></g><g
           id="g5476"
           transform="translate(160.667,34.5859)"><path
             d="m 0,0 c 10.605,16.788 18.913,28.522 22.697,31.524 3.518,2.79 7.832,3.456 10.765,2.58"
             style="fill:none;stroke:#231f20;stroke-width:1.44700003;stroke-linecap:round;stroke-linejoin:round;stroke-miterlimit:4;stroke-dasharray:none;stroke-opacity:1"
             id="path5478"
             inkscape:connector-curvature="0" /></g><g
           id="g5480"
           transform="translate(152.8477,35.8477)"><path
             d="M 0,0 C 1.317,2.615 2.673,5.231 4.06,7.839"
             style="fill:none;stroke:#231f20;stroke-width:1.44700003;stroke-linecap:round;stroke-linejoin:round;stroke-miterlimit:4;stroke-dasharray:none;stroke-opacity:1"
             id="path5482"
             inkscape:connector-curvature="0" /></g><g
           id="g5484"
           transform="translate(48.207,85.0273)"><path
             d="m 0,0 -1.757,-1.537 c -2.255,-2.085 -7.002,-0.61 -10.603,3.289 -3.608,3.896 -4.702,8.748 -2.45,10.83 l 1.454,1.339"
             style="fill:none;stroke:#231f20;stroke-width:1.44700003;stroke-linecap:round;stroke-linejoin:round;stroke-miterlimit:4;stroke-dasharray:none;stroke-opacity:1"
             id="path5486"
             inkscape:connector-curvature="0" /></g></g></g><g
       id="g5488"
       transform="translate(68.1611,136.042)"><path
         d="M 0,0 -10.613,-28.945"
         style="fill:none;stroke:#ffffff;stroke-width:2.89400005;stroke-linecap:round;stroke-linejoin:round;stroke-miterlimit:4;stroke-dasharray:none;stroke-opacity:1"
         id="path5490"
         inkscape:connector-curvature="0" /></g><g
       id="g5492"><g
         id="g5494"
         clip-path="url(#clipPath5496)"><g
           id="g5500"
           transform="translate(57.5483,105.417)"><path
             d="m 0,0 c 0.794,0 1.438,0.645 1.438,1.439 0,0.795 -0.644,1.44 -1.438,1.44 -0.794,0 -1.439,-0.645 -1.439,-1.44 C -1.439,0.645 -0.794,0 0,0"
             style="fill:#231f20;fill-opacity:1;fill-rule:nonzero;stroke:none"
             id="path5502"
             inkscape:connector-curvature="0" /></g><g
           id="g5504"
           transform="translate(57.5483,105.417)"><path
             d="m 0,0 c 0.794,0 1.438,0.645 1.438,1.439 0,0.795 -0.644,1.44 -1.438,1.44 -0.794,0 -1.439,-0.645 -1.439,-1.44 C -1.439,0.645 -0.794,0 0,0 Z"
             style="fill:none;stroke:#ffffff;stroke-width:0.96499997;stroke-linecap:round;stroke-linejoin:round;stroke-miterlimit:4;stroke-dasharray:none;stroke-opacity:1"
             id="path5506"
             inkscape:connector-curvature="0" /></g><g
           id="g5508"
           transform="translate(68.1611,136.042)"><path
             d="M 0,0 106.181,-80.864"
             style="fill:none;stroke:#ffffff;stroke-width:2.89400005;stroke-linecap:round;stroke-linejoin:round;stroke-miterlimit:4;stroke-dasharray:none;stroke-opacity:1"
             id="path5510"
             inkscape:connector-curvature="0" /></g><g
           id="g5512"
           transform="translate(174.3418,53.4971)"><path
             d="M 0,0 C 0.794,0 1.438,0.643 1.438,1.438 1.438,2.234 0.794,2.879 0,2.879 -0.795,2.879 -1.438,2.234 -1.438,1.438 -1.438,0.643 -0.795,0 0,0"
             style="fill:#231f20;fill-opacity:1;fill-rule:nonzero;stroke:none"
             id="path5514"
             inkscape:connector-curvature="0" /></g><g
           id="g5516"
           transform="translate(174.3418,53.4971)"><path
             d="M 0,0 C 0.794,0 1.438,0.643 1.438,1.438 1.438,2.234 0.794,2.879 0,2.879 -0.795,2.879 -1.438,2.234 -1.438,1.438 -1.438,0.643 -0.795,0 0,0 Z"
             style="fill:none;stroke:#ffffff;stroke-width:0.96499997;stroke-linecap:round;stroke-linejoin:round;stroke-miterlimit:4;stroke-dasharray:none;stroke-opacity:1"
             id="path5518"
             inkscape:connector-curvature="0" /></g><g
           id="g5520"
           transform="translate(68.1611,136.042)"><path
             d="M 0,0 106.181,-80.864"
             style="fill:none;stroke:#231f20;stroke-width:0.48199999;stroke-linecap:round;stroke-linejoin:round;stroke-miterlimit:4;stroke-dasharray:none;stroke-opacity:1"
             id="path5522"
             inkscape:connector-curvature="0" /></g><g
           id="g5524"
           transform="translate(68.1611,136.042)"><path
             d="M 0,0 -10.613,-28.945"
             style="fill:none;stroke:#231f20;stroke-width:0.48199999;stroke-linecap:round;stroke-linejoin:round;stroke-miterlimit:4;stroke-dasharray:none;stroke-opacity:1"
             id="path5526"
             inkscape:connector-curvature="0" /></g></g></g><text
       transform="matrix(1,0,0,-1,8.3418,9.167)"
       style="font-variant:normal;font-weight:normal;font-stretch:normal;font-size:4.82420015px;font-family:Helvetica;-inkscape-font-specification:Helvetica;writing-mode:lr-tb;fill:#231f20;fill-opacity:1;fill-rule:nonzero;stroke:none"
       id="text5528"><tspan
         x="0 2.4121001 5.0943551 6.7008138"
         y="0"
         sodipodi:role="line"
         id="tspan5530">cars</tspan></text>
<text
       transform="matrix(1,0,0,-1,63.5767,139.1772)"
       style="font-variant:normal;font-weight:bold;font-stretch:normal;font-size:11.57800007px;font-family:Helvetica;-inkscape-font-specification:Helvetica-Bold;writing-mode:lr-tb;fill:#231f20;fill-opacity:1;fill-rule:nonzero;stroke:none"
       id="text5532"><tspan
         x="0"
         y="0"
         id="tspan5534">1</tspan></text>
</g></svg>