<?xml version="1.0" encoding="UTF-8" standalone="no"?>
<!-- Created with Inkscape (http://www.inkscape.org/) -->

<svg
   xmlns:dc="http://purl.org/dc/elements/1.1/"
   xmlns:cc="http://creativecommons.org/ns#"
   xmlns:rdf="http://www.w3.org/1999/02/22-rdf-syntax-ns#"
   xmlns:svg="http://www.w3.org/2000/svg"
   xmlns="http://www.w3.org/2000/svg"
   xmlns:sodipodi="http://sodipodi.sourceforge.net/DTD/sodipodi-0.dtd"
   xmlns:inkscape="http://www.inkscape.org/namespaces/inkscape"
   id="svg10094"
   version="1.1"
   inkscape:version="0.91 r13725"
   xml:space="preserve"
   width="301.18124"
   height="230.315"
   viewBox="0 0 301.18124 230.315"
   sodipodi:docname="cesi.svg"><metadata
     id="metadata10100"><rdf:RDF><cc:Work
         rdf:about=""><dc:format>image/svg+xml</dc:format><dc:type
           rdf:resource="http://purl.org/dc/dcmitype/StillImage" /><dc:title></dc:title></cc:Work></rdf:RDF></metadata><defs
     id="defs10098"><clipPath
       clipPathUnits="userSpaceOnUse"
       id="clipPath10108"><path
         d="m 0,7.087 240.945,0 0,170.079 L 0,177.166 0,7.087 Z"
         id="path10110"
         inkscape:connector-curvature="0" /></clipPath><clipPath
       clipPathUnits="userSpaceOnUse"
       id="clipPath10348"><path
         d="m 0,184.252 240.945,0 L 240.945,0 0,0 0,184.252 Z"
         id="path10350"
         inkscape:connector-curvature="0" /></clipPath></defs><sodipodi:namedview
     pagecolor="#ffffff"
     bordercolor="#666666"
     borderopacity="1"
     objecttolerance="10"
     gridtolerance="10"
     guidetolerance="10"
     inkscape:pageopacity="0"
     inkscape:pageshadow="2"
     inkscape:window-width="640"
     inkscape:window-height="480"
     id="namedview10096"
     showgrid="false"
     inkscape:zoom="4.2072813"
     inkscape:cx="150.59062"
     inkscape:cy="115.1575"
     inkscape:window-x="0"
     inkscape:window-y="0"
     inkscape:window-maximized="1"
     inkscape:current-layer="g10102" /><g
     id="g10102"
     inkscape:groupmode="layer"
     inkscape:label="cesi"
     transform="matrix(1.25,0,0,-1.25,0,230.315)"><g
       id="g10104"><g
         id="g10106"
         clip-path="url(#clipPath10108)"><g
           id="g10112"
           transform="translate(146.626,28.6289)"><path
             d="M 0,0 C -14.085,3.338 -20.771,26.005 -14.937,50.632 -9.101,75.258 7.046,92.516 21.132,89.179"
             style="fill:none;stroke:#231f20;stroke-width:0.5;stroke-linecap:round;stroke-linejoin:round;stroke-miterlimit:4;stroke-dasharray:none;stroke-opacity:1"
             id="path10114"
             inkscape:connector-curvature="0" /></g><g
           id="g10116"
           transform="translate(141.1367,29.9287)"><path
             d="m 0,0 5.489,-1.3 c 14.084,-3.336 30.232,13.921 36.067,38.547 5.836,24.625 -0.852,47.295 -14.935,50.632 l -5.786,1.37"
             style="fill:none;stroke:#231f20;stroke-width:1.5;stroke-linecap:round;stroke-linejoin:round;stroke-miterlimit:4;stroke-dasharray:none;stroke-opacity:1"
             id="path10118"
             inkscape:connector-curvature="0" /></g><g
           id="g10120"
           transform="translate(142.1592,29.6875)"><path
             d="M 0,0 C -14.086,3.338 -20.772,26.007 -14.937,50.632 -9.103,75.258 7.046,92.516 21.131,89.179"
             style="fill:none;stroke:#231f20;stroke-width:0.5;stroke-linecap:round;stroke-linejoin:round;stroke-miterlimit:4;stroke-dasharray:none;stroke-opacity:1"
             id="path10122"
             inkscape:connector-curvature="0" /></g><g
           id="g10124"
           transform="translate(134.1855,24.9209)"><path
             d="m 0,0 c -16.446,3.896 -24.379,29.841 -17.719,57.947 6.659,28.109 25.392,47.735 41.838,43.837"
             style="fill:none;stroke:#231f20;stroke-width:0.5;stroke-linecap:round;stroke-linejoin:round;stroke-miterlimit:4;stroke-dasharray:none;stroke-opacity:1"
             id="path10126"
             inkscape:connector-curvature="0" /></g><g
           id="g10128"
           transform="translate(133.2256,23.9092)"><path
             d="m 0,0 c -16.824,3.988 -24.939,30.527 -18.126,59.279 6.813,28.752 25.975,48.829 42.799,44.842"
             style="fill:none;stroke:#231f20;stroke-width:0.5;stroke-linecap:round;stroke-linejoin:round;stroke-miterlimit:4;stroke-dasharray:none;stroke-opacity:1"
             id="path10130"
             inkscape:connector-curvature="0" /></g><g
           id="g10132"
           transform="translate(122.333,26.4912)"><path
             d="m 0,0 c -17.903,4.242 -26.894,30.989 -20.08,59.74 6.812,28.754 26.85,48.622 44.751,44.38"
             style="fill:none;stroke:#231f20;stroke-width:0.5;stroke-linecap:round;stroke-linejoin:round;stroke-miterlimit:4;stroke-dasharray:none;stroke-opacity:1"
             id="path10134"
             inkscape:connector-curvature="0" /></g><g
           id="g10136"
           transform="translate(122.5186,13.5371)"><path
             d="m 0,0 c -22.082,5.232 -32.694,40.239 -23.703,78.186 8.993,37.95 34.184,64.471 56.266,59.239"
             style="fill:none;stroke:#231f20;stroke-width:0.5;stroke-linecap:round;stroke-linejoin:round;stroke-miterlimit:4;stroke-dasharray:none;stroke-opacity:1"
             id="path10138"
             inkscape:connector-curvature="0" /></g><g
           id="g10140"
           transform="translate(181.793,105.5205)"><path
             d="m 0,0 c -1.449,23.585 -11.279,41.784 -26.711,45.441 l -27.994,5.054 c -22.357,5.297 -46.674,-20.239 -55.579,-57.822 -8.904,-37.576 2.002,-72.338 24.357,-77.637 l 26.653,-7.019 c 10.546,-2.498 21.801,2.247 31.664,12.023"
             style="fill:none;stroke:#231f20;stroke-width:1.5;stroke-linecap:round;stroke-linejoin:round;stroke-miterlimit:4;stroke-dasharray:none;stroke-opacity:1"
             id="path10142"
             inkscape:connector-curvature="0" /></g><g
           id="g10144"
           transform="translate(74.2188,26.7861)"><path
             d="m 0,0 c -22.01,5.215 -32.805,39.197 -24.108,75.896 8.696,36.702 33.59,62.225 55.6,57.009"
             style="fill:none;stroke:#231f20;stroke-width:0.5;stroke-linecap:round;stroke-linejoin:round;stroke-miterlimit:4;stroke-dasharray:none;stroke-opacity:1"
             id="path10146"
             inkscape:connector-curvature="0" /></g><g
           id="g10148"
           transform="translate(68.9082,28.3262)"><path
             d="m 0,0 c -3.172,-1.175 -6.379,-1.884 -9.575,-2.076 l -4.469,1.057 1.046,4.791"
             style="fill:none;stroke:#231f20;stroke-width:1.5;stroke-linecap:round;stroke-linejoin:round;stroke-miterlimit:4;stroke-dasharray:none;stroke-opacity:1"
             id="path10150"
             inkscape:connector-curvature="0" /></g><g
           id="g10152"
           transform="translate(89.8545,162.3311)"><path
             d="M 0,0 1.541,3.432 6.009,2.372 C 7.624,1.144 9.152,-0.255 10.585,-1.812"
             style="fill:none;stroke:#231f20;stroke-width:1.5;stroke-linecap:round;stroke-linejoin:round;stroke-miterlimit:4;stroke-dasharray:none;stroke-opacity:1"
             id="path10154"
             inkscape:connector-curvature="0" /></g><g
           id="g10156"
           transform="translate(52.5537,33.8076)"><path
             d="m 0,0 c -0.525,0.124 -1.045,0.264 -1.558,0.42 -4.515,1.374 -8.535,3.958 -11.979,7.516 -2.459,2.535 -4.625,5.568 -6.47,9.011 -2.835,5.291 -4.912,11.548 -6.127,18.462 -0.757,4.3 -1.179,8.856 -1.245,13.589 -0.095,6.908 0.574,14.196 2.082,21.631 0.235,1.156 0.489,2.315 0.765,3.478 0.857,3.62 1.882,7.126 3.053,10.5 2.525,7.269 5.731,13.922 9.424,19.763 2.278,3.603 4.742,6.898 7.342,9.836 4.292,4.847 8.96,8.726 13.797,11.43 2.672,1.494 5.395,2.628 8.135,3.369 4.482,1.213 9.009,1.372 13.426,0.325 0.521,-0.123 1.036,-0.263 1.545,-0.417"
             style="fill:none;stroke:#231f20;stroke-width:0.5;stroke-linecap:round;stroke-linejoin:round;stroke-miterlimit:4;stroke-dasharray:none;stroke-opacity:1"
             id="path10158"
             inkscape:connector-curvature="0" /></g><g
           id="g10160"
           transform="translate(48.6914,27.5908)"><path
             d="m 0,0 c -5.072,1.647 -9.567,4.688 -13.391,8.844 l 3.716,5.308 -4.468,1.059"
             style="fill:none;stroke:#231f20;stroke-width:0.5;stroke-linecap:round;stroke-linejoin:round;stroke-miterlimit:4;stroke-dasharray:none;stroke-opacity:1"
             id="path10162"
             inkscape:connector-curvature="0" /></g><g
           id="g10164"
           transform="translate(86.1426,169.6357)"><path
             d="m 0,0 c -0.437,0.126 -0.877,0.241 -1.322,0.348 -4.857,1.15 -9.831,0.983 -14.758,-0.336 l -0.29,-6.835 -4.468,1.059"
             style="fill:none;stroke:#231f20;stroke-width:0.5;stroke-linecap:round;stroke-linejoin:round;stroke-miterlimit:4;stroke-dasharray:none;stroke-opacity:1"
             id="path10166"
             inkscape:connector-curvature="0" /></g><g
           id="g10168"
           transform="translate(59.6572,165.1318)"><path
             d="m 0,0 c -5.078,-3.059 -9.969,-7.287 -14.471,-12.482 l 2.655,-4.636"
             style="fill:none;stroke:#231f20;stroke-width:0.5;stroke-linecap:round;stroke-linejoin:round;stroke-miterlimit:4;stroke-dasharray:none;stroke-opacity:1"
             id="path10170"
             inkscape:connector-curvature="0" /></g><g
           id="g10172"
           transform="translate(36.4795,140.5625)"><path
             d="m 0,0 c -3.796,-6.313 -7.085,-13.426 -9.679,-21.147 l 4.118,-1.458"
             style="fill:none;stroke:#231f20;stroke-width:0.5;stroke-linecap:round;stroke-linejoin:round;stroke-miterlimit:4;stroke-dasharray:none;stroke-opacity:1"
             id="path10174"
             inkscape:connector-curvature="0" /></g><g
           id="g10176"
           transform="translate(28.2051,46.8604)"><path
             d="m 0,0 c -2.81,5.561 -4.89,12.025 -6.149,19.117 l 4.364,3.239 -4.469,1.058"
             style="fill:none;stroke:#231f20;stroke-width:0.5;stroke-linecap:round;stroke-linejoin:round;stroke-miterlimit:4;stroke-dasharray:none;stroke-opacity:1"
             id="path10178"
             inkscape:connector-curvature="0" /></g><g
           id="g10180"
           transform="translate(60.2969,162.0752)"><path
             d="M 0,0 C 1.657,0.741 3.33,1.343 5.008,1.797 L 5.297,8.631 C 10.225,9.95 15.199,10.117 20.056,8.966 20.5,8.861 20.941,8.746 21.378,8.62 L 25.846,7.561 24.535,1.085"
             style="fill:none;stroke:#231f20;stroke-width:1.5;stroke-linecap:round;stroke-linejoin:round;stroke-miterlimit:4;stroke-dasharray:none;stroke-opacity:1"
             id="path10182"
             inkscape:connector-curvature="0" /></g><g
           id="g10184"
           transform="translate(30.0264,48.5146)"><path
             d="m 0,0 c 1.372,-2.107 2.882,-4.022 4.522,-5.713 l -3.716,-5.308 c 3.824,-4.156 8.317,-7.195 13.39,-8.844 l 4.448,-1.254 2.534,6.715"
             style="fill:none;stroke:#231f20;stroke-width:1.5;stroke-linecap:round;stroke-linejoin:round;stroke-miterlimit:4;stroke-dasharray:none;stroke-opacity:1"
             id="path10186"
             inkscape:connector-curvature="0" /></g><g
           id="g10188"
           transform="translate(36.7305,140.3252)"><path
             d="m 0,0 c 2.08,3.181 4.306,6.108 6.643,8.747 l -2.656,4.635 c 4.503,5.196 9.393,9.424 14.472,12.482 l 4.468,-1.057 1.276,-6.095"
             style="fill:none;stroke:#231f20;stroke-width:1.5;stroke-linecap:round;stroke-linejoin:round;stroke-miterlimit:4;stroke-dasharray:none;stroke-opacity:1"
             id="path10190"
             inkscape:connector-curvature="0" /></g><g
           id="g10192"
           transform="translate(39.9434,137.2861)"><path
             d="m 0,0 -3.464,3.276 -4.468,1.059 c -3.797,-6.314 -7.086,-13.426 -9.679,-21.147 l 4.078,-1.576 c -1.172,-3.374 -1.999,-6.304 -2.857,-9.924 -0.276,-1.163 -0.531,-2.323 -0.765,-3.479 l -4.537,-0.57 c -1.517,-7.892 -2.179,-15.62 -2.061,-22.958 l 4.171,-1.26 4.813,2.099"
             style="fill:none;stroke:#231f20;stroke-width:1.5;stroke-linecap:round;stroke-linejoin:round;stroke-miterlimit:4;stroke-dasharray:none;stroke-opacity:1"
             id="path10194"
             inkscape:connector-curvature="0" /></g><g
           id="g10196"
           transform="translate(20.7949,80.8945)"><path
             d="m 0,0 c 0.17,-3.674 0.56,-7.226 1.156,-10.62 l -4.364,-3.237 c 1.26,-7.091 3.34,-13.558 6.149,-19.117 l 4.469,-1.06 4.342,3.894"
             style="fill:none;stroke:#231f20;stroke-width:1.5;stroke-linecap:round;stroke-linejoin:round;stroke-miterlimit:4;stroke-dasharray:none;stroke-opacity:1"
             id="path10198"
             inkscape:connector-curvature="0" /></g><g
           id="g10200"
           transform="translate(75.543,28.1289)"><path
             d="m 0,0 c -21.485,5.091 -32.022,38.265 -23.534,74.089 8.49,35.828 32.792,60.744 54.277,55.652"
             style="fill:none;stroke:#231f20;stroke-width:0.5;stroke-linecap:round;stroke-linejoin:round;stroke-miterlimit:4;stroke-dasharray:none;stroke-opacity:1"
             id="path10202"
             inkscape:connector-curvature="0" /></g><g
           id="g10204"
           transform="translate(45.1865,152.6494)"><path
             d="M 0,0 -4.469,1.058"
             style="fill:none;stroke:#231f20;stroke-width:0.5;stroke-linecap:round;stroke-linejoin:round;stroke-miterlimit:4;stroke-dasharray:none;stroke-opacity:1"
             id="path10206"
             inkscape:connector-curvature="0" /></g><g
           id="g10208"
           transform="translate(47.8408,148.0137)"><path
             d="M 0,0 -4.468,1.059"
             style="fill:none;stroke:#231f20;stroke-width:0.5;stroke-linecap:round;stroke-linejoin:round;stroke-miterlimit:4;stroke-dasharray:none;stroke-opacity:1"
             id="path10210"
             inkscape:connector-curvature="0" /></g><g
           id="g10212"
           transform="translate(70.0625,169.6475)"><path
             d="M 0,0 -4.469,1.059"
             style="fill:none;stroke:#231f20;stroke-width:0.5;stroke-linecap:round;stroke-linejoin:round;stroke-miterlimit:4;stroke-dasharray:none;stroke-opacity:1"
             id="path10214"
             inkscape:connector-curvature="0" /></g><g
           id="g10216"
           transform="translate(95.8633,164.7031)"><path
             d="M 0,0 -1.48,-3.232"
             style="fill:none;stroke:#231f20;stroke-width:0.5;stroke-linecap:round;stroke-linejoin:round;stroke-miterlimit:4;stroke-dasharray:none;stroke-opacity:1"
             id="path10218"
             inkscape:connector-curvature="0" /></g><g
           id="g10220"
           transform="translate(22.7881,105.4951)"><path
             d="m 0,0 4.469,-1.059 -4.537,-0.57 c -1.517,-7.892 -2.179,-15.62 -2.062,-22.958"
             style="fill:none;stroke:#231f20;stroke-width:0.5;stroke-linecap:round;stroke-linejoin:round;stroke-miterlimit:4;stroke-dasharray:none;stroke-opacity:1"
             id="path10222"
             inkscape:connector-curvature="0" /></g><g
           id="g10224"
           transform="translate(22.7197,103.8662)"><path
             d="M 0,0 -4.469,1.059"
             style="fill:none;stroke:#231f20;stroke-width:0.5;stroke-linecap:round;stroke-linejoin:round;stroke-miterlimit:4;stroke-dasharray:none;stroke-opacity:1"
             id="path10226"
             inkscape:connector-curvature="0" /></g><g
           id="g10228"
           transform="translate(22.0557,65.9775)"><path
             d="M 0,0 -4.469,1.06"
             style="fill:none;stroke:#231f20;stroke-width:0.5;stroke-linecap:round;stroke-linejoin:round;stroke-miterlimit:4;stroke-dasharray:none;stroke-opacity:1"
             id="path10230"
             inkscape:connector-curvature="0" /></g><g
           id="g10232"
           transform="translate(35.3008,36.4346)"><path
             d="M 0,0 -4.469,1.059"
             style="fill:none;stroke:#231f20;stroke-width:0.5;stroke-linecap:round;stroke-linejoin:round;stroke-miterlimit:4;stroke-dasharray:none;stroke-opacity:1"
             id="path10234"
             inkscape:connector-curvature="0" /></g><g
           id="g10236"
           transform="translate(106.2861,157.8701)"><path
             d="M 0,0 9.157,-1.769"
             style="fill:none;stroke:#231f20;stroke-width:1.5;stroke-linecap:round;stroke-linejoin:round;stroke-miterlimit:4;stroke-dasharray:none;stroke-opacity:1"
             id="path10238"
             inkscape:connector-curvature="0" /></g><g
           id="g10240"
           transform="translate(75.543,28.1289)"><path
             d="M 0,0 10.299,-2.71"
             style="fill:none;stroke:#231f20;stroke-width:1.5;stroke-linecap:round;stroke-linejoin:round;stroke-miterlimit:4;stroke-dasharray:none;stroke-opacity:1"
             id="path10242"
             inkscape:connector-curvature="0" /></g><g
           id="g10244"
           transform="translate(59.333,26.25)"><path
             d="M 0,0 0.936,4.544"
             style="fill:none;stroke:#231f20;stroke-width:0.5;stroke-linecap:round;stroke-linejoin:round;stroke-miterlimit:4;stroke-dasharray:none;stroke-opacity:1"
             id="path10246"
             inkscape:connector-curvature="0" /></g><g
           id="g10248"
           transform="translate(113.4209,156.4385)"><path
             d="M 0,0 C -2.384,1.499 -4.959,2.601 -7.71,3.253 L -28.577,6.529"
             style="fill:none;stroke:#231f20;stroke-width:1.5;stroke-linecap:round;stroke-linejoin:round;stroke-miterlimit:4;stroke-dasharray:none;stroke-opacity:1"
             id="path10250"
             inkscape:connector-curvature="0" /></g><g
           id="g10252"
           transform="translate(50.9834,33.5254)"><path
             d="m 0,0 23.235,-6.739 c 2.751,-0.653 5.546,-0.823 8.35,-0.553"
             style="fill:none;stroke:#231f20;stroke-width:1.5;stroke-linecap:round;stroke-linejoin:round;stroke-miterlimit:4;stroke-dasharray:none;stroke-opacity:1"
             id="path10254"
             inkscape:connector-curvature="0" /></g><g
           id="g10256"
           transform="translate(139.9932,23.5459)"><path
             d="m 0,0 c -16.444,3.896 -24.377,29.838 -17.716,57.945 6.659,28.109 25.39,47.736 41.836,43.838"
             style="fill:none;stroke:#231f20;stroke-width:0.5;stroke-linecap:round;stroke-linejoin:round;stroke-miterlimit:4;stroke-dasharray:none;stroke-opacity:1"
             id="path10258"
             inkscape:connector-curvature="0" /></g><g
           id="g10260"
           transform="translate(183.334,98.0498)"><path
             d="m 0,0 c -2.31,14.297 -9.179,24.899 -19.221,27.279 l -5.808,1.376"
             style="fill:none;stroke:#231f20;stroke-width:1.5;stroke-linecap:round;stroke-linejoin:round;stroke-miterlimit:4;stroke-dasharray:none;stroke-opacity:1"
             id="path10262"
             inkscape:connector-curvature="0" /></g><g
           id="g10264"
           transform="translate(132.3232,25.4736)"><path
             d="m 0,0 7.67,-1.928 c 9.9,-2.346 20.627,3.831 29.051,15.249"
             style="fill:none;stroke:#231f20;stroke-width:1.5;stroke-linecap:round;stroke-linejoin:round;stroke-miterlimit:4;stroke-dasharray:none;stroke-opacity:1"
             id="path10266"
             inkscape:connector-curvature="0" /></g><g
           id="g10268"
           transform="translate(163.2598,125.8438)"><path
             d="m 0,0 c -1.67,0.997 -3.46,1.736 -5.361,2.187 0,0 -4.216,1 -6.561,1.555 -2.343,0.555 -3.996,2.491 -3.996,2.491"
             style="fill:none;stroke:#231f20;stroke-width:1.5;stroke-linecap:round;stroke-linejoin:round;stroke-miterlimit:4;stroke-dasharray:none;stroke-opacity:1"
             id="path10270"
             inkscape:connector-curvature="0" /></g><g
           id="g10272"
           transform="translate(119.7158,25.5811)"><path
             d="m 0,0 c 0,0 1.298,1.271 3.957,0.643 2.659,-0.63 9.553,-2.315 9.553,-2.315 1.804,-0.427 3.636,-0.577 5.477,-0.47"
             style="fill:none;stroke:#231f20;stroke-width:1.5;stroke-linecap:round;stroke-linejoin:round;stroke-miterlimit:4;stroke-dasharray:none;stroke-opacity:1"
             id="path10274"
             inkscape:connector-curvature="0" /></g><g
           id="g10276"
           transform="translate(128.0283,24.7119)"><path
             d="m 0,0 c -2.338,-0.199 -4.675,-0.041 -6.977,0.504 -18.414,4.363 -27.662,31.876 -20.655,61.451 7.009,29.576 27.618,50.014 46.034,45.649 2.228,-0.528 4.321,-1.394 6.268,-2.563"
             style="fill:none;stroke:#231f20;stroke-width:0.5;stroke-linecap:round;stroke-linejoin:round;stroke-miterlimit:4;stroke-dasharray:none;stroke-opacity:1"
             id="path10278"
             inkscape:connector-curvature="0" /></g><g
           id="g10280"
           transform="translate(160.2598,66.207)"><path
             d="m 0,0 c -1.789,0.424 -2.604,3.431 -1.825,6.716 0.778,3.286 2.856,5.607 4.644,5.183"
             style="fill:none;stroke:#231f20;stroke-width:0.5;stroke-linecap:round;stroke-linejoin:round;stroke-miterlimit:4;stroke-dasharray:none;stroke-opacity:1"
             id="path10282"
             inkscape:connector-curvature="0" /></g><g
           id="g10284"
           transform="translate(166.8066,76.2461)"><path
             d="M 0,0 C 2.661,-0.631 4.289,-3.393 3.631,-6.167 2.975,-8.94 0.28,-10.677 -2.381,-10.047"
             style="fill:none;stroke:#231f20;stroke-width:1.5;stroke-linecap:round;stroke-linejoin:round;stroke-miterlimit:4;stroke-dasharray:none;stroke-opacity:1"
             id="path10286"
             inkscape:connector-curvature="0" /></g><g
           id="g10288"
           transform="translate(164.4258,66.1992)"><path
             d="m 0,0 c -1.787,0.424 -2.701,3.015 -2.044,5.789 0.657,2.774 2.637,4.682 4.425,4.258"
             style="fill:none;stroke:#231f20;stroke-width:1.5;stroke-linecap:round;stroke-linejoin:round;stroke-miterlimit:4;stroke-dasharray:none;stroke-opacity:1"
             id="path10290"
             inkscape:connector-curvature="0" /></g><g
           id="g10292"
           transform="translate(170.3789,70.0938)"><path
             d="m 0,0 c -0.383,-1.613 -1.402,-2.752 -2.278,-2.544 -0.877,0.208 -1.28,1.684 -0.897,3.296 0.382,1.612 1.403,2.752 2.28,2.544 C -0.019,3.089 0.382,1.612 0,0 Z"
             style="fill:none;stroke:#231f20;stroke-width:0.5;stroke-linecap:round;stroke-linejoin:round;stroke-miterlimit:4;stroke-dasharray:none;stroke-opacity:1"
             id="path10294"
             inkscape:connector-curvature="0" /></g><g
           id="g10296"
           transform="translate(142.4873,68.3965)"><path
             d="M 0,0 C 0.684,-0.162 0.997,-1.315 0.699,-2.574 0.401,-3.833 -0.397,-4.723 -1.08,-4.561"
             style="fill:none;stroke:#231f20;stroke-width:0.5;stroke-linecap:round;stroke-linejoin:round;stroke-miterlimit:4;stroke-dasharray:none;stroke-opacity:1"
             id="path10298"
             inkscape:connector-curvature="0" /></g><g
           id="g10300"
           transform="translate(141.4072,63.8359)"><path
             d="M 0,0 C -0.687,0.163 -1,1.314 -0.702,2.575 -0.404,3.833 0.395,4.724 1.08,4.561"
             style="fill:none;stroke:#231f20;stroke-width:1.5;stroke-linecap:round;stroke-linejoin:round;stroke-miterlimit:4;stroke-dasharray:none;stroke-opacity:1"
             id="path10302"
             inkscape:connector-curvature="0" /></g><g
           id="g10304"
           transform="translate(173.9766,83.5342)"><path
             d="M 0,0 C 0.685,-0.162 0.997,-1.314 0.699,-2.573 0.4,-3.833 -0.396,-4.723 -1.081,-4.56"
             style="fill:none;stroke:#231f20;stroke-width:0.5;stroke-linecap:round;stroke-linejoin:round;stroke-miterlimit:4;stroke-dasharray:none;stroke-opacity:1"
             id="path10306"
             inkscape:connector-curvature="0" /></g><g
           id="g10308"
           transform="translate(172.8955,78.9746)"><path
             d="M 0,0 C -0.687,0.162 -0.999,1.314 -0.701,2.574 -0.402,3.832 0.395,4.723 1.081,4.56"
             style="fill:none;stroke:#231f20;stroke-width:1.5;stroke-linecap:round;stroke-linejoin:round;stroke-miterlimit:4;stroke-dasharray:none;stroke-opacity:1"
             id="path10310"
             inkscape:connector-curvature="0" /></g><g
           id="g10312"
           transform="translate(169.2129,70.3701)"><path
             d="m 0,0 c -0.101,-0.428 -0.371,-0.729 -0.603,-0.673 -0.233,0.055 -0.338,0.444 -0.238,0.872 0.101,0.427 0.371,0.73 0.605,0.674 C -0.005,0.818 0.101,0.427 0,0 Z"
             style="fill:none;stroke:#231f20;stroke-width:0.5;stroke-linecap:round;stroke-linejoin:round;stroke-miterlimit:4;stroke-dasharray:none;stroke-opacity:1"
             id="path10314"
             inkscape:connector-curvature="0" /></g><g
           id="g10316"
           transform="translate(159.9014,64.6992)"><path
             d="m 0,0 -2.47,4.523 1.768,7.459 4.237,2.935"
             style="fill:none;stroke:#231f20;stroke-width:0.5;stroke-linecap:round;stroke-linejoin:round;stroke-miterlimit:4;stroke-dasharray:none;stroke-opacity:1"
             id="path10318"
             inkscape:connector-curvature="0" /></g><g
           id="g10320"
           transform="translate(163.1865,66.9746)"><path
             d="m 0,0 -3.285,-2.275 -4.223,1 -2.47,4.523 1.768,7.46 4.237,2.935 4.223,-1.001 1.914,-3.509"
             style="fill:none;stroke:#231f20;stroke-width:1.5;stroke-linecap:round;stroke-linejoin:round;stroke-miterlimit:4;stroke-dasharray:none;stroke-opacity:1"
             id="path10322"
             inkscape:connector-curvature="0" /></g><g
           id="g10324"
           transform="translate(164.9307,75.8975)"><path
             d="M 0,0 C 0,0 -1.065,0.586 -1.117,1.854"
             style="fill:none;stroke:#231f20;stroke-width:1.5;stroke-linecap:round;stroke-linejoin:round;stroke-miterlimit:4;stroke-dasharray:none;stroke-opacity:1"
             id="path10326"
             inkscape:connector-curvature="0" /></g><g
           id="g10328"
           transform="translate(162.9062,67.3516)"><path
             d="M 0,0 C 0,0 -1.725,-0.146 -2.057,-1.186"
             style="fill:none;stroke:#231f20;stroke-width:1.5;stroke-linecap:round;stroke-linejoin:round;stroke-miterlimit:4;stroke-dasharray:none;stroke-opacity:1"
             id="path10330"
             inkscape:connector-curvature="0" /></g><g
           id="g10332"
           transform="translate(154.9766,77.6826)"><path
             d="M 0,0 4.223,-1.001"
             style="fill:none;stroke:#231f20;stroke-width:0.5;stroke-linecap:round;stroke-linejoin:round;stroke-miterlimit:4;stroke-dasharray:none;stroke-opacity:1"
             id="path10334"
             inkscape:connector-curvature="0" /></g><g
           id="g10336"
           transform="translate(153.2236,70.2842)"><path
             d="M 0,0 4.224,-1.001"
             style="fill:none;stroke:#231f20;stroke-width:0.5;stroke-linecap:round;stroke-linejoin:round;stroke-miterlimit:4;stroke-dasharray:none;stroke-opacity:1"
             id="path10338"
             inkscape:connector-curvature="0" /></g></g></g><g
       id="g10340"
       transform="translate(164.0117,136.853)"><path
         d="M 0,0 33.082,15.761"
         style="fill:none;stroke:#ffffff;stroke-width:3;stroke-linecap:round;stroke-linejoin:round;stroke-miterlimit:4;stroke-dasharray:none;stroke-opacity:1"
         id="path10342"
         inkscape:connector-curvature="0" /></g><g
       id="g10344"><g
         id="g10346"
         clip-path="url(#clipPath10348)"><g
           id="g10352"
           transform="translate(163.8896,135.6187)"><path
             d="M 0,0 C 0.681,0 1.233,0.553 1.233,1.234 1.233,1.916 0.681,2.467 0,2.467 -0.681,2.467 -1.233,1.916 -1.233,1.234 -1.233,0.553 -0.681,0 0,0"
             style="fill:#231f20;fill-opacity:1;fill-rule:nonzero;stroke:none"
             id="path10354"
             inkscape:connector-curvature="0" /></g><g
           id="g10356"
           transform="translate(163.8896,135.6187)"><path
             d="M 0,0 C 0.681,0 1.233,0.553 1.233,1.234 1.233,1.916 0.681,2.467 0,2.467 -0.681,2.467 -1.233,1.916 -1.233,1.234 -1.233,0.553 -0.681,0 0,0 Z"
             style="fill:none;stroke:#ffffff;stroke-width:1;stroke-linecap:butt;stroke-linejoin:miter;stroke-miterlimit:4;stroke-dasharray:none;stroke-opacity:1"
             id="path10358"
             inkscape:connector-curvature="0" /></g><g
           id="g10360"
           transform="translate(164.0117,136.853)"><path
             d="M 0,0 33.082,15.761"
             style="fill:none;stroke:#231f20;stroke-width:0.5;stroke-linecap:round;stroke-linejoin:round;stroke-miterlimit:4;stroke-dasharray:none;stroke-opacity:1"
             id="path10362"
             inkscape:connector-curvature="0" /></g><g
           id="g10364"
           transform="translate(173.7109,54.7139)"><path
             d="M 0,0 27.021,-20.307"
             style="fill:none;stroke:#ffffff;stroke-width:3;stroke-linecap:round;stroke-linejoin:round;stroke-miterlimit:4;stroke-dasharray:none;stroke-opacity:1"
             id="path10366"
             inkscape:connector-curvature="0" /></g><g
           id="g10368"
           transform="translate(173.5889,53.4795)"><path
             d="M 0,0 C 0.681,0 1.233,0.553 1.233,1.234 1.233,1.916 0.681,2.467 0,2.467 -0.681,2.467 -1.233,1.916 -1.233,1.234 -1.233,0.553 -0.681,0 0,0"
             style="fill:#231f20;fill-opacity:1;fill-rule:nonzero;stroke:none"
             id="path10370"
             inkscape:connector-curvature="0" /></g><g
           id="g10372"
           transform="translate(173.5889,53.4795)"><path
             d="M 0,0 C 0.681,0 1.233,0.553 1.233,1.234 1.233,1.916 0.681,2.467 0,2.467 -0.681,2.467 -1.233,1.916 -1.233,1.234 -1.233,0.553 -0.681,0 0,0 Z"
             style="fill:none;stroke:#ffffff;stroke-width:1;stroke-linecap:butt;stroke-linejoin:miter;stroke-miterlimit:4;stroke-dasharray:none;stroke-opacity:1"
             id="path10374"
             inkscape:connector-curvature="0" /></g><g
           id="g10376"
           transform="translate(173.7109,54.7139)"><path
             d="M 0,0 27.021,-20.307"
             style="fill:none;stroke:#231f20;stroke-width:0.5;stroke-linecap:round;stroke-linejoin:round;stroke-miterlimit:4;stroke-dasharray:none;stroke-opacity:1"
             id="path10378"
             inkscape:connector-curvature="0" /></g></g></g><text
       transform="matrix(1,0,0,-1,199.1035,152.5864)"
       style="font-variant:normal;font-weight:bold;font-stretch:normal;font-size:12px;font-family:Helvetica;-inkscape-font-specification:Helvetica-Bold;writing-mode:lr-tb;fill:#231f20;fill-opacity:1;fill-rule:nonzero;stroke:none"
       id="text10380"><tspan
         x="0"
         y="0"
         id="tspan10382">1</tspan><tspan
         x="3.6359999"
         y="126.396"
         id="tspan10384">2</tspan></text>
<text
       transform="matrix(1,0,0,-1,6,2.6709)"
       style="font-variant:normal;font-weight:normal;font-stretch:normal;font-size:5px;font-family:Helvetica;-inkscape-font-specification:Helvetica;writing-mode:lr-tb;fill:#231f20;fill-opacity:1;fill-rule:nonzero;stroke:none"
       id="text10386"><tspan
         x="0 2.5 5.2800002 7.7800002"
         y="0"
         sodipodi:role="line"
         id="tspan10388">cesi</tspan></text>
</g></svg>