<?xml version="1.0" encoding="UTF-8" standalone="no"?>
<svg
   xmlns:dc="http://purl.org/dc/elements/1.1/"
   xmlns:cc="http://creativecommons.org/ns#"
   xmlns:rdf="http://www.w3.org/1999/02/22-rdf-syntax-ns#"
   xmlns:svg="http://www.w3.org/2000/svg"
   xmlns="http://www.w3.org/2000/svg"
   viewBox="0 0 301.18124 230.315"
   height="230.315"
   width="301.18124"
   xml:space="preserve"
   version="1.1"
   id="svg2"><metadata
     id="metadata8"><rdf:RDF><cc:Work
         rdf:about=""><dc:format>image/svg+xml</dc:format><dc:type
           rdf:resource="http://purl.org/dc/dcmitype/StillImage" /></cc:Work></rdf:RDF></metadata><defs
     id="defs6"><clipPath
       id="clipPath16"
       clipPathUnits="userSpaceOnUse"><path
         id="path18"
         d="m 2.49,10.048 237.946,0 0,167.962 -237.946,0 0,-167.962 z" /></clipPath></defs><g
     transform="matrix(1.25,0,0,-1.25,0,230.315)"
     id="g10"><g
       id="g12"><g
         clip-path="url(#clipPath16)"
         id="g14"><g
           transform="translate(144.4824,142.084)"
           id="g20"><path
             id="path22"
             style="fill:none;stroke:#202426;stroke-width:0.5;stroke-linecap:round;stroke-linejoin:round;stroke-miterlimit:4;stroke-dasharray:none;stroke-opacity:1"
             d="M 0,0 C 0,7.762 -9.818,14.055 -21.929,14.055 -34.04,14.055 -43.858,7.762 -43.858,0" /></g><g
           transform="translate(148.3857,142.084)"
           id="g24"><path
             id="path26"
             style="fill:none;stroke:#202426;stroke-width:1.5;stroke-linecap:round;stroke-linejoin:round;stroke-miterlimit:4;stroke-dasharray:none;stroke-opacity:1"
             d="m 0,0 0,-14.559 c 0,-9.145 -11.565,-16.559 -25.832,-16.559 -14.268,0 -25.834,7.414 -25.834,16.559 l 0,14.559" /></g><g
           transform="translate(96.7202,142.084)"
           id="g28"><path
             id="path30"
             style="fill:none;stroke:#202426;stroke-width:1.5;stroke-linecap:round;stroke-linejoin:round;stroke-miterlimit:4;stroke-dasharray:none;stroke-opacity:1"
             d="M 0,0 C 0,9.145 11.566,16.558 25.833,16.558 40.1,16.558 51.666,9.145 51.666,0" /></g><g
           transform="translate(96.7202,129.1304)"
           id="g32"><path
             id="path34"
             style="fill:none;stroke:#202426;stroke-width:1.5;stroke-linecap:round;stroke-linejoin:round;stroke-miterlimit:4;stroke-dasharray:none;stroke-opacity:1"
             d="m 0,0 -11.713,0 0,12.884 11.713,0" /></g><g
           transform="translate(85.0073,131.8633)"
           id="g36"><path
             id="path38"
             style="fill:none;stroke:#202426;stroke-width:1.5;stroke-linecap:round;stroke-linejoin:round;stroke-miterlimit:4;stroke-dasharray:none;stroke-opacity:1"
             d="m 0,0 -76.134,0 -0.885,0.987 0,5.444 0.885,0.987 76.134,0" /></g><g
           transform="translate(8.8735,139.2812)"
           id="g40"><path
             id="path42"
             style="fill:none;stroke:#202426;stroke-width:0.5;stroke-linecap:round;stroke-linejoin:round;stroke-miterlimit:4;stroke-dasharray:none;stroke-opacity:1"
             d="M 0,0 0,-7.418" /></g><g
           transform="translate(44.0566,139.2812)"
           id="g44"><path
             id="path46"
             style="fill:none;stroke:#202426;stroke-width:0.5;stroke-linecap:round;stroke-linejoin:round;stroke-miterlimit:4;stroke-dasharray:none;stroke-opacity:1"
             d="M 0,0 0,-7.418" /></g><g
           transform="translate(68.5137,139.2812)"
           id="g48"><path
             id="path50"
             style="fill:none;stroke:#202426;stroke-width:0.5;stroke-linecap:round;stroke-linejoin:round;stroke-miterlimit:4;stroke-dasharray:none;stroke-opacity:1"
             d="M 0,0 0,-7.418" /></g><g
           transform="translate(69.7822,139.2812)"
           id="g52"><path
             id="path54"
             style="fill:none;stroke:#202426;stroke-width:0.5;stroke-linecap:round;stroke-linejoin:round;stroke-miterlimit:4;stroke-dasharray:none;stroke-opacity:1"
             d="M 0,0 0,-7.418" /></g><g
           transform="translate(71.0513,139.2812)"
           id="g56"><path
             id="path58"
             style="fill:none;stroke:#202426;stroke-width:0.5;stroke-linecap:round;stroke-linejoin:round;stroke-miterlimit:4;stroke-dasharray:none;stroke-opacity:1"
             d="M 0,0 0,-7.418" /></g><g
           transform="translate(72.3198,139.2812)"
           id="g60"><path
             id="path62"
             style="fill:none;stroke:#202426;stroke-width:0.5;stroke-linecap:round;stroke-linejoin:round;stroke-miterlimit:4;stroke-dasharray:none;stroke-opacity:1"
             d="M 0,0 0,-7.418" /></g><g
           transform="translate(73.5889,139.2812)"
           id="g64"><path
             id="path66"
             style="fill:none;stroke:#202426;stroke-width:0.5;stroke-linecap:round;stroke-linejoin:round;stroke-miterlimit:4;stroke-dasharray:none;stroke-opacity:1"
             d="M 0,0 0,-7.418" /></g><g
           transform="translate(74.8574,139.2812)"
           id="g68"><path
             id="path70"
             style="fill:none;stroke:#202426;stroke-width:0.5;stroke-linecap:round;stroke-linejoin:round;stroke-miterlimit:4;stroke-dasharray:none;stroke-opacity:1"
             d="M 0,0 0,-7.418" /></g><g
           transform="translate(76.126,139.2812)"
           id="g72"><path
             id="path74"
             style="fill:none;stroke:#202426;stroke-width:0.5;stroke-linecap:round;stroke-linejoin:round;stroke-miterlimit:4;stroke-dasharray:none;stroke-opacity:1"
             d="M 0,0 0,-7.418" /></g><g
           transform="translate(77.395,139.2812)"
           id="g76"><path
             id="path78"
             style="fill:none;stroke:#202426;stroke-width:0.5;stroke-linecap:round;stroke-linejoin:round;stroke-miterlimit:4;stroke-dasharray:none;stroke-opacity:1"
             d="M 0,0 0,-7.418" /></g><g
           transform="translate(78.6636,139.2812)"
           id="g80"><path
             id="path82"
             style="fill:none;stroke:#202426;stroke-width:0.5;stroke-linecap:round;stroke-linejoin:round;stroke-miterlimit:4;stroke-dasharray:none;stroke-opacity:1"
             d="M 0,0 0,-7.418" /></g><g
           transform="translate(79.9321,139.2812)"
           id="g84"><path
             id="path86"
             style="fill:none;stroke:#202426;stroke-width:0.5;stroke-linecap:round;stroke-linejoin:round;stroke-miterlimit:4;stroke-dasharray:none;stroke-opacity:1"
             d="M 0,0 0,-7.418" /></g><g
           transform="translate(81.2012,139.2812)"
           id="g88"><path
             id="path90"
             style="fill:none;stroke:#202426;stroke-width:0.5;stroke-linecap:round;stroke-linejoin:round;stroke-miterlimit:4;stroke-dasharray:none;stroke-opacity:1"
             d="M 0,0 0,-7.418" /></g><g
           transform="translate(82.4697,139.2812)"
           id="g92"><path
             id="path94"
             style="fill:none;stroke:#202426;stroke-width:0.5;stroke-linecap:round;stroke-linejoin:round;stroke-miterlimit:4;stroke-dasharray:none;stroke-opacity:1"
             d="M 0,0 0,-7.418" /></g><g
           transform="translate(83.7388,139.2812)"
           id="g96"><path
             id="path98"
             style="fill:none;stroke:#202426;stroke-width:0.5;stroke-linecap:round;stroke-linejoin:round;stroke-miterlimit:4;stroke-dasharray:none;stroke-opacity:1"
             d="M 0,0 0,-7.418" /></g><g
           transform="translate(85.0073,139.2812)"
           id="g100"><path
             id="path102"
             style="fill:none;stroke:#202426;stroke-width:0.5;stroke-linecap:round;stroke-linejoin:round;stroke-miterlimit:4;stroke-dasharray:none;stroke-opacity:1"
             d="M 0,0 0,-7.418" /></g><g
           transform="translate(101.2749,139.2812)"
           id="g104"><path
             id="path106"
             style="fill:none;stroke:#202426;stroke-width:0.5;stroke-linecap:round;stroke-linejoin:round;stroke-miterlimit:4;stroke-dasharray:none;stroke-opacity:1"
             d="M 0,0 0,-7.418" /></g><g
           transform="translate(102.3594,139.2812)"
           id="g108"><path
             id="path110"
             style="fill:none;stroke:#202426;stroke-width:0.5;stroke-linecap:round;stroke-linejoin:round;stroke-miterlimit:4;stroke-dasharray:none;stroke-opacity:1"
             d="M 0,0 0,-7.418" /></g><g
           transform="translate(103.4438,139.2812)"
           id="g112"><path
             id="path114"
             style="fill:none;stroke:#202426;stroke-width:0.5;stroke-linecap:round;stroke-linejoin:round;stroke-miterlimit:4;stroke-dasharray:none;stroke-opacity:1"
             d="M 0,0 0,-7.418" /></g><g
           transform="translate(104.5283,139.2812)"
           id="g116"><path
             id="path118"
             style="fill:none;stroke:#202426;stroke-width:0.5;stroke-linecap:round;stroke-linejoin:round;stroke-miterlimit:4;stroke-dasharray:none;stroke-opacity:1"
             d="M 0,0 0,-7.418" /></g><g
           transform="translate(105.6133,139.2812)"
           id="g120"><path
             id="path122"
             style="fill:none;stroke:#202426;stroke-width:0.5;stroke-linecap:round;stroke-linejoin:round;stroke-miterlimit:4;stroke-dasharray:none;stroke-opacity:1"
             d="M 0,0 0,-7.418" /></g><g
           transform="translate(106.6978,139.2812)"
           id="g124"><path
             id="path126"
             style="fill:none;stroke:#202426;stroke-width:0.5;stroke-linecap:round;stroke-linejoin:round;stroke-miterlimit:4;stroke-dasharray:none;stroke-opacity:1"
             d="M 0,0 0,-7.418" /></g><g
           transform="translate(107.7822,139.2812)"
           id="g128"><path
             id="path130"
             style="fill:none;stroke:#202426;stroke-width:0.5;stroke-linecap:round;stroke-linejoin:round;stroke-miterlimit:4;stroke-dasharray:none;stroke-opacity:1"
             d="M 0,0 0,-7.418" /></g><g
           transform="translate(101.0151,139.2812)"
           id="g132"><path
             id="path134"
             style="fill:none;stroke:#202426;stroke-width:1.5;stroke-linecap:round;stroke-linejoin:round;stroke-miterlimit:4;stroke-dasharray:none;stroke-opacity:1"
             d="m 0,0 6.767,0 0,-7.418" /></g><g
           transform="translate(148.3857,129.1304)"
           id="g136"><path
             id="path138"
             style="fill:none;stroke:#202426;stroke-width:1.5;stroke-linecap:round;stroke-linejoin:round;stroke-miterlimit:4;stroke-dasharray:none;stroke-opacity:1"
             d="m 0,0 11.713,0 0,12.884 -11.713,0" /></g><g
           transform="translate(160.0986,131.8633)"
           id="g140"><path
             id="path142"
             style="fill:none;stroke:#202426;stroke-width:1.5;stroke-linecap:round;stroke-linejoin:round;stroke-miterlimit:4;stroke-dasharray:none;stroke-opacity:1"
             d="m 0,0 76.134,0 0.887,0.987 0,5.444 -0.887,0.987 -76.134,0" /></g><g
           transform="translate(236.2324,139.2812)"
           id="g144"><path
             id="path146"
             style="fill:none;stroke:#202426;stroke-width:0.5;stroke-linecap:round;stroke-linejoin:round;stroke-miterlimit:4;stroke-dasharray:none;stroke-opacity:1"
             d="M 0,0 0,-7.418" /></g><g
           transform="translate(201.0508,139.2812)"
           id="g148"><path
             id="path150"
             style="fill:none;stroke:#202426;stroke-width:0.5;stroke-linecap:round;stroke-linejoin:round;stroke-miterlimit:4;stroke-dasharray:none;stroke-opacity:1"
             d="M 0,0 0,-7.418" /></g><g
           transform="translate(176.5928,139.2812)"
           id="g152"><path
             id="path154"
             style="fill:none;stroke:#202426;stroke-width:0.5;stroke-linecap:round;stroke-linejoin:round;stroke-miterlimit:4;stroke-dasharray:none;stroke-opacity:1"
             d="M 0,0 0,-7.418" /></g><g
           transform="translate(175.3242,139.2812)"
           id="g156"><path
             id="path158"
             style="fill:none;stroke:#202426;stroke-width:0.5;stroke-linecap:round;stroke-linejoin:round;stroke-miterlimit:4;stroke-dasharray:none;stroke-opacity:1"
             d="M 0,0 0,-7.418" /></g><g
           transform="translate(174.0557,139.2812)"
           id="g160"><path
             id="path162"
             style="fill:none;stroke:#202426;stroke-width:0.5;stroke-linecap:round;stroke-linejoin:round;stroke-miterlimit:4;stroke-dasharray:none;stroke-opacity:1"
             d="M 0,0 0,-7.418" /></g><g
           transform="translate(172.7861,139.2812)"
           id="g164"><path
             id="path166"
             style="fill:none;stroke:#202426;stroke-width:0.5;stroke-linecap:round;stroke-linejoin:round;stroke-miterlimit:4;stroke-dasharray:none;stroke-opacity:1"
             d="M 0,0 0,-7.418" /></g><g
           transform="translate(171.5176,139.2812)"
           id="g168"><path
             id="path170"
             style="fill:none;stroke:#202426;stroke-width:0.5;stroke-linecap:round;stroke-linejoin:round;stroke-miterlimit:4;stroke-dasharray:none;stroke-opacity:1"
             d="M 0,0 0,-7.418" /></g><g
           transform="translate(170.249,139.2812)"
           id="g172"><path
             id="path174"
             style="fill:none;stroke:#202426;stroke-width:0.5;stroke-linecap:round;stroke-linejoin:round;stroke-miterlimit:4;stroke-dasharray:none;stroke-opacity:1"
             d="M 0,0 0,-7.418" /></g><g
           transform="translate(168.9805,139.2812)"
           id="g176"><path
             id="path178"
             style="fill:none;stroke:#202426;stroke-width:0.5;stroke-linecap:round;stroke-linejoin:round;stroke-miterlimit:4;stroke-dasharray:none;stroke-opacity:1"
             d="M 0,0 0,-7.418" /></g><g
           transform="translate(167.7109,139.2812)"
           id="g180"><path
             id="path182"
             style="fill:none;stroke:#202426;stroke-width:0.5;stroke-linecap:round;stroke-linejoin:round;stroke-miterlimit:4;stroke-dasharray:none;stroke-opacity:1"
             d="M 0,0 0,-7.418" /></g><g
           transform="translate(166.4424,139.2812)"
           id="g184"><path
             id="path186"
             style="fill:none;stroke:#202426;stroke-width:0.5;stroke-linecap:round;stroke-linejoin:round;stroke-miterlimit:4;stroke-dasharray:none;stroke-opacity:1"
             d="M 0,0 0,-7.418" /></g><g
           transform="translate(165.1738,139.2812)"
           id="g188"><path
             id="path190"
             style="fill:none;stroke:#202426;stroke-width:0.5;stroke-linecap:round;stroke-linejoin:round;stroke-miterlimit:4;stroke-dasharray:none;stroke-opacity:1"
             d="M 0,0 0,-7.418" /></g><g
           transform="translate(163.9053,139.2812)"
           id="g192"><path
             id="path194"
             style="fill:none;stroke:#202426;stroke-width:0.5;stroke-linecap:round;stroke-linejoin:round;stroke-miterlimit:4;stroke-dasharray:none;stroke-opacity:1"
             d="M 0,0 0,-7.418" /></g><g
           transform="translate(162.6357,139.2812)"
           id="g196"><path
             id="path198"
             style="fill:none;stroke:#202426;stroke-width:0.5;stroke-linecap:round;stroke-linejoin:round;stroke-miterlimit:4;stroke-dasharray:none;stroke-opacity:1"
             d="M 0,0 0,-7.418" /></g><g
           transform="translate(161.3672,139.2812)"
           id="g200"><path
             id="path202"
             style="fill:none;stroke:#202426;stroke-width:0.5;stroke-linecap:round;stroke-linejoin:round;stroke-miterlimit:4;stroke-dasharray:none;stroke-opacity:1"
             d="M 0,0 0,-7.418" /></g><g
           transform="translate(160.0986,139.2812)"
           id="g204"><path
             id="path206"
             style="fill:none;stroke:#202426;stroke-width:0.5;stroke-linecap:round;stroke-linejoin:round;stroke-miterlimit:4;stroke-dasharray:none;stroke-opacity:1"
             d="M 0,0 0,-7.418" /></g><g
           transform="translate(143.8311,139.2812)"
           id="g208"><path
             id="path210"
             style="fill:none;stroke:#202426;stroke-width:0.5;stroke-linecap:round;stroke-linejoin:round;stroke-miterlimit:4;stroke-dasharray:none;stroke-opacity:1"
             d="M 0,0 0,-7.418" /></g><g
           transform="translate(142.7471,139.2812)"
           id="g212"><path
             id="path214"
             style="fill:none;stroke:#202426;stroke-width:0.5;stroke-linecap:round;stroke-linejoin:round;stroke-miterlimit:4;stroke-dasharray:none;stroke-opacity:1"
             d="M 0,0 0,-7.418" /></g><g
           transform="translate(141.6621,139.2812)"
           id="g216"><path
             id="path218"
             style="fill:none;stroke:#202426;stroke-width:0.5;stroke-linecap:round;stroke-linejoin:round;stroke-miterlimit:4;stroke-dasharray:none;stroke-opacity:1"
             d="M 0,0 0,-7.418" /></g><g
           transform="translate(140.5781,139.2812)"
           id="g220"><path
             id="path222"
             style="fill:none;stroke:#202426;stroke-width:0.5;stroke-linecap:round;stroke-linejoin:round;stroke-miterlimit:4;stroke-dasharray:none;stroke-opacity:1"
             d="M 0,0 0,-7.418" /></g><g
           transform="translate(139.4932,139.2812)"
           id="g224"><path
             id="path226"
             style="fill:none;stroke:#202426;stroke-width:0.5;stroke-linecap:round;stroke-linejoin:round;stroke-miterlimit:4;stroke-dasharray:none;stroke-opacity:1"
             d="M 0,0 0,-7.418" /></g><g
           transform="translate(138.4092,139.2812)"
           id="g228"><path
             id="path230"
             style="fill:none;stroke:#202426;stroke-width:0.5;stroke-linecap:round;stroke-linejoin:round;stroke-miterlimit:4;stroke-dasharray:none;stroke-opacity:1"
             d="M 0,0 0,-7.418" /></g><g
           transform="translate(137.3242,139.2812)"
           id="g232"><path
             id="path234"
             style="fill:none;stroke:#202426;stroke-width:0.5;stroke-linecap:round;stroke-linejoin:round;stroke-miterlimit:4;stroke-dasharray:none;stroke-opacity:1"
             d="M 0,0 0,-7.418" /></g><g
           transform="translate(144.0918,139.2812)"
           id="g236"><path
             id="path238"
             style="fill:none;stroke:#202426;stroke-width:1.5;stroke-linecap:round;stroke-linejoin:round;stroke-miterlimit:4;stroke-dasharray:none;stroke-opacity:1"
             d="m 0,0 -6.768,0 0,-7.418" /></g><g
           transform="translate(107.7817,137.9126)"
           id="g240"><path
             id="path242"
             style="fill:none;stroke:#202426;stroke-width:1.5;stroke-linecap:round;stroke-linejoin:round;stroke-miterlimit:4;stroke-dasharray:none;stroke-opacity:1"
             d="M 0,0 C 3.898,2.279 9.082,3.667 14.772,3.667 20.461,3.667 25.646,2.278 29.543,0" /></g><g
           transform="translate(144.4824,142.084)"
           id="g244"><path
             id="path246"
             style="fill:#ffffff;fill-opacity:1;fill-rule:nonzero;stroke:none"
             d="m 0,0 c 0,-7.763 -9.818,-14.055 -21.929,-14.055 -12.111,0 -21.929,6.292 -21.929,14.055 l 0,-16.208 43.641,0 L 0,0 Z" /></g><g
           transform="translate(148.3857,142.084)"
           id="g248"><path
             id="path250"
             style="fill:none;stroke:#202426;stroke-width:0.5;stroke-linecap:round;stroke-linejoin:round;stroke-miterlimit:4;stroke-dasharray:none;stroke-opacity:1"
             d="M 0,0 C 0,-9.145 -11.565,-16.559 -25.832,-16.559 -40.1,-16.559 -51.666,-9.145 -51.666,0" /></g><g
           transform="translate(144.4824,142.084)"
           id="g252"><path
             id="path254"
             style="fill:none;stroke:#202426;stroke-width:1.5;stroke-linecap:round;stroke-linejoin:round;stroke-miterlimit:4;stroke-dasharray:none;stroke-opacity:1"
             d="m 0,0 c 0,-7.763 -9.818,-14.055 -21.929,-14.055 -12.111,0 -21.929,6.292 -21.929,14.055" /></g><g
           transform="translate(171.2666,71.793)"
           id="g256"><path
             id="path258"
             style="fill:none;stroke:#202426;stroke-width:1.5;stroke-linecap:round;stroke-linejoin:round;stroke-miterlimit:4;stroke-dasharray:none;stroke-opacity:1"
             d="m 0,0 c 0.025,-0.089 0.045,-0.179 0.062,-0.27 0.314,-1.725 -1.08,-3.125 -3.112,-3.125 -2.032,0 -3.934,1.4 -4.249,3.125 -0.055,0.315 -0.056,0.619 -0.008,0.904" /></g><g
           transform="translate(163.96,72.4268)"
           id="g260"><path
             id="path262"
             style="fill:none;stroke:#202426;stroke-width:0.5;stroke-linecap:round;stroke-linejoin:round;stroke-miterlimit:4;stroke-dasharray:none;stroke-opacity:1"
             d="m 0,0 c 0.224,1.286 1.459,2.221 3.121,2.221 1.925,0 3.733,-1.255 4.186,-2.855" /></g><g
           transform="translate(163.9658,71.5439)"
           id="g264"><path
             id="path266"
             style="fill:none;stroke:#202426;stroke-width:1.5;stroke-linecap:round;stroke-linejoin:round;stroke-miterlimit:4;stroke-dasharray:none;stroke-opacity:1"
             d="m 0,0 c 0.235,1.271 1.464,2.192 3.115,2.192 2.031,0 3.934,-1.399 4.247,-3.123" /></g><g
           transform="translate(210.6387,42.4697)"
           id="g268"><path
             id="path270"
             style="fill:none;stroke:#202426;stroke-width:1.5;stroke-linecap:round;stroke-linejoin:round;stroke-miterlimit:4;stroke-dasharray:none;stroke-opacity:1"
             d="m 0,0 -6.535,35.93 c -0.184,1.004 -1.289,1.817 -2.471,1.817 l -71.13,0 c -1.181,0 -1.993,-0.813 -1.809,-1.817 0,0 -0.046,-0.662 0,-0.911 l 6.534,-35.931 c 0.182,-1.003 1.289,-1.817 2.47,-1.817 l 27.013,0 c 1.18,0 1.99,0.814 1.809,1.817 0,0 0.046,0.663 0,0.912 l -2.58,14.188 c -0.024,0.128 -0.034,0.251 -0.047,0.377 0.249,2.385 2.452,4.157 5.471,4.157 3.54,0 6.854,-2.437 7.402,-5.446 l 2.581,-14.188 c 0.181,-1.003 1.288,-1.817 2.471,-1.817 l 27.01,0 c 1.183,0 1.993,0.814 1.811,1.817 0,0 0.045,0.663 0,0.912 z" /></g><g
           transform="translate(210.6387,42.4697)"
           id="g272"><path
             id="path274"
             style="fill:none;stroke:#202426;stroke-width:0.5;stroke-linecap:round;stroke-linejoin:round;stroke-miterlimit:4;stroke-dasharray:none;stroke-opacity:1"
             d="m 0,0 c 0.182,-1.005 -0.628,-1.819 -1.811,-1.819 l -27.01,0 c -1.183,0 -2.29,0.814 -2.471,1.819 l -2.581,14.188 c -0.548,3.007 -3.862,5.445 -7.402,5.445 -3.544,0 -5.972,-2.438 -5.424,-5.445 L -44.119,0 c 0.181,-1.005 -0.629,-1.819 -1.809,-1.819 l -27.013,0 c -1.181,0 -2.288,0.814 -2.47,1.819 l -6.534,35.93" /></g></g></g></g></svg>