<?xml version="1.0" encoding="UTF-8" standalone="no"?>
<!-- Created with Inkscape (http://www.inkscape.org/) -->

<svg
   xmlns:dc="http://purl.org/dc/elements/1.1/"
   xmlns:cc="http://creativecommons.org/ns#"
   xmlns:rdf="http://www.w3.org/1999/02/22-rdf-syntax-ns#"
   xmlns:svg="http://www.w3.org/2000/svg"
   xmlns="http://www.w3.org/2000/svg"
   xmlns:sodipodi="http://sodipodi.sourceforge.net/DTD/sodipodi-0.dtd"
   xmlns:inkscape="http://www.inkscape.org/namespaces/inkscape"
   id="svg14926"
   version="1.1"
   inkscape:version="0.91 r13725"
   xml:space="preserve"
   width="301.18124"
   height="230.315"
   viewBox="0 0 301.18124 230.315"
   sodipodi:docname="cjoz.svg"><metadata
     id="metadata14932"><rdf:RDF><cc:Work
         rdf:about=""><dc:format>image/svg+xml</dc:format><dc:type
           rdf:resource="http://purl.org/dc/dcmitype/StillImage" /><dc:title></dc:title></cc:Work></rdf:RDF></metadata><defs
     id="defs14930"><clipPath
       clipPathUnits="userSpaceOnUse"
       id="clipPath14940"><path
         d="m 0,0 240.944,0 0,184.252 L 0,184.252 0,0 Z"
         id="path14942"
         inkscape:connector-curvature="0" /></clipPath></defs><sodipodi:namedview
     pagecolor="#ffffff"
     bordercolor="#666666"
     borderopacity="1"
     objecttolerance="10"
     gridtolerance="10"
     guidetolerance="10"
     inkscape:pageopacity="0"
     inkscape:pageshadow="2"
     inkscape:window-width="640"
     inkscape:window-height="480"
     id="namedview14928"
     showgrid="false"
     inkscape:zoom="3.8599309"
     inkscape:cx="150.59062"
     inkscape:cy="115.1575"
     inkscape:window-x="0"
     inkscape:window-y="0"
     inkscape:window-maximized="1"
     inkscape:current-layer="g14934" /><g
     id="g14934"
     inkscape:groupmode="layer"
     inkscape:label="cjoz"
     transform="matrix(1.25,0,0,-1.25,0,230.315)"><g
       id="g14936"><g
         id="g14938"
         clip-path="url(#clipPath14940)"><g
           id="g14944"
           transform="translate(-4.4312,155.3774)"><path
             d="m 0,0 c 0,0 18.997,-35.28 23.931,-44.655 4.935,-9.375 4.779,-13.468 5.007,-14.976 0.344,-2.268 0.413,-2.749 1.787,-4.742 6.153,-8.92 6.828,-12.243 6.596,-22.399 -0.069,-3.023 -0.412,-4.604 2.543,-10.17 2.954,-5.565 7.352,-12.849 8.726,-14.91 1.374,-2.062 2.954,-3.023 5.703,-3.023 2.749,0 39.785,-1.168 41.502,-1.168 1.718,0 4.466,-0.344 5.772,-3.78 l 1.092,-3.697"
             style="fill:none;stroke:#000000;stroke-width:1;stroke-linecap:round;stroke-linejoin:round;stroke-miterlimit:10;stroke-dasharray:none;stroke-opacity:1"
             id="path14946"
             inkscape:connector-curvature="0" /></g><g
           id="g14948"
           transform="translate(45.8276,187.7539)"><path
             d="m 0,0 c 0,0 17.893,-52.389 21.324,-62.028 3.43,-9.639 4.901,-15.44 5.309,-19.524 0.409,-4.084 1.798,-7.351 2.696,-11.027 1.027,-2.592 4.013,-16.064 4.248,-25.404 0.735,-7.679 1.96,-11.437 3.186,-14.459 1.225,-3.023 4.902,-12.827 5.555,-14.215 0.653,-1.389 1.634,-1.797 1.634,-1.797"
             style="fill:none;stroke:#000000;stroke-width:0.5;stroke-linecap:round;stroke-linejoin:round;stroke-miterlimit:10;stroke-dasharray:none;stroke-opacity:1"
             id="path14950"
             inkscape:connector-curvature="0" /></g><g
           id="g14952"
           transform="translate(109.7437,193.7539)"><path
             d="m 0,0 c -24.356,-47.072 0.79,-88.184 11,-103.5 3.333,-5 4.833,-4 13.833,-2.5 9,1.5 12.833,2.666 12,14.666 -0.833,12 -3.833,13 -5.5,13 -1.667,0 -4.667,0.667 -4.667,0.667"
             style="fill:none;stroke:#000000;stroke-width:1;stroke-linecap:round;stroke-linejoin:round;stroke-miterlimit:10;stroke-dasharray:none;stroke-opacity:1"
             id="path14954"
             inkscape:connector-curvature="0" /></g><g
           id="g14956"
           transform="translate(140.6421,108.1816)"><path
             d="m 0,0 c -0.499,0.812 -1.045,1.587 -1.569,2.381 -0.529,0.789 -1.185,1.509 -1.697,2.315 -1.023,1.611 -1.823,3.342 -2.686,5.035 -1.679,3.414 -3.235,6.883 -4.667,10.406 -1.426,3.525 -2.741,7.1 -3.799,10.768 -1.089,3.643 -1.748,7.53 -1.484,11.384 0.234,3.857 1.279,7.626 2.814,11.135 1.537,3.517 3.527,6.807 5.741,9.912 4.45,6.21 9.738,11.734 15.273,16.935 0.201,0.188 0.517,0.179 0.707,-0.022 C 8.822,80.047 8.812,79.73 8.61,79.542 L 8.609,79.54 C 3.105,74.37 -2.144,68.882 -6.532,62.755 c -2.185,-3.063 -4.138,-6.296 -5.639,-9.73 -1.499,-3.427 -2.508,-7.077 -2.733,-10.797 -0.25,-3.732 0.371,-7.437 1.447,-11.047 1.043,-3.617 2.348,-7.167 3.765,-10.667 C -6.854,13.506 -3.466,6.738 0.203,0.145 L 0.215,0.125 C 0.248,0.065 0.227,-0.011 0.166,-0.044 0.107,-0.076 0.034,-0.057 0,0"
             style="fill:#000000;fill-opacity:1;fill-rule:nonzero;stroke:none"
             id="path14958"
             inkscape:connector-curvature="0" /></g><g
           id="g14960"
           transform="translate(146.814,97.7754)"><path
             d="m 0,0 c 0.267,0.024 0.537,0.037 0.811,0.037 4.589,0 8.311,-3.507 8.311,-7.833 0,-4.326 -3.722,-7.833 -8.311,-7.833 -4.016,0 -7.368,2.685 -8.142,6.254"
             style="fill:none;stroke:#000000;stroke-width:0.5;stroke-linecap:round;stroke-linejoin:round;stroke-miterlimit:10;stroke-dasharray:none;stroke-opacity:1"
             id="path14962"
             inkscape:connector-curvature="0" /></g><g
           id="g14964"
           transform="translate(142.9946,89.7539)"><path
             d="m 0,0 2.07,-2.189 c 0.655,-0.618 1.56,-0.999 2.56,-0.999 2,0 3.623,1.528 3.623,3.414 0,1.083 -0.535,2.047 -1.369,2.672 L 3.583,5.5"
             style="fill:none;stroke:#000000;stroke-width:1;stroke-linecap:round;stroke-linejoin:round;stroke-miterlimit:10;stroke-dasharray:none;stroke-opacity:1"
             id="path14966"
             inkscape:connector-curvature="0" /></g><g
           id="g14968"
           transform="translate(141.3354,115.6138)"><path
             d="m 0,0 c 1.521,1.577 3.714,2.567 6.152,2.567 4.59,0 8.312,-3.507 8.312,-7.833 0,-4.326 -3.722,-7.833 -8.312,-7.833 -0.219,0 -0.437,0.008 -0.652,0.023"
             style="fill:none;stroke:#000000;stroke-width:0.5;stroke-linecap:round;stroke-linejoin:round;stroke-miterlimit:10;stroke-dasharray:none;stroke-opacity:1"
             id="path14970"
             inkscape:connector-curvature="0" /></g><g
           id="g14972"
           transform="translate(144.1606,113.7539)"><path
             d="m 0,0 c 0,0 1,0.011 3.327,0.007 2,-0.003 3.623,-1.528 3.623,-3.413 0,-1.886 -1.623,-3.413 -3.623,-3.413 l -1.16,0.002"
             style="fill:none;stroke:#000000;stroke-width:1;stroke-linecap:round;stroke-linejoin:round;stroke-miterlimit:10;stroke-dasharray:none;stroke-opacity:1"
             id="path14974"
             inkscape:connector-curvature="0" /></g><g
           id="g14976"
           transform="translate(118.8667,82.7373)"><path
             d="m 0,0 c 0,0 -9.491,-4.595 -11.35,-5.523 -1.858,-0.929 -2.973,-1.116 -4.708,-1.116 l -16.045,0"
             style="fill:none;stroke:#000000;stroke-width:0.5;stroke-linecap:round;stroke-linejoin:round;stroke-miterlimit:10;stroke-dasharray:none;stroke-opacity:1"
             id="path14978"
             inkscape:connector-curvature="0" /></g><g
           id="g14980"
           transform="translate(158.9878,89.3789)"><path
             d="m 0,0 c -0.331,-5.644 -5.292,-10.126 -11.363,-10.126 -3.536,0 -6.694,1.522 -8.78,3.907 -0.427,0.49 -1.043,0.776 -1.693,0.786 -0.65,0.012 -1.277,-0.251 -1.722,-0.725 -2.082,-2.223 -5.122,-3.626 -8.515,-3.626 -3.143,0 -5.989,1.201 -8.048,3.142"
             style="fill:none;stroke:#000000;stroke-width:0.5;stroke-linecap:round;stroke-linejoin:round;stroke-miterlimit:10;stroke-dasharray:none;stroke-opacity:1"
             id="path14982"
             inkscape:connector-curvature="0" /></g><g
           id="g14984"
           transform="translate(134.7183,87.6211)"><path
             d="m 0,0 c -1.167,-2.995 -4.221,-5.133 -7.804,-5.133 -4.59,0 -8.31,3.507 -8.31,7.833 0,0.884 0.155,1.734 0.442,2.527"
             style="fill:none;stroke:#000000;stroke-width:0.5;stroke-linecap:round;stroke-linejoin:round;stroke-miterlimit:10;stroke-dasharray:none;stroke-opacity:1"
             id="path14986"
             inkscape:connector-curvature="0" /></g><g
           id="g14988"
           transform="translate(81.584,84.5332)"><path
             d="m 0,0 c 0.071,-0.28 0.187,-0.537 0.369,-0.779 0.75,-1 4.812,-8.75 5.396,-9.417 0.583,-0.667 1,-0.667 1.916,-0.667 l 14.063,0 c 1.5,0 2.167,0.417 2.917,0.75 0.75,0.333 13.333,6.084 13.333,6.084 0.801,0.299 1.292,0.642 2.767,0.004"
             style="fill:none;stroke:#000000;stroke-width:0.5;stroke-linecap:round;stroke-linejoin:round;stroke-miterlimit:10;stroke-dasharray:none;stroke-opacity:1"
             id="path14990"
             inkscape:connector-curvature="0" /></g><g
           id="g14992"
           transform="translate(102.7026,127.0039)"><path
             d="m 0,0 -7,0 0,0.75 -3.375,0 c -2.375,0 -3.375,-0.5 -4.75,-2.125 -1.375,-1.625 -2.875,-4 -4,-5.625 -1.125,-1.625 -1.125,-1.875 -1.125,-3.25 0,-1.375 -0.875,-26.5 -0.875,-28.625 0,-1.61 -0.215,-2.718 0.006,-3.596 l 1.494,-12.279 c 0,0 4.375,-12.125 4.75,-13.125 0.375,-1 2.25,-1.875 3.75,-1.875 l 9.375,0 c 2.125,0 2.375,0.625 4.625,2.375 2.25,1.75 13.75,10.125 13.75,10.125 0.5,0.625 1.471,0.57 1.985,0.035 1.425,-1.481 3.825,-1.749 6.075,-1.749 3.239,0 6.14,1.34 8.128,3.462 0.424,0.452 1.023,0.703 1.643,0.692 0.621,-0.01 1.208,-0.283 1.617,-0.751 1.991,-2.276 5.005,-3.729 8.381,-3.729 5.795,0 10.53,4.277 10.847,9.664 l 0.984,12.001 c 0.012,0.199 0.018,0.399 0.018,0.601 0,3.401 -1.681,6.43 -4.302,8.395 -0.577,0.432 -0.918,1.108 -0.923,1.828 -0.004,0.721 0.328,1.402 0.9,1.841 2.555,1.964 4.188,4.952 4.188,8.304 0,5.924 -5.096,10.726 -11.381,10.726 -6.284,0 -7.717,-2.057 -9.716,-5.14"
             style="fill:none;stroke:#000000;stroke-width:1;stroke-linecap:round;stroke-linejoin:round;stroke-miterlimit:10;stroke-dasharray:none;stroke-opacity:1"
             id="path14994"
             inkscape:connector-curvature="0" /></g><g
           id="g14996"
           transform="translate(83.7026,85.1289)"><path
             d="m 0,0 15,0 1.375,-5.5 4.27,0 c 0.5,0 1.622,0.125 2.122,0.375 0.5,0.25 10.538,5.136 10.538,5.136 -0.92,1.202 -1.473,3.139 -1.473,5.181 0,1.991 0.575,3.854 1.578,5.451"
             style="fill:none;stroke:#000000;stroke-width:1;stroke-linecap:round;stroke-linejoin:round;stroke-miterlimit:10;stroke-dasharray:none;stroke-opacity:1"
             id="path14998"
             inkscape:connector-curvature="0" /></g><g
           id="g15000"
           transform="translate(81.7334,84.5088)"><path
             d="m 0,0 c 0.41,-0.536 1.313,-0.817 1.969,-0.817 l 13.063,0 1.375,-5.5 6.207,0 c 0.5,0 1.622,0.125 2.122,0.375 0.5,0.25 12.608,6.187 12.608,6.187 0,0 -1.203,-0.291 -2.07,0.386"
             style="fill:none;stroke:#000000;stroke-width:0.5;stroke-linecap:round;stroke-linejoin:round;stroke-miterlimit:10;stroke-dasharray:none;stroke-opacity:1"
             id="path15002"
             inkscape:connector-curvature="0" /></g><g
           id="g15004"
           transform="translate(115.5776,91.6914)"><path
             d="m 0,0 -2.125,0 c -1.25,0 -1.969,-0.125 -1.969,-1.969 l 0,-5.718"
             style="fill:none;stroke:#000000;stroke-width:1;stroke-linecap:round;stroke-linejoin:round;stroke-miterlimit:10;stroke-dasharray:none;stroke-opacity:1"
             id="path15006"
             inkscape:connector-curvature="0" /></g><g
           id="g15008"
           transform="translate(89.0776,85.1914)"><path
             d="m 0,0 c 0,0 -0.75,1.25 -0.75,3.625 0,2.375 0.313,21.875 0.313,22.937 0,1.063 0.812,2.313 2.187,2.313 l 10.875,0 c 0.688,0 1.438,-0.313 1.688,-1.188 0.25,-0.875 1.59,-16.831 1.59,-16.831 l 0.769,-15.861"
             style="fill:none;stroke:#000000;stroke-width:1;stroke-linecap:round;stroke-linejoin:round;stroke-miterlimit:10;stroke-dasharray:none;stroke-opacity:1"
             id="path15010"
             inkscape:connector-curvature="0" /></g><g
           id="g15012"
           transform="translate(96.3901,111.1289)"><path
             d="m 0,0 -0.142,-19.875 -4.125,0"
             style="fill:none;stroke:#000000;stroke-width:1;stroke-linecap:round;stroke-linejoin:round;stroke-miterlimit:10;stroke-dasharray:none;stroke-opacity:1"
             id="path15014"
             inkscape:connector-curvature="0" /></g><g
           id="g15016"
           transform="translate(92.1235,91.2539)"><path
             d="m 0,0 0.142,19.875 4.125,0"
             style="fill:none;stroke:#000000;stroke-width:0.5;stroke-linecap:round;stroke-linejoin:round;stroke-miterlimit:10;stroke-dasharray:none;stroke-opacity:1"
             id="path15018"
             inkscape:connector-curvature="0" /></g><g
           id="g15020"
           transform="translate(96.7651,83.6914)"><path
             d="M 0,0 1.937,1.437"
             style="fill:none;stroke:#000000;stroke-width:0.5;stroke-linecap:round;stroke-linejoin:round;stroke-miterlimit:10;stroke-dasharray:none;stroke-opacity:1"
             id="path15022"
             inkscape:connector-curvature="0" /></g><g
           id="g15024"
           transform="translate(98.1401,78.1914)"><path
             d="M 0,0 1.937,1.437"
             style="fill:none;stroke:#000000;stroke-width:0.5;stroke-linecap:round;stroke-linejoin:round;stroke-miterlimit:10;stroke-dasharray:none;stroke-opacity:1"
             id="path15026"
             inkscape:connector-curvature="0" /></g><g
           id="g15028"
           transform="translate(88.6401,88.3789)"><path
             d="m 0,0 10,0 c 1.358,0 1.642,1.115 1.642,2.125 0,0.959 -0.142,-0.004 0.171,22.25"
             style="fill:none;stroke:#000000;stroke-width:0.5;stroke-linecap:round;stroke-linejoin:round;stroke-miterlimit:10;stroke-dasharray:none;stroke-opacity:1"
             id="path15030"
             inkscape:connector-curvature="0" /></g><g
           id="g15032"
           transform="translate(103.2026,112.5039)"><path
             d="m 0,0 0,-23.125 c 0,-1.187 0.25,-2.125 0.437,-2.75 0.188,-0.625 1.341,-6.634 1.341,-6.634"
             style="fill:none;stroke:#000000;stroke-width:0.5;stroke-linecap:round;stroke-linejoin:round;stroke-miterlimit:10;stroke-dasharray:none;stroke-opacity:1"
             id="path15034"
             inkscape:connector-curvature="0" /></g><g
           id="g15036"
           transform="translate(89.1401,85.9414)"><path
             d="m 0,0 10,0 c 0.938,0 1.438,-0.5 1.75,-1.062 0.313,-0.563 1.303,-5.366 1.303,-5.366"
             style="fill:none;stroke:#000000;stroke-width:0.5;stroke-linecap:round;stroke-linejoin:round;stroke-miterlimit:10;stroke-dasharray:none;stroke-opacity:1"
             id="path15038"
             inkscape:connector-curvature="0" /></g><g
           id="g15040"
           transform="translate(104.5151,122.4414)"><path
             d="m 0,0 -5,0 0,-5.187 -15.375,0 -1,-31.751"
             style="fill:none;stroke:#000000;stroke-width:0.5;stroke-linecap:round;stroke-linejoin:round;stroke-miterlimit:10;stroke-dasharray:none;stroke-opacity:1"
             id="path15042"
             inkscape:connector-curvature="0" /></g><g
           id="g15044"
           transform="translate(136.2026,83.3789)"><path
             d="M 0,0 0,-10.875"
             style="fill:none;stroke:#000000;stroke-width:0.5;stroke-linecap:round;stroke-linejoin:round;stroke-miterlimit:10;stroke-dasharray:none;stroke-opacity:1"
             id="path15046"
             inkscape:connector-curvature="0" /></g><g
           id="g15048"
           transform="translate(138.3276,83.3789)"><path
             d="M 0,0 0,-10.875"
             style="fill:none;stroke:#000000;stroke-width:0.5;stroke-linecap:round;stroke-linejoin:round;stroke-miterlimit:10;stroke-dasharray:none;stroke-opacity:1"
             id="path15050"
             inkscape:connector-curvature="0" /></g><g
           id="g15052"
           transform="translate(120.1333,80.5576)"><path
             d="M 0,0 0,-9.882"
             style="fill:none;stroke:#000000;stroke-width:0.5;stroke-linecap:round;stroke-linejoin:round;stroke-miterlimit:10;stroke-dasharray:none;stroke-opacity:1"
             id="path15054"
             inkscape:connector-curvature="0" /></g><g
           id="g15056"
           transform="translate(122.1001,80.2129)"><path
             d="M 0,0 -0.099,-10.52"
             style="fill:none;stroke:#000000;stroke-width:0.5;stroke-linecap:round;stroke-linejoin:round;stroke-miterlimit:10;stroke-dasharray:none;stroke-opacity:1"
             id="path15058"
             inkscape:connector-curvature="0" /></g><g
           id="g15060"
           transform="translate(88.7651,73.1914)"><path
             d="M 0,0 1.375,-15.375"
             style="fill:none;stroke:#000000;stroke-width:0.5;stroke-linecap:round;stroke-linejoin:round;stroke-miterlimit:10;stroke-dasharray:none;stroke-opacity:1"
             id="path15062"
             inkscape:connector-curvature="0" /></g><g
           id="g15064"
           transform="translate(87.0776,74.5039)"><path
             d="M 0,0 1.562,-16.125"
             style="fill:none;stroke:#000000;stroke-width:0.5;stroke-linecap:round;stroke-linejoin:round;stroke-miterlimit:10;stroke-dasharray:none;stroke-opacity:1"
             id="path15066"
             inkscape:connector-curvature="0" /></g><g
           id="g15068"
           transform="translate(103.8901,73.3789)"><path
             d="M 0,0 0.875,-13.875"
             style="fill:none;stroke:#000000;stroke-width:0.5;stroke-linecap:round;stroke-linejoin:round;stroke-miterlimit:10;stroke-dasharray:none;stroke-opacity:1"
             id="path15070"
             inkscape:connector-curvature="0" /></g><g
           id="g15072"
           transform="translate(105.4526,73.5664)"><path
             d="M 0,0 0.75,-13.375"
             style="fill:none;stroke:#000000;stroke-width:0.5;stroke-linecap:round;stroke-linejoin:round;stroke-miterlimit:10;stroke-dasharray:none;stroke-opacity:1"
             id="path15074"
             inkscape:connector-curvature="0" /></g><g
           id="g15076"
           transform="translate(103.4106,57.7539)"><path
             d="m 0,0 c 2.5,-4.167 7.001,-8.321 15.334,-8.334 8.333,-0.013 32.831,-0.051 40.165,-0.062 9.046,-0.015 16.028,5.649 17.334,9.564 0.667,2 0.5,2.667 2,3 1.5,0.333 7.333,2.333 10,3 2.323,0.581 3.885,1.668 4.252,4.031"
             style="fill:none;stroke:#000000;stroke-width:0.5;stroke-linecap:round;stroke-linejoin:round;stroke-miterlimit:10;stroke-dasharray:none;stroke-opacity:1"
             id="path15078"
             inkscape:connector-curvature="0" /></g><g
           id="g15080"
           transform="translate(157.7437,115.2554)"><path
             d="m 0,0 c 12.329,-0.019 16.5,-7.333 17.667,-9.667 1.167,-2.333 1.921,-2.385 3.5,-2.833 1.645,-0.467 7.651,-1.95 9.723,-2.474 2.091,-0.53 3.11,-0.693 3.11,-4.359 0,-3.667 0.839,-22.667 0.834,-25.834 0,-0.408 -0.028,-0.786 -0.082,-1.135 0,0 -1.084,-4.616 -1.584,-7.366 -0.5,-2.75 -1.751,-4.667 -4.917,-6.167 -3.166,-1.5 -6.999,-2.416 -7.916,-2.833 -0.917,-0.417 -1.001,-1.334 -1.584,-2.084"
             style="fill:none;stroke:#000000;stroke-width:1;stroke-linecap:round;stroke-linejoin:round;stroke-miterlimit:10;stroke-dasharray:none;stroke-opacity:1"
             id="path15082"
             inkscape:connector-curvature="0" /></g><g
           id="g15084"
           transform="translate(189.771,68.8818)"><path
             d="m 0,0 c 0.13,0.406 0.198,0.902 0.199,1.516 0.005,2.937 -0.774,20.559 -0.774,23.961 0,3.401 -0.095,3.976 -2.035,4.467 -1.921,0.487 -8.484,1.862 -10.009,2.295 -1.465,0.416 -2.164,0.465 -3.246,2.629 -1.083,2.164 -4.392,9.486 -15.827,9.504"
             style="fill:none;stroke:#000000;stroke-width:0.5;stroke-linecap:round;stroke-linejoin:round;stroke-miterlimit:10;stroke-dasharray:none;stroke-opacity:1"
             id="path15086"
             inkscape:connector-curvature="0" /></g><g
           id="g15088"
           transform="translate(176.6743,63.8125)"><path
             d="m 0,0 c 1.392,0.31 6.802,2.164 9.275,2.783 1.958,0.49 3.331,0.746 3.822,2.286"
             style="fill:none;stroke:#000000;stroke-width:1;stroke-linecap:round;stroke-linejoin:round;stroke-miterlimit:10;stroke-dasharray:none;stroke-opacity:1"
             id="path15090"
             inkscape:connector-curvature="0" /></g><g
           id="g15092"
           transform="translate(104.8569,58.9561)"><path
             d="m 0,0 c 2.318,-3.865 6.494,-7.719 14.223,-7.73 7.729,-0.012 32.859,-0.047 39.662,-0.058 8.389,-0.014 14.866,5.239 16.077,8.871 0.619,1.855 0.465,3.465 1.855,3.773"
             style="fill:none;stroke:#000000;stroke-width:0.5;stroke-linecap:round;stroke-linejoin:round;stroke-miterlimit:10;stroke-dasharray:none;stroke-opacity:1"
             id="path15094"
             inkscape:connector-curvature="0" /></g><g
           id="g15096"
           transform="translate(182.0786,69.4209)"><path
             d="m 0,0 -4.834,0 0,-5.251"
             style="fill:none;stroke:#000000;stroke-width:0.5;stroke-linecap:round;stroke-linejoin:round;stroke-miterlimit:10;stroke-dasharray:none;stroke-opacity:1"
             id="path15098"
             inkscape:connector-curvature="0" /></g><g
           id="g15100"
           transform="translate(173.5786,94.5879)"><path
             d="m 0,0 0,-22.334 8.5,0 0,-2.833 -0.334,-3.918"
             style="fill:none;stroke:#000000;stroke-width:1;stroke-linecap:round;stroke-linejoin:round;stroke-miterlimit:10;stroke-dasharray:none;stroke-opacity:1"
             id="path15102"
             inkscape:connector-curvature="0" /></g><g
           id="g15104"
           transform="translate(181.2456,94.5879)"><path
             d="M 0,0 -7.667,0"
             style="fill:none;stroke:#000000;stroke-width:0.5;stroke-linecap:round;stroke-linejoin:round;stroke-miterlimit:10;stroke-dasharray:none;stroke-opacity:1"
             id="path15106"
             inkscape:connector-curvature="0" /></g><g
           id="g15108"
           transform="translate(176.5786,101.0879)"><path
             d="m 0,0 0,-3.834 5.167,0 0,-2.833 -1.418,-12.917 -6.125,0"
             style="fill:none;stroke:#000000;stroke-width:1;stroke-linecap:round;stroke-linejoin:round;stroke-miterlimit:10;stroke-dasharray:none;stroke-opacity:1"
             id="path15110"
             inkscape:connector-curvature="0" /></g><g
           id="g15112"
           transform="translate(187.4116,97.9209)"><path
             d="M 0,0 -3.667,-12.167"
             style="fill:none;stroke:#000000;stroke-width:0.5;stroke-linecap:round;stroke-linejoin:round;stroke-miterlimit:10;stroke-dasharray:none;stroke-opacity:1"
             id="path15114"
             inkscape:connector-curvature="0" /></g><g
           id="g15116"
           transform="translate(189.2446,96.7539)"><path
             d="M 0,0 -3.917,-12.125"
             style="fill:none;stroke:#000000;stroke-width:0.5;stroke-linecap:round;stroke-linejoin:round;stroke-miterlimit:10;stroke-dasharray:none;stroke-opacity:1"
             id="path15118"
             inkscape:connector-curvature="0" /></g><g
           id="g15120"
           transform="translate(99.9116,57.2539)"><path
             d="m 0,0 c 0,0 0.333,-1.666 1,-8.166 0.667,-6.5 6.999,-16 16.833,-16 l 14.834,0 c 1.5,0 1.666,-0.168 2.333,-1.334 0.667,-1.166 0.833,-2.166 2.833,-2.166 l 9.334,0 c 1.166,0 1.148,0.748 1.666,1.833 0.516,1.082 0.982,2.167 2.482,2.167 l 11.018,0 c 1.834,0 4.334,0.666 4.334,0.666 l 8.833,0 c 0.833,0 2.197,0.006 2.5,0.834 0.778,2.129 1.5,3.999 2,5.666 0.5,1.667 1.001,3.168 -0.333,4.834 C 78.333,-10 74.354,-3 74.354,-3"
             style="fill:none;stroke:#000000;stroke-width:1;stroke-linecap:round;stroke-linejoin:round;stroke-miterlimit:10;stroke-dasharray:none;stroke-opacity:1"
             id="path15122"
             inkscape:connector-curvature="0" /></g><g
           id="g15124"
           transform="translate(176.2124,34.6875)"><path
             d="M 0,0 C 0,0 2.366,6.233 2.532,7.066 2.698,7.899 2.199,8.9 1.866,9.4 1.533,9.9 -4.301,17.733 -4.301,17.733 L -9.135,0.629"
             style="fill:none;stroke:#000000;stroke-width:0.5;stroke-linecap:round;stroke-linejoin:round;stroke-miterlimit:10;stroke-dasharray:none;stroke-opacity:1"
             id="path15126"
             inkscape:connector-curvature="0" /></g><g
           id="g15128"
           transform="translate(181.2026,85.3789)"><path
             d="m 0,0 1.625,0 c 0.875,0 2,-0.375 2,-1.75 l 0,-15.875"
             style="fill:none;stroke:#000000;stroke-width:0.5;stroke-linecap:round;stroke-linejoin:round;stroke-miterlimit:10;stroke-dasharray:none;stroke-opacity:1"
             id="path15130"
             inkscape:connector-curvature="0" /></g><g
           id="g15132"
           transform="translate(138.0649,49.1602)"><path
             d="m 0,0 c 0,0 0.423,-0.693 1.06,-0.693 0.636,0 7.706,-0.058 8.4,-0.058 0.694,0 1.215,0.752 1.215,0.752"
             style="fill:none;stroke:#000000;stroke-width:1;stroke-linecap:round;stroke-linejoin:round;stroke-miterlimit:10;stroke-dasharray:none;stroke-opacity:1"
             id="path15134"
             inkscape:connector-curvature="0" /></g><g
           id="g15136"
           transform="translate(133.5864,49.335)"><path
             d="m 0,0 c 1.388,0 1.85,-0.636 2.197,-1.33 0.348,-0.694 1.562,-2.141 2.834,-2.141 l 9.949,0 c 1.273,0 1.909,0.753 2.661,1.678 C 18.393,-0.868 19.029,0 19.896,0"
             style="fill:none;stroke:#000000;stroke-width:0.5;stroke-linecap:round;stroke-linejoin:round;stroke-miterlimit:10;stroke-dasharray:none;stroke-opacity:1"
             id="path15138"
             inkscape:connector-curvature="0" /></g><g
           id="g15140"
           transform="translate(153.0776,48.9297)"><path
             d="M 0,0 -2.429,-14.864"
             style="fill:none;stroke:#000000;stroke-width:0.5;stroke-linecap:round;stroke-linejoin:round;stroke-miterlimit:10;stroke-dasharray:none;stroke-opacity:1"
             id="path15142"
             inkscape:connector-curvature="0" /></g><g
           id="g15144"
           transform="translate(133.8169,49.1035)"><path
             d="M 0,0 -0.23,-16.08"
             style="fill:none;stroke:#000000;stroke-width:0.5;stroke-linecap:round;stroke-linejoin:round;stroke-miterlimit:10;stroke-dasharray:none;stroke-opacity:1"
             id="path15146"
             inkscape:connector-curvature="0" /></g><g
           id="g15148"
           transform="translate(135.147,48.583)"><path
             d="M 0,0 -0.23,-16.08"
             style="fill:none;stroke:#000000;stroke-width:0.5;stroke-linecap:round;stroke-linejoin:round;stroke-miterlimit:10;stroke-dasharray:none;stroke-opacity:1"
             id="path15150"
             inkscape:connector-curvature="0" /></g><g
           id="g15152"
           transform="translate(152.0366,48.4092)"><path
             d="M 0,0 -2.429,-14.864"
             style="fill:none;stroke:#000000;stroke-width:0.5;stroke-linecap:round;stroke-linejoin:round;stroke-miterlimit:10;stroke-dasharray:none;stroke-opacity:1"
             id="path15154"
             inkscape:connector-curvature="0" /></g><g
           id="g15156"
           transform="translate(149.6733,67.9902)"><path
             d="m 0,0 c 0,0 -1.829,-8.611 -1.954,-9.361 -0.125,-0.75 -0.875,-1.375 -1.875,-1.375 l -18.892,0 c -1,0 -1.75,0.625 -1.875,1.375 -0.125,0.75 -2.125,9.75 -2.125,9.75"
             style="fill:none;stroke:#000000;stroke-width:0.5;stroke-linecap:round;stroke-linejoin:round;stroke-miterlimit:10;stroke-dasharray:none;stroke-opacity:1"
             id="path15158"
             inkscape:connector-curvature="0" /></g><g
           id="g15160"
           transform="translate(148.0942,60.7539)"><path
             d="m 0,0 c -0.125,-0.75 -0.875,-1.375 -1.875,-1.375 l -19.713,0 c -1,0 -1.75,0.625 -1.875,1.375"
             style="fill:none;stroke:#000000;stroke-width:0.5;stroke-linecap:round;stroke-linejoin:round;stroke-miterlimit:10;stroke-dasharray:none;stroke-opacity:1"
             id="path15162"
             inkscape:connector-curvature="0" /></g><g
           id="g15164"
           transform="translate(148.6108,63.1201)"><path
             d="m 0,0 c -0.125,-0.75 -0.875,-1.375 -1.875,-1.375 l -20.75,0 c -1,0 -1.75,0.625 -1.875,1.375"
             style="fill:none;stroke:#000000;stroke-width:0.5;stroke-linecap:round;stroke-linejoin:round;stroke-miterlimit:10;stroke-dasharray:none;stroke-opacity:1"
             id="path15166"
             inkscape:connector-curvature="0" /></g><g
           id="g15168"
           transform="translate(149.1274,65.4854)"><path
             d="m 0,0 c -0.125,-0.75 -0.875,-1.374 -1.875,-1.374 l -21.787,0 c -1,0 -1.75,0.624 -1.875,1.374"
             style="fill:none;stroke:#000000;stroke-width:0.5;stroke-linecap:round;stroke-linejoin:round;stroke-miterlimit:10;stroke-dasharray:none;stroke-opacity:1"
             id="path15170"
             inkscape:connector-curvature="0" /></g><g
           id="g15172"
           transform="translate(149.644,67.8516)"><path
             d="m 0,0 c -0.125,-0.75 -0.875,-1.375 -1.875,-1.375 l -22.824,0 c -1,0 -1.75,0.625 -1.875,1.375"
             style="fill:none;stroke:#000000;stroke-width:0.5;stroke-linecap:round;stroke-linejoin:round;stroke-miterlimit:10;stroke-dasharray:none;stroke-opacity:1"
             id="path15174"
             inkscape:connector-curvature="0" /></g><g
           id="g15176"
           transform="translate(83.5776,120.0039)"><path
             d="M 0,0 -16.899,68.375"
             style="fill:none;stroke:#000000;stroke-width:0.5;stroke-linecap:round;stroke-linejoin:round;stroke-miterlimit:10;stroke-dasharray:none;stroke-opacity:1"
             id="path15178"
             inkscape:connector-curvature="0" /></g><g
           id="g15180"
           transform="translate(75.3516,118.5938)"><path
             d="M 0,0 6.508,-20.673"
             style="fill:none;stroke:#000000;stroke-width:1;stroke-linecap:round;stroke-linejoin:round;stroke-miterlimit:10;stroke-dasharray:none;stroke-opacity:1"
             id="path15182"
             inkscape:connector-curvature="0" /></g><g
           id="g15184"
           transform="translate(53.5776,187.7539)"><path
             d="M 0,0 16.485,-52.363"
             style="fill:none;stroke:#000000;stroke-width:1;stroke-linecap:round;stroke-linejoin:round;stroke-miterlimit:10;stroke-dasharray:none;stroke-opacity:1"
             id="path15186"
             inkscape:connector-curvature="0" /></g><g
           id="g15188"
           transform="translate(67.7344,125.8105)"><path
             d="M 0,0 4.641,0.229 7.276,-8.193"
             style="fill:none;stroke:#000000;stroke-width:0.5;stroke-linecap:round;stroke-linejoin:round;stroke-miterlimit:10;stroke-dasharray:none;stroke-opacity:1"
             id="path15190"
             inkscape:connector-curvature="0" /></g><g
           id="g15192"
           transform="translate(70.1982,117.5034)"><path
             d="M 0,0 4.984,-0.058 5.213,8.364 2.979,17.821 -1.833,17.819"
             style="fill:none;stroke:#000000;stroke-width:1;stroke-linecap:round;stroke-linejoin:round;stroke-miterlimit:10;stroke-dasharray:none;stroke-opacity:1"
             id="path15194"
             inkscape:connector-curvature="0" /></g><g
           id="g15196"
           transform="translate(72.375,126.0396)"><path
             d="M 0,0 0.573,9.055"
             style="fill:none;stroke:#000000;stroke-width:0.5;stroke-linecap:round;stroke-linejoin:round;stroke-miterlimit:10;stroke-dasharray:none;stroke-opacity:1"
             id="path15198"
             inkscape:connector-curvature="0" /></g><g
           id="g15200"
           transform="translate(67.2759,126.0981)"><path
             d="M 0,0 1.031,8.938"
             style="fill:none;stroke:#000000;stroke-width:0.5;stroke-linecap:round;stroke-linejoin:round;stroke-miterlimit:10;stroke-dasharray:none;stroke-opacity:1"
             id="path15202"
             inkscape:connector-curvature="0" /></g><g
           id="g15204"
           transform="translate(84.4111,121.2539)"><path
             d="M 0,0 C 1.167,22.667 1.833,40.167 18.167,55.167"
             style="fill:none;stroke:#000000;stroke-width:0.5;stroke-linecap:round;stroke-linejoin:round;stroke-miterlimit:10;stroke-dasharray:none;stroke-opacity:1"
             id="path15206"
             inkscape:connector-curvature="0" /></g><g
           id="g15208"
           transform="translate(153.7446,120.2539)"><path
             d="M 0,0 -5.333,66.5"
             style="fill:none;stroke:#000000;stroke-width:0.5;stroke-linecap:round;stroke-linejoin:round;stroke-miterlimit:10;stroke-dasharray:none;stroke-opacity:1"
             id="path15210"
             inkscape:connector-curvature="0" /></g><g
           id="g15212"
           transform="translate(173.2446,32.9209)"><path
             d="m 0,0 c 0,0 1.334,-14.666 1.667,-21 0.333,-6.334 1.334,-12.667 13,-16.667"
             style="fill:none;stroke:#000000;stroke-width:0.5;stroke-linecap:round;stroke-linejoin:round;stroke-miterlimit:10;stroke-dasharray:none;stroke-opacity:1"
             id="path15214"
             inkscape:connector-curvature="0" /></g><g
           id="g15216"
           transform="translate(245.2476,166.5791)"><path
             d="m 0,0 c -5.727,-6.142 -16.034,-9.198 -26.932,-7.171 -15.159,2.819 -25.718,14.405 -23.586,25.879 0.62,3.326 2.237,6.278 4.591,8.724"
             style="fill:none;stroke:#000000;stroke-width:0.25;stroke-linecap:round;stroke-linejoin:round;stroke-miterlimit:10;stroke-dasharray:none;stroke-opacity:1"
             id="path15218"
             inkscape:connector-curvature="0" /></g><g
           id="g15220"
           transform="translate(247.9312,165.0342)"><path
             d="m 0,0 -7.348,-23 c -3.36,-10.263 -15.842,-16.277 -28.986,-13.587 -13.66,2.796 -22.971,13.957 -21.158,25.153 l 4.186,30.929"
             style="fill:none;stroke:#000000;stroke-width:0.5;stroke-linecap:round;stroke-linejoin:round;stroke-miterlimit:10;stroke-dasharray:none;stroke-opacity:1"
             id="path15222"
             inkscape:connector-curvature="0" /></g><g
           id="g15224"
           transform="translate(204.4419,192.5728)"><path
             d="m 0,0 -1.347,-8.841 c -1.483,-7.977 5.859,-16.033 16.398,-17.992 7.091,-1.32 13.823,0.458 17.922,4.191"
             style="fill:none;stroke:#000000;stroke-width:0.5;stroke-linecap:round;stroke-linejoin:round;stroke-miterlimit:10;stroke-dasharray:none;stroke-opacity:1"
             id="path15226"
             inkscape:connector-curvature="0" /></g><g
           id="g15228"
           transform="translate(243.0269,186.6436)"><path
             d="m 0,0 c -1.484,-7.977 -11.23,-12.855 -21.771,-10.896 -10.539,1.96 -17.88,10.016 -16.397,17.994 1.483,7.976 11.231,12.855 21.77,10.895 C -5.858,16.033 1.482,7.977 0,0 Z"
             style="fill:none;stroke:#000000;stroke-width:0.25;stroke-linecap:round;stroke-linejoin:round;stroke-miterlimit:10;stroke-dasharray:none;stroke-opacity:1"
             id="path15230"
             inkscape:connector-curvature="0" /></g><g
           id="g15232"
           transform="translate(207.7827,193.1973)"><path
             d="M 0,0 C -0.967,-5.203 2.5,-10.446 8.223,-13.338 L 49.045,-31.693"
             style="fill:none;stroke:#000000;stroke-width:0.5;stroke-linecap:round;stroke-linejoin:round;stroke-miterlimit:10;stroke-dasharray:none;stroke-opacity:1"
             id="path15234"
             inkscape:connector-curvature="0" /></g><g
           id="g15236"
           transform="translate(217.1646,181.9316)"><path
             d="m 0,0 c -6.171,2.8 -9.988,8.272 -8.979,13.702 1.258,6.754 9.51,10.884 18.435,9.225 C 18.38,21.268 24.597,14.446 23.341,7.691 22.084,0.937 13.832,-3.194 4.906,-1.534 3.154,-1.208 1.507,-0.684 0,0"
             style="fill:none;stroke:#000000;stroke-width:0.25;stroke-linecap:round;stroke-linejoin:round;stroke-miterlimit:10;stroke-dasharray:none;stroke-opacity:1"
             id="path15238"
             inkscape:connector-curvature="0" /></g><g
           id="g15240"
           transform="translate(190.2632,151.1284)"><path
             d="M 0,0 -3.817,40.626"
             style="fill:none;stroke:#000000;stroke-width:0.5;stroke-linecap:round;stroke-linejoin:round;stroke-miterlimit:10;stroke-dasharray:none;stroke-opacity:1"
             id="path15242"
             inkscape:connector-curvature="0" /></g><g
           id="g15244"
           transform="translate(190.9448,156.4453)"><path
             d="M 0,0 -2.727,34.492"
             style="fill:none;stroke:#000000;stroke-width:0.25;stroke-linecap:round;stroke-linejoin:round;stroke-miterlimit:10;stroke-dasharray:none;stroke-opacity:1"
             id="path15246"
             inkscape:connector-curvature="0" /></g><g
           id="g15248"
           transform="translate(208.0776,129.0039)"><path
             d="m 0,0 c 0,0 3.25,-24.25 4.25,-31.5 1,-7.25 -1.75,-12.75 1.5,-21.75 3.25,-9 7.5,-14.25 12.5,-13.75 5,0.5 33.25,2.75 33.25,2.75"
             style="fill:none;stroke:#000000;stroke-width:0.5;stroke-linecap:round;stroke-linejoin:round;stroke-miterlimit:10;stroke-dasharray:none;stroke-opacity:1"
             id="path15250"
             inkscape:connector-curvature="0" /></g><g
           id="g15252"
           transform="translate(56.5654,40.2305)"><path
             d="M 0,0 5.246,-8.474"
             style="fill:none;stroke:#000000;stroke-width:1;stroke-linecap:round;stroke-linejoin:round;stroke-miterlimit:10;stroke-dasharray:none;stroke-opacity:1"
             id="path15254"
             inkscape:connector-curvature="0" /></g><g
           id="g15256"
           transform="translate(62.8203,31.0508)"><path
             d="M 0,0 35.609,-0.101"
             style="fill:none;stroke:#000000;stroke-width:0.5;stroke-linecap:round;stroke-linejoin:round;stroke-miterlimit:10;stroke-dasharray:none;stroke-opacity:1"
             id="path15258"
             inkscape:connector-curvature="0" /></g><g
           id="g15260"
           transform="translate(49.4712,22.4131)"><path
             d="m 0,0 c 0.311,-0.48 0.916,-0.813 1.95,-0.845 3.329,-0.1 51.65,0.101 55.079,0.303 3.43,0.202 4.236,1.009 4.337,2.118 0.102,1.11 1.009,9.685 1.009,9.685"
             style="fill:none;stroke:#000000;stroke-width:0.5;stroke-linecap:round;stroke-linejoin:round;stroke-miterlimit:10;stroke-dasharray:none;stroke-opacity:1"
             id="path15262"
             inkscape:connector-curvature="0" /></g><g
           id="g15264"
           transform="translate(59.6929,35.1865)"><path
             d="m 0,0 c 0,0 -8.272,-7.869 -9.382,-9.079 -0.764,-0.834 -1.53,-2.628 -0.84,-3.694 0,0 6.692,-8.818 7.297,-9.524 0.605,-0.706 1.815,-1.815 3.631,-1.815 1.816,0 43.478,1.715 45.697,1.715 2.22,0 7.968,0.481 10.29,0.302 2.622,-0.202 5.146,-1.009 7.667,-2.219 2.522,-1.21 10.97,-5.164 15.635,3.329 3.935,7.162 7.391,15.386 7.391,15.386"
             style="fill:none;stroke:#000000;stroke-width:1;stroke-linecap:round;stroke-linejoin:round;stroke-miterlimit:10;stroke-dasharray:none;stroke-opacity:1"
             id="path15266"
             inkscape:connector-curvature="0" /></g><g
           id="g15268"
           transform="translate(35.9858,57.4785)"><path
             d="m 0,0 c 0,0 1.816,-23.404 2.32,-27.54 0.505,-4.136 2.623,-4.337 2.825,-5.851 0.202,-1.513 -1.413,-3.128 -1.816,-5.952 -0.403,-2.824 -1.614,-4.539 -2.622,-5.144 -1.009,-0.606 -1.514,-3.732 0.806,-5.548 2.32,-1.817 4.338,-3.43 5.75,-4.035 1.413,-0.606 3.329,-1.11 5.246,0.1 1.917,1.21 6.154,3.834 7.364,4.641 1.21,0.807 1.614,2.926 0.706,3.632 -0.908,0.706 -1.311,0.504 -1.513,3.127"
             style="fill:none;stroke:#000000;stroke-width:0.5;stroke-linecap:round;stroke-linejoin:round;stroke-miterlimit:10;stroke-dasharray:none;stroke-opacity:1"
             id="path15270"
             inkscape:connector-curvature="0" /></g><g
           id="g15272"
           transform="translate(36.894,11.4785)"><path
             d="m 0,0 c 0,0 6.053,-4.641 7.062,-5.246 1.008,-0.606 2.319,-0.907 3.833,-0.101 1.513,0.807 7.767,5.044 7.767,5.044"
             style="fill:none;stroke:#000000;stroke-width:0.25;stroke-linecap:round;stroke-linejoin:round;stroke-miterlimit:10;stroke-dasharray:none;stroke-opacity:1"
             id="path15274"
             inkscape:connector-curvature="0" /></g><g
           id="g15276"
           transform="translate(37.8018,12.8906)"><path
             d="m 0,0 c 0,0 5.672,-4.447 6.505,-4.947 0.833,-0.5 1.916,-0.75 3.165,-0.083 1.249,0.666 7.076,4.727 7.076,4.727"
             style="fill:none;stroke:#000000;stroke-width:0.25;stroke-linecap:round;stroke-linejoin:round;stroke-miterlimit:10;stroke-dasharray:none;stroke-opacity:1"
             id="path15278"
             inkscape:connector-curvature="0" /></g><g
           id="g15280"
           transform="translate(40.5254,25.3994)"><path
             d="m 0,0 c 2.119,-2.018 6.759,-2.32 6.86,-4.741 0.1,-2.421 -2.623,-4.237 -4.439,-3.127 -1.816,1.109 -2.925,1.513 -2.824,2.824"
             style="fill:none;stroke:#000000;stroke-width:0.25;stroke-linecap:round;stroke-linejoin:round;stroke-miterlimit:10;stroke-dasharray:none;stroke-opacity:1"
             id="path15282"
             inkscape:connector-curvature="0" /></g><g
           id="g15284"
           transform="translate(177.3276,34.2539)"><path
             d="m 0,0 c 0,0 1,-12.5 1.75,-18.5 0.75,-6 0.5,-11 11.5,-14.25 11,-3.25 19,-6.25 19,-6.25"
             style="fill:none;stroke:#000000;stroke-width:0.25;stroke-linecap:round;stroke-linejoin:round;stroke-miterlimit:10;stroke-dasharray:none;stroke-opacity:1"
             id="path15286"
             inkscape:connector-curvature="0" /></g><g
           id="g15288"
           transform="translate(181.3276,43.0039)"><path
             d="m 0,0 c 0,0 31.25,4.25 37.25,5.25 6,1 11,-0.75 11.25,-8 0.25,-7.25 2,-22 2,-27 0,-5 -0.5,-11.75 -5,-15.25"
             style="fill:none;stroke:#000000;stroke-width:0.25;stroke-linecap:round;stroke-linejoin:round;stroke-miterlimit:10;stroke-dasharray:none;stroke-opacity:1"
             id="path15290"
             inkscape:connector-curvature="0" /></g><g
           id="g15292"
           transform="translate(170.0776,112.5039)"><path
             d="M 0,0 C 3.25,6.5 26,23 26,23"
             style="fill:none;stroke:#000000;stroke-width:0.5;stroke-linecap:round;stroke-linejoin:round;stroke-miterlimit:10;stroke-dasharray:none;stroke-opacity:1"
             id="path15294"
             inkscape:connector-curvature="0" /></g><g
           id="g15296"
           transform="translate(84.1401,117.2539)"><path
             d="M 0,0 1.312,-22.875"
             style="fill:none;stroke:#000000;stroke-width:0.5;stroke-linecap:round;stroke-linejoin:round;stroke-miterlimit:10;stroke-dasharray:none;stroke-opacity:1"
             id="path15298"
             inkscape:connector-curvature="0" /></g><g
           id="g15300"
           transform="translate(99.5151,117.2539)"><path
             d="M 0,0 0.312,-3.125"
             style="fill:none;stroke:#000000;stroke-width:0.5;stroke-linecap:round;stroke-linejoin:round;stroke-miterlimit:10;stroke-dasharray:none;stroke-opacity:1"
             id="path15302"
             inkscape:connector-curvature="0" /></g><g
           id="g15304"
           transform="translate(99.5151,122.4414)"><path
             d="M 0,0 1.187,-8.313"
             style="fill:none;stroke:#000000;stroke-width:0.5;stroke-linecap:round;stroke-linejoin:round;stroke-miterlimit:10;stroke-dasharray:none;stroke-opacity:1"
             id="path15306"
             inkscape:connector-curvature="0" /></g></g></g><text
       transform="matrix(1,0,0,-1,2.8159,2.1416)"
       style="font-variant:normal;font-weight:normal;font-stretch:normal;font-size:4px;font-family:'Swiss 721 SWA';-inkscape-font-specification:Helvetica;writing-mode:lr-tb;fill:#231f20;fill-opacity:1;fill-rule:nonzero;stroke:none"
       id="text15308"><tspan
         x="0 2 2.888 5.112"
         y="0"
         sodipodi:role="line"
         id="tspan15310">cjoz</tspan></text>
<g
       id="g15312"
       transform="translate(172.7681,151.8125)"><path
         d="M 0,0 -9.523,-50.226"
         style="fill:none;stroke:#ffffff;stroke-width:3;stroke-linecap:round;stroke-linejoin:miter;stroke-miterlimit:4;stroke-dasharray:none;stroke-opacity:1"
         id="path15314"
         inkscape:connector-curvature="0" /></g><g
       id="g15316"
       transform="translate(163.2446,101.5869)"><path
         d="M 0,0 0,0"
         style="fill:none;stroke:#ffffff;stroke-width:3.75;stroke-linecap:round;stroke-linejoin:miter;stroke-miterlimit:4;stroke-dasharray:none;stroke-opacity:1"
         id="path15318"
         inkscape:connector-curvature="0" /></g><g
       id="g15320"
       transform="translate(172.7681,151.8125)"><path
         d="M 0,0 -9.523,-50.226"
         style="fill:none;stroke:#211f1f;stroke-width:0.5;stroke-linecap:round;stroke-linejoin:miter;stroke-miterlimit:4;stroke-dasharray:none;stroke-opacity:1"
         id="path15322"
         inkscape:connector-curvature="0" /></g><g
       id="g15324"
       transform="translate(163.2446,101.5869)"><path
         d="M 0,0 0,0"
         style="fill:none;stroke:#211f1f;stroke-width:1.5;stroke-linecap:round;stroke-linejoin:miter;stroke-miterlimit:4;stroke-dasharray:none;stroke-opacity:1"
         id="path15326"
         inkscape:connector-curvature="0" /></g><g
       id="g15328"
       transform="translate(148.5776,17.2539)"><path
         d="M 0,0 -53,79"
         style="fill:none;stroke:#ffffff;stroke-width:3;stroke-linecap:round;stroke-linejoin:miter;stroke-miterlimit:4;stroke-dasharray:none;stroke-opacity:1"
         id="path15330"
         inkscape:connector-curvature="0" /></g><g
       id="g15332"
       transform="translate(95.5776,96.2539)"><path
         d="M 0,0 0,0"
         style="fill:none;stroke:#ffffff;stroke-width:3.75;stroke-linecap:round;stroke-linejoin:miter;stroke-miterlimit:4;stroke-dasharray:none;stroke-opacity:1"
         id="path15334"
         inkscape:connector-curvature="0" /></g><g
       id="g15336"
       transform="translate(148.5776,17.2539)"><path
         d="M 0,0 -53,79"
         style="fill:none;stroke:#211f1f;stroke-width:0.5;stroke-linecap:round;stroke-linejoin:miter;stroke-miterlimit:4;stroke-dasharray:none;stroke-opacity:1"
         id="path15338"
         inkscape:connector-curvature="0" /></g><g
       id="g15340"
       transform="translate(95.5776,96.2539)"><path
         d="M 0,0 0,0"
         style="fill:none;stroke:#211f1f;stroke-width:1.5;stroke-linecap:round;stroke-linejoin:miter;stroke-miterlimit:4;stroke-dasharray:none;stroke-opacity:1"
         id="path15342"
         inkscape:connector-curvature="0" /></g><g
       id="g15344"
       transform="translate(19.5776,43.2539)"><path
         d="M 0,0 19.667,24.333"
         style="fill:none;stroke:#ffffff;stroke-width:3;stroke-linecap:round;stroke-linejoin:miter;stroke-miterlimit:4;stroke-dasharray:none;stroke-opacity:1"
         id="path15346"
         inkscape:connector-curvature="0" /></g><g
       id="g15348"
       transform="translate(39.2446,67.5869)"><path
         d="M 0,0 0,0"
         style="fill:none;stroke:#ffffff;stroke-width:3.75;stroke-linecap:round;stroke-linejoin:miter;stroke-miterlimit:4;stroke-dasharray:none;stroke-opacity:1"
         id="path15350"
         inkscape:connector-curvature="0" /></g><g
       id="g15352"
       transform="translate(19.5776,43.2539)"><path
         d="M 0,0 19.667,24.333"
         style="fill:none;stroke:#211f1f;stroke-width:0.5;stroke-linecap:round;stroke-linejoin:miter;stroke-miterlimit:4;stroke-dasharray:none;stroke-opacity:1"
         id="path15354"
         inkscape:connector-curvature="0" /></g><g
       id="g15356"
       transform="translate(39.2446,67.5869)"><path
         d="M 0,0 0,0"
         style="fill:none;stroke:#211f1f;stroke-width:1.5;stroke-linecap:round;stroke-linejoin:miter;stroke-miterlimit:4;stroke-dasharray:none;stroke-opacity:1"
         id="path15358"
         inkscape:connector-curvature="0" /></g><text
       transform="matrix(1,0,0,-1,169.9053,153.623)"
       style="font-variant:normal;font-weight:bold;font-stretch:normal;font-size:10px;font-family:'Swiss 721 SWA';-inkscape-font-specification:Helvetica-Bold;writing-mode:lr-tb;fill:#231f20;fill-opacity:1;fill-rule:nonzero;stroke:none"
       id="text15360"><tspan
         x="0"
         y="0"
         id="tspan15362">2</tspan><tspan
         x="-21"
         y="144.33"
         id="tspan15364">1</tspan><tspan
         x="-155.33"
         y="119"
         id="tspan15366">3</tspan></text>
</g></svg>