<?xml version="1.0" encoding="UTF-8" standalone="no"?>
<svg
   xmlns:dc="http://purl.org/dc/elements/1.1/"
   xmlns:cc="http://creativecommons.org/ns#"
   xmlns:rdf="http://www.w3.org/1999/02/22-rdf-syntax-ns#"
   xmlns:svg="http://www.w3.org/2000/svg"
   xmlns="http://www.w3.org/2000/svg"
   xmlns:sodipodi="http://sodipodi.sourceforge.net/DTD/sodipodi-0.dtd"
   xmlns:inkscape="http://www.inkscape.org/namespaces/inkscape"
   xml:space="preserve"
   height="768.0"
   viewBox="0,0 65416,45760"
   width="1024.0"
   id="svg2"
   version="1.1"
   inkscape:version="0.91 r13725"
   sodipodi:docname="10 - ENGINE MANAGEMENT CIRCUIT - POSITION SENSORS.svg"><metadata
     id="metadata378"><rdf:RDF><cc:Work
         rdf:about=""><dc:format>image/svg+xml</dc:format><dc:type
           rdf:resource="http://purl.org/dc/dcmitype/StillImage" /></cc:Work></rdf:RDF></metadata><sodipodi:namedview
     pagecolor="#ffffff"
     bordercolor="#666666"
     borderopacity="1"
     objecttolerance="10"
     gridtolerance="10"
     guidetolerance="10"
     inkscape:pageopacity="0"
     inkscape:pageshadow="2"
     inkscape:window-width="2560"
     inkscape:window-height="1378"
     id="namedview376"
     showgrid="false"
     inkscape:zoom="1.5"
     inkscape:cx="512"
     inkscape:cy="384"
     inkscape:window-x="-8"
     inkscape:window-y="-8"
     inkscape:window-maximized="1"
     inkscape:current-layer="g8" /><defs
     id="defs4"><style
       type="text/css"
       id="style6"><![CDATA[
.A{stroke-width:59px;}
.A,.B{stroke:#808080;}
.A,.I,.K,.E,.X,.C,.T,.U,.P,.W,.V,.Q,.O,.R,.S,.D,.B,.J,.F,.Y,.M,.N{stroke-dasharray:none;}
.G,.E,.U,.Q,.O,.S,.F{stroke:#F9F;}
.H{stroke:#0C0;}
.I,.X,.C,.P,.W,.V,.R,.D,.J,.Y,.M,.N{stroke:#000;}
.J,.F{fill:#F9F;}
.K{stroke:#C0F;}
.L{stroke:#03F;}
.L,.H,.G{stroke-dasharray:117,58;}
.L,.H,.G,.A,.I,.K,.E{stroke-linecap:butt;}
.L,.H,.G,.A,.I,.K,.E,.C,.D,.B,.J,.F{font-family:sans-serif;}
.L,.H,.G,.A,.I,.K,.E,.X,.C{fill-opacity:0.0;fill:none;}
.L,.H,.G,.A,.I,.K,.E,.X,.C,.T,.U,.P,.W,.V,.Q,.O,.R,.S,.D,.B,.J,.F,.Y,.M,.N{fill-rule:evenodd;font-style:normal;font-weight:normal;stroke-linejoin:miter;stroke-miterlimit:10;}
.L,.H,.G,.A,.I,.K,.E,.X,.C,.Y,.M,.N{stroke-opacity:1.0;}
.L,.H,.G,.I,.K,.E{stroke-width:85px;}
.M{font-size:662px;}
.O,.N{font-size:771px;}
.P,.R,.Y,.M,.N{fill:#000;}
.R,.S{font-family:Tahoma;font-size:393px;}
.T{fill:#999;stroke:#999;}
.T,.P,.R,.M,.N{stroke-width:0.5px;}
.T,.U{font-size:312px;}
.T,.U,.P,.W,.V,.Q,.O,.R,.S,.D,.B,.J,.F{stroke-opacity:0.0;}
.T,.U,.P,.W,.V,.Q,.O,.R,.S,.D,.B,.J,.F,.Y,.M,.N{fill-opacity:1.0;}
.U,.V,.Q,.O,.S{fill:#FFF;}
.W,.D,.B{fill:#CCC;}
.X,.C,.T,.U,.P,.W,.V,.Q,.O,.R,.S,.D,.B,.J,.F,.Y,.M,.N{stroke-linecap:square;}
.X,.C,.U,.W,.V,.Q,.O,.S,.D,.B,.J,.F{stroke-width:16px;}
.X,.P,.W,.V,.Q,.Y{font-size:469px;}
.X,.T,.U,.P,.W,.V,.Q,.O,.Y,.M,.N{font-family:Arial;}
.Y{stroke-width:16.0px;}
]]></style></defs><g
     id="g8"><g
       id="g12"><path
         class="B"
         d="M60665,15504h338v-338v-3385v-338h-338h-338v338v3385v338 z"
         id="path14" /><path
         class="C"
         d="M60327,15165v338h677v-338m-677,-3385v-338h677v338m-677,1354v-677m677,677v-677m-677,2031v-677m677,677v-677"
         id="path16" /></g><g
       id="g18"><path
         class="D"
         d="M31213,6702v-338v-2031v-338h338h338v338v2031v338 z"
         id="path20" /><path
         class="C"
         d="M31213,6363v338h677v-338m0,-2031v-338h-677v338m1015,338h-677m338,1015v-677m-677,677v-677m1015,1015h-677"
         id="path22" /></g><g
       id="g24"><path
         class="D"
         d="M60665,6702h338v-338v-2031v-338h-338h-338v338v2031v338 z"
         id="path26" /><path
         class="C"
         d="M60327,6363v338h677v-338m-677,-2031v-338h677v338m-677,1354v-677m677,677v-677"
         id="path28" /></g><g
       id="g30"><path
         class="D"
         d="M31890,6702v-338v-2031v-338h338h338v338v2031v338 z"
         id="path32" /><path
         class="C"
         d="M31890,6363v338h677v-338m0,-2031v-338h-677v338m338,338h-677m1015,1015v-677m-677,677v-677m338,1015h-677"
         id="path34" /></g><g
       id="g36"><path
         class="C"
         d="M61004,5009v677m0,677v338h3385v-2708h-3385v338"
         id="path38" /></g><g
       id="g40"><path
         class="C"
         d="M61004,13811v677m0,-2031v677m0,2031v338h3385v-4062h-3385v338"
         id="path42" /></g><g
       id="g44"><path
         class="C"
         d="M5484,13811v677m0,-2031v677m0,-8124v677m0,677v5416m0,-7447v-338h-3385v11510h3385v-338"
         id="path46" /></g><g
       id="g48"><path
         class="E"
         d="M31890,13472h28436"
         id="path50" /><circle
         class="F"
         cx="31890"
         cy="13472"
         r="42"
         id="circle52" /><path
         class="G"
         d="M31890,13472h28436"
         id="path54" /></g><g
       id="g56"><path
         class="E"
         d="M6161,12118h54165"
         id="path58" /><path
         class="H"
         d="M6161,12118h54165"
         id="path60" /></g><g
       id="g62"><path
         class="I"
         d="M6161,14826h25728"
         id="path64" /><circle
         class="J"
         cx="31890"
         cy="14826"
         r="42"
         id="circle66" /><path
         class="G"
         d="M6161,14826h25728"
         id="path68" /></g><g
       id="g70"><path
         class="E"
         d="M6161,13472h25728"
         id="path72" /><circle
         class="F"
         cx="31890"
         cy="13472"
         r="42"
         id="circle74" /><path
         class="G"
         d="M6161,13472h25728"
         id="path76" /></g><g
       id="g78"><path
         class="K"
         d="M32567,4670h27759"
         id="path80" /><path
         class="L"
         d="M32567,4670h27759"
         id="path82" /></g><g
       id="g84"><path
         class="I"
         d="M32567,6025h27759"
         id="path86" /><path
         class="L"
         d="M32567,6025h27759"
         id="path88" /></g><g
       id="g90"><path
         class="K"
         d="M6161,4670h25051"
         id="path92" /><path
         class="L"
         d="M6161,4670h25051"
         id="path94" /></g><g
       id="g96"><path
         class="I"
         d="M6161,6025h25051"
         id="path98" /><path
         class="L"
         d="M6161,6025h25051"
         id="path100" /></g><g
       id="g102"><path
         class="I"
         d="M31890,14826h28436"
         id="path104" /><circle
         class="J"
         cx="31890"
         cy="14826"
         r="42"
         id="circle106" /><path
         class="G"
         d="M31890,14826h28436"
         id="path108" /></g><g
       id="g118"><rect
         class="O"
         x="58563"
         y="14520"
         width="1354"
         height="527"
         id="rect120" /><text
         class="P"
         x="58636"
         y="15033"
         id="text122">E15-4</text>
</g><g
       id="g124"><rect
         class="Q"
         x="58563"
         y="11812"
         width="1354"
         height="527"
         id="rect126" /><text
         class="P"
         x="58636"
         y="12325"
         id="text128">E15-1</text>
</g><g
       id="g130"><text
         class="R"
         x="29955"
         y="3872"
         id="text132">ENGINE SUB-HARNESS</text>
</g><g
       id="g134"><rect
         class="S"
         x="29421"
         y="4364"
         width="1383"
         height="527"
         id="rect136" /><text
         class="P"
         x="29494"
         y="4877"
         id="text138">H05-3</text>
</g><g
       id="g140"><rect
         class="Q"
         x="29421"
         y="5719"
         width="1383"
         height="527"
         id="rect142" /><text
         class="P"
         x="29494"
         y="6231"
         id="text144">H05-4</text>
</g><g
       id="g146"><rect
         class="Q"
         x="58563"
         y="4364"
         width="1354"
         height="527"
         id="rect148" /><text
         class="P"
         x="58636"
         y="4877"
         id="text150">E05-2</text>
</g><g
       id="g152"><rect
         class="Q"
         x="58563"
         y="5719"
         width="1354"
         height="527"
         id="rect154" /><text
         class="P"
         x="58636"
         y="6231"
         id="text156">E05-1</text>
</g><g
       id="g158"><rect
         class="Q"
         x="32976"
         y="4364"
         width="1805"
         height="527"
         id="rect160" /><text
         class="P"
         x="33049"
         y="4877"
         id="text162">H05M-3</text>
</g><g
       id="g164"><rect
         class="Q"
         x="32976"
         y="5719"
         width="1805"
         height="527"
         id="rect166" /><text
         class="P"
         x="33049"
         y="6231"
         id="text168">H05M-4</text>
</g><g
       id="g170"
       transform="translate(0,-127.76563)"><text
         class="R"
         x="59348"
         y="3938"
         id="text172"
         style="font-style:normal;font-weight:normal;font-size:393px;font-family:Tahoma;fill:#000000;fill-opacity:1;fill-rule:evenodd;stroke:#000000;stroke-width:0.5px;stroke-linecap:square;stroke-linejoin:miter;stroke-miterlimit:10;stroke-dasharray:none;stroke-opacity:0">CRANK POSITION SENSOR</text>
</g><g
       id="g174"><rect
         class="S"
         x="61051"
         y="5815"
         width="1711"
         height="351"
         id="rect176" /><text
         class="T"
         x="61100"
         y="6157"
         id="text178">NEGATIVE</text>
</g><g
       id="g180"><rect
         class="U"
         x="61051"
         y="4461"
         width="1561"
         height="351"
         id="rect182" /><text
         class="T"
         x="61100"
         y="4803"
         id="text184">POSITIVE</text>
</g><g
       id="g186"
       transform="translate(0,-127.76563)"><text
         class="R"
         x="59613"
         y="11385"
         id="text188"
         style="font-style:normal;font-weight:normal;font-size:393px;font-family:Tahoma;fill:#000000;fill-opacity:1;fill-rule:evenodd;stroke:#000000;stroke-width:0.5px;stroke-linecap:square;stroke-linejoin:miter;stroke-miterlimit:10;stroke-dasharray:none;stroke-opacity:0">GEAR POSITION SENSOR</text>
</g><g
       id="g190"><rect
         class="S"
         x="61051"
         y="11908"
         width="1241"
         height="351"
         id="rect192" /><text
         class="T"
         x="61100"
         y="12251"
         id="text194">SIGNAL</text>
</g><g
       id="g196"><rect
         class="U"
         x="61051"
         y="13263"
         width="940"
         height="351"
         id="rect198" /><text
         class="T"
         x="61100"
         y="13605"
         id="text200">SVCC</text>
</g><g
       id="g202"><rect
         class="U"
         x="61051"
         y="14617"
         width="1504"
         height="351"
         id="rect204" /><text
         class="T"
         x="61100"
         y="14959"
         id="text206">GROUND</text>
</g><g
       id="g208"><text
         class="R"
         x="2222"
         y="3872"
         id="text210">ENGINE ECM</text>
</g><g
       id="g212"><rect
         class="S"
         x="4308"
         y="4461"
         width="1128"
         height="351"
         id="rect214" /><text
         class="T"
         x="4357"
         y="4803"
         id="text216">CRK_P</text>
</g><g
       id="g218"><rect
         class="U"
         x="4271"
         y="5815"
         width="1166"
         height="351"
         id="rect220" /><text
         class="T"
         x="4320"
         y="6157"
         id="text222">CRK_G</text>
</g><g
       id="g224"><rect
         class="U"
         x="4120"
         y="13263"
         width="1317"
         height="351"
         id="rect226" /><text
         class="T"
         x="4169"
         y="13605"
         id="text228">SVCC#4</text>
</g><g
       id="g230"><rect
         class="U"
         x="4572"
         y="14617"
         width="865"
         height="351"
         id="rect232" /><text
         class="T"
         x="4621"
         y="14959"
         id="text234">SG#4</text>
</g><g
       id="g236"><rect
         class="U"
         x="4948"
         y="11908"
         width="489"
         height="351"
         id="rect238" /><text
         class="T"
         x="4997"
         y="12251"
         id="text240">GP</text>
</g><g
       id="g242"><rect
         class="U"
         x="45939"
         y="13149"
         width="338"
         height="527"
         id="rect244" /><text
         class="P"
         x="46012"
         y="13662"
         id="text246">K</text>
</g><g
       id="g248"><rect
         class="Q"
         x="31453"
         y="11795"
         width="874"
         height="527"
         id="rect250" /><text
         class="P"
         x="31526"
         y="12308"
         id="text252">G/K</text>
</g><g
       id="g254"><rect
         class="Q"
         x="18616"
         y="14503"
         width="818"
         height="527"
         id="rect256" /><text
         class="P"
         x="18689"
         y="15016"
         id="text258">K/B</text>
</g><g
       id="g260"><rect
         class="Q"
         x="18856"
         y="13149"
         width="338"
         height="527"
         id="rect262" /><text
         class="P"
         x="18929"
         y="13662"
         id="text264">K</text>
</g><g
       id="g266"><rect
         class="Q"
         x="46024"
         y="4347"
         width="846"
         height="527"
         id="rect268" /><text
         class="P"
         x="46097"
         y="4860"
         id="text270">U/P</text>
</g><g
       id="g272"><rect
         class="Q"
         x="46024"
         y="5702"
         width="846"
         height="527"
         id="rect274" /><text
         class="P"
         x="46097"
         y="6214"
         id="text276">U/B</text>
</g><g
       id="g278"><rect
         class="Q"
         x="18264"
         y="4347"
         width="846"
         height="527"
         id="rect280" /><text
         class="P"
         x="18337"
         y="4860"
         id="text282">U/P</text>
</g><g
       id="g284"><rect
         class="Q"
         x="18264"
         y="5702"
         width="846"
         height="527"
         id="rect286" /><text
         class="P"
         x="18337"
         y="6214"
         id="text288">U/B</text>
</g><g
       id="g290"><rect
         class="Q"
         x="45699"
         y="14503"
         width="818"
         height="527"
         id="rect292" /><text
         class="P"
         x="45772"
         y="15016"
         id="text294">K/B</text>
</g><g
       id="g296"><circle
         class="Y"
         cx="31890"
         cy="14826"
         r="270"
         id="circle298" /></g><g
       id="g300"><rect
         class="V"
         x="31360"
         y="15207"
         width="1100"
         height="634"
         id="rect302" /><text
         class="P"
         x="31504"
         y="15710"
         id="text304">KB1</text>
</g><g
       id="g306"><path
         class="W"
         d="M5484,15504v-338v-10833v-338h338h338v338v10833v338 z"
         id="path308" /><path
         class="X"
         d="M5484,13811v677m677,-677v677m-677,-2031v677m677,-677v677m-677,-8124v677m677,-677v677m-677,-1354v-338h677v338m0,2031v5416m-677,-5416v5416m677,3385v338h-677v-338"
         id="path310" /></g><g
       id="g312" /><g
       id="g314"><rect
         class="V"
         x="6570"
         y="14520"
         width="1975"
         height="527"
         id="rect316" /><text
         class="P"
         x="6643"
         y="15033"
         id="text318">E02B-23</text>
</g><g
       id="g320" /><g
       id="g322"><rect
         class="V"
         x="6570"
         y="11812"
         width="1975"
         height="527"
         id="rect324" /><text
         class="P"
         x="6643"
         y="12325"
         id="text326">E02B-30</text>
</g><g
       id="g328" /><g
       id="g330"><rect
         class="V"
         x="6570"
         y="5719"
         width="1975"
         height="527"
         id="rect332" /><text
         class="P"
         x="6643"
         y="6231"
         id="text334">E02B-17</text>
</g><g
       id="g336" /><g
       id="g338"><rect
         class="V"
         x="6570"
         y="4364"
         width="1975"
         height="527"
         id="rect340" /><text
         class="P"
         x="6643"
         y="4877"
         id="text342">E02B-16</text>
</g><g
       id="g344" /><g
       id="g346" /><g
       id="g348"><rect
         class="V"
         x="58563"
         y="13166"
         width="1354"
         height="527"
         id="rect350" /><text
         class="P"
         x="58636"
         y="13679"
         id="text352">E15-3</text>
</g><g
       id="g354" /><g
       id="g356"><rect
         class="V"
         x="31513"
         y="13803"
         width="762"
         height="634"
         id="rect358" /><text
         class="P"
         x="31656"
         y="14306"
         id="text360">K1</text>
</g><g
       id="g362" /><g
       id="g364" /><g
       id="g366"><rect
         class="V"
         x="6570"
         y="13166"
         width="1975"
         height="527"
         id="rect368" /><text
         class="P"
         x="6643"
         y="13679"
         id="text370">E02B-18</text>
</g><g
       id="g372"><circle
         class="Y"
         cx="31890"
         cy="13472"
         r="270"
         id="circle374" /></g></g></svg>