<?xml version="1.0" encoding="UTF-8" standalone="no"?>
<!-- Created with Inkscape (http://www.inkscape.org/) -->

<svg
   xmlns:dc="http://purl.org/dc/elements/1.1/"
   xmlns:cc="http://creativecommons.org/ns#"
   xmlns:rdf="http://www.w3.org/1999/02/22-rdf-syntax-ns#"
   xmlns:svg="http://www.w3.org/2000/svg"
   xmlns="http://www.w3.org/2000/svg"
   xmlns:sodipodi="http://sodipodi.sourceforge.net/DTD/sodipodi-0.dtd"
   xmlns:inkscape="http://www.inkscape.org/namespaces/inkscape"
   id="svg10572"
   version="1.1"
   inkscape:version="0.91 r13725"
   xml:space="preserve"
   width="301.18124"
   height="230.315"
   viewBox="0 0 301.18124 230.315"
   sodipodi:docname="cgwe.svg"><metadata
     id="metadata10578"><rdf:RDF><cc:Work
         rdf:about=""><dc:format>image/svg+xml</dc:format><dc:type
           rdf:resource="http://purl.org/dc/dcmitype/StillImage" /><dc:title></dc:title></cc:Work></rdf:RDF></metadata><defs
     id="defs10576"><clipPath
       clipPathUnits="userSpaceOnUse"
       id="clipPath10586"><path
         d="m 0,0.001 240.945,0 0,184.251 L 0,184.252 0,0.001 Z"
         id="path10588"
         inkscape:connector-curvature="0" /></clipPath><clipPath
       clipPathUnits="userSpaceOnUse"
       id="clipPath10930"><path
         d="m 0,184.252 240.945,0 L 240.945,0 0,0 0,184.252 Z"
         id="path10932"
         inkscape:connector-curvature="0" /></clipPath></defs><sodipodi:namedview
     pagecolor="#ffffff"
     bordercolor="#666666"
     borderopacity="1"
     objecttolerance="10"
     gridtolerance="10"
     guidetolerance="10"
     inkscape:pageopacity="0"
     inkscape:pageshadow="2"
     inkscape:window-width="640"
     inkscape:window-height="480"
     id="namedview10574"
     showgrid="false"
     inkscape:zoom="4.2072813"
     inkscape:cx="150.59062"
     inkscape:cy="115.1575"
     inkscape:window-x="0"
     inkscape:window-y="0"
     inkscape:window-maximized="1"
     inkscape:current-layer="g10580" /><g
     id="g10580"
     inkscape:groupmode="layer"
     inkscape:label="cgwe"
     transform="matrix(1.25,0,0,-1.25,0,230.315)"><g
       id="g10582"><g
         id="g10584"
         clip-path="url(#clipPath10586)"><g
           id="g10590"
           transform="translate(-4.0825,192.9683)"><path
             d="m 0,0 c 4.769,-23.84 18.755,-60.446 67.549,-65.562 0,0 0.916,1.58 3.863,1.58 2.947,0 4.519,-2.162 4.519,-2.162 0,0 1.769,0.197 4.126,0.197 2.358,0 20.041,-2.947 20.041,-2.947 6.583,-1.325 6.297,-23.507 4.774,-33.122 -1.523,-9.616 -8.969,-38.451 -8.969,-38.451"
             style="fill:none;stroke:#231f20;stroke-width:1.5;stroke-linecap:round;stroke-linejoin:round;stroke-miterlimit:4;stroke-dasharray:none;stroke-opacity:1"
             id="path10592"
             inkscape:connector-curvature="0" /></g><g
           id="g10594"
           transform="translate(-14.7988,89.8867)"><path
             d="m 0,0 c 24.953,-21.81 71.322,-24.56 71.322,-24.56 0,0 0.393,-2.947 2.751,-3.144 2.357,-0.195 5.304,1.965 5.304,1.965 0,0 2.555,-2.16 4.519,-2.16 1.965,0 17.88,-1.77 17.88,-1.77"
             style="fill:none;stroke:#231f20;stroke-width:1.5;stroke-linecap:round;stroke-linejoin:round;stroke-miterlimit:4;stroke-dasharray:none;stroke-opacity:1"
             id="path10596"
             inkscape:connector-curvature="0" /></g><g
           id="g10598"
           transform="translate(63.4663,127.4063)"><path
             d="m 0,0 c 3.077,-0.385 5.238,-2.743 5.238,-6.279 0,-3.537 0.786,-11.004 0.983,-13.361 0.196,-2.358 -0.393,-10.413 -0.786,-12.967 -0.393,-2.555 -2.162,-6.681 -2.162,-11.003 0,-4.323 -5.501,-18.274 -10.216,-18.469"
             style="fill:none;stroke:#231f20;stroke-width:0.5;stroke-linecap:round;stroke-linejoin:round;stroke-miterlimit:4;stroke-dasharray:none;stroke-opacity:1"
             id="path10600"
             inkscape:connector-curvature="0" /></g><g
           id="g10602"
           transform="translate(64.5786,64.1475)"><path
             d="m 0,0 c 3.93,2.947 4.716,4.322 5.305,8.646 0.59,4.323 2.947,10.414 3.537,13.36 0.589,2.947 4.125,15.326 3.929,18.666 -0.196,3.34 -2.75,11.199 -2.75,13.164 0,1.965 -2.751,8.841 -2.751,8.841"
             style="fill:none;stroke:#231f20;stroke-width:0.5;stroke-linecap:round;stroke-linejoin:round;stroke-miterlimit:4;stroke-dasharray:none;stroke-opacity:1"
             id="path10604"
             inkscape:connector-curvature="0" /></g><g
           id="g10606"
           transform="translate(95.9453,69.8135)"><path
             d="M 0,0 C 0,0 -0.678,0.098 -1.154,-0.949 -1.63,-1.996 -6.295,-9.707 -8.58,-9.707"
             style="fill:none;stroke:#231f20;stroke-width:1.5;stroke-linecap:round;stroke-linejoin:round;stroke-miterlimit:4;stroke-dasharray:none;stroke-opacity:1"
             id="path10608"
             inkscape:connector-curvature="0" /></g><g
           id="g10610"
           transform="translate(79.0825,61.0576)"><path
             d="m 0,0 c 0.095,-4.379 2.19,-7.141 4.855,-7.426 2.666,-0.285 4.475,1.334 5.332,2.285 0.856,0.952 4.284,4.19 4.284,4.19"
             style="fill:none;stroke:#231f20;stroke-width:1.5;stroke-linecap:round;stroke-linejoin:round;stroke-miterlimit:4;stroke-dasharray:none;stroke-opacity:1"
             id="path10612"
             inkscape:connector-curvature="0" /></g><g
           id="g10614"
           transform="translate(135.5273,100.5352)"><path
             d="M 0,0 C -0.146,-0.167 -0.525,-0.241 -1.322,-0.158 -3.273,0.044 -12.271,1.08 -12.271,1.08 l -0.666,-2.095 0.286,-5.617"
             style="fill:none;stroke:#231f20;stroke-width:1.5;stroke-linecap:round;stroke-linejoin:round;stroke-miterlimit:4;stroke-dasharray:none;stroke-opacity:1"
             id="path10616"
             inkscape:connector-curvature="0" /></g><g
           id="g10618"
           transform="translate(129.3496,109.9927)"><path
             d="m 0,0 c 0,0 1.715,-0.476 2,-1.143 0.285,-0.666 3.596,-6.636 3.903,-7.235 0.218,-0.423 0.482,-0.844 0.275,-1.08"
             style="fill:none;stroke:#231f20;stroke-width:0.5;stroke-linecap:round;stroke-linejoin:round;stroke-miterlimit:4;stroke-dasharray:none;stroke-opacity:1"
             id="path10620"
             inkscape:connector-curvature="0" /></g><g
           id="g10622"
           transform="translate(129.3994,107.4814)"><path
             d="m 0,0 c 0.465,-0.203 0.965,-0.488 1.107,-0.822 0.224,-0.522 2.3,-4.292 3.339,-6.194"
             style="fill:none;stroke:#231f20;stroke-width:1.5;stroke-linecap:round;stroke-linejoin:round;stroke-miterlimit:4;stroke-dasharray:none;stroke-opacity:1"
             id="path10624"
             inkscape:connector-curvature="0" /></g><g
           id="g10626"
           transform="translate(132.5869,63.5332)"><path
             d="m 0,0 -12.187,1.618 0.572,8.854"
             style="fill:none;stroke:#231f20;stroke-width:1.5;stroke-linecap:round;stroke-linejoin:round;stroke-miterlimit:4;stroke-dasharray:none;stroke-opacity:1"
             id="path10628"
             inkscape:connector-curvature="0" /></g><g
           id="g10630"
           transform="translate(119.4492,74.4814)"><path
             d="M 0,0 28.941,-2.666 30.084,16.66 1.618,19.517 0,0 Z"
             style="fill:none;stroke:#231f20;stroke-width:1.5;stroke-linecap:round;stroke-linejoin:round;stroke-miterlimit:4;stroke-dasharray:none;stroke-opacity:1"
             id="path10632"
             inkscape:connector-curvature="0" /></g><g
           id="g10634"
           transform="translate(94.3149,124.4634)"><path
             d="m 0,0 c 1.047,0.571 2.38,0.667 4.379,0.286 1.999,-0.381 17.041,-3.332 19.898,-3.713 2.856,-0.381 5.998,-9.139 5.998,-19.231"
             style="fill:none;stroke:#231f20;stroke-width:1.5;stroke-linecap:round;stroke-linejoin:round;stroke-miterlimit:4;stroke-dasharray:none;stroke-opacity:1"
             id="path10636"
             inkscape:connector-curvature="0" /></g><g
           id="g10638"
           transform="translate(120.4961,120.1792)"><path
             d="M 0,0 C 4.188,0.857 8.664,-7.616 9.901,-19.041"
             style="fill:none;stroke:#231f20;stroke-width:1.5;stroke-linecap:round;stroke-linejoin:round;stroke-miterlimit:4;stroke-dasharray:none;stroke-opacity:1"
             id="path10640"
             inkscape:connector-curvature="0" /></g><g
           id="g10642"
           transform="translate(128.3027,112.1821)"><path
             d="m 0,0 c 0,0 9.33,-1.142 20.088,-2.189 10.758,-1.048 20.755,1.522 28.942,3.236 8.188,1.714 43.888,9.141 68.356,12.377"
             style="fill:none;stroke:#231f20;stroke-width:1.5;stroke-linecap:round;stroke-linejoin:round;stroke-miterlimit:4;stroke-dasharray:none;stroke-opacity:1"
             id="path10644"
             inkscape:connector-curvature="0" /></g><g
           id="g10646"
           transform="translate(79.4502,144.3433)"><path
             d="m 0,0 c -7.29,3.138 -8.897,7.478 -10.505,16.158 -1.666,9 -5,27.666 -5,27.666"
             style="fill:none;stroke:#231f20;stroke-width:0.25;stroke-linecap:round;stroke-linejoin:round;stroke-miterlimit:4;stroke-dasharray:none;stroke-opacity:1"
             id="path10648"
             inkscape:connector-curvature="0" /></g><g
           id="g10650"
           transform="translate(162.1123,187.8345)"><path
             d="m 0,0 c 0,0 0.166,-12.5 0.166,-26.667 0,-14.166 -13.667,-31.166 -31,-29.333 -17.333,1.833 -42.999,9 -50.999,12.167 -0.285,0.112 -0.561,0.226 -0.829,0.342"
             style="fill:none;stroke:#231f20;stroke-width:0.5;stroke-linecap:round;stroke-linejoin:round;stroke-miterlimit:4;stroke-dasharray:none;stroke-opacity:1"
             id="path10652"
             inkscape:connector-curvature="0" /></g><g
           id="g10654"
           transform="translate(139.7783,132.1675)"><path
             d="M 0,0 0.334,-20.5"
             style="fill:none;stroke:#231f20;stroke-width:0.5;stroke-linecap:round;stroke-linejoin:round;stroke-miterlimit:4;stroke-dasharray:none;stroke-opacity:1"
             id="path10656"
             inkscape:connector-curvature="0" /></g><g
           id="g10658"
           transform="translate(71.2788,128.3345)"><path
             d="M 0,0 1.333,10.167"
             style="fill:none;stroke:#231f20;stroke-width:0.5;stroke-linecap:round;stroke-linejoin:round;stroke-miterlimit:4;stroke-dasharray:none;stroke-opacity:1"
             id="path10660"
             inkscape:connector-curvature="0" /></g><g
           id="g10662"
           transform="translate(71.9453,133.1675)"><path
             d="M 0,0 -11,54"
             style="fill:none;stroke:#231f20;stroke-width:0.5;stroke-linecap:round;stroke-linejoin:round;stroke-miterlimit:4;stroke-dasharray:none;stroke-opacity:1"
             id="path10664"
             inkscape:connector-curvature="0" /></g><g
           id="g10666"
           transform="translate(75.6118,127.8345)"><path
             d="M 0,0 -2,10.667"
             style="fill:none;stroke:#231f20;stroke-width:0.25;stroke-linecap:round;stroke-linejoin:round;stroke-miterlimit:4;stroke-dasharray:none;stroke-opacity:1"
             id="path10668"
             inkscape:connector-curvature="0" /></g><g
           id="g10670"
           transform="translate(142.7793,132.8345)"><path
             d="m 0,0 c 0,0 3,-1 6.5,-2 3.5,-1 9,-12.333 7.833,-20.833"
             style="fill:none;stroke:#231f20;stroke-width:0.5;stroke-linecap:round;stroke-linejoin:round;stroke-miterlimit:4;stroke-dasharray:none;stroke-opacity:1"
             id="path10672"
             inkscape:connector-curvature="0" /></g><g
           id="g10674"
           transform="translate(212.7793,127.8345)"><path
             d="M 0,0 C 1.666,8.333 2.667,14.833 15,17.5 L 31,27"
             style="fill:none;stroke:#231f20;stroke-width:0.5;stroke-linecap:round;stroke-linejoin:round;stroke-miterlimit:4;stroke-dasharray:none;stroke-opacity:1"
             id="path10676"
             inkscape:connector-curvature="0" /></g><g
           id="g10678"
           transform="translate(119.6123,59.501)"><path
             d="m 0,0 c 0,0 19.833,-2 23.833,-2.166 4,-0.168 9.5,-0.834 14.667,0.5 5.167,1.332 88.167,14 88.167,14"
             style="fill:none;stroke:#231f20;stroke-width:1.5;stroke-linecap:round;stroke-linejoin:round;stroke-miterlimit:4;stroke-dasharray:none;stroke-opacity:1"
             id="path10680"
             inkscape:connector-curvature="0" /></g><g
           id="g10682"
           transform="translate(153.6123,102.501)"><path
             d="M 0,0 -4.167,-10.5"
             style="fill:none;stroke:#231f20;stroke-width:1.5;stroke-linecap:round;stroke-linejoin:round;stroke-miterlimit:4;stroke-dasharray:none;stroke-opacity:1"
             id="path10684"
             inkscape:connector-curvature="0" /></g><g
           id="g10686"
           transform="translate(150.1123,92.6675)"><path
             d="M 0,0 6,3.167"
             style="fill:none;stroke:#231f20;stroke-width:1.5;stroke-linecap:round;stroke-linejoin:round;stroke-miterlimit:4;stroke-dasharray:none;stroke-opacity:1"
             id="path10688"
             inkscape:connector-curvature="0" /></g><g
           id="g10690"
           transform="translate(96.7788,125.1675)"><path
             d="m 0,0 c 8.333,-0.333 7.667,-26.833 5.667,-37 -2,-10.167 -8,-34.167 -9.167,-38 -1.167,-3.833 -2.833,-6.167 -3.667,-6.167"
             style="fill:none;stroke:#231f20;stroke-width:0.5;stroke-linecap:round;stroke-linejoin:round;stroke-miterlimit:4;stroke-dasharray:none;stroke-opacity:1"
             id="path10692"
             inkscape:connector-curvature="0" /></g><g
           id="g10694"
           transform="translate(131.9453,108.584)"><path
             d="m 0,0 c 0,0 5,-1.417 5.667,-1.5 0.667,-0.083 3.001,-0.333 3.917,-0.5 0.916,-0.167 4.25,-0.75 5.333,-0.917 1.083,-0.166 2.167,-0.749 3,-0.916 0.833,-0.167 3.333,-1.5 3.75,-1.5 0.417,0 1.083,0.75 1,1.25 -0.083,0.5 -1.166,1.25 -1.833,1.5 -0.667,0.25 -2.75,0.5 -4.167,0.75 -1.417,0.25 -5.999,0.833 -6.333,1.083 -0.334,0.25 -1.5,0.333 -4.5,0.833 -3,0.5 -5.167,0.834 -6.167,0.834"
             style="fill:none;stroke:#231f20;stroke-width:0.5;stroke-linecap:round;stroke-linejoin:round;stroke-miterlimit:4;stroke-dasharray:none;stroke-opacity:1"
             id="path10696"
             inkscape:connector-curvature="0" /></g><g
           id="g10698"
           transform="translate(149.8623,90.834)"><path
             d="M 0,0 8.75,4.5"
             style="fill:none;stroke:#231f20;stroke-width:0.5;stroke-linecap:round;stroke-linejoin:round;stroke-miterlimit:4;stroke-dasharray:none;stroke-opacity:1"
             id="path10700"
             inkscape:connector-curvature="0" /></g><g
           id="g10702"
           transform="translate(155.6953,96.251)"><path
             d="M 0,0 C 0,0 1.083,0.833 2,0.75 2.917,0.667 6.5,-0.834 5.917,-2.417 5.334,-4 3.918,-10.334 3.834,-10.834 3.75,-11.334 3.75,-13.333 3.75,-14 c 0,-0.667 -1.499,-4.167 -1.166,-5.917 0.333,-1.75 -0.834,-7.083 -0.834,-7.667 0,-0.583 -0.667,-3.582 -2,-2.916"
             style="fill:none;stroke:#231f20;stroke-width:0.5;stroke-linecap:round;stroke-linejoin:round;stroke-miterlimit:4;stroke-dasharray:none;stroke-opacity:1"
             id="path10704"
             inkscape:connector-curvature="0" /></g><g
           id="g10706"
           transform="translate(158.7793,95.084)"><path
             d="m 0,0 c 0,0 -1.084,-2.417 -1.417,-4.417 -0.333,-2 -1.167,-6 -1.25,-7.25 -0.083,-1.25 -0.833,-3.416 -0.833,-4.25 0,-0.833 -0.084,-5.582 -0.334,-6.666 -0.25,-1.084 -0.417,-6 -0.25,-6.334"
             style="fill:none;stroke:#231f20;stroke-width:0.5;stroke-linecap:round;stroke-linejoin:round;stroke-miterlimit:4;stroke-dasharray:none;stroke-opacity:1"
             id="path10708"
             inkscape:connector-curvature="0" /></g><g
           id="g10710"
           transform="translate(145.665,68.7822)"><path
             d="M 0,0 C -0.931,-1.104 -0.686,-3.201 1.03,-4.197 L 2.614,-9.781"
             style="fill:none;stroke:#231f20;stroke-width:0.5;stroke-linecap:round;stroke-linejoin:round;stroke-miterlimit:4;stroke-dasharray:none;stroke-opacity:1"
             id="path10712"
             inkscape:connector-curvature="0" /></g><g
           id="g10714"
           transform="translate(155.1123,65.667)"><path
             d="m 0,0 -5.417,1.75 c 0,0 -0.444,1.719 -1.75,2 -1.036,0.225 -1.809,-0.078 -2.28,-0.635"
             style="fill:none;stroke:#231f20;stroke-width:1.5;stroke-linecap:round;stroke-linejoin:round;stroke-miterlimit:4;stroke-dasharray:none;stroke-opacity:1"
             id="path10716"
             inkscape:connector-curvature="0" /></g><g
           id="g10718"
           transform="translate(146.4453,69.417)"><path
             d="M 0,0 C -0.833,-1.332 -0.25,-2.832 0.667,-3.082 L 2.25,-7.5"
             style="fill:none;stroke:#231f20;stroke-width:1.5;stroke-linecap:round;stroke-linejoin:round;stroke-miterlimit:4;stroke-dasharray:none;stroke-opacity:1"
             id="path10720"
             inkscape:connector-curvature="0" /></g><g
           id="g10722"
           transform="translate(121.6123,63.085)"><path
             d="M 0,0 5.833,0.832"
             style="fill:none;stroke:#231f20;stroke-width:1.5;stroke-linecap:round;stroke-linejoin:round;stroke-miterlimit:4;stroke-dasharray:none;stroke-opacity:1"
             id="path10724"
             inkscape:connector-curvature="0" /></g><g
           id="g10726"
           transform="translate(120.7783,60.751)"><path
             d="M 0,0 12.417,2.166"
             style="fill:none;stroke:#231f20;stroke-width:0.5;stroke-linecap:round;stroke-linejoin:round;stroke-miterlimit:4;stroke-dasharray:none;stroke-opacity:1"
             id="path10728"
             inkscape:connector-curvature="0" /></g><g
           id="g10730"
           transform="translate(139.4453,83.084)"><path
             d="M 0,0 C 0,-1.933 -1.567,-3.5 -3.5,-3.5 -5.433,-3.5 -7,-1.933 -7,0 -7,1.933 -5.433,3.5 -3.5,3.5 -1.567,3.5 0,1.933 0,0 Z"
             style="fill:none;stroke:#231f20;stroke-width:0.5;stroke-linecap:round;stroke-linejoin:round;stroke-miterlimit:4;stroke-dasharray:none;stroke-opacity:1"
             id="path10732"
             inkscape:connector-curvature="0" /></g><g
           id="g10734"
           transform="translate(138.2939,83.084)"><path
             d="m 0,0 c 0,-1.298 -1.052,-2.349 -2.349,-2.349 -1.297,0 -2.349,1.051 -2.349,2.349 0,1.298 1.052,2.349 2.349,2.349 C -1.052,2.349 0,1.298 0,0 Z"
             style="fill:none;stroke:#231f20;stroke-width:1.5;stroke-linecap:round;stroke-linejoin:round;stroke-miterlimit:4;stroke-dasharray:none;stroke-opacity:1"
             id="path10736"
             inkscape:connector-curvature="0" /></g><g
           id="g10738"
           transform="translate(121.1953,90.585)"><path
             d="m 0,0 24.167,-2.334 -1,-12.166 -24.417,2"
             style="fill:none;stroke:#231f20;stroke-width:0.5;stroke-linecap:round;stroke-linejoin:round;stroke-miterlimit:4;stroke-dasharray:none;stroke-opacity:1"
             id="path10740"
             inkscape:connector-curvature="0" /></g><g
           id="g10742"
           transform="translate(121.2783,68.167)"><path
             d="M 0,0 23.667,-2"
             style="fill:none;stroke:#231f20;stroke-width:0.5;stroke-linecap:round;stroke-linejoin:round;stroke-miterlimit:4;stroke-dasharray:none;stroke-opacity:1"
             id="path10744"
             inkscape:connector-curvature="0" /></g><g
           id="g10746"
           transform="translate(121.2783,66.501)"><path
             d="M 0,0 23.667,-2"
             style="fill:none;stroke:#231f20;stroke-width:0.5;stroke-linecap:round;stroke-linejoin:round;stroke-miterlimit:4;stroke-dasharray:none;stroke-opacity:1"
             id="path10748"
             inkscape:connector-curvature="0" /></g><g
           id="g10750"
           transform="translate(123.2783,97.501)"><path
             d="M 0,0 26.834,-2.833"
             style="fill:none;stroke:#231f20;stroke-width:0.5;stroke-linecap:round;stroke-linejoin:round;stroke-miterlimit:4;stroke-dasharray:none;stroke-opacity:1"
             id="path10752"
             inkscape:connector-curvature="0" /></g><g
           id="g10754"
           transform="translate(123.1113,95.8345)"><path
             d="M 0,0 26.834,-2.833"
             style="fill:none;stroke:#231f20;stroke-width:0.5;stroke-linecap:round;stroke-linejoin:round;stroke-miterlimit:4;stroke-dasharray:none;stroke-opacity:1"
             id="path10756"
             inkscape:connector-curvature="0" /></g><g
           id="g10758"
           transform="translate(76.9453,144.8345)"><path
             d="M 0,0 4.167,-18"
             style="fill:none;stroke:#231f20;stroke-width:0.25;stroke-linecap:round;stroke-linejoin:round;stroke-miterlimit:4;stroke-dasharray:none;stroke-opacity:1"
             id="path10760"
             inkscape:connector-curvature="0" /></g><g
           id="g10762"
           transform="translate(75.2788,145.6675)"><path
             d="M 0,0 4.167,-17.833"
             style="fill:none;stroke:#231f20;stroke-width:0.25;stroke-linecap:round;stroke-linejoin:round;stroke-miterlimit:4;stroke-dasharray:none;stroke-opacity:1"
             id="path10764"
             inkscape:connector-curvature="0" /></g><g
           id="g10766"
           transform="translate(158.2793,145.501)"><path
             d="M 0,0 88,11.167"
             style="fill:none;stroke:#231f20;stroke-width:0.25;stroke-linecap:round;stroke-linejoin:round;stroke-miterlimit:4;stroke-dasharray:none;stroke-opacity:1"
             id="path10768"
             inkscape:connector-curvature="0" /></g><g
           id="g10770"
           transform="translate(147.7793,136.001)"><path
             d="m 0,0 c 0,0 14.166,-6.333 17.833,-8.667 3.667,-2.333 7.167,-9.666 7,-11.5"
             style="fill:none;stroke:#231f20;stroke-width:0.25;stroke-linecap:round;stroke-linejoin:round;stroke-miterlimit:4;stroke-dasharray:none;stroke-opacity:1"
             id="path10772"
             inkscape:connector-curvature="0" /></g><g
           id="g10774"
           transform="translate(219.2793,142.001)"><path
             d="M 0,0 -0.167,-19.333"
             style="fill:none;stroke:#231f20;stroke-width:0.5;stroke-linecap:round;stroke-linejoin:round;stroke-miterlimit:4;stroke-dasharray:none;stroke-opacity:1"
             id="path10776"
             inkscape:connector-curvature="0" /></g><g
           id="g10778"
           transform="translate(195.833,171.4521)"><path
             d="m 0,0 0,-1.691 2.682,-1.341 0,-4.782 10.672,0 0,4.84 3.381,1.691 0,1.516"
             style="fill:none;stroke:#231f20;stroke-width:0.5;stroke-linecap:round;stroke-linejoin:round;stroke-miterlimit:4;stroke-dasharray:none;stroke-opacity:1"
             id="path10780"
             inkscape:connector-curvature="0" /></g><g
           id="g10782"
           transform="translate(198.6318,168.5361)"><path
             d="M 0,0 10.146,0"
             style="fill:none;stroke:#231f20;stroke-width:0.25;stroke-linecap:round;stroke-linejoin:round;stroke-miterlimit:4;stroke-dasharray:none;stroke-opacity:1"
             id="path10784"
             inkscape:connector-curvature="0" /></g><g
           id="g10786"
           transform="translate(195.9492,170.0527)"><path
             d="M 0,0 16.328,0"
             style="fill:none;stroke:#231f20;stroke-width:0.25;stroke-linecap:round;stroke-linejoin:round;stroke-miterlimit:4;stroke-dasharray:none;stroke-opacity:1"
             id="path10788"
             inkscape:connector-curvature="0" /></g><g
           id="g10790"
           transform="translate(203.2383,168.3613)"><path
             d="M 0,0 0,-4.432"
             style="fill:none;stroke:#231f20;stroke-width:0.25;stroke-linecap:round;stroke-linejoin:round;stroke-miterlimit:4;stroke-dasharray:none;stroke-opacity:1"
             id="path10792"
             inkscape:connector-curvature="0" /></g><g
           id="g10794"
           transform="translate(196.1826,171.9185)"><path
             d="M 0,0 15.745,0"
             style="fill:none;stroke:#231f20;stroke-width:0.25;stroke-linecap:round;stroke-linejoin:round;stroke-miterlimit:4;stroke-dasharray:none;stroke-opacity:1"
             id="path10796"
             inkscape:connector-curvature="0" /></g><g
           id="g10798"
           transform="translate(162.3623,170.751)"><path
             d="m 0,0 c 0,0 22.584,0.083 24.084,0.083 1.5,0 9.083,0.084 9.083,0.084"
             style="fill:none;stroke:#231f20;stroke-width:0.25;stroke-linecap:round;stroke-linejoin:round;stroke-miterlimit:4;stroke-dasharray:none;stroke-opacity:1"
             id="path10800"
             inkscape:connector-curvature="0" /></g><g
           id="g10802"
           transform="translate(213.0293,171.1675)"><path
             d="M 0,0 29.25,0.25"
             style="fill:none;stroke:#231f20;stroke-width:0.25;stroke-linecap:round;stroke-linejoin:round;stroke-miterlimit:4;stroke-dasharray:none;stroke-opacity:1"
             id="path10804"
             inkscape:connector-curvature="0" /></g><g
           id="g10806"
           transform="translate(175.6133,172.251)"><path
             d="m 0,0 c 0,0 16.25,0.417 17.583,0.417 1.333,0 1.001,0.916 7.417,1.333 6.416,0.417 9.834,-0.333 11.75,-0.333 1.916,0 31.666,-0.667 31.666,-0.667"
             style="fill:none;stroke:#231f20;stroke-width:0.25;stroke-linecap:round;stroke-linejoin:round;stroke-miterlimit:4;stroke-dasharray:none;stroke-opacity:1"
             id="path10808"
             inkscape:connector-curvature="0" /></g><g
           id="g10810"
           transform="translate(192.8633,172.751)"><path
             d="M 0,0 0,16.667"
             style="fill:none;stroke:#231f20;stroke-width:0.25;stroke-linecap:round;stroke-linejoin:round;stroke-miterlimit:4;stroke-dasharray:none;stroke-opacity:1"
             id="path10812"
             inkscape:connector-curvature="0" /></g><g
           id="g10814"
           transform="translate(194.2803,173.334)"><path
             d="M 0,0 0,16.667"
             style="fill:none;stroke:#231f20;stroke-width:0.25;stroke-linecap:round;stroke-linejoin:round;stroke-miterlimit:4;stroke-dasharray:none;stroke-opacity:1"
             id="path10816"
             inkscape:connector-curvature="0" /></g><g
           id="g10818"
           transform="translate(210.2803,173.751)"><path
             d="M 0,0 0,16.667"
             style="fill:none;stroke:#231f20;stroke-width:0.25;stroke-linecap:round;stroke-linejoin:round;stroke-miterlimit:4;stroke-dasharray:none;stroke-opacity:1"
             id="path10820"
             inkscape:connector-curvature="0" /></g><g
           id="g10822"
           transform="translate(211.8633,173.751)"><path
             d="M 0,0 0,16.667"
             style="fill:none;stroke:#231f20;stroke-width:0.25;stroke-linecap:round;stroke-linejoin:round;stroke-miterlimit:4;stroke-dasharray:none;stroke-opacity:1"
             id="path10824"
             inkscape:connector-curvature="0" /></g><g
           id="g10826"
           transform="translate(162.5293,181.1675)"><path
             d="m 0,0 c 5.167,-0.083 10.25,0.083 11.167,-1.167 0.917,-1.25 1,-3.083 2.5,-2.833"
             style="fill:none;stroke:#231f20;stroke-width:0.5;stroke-linecap:round;stroke-linejoin:round;stroke-miterlimit:4;stroke-dasharray:none;stroke-opacity:1"
             id="path10828"
             inkscape:connector-curvature="0" /></g><g
           id="g10830"
           transform="translate(162.7793,172.8345)"><path
             d="m 0,0 c 0,0 10.834,0.333 11.917,0.333 1.083,0 1.75,-0.25 1.75,-0.25"
             style="fill:none;stroke:#231f20;stroke-width:0.5;stroke-linecap:round;stroke-linejoin:round;stroke-miterlimit:4;stroke-dasharray:none;stroke-opacity:1"
             id="path10832"
             inkscape:connector-curvature="0" /></g><g
           id="g10834"
           transform="translate(120.8135,64.8926)"><path
             d="m 0,0 c 0,0 -3.787,-15.407 -5.136,-19.067 -1.348,-3.661 -2.248,-4.88 -3.852,-4.816 -1.605,0.065 -3.339,0.257 -5.265,0.449 -1.926,0.193 -2.31,1.156 -2.31,1.156"
             style="fill:none;stroke:#231f20;stroke-width:1.5;stroke-linecap:round;stroke-linejoin:round;stroke-miterlimit:4;stroke-dasharray:none;stroke-opacity:1"
             id="path10836"
             inkscape:connector-curvature="0" /></g><g
           id="g10838"
           transform="translate(95.3257,43.835)"><path
             d="M 0,0 11.556,-1.221"
             style="fill:none;stroke:#231f20;stroke-width:1.5;stroke-linecap:round;stroke-linejoin:round;stroke-miterlimit:4;stroke-dasharray:none;stroke-opacity:1"
             id="path10840"
             inkscape:connector-curvature="0" /></g><g
           id="g10842"
           transform="translate(112.5322,57.1885)"><path
             d="m 0,0 c 1.091,4.302 -1.927,6.549 -5.394,6.806 -3.466,0.256 -6.548,-2.247 -7.447,-5.136 -0.899,-2.89 -1.926,-7.063 -2.889,-10.401 -0.963,-3.339 -1.797,-5.843 -2.953,-5.522 -1.156,0.321 -3.082,0.514 -3.917,0.835 -0.834,0.321 -1.219,1.541 -1.219,1.541"
             style="fill:none;stroke:#231f20;stroke-width:1.5;stroke-linecap:round;stroke-linejoin:round;stroke-miterlimit:4;stroke-dasharray:none;stroke-opacity:1"
             id="path10844"
             inkscape:connector-curvature="0" /></g><g
           id="g10846"
           transform="translate(89.0981,44.3477)"><path
             d="m 0,0 c 0,0 -0.834,-1.476 -2.119,-1.026 -1.284,0.449 -5.393,1.54 -7.062,2.053 -1.67,0.514 -0.064,10.915 -0.064,10.915"
             style="fill:none;stroke:#231f20;stroke-width:1.5;stroke-linecap:round;stroke-linejoin:round;stroke-miterlimit:4;stroke-dasharray:none;stroke-opacity:1"
             id="path10848"
             inkscape:connector-curvature="0" /></g><g
           id="g10850"
           transform="translate(97.123,43.3848)"><path
             d="M 0,0 C -0.064,-0.577 0.129,-1.091 1.22,-1.348 2.312,-1.604 7.384,-1.477 7.384,-1.477"
             style="fill:none;stroke:#231f20;stroke-width:1.5;stroke-linecap:round;stroke-linejoin:round;stroke-miterlimit:4;stroke-dasharray:none;stroke-opacity:1"
             id="path10852"
             inkscape:connector-curvature="0" /></g><g
           id="g10854"
           transform="translate(90.4663,57.0225)"><path
             d="m 0,0 c 0.444,-0.998 0.528,-3.189 0.149,-5.672 -0.504,-3.307 -1.64,-5.879 -2.536,-5.742"
             style="fill:none;stroke:#231f20;stroke-width:0.5;stroke-linecap:round;stroke-linejoin:round;stroke-miterlimit:4;stroke-dasharray:none;stroke-opacity:1"
             id="path10856"
             inkscape:connector-curvature="0" /></g><g
           id="g10858"
           transform="translate(88.0791,45.6084)"><path
             d="M 0,0 C -0.896,0.138 -1.213,2.93 -0.709,6.238 -0.556,7.242 -0.345,8.18 -0.1,8.993"
             style="fill:none;stroke:#231f20;stroke-width:1.5;stroke-linecap:round;stroke-linejoin:round;stroke-miterlimit:4;stroke-dasharray:none;stroke-opacity:1"
             id="path10860"
             inkscape:connector-curvature="0" /></g><g
           id="g10862"
           transform="translate(84.0591,53.4258)"><path
             d="m 0,0 c -0.04,-0.465 -0.097,-0.948 -0.172,-1.444 -0.505,-3.308 -1.64,-5.879 -2.536,-5.743 -0.896,0.138 -1.214,2.93 -0.709,6.239 0.115,0.759 0.264,1.478 0.436,2.136"
             style="fill:none;stroke:#231f20;stroke-width:0.5;stroke-linecap:round;stroke-linejoin:round;stroke-miterlimit:4;stroke-dasharray:none;stroke-opacity:1"
             id="path10864"
             inkscape:connector-curvature="0" /></g><g
           id="g10866"
           transform="translate(94.9453,68.751)"><path
             d="M 0,0 C -0.562,-1.687 -0.062,-3.563 -0.062,-3.563"
             style="fill:none;stroke:#231f20;stroke-width:0.5;stroke-linecap:round;stroke-linejoin:round;stroke-miterlimit:4;stroke-dasharray:none;stroke-opacity:1"
             id="path10868"
             inkscape:connector-curvature="0" /></g><g
           id="g10870"
           transform="translate(109.6719,44.4033)"><path
             d="m 0,0 c -0.606,-0.181 -1.249,-0.277 -1.914,-0.277 -3.693,0 -6.688,2.994 -6.688,6.687 0,3.694 2.995,6.688 6.688,6.688 0.786,0 1.541,-0.136 2.242,-0.385"
             style="fill:none;stroke:#231f20;stroke-width:0.5;stroke-linecap:round;stroke-linejoin:round;stroke-miterlimit:4;stroke-dasharray:none;stroke-opacity:1"
             id="path10872"
             inkscape:connector-curvature="0" /></g><g
           id="g10874"
           transform="translate(108.373,44.2715)"><path
             d="m 0,0 c -1.001,-0.512 -2.135,-0.8 -3.336,-0.8 -4.055,0 -7.342,3.287 -7.342,7.342 0,4.055 3.287,7.342 7.342,7.342 0.981,0 1.915,-0.192 2.77,-0.54"
             style="fill:none;stroke:#231f20;stroke-width:0.5;stroke-linecap:round;stroke-linejoin:round;stroke-miterlimit:4;stroke-dasharray:none;stroke-opacity:1"
             id="path10876"
             inkscape:connector-curvature="0" /></g><g
           id="g10878"
           transform="translate(105.7109,44.6631)"><path
             d="M 0,0 -3.033,6.021 0.08,12.199"
             style="fill:none;stroke:#231f20;stroke-width:0.5;stroke-linecap:round;stroke-linejoin:round;stroke-miterlimit:4;stroke-dasharray:none;stroke-opacity:1"
             id="path10880"
             inkscape:connector-curvature="0" /></g><g
           id="g10882"
           transform="translate(104.1953,56.8623)"><path
             d="m 0,0 7.822,0 3.116,-6.179 -3.116,-6.179 -6.226,0 -1.783,0.159"
             style="fill:none;stroke:#231f20;stroke-width:1.5;stroke-linecap:round;stroke-linejoin:round;stroke-miterlimit:4;stroke-dasharray:none;stroke-opacity:1"
             id="path10884"
             inkscape:connector-curvature="0" /></g><g
           id="g10886"
           transform="translate(104.166,44.5039)"><path
             d="M 0,0 -3.113,6.18 0,12.358"
             style="fill:none;stroke:#231f20;stroke-width:0.5;stroke-linecap:round;stroke-linejoin:round;stroke-miterlimit:4;stroke-dasharray:none;stroke-opacity:1"
             id="path10888"
             inkscape:connector-curvature="0" /></g><g
           id="g10890"
           transform="translate(101.0527,50.6836)"><path
             d="M 0,0 1.625,0"
             style="fill:none;stroke:#231f20;stroke-width:0.5;stroke-linecap:round;stroke-linejoin:round;stroke-miterlimit:4;stroke-dasharray:none;stroke-opacity:1"
             id="path10892"
             inkscape:connector-curvature="0" /></g><g
           id="g10894"
           transform="translate(14.9453,73.334)"><path
             d="M 0,0 -18,-5.667"
             style="fill:none;stroke:#231f20;stroke-width:0.5;stroke-linecap:round;stroke-linejoin:round;stroke-miterlimit:4;stroke-dasharray:none;stroke-opacity:1"
             id="path10896"
             inkscape:connector-curvature="0" /></g><g
           id="g10898"
           transform="translate(38.9453,133.334)"><path
             d="M 0,0 -2.333,38.333"
             style="fill:none;stroke:#231f20;stroke-width:0.5;stroke-linecap:round;stroke-linejoin:round;stroke-miterlimit:4;stroke-dasharray:none;stroke-opacity:1"
             id="path10900"
             inkscape:connector-curvature="0" /></g><g
           id="g10902"
           transform="translate(37.2788,169.334)"><path
             d="M 0,0 C 0,0 20.333,2.333 26,5"
             style="fill:none;stroke:#231f20;stroke-width:0.5;stroke-linecap:round;stroke-linejoin:round;stroke-miterlimit:4;stroke-dasharray:none;stroke-opacity:1"
             id="path10904"
             inkscape:connector-curvature="0" /></g><g
           id="g10906"
           transform="translate(1.9453,173.334)"><path
             d="M 0,0 C 27,2.333 58.667,2.667 60,1.333"
             style="fill:none;stroke:#231f20;stroke-width:0.25;stroke-linecap:round;stroke-linejoin:round;stroke-miterlimit:4;stroke-dasharray:none;stroke-opacity:1"
             id="path10908"
             inkscape:connector-curvature="0" /></g><g
           id="g10910"
           transform="translate(3.9453,170.001)"><path
             d="M 0,0 30.333,2 31.667,1.667"
             style="fill:none;stroke:#231f20;stroke-width:0.25;stroke-linecap:round;stroke-linejoin:round;stroke-miterlimit:4;stroke-dasharray:none;stroke-opacity:1"
             id="path10912"
             inkscape:connector-curvature="0" /></g><g
           id="g10914"
           transform="translate(33.9453,171.001)"><path
             d="M 0,0 2.333,-34.667"
             style="fill:none;stroke:#231f20;stroke-width:0.25;stroke-linecap:round;stroke-linejoin:round;stroke-miterlimit:4;stroke-dasharray:none;stroke-opacity:1"
             id="path10916"
             inkscape:connector-curvature="0" /></g><g
           id="g10918"
           transform="translate(-0.0547,181.334)"><path
             d="M 0,0 C 35,2 58.667,2 62,1.333"
             style="fill:none;stroke:#231f20;stroke-width:0.5;stroke-linecap:round;stroke-linejoin:round;stroke-miterlimit:4;stroke-dasharray:none;stroke-opacity:1"
             id="path10920"
             inkscape:connector-curvature="0" /></g></g></g><g
       id="g10922"
       transform="translate(107.834,50.667)"><path
         d="M 0,0 8.445,-28.333"
         style="fill:none;stroke:#ffffff;stroke-width:3;stroke-linecap:round;stroke-linejoin:round;stroke-miterlimit:4;stroke-dasharray:none;stroke-opacity:1"
         id="path10924"
         inkscape:connector-curvature="0" /></g><g
       id="g10926"><g
         id="g10928"
         clip-path="url(#clipPath10930)"><g
           id="g10934"
           transform="translate(107.7119,49.4346)"><path
             d="M 0,0 C 0.681,0 1.233,0.551 1.233,1.232 1.233,1.914 0.681,2.467 0,2.467 -0.681,2.467 -1.233,1.914 -1.233,1.232 -1.233,0.551 -0.681,0 0,0"
             style="fill:#231f20;fill-opacity:1;fill-rule:nonzero;stroke:none"
             id="path10936"
             inkscape:connector-curvature="0" /></g><g
           id="g10938"
           transform="translate(107.7119,49.4346)"><path
             d="M 0,0 C 0.681,0 1.233,0.551 1.233,1.232 1.233,1.914 0.681,2.467 0,2.467 -0.681,2.467 -1.233,1.914 -1.233,1.232 -1.233,0.551 -0.681,0 0,0 Z"
             style="fill:none;stroke:#ffffff;stroke-width:1;stroke-linecap:butt;stroke-linejoin:miter;stroke-miterlimit:4;stroke-dasharray:none;stroke-opacity:1"
             id="path10940"
             inkscape:connector-curvature="0" /></g><g
           id="g10942"
           transform="translate(107.834,50.667)"><path
             d="M 0,0 8.445,-28.333"
             style="fill:none;stroke:#231f20;stroke-width:0.5;stroke-linecap:round;stroke-linejoin:round;stroke-miterlimit:4;stroke-dasharray:none;stroke-opacity:1"
             id="path10944"
             inkscape:connector-curvature="0" /></g><g
           id="g10946"
           transform="translate(186.9678,65.334)"><path
             d="M 0,0 11.978,-27"
             style="fill:none;stroke:#ffffff;stroke-width:3;stroke-linecap:round;stroke-linejoin:round;stroke-miterlimit:4;stroke-dasharray:none;stroke-opacity:1"
             id="path10948"
             inkscape:connector-curvature="0" /></g><g
           id="g10950"
           transform="translate(186.8457,64.1006)"><path
             d="M 0,0 C 0.681,0 1.233,0.551 1.233,1.233 1.233,1.915 0.681,2.467 0,2.467 -0.681,2.467 -1.233,1.915 -1.233,1.233 -1.233,0.551 -0.681,0 0,0"
             style="fill:#231f20;fill-opacity:1;fill-rule:nonzero;stroke:none"
             id="path10952"
             inkscape:connector-curvature="0" /></g><g
           id="g10954"
           transform="translate(186.8457,64.1006)"><path
             d="M 0,0 C 0.681,0 1.233,0.551 1.233,1.233 1.233,1.915 0.681,2.467 0,2.467 -0.681,2.467 -1.233,1.915 -1.233,1.233 -1.233,0.551 -0.681,0 0,0 Z"
             style="fill:none;stroke:#ffffff;stroke-width:1;stroke-linecap:butt;stroke-linejoin:miter;stroke-miterlimit:4;stroke-dasharray:none;stroke-opacity:1"
             id="path10956"
             inkscape:connector-curvature="0" /></g><g
           id="g10958"
           transform="translate(186.9678,65.334)"><path
             d="M 0,0 11.978,-27"
             style="fill:none;stroke:#231f20;stroke-width:0.5;stroke-linecap:round;stroke-linejoin:round;stroke-miterlimit:4;stroke-dasharray:none;stroke-opacity:1"
             id="path10960"
             inkscape:connector-curvature="0" /></g><g
           id="g10962"
           transform="translate(42.6123,70.667)"><path
             d="M 0,0 -9.333,-32.666"
             style="fill:none;stroke:#ffffff;stroke-width:3;stroke-linecap:round;stroke-linejoin:round;stroke-miterlimit:4;stroke-dasharray:none;stroke-opacity:1"
             id="path10964"
             inkscape:connector-curvature="0" /></g><g
           id="g10966"
           transform="translate(42.4902,69.4346)"><path
             d="M 0,0 C 0.681,0 1.233,0.551 1.233,1.232 1.233,1.914 0.681,2.467 0,2.467 -0.681,2.467 -1.233,1.914 -1.233,1.232 -1.233,0.551 -0.681,0 0,0"
             style="fill:#231f20;fill-opacity:1;fill-rule:nonzero;stroke:none"
             id="path10968"
             inkscape:connector-curvature="0" /></g><g
           id="g10970"
           transform="translate(42.4902,69.4346)"><path
             d="M 0,0 C 0.681,0 1.233,0.551 1.233,1.232 1.233,1.914 0.681,2.467 0,2.467 -0.681,2.467 -1.233,1.914 -1.233,1.232 -1.233,0.551 -0.681,0 0,0 Z"
             style="fill:none;stroke:#ffffff;stroke-width:1;stroke-linecap:butt;stroke-linejoin:miter;stroke-miterlimit:4;stroke-dasharray:none;stroke-opacity:1"
             id="path10972"
             inkscape:connector-curvature="0" /></g><g
           id="g10974"
           transform="translate(42.6123,70.667)"><path
             d="M 0,0 -9.333,-32.666"
             style="fill:none;stroke:#231f20;stroke-width:0.5;stroke-linecap:round;stroke-linejoin:round;stroke-miterlimit:4;stroke-dasharray:none;stroke-opacity:1"
             id="path10976"
             inkscape:connector-curvature="0" /></g></g></g><text
       transform="matrix(1,0,0,-1,28.2788,26.8389)"
       style="font-variant:normal;font-weight:bold;font-stretch:normal;font-size:12px;font-family:'Swiss 721 SWA';-inkscape-font-specification:Helvetica-Bold;writing-mode:lr-tb;fill:#231f20;fill-opacity:1;fill-rule:nonzero;stroke:none"
       id="text10978"><tspan
         x="0"
         y="0"
         id="tspan10980">2</tspan><tspan
         x="86.664001"
         y="15.672"
         id="tspan10982">1</tspan><tspan
         x="168.996"
         y="0"
         id="tspan10984">3</tspan></text>
<text
       transform="matrix(1,0,0,-1,3.2812,2.9404)"
       style="font-variant:normal;font-weight:normal;font-stretch:normal;font-size:5px;font-family:'Swiss 721 SWA';-inkscape-font-specification:Helvetica;writing-mode:lr-tb;fill:#231f20;fill-opacity:1;fill-rule:nonzero;stroke:none"
       id="text10986"><tspan
         x="0 2.5 5.2800002 8.8900003"
         y="0"
         sodipodi:role="line"
         id="tspan10988">cgwe</tspan></text>
</g></svg>