<?xml version="1.0" encoding="UTF-8" standalone="no"?>
<!-- Created with Inkscape (http://www.inkscape.org/) -->

<svg
   xmlns:dc="http://purl.org/dc/elements/1.1/"
   xmlns:cc="http://creativecommons.org/ns#"
   xmlns:rdf="http://www.w3.org/1999/02/22-rdf-syntax-ns#"
   xmlns:svg="http://www.w3.org/2000/svg"
   xmlns="http://www.w3.org/2000/svg"
   xmlns:sodipodi="http://sodipodi.sourceforge.net/DTD/sodipodi-0.dtd"
   xmlns:inkscape="http://www.inkscape.org/namespaces/inkscape"
   id="svg14856"
   version="1.1"
   inkscape:version="0.91 r13725"
   xml:space="preserve"
   width="301.18124"
   height="230.315"
   viewBox="0 0 301.18124 230.315"
   sodipodi:docname="Balance throttles_1.svg"><metadata
     id="metadata14862"><rdf:RDF><cc:Work
         rdf:about=""><dc:format>image/svg+xml</dc:format><dc:type
           rdf:resource="http://purl.org/dc/dcmitype/StillImage" /><dc:title></dc:title></cc:Work></rdf:RDF></metadata><defs
     id="defs14860"><radialGradient
       fx="0"
       fy="0"
       cx="0"
       cy="0"
       r="1"
       gradientUnits="userSpaceOnUse"
       gradientTransform="matrix(5.8962402,0,0,-5.8962402,24.768555,25.369141)"
       spreadMethod="pad"
       id="radialGradient14922"><stop
         style="stop-opacity:1;stop-color:#f6f7d4"
         offset="0"
         id="stop14924" /><stop
         style="stop-opacity:1;stop-color:#f6f7d4"
         offset="0.331461"
         id="stop14926" /><stop
         style="stop-opacity:1;stop-color:#f6f7d4"
         offset="0.44780788"
         id="stop14928" /><stop
         style="stop-opacity:1;stop-color:#f59338"
         offset="1"
         id="stop14930" /></radialGradient><clipPath
       clipPathUnits="userSpaceOnUse"
       id="clipPath14938"><path
         d="m 18.85,25.368 c 0,-3.268 2.65,-5.918 5.919,-5.918 l 0,0 c 3.268,0 5.917,2.65 5.917,5.918 l 0,0 c 0,3.269 -2.649,5.918 -5.917,5.918 l 0,0 c -3.269,0 -5.919,-2.649 -5.919,-5.918"
         id="path14940"
         inkscape:connector-curvature="0" /></clipPath><clipPath
       clipPathUnits="userSpaceOnUse"
       id="clipPath14946"><path
         d="m 18.6484,31.4619 12.2149,0 0,-12.2012 -12.2149,0 0,12.2012 z"
         id="path14948"
         inkscape:connector-curvature="0" /></clipPath><clipPath
       clipPathUnits="userSpaceOnUse"
       id="clipPath14954"><path
         d="m 30.836161,31.449219 0,-12.188198 -12.178598,0 0,12.188198 12.178598,0 z"
         id="path14956"
         inkscape:connector-curvature="0" /></clipPath><linearGradient
       x1="0"
       y1="0"
       x2="1"
       y2="0"
       gradientUnits="userSpaceOnUse"
       gradientTransform="matrix(0,-4.1205997,-4.1205997,0,24.751642,31.449219)"
       spreadMethod="pad"
       id="linearGradient14958"><stop
         style="stop-opacity:1;stop-color:#ffffff"
         offset="0"
         id="stop14960" /><stop
         style="stop-opacity:1;stop-color:#292929"
         offset="1"
         id="stop14962" /></linearGradient><clipPath
       clipPathUnits="userSpaceOnUse"
       id="clipPath14984"><path
         d="m 0,184.252 240.945,0 L 240.945,0 0,0 0,184.252 Z"
         id="path14986"
         inkscape:connector-curvature="0" /></clipPath></defs><sodipodi:namedview
     pagecolor="#ffffff"
     bordercolor="#666666"
     borderopacity="1"
     objecttolerance="10"
     gridtolerance="10"
     guidetolerance="10"
     inkscape:pageopacity="0"
     inkscape:pageshadow="2"
     inkscape:window-width="640"
     inkscape:window-height="480"
     id="namedview14858"
     showgrid="false"
     inkscape:zoom="3.3779823"
     inkscape:cx="150.59062"
     inkscape:cy="115.1575"
     inkscape:window-x="0"
     inkscape:window-y="0"
     inkscape:window-maximized="1"
     inkscape:current-layer="g14864" /><g
     id="g14864"
     inkscape:groupmode="layer"
     inkscape:label="Balance throttles_1"
     transform="matrix(1.25,0,0,-1.25,0,230.315)"><text
       transform="matrix(1,0,0,-1,3.8223,161.9482)"
       style="font-variant:normal;font-weight:normal;font-stretch:normal;font-size:7.78929996px;font-family:Arial;-inkscape-font-specification:ArialMT;writing-mode:lr-tb;fill:#373535;fill-opacity:1;fill-rule:nonzero;stroke:none"
       id="text14866"><tspan
         x="0 5.1954632 9.5263138 11.255539 15.58639 19.481039 21.646465 23.671682 28.140404 32.471256 36.802105 41.132957 43.296825 48.492287 51.086124 55.416973 59.311626 63.642475 67.973328 72.304176 74.898018"
         y="0"
         sodipodi:role="line"
         id="tspan14868">Adjust Tune Procedure</tspan></text>
<path
       d="m 9.67,154.157 226.261,0 0,-140.375 -226.261,0 0,140.375 z"
       style="fill:none;stroke:#373535;stroke-width:0.25;stroke-linecap:round;stroke-linejoin:round;stroke-miterlimit:4;stroke-dasharray:none;stroke-opacity:1"
       id="path14870"
       inkscape:connector-curvature="0" /><g
       id="g14872"
       transform="translate(235.9307,37.1494)"><path
         d="M 0,0 -226.262,0"
         style="fill:none;stroke:#373535;stroke-width:0.25;stroke-linecap:round;stroke-linejoin:round;stroke-miterlimit:4;stroke-dasharray:none;stroke-opacity:1"
         id="path14874"
         inkscape:connector-curvature="0" /></g><text
       transform="matrix(1,0,0,-1,21.5391,144.144)"
       style="font-variant:normal;font-weight:normal;font-stretch:normal;font-size:6.67659998px;font-family:Arial;-inkscape-font-specification:ArialMT;writing-mode:lr-tb;fill:#373535;fill-opacity:1;fill-rule:nonzero;stroke:none"
       id="text14876"><tspan
         x="0 4.4532924 8.1654816 9.647687 13.359877 16.698177 18.554272 20.410366 22.26646 25.978651 29.69084 31.546934 33.40303 37.115219 39.338528 43.050716 44.906811 46.762905 48.245113 51.957302 53.813396 57.525585 61.237774 62.719982 66.432167 70.144363 73.482658 77.194847 79.050941 82.76313 86.101433 87.957527 91.669716 95.381905 98.720207 102.05851 104.28181 105.76402 109.47621 113.1884 116.90059 118.75668 120.23889 123.95108 125.80717 127.66327 131.37546 135.08765 136.94374 140.28204 143.99423 146.21754 149.55585 151.03804 154.37634 158.08853 159.94463 165.50624 169.21843 172.93062 176.64281 180.355 181.8372 183.6933 187.40549 191.11768 192.97377 194.45598 195.93819"
         y="0"
         sodipodi:role="line"
         id="tspan14878">Adjust the throttle balance as described in the service manual until </tspan><tspan
         x="0 3.7121897 7.4243793 8.9065847 12.618774 16.330963 19.669264 23.381453"
         y="8.01192"
         sodipodi:role="line"
         id="tspan14880">balanced</tspan><tspan
         x="0 4.4532924 6.6766 10.388789 13.72709 17.06539 18.921484 22.259785 25.971973 29.684164 33.022465 36.734653 38.216858 40.072952 41.929047 45.641239 47.497334 50.835632 54.547821 58.26001 61.598312 65.310501 66.792709 68.648804 70.504898 74.217087 77.929276 79.78537 83.497559 87.209747 88.691956 92.404144 95.742447 97.598541 103.16015 106.87234 110.58453 112.44062 114.29671 118.0089 120.23222 123.9444 127.2827 130.99489 134.33319"
         y="16.02384"
         sodipodi:role="line"
         id="tspan14882">Press cancel to cancel the adjustment process</tspan><tspan
         x="0 4.4532924 6.6766 10.388789 13.72709 17.06539 18.921484 24.115879 28.569172 30.425266 32.281361 35.993549 37.849644 39.705742 41.187946 44.900135 46.382339 49.720642"
         y="24.035761"
         sodipodi:role="line"
         id="tspan14884">Press OK to finish</tspan></text>
<text
       transform="matrix(1,0,0,-1,21.3906,104.0098)"
       style="font-variant:normal;font-weight:normal;font-stretch:normal;font-size:7.78929996px;font-family:Arial;-inkscape-font-specification:ArialMT;writing-mode:lr-tb;fill:#373535;fill-opacity:1;fill-rule:nonzero;stroke:none"
       id="text14886"><tspan
         x="0 4.7592621 9.0901127 11.68395 16.014801 18.180225 20.345652 22.074877 26.405727 28.571152 33.766617 35.932041 40.26289 42.428318 46.759167 50.653816"
         y="0"
         sodipodi:role="line"
         id="tspan14888">Throttle Status:</tspan><tspan
         x="0.14799669 5.7718711 9.6665211 11.395746 13.12497 17.455822 21.786673 26.117523 28.711359 30.876785 35.207638 37.373062 43.861549 49.057011 54.111488 56.276913 61.472378 64.066216 68.397064 72.291718 76.186363 80.517212 83.111053 87.441902"
         y="19.286306"
         sodipodi:role="line"
         id="tspan14890">Cylinder 1 MAP Pressure:</tspan><tspan
         x="0.14799669 5.7718711 9.6665211 11.395746 13.12497 17.455822 21.786673 26.117523 28.711359 30.876785 35.207638 37.373062 43.861549 49.057011 54.111488 56.276913 61.472378 64.066216 68.397064 72.291718 76.186363 80.517212 83.111053 87.441902"
         y="34.420918"
         sodipodi:role="line"
         id="tspan14892">Cylinder 2 MAP Pressure:</tspan><tspan
         x="0.14799669 5.7718711 9.6665211 11.395746 13.12497 17.455822 21.786673 26.117523 28.711359 30.876785 35.207638 37.373062 43.861549 49.057011 54.111488 56.276913 61.472378 64.066216 68.397064 72.291718 76.186363 80.517212 83.111053 87.441902"
         y="49.999516"
         sodipodi:role="line"
         id="tspan14894">Cylinder 3 MAP Pressure:</tspan></text>
<text
       transform="matrix(1,0,0,-1,37.4883,23.2236)"
       style="font-variant:normal;font-weight:normal;font-stretch:normal;font-size:6.67659998px;font-family:Arial;-inkscape-font-specification:ArialMT;writing-mode:lr-tb;fill:#373535;fill-opacity:1;fill-rule:nonzero;stroke:none"
       id="text14896"><tspan
         x="0 4.4532924 8.1654816 9.647687 13.359877 16.698177 18.554272 20.036476 23.748667 27.460855 29.31695 33.02914 36.741329 38.964638 42.676826 48.238434 51.950626 53.806721 57.518909 59.742218 61.598312 63.821621 65.677711 70.131004 73.843193 75.325401 79.03759 82.749779 86.088081 89.80027 91.533516 95.612915 99.325104 101.54842 105.2606 107.1167 108.97279 110.455 114.16719"
         y="0"
         sodipodi:role="line"
         id="tspan14898">Adjusting parameter - Balance Throttles</tspan></text>
<text
       transform="matrix(1,0,0,-1,156.5908,103.6758)"
       style="font-variant:normal;font-weight:normal;font-stretch:normal;font-size:7.78929996px;font-family:Arial;-inkscape-font-specification:ArialMT;writing-mode:lr-tb;fill:#373535;fill-opacity:1;fill-rule:nonzero;stroke:none"
       id="text14900"><tspan
         x="0 4.7592621 9.0901127 11.68395 16.014801 18.180225 20.345652 22.074877 26.405727 30.300377 32.465801 37.661266 41.992115 43.72134 48.052193 52.383041 56.277691 60.608543"
         y="0"
         sodipodi:role="line"
         id="tspan14902">Throttles Balanced</tspan><tspan
         x="24.949127 29.279978 33.610828 37.941681 40.107105 46.595592 53.08408 58.707954"
         y="49.999516"
         sodipodi:role="line"
         id="tspan14904">465 mmHg</tspan><tspan
         x="26.016262 30.347113 34.677963 39.008816 41.17424 47.662727 54.151215 59.775089"
         y="19.667982"
         sodipodi:role="line"
         id="tspan14906">465 mmHg</tspan><tspan
         x="25.619007 29.949858 34.280708 38.611561 40.776985 47.265472 53.75396 59.377834"
         y="35.332264"
         sodipodi:role="line"
         id="tspan14908">464 mmHg</tspan></text>
<g
       id="g14910"><g
         id="g14912"><g
           id="g14918"><g
             id="g14920"><path
               d="m 18.873,25.368 c 0,-3.256 2.639,-5.896 5.896,-5.896 l 0,0 c 3.256,0 5.896,2.64 5.896,5.896 l 0,0 c 0,3.256 -2.64,5.896 -5.896,5.896 l 0,0 c -3.257,0 -5.896,-2.64 -5.896,-5.896"
               style="fill:url(#radialGradient14922);stroke:none"
               id="path14932"
               inkscape:connector-curvature="0" /></g></g></g></g><g
       id="g14934"><g
         id="g14936"
         clip-path="url(#clipPath14938)"><g
           id="g14942"><g
             id="g14944" /><g
             id="g14964"><g
               clip-path="url(#clipPath14946)"
               id="g14966"><g
                 id="g14968"><g
                   id="g14970"><g
                     id="g14972"><g
                       id="g14974"><g
                         clip-path="url(#clipPath14954)"
                         id="g14976"><path
                           d="m 18.658,19.261 12.178,0 0,12.189 -12.178,0 0,-12.189 z"
                           style="fill:url(#linearGradient14958);stroke:none"
                           id="path14978"
                           inkscape:connector-curvature="0" /></g></g></g></g></g></g></g></g></g></g><g
       id="g14980"><g
         id="g14982"
         clip-path="url(#clipPath14984)"><g
           id="g14988"
           transform="translate(30.6865,25.3682)"><path
             d="m 0,0 c 0,-3.269 -2.649,-5.918 -5.918,-5.918 -3.269,0 -5.918,2.649 -5.918,5.918 0,3.269 2.649,5.918 5.918,5.918 C -2.649,5.918 0,3.269 0,0 Z"
             style="fill:none;stroke:#373536;stroke-width:0.25;stroke-linecap:round;stroke-linejoin:round;stroke-miterlimit:4;stroke-dasharray:none;stroke-opacity:1"
             id="path14990"
             inkscape:connector-curvature="0" /></g></g></g></g></svg>