<?xml version="1.0" encoding="UTF-8" standalone="no"?>
<!-- Created with Inkscape (http://www.inkscape.org/) -->

<svg
   xmlns:dc="http://purl.org/dc/elements/1.1/"
   xmlns:cc="http://creativecommons.org/ns#"
   xmlns:rdf="http://www.w3.org/1999/02/22-rdf-syntax-ns#"
   xmlns:svg="http://www.w3.org/2000/svg"
   xmlns="http://www.w3.org/2000/svg"
   xmlns:sodipodi="http://sodipodi.sourceforge.net/DTD/sodipodi-0.dtd"
   xmlns:inkscape="http://www.inkscape.org/namespaces/inkscape"
   id="svg3336"
   version="1.1"
   inkscape:version="0.91 r13725"
   xml:space="preserve"
   width="301.18124"
   height="230.315"
   viewBox="0 0 301.18124 230.315"
   sodipodi:docname="T3880640.svg"><metadata
     id="metadata3342"><rdf:RDF><cc:Work
         rdf:about=""><dc:format>image/svg+xml</dc:format><dc:type
           rdf:resource="http://purl.org/dc/dcmitype/StillImage" /><dc:title></dc:title></cc:Work></rdf:RDF></metadata><defs
     id="defs3340"><clipPath
       clipPathUnits="userSpaceOnUse"
       id="clipPath3350"><path
         d="m 0,184.252 240.945,0 L 240.945,0 0,0 0,184.252 Z"
         id="path3352"
         inkscape:connector-curvature="0" /></clipPath></defs><sodipodi:namedview
     pagecolor="#ffffff"
     bordercolor="#666666"
     borderopacity="1"
     objecttolerance="10"
     gridtolerance="10"
     guidetolerance="10"
     inkscape:pageopacity="0"
     inkscape:pageshadow="2"
     inkscape:window-width="640"
     inkscape:window-height="480"
     id="namedview3338"
     showgrid="false"
     inkscape:zoom="4.2072813"
     inkscape:cx="150.59062"
     inkscape:cy="115.1575"
     inkscape:window-x="0"
     inkscape:window-y="0"
     inkscape:window-maximized="1"
     inkscape:current-layer="g3344" /><g
     id="g3344"
     inkscape:groupmode="layer"
     inkscape:label="T3880640"
     transform="matrix(1.25,0,0,-1.25,0,230.315)"><g
       id="g3346"><g
         id="g3348"
         clip-path="url(#clipPath3350)"><g
           id="g3354"
           transform="translate(125.541,84.0215)"><path
             d="m 0,0 c -3.343,-2.446 -32.181,-23.555 -32.181,-23.555 l 0,1.34 -27.806,-19.933 -20.1,13.228 0.171,6.688"
             style="fill:none;stroke:#000000;stroke-width:1;stroke-linecap:round;stroke-linejoin:round;stroke-miterlimit:4;stroke-dasharray:none;stroke-opacity:1"
             id="path3356"
             inkscape:connector-curvature="0" /></g><g
           id="g3358"
           transform="translate(45.6255,61.7891)"><path
             d="M 0,0 19.645,-13.105"
             style="fill:none;stroke:#000000;stroke-width:0.5;stroke-linecap:round;stroke-linejoin:round;stroke-miterlimit:4;stroke-dasharray:none;stroke-opacity:1"
             id="path3360"
             inkscape:connector-curvature="0" /></g><g
           id="g3362"
           transform="translate(155.4502,112.6016)"><path
             d="m 0,0 -0.119,2.953 -19.486,7.036 -2.937,-1.982 -20.575,8.506 -36.437,-21.61 1.15,-24.137 -27.458,-18.691 -3.963,-2.888"
             style="fill:none;stroke:#000000;stroke-width:1;stroke-linecap:round;stroke-linejoin:round;stroke-miterlimit:4;stroke-dasharray:none;stroke-opacity:1"
             id="path3364"
             inkscape:connector-curvature="0" /></g><g
           id="g3366"
           transform="translate(155.4502,112.6016)"><path
             d="m 0,0 0.228,-4.534 c 0,0 -14.745,-10.98 -18.156,-13.901"
             style="fill:none;stroke:#000000;stroke-width:1;stroke-linecap:round;stroke-linejoin:round;stroke-miterlimit:4;stroke-dasharray:none;stroke-opacity:1"
             id="path3368"
             inkscape:connector-curvature="0" /></g><g
           id="g3370"
           transform="translate(117.3989,87.7568)"><path
             d="M 0,0 C -35.877,-25.983 -52.129,-39.073 -52.129,-39.073"
             style="fill:none;stroke:#000000;stroke-width:0.5;stroke-linecap:round;stroke-linejoin:round;stroke-miterlimit:4;stroke-dasharray:none;stroke-opacity:1"
             id="path3372"
             inkscape:connector-curvature="0" /></g><g
           id="g3374"
           transform="translate(155.3311,115.5542)"><path
             d="M 0,0 C 0,0 -2.389,-2.056 -24.479,-18.054"
             style="fill:none;stroke:#000000;stroke-width:0.5;stroke-linecap:round;stroke-linejoin:round;stroke-miterlimit:4;stroke-dasharray:none;stroke-opacity:1"
             id="path3376"
             inkscape:connector-curvature="0" /></g><g
           id="g3378"
           transform="translate(77.0459,83.3672)"><path
             d="M 0,0 20.512,-9.979"
             style="fill:none;stroke:#000000;stroke-width:0.5;stroke-linecap:round;stroke-linejoin:round;stroke-miterlimit:4;stroke-dasharray:none;stroke-opacity:1"
             id="path3380"
             inkscape:connector-curvature="0" /></g><g
           id="g3382"
           transform="translate(75.8965,107.5049)"><path
             d="m 0,0 20.67,-9.631 1.026,-24.062"
             style="fill:none;stroke:#000000;stroke-width:0.5;stroke-linecap:round;stroke-linejoin:round;stroke-miterlimit:4;stroke-dasharray:none;stroke-opacity:1"
             id="path3384"
             inkscape:connector-curvature="0" /></g><g
           id="g3386"
           transform="translate(96.5669,97.8735)"><path
             d="M 0,0 36.045,22.429 36.372,1.632"
             style="fill:none;stroke:#000000;stroke-width:0.5;stroke-linecap:round;stroke-linejoin:round;stroke-miterlimit:4;stroke-dasharray:none;stroke-opacity:1"
             id="path3388"
             inkscape:connector-curvature="0" /></g><g
           id="g3390"
           transform="translate(65.27,48.6836)"><path
             d="M 0,0 0.224,-5.837"
             style="fill:none;stroke:#000000;stroke-width:0.5;stroke-linecap:round;stroke-linejoin:round;stroke-miterlimit:4;stroke-dasharray:none;stroke-opacity:1"
             id="path3392"
             inkscape:connector-curvature="0" /></g><g
           id="g3394"
           transform="translate(116.0376,88.8848)"><path
             d="m 0,0 c -0.264,0.031 -0.518,0.102 -0.758,0.217 -2.002,0.953 -2.277,4.556 -0.615,8.048 1.663,3.489 4.635,5.546 6.636,4.59 0.295,-0.138 0.551,-0.335 0.77,-0.58"
             style="fill:none;stroke:#000000;stroke-width:0.5;stroke-linecap:round;stroke-linejoin:round;stroke-miterlimit:4;stroke-dasharray:none;stroke-opacity:1"
             id="path3396"
             inkscape:connector-curvature="0" /></g><g
           id="g3398"
           transform="translate(119.7231,87.1504)"><path
             d="m 0,0 c -0.286,0.027 -0.56,0.1 -0.817,0.223 -2.002,0.955 -2.278,4.557 -0.615,8.047 1.663,3.491 4.635,5.547 6.637,4.592 0.287,-0.135 0.537,-0.325 0.75,-0.56"
             style="fill:none;stroke:#000000;stroke-width:0.5;stroke-linecap:round;stroke-linejoin:round;stroke-miterlimit:4;stroke-dasharray:none;stroke-opacity:1"
             id="path3400"
             inkscape:connector-curvature="0" /></g><g
           id="g3402"
           transform="translate(123.5879,85.4121)"><path
             d="m 0,0 c -0.371,0.002 -0.727,0.078 -1.055,0.234 -2.003,0.953 -2.278,4.555 -0.615,8.047 1.662,3.49 4.635,5.546 6.637,4.594 0.244,-0.118 0.463,-0.274 0.656,-0.466"
             style="fill:none;stroke:#000000;stroke-width:0.5;stroke-linecap:round;stroke-linejoin:round;stroke-miterlimit:4;stroke-dasharray:none;stroke-opacity:1"
             id="path3404"
             inkscape:connector-curvature="0" /></g><g
           id="g3406"
           transform="translate(126.8438,83.7109)"><path
             d="m 0,0 c -0.238,0.035 -0.467,0.102 -0.686,0.205 -2.002,0.957 -2.277,4.559 -0.615,8.049 1.664,3.491 4.635,5.547 6.639,4.594 0.318,-0.153 0.592,-0.371 0.822,-0.646"
             style="fill:none;stroke:#000000;stroke-width:0.5;stroke-linecap:round;stroke-linejoin:round;stroke-miterlimit:4;stroke-dasharray:none;stroke-opacity:1"
             id="path3408"
             inkscape:connector-curvature="0" /></g><g
           id="g3410"
           transform="translate(130.4766,81.9824)"><path
             d="m 0,0 c -0.24,0.035 -0.473,0.104 -0.691,0.207 -2.002,0.955 -2.278,4.559 -0.616,8.049 1.662,3.49 4.635,5.546 6.637,4.592 0.262,-0.125 0.494,-0.295 0.697,-0.504"
             style="fill:none;stroke:#000000;stroke-width:0.5;stroke-linecap:round;stroke-linejoin:round;stroke-miterlimit:4;stroke-dasharray:none;stroke-opacity:1"
             id="path3412"
             inkscape:connector-curvature="0" /></g><g
           id="g3414"
           transform="translate(134.0527,80.2637)"><path
             d="m 0,0 c -0.223,0.037 -0.437,0.104 -0.643,0.201 -2,0.953 -2.277,4.555 -0.615,8.045 1.664,3.49 4.637,5.547 6.639,4.593 C 5.656,12.708 5.9,12.525 6.111,12.3"
             style="fill:none;stroke:#000000;stroke-width:0.5;stroke-linecap:round;stroke-linejoin:round;stroke-miterlimit:4;stroke-dasharray:none;stroke-opacity:1"
             id="path3416"
             inkscape:connector-curvature="0" /></g><g
           id="g3418"
           transform="translate(137.7871,78.5195)"><path
             d="m 0,0 c -0.262,0.031 -0.512,0.102 -0.75,0.215 -2.002,0.953 -2.277,4.558 -0.615,8.047 1.664,3.492 4.635,5.547 6.638,4.593 0.245,-0.116 0.461,-0.271 0.655,-0.462"
             style="fill:none;stroke:#000000;stroke-width:0.5;stroke-linecap:round;stroke-linejoin:round;stroke-miterlimit:4;stroke-dasharray:none;stroke-opacity:1"
             id="path3420"
             inkscape:connector-curvature="0" /></g><g
           id="g3422"
           transform="translate(141.6836,76.7734)"><path
             d="m 0,0 c -0.357,0.008 -0.701,0.084 -1.02,0.234 -2.003,0.953 -2.277,4.557 -0.615,8.047 1.662,3.49 4.635,5.547 6.637,4.594 0.185,-0.09 0.357,-0.201 0.514,-0.334"
             style="fill:none;stroke:#000000;stroke-width:0.5;stroke-linecap:round;stroke-linejoin:round;stroke-miterlimit:4;stroke-dasharray:none;stroke-opacity:1"
             id="path3424"
             inkscape:connector-curvature="0" /></g><g
           id="g3426"
           transform="translate(144.8848,75.0879)"><path
             d="M 0,0 C -0.207,0.037 -0.406,0.102 -0.596,0.191 -2.598,1.145 -2.873,4.75 -1.209,8.24 0.453,11.729 3.424,13.787 5.426,12.832 5.68,12.713 5.904,12.551 6.1,12.352"
             style="fill:none;stroke:#000000;stroke-width:0.5;stroke-linecap:round;stroke-linejoin:round;stroke-miterlimit:4;stroke-dasharray:none;stroke-opacity:1"
             id="path3428"
             inkscape:connector-curvature="0" /></g><g
           id="g3430"
           transform="translate(114.229,89.916)"><path
             d="m 0,0 c -0.37,0.002 -0.724,0.078 -1.052,0.232 -2.002,0.955 -2.277,4.559 -0.615,8.05 1.664,3.49 4.636,5.546 6.637,4.592 0.355,-0.169 0.657,-0.422 0.903,-0.743"
             style="fill:none;stroke:#000000;stroke-width:0.5;stroke-linecap:round;stroke-linejoin:round;stroke-miterlimit:4;stroke-dasharray:none;stroke-opacity:1"
             id="path3432"
             inkscape:connector-curvature="0" /></g><g
           id="g3434"
           transform="translate(117.8652,87.9844)"><path
             d="m 0,0 c -0.33,0.016 -0.646,0.09 -0.94,0.23 -2.002,0.956 -2.278,4.558 -0.616,8.049 1.664,3.489 4.636,5.545 6.638,4.592 0.25,-0.119 0.473,-0.279 0.668,-0.475"
             style="fill:none;stroke:#000000;stroke-width:0.5;stroke-linecap:round;stroke-linejoin:round;stroke-miterlimit:4;stroke-dasharray:none;stroke-opacity:1"
             id="path3436"
             inkscape:connector-curvature="0" /></g><g
           id="g3438"
           transform="translate(121.5117,86.2949)"><path
             d="m 0,0 c -0.268,0.031 -0.526,0.102 -0.768,0.217 -2.002,0.955 -2.277,4.556 -0.615,8.048 1.662,3.49 4.635,5.546 6.637,4.592 0.244,-0.116 0.463,-0.273 0.656,-0.463"
             style="fill:none;stroke:#000000;stroke-width:0.5;stroke-linecap:round;stroke-linejoin:round;stroke-miterlimit:4;stroke-dasharray:none;stroke-opacity:1"
             id="path3440"
             inkscape:connector-curvature="0" /></g><g
           id="g3442"
           transform="translate(125.2598,84.6191)"><path
             d="m 0,0 c -0.311,0.02 -0.609,0.094 -0.891,0.229 -2.002,0.955 -2.279,4.556 -0.615,8.047 1.664,3.49 4.635,5.546 6.637,4.593 0.306,-0.147 0.574,-0.356 0.799,-0.618"
             style="fill:none;stroke:#000000;stroke-width:0.5;stroke-linecap:round;stroke-linejoin:round;stroke-miterlimit:4;stroke-dasharray:none;stroke-opacity:1"
             id="path3444"
             inkscape:connector-curvature="0" /></g><g
           id="g3446"
           transform="translate(128.9395,82.7188)"><path
             d="m 0,0 c -0.359,0.004 -0.705,0.08 -1.025,0.232 -2,0.954 -2.276,4.555 -0.614,8.047 1.662,3.491 4.635,5.546 6.637,4.593 0.17,-0.081 0.328,-0.182 0.475,-0.3"
             style="fill:none;stroke:#000000;stroke-width:0.5;stroke-linecap:round;stroke-linejoin:round;stroke-miterlimit:4;stroke-dasharray:none;stroke-opacity:1"
             id="path3448"
             inkscape:connector-curvature="0" /></g><g
           id="g3450"
           transform="translate(132.4766,80.9375)"><path
             d="m 0,0 c -0.328,0.016 -0.645,0.092 -0.937,0.23 -2.002,0.956 -2.278,4.557 -0.618,8.049 1.664,3.49 4.637,5.546 6.639,4.592 0.178,-0.085 0.344,-0.191 0.494,-0.316"
             style="fill:none;stroke:#000000;stroke-width:0.5;stroke-linecap:round;stroke-linejoin:round;stroke-miterlimit:4;stroke-dasharray:none;stroke-opacity:1"
             id="path3452"
             inkscape:connector-curvature="0" /></g><g
           id="g3454"
           transform="translate(136.1133,79.3828)"><path
             d="m 0,0 c -0.377,-0.002 -0.736,0.074 -1.07,0.232 -2.002,0.954 -2.278,4.555 -0.616,8.047 1.665,3.491 4.635,5.547 6.637,4.594 0.285,-0.136 0.533,-0.324 0.748,-0.558"
             style="fill:none;stroke:#000000;stroke-width:0.5;stroke-linecap:round;stroke-linejoin:round;stroke-miterlimit:4;stroke-dasharray:none;stroke-opacity:1"
             id="path3456"
             inkscape:connector-curvature="0" /></g><g
           id="g3458"
           transform="translate(139.6094,77.707)"><path
             d="m 0,0 c -0.277,0.029 -0.545,0.102 -0.797,0.219 -2,0.955 -2.277,4.56 -0.615,8.049 1.664,3.49 4.635,5.545 6.639,4.591 0.293,-0.138 0.55,-0.338 0.769,-0.584"
             style="fill:none;stroke:#000000;stroke-width:0.5;stroke-linecap:round;stroke-linejoin:round;stroke-miterlimit:4;stroke-dasharray:none;stroke-opacity:1"
             id="path3460"
             inkscape:connector-curvature="0" /></g><g
           id="g3462"
           transform="translate(143.5078,75.8945)"><path
             d="m 0,0 c -0.348,0.01 -0.682,0.086 -0.992,0.232 -2,0.955 -2.278,4.561 -0.613,8.051 1.662,3.488 4.632,5.545 6.636,4.59 0.252,-0.119 0.477,-0.281 0.674,-0.48"
             style="fill:none;stroke:#000000;stroke-width:0.5;stroke-linecap:round;stroke-linejoin:round;stroke-miterlimit:4;stroke-dasharray:none;stroke-opacity:1"
             id="path3464"
             inkscape:connector-curvature="0" /></g><g
           id="g3466"
           transform="translate(146.8926,74.248)"><path
             d="m 0,0 c -0.393,-0.008 -0.768,0.066 -1.113,0.23 -2.002,0.956 -2.278,4.561 -0.616,8.049 1.663,3.491 4.637,5.547 6.637,4.594 0.339,-0.162 0.628,-0.397 0.866,-0.696"
             style="fill:none;stroke:#000000;stroke-width:0.5;stroke-linecap:round;stroke-linejoin:round;stroke-miterlimit:4;stroke-dasharray:none;stroke-opacity:1"
             id="path3468"
             inkscape:connector-curvature="0" /></g><g
           id="g3470"
           transform="translate(150.4434,72.3633)"><path
             d="m 0,0 c -0.271,0.029 -0.533,0.102 -0.779,0.219 -2.003,0.953 -2.278,4.556 -0.615,8.049 1.663,3.489 4.634,5.545 6.636,4.589 0.296,-0.139 0.554,-0.337 0.774,-0.584"
             style="fill:none;stroke:#000000;stroke-width:0.5;stroke-linecap:round;stroke-linejoin:round;stroke-miterlimit:4;stroke-dasharray:none;stroke-opacity:1"
             id="path3472"
             inkscape:connector-curvature="0" /></g><g
           id="g3474"
           transform="translate(154.2246,70.624)"><path
             d="m 0,0 c -0.327,0.016 -0.642,0.09 -0.935,0.229 -2.002,0.956 -2.277,4.558 -0.614,8.048 1.663,3.492 4.634,5.547 6.637,4.593 0.26,-0.124 0.491,-0.292 0.691,-0.499"
             style="fill:none;stroke:#000000;stroke-width:0.5;stroke-linecap:round;stroke-linejoin:round;stroke-miterlimit:4;stroke-dasharray:none;stroke-opacity:1"
             id="path3476"
             inkscape:connector-curvature="0" /></g><g
           id="g3478"
           transform="translate(157.8887,68.8945)"><path
             d="M 0,0 C -0.341,0.012 -0.668,0.088 -0.972,0.233 -2.975,1.187 -3.25,4.788 -1.587,8.279 0.076,11.77 3.049,13.826 5.05,12.873 5.268,12.769 5.465,12.633 5.642,12.47"
             style="fill:none;stroke:#000000;stroke-width:0.5;stroke-linecap:round;stroke-linejoin:round;stroke-miterlimit:4;stroke-dasharray:none;stroke-opacity:1"
             id="path3480"
             inkscape:connector-curvature="0" /></g><g
           id="g3482"
           transform="translate(159.7656,67.9902)"><path
             d="m 0,0 c -1.264,1.432 -1.253,4.484 0.162,7.456 1.317,2.763 3.452,4.626 5.279,4.811"
             style="fill:none;stroke:#000000;stroke-width:0.5;stroke-linecap:round;stroke-linejoin:round;stroke-miterlimit:4;stroke-dasharray:none;stroke-opacity:1"
             id="path3484"
             inkscape:connector-curvature="0" /></g><g
           id="g3486"
           transform="translate(152.3623,71.4619)"><path
             d="m 0,0 c -0.37,0.002 -0.725,0.078 -1.053,0.233 -2.002,0.956 -2.277,4.559 -0.615,8.049 1.663,3.489 4.635,5.545 6.637,4.592 0.219,-0.104 0.419,-0.241 0.596,-0.406"
             style="fill:none;stroke:#000000;stroke-width:0.5;stroke-linecap:round;stroke-linejoin:round;stroke-miterlimit:4;stroke-dasharray:none;stroke-opacity:1"
             id="path3488"
             inkscape:connector-curvature="0" /></g><g
           id="g3490"
           transform="translate(155.8701,69.7793)"><path
             d="m 0,0 c -0.259,0.031 -0.507,0.102 -0.742,0.213 -2.002,0.956 -2.278,4.558 -0.615,8.049 1.663,3.49 4.635,5.546 6.636,4.592 0.289,-0.138 0.541,-0.331 0.758,-0.57"
             style="fill:none;stroke:#000000;stroke-width:0.5;stroke-linecap:round;stroke-linejoin:round;stroke-miterlimit:4;stroke-dasharray:none;stroke-opacity:1"
             id="path3492"
             inkscape:connector-curvature="0" /></g><g
           id="g3494"
           transform="translate(159.499,68.1133)"><path
             d="m 0,0 c -0.26,0.031 -0.509,0.103 -0.745,0.215 -2.003,0.956 -2.279,4.557 -0.616,8.049 1.664,3.489 4.634,5.545 6.636,4.591 0.294,-0.139 0.551,-0.336 0.77,-0.583"
             style="fill:none;stroke:#000000;stroke-width:0.5;stroke-linecap:round;stroke-linejoin:round;stroke-miterlimit:4;stroke-dasharray:none;stroke-opacity:1"
             id="path3496"
             inkscape:connector-curvature="0" /></g><g
           id="g3498"
           transform="translate(63.5479,115.0552)"><path
             d="m 0,0 c -0.06,0.022 -0.119,0.048 -0.178,0.076 -1.916,0.911 -2.18,4.358 -0.589,7.696 1.591,3.339 4.434,5.305 6.349,4.393 0.03,-0.015 0.06,-0.03 0.088,-0.045"
             style="fill:none;stroke:#000000;stroke-width:0.5;stroke-linecap:round;stroke-linejoin:round;stroke-miterlimit:4;stroke-dasharray:none;stroke-opacity:1"
             id="path3500"
             inkscape:connector-curvature="0" /></g><g
           id="g3502"
           transform="translate(67.1484,113.0103)"><path
             d="m 0,0 c -0.161,0.038 -0.316,0.093 -0.467,0.165 -2.002,0.953 -2.277,4.556 -0.615,8.048 1.663,3.49 4.635,5.546 6.637,4.591 0.343,-0.163 0.636,-0.404 0.877,-0.709"
             style="fill:none;stroke:#000000;stroke-width:0.5;stroke-linecap:round;stroke-linejoin:round;stroke-miterlimit:4;stroke-dasharray:none;stroke-opacity:1"
             id="path3504"
             inkscape:connector-curvature="0" /></g><g
           id="g3506"
           transform="translate(71.2617,111.2158)"><path
             d="m 0,0 c -0.334,0.013 -0.655,0.088 -0.954,0.23 -2.002,0.956 -2.277,4.558 -0.614,8.048 1.663,3.492 4.633,5.547 6.636,4.593 0.302,-0.143 0.564,-0.347 0.786,-0.6"
             style="fill:none;stroke:#000000;stroke-width:0.5;stroke-linecap:round;stroke-linejoin:round;stroke-miterlimit:4;stroke-dasharray:none;stroke-opacity:1"
             id="path3508"
             inkscape:connector-curvature="0" /></g><g
           id="g3510"
           transform="translate(74.8853,109.4883)"><path
             d="m 0,0 c -0.333,0.014 -0.653,0.09 -0.951,0.232 -2.003,0.954 -2.278,4.555 -0.615,8.047 1.663,3.49 4.636,5.546 6.637,4.593 0.226,-0.108 0.43,-0.25 0.612,-0.421"
             style="fill:none;stroke:#000000;stroke-width:0.5;stroke-linecap:round;stroke-linejoin:round;stroke-miterlimit:4;stroke-dasharray:none;stroke-opacity:1"
             id="path3512"
             inkscape:connector-curvature="0" /></g><g
           id="g3514"
           transform="translate(77.0493,108.3213)"><path
             d="m 0,0 c -1.525,1.291 -1.612,4.55 -0.104,7.718 1.664,3.49 4.635,5.546 6.638,4.593 0.349,-0.167 0.646,-0.414 0.889,-0.727"
             style="fill:none;stroke:#000000;stroke-width:0.5;stroke-linecap:round;stroke-linejoin:round;stroke-miterlimit:4;stroke-dasharray:none;stroke-opacity:1"
             id="path3516"
             inkscape:connector-curvature="0" /></g><g
           id="g3518"
           transform="translate(79.4858,110.022)"><path
             d="M 0,0 C 0.024,1.31 0.381,2.81 1.085,4.29 2.748,7.78 5.721,9.836 7.722,8.882 8.021,8.74 8.282,8.539 8.503,8.288"
             style="fill:none;stroke:#000000;stroke-width:0.5;stroke-linecap:round;stroke-linejoin:round;stroke-miterlimit:4;stroke-dasharray:none;stroke-opacity:1"
             id="path3520"
             inkscape:connector-curvature="0" /></g><g
           id="g3522"
           transform="translate(84.2036,112.5986)"><path
             d="M 0,0 C 1.666,3.48 4.632,5.531 6.631,4.578 6.771,4.511 6.903,4.432 7.026,4.34"
             style="fill:none;stroke:#000000;stroke-width:0.5;stroke-linecap:round;stroke-linejoin:round;stroke-miterlimit:4;stroke-dasharray:none;stroke-opacity:1"
             id="path3524"
             inkscape:connector-curvature="0" /></g><g
           id="g3526"
           transform="translate(65.7393,113.9917)"><path
             d="m 0,0 c -0.409,-0.014 -0.8,0.061 -1.16,0.231 -2.002,0.955 -2.277,4.558 -0.615,8.049 1.664,3.49 4.635,5.546 6.636,4.592 0.326,-0.155 0.607,-0.381 0.841,-0.664"
             style="fill:none;stroke:#000000;stroke-width:0.5;stroke-linecap:round;stroke-linejoin:round;stroke-miterlimit:4;stroke-dasharray:none;stroke-opacity:1"
             id="path3528"
             inkscape:connector-curvature="0" /></g><g
           id="g3530"
           transform="translate(69.4985,112.0571)"><path
             d="m 0,0 c -0.414,-0.016 -0.809,0.059 -1.172,0.231 -2.002,0.956 -2.277,4.558 -0.615,8.049 1.663,3.489 4.635,5.545 6.637,4.592 0.314,-0.149 0.586,-0.364 0.814,-0.633"
             style="fill:none;stroke:#000000;stroke-width:0.5;stroke-linecap:round;stroke-linejoin:round;stroke-miterlimit:4;stroke-dasharray:none;stroke-opacity:1"
             id="path3532"
             inkscape:connector-curvature="0" /></g><g
           id="g3534"
           transform="translate(73.0591,110.3569)"><path
             d="M 0,0 C -0.32,0.018 -0.627,0.092 -0.914,0.228 -2.916,1.184 -3.19,4.786 -1.529,8.276 0.134,11.767 3.107,13.823 5.108,12.869 5.33,12.763 5.53,12.625 5.709,12.458"
             style="fill:none;stroke:#000000;stroke-width:0.5;stroke-linecap:round;stroke-linejoin:round;stroke-miterlimit:4;stroke-dasharray:none;stroke-opacity:1"
             id="path3536"
             inkscape:connector-curvature="0" /></g><g
           id="g3538"
           transform="translate(77.8711,108.8633)"><path
             d="m 0,0 c -0.749,-0.244 -1.472,-0.242 -2.1,0.058 -2.003,0.956 -2.279,4.557 -0.616,8.048 1.664,3.49 4.635,5.546 6.637,4.592 0.257,-0.122 0.486,-0.289 0.686,-0.493"
             style="fill:none;stroke:#000000;stroke-width:0.5;stroke-linecap:round;stroke-linejoin:round;stroke-miterlimit:4;stroke-dasharray:none;stroke-opacity:1"
             id="path3540"
             inkscape:connector-curvature="0" /></g><g
           id="g3542"
           transform="translate(77.7969,109.0981)"><path
             d="M 0,0 C -0.412,1.593 -0.127,3.805 0.906,5.974 2.567,9.464 5.54,11.52 7.542,10.566 7.75,10.468 7.938,10.341 8.108,10.188"
             style="fill:none;stroke:#000000;stroke-width:0.5;stroke-linecap:round;stroke-linejoin:round;stroke-miterlimit:4;stroke-dasharray:none;stroke-opacity:1"
             id="path3544"
             inkscape:connector-curvature="0" /></g><g
           id="g3546"
           transform="translate(81.5249,111.0723)"><path
             d="M 0,0 C 0.18,0.727 0.446,1.475 0.799,2.218 2.462,5.708 5.435,7.764 7.437,6.81 7.642,6.712 7.83,6.587 7.998,6.437"
             style="fill:none;stroke:#000000;stroke-width:0.5;stroke-linecap:round;stroke-linejoin:round;stroke-miterlimit:4;stroke-dasharray:none;stroke-opacity:1"
             id="path3548"
             inkscape:connector-curvature="0" /></g><g
           id="g3550"
           transform="translate(148.7734,73.2832)"><path
             d="M 0,0 C -0.359,0.006 -0.703,0.082 -1.021,0.233 -3.024,1.187 -3.299,4.79 -1.636,8.282 0.026,11.771 2.998,13.827 5,12.872 5.302,12.729 5.564,12.526 5.786,12.273"
             style="fill:none;stroke:#000000;stroke-width:0.5;stroke-linecap:round;stroke-linejoin:round;stroke-miterlimit:4;stroke-dasharray:none;stroke-opacity:1"
             id="path3552"
             inkscape:connector-curvature="0" /></g><g
           id="g3554"
           transform="translate(161.4863,54.917)"><path
             d="m 0,0 c -0.065,0.024 -0.131,0.052 -0.195,0.081 -3.721,1.694 -3.557,10.056 0.367,18.678 3.925,8.622 10.123,14.237 13.844,12.543 0.108,-0.049 0.213,-0.104 0.314,-0.164"
             style="fill:none;stroke:#000000;stroke-width:1;stroke-linecap:round;stroke-linejoin:round;stroke-miterlimit:4;stroke-dasharray:none;stroke-opacity:1"
             id="path3556"
             inkscape:connector-curvature="0" /></g><g
           id="g3558"
           transform="translate(184.1377,81.6738)"><path
             d="m 0,0 c 0.141,-0.042 0.278,-0.094 0.413,-0.155 3.722,-1.694 3.56,-10.055 -0.365,-18.677 -3.925,-8.623 -10.124,-14.237 -13.846,-12.544 -0.099,0.046 -0.196,0.097 -0.291,0.151"
             style="fill:none;stroke:#000000;stroke-width:1;stroke-linecap:round;stroke-linejoin:round;stroke-miterlimit:4;stroke-dasharray:none;stroke-opacity:1"
             id="path3560"
             inkscape:connector-curvature="0" /></g><g
           id="g3562"
           transform="translate(170.0488,50.4492)"><path
             d="m 0,0 c -3.418,1.992 -3.16,10.136 0.658,18.526 3.783,8.311 9.678,13.828 13.431,12.699"
             style="fill:none;stroke:#000000;stroke-width:0.5;stroke-linecap:round;stroke-linejoin:round;stroke-miterlimit:4;stroke-dasharray:none;stroke-opacity:1"
             id="path3564"
             inkscape:connector-curvature="0" /></g><g
           id="g3566"
           transform="translate(184.5508,81.5186)"><path
             d="M 0,0 -9.049,4.7"
             style="fill:none;stroke:#000000;stroke-width:1;stroke-linecap:round;stroke-linejoin:round;stroke-miterlimit:4;stroke-dasharray:none;stroke-opacity:1"
             id="path3568"
             inkscape:connector-curvature="0" /></g><g
           id="g3570"
           transform="translate(161.291,54.998)"><path
             d="M 0,0 9.049,-4.7"
             style="fill:none;stroke:#000000;stroke-width:1;stroke-linecap:round;stroke-linejoin:round;stroke-miterlimit:4;stroke-dasharray:none;stroke-opacity:1"
             id="path3572"
             inkscape:connector-curvature="0" /></g></g></g></g></svg>