<?xml version="1.0" encoding="UTF-8" standalone="no"?>
<svg
   xmlns:dc="http://purl.org/dc/elements/1.1/"
   xmlns:cc="http://creativecommons.org/ns#"
   xmlns:rdf="http://www.w3.org/1999/02/22-rdf-syntax-ns#"
   xmlns:svg="http://www.w3.org/2000/svg"
   xmlns="http://www.w3.org/2000/svg"
   xmlns:sodipodi="http://sodipodi.sourceforge.net/DTD/sodipodi-0.dtd"
   xmlns:inkscape="http://www.inkscape.org/namespaces/inkscape"
   xml:space="preserve"
   height="768.0"
   viewBox="0,0 65416,45760"
   width="1024.0"
   id="svg2"
   version="1.1"
   inkscape:version="0.91 r13725"
   sodipodi:docname="20 - COMMUNICATIONS NETWORK CIRCUIT.svg"><metadata
     id="metadata768"><rdf:RDF><cc:Work
         rdf:about=""><dc:format>image/svg+xml</dc:format><dc:type
           rdf:resource="http://purl.org/dc/dcmitype/StillImage" /></cc:Work></rdf:RDF></metadata><sodipodi:namedview
     pagecolor="#ffffff"
     bordercolor="#666666"
     borderopacity="1"
     objecttolerance="10"
     gridtolerance="10"
     guidetolerance="10"
     inkscape:pageopacity="0"
     inkscape:pageshadow="2"
     inkscape:window-width="2560"
     inkscape:window-height="1378"
     id="namedview766"
     showgrid="false"
     inkscape:zoom="1.5"
     inkscape:cx="512"
     inkscape:cy="384"
     inkscape:window-x="-8"
     inkscape:window-y="-8"
     inkscape:window-maximized="1"
     inkscape:current-layer="g8" /><defs
     id="defs4"><style
       type="text/css"
       id="style6"><![CDATA[
.A{stroke:#808080;stroke-width:59px;}
.B{stroke-width:89px;}
.C{fill:#CCC;}
.D,.B,.S,.N,.V,.P,.C,.W,.K,.L{stroke:#000;}
.D,.B,.S,.N,.V,.U,.T,.O,.M,.R,.P,.Q,.C,.I,.F,.W,.K,.L{stroke-linecap:square;}
.D,.V,.U,.T,.O,.M,.Q,.C,.I,.F{stroke-width:16px;}
.F{fill:#F30;}
.G,.E,.F{stroke:#F30;}
.H,.A,.E,.D,.B,.S,.N,.V,.U,.T,.O,.M,.R,.P,.Q,.C,.I,.F,.W,.K,.L{stroke-dasharray:none;}
.I{fill:#03F;}
.J,.G{stroke-dasharray:117,58;}
.J,.G,.H,.A,.E{stroke-linecap:butt;}
.J,.G,.H,.A,.E,.D,.B{fill-opacity:0.0;fill:none;}
.J,.G,.H,.A,.E,.D,.B,.C,.I,.F{font-family:sans-serif;}
.J,.G,.H,.A,.E,.D,.B,.S,.N,.V,.U,.T,.O,.M,.R,.P,.Q,.C,.I,.F,.W,.K,.L{fill-rule:evenodd;font-style:normal;font-weight:normal;stroke-linejoin:miter;stroke-miterlimit:10;}
.J,.G,.H,.A,.E,.D,.B,.W,.K,.L{stroke-opacity:1.0;}
.J,.G,.H,.E{stroke-width:85px;}
.J,.H,.U,.T,.O,.M,.Q,.I{stroke:#03F;}
.K{font-size:662px;}
.M,.L{font-size:771px;}
.N,.V,.O,.W{font-size:469px;}
.P,.Q{font-family:Tahoma;font-size:393px;}
.R{stroke:#999;fill:#999;}
.S,.N,.P,.W,.K,.L{fill:#000;}
.S,.N,.R,.P,.K,.L{stroke-width:0.5px;}
.S,.N,.V,.U,.T,.O,.M,.R,.P,.Q,.C,.I,.F{stroke-opacity:0.0;}
.S,.N,.V,.U,.T,.O,.M,.R,.P,.Q,.C,.I,.F,.W,.K,.L{fill-opacity:1.0;}
.S,.N,.V,.U,.T,.O,.M,.R,.W,.K,.L{font-family:Arial;}
.S,.T{font-size:390px;}
.U,.R{font-size:312px;}
.V,.U,.T,.O,.M,.Q{fill:#FFF;}
.W{stroke-width:16.0px;}
]]></style></defs><g
     id="g8"><g
       id="g12"><path
         class="B"
         d="M12820,4559h44v111l133,677v111h44"
         id="path14" /></g><g
       id="g16"><path
         class="B"
         d="M12482,18100h44v111l133,677v111h44"
         id="path18" /></g><g
       id="g20"><path
         class="B"
         d="M12143,11330h44v111l133,677v111h44"
         id="path22" /></g><g
       id="g24"><path
         class="B"
         d="M29070,4559h44v111l133,677v111h44"
         id="path26" /></g><g
       id="g28"><path
         class="B"
         d="M29070,11330h44v111l133,677v111h44"
         id="path30" /></g><g
       id="g32"><path
         class="B"
         d="M29070,18100h44v111l133,677v111h44"
         id="path34" /></g><g
       id="g36"><path
         class="B"
         d="M12820,24871h44v111l133,677v111h44"
         id="path38" /></g><g
       id="g40"><path
         class="B"
         d="M29002,38412h44v111l133,677v111h44"
         id="path42" /></g><g
       id="g44"><path
         class="B"
         d="M12820,38412h44v111l133,677v111h44"
         id="path46" /></g><g
       id="g48"><path
         class="B"
         d="M29070,24871h44v111l133,677v111h44"
         id="path50" /></g><g
       id="g52"><path
         class="B"
         d="M29070,31642h44v111l133,677v111h44"
         id="path54" /></g><g
       id="g56"><path
         class="B"
         d="M12820,31642h44v111l133,677v111h44"
         id="path58" /></g><g
       id="g60"><path
         class="C"
         d="M61004,43940v-338v-677v-338h-338h-338v338v677v338 z"
         id="path62" /><path
         class="D"
         d="M61004,42925v-338h-677v338m0,677v338h677v-338"
         id="path64" /></g><g
       id="g66"><path
         class="C"
         d="M5484,39878v-338v-1354v-338h338h338v338v1354v338 z"
         id="path68" /><path
         class="D"
         d="M5484,38185v-338h677v338m0,1354v338h-677v-338"
         id="path70" /></g><g
       id="g72"><path
         class="C"
         d="M5484,26337v-338v-1354v-338h338h338v338v1354v338 z"
         id="path74" /><path
         class="D"
         d="M5484,24644v-338h677v338m0,1354v338h-677v-338"
         id="path76" /></g><g
       id="g78"><path
         class="C"
         d="M5484,6025v-338v-1354v-338h338h338v338v1354v338 z"
         id="path80" /><path
         class="D"
         d="M5484,4332v-338h677v338m0,1354v338h-677v-338"
         id="path82" /></g><g
       id="g84"><path
         class="C"
         d="M5484,33107v-338v-1354v-338h338h338v338v1354v338 z"
         id="path86" /><path
         class="D"
         d="M5484,31415v-338h677v338m0,1354v338h-677v-338"
         id="path88" /></g><g
       id="g90"><path
         class="C"
         d="M5484,43940v-338v-677v-338h338h338v338v677v338 z"
         id="path92" /><path
         class="D"
         d="M5484,42925v-338h677v338m0,677v338h-677v-338"
         id="path94" /></g><g
       id="g96"><path
         class="C"
         d="M5484,19566v-338v-1354v-338h338h338v338v1354v338 z"
         id="path98" /><path
         class="D"
         d="M5484,17873v-338h677v338m0,1354v338h-677v-338"
         id="path100" /></g><g
       id="g102"><path
         class="C"
         d="M5484,12795v-338v-1354v-338h338h338v338v1354v338 z"
         id="path104" /><path
         class="D"
         d="M5484,11103v-338h677v338m0,1354v338h-677v-338"
         id="path106" /></g><g
       id="g108"><path
         class="D"
         d="M61004,42925v-338h3385v1354h-3385v-338"
         id="path110" /></g><g
       id="g112"><path
         class="D"
         d="M5484,31415v-338h-3385v2031h3385v-338"
         id="path114" /></g><g
       id="g116"><path
         class="D"
         d="M5484,24644v-338h-3385v2031h3385v-338"
         id="path118" /></g><g
       id="g120"><path
         class="D"
         d="M5484,11103v-338h-3385v2031h3385v-338"
         id="path122" /></g><g
       id="g124"><path
         class="D"
         d="M5484,17873v-338h-3385v2031h3385v-338"
         id="path126" /></g><g
       id="g128"><path
         class="D"
         d="M5484,38185v-338h-3385v2031h3385v-338"
         id="path130" /></g><g
       id="g132"><path
         class="D"
         d="M5484,42925v-338h-3385v1354h3385v-338"
         id="path134" /></g><g
       id="g136"><path
         class="D"
         d="M5484,4332v-338h-3385v2031h3385v-338"
         id="path138" /></g><g
       id="g140"><path
         class="E"
         d="M35952,43263h24374"
         id="path142" /><circle
         class="F"
         cx="35952"
         cy="43263"
         r="42"
         id="circle144" /><path
         class="G"
         d="M35952,43263h24374"
         id="path146" /></g><g
       id="g148"><path
         class="H"
         d="M6161,39201h36561"
         id="path150" /><circle
         class="I"
         cx="42723"
         cy="39201"
         r="42"
         id="circle152" /><path
         class="J"
         d="M6161,39201h36561"
         id="path154" /><path
         class="H"
         d="M42723,39201v-16249"
         id="path156" /><circle
         class="I"
         cx="42723"
         cy="39201"
         r="42"
         id="circle158" /><circle
         class="I"
         cx="42723"
         cy="22951"
         r="42"
         id="circle160" /><path
         class="J"
         d="M42723,39201v-16249"
         id="path162" /><path
         class="H"
         d="M42723,22951l-677,-1354"
         id="path164" /><circle
         class="I"
         cx="42723"
         cy="22951"
         r="42"
         id="circle166" /><circle
         class="I"
         cx="42046"
         cy="21597"
         r="42"
         id="circle168" /><path
         class="J"
         d="M42723,22951l-677,-1354"
         id="path170" /></g><g
       id="g172"><path
         class="E"
         d="M6161,12118h29791"
         id="path174" /><circle
         class="F"
         cx="35952"
         cy="12118"
         r="42"
         id="circle176" /><path
         class="G"
         d="M6161,12118h29791"
         id="path178" /><path
         class="E"
         d="M35952,12118v8801"
         id="path180" /><circle
         class="F"
         cx="35952"
         cy="12118"
         r="42"
         id="circle182" /><circle
         class="F"
         cx="35952"
         cy="20920"
         r="42"
         id="circle184" /><path
         class="G"
         d="M35952,12118v8801"
         id="path186" /><path
         class="E"
         d="M35952,20920v677"
         id="path188" /><circle
         class="F"
         cx="35952"
         cy="20920"
         r="42"
         id="circle190" /><circle
         class="F"
         cx="35952"
         cy="21597"
         r="42"
         id="circle192" /><path
         class="G"
         d="M35952,20920v677"
         id="path194" /></g><g
       id="g196"><path
         class="E"
         d="M6161,5348h30468"
         id="path198" /><circle
         class="F"
         cx="36629"
         cy="5348"
         r="42"
         id="circle200" /><path
         class="G"
         d="M6161,5348h30468"
         id="path202" /><path
         class="E"
         d="M36629,5348v14895"
         id="path204" /><circle
         class="F"
         cx="36629"
         cy="5348"
         r="42"
         id="circle206" /><circle
         class="F"
         cx="36629"
         cy="20243"
         r="42"
         id="circle208" /><path
         class="G"
         d="M36629,5348v14895"
         id="path210" /><path
         class="E"
         d="M36629,20243l-677,1354"
         id="path212" /><circle
         class="F"
         cx="36629"
         cy="20243"
         r="42"
         id="circle214" /><circle
         class="F"
         cx="35952"
         cy="21597"
         r="42"
         id="circle216" /><path
         class="G"
         d="M36629,20243l-677,1354"
         id="path218" /></g><g
       id="g220"><path
         class="E"
         d="M6161,18889h29113"
         id="path222" /><circle
         class="F"
         cx="35275"
         cy="18889"
         r="42"
         id="circle224" /><path
         class="G"
         d="M6161,18889h29113"
         id="path226" /><path
         class="E"
         d="M35275,20243l677,1354"
         id="path228" /><circle
         class="F"
         cx="35275"
         cy="20243"
         r="42"
         id="circle230" /><circle
         class="F"
         cx="35952"
         cy="21597"
         r="42"
         id="circle232" /><path
         class="G"
         d="M35275,20243l677,1354"
         id="path234" /><path
         class="E"
         d="M35275,18889v1354"
         id="path236" /><circle
         class="F"
         cx="35275"
         cy="18889"
         r="42"
         id="circle238" /><circle
         class="F"
         cx="35275"
         cy="20243"
         r="42"
         id="circle240" /><path
         class="G"
         d="M35275,18889v1354"
         id="path242" /></g><g
       id="g244"><path
         class="H"
         d="M6161,11441h35884"
         id="path246" /><circle
         class="I"
         cx="42046"
         cy="11441"
         r="42"
         id="circle248" /><path
         class="J"
         d="M6161,11441h35884"
         id="path250" /><path
         class="H"
         d="M42046,11441v8124"
         id="path252" /><circle
         class="I"
         cx="42046"
         cy="11441"
         r="42"
         id="circle254" /><circle
         class="I"
         cx="42046"
         cy="19566"
         r="42"
         id="circle256" /><path
         class="J"
         d="M42046,11441v8124"
         id="path258" /><path
         class="H"
         d="M42046,19566v2031"
         id="path260" /><circle
         class="I"
         cx="42046"
         cy="19566"
         r="42"
         id="circle262" /><circle
         class="I"
         cx="42046"
         cy="21597"
         r="42"
         id="circle264" /><path
         class="J"
         d="M42046,19566v2031"
         id="path266" /></g><g
       id="g268"><path
         class="H"
         d="M6161,18212h35207"
         id="path270" /><circle
         class="I"
         cx="41369"
         cy="18212"
         r="42"
         id="circle272" /><path
         class="J"
         d="M6161,18212h35207"
         id="path274" /><path
         class="H"
         d="M41369,18212v2031"
         id="path276" /><circle
         class="I"
         cx="41369"
         cy="18212"
         r="42"
         id="circle278" /><circle
         class="I"
         cx="41369"
         cy="20243"
         r="42"
         id="circle280" /><path
         class="J"
         d="M41369,18212v2031"
         id="path282" /><path
         class="H"
         d="M41369,20243l677,1354"
         id="path284" /><circle
         class="I"
         cx="41369"
         cy="20243"
         r="42"
         id="circle286" /><circle
         class="I"
         cx="42046"
         cy="21597"
         r="42"
         id="circle288" /><path
         class="J"
         d="M41369,20243l677,1354"
         id="path290" /></g><g
       id="g292"><path
         class="H"
         d="M6161,4670h36561"
         id="path294" /><circle
         class="I"
         cx="42723"
         cy="4670"
         r="42"
         id="circle296" /><path
         class="J"
         d="M6161,4670h36561"
         id="path298" /><path
         class="H"
         d="M42723,4670v15572"
         id="path300" /><circle
         class="I"
         cx="42723"
         cy="4670"
         r="42"
         id="circle302" /><circle
         class="I"
         cx="42723"
         cy="20243"
         r="42"
         id="circle304" /><path
         class="J"
         d="M42723,4670v15572"
         id="path306" /><path
         class="H"
         d="M42723,20243l-677,1354"
         id="path308" /><circle
         class="I"
         cx="42723"
         cy="20243"
         r="42"
         id="circle310" /><circle
         class="I"
         cx="42046"
         cy="21597"
         r="42"
         id="circle312" /><path
         class="J"
         d="M42723,20243l-677,1354"
         id="path314" /></g><g
       id="g316"><path
         class="E"
         d="M6161,43263h29791"
         id="path318" /><circle
         class="F"
         cx="35952"
         cy="43263"
         r="42"
         id="circle320" /><path
         class="G"
         d="M6161,43263h29791"
         id="path322" /></g><g
       id="g324"><path
         class="E"
         d="M6161,38524h30468"
         id="path326" /><circle
         class="F"
         cx="36629"
         cy="38524"
         r="42"
         id="circle328" /><path
         class="G"
         d="M6161,38524h30468"
         id="path330" /><path
         class="E"
         d="M36629,38524v-15572"
         id="path332" /><circle
         class="F"
         cx="36629"
         cy="38524"
         r="42"
         id="circle334" /><circle
         class="F"
         cx="36629"
         cy="22951"
         r="42"
         id="circle336" /><path
         class="G"
         d="M36629,38524v-15572"
         id="path338" /><path
         class="E"
         d="M36629,22951l-677,-1354"
         id="path340" /><circle
         class="F"
         cx="36629"
         cy="22951"
         r="42"
         id="circle342" /><circle
         class="F"
         cx="35952"
         cy="21597"
         r="42"
         id="circle344" /><path
         class="G"
         d="M36629,22951l-677,-1354"
         id="path346" /></g><g
       id="g348"><path
         class="E"
         d="M6161,31753h29791"
         id="path350" /><circle
         class="F"
         cx="35952"
         cy="31753"
         r="42"
         id="circle352" /><path
         class="G"
         d="M6161,31753h29791"
         id="path354" /><path
         class="E"
         d="M35952,31753v-7447"
         id="path356" /><circle
         class="F"
         cx="35952"
         cy="31753"
         r="42"
         id="circle358" /><circle
         class="F"
         cx="35952"
         cy="24305"
         r="42"
         id="circle360" /><path
         class="G"
         d="M35952,31753v-7447"
         id="path362" /><path
         class="E"
         d="M35952,24305v-2708"
         id="path364" /><circle
         class="F"
         cx="35952"
         cy="24305"
         r="42"
         id="circle366" /><circle
         class="F"
         cx="35952"
         cy="21597"
         r="42"
         id="circle368" /><path
         class="G"
         d="M35952,24305v-2708"
         id="path370" /></g><g
       id="g372"><path
         class="E"
         d="M6161,25660h29113"
         id="path374" /><circle
         class="F"
         cx="35275"
         cy="25660"
         r="42"
         id="circle376" /><path
         class="G"
         d="M6161,25660h29113"
         id="path378" /><path
         class="E"
         d="M35275,25660v-2708"
         id="path380" /><circle
         class="F"
         cx="35275"
         cy="25660"
         r="42"
         id="circle382" /><circle
         class="F"
         cx="35275"
         cy="22951"
         r="42"
         id="circle384" /><path
         class="G"
         d="M35275,25660v-2708"
         id="path386" /><path
         class="E"
         d="M35275,22951l677,-1354"
         id="path388" /><circle
         class="F"
         cx="35275"
         cy="22951"
         r="42"
         id="circle390" /><circle
         class="F"
         cx="35952"
         cy="21597"
         r="42"
         id="circle392" /><path
         class="G"
         d="M35275,22951l677,-1354"
         id="path394" /></g><g
       id="g396"><path
         class="H"
         d="M6161,32430h35884"
         id="path398" /><circle
         class="I"
         cx="42046"
         cy="32430"
         r="42"
         id="circle400" /><path
         class="J"
         d="M6161,32430h35884"
         id="path402" /><path
         class="H"
         d="M42046,32430v-8801"
         id="path404" /><circle
         class="I"
         cx="42046"
         cy="32430"
         r="42"
         id="circle406" /><circle
         class="I"
         cx="42046"
         cy="23628"
         r="42"
         id="circle408" /><path
         class="J"
         d="M42046,32430v-8801"
         id="path410" /><path
         class="H"
         d="M42046,23628v-2031"
         id="path412" /><circle
         class="I"
         cx="42046"
         cy="23628"
         r="42"
         id="circle414" /><circle
         class="I"
         cx="42046"
         cy="21597"
         r="42"
         id="circle416" /><path
         class="J"
         d="M42046,23628v-2031"
         id="path418" /></g><g
       id="g420"><path
         class="H"
         d="M6161,24983h35207"
         id="path422" /><circle
         class="I"
         cx="41369"
         cy="24983"
         r="42"
         id="circle424" /><path
         class="J"
         d="M6161,24983h35207"
         id="path426" /><path
         class="H"
         d="M41369,24983v-2031"
         id="path428" /><circle
         class="I"
         cx="41369"
         cy="24983"
         r="42"
         id="circle430" /><circle
         class="I"
         cx="41369"
         cy="22951"
         r="42"
         id="circle432" /><path
         class="J"
         d="M41369,24983v-2031"
         id="path434" /><path
         class="H"
         d="M41369,22951l677,-1354"
         id="path436" /><circle
         class="I"
         cx="41369"
         cy="22951"
         r="42"
         id="circle438" /><circle
         class="I"
         cx="42046"
         cy="21597"
         r="42"
         id="circle440" /><path
         class="J"
         d="M41369,22951l677,-1354"
         id="path442" /></g><g
       id="g452"><rect
         class="M"
         x="58140"
         y="42957"
         width="1778"
         height="527"
         id="rect454" /><text
         class="N"
         x="58213"
         y="43470"
         id="text456">M02A-4</text>
</g><g
       id="g458"><rect
         class="O"
         x="6570"
         y="38218"
         width="1354"
         height="527"
         id="rect460" /><text
         class="N"
         x="6643"
         y="38730"
         id="text462">E04-6</text>
</g><g
       id="g464"><rect
         class="O"
         x="6570"
         y="38895"
         width="1637"
         height="527"
         id="rect466" /><text
         class="N"
         x="6643"
         y="39408"
         id="text468">E04-14</text>
</g><g
       id="g470"><rect
         class="O"
         x="6570"
         y="24676"
         width="1439"
         height="527"
         id="rect472" /><text
         class="N"
         x="6643"
         y="25189"
         id="text474">M68-1</text>
</g><g
       id="g476"><rect
         class="O"
         x="6570"
         y="25354"
         width="1439"
         height="527"
         id="rect478" /><text
         class="N"
         x="6643"
         y="25866"
         id="text480">M68-6</text>
</g><g
       id="g482"><rect
         class="O"
         x="6570"
         y="5041"
         width="1721"
         height="527"
         id="rect484" /><text
         class="N"
         x="6643"
         y="5554"
         id="text486">M01-25</text>
</g><g
       id="g488"><rect
         class="O"
         x="6570"
         y="4364"
         width="1721"
         height="527"
         id="rect490" /><text
         class="N"
         x="6643"
         y="4877"
         id="text492">M01-24</text>
</g><g
       id="g494"><rect
         class="O"
         x="6570"
         y="31447"
         width="1439"
         height="527"
         id="rect496" /><text
         class="N"
         x="6643"
         y="31960"
         id="text498">M72-3</text>
</g><g
       id="g500"><rect
         class="O"
         x="6570"
         y="32124"
         width="1439"
         height="527"
         id="rect502" /><text
         class="N"
         x="6643"
         y="32637"
         id="text504">M72-4</text>
</g><g
       id="g506"><rect
         class="O"
         x="6570"
         y="42957"
         width="1439"
         height="527"
         id="rect508" /><text
         class="N"
         x="6643"
         y="43470"
         id="text510">M01-7</text>
</g><g
       id="g512"><rect
         class="O"
         x="6570"
         y="17906"
         width="2004"
         height="527"
         id="rect514" /><text
         class="N"
         x="6643"
         y="18418"
         id="text516">E02C-24</text>
</g><g
       id="g518"><rect
         class="O"
         x="6570"
         y="18583"
         width="2004"
         height="527"
         id="rect520" /><text
         class="N"
         x="6643"
         y="19095"
         id="text522">E02C-25</text>
</g><g
       id="g524"><rect
         class="O"
         x="6570"
         y="11812"
         width="1439"
         height="527"
         id="rect526" /><text
         class="N"
         x="6643"
         y="12325"
         id="text528">M59-2</text>
</g><g
       id="g530"><rect
         class="O"
         x="6570"
         y="11135"
         width="1721"
         height="527"
         id="rect532" /><text
         class="N"
         x="6643"
         y="11648"
         id="text534">M59-11</text>
</g><g
       id="g536"><text
         class="P"
         x="57362"
         y="42465"
         id="text538">LEFT HANDLEBAR SWITCH HOUSING</text>
</g><g
       id="g540"><rect
         class="Q"
         x="61051"
         y="43054"
         width="526"
         height="351"
         id="rect542" /><text
         class="R"
         x="61100"
         y="43396"
         id="text544">LIN</text>
</g><g
       id="g546"><text
         class="S"
         x="2218"
         y="30958"
         id="text548">BLUETOOTH MODULE</text>
</g><g
       id="g550"><rect
         class="T"
         x="4290"
         y="31543"
         width="1147"
         height="351"
         id="rect552" /><text
         class="R"
         x="4339"
         y="31886"
         id="text554">CAN_H</text>
</g><g
       id="g556"><rect
         class="U"
         x="4346"
         y="32220"
         width="1091"
         height="351"
         id="rect558" /><text
         class="R"
         x="4395"
         y="32563"
         id="text560">CAN_L</text>
</g><g
       id="g562"
       transform="translate(0,-127.76563)"><text
         class="S"
         x="2218"
         y="24255"
         id="text564"
         style="font-style:normal;font-weight:normal;font-size:390px;font-family:Arial;fill:#000000;fill-opacity:1;fill-rule:evenodd;stroke:#000000;stroke-width:0.5px;stroke-linecap:square;stroke-linejoin:miter;stroke-miterlimit:10;stroke-dasharray:none;stroke-opacity:0">IMMOBILISER/TPMS ECM</text>
</g><g
       id="g566"><rect
         class="T"
         x="4346"
         y="24773"
         width="1091"
         height="351"
         id="rect568" /><text
         class="R"
         x="4395"
         y="25115"
         id="text570">CAN_L</text>
</g><g
       id="g572"><rect
         class="U"
         x="4290"
         y="25450"
         width="1147"
         height="351"
         id="rect574" /><text
         class="R"
         x="4339"
         y="25792"
         id="text576">CAN_H</text>
</g><g
       id="g578"><text
         class="P"
         x="2222"
         y="10643"
         id="text580">ABS MODULATOR</text>
</g><g
       id="g582"><rect
         class="Q"
         x="4290"
         y="11908"
         width="1147"
         height="351"
         id="rect584" /><text
         class="R"
         x="4339"
         y="12251"
         id="text586">CAN_H</text>
</g><g
       id="g588"><rect
         class="U"
         x="4346"
         y="11231"
         width="1091"
         height="351"
         id="rect590" /><text
         class="R"
         x="4395"
         y="11574"
         id="text592">CAN_L</text>
</g><g
       id="g594"
       transform="translate(0,-127.76563)"><text
         class="S"
         x="2218"
         y="17485"
         id="text596"
         style="font-style:normal;font-weight:normal;font-size:390px;font-family:Arial;fill:#000000;fill-opacity:1;fill-rule:evenodd;stroke:#000000;stroke-width:0.5px;stroke-linecap:square;stroke-linejoin:miter;stroke-miterlimit:10;stroke-dasharray:none;stroke-opacity:0">ENGINE ECM</text>
</g><g
       id="g598"><rect
         class="T"
         x="3913"
         y="18679"
         width="1523"
         height="351"
         id="rect600" /><text
         class="R"
         x="3962"
         y="19021"
         id="text602">CAN#1_H</text>
</g><g
       id="g604"><rect
         class="U"
         x="3970"
         y="18002"
         width="1467"
         height="351"
         id="rect606" /><text
         class="R"
         x="4019"
         y="18344"
         id="text608">CAN#1_L</text>
</g><g
       id="g610"
       transform="translate(0,-127.76563)"><text
         class="S"
         x="2218"
         y="37797"
         id="text612"
         style="font-style:normal;font-weight:normal;font-size:390px;font-family:Arial;fill:#000000;fill-opacity:1;fill-rule:evenodd;stroke:#000000;stroke-width:0.5px;stroke-linecap:square;stroke-linejoin:miter;stroke-miterlimit:10;stroke-dasharray:none;stroke-opacity:0">DIAGNOSTIC CONNECTOR</text>
</g><g
       id="g614"><rect
         class="T"
         x="4290"
         y="38314"
         width="1147"
         height="351"
         id="rect616" /><text
         class="R"
         x="4339"
         y="38656"
         id="text618">CAN_H</text>
</g><g
       id="g620"><rect
         class="U"
         x="4346"
         y="38991"
         width="1091"
         height="351"
         id="rect622" /><text
         class="R"
         x="4395"
         y="39333"
         id="text624">CAN_L</text>
</g><g
       id="g626"><text
         class="P"
         x="2222"
         y="42465"
         id="text628">INSTRUMENTS</text>
</g><g
       id="g630"><rect
         class="Q"
         x="4120"
         y="43054"
         width="1316"
         height="351"
         id="rect632" /><text
         class="R"
         x="4169"
         y="43396"
         id="text634">LIN BUS</text>
</g><g
       id="g636"><text
         class="P"
         x="2222"
         y="3872"
         id="text638">INSTRUMENTS</text>
</g><g
       id="g640"><rect
         class="Q"
         x="4346"
         y="4461"
         width="1091"
         height="351"
         id="rect642" /><text
         class="R"
         x="4395"
         y="4803"
         id="text644">CAN_L</text>
</g><g
       id="g646"><rect
         class="U"
         x="4290"
         y="5138"
         width="1147"
         height="351"
         id="rect648" /><text
         class="R"
         x="4339"
         y="5480"
         id="text650">CAN_H</text>
</g><g
       id="g652"><rect
         class="U"
         x="47956"
         y="42940"
         width="366"
         height="527"
         id="rect654" /><text
         class="N"
         x="48029"
         y="43453"
         id="text656">R</text>
</g><g
       id="g658"><rect
         class="O"
         x="20806"
         y="38810"
         width="366"
         height="527"
         id="rect660" /><text
         class="N"
         x="20879"
         y="39323"
         id="text662">U</text>
</g><g
       id="g664"><rect
         class="O"
         x="20806"
         y="11727"
         width="366"
         height="527"
         id="rect666" /><text
         class="N"
         x="20879"
         y="12240"
         id="text668">R</text>
</g><g
       id="g670"><rect
         class="O"
         x="20806"
         y="5025"
         width="366"
         height="527"
         id="rect672" /><text
         class="N"
         x="20879"
         y="5537"
         id="text674">R</text>
</g><g
       id="g676"><rect
         class="O"
         x="20806"
         y="18498"
         width="366"
         height="527"
         id="rect678" /><text
         class="N"
         x="20879"
         y="19011"
         id="text680">R</text>
</g><g
       id="g682"><rect
         class="O"
         x="20806"
         y="11050"
         width="366"
         height="527"
         id="rect684" /><text
         class="N"
         x="20879"
         y="11563"
         id="text686">U</text>
</g><g
       id="g688"><rect
         class="O"
         x="20806"
         y="17889"
         width="366"
         height="527"
         id="rect690" /><text
         class="N"
         x="20879"
         y="18402"
         id="text692">U</text>
</g><g
       id="g694"><rect
         class="O"
         x="20806"
         y="4212"
         width="366"
         height="527"
         id="rect696" /><text
         class="N"
         x="20879"
         y="4725"
         id="text698">U</text>
</g><g
       id="g700"><rect
         class="O"
         x="20806"
         y="42906"
         width="366"
         height="527"
         id="rect702" /><text
         class="N"
         x="20879"
         y="43418"
         id="text704">R</text>
</g><g
       id="g706"><rect
         class="O"
         x="20806"
         y="38201"
         width="366"
         height="527"
         id="rect708" /><text
         class="N"
         x="20879"
         y="38714"
         id="text710">R</text>
</g><g
       id="g712"><rect
         class="O"
         x="20806"
         y="31362"
         width="366"
         height="527"
         id="rect714" /><text
         class="N"
         x="20879"
         y="31875"
         id="text716">R</text>
</g><g
       id="g718"><rect
         class="O"
         x="20806"
         y="25269"
         width="366"
         height="527"
         id="rect720" /><text
         class="N"
         x="20879"
         y="25782"
         id="text722">R</text>
</g><g
       id="g724"><rect
         class="O"
         x="20806"
         y="32040"
         width="366"
         height="527"
         id="rect726" /><text
         class="N"
         x="20879"
         y="32552"
         id="text728">U</text>
</g><g
       id="g730"><rect
         class="O"
         x="20806"
         y="24660"
         width="366"
         height="527"
         id="rect732" /><text
         class="N"
         x="20879"
         y="25172"
         id="text734">U</text>
</g><g
       id="g736"><circle
         class="W"
         cx="35952"
         cy="21597"
         r="270"
         id="circle738" /></g><g
       id="g740"><rect
         class="V"
         x="34429"
         y="21184"
         width="1156"
         height="634"
         id="rect742" /><text
         class="N"
         x="34572"
         y="21687"
         id="text744">CH1</text>
</g><g
       id="g746"><circle
         class="W"
         cx="42046"
         cy="21597"
         r="270"
         id="circle748" /></g><g
       id="g750"><rect
         class="V"
         x="40565"
         y="21184"
         width="1072"
         height="634"
         id="rect752" /><text
         class="N"
         x="40708"
         y="21687"
         id="text754">CL1</text>
</g><g
       id="g756"><circle
         class="W"
         cx="35952"
         cy="43263"
         r="270"
         id="circle758" /></g><g
       id="g760"><rect
         class="V"
         x="35331"
         y="43527"
         width="1383"
         height="634"
         id="rect762" /><text
         class="N"
         x="35630"
         y="44030"
         id="text764">LN1</text>
</g></g></svg>