<?xml version="1.0" encoding="UTF-8" standalone="no"?>
<!-- Created with Inkscape (http://www.inkscape.org/) -->

<svg
   xmlns:dc="http://purl.org/dc/elements/1.1/"
   xmlns:cc="http://creativecommons.org/ns#"
   xmlns:rdf="http://www.w3.org/1999/02/22-rdf-syntax-ns#"
   xmlns:svg="http://www.w3.org/2000/svg"
   xmlns="http://www.w3.org/2000/svg"
   xmlns:sodipodi="http://sodipodi.sourceforge.net/DTD/sodipodi-0.dtd"
   xmlns:inkscape="http://www.inkscape.org/namespaces/inkscape"
   id="svg8616"
   version="1.1"
   inkscape:version="0.91 r13725"
   xml:space="preserve"
   width="301.18124"
   height="230.315"
   viewBox="0 0 301.18124 230.315"
   sodipodi:docname="cgwn.svg"><metadata
     id="metadata8622"><rdf:RDF><cc:Work
         rdf:about=""><dc:format>image/svg+xml</dc:format><dc:type
           rdf:resource="http://purl.org/dc/dcmitype/StillImage" /><dc:title></dc:title></cc:Work></rdf:RDF></metadata><defs
     id="defs8620"><clipPath
       clipPathUnits="userSpaceOnUse"
       id="clipPath8630"><path
         d="m 0.167,0 240.779,0 0,184.086 -240.779,0 L 0.167,0 Z"
         id="path8632"
         inkscape:connector-curvature="0" /></clipPath><clipPath
       clipPathUnits="userSpaceOnUse"
       id="clipPath8894"><path
         d="m 0,184.252 240.945,0 L 240.945,0 0,0 0,184.252 Z"
         id="path8896"
         inkscape:connector-curvature="0" /></clipPath></defs><sodipodi:namedview
     pagecolor="#ffffff"
     bordercolor="#666666"
     borderopacity="1"
     objecttolerance="10"
     gridtolerance="10"
     guidetolerance="10"
     inkscape:pageopacity="0"
     inkscape:pageshadow="2"
     inkscape:window-width="640"
     inkscape:window-height="480"
     id="namedview8618"
     showgrid="false"
     inkscape:zoom="1.3503245"
     inkscape:cx="150.59062"
     inkscape:cy="115.1575"
     inkscape:window-x="0"
     inkscape:window-y="0"
     inkscape:window-maximized="0"
     inkscape:current-layer="g8624" /><g
     id="g8624"
     inkscape:groupmode="layer"
     inkscape:label="cgwn"
     transform="matrix(1.25,0,0,-1.25,0,230.315)"><g
       id="g8626"><g
         id="g8628"
         clip-path="url(#clipPath8630)"><g
           id="g8634"
           transform="translate(-2.4712,82.4092)"><path
             d="m 0,0 c 0,0 9.73,4.609 73.492,36.875 63.76,32.264 98.585,37.897 176.43,19.205"
             style="fill:none;stroke:#100f0d;stroke-width:0.5;stroke-linecap:round;stroke-linejoin:round;stroke-miterlimit:4;stroke-dasharray:none;stroke-opacity:1"
             id="path8636"
             inkscape:connector-curvature="0" /></g><g
           id="g8638"
           transform="translate(110.7856,111.9854)"><path
             d="m 0,0 -6.137,-1.344 c -22.675,-4.963 -31.159,-6.82 -46.433,-10.877 -16.688,-4.433 -19.873,-5.81 -32.176,-11.584 l -29.699,-13.826 c 0.5,0.233 1.092,0.016 1.326,-0.486 0.233,-0.5 0.014,-1.096 -0.486,-1.328 l 29.709,13.83 c 12.407,5.823 15.268,7.059 31.84,11.461 15.23,4.046 23.703,5.9 46.346,10.856 l 6.138,1.344 C 26.636,3.79 56.343,10.3 135.537,1.95 c 0.548,-0.057 1.041,0.341 1.099,0.89 0.059,0.549 -0.34,1.041 -0.89,1.099 C 56.232,12.323 26.357,5.775 0,0 Z"
             style="fill:none;stroke:#100f0d;stroke-width:0.25;stroke-linecap:round;stroke-linejoin:round;stroke-miterlimit:4;stroke-dasharray:none;stroke-opacity:1"
             id="path8640"
             inkscape:connector-curvature="0" /></g><g
           id="g8642"
           transform="translate(-4.52,79.0811)"><path
             d="m 0,0 c 0,0 38.923,19.46 81.942,40.97 43.019,21.51 100.891,28.167 170.541,14.596"
             style="fill:none;stroke:#100f0d;stroke-width:0.25;stroke-linecap:round;stroke-linejoin:round;stroke-miterlimit:4;stroke-dasharray:none;stroke-opacity:1"
             id="path8644"
             inkscape:connector-curvature="0" /></g><g
           id="g8646"
           transform="translate(-2.7275,76.5205)"><path
             d="m 0,0 c 0,0 24.838,11.777 35.593,16.387 10.755,4.61 15.108,6.658 28.68,9.987 13.572,3.329 39.435,8.963 69.908,15.108 30.47,6.146 69.136,7.682 111.9,1.024"
             style="fill:none;stroke:#100f0d;stroke-width:0.25;stroke-linecap:round;stroke-linejoin:round;stroke-miterlimit:4;stroke-dasharray:none;stroke-opacity:1"
             id="path8648"
             inkscape:connector-curvature="0" /></g><g
           id="g8650"
           transform="translate(-3.7524,35.0361)"><path
             d="m 0,0 c 6.146,3.586 17.413,5.121 26.631,6.402 9.219,1.28 29.961,0.512 46.861,-43.019"
             style="fill:none;stroke:#100f0d;stroke-width:0.5;stroke-linecap:round;stroke-linejoin:round;stroke-miterlimit:4;stroke-dasharray:none;stroke-opacity:1"
             id="path8652"
             inkscape:connector-curvature="0" /></g><g
           id="g8654"
           transform="translate(-2.3589,37.1494)"><path
             d="m 0,0 c 6.146,3.584 18.449,4.344 27.667,5.625 9.219,1.279 29.961,0.512 46.861,-43.02"
             style="fill:none;stroke:#100f0d;stroke-width:0.25;stroke-linecap:round;stroke-linejoin:round;stroke-miterlimit:4;stroke-dasharray:none;stroke-opacity:1"
             id="path8656"
             inkscape:connector-curvature="0" /></g><g
           id="g8658"
           transform="translate(125.8184,-2.0947)"><path
             d="m 0,0 c 3.33,29.193 24.326,75.285 59.152,78.871 25.647,2.641 45.877,4.445 54.76,5.215"
             style="fill:none;stroke:#100f0d;stroke-width:0.5;stroke-linecap:round;stroke-linejoin:round;stroke-miterlimit:4;stroke-dasharray:none;stroke-opacity:1"
             id="path8660"
             inkscape:connector-curvature="0" /></g><g
           id="g8662"
           transform="translate(121.4648,-0.3018)"><path
             d="m 0,0 c 3.33,29.191 24.326,75.285 59.152,78.869 24.385,2.512 43.873,4.268 53.368,5.094"
             style="fill:none;stroke:#100f0d;stroke-width:0.25;stroke-linecap:round;stroke-linejoin:round;stroke-miterlimit:4;stroke-dasharray:none;stroke-opacity:1"
             id="path8664"
             inkscape:connector-curvature="0" /></g><g
           id="g8666"
           transform="translate(34.2104,43.2236)"><path
             d="M 0,0 116.875,21.748"
             style="fill:none;stroke:#100f0d;stroke-width:0.25;stroke-linecap:round;stroke-linejoin:round;stroke-miterlimit:4;stroke-dasharray:none;stroke-opacity:1"
             id="path8668"
             inkscape:connector-curvature="0" /></g><g
           id="g8670"
           transform="translate(134.4687,95.9185)"><path
             d="M 0,0 C 0.143,-2.639 0.268,-5.001 0.268,-5.001"
             style="fill:none;stroke:#100f0d;stroke-width:0.25;stroke-linecap:round;stroke-linejoin:round;stroke-miterlimit:4;stroke-dasharray:none;stroke-opacity:1"
             id="path8672"
             inkscape:connector-curvature="0" /></g><g
           id="g8674"
           transform="translate(-2.6665,63.0869)"><path
             d="m 0,0 c 0,0 18.166,7.666 19.333,8.332 1.167,0.668 0.5,2.334 0.5,2.334 l 14,6.334 c 0,0 -0.833,-2.168 2.167,-1.168 3,1 29,13.334 33.5,15.334 4.5,2 12,3.833 18,4.167 6,0.333 33.833,3 33.833,3 0,0 -0.082,2.53 1.54,2.717 1.622,0.187 11.225,1.123 12.536,1.123 1.308,0 1.246,-1.871 1.308,-2.245 0.012,-0.071 0.043,-0.542 0.088,-1.262"
             style="fill:none;stroke:#100f0d;stroke-width:0.25;stroke-linecap:round;stroke-linejoin:round;stroke-miterlimit:4;stroke-dasharray:none;stroke-opacity:1"
             id="path8676"
             inkscape:connector-curvature="0" /></g><g
           id="g8678"
           transform="translate(134.0508,103.6382)"><path
             d="m 0,0 c 0.125,-0.811 0.127,-1.248 1.498,-1.185 1.371,0.062 9.604,0.748 10.352,0.748 0.748,0 2.244,-1.559 3.492,-1.808"
             style="fill:none;stroke:#100f0d;stroke-width:0.25;stroke-linecap:round;stroke-linejoin:round;stroke-miterlimit:4;stroke-dasharray:none;stroke-opacity:1"
             id="path8680"
             inkscape:connector-curvature="0" /></g><g
           id="g8682"
           transform="translate(133.8008,104.6357)"><path
             d="m 0,0 c 0.375,-0.624 0.75,-0.873 1.498,-0.811 0.748,0.063 9.043,0.749 10.289,0.811 1.248,0.062 2.309,-0.561 2.744,-1.06 0.438,-0.499 2.182,-2.308 5.426,-2.058 3.242,0.249 4.178,1.995 4.553,2.494 0.373,0.499 0.998,1.372 2.244,1.497 1.248,0.125 36.861,3.328 48.861,4.453 12,1.125 24,0.25 35.625,-1.875"
             style="fill:none;stroke:#100f0d;stroke-width:0.25;stroke-linecap:round;stroke-linejoin:round;stroke-miterlimit:4;stroke-dasharray:none;stroke-opacity:1"
             id="path8684"
             inkscape:connector-curvature="0" /></g><g
           id="g8686"
           transform="translate(158.416,101.3364)"><path
             d="M 0,0 C 1.875,1 1.25,1.625 2.875,1.875 4.5,2.125 45.75,5.5 55.375,6.125 65,6.75 78.375,5.75 85.5,4"
             style="fill:none;stroke:#100f0d;stroke-width:0.25;stroke-linecap:round;stroke-linejoin:round;stroke-miterlimit:4;stroke-dasharray:none;stroke-opacity:1"
             id="path8688"
             inkscape:connector-curvature="0" /></g><g
           id="g8690"
           transform="translate(-1.5835,61.3369)"><path
             d="m 0,0 c 0,0 18.875,8.75 20,9.25 1.125,0.5 0.875,2.625 0.875,2.625 l 11.625,5 c 0,0 0.375,-1.25 2,-1.125"
             style="fill:none;stroke:#100f0d;stroke-width:0.25;stroke-linecap:round;stroke-linejoin:round;stroke-miterlimit:4;stroke-dasharray:none;stroke-opacity:1"
             id="path8692"
             inkscape:connector-curvature="0" /></g><g
           id="g8694"
           transform="translate(38.2915,78.7119)"><path
             d="m 0,0 c 0,0 22,10.375 26.875,12.375 4.875,2 11,4.5 16,4.625 5,0.125 11.75,0.625 11.75,0.625"
             style="fill:none;stroke:#100f0d;stroke-width:0.25;stroke-linecap:round;stroke-linejoin:round;stroke-miterlimit:4;stroke-dasharray:none;stroke-opacity:1"
             id="path8696"
             inkscape:connector-curvature="0" /></g><g
           id="g8698"
           transform="translate(118.4067,99.395)"><path
             d="m 0,0 c -2.244,-0.226 -4.328,-0.443 -6.087,-0.627 l -3.259,-0.337 c -6.196,-0.62 -19.507,-3.258 -26.397,-5.028 -5.287,-1.36 -10.284,-2.9 -16.611,-4.851 l -7.437,-2.282 c -8.407,-2.554 -19.202,-7.05 -29.103,-11.246"
             style="fill:none;stroke:#100f0d;stroke-width:1.5;stroke-linecap:round;stroke-linejoin:round;stroke-miterlimit:4;stroke-dasharray:none;stroke-opacity:1"
             id="path8700"
             inkscape:connector-curvature="0" /></g><g
           id="g8702"
           transform="translate(195.5801,97.667)"><path
             d="m 0,0 1.143,0.023 c 19.984,0.335 35.789,-1.917 49.74,-7.084 1.035,-0.384 2.187,0.145 2.57,1.181 0.383,1.035 -0.144,2.186 -1.182,2.569 C 37.84,2.036 21.572,4.366 1.076,4.022 L -22.301,3.548 C -37.055,3.222 -49.795,2.939 -54.004,3.207 -56.393,3.358 -60.49,3.162 -65.053,2.819"
             style="fill:none;stroke:#100f0d;stroke-width:1.5;stroke-linecap:round;stroke-linejoin:round;stroke-miterlimit:4;stroke-dasharray:none;stroke-opacity:1"
             id="path8704"
             inkscape:connector-curvature="0" /></g><g
           id="g8706"
           transform="translate(19.3877,70.7041)"><path
             d="m 0,0 c -10.767,-4.785 -16.462,-8.729 -24.314,-15.162 -0.855,-0.701 -0.98,-1.961 -0.28,-2.815 0.7,-0.855 1.96,-0.98 2.815,-0.279 8.447,6.92 14,10.668 26.521,15.951 l 4.301,1.823 c 10.494,4.451 22.389,9.498 31.349,12.22 l 7.451,2.287 c 6.277,1.936 11.234,3.463 16.429,4.799 6.715,1.726 19.938,4.337 25.798,4.922 l 3.278,0.339 c 7.546,0.789 23.249,2.431 28.587,2.092 4.38,-0.278 16.589,-0.007 32.044,0.335 l 19.387,0.394"
             style="fill:none;stroke:#100f0d;stroke-width:1.5;stroke-linecap:round;stroke-linejoin:round;stroke-miterlimit:4;stroke-dasharray:none;stroke-opacity:1"
             id="path8708"
             inkscape:connector-curvature="0" /></g><g
           id="g8710"
           transform="translate(119.7017,89.0596)"><path
             d="m 0,0 c -13.391,-0.994 -26.029,-1.926 -30.489,-2.23 -10.558,-0.719 -13.923,-2.163 -19.496,-4.549 l -1.594,-0.682 c -6.449,-2.728 -70.091,-30.945 -72.797,-32.144 -1.515,-0.672 -2.198,-2.444 -1.527,-3.959 0.672,-1.514 2.444,-2.198 3.959,-1.526 0.291,0.129 13.091,5.803 27.908,12.361"
             style="fill:none;stroke:#100f0d;stroke-width:1.5;stroke-linecap:round;stroke-linejoin:round;stroke-miterlimit:4;stroke-dasharray:none;stroke-opacity:1"
             id="path8712"
             inkscape:connector-curvature="0" /></g><g
           id="g8714"
           transform="translate(131.6133,83.9307)"><path
             d="M 0,0 C 15.215,1.135 28.619,2.143 28.902,2.164 L 28.453,8.147 C 28.172,8.125 14.799,7.121 -0.389,5.988"
             style="fill:none;stroke:#100f0d;stroke-width:1.5;stroke-linecap:round;stroke-linejoin:round;stroke-miterlimit:4;stroke-dasharray:none;stroke-opacity:1"
             id="path8716"
             inkscape:connector-curvature="0" /></g><g
           id="g8718"
           transform="translate(35.312,60.5986)"><path
             d="m 0,0 c 16.202,7.168 32.154,14.209 35.148,15.475 l 1.62,0.691 c 5.327,2.283 8.001,3.428 17.541,4.078 4.473,0.305 17.146,1.238 30.562,2.236"
             style="fill:none;stroke:#100f0d;stroke-width:1.5;stroke-linecap:round;stroke-linejoin:round;stroke-miterlimit:4;stroke-dasharray:none;stroke-opacity:1"
             id="path8720"
             inkscape:connector-curvature="0" /></g><g
           id="g8722"
           transform="translate(36,73.0029)"><path
             d="M 0,0 2,-4"
             style="fill:none;stroke:#100f0d;stroke-width:0.25;stroke-linecap:round;stroke-linejoin:round;stroke-miterlimit:4;stroke-dasharray:none;stroke-opacity:1"
             id="path8724"
             inkscape:connector-curvature="0" /></g><g
           id="g8726"
           transform="translate(40.9165,62.6689)"><path
             d="M 0,0 C 0,0 0.917,-2.334 0.667,-3 0.417,-3.666 0.25,-4.332 0.417,-4.916 0.583,-5.5 0.583,-5.748 0.083,-6.166 c -0.5,-0.416 -11.75,-5.334 -12.166,-5.416 -0.417,-0.084 -0.834,2.25 -2.75,1.166 C -16.75,-11.5 -42,-23.25 -42,-23.25"
             style="fill:none;stroke:#100f0d;stroke-width:0.25;stroke-linecap:round;stroke-linejoin:round;stroke-miterlimit:4;stroke-dasharray:none;stroke-opacity:1"
             id="path8728"
             inkscape:connector-curvature="0" /></g><g
           id="g8730"
           transform="translate(30.833,76.7529)"><path
             d="m 0,0 c 0,0 -0.917,-0.25 -1.917,-0.584 -1,-0.334 -8.836,-3.752 -8.836,-3.752 l -0.569,-1.707 0.519,-1.486 9.427,4.232 c 0,0 -0.594,1.162 -0.148,1.485"
             style="fill:none;stroke:#100f0d;stroke-width:1.5;stroke-linecap:round;stroke-linejoin:round;stroke-miterlimit:4;stroke-dasharray:none;stroke-opacity:1"
             id="path8732"
             inkscape:connector-curvature="0" /></g><g
           id="g8734"
           transform="translate(19.8569,70.7334)"><path
             d="m 0,0 7.72,3.711 c 0,0 0.149,0.891 0.915,1.387"
             style="fill:none;stroke:#100f0d;stroke-width:0.5;stroke-linecap:round;stroke-linejoin:round;stroke-miterlimit:4;stroke-dasharray:none;stroke-opacity:1"
             id="path8736"
             inkscape:connector-curvature="0" /></g><g
           id="g8738"
           transform="translate(27.5767,74.4443)"><path
             d="M 0,0 0.42,-1.187"
             style="fill:none;stroke:#100f0d;stroke-width:0.5;stroke-linecap:round;stroke-linejoin:round;stroke-miterlimit:4;stroke-dasharray:none;stroke-opacity:1"
             id="path8740"
             inkscape:connector-curvature="0" /></g><g
           id="g8742"
           transform="translate(35.125,67.7939)"><path
             d="M 0,0 C -3.208,0.918 -3.042,-1.959 -3.5,-2.25 -3.958,-2.541 -10.75,-5.666 -11.292,-5.875 -11.834,-6.082 -12,-6 -12.25,-5.791 c -0.25,0.207 -1.583,4.125 -1.708,4.416 -0.125,0.293 -0.042,0.791 -0.042,0.791 0,0 7.833,3.334 8.333,3.543 0.5,0.207 3.625,-2.043 4.167,0.125"
             style="fill:none;stroke:#100f0d;stroke-width:1.5;stroke-linecap:round;stroke-linejoin:round;stroke-miterlimit:4;stroke-dasharray:none;stroke-opacity:1"
             id="path8744"
             inkscape:connector-curvature="0" /></g><g
           id="g8746"
           transform="translate(29.458,70.5439)"><path
             d="M 0,0 C -0.125,-0.041 -0.208,-0.291 -0.167,-0.541 -0.125,-0.791 1.084,-4 1.292,-4.416 1.5,-4.834 1.834,-5.25 2.167,-5"
             style="fill:none;stroke:#100f0d;stroke-width:0.5;stroke-linecap:round;stroke-linejoin:round;stroke-miterlimit:4;stroke-dasharray:none;stroke-opacity:1"
             id="path8748"
             inkscape:connector-curvature="0" /></g><g
           id="g8750"
           transform="translate(36.25,61.0029)"><path
             d="M 0,0 C 0,0 -0.542,-0.959 -1.208,-0.543 -1.875,-0.125 -2.417,1.373 -3.292,1.082 -4.167,0.791 -10.875,-2 -11.417,-2.25 c -0.541,-0.25 -0.416,-0.625 -0.291,-0.959 0.125,-0.334 0.416,-1.209 1.208,-1.334 0.792,-0.125 1.333,-1.5 2.375,-1.082 1.042,0.416 7.5,3.291 8.458,3.666 C 1.292,-1.584 1.292,0.5 1.292,0.5"
             style="fill:none;stroke:#100f0d;stroke-width:1.5;stroke-linecap:round;stroke-linejoin:round;stroke-miterlimit:4;stroke-dasharray:none;stroke-opacity:1"
             id="path8752"
             inkscape:connector-curvature="0" /></g><g
           id="g8754"
           transform="translate(33.25,72.1689)"><path
             d="M 0,0 C 0.042,-0.125 0.333,-1.125 0.333,-1.125"
             style="fill:none;stroke:#100f0d;stroke-width:0.5;stroke-linecap:round;stroke-linejoin:round;stroke-miterlimit:4;stroke-dasharray:none;stroke-opacity:1"
             id="path8756"
             inkscape:connector-curvature="0" /></g><g
           id="g8758"
           transform="translate(25.583,56.7529)"><path
             d="M 0,0 7.667,3.125"
             style="fill:none;stroke:#100f0d;stroke-width:0.5;stroke-linecap:round;stroke-linejoin:round;stroke-miterlimit:4;stroke-dasharray:none;stroke-opacity:1"
             id="path8760"
             inkscape:connector-curvature="0" /></g><g
           id="g8762"
           transform="translate(32.7915,61.8779)"><path
             d="M 0,0 C -0.167,-0.25 -0.125,-0.416 -0.042,-0.709 0.042,-1 0.25,-1.875 0.708,-1.959 1.167,-2.043 1.542,-2.084 1.667,-2.25 1.792,-2.418 2.042,-3.291 3.792,-2.834"
             style="fill:none;stroke:#100f0d;stroke-width:0.5;stroke-linecap:round;stroke-linejoin:round;stroke-miterlimit:4;stroke-dasharray:none;stroke-opacity:1"
             id="path8764"
             inkscape:connector-curvature="0" /></g><g
           id="g8766"
           transform="translate(34.4165,72.2119)"><path
             d="M 0,0 2.125,-4.375"
             style="fill:none;stroke:#100f0d;stroke-width:1.5;stroke-linecap:round;stroke-linejoin:round;stroke-miterlimit:4;stroke-dasharray:none;stroke-opacity:1"
             id="path8768"
             inkscape:connector-curvature="0" /></g><g
           id="g8770"
           transform="translate(41.2915,58.7119)"><path
             d="m 0,0 c 0,0 29.875,13.125 32.375,14.375 2.5,1.25 10.75,3.125 16.125,3.25 5.375,0.125 31.375,2.75 31.375,2.75 0,0 0.75,-0.875 1.625,-0.875 0.875,0 11.625,0.75 12.5,1 0.875,0.25 1.375,1.75 1.875,1.75 0.5,0 23.125,1.75 23.75,1.75 0.625,0 2.875,-3.125 5.5,-2.875 2.625,0.25 32.875,3.125 36.75,3.625 3.875,0.5 5.125,2.75 5.125,2.75"
             style="fill:none;stroke:#100f0d;stroke-width:0.25;stroke-linecap:round;stroke-linejoin:round;stroke-miterlimit:4;stroke-dasharray:none;stroke-opacity:1"
             id="path8772"
             inkscape:connector-curvature="0" /></g><g
           id="g8774"
           transform="translate(131.4668,100.4937)"><path
             d="M 0,0 -0.197,2.66 -12.216,1.674 c 0,0 -0.591,-2.462 -0.591,-2.856 0,-0.394 -0.1,-1.774 0.492,-1.675 0.592,0.099 9.901,1.034 10.542,1.133 0.64,0.099 0.492,0.542 0.492,0.985 0,0.443 0,1.478 0.541,0.985"
             style="fill:none;stroke:#100f0d;stroke-width:1.5;stroke-linecap:round;stroke-linejoin:round;stroke-miterlimit:4;stroke-dasharray:none;stroke-opacity:1"
             id="path8776"
             inkscape:connector-curvature="0" /></g><g
           id="g8778"
           transform="translate(119.3989,99.7549)"><path
             d="m 0,0 9.802,1.133 0.246,-1.774"
             style="fill:none;stroke:#100f0d;stroke-width:0.5;stroke-linecap:round;stroke-linejoin:round;stroke-miterlimit:4;stroke-dasharray:none;stroke-opacity:1"
             id="path8780"
             inkscape:connector-curvature="0" /></g><g
           id="g8782"
           transform="translate(129.2012,100.8877)"><path
             d="M 0,0 C 0,0 0.541,2.019 1.182,2.068"
             style="fill:none;stroke:#100f0d;stroke-width:0.5;stroke-linecap:round;stroke-linejoin:round;stroke-miterlimit:4;stroke-dasharray:none;stroke-opacity:1"
             id="path8784"
             inkscape:connector-curvature="0" /></g><g
           id="g8786"
           transform="translate(132.0078,96.6025)"><path
             d="M 0,0 0.492,-6.402"
             style="fill:none;stroke:#100f0d;stroke-width:1.5;stroke-linecap:round;stroke-linejoin:round;stroke-miterlimit:4;stroke-dasharray:none;stroke-opacity:1"
             id="path8788"
             inkscape:connector-curvature="0" /></g><g
           id="g8790"
           transform="translate(132.3027,83.8955)"><path
             d="m 0,0 0,-1.627 -0.541,-0.295 c 0,0 -0.395,-0.639 -0.838,-0.787 -0.443,-0.148 -8.027,-0.789 -8.816,-0.789 -0.787,0 -1.477,0.986 -1.576,1.822 -0.099,0.838 -0.394,1.084 -0.443,1.576 -0.05,0.493 -0.246,0.836 0.147,0.985 0.394,0.148 10.344,1.035 10.688,1.035 0.346,0 0.492,-0.69 0.492,-1.133 0,-0.443 0.1,-1.379 0.297,-1.182"
             style="fill:none;stroke:#100f0d;stroke-width:1.5;stroke-linecap:round;stroke-linejoin:round;stroke-miterlimit:4;stroke-dasharray:none;stroke-opacity:1"
             id="path8792"
             inkscape:connector-curvature="0" /></g><g
           id="g8794"
           transform="translate(120.728,83.2041)"><path
             d="M 0,0 10.442,1.133"
             style="fill:none;stroke:#100f0d;stroke-width:0.5;stroke-linecap:round;stroke-linejoin:round;stroke-miterlimit:4;stroke-dasharray:none;stroke-opacity:1"
             id="path8796"
             inkscape:connector-curvature="0" /></g><g
           id="g8798"
           transform="translate(131.416,94.583)"><path
             d="m 0,0 c -0.344,-0.197 -0.346,1.182 -0.984,1.182 -0.641,0 -9.802,-0.936 -10.344,-0.985 -0.542,-0.05 -0.591,-0.542 -0.591,-0.986 0,-0.443 0,-3.445 0.098,-4.037 0.099,-0.592 0.443,-1.381 1.034,-1.281 0.592,0.097 9.754,0.738 10.098,0.787 0.345,0.05 0.394,1.625 0.74,1.822"
             style="fill:none;stroke:#100f0d;stroke-width:1.5;stroke-linecap:round;stroke-linejoin:round;stroke-miterlimit:4;stroke-dasharray:none;stroke-opacity:1"
             id="path8800"
             inkscape:connector-curvature="0" /></g><g
           id="g8802"
           transform="translate(130.5293,95.5679)"><path
             d="m 0,0 c -0.295,0 -0.492,0.197 -0.393,-0.542 0.098,-0.738 0.344,-4.63 0.344,-4.63 l 0.246,-0.787"
             style="fill:none;stroke:#100f0d;stroke-width:0.5;stroke-linecap:round;stroke-linejoin:round;stroke-miterlimit:4;stroke-dasharray:none;stroke-opacity:1"
             id="path8804"
             inkscape:connector-curvature="0" /></g><g
           id="g8806"
           transform="translate(156.6348,106.3057)"><path
             d="m 0,0 c 0,-1.958 -1.586,-3.546 -3.545,-3.546 -1.959,0 -3.547,1.588 -3.547,3.546 0,1.958 1.588,3.546 3.547,3.546 C -1.586,3.546 0,1.958 0,0 Z"
             style="fill:none;stroke:#100f0d;stroke-width:0.25;stroke-linecap:round;stroke-linejoin:round;stroke-miterlimit:4;stroke-dasharray:none;stroke-opacity:1"
             id="path8808"
             inkscape:connector-curvature="0" /></g><g
           id="g8810"
           transform="translate(155.5566,106.6001)"><path
             d="m 0,0 c 0,-1.363 -1.104,-2.468 -2.467,-2.468 -1.365,0 -2.469,1.105 -2.469,2.468 0,1.363 1.104,2.468 2.469,2.468 C -1.104,2.468 0,1.363 0,0 Z"
             style="fill:none;stroke:#100f0d;stroke-width:0.5;stroke-linecap:round;stroke-linejoin:round;stroke-miterlimit:4;stroke-dasharray:none;stroke-opacity:1"
             id="path8812"
             inkscape:connector-curvature="0" /></g><g
           id="g8814"
           transform="translate(88.6353,67.9717)"><path
             d="m 0,0 c 0,-1.959 -1.587,-3.547 -3.546,-3.547 -1.959,0 -3.546,1.588 -3.546,3.547 0,1.959 1.587,3.547 3.546,3.547 C -1.587,3.547 0,1.959 0,0 Z"
             style="fill:none;stroke:#100f0d;stroke-width:0.25;stroke-linecap:round;stroke-linejoin:round;stroke-miterlimit:4;stroke-dasharray:none;stroke-opacity:1"
             id="path8816"
             inkscape:connector-curvature="0" /></g><g
           id="g8818"
           transform="translate(83.2554,69.9189)"><path
             d="m 0,0 c 0.452,0.5 1.106,0.814 1.834,0.814 1.364,0 2.468,-1.103 2.468,-2.466 0,-0.881 -0.46,-1.655 -1.154,-2.09"
             style="fill:none;stroke:#100f0d;stroke-width:0.5;stroke-linecap:round;stroke-linejoin:round;stroke-miterlimit:4;stroke-dasharray:none;stroke-opacity:1"
             id="path8820"
             inkscape:connector-curvature="0" /></g><g
           id="g8822"
           transform="translate(86.4038,66.1768)"><path
             d="m 0,0 c -0.38,-0.24 -0.831,-0.379 -1.314,-0.379 -1.365,0 -2.468,1.106 -2.468,2.469 0,0.635 0.24,1.215 0.634,1.652"
             style="fill:none;stroke:#100f0d;stroke-width:0.25;stroke-linecap:round;stroke-linejoin:round;stroke-miterlimit:4;stroke-dasharray:none;stroke-opacity:1"
             id="path8824"
             inkscape:connector-curvature="0" /></g><g
           id="g8826"
           transform="translate(87.2451,67.2959)"><path
             d="m 0,0 c -0.093,-0.012 -0.188,-0.018 -0.284,-0.018 -1.364,0 -2.467,1.106 -2.467,2.469 0,0.287 0.048,0.563 0.138,0.819"
             style="fill:none;stroke:#100f0d;stroke-width:0.5;stroke-linecap:round;stroke-linejoin:round;stroke-miterlimit:4;stroke-dasharray:none;stroke-opacity:1"
             id="path8828"
             inkscape:connector-curvature="0" /></g><g
           id="g8830"
           transform="translate(165.5508,86.4053)"><path
             d="m 0,0 c 0.166,-1.113 2.32,-0.727 2.32,-0.727 l 0.721,-1.851 4.369,0.285 0.049,0.514 2.881,0.187 -0.049,-0.513 17.348,1.13 3.086,-0.357 -0.985,13.201 -3,-0.813 L 9.418,9.601 9.543,9.101 6.666,8.859 6.541,9.359 2.178,8.994 1.74,7.056 c 0,0 -2.187,0.063 -2.187,-1.062 L 0,0 Z"
             style="fill:none;stroke:#100f0d;stroke-width:1.5;stroke-linecap:round;stroke-linejoin:round;stroke-miterlimit:4;stroke-dasharray:none;stroke-opacity:1"
             id="path8832"
             inkscape:connector-curvature="0" /></g><g
           id="g8834"
           transform="translate(164.9785,91.8364)"><path
             d="M 0,0 -4.562,-0.375"
             style="fill:none;stroke:#100f0d;stroke-width:1.5;stroke-linecap:round;stroke-linejoin:round;stroke-miterlimit:4;stroke-dasharray:none;stroke-opacity:1"
             id="path8836"
             inkscape:connector-curvature="0" /></g><g
           id="g8838"
           transform="translate(165.2285,86.8369)"><path
             d="M 0,0 -4.562,-0.375"
             style="fill:none;stroke:#100f0d;stroke-width:1.5;stroke-linecap:round;stroke-linejoin:round;stroke-miterlimit:4;stroke-dasharray:none;stroke-opacity:1"
             id="path8840"
             inkscape:connector-curvature="0" /></g><g
           id="g8842"
           transform="translate(171.8535,95.7739)"><path
             d="M 0,0 0.937,-11.187"
             style="fill:none;stroke:#100f0d;stroke-width:0.5;stroke-linecap:round;stroke-linejoin:round;stroke-miterlimit:4;stroke-dasharray:none;stroke-opacity:1"
             id="path8844"
             inkscape:connector-curvature="0" /></g><g
           id="g8846"
           transform="translate(175.1035,95.7739)"><path
             d="M 0,0 0.937,-11.187"
             style="fill:none;stroke:#100f0d;stroke-width:0.5;stroke-linecap:round;stroke-linejoin:round;stroke-miterlimit:4;stroke-dasharray:none;stroke-opacity:1"
             id="path8848"
             inkscape:connector-curvature="0" /></g><g
           id="g8850"
           transform="translate(168.041,95.1489)"><path
             d="M 0,0 0.875,-10.937"
             style="fill:none;stroke:#100f0d;stroke-width:0.5;stroke-linecap:round;stroke-linejoin:round;stroke-miterlimit:4;stroke-dasharray:none;stroke-opacity:1"
             id="path8852"
             inkscape:connector-curvature="0" /></g><g
           id="g8854"
           transform="translate(175.5781,93.8833)"><path
             d="m 0,0 16.838,1.287 0,0.583"
             style="fill:none;stroke:#100f0d;stroke-width:0.5;stroke-linecap:round;stroke-linejoin:round;stroke-miterlimit:4;stroke-dasharray:none;stroke-opacity:1"
             id="path8856"
             inkscape:connector-curvature="0" /></g><g
           id="g8858"
           transform="translate(167.291,93.4614)"><path
             d="m 0,0 0.625,-7.5 0.5,7.375 3.41,0.26"
             style="fill:none;stroke:#100f0d;stroke-width:0.5;stroke-linecap:round;stroke-linejoin:round;stroke-miterlimit:4;stroke-dasharray:none;stroke-opacity:1"
             id="path8860"
             inkscape:connector-curvature="0" /></g><g
           id="g8862"
           transform="translate(176.166,87.6611)"><path
             d="m 0,0 16.75,1.342 0,-0.666"
             style="fill:none;stroke:#100f0d;stroke-width:0.5;stroke-linecap:round;stroke-linejoin:round;stroke-miterlimit:4;stroke-dasharray:none;stroke-opacity:1"
             id="path8864"
             inkscape:connector-curvature="0" /></g><g
           id="g8866"
           transform="translate(169,87.0869)"><path
             d="M 0,0 3.504,0.281"
             style="fill:none;stroke:#100f0d;stroke-width:0.5;stroke-linecap:round;stroke-linejoin:round;stroke-miterlimit:4;stroke-dasharray:none;stroke-opacity:1"
             id="path8868"
             inkscape:connector-curvature="0" /></g><g
           id="g8870"
           transform="translate(161.582,92.5034)"><path
             d="M 0,0 C 0,0 -1.248,3.833 1.084,4.083"
             style="fill:none;stroke:#100f0d;stroke-width:0.25;stroke-linecap:round;stroke-linejoin:round;stroke-miterlimit:4;stroke-dasharray:none;stroke-opacity:1"
             id="path8872"
             inkscape:connector-curvature="0" /></g><g
           id="g8874"
           transform="translate(207.166,96.0029)"><path
             d="M 0,0 -0.084,1.667"
             style="fill:none;stroke:#100f0d;stroke-width:0.25;stroke-linecap:round;stroke-linejoin:round;stroke-miterlimit:4;stroke-dasharray:none;stroke-opacity:1"
             id="path8876"
             inkscape:connector-curvature="0" /></g><g
           id="g8878"
           transform="translate(195.75,95.7529)"><path
             d="M 0,0 C 18.834,0.75 38.75,-2.333 48.334,-5.334"
             style="fill:none;stroke:#100f0d;stroke-width:1.5;stroke-linecap:round;stroke-linejoin:round;stroke-miterlimit:4;stroke-dasharray:none;stroke-opacity:1"
             id="path8880"
             inkscape:connector-curvature="0" /></g><g
           id="g8882"
           transform="translate(196.416,87.3369)"><path
             d="M 0,0 C 13.25,0.666 32.584,-0.334 47,-7"
             style="fill:none;stroke:#100f0d;stroke-width:1.5;stroke-linecap:round;stroke-linejoin:round;stroke-miterlimit:4;stroke-dasharray:none;stroke-opacity:1"
             id="path8884"
             inkscape:connector-curvature="0" /></g></g></g><g
       id="g8886"
       transform="translate(105.8555,82.0869)"><path
         d="M 0,0 6.311,-38"
         style="fill:none;stroke:#ffffff;stroke-width:3;stroke-linecap:round;stroke-linejoin:round;stroke-miterlimit:4;stroke-dasharray:none;stroke-opacity:1"
         id="path8888"
         inkscape:connector-curvature="0" /></g><g
       id="g8890"><g
         id="g8892"
         clip-path="url(#clipPath8894)"><g
           id="g8898"
           transform="translate(105.7334,80.8525)"><path
             d="M 0,0 C 0.681,0 1.233,0.553 1.233,1.234 1.233,1.916 0.681,2.467 0,2.467 -0.681,2.467 -1.233,1.916 -1.233,1.234 -1.233,0.553 -0.681,0 0,0"
             style="fill:#231f20;fill-opacity:1;fill-rule:nonzero;stroke:none"
             id="path8900"
             inkscape:connector-curvature="0" /></g><g
           id="g8902"
           transform="translate(105.7334,80.8525)"><path
             d="M 0,0 C 0.681,0 1.233,0.553 1.233,1.234 1.233,1.916 0.681,2.467 0,2.467 -0.681,2.467 -1.233,1.916 -1.233,1.234 -1.233,0.553 -0.681,0 0,0 Z"
             style="fill:none;stroke:#ffffff;stroke-width:1;stroke-linecap:butt;stroke-linejoin:miter;stroke-miterlimit:4;stroke-dasharray:none;stroke-opacity:1"
             id="path8904"
             inkscape:connector-curvature="0" /></g><g
           id="g8906"
           transform="translate(105.8555,82.0869)"><path
             d="M 0,0 6.311,-38"
             style="fill:none;stroke:#231f20;stroke-width:0.5;stroke-linecap:round;stroke-linejoin:round;stroke-miterlimit:4;stroke-dasharray:none;stroke-opacity:1"
             id="path8908"
             inkscape:connector-curvature="0" /></g><g
           id="g8910"
           transform="translate(189.5,100.0864)"><path
             d="M 0,0 6.332,25.666"
             style="fill:none;stroke:#ffffff;stroke-width:3;stroke-linecap:round;stroke-linejoin:round;stroke-miterlimit:4;stroke-dasharray:none;stroke-opacity:1"
             id="path8912"
             inkscape:connector-curvature="0" /></g><g
           id="g8914"
           transform="translate(189.377,98.8521)"><path
             d="M 0,0 C 0.682,0 1.234,0.553 1.234,1.234 1.234,1.916 0.682,2.467 0,2.467 -0.68,2.467 -1.232,1.916 -1.232,1.234 -1.232,0.553 -0.68,0 0,0"
             style="fill:#231f20;fill-opacity:1;fill-rule:nonzero;stroke:none"
             id="path8916"
             inkscape:connector-curvature="0" /></g><g
           id="g8918"
           transform="translate(189.377,98.8521)"><path
             d="M 0,0 C 0.682,0 1.234,0.553 1.234,1.234 1.234,1.916 0.682,2.467 0,2.467 -0.68,2.467 -1.232,1.916 -1.232,1.234 -1.232,0.553 -0.68,0 0,0 Z"
             style="fill:none;stroke:#ffffff;stroke-width:1;stroke-linecap:butt;stroke-linejoin:miter;stroke-miterlimit:4;stroke-dasharray:none;stroke-opacity:1"
             id="path8920"
             inkscape:connector-curvature="0" /></g><g
           id="g8922"
           transform="translate(189.5,100.0864)"><path
             d="M 0,0 6.332,25.666"
             style="fill:none;stroke:#231f20;stroke-width:0.5;stroke-linecap:round;stroke-linejoin:round;stroke-miterlimit:4;stroke-dasharray:none;stroke-opacity:1"
             id="path8924"
             inkscape:connector-curvature="0" /></g><g
           id="g8926"
           transform="translate(120.8335,102.0864)"><path
             d="M 0,0 -52.333,32.667"
             style="fill:none;stroke:#ffffff;stroke-width:3;stroke-linecap:round;stroke-linejoin:round;stroke-miterlimit:4;stroke-dasharray:none;stroke-opacity:1"
             id="path8928"
             inkscape:connector-curvature="0" /></g><g
           id="g8930"
           transform="translate(120.7114,100.8521)"><path
             d="M 0,0 C 0.681,0 1.234,0.553 1.234,1.234 1.234,1.916 0.681,2.467 0,2.467 -0.681,2.467 -1.233,1.916 -1.233,1.234 -1.233,0.553 -0.681,0 0,0"
             style="fill:#231f20;fill-opacity:1;fill-rule:nonzero;stroke:none"
             id="path8932"
             inkscape:connector-curvature="0" /></g><g
           id="g8934"
           transform="translate(120.7114,100.8521)"><path
             d="M 0,0 C 0.681,0 1.234,0.553 1.234,1.234 1.234,1.916 0.681,2.467 0,2.467 -0.681,2.467 -1.233,1.916 -1.233,1.234 -1.233,0.553 -0.681,0 0,0 Z"
             style="fill:none;stroke:#ffffff;stroke-width:1;stroke-linecap:butt;stroke-linejoin:miter;stroke-miterlimit:4;stroke-dasharray:none;stroke-opacity:1"
             id="path8936"
             inkscape:connector-curvature="0" /></g><g
           id="g8938"
           transform="translate(30.1665,77.7529)"><path
             d="M 0,0 38.333,57"
             style="fill:none;stroke:#ffffff;stroke-width:3;stroke-linecap:round;stroke-linejoin:round;stroke-miterlimit:4;stroke-dasharray:none;stroke-opacity:1"
             id="path8940"
             inkscape:connector-curvature="0" /></g><g
           id="g8942"
           transform="translate(120.8335,102.0864)"><path
             d="M 0,0 -52.333,32.667"
             style="fill:none;stroke:#231f20;stroke-width:0.5;stroke-linecap:round;stroke-linejoin:round;stroke-miterlimit:4;stroke-dasharray:none;stroke-opacity:1"
             id="path8944"
             inkscape:connector-curvature="0" /></g><g
           id="g8946"
           transform="translate(30.0444,76.5186)"><path
             d="M 0,0 C 0.681,0 1.233,0.553 1.233,1.234 1.233,1.916 0.681,2.467 0,2.467 -0.681,2.467 -1.233,1.916 -1.233,1.234 -1.233,0.553 -0.681,0 0,0"
             style="fill:#231f20;fill-opacity:1;fill-rule:nonzero;stroke:none"
             id="path8948"
             inkscape:connector-curvature="0" /></g><g
           id="g8950"
           transform="translate(30.0444,76.5186)"><path
             d="M 0,0 C 0.681,0 1.233,0.553 1.233,1.234 1.233,1.916 0.681,2.467 0,2.467 -0.681,2.467 -1.233,1.916 -1.233,1.234 -1.233,0.553 -0.681,0 0,0 Z"
             style="fill:none;stroke:#ffffff;stroke-width:1;stroke-linecap:butt;stroke-linejoin:miter;stroke-miterlimit:4;stroke-dasharray:none;stroke-opacity:1"
             id="path8952"
             inkscape:connector-curvature="0" /></g><g
           id="g8954"
           transform="translate(30.1665,77.7529)"><path
             d="M 0,0 38.333,57"
             style="fill:none;stroke:#231f20;stroke-width:0.5;stroke-linecap:round;stroke-linejoin:round;stroke-miterlimit:4;stroke-dasharray:none;stroke-opacity:1"
             id="path8956"
             inkscape:connector-curvature="0" /></g></g></g><text
       transform="matrix(1,0,0,-1,109.501,32.2568)"
       style="font-variant:normal;font-weight:bold;font-stretch:normal;font-size:12px;font-family:'Swiss 721 SWA';-inkscape-font-specification:Helvetica-Bold;writing-mode:lr-tb;fill:#231f20;fill-opacity:1;fill-rule:nonzero;stroke:none"
       id="text8958"><tspan
         x="0"
         y="0"
         id="tspan8960">1</tspan><tspan
         x="84.335999"
         y="-96.996002"
         id="tspan8962">2</tspan><tspan
         x="-44.664001"
         y="-104.664"
         id="tspan8964">3</tspan></text>
<text
       transform="matrix(1,0,0,-1,3.8359,2.6924)"
       style="font-variant:normal;font-weight:normal;font-stretch:normal;font-size:5px;font-family:'Swiss 721 SWA';-inkscape-font-specification:Helvetica;writing-mode:lr-tb;fill:#231f20;fill-opacity:1;fill-rule:nonzero;stroke:none"
       id="text8966"><tspan
         x="0 2.5 5.2800002 8.8900003"
         y="0"
         sodipodi:role="line"
         id="tspan8968">cgwn</tspan></text>
</g></svg>