<?xml version="1.0" encoding="UTF-8" standalone="no"?>
<svg
   xmlns:dc="http://purl.org/dc/elements/1.1/"
   xmlns:cc="http://creativecommons.org/ns#"
   xmlns:rdf="http://www.w3.org/1999/02/22-rdf-syntax-ns#"
   xmlns:svg="http://www.w3.org/2000/svg"
   xmlns="http://www.w3.org/2000/svg"
   viewBox="0 0 301.18124 230.315"
   height="230.315"
   width="301.18124"
   xml:space="preserve"
   version="1.1"
   id="svg2"><metadata
     id="metadata8"><rdf:RDF><cc:Work
         rdf:about=""><dc:format>image/svg+xml</dc:format><dc:type
           rdf:resource="http://purl.org/dc/dcmitype/StillImage" /></cc:Work></rdf:RDF></metadata><defs
     id="defs6"><clipPath
       id="clipPath16"
       clipPathUnits="userSpaceOnUse"><path
         id="path18"
         d="m 0,0 240.945,0 0,184.252 L 0,184.252 0,0 Z" /></clipPath><clipPath
       id="clipPath148"
       clipPathUnits="userSpaceOnUse"><path
         id="path150"
         d="m 137.965,23.583 c 0,-1.194 1.861,-2.16 4.157,-2.16 l 0,0 c 2.296,0 4.158,0.966 4.158,2.16 l 0,0 c 0,1.193 -1.862,2.161 -4.158,2.161 l 0,0 c -2.296,0 -4.157,-0.968 -4.157,-2.161" /></clipPath><clipPath
       id="clipPath168"
       clipPathUnits="userSpaceOnUse"><path
         id="path170"
         d="m 0,0 240.945,0 0,184.252 L 0,184.252 0,0 Z" /></clipPath></defs><g
     transform="matrix(1.25,0,0,-1.25,0,230.315)"
     id="g10"><g
       id="g12"><g
         clip-path="url(#clipPath16)"
         id="g14"><g
           transform="translate(149.8955,76.6221)"
           id="g20"><path
             id="path22"
             style="fill:none;stroke:#000000;stroke-width:0.5;stroke-linecap:round;stroke-linejoin:round;stroke-miterlimit:10;stroke-dasharray:none;stroke-opacity:1"
             d="m 0,0 c 0,-2.23 -3.48,-4.038 -7.773,-4.038 -4.293,0 -7.774,1.808 -7.774,4.038" /></g><g
           transform="translate(134.3486,76.6221)"
           id="g24"><path
             id="path26"
             style="fill:none;stroke:#000000;stroke-width:0.25;stroke-linecap:round;stroke-linejoin:round;stroke-miterlimit:10;stroke-dasharray:none;stroke-opacity:1"
             d="m 0,0 c 0,2.231 3.48,4.039 7.773,4.039 4.293,0 7.774,-1.808 7.774,-4.039" /></g><g
           transform="translate(137.9707,144.0205)"
           id="g28"><path
             id="path30"
             style="fill:none;stroke:#000000;stroke-width:0.5;stroke-linecap:round;stroke-linejoin:round;stroke-miterlimit:10;stroke-dasharray:none;stroke-opacity:1"
             d="m 0,0 0,-10.953 c 0,-1.192 1.859,-2.157 4.151,-2.157 2.292,0 4.152,0.965 4.152,2.157 l 0,10.894" /></g><g
           transform="translate(146.2734,134.8335)"
           id="g32"><path
             id="path34"
             style="fill:none;stroke:#000000;stroke-width:0.25;stroke-linecap:round;stroke-linejoin:round;stroke-miterlimit:10;stroke-dasharray:none;stroke-opacity:1"
             d="m 0,0 c 0,-1.191 -1.859,-2.157 -4.151,-2.157 -2.292,0 -4.152,0.966 -4.152,2.157" /></g><g
           transform="translate(146.2734,136.3081)"
           id="g36"><path
             id="path38"
             style="fill:none;stroke:#000000;stroke-width:0.25;stroke-linecap:round;stroke-linejoin:round;stroke-miterlimit:10;stroke-dasharray:none;stroke-opacity:1"
             d="m 0,0 c 0,-1.191 -1.859,-2.157 -4.151,-2.157 -2.292,0 -4.152,0.966 -4.152,2.157" /></g><g
           transform="translate(146.2734,137.7832)"
           id="g40"><path
             id="path42"
             style="fill:none;stroke:#000000;stroke-width:0.25;stroke-linecap:round;stroke-linejoin:round;stroke-miterlimit:10;stroke-dasharray:none;stroke-opacity:1"
             d="m 0,0 c 0,-1.192 -1.859,-2.157 -4.151,-2.157 -2.292,0 -4.152,0.965 -4.152,2.157" /></g><g
           transform="translate(146.2734,139.2578)"
           id="g44"><path
             id="path46"
             style="fill:none;stroke:#000000;stroke-width:0.25;stroke-linecap:round;stroke-linejoin:round;stroke-miterlimit:10;stroke-dasharray:none;stroke-opacity:1"
             d="m 0,0 c 0,-1.191 -1.859,-2.157 -4.152,-2.157 -2.291,0 -4.151,0.966 -4.151,2.157" /></g><g
           transform="translate(146.2734,140.7324)"
           id="g48"><path
             id="path50"
             style="fill:none;stroke:#000000;stroke-width:0.25;stroke-linecap:round;stroke-linejoin:round;stroke-miterlimit:10;stroke-dasharray:none;stroke-opacity:1"
             d="m 0,0 c 0,-1.192 -1.859,-2.157 -4.151,-2.157 -2.292,0 -4.152,0.965 -4.152,2.157" /></g><g
           transform="translate(146.2734,142.2065)"
           id="g52"><path
             id="path54"
             style="fill:none;stroke:#000000;stroke-width:0.25;stroke-linecap:round;stroke-linejoin:round;stroke-miterlimit:10;stroke-dasharray:none;stroke-opacity:1"
             d="m 0,0 c 0,-1.192 -1.859,-2.157 -4.151,-2.157 -2.292,0 -4.152,0.965 -4.152,2.157" /></g><g
           transform="translate(146.2734,143.6812)"
           id="g56"><path
             id="path58"
             style="fill:none;stroke:#000000;stroke-width:0.25;stroke-linecap:round;stroke-linejoin:round;stroke-miterlimit:10;stroke-dasharray:none;stroke-opacity:1"
             d="m 0,0 c 0,-1.191 -1.859,-2.157 -4.151,-2.157 -2.292,0 -4.152,0.966 -4.152,2.157" /></g><g
           transform="translate(136.4043,169.6299)"
           id="g60"><path
             id="path62"
             style="fill:none;stroke:#000000;stroke-width:0.5;stroke-linecap:round;stroke-linejoin:round;stroke-miterlimit:10;stroke-dasharray:none;stroke-opacity:1"
             d="m 0,0 0,-23.439 c 0,-1.641 2.561,-2.97 5.718,-2.97 3.157,0 5.718,1.329 5.718,2.97 l 0,23.026" /></g><g
           transform="translate(149.8057,174.3228)"
           id="g64"><path
             id="path66"
             style="fill:none;stroke:#000000;stroke-width:0.25;stroke-linecap:round;stroke-linejoin:round;stroke-miterlimit:10;stroke-dasharray:none;stroke-opacity:1"
             d="m 0,0 c 0,-2.205 -3.441,-3.992 -7.684,-3.992 -4.243,0 -7.683,1.787 -7.683,3.992" /></g><g
           transform="translate(147.1934,170.3311)"
           id="g68"><path
             id="path70"
             style="fill:none;stroke:#000000;stroke-width:0.5;stroke-linecap:round;stroke-linejoin:round;stroke-miterlimit:10;stroke-dasharray:none;stroke-opacity:1"
             d="M 0,0 0,0.995 -1.302,2.64 -9.025,7.179 -10.269,6.932 c -1.528,-0.729 -2.486,-1.776 -2.486,-2.94 l 0,-2.032 c 0,-2.204 3.441,-3.991 7.684,-3.991 4.242,0 7.683,1.787 7.683,3.991 l 0,2.032 c 0,2.205 -3.441,3.992 -7.683,3.992 C -6.319,7.983 -7.498,7.829 -8.54,7.555 L -9.47,7.091" /></g><g
           transform="translate(146.9395,173.5723)"
           id="g72"><path
             id="path74"
             style="fill:none;stroke:#000000;stroke-width:0.25;stroke-linecap:round;stroke-linejoin:round;stroke-miterlimit:10;stroke-dasharray:none;stroke-opacity:1"
             d="m 0,0 c 0.642,0.487 1.018,1.076 1.018,1.711 0,1.675 -2.614,3.032 -5.835,3.032 -1.064,0 -2.062,-0.148 -2.92,-0.407 L 0,0 Z" /></g><g
           transform="translate(145.8926,172.9697)"
           id="g76"><path
             id="path78"
             style="fill:none;stroke:#000000;stroke-width:0.25;stroke-linecap:round;stroke-linejoin:round;stroke-miterlimit:10;stroke-dasharray:none;stroke-opacity:1"
             d="m 0,0 c -1.017,-0.447 -2.333,-0.717 -3.771,-0.717 -3.221,0 -5.833,1.357 -5.833,3.03 0,0.882 0.723,1.675 1.878,2.229" /></g><g
           transform="translate(170.8867,127.4707)"
           id="g80"><path
             id="path82"
             style="fill:none;stroke:#000000;stroke-width:0.25;stroke-linecap:round;stroke-linejoin:round;stroke-miterlimit:10;stroke-dasharray:none;stroke-opacity:1"
             d="M 0,0 C 0.469,-2.764 -6.02,-6.167 -14.487,-7.604 -22.956,-9.039 -30.2,-7.963 -30.67,-5.199" /></g><g
           transform="translate(149.3799,128.6484)"
           id="g84"><path
             id="path86"
             style="fill:none;stroke:#000000;stroke-width:0.5;stroke-linecap:round;stroke-linejoin:round;stroke-miterlimit:10;stroke-dasharray:none;stroke-opacity:1"
             d="m 0,0 c -5.696,-1.697 -9.527,-4.23 -9.163,-6.377 l 0.416,-1.771" /></g><g
           transform="translate(158.3105,124.9116)"
           id="g88"><path
             id="path90"
             style="fill:none;stroke:#000000;stroke-width:0.25;stroke-linecap:round;stroke-linejoin:round;stroke-miterlimit:10;stroke-dasharray:none;stroke-opacity:1"
             d="m 0,0 c -0.729,-0.244 -1.557,-0.451 -2.441,-0.601 -3.171,-0.538 -5.884,-0.135 -6.06,0.9" /></g><g
           transform="translate(134.96,75.2773)"
           id="g92"><path
             id="path94"
             style="fill:none;stroke:#000000;stroke-width:0.25;stroke-linecap:round;stroke-linejoin:round;stroke-miterlimit:10;stroke-dasharray:none;stroke-opacity:1"
             d="m 0,0 c 1.18,1.449 3.942,2.467 7.162,2.467 3.219,0 5.981,-1.016 7.161,-2.465" /></g><g
           transform="translate(136.6221,74.0264)"
           id="g96"><path
             id="path98"
             style="fill:none;stroke:#000000;stroke-width:0.25;stroke-linecap:round;stroke-linejoin:round;stroke-miterlimit:10;stroke-dasharray:none;stroke-opacity:1"
             d="m 0,0 c 0.308,1.437 2.653,2.555 5.5,2.555 2.852,0 5.198,-1.119 5.501,-2.561" /></g><g
           transform="translate(187.29,130.481)"
           id="g100"><path
             id="path102"
             style="fill:none;stroke:#000000;stroke-width:0.25;stroke-linecap:round;stroke-linejoin:round;stroke-miterlimit:10;stroke-dasharray:none;stroke-opacity:1"
             d="m 0,0 c -1.696,-0.313 -3.506,1.788 -4.041,4.691 -0.535,2.902 0.408,5.51 2.104,5.822" /></g><g
           transform="translate(183.04,140.4941)"
           id="g104"><path
             id="path106"
             style="fill:none;stroke:#000000;stroke-width:0.5;stroke-linecap:round;stroke-linejoin:round;stroke-miterlimit:10;stroke-dasharray:none;stroke-opacity:1"
             d="M 0,0 2.313,0.5 C 4.012,0.813 5.819,-1.288 6.355,-4.19 6.89,-7.094 5.948,-9.701 4.25,-10.013 l -2.313,-0.5" /></g><g
           transform="translate(184.9775,129.981)"
           id="g108"><path
             id="path110"
             style="fill:none;stroke:#000000;stroke-width:0.25;stroke-linecap:round;stroke-linejoin:round;stroke-miterlimit:10;stroke-dasharray:none;stroke-opacity:1"
             d="m 0,0 c -1.696,-0.313 -3.506,1.788 -4.041,4.691 -0.535,2.902 0.408,5.51 2.104,5.822" /></g><g
           transform="translate(184.457,129.5684)"
           id="g112"><path
             id="path114"
             style="fill:none;stroke:#000000;stroke-width:0.5;stroke-linecap:round;stroke-linejoin:round;stroke-miterlimit:10;stroke-dasharray:none;stroke-opacity:1"
             d="m 0,0 c -0.624,-0.708 -1.416,-1.194 -2.328,-1.362 -2.693,-0.497 -5.407,1.982 -6.062,5.534 -0.656,3.551 0.999,6.835 3.691,7.331 0.911,0.168 1.824,-0.004 2.658,-0.442" /></g><g
           transform="translate(185.7754,138.7056)"
           id="g116"><path
             id="path118"
             style="fill:none;stroke:#000000;stroke-width:0.25;stroke-linecap:round;stroke-linejoin:round;stroke-miterlimit:10;stroke-dasharray:none;stroke-opacity:1"
             d="M 0,0 C 0.959,0.177 1.979,-1.009 2.282,-2.648 2.584,-4.288 2.053,-5.76 1.094,-5.936" /></g><g
           transform="translate(186.8691,132.7695)"
           id="g120"><path
             id="path122"
             style="fill:none;stroke:#000000;stroke-width:0.5;stroke-linecap:round;stroke-linejoin:round;stroke-miterlimit:10;stroke-dasharray:none;stroke-opacity:1"
             d="m 0,0 c -0.958,-0.177 -1.98,1.009 -2.282,2.648 -0.302,1.639 0.23,3.112 1.188,3.288" /></g><g
           transform="translate(166.1016,94.375)"
           id="g124"><path
             id="path126"
             style="fill:none;stroke:#000000;stroke-width:0.25;stroke-linecap:round;stroke-linejoin:round;stroke-miterlimit:10;stroke-dasharray:none;stroke-opacity:1"
             d="m 0,0 c 0.011,-0.375 -0.156,-0.792 -0.406,-1.208 -0.5,-0.834 -11.743,-18.42 -11.743,-18.42 -1.545,-2.634 -6.257,-4.549 -11.83,-4.549 -4.008,0 -7.572,0.99 -9.832,2.527 l -21.345,13.108" /></g><g
           transform="translate(146.2793,47.625)"
           id="g128"><path
             id="path130"
             style="fill:none;stroke:#000000;stroke-width:0.5;stroke-linecap:round;stroke-linejoin:round;stroke-miterlimit:10;stroke-dasharray:none;stroke-opacity:1"
             d="m 0,0 c 0,-1.193 -1.861,-2.16 -4.157,-2.16 -2.269,0 -4.114,0.943 -4.157,2.118" /></g><g
           transform="translate(137.9648,47.583)"
           id="g132"><path
             id="path134"
             style="fill:none;stroke:#000000;stroke-width:0.25;stroke-linecap:round;stroke-linejoin:round;stroke-miterlimit:10;stroke-dasharray:none;stroke-opacity:1"
             d="m 0,0 0,0.042 c 0,1.193 1.861,2.16 4.157,2.16 2.296,0 4.157,-0.967 4.157,-2.16" /></g><g
           transform="translate(159.4453,54.917)"
           id="g136"><path
             id="path138"
             style="fill:none;stroke:#000000;stroke-width:0.25;stroke-linecap:round;stroke-linejoin:round;stroke-miterlimit:10;stroke-dasharray:none;stroke-opacity:1"
             d="m 0,0 -5.484,-9.252 c -1.596,-2.607 -6.292,-4.495 -11.839,-4.495 -6.86,0 -12.422,2.889 -12.422,6.455 0,0.209 0.018,0.415 0.056,0.619 l -4.936,3.131 0,8.125 -2.5,1.5 -1.792,0 -1.458,0.625" /></g><g
           transform="translate(138.4219,46.7598)"
           id="g140"><path
             id="path142"
             style="fill:none;stroke:#000000;stroke-width:0.25;stroke-linecap:round;stroke-linejoin:round;stroke-miterlimit:10;stroke-dasharray:none;stroke-opacity:1"
             d="m 0,0 c 0.688,0.698 2.087,1.176 3.7,1.176 1.632,0 3.045,-0.489 3.725,-1.199" /></g></g></g><g
       id="g144"><g
         clip-path="url(#clipPath148)"
         id="g146"><g
           transform="translate(146.2793,23.583)"
           id="g152"><path
             id="path154"
             style="fill:none;stroke:#000000;stroke-width:0.25;stroke-linecap:round;stroke-linejoin:round;stroke-miterlimit:10;stroke-dasharray:none;stroke-opacity:1"
             d="m 0,0 c 0,-1.193 -1.861,-2.16 -4.157,-2.16 -2.296,0 -4.157,0.967 -4.157,2.16 0,1.193 1.861,2.16 4.157,2.16 C -1.861,2.16 0,1.193 0,0 Z" /></g><g
           transform="translate(142.1221,24.0059)"
           id="g156"><path
             id="path158"
             style="fill:none;stroke:#000000;stroke-width:0.25;stroke-linecap:round;stroke-linejoin:round;stroke-miterlimit:10;stroke-dasharray:none;stroke-opacity:1"
             d="m 0,0 c 2.296,0 4.157,-0.967 4.157,-2.16 0,-1.194 -1.861,-2.16 -4.157,-2.16 -2.296,0 -4.157,0.966 -4.157,2.16 C -4.157,-0.967 -2.296,0 0,0 Z" /></g><g
           transform="translate(146.2793,20.1084)"
           id="g160"><path
             id="path162"
             style="fill:none;stroke:#000000;stroke-width:0.25;stroke-linecap:round;stroke-linejoin:round;stroke-miterlimit:10;stroke-dasharray:none;stroke-opacity:1"
             d="m 0,0 c 0,-1.193 -1.861,-2.16 -4.157,-2.16 -2.296,0 -4.157,0.967 -4.157,2.16 0,1.193 1.861,2.16 4.157,2.16 C -1.861,2.16 0,1.193 0,0 Z" /></g></g></g><g
       id="g164"><g
         clip-path="url(#clipPath168)"
         id="g166"><g
           transform="translate(146.2793,23.583)"
           id="g172"><path
             id="path174"
             style="fill:none;stroke:#000000;stroke-width:0.25;stroke-linecap:round;stroke-linejoin:round;stroke-miterlimit:10;stroke-dasharray:none;stroke-opacity:1"
             d="m 0,0 c 0,-1.193 -1.861,-2.16 -4.157,-2.16 -2.296,0 -4.157,0.967 -4.157,2.16 0,1.193 1.861,2.16 4.157,2.16 C -1.861,2.16 0,1.193 0,0 Z" /></g><g
           transform="translate(146.2793,23.583)"
           id="g176"><path
             id="path178"
             style="fill:none;stroke:#000000;stroke-width:0.5;stroke-linecap:round;stroke-linejoin:round;stroke-miterlimit:10;stroke-dasharray:none;stroke-opacity:1"
             d="m 0,0 c 0,-1.193 -1.861,-2.16 -4.157,-2.16 -2.296,0 -4.157,0.967 -4.157,2.16" /></g><g
           transform="translate(150.708,23.583)"
           id="g180"><path
             id="path182"
             style="fill:none;stroke:#000000;stroke-width:0.25;stroke-linecap:round;stroke-linejoin:round;stroke-miterlimit:10;stroke-dasharray:none;stroke-opacity:1"
             d="m 0,0 c 0,-2.465 -3.844,-4.463 -8.586,-4.463 -4.742,0 -8.586,1.998 -8.586,4.463" /></g><g
           transform="translate(142.1221,28.0439)"
           id="g184"><path
             id="path186"
             style="fill:none;stroke:#000000;stroke-width:0.5;stroke-linecap:round;stroke-linejoin:round;stroke-miterlimit:10;stroke-dasharray:none;stroke-opacity:1"
             d="m 0,0 c -4.742,0 -8.586,-1.998 -8.586,-4.461 l 0,-1.833 c 0,-2.465 3.844,-4.463 8.586,-4.463 4.742,0 8.586,1.998 8.586,4.463 l 0,1.833 C 8.586,-1.998 4.742,0 0,0 Z" /></g><g
           transform="translate(134.8389,19.2461)"
           id="g188"><path
             id="path190"
             style="fill:none;stroke:#000000;stroke-width:0.5;stroke-linecap:round;stroke-linejoin:round;stroke-miterlimit:10;stroke-dasharray:none;stroke-opacity:1"
             d="m 0,0 0,-3.121 c 0,-2.092 3.261,-3.785 7.282,-3.785 4.022,0 7.281,1.693 7.281,3.785 l 0,3.121" /></g><g
           transform="translate(139.8604,46)"
           id="g192"><path
             id="path194"
             style="fill:none;stroke:#000000;stroke-width:0.25;stroke-linecap:round;stroke-linejoin:round;stroke-miterlimit:10;stroke-dasharray:none;stroke-opacity:1"
             d="M 0,0 C 0.516,0.353 1.33,0.58 2.247,0.58 3.024,0.58 3.729,0.416 4.24,0.15" /></g><g
           transform="translate(24.021,38.3213)"
           id="g196"><path
             id="path198"
             style="fill:none;stroke:#000000;stroke-width:0.5;stroke-linecap:round;stroke-linejoin:round;stroke-miterlimit:10;stroke-dasharray:none;stroke-opacity:1"
             d="m 0,0 c 1.604,0.646 3.878,-1.257 5.079,-4.248 1.202,-2.988 0.877,-5.935 -0.728,-6.58" /></g><g
           transform="translate(26.1313,39.1123)"
           id="g200"><path
             id="path202"
             style="fill:none;stroke:#000000;stroke-width:1;stroke-linecap:round;stroke-linejoin:round;stroke-miterlimit:10;stroke-dasharray:none;stroke-opacity:1"
             d="m 0,0 -2.11,-0.791 c -1.603,-0.645 -1.929,-3.592 -0.727,-6.58 1.201,-2.99 3.474,-4.892 5.078,-4.248 l 2.11,0.791" /></g><g
           transform="translate(26.1313,39.1123)"
           id="g204"><path
             id="path206"
             style="fill:none;stroke:#000000;stroke-width:0.5;stroke-linecap:round;stroke-linejoin:round;stroke-miterlimit:10;stroke-dasharray:none;stroke-opacity:1"
             d="m 0,0 c 1.604,0.644 3.877,-1.258 5.079,-4.248 1.201,-2.989 0.876,-5.936 -0.728,-6.58" /></g><g
           transform="translate(23.1875,38.0566)"
           id="g208"><path
             id="path210"
             style="fill:none;stroke:#000000;stroke-width:0.5;stroke-linecap:round;stroke-linejoin:round;stroke-miterlimit:10;stroke-dasharray:none;stroke-opacity:1"
             d="m 0,0 c 0.199,1.665 0.884,2.918 2.013,3.372 2.291,0.921 5.537,-1.796 7.252,-6.065 1.717,-4.269 1.253,-8.476 -1.039,-9.398 -1.18,-0.473 -2.615,0.019 -3.963,1.193" /></g><g
           transform="translate(25.0488,42.2822)"
           id="g212"><path
             id="path214"
             style="fill:none;stroke:#000000;stroke-width:0.5;stroke-linecap:round;stroke-linejoin:round;stroke-miterlimit:10;stroke-dasharray:none;stroke-opacity:1"
             d="M 0,0 C 0.114,0.065 0.233,0.124 0.357,0.174 2.943,1.213 6.575,-1.771 8.47,-6.49 10.367,-11.207 9.81,-15.876 7.223,-16.917 7.11,-16.962 6.996,-16.999 6.879,-17.029" /></g><g
           transform="translate(27.0371,27.4043)"
           id="g216"><path
             id="path218"
             style="fill:none;stroke:#000000;stroke-width:1;stroke-linecap:round;stroke-linejoin:round;stroke-miterlimit:10;stroke-dasharray:none;stroke-opacity:1"
             d="M 0,0 C 1.593,-1.687 3.388,-2.54 4.891,-2.151 L 18.297,0.312" /></g><g
           transform="translate(36.2349,49.5117)"
           id="g220"><path
             id="path222"
             style="fill:none;stroke:#000000;stroke-width:1;stroke-linecap:round;stroke-linejoin:round;stroke-miterlimit:10;stroke-dasharray:none;stroke-opacity:1"
             d="m 0,0 -11.186,-7.229 c -1.33,-0.767 -2.025,-2.603 -2.014,-4.892" /></g><g
           transform="translate(36.2349,49.5117)"
           id="g224"><path
             id="path226"
             style="fill:none;stroke:#000000;stroke-width:0.5;stroke-linecap:round;stroke-linejoin:round;stroke-miterlimit:10;stroke-dasharray:none;stroke-opacity:1"
             d="m 0,0 c 0.233,0.165 0.484,0.303 0.751,0.41 3.336,1.34 8.02,-2.51 10.466,-8.596 2.448,-6.085 1.728,-12.109 -1.609,-13.452 -0.166,-0.066 -0.336,-0.12 -0.508,-0.161" /></g><g
           transform="translate(35.0938,49.2393)"
           id="g228"><path
             id="path230"
             style="fill:none;stroke:#000000;stroke-width:0.5;stroke-linecap:round;stroke-linejoin:round;stroke-miterlimit:10;stroke-dasharray:none;stroke-opacity:1"
             d="m 0,0 c 0.589,1.365 1.489,2.368 2.683,2.848 3.82,1.534 9.183,-2.873 11.983,-9.842 2.802,-6.967 1.978,-13.863 -1.842,-15.401 -1.327,-0.532 -2.841,-0.346 -4.369,0.415" /></g><g
           transform="translate(37.8672,52.8857)"
           id="g232"><path
             id="path234"
             style="fill:none;stroke:#000000;stroke-width:0.5;stroke-linecap:round;stroke-linejoin:round;stroke-miterlimit:10;stroke-dasharray:none;stroke-opacity:1"
             d="m 0,0 c 4.021,1.616 9.664,-3.022 12.61,-10.355 2.95,-7.333 2.082,-14.588 -1.937,-16.207" /></g><g
           transform="translate(43.0103,27.29)"
           id="g236"><path
             id="path238"
             style="fill:none;stroke:#000000;stroke-width:1;stroke-linecap:round;stroke-linejoin:round;stroke-miterlimit:10;stroke-dasharray:none;stroke-opacity:1"
             d="m 0,0 c 1.917,-1.229 3.864,-1.636 5.53,-0.967 l 1.052,0.423 c 4.019,1.617 4.886,8.874 1.937,16.207 -2.947,7.332 -8.59,11.972 -12.61,10.356 l -1.052,-0.423 c -1.64,-0.659 -2.754,-2.257 -3.299,-4.415" /></g><g
           transform="translate(47.9136,49.1709)"
           id="g240"><path
             id="path242"
             style="fill:none;stroke:#000000;stroke-width:1;stroke-linecap:round;stroke-linejoin:round;stroke-miterlimit:10;stroke-dasharray:none;stroke-opacity:1"
             d="m 0,0 1.261,0.638 c 2.046,0.821 4.918,-1.539 6.418,-5.272 1.5,-3.731 1.059,-7.424 -0.987,-8.248 l -1.327,-0.492" /></g><g
           transform="translate(66.5527,55.4365)"
           id="g244"><path
             id="path246"
             style="fill:none;stroke:#000000;stroke-width:0.5;stroke-linecap:round;stroke-linejoin:round;stroke-miterlimit:10;stroke-dasharray:none;stroke-opacity:1"
             d="m 0,0 c 1.692,0.681 4.069,-1.271 5.309,-4.36 1.242,-3.086 0.877,-6.142 -0.815,-6.825" /></g><g
           transform="translate(76.6294,45.3213)"
           id="g248"><path
             id="path250"
             style="fill:none;stroke:#000000;stroke-width:0.5;stroke-linecap:round;stroke-linejoin:round;stroke-miterlimit:10;stroke-dasharray:none;stroke-opacity:1"
             d="m 0,0 c 1.225,1.463 1.306,4.551 0.053,7.663 -1.233,3.069 -3.381,5.223 -5.255,5.484" /></g><g
           transform="translate(69.957,43.79)"
           id="g252"><path
             id="path254"
             style="fill:none;stroke:#000000;stroke-width:1;stroke-linecap:round;stroke-linejoin:round;stroke-miterlimit:10;stroke-dasharray:none;stroke-opacity:1"
             d="m 0,0 c 0.458,-0.153 0.905,-0.194 1.324,-0.106 l 3.912,0.801 c 0.168,0.027 0.331,0.072 0.49,0.135 0.367,0.148 0.683,0.387 0.946,0.701 l 2.749,3.185 c 0.911,1.036 0.982,3.286 0.069,5.553 -0.963,2.398 -2.703,4.02 -4.124,3.966 L 1.47,14.679 C 1.033,14.739 0.61,14.696 0.218,14.539 0.061,14.476 -0.087,14.396 -0.225,14.3 L -3.507,12.318 C -3.936,12.093 -4.278,11.72 -4.529,11.235" /></g><g
           transform="translate(66.4502,56.1084)"
           id="g256"><path
             id="path258"
             style="fill:none;stroke:#000000;stroke-width:0.5;stroke-linecap:round;stroke-linejoin:round;stroke-miterlimit:10;stroke-dasharray:none;stroke-opacity:1"
             d="M 0,0 C 0.061,0.032 0.123,0.062 0.187,0.088 2.065,0.843 4.702,-1.323 6.078,-4.75 7.456,-8.174 7.051,-11.564 5.173,-12.322 5.062,-12.366 4.947,-12.4 4.831,-12.425" /></g><g
           transform="translate(116.8574,60.6689)"
           id="g260"><path
             id="path262"
             style="fill:none;stroke:#000000;stroke-width:0.5;stroke-linecap:round;stroke-linejoin:round;stroke-miterlimit:10;stroke-dasharray:none;stroke-opacity:1"
             d="M 0,0 C 0.618,0.249 1.134,0.679 1.545,1.253 L 13.338,6.498" /></g><g
           transform="translate(107.9873,67.3545)"
           id="g264"><path
             id="path266"
             style="fill:none;stroke:#000000;stroke-width:0.25;stroke-linecap:round;stroke-linejoin:round;stroke-miterlimit:10;stroke-dasharray:none;stroke-opacity:1"
             d="M 0,0 C 2.25,-4.847 6.089,-7.798 8.87,-6.686" /></g><g
           transform="translate(120.3154,60.7285)"
           id="g268"><path
             id="path270"
             style="fill:none;stroke:#000000;stroke-width:0.25;stroke-linecap:round;stroke-linejoin:round;stroke-miterlimit:10;stroke-dasharray:none;stroke-opacity:1"
             d="M 0,0 C -0.57,-1.188 -1.401,-2.063 -2.478,-2.498" /></g><g
           transform="translate(121.9355,60.9199)"
           id="g272"><path
             id="path274"
             style="fill:none;stroke:#000000;stroke-width:0.25;stroke-linecap:round;stroke-linejoin:round;stroke-miterlimit:10;stroke-dasharray:none;stroke-opacity:1"
             d="M 0,0 C -0.558,-1 -1.324,-1.739 -2.286,-2.127" /></g><g
           transform="translate(101.7148,88.4404)"
           id="g276"><path
             id="path278"
             style="fill:none;stroke:#000000;stroke-width:0.25;stroke-linecap:round;stroke-linejoin:round;stroke-miterlimit:10;stroke-dasharray:none;stroke-opacity:1"
             d="M 0,0 C -0.939,-0.376 -1.963,-0.428 -3.022,-0.197" /></g><g
           transform="translate(101.7148,88.4404)"
           id="g280"><path
             id="path282"
             style="fill:none;stroke:#000000;stroke-width:0.5;stroke-linecap:round;stroke-linejoin:round;stroke-miterlimit:10;stroke-dasharray:none;stroke-opacity:1"
             d="m 0,0 c 4.238,1.711 5.152,9.367 2.041,17.098 -2.355,5.865 -6.348,10.096 -9.988,11.055 0,0 -0.635,3.782 -0.823,5.094 -0.187,1.313 1,3.063 2.938,3.75 0,0 0,3.375 1.125,5.75 1.125,2.375 3.375,5.688 8.312,5.063 4.938,-0.625 18,-2.813 21.438,-3.563 3.437,-0.75 4.937,-2.625 5.5,-4.25 0,0 4.125,0.438 4.437,-1.187 0.313,-1.625 0.75,-3.625 0.75,-3.625" /></g><g
           transform="translate(93.0845,67.0947)"
           id="g284"><path
             id="path286"
             style="fill:none;stroke:#000000;stroke-width:1.25;stroke-linecap:round;stroke-linejoin:round;stroke-miterlimit:10;stroke-dasharray:none;stroke-opacity:1"
             d="m 0,0 c 2.099,0.846 4.688,-0.813 6.951,-4.222 2.267,-3.404 1.987,-7.074 -0.11,-7.92" /></g><g
           transform="translate(96.5015,53.8789)"
           id="g288"><path
             id="path290"
             style="fill:none;stroke:#000000;stroke-width:1.25;stroke-linecap:round;stroke-linejoin:round;stroke-miterlimit:10;stroke-dasharray:none;stroke-opacity:1"
             d="m 0,0 c -2.117,-0.846 -4.629,1.409 -5.618,5.042 -0.988,3.629 -0.076,7.259 2.038,8.11" /></g><g
           transform="translate(89.877,65.4521)"
           id="g292"><path
             id="path294"
             style="fill:none;stroke:#000000;stroke-width:1.25;stroke-linecap:round;stroke-linejoin:round;stroke-miterlimit:10;stroke-dasharray:none;stroke-opacity:1"
             d="m 0,0 c 2.112,0.851 4.67,-0.703 6.872,-3.944 2.205,-3.24 1.862,-6.778 -0.247,-7.629" /></g><g
           transform="translate(93.1655,53.0264)"
           id="g296"><path
             id="path298"
             style="fill:none;stroke:#000000;stroke-width:1.25;stroke-linecap:round;stroke-linejoin:round;stroke-miterlimit:10;stroke-dasharray:none;stroke-opacity:1"
             d="m 0,0 c -2.221,-0.888 -4.737,1.176 -5.624,4.617 -0.888,3.436 0.189,6.946 2.407,7.838" /></g><g
           transform="translate(86.731,64.0957)"
           id="g300"><path
             id="path302"
             style="fill:none;stroke:#000000;stroke-width:1.25;stroke-linecap:round;stroke-linejoin:round;stroke-miterlimit:10;stroke-dasharray:none;stroke-opacity:1"
             d="M 0,0 C 2.125,0.857 4.658,-0.603 6.807,-3.697 8.959,-6.79 8.559,-10.213 6.435,-11.069" /></g><g
           transform="translate(89.9048,51.9307)"
           id="g304"><path
             id="path306"
             style="fill:none;stroke:#000000;stroke-width:1.25;stroke-linecap:round;stroke-linejoin:round;stroke-miterlimit:10;stroke-dasharray:none;stroke-opacity:1"
             d="m 0,0 c -2.13,-0.852 -4.564,1.177 -5.438,4.538 -0.877,3.356 0.136,6.772 2.264,7.627" /></g><g
           transform="translate(83.6377,62.7783)"
           id="g308"><path
             id="path310"
             style="fill:none;stroke:#000000;stroke-width:1.25;stroke-linecap:round;stroke-linejoin:round;stroke-miterlimit:10;stroke-dasharray:none;stroke-opacity:1"
             d="M 0,0 C 2.041,0.823 4.489,-0.618 6.578,-3.653 8.67,-6.687 8.307,-10.025 6.267,-10.848" /></g><g
           transform="translate(86.876,50.6211)"
           id="g312"><path
             id="path314"
             style="fill:none;stroke:#000000;stroke-width:1.25;stroke-linecap:round;stroke-linejoin:round;stroke-miterlimit:10;stroke-dasharray:none;stroke-opacity:1"
             d="m 0,0 c -2.046,-0.817 -4.426,1.236 -5.318,4.595 -0.896,3.355 0.035,6.742 2.079,7.563" /></g><g
           transform="translate(80.7891,61.2969)"
           id="g316"><path
             id="path318"
             style="fill:none;stroke:#000000;stroke-width:1.25;stroke-linecap:round;stroke-linejoin:round;stroke-miterlimit:10;stroke-dasharray:none;stroke-opacity:1"
             d="M 0,0 C 1.922,0.776 4.261,-0.666 6.281,-3.657 8.305,-6.648 8.008,-9.901 6.087,-10.676" /></g><g
           transform="translate(78.5479,57.3564)"
           id="g320"><path
             id="path322"
             style="fill:none;stroke:#000000;stroke-width:1.25;stroke-linecap:round;stroke-linejoin:round;stroke-miterlimit:10;stroke-dasharray:none;stroke-opacity:1"
             d="M 0,0 C 0.169,1.903 0.976,3.452 2.234,3.958" /></g><g
           transform="translate(83.8696,49.7715)"
           id="g324"><path
             id="path326"
             style="fill:none;stroke:#000000;stroke-width:1.25;stroke-linecap:round;stroke-linejoin:round;stroke-miterlimit:10;stroke-dasharray:none;stroke-opacity:1"
             d="M 0,0 C -1.23,-0.49 -2.592,0.129 -3.637,1.472" /></g><g
           transform="translate(78.1289,59.8682)"
           id="g328"><path
             id="path330"
             style="fill:none;stroke:#000000;stroke-width:1.25;stroke-linecap:round;stroke-linejoin:round;stroke-miterlimit:10;stroke-dasharray:none;stroke-opacity:1"
             d="M 0,0 C 1.801,0.727 3.999,-0.639 5.902,-3.471 7.811,-6.3 7.541,-9.369 5.741,-10.097" /></g><g
           transform="translate(76.6953,58.5)"
           id="g332"><path
             id="path334"
             style="fill:none;stroke:#000000;stroke-width:1.25;stroke-linecap:round;stroke-linejoin:round;stroke-miterlimit:10;stroke-dasharray:none;stroke-opacity:1"
             d="M 0,0 C 0.356,0.647 0.842,1.131 1.434,1.368" /></g><g
           transform="translate(80.2446,48.5098)"
           id="g336"><path
             id="path338"
             style="fill:none;stroke:#000000;stroke-width:1.25;stroke-linecap:round;stroke-linejoin:round;stroke-miterlimit:10;stroke-dasharray:none;stroke-opacity:1"
             d="M 0,0 C -0.31,-0.123 -0.605,-0.156 -0.886,-0.11" /></g><g
           transform="translate(75.6201,58.084)"
           id="g340"><path
             id="path342"
             style="fill:none;stroke:#000000;stroke-width:1.25;stroke-linecap:round;stroke-linejoin:round;stroke-miterlimit:10;stroke-dasharray:none;stroke-opacity:1"
             d="M 0,0 C 1.606,0.131 3.391,-1.097 4.939,-3.328 6.763,-5.949 6.424,-8.848 4.625,-9.574" /></g><g
           transform="translate(96.3091,68.4551)"
           id="g344"><path
             id="path346"
             style="fill:none;stroke:#000000;stroke-width:1.25;stroke-linecap:round;stroke-linejoin:round;stroke-miterlimit:10;stroke-dasharray:none;stroke-opacity:1"
             d="m 0,0 c 2.137,0.861 5.265,-1.255 6.984,-4.723 1.724,-3.463 1.386,-6.972 -0.75,-7.833" /></g><g
           transform="translate(99.9253,54.9531)"
           id="g348"><path
             id="path350"
             style="fill:none;stroke:#000000;stroke-width:1.25;stroke-linecap:round;stroke-linejoin:round;stroke-miterlimit:10;stroke-dasharray:none;stroke-opacity:1"
             d="m 0,0 c -2.027,-0.812 -4.222,1.583 -5.394,5.269 -1.173,3.681 -0.481,7.326 1.545,8.139" /></g><g
           transform="translate(195.5498,115.9751)"
           id="g352"><path
             id="path354"
             style="fill:none;stroke:#000000;stroke-width:0.5;stroke-linecap:round;stroke-linejoin:round;stroke-miterlimit:10;stroke-dasharray:none;stroke-opacity:1"
             d="M 0,0 C 1.976,-1.91 3.783,-4.622 5.068,-7.846 8.054,-15.333 7.093,-22.751 2.92,-24.416 L -31.854,-38.1" /></g><g
           transform="translate(179.7832,116.0498)"
           id="g356"><path
             id="path358"
             style="fill:none;stroke:#000000;stroke-width:0.25;stroke-linecap:round;stroke-linejoin:round;stroke-miterlimit:10;stroke-dasharray:none;stroke-opacity:1"
             d="m 0,0 c 2.547,1.016 5.699,-0.347 8.447,-3.264 l 7.34,3.089" /></g><g
           transform="translate(180.4727,117.292)"
           id="g360"><path
             id="path362"
             style="fill:none;stroke:#000000;stroke-width:0.25;stroke-linecap:round;stroke-linejoin:round;stroke-miterlimit:10;stroke-dasharray:none;stroke-opacity:1"
             d="M 0,0 C 2.495,0.773 5.286,-1.208 7.758,-4.506" /></g><g
           transform="translate(178.2422,115.5908)"
           id="g364"><path
             id="path366"
             style="fill:none;stroke:#000000;stroke-width:0.5;stroke-linecap:round;stroke-linejoin:round;stroke-miterlimit:10;stroke-dasharray:none;stroke-opacity:1"
             d="m 0,0 c 0.51,0.736 1.159,1.286 1.94,1.598 0.096,0.038 0.193,0.073 0.29,0.103 l 15.46,6.147 c 3.544,1.413 8.47,-2.597 11.004,-8.954 2.535,-6.357 1.719,-12.656 -1.824,-14.07 l -2.292,-1.04" /></g><g
           transform="translate(156.6123,103)"
           id="g368"><path
             id="path370"
             style="fill:none;stroke:#000000;stroke-width:0.25;stroke-linecap:round;stroke-linejoin:round;stroke-miterlimit:10;stroke-dasharray:none;stroke-opacity:1"
             d="M 0,0 C 2.416,-3.917 5.5,-7 10.25,-5.583 15,-4.167 15.083,1.833 15.083,5.333" /></g><g
           transform="translate(124.8203,59.5)"
           id="g372"><path
             id="path374"
             style="fill:none;stroke:#000000;stroke-width:0.25;stroke-linecap:round;stroke-linejoin:round;stroke-miterlimit:10;stroke-dasharray:none;stroke-opacity:1"
             d="M 0,0 11.375,4.5" /></g><g
           transform="translate(124.8203,51.375)"
           id="g376"><path
             id="path378"
             style="fill:none;stroke:#000000;stroke-width:0.25;stroke-linecap:round;stroke-linejoin:round;stroke-miterlimit:10;stroke-dasharray:none;stroke-opacity:1"
             d="M 0,0 24.459,9.958" /></g><g
           transform="translate(163.6123,82.6006)"
           id="g380"><path
             id="path382"
             style="fill:none;stroke:#000000;stroke-width:0.5;stroke-linecap:round;stroke-linejoin:round;stroke-miterlimit:10;stroke-dasharray:none;stroke-opacity:1"
             d="m 0,0 0,-15.184 -14.333,-6.084 10.166,-6.416 0,-4.125 -5.484,-9.252 c -1.596,-2.607 -6.292,-4.495 -11.839,-4.495 -6.86,0 -12.422,2.889 -12.422,6.455 l 0,4.125 c 0,0.25 0.056,0.62 0.056,0.62" /></g><g
           transform="translate(129.7002,43.5)"
           id="g384"><path
             id="path386"
             style="fill:none;stroke:#000000;stroke-width:0.5;stroke-linecap:round;stroke-linejoin:round;stroke-miterlimit:10;stroke-dasharray:none;stroke-opacity:1"
             d="m 0,0 c 0,0 -5.005,3.25 -5.63,3.688 -0.625,0.437 -1.312,0.999 -1.375,2.437 -0.062,1.437 -0.312,3.063 -0.375,4.75 -0.062,1.688 -1.625,4 -2.625,4.313 l -1.858,-0.458 c -3.277,-1.31 -7.727,1.894 -10.583,7.34 l 0.691,1.847 c 0,0 6.001,2.166 8.417,3.083 2.417,0.917 1.083,4.167 1.083,4.167" /></g><g
           transform="translate(103.8047,90.1875)"
           id="g388"><path
             id="path390"
             style="fill:none;stroke:#000000;stroke-width:0.5;stroke-linecap:round;stroke-linejoin:round;stroke-miterlimit:10;stroke-dasharray:none;stroke-opacity:1"
             d="m 0,0 -5.109,-1.937 c 0,0 0.25,-3.625 0.458,-5.334 0.208,-1.708 1.125,-1.667 2.042,-1.833 0,0 6.917,-1.75 8.833,-2.5 1.917,-0.75 2.084,0.333 4.25,-1.167 2.167,-1.5 2.25,-2.167 2.25,-2.167" /></g><g
           transform="translate(116.7788,70.75)"
           id="g392"><path
             id="path394"
             style="fill:none;stroke:#000000;stroke-width:0.5;stroke-linecap:round;stroke-linejoin:round;stroke-miterlimit:10;stroke-dasharray:none;stroke-opacity:1"
             d="m 0,0 0,4.083 c 0,0 -5.341,1.007 -8.042,1.625 C -11.5,6.5 -13,8.458 -13.333,9.667" /></g><g
           transform="translate(121.4453,72.5)"
           id="g396"><path
             id="path398"
             style="fill:none;stroke:#000000;stroke-width:0.25;stroke-linecap:round;stroke-linejoin:round;stroke-miterlimit:10;stroke-dasharray:none;stroke-opacity:1"
             d="M 0,0 C 2,-3.75 5.333,-5.917 7.5,-6" /></g><g
           transform="translate(159.3623,98.6162)"
           id="g400"><path
             id="path402"
             style="fill:none;stroke:#000000;stroke-width:0.25;stroke-linecap:round;stroke-linejoin:round;stroke-miterlimit:10;stroke-dasharray:none;stroke-opacity:1"
             d="m 0,0 -35.583,-13.949 c -1.584,2.75 -5.084,6.916 -9.667,8.416" /></g><g
           transform="translate(145.5703,105.625)"
           id="g404"><path
             id="path406"
             style="fill:none;stroke:#000000;stroke-width:0.5;stroke-linecap:round;stroke-linejoin:round;stroke-miterlimit:10;stroke-dasharray:none;stroke-opacity:1"
             d="m 0,0 -31.458,-12.542 0.333,-2.166 -3.917,-2 0.136,-2.834" /></g><g
           transform="translate(158.9453,99.4165)"
           id="g408"><path
             id="path410"
             style="fill:none;stroke:#000000;stroke-width:0.5;stroke-linecap:round;stroke-linejoin:round;stroke-miterlimit:10;stroke-dasharray:none;stroke-opacity:1"
             d="m 0,0 0.417,-1.083 c 0,0 5.166,-2.5 6.083,-3 0.459,-0.25 0.646,-0.584 0.656,-0.959 l -0.002,-6.79 C 7.18,-12.217 7.01,-12.65 6.75,-13.083 6.25,-13.917 -4.993,-31.502 -4.993,-31.502 c -1.545,-2.634 -6.257,-4.549 -11.83,-4.549 -4.008,0 -7.572,0.99 -9.831,2.526 l -15.507,9.661 c -1.657,2.641 -3.902,4.439 -5.849,4.835 l -0.271,5.696 1.948,0.858" /></g><g
           transform="translate(140.3203,123.375)"
           id="g412"><path
             id="path414"
             style="fill:none;stroke:#000000;stroke-width:0.5;stroke-linecap:round;stroke-linejoin:round;stroke-miterlimit:10;stroke-dasharray:none;stroke-opacity:1"
             d="M 0,0 -4.187,0.187" /></g><g
           transform="translate(135.6953,123.25)"
           id="g416"><path
             id="path418"
             style="fill:none;stroke:#000000;stroke-width:0.25;stroke-linecap:round;stroke-linejoin:round;stroke-miterlimit:10;stroke-dasharray:none;stroke-opacity:1"
             d="m 0,0 -3.625,-1.625 c 0,0 0.437,-7.813 13.5,-16 0,0 5.057,-1.125 6.89,-2.208" /></g><g
           transform="translate(132.0703,121.625)"
           id="g420"><path
             id="path422"
             style="fill:none;stroke:#000000;stroke-width:0.25;stroke-linecap:round;stroke-linejoin:round;stroke-miterlimit:10;stroke-dasharray:none;stroke-opacity:1"
             d="M 0,0 7.937,-1.187" /></g><g
           transform="translate(149.8096,125.2109)"
           id="g424"><path
             id="path426"
             style="fill:none;stroke:#000000;stroke-width:0.5;stroke-linecap:round;stroke-linejoin:round;stroke-miterlimit:10;stroke-dasharray:none;stroke-opacity:1"
             d="m 0,0 c 0,0 -0.802,5.914 -0.927,6.977 -0.125,1.062 0.063,1.937 1.688,2.312 1.625,0.375 26.5,4.938 26.5,4.938" /></g><g
           transform="translate(158.3828,125.0625)"
           id="g428"><path
             id="path430"
             style="fill:none;stroke:#000000;stroke-width:0.5;stroke-linecap:round;stroke-linejoin:round;stroke-miterlimit:10;stroke-dasharray:none;stroke-opacity:1"
             d="M 0,0 20.687,3.75" /></g><g
           transform="translate(149.1328,133.5625)"
           id="g432"><path
             id="path434"
             style="fill:none;stroke:#000000;stroke-width:0.25;stroke-linecap:round;stroke-linejoin:round;stroke-miterlimit:10;stroke-dasharray:none;stroke-opacity:1"
             d="M 0,0 C -0.937,-2.375 2.438,-7.437 8.875,-8.5" /></g><g
           transform="translate(152.6953,103.333)"
           id="g436"><path
             id="path438"
             style="fill:none;stroke:#000000;stroke-width:0.5;stroke-linecap:round;stroke-linejoin:round;stroke-miterlimit:10;stroke-dasharray:none;stroke-opacity:1"
             d="m 0,0 c 8.084,-0.5 21.75,3.417 20.691,9.013 -0.605,3.2 -2.441,14.904 -2.441,14.904" /></g><g
           transform="translate(142.75,107.7329)"
           id="g440"><path
             id="path442"
             style="fill:none;stroke:#000000;stroke-width:0.25;stroke-linecap:round;stroke-linejoin:round;stroke-miterlimit:10;stroke-dasharray:none;stroke-opacity:1"
             d="M 0,0 -2.138,12.101" /></g><g
           transform="translate(110.5288,88.9165)"
           id="g444"><path
             id="path446"
             style="fill:none;stroke:#000000;stroke-width:0.25;stroke-linecap:round;stroke-linejoin:round;stroke-miterlimit:10;stroke-dasharray:none;stroke-opacity:1"
             d="M 0,0 C 3.917,-1.333 5.833,-3.667 5.833,-3.667 L 9.5,-1.75" /></g><g
           transform="translate(114.5288,90.7495)"
           id="g448"><path
             id="path450"
             style="fill:none;stroke:#000000;stroke-width:0.25;stroke-linecap:round;stroke-linejoin:round;stroke-miterlimit:10;stroke-dasharray:none;stroke-opacity:1"
             d="M 0,0 C 3.917,-1.333 5.833,-3.667 5.833,-3.667 L 9.25,-6.083" /></g><g
           transform="translate(112.6123,87)"
           id="g452"><path
             id="path454"
             style="fill:none;stroke:#000000;stroke-width:0.25;stroke-linecap:round;stroke-linejoin:round;stroke-miterlimit:10;stroke-dasharray:none;stroke-opacity:1"
             d="M 0,0 3.75,-1.75" /></g><g
           transform="translate(108.8623,79.25)"
           id="g456"><path
             id="path458"
             style="fill:none;stroke:#000000;stroke-width:0.25;stroke-linecap:round;stroke-linejoin:round;stroke-miterlimit:10;stroke-dasharray:none;stroke-opacity:1"
             d="M 0,0 C 0.417,0.583 1.667,1 1.667,1" /></g><g
           transform="translate(126.7578,132.6875)"
           id="g460"><path
             id="path462"
             style="fill:none;stroke:#000000;stroke-width:0.25;stroke-linecap:round;stroke-linejoin:round;stroke-miterlimit:10;stroke-dasharray:none;stroke-opacity:1"
             d="m 0,0 c -6.475,1.257 -10.707,-6.151 -10.789,-11.198 0,0 -3.826,-0.57 -3.256,-4.233 0.57,-3.663 2.198,-9.523 7.896,-14.977 l 4.64,-4.315" /></g><g
           transform="translate(115.9692,121.4897)"
           id="g464"><path
             id="path466"
             style="fill:none;stroke:#000000;stroke-width:0.25;stroke-linecap:round;stroke-linejoin:round;stroke-miterlimit:10;stroke-dasharray:none;stroke-opacity:1"
             d="M 0,0 -20.086,3.948" /></g><g
           transform="translate(179.7832,116.0498)"
           id="g468"><path
             id="path470"
             style="fill:none;stroke:#000000;stroke-width:0.5;stroke-linecap:round;stroke-linejoin:round;stroke-miterlimit:10;stroke-dasharray:none;stroke-opacity:1"
             d="M 0,0 -6.338,-2.675" /></g><g
           transform="translate(146.9395,173.5723)"
           id="g472"><path
             id="path474"
             style="fill:none;stroke:#000000;stroke-width:0.25;stroke-linecap:round;stroke-linejoin:round;stroke-miterlimit:10;stroke-dasharray:none;stroke-opacity:1"
             d="m 0,0 1.215,-1.72 0,-0.959 -0.961,-0.562" /></g><g
           transform="translate(137.9648,13.0186)"
           id="g476"><path
             id="path478"
             style="fill:none;stroke:#000000;stroke-width:0.25;stroke-linecap:round;stroke-linejoin:round;stroke-miterlimit:10;stroke-dasharray:none;stroke-opacity:1"
             d="M 0,0 0,4.95" /></g><g
           transform="translate(146.6562,13.0186)"
           id="g480"><path
             id="path482"
             style="fill:none;stroke:#000000;stroke-width:0.25;stroke-linecap:round;stroke-linejoin:round;stroke-miterlimit:10;stroke-dasharray:none;stroke-opacity:1"
             d="M 0,0 0,4.827" /></g><g
           transform="translate(66.5527,55.4365)"
           id="g484"><path
             id="path486"
             style="fill:none;stroke:#000000;stroke-width:1;stroke-linecap:round;stroke-linejoin:round;stroke-miterlimit:10;stroke-dasharray:none;stroke-opacity:1"
             d="M 0,0 -14.325,-6.281" /></g><g
           transform="translate(71.0464,44.252)"
           id="g488"><path
             id="path490"
             style="fill:none;stroke:#000000;stroke-width:1;stroke-linecap:round;stroke-linejoin:round;stroke-miterlimit:10;stroke-dasharray:none;stroke-opacity:1"
             d="M 0,0 -14.949,-6.299" /></g></g></g><text
       id="text492"
       style="font-variant:normal;font-weight:normal;font-stretch:normal;font-size:4px;font-family:Helvetica;writing-mode:lr-tb;fill:#231f20;fill-opacity:1;fill-rule:nonzero;stroke:none"
       transform="matrix(1,0,0,-1,1.8423,2.5693)"><tspan
         id="tspan494"
         y="0"
         x="0 2 2.888 5.112">cjey</tspan></text>
<g
       transform="translate(52.1953,74.75)"
       id="g496"><path
         id="path498"
         style="fill:none;stroke:#ffffff;stroke-width:3;stroke-linecap:round;stroke-linejoin:miter;stroke-miterlimit:4;stroke-dasharray:none;stroke-opacity:1"
         d="M 0,0 6,-23" /></g><g
       transform="translate(58.1953,51.75)"
       id="g500"><path
         id="path502"
         style="fill:none;stroke:#ffffff;stroke-width:3.75;stroke-linecap:round;stroke-linejoin:miter;stroke-miterlimit:4;stroke-dasharray:none;stroke-opacity:1"
         d="M 0,0 0,0" /></g><g
       transform="translate(52.1953,74.75)"
       id="g504"><path
         id="path506"
         style="fill:none;stroke:#211f1f;stroke-width:0.5;stroke-linecap:round;stroke-linejoin:miter;stroke-miterlimit:4;stroke-dasharray:none;stroke-opacity:1"
         d="M 0,0 6,-23" /></g><g
       transform="translate(58.1953,51.75)"
       id="g508"><path
         id="path510"
         style="fill:none;stroke:#211f1f;stroke-width:1.5;stroke-linecap:round;stroke-linejoin:miter;stroke-miterlimit:4;stroke-dasharray:none;stroke-opacity:1"
         d="M 0,0 0,0" /></g><text
       id="text512"
       style="font-variant:normal;font-weight:bold;font-stretch:normal;font-size:10px;font-family:Helvetica-Bold;writing-mode:lr-tb;fill:#231f20;fill-opacity:1;fill-rule:nonzero;stroke:none"
       transform="matrix(1,0,0,-1,48.481,76.5371)"><tspan
         id="tspan514"
         y="0"
         x="0">1</tspan></text>
</g></svg>