<?xml version="1.0" encoding="UTF-8" standalone="no"?>
<!-- Created with Inkscape (http://www.inkscape.org/) -->

<svg
   xmlns:dc="http://purl.org/dc/elements/1.1/"
   xmlns:cc="http://creativecommons.org/ns#"
   xmlns:rdf="http://www.w3.org/1999/02/22-rdf-syntax-ns#"
   xmlns:svg="http://www.w3.org/2000/svg"
   xmlns="http://www.w3.org/2000/svg"
   xmlns:sodipodi="http://sodipodi.sourceforge.net/DTD/sodipodi-0.dtd"
   xmlns:inkscape="http://www.inkscape.org/namespaces/inkscape"
   id="svg5204"
   version="1.1"
   inkscape:version="0.91 r13725"
   xml:space="preserve"
   width="301.18124"
   height="230.315"
   viewBox="0 0 301.18124 230.315"
   sodipodi:docname="T3880620.svg"><metadata
     id="metadata5210"><rdf:RDF><cc:Work
         rdf:about=""><dc:format>image/svg+xml</dc:format><dc:type
           rdf:resource="http://purl.org/dc/dcmitype/StillImage" /><dc:title></dc:title></cc:Work></rdf:RDF></metadata><defs
     id="defs5208"><clipPath
       clipPathUnits="userSpaceOnUse"
       id="clipPath5218"><path
         d="m 0,184.252 240.945,0 L 240.945,0 0,0 0,184.252 Z"
         id="path5220"
         inkscape:connector-curvature="0" /></clipPath></defs><sodipodi:namedview
     pagecolor="#ffffff"
     bordercolor="#666666"
     borderopacity="1"
     objecttolerance="10"
     gridtolerance="10"
     guidetolerance="10"
     inkscape:pageopacity="0"
     inkscape:pageshadow="2"
     inkscape:window-width="640"
     inkscape:window-height="480"
     id="namedview5206"
     showgrid="false"
     inkscape:zoom="1.3503245"
     inkscape:cx="150.59062"
     inkscape:cy="115.1575"
     inkscape:window-x="0"
     inkscape:window-y="0"
     inkscape:window-maximized="1"
     inkscape:current-layer="g5212" /><g
     id="g5212"
     inkscape:groupmode="layer"
     inkscape:label="T3880620"
     transform="matrix(1.25,0,0,-1.25,0,230.315)"><g
       id="g5214"><g
         id="g5216"
         clip-path="url(#clipPath5218)"><path
           d="m 152.799,138.706 7.94,-2.35 c 2.372,1.575 4.349,3.313 5.848,5.179"
           style="fill:none;stroke:#231f20;stroke-width:0.5;stroke-linecap:round;stroke-linejoin:round;stroke-miterlimit:4;stroke-dasharray:none;stroke-opacity:1"
           id="path5222"
           inkscape:connector-curvature="0" /><path
           d="m 131.843,157.45 0,14.93 c -1.911,0.13 -3.858,0.204 -5.837,0.204 -1.983,0 -3.927,-0.074 -5.837,-0.204 l 0,-14.935"
           style="fill:none;stroke:#231f20;stroke-width:1.5;stroke-linecap:round;stroke-linejoin:round;stroke-miterlimit:4;stroke-dasharray:none;stroke-opacity:1"
           id="path5224"
           inkscape:connector-curvature="0" /><path
           d="m 120.169,167.678 c 1.898,0.165 3.846,0.255 5.837,0.255 1.988,0 3.937,-0.09 5.837,-0.255"
           style="fill:none;stroke:#231f20;stroke-width:0.5;stroke-linecap:round;stroke-linejoin:round;stroke-miterlimit:4;stroke-dasharray:none;stroke-opacity:1"
           id="path5226"
           inkscape:connector-curvature="0" /><path
           d="m 166.588,148.41 0,10.237 c -1.5,1.867 -3.476,3.605 -5.848,5.18 l -7.941,-2.35 0,-9.835"
           style="fill:none;stroke:#231f20;stroke-width:1.5;stroke-linecap:round;stroke-linejoin:round;stroke-miterlimit:4;stroke-dasharray:none;stroke-opacity:1"
           id="path5228"
           inkscape:connector-curvature="0" /><path
           d="m 152.799,161.477 c 2.479,-1.533 4.469,-3.281 5.844,-5.181 l 7.945,2.351"
           style="fill:none;stroke:#231f20;stroke-width:0.5;stroke-linecap:round;stroke-linejoin:round;stroke-miterlimit:4;stroke-dasharray:none;stroke-opacity:1"
           id="path5230"
           inkscape:connector-curvature="0" /><path
           d="m 158.643,145.975 7.945,2.351"
           style="fill:none;stroke:#231f20;stroke-width:0.5;stroke-linecap:round;stroke-linejoin:round;stroke-miterlimit:4;stroke-dasharray:none;stroke-opacity:1"
           id="path5232"
           inkscape:connector-curvature="0" /><path
           d="m 99.211,151.492 0,9.985 -7.94,2.35 c -2.373,-1.575 -4.348,-3.313 -5.847,-5.18 l 0,-10.287"
           style="fill:none;stroke:#231f20;stroke-width:1.5;stroke-linecap:round;stroke-linejoin:round;stroke-miterlimit:4;stroke-dasharray:none;stroke-opacity:1"
           id="path5234"
           inkscape:connector-curvature="0" /><path
           d="m 85.424,158.647 7.944,-2.351 c 1.376,1.9 3.363,3.648 5.843,5.181"
           style="fill:none;stroke:#231f20;stroke-width:0.5;stroke-linecap:round;stroke-linejoin:round;stroke-miterlimit:4;stroke-dasharray:none;stroke-opacity:1"
           id="path5236"
           inkscape:connector-curvature="0" /><path
           d="m 85.424,148.265 7.944,-2.352 0,10.383"
           style="fill:none;stroke:#231f20;stroke-width:0.5;stroke-linecap:round;stroke-linejoin:round;stroke-miterlimit:4;stroke-dasharray:none;stroke-opacity:1"
           id="path5238"
           inkscape:connector-curvature="0" /><path
           d="m 131.843,117.601 0,14.904 c -1.9,-0.164 -3.849,-0.255 -5.837,-0.255 -1.991,0 -3.939,0.091 -5.837,0.255 l 0,-14.904"
           style="fill:none;stroke:#231f20;stroke-width:1.5;stroke-linecap:round;stroke-linejoin:round;stroke-miterlimit:4;stroke-dasharray:none;stroke-opacity:1"
           id="path5240"
           inkscape:connector-curvature="0" /><path
           d="m 120.169,127.803 c 1.91,-0.13 3.854,-0.204 5.837,-0.204 1.979,0 3.926,0.074 5.837,0.204"
           style="fill:none;stroke:#231f20;stroke-width:0.5;stroke-linecap:round;stroke-linejoin:round;stroke-miterlimit:4;stroke-dasharray:none;stroke-opacity:1"
           id="path5242"
           inkscape:connector-curvature="0" /><path
           d="m 166.587,131.129 0,10.406 -7.944,2.352 c -1.376,-1.901 -3.365,-3.649 -5.844,-5.181 l 0,-9.984"
           style="fill:none;stroke:#231f20;stroke-width:1.5;stroke-linecap:round;stroke-linejoin:round;stroke-miterlimit:4;stroke-dasharray:none;stroke-opacity:1"
           id="path5244"
           inkscape:connector-curvature="0" /><path
           d="m 85.424,141.535 c 1.499,-1.866 3.474,-3.604 5.847,-5.179 l 7.94,2.35"
           style="fill:none;stroke:#231f20;stroke-width:0.5;stroke-linecap:round;stroke-linejoin:round;stroke-miterlimit:4;stroke-dasharray:none;stroke-opacity:1"
           id="path5246"
           inkscape:connector-curvature="0" /><path
           d="m 99.211,128.688 0,10.018 c -2.48,1.532 -4.467,3.28 -5.843,5.181 l -7.944,-2.352 0,-9.538"
           style="fill:none;stroke:#231f20;stroke-width:1.5;stroke-linecap:round;stroke-linejoin:round;stroke-miterlimit:4;stroke-dasharray:none;stroke-opacity:1"
           id="path5248"
           inkscape:connector-curvature="0" /><path
           d="m 91.271,136.356 0,-10.156"
           style="fill:none;stroke:#231f20;stroke-width:0.5;stroke-linecap:round;stroke-linejoin:round;stroke-miterlimit:4;stroke-dasharray:none;stroke-opacity:1"
           id="path5250"
           inkscape:connector-curvature="0" /><path
           d="m 91.271,126.194 7.94,2.351"
           style="fill:none;stroke:#231f20;stroke-width:0.5;stroke-linecap:round;stroke-linejoin:round;stroke-miterlimit:4;stroke-dasharray:none;stroke-opacity:1"
           id="path5252"
           inkscape:connector-curvature="0" /><path
           d="m 160.739,126.167 0,10.189"
           style="fill:none;stroke:#231f20;stroke-width:0.5;stroke-linecap:round;stroke-linejoin:round;stroke-miterlimit:4;stroke-dasharray:none;stroke-opacity:1"
           id="path5254"
           inkscape:connector-curvature="0" /><path
           d="m 152.799,128.518 7.94,-2.351"
           style="fill:none;stroke:#231f20;stroke-width:0.5;stroke-linecap:round;stroke-linejoin:round;stroke-miterlimit:4;stroke-dasharray:none;stroke-opacity:1"
           id="path5256"
           inkscape:connector-curvature="0" /><path
           d="m 158.643,145.975 0,10.321"
           style="fill:none;stroke:#231f20;stroke-width:0.5;stroke-linecap:round;stroke-linejoin:round;stroke-miterlimit:4;stroke-dasharray:none;stroke-opacity:1"
           id="path5258"
           inkscape:connector-curvature="0" /><path
           d="m 84.841,132.195 c -1.703,2.402 -2.633,4.994 -2.633,7.698"
           style="fill:none;stroke:#231f20;stroke-width:0.5;stroke-linecap:round;stroke-linejoin:round;stroke-miterlimit:4;stroke-dasharray:none;stroke-opacity:1"
           id="path5260"
           inkscape:connector-curvature="0" /><path
           d="m 120.169,117.599 c -11.741,0.805 -22.011,3.997 -28.898,8.593"
           style="fill:none;stroke:#231f20;stroke-width:0.5;stroke-linecap:round;stroke-linejoin:round;stroke-miterlimit:4;stroke-dasharray:none;stroke-opacity:1"
           id="path5262"
           inkscape:connector-curvature="0" /><path
           d="m 160.696,126.137 c -6.903,-4.577 -17.167,-7.751 -28.894,-8.543"
           style="fill:none;stroke:#231f20;stroke-width:0.5;stroke-linecap:round;stroke-linejoin:round;stroke-miterlimit:4;stroke-dasharray:none;stroke-opacity:1"
           id="path5264"
           inkscape:connector-curvature="0" /><path
           d="m 169.843,139.893 c 0,-3.017 -1.156,-5.895 -3.255,-8.523"
           style="fill:none;stroke:#231f20;stroke-width:0.5;stroke-linecap:round;stroke-linejoin:round;stroke-miterlimit:4;stroke-dasharray:none;stroke-opacity:1"
           id="path5266"
           inkscape:connector-curvature="0" /><path
           d="m 120.169,162.187 c -7.829,-0.538 -15.004,-2.136 -20.958,-4.503"
           style="fill:none;stroke:#231f20;stroke-width:1.5;stroke-linecap:round;stroke-linejoin:round;stroke-miterlimit:4;stroke-dasharray:none;stroke-opacity:1"
           id="path5268"
           inkscape:connector-curvature="0" /><path
           d="m 152.805,157.697 c -5.958,2.365 -13.134,3.959 -20.962,4.492"
           style="fill:none;stroke:#231f20;stroke-width:1.5;stroke-linecap:round;stroke-linejoin:round;stroke-miterlimit:4;stroke-dasharray:none;stroke-opacity:1"
           id="path5270"
           inkscape:connector-curvature="0" /><path
           d="m 169.843,94.101 0,45.792 c 0,3.016 -1.156,5.893 -3.254,8.521"
           style="fill:none;stroke:#231f20;stroke-width:1.5;stroke-linecap:round;stroke-linejoin:round;stroke-miterlimit:4;stroke-dasharray:none;stroke-opacity:1"
           id="path5272"
           inkscape:connector-curvature="0" /><path
           d="m 81.032,93.995 0,-62.337 c 0,-12.831 20.261,-23.231 45.254,-23.231 24.994,0 45.254,10.4 45.254,23.231 l 0,62.87"
           style="fill:none;stroke:#231f20;stroke-width:1.5;stroke-linecap:round;stroke-linejoin:round;stroke-miterlimit:4;stroke-dasharray:none;stroke-opacity:1"
           id="path5274"
           inkscape:connector-curvature="0" /><path
           d="m 85.422,148.363 c -2.072,-2.614 -3.214,-5.473 -3.214,-8.47 l 0,-46.308"
           style="fill:none;stroke:#231f20;stroke-width:1.5;stroke-linecap:round;stroke-linejoin:round;stroke-miterlimit:4;stroke-dasharray:none;stroke-opacity:1"
           id="path5276"
           inkscape:connector-curvature="0" /><path
           d="m 158.701,145.89 c 0.47,-0.672 0.861,-1.364 1.171,-2.07"
           style="fill:none;stroke:#231f20;stroke-width:0.5;stroke-linecap:round;stroke-linejoin:round;stroke-miterlimit:4;stroke-dasharray:none;stroke-opacity:1"
           id="path5278"
           inkscape:connector-curvature="0" /><path
           d="m 131.843,157.452 c 8.375,-0.725 15.73,-2.992 20.922,-6.211"
           style="fill:none;stroke:#231f20;stroke-width:0.5;stroke-linecap:round;stroke-linejoin:round;stroke-miterlimit:4;stroke-dasharray:none;stroke-opacity:1"
           id="path5280"
           inkscape:connector-curvature="0" /><path
           d="m 99.142,151.15 c 5.19,3.262 12.589,5.563 21.027,6.298"
           style="fill:none;stroke:#231f20;stroke-width:0.5;stroke-linecap:round;stroke-linejoin:round;stroke-miterlimit:4;stroke-dasharray:none;stroke-opacity:1"
           id="path5282"
           inkscape:connector-curvature="0" /><path
           d="m 92.037,143.481 c 0.332,0.834 0.777,1.647 1.329,2.433"
           style="fill:none;stroke:#231f20;stroke-width:0.5;stroke-linecap:round;stroke-linejoin:round;stroke-miterlimit:4;stroke-dasharray:none;stroke-opacity:1"
           id="path5284"
           inkscape:connector-curvature="0" /><path
           d="m 120.169,122.336 c -8.442,0.737 -15.845,3.039 -21.036,6.304"
           style="fill:none;stroke:#231f20;stroke-width:1.5;stroke-linecap:round;stroke-linejoin:round;stroke-miterlimit:4;stroke-dasharray:none;stroke-opacity:1"
           id="path5286"
           inkscape:connector-curvature="0" /><path
           d="m 152.873,128.612 c -5.197,-3.256 -12.597,-5.549 -21.03,-6.279"
           style="fill:none;stroke:#231f20;stroke-width:1.5;stroke-linecap:round;stroke-linejoin:round;stroke-miterlimit:4;stroke-dasharray:none;stroke-opacity:1"
           id="path5288"
           inkscape:connector-curvature="0" /><path
           d="m 126.051,71.665 c 24.993,0 45.254,10.401 45.254,23.231"
           style="fill:none;stroke:#231f20;stroke-width:0.5;stroke-linecap:round;stroke-linejoin:round;stroke-miterlimit:4;stroke-dasharray:none;stroke-opacity:1"
           id="path5290"
           inkscape:connector-curvature="0" /><path
           d="m 80.911,93.225 c 1.67,-12.05 21.242,-21.56 45.14,-21.56"
           style="fill:none;stroke:#231f20;stroke-width:0.5;stroke-linecap:round;stroke-linejoin:round;stroke-miterlimit:4;stroke-dasharray:none;stroke-opacity:1"
           id="path5292"
           inkscape:connector-curvature="0" /><path
           d="m 171.54,93.014 0,0.075 c 0,1.78 -0.39,3.512 -1.127,5.177"
           style="fill:none;stroke:#231f20;stroke-width:1.5;stroke-linecap:round;stroke-linejoin:round;stroke-miterlimit:4;stroke-dasharray:none;stroke-opacity:1"
           id="path5294"
           inkscape:connector-curvature="0" /><path
           d="m 82.105,98.141 c -0.703,-1.626 -1.073,-3.317 -1.073,-5.052 l 0,-0.075"
           style="fill:none;stroke:#231f20;stroke-width:1.5;stroke-linecap:round;stroke-linejoin:round;stroke-miterlimit:4;stroke-dasharray:none;stroke-opacity:1"
           id="path5296"
           inkscape:connector-curvature="0" /><path
           d="m 125.862,74.267 c 24.22,0 43.853,10.079 43.853,22.512"
           style="fill:none;stroke:#231f20;stroke-width:0.5;stroke-linecap:round;stroke-linejoin:round;stroke-miterlimit:4;stroke-dasharray:none;stroke-opacity:1"
           id="path5298"
           inkscape:connector-curvature="0" /><path
           d="M 82.121,95.159 C 83.739,83.482 102.705,74.267 125.862,74.267"
           style="fill:none;stroke:#231f20;stroke-width:0.5;stroke-linecap:round;stroke-linejoin:round;stroke-miterlimit:4;stroke-dasharray:none;stroke-opacity:1"
           id="path5300"
           inkscape:connector-curvature="0" /></g></g></g></svg>