<?xml version="1.0" encoding="UTF-8" standalone="no"?>
<!-- Created with Inkscape (http://www.inkscape.org/) -->

<svg
   xmlns:dc="http://purl.org/dc/elements/1.1/"
   xmlns:cc="http://creativecommons.org/ns#"
   xmlns:rdf="http://www.w3.org/1999/02/22-rdf-syntax-ns#"
   xmlns:svg="http://www.w3.org/2000/svg"
   xmlns="http://www.w3.org/2000/svg"
   xmlns:sodipodi="http://sodipodi.sourceforge.net/DTD/sodipodi-0.dtd"
   xmlns:inkscape="http://www.inkscape.org/namespaces/inkscape"
   id="svg8804"
   version="1.1"
   inkscape:version="0.91 r13725"
   xml:space="preserve"
   width="301.18124"
   height="230.315"
   viewBox="0 0 301.18124 230.315"
   sodipodi:docname="Front Fork Spring Seat and Spacer T80911.11 2_2.svg"><metadata
     id="metadata8810"><rdf:RDF><cc:Work
         rdf:about=""><dc:format>image/svg+xml</dc:format><dc:type
           rdf:resource="http://purl.org/dc/dcmitype/StillImage" /><dc:title></dc:title></cc:Work></rdf:RDF></metadata><defs
     id="defs8808"><clipPath
       clipPathUnits="userSpaceOnUse"
       id="clipPath8818"><path
         d="m 0,184.252 240.945,0 L 240.945,0 0,0 0,184.252 Z"
         id="path8820"
         inkscape:connector-curvature="0" /></clipPath><clipPath
       clipPathUnits="userSpaceOnUse"
       id="clipPath8966"><path
         d="m 197.76,118.517 4.847,0 0,-10.87 -4.847,0 0,10.87 z"
         id="path8968"
         inkscape:connector-curvature="0" /></clipPath><clipPath
       clipPathUnits="userSpaceOnUse"
       id="clipPath8982"><path
         d="m 101.957,113.431 4.848,0 0,-10.87 -4.848,0 0,10.87 z"
         id="path8984"
         inkscape:connector-curvature="0" /></clipPath></defs><sodipodi:namedview
     pagecolor="#ffffff"
     bordercolor="#666666"
     borderopacity="1"
     objecttolerance="10"
     gridtolerance="10"
     guidetolerance="10"
     inkscape:pageopacity="0"
     inkscape:pageshadow="2"
     inkscape:window-width="647"
     inkscape:window-height="480"
     id="namedview8806"
     showgrid="false"
     inkscape:zoom="1.0246836"
     inkscape:cx="150.59062"
     inkscape:cy="115.1575"
     inkscape:window-x="0"
     inkscape:window-y="0"
     inkscape:window-maximized="0"
     inkscape:current-layer="g8812" /><g
     id="g8812"
     inkscape:groupmode="layer"
     inkscape:label="Front Fork Spring Seat and Spacer T80911.11 2_2"
     transform="matrix(1.25,0,0,-1.25,0,230.315)"><g
       id="g8814"><g
         id="g8816"
         clip-path="url(#clipPath8818)"><g
           id="g8822"
           transform="translate(207.502,94.7832)"><path
             d="M 0,0 C -2.793,0 -5.318,-1.538 -7.145,-4.024"
             style="fill:none;stroke:#000000;stroke-width:1;stroke-linecap:round;stroke-linejoin:miter;stroke-miterlimit:4;stroke-dasharray:none;stroke-opacity:1"
             id="path8824"
             inkscape:connector-curvature="0" /></g><g
           id="g8826"
           transform="translate(200.2402,90.6514)"><path
             d="M 0,0 C -3.529,-4.885 -3.143,-14.266 0,-19.149"
             style="fill:none;stroke:#000000;stroke-width:1;stroke-linecap:round;stroke-linejoin:miter;stroke-miterlimit:4;stroke-dasharray:none;stroke-opacity:1"
             id="path8828"
             inkscape:connector-curvature="0" /></g><g
           id="g8830"
           transform="translate(200.3584,71.4131)"><path
             d="M 0,0 C 1.969,-2.684 4.556,-4.023 7.144,-4.023"
             style="fill:none;stroke:#000000;stroke-width:1;stroke-linecap:round;stroke-linejoin:miter;stroke-miterlimit:4;stroke-dasharray:none;stroke-opacity:1"
             id="path8832"
             inkscape:connector-curvature="0" /></g><g
           id="g8834"
           transform="translate(207.502,67.3896)"><path
             d="m 0,0 c 5.575,0 10.095,6.131 10.095,13.692 0,7.57 -4.52,13.7 -10.095,13.7"
             style="fill:none;stroke:#000000;stroke-width:1;stroke-linecap:round;stroke-linejoin:miter;stroke-miterlimit:4;stroke-dasharray:none;stroke-opacity:1"
             id="path8836"
             inkscape:connector-curvature="0" /></g><g
           id="g8838"
           transform="translate(207.501,95.522)"><path
             d="M 0,0 C -2.938,0 -5.597,-1.616 -7.519,-4.228"
             style="fill:none;stroke:#000000;stroke-width:1;stroke-linecap:round;stroke-linejoin:miter;stroke-miterlimit:4;stroke-dasharray:none;stroke-opacity:1"
             id="path8840"
             inkscape:connector-curvature="0" /></g><g
           id="g8842"
           transform="translate(199.9824,91.2939)"><path
             d="M 0,0 C -4.771,-6.301 -2.935,-16.891 -0.177,-20.373"
             style="fill:none;stroke:#000000;stroke-width:1;stroke-linecap:round;stroke-linejoin:miter;stroke-miterlimit:4;stroke-dasharray:none;stroke-opacity:1"
             id="path8844"
             inkscape:connector-curvature="0" /></g><g
           id="g8846"
           transform="translate(199.9854,70.877)"><path
             d="M 0,0 C 2.073,-2.817 4.796,-4.228 7.519,-4.226"
             style="fill:none;stroke:#000000;stroke-width:1;stroke-linecap:round;stroke-linejoin:miter;stroke-miterlimit:4;stroke-dasharray:none;stroke-opacity:1"
             id="path8848"
             inkscape:connector-curvature="0" /></g><g
           id="g8850"
           transform="translate(207.5039,66.6514)"><path
             d="M 0,0 C 5.876,0 10.639,6.461 10.638,14.433 10.637,22.412 5.872,28.872 -0.003,28.871"
             style="fill:none;stroke:#000000;stroke-width:1;stroke-linecap:round;stroke-linejoin:miter;stroke-miterlimit:4;stroke-dasharray:none;stroke-opacity:1"
             id="path8852"
             inkscape:connector-curvature="0" /></g><g
           id="g8854"
           transform="translate(207.502,95.522)"><path
             d="M 0,0 30.172,0"
             style="fill:none;stroke:#000000;stroke-width:1;stroke-linecap:round;stroke-linejoin:miter;stroke-miterlimit:4;stroke-dasharray:none;stroke-opacity:1"
             id="path8856"
             inkscape:connector-curvature="0" /></g><g
           id="g8858"
           transform="translate(207.502,66.6514)"><path
             d="M 0,0 30.173,0"
             style="fill:none;stroke:#000000;stroke-width:1;stroke-linecap:round;stroke-linejoin:miter;stroke-miterlimit:4;stroke-dasharray:none;stroke-opacity:1"
             id="path8860"
             inkscape:connector-curvature="0" /></g><g
           id="g8862"
           transform="translate(215.4326,89.5654)"><path
             d="M 0,0 C -2.757,-5.16 -2.635,-11.961 0,-16.955"
             style="fill:none;stroke:#000000;stroke-width:1;stroke-linecap:round;stroke-linejoin:miter;stroke-miterlimit:4;stroke-dasharray:none;stroke-opacity:1"
             id="path8864"
             inkscape:connector-curvature="0" /></g><g
           id="g8866"
           transform="translate(27.1221,66.4639)"><path
             d="m 0,0 c 5.479,0 9.919,6.023 9.919,13.455 0,7.44 -4.44,13.462 -9.919,13.462"
             style="fill:none;stroke:#000000;stroke-width:1;stroke-linecap:round;stroke-linejoin:miter;stroke-miterlimit:4;stroke-dasharray:none;stroke-opacity:1"
             id="path8868"
             inkscape:connector-curvature="0" /></g><g
           id="g8870"
           transform="translate(27.124,65.7373)"><path
             d="M 0,0 C 5.773,0 10.452,6.353 10.452,14.185 10.451,22.024 5.771,28.373 -0.004,28.373"
             style="fill:none;stroke:#000000;stroke-width:1;stroke-linecap:round;stroke-linejoin:miter;stroke-miterlimit:4;stroke-dasharray:none;stroke-opacity:1"
             id="path8872"
             inkscape:connector-curvature="0" /></g><g
           id="g8874"
           transform="translate(26.8037,94.106)"><path
             d="m 0,0 c -5.773,0 -10.453,-6.337 -10.452,-14.162 10e-4,-7.818 4.681,-14.156 10.456,-14.156"
             style="fill:none;stroke:#000000;stroke-width:1;stroke-linecap:round;stroke-linejoin:miter;stroke-miterlimit:4;stroke-dasharray:none;stroke-opacity:1"
             id="path8876"
             inkscape:connector-curvature="0" /></g><g
           id="g8878"
           transform="translate(26.9961,93.4351)"><path
             d="m 0,0 c -5.51,-0.001 -9.969,-6.04 -9.969,-13.484 10e-4,-7.455 4.462,-13.49 9.973,-13.488"
             style="fill:none;stroke:#000000;stroke-width:1;stroke-linecap:round;stroke-linejoin:miter;stroke-miterlimit:4;stroke-dasharray:none;stroke-opacity:1"
             id="path8880"
             inkscape:connector-curvature="0" /></g><g
           id="g8882"
           transform="translate(143.2666,66.5205)"><path
             d="M 0,0 C 5.563,0 10.067,5.84 10.067,13.041 10.065,20.252 5.562,26.089 -0.002,26.089"
             style="fill:none;stroke:#000000;stroke-width:1;stroke-linecap:round;stroke-linejoin:miter;stroke-miterlimit:4;stroke-dasharray:none;stroke-opacity:1"
             id="path8884"
             inkscape:connector-curvature="0" /></g><g
           id="g8886"
           transform="translate(143.3711,66.5)"><path
             d="M 0,0 -116.406,-0.737"
             style="fill:none;stroke:#000000;stroke-width:1;stroke-linecap:round;stroke-linejoin:miter;stroke-miterlimit:4;stroke-dasharray:none;stroke-opacity:1"
             id="path8888"
             inkscape:connector-curvature="0" /></g><g
           id="g8890"
           transform="translate(26.9629,94.1367)"><path
             d="M 0,0 116.406,-1.547"
             style="fill:none;stroke:#000000;stroke-width:1;stroke-linecap:round;stroke-linejoin:miter;stroke-miterlimit:4;stroke-dasharray:none;stroke-opacity:1"
             id="path8892"
             inkscape:connector-curvature="0" /></g><g
           id="g8894"
           transform="translate(173.8311,94.4258)"><path
             d="M 0,0 C -5.257,0 -9.517,-5.78 -9.516,-12.919 -9.515,-20.05 -5.253,-25.83 0.003,-25.83"
             style="fill:none;stroke:#000000;stroke-width:1;stroke-linecap:round;stroke-linejoin:miter;stroke-miterlimit:4;stroke-dasharray:none;stroke-opacity:1"
             id="path8896"
             inkscape:connector-curvature="0" /></g><g
           id="g8898"
           transform="translate(173.834,68.5957)"><path
             d="M 0,0 C 5.257,0.001 9.511,5.782 9.511,12.913 9.509,20.052 5.253,25.831 -0.003,25.83"
             style="fill:none;stroke:#000000;stroke-width:1;stroke-linecap:round;stroke-linejoin:miter;stroke-miterlimit:4;stroke-dasharray:none;stroke-opacity:1"
             id="path8900"
             inkscape:connector-curvature="0" /></g><g
           id="g8902"
           transform="translate(173.8311,90.0508)"><path
             d="m 0,0 c -3.475,0 -6.291,-3.823 -6.29,-8.544 0,-4.715 2.817,-8.536 6.293,-8.535"
             style="fill:none;stroke:#000000;stroke-width:1;stroke-linecap:round;stroke-linejoin:miter;stroke-miterlimit:4;stroke-dasharray:none;stroke-opacity:1"
             id="path8904"
             inkscape:connector-curvature="0" /></g><g
           id="g8906"
           transform="translate(178.3164,87.5)"><path
             d="M 0,0 C -1.142,1.575 -2.729,2.552 -4.485,2.552"
             style="fill:none;stroke:#000000;stroke-width:1;stroke-linecap:round;stroke-linejoin:miter;stroke-miterlimit:4;stroke-dasharray:none;stroke-opacity:1"
             id="path8908"
             inkscape:connector-curvature="0" /></g><g
           id="g8910"
           transform="translate(173.834,72.9717)"><path
             d="m 0,0 c 3.476,0 6.29,3.822 6.29,8.536 0,2.334 -0.688,4.449 -1.808,5.991"
             style="fill:none;stroke:#000000;stroke-width:1;stroke-linecap:round;stroke-linejoin:miter;stroke-miterlimit:4;stroke-dasharray:none;stroke-opacity:1"
             id="path8912"
             inkscape:connector-curvature="0" /></g><g
           id="g8914"
           transform="translate(174.4512,90.0098)"><path
             d="m 0,0 c -3.241,-0.436 -5.663,-4.136 -5.673,-8.503 0.001,-4.418 2.476,-8.053 5.674,-8.494"
             style="fill:none;stroke:#000000;stroke-width:1;stroke-linecap:round;stroke-linejoin:miter;stroke-miterlimit:4;stroke-dasharray:none;stroke-opacity:1"
             id="path8916"
             inkscape:connector-curvature="0" /></g><g
           id="g8918"
           transform="translate(175.0684,94.4258)"><path
             d="M 0,0 -1.237,0"
             style="fill:none;stroke:#000000;stroke-width:1;stroke-linecap:round;stroke-linejoin:miter;stroke-miterlimit:4;stroke-dasharray:none;stroke-opacity:1"
             id="path8920"
             inkscape:connector-curvature="0" /></g><g
           id="g8922"
           transform="translate(175.0723,68.5967)"><path
             d="M 0,0 -1.238,-0.001"
             style="fill:none;stroke:#000000;stroke-width:1;stroke-linecap:round;stroke-linejoin:miter;stroke-miterlimit:4;stroke-dasharray:none;stroke-opacity:1"
             id="path8924"
             inkscape:connector-curvature="0" /></g><g
           id="g8926"
           transform="translate(175.2803,68.8711)"><path
             d="M 0,0 C 5.255,0 9.509,5.836 9.508,12.639 9.507,19.448 5.252,24.962 -0.003,24.962"
             style="fill:none;stroke:#000000;stroke-width:1;stroke-linecap:round;stroke-linejoin:miter;stroke-miterlimit:4;stroke-dasharray:none;stroke-opacity:1"
             id="path8928"
             inkscape:connector-curvature="0" /></g><g
           id="g8930"
           transform="translate(183.3154,90.5205)"><path
             d="M 0,0 13.627,18.108"
             style="fill:none;stroke:#ffffff;stroke-width:2;stroke-linecap:round;stroke-linejoin:round;stroke-miterlimit:4;stroke-dasharray:none;stroke-opacity:1"
             id="path8932"
             inkscape:connector-curvature="0" /></g><g
           id="g8934"
           transform="translate(184.1035,90.4814)"><path
             d="m 0,0 c 0,0.406 -0.322,0.736 -0.787,0.736 -0.467,0 -0.787,-0.33 -0.787,-0.736 0,-0.403 0.32,-0.733 0.787,-0.733 C -0.323,-0.733 0,-0.403 0,0"
             style="fill:#000000;fill-opacity:1;fill-rule:nonzero;stroke:none"
             id="path8936"
             inkscape:connector-curvature="0" /></g><g
           id="g8938"
           transform="translate(184.1035,90.4814)"><path
             d="m 0,0 c 0,0.406 -0.322,0.736 -0.787,0.736 -0.467,0 -0.787,-0.33 -0.787,-0.736 0,-0.403 0.32,-0.733 0.787,-0.733 C -0.323,-0.733 0,-0.403 0,0 Z"
             style="fill:none;stroke:#ffffff;stroke-width:0.5;stroke-linecap:butt;stroke-linejoin:miter;stroke-miterlimit:4;stroke-dasharray:none;stroke-opacity:1"
             id="path8940"
             inkscape:connector-curvature="0" /></g><g
           id="g8942"
           transform="translate(183.3154,90.5205)"><path
             d="M 0,0 13.627,18.108"
             style="fill:none;stroke:#000000;stroke-width:0.5;stroke-linecap:round;stroke-linejoin:round;stroke-miterlimit:4;stroke-dasharray:none;stroke-opacity:1"
             id="path8944"
             inkscape:connector-curvature="0" /></g><g
           id="g8946"
           transform="translate(88.0801,85.998)"><path
             d="M 0,0 13.627,18.116"
             style="fill:none;stroke:#ffffff;stroke-width:2;stroke-linecap:round;stroke-linejoin:round;stroke-miterlimit:4;stroke-dasharray:none;stroke-opacity:1"
             id="path8948"
             inkscape:connector-curvature="0" /></g><g
           id="g8950"
           transform="translate(88.8672,85.959)"><path
             d="m 0,0 c 0,0.405 -0.322,0.735 -0.787,0.735 -0.467,0 -0.787,-0.33 -0.787,-0.735 0,-0.403 0.32,-0.733 0.787,-0.733 C -0.322,-0.735 0,-0.405 0,0"
             style="fill:#000000;fill-opacity:1;fill-rule:nonzero;stroke:none"
             id="path8952"
             inkscape:connector-curvature="0" /></g><g
           id="g8954"
           transform="translate(88.8672,85.959)"><path
             d="m 0,0 c 0,0.405 -0.322,0.735 -0.787,0.735 -0.467,0 -0.787,-0.33 -0.787,-0.735 0,-0.403 0.32,-0.733 0.787,-0.733 C -0.322,-0.735 0,-0.405 0,0 Z"
             style="fill:none;stroke:#ffffff;stroke-width:0.5;stroke-linecap:butt;stroke-linejoin:miter;stroke-miterlimit:4;stroke-dasharray:none;stroke-opacity:1"
             id="path8956"
             inkscape:connector-curvature="0" /></g><g
           id="g8958"
           transform="translate(88.0801,85.998)"><path
             d="M 0,0 13.627,18.116"
             style="fill:none;stroke:#000000;stroke-width:0.5;stroke-linecap:round;stroke-linejoin:round;stroke-miterlimit:4;stroke-dasharray:none;stroke-opacity:1"
             id="path8960"
             inkscape:connector-curvature="0" /></g><g
           id="g8962"><g
             id="g8964" /><g
             id="g8970"><g
               clip-path="url(#clipPath8966)"
               id="g8972"><text
                 transform="matrix(0.872,0,0,-1,197.7598,109.9268)"
                 style="font-variant:normal;font-weight:bold;font-stretch:normal;font-size:10px;font-family:Helvetica;-inkscape-font-specification:Helvetica-Bold;writing-mode:lr-tb;fill:#000000;fill-opacity:1;fill-rule:nonzero;stroke:none"
                 id="text8974"><tspan
                   x="0"
                   y="0"
                   id="tspan8976">2</tspan></text>
</g></g></g><g
           id="g8978"><g
             id="g8980" /><g
             id="g8986"><g
               clip-path="url(#clipPath8982)"
               id="g8988"><text
                 transform="matrix(0.872,0,0,-1,101.957,104.8408)"
                 style="font-variant:normal;font-weight:bold;font-stretch:normal;font-size:10px;font-family:Helvetica;-inkscape-font-specification:Helvetica-Bold;writing-mode:lr-tb;fill:#000000;fill-opacity:1;fill-rule:nonzero;stroke:none"
                 id="text8990"><tspan
                   x="0"
                   y="0"
                   id="tspan8992">1</tspan></text>
</g></g></g></g></g></g></svg>