<?xml version="1.0" encoding="UTF-8" standalone="no"?>
<svg
   xmlns:dc="http://purl.org/dc/elements/1.1/"
   xmlns:cc="http://creativecommons.org/ns#"
   xmlns:rdf="http://www.w3.org/1999/02/22-rdf-syntax-ns#"
   xmlns:svg="http://www.w3.org/2000/svg"
   xmlns="http://www.w3.org/2000/svg"
   xmlns:sodipodi="http://sodipodi.sourceforge.net/DTD/sodipodi-0.dtd"
   xmlns:inkscape="http://www.inkscape.org/namespaces/inkscape"
   xml:space="preserve"
   height="768.0"
   viewBox="0,0 65416,45760"
   width="1024.0"
   id="svg7264"
   version="1.1"
   inkscape:version="0.91 r13725"
   sodipodi:docname="20 - COMMUNICATION NETWORK CIRCUIT.svg"><metadata
     id="metadata7770"><rdf:RDF><cc:Work
         rdf:about=""><dc:format>image/svg+xml</dc:format><dc:type
           rdf:resource="http://purl.org/dc/dcmitype/StillImage" /></cc:Work></rdf:RDF></metadata><sodipodi:namedview
     pagecolor="#ffffff"
     bordercolor="#666666"
     borderopacity="1"
     objecttolerance="10"
     gridtolerance="10"
     guidetolerance="10"
     inkscape:pageopacity="0"
     inkscape:pageshadow="2"
     inkscape:window-width="2560"
     inkscape:window-height="1378"
     id="namedview7768"
     showgrid="false"
     inkscape:zoom="1.5742188"
     inkscape:cx="512"
     inkscape:cy="384"
     inkscape:window-x="-8"
     inkscape:window-y="-8"
     inkscape:window-maximized="1"
     inkscape:current-layer="g7270" /><defs
     id="defs7266"><style
       type="text/css"
       id="style7268"><![CDATA[
.A{stroke:#808080;stroke-width:59px;}
.B{stroke-width:89px;}
.C{fill:#CCC;}
.D,.B,.N,.T,.P,.C,.U,.K,.L{stroke:#000;}
.D,.B,.S,.R,.N,.T,.O,.M,.P,.Q,.C,.I,.F,.U,.K,.L{stroke-linecap:square;}
.D,.S,.T,.O,.M,.Q,.C,.I,.F{stroke-width:16px;}
.F{fill:#F30;}
.G,.E,.F{stroke:#F30;}
.H,.A,.E,.D,.B,.S,.R,.N,.T,.O,.M,.P,.Q,.C,.I,.F,.U,.K,.L{stroke-dasharray:none;}
.I{fill:#03F;}
.J,.G{stroke-dasharray:117,58;}
.J,.G,.H,.A,.E{stroke-linecap:butt;}
.J,.G,.H,.A,.E,.D,.B{fill-opacity:0.0;fill:none;}
.J,.G,.H,.A,.E,.D,.B,.C,.I,.F{font-family:sans-serif;}
.J,.G,.H,.A,.E,.D,.B,.S,.R,.N,.T,.O,.M,.P,.Q,.C,.I,.F,.U,.K,.L{fill-rule:evenodd;font-style:normal;font-weight:normal;stroke-linejoin:miter;stroke-miterlimit:10;}
.J,.G,.H,.A,.E,.D,.B,.U,.K,.L{stroke-opacity:1.0;}
.J,.G,.H,.E{stroke-width:85px;}
.J,.H,.S,.O,.M,.Q,.I{stroke:#03F;}
.K{font-size:662px;}
.M,.L{font-size:771px;}
.N,.P,.U,.K,.L{fill:#000;}
.N,.T,.O,.U{font-size:469px;}
.P,.Q{font-family:Tahoma;font-size:393px;}
.R{stroke:#999;fill:#999;}
.R,.N,.P,.K,.L{stroke-width:0.5px;}
.S,.R{font-size:312px;}
.S,.R,.N,.T,.O,.M,.P,.Q,.C,.I,.F{stroke-opacity:0.0;}
.S,.R,.N,.T,.O,.M,.P,.Q,.C,.I,.F,.U,.K,.L{fill-opacity:1.0;}
.S,.R,.N,.T,.O,.M,.U,.K,.L{font-family:Arial;}
.S,.T,.O,.M,.Q{fill:#FFF;}
.U{stroke-width:16.0px;}
]]></style></defs><g
     id="g7270"><g
       id="g7274"><path
         class="B"
         d="M10789,36381h44v111l133,677v111h44"
         id="path7276" /></g><g
       id="g7278"><path
         class="B"
         d="M10789,14038h44v111l133,677v111h44"
         id="path7280" /></g><g
       id="g7282"><path
         class="B"
         d="M41257,6590h44v111l133,677v111h44"
         id="path7284" /></g><g
       id="g7286"><path
         class="B"
         d="M41257,28934h44v111l133,677v111h44"
         id="path7288" /></g><g
       id="g7290"><path
         class="B"
         d="M41257,21486h44v111l133,677v111h44"
         id="path7292" /></g><g
       id="g7294"><path
         class="B"
         d="M10789,6590h44v111l133,677v111h44"
         id="path7296" /></g><g
       id="g7298"><path
         class="B"
         d="M41257,36381h44v111l133,677v111h44"
         id="path7300" /></g><g
       id="g7302"><path
         class="B"
         d="M10789,28934h44v111l133,677v111h44"
         id="path7304" /></g><g
       id="g7306"><path
         class="B"
         d="M10789,21486h44v111l133,677v111h44"
         id="path7308" /></g><g
       id="g7310"><path
         class="B"
         d="M41257,14038h44v111l133,677v111h44"
         id="path7312" /></g><g
       id="g7314"><path
         class="C"
         d="M4807,30399v-338v-1354v-338h338h338v338v1354v338 z"
         id="path7316" /><path
         class="D"
         d="M4807,28706v-338h677v338m0,1354v338h-677v-338"
         id="path7318" /></g><g
       id="g7320"><path
         class="C"
         d="M4807,8056v-338v-1354v-338h338h338v338v1354v338 z"
         id="path7322" /><path
         class="D"
         d="M4807,6363v-338h677v338m0,1354v338h-677v-338"
         id="path7324" /></g><g
       id="g7326"><path
         class="C"
         d="M4807,37847v-338v-1354v-338h338h338v338v1354v338 z"
         id="path7328" /><path
         class="D"
         d="M4807,36154v-338h677v338m0,1354v338h-677v-338"
         id="path7330" /></g><g
       id="g7332"><path
         class="C"
         d="M4807,15504v-338v-1354v-338h338h338v338v1354v338 z"
         id="path7334" /><path
         class="D"
         d="M4807,13811v-338h677v338m0,1354v338h-677v-338"
         id="path7336" /></g><g
       id="g7338"><path
         class="C"
         d="M4807,22951v-338v-1354v-338h338h338v338v1354v338 z"
         id="path7340" /><path
         class="D"
         d="M4807,21259v-338h677v338m0,1354v338h-677v-338"
         id="path7342" /></g><g
       id="g7344"><path
         class="D"
         d="M4807,21259v-338h-2031v2031h2031v-338"
         id="path7346" /></g><g
       id="g7348"><path
         class="D"
         d="M4807,7717v338h-2031v-2031h2031v338"
         id="path7350" /></g><g
       id="g7352"><path
         class="D"
         d="M4807,30061v338h-2031v-2031h2031v338"
         id="path7354" /></g><g
       id="g7356"><path
         class="D"
         d="M4807,13811v-338h-2031v2031h2031v-338"
         id="path7358" /></g><g
       id="g7360"><path
         class="D"
         d="M4807,37508v338h-2031v-2031h2031v338"
         id="path7362" /></g><g
       id="g7364"><path
         class="E"
         d="M5484,14826h41301"
         id="path7366" /><circle
         class="F"
         cx="46785"
         cy="14826"
         r="42"
         id="circle7368" /><path
         class="G"
         d="M5484,14826h41301"
         id="path7370" /><path
         class="E"
         d="M46785,14826v7447"
         id="path7372" /><circle
         class="F"
         cx="46785"
         cy="14826"
         r="42"
         id="circle7374" /><circle
         class="F"
         cx="46785"
         cy="22274"
         r="42"
         id="circle7376" /><path
         class="G"
         d="M46785,14826v7447"
         id="path7378" /></g><g
       id="g7380"><path
         class="E"
         d="M5484,7379h42655"
         id="path7382" /><circle
         class="F"
         cx="48139"
         cy="7379"
         r="42"
         id="circle7384" /><path
         class="G"
         d="M5484,7379h42655"
         id="path7386" /><path
         class="E"
         d="M48139,7379v14895"
         id="path7388" /><circle
         class="F"
         cx="48139"
         cy="7379"
         r="42"
         id="circle7390" /><circle
         class="F"
         cx="48139"
         cy="22274"
         r="42"
         id="circle7392" /><path
         class="G"
         d="M48139,7379v14895"
         id="path7394" /><path
         class="E"
         d="M48139,22274h-1354"
         id="path7396" /><circle
         class="F"
         cx="48139"
         cy="22274"
         r="42"
         id="circle7398" /><circle
         class="F"
         cx="46785"
         cy="22274"
         r="42"
         id="circle7400" /><path
         class="G"
         d="M48139,22274h-1354"
         id="path7402" /></g><g
       id="g7404"><path
         class="E"
         d="M5484,36493h41978"
         id="path7406" /><circle
         class="F"
         cx="47462"
         cy="36493"
         r="42"
         id="circle7408" /><path
         class="G"
         d="M5484,36493h41978"
         id="path7410" /><path
         class="E"
         d="M47462,36493v-13541"
         id="path7412" /><circle
         class="F"
         cx="47462"
         cy="36493"
         r="42"
         id="circle7414" /><circle
         class="F"
         cx="47462"
         cy="22951"
         r="42"
         id="circle7416" /><path
         class="G"
         d="M47462,36493v-13541"
         id="path7418" /><path
         class="E"
         d="M47462,22951l-677,-677"
         id="path7420" /><circle
         class="F"
         cx="47462"
         cy="22951"
         r="42"
         id="circle7422" /><circle
         class="F"
         cx="46785"
         cy="22274"
         r="42"
         id="circle7424" /><path
         class="G"
         d="M47462,22951l-677,-677"
         id="path7426" /></g><g
       id="g7428"><path
         class="H"
         d="M5484,6702h46040"
         id="path7430" /><circle
         class="I"
         cx="51525"
         cy="6702"
         r="42"
         id="circle7432" /><path
         class="J"
         d="M5484,6702h46040"
         id="path7434" /><path
         class="H"
         d="M51525,6702v14895"
         id="path7436" /><circle
         class="I"
         cx="51525"
         cy="6702"
         r="42"
         id="circle7438" /><circle
         class="I"
         cx="51525"
         cy="21597"
         r="42"
         id="circle7440" /><path
         class="J"
         d="M51525,6702v14895"
         id="path7442" /><path
         class="H"
         d="M51525,21597h-677"
         id="path7444" /><circle
         class="I"
         cx="51525"
         cy="21597"
         r="42"
         id="circle7446" /><circle
         class="I"
         cx="50848"
         cy="21597"
         r="42"
         id="circle7448" /><path
         class="J"
         d="M51525,21597h-677"
         id="path7450" /></g><g
       id="g7452"><path
         class="H"
         d="M5484,14149h45363"
         id="path7454" /><circle
         class="I"
         cx="50848"
         cy="14149"
         r="42"
         id="circle7456" /><path
         class="J"
         d="M5484,14149h45363"
         id="path7458" /><path
         class="H"
         d="M50848,14149v7447"
         id="path7460" /><circle
         class="I"
         cx="50848"
         cy="14149"
         r="42"
         id="circle7462" /><circle
         class="I"
         cx="50848"
         cy="21597"
         r="42"
         id="circle7464" /><path
         class="J"
         d="M50848,14149v7447"
         id="path7466" /></g><g
       id="g7468"><path
         class="H"
         d="M5484,37170h46717"
         id="path7470" /><circle
         class="I"
         cx="52202"
         cy="37170"
         r="42"
         id="circle7472" /><path
         class="J"
         d="M5484,37170h46717"
         id="path7474" /><path
         class="H"
         d="M52202,37170v-14895"
         id="path7476" /><circle
         class="I"
         cx="52202"
         cy="37170"
         r="42"
         id="circle7478" /><circle
         class="I"
         cx="52202"
         cy="22274"
         r="42"
         id="circle7480" /><path
         class="J"
         d="M52202,37170v-14895"
         id="path7482" /><path
         class="H"
         d="M52202,22274l-1354,-677"
         id="path7484" /><circle
         class="I"
         cx="52202"
         cy="22274"
         r="42"
         id="circle7486" /><circle
         class="I"
         cx="50848"
         cy="21597"
         r="42"
         id="circle7488" /><path
         class="J"
         d="M52202,22274l-1354,-677"
         id="path7490" /></g><g
       id="g7492"><path
         class="H"
         d="M5484,21597h45363"
         id="path7494" /><circle
         class="I"
         cx="50848"
         cy="21597"
         r="42"
         id="circle7496" /><path
         class="J"
         d="M5484,21597h45363"
         id="path7498" /></g><g
       id="g7500"><path
         class="E"
         d="M5484,29045h41301"
         id="path7502" /><circle
         class="F"
         cx="46785"
         cy="29045"
         r="42"
         id="circle7504" /><path
         class="G"
         d="M5484,29045h41301"
         id="path7506" /><path
         class="E"
         d="M46785,29045v-6770"
         id="path7508" /><circle
         class="F"
         cx="46785"
         cy="29045"
         r="42"
         id="circle7510" /><circle
         class="F"
         cx="46785"
         cy="22274"
         r="42"
         id="circle7512" /><path
         class="G"
         d="M46785,29045v-6770"
         id="path7514" /></g><g
       id="g7516"><path
         class="E"
         d="M5484,22274h41301"
         id="path7518" /><circle
         class="F"
         cx="46785"
         cy="22274"
         r="42"
         id="circle7520" /><path
         class="G"
         d="M5484,22274h41301"
         id="path7522" /></g><g
       id="g7524"><path
         class="H"
         d="M5484,29722h45363"
         id="path7526" /><circle
         class="I"
         cx="50848"
         cy="29722"
         r="42"
         id="circle7528" /><path
         class="J"
         d="M5484,29722h45363"
         id="path7530" /><path
         class="H"
         d="M50848,29722v-8124"
         id="path7532" /><circle
         class="I"
         cx="50848"
         cy="29722"
         r="42"
         id="circle7534" /><circle
         class="I"
         cx="50848"
         cy="21597"
         r="42"
         id="circle7536" /><path
         class="J"
         d="M50848,29722v-8124"
         id="path7538" /></g><g
       id="g7548"><rect
         class="M"
         x="5893"
         y="28739"
         width="1439"
         height="527"
         id="rect7550" /><text
         class="N"
         x="5966"
         y="29252"
         id="text7552">M68-6</text>
</g><g
       id="g7554"><rect
         class="O"
         x="5893"
         y="29416"
         width="1439"
         height="527"
         id="rect7556" /><text
         class="N"
         x="5966"
         y="29929"
         id="text7558">M68-1</text>
</g><g
       id="g7560"><rect
         class="O"
         x="5893"
         y="7073"
         width="1439"
         height="527"
         id="rect7562" /><text
         class="N"
         x="5966"
         y="7585"
         id="text7564">M01-5</text>
</g><g
       id="g7566"><rect
         class="O"
         x="5893"
         y="6396"
         width="1439"
         height="527"
         id="rect7568" /><text
         class="N"
         x="5966"
         y="6908"
         id="text7570">M01-4</text>
</g><g
       id="g7572"><rect
         class="O"
         x="5893"
         y="36864"
         width="1637"
         height="527"
         id="rect7574" /><text
         class="N"
         x="5966"
         y="37376"
         id="text7576">E04-14</text>
</g><g
       id="g7578"><rect
         class="O"
         x="5893"
         y="36187"
         width="1354"
         height="527"
         id="rect7580" /><text
         class="N"
         x="5966"
         y="36699"
         id="text7582">E04-6</text>
</g><g
       id="g7584"><rect
         class="O"
         x="5893"
         y="13843"
         width="1721"
         height="527"
         id="rect7586" /><text
         class="N"
         x="5966"
         y="14356"
         id="text7588">M59-11</text>
</g><g
       id="g7590"><rect
         class="O"
         x="5893"
         y="14520"
         width="1439"
         height="527"
         id="rect7592" /><text
         class="N"
         x="5966"
         y="15033"
         id="text7594">M59-2</text>
</g><g
       id="g7596"><rect
         class="O"
         x="5893"
         y="21968"
         width="2004"
         height="527"
         id="rect7598" /><text
         class="N"
         x="5966"
         y="22481"
         id="text7600">E02C-25</text>
</g><g
       id="g7602"><rect
         class="O"
         x="5893"
         y="21291"
         width="2004"
         height="527"
         id="rect7604" /><text
         class="N"
         x="5966"
         y="21804"
         id="text7606">E02C-24</text>
</g><g
       id="g7608"><text
         class="P"
         x="2899"
         y="20799"
         id="text7610">ENGINE ECM</text>
</g><g
       id="g7612"><rect
         class="Q"
         x="3292"
         y="21387"
         width="1467"
         height="351"
         id="rect7614" /><text
         class="R"
         x="3341"
         y="21730"
         id="text7616">CAN#1_L</text>
</g><g
       id="g7618"><rect
         class="S"
         x="3236"
         y="22064"
         width="1523"
         height="351"
         id="rect7620" /><text
         class="R"
         x="3285"
         y="22407"
         id="text7622">CAN#1_H</text>
</g><g
       id="g7624"><text
         class="P"
         x="2899"
         y="5903"
         id="text7626">INSTRUMENTS</text>
</g><g
       id="g7628"><rect
         class="Q"
         x="3763"
         y="6492"
         width="996"
         height="351"
         id="rect7630" /><text
         class="R"
         x="3812"
         y="6834"
         id="text7632">CAN L</text>
</g><g
       id="g7634"><rect
         class="S"
         x="3594"
         y="7169"
         width="1165"
         height="351"
         id="rect7636" /><text
         class="R"
         x="3643"
         y="7511"
         id="text7638">CAN -H</text>
</g><g
       id="g7640"><text
         class="P"
         x="2899"
         y="28246"
         id="text7642">IMMOBILISER/TPMS ECM</text>
</g><g
       id="g7644"><rect
         class="Q"
         x="3669"
         y="29512"
         width="1091"
         height="351"
         id="rect7646" /><text
         class="R"
         x="3718"
         y="29854"
         id="text7648">CAN_L</text>
</g><g
       id="g7650"><rect
         class="S"
         x="3613"
         y="28835"
         width="1147"
         height="351"
         id="rect7652" /><text
         class="R"
         x="3662"
         y="29177"
         id="text7654">CAN_H</text>
</g><g
       id="g7656"><text
         class="P"
         x="2899"
         y="13351"
         id="text7658">ABS MODULATOR</text>
</g><g
       id="g7660"><rect
         class="Q"
         x="3613"
         y="14617"
         width="1147"
         height="351"
         id="rect7662" /><text
         class="R"
         x="3662"
         y="14959"
         id="text7664">CAN_H</text>
</g><g
       id="g7666"><rect
         class="S"
         x="3669"
         y="13940"
         width="1091"
         height="351"
         id="rect7668" /><text
         class="R"
         x="3718"
         y="14282"
         id="text7670">CAN_L</text>
</g><g
       id="g7672"><text
         class="P"
         x="2899"
         y="35694"
         id="text7674">DIAGNOSTIC CONNECTOR</text>
</g><g
       id="g7676"><rect
         class="Q"
         x="3613"
         y="36283"
         width="1147"
         height="351"
         id="rect7678" /><text
         class="R"
         x="3662"
         y="36625"
         id="text7680">CAN_H</text>
</g><g
       id="g7682"><rect
         class="S"
         x="3669"
         y="36960"
         width="1091"
         height="351"
         id="rect7684" /><text
         class="R"
         x="3718"
         y="37302"
         id="text7686">CAN_L</text>
</g><g
       id="g7688"><rect
         class="S"
         x="24530"
         y="14503"
         width="366"
         height="527"
         id="rect7690" /><text
         class="N"
         x="24603"
         y="15016"
         id="text7692">R</text>
</g><g
       id="g7694"><rect
         class="O"
         x="24530"
         y="7056"
         width="366"
         height="527"
         id="rect7696" /><text
         class="N"
         x="24603"
         y="7568"
         id="text7698">R</text>
</g><g
       id="g7700"><rect
         class="O"
         x="24530"
         y="36170"
         width="366"
         height="527"
         id="rect7702" /><text
         class="N"
         x="24603"
         y="36682"
         id="text7704">R</text>
</g><g
       id="g7706"><rect
         class="O"
         x="24530"
         y="6379"
         width="366"
         height="527"
         id="rect7708" /><text
         class="N"
         x="24603"
         y="6891"
         id="text7710">U</text>
</g><g
       id="g7712"><rect
         class="O"
         x="24530"
         y="13826"
         width="366"
         height="527"
         id="rect7714" /><text
         class="N"
         x="24603"
         y="14339"
         id="text7716">U</text>
</g><g
       id="g7718"><rect
         class="O"
         x="24530"
         y="36847"
         width="366"
         height="527"
         id="rect7720" /><text
         class="N"
         x="24603"
         y="37359"
         id="text7722">U</text>
</g><g
       id="g7724"><rect
         class="O"
         x="24530"
         y="21274"
         width="366"
         height="527"
         id="rect7726" /><text
         class="N"
         x="24603"
         y="21787"
         id="text7728">U</text>
</g><g
       id="g7730"><rect
         class="O"
         x="24530"
         y="28722"
         width="366"
         height="527"
         id="rect7732" /><text
         class="N"
         x="24603"
         y="29235"
         id="text7734">R</text>
</g><g
       id="g7736"><rect
         class="O"
         x="24530"
         y="21951"
         width="366"
         height="527"
         id="rect7738" /><text
         class="N"
         x="24603"
         y="22464"
         id="text7740">R</text>
</g><g
       id="g7742"><rect
         class="O"
         x="24530"
         y="29399"
         width="366"
         height="527"
         id="rect7744" /><text
         class="N"
         x="24603"
         y="29912"
         id="text7746">U</text>
</g><g
       id="g7748"><circle
         class="U"
         cx="46785"
         cy="22274"
         r="270"
         id="circle7750" /></g><g
       id="g7752"><rect
         class="T"
         x="45381"
         y="22548"
         width="1156"
         height="634"
         id="rect7754" /><text
         class="N"
         x="45525"
         y="23051"
         id="text7756">CH1</text>
</g><g
       id="g7758"><circle
         class="U"
         cx="50848"
         cy="21597"
         r="270"
         id="circle7760" /></g><g
       id="g7762"><rect
         class="T"
         x="49492"
         y="21897"
         width="1072"
         height="634"
         id="rect7764" /><text
         class="N"
         x="49635"
         y="22400"
         id="text7766">CL1</text>
</g></g></svg>