<?xml version="1.0" encoding="UTF-8" standalone="no"?>
<svg
   xmlns:dc="http://purl.org/dc/elements/1.1/"
   xmlns:cc="http://creativecommons.org/ns#"
   xmlns:rdf="http://www.w3.org/1999/02/22-rdf-syntax-ns#"
   xmlns:svg="http://www.w3.org/2000/svg"
   xmlns="http://www.w3.org/2000/svg"
   viewBox="0 0 301.18124 230.315"
   height="230.315"
   width="301.18124"
   xml:space="preserve"
   version="1.1"
   id="svg2"><metadata
     id="metadata8"><rdf:RDF><cc:Work
         rdf:about=""><dc:format>image/svg+xml</dc:format><dc:type
           rdf:resource="http://purl.org/dc/dcmitype/StillImage" /></cc:Work></rdf:RDF></metadata><defs
     id="defs6"><clipPath
       id="clipPath16"
       clipPathUnits="userSpaceOnUse"><path
         id="path18"
         d="m 0,0 240.945,0 0,184.252 L 0,184.252 0,0 Z" /></clipPath><clipPath
       id="clipPath124"
       clipPathUnits="userSpaceOnUse"><path
         id="path126"
         d="m 189.232,176.066 c -0.813,-4.107 2.116,-8.133 6.541,-9.005 l 0,0 c 4.42,-0.872 8.657,1.741 9.468,5.843 l 0,0 c 0.809,4.104 -2.12,8.134 -6.542,9.007 l 0,0 c -0.573,0.112 -1.142,0.166 -1.701,0.166 l 0,0 c -3.761,0 -7.06,-2.443 -7.766,-6.011" /></clipPath><clipPath
       id="clipPath168"
       clipPathUnits="userSpaceOnUse"><path
         id="path170"
         d="m 0,0 240.945,0 0,184.252 L 0,184.252 0,0 Z" /></clipPath></defs><g
     transform="matrix(1.25,0,0,-1.25,0,230.315)"
     id="g10"><g
       id="g12"><g
         clip-path="url(#clipPath16)"
         id="g14"><g
           transform="translate(208.2314,88.875)"
           id="g20"><path
             id="path22"
             style="fill:none;stroke:#000000;stroke-width:0.5;stroke-linecap:round;stroke-linejoin:round;stroke-miterlimit:10;stroke-dasharray:none;stroke-opacity:1"
             d="m 0,0 c 0.82,1.953 3.143,2.839 5.192,1.981 2.049,-0.86 3.046,-3.14 2.226,-5.096" /></g><g
           transform="translate(215.6494,85.7598)"
           id="g24"><path
             id="path26"
             style="fill:none;stroke:#000000;stroke-width:0.25;stroke-linecap:round;stroke-linejoin:round;stroke-miterlimit:10;stroke-dasharray:none;stroke-opacity:1"
             d="M 0,0 C -0.821,-1.954 -3.145,-2.84 -5.193,-1.98 -7.244,-1.12 -8.24,1.159 -7.418,3.115" /></g><g
           transform="translate(231.249,37.7002)"
           id="g28"><path
             id="path30"
             style="fill:none;stroke:#000000;stroke-width:0.5;stroke-linecap:round;stroke-linejoin:round;stroke-miterlimit:10;stroke-dasharray:none;stroke-opacity:1"
             d="m 0,0 c 0.82,1.953 3.143,2.839 5.192,1.981 2.049,-0.86 3.046,-3.14 2.226,-5.096" /></g><g
           transform="translate(238.667,34.585)"
           id="g32"><path
             id="path34"
             style="fill:none;stroke:#000000;stroke-width:0.25;stroke-linecap:round;stroke-linejoin:round;stroke-miterlimit:10;stroke-dasharray:none;stroke-opacity:1"
             d="M 0,0 C -0.821,-1.954 -3.145,-2.84 -5.193,-1.98 -7.244,-1.12 -8.24,1.159 -7.418,3.115" /></g><g
           transform="translate(155.1602,102.8716)"
           id="g36"><path
             id="path38"
             style="fill:none;stroke:#000000;stroke-width:0.25;stroke-linecap:round;stroke-linejoin:round;stroke-miterlimit:10;stroke-dasharray:none;stroke-opacity:1"
             d="M 0,0 C 0.023,0.06 0.048,0.119 0.072,0.178 3.299,7.863 12.62,11.272 20.913,7.801 29.201,4.321 33.309,-4.728 30.082,-12.424" /></g><g
           transform="translate(176.6758,111.9775)"
           id="g40"><path
             id="path42"
             style="fill:none;stroke:#000000;stroke-width:0.5;stroke-linecap:round;stroke-linejoin:round;stroke-miterlimit:10;stroke-dasharray:none;stroke-opacity:1"
             d="m 0,0 c -8.293,3.471 -17.614,0.062 -20.841,-7.624 l -0.675,-1.482 c -3.099,-7.657 1.004,-16.588 9.238,-20.042 8.288,-3.477 17.614,-0.07 20.844,7.618 l 0.603,1.304 C 12.396,-12.529 8.288,-3.48 0,0 Z" /></g><g
           transform="translate(176.1582,115.9209)"
           id="g44"><path
             id="path46"
             style="fill:none;stroke:#000000;stroke-width:0.25;stroke-linecap:round;stroke-linejoin:round;stroke-miterlimit:10;stroke-dasharray:none;stroke-opacity:1"
             d="m 0,0 c -13.771,5.764 -29.249,0.103 -34.605,-12.659 -1.176,-2.798 -1.765,-5.703 -1.825,-8.596 -0.029,-1.387 -0.018,-6.729 -0.002,-8.022 0.123,-10.033 6.567,-19.771 17.044,-24.167 13.763,-5.773 29.249,-0.115 34.614,12.65 1.137,2.713 1.722,5.527 1.81,8.333 0.007,0.205 0.011,0.41 0.012,0.615 0.006,1.264 -0.033,5.787 -0.009,6.796 C 17.283,-14.709 10.771,-4.523 0,0 Z" /></g><g
           transform="translate(176.167,118.6816)"
           id="g48"><path
             id="path50"
             style="fill:none;stroke:#000000;stroke-width:0.25;stroke-linecap:round;stroke-linejoin:round;stroke-miterlimit:10;stroke-dasharray:none;stroke-opacity:1"
             d="m 0,0 c -17.078,7.149 -36.275,0.127 -42.919,-15.699 -1.476,-3.511 -2.206,-7.159 -2.268,-10.788 -0.022,-1.376 -0.025,-6.856 -0.001,-8.225 0.209,-12.396 8.195,-24.407 21.143,-29.839 17.069,-7.159 36.275,-0.142 42.928,15.689 1.426,3.402 2.152,6.931 2.249,10.448 0.041,1.481 0.031,7.1 0.014,8.433 C 20.98,-17.534 12.981,-5.45 0,0 Z" /></g><g
           transform="translate(171.4844,117.3999)"
           id="g52"><path
             id="path54"
             style="fill:none;stroke:#000000;stroke-width:0.25;stroke-linecap:round;stroke-linejoin:round;stroke-miterlimit:10;stroke-dasharray:none;stroke-opacity:1"
             d="m 0,0 c -8.035,1.086 -15.898,-2.874 -18.973,-10.195 -0.801,-1.907 -1.208,-3.885 -1.26,-5.855 -0.037,-1.35 -0.019,-6.547 0.005,-7.812 0.134,-6.934 4.595,-13.645 11.839,-16.684 9.572,-4.015 20.342,-0.08 24.073,8.797 0.809,1.932 1.213,3.937 1.256,5.934 0.029,1.319 0.002,6.31 -0.003,7.503 -0.001,0.102 -0.003,0.204 -0.005,0.306 -0.123,5.039 -2.527,9.954 -6.616,13.421" /></g><g
           transform="translate(158.4043,100.7134)"
           id="g56"><path
             id="path58"
             style="fill:none;stroke:#000000;stroke-width:0.5;stroke-linecap:round;stroke-linejoin:round;stroke-miterlimit:10;stroke-dasharray:none;stroke-opacity:1"
             d="m 0,0 c 2.545,6.06 9.895,8.748 16.434,6.011 6.536,-2.744 9.775,-9.879 7.23,-15.948" /></g><g
           transform="translate(173.0332,83.8672)"
           id="g60"><path
             id="path62"
             style="fill:none;stroke:#000000;stroke-width:1;stroke-linecap:round;stroke-linejoin:round;stroke-miterlimit:10;stroke-dasharray:none;stroke-opacity:1"
             d="m 0,0 c 3.974,0.65 7.443,3.121 9.035,6.909 l 0.702,1.606 c 2.545,6.069 -0.694,13.204 -7.23,15.948 -6.539,2.737 -13.889,0.049 -16.434,-6.011 l -0.702,-1.606 c -1.506,-3.582 -0.994,-7.534 1.024,-10.737" /></g><g
           transform="translate(116.4678,90.3613)"
           id="g64"><path
             id="path66"
             style="fill:none;stroke:#000000;stroke-width:0.5;stroke-linecap:round;stroke-linejoin:round;stroke-miterlimit:10;stroke-dasharray:none;stroke-opacity:1"
             d="M 0,0 C 0.773,1.841 3.007,2.657 4.993,1.826 6.979,0.992 7.964,-1.176 7.19,-3.02" /></g><g
           transform="translate(123.6582,87.3418)"
           id="g68"><path
             id="path70"
             style="fill:none;stroke:#000000;stroke-width:0.25;stroke-linecap:round;stroke-linejoin:round;stroke-miterlimit:10;stroke-dasharray:none;stroke-opacity:1"
             d="M 0,0 C -0.774,-1.842 -3.009,-2.658 -4.994,-1.825 -6.982,-0.992 -7.965,1.176 -7.19,3.02" /></g><g
           transform="translate(56.8096,178.2715)"
           id="g72"><path
             id="path74"
             style="fill:none;stroke:#000000;stroke-width:0.5;stroke-linecap:round;stroke-linejoin:round;stroke-miterlimit:10;stroke-dasharray:none;stroke-opacity:1"
             d="M 0,0 C 0.773,1.841 3.007,2.657 4.993,1.826 6.979,0.992 7.964,-1.176 7.19,-3.02" /></g><g
           transform="translate(64,175.252)"
           id="g76"><path
             id="path78"
             style="fill:none;stroke:#000000;stroke-width:0.25;stroke-linecap:round;stroke-linejoin:round;stroke-miterlimit:10;stroke-dasharray:none;stroke-opacity:1"
             d="M 0,0 C -0.774,-1.842 -3.009,-2.658 -4.994,-1.825 -6.982,-0.992 -7.965,1.176 -7.19,3.02" /></g><g
           transform="translate(28.0596,76.5215)"
           id="g80"><path
             id="path82"
             style="fill:none;stroke:#000000;stroke-width:0.5;stroke-linecap:round;stroke-linejoin:round;stroke-miterlimit:10;stroke-dasharray:none;stroke-opacity:1"
             d="M 0,0 C 0.773,1.841 3.007,2.657 4.993,1.826 6.979,0.992 7.964,-1.176 7.19,-3.02" /></g><g
           transform="translate(35.25,73.502)"
           id="g84"><path
             id="path86"
             style="fill:none;stroke:#000000;stroke-width:0.25;stroke-linecap:round;stroke-linejoin:round;stroke-miterlimit:10;stroke-dasharray:none;stroke-opacity:1"
             d="M 0,0 C -0.774,-1.842 -3.009,-2.658 -4.994,-1.825 -6.982,-0.992 -7.965,1.176 -7.19,3.02" /></g><g
           transform="translate(114.6758,106.8428)"
           id="g88"><path
             id="path90"
             style="fill:none;stroke:#000000;stroke-width:0.5;stroke-linecap:round;stroke-linejoin:round;stroke-miterlimit:10;stroke-dasharray:none;stroke-opacity:1"
             d="M 0,0 C 0.426,1.013 1.654,1.462 2.748,1.005 3.841,0.546 4.383,-0.647 3.957,-1.662" /></g><g
           transform="translate(118.6328,105.1812)"
           id="g92"><path
             id="path94"
             style="fill:none;stroke:#000000;stroke-width:0.25;stroke-linecap:round;stroke-linejoin:round;stroke-miterlimit:10;stroke-dasharray:none;stroke-opacity:1"
             d="m 0,0 c -0.426,-1.014 -1.656,-1.463 -2.748,-1.004 -1.094,0.458 -1.635,1.651 -1.209,2.666" /></g><g
           transform="translate(112.0645,107.9395)"
           id="g96"><path
             id="path98"
             style="fill:none;stroke:#000000;stroke-width:0.25;stroke-linecap:round;stroke-linejoin:round;stroke-miterlimit:10;stroke-dasharray:none;stroke-opacity:1"
             d="M 0,0 C 0.986,2.35 3.838,3.393 6.375,2.332 8.91,1.268 10.166,-1.5 9.18,-3.854" /></g><g
           transform="translate(121.2441,104.0859)"
           id="g100"><path
             id="path102"
             style="fill:none;stroke:#000000;stroke-width:0.25;stroke-linecap:round;stroke-linejoin:round;stroke-miterlimit:10;stroke-dasharray:none;stroke-opacity:1"
             d="M 0,0 C -0.988,-2.352 -3.844,-3.395 -6.375,-2.33 -8.914,-1.268 -10.168,1.5 -9.18,3.854" /></g><g
           transform="translate(131.5186,143.9961)"
           id="g104"><path
             id="path106"
             style="fill:none;stroke:#000000;stroke-width:0.5;stroke-linecap:round;stroke-linejoin:round;stroke-miterlimit:10;stroke-dasharray:none;stroke-opacity:1"
             d="m 0,0 c 0.368,4.655 -1.497,9.534 -6.157,11.934 -3.001,1.541 -6.319,1.708 -9.153,0.725 0,0 -3.209,-1.653 -7.709,-2.153 -4.5,-0.5 -7.25,-0.25 -10,-2.25 -2.75,-2 -6.25,-6 -14,-5.75 -7.75,0.25 -18,1.25 -34.5,4.25 -16.5,3 -41.75,7.25 -46.75,10.5 l -2.75,-16 c 0,0 17,-4 26,-7.25 9,-3.25 23,-5.25 44.75,-8.25 21.75,-3 38,-2.75 46.5,1 C -5.269,-9.494 -0.731,-9.256 0,0 Z" /></g><g
           transform="translate(115.6211,157.8374)"
           id="g108"><path
             id="path110"
             style="fill:none;stroke:#000000;stroke-width:0.25;stroke-linecap:round;stroke-linejoin:round;stroke-miterlimit:10;stroke-dasharray:none;stroke-opacity:1"
             d="m 0,0 c 2.425,4.707 8.498,6.403 13.58,3.794 5.078,-2.614 7.234,-8.55 4.809,-13.266" /></g><g
           transform="translate(131.5186,143.9961)"
           id="g112"><path
             id="path114"
             style="fill:none;stroke:#000000;stroke-width:0.5;stroke-linecap:round;stroke-linejoin:round;stroke-miterlimit:10;stroke-dasharray:none;stroke-opacity:1"
             d="m 0,0 4.405,8.421 c 2.271,4.416 0.252,9.973 -4.502,12.421 -4.154,2.132 -9.014,1.193 -11.694,-2.013 l -5.978,-7.073" /></g><g
           transform="translate(171.6865,99.3682)"
           id="g116"><path
             id="path118"
             style="fill:none;stroke:#000000;stroke-width:0.5;stroke-linecap:round;stroke-linejoin:round;stroke-miterlimit:10;stroke-dasharray:none;stroke-opacity:1"
             d="m 0,0 c 4.544,-1.908 6.796,-6.869 5.026,-11.088 -1.77,-4.215 -6.883,-6.083 -11.426,-4.177 -4.549,1.909 -6.799,6.866 -5.026,11.086 C -9.656,0.034 -4.547,1.903 0,0 Z" /></g></g></g><g
       id="g120"><g
         clip-path="url(#clipPath124)"
         id="g122"><g
           transform="translate(198.6992,181.9111)"
           id="g128"><path
             id="path130"
             style="fill:none;stroke:#000000;stroke-width:0.25;stroke-linecap:round;stroke-linejoin:round;stroke-miterlimit:10;stroke-dasharray:none;stroke-opacity:1"
             d="m 0,0 c 4.422,-0.874 7.352,-4.903 6.542,-9.008 -0.811,-4.101 -5.048,-6.715 -9.468,-5.843 -4.426,0.872 -7.353,4.899 -6.541,9.006 C -8.656,-1.746 -4.424,0.868 0,0 Z" /></g><g
           transform="translate(196.2266,168.7812)"
           id="g132"><path
             id="path134"
             style="fill:none;stroke:#000000;stroke-width:0.25;stroke-linecap:round;stroke-linejoin:round;stroke-miterlimit:10;stroke-dasharray:none;stroke-opacity:1"
             d="m 0,0 c -4.378,0.863 -7.274,4.846 -6.471,8.908 0.803,4.055 4.99,6.641 9.366,5.782 C 7.269,13.826 10.167,9.84 9.365,5.78 8.564,1.723 4.372,-0.863 0,0 Z" /></g><g
           transform="translate(196.6797,170.502)"
           id="g136"><path
             id="path138"
             style="fill:none;stroke:#000000;stroke-width:0.25;stroke-linecap:round;stroke-linejoin:round;stroke-miterlimit:10;stroke-dasharray:none;stroke-opacity:1"
             d="m 0,0 c -4.33,0.854 -7.194,4.793 -6.399,8.811 0.793,4.01 4.934,6.569 9.262,5.719 C 7.189,13.676 10.056,9.733 9.264,5.716 8.471,1.704 4.324,-0.854 0,0 Z" /></g><g
           transform="translate(197.1328,172.2227)"
           id="g140"><path
             id="path142"
             style="fill:none;stroke:#000000;stroke-width:0.25;stroke-linecap:round;stroke-linejoin:round;stroke-miterlimit:10;stroke-dasharray:none;stroke-opacity:1"
             d="m 0,0 c -4.282,0.844 -7.115,4.74 -6.328,8.714 0.783,3.967 4.879,6.496 9.159,5.656 C 7.11,13.525 9.945,9.626 9.162,5.654 8.377,1.685 4.277,-0.844 0,0 Z" /></g><g
           transform="translate(197.5859,173.9434)"
           id="g144"><path
             id="path146"
             style="fill:none;stroke:#000000;stroke-width:0.25;stroke-linecap:round;stroke-linejoin:round;stroke-miterlimit:10;stroke-dasharray:none;stroke-opacity:1"
             d="M 0,0 C -4.234,0.834 -7.035,4.687 -6.258,8.617 -5.482,12.539 -1.433,15.041 2.8,14.21 7.031,13.374 9.834,9.519 9.061,5.591 8.284,1.667 4.229,-0.834 0,0 Z" /></g><g
           transform="translate(198.0391,175.6641)"
           id="g148"><path
             id="path150"
             style="fill:none;stroke:#000000;stroke-width:0.25;stroke-linecap:round;stroke-linejoin:round;stroke-miterlimit:10;stroke-dasharray:none;stroke-opacity:1"
             d="m 0,0 c -4.187,0.825 -6.956,4.634 -6.187,8.52 0.767,3.877 4.771,6.351 8.955,5.53 C 6.952,13.224 9.724,9.411 8.958,5.527 8.191,1.647 4.182,-0.825 0,0 Z" /></g><g
           transform="translate(198.4932,177.3848)"
           id="g152"><path
             id="path154"
             style="fill:none;stroke:#000000;stroke-width:0.25;stroke-linecap:round;stroke-linejoin:round;stroke-miterlimit:10;stroke-dasharray:none;stroke-opacity:1"
             d="m 0,0 c -4.14,0.815 -6.878,4.581 -6.118,8.423 0.759,3.834 4.717,6.278 8.853,5.467 C 6.872,13.072 9.612,9.304 8.855,5.465 8.097,1.629 4.134,-0.815 0,0 Z" /></g><g
           transform="translate(198.9463,179.1055)"
           id="g156"><path
             id="path158"
             style="fill:none;stroke:#000000;stroke-width:0.25;stroke-linecap:round;stroke-linejoin:round;stroke-miterlimit:10;stroke-dasharray:none;stroke-opacity:1"
             d="m 0,0 c -4.092,0.806 -6.798,4.528 -6.047,8.325 0.749,3.79 4.662,6.207 8.751,5.404 C 6.793,12.922 9.501,9.197 8.753,5.401 8.004,1.61 4.086,-0.806 0,0 Z" /></g><g
           transform="translate(202.0723,194.3955)"
           id="g160"><path
             id="path162"
             style="fill:none;stroke:#000000;stroke-width:0.25;stroke-linecap:round;stroke-linejoin:round;stroke-miterlimit:10;stroke-dasharray:none;stroke-opacity:1"
             d="m 0,0 c 4.041,-0.798 6.718,-4.48 5.979,-8.231 -0.742,-3.747 -4.614,-6.135 -8.652,-5.338 -4.044,0.797 -6.719,4.475 -5.976,8.228 C -7.908,-1.596 -4.041,0.793 0,0 Z" /></g></g></g><g
       id="g164"><g
         clip-path="url(#clipPath168)"
         id="g166"><g
           transform="translate(198.6992,181.9111)"
           id="g172"><path
             id="path174"
             style="fill:none;stroke:#000000;stroke-width:0.25;stroke-linecap:round;stroke-linejoin:round;stroke-miterlimit:10;stroke-dasharray:none;stroke-opacity:1"
             d="m 0,0 c 4.422,-0.874 7.352,-4.903 6.542,-9.008 -0.811,-4.101 -5.048,-6.715 -9.468,-5.843 -4.426,0.872 -7.353,4.899 -6.541,9.006 C -8.656,-1.746 -4.424,0.868 0,0 Z" /></g><g
           transform="translate(189.2324,176.0659)"
           id="g176"><path
             id="path178"
             style="fill:none;stroke:#000000;stroke-width:0.5;stroke-linecap:round;stroke-linejoin:round;stroke-miterlimit:10;stroke-dasharray:none;stroke-opacity:1"
             d="m 0,0 c 0.811,4.099 5.043,6.713 9.467,5.845 4.422,-0.873 7.351,-4.903 6.542,-9.008" /></g><g
           transform="translate(199.1895,184.395)"
           id="g180"><path
             id="path182"
             style="fill:none;stroke:#000000;stroke-width:0.25;stroke-linecap:round;stroke-linejoin:round;stroke-miterlimit:10;stroke-dasharray:none;stroke-opacity:1"
             d="m 0,0 c 5.9,-1.165 9.811,-6.543 8.73,-12.021 -1.082,-5.473 -6.737,-8.961 -12.635,-7.797 -5.907,1.163 -9.814,6.537 -8.73,12.017 C -11.553,-2.33 -5.904,1.159 0,0 Z" /></g><g
           transform="translate(159.9141,99.6685)"
           id="g184"><path
             id="path186"
             style="fill:none;stroke:#000000;stroke-width:0.5;stroke-linecap:round;stroke-linejoin:round;stroke-miterlimit:10;stroke-dasharray:none;stroke-opacity:1"
             d="M 0,0 8.499,6.011 18.55,1.729 20.103,-8.567" /></g><g
           transform="translate(158.4736,96.2749)"
           id="g188"><path
             id="path190"
             style="fill:none;stroke:#000000;stroke-width:0.5;stroke-linecap:round;stroke-linejoin:round;stroke-miterlimit:10;stroke-dasharray:none;stroke-opacity:1"
             d="M 0,0 8.499,6.011 18.55,1.729 20.103,-8.567" /></g><g
           transform="translate(159.9141,99.6685)"
           id="g192"><path
             id="path194"
             style="fill:none;stroke:#000000;stroke-width:1;stroke-linecap:round;stroke-linejoin:round;stroke-miterlimit:10;stroke-dasharray:none;stroke-opacity:1"
             d="m 0,0 -1.44,-3.394 1.551,-10.293 10.051,-4.284 8.5,6.011 1.441,3.393" /></g><g
           transform="translate(166.9727,102.2861)"
           id="g196"><path
             id="path198"
             style="fill:none;stroke:#000000;stroke-width:0.5;stroke-linecap:round;stroke-linejoin:round;stroke-miterlimit:10;stroke-dasharray:none;stroke-opacity:1"
             d="M 0,0 1.44,3.394" /></g><g
           transform="translate(177.0234,98.0034)"
           id="g200"><path
             id="path202"
             style="fill:none;stroke:#000000;stroke-width:0.5;stroke-linecap:round;stroke-linejoin:round;stroke-miterlimit:10;stroke-dasharray:none;stroke-opacity:1"
             d="M 0,0 1.44,3.394" /></g><g
           transform="translate(90.9966,104.8838)"
           id="g204"><path
             id="path206"
             style="fill:none;stroke:#000000;stroke-width:0.25;stroke-linecap:round;stroke-linejoin:round;stroke-miterlimit:10;stroke-dasharray:none;stroke-opacity:1"
             d="M 0,0 C 8.288,-3.48 12.396,-12.529 9.169,-20.226" /></g><g
           transform="translate(70.0835,97.0825)"
           id="g208"><path
             id="path210"
             style="fill:none;stroke:#000000;stroke-width:0.25;stroke-linecap:round;stroke-linejoin:round;stroke-miterlimit:10;stroke-dasharray:none;stroke-opacity:1"
             d="M 0,0 C 0.023,0.06 0.048,0.119 0.072,0.178 1.747,4.167 5.064,7.003 9.026,8.325" /></g><g
           transform="translate(77.6865,105.876)"
           id="g212"><path
             id="path214"
             style="fill:none;stroke:#000000;stroke-width:0.5;stroke-linecap:round;stroke-linejoin:round;stroke-miterlimit:10;stroke-dasharray:none;stroke-opacity:1"
             d="m 0,0 c -3.053,-1.519 -5.548,-4.023 -6.928,-7.311 l -0.675,-1.482 c -3.1,-7.657 1.004,-16.589 9.237,-20.043 8.288,-3.477 17.615,-0.069 20.845,7.618 l 0.603,1.305 c 3.119,7.441 -0.617,16.145 -8.358,19.86" /></g><g
           transform="translate(65.3154,108.4395)"
           id="g216"><path
             id="path218"
             style="fill:none;stroke:#000000;stroke-width:0.25;stroke-linecap:round;stroke-linejoin:round;stroke-miterlimit:10;stroke-dasharray:none;stroke-opacity:1"
             d="m 0,0 c -4.231,-2.561 -7.664,-6.348 -9.672,-11.134 -1.176,-2.798 -1.765,-5.703 -1.825,-8.595 -0.029,-1.387 -0.018,-6.73 -0.002,-8.023 0.124,-10.032 6.567,-19.77 17.044,-24.167 13.763,-5.772 29.249,-0.114 34.614,12.65 1.137,2.713 1.722,5.528 1.81,8.333 0.007,0.206 0.011,0.411 0.012,0.616 0.006,1.263 -0.033,5.787 -0.009,6.796 C 42.168,-15.213 38,-7.001 30.764,-1.75" /></g><g
           transform="translate(57.5107,109.6406)"
           id="g220"><path
             id="path222"
             style="fill:none;stroke:#000000;stroke-width:0.25;stroke-linecap:round;stroke-linejoin:round;stroke-miterlimit:10;stroke-dasharray:none;stroke-opacity:1"
             d="m 0,0 c -4.409,-3.113 -7.977,-7.383 -10.172,-12.614 -1.476,-3.511 -2.206,-7.159 -2.268,-10.788 -0.022,-1.376 -0.025,-6.856 -0.002,-8.225 0.21,-12.396 8.195,-24.407 21.144,-29.839 17.069,-7.159 36.275,-0.142 42.928,15.689 1.426,3.402 2.152,6.931 2.248,10.448 0.041,1.481 0.031,7.1 0.014,8.433 -0.125,9.46 -4.776,18.709 -12.699,24.997" /></g><g
           transform="translate(71.1475,106.8413)"
           id="g224"><path
             id="path226"
             style="fill:none;stroke:#000000;stroke-width:0.25;stroke-linecap:round;stroke-linejoin:round;stroke-miterlimit:10;stroke-dasharray:none;stroke-opacity:1"
             d="m 0,0 c -1.559,-1.506 -2.832,-3.328 -3.712,-5.425 -0.802,-1.907 -1.208,-3.885 -1.261,-5.856 -0.036,-1.349 -0.019,-6.546 0.006,-7.811 0.134,-6.935 4.594,-13.646 11.839,-16.685 9.571,-4.015 20.341,-0.08 24.072,8.798 0.809,1.932 1.214,3.937 1.257,5.934 0.028,1.319 0.002,6.309 -0.004,7.502 -0.001,0.103 -0.003,0.205 -0.005,0.307 -0.081,3.32 -1.153,6.588 -3.045,9.422" /></g><g
           transform="translate(72.4946,94.7573)"
           id="g228"><path
             id="path230"
             style="fill:none;stroke:#000000;stroke-width:0.5;stroke-linecap:round;stroke-linejoin:round;stroke-miterlimit:10;stroke-dasharray:none;stroke-opacity:1"
             d="m 0,0 c 2.545,6.06 9.895,8.748 16.434,6.011 6.536,-2.744 9.775,-9.88 7.23,-15.948" /></g><g
           transform="translate(87.1235,77.9111)"
           id="g232"><path
             id="path234"
             style="fill:none;stroke:#000000;stroke-width:1;stroke-linecap:round;stroke-linejoin:round;stroke-miterlimit:10;stroke-dasharray:none;stroke-opacity:1"
             d="m 0,0 c 3.974,0.65 7.443,3.121 9.035,6.909 l 0.702,1.606 c 2.545,6.069 -0.694,13.204 -7.23,15.948 -6.539,2.737 -13.889,0.049 -16.434,-6.011 l -0.702,-1.606 c -1.506,-3.582 -0.994,-7.534 1.024,-10.737" /></g><g
           transform="translate(85.7769,93.4121)"
           id="g236"><path
             id="path238"
             style="fill:none;stroke:#000000;stroke-width:0.5;stroke-linecap:round;stroke-linejoin:round;stroke-miterlimit:10;stroke-dasharray:none;stroke-opacity:1"
             d="m 0,0 c 4.544,-1.908 6.796,-6.869 5.026,-11.088 -1.77,-4.215 -6.883,-6.083 -11.426,-4.177 -4.549,1.909 -6.799,6.866 -5.026,11.085 C -9.656,0.034 -4.547,1.903 0,0 Z" /></g><g
           transform="translate(74.0044,93.7124)"
           id="g240"><path
             id="path242"
             style="fill:none;stroke:#000000;stroke-width:0.5;stroke-linecap:round;stroke-linejoin:round;stroke-miterlimit:10;stroke-dasharray:none;stroke-opacity:1"
             d="M 0,0 8.499,6.011 18.55,1.729 20.103,-8.567" /></g><g
           transform="translate(72.564,90.3184)"
           id="g244"><path
             id="path246"
             style="fill:none;stroke:#000000;stroke-width:0.5;stroke-linecap:round;stroke-linejoin:round;stroke-miterlimit:10;stroke-dasharray:none;stroke-opacity:1"
             d="M 0,0 8.499,6.012 18.55,1.729 20.103,-8.566" /></g><g
           transform="translate(74.0044,93.7124)"
           id="g248"><path
             id="path250"
             style="fill:none;stroke:#000000;stroke-width:1;stroke-linecap:round;stroke-linejoin:round;stroke-miterlimit:10;stroke-dasharray:none;stroke-opacity:1"
             d="m 0,0 -1.44,-3.394 1.551,-10.293 10.051,-4.284 8.5,6.011 1.441,3.393" /></g><g
           transform="translate(81.063,96.3301)"
           id="g252"><path
             id="path254"
             style="fill:none;stroke:#000000;stroke-width:0.5;stroke-linecap:round;stroke-linejoin:round;stroke-miterlimit:10;stroke-dasharray:none;stroke-opacity:1"
             d="M 0,0 1.44,3.394" /></g><g
           transform="translate(91.1138,92.0474)"
           id="g256"><path
             id="path258"
             style="fill:none;stroke:#000000;stroke-width:0.5;stroke-linecap:round;stroke-linejoin:round;stroke-miterlimit:10;stroke-dasharray:none;stroke-opacity:1"
             d="M 0,0 1.44,3.394" /></g><g
           transform="translate(141.4629,128.877)"
           id="g260"><path
             id="path262"
             style="fill:none;stroke:#000000;stroke-width:0.25;stroke-linecap:round;stroke-linejoin:round;stroke-miterlimit:10;stroke-dasharray:none;stroke-opacity:1"
             d="m 0,0 c -1.709,-3.073 -4.66,-5.625 -9.213,-5.625 -8.5,0 -13.25,-0.25 -13.25,-0.25" /></g><g
           transform="translate(78.1309,158.8877)"
           id="g264"><path
             id="path266"
             style="fill:none;stroke:#000000;stroke-width:0.5;stroke-linecap:round;stroke-linejoin:round;stroke-miterlimit:10;stroke-dasharray:none;stroke-opacity:1"
             d="m 0,0 c 2.362,2.108 5.417,3.273 8.369,3.614 6.5,0.75 27.25,3.5 36,4.25 8.75,0.75 16.75,-4 18.25,-13.5 1.5,-9.5 1.75,-11.5 2.5,-15.75 0.371,-2.103 -0.111,-5.614 -1.787,-8.625" /></g><g
           transform="translate(74,147.002)"
           id="g268"><path
             id="path270"
             style="fill:none;stroke:#000000;stroke-width:0.25;stroke-linecap:round;stroke-linejoin:round;stroke-miterlimit:10;stroke-dasharray:none;stroke-opacity:1"
             d="M 0,0 C -0.546,5.458 1.292,9.353 4.131,11.886" /></g><g
           transform="translate(85,162.002)"
           id="g272"><path
             id="path274"
             style="fill:none;stroke:#000000;stroke-width:0.5;stroke-linecap:round;stroke-linejoin:round;stroke-miterlimit:10;stroke-dasharray:none;stroke-opacity:1"
             d="M 0,0 C -5.5,-4.5 -5.5,-9.75 -5.5,-14.75" /></g><g
           transform="translate(121,126.752)"
           id="g276"><path
             id="path278"
             style="fill:none;stroke:#000000;stroke-width:0.5;stroke-linecap:round;stroke-linejoin:round;stroke-miterlimit:10;stroke-dasharray:none;stroke-opacity:1"
             d="m 0,0 c 0,0 4.25,-0.25 11,0.25 6.75,0.5 10.5,5 11.5,9.5" /></g><g
           transform="translate(123,132.502)"
           id="g280"><path
             id="path282"
             style="fill:none;stroke:#000000;stroke-width:0.5;stroke-linecap:round;stroke-linejoin:round;stroke-miterlimit:10;stroke-dasharray:none;stroke-opacity:1"
             d="m 0,0 c -2.5,-9.75 -6.5,-17.25 -16,-21.5 -9.5,-4.25 -16.25,-8.5 -35,-4 -18.75,4.5 -69.75,14.5 -79.75,18.25" /></g><g
           transform="translate(-5,145.502)"
           id="g284"><path
             id="path286"
             style="fill:none;stroke:#000000;stroke-width:0.5;stroke-linecap:round;stroke-linejoin:round;stroke-miterlimit:10;stroke-dasharray:none;stroke-opacity:1"
             d="m 0,0 c 18.5,-6.25 40.25,-13.75 57,-19.25 16.75,-5.5 22.75,-2 34,-4.5 11.25,-2.5 13,-1.5 15,5.5" /></g><g
           transform="translate(-7,110.002)"
           id="g288"><path
             id="path290"
             style="fill:none;stroke:#000000;stroke-width:0.5;stroke-linecap:round;stroke-linejoin:round;stroke-miterlimit:10;stroke-dasharray:none;stroke-opacity:1"
             d="M 0,0 C 10.5,5.75 21.75,9.25 21.75,9.25" /></g><g
           transform="translate(43.75,129.502)"
           id="g292"><path
             id="path294"
             style="fill:none;stroke:#000000;stroke-width:0.5;stroke-linecap:round;stroke-linejoin:round;stroke-miterlimit:10;stroke-dasharray:none;stroke-opacity:1"
             d="M 0,0 9.75,2.75" /></g><g
           transform="translate(46.75,112.502)"
           id="g296"><path
             id="path298"
             style="fill:none;stroke:#000000;stroke-width:0.5;stroke-linecap:round;stroke-linejoin:round;stroke-miterlimit:10;stroke-dasharray:none;stroke-opacity:1"
             d="M 0,0 C -23.75,-6.5 -41.75,-16 -52,-22" /></g><g
           transform="translate(83.75,122.502)"
           id="g300"><path
             id="path302"
             style="fill:none;stroke:#000000;stroke-width:0.5;stroke-linecap:round;stroke-linejoin:round;stroke-miterlimit:10;stroke-dasharray:none;stroke-opacity:1"
             d="M 0,0 C 6,1.75 16,2 16,2" /></g><g
           transform="translate(134.0098,148.3652)"
           id="g304"><path
             id="path306"
             style="fill:none;stroke:#000000;stroke-width:0.25;stroke-linecap:round;stroke-linejoin:round;stroke-miterlimit:10;stroke-dasharray:none;stroke-opacity:1"
             d="M 0,0 6.99,0.887" /></g><g
           transform="translate(108.25,164.502)"
           id="g308"><path
             id="path310"
             style="fill:none;stroke:#000000;stroke-width:0.25;stroke-linecap:round;stroke-linejoin:round;stroke-miterlimit:10;stroke-dasharray:none;stroke-opacity:1"
             d="M 0,0 5,-9" /></g><g
           transform="translate(106.25,155.252)"
           id="g312"><path
             id="path314"
             style="fill:none;stroke:#000000;stroke-width:0.5;stroke-linecap:round;stroke-linejoin:round;stroke-miterlimit:10;stroke-dasharray:none;stroke-opacity:1"
             d="M 0,0 -3,8.25" /></g><g
           transform="translate(219.4355,176.5659)"
           id="g316"><path
             id="path318"
             style="fill:none;stroke:#000000;stroke-width:0.25;stroke-linecap:round;stroke-linejoin:round;stroke-miterlimit:10;stroke-dasharray:none;stroke-opacity:1"
             d="m 0,0 c 0.057,0.187 0.078,0.387 0.057,0.593 -0.087,0.824 -0.819,1.42 -1.65,1.335 L -7.409,1.316 c -1.518,5.172 -6.04,9.431 -12.028,10.613 -1.067,0.209 -2.126,0.308 -3.167,0.311 l -0.973,6.421 c -0.125,0.819 -0.892,1.381 -1.708,1.258 -0.819,-0.124 -1.383,-0.888 -1.259,-1.708 l 0.945,-6.241 C -31.408,10.893 -36.157,6.68 -37.301,0.9 c -0.182,-0.922 -0.258,-1.842 -0.248,-2.752 l -5.669,-0.595 c -0.823,-0.087 -1.421,-0.825 -1.335,-1.649 0.03,-0.272 0.129,-0.52 0.28,-0.727" /></g><g
           transform="translate(168,178.377)"
           id="g320"><path
             id="path322"
             style="fill:none;stroke:#000000;stroke-width:0.5;stroke-linecap:round;stroke-linejoin:round;stroke-miterlimit:10;stroke-dasharray:none;stroke-opacity:1"
             d="m 0,0 7.162,-6.634 c 0.275,-0.377 0.721,-0.616 1.211,-0.616 0.053,0 0.106,0.002 0.159,0.008 l 5.722,0.602 c 1.31,-5.466 5.975,-10.029 12.223,-11.26 1.233,-0.243 2.455,-0.327 3.653,-0.294 l 0.762,-5.031 c 0.113,-0.743 0.752,-1.275 1.481,-1.275 0.075,0 0.15,0.005 0.227,0.017 0.606,0.092 1.072,0.534 1.222,1.089 L 36,-17.25" /></g><g
           transform="translate(201.3789,160.6021)"
           id="g324"><path
             id="path326"
             style="fill:none;stroke:#000000;stroke-width:0.5;stroke-linecap:round;stroke-linejoin:round;stroke-miterlimit:10;stroke-dasharray:none;stroke-opacity:1"
             d="m 0,0 c 5.466,1.285 9.867,5.367 10.961,10.897 0.227,1.151 0.28,2.296 0.21,3.422 l 5.607,0.589 c 0.618,0.065 1.108,0.496 1.279,1.056 l 3.189,7.061" /></g><g
           transform="translate(201.8223,154.9834)"
           id="g328"><path
             id="path330"
             style="fill:none;stroke:#000000;stroke-width:0.25;stroke-linecap:round;stroke-linejoin:round;stroke-miterlimit:10;stroke-dasharray:none;stroke-opacity:1"
             d="m 0,0 c 0.054,0.195 0.068,0.405 0.036,0.618 l -0.748,4.94 c 0.09,0.019 0.18,0.04 0.269,0.061" /></g><g
           transform="translate(184.3281,189.9043)"
           id="g332"><path
             id="path334"
             style="fill:none;stroke:#000000;stroke-width:0.25;stroke-linecap:round;stroke-linejoin:round;stroke-miterlimit:10;stroke-dasharray:none;stroke-opacity:1"
             d="m 0,0 c -0.854,-1.412 -1.475,-2.981 -1.81,-4.676 -0.197,-0.998 -0.279,-1.993 -0.268,-2.976 l -13.215,-1.023 c -0.891,-0.094 -1.537,-0.892 -1.444,-1.783 0.028,-0.274 0.124,-0.524 0.268,-0.737" /></g><g
           transform="translate(222.8457,184.1836)"
           id="g336"><path
             id="path338"
             style="fill:none;stroke:#000000;stroke-width:0.25;stroke-linecap:round;stroke-linejoin:round;stroke-miterlimit:10;stroke-dasharray:none;stroke-opacity:1"
             d="M 0,0 C 0.078,0.221 0.109,0.463 0.083,0.712 -0.011,1.604 -0.802,2.248 -1.701,2.156 L -7.992,1.495 c -1.05,3.578 -3.431,6.752 -6.705,8.91" /></g><g
           transform="translate(181.8867,174.7144)"
           id="g340"><path
             id="path342"
             style="fill:none;stroke:#000000;stroke-width:0.25;stroke-linecap:round;stroke-linejoin:round;stroke-miterlimit:10;stroke-dasharray:none;stroke-opacity:1"
             d="M 0,0 0.363,7.538" /></g><g
           transform="translate(212.0264,177.8823)"
           id="g344"><path
             id="path346"
             style="fill:none;stroke:#000000;stroke-width:0.25;stroke-linecap:round;stroke-linejoin:round;stroke-miterlimit:10;stroke-dasharray:none;stroke-opacity:1"
             d="M 0,0 2.827,7.796" /></g><g
           transform="translate(3.0645,159.7598)"
           id="g348"><path
             id="path350"
             style="fill:none;stroke:#000000;stroke-width:0.5;stroke-linecap:round;stroke-linejoin:round;stroke-miterlimit:10;stroke-dasharray:none;stroke-opacity:1"
             d="M 0,0 -12.213,5.811" /></g><g
           transform="translate(2.1782,155.5244)"
           id="g352"><path
             id="path354"
             style="fill:none;stroke:#000000;stroke-width:0.5;stroke-linecap:round;stroke-linejoin:round;stroke-miterlimit:10;stroke-dasharray:none;stroke-opacity:1"
             d="M 0,0 -12.213,5.811" /></g><g
           transform="translate(1.5874,151.3877)"
           id="g356"><path
             id="path358"
             style="fill:none;stroke:#000000;stroke-width:0.5;stroke-linecap:round;stroke-linejoin:round;stroke-miterlimit:10;stroke-dasharray:none;stroke-opacity:1"
             d="M 0,0 -12.903,0.689" /></g><g
           transform="translate(0.3066,146.4629)"
           id="g360"><path
             id="path362"
             style="fill:none;stroke:#000000;stroke-width:0.5;stroke-linecap:round;stroke-linejoin:round;stroke-miterlimit:10;stroke-dasharray:none;stroke-opacity:1"
             d="M 0,0 -12.903,0.689" /></g><g
           transform="translate(2.3335,41.252)"
           id="g364"><path
             id="path366"
             style="fill:none;stroke:#000000;stroke-width:0.5;stroke-linecap:round;stroke-linejoin:round;stroke-miterlimit:10;stroke-dasharray:none;stroke-opacity:1"
             d="M 0,0 C 1,2 4.333,7.666 6.667,6.333 9,5 51.333,-21.667 51.333,-21.667" /></g><g
           transform="translate(52.4072,20.5107)"
           id="g368"><path
             id="path370"
             style="fill:none;stroke:#000000;stroke-width:0.5;stroke-linecap:round;stroke-linejoin:round;stroke-miterlimit:10;stroke-dasharray:none;stroke-opacity:1"
             d="M 0,0 C 0.732,0.732 2.471,3.389 3.479,2.747 4.486,2.105 23.068,-8.421 23.068,-8.421 c 0,0 0.183,0.642 0.824,0.366 0.641,-0.275 9.978,-5.309 11.9,-6.408 1.923,-1.099 1.648,-6.225 -0.457,-9.154" /></g><g
           transform="translate(-2.875,26.877)"
           id="g372"><path
             id="path374"
             style="fill:none;stroke:#000000;stroke-width:0.5;stroke-linecap:round;stroke-linejoin:round;stroke-miterlimit:10;stroke-dasharray:none;stroke-opacity:1"
             d="M 0,0 44.125,-26.125" /></g><g
           transform="translate(40,-2.623)"
           id="g376"><path
             id="path378"
             style="fill:none;stroke:#000000;stroke-width:0.5;stroke-linecap:round;stroke-linejoin:round;stroke-miterlimit:10;stroke-dasharray:none;stroke-opacity:1"
             d="M 0,0 C -0.875,0.625 -0.375,2.375 0,3.625" /></g><g
           transform="translate(55.5,23.127)"
           id="g380"><path
             id="path382"
             style="fill:none;stroke:#000000;stroke-width:0.25;stroke-linecap:round;stroke-linejoin:round;stroke-miterlimit:10;stroke-dasharray:none;stroke-opacity:1"
             d="M 0,0 C 3.375,-1.75 -12.625,-28.375 -15.375,-26" /></g><g
           transform="translate(75,12.502)"
           id="g384"><path
             id="path386"
             style="fill:none;stroke:#000000;stroke-width:0.25;stroke-linecap:round;stroke-linejoin:round;stroke-miterlimit:10;stroke-dasharray:none;stroke-opacity:1"
             d="M 0,0 C 3.375,-1.75 -12.625,-28.375 -15.375,-26" /></g><g
           transform="translate(76.5,12.377)"
           id="g388"><path
             id="path390"
             style="fill:none;stroke:#000000;stroke-width:0.25;stroke-linecap:round;stroke-linejoin:round;stroke-miterlimit:10;stroke-dasharray:none;stroke-opacity:1"
             d="M 0,0 C 3.563,-1.848 -13.331,-29.961 -16.234,-27.453" /></g><g
           transform="translate(53.415,19.4707)"
           id="g392"><path
             id="path394"
             style="fill:none;stroke:#000000;stroke-width:0.25;stroke-linecap:round;stroke-linejoin:round;stroke-miterlimit:10;stroke-dasharray:none;stroke-opacity:1"
             d="M 0,0 C 2.432,-1.26 -9.684,-20.68 -11.665,-18.969" /></g><g
           transform="translate(8.165,48.0957)"
           id="g396"><path
             id="path398"
             style="fill:none;stroke:#000000;stroke-width:0.25;stroke-linecap:round;stroke-linejoin:round;stroke-miterlimit:10;stroke-dasharray:none;stroke-opacity:1"
             d="M 0,0 C 2.432,-1.26 -9.684,-20.68 -11.665,-18.969" /></g><g
           transform="translate(-2.5,42.252)"
           id="g400"><path
             id="path402"
             style="fill:none;stroke:#000000;stroke-width:0.5;stroke-linecap:round;stroke-linejoin:round;stroke-miterlimit:10;stroke-dasharray:none;stroke-opacity:1"
             d="M 0,0 C 0,0 4.5,-1.25 6.125,-2 7.75,-2.75 4,-6.875 3.25,-6.375 c -0.75,0.5 -6,1.5 -6,1.5" /></g><g
           transform="translate(114.667,-9.915)"
           id="g404"><path
             id="path406"
             style="fill:none;stroke:#000000;stroke-width:0.25;stroke-linecap:round;stroke-linejoin:round;stroke-miterlimit:10;stroke-dasharray:none;stroke-opacity:1"
             d="m 0,0 -12.167,32.667 10,-33.334" /></g><g
           transform="translate(100.5,22.585)"
           id="g408"><path
             id="path410"
             style="fill:none;stroke:#000000;stroke-width:0.5;stroke-linecap:round;stroke-linejoin:round;stroke-miterlimit:10;stroke-dasharray:none;stroke-opacity:1"
             d="M 0,0 10.5,-34.167" /></g><g
           transform="translate(140,-19.0811)"
           id="g412"><path
             id="path414"
             style="fill:none;stroke:#000000;stroke-width:0.25;stroke-linecap:round;stroke-linejoin:round;stroke-miterlimit:10;stroke-dasharray:none;stroke-opacity:1"
             d="M 0,0 -4.5,33.833 -1.291,-0.82" /></g><g
           transform="translate(133.5059,14.9834)"
           id="g416"><path
             id="path418"
             style="fill:none;stroke:#000000;stroke-width:0.5;stroke-linecap:round;stroke-linejoin:round;stroke-miterlimit:10;stroke-dasharray:none;stroke-opacity:1"
             d="M 0,0 3.535,-35.569" /></g><g
           transform="translate(163.9795,-10.041)"
           id="g420"><path
             id="path422"
             style="fill:none;stroke:#000000;stroke-width:0.25;stroke-linecap:round;stroke-linejoin:round;stroke-miterlimit:10;stroke-dasharray:none;stroke-opacity:1"
             d="M 0,0 1.187,34.126 -0.825,-0.618" /></g><g
           transform="translate(163.2305,24.6113)"
           id="g424"><path
             id="path426"
             style="fill:none;stroke:#000000;stroke-width:0.5;stroke-linecap:round;stroke-linejoin:round;stroke-miterlimit:10;stroke-dasharray:none;stroke-opacity:1"
             d="M 0,0 -1.828,-35.697" /></g><g
           transform="translate(188.1006,-13.9756)"
           id="g428"><path
             id="path430"
             style="fill:none;stroke:#000000;stroke-width:0.25;stroke-linecap:round;stroke-linejoin:round;stroke-miterlimit:10;stroke-dasharray:none;stroke-opacity:1"
             d="M 0,0 14.407,56.839 -0.934,-0.439" /></g><g
           transform="translate(200.7187,43.7695)"
           id="g432"><path
             id="path434"
             style="fill:none;stroke:#000000;stroke-width:0.5;stroke-linecap:round;stroke-linejoin:round;stroke-miterlimit:10;stroke-dasharray:none;stroke-opacity:1"
             d="M 0,0 -15.353,-58.249" /></g><g
           transform="translate(76.4521,12.4365)"
           id="g436"><path
             id="path438"
             style="fill:none;stroke:#000000;stroke-width:0.25;stroke-linecap:round;stroke-linejoin:round;stroke-miterlimit:10;stroke-dasharray:none;stroke-opacity:1"
             d="M 0,0 -17.285,25.315 -2.636,0.542" /></g><g
           transform="translate(57.2656,37.1094)"
           id="g440"><path
             id="path442"
             style="fill:none;stroke:#000000;stroke-width:0.5;stroke-linecap:round;stroke-linejoin:round;stroke-miterlimit:10;stroke-dasharray:none;stroke-opacity:1"
             d="M 0,0 13.268,-22.099" /></g><g
           transform="translate(219.7812,-2.1582)"
           id="g444"><path
             id="path446"
             style="fill:none;stroke:#000000;stroke-width:0.25;stroke-linecap:round;stroke-linejoin:round;stroke-miterlimit:10;stroke-dasharray:none;stroke-opacity:1"
             d="M 0,0 C 7.158,20.601 10.737,28.457 14.84,27.934 18.942,27.41 18.593,3.23 18.768,-3.666" /></g><g
           transform="translate(231.042,22.8945)"
           id="g448"><path
             id="path450"
             style="fill:none;stroke:#000000;stroke-width:0.25;stroke-linecap:round;stroke-linejoin:round;stroke-miterlimit:10;stroke-dasharray:none;stroke-opacity:1"
             d="m 0,0 c 0,0 1.046,-1.222 0.174,-6.11 -0.872,-4.889 -4.451,-27.846 -4.451,-27.846" /></g><g
           transform="translate(231.6523,-10.625)"
           id="g452"><path
             id="path454"
             style="fill:none;stroke:#000000;stroke-width:0.25;stroke-linecap:round;stroke-linejoin:round;stroke-miterlimit:10;stroke-dasharray:none;stroke-opacity:1"
             d="m 0,0 c 0,0 3.143,23.133 3.579,26.449 0.437,3.317 1.223,5.761 1.223,5.761" /></g><g
           transform="translate(37.7856,162.3301)"
           id="g456"><path
             id="path458"
             style="fill:none;stroke:#000000;stroke-width:0.5;stroke-linecap:round;stroke-linejoin:round;stroke-miterlimit:10;stroke-dasharray:none;stroke-opacity:1"
             d="m 0,0 c -0.29,-0.506 -0.798,-0.984 -1.536,-1.343 -2.853,-1.386 -10.921,-5.46 -10.921,-5.46" /></g><g
           transform="translate(-0.9956,180.6284)"
           id="g460"><path
             id="path462"
             style="fill:none;stroke:#000000;stroke-width:0.25;stroke-linecap:round;stroke-linejoin:round;stroke-miterlimit:10;stroke-dasharray:none;stroke-opacity:1"
             d="m 0,0 c 1.467,0.978 3.178,1.956 4.075,-0.571 0.896,-2.526 3.26,-9.617 3.26,-9.617 0,0 9.373,1.142 13.529,-7.008 0,0 11.817,1.304 15.24,1.711 2.537,0.302 3.507,-1.366 2.677,-2.813" /></g><g
           transform="translate(19.8682,163.4321)"
           id="g464"><path
             id="path466"
             style="fill:none;stroke:#000000;stroke-width:0.25;stroke-linecap:round;stroke-linejoin:round;stroke-miterlimit:10;stroke-dasharray:none;stroke-opacity:1"
             d="M 0,0 -3.179,-5.95" /></g><g
           transform="translate(6.3394,170.4409)"
           id="g468"><path
             id="path470"
             style="fill:none;stroke:#000000;stroke-width:0.25;stroke-linecap:round;stroke-linejoin:round;stroke-miterlimit:10;stroke-dasharray:none;stroke-opacity:1"
             d="M 0,0 -5.216,-6.031" /></g><g
           transform="translate(-1.5659,170.1147)"
           id="g472"><path
             id="path474"
             style="fill:none;stroke:#000000;stroke-width:0.25;stroke-linecap:round;stroke-linejoin:round;stroke-miterlimit:10;stroke-dasharray:none;stroke-opacity:1"
             d="m 0,0 2.2,-6.031 c 0,0 7.498,-0.244 10.676,-5.379" /></g><g
           transform="translate(35.7603,164.4917)"
           id="g476"><path
             id="path478"
             style="fill:none;stroke:#000000;stroke-width:0.25;stroke-linecap:round;stroke-linejoin:round;stroke-miterlimit:10;stroke-dasharray:none;stroke-opacity:1"
             d="M 0,0 -16.055,-7.58" /></g></g></g><text
       id="text480"
       style="font-variant:normal;font-weight:normal;font-stretch:normal;font-size:4px;font-family:Helvetica;writing-mode:lr-tb;fill:#231f20;fill-opacity:1;fill-rule:nonzero;stroke:none"
       transform="matrix(1,0,0,-1,1.9058,2.3311)"><tspan
         id="tspan482"
         y="0"
         x="0 2 2.888 5.112">cjed</tspan></text>
<g
       transform="translate(132.8564,33.335)"
       id="g484"><path
         id="path486"
         style="fill:none;stroke:#ffffff;stroke-width:3;stroke-linecap:round;stroke-linejoin:miter;stroke-miterlimit:4;stroke-dasharray:none;stroke-opacity:1"
         d="M 0,0 34.144,52.917" /></g><g
       transform="translate(167,86.252)"
       id="g488"><path
         id="path490"
         style="fill:none;stroke:#ffffff;stroke-width:3.75;stroke-linecap:round;stroke-linejoin:miter;stroke-miterlimit:4;stroke-dasharray:none;stroke-opacity:1"
         d="M 0,0 0,0" /></g><g
       transform="translate(167,86.252)"
       id="g492"><path
         id="path494"
         style="fill:none;stroke:#211f1f;stroke-width:1.5;stroke-linecap:round;stroke-linejoin:miter;stroke-miterlimit:4;stroke-dasharray:none;stroke-opacity:1"
         d="M 0,0 0,0" /></g><g
       transform="translate(132.8564,33.335)"
       id="g496"><path
         id="path498"
         style="fill:none;stroke:#ffffff;stroke-width:3;stroke-linecap:round;stroke-linejoin:miter;stroke-miterlimit:4;stroke-dasharray:none;stroke-opacity:1"
         d="M 0,0 -48.523,49.584" /></g><g
       transform="translate(132.8564,33.335)"
       id="g500"><path
         id="path502"
         style="fill:none;stroke:#211f1f;stroke-width:0.5;stroke-linecap:round;stroke-linejoin:miter;stroke-miterlimit:4;stroke-dasharray:none;stroke-opacity:1"
         d="M 0,0 34.144,52.917" /></g><g
       transform="translate(84.3335,82.9189)"
       id="g504"><path
         id="path506"
         style="fill:none;stroke:#ffffff;stroke-width:3.75;stroke-linecap:round;stroke-linejoin:miter;stroke-miterlimit:4;stroke-dasharray:none;stroke-opacity:1"
         d="M 0,0 0,0" /></g><g
       transform="translate(132.8564,33.335)"
       id="g508"><path
         id="path510"
         style="fill:none;stroke:#211f1f;stroke-width:0.5;stroke-linecap:round;stroke-linejoin:miter;stroke-miterlimit:4;stroke-dasharray:none;stroke-opacity:1"
         d="M 0,0 -48.523,49.584" /></g><g
       transform="translate(84.3335,82.9189)"
       id="g512"><path
         id="path514"
         style="fill:none;stroke:#211f1f;stroke-width:1.5;stroke-linecap:round;stroke-linejoin:miter;stroke-miterlimit:4;stroke-dasharray:none;stroke-opacity:1"
         d="M 0,0 0,0" /></g><text
       id="text516"
       style="font-variant:normal;font-weight:bold;font-stretch:normal;font-size:10px;font-family:Helvetica-Bold;writing-mode:lr-tb;fill:#231f20;fill-opacity:1;fill-rule:nonzero;stroke:none"
       transform="matrix(1,0,0,-1,129.9946,23.1455)"><tspan
         id="tspan518"
         y="0"
         x="0">1</tspan></text>
</g></svg>