<?xml version="1.0" encoding="UTF-8" standalone="no"?>
<svg
   xmlns:dc="http://purl.org/dc/elements/1.1/"
   xmlns:cc="http://creativecommons.org/ns#"
   xmlns:rdf="http://www.w3.org/1999/02/22-rdf-syntax-ns#"
   xmlns:svg="http://www.w3.org/2000/svg"
   xmlns="http://www.w3.org/2000/svg"
   viewBox="0 0 301.18124 230.315"
   height="230.315"
   width="301.18124"
   xml:space="preserve"
   version="1.1"
   id="svg2"><metadata
     id="metadata8"><rdf:RDF><cc:Work
         rdf:about=""><dc:format>image/svg+xml</dc:format><dc:type
           rdf:resource="http://purl.org/dc/dcmitype/StillImage" /></cc:Work></rdf:RDF></metadata><defs
     id="defs6"><clipPath
       id="clipPath16"
       clipPathUnits="userSpaceOnUse"><path
         id="path18"
         d="m 0,0 240.944,0 0,184.252 L 0,184.252 0,0 Z" /></clipPath></defs><g
     transform="matrix(1.25,0,0,-1.25,0,230.315)"
     id="g10"><g
       id="g12"><g
         clip-path="url(#clipPath16)"
         id="g14"><g
           transform="translate(133.8989,58.1758)"
           id="g20"><path
             id="path22"
             style="fill:none;stroke:#000000;stroke-width:0.5;stroke-linecap:round;stroke-linejoin:round;stroke-miterlimit:10;stroke-dasharray:none;stroke-opacity:1"
             d="m 0,0 c 0,-4.735 -6.296,-8.574 -14.062,-8.574 -7.767,0 -14.063,3.839 -14.063,8.574" /></g><g
           transform="translate(133.8989,68.209)"
           id="g24"><path
             id="path26"
             style="fill:none;stroke:#000000;stroke-width:0.5;stroke-linecap:round;stroke-linejoin:round;stroke-miterlimit:10;stroke-dasharray:none;stroke-opacity:1"
             d="m 0,0 c 0,-4.735 -6.296,-8.574 -14.062,-8.574 -7.767,0 -14.063,3.839 -14.063,8.574" /></g><g
           transform="translate(131.4194,88.209)"
           id="g28"><path
             id="path30"
             style="fill:none;stroke:#000000;stroke-width:0.5;stroke-linecap:round;stroke-linejoin:round;stroke-miterlimit:10;stroke-dasharray:none;stroke-opacity:1"
             d="M 0,0 C 0,-3.9 -5.186,-7.062 -11.583,-7.062 -17.98,-7.062 -23.167,-3.9 -23.167,0" /></g><g
           transform="translate(49.667,69.2959)"
           id="g32"><path
             id="path34"
             style="fill:none;stroke:#000000;stroke-width:1;stroke-linecap:round;stroke-linejoin:round;stroke-miterlimit:10;stroke-dasharray:none;stroke-opacity:1"
             d="m 0,0 c 0,-4.559 -4.278,-8.508 -10.521,-10.436 l 0.326,-12.068" /></g><g
           transform="translate(11.3145,69.2959)"
           id="g36"><path
             id="path38"
             style="fill:none;stroke:#000000;stroke-width:0.5;stroke-linecap:round;stroke-linejoin:round;stroke-miterlimit:10;stroke-dasharray:none;stroke-opacity:1"
             d="M 0,0 C 0,6.459 8.586,11.696 19.178,11.696 29.768,11.696 38.353,6.459 38.353,0" /></g><g
           transform="translate(53.6699,72.4053)"
           id="g40"><path
             id="path42"
             style="fill:none;stroke:#000000;stroke-width:0.5;stroke-linecap:round;stroke-linejoin:round;stroke-miterlimit:10;stroke-dasharray:none;stroke-opacity:1"
             d="m 0,0 c 0.359,-1.002 0.549,-2.042 0.549,-3.109 0,-5.747 -5.496,-10.711 -13.458,-13.045" /></g><g
           transform="translate(21.2139,33.3516)"
           id="g44"><path
             id="path46"
             style="fill:none;stroke:#000000;stroke-width:1;stroke-linecap:round;stroke-linejoin:round;stroke-miterlimit:10;stroke-dasharray:none;stroke-opacity:1"
             d="m 0,0 c -7.648,1.982 -13.239,6.342 -14.277,11.559 0,0 -2.355,9.527 -2.23,11.824 0.125,2.301 2.297,14.633 2.297,14.633 1.648,7.01 11.536,12.401 23.488,12.401 11.354,0 20.803,-4.881 23.178,-11.363 0.927,-2.531 2.427,-4.156 4.802,-4.281 2.375,-0.125 22.75,-1.5 22.75,-1.5" /></g><g
           transform="translate(37.6948,55.5078)"
           id="g48"><path
             id="path50"
             style="fill:none;stroke:#000000;stroke-width:0.5;stroke-linecap:round;stroke-linejoin:round;stroke-miterlimit:10;stroke-dasharray:none;stroke-opacity:1"
             d="m 0,0 c -2.272,-0.44 -4.692,-0.679 -7.203,-0.679 -13.105,0 -23.729,6.477 -23.729,14.467 0,0.703 0.082,1.395 0.241,2.071" /></g><g
           transform="translate(20.5874,41.9629)"
           id="g52"><path
             id="path54"
             style="fill:none;stroke:#000000;stroke-width:0.5;stroke-linecap:round;stroke-linejoin:round;stroke-miterlimit:10;stroke-dasharray:none;stroke-opacity:1"
             d="M 0,0 C -9.273,2.363 -15.79,7.946 -15.79,14.458" /></g><g
           transform="translate(131.4194,153.459)"
           id="g56"><path
             id="path58"
             style="fill:none;stroke:#000000;stroke-width:0.5;stroke-linecap:round;stroke-linejoin:round;stroke-miterlimit:10;stroke-dasharray:none;stroke-opacity:1"
             d="M 0,0 C 0,-3.9 -5.186,-7.062 -11.583,-7.062 -17.98,-7.062 -23.167,-3.9 -23.167,0" /></g><g
           transform="translate(57.9399,59.9805)"
           id="g60"><path
             id="path62"
             style="fill:none;stroke:#000000;stroke-width:0.5;stroke-linecap:round;stroke-linejoin:round;stroke-miterlimit:10;stroke-dasharray:none;stroke-opacity:1"
             d="m 0,0 c 0,3.205 4.607,5.804 10.291,5.804 5.683,0 10.29,-2.599 10.29,-5.804" /></g><g
           transform="translate(78.5205,59.9805)"
           id="g64"><path
             id="path66"
             style="fill:none;stroke:#000000;stroke-width:1;stroke-linecap:round;stroke-linejoin:round;stroke-miterlimit:10;stroke-dasharray:none;stroke-opacity:1"
             d="m 0,0 c 0,-3.205 -4.606,-5.804 -10.29,-5.804 -5.683,0 -10.291,2.599 -10.291,5.804" /></g><g
           transform="translate(73.937,57.5869)"
           id="g68"><path
             id="path70"
             style="fill:none;stroke:#000000;stroke-width:1;stroke-linecap:round;stroke-linejoin:round;stroke-miterlimit:10;stroke-dasharray:none;stroke-opacity:1"
             d="m 0,0 c 0,-1.777 -2.555,-3.218 -5.707,-3.218 -3.151,0 -5.707,1.441 -5.707,3.218" /></g><g
           transform="translate(62.5234,57.5869)"
           id="g72"><path
             id="path74"
             style="fill:none;stroke:#000000;stroke-width:0.5;stroke-linecap:round;stroke-linejoin:round;stroke-miterlimit:10;stroke-dasharray:none;stroke-opacity:1"
             d="M 0,0 C 0,1.778 2.555,3.219 5.707,3.219 8.859,3.219 11.414,1.778 11.414,0" /></g><g
           transform="translate(65.645,54.8984)"
           id="g76"><path
             id="path78"
             style="fill:none;stroke:#000000;stroke-width:1;stroke-linecap:round;stroke-linejoin:round;stroke-miterlimit:10;stroke-dasharray:none;stroke-opacity:1"
             d="m 0,0 c 0.768,1.266 2.896,2.177 5.401,2.177 0.979,0 1.901,-0.139 2.705,-0.384" /></g><g
           transform="translate(21.064,42.7832)"
           id="g80"><path
             id="path82"
             style="fill:none;stroke:#000000;stroke-width:0.5;stroke-linecap:round;stroke-linejoin:round;stroke-miterlimit:10;stroke-dasharray:none;stroke-opacity:1"
             d="m 0,0 c 1.109,0.262 2.767,-2.74 3.704,-6.705 0.938,-3.966 0.8,-7.393 -0.308,-7.654" /></g><g
           transform="translate(33.0742,38.2529)"
           id="g84"><path
             id="path86"
             style="fill:none;stroke:#000000;stroke-width:1;stroke-linecap:round;stroke-linejoin:round;stroke-miterlimit:10;stroke-dasharray:none;stroke-opacity:1"
             d="M 0,0 C -0.937,3.965 -2.595,6.967 -3.704,6.705 L -12.01,4.53 c -1.108,-0.26 -1.246,-3.688 -0.308,-7.654 0.938,-3.966 2.595,-6.967 3.703,-6.705 l 8.306,2.175 C 0.8,-7.393 0.937,-3.966 0,0 Z" /></g><g
           transform="translate(33.2954,29.9639)"
           id="g88"><path
             id="path90"
             style="fill:none;stroke:#000000;stroke-width:0.5;stroke-linecap:round;stroke-linejoin:round;stroke-miterlimit:10;stroke-dasharray:none;stroke-opacity:1"
             d="m 0,0 c 1.309,0.309 1.532,4.099 0.5,8.465 -0.708,2.993 -2.069,5.298 -2.875,6.648 -1.073,1.798 -1.573,2.423 -1.448,3.548" /></g><g
           transform="translate(32.1392,30.375)"
           id="g92"><path
             id="path94"
             style="fill:none;stroke:#000000;stroke-width:1;stroke-linecap:round;stroke-linejoin:round;stroke-miterlimit:10;stroke-dasharray:none;stroke-opacity:1"
             d="m 0,0 c 0,0 0.333,-0.75 1.156,-0.411 0.823,0.339 8.306,1.879 8.306,1.879 1.309,0.308 1.532,4.098 0.499,8.465 -0.561,2.375 -1.453,4.385 -2.218,5.762 -0.493,0.888 -1.327,1.721 -1.66,4.138 -0.333,2.417 -0.5,5.334 -0.5,5.334 l -1.754,2.546 c -1.735,-0.315 -3.573,-0.484 -5.476,-0.484 -10.592,0 -19.178,5.235 -19.178,11.692" /></g><g
           transform="translate(42.6289,33.1074)"
           id="g96"><path
             id="path98"
             style="fill:none;stroke:#000000;stroke-width:0.5;stroke-linecap:round;stroke-linejoin:round;stroke-miterlimit:10;stroke-dasharray:none;stroke-opacity:1"
             d="m 0,0 c 0.441,-0.451 0.869,-0.662 1.247,-0.572 1.309,0.308 1.531,4.098 0.499,8.465 -0.468,1.98 -1.172,3.71 -1.802,5.041 -1.184,2.501 -1.351,3.418 -1.517,5.001 -0.167,1.583 -0.25,5.083 -0.25,5.083 l -1.66,2.735" /></g><g
           transform="translate(58.0669,59.4072)"
           id="g100"><path
             id="path102"
             style="fill:none;stroke:#000000;stroke-width:0.5;stroke-linecap:round;stroke-linejoin:round;stroke-miterlimit:10;stroke-dasharray:none;stroke-opacity:1"
             d="m 0,0 c 0.777,2.771 5.032,4.891 10.164,4.891 5.111,0 9.352,-2.102 10.154,-4.858" /></g><g
           transform="translate(133.8989,173.209)"
           id="g104"><path
             id="path106"
             style="fill:none;stroke:#000000;stroke-width:0.5;stroke-linecap:round;stroke-linejoin:round;stroke-miterlimit:10;stroke-dasharray:none;stroke-opacity:1"
             d="m 0,0 c 0,-4.735 -6.296,-8.574 -14.062,-8.574 -7.767,0 -14.063,3.839 -14.063,8.574" /></g><g
           transform="translate(135.6733,56.7178)"
           id="g108"><path
             id="path110"
             style="fill:none;stroke:#000000;stroke-width:0.5;stroke-linecap:round;stroke-linejoin:round;stroke-miterlimit:10;stroke-dasharray:none;stroke-opacity:1"
             d="m 0,0 c 0,-5.333 -7.09,-9.656 -15.836,-9.656 -8.747,0 -15.837,4.323 -15.837,9.656" /></g><g
           transform="translate(135.6733,58.1758)"
           id="g112"><path
             id="path114"
             style="fill:none;stroke:#000000;stroke-width:0.5;stroke-linecap:round;stroke-linejoin:round;stroke-miterlimit:10;stroke-dasharray:none;stroke-opacity:1"
             d="m 0,0 c 0,-5.333 -7.09,-9.656 -15.836,-9.656 -8.747,0 -15.837,4.323 -15.837,9.656" /></g><g
           transform="translate(105.7822,62.6309)"
           id="g116"><path
             id="path118"
             style="fill:none;stroke:#000000;stroke-width:1;stroke-linecap:round;stroke-linejoin:round;stroke-miterlimit:10;stroke-dasharray:none;stroke-opacity:1"
             d="m 0,0 c -1.138,-1.333 -1.782,-2.848 -1.782,-4.455 l 0,-1.458" /></g><g
           transform="translate(135.6733,56.7178)"
           id="g120"><path
             id="path122"
             style="fill:none;stroke:#000000;stroke-width:1;stroke-linecap:round;stroke-linejoin:round;stroke-miterlimit:10;stroke-dasharray:none;stroke-opacity:1"
             d="M 0,0 0,1.458 C 0,3.067 -0.646,4.585 -1.787,5.919" /></g><g
           transform="translate(138.939,54.7266)"
           id="g124"><path
             id="path126"
             style="fill:none;stroke:#000000;stroke-width:0.5;stroke-linecap:round;stroke-linejoin:round;stroke-miterlimit:10;stroke-dasharray:none;stroke-opacity:1"
             d="M 0,0 C 0,-6.429 -8.547,-11.641 -19.089,-11.641 -29.633,-11.641 -38.18,-6.429 -38.18,0" /></g><g
           transform="translate(105.7612,62.584)"
           id="g128"><path
             id="path130"
             style="fill:none;stroke:#000000;stroke-width:1;stroke-linecap:round;stroke-linejoin:round;stroke-miterlimit:10;stroke-dasharray:none;stroke-opacity:1"
             d="m 0,0 c -3.107,-2.07 -5.002,-4.829 -5.002,-7.857 l 0,-4.031 c 0,-6.428 8.546,-11.64 19.09,-11.64 10.543,0 19.09,5.212 19.09,11.64 l 0,4.031 c 0,3.01 -1.874,5.753 -4.949,7.821" /></g><g
           transform="translate(143.7202,53.1221)"
           id="g132"><path
             id="path134"
             style="fill:none;stroke:#000000;stroke-width:1;stroke-linecap:round;stroke-linejoin:round;stroke-miterlimit:10;stroke-dasharray:none;stroke-opacity:1"
             d="m 0,0 c 0,-8.285 -10.68,-15.001 -23.852,-15.001 -13.137,0 -23.793,6.677 -23.855,14.928" /></g><g
           transform="translate(134.0093,65.2031)"
           id="g136"><path
             id="path138"
             style="fill:none;stroke:#000000;stroke-width:0.5;stroke-linecap:round;stroke-linejoin:round;stroke-miterlimit:10;stroke-dasharray:none;stroke-opacity:1"
             d="M 0,0 C 5.89,-2.73 9.711,-7.125 9.711,-12.081" /></g><g
           transform="translate(96.0137,53.0488)"
           id="g140"><path
             id="path142"
             style="fill:none;stroke:#000000;stroke-width:0.5;stroke-linecap:round;stroke-linejoin:round;stroke-miterlimit:10;stroke-dasharray:none;stroke-opacity:1"
             d="M 0,0 C 0,0.024 -0.001,0.049 -0.001,0.073 0,5.024 3.814,9.416 9.697,12.148" /></g><g
           transform="translate(145.8442,52.6914)"
           id="g144"><path
             id="path146"
             style="fill:none;stroke:#000000;stroke-width:0.5;stroke-linecap:round;stroke-linejoin:round;stroke-miterlimit:10;stroke-dasharray:none;stroke-opacity:1"
             d="m 0,0 c 0,-9.022 -11.631,-16.336 -25.976,-16.336 -14.348,0 -25.979,7.314 -25.979,16.336" /></g><g
           transform="translate(133.8843,66.4482)"
           id="g148"><path
             id="path150"
             style="fill:none;stroke:#000000;stroke-width:1;stroke-linecap:round;stroke-linejoin:round;stroke-miterlimit:10;stroke-dasharray:none;stroke-opacity:1"
             d="M 0,0 C 7.193,-2.905 11.96,-7.98 11.96,-13.757" /></g><g
           transform="translate(93.8892,52.6914)"
           id="g152"><path
             id="path154"
             style="fill:none;stroke:#000000;stroke-width:1;stroke-linecap:round;stroke-linejoin:round;stroke-miterlimit:10;stroke-dasharray:none;stroke-opacity:1"
             d="M 0,0 C 0,5.754 4.729,10.812 11.875,13.723" /></g><g
           transform="translate(21.2012,37.5957)"
           id="g156"><path
             id="path158"
             style="fill:none;stroke:#000000;stroke-width:0.5;stroke-linecap:round;stroke-linejoin:round;stroke-miterlimit:10;stroke-dasharray:none;stroke-opacity:1"
             d="M 0,0 0.496,2.51 2.064,0.49 3.136,-4.039 2.641,-6.549 1.072,-4.527 0,0 Z" /></g><g
           transform="translate(36.8472,57.5)"
           id="g160"><path
             id="path162"
             style="fill:none;stroke:#000000;stroke-width:1;stroke-linecap:round;stroke-linejoin:round;stroke-miterlimit:10;stroke-dasharray:none;stroke-opacity:1"
             d="M 0,0 C 1,0 1.875,-0.375 1.875,-0.375" /></g><g
           transform="translate(30.0972,49.375)"
           id="g164"><path
             id="path166"
             style="fill:none;stroke:#000000;stroke-width:0.5;stroke-linecap:round;stroke-linejoin:round;stroke-miterlimit:10;stroke-dasharray:none;stroke-opacity:1"
             d="M 0,0 C 2.375,-0.125 7.625,1 7.625,1" /></g><g
           transform="translate(31.4722,45.375)"
           id="g168"><path
             id="path170"
             style="fill:none;stroke:#000000;stroke-width:0.5;stroke-linecap:round;stroke-linejoin:round;stroke-miterlimit:10;stroke-dasharray:none;stroke-opacity:1"
             d="M 0,0 C 2.25,0 5.625,0.25 7.75,0.75" /></g><g
           transform="translate(54.8472,70.125)"
           id="g172"><path
             id="path174"
             style="fill:none;stroke:#000000;stroke-width:0.5;stroke-linecap:round;stroke-linejoin:round;stroke-miterlimit:10;stroke-dasharray:none;stroke-opacity:1"
             d="M 0,0 C 0.75,-6.125 -1.625,-13.375 -13.5,-18.125" /></g><g
           transform="translate(56.0972,69)"
           id="g176"><path
             id="path178"
             style="fill:none;stroke:#000000;stroke-width:0.5;stroke-linecap:round;stroke-linejoin:round;stroke-miterlimit:10;stroke-dasharray:none;stroke-opacity:1"
             d="m 0,0 c 2.625,-7 1.32,-14.533 -9.25,-20.875 -1.25,-0.75 -1.375,-2.25 -0.875,-3.5 0.5,-1.25 3.5,-11 -0.625,-12.5" /></g><g
           transform="translate(41.6011,31.8428)"
           id="g180"><path
             id="path182"
             style="fill:none;stroke:#000000;stroke-width:1;stroke-linecap:round;stroke-linejoin:round;stroke-miterlimit:10;stroke-dasharray:none;stroke-opacity:1"
             d="m 0,0 59.371,-13.218 c 15.36,-2.73 23.762,-3.124 37.793,0 L 156.535,0" /></g><g
           transform="translate(77.0415,54.4902)"
           id="g184"><path
             id="path186"
             style="fill:none;stroke:#000000;stroke-width:1;stroke-linecap:round;stroke-linejoin:round;stroke-miterlimit:10;stroke-dasharray:none;stroke-opacity:1"
             d="m 0,0 c 0,0 0.768,0.152 1.458,2.072 0.691,1.92 2.995,9.289 3.378,11.055 0.384,1.766 1.152,3.455 1.766,4.145 0.614,0.691 1.842,2.227 2.84,1.766 0.998,-0.461 2.38,-0.922 3.532,-1.459 1.151,-0.537 1.842,-1.382 1.842,-2.917 0,-1.535 0.307,-4.76 0.307,-6.295 0,-1.535 1.382,-2.072 2.533,-2.303" /></g><g
           transform="translate(90.7061,70.8418)"
           id="g188"><path
             id="path190"
             style="fill:none;stroke:#000000;stroke-width:0.5;stroke-linecap:round;stroke-linejoin:round;stroke-miterlimit:10;stroke-dasharray:none;stroke-opacity:1"
             d="m 0,0 c -0.461,-0.461 -2.303,-1.765 -3.071,-4.299 -0.767,-2.534 -3.685,-11.362 -3.838,-12.36 -0.153,-0.998 -0.537,-1.612 -0.153,-2.072" /></g><g
           transform="translate(93.4697,61.7061)"
           id="g192"><path
             id="path194"
             style="fill:none;stroke:#000000;stroke-width:0.5;stroke-linecap:round;stroke-linejoin:round;stroke-miterlimit:10;stroke-dasharray:none;stroke-opacity:1"
             d="m 0,0 c 2.687,-0.998 2.533,-1.612 1.688,-2.84 -0.844,-1.227 -5.987,-5.604 -8.597,-6.756 -1.578,-0.696 -2.841,-1.304 -4.99,-0.614 -1.307,0.42 -4.529,1.689 -4.529,1.689 -1.689,0.691 -1.075,2.611 1.151,4.069" /></g><g
           transform="translate(84.4878,55.0273)"
           id="g196"><path
             id="path198"
             style="fill:none;stroke:#000000;stroke-width:0.5;stroke-linecap:round;stroke-linejoin:round;stroke-miterlimit:10;stroke-dasharray:none;stroke-opacity:1"
             d="M 0,0 7.677,5.834" /></g><g
           transform="translate(92.0879,65.8516)"
           id="g200"><path
             id="path202"
             style="fill:none;stroke:#000000;stroke-width:1;stroke-linecap:round;stroke-linejoin:round;stroke-miterlimit:10;stroke-dasharray:none;stroke-opacity:1"
             d="M 0,0 10.44,-0.69" /></g><g
           transform="translate(190.0698,69.2959)"
           id="g204"><path
             id="path206"
             style="fill:none;stroke:#000000;stroke-width:1;stroke-linecap:round;stroke-linejoin:round;stroke-miterlimit:10;stroke-dasharray:none;stroke-opacity:1"
             d="M 0,0 C 0,-4.559 4.279,-8.508 10.521,-10.436 L 10.195,-22.504" /></g><g
           transform="translate(228.4233,69.2959)"
           id="g208"><path
             id="path210"
             style="fill:none;stroke:#000000;stroke-width:0.5;stroke-linecap:round;stroke-linejoin:round;stroke-miterlimit:10;stroke-dasharray:none;stroke-opacity:1"
             d="M 0,0 C 0,6.459 -8.586,11.696 -19.178,11.696 -29.768,11.696 -38.354,6.459 -38.354,0" /></g><g
           transform="translate(186.0679,72.4053)"
           id="g212"><path
             id="path214"
             style="fill:none;stroke:#000000;stroke-width:0.5;stroke-linecap:round;stroke-linejoin:round;stroke-miterlimit:10;stroke-dasharray:none;stroke-opacity:1"
             d="m 0,0 c -0.359,-1.002 -0.549,-2.042 -0.549,-3.109 0,-5.747 5.495,-10.711 13.457,-13.045" /></g><g
           transform="translate(218.5229,33.3516)"
           id="g216"><path
             id="path218"
             style="fill:none;stroke:#000000;stroke-width:1;stroke-linecap:round;stroke-linejoin:round;stroke-miterlimit:10;stroke-dasharray:none;stroke-opacity:1"
             d="m 0,0 c 7.648,1.982 13.24,6.342 14.277,11.559 0,0 2.356,9.527 2.231,11.824 -0.125,2.301 -2.297,14.633 -2.297,14.633 -1.648,7.01 -11.537,12.401 -23.488,12.401 -11.354,0 -20.803,-4.881 -23.178,-11.363 -0.928,-2.531 -2.428,-4.156 -4.803,-4.281 -2.375,-0.125 -22.75,-1.5 -22.75,-1.5" /></g><g
           transform="translate(202.0425,55.5078)"
           id="g220"><path
             id="path222"
             style="fill:none;stroke:#000000;stroke-width:0.5;stroke-linecap:round;stroke-linejoin:round;stroke-miterlimit:10;stroke-dasharray:none;stroke-opacity:1"
             d="m 0,0 c 2.271,-0.44 4.691,-0.679 7.203,-0.679 13.106,0 23.729,6.477 23.729,14.467 0,0.703 -0.082,1.395 -0.241,2.071" /></g><g
           transform="translate(219.1499,41.9629)"
           id="g224"><path
             id="path226"
             style="fill:none;stroke:#000000;stroke-width:0.5;stroke-linecap:round;stroke-linejoin:round;stroke-miterlimit:10;stroke-dasharray:none;stroke-opacity:1"
             d="M 0,0 C 9.273,2.363 15.789,7.946 15.789,14.458" /></g><g
           transform="translate(181.7974,59.9805)"
           id="g228"><path
             id="path230"
             style="fill:none;stroke:#000000;stroke-width:0.5;stroke-linecap:round;stroke-linejoin:round;stroke-miterlimit:10;stroke-dasharray:none;stroke-opacity:1"
             d="m 0,0 c 0,3.205 -4.607,5.804 -10.291,5.804 -5.683,0 -10.29,-2.599 -10.29,-5.804" /></g><g
           transform="translate(161.2163,59.9805)"
           id="g232"><path
             id="path234"
             style="fill:none;stroke:#000000;stroke-width:1;stroke-linecap:round;stroke-linejoin:round;stroke-miterlimit:10;stroke-dasharray:none;stroke-opacity:1"
             d="m 0,0 c 0,-3.205 4.607,-5.804 10.29,-5.804 5.684,0 10.291,2.599 10.291,5.804" /></g><g
           transform="translate(165.8003,57.5869)"
           id="g236"><path
             id="path238"
             style="fill:none;stroke:#000000;stroke-width:1;stroke-linecap:round;stroke-linejoin:round;stroke-miterlimit:10;stroke-dasharray:none;stroke-opacity:1"
             d="m 0,0 c 0,-1.777 2.555,-3.218 5.707,-3.218 3.151,0 5.707,1.441 5.707,3.218" /></g><g
           transform="translate(177.2144,57.5869)"
           id="g240"><path
             id="path242"
             style="fill:none;stroke:#000000;stroke-width:0.5;stroke-linecap:round;stroke-linejoin:round;stroke-miterlimit:10;stroke-dasharray:none;stroke-opacity:1"
             d="M 0,0 C 0,1.778 -2.556,3.219 -5.707,3.219 -8.859,3.219 -11.414,1.778 -11.414,0" /></g><g
           transform="translate(174.0923,54.8984)"
           id="g244"><path
             id="path246"
             style="fill:none;stroke:#000000;stroke-width:1;stroke-linecap:round;stroke-linejoin:round;stroke-miterlimit:10;stroke-dasharray:none;stroke-opacity:1"
             d="m 0,0 c -0.768,1.266 -2.896,2.177 -5.401,2.177 -0.979,0 -1.901,-0.139 -2.705,-0.384" /></g><g
           transform="translate(218.6733,42.7832)"
           id="g248"><path
             id="path250"
             style="fill:none;stroke:#000000;stroke-width:0.5;stroke-linecap:round;stroke-linejoin:round;stroke-miterlimit:10;stroke-dasharray:none;stroke-opacity:1"
             d="m 0,0 c -1.109,0.262 -2.767,-2.74 -3.704,-6.705 -0.938,-3.966 -0.8,-7.393 0.308,-7.654" /></g><g
           transform="translate(206.6636,38.2529)"
           id="g252"><path
             id="path254"
             style="fill:none;stroke:#000000;stroke-width:1;stroke-linecap:round;stroke-linejoin:round;stroke-miterlimit:10;stroke-dasharray:none;stroke-opacity:1"
             d="M 0,0 C 0.937,3.965 2.595,6.967 3.703,6.705 L 12.01,4.53 C 13.117,4.27 13.256,0.842 12.317,-3.124 11.38,-7.09 9.723,-10.091 8.614,-9.829 L 0.309,-7.654 C -0.801,-7.393 -0.937,-3.966 0,0 Z" /></g><g
           transform="translate(206.4419,29.9639)"
           id="g256"><path
             id="path258"
             style="fill:none;stroke:#000000;stroke-width:0.5;stroke-linecap:round;stroke-linejoin:round;stroke-miterlimit:10;stroke-dasharray:none;stroke-opacity:1"
             d="m 0,0 c -1.31,0.309 -1.532,4.099 -0.499,8.465 0.707,2.993 2.068,5.298 2.874,6.648 1.073,1.798 1.573,2.423 1.448,3.548" /></g><g
           transform="translate(207.5981,30.375)"
           id="g260"><path
             id="path262"
             style="fill:none;stroke:#000000;stroke-width:1;stroke-linecap:round;stroke-linejoin:round;stroke-miterlimit:10;stroke-dasharray:none;stroke-opacity:1"
             d="m 0,0 c 0,0 -0.333,-0.75 -1.156,-0.411 -0.823,0.339 -8.306,1.879 -8.306,1.879 -1.309,0.308 -1.531,4.098 -0.5,8.465 0.563,2.375 1.454,4.385 2.219,5.762 0.493,0.888 1.327,1.721 1.66,4.138 0.333,2.417 0.5,5.334 0.5,5.334 l 1.754,2.546 c 1.735,-0.315 3.573,-0.484 5.476,-0.484 10.592,0 19.178,5.235 19.178,11.692" /></g><g
           transform="translate(197.1089,33.1074)"
           id="g264"><path
             id="path266"
             style="fill:none;stroke:#000000;stroke-width:0.5;stroke-linecap:round;stroke-linejoin:round;stroke-miterlimit:10;stroke-dasharray:none;stroke-opacity:1"
             d="m 0,0 c -0.441,-0.451 -0.869,-0.662 -1.247,-0.572 -1.31,0.308 -1.532,4.098 -0.499,8.465 0.468,1.98 1.172,3.71 1.802,5.041 1.183,2.501 1.35,3.418 1.516,5.001 0.167,1.583 0.25,5.083 0.25,5.083 l 1.66,2.735" /></g><g
           transform="translate(181.6704,59.4072)"
           id="g268"><path
             id="path270"
             style="fill:none;stroke:#000000;stroke-width:0.5;stroke-linecap:round;stroke-linejoin:round;stroke-miterlimit:10;stroke-dasharray:none;stroke-opacity:1"
             d="m 0,0 c -0.776,2.771 -5.032,4.891 -10.164,4.891 -5.111,0 -9.352,-2.102 -10.153,-4.858" /></g><g
           transform="translate(218.5366,37.5957)"
           id="g272"><path
             id="path274"
             style="fill:none;stroke:#000000;stroke-width:0.5;stroke-linecap:round;stroke-linejoin:round;stroke-miterlimit:10;stroke-dasharray:none;stroke-opacity:1"
             d="m 0,0 -0.496,2.51 -1.568,-2.02 -1.073,-4.529 0.496,-2.51 1.569,2.022 L 0,0 Z" /></g><g
           transform="translate(202.8901,57.5)"
           id="g276"><path
             id="path278"
             style="fill:none;stroke:#000000;stroke-width:1;stroke-linecap:round;stroke-linejoin:round;stroke-miterlimit:10;stroke-dasharray:none;stroke-opacity:1"
             d="M 0,0 C -1,0 -1.875,-0.375 -1.875,-0.375" /></g><g
           transform="translate(209.6401,49.375)"
           id="g280"><path
             id="path282"
             style="fill:none;stroke:#000000;stroke-width:0.5;stroke-linecap:round;stroke-linejoin:round;stroke-miterlimit:10;stroke-dasharray:none;stroke-opacity:1"
             d="M 0,0 C -2.375,-0.125 -7.625,1 -7.625,1" /></g><g
           transform="translate(208.2651,45.375)"
           id="g284"><path
             id="path286"
             style="fill:none;stroke:#000000;stroke-width:0.5;stroke-linecap:round;stroke-linejoin:round;stroke-miterlimit:10;stroke-dasharray:none;stroke-opacity:1"
             d="M 0,0 C -2.25,0 -5.625,0.25 -7.75,0.75" /></g><g
           transform="translate(184.8901,70.125)"
           id="g288"><path
             id="path290"
             style="fill:none;stroke:#000000;stroke-width:0.5;stroke-linecap:round;stroke-linejoin:round;stroke-miterlimit:10;stroke-dasharray:none;stroke-opacity:1"
             d="M 0,0 C -0.75,-6.125 1.625,-13.375 13.5,-18.125" /></g><g
           transform="translate(183.6401,69)"
           id="g292"><path
             id="path294"
             style="fill:none;stroke:#000000;stroke-width:0.5;stroke-linecap:round;stroke-linejoin:round;stroke-miterlimit:10;stroke-dasharray:none;stroke-opacity:1"
             d="m 0,0 c -2.625,-7 -1.32,-14.533 9.25,-20.875 1.25,-0.75 1.375,-2.25 0.875,-3.5 -0.5,-1.25 -3.5,-11 0.625,-12.5" /></g><g
           transform="translate(162.6958,54.4902)"
           id="g296"><path
             id="path298"
             style="fill:none;stroke:#000000;stroke-width:1;stroke-linecap:round;stroke-linejoin:round;stroke-miterlimit:10;stroke-dasharray:none;stroke-opacity:1"
             d="m 0,0 c 0,0 -0.768,0.152 -1.458,2.072 -0.691,1.92 -2.994,9.289 -3.379,11.055 -0.383,1.766 -1.151,3.455 -1.766,4.145 -0.613,0.691 -1.841,2.227 -2.839,1.766 -0.998,-0.461 -2.38,-0.922 -3.532,-1.459 -1.151,-0.537 -1.841,-1.382 -1.841,-2.917 0,-1.535 -0.308,-4.76 -0.308,-6.295 0,-1.535 -1.382,-2.072 -2.533,-2.303" /></g><g
           transform="translate(149.0308,70.8418)"
           id="g300"><path
             id="path302"
             style="fill:none;stroke:#000000;stroke-width:0.5;stroke-linecap:round;stroke-linejoin:round;stroke-miterlimit:10;stroke-dasharray:none;stroke-opacity:1"
             d="m 0,0 c 0.461,-0.461 2.304,-1.765 3.071,-4.299 0.768,-2.534 3.685,-11.362 3.839,-12.36 0.152,-0.998 0.537,-1.612 0.152,-2.072" /></g><g
           transform="translate(146.2671,61.7061)"
           id="g304"><path
             id="path306"
             style="fill:none;stroke:#000000;stroke-width:0.5;stroke-linecap:round;stroke-linejoin:round;stroke-miterlimit:10;stroke-dasharray:none;stroke-opacity:1"
             d="m 0,0 c -2.687,-0.998 -2.533,-1.612 -1.687,-2.84 0.843,-1.227 5.987,-5.604 8.597,-6.756 1.578,-0.696 2.84,-1.304 4.989,-0.614 1.308,0.42 4.53,1.689 4.53,1.689 1.688,0.691 1.075,2.611 -1.152,4.069" /></g><g
           transform="translate(155.2495,55.0273)"
           id="g308"><path
             id="path310"
             style="fill:none;stroke:#000000;stroke-width:0.5;stroke-linecap:round;stroke-linejoin:round;stroke-miterlimit:10;stroke-dasharray:none;stroke-opacity:1"
             d="M 0,0 -7.677,5.834" /></g><g
           transform="translate(147.6499,65.8516)"
           id="g312"><path
             id="path314"
             style="fill:none;stroke:#000000;stroke-width:1;stroke-linecap:round;stroke-linejoin:round;stroke-miterlimit:10;stroke-dasharray:none;stroke-opacity:1"
             d="M 0,0 -10.441,-0.69" /></g><g
           transform="translate(105.7744,58.1758)"
           id="g316"><path
             id="path318"
             style="fill:none;stroke:#000000;stroke-width:1;stroke-linecap:round;stroke-linejoin:round;stroke-miterlimit:10;stroke-dasharray:none;stroke-opacity:1"
             d="m 0,0 0,10.033 c 0,4.583 2.479,9.084 2.479,20 l 0,65.25 c 0,7 -2.479,14.001 -2.479,19.75 l 0,18.583" /></g><g
           transform="translate(133.9341,58.1758)"
           id="g320"><path
             id="path322"
             style="fill:none;stroke:#000000;stroke-width:1;stroke-linecap:round;stroke-linejoin:round;stroke-miterlimit:10;stroke-dasharray:none;stroke-opacity:1"
             d="m 0,0 0,10.033 c 0,4.583 -2.479,9.084 -2.479,20 l 0,65.25 c 0,7 2.479,14.001 2.479,19.75 l 0,18.583" /></g><g
           transform="translate(103.3711,40.0039)"
           id="g324"><path
             id="path326"
             style="fill:none;stroke:#000000;stroke-width:0.5;stroke-linecap:round;stroke-linejoin:round;stroke-miterlimit:10;stroke-dasharray:none;stroke-opacity:1"
             d="m 0,0 c 7.287,-3.379 10.665,-5.631 16.56,-5.631 5.896,0 11.659,3.444 16.296,5.565" /></g></g></g><text
       id="text328"
       style="font-variant:normal;font-weight:normal;font-stretch:normal;font-size:4px;font-family:'Swiss 721 SWA';-inkscape-font-specification:Helvetica;writing-mode:lr-tb;fill:#231f20;fill-opacity:1;fill-rule:nonzero;stroke:none"
       transform="matrix(1,0,0,-1,2.2114,2.0371)"><tspan
         id="tspan330"
         y="0"
         x="0 2 2.888 5.112">cjbq</tspan></text>
<g
       transform="translate(164.8286,119.708)"
       id="g332"><path
         id="path334"
         style="fill:none;stroke:#ffffff;stroke-width:3;stroke-linecap:round;stroke-linejoin:miter;stroke-miterlimit:4;stroke-dasharray:none;stroke-opacity:1"
         d="M 0,0 -21.856,-69.083" /></g><g
       transform="translate(142.9722,50.625)"
       id="g336"><path
         id="path338"
         style="fill:none;stroke:#ffffff;stroke-width:3.75;stroke-linecap:round;stroke-linejoin:miter;stroke-miterlimit:4;stroke-dasharray:none;stroke-opacity:1"
         d="M 0,0 0,0" /></g><g
       transform="translate(164.8286,119.708)"
       id="g340"><path
         id="path342"
         style="fill:none;stroke:#211f1f;stroke-width:0.5;stroke-linecap:round;stroke-linejoin:miter;stroke-miterlimit:4;stroke-dasharray:none;stroke-opacity:1"
         d="M 0,0 -21.856,-69.083" /></g><g
       transform="translate(142.9722,50.625)"
       id="g344"><path
         id="path346"
         style="fill:none;stroke:#211f1f;stroke-width:1.5;stroke-linecap:round;stroke-linejoin:miter;stroke-miterlimit:4;stroke-dasharray:none;stroke-opacity:1"
         d="M 0,0 0,0" /></g><g
       transform="translate(209.6392,16.625)"
       id="g348"><path
         id="path350"
         style="fill:none;stroke:#ffffff;stroke-width:3;stroke-linecap:round;stroke-linejoin:miter;stroke-miterlimit:4;stroke-dasharray:none;stroke-opacity:1"
         d="M 0,0 -24.333,17.666" /></g><g
       transform="translate(185.3062,34.291)"
       id="g352"><path
         id="path354"
         style="fill:none;stroke:#ffffff;stroke-width:3.75;stroke-linecap:round;stroke-linejoin:miter;stroke-miterlimit:4;stroke-dasharray:none;stroke-opacity:1"
         d="M 0,0 0,0" /></g><g
       transform="translate(209.6392,16.625)"
       id="g356"><path
         id="path358"
         style="fill:none;stroke:#211f1f;stroke-width:0.5;stroke-linecap:round;stroke-linejoin:miter;stroke-miterlimit:4;stroke-dasharray:none;stroke-opacity:1"
         d="M 0,0 -24.333,17.666" /></g><g
       transform="translate(185.3062,34.291)"
       id="g360"><path
         id="path362"
         style="fill:none;stroke:#211f1f;stroke-width:1.5;stroke-linecap:round;stroke-linejoin:miter;stroke-miterlimit:4;stroke-dasharray:none;stroke-opacity:1"
         d="M 0,0 0,0" /></g><text
       id="text364"
       style="font-variant:normal;font-weight:bold;font-stretch:normal;font-size:10px;font-family:'Swiss 721 SWA';-inkscape-font-specification:Helvetica-Bold;writing-mode:lr-tb;fill:#231f20;fill-opacity:1;fill-rule:nonzero;stroke:none"
       transform="matrix(1,0,0,-1,163.2988,121.8521)"><tspan
         id="tspan366"
         y="0"
         x="0">2</tspan><tspan
         id="tspan368"
         y="111"
         x="48.330002">3</tspan></text>
<g
       transform="translate(65.8286,119.375)"
       id="g370"><path
         id="path372"
         style="fill:none;stroke:#ffffff;stroke-width:3;stroke-linecap:round;stroke-linejoin:miter;stroke-miterlimit:4;stroke-dasharray:none;stroke-opacity:1"
         d="M 0,0 38.144,-66.416" /></g><g
       transform="translate(103.9722,52.959)"
       id="g374"><path
         id="path376"
         style="fill:none;stroke:#ffffff;stroke-width:3.75;stroke-linecap:round;stroke-linejoin:miter;stroke-miterlimit:4;stroke-dasharray:none;stroke-opacity:1"
         d="M 0,0 0,0" /></g><g
       transform="translate(65.8286,119.375)"
       id="g378"><path
         id="path380"
         style="fill:none;stroke:#211f1f;stroke-width:0.5;stroke-linecap:round;stroke-linejoin:miter;stroke-miterlimit:4;stroke-dasharray:none;stroke-opacity:1"
         d="M 0,0 38.144,-66.416" /></g><g
       transform="translate(103.9722,52.959)"
       id="g382"><path
         id="path384"
         style="fill:none;stroke:#211f1f;stroke-width:1.5;stroke-linecap:round;stroke-linejoin:miter;stroke-miterlimit:4;stroke-dasharray:none;stroke-opacity:1"
         d="M 0,0 0,0" /></g><text
       id="text386"
       style="font-variant:normal;font-weight:bold;font-stretch:normal;font-size:10px;font-family:'Swiss 721 SWA';-inkscape-font-specification:Helvetica-Bold;writing-mode:lr-tb;fill:#231f20;fill-opacity:1;fill-rule:nonzero;stroke:none"
       transform="matrix(1,0,0,-1,61.2993,121.1855)"><tspan
         id="tspan388"
         y="0"
         x="0">1</tspan></text>
</g></svg>