<?xml version="1.0" encoding="UTF-8" standalone="no"?>
<!-- Created with Inkscape (http://www.inkscape.org/) -->

<svg
   xmlns:dc="http://purl.org/dc/elements/1.1/"
   xmlns:cc="http://creativecommons.org/ns#"
   xmlns:rdf="http://www.w3.org/1999/02/22-rdf-syntax-ns#"
   xmlns:svg="http://www.w3.org/2000/svg"
   xmlns="http://www.w3.org/2000/svg"
   xmlns:sodipodi="http://sodipodi.sourceforge.net/DTD/sodipodi-0.dtd"
   xmlns:inkscape="http://www.inkscape.org/namespaces/inkscape"
   id="svg3336"
   version="1.1"
   inkscape:version="0.91 r13725"
   xml:space="preserve"
   width="301.18124"
   height="230.315"
   viewBox="0 0 301.18124 230.315"
   sodipodi:docname="ccsh.svg"><metadata
     id="metadata3342"><rdf:RDF><cc:Work
         rdf:about=""><dc:format>image/svg+xml</dc:format><dc:type
           rdf:resource="http://purl.org/dc/dcmitype/StillImage" /><dc:title></dc:title></cc:Work></rdf:RDF></metadata><defs
     id="defs3340"><clipPath
       clipPathUnits="userSpaceOnUse"
       id="clipPath3358"><path
         d="m 2,0 238.945,0 0,178.252 L 2,178.252 2,0 Z"
         id="path3360"
         inkscape:connector-curvature="0" /></clipPath></defs><sodipodi:namedview
     pagecolor="#ffffff"
     bordercolor="#666666"
     borderopacity="1"
     objecttolerance="10"
     gridtolerance="10"
     guidetolerance="10"
     inkscape:pageopacity="0"
     inkscape:pageshadow="2"
     inkscape:window-width="640"
     inkscape:window-height="480"
     id="namedview3338"
     showgrid="false"
     inkscape:zoom="3.3085122"
     inkscape:cx="150.59062"
     inkscape:cy="115.1575"
     inkscape:window-x="0"
     inkscape:window-y="0"
     inkscape:window-maximized="1"
     inkscape:current-layer="g3344" /><g
     id="g3344"
     inkscape:groupmode="layer"
     inkscape:label="ccsh"
     transform="matrix(1.25,0,0,-1.25,0,230.315)"><g
       id="g3346"
       transform="translate(131.918,174.6602)"><path
         d="m 0,0 -11.185,0 0,-8.252 -7.086,0 L -5.378,-19.816 7.517,-8.252 0,-8.252 0,0 Z"
         style="fill:#231f20;fill-opacity:1;fill-rule:nonzero;stroke:none"
         id="path3348"
         inkscape:connector-curvature="0" /></g><g
       id="g3350"
       transform="translate(131.918,174.6602)"><path
         d="m 0,0 -11.185,0 0,-8.252 -7.086,0 L -5.378,-19.816 7.517,-8.252 0,-8.252 0,0 Z"
         style="fill:none;stroke:#ffffff;stroke-width:1;stroke-linecap:butt;stroke-linejoin:miter;stroke-miterlimit:4;stroke-dasharray:none;stroke-opacity:1"
         id="path3352"
         inkscape:connector-curvature="0" /></g><g
       id="g3354"><g
         id="g3356"
         clip-path="url(#clipPath3358)"><g
           id="g3362"
           transform="translate(133.8789,149.397)"><path
             d="m 0,0 0.21,-0.642 0.042,-6.122 c 0.756,-0.643 1.301,-1.37 1.763,-2.227 -0.085,-5.309 0,-9.805 -0.085,-14.942 2.056,-0.514 4.154,-0.985 6.126,-1.798 2.853,-1.2 6.923,-3.468 6.755,-7.279 l 0.084,-8.521 c -0.126,-0.299 -0.209,-0.599 -0.252,-0.899 l -0.839,-1.583 1.3,-0.857 21.65,-13.273 11.119,-6.765 c -0.168,-0.556 -0.546,0.215 -0.713,-0.342 -6.21,3.511 -12.294,7.278 -18.42,11.004 -0.293,-0.258 -0.377,0.428 -0.756,0.471 -0.461,0.384 -1.131,0.428 -1.509,0.942 l -12.419,7.492 c -0.588,0.257 -0.714,0.728 -1.259,0.899 -1.007,-0.899 -2.056,-1.841 -3.147,-2.697 l 0.126,-0.215 8.81,-5.608 24.546,-15.114 c 0.084,-0.086 0.209,-0.172 0.167,-0.3 -6.042,3.769 -12.125,7.279 -18.167,11.003 -5.286,3.212 -10.489,6.723 -15.818,9.806 l -0.168,-0.129 0.336,-0.086 c -0.252,-0.556 -0.88,-0.727 -1.384,-1.027 -1.511,-0.642 -2.727,-1.841 -4.28,-2.398 -1.174,-0.728 -2.601,-1.327 -3.566,-2.226 2.518,-1.884 5.16,-3.554 7.762,-5.31 l 20.726,-13.571 4.531,-3.041 c -0.125,-0.256 -0.335,-0.342 -0.587,-0.514 -1.762,1.114 -3.482,2.399 -5.287,3.383 -1.761,1.455 -3.733,2.483 -5.454,3.811 l -25.173,16.398 -1.007,0.642 c -0.587,-0.129 -1.301,0.129 -1.804,-0.172 l 1.468,-1.112 13.469,-8.864 19.886,-13.101 c 1.384,-0.942 2.77,-1.84 4.154,-2.782 -0.083,-0.3 -0.335,-0.601 -0.671,-0.429 l -3.106,2.012 -19.341,12.845 -13.593,8.906 c -1.386,0.899 -2.812,1.841 -4.113,2.783 -2.559,0.086 -5.035,0.556 -7.468,0.771 l 1.174,-0.943 14.014,-9.29 6.294,-4.111 22.656,-15.071 c 0.083,-0.043 0.126,-0.129 0.126,-0.256 l -0.63,0.256 -20.473,13.658 -18.672,12.289 c -2.223,1.327 -4.154,3.382 -6.797,3.725 -4.489,1.327 -9.608,3.382 -11.581,8.348 l -4.992,3.383 -21.902,14.6 c -3.524,2.312 -7.132,4.667 -10.53,7.021 l 0.21,0 24.502,-16.227 c 4.195,-2.782 8.224,-5.522 12.461,-8.135 0.042,1.499 -0.252,2.869 -0.378,4.282 l -14.601,9.762 -16.363,10.79 0,0.256 0.085,0 0.042,0.428 c 0.545,-0.085 0.796,-0.599 1.3,-0.813 l 1.553,-0.899 20.055,-13.187 c 2.559,-1.798 5.202,-3.468 7.803,-5.138 0.294,0.257 0.042,0.728 0.042,1.156 l -2.475,1.755 -15.44,10.19 c -3.063,2.013 -6.21,3.982 -9.231,6.123 0.253,0.214 0.63,0.429 0.965,0.171 7.679,-5.009 15.105,-9.89 22.826,-14.899 1.048,-0.814 2.223,-1.585 3.397,-2.227 0.042,0.899 0.042,2.141 0.63,2.955 0.671,1.883 2.643,3.254 4.279,4.109 0.084,0.471 -0.461,0.729 -0.755,0.986 -7.175,4.452 -14.265,8.691 -21.356,13.272 l 0,0.042 0.294,0 c 7.51,-4.666 14.979,-9.376 22.573,-13.871 1.342,0.599 2.769,0.985 4.154,1.541 l 0,0.086 -16.405,10.019 c -2.099,1.413 -4.28,2.526 -6.294,4.024 0.252,0.257 0.546,0.429 0.839,0.129 7.678,-4.753 15.356,-9.42 23.077,-13.958 0.671,0.042 1.468,0.128 2.098,0.471 0.042,4.281 -0.042,9.634 -0.084,14.514 0.126,1.028 1.049,1.541 1.762,2.184 l 0,6.764 c 0.964,2.527 3.86,2.784 6.209,3.126 C -5.622,2.526 -2.14,2.569 0,0"
             style="fill:#231f20;fill-opacity:1;fill-rule:nonzero;stroke:none"
             id="path3364"
             inkscape:connector-curvature="0" /></g><g
           id="g3366"
           transform="translate(133.8789,149.397)"><path
             d="m 0,0 0.21,-0.642 0.042,-6.122 c 0.756,-0.643 1.301,-1.37 1.763,-2.227 -0.085,-5.309 0,-9.805 -0.085,-14.942 2.056,-0.514 4.154,-0.985 6.126,-1.798 2.853,-1.2 6.923,-3.468 6.755,-7.279 l 0.084,-8.521 c -0.126,-0.299 -0.209,-0.599 -0.252,-0.899 l -0.839,-1.583 1.3,-0.857 21.65,-13.273 11.119,-6.765 c -0.168,-0.556 -0.546,0.215 -0.713,-0.342 -6.21,3.511 -12.294,7.278 -18.42,11.004 -0.293,-0.258 -0.377,0.428 -0.756,0.471 -0.461,0.384 -1.131,0.428 -1.509,0.942 l -12.419,7.492 c -0.588,0.257 -0.714,0.728 -1.259,0.899 -1.007,-0.899 -2.056,-1.841 -3.147,-2.697 l 0.126,-0.215 8.81,-5.608 24.546,-15.114 c 0.084,-0.086 0.209,-0.172 0.167,-0.3 -6.042,3.769 -12.125,7.279 -18.167,11.003 -5.286,3.212 -10.489,6.723 -15.818,9.806 l -0.168,-0.129 0.336,-0.086 c -0.252,-0.556 -0.88,-0.727 -1.384,-1.027 -1.511,-0.642 -2.727,-1.841 -4.28,-2.398 -1.174,-0.728 -2.601,-1.327 -3.566,-2.226 2.518,-1.884 5.16,-3.554 7.762,-5.31 l 20.726,-13.571 4.531,-3.041 c -0.125,-0.256 -0.335,-0.342 -0.587,-0.514 -1.762,1.114 -3.482,2.399 -5.287,3.383 -1.761,1.455 -3.733,2.483 -5.454,3.811 l -25.173,16.398 -1.007,0.642 c -0.587,-0.129 -1.301,0.129 -1.804,-0.172 l 1.468,-1.112 13.469,-8.864 19.886,-13.101 c 1.384,-0.942 2.77,-1.84 4.154,-2.782 -0.083,-0.3 -0.335,-0.601 -0.671,-0.429 l -3.106,2.012 -19.341,12.845 -13.593,8.906 c -1.386,0.899 -2.812,1.841 -4.113,2.783 -2.559,0.086 -5.035,0.556 -7.468,0.771 l 1.174,-0.943 14.014,-9.29 6.294,-4.111 22.656,-15.071 c 0.083,-0.043 0.126,-0.129 0.126,-0.256 l -0.63,0.256 -20.473,13.658 -18.672,12.289 c -2.223,1.327 -4.154,3.382 -6.797,3.725 -4.489,1.327 -9.608,3.382 -11.581,8.348 l -4.992,3.383 -21.902,14.6 c -3.524,2.312 -7.132,4.667 -10.53,7.021 l 0.21,0 24.502,-16.227 c 4.195,-2.782 8.224,-5.522 12.461,-8.135 0.042,1.499 -0.252,2.869 -0.378,4.282 l -14.601,9.762 -16.363,10.79 0,0.256 0.085,0 0.042,0.428 c 0.545,-0.085 0.796,-0.599 1.3,-0.813 l 1.553,-0.899 20.055,-13.187 c 2.559,-1.798 5.202,-3.468 7.803,-5.138 0.294,0.257 0.042,0.728 0.042,1.156 l -2.475,1.755 -15.44,10.19 c -3.063,2.013 -6.21,3.982 -9.231,6.123 0.253,0.214 0.63,0.429 0.965,0.171 7.679,-5.009 15.105,-9.89 22.826,-14.899 1.048,-0.814 2.223,-1.585 3.397,-2.227 0.042,0.899 0.042,2.141 0.63,2.955 0.671,1.883 2.643,3.254 4.279,4.109 0.084,0.471 -0.461,0.729 -0.755,0.986 -7.175,4.452 -14.265,8.691 -21.356,13.272 l 0,0.042 0.294,0 c 7.51,-4.666 14.979,-9.376 22.573,-13.871 1.342,0.599 2.769,0.985 4.154,1.541 l 0,0.086 -16.405,10.019 c -2.099,1.413 -4.28,2.526 -6.294,4.024 0.252,0.257 0.546,0.429 0.839,0.129 7.678,-4.753 15.356,-9.42 23.077,-13.958 0.671,0.042 1.468,0.128 2.098,0.471 0.042,4.281 -0.042,9.634 -0.084,14.514 0.126,1.028 1.049,1.541 1.762,2.184 l 0,6.764 c 0.964,2.527 3.86,2.784 6.209,3.126 C -5.622,2.526 -2.14,2.569 0,0 Z"
             style="fill:none;stroke:#231f20;stroke-width:0.25;stroke-linecap:butt;stroke-linejoin:miter;stroke-miterlimit:4;stroke-dasharray:none;stroke-opacity:1"
             id="path3368"
             inkscape:connector-curvature="0" /></g><g
           id="g3370"
           transform="translate(131.5293,149.8687)"><path
             d="m 0,0 c 0.377,-0.257 0.42,-0.685 0.546,-1.071 -0.084,-0.599 -0.756,-1.114 -1.26,-1.241 0.253,0.385 0.504,0.813 0.336,1.327 C -1.72,1.07 -4.363,0.898 -6.629,0.77 -7.805,0.471 -9.524,0.128 -9.733,-1.328 c 0.041,-0.342 0.168,-0.685 0.42,-0.941 -0.672,0.17 -1.301,0.642 -1.386,1.327 0.21,1.499 1.846,1.413 2.937,1.755 C -5.202,1.156 -2.182,1.198 0,0"
             style="fill:#ffffff;fill-opacity:1;fill-rule:nonzero;stroke:none"
             id="path3372"
             inkscape:connector-curvature="0" /></g><g
           id="g3374"
           transform="translate(131.5293,149.8687)"><path
             d="m 0,0 c 0.377,-0.257 0.42,-0.685 0.546,-1.071 -0.084,-0.599 -0.756,-1.114 -1.26,-1.241 0.253,0.385 0.504,0.813 0.336,1.327 C -1.72,1.07 -4.363,0.898 -6.629,0.77 -7.805,0.471 -9.524,0.128 -9.733,-1.328 c 0.041,-0.342 0.168,-0.685 0.42,-0.941 -0.672,0.17 -1.301,0.642 -1.386,1.327 0.21,1.499 1.846,1.413 2.937,1.755 C -5.202,1.156 -2.182,1.198 0,0 Z"
             style="fill:none;stroke:#231f20;stroke-width:0.25;stroke-linecap:butt;stroke-linejoin:miter;stroke-miterlimit:4;stroke-dasharray:none;stroke-opacity:1"
             id="path3376"
             inkscape:connector-curvature="0" /></g><g
           id="g3378"
           transform="translate(130.3555,149.1836)"><path
             d="M 0,0 C 0.167,-0.172 0.251,-0.386 0.293,-0.6 L 0.209,-0.685 c -1.594,1.413 -4.028,1.327 -6.168,1.07 -0.42,0 -0.881,-0.427 -1.259,-0.214 0.042,0.386 0.503,0.342 0.714,0.514 C -4.447,1.284 -1.805,1.156 0,0"
             style="fill:#ffffff;fill-opacity:1;fill-rule:nonzero;stroke:none"
             id="path3380"
             inkscape:connector-curvature="0" /></g><g
           id="g3382"
           transform="translate(130.3555,149.1836)"><path
             d="M 0,0 C 0.167,-0.172 0.251,-0.386 0.293,-0.6 L 0.209,-0.685 c -1.594,1.413 -4.028,1.327 -6.168,1.07 -0.42,0 -0.881,-0.427 -1.259,-0.214 0.042,0.386 0.503,0.342 0.714,0.514 C -4.447,1.284 -1.805,1.156 0,0 Z"
             style="fill:none;stroke:#231f20;stroke-width:0.25;stroke-linecap:butt;stroke-linejoin:miter;stroke-miterlimit:4;stroke-dasharray:none;stroke-opacity:1"
             id="path3384"
             inkscape:connector-curvature="0" /></g><g
           id="g3386"
           transform="translate(130.0605,148.1128)"><path
             d="m 0,0 0,-0.343 c -2.098,-0.728 -4.908,-0.556 -6.588,0.814 1.134,0.813 2.855,0.6 4.365,0.557 C -1.468,0.771 -0.461,0.771 0,0"
             style="fill:#ffffff;fill-opacity:1;fill-rule:nonzero;stroke:none"
             id="path3388"
             inkscape:connector-curvature="0" /></g><g
           id="g3390"
           transform="translate(130.0605,148.1128)"><path
             d="m 0,0 0,-0.343 c -2.098,-0.728 -4.908,-0.556 -6.588,0.814 1.134,0.813 2.855,0.6 4.365,0.557 C -1.468,0.771 -0.461,0.771 0,0 Z"
             style="fill:none;stroke:#231f20;stroke-width:0.25;stroke-linecap:butt;stroke-linejoin:miter;stroke-miterlimit:4;stroke-dasharray:none;stroke-opacity:1"
             id="path3392"
             inkscape:connector-curvature="0" /></g><g
           id="g3394"
           transform="translate(124.9844,146.3145)"><path
             d="m 0,0 c 2.686,-0.3 5.161,-0.085 7.175,1.584 0.21,0.343 0.419,0.643 0.419,1.028 0.126,0 0,0.129 0.084,0.129 C 8.056,2.483 8.097,1.97 7.972,1.542 7.594,0.428 6.335,0.128 5.412,-0.3 2.056,-1.113 -2.014,-1.156 -4.783,0.941 -5.035,1.328 -5.37,1.712 -5.161,2.227 -5.077,2.44 -4.951,2.697 -4.699,2.741 -4.028,0.771 -1.805,0.342 0,0"
             style="fill:#ffffff;fill-opacity:1;fill-rule:nonzero;stroke:none"
             id="path3396"
             inkscape:connector-curvature="0" /></g><g
           id="g3398"
           transform="translate(124.9844,146.3145)"><path
             d="m 0,0 c 2.686,-0.3 5.161,-0.085 7.175,1.584 0.21,0.343 0.419,0.643 0.419,1.028 0.126,0 0,0.129 0.084,0.129 C 8.056,2.483 8.097,1.97 7.972,1.542 7.594,0.428 6.335,0.128 5.412,-0.3 2.056,-1.113 -2.014,-1.156 -4.783,0.941 -5.035,1.328 -5.37,1.712 -5.161,2.227 -5.077,2.44 -4.951,2.697 -4.699,2.741 -4.028,0.771 -1.805,0.342 0,0 Z"
             style="fill:none;stroke:#231f20;stroke-width:0.25;stroke-linecap:butt;stroke-linejoin:miter;stroke-miterlimit:4;stroke-dasharray:none;stroke-opacity:1"
             id="path3400"
             inkscape:connector-curvature="0" /></g><g
           id="g3402"
           transform="translate(132.4102,146.3145)"><path
             d="m 0,0 c -3.104,-2.226 -8.056,-2.141 -11.412,-0.471 l -0.293,0.343 c 3.314,-1.542 8.224,-1.628 11.621,0.086 L -0.125,0 0,0 Z"
             style="fill:#ffffff;fill-opacity:1;fill-rule:nonzero;stroke:none"
             id="path3404"
             inkscape:connector-curvature="0" /></g><g
           id="g3406"
           transform="translate(132.4102,146.3145)"><path
             d="m 0,0 c -3.104,-2.226 -8.056,-2.141 -11.412,-0.471 l -0.293,0.343 c 3.314,-1.542 8.224,-1.628 11.621,0.086 L -0.125,0 0,0 Z"
             style="fill:none;stroke:#231f20;stroke-width:0.25;stroke-linecap:butt;stroke-linejoin:miter;stroke-miterlimit:4;stroke-dasharray:none;stroke-opacity:1"
             id="path3408"
             inkscape:connector-curvature="0" /></g><g
           id="g3410"
           transform="translate(132.7881,145.8008)"><path
             d="m 0,0 c -0.587,-1.114 -1.888,-1.37 -2.937,-1.755 -2.811,-0.642 -6.084,-0.386 -8.558,0.771 l -0.085,0.213 c -0.042,-0.085 -0.168,0 -0.21,-0.042 0.042,0.042 0.168,-0.043 0.21,0.042 -0.168,0.129 -0.335,0.214 -0.503,0.172 0.797,-0.129 1.552,-0.6 2.391,-0.771 3.315,-0.557 6.922,-0.557 9.566,1.37 L 0,0 Z"
             style="fill:#ffffff;fill-opacity:1;fill-rule:nonzero;stroke:none"
             id="path3412"
             inkscape:connector-curvature="0" /></g><g
           id="g3414"
           transform="translate(132.7881,145.8008)"><path
             d="m 0,0 c -0.587,-1.114 -1.888,-1.37 -2.937,-1.755 -2.811,-0.642 -6.084,-0.386 -8.558,0.771 l -0.085,0.213 c -0.042,-0.085 -0.168,0 -0.21,-0.042 0.042,0.042 0.168,-0.043 0.21,0.042 -0.168,0.129 -0.335,0.214 -0.503,0.172 0.797,-0.129 1.552,-0.6 2.391,-0.771 3.315,-0.557 6.922,-0.557 9.566,1.37 L 0,0 Z"
             style="fill:none;stroke:#231f20;stroke-width:0.25;stroke-linecap:butt;stroke-linejoin:miter;stroke-miterlimit:4;stroke-dasharray:none;stroke-opacity:1"
             id="path3416"
             inkscape:connector-curvature="0" /></g><g
           id="g3418"
           transform="translate(132.873,144.8164)"><path
             d="m 0,0 c -2.393,-2.484 -6.63,-2.27 -9.902,-1.627 -0.714,0.257 -1.553,0.428 -2.098,0.941 0.335,0.129 0.503,-0.299 0.923,-0.214 0.252,-0.085 0.587,-0.256 0.923,-0.256 -0.084,0 -0.084,-0.043 -0.126,-0.043 0.126,-0.129 0.294,-0.043 0.419,-0.086 -0.084,0 -0.167,0.086 -0.209,-0.043 C -6.63,-1.97 -2.938,-1.799 0,0"
             style="fill:#ffffff;fill-opacity:1;fill-rule:nonzero;stroke:none"
             id="path3420"
             inkscape:connector-curvature="0" /></g><g
           id="g3422"
           transform="translate(132.873,144.8164)"><path
             d="m 0,0 c -2.393,-2.484 -6.63,-2.27 -9.902,-1.627 -0.714,0.257 -1.553,0.428 -2.098,0.941 0.335,0.129 0.503,-0.299 0.923,-0.214 0.252,-0.085 0.587,-0.256 0.923,-0.256 -0.084,0 -0.084,-0.043 -0.126,-0.043 0.126,-0.129 0.294,-0.043 0.419,-0.086 -0.084,0 -0.167,0.086 -0.209,-0.043 C -6.63,-1.97 -2.938,-1.799 0,0 Z"
             style="fill:none;stroke:#231f20;stroke-width:0.25;stroke-linecap:butt;stroke-linejoin:miter;stroke-miterlimit:4;stroke-dasharray:none;stroke-opacity:1"
             id="path3424"
             inkscape:connector-curvature="0" /></g><g
           id="g3426"
           transform="translate(130.8584,142.3755)"><path
             d="m 0,0 c -3.147,-1.027 -7.343,-0.899 -10.112,0.856 l -0.209,0.3 C -6.839,-0.813 -1.469,-0.685 2.015,1.626 1.846,0.685 0.755,0.343 0,0"
             style="fill:#ffffff;fill-opacity:1;fill-rule:nonzero;stroke:none"
             id="path3428"
             inkscape:connector-curvature="0" /></g><g
           id="g3430"
           transform="translate(130.8584,142.3755)"><path
             d="m 0,0 c -3.147,-1.027 -7.343,-0.899 -10.112,0.856 l -0.209,0.3 C -6.839,-0.813 -1.469,-0.685 2.015,1.626 1.846,0.685 0.755,0.343 0,0 Z"
             style="fill:none;stroke:#231f20;stroke-width:0.25;stroke-linecap:butt;stroke-linejoin:miter;stroke-miterlimit:4;stroke-dasharray:none;stroke-opacity:1"
             id="path3432"
             inkscape:connector-curvature="0" /></g><g
           id="g3434"
           transform="translate(132.873,142.7187)"><path
             d="m 0,0 c -0.967,-1.414 -2.77,-1.67 -4.364,-1.927 -2.77,-0.3 -5.748,-0.129 -7.93,1.412 -0.253,0.258 -0.336,0.429 -0.462,0.728 C -9.232,-2.098 -3.567,-2.056 0,0"
             style="fill:#ffffff;fill-opacity:1;fill-rule:nonzero;stroke:none"
             id="path3436"
             inkscape:connector-curvature="0" /></g><g
           id="g3438"
           transform="translate(132.873,142.7187)"><path
             d="m 0,0 c -0.967,-1.414 -2.77,-1.67 -4.364,-1.927 -2.77,-0.3 -5.748,-0.129 -7.93,1.412 -0.253,0.258 -0.336,0.429 -0.462,0.728 C -9.232,-2.098 -3.567,-2.056 0,0 Z"
             style="fill:none;stroke:#231f20;stroke-width:0.25;stroke-linecap:butt;stroke-linejoin:miter;stroke-miterlimit:4;stroke-dasharray:none;stroke-opacity:1"
             id="path3440"
             inkscape:connector-curvature="0" /></g><g
           id="g3442"
           transform="translate(132.7881,141.6904)"><path
             d="m 0,0 c -0.335,-0.856 -1.259,-1.242 -2.014,-1.541 -3.146,-1.028 -7.258,-0.771 -10.069,0.77 -0.336,0.257 -0.798,0.643 -0.714,1.028 C -9.315,-2.141 -3.65,-2.055 0,0"
             style="fill:#ffffff;fill-opacity:1;fill-rule:nonzero;stroke:none"
             id="path3444"
             inkscape:connector-curvature="0" /></g><g
           id="g3446"
           transform="translate(132.7881,141.6904)"><path
             d="m 0,0 c -0.335,-0.856 -1.259,-1.242 -2.014,-1.541 -3.146,-1.028 -7.258,-0.771 -10.069,0.77 -0.336,0.257 -0.798,0.643 -0.714,1.028 C -9.315,-2.141 -3.65,-2.055 0,0 Z"
             style="fill:none;stroke:#231f20;stroke-width:0.25;stroke-linecap:butt;stroke-linejoin:miter;stroke-miterlimit:4;stroke-dasharray:none;stroke-opacity:1"
             id="path3448"
             inkscape:connector-curvature="0" /></g><g
           id="g3450"
           transform="translate(132.873,140.7915)"><path
             d="m 0,0 c 0.125,-0.642 0.041,-1.456 -0.672,-1.67 -3.483,-1.798 -8.685,-1.712 -12.084,0.299 -0.294,0.258 -0.629,0.685 -0.251,0.986 0.041,0.128 -0.084,0.342 0.125,0.385 C -9.316,-2.269 -3.567,-2.484 0,0"
             style="fill:#ffffff;fill-opacity:1;fill-rule:nonzero;stroke:none"
             id="path3452"
             inkscape:connector-curvature="0" /></g><g
           id="g3454"
           transform="translate(132.873,140.7915)"><path
             d="m 0,0 c 0.125,-0.642 0.041,-1.456 -0.672,-1.67 -3.483,-1.798 -8.685,-1.712 -12.084,0.299 -0.294,0.258 -0.629,0.685 -0.251,0.986 0.041,0.128 -0.084,0.342 0.125,0.385 C -9.316,-2.269 -3.567,-2.484 0,0 Z"
             style="fill:none;stroke:#231f20;stroke-width:0.25;stroke-linecap:butt;stroke-linejoin:miter;stroke-miterlimit:4;stroke-dasharray:none;stroke-opacity:1"
             id="path3456"
             inkscape:connector-curvature="0" /></g><g
           id="g3458"
           transform="translate(119.0684,139.8926)"><path
             d="m 0,0 c -0.252,-0.214 -0.588,-0.643 -0.839,-0.814 -0.126,0.386 -0.042,0.643 -0.042,1.071 0.168,0.214 0.251,0.556 0.588,0.556 L 0,0 Z"
             style="fill:#ffffff;fill-opacity:1;fill-rule:nonzero;stroke:none"
             id="path3460"
             inkscape:connector-curvature="0" /></g><g
           id="g3462"
           transform="translate(119.0684,139.8926)"><path
             d="m 0,0 c -0.252,-0.214 -0.588,-0.643 -0.839,-0.814 -0.126,0.386 -0.042,0.643 -0.042,1.071 0.168,0.214 0.251,0.556 0.588,0.556 L 0,0 Z"
             style="fill:none;stroke:#231f20;stroke-width:0.25;stroke-linecap:butt;stroke-linejoin:miter;stroke-miterlimit:4;stroke-dasharray:none;stroke-opacity:1"
             id="path3464"
             inkscape:connector-curvature="0" /></g><g
           id="g3466"
           transform="translate(134.5918,139.9351)"><path
             d="m 0,0 c -0.209,0.214 -0.503,0.299 -0.545,0.514 l 0.126,0.257 C -0.377,0.471 0.252,0.257 0,0"
             style="fill:#ffffff;fill-opacity:1;fill-rule:nonzero;stroke:none"
             id="path3468"
             inkscape:connector-curvature="0" /></g><g
           id="g3470"
           transform="translate(134.5918,139.9351)"><path
             d="m 0,0 c -0.209,0.214 -0.503,0.299 -0.545,0.514 l 0.126,0.257 C -0.377,0.471 0.252,0.257 0,0 Z"
             style="fill:none;stroke:#231f20;stroke-width:0.25;stroke-linecap:butt;stroke-linejoin:miter;stroke-miterlimit:4;stroke-dasharray:none;stroke-opacity:1"
             id="path3472"
             inkscape:connector-curvature="0" /></g><g
           id="g3474"
           transform="translate(134.1729,138.6509)"><path
             d="M 0,0 C -0.084,-0.257 -0.378,-0.471 -0.629,-0.514 -0.881,-0.257 -1.092,0 -1.259,0.257 -0.881,1.156 -0.21,0.342 0,0"
             style="fill:#ffffff;fill-opacity:1;fill-rule:nonzero;stroke:none"
             id="path3476"
             inkscape:connector-curvature="0" /></g><g
           id="g3478"
           transform="translate(134.1729,138.6509)"><path
             d="M 0,0 C -0.084,-0.257 -0.378,-0.471 -0.629,-0.514 -0.881,-0.257 -1.092,0 -1.259,0.257 -0.881,1.156 -0.21,0.342 0,0 Z"
             style="fill:none;stroke:#231f20;stroke-width:0.25;stroke-linecap:butt;stroke-linejoin:miter;stroke-miterlimit:4;stroke-dasharray:none;stroke-opacity:1"
             id="path3480"
             inkscape:connector-curvature="0" /></g><g
           id="g3482"
           transform="translate(120.1172,138.7793)"><path
             d="m 0,0 c -0.126,-0.386 -0.545,-0.728 -0.839,-0.984 -0.21,0.085 -0.42,0.171 -0.546,0.341 C -1.049,-0.171 -0.587,0.813 0,0"
             style="fill:#ffffff;fill-opacity:1;fill-rule:nonzero;stroke:none"
             id="path3484"
             inkscape:connector-curvature="0" /></g><g
           id="g3486"
           transform="translate(120.1172,138.7793)"><path
             d="m 0,0 c -0.126,-0.386 -0.545,-0.728 -0.839,-0.984 -0.21,0.085 -0.42,0.171 -0.546,0.341 C -1.049,-0.171 -0.587,0.813 0,0 Z"
             style="fill:none;stroke:#231f20;stroke-width:0.25;stroke-linecap:butt;stroke-linejoin:miter;stroke-miterlimit:4;stroke-dasharray:none;stroke-opacity:1"
             id="path3488"
             inkscape:connector-curvature="0" /></g><g
           id="g3490"
           transform="translate(133.333,137.5801)"><path
             d="m 0,0 0.127,-0.728 c -0.084,-3.596 0,-9.119 -0.168,-12.973 -0.168,0.043 -0.168,0.257 -0.211,0.386 -0.293,1.027 -0.377,2.141 -0.922,3.04 l 0.042,9.761 c 0.419,0.386 0.125,0.985 0.084,1.413 C -0.671,0.557 -0.46,0.3 0,0"
             style="fill:#ffffff;fill-opacity:1;fill-rule:nonzero;stroke:none"
             id="path3492"
             inkscape:connector-curvature="0" /></g><g
           id="g3494"
           transform="translate(133.333,137.5801)"><path
             d="m 0,0 0.127,-0.728 c -0.084,-3.596 0,-9.119 -0.168,-12.973 -0.168,0.043 -0.168,0.257 -0.211,0.386 -0.293,1.027 -0.377,2.141 -0.922,3.04 l 0.042,9.761 c 0.419,0.386 0.125,0.985 0.084,1.413 C -0.671,0.557 -0.46,0.3 0,0 Z"
             style="fill:none;stroke:#231f20;stroke-width:0.25;stroke-linecap:butt;stroke-linejoin:miter;stroke-miterlimit:4;stroke-dasharray:none;stroke-opacity:1"
             id="path3496"
             inkscape:connector-curvature="0" /></g><g
           id="g3498"
           transform="translate(121.208,138.1367)"><path
             d="M 0,0 C 0.085,-0.342 0,-0.728 -0.126,-1.071 -0.168,-0.728 -0.293,-0.213 0,0"
             style="fill:#ffffff;fill-opacity:1;fill-rule:nonzero;stroke:none"
             id="path3500"
             inkscape:connector-curvature="0" /></g><g
           id="g3502"
           transform="translate(121.208,138.1367)"><path
             d="M 0,0 C 0.085,-0.342 0,-0.728 -0.126,-1.071 -0.168,-0.728 -0.293,-0.213 0,0 Z"
             style="fill:none;stroke:#231f20;stroke-width:0.25;stroke-linecap:butt;stroke-linejoin:miter;stroke-miterlimit:4;stroke-dasharray:none;stroke-opacity:1"
             id="path3504"
             inkscape:connector-curvature="0" /></g><g
           id="g3506"
           transform="translate(134.6338,116.1729)"><path
             d="m 0,0 c -2.308,-2.227 -5.621,-2.483 -8.895,-2.569 -2.727,0.257 -5.538,0.471 -7.509,2.398 l -0.042,16.355 0,5.266 c 0.251,0.128 0.461,-0.129 0.671,-0.299 0.294,-4.239 0.126,-9.891 0.169,-14.386 0.586,-0.386 1.005,-1.584 1.928,-1.113 0.21,0.214 0.714,0.342 0.629,0.771 0.085,4.409 -0.125,9.247 0,13.486 0.295,0.299 0.631,-0.043 0.924,-0.086 l 0.084,-0.214 0.168,-13.872 c 0.503,-1.07 1.888,-0.899 3.02,-0.899 l 0.21,0.257 0,14.215 c 0.252,0.428 0.755,0.042 1.175,0.17 l 0.168,-0.685 0.042,-13.7 c 0.21,-0.257 0.503,0.086 0.755,-0.129 0.671,-0.085 1.427,-0.043 1.973,0.386 l 0.419,0.685 c 0.084,4.838 -0.21,8.692 0.042,13.958 0.21,0.128 0.504,0.171 0.798,0.128 0.167,-3.853 0.083,-7.664 0.083,-11.389 L -3.23,6.637 c 0.377,-0.3 0.084,-0.9 0.713,-0.943 0.336,-0.042 0.671,0.043 0.964,0.214 1.134,1.113 0.63,2.526 0.756,4.068 0.126,3.682 -0.126,7.963 0.21,11.56 0.21,0.042 0.377,0.342 0.629,0.342 L 0,0 Z"
             style="fill:#ffffff;fill-opacity:1;fill-rule:nonzero;stroke:none"
             id="path3508"
             inkscape:connector-curvature="0" /></g><g
           id="g3510"
           transform="translate(134.6338,116.1729)"><path
             d="m 0,0 c -2.308,-2.227 -5.621,-2.483 -8.895,-2.569 -2.727,0.257 -5.538,0.471 -7.509,2.398 l -0.042,16.355 0,5.266 c 0.251,0.128 0.461,-0.129 0.671,-0.299 0.294,-4.239 0.126,-9.891 0.169,-14.386 0.586,-0.386 1.005,-1.584 1.928,-1.113 0.21,0.214 0.714,0.342 0.629,0.771 0.085,4.409 -0.125,9.247 0,13.486 0.295,0.299 0.631,-0.043 0.924,-0.086 l 0.084,-0.214 0.168,-13.872 c 0.503,-1.07 1.888,-0.899 3.02,-0.899 l 0.21,0.257 0,14.215 c 0.252,0.428 0.755,0.042 1.175,0.17 l 0.168,-0.685 0.042,-13.7 c 0.21,-0.257 0.503,0.086 0.755,-0.129 0.671,-0.085 1.427,-0.043 1.973,0.386 l 0.419,0.685 c 0.084,4.838 -0.21,8.692 0.042,13.958 0.21,0.128 0.504,0.171 0.798,0.128 0.167,-3.853 0.083,-7.664 0.083,-11.389 L -3.23,6.637 c 0.377,-0.3 0.084,-0.9 0.713,-0.943 0.336,-0.042 0.671,0.043 0.964,0.214 1.134,1.113 0.63,2.526 0.756,4.068 0.126,3.682 -0.126,7.963 0.21,11.56 0.21,0.042 0.377,0.342 0.629,0.342 L 0,0 Z"
             style="fill:none;stroke:#231f20;stroke-width:0.25;stroke-linecap:butt;stroke-linejoin:miter;stroke-miterlimit:4;stroke-dasharray:none;stroke-opacity:1"
             id="path3512"
             inkscape:connector-curvature="0" /></g><g
           id="g3514"
           transform="translate(131.5293,137.3237)"><path
             d="M 0,0 C 0.126,-0.214 -0.251,-0.386 -0.419,-0.472 -0.671,-0.429 -0.839,-0.686 -1.133,-0.6 -1.301,-0.343 -1.637,-0.043 -1.72,0.299 -1.133,0.341 -0.126,1.241 0,0"
             style="fill:#ffffff;fill-opacity:1;fill-rule:nonzero;stroke:none"
             id="path3516"
             inkscape:connector-curvature="0" /></g><g
           id="g3518"
           transform="translate(131.5293,137.3237)"><path
             d="M 0,0 C 0.126,-0.214 -0.251,-0.386 -0.419,-0.472 -0.671,-0.429 -0.839,-0.686 -1.133,-0.6 -1.301,-0.343 -1.637,-0.043 -1.72,0.299 -1.133,0.341 -0.126,1.241 0,0 Z"
             style="fill:none;stroke:#231f20;stroke-width:0.25;stroke-linecap:butt;stroke-linejoin:miter;stroke-miterlimit:4;stroke-dasharray:none;stroke-opacity:1"
             id="path3520"
             inkscape:connector-curvature="0" /></g><g
           id="g3522"
           transform="translate(120.3691,137.8374)"><path
             d="m 0,0 c 0.126,-4.068 0.252,-8.007 0.126,-12.331 -0.42,-0.556 -0.588,-1.242 -0.923,-1.798 -0.168,4.753 -0.084,8.734 -0.042,13.53 C -0.63,-0.386 -0.336,-0.042 0,0"
             style="fill:#ffffff;fill-opacity:1;fill-rule:nonzero;stroke:none"
             id="path3524"
             inkscape:connector-curvature="0" /></g><g
           id="g3526"
           transform="translate(120.3691,137.8374)"><path
             d="m 0,0 c 0.126,-4.068 0.252,-8.007 0.126,-12.331 -0.42,-0.556 -0.588,-1.242 -0.923,-1.798 -0.168,4.753 -0.084,8.734 -0.042,13.53 C -0.63,-0.386 -0.336,-0.042 0,0 Z"
             style="fill:none;stroke:#231f20;stroke-width:0.25;stroke-linecap:butt;stroke-linejoin:miter;stroke-miterlimit:4;stroke-dasharray:none;stroke-opacity:1"
             id="path3528"
             inkscape:connector-curvature="0" /></g><g
           id="g3530"
           transform="translate(123.5156,137.5376)"><path
             d="m 0,0 c -0.168,-0.343 -0.252,-1.114 -0.755,-0.942 -0.21,0 -0.504,0.043 -0.713,0.171 -0.043,0.257 0.042,0.728 0.168,1.028 C -0.881,0.213 -0.42,0.127 0,0"
             style="fill:#ffffff;fill-opacity:1;fill-rule:nonzero;stroke:none"
             id="path3532"
             inkscape:connector-curvature="0" /></g><g
           id="g3534"
           transform="translate(123.5156,137.5376)"><path
             d="m 0,0 c -0.168,-0.343 -0.252,-1.114 -0.755,-0.942 -0.21,0 -0.504,0.043 -0.713,0.171 -0.043,0.257 0.042,0.728 0.168,1.028 C -0.881,0.213 -0.42,0.127 0,0 Z"
             style="fill:none;stroke:#231f20;stroke-width:0.25;stroke-linecap:butt;stroke-linejoin:miter;stroke-miterlimit:4;stroke-dasharray:none;stroke-opacity:1"
             id="path3536"
             inkscape:connector-curvature="0" /></g><g
           id="g3538"
           transform="translate(129.1377,137.4941)"><path
             d="m 0,0 c -0.041,-4.409 0.168,-7.92 -0.209,-12.073 -0.168,0.128 -0.42,0.128 -0.378,0.385 l 0,11.304 C -0.545,-0.127 -0.293,0.086 0,0"
             style="fill:#ffffff;fill-opacity:1;fill-rule:nonzero;stroke:none"
             id="path3540"
             inkscape:connector-curvature="0" /></g><g
           id="g3542"
           transform="translate(129.1377,137.4941)"><path
             d="m 0,0 c -0.041,-4.409 0.168,-7.92 -0.209,-12.073 -0.168,0.128 -0.42,0.128 -0.378,0.385 l 0,11.304 C -0.545,-0.127 -0.293,0.086 0,0 Z"
             style="fill:none;stroke:#231f20;stroke-width:0.25;stroke-linecap:butt;stroke-linejoin:miter;stroke-miterlimit:4;stroke-dasharray:none;stroke-opacity:1"
             id="path3544"
             inkscape:connector-curvature="0" /></g><g
           id="g3546"
           transform="translate(124.8164,137.1099)"><path
             d="m 0,0 -0.084,-11.561 c -0.168,0.086 -0.21,-0.042 -0.336,-0.085 -0.293,1.883 0.042,2.954 -0.126,4.881 L -0.588,0.214 C -0.42,0.428 -0.042,0.299 0,0"
             style="fill:#ffffff;fill-opacity:1;fill-rule:nonzero;stroke:none"
             id="path3548"
             inkscape:connector-curvature="0" /></g><g
           id="g3550"
           transform="translate(124.8164,137.1099)"><path
             d="m 0,0 -0.084,-11.561 c -0.168,0.086 -0.21,-0.042 -0.336,-0.085 -0.293,1.883 0.042,2.954 -0.126,4.881 L -0.588,0.214 C -0.42,0.428 -0.042,0.299 0,0 Z"
             style="fill:none;stroke:#231f20;stroke-width:0.25;stroke-linecap:butt;stroke-linejoin:miter;stroke-miterlimit:4;stroke-dasharray:none;stroke-opacity:1"
             id="path3552"
             inkscape:connector-curvature="0" /></g><g
           id="g3554"
           transform="translate(128.0049,137.3667)"><path
             d="m 0,0 c -0.083,-0.386 -0.335,-0.643 -0.335,-1.071 -0.588,0 -1.175,-0.171 -1.762,-0.043 -0.211,0.343 -0.547,0.642 -0.504,1.071 C -1.762,0.085 -0.881,0 0,0"
             style="fill:#ffffff;fill-opacity:1;fill-rule:nonzero;stroke:none"
             id="path3556"
             inkscape:connector-curvature="0" /></g><g
           id="g3558"
           transform="translate(128.0049,137.3667)"><path
             d="m 0,0 c -0.083,-0.386 -0.335,-0.643 -0.335,-1.071 -0.588,0 -1.175,-0.171 -1.762,-0.043 -0.211,0.343 -0.547,0.642 -0.504,1.071 C -1.762,0.085 -0.881,0 0,0 Z"
             style="fill:none;stroke:#231f20;stroke-width:0.25;stroke-linecap:butt;stroke-linejoin:miter;stroke-miterlimit:4;stroke-dasharray:none;stroke-opacity:1"
             id="path3560"
             inkscape:connector-curvature="0" /></g><g
           id="g3562"
           transform="translate(130.0186,135.1401)"><path
             d="m 0,0 c 0.042,-3.426 0.085,-7.407 -0.083,-11.261 -0.084,0.642 -0.63,1.37 -0.294,2.055 -0.126,3.554 -0.126,7.493 0,10.832 C 0.127,1.327 -0.083,0.513 0,0"
             style="fill:#ffffff;fill-opacity:1;fill-rule:nonzero;stroke:none"
             id="path3564"
             inkscape:connector-curvature="0" /></g><g
           id="g3566"
           transform="translate(130.0186,135.1401)"><path
             d="m 0,0 c 0.042,-3.426 0.085,-7.407 -0.083,-11.261 -0.084,0.642 -0.63,1.37 -0.294,2.055 -0.126,3.554 -0.126,7.493 0,10.832 C 0.127,1.327 -0.083,0.513 0,0 Z"
             style="fill:none;stroke:#231f20;stroke-width:0.25;stroke-linecap:butt;stroke-linejoin:miter;stroke-miterlimit:4;stroke-dasharray:none;stroke-opacity:1"
             id="path3568"
             inkscape:connector-curvature="0" /></g><g
           id="g3570"
           transform="translate(123.6406,136.2954)"><path
             d="m 0,0 c 0.211,-3.553 0.043,-7.278 0.169,-10.575 l 0.083,-0.086 c -0.168,-0.642 -0.377,-1.327 -0.586,-1.969 -0.211,4.025 -0.211,7.621 -0.211,11.859 0.042,0.386 0.336,0.515 0.504,0.814 L 0,0 Z"
             style="fill:#ffffff;fill-opacity:1;fill-rule:nonzero;stroke:none"
             id="path3572"
             inkscape:connector-curvature="0" /></g><g
           id="g3574"
           transform="translate(123.6406,136.2954)"><path
             d="m 0,0 c 0.211,-3.553 0.043,-7.278 0.169,-10.575 l 0.083,-0.086 c -0.168,-0.642 -0.377,-1.327 -0.586,-1.969 -0.211,4.025 -0.211,7.621 -0.211,11.859 0.042,0.386 0.336,0.515 0.504,0.814 L 0,0 Z"
             style="fill:none;stroke:#231f20;stroke-width:0.25;stroke-linecap:butt;stroke-linejoin:miter;stroke-miterlimit:4;stroke-dasharray:none;stroke-opacity:1"
             id="path3576"
             inkscape:connector-curvature="0" /></g><g
           id="g3578"
           transform="translate(125.3203,136.0815)"><path
             d="m 0,0 c 0.168,-3.254 0.084,-6.765 0.084,-10.147 -0.043,0 -0.043,-0.043 -0.084,-0.043 0.041,-0.042 0.041,-0.086 0.084,-0.086 l 0,-0.085 C 0.041,-10.318 0.041,-10.404 0,-10.404 l 0.041,-0.043 C -0.21,-7.407 -0.042,-3.596 -0.084,0 L 0,0 Z"
             style="fill:#ffffff;fill-opacity:1;fill-rule:nonzero;stroke:none"
             id="path3580"
             inkscape:connector-curvature="0" /></g><g
           id="g3582"
           transform="translate(125.3203,136.0815)"><path
             d="m 0,0 c 0.168,-3.254 0.084,-6.765 0.084,-10.147 -0.043,0 -0.043,-0.043 -0.084,-0.043 0.041,-0.042 0.041,-0.086 0.084,-0.086 l 0,-0.085 C 0.041,-10.318 0.041,-10.404 0,-10.404 l 0.041,-0.043 C -0.21,-7.407 -0.042,-3.596 -0.084,0 L 0,0 Z"
             style="fill:none;stroke:#231f20;stroke-width:0.25;stroke-linecap:butt;stroke-linejoin:miter;stroke-miterlimit:4;stroke-dasharray:none;stroke-opacity:1"
             id="path3584"
             inkscape:connector-curvature="0" /></g><g
           id="g3586"
           transform="translate(128.0469,135.8252)"><path
             d="m 0,0 c 0.042,-3.64 0.126,-6.979 -0.125,-10.619 l -0.084,0 0,10.233 C -0.125,-0.257 -0.168,0 0,0"
             style="fill:#ffffff;fill-opacity:1;fill-rule:nonzero;stroke:none"
             id="path3588"
             inkscape:connector-curvature="0" /></g><g
           id="g3590"
           transform="translate(128.0469,135.8252)"><path
             d="m 0,0 c 0.042,-3.64 0.126,-6.979 -0.125,-10.619 l -0.084,0 0,10.233 C -0.125,-0.257 -0.168,0 0,0 Z"
             style="fill:none;stroke:#231f20;stroke-width:0.25;stroke-linecap:butt;stroke-linejoin:miter;stroke-miterlimit:4;stroke-dasharray:none;stroke-opacity:1"
             id="path3592"
             inkscape:connector-curvature="0" /></g><g
           id="g3594"
           transform="translate(132.9561,122.8945)"><path
             d="m 0,0 c 0.084,-0.385 -0.336,-0.385 -0.546,-0.513 l -0.251,0 C -0.923,0.472 -0.713,1.37 -0.671,2.312 -0.294,1.627 -0.336,0.728 0,0"
             style="fill:#ffffff;fill-opacity:1;fill-rule:nonzero;stroke:none"
             id="path3596"
             inkscape:connector-curvature="0" /></g><g
           id="g3598"
           transform="translate(132.9561,122.8945)"><path
             d="m 0,0 c 0.084,-0.385 -0.336,-0.385 -0.546,-0.513 l -0.251,0 C -0.923,0.472 -0.713,1.37 -0.671,2.312 -0.294,1.627 -0.336,0.728 0,0 Z"
             style="fill:none;stroke:#231f20;stroke-width:0.25;stroke-linecap:butt;stroke-linejoin:miter;stroke-miterlimit:4;stroke-dasharray:none;stroke-opacity:1"
             id="path3600"
             inkscape:connector-curvature="0" /></g><g
           id="g3602"
           transform="translate(125.0264,124.4785)"><path
             d="m 0,0 0.378,-2.911 c -0.672,-0.299 -1.595,-0.172 -2.098,0.299 -0.253,0.385 0,0.471 0.209,0.771 0.168,0.856 0.504,1.713 0.881,2.483 C -0.336,0.514 -0.042,0.386 0,0"
             style="fill:#ffffff;fill-opacity:1;fill-rule:nonzero;stroke:none"
             id="path3604"
             inkscape:connector-curvature="0" /></g><g
           id="g3606"
           transform="translate(125.0264,124.4785)"><path
             d="m 0,0 0.378,-2.911 c -0.672,-0.299 -1.595,-0.172 -2.098,0.299 -0.253,0.385 0,0.471 0.209,0.771 0.168,0.856 0.504,1.713 0.881,2.483 C -0.336,0.514 -0.042,0.386 0,0 Z"
             style="fill:none;stroke:#231f20;stroke-width:0.25;stroke-linecap:butt;stroke-linejoin:miter;stroke-miterlimit:4;stroke-dasharray:none;stroke-opacity:1"
             id="path3608"
             inkscape:connector-curvature="0" /></g><g
           id="g3610"
           transform="translate(129.8096,122.0386)"><path
             d="m 0,0 c 0,-0.214 -0.168,-0.386 -0.378,-0.428 -0.546,0 -1.091,0 -1.553,0.214 l 0.504,2.868 c 0.126,0.258 0.462,0.172 0.63,0.428 C -0.378,2.098 -0.21,1.113 0,0"
             style="fill:#ffffff;fill-opacity:1;fill-rule:nonzero;stroke:none"
             id="path3612"
             inkscape:connector-curvature="0" /></g><g
           id="g3614"
           transform="translate(129.8096,122.0386)"><path
             d="m 0,0 c 0,-0.214 -0.168,-0.386 -0.378,-0.428 -0.546,0 -1.091,0 -1.553,0.214 l 0.504,2.868 c 0.126,0.258 0.462,0.172 0.63,0.428 C -0.378,2.098 -0.21,1.113 0,0 Z"
             style="fill:none;stroke:#231f20;stroke-width:0.25;stroke-linecap:butt;stroke-linejoin:miter;stroke-miterlimit:4;stroke-dasharray:none;stroke-opacity:1"
             id="path3616"
             inkscape:connector-curvature="0" /></g><g
           id="g3618"
           transform="translate(120.998,122.4238)"><path
             d="m 0,0 c -0.209,-0.214 -0.588,-0.042 -0.797,0.042 -0.294,0.214 -0.629,0.686 -0.252,0.985 0.21,0.514 0.504,1.071 0.881,1.414 l -0.041,0.042 0.084,0 L 0,0 Z"
             style="fill:#ffffff;fill-opacity:1;fill-rule:nonzero;stroke:none"
             id="path3620"
             inkscape:connector-curvature="0" /></g><g
           id="g3622"
           transform="translate(120.998,122.4238)"><path
             d="m 0,0 c -0.209,-0.214 -0.588,-0.042 -0.797,0.042 -0.294,0.214 -0.629,0.686 -0.252,0.985 0.21,0.514 0.504,1.071 0.881,1.414 l -0.041,0.042 0.084,0 L 0,0 Z"
             style="fill:none;stroke:#231f20;stroke-width:0.25;stroke-linecap:butt;stroke-linejoin:miter;stroke-miterlimit:4;stroke-dasharray:none;stroke-opacity:1"
             id="path3624"
             inkscape:connector-curvature="0" /></g><g
           id="g3626"
           transform="translate(117.0547,123.8794)"><path
             d="m 0,0 -0.042,-0.3 c -2.896,-0.813 -5.875,-1.841 -7.805,-4.495 -0.504,-0.943 -0.923,-2.269 -0.461,-3.34 2.559,-4.196 7.259,-5.18 11.622,-5.993 7.259,-1.114 15.063,-0.558 21.063,3.082 1.511,1.156 2.894,2.697 2.518,4.838 -1.091,3.511 -4.91,4.966 -8.056,5.78 0.041,0.214 -0.127,0.513 0.167,0.642 1.721,-0.342 3.356,-0.985 5.035,-1.627 2.098,-1.07 4.698,-2.397 5.328,-5.009 0.378,-2.141 -1.091,-3.982 -2.81,-5.138 -6.378,-3.939 -14.517,-4.239 -22.364,-3.682 -4.657,0.684 -9.314,1.455 -13.049,4.496 -1.342,1.284 -2.433,2.954 -1.804,4.837 1.091,2.869 4.112,4.197 6.63,5.138 1.3,0.343 2.559,0.813 3.944,0.985 L 0,0 Z"
             style="fill:#ffffff;fill-opacity:1;fill-rule:nonzero;stroke:none"
             id="path3628"
             inkscape:connector-curvature="0" /></g><g
           id="g3630"
           transform="translate(117.0547,123.8794)"><path
             d="m 0,0 -0.042,-0.3 c -2.896,-0.813 -5.875,-1.841 -7.805,-4.495 -0.504,-0.943 -0.923,-2.269 -0.461,-3.34 2.559,-4.196 7.259,-5.18 11.622,-5.993 7.259,-1.114 15.063,-0.558 21.063,3.082 1.511,1.156 2.894,2.697 2.518,4.838 -1.091,3.511 -4.91,4.966 -8.056,5.78 0.041,0.214 -0.127,0.513 0.167,0.642 1.721,-0.342 3.356,-0.985 5.035,-1.627 2.098,-1.07 4.698,-2.397 5.328,-5.009 0.378,-2.141 -1.091,-3.982 -2.81,-5.138 -6.378,-3.939 -14.517,-4.239 -22.364,-3.682 -4.657,0.684 -9.314,1.455 -13.049,4.496 -1.342,1.284 -2.433,2.954 -1.804,4.837 1.091,2.869 4.112,4.197 6.63,5.138 1.3,0.343 2.559,0.813 3.944,0.985 L 0,0 Z"
             style="fill:none;stroke:#231f20;stroke-width:0.25;stroke-linecap:butt;stroke-linejoin:miter;stroke-miterlimit:4;stroke-dasharray:none;stroke-opacity:1"
             id="path3632"
             inkscape:connector-curvature="0" /></g><g
           id="g3634"
           transform="translate(83.1108,110.2212)"><path
             d="m 0,0 20.853,-14.343 54.418,-37.291 1.762,-1.199 0,-0.129 c -0.168,-0.258 -0.545,0.298 -0.504,-0.172 0.126,-0.129 0.294,-0.129 0.21,-0.342 l -0.545,0.299 -17.873,12.203 c -1.679,1.113 -3.316,2.398 -5.035,3.297 l 0.042,0.043 c -0.126,0.086 -0.21,0.129 -0.336,0.086 l -0.125,-1.157 -0.295,-44.699 c 0.211,-1.756 -0.461,-3.426 -2.014,-4.453 l -0.125,-0.172 -0.168,-6.935 c -0.21,-0.813 -0.336,-1.668 -0.798,-2.356 -1.719,-2.439 -4.824,-3.211 -7.803,-2.74 -2.559,0.387 -5.497,1.756 -6.083,4.625 -0.211,2.355 -0.043,4.881 -0.169,7.365 -0.881,0.684 -1.51,1.582 -1.846,2.612 l -0.126,25.173 c -0.168,10.705 -0.084,21.366 -0.251,32.155 -0.546,0.343 -1.301,0.172 -1.763,0.728 -0.378,0.6 -1.007,0.943 -0.881,1.756 -1.636,0.855 -0.839,2.997 -1.091,4.452 L 9.818,-7.578 -9.65,5.738 l -8.853,6.165 c 0.043,0.3 -0.419,0.599 0.084,0.728 l 0.42,-0.172 L 0,0 Z"
             style="fill:#231f20;fill-opacity:1;fill-rule:nonzero;stroke:none"
             id="path3636"
             inkscape:connector-curvature="0" /></g><g
           id="g3638"
           transform="translate(83.1108,110.2212)"><path
             d="m 0,0 20.853,-14.343 54.418,-37.291 1.762,-1.199 0,-0.129 c -0.168,-0.258 -0.545,0.298 -0.504,-0.172 0.126,-0.129 0.294,-0.129 0.21,-0.342 l -0.545,0.299 -17.873,12.203 c -1.679,1.113 -3.316,2.398 -5.035,3.297 l 0.042,0.043 c -0.126,0.086 -0.21,0.129 -0.336,0.086 l -0.125,-1.157 -0.295,-44.699 c 0.211,-1.756 -0.461,-3.426 -2.014,-4.453 l -0.125,-0.172 -0.168,-6.935 c -0.21,-0.813 -0.336,-1.668 -0.798,-2.356 -1.719,-2.439 -4.824,-3.211 -7.803,-2.74 -2.559,0.387 -5.497,1.756 -6.083,4.625 -0.211,2.355 -0.043,4.881 -0.169,7.365 -0.881,0.684 -1.51,1.582 -1.846,2.612 l -0.126,25.173 c -0.168,10.705 -0.084,21.366 -0.251,32.155 -0.546,0.343 -1.301,0.172 -1.763,0.728 -0.378,0.6 -1.007,0.943 -0.881,1.756 -1.636,0.855 -0.839,2.997 -1.091,4.452 L 9.818,-7.578 -9.65,5.738 l -8.853,6.165 c 0.043,0.3 -0.419,0.599 0.084,0.728 l 0.42,-0.172 L 0,0 Z"
             style="fill:none;stroke:#231f20;stroke-width:0.25;stroke-linecap:butt;stroke-linejoin:miter;stroke-miterlimit:4;stroke-dasharray:none;stroke-opacity:1"
             id="path3640"
             inkscape:connector-curvature="0" /></g><g
           id="g3642"
           transform="translate(117.0547,122.4663)"><path
             d="m 0,0 c -0.462,-0.214 -1.007,0 -1.511,0 0.462,0.214 0.923,0.257 1.427,0.386 L 0,0 Z"
             style="fill:#ffffff;fill-opacity:1;fill-rule:nonzero;stroke:none"
             id="path3644"
             inkscape:connector-curvature="0" /></g><g
           id="g3646"
           transform="translate(117.0547,122.4663)"><path
             d="m 0,0 c -0.462,-0.214 -1.007,0 -1.511,0 0.462,0.214 0.923,0.257 1.427,0.386 L 0,0 Z"
             style="fill:none;stroke:#231f20;stroke-width:0.25;stroke-linecap:butt;stroke-linejoin:miter;stroke-miterlimit:4;stroke-dasharray:none;stroke-opacity:1"
             id="path3648"
             inkscape:connector-curvature="0" /></g><g
           id="g3650"
           transform="translate(139.8369,121.3105)"><path
             d="M 0,0 C -0.713,0 -1.343,-0.042 -1.972,-0.172 L -2.644,1.027 C -1.678,0.899 -0.797,0.599 0,0"
             style="fill:#ffffff;fill-opacity:1;fill-rule:nonzero;stroke:none"
             id="path3652"
             inkscape:connector-curvature="0" /></g><g
           id="g3654"
           transform="translate(139.8369,121.3105)"><path
             d="M 0,0 C -0.713,0 -1.343,-0.042 -1.972,-0.172 L -2.644,1.027 C -1.678,0.899 -0.797,0.599 0,0 Z"
             style="fill:none;stroke:#231f20;stroke-width:0.25;stroke-linecap:butt;stroke-linejoin:miter;stroke-miterlimit:4;stroke-dasharray:none;stroke-opacity:1"
             id="path3656"
             inkscape:connector-curvature="0" /></g><g
           id="g3658"
           transform="translate(136.4805,121.0107)"><path
             d="M 0,0 C -0.252,0.043 -0.336,-0.385 -0.587,-0.171 -0.756,0.043 -0.63,0.3 -0.587,0.557 -0.21,0.471 -0.126,0.343 0,0"
             style="fill:#ffffff;fill-opacity:1;fill-rule:nonzero;stroke:none"
             id="path3660"
             inkscape:connector-curvature="0" /></g><g
           id="g3662"
           transform="translate(136.4805,121.0107)"><path
             d="M 0,0 C -0.252,0.043 -0.336,-0.385 -0.587,-0.171 -0.756,0.043 -0.63,0.3 -0.587,0.557 -0.21,0.471 -0.126,0.343 0,0 Z"
             style="fill:none;stroke:#231f20;stroke-width:0.25;stroke-linecap:butt;stroke-linejoin:miter;stroke-miterlimit:4;stroke-dasharray:none;stroke-opacity:1"
             id="path3664"
             inkscape:connector-curvature="0" /></g><g
           id="g3666"
           transform="translate(116.9707,120.8398)"><path
             d="m 0,0 -0.042,-0.171 c -1.637,-0.685 -3.231,-2.056 -3.482,-3.94 l -1.805,0.257 c -0.377,1.071 0,2.355 0.755,3.169 0.923,0.984 2.14,1.456 3.525,1.156 C -0.713,0.342 -0.294,0.299 0,0"
             style="fill:#ffffff;fill-opacity:1;fill-rule:nonzero;stroke:none"
             id="path3668"
             inkscape:connector-curvature="0" /></g><g
           id="g3670"
           transform="translate(116.9707,120.8398)"><path
             d="m 0,0 -0.042,-0.171 c -1.637,-0.685 -3.231,-2.056 -3.482,-3.94 l -1.805,0.257 c -0.377,1.071 0,2.355 0.755,3.169 0.923,0.984 2.14,1.456 3.525,1.156 C -0.713,0.342 -0.294,0.299 0,0 Z"
             style="fill:none;stroke:#231f20;stroke-width:0.25;stroke-linecap:butt;stroke-linejoin:miter;stroke-miterlimit:4;stroke-dasharray:none;stroke-opacity:1"
             id="path3672"
             inkscape:connector-curvature="0" /></g><g
           id="g3674"
           transform="translate(110.5083,116.9004)"><path
             d="M 0,0 C -0.418,-0.171 -0.881,-0.342 -1.3,-0.471 -1.678,0.942 -0.965,2.098 0,3.083 L 1.218,3.939 C 0.336,2.868 -0.252,1.456 0,0"
             style="fill:#ffffff;fill-opacity:1;fill-rule:nonzero;stroke:none"
             id="path3676"
             inkscape:connector-curvature="0" /></g><g
           id="g3678"
           transform="translate(110.5083,116.9004)"><path
             d="M 0,0 C -0.418,-0.171 -0.881,-0.342 -1.3,-0.471 -1.678,0.942 -0.965,2.098 0,3.083 L 1.218,3.939 C 0.336,2.868 -0.252,1.456 0,0 Z"
             style="fill:none;stroke:#231f20;stroke-width:0.25;stroke-linecap:butt;stroke-linejoin:miter;stroke-miterlimit:4;stroke-dasharray:none;stroke-opacity:1"
             id="path3680"
             inkscape:connector-curvature="0" /></g><g
           id="g3682"
           transform="translate(142.6475,118.4419)"><path
             d="m 0,0 c 0.252,-0.471 0.295,-1.028 0.336,-1.627 -1.469,0.257 -2.811,-0.343 -4.069,-0.856 0.293,0.642 0.796,1.841 0.168,2.612 C -3.86,0.642 -4.321,1.07 -4.531,1.584 -2.895,2.184 -0.923,1.542 0,0"
             style="fill:#ffffff;fill-opacity:1;fill-rule:nonzero;stroke:none"
             id="path3684"
             inkscape:connector-curvature="0" /></g><g
           id="g3686"
           transform="translate(142.6475,118.4419)"><path
             d="m 0,0 c 0.252,-0.471 0.295,-1.028 0.336,-1.627 -1.469,0.257 -2.811,-0.343 -4.069,-0.856 0.293,0.642 0.796,1.841 0.168,2.612 C -3.86,0.642 -4.321,1.07 -4.531,1.584 -2.895,2.184 -0.923,1.542 0,0 Z"
             style="fill:none;stroke:#231f20;stroke-width:0.25;stroke-linecap:butt;stroke-linejoin:miter;stroke-miterlimit:4;stroke-dasharray:none;stroke-opacity:1"
             id="path3688"
             inkscape:connector-curvature="0" /></g><g
           id="g3690"
           transform="translate(137.9072,117.8428)"><path
             d="m 0,0 c 0.126,-0.985 -0.336,-2.012 -1.217,-2.655 -3.357,-2.441 -7.636,-2.825 -11.958,-2.782 -3.314,0.47 -6.671,0.685 -9.146,3.125 -0.419,0.556 -0.713,1.284 -0.546,1.969 0.252,0.942 1.05,1.756 1.93,1.969 0.335,-0.898 -0.67,-1.541 -0.293,-2.483 1.132,-2.397 3.986,-2.997 6.376,-3.554 3.903,-0.642 7.973,-0.085 11.33,1.328 0.796,0.514 1.803,1.285 2.013,2.27 0.126,0.771 -0.126,1.541 -0.588,2.097 l 0.042,0.385 0.043,0 0,0.086 C -1.217,1.498 -0.168,1.027 0,0"
             style="fill:#ffffff;fill-opacity:1;fill-rule:nonzero;stroke:none"
             id="path3692"
             inkscape:connector-curvature="0" /></g><g
           id="g3694"
           transform="translate(137.9072,117.8428)"><path
             d="m 0,0 c 0.126,-0.985 -0.336,-2.012 -1.217,-2.655 -3.357,-2.441 -7.636,-2.825 -11.958,-2.782 -3.314,0.47 -6.671,0.685 -9.146,3.125 -0.419,0.556 -0.713,1.284 -0.546,1.969 0.252,0.942 1.05,1.756 1.93,1.969 0.335,-0.898 -0.67,-1.541 -0.293,-2.483 1.132,-2.397 3.986,-2.997 6.376,-3.554 3.903,-0.642 7.973,-0.085 11.33,1.328 0.796,0.514 1.803,1.285 2.013,2.27 0.126,0.771 -0.126,1.541 -0.588,2.097 l 0.042,0.385 0.043,0 0,0.086 C -1.217,1.498 -0.168,1.027 0,0 Z"
             style="fill:none;stroke:#231f20;stroke-width:0.25;stroke-linecap:butt;stroke-linejoin:miter;stroke-miterlimit:4;stroke-dasharray:none;stroke-opacity:1"
             id="path3696"
             inkscape:connector-curvature="0" /></g><g
           id="g3698"
           transform="translate(147.1787,117.8003)"><path
             d="m 0,0 c 0.671,-1.328 0.126,-3.041 -0.713,-4.197 -3.86,-4.067 -9.356,-5.009 -14.684,-5.737 -8.225,-0.6 -16.658,-0.17 -23.329,3.768 -1.342,1.028 -2.811,2.312 -3.063,4.11 -0.084,1.071 0,2.141 0.713,2.955 -0.797,-2.013 -0.167,-4.024 1.427,-5.524 3.106,-2.869 7.175,-3.854 11.203,-4.667 8.475,-1.156 18.042,-0.984 25.133,3.383 1.845,1.327 3.439,3.254 3.062,5.651 C -0.419,0.213 -0.503,0.771 -0.755,1.198 -0.503,0.899 -0.167,0.513 0,0"
             style="fill:#ffffff;fill-opacity:1;fill-rule:nonzero;stroke:none"
             id="path3700"
             inkscape:connector-curvature="0" /></g><g
           id="g3702"
           transform="translate(147.1787,117.8003)"><path
             d="m 0,0 c 0.671,-1.328 0.126,-3.041 -0.713,-4.197 -3.86,-4.067 -9.356,-5.009 -14.684,-5.737 -8.225,-0.6 -16.658,-0.17 -23.329,3.768 -1.342,1.028 -2.811,2.312 -3.063,4.11 -0.084,1.071 0,2.141 0.713,2.955 -0.797,-2.013 -0.167,-4.024 1.427,-5.524 3.106,-2.869 7.175,-3.854 11.203,-4.667 8.475,-1.156 18.042,-0.984 25.133,3.383 1.845,1.327 3.439,3.254 3.062,5.651 C -0.419,0.213 -0.503,0.771 -0.755,1.198 -0.503,0.899 -0.167,0.513 0,0 Z"
             style="fill:none;stroke:#231f20;stroke-width:0.25;stroke-linecap:butt;stroke-linejoin:miter;stroke-miterlimit:4;stroke-dasharray:none;stroke-opacity:1"
             id="path3704"
             inkscape:connector-curvature="0" /></g><g
           id="g3706"
           transform="translate(135.8936,116.9434)"><path
             d="M 0,0 C -0.043,0 -0.085,-0.043 -0.085,-0.043 -0.085,0.128 -0.169,0.728 0,0.899 0.125,0.685 0.041,0.342 0,0"
             style="fill:#ffffff;fill-opacity:1;fill-rule:nonzero;stroke:none"
             id="path3708"
             inkscape:connector-curvature="0" /></g><g
           id="g3710"
           transform="translate(135.8936,116.9434)"><path
             d="M 0,0 C -0.043,0 -0.085,-0.043 -0.085,-0.043 -0.085,0.128 -0.169,0.728 0,0.899 0.125,0.685 0.041,0.342 0,0 Z"
             style="fill:none;stroke:#231f20;stroke-width:0.25;stroke-linecap:butt;stroke-linejoin:miter;stroke-miterlimit:4;stroke-dasharray:none;stroke-opacity:1"
             id="path3712"
             inkscape:connector-curvature="0" /></g><g
           id="g3714"
           transform="translate(135.8086,116.729)"><path
             d="M 0,0 C -0.21,-0.299 -0.377,-0.685 -0.671,-0.813 -0.545,-0.685 -0.377,-0.171 0,0"
             style="fill:#ffffff;fill-opacity:1;fill-rule:nonzero;stroke:none"
             id="path3716"
             inkscape:connector-curvature="0" /></g><g
           id="g3718"
           transform="translate(135.8086,116.729)"><path
             d="M 0,0 C -0.21,-0.299 -0.377,-0.685 -0.671,-0.813 -0.545,-0.685 -0.377,-0.171 0,0 Z"
             style="fill:none;stroke:#231f20;stroke-width:0.25;stroke-linecap:butt;stroke-linejoin:miter;stroke-miterlimit:4;stroke-dasharray:none;stroke-opacity:1"
             id="path3720"
             inkscape:connector-curvature="0" /></g><g
           id="g3722"
           transform="translate(115.25,113.9038)"><path
             d="m 0,0 c 0.462,-0.6 0.588,-1.414 0.504,-2.141 -2.014,0.385 -3.987,1.413 -5.581,2.997 L -5.455,1.37 c 1.049,0.685 2.728,0.685 3.777,0.085 C -1.049,1.113 -0.377,0.599 0,0"
             style="fill:#ffffff;fill-opacity:1;fill-rule:nonzero;stroke:none"
             id="path3724"
             inkscape:connector-curvature="0" /></g><g
           id="g3726"
           transform="translate(115.25,113.9038)"><path
             d="m 0,0 c 0.462,-0.6 0.588,-1.414 0.504,-2.141 -2.014,0.385 -3.987,1.413 -5.581,2.997 L -5.455,1.37 c 1.049,0.685 2.728,0.685 3.777,0.085 C -1.049,1.113 -0.377,0.599 0,0 Z"
             style="fill:none;stroke:#231f20;stroke-width:0.25;stroke-linecap:butt;stroke-linejoin:miter;stroke-miterlimit:4;stroke-dasharray:none;stroke-opacity:1"
             id="path3728"
             inkscape:connector-curvature="0" /></g><g
           id="g3730"
           transform="translate(142.6475,115.2739)"><path
             d="m 0,0 c -0.167,-0.729 -0.796,-1.028 -1.3,-1.584 -1.259,-0.943 -2.643,-1.584 -4.112,-2.056 -0.084,1.37 1.007,2.741 2.182,3.383 C -2.307,0.214 -1.007,0.384 0,0"
             style="fill:#ffffff;fill-opacity:1;fill-rule:nonzero;stroke:none"
             id="path3732"
             inkscape:connector-curvature="0" /></g><g
           id="g3734"
           transform="translate(142.6475,115.2739)"><path
             d="m 0,0 c -0.167,-0.729 -0.796,-1.028 -1.3,-1.584 -1.259,-0.943 -2.643,-1.584 -4.112,-2.056 -0.084,1.37 1.007,2.741 2.182,3.383 C -2.307,0.214 -1.007,0.384 0,0 Z"
             style="fill:none;stroke:#231f20;stroke-width:0.25;stroke-linecap:butt;stroke-linejoin:miter;stroke-miterlimit:4;stroke-dasharray:none;stroke-opacity:1"
             id="path3736"
             inkscape:connector-curvature="0" /></g><g
           id="g3738"
           transform="translate(105.9355,113.4756)"><path
             d="m 0,0 c 3.65,-4.025 8.979,-5.095 14.14,-5.952 8.307,-0.899 16.993,-0.385 23.915,3.34 1.384,0.985 2.769,2.098 3.566,3.511 -0.294,-2.869 1.091,-6.893 -1.343,-9.206 -4.405,-4.966 -11.37,-6.079 -18.083,-6.55 -6.881,-0.172 -13.341,0.941 -18.839,4.367 -2.769,1.798 -4.573,4.881 -4.112,8.349 l 0,3.168 C -0.42,0.855 -0.294,0.342 0,0"
             style="fill:#ffffff;fill-opacity:1;fill-rule:nonzero;stroke:none"
             id="path3740"
             inkscape:connector-curvature="0" /></g><g
           id="g3742"
           transform="translate(105.9355,113.4756)"><path
             d="m 0,0 c 3.65,-4.025 8.979,-5.095 14.14,-5.952 8.307,-0.899 16.993,-0.385 23.915,3.34 1.384,0.985 2.769,2.098 3.566,3.511 -0.294,-2.869 1.091,-6.893 -1.343,-9.206 -4.405,-4.966 -11.37,-6.079 -18.083,-6.55 -6.881,-0.172 -13.341,0.941 -18.839,4.367 -2.769,1.798 -4.573,4.881 -4.112,8.349 l 0,3.168 C -0.42,0.855 -0.294,0.342 0,0 Z"
             style="fill:none;stroke:#231f20;stroke-width:0.25;stroke-linecap:butt;stroke-linejoin:miter;stroke-miterlimit:4;stroke-dasharray:none;stroke-opacity:1"
             id="path3744"
             inkscape:connector-curvature="0" /></g><g
           id="g3746"
           transform="translate(137.1094,113.9463)"><path
             d="m 0,0 c -0.293,-0.813 -0.671,-1.583 -0.671,-2.569 -0.461,-0.128 -0.965,-0.3 -1.469,-0.257 -0.462,0.514 -1.09,0.771 -1.552,1.157 1.258,0.47 2.476,1.07 3.692,1.669"
             style="fill:#ffffff;fill-opacity:1;fill-rule:nonzero;stroke:none"
             id="path3748"
             inkscape:connector-curvature="0" /></g><g
           id="g3750"
           transform="translate(137.1094,113.9463)"><path
             d="m 0,0 c -0.293,-0.813 -0.671,-1.583 -0.671,-2.569 -0.461,-0.128 -0.965,-0.3 -1.469,-0.257 -0.462,0.514 -1.09,0.771 -1.552,1.157 1.258,0.47 2.476,1.07 3.692,1.669 z"
             style="fill:none;stroke:#231f20;stroke-width:0.25;stroke-linecap:butt;stroke-linejoin:miter;stroke-miterlimit:4;stroke-dasharray:none;stroke-opacity:1"
             id="path3752"
             inkscape:connector-curvature="0" /></g><g
           id="g3754"
           transform="translate(120.4531,112.5757)"><path
             d="M 0,0 C -1.091,-0.17 -2.434,0.558 -3.398,1.114 L -3.692,1.285 C -2.518,0.728 -1.301,0.343 0,0"
             style="fill:#ffffff;fill-opacity:1;fill-rule:nonzero;stroke:none"
             id="path3756"
             inkscape:connector-curvature="0" /></g><g
           id="g3758"
           transform="translate(120.4531,112.5757)"><path
             d="M 0,0 C -1.091,-0.17 -2.434,0.558 -3.398,1.114 L -3.692,1.285 C -2.518,0.728 -1.301,0.343 0,0 Z"
             style="fill:none;stroke:#231f20;stroke-width:0.25;stroke-linecap:butt;stroke-linejoin:miter;stroke-miterlimit:4;stroke-dasharray:none;stroke-opacity:1"
             id="path3760"
             inkscape:connector-curvature="0" /></g><g
           id="g3762"
           transform="translate(118.8164,112.2769)"><path
             d="M 0,0 C -0.587,-0.343 -1.216,-0.557 -1.762,-0.985 L -2.098,-0.899 -2.14,0.856 C -1.384,0.685 -0.713,0.257 0,0"
             style="fill:#ffffff;fill-opacity:1;fill-rule:nonzero;stroke:none"
             id="path3764"
             inkscape:connector-curvature="0" /></g><g
           id="g3766"
           transform="translate(118.8164,112.2769)"><path
             d="M 0,0 C -0.587,-0.343 -1.216,-0.557 -1.762,-0.985 L -2.098,-0.899 -2.14,0.856 C -1.384,0.685 -0.713,0.257 0,0 Z"
             style="fill:none;stroke:#231f20;stroke-width:0.25;stroke-linecap:butt;stroke-linejoin:miter;stroke-miterlimit:4;stroke-dasharray:none;stroke-opacity:1"
             id="path3768"
             inkscape:connector-curvature="0" /></g><g
           id="g3770"
           transform="translate(128.5928,111.9766)"><path
             d="m 0,0 c -0.588,-0.171 -1.385,-0.128 -1.931,-0.256 -0.042,-0.215 0.126,-0.301 0.21,-0.429 l 0.756,0 c -0.168,-0.428 -0.63,-0.771 -0.882,-1.241 l -1.509,0.042 c -0.252,0.386 -0.546,0.685 -0.84,1.028 0.504,0.342 1.3,-0.214 1.762,0.257 l -0.084,0.214 c -0.964,0.257 -2.098,-0.086 -2.937,0.47 L -5.37,0.129 C -3.65,-0.085 -1.805,-0.128 0,0"
             style="fill:#ffffff;fill-opacity:1;fill-rule:nonzero;stroke:none"
             id="path3772"
             inkscape:connector-curvature="0" /></g><g
           id="g3774"
           transform="translate(128.5928,111.9766)"><path
             d="m 0,0 c -0.588,-0.171 -1.385,-0.128 -1.931,-0.256 -0.042,-0.215 0.126,-0.301 0.21,-0.429 l 0.756,0 c -0.168,-0.428 -0.63,-0.771 -0.882,-1.241 l -1.509,0.042 c -0.252,0.386 -0.546,0.685 -0.84,1.028 0.504,0.342 1.3,-0.214 1.762,0.257 l -0.084,0.214 c -0.964,0.257 -2.098,-0.086 -2.937,0.47 L -5.37,0.129 C -3.65,-0.085 -1.805,-0.128 0,0 Z"
             style="fill:none;stroke:#231f20;stroke-width:0.25;stroke-linecap:butt;stroke-linejoin:miter;stroke-miterlimit:4;stroke-dasharray:none;stroke-opacity:1"
             id="path3776"
             inkscape:connector-curvature="0" /></g><g
           id="g3778"
           transform="translate(133.7949,110.8208)"><path
             d="m 0,0 c -1.762,-0.514 -3.649,-0.557 -5.538,-0.643 0.923,1.2 2.601,1.542 4.153,1.285 C -0.881,0.471 -0.378,0.3 0,0"
             style="fill:#ffffff;fill-opacity:1;fill-rule:nonzero;stroke:none"
             id="path3780"
             inkscape:connector-curvature="0" /></g><g
           id="g3782"
           transform="translate(133.7949,110.8208)"><path
             d="m 0,0 c -1.762,-0.514 -3.649,-0.557 -5.538,-0.643 0.923,1.2 2.601,1.542 4.153,1.285 C -0.881,0.471 -0.378,0.3 0,0 Z"
             style="fill:none;stroke:#231f20;stroke-width:0.25;stroke-linecap:butt;stroke-linejoin:miter;stroke-miterlimit:4;stroke-dasharray:none;stroke-opacity:1"
             id="path3784"
             inkscape:connector-curvature="0" /></g><g
           id="g3786"
           transform="translate(123.3066,110.521)"><path
             d="M 0,0 -0.043,-0.042 C 0,-0.128 0.125,-0.086 0.209,-0.214 -1.427,-0.257 -3.021,0 -4.531,0.343 -4.574,0.6 -4.154,0.728 -3.944,0.813 -2.561,1.199 -1.05,0.899 0,0"
             style="fill:#ffffff;fill-opacity:1;fill-rule:nonzero;stroke:none"
             id="path3788"
             inkscape:connector-curvature="0" /></g><g
           id="g3790"
           transform="translate(123.3066,110.521)"><path
             d="M 0,0 -0.043,-0.042 C 0,-0.128 0.125,-0.086 0.209,-0.214 -1.427,-0.257 -3.021,0 -4.531,0.343 -4.574,0.6 -4.154,0.728 -3.944,0.813 -2.561,1.199 -1.05,0.899 0,0 Z"
             style="fill:none;stroke:#231f20;stroke-width:0.25;stroke-linecap:butt;stroke-linejoin:miter;stroke-miterlimit:4;stroke-dasharray:none;stroke-opacity:1"
             id="path3792"
             inkscape:connector-curvature="0" /></g><g
           id="g3794"
           transform="translate(113.5718,87.957)"><path
             d="m 0,0 -0.042,-1.884 c -0.251,0.429 -0.083,1.028 -0.126,1.541 0,0.171 -0.084,0.6 0.043,0.772 C 0.084,0.386 -0.125,0.129 0,0"
             style="fill:#ffffff;fill-opacity:1;fill-rule:nonzero;stroke:none"
             id="path3796"
             inkscape:connector-curvature="0" /></g><g
           id="g3798"
           transform="translate(113.5718,87.957)"><path
             d="m 0,0 -0.042,-1.884 c -0.251,0.429 -0.083,1.028 -0.126,1.541 0,0.171 -0.084,0.6 0.043,0.772 C 0.084,0.386 -0.125,0.129 0,0 Z"
             style="fill:none;stroke:#231f20;stroke-width:0.25;stroke-linecap:butt;stroke-linejoin:miter;stroke-miterlimit:4;stroke-dasharray:none;stroke-opacity:1"
             id="path3800"
             inkscape:connector-curvature="0" /></g><g
           id="g3802"
           transform="translate(114.4951,84.4893)"><path
             d="M 0,0 C -0.126,-0.086 0.042,0.258 0,0.343 L -0.042,3.083 0.042,3.125 0.042,0 0,0 Z"
             style="fill:#ffffff;fill-opacity:1;fill-rule:nonzero;stroke:none"
             id="path3804"
             inkscape:connector-curvature="0" /></g><g
           id="g3806"
           transform="translate(114.4951,84.4893)"><path
             d="M 0,0 C -0.126,-0.086 0.042,0.258 0,0.343 L -0.042,3.083 0.042,3.125 0.042,0 0,0 Z"
             style="fill:none;stroke:#231f20;stroke-width:0.25;stroke-linecap:butt;stroke-linejoin:miter;stroke-miterlimit:4;stroke-dasharray:none;stroke-opacity:1"
             id="path3808"
             inkscape:connector-curvature="0" /></g><g
           id="g3810"
           transform="translate(116.5928,86.2021)"><path
             d="m 0,0 0.084,-2.998 c -0.503,0.043 -1.049,0 -1.468,0.258 -0.294,1.156 -0.127,2.482 -0.169,3.724 C -0.965,0.771 -0.462,0.47 0,0"
             style="fill:#ffffff;fill-opacity:1;fill-rule:nonzero;stroke:none"
             id="path3812"
             inkscape:connector-curvature="0" /></g><g
           id="g3814"
           transform="translate(116.5928,86.2021)"><path
             d="m 0,0 0.084,-2.998 c -0.503,0.043 -1.049,0 -1.468,0.258 -0.294,1.156 -0.127,2.482 -0.169,3.724 C -0.965,0.771 -0.462,0.47 0,0 Z"
             style="fill:none;stroke:#231f20;stroke-width:0.25;stroke-linecap:butt;stroke-linejoin:miter;stroke-miterlimit:4;stroke-dasharray:none;stroke-opacity:1"
             id="path3816"
             inkscape:connector-curvature="0" /></g><path
           d="m 117.684,85.26 0.042,0 0,-0.428 -0.042,0 0,0.428 z"
           style="fill:#ffffff;fill-opacity:1;fill-rule:nonzero;stroke:#231f20;stroke-width:0.25;stroke-linecap:butt;stroke-linejoin:miter;stroke-miterlimit:4;stroke-dasharray:none;stroke-opacity:1"
           id="path3818"
           inkscape:connector-curvature="0" /><g
           id="g3820"
           transform="translate(120.5791,83.5049)"><path
             d="M 0,0 0,-1.756 C -0.84,-1.799 -1.427,-2.611 -2.308,-2.355 -2.476,-1.156 -2.392,0.214 -2.392,1.541 -1.511,1.242 -0.756,0.557 0,0"
             style="fill:#ffffff;fill-opacity:1;fill-rule:nonzero;stroke:none"
             id="path3822"
             inkscape:connector-curvature="0" /></g><g
           id="g3824"
           transform="translate(120.5791,83.5049)"><path
             d="M 0,0 0,-1.756 C -0.84,-1.799 -1.427,-2.611 -2.308,-2.355 -2.476,-1.156 -2.392,0.214 -2.392,1.541 -1.511,1.242 -0.756,0.557 0,0 Z"
             style="fill:none;stroke:#231f20;stroke-width:0.25;stroke-linecap:butt;stroke-linejoin:miter;stroke-miterlimit:4;stroke-dasharray:none;stroke-opacity:1"
             id="path3826"
             inkscape:connector-curvature="0" /></g><g
           id="g3828"
           transform="translate(117.6836,82.7764)"><path
             d="M 0,0 -0.083,1.971 0,0.172 0,0 Z"
             style="fill:#ffffff;fill-opacity:1;fill-rule:nonzero;stroke:none"
             id="path3830"
             inkscape:connector-curvature="0" /></g><g
           id="g3832"
           transform="translate(117.6836,82.7764)"><path
             d="M 0,0 -0.083,1.971 0,0.172 0,0 Z"
             style="fill:none;stroke:#231f20;stroke-width:0.25;stroke-linecap:butt;stroke-linejoin:miter;stroke-miterlimit:4;stroke-dasharray:none;stroke-opacity:1"
             id="path3834"
             inkscape:connector-curvature="0" /></g><g
           id="g3836"
           transform="translate(121.334,82.1768)"><path
             d="m 0,0 c -0.041,-0.127 -0.168,-0.043 -0.252,-0.086 l 0,1.029 C 0.251,0.857 0,0.342 0,0"
             style="fill:#ffffff;fill-opacity:1;fill-rule:nonzero;stroke:none"
             id="path3838"
             inkscape:connector-curvature="0" /></g><g
           id="g3840"
           transform="translate(121.334,82.1768)"><path
             d="m 0,0 c -0.041,-0.127 -0.168,-0.043 -0.252,-0.086 l 0,1.029 C 0.251,0.857 0,0.342 0,0 Z"
             style="fill:none;stroke:#231f20;stroke-width:0.25;stroke-linecap:butt;stroke-linejoin:miter;stroke-miterlimit:4;stroke-dasharray:none;stroke-opacity:1"
             id="path3842"
             inkscape:connector-curvature="0" /></g><g
           id="g3844"
           transform="translate(122.8027,80.3779)"><path
             d="M 0,0 -0.252,0.043 -0.294,1.629 0,1.586 0,0 Z"
             style="fill:#ffffff;fill-opacity:1;fill-rule:nonzero;stroke:none"
             id="path3846"
             inkscape:connector-curvature="0" /></g><g
           id="g3848"
           transform="translate(122.8027,80.3779)"><path
             d="M 0,0 -0.252,0.043 -0.294,1.629 0,1.586 0,0 Z"
             style="fill:none;stroke:#231f20;stroke-width:0.25;stroke-linecap:butt;stroke-linejoin:miter;stroke-miterlimit:4;stroke-dasharray:none;stroke-opacity:1"
             id="path3850"
             inkscape:connector-curvature="0" /></g><g
           id="g3852"
           transform="translate(124.2705,80.9775)"><path
             d="m 0,0 c -0.294,-0.127 -0.546,-0.342 -0.88,-0.471 0.041,0.344 -0.084,0.815 0.125,1.028 C -0.503,0.43 -0.251,0.172 0,0"
             style="fill:#ffffff;fill-opacity:1;fill-rule:nonzero;stroke:none"
             id="path3854"
             inkscape:connector-curvature="0" /></g><g
           id="g3856"
           transform="translate(124.2705,80.9775)"><path
             d="m 0,0 c -0.294,-0.127 -0.546,-0.342 -0.88,-0.471 0.041,0.344 -0.084,0.815 0.125,1.028 C -0.503,0.43 -0.251,0.172 0,0 Z"
             style="fill:none;stroke:#231f20;stroke-width:0.25;stroke-linecap:butt;stroke-linejoin:miter;stroke-miterlimit:4;stroke-dasharray:none;stroke-opacity:1"
             id="path3858"
             inkscape:connector-curvature="0" /></g><g
           id="g3860"
           transform="translate(121.46,79.9072)"><path
             d="M 0,0 C 0.588,-0.514 1.427,-0.598 2.181,-0.514 L 3.776,0.387 C 3.944,0.301 4.153,0.215 4.321,0.043 4.363,-0.299 4.111,-1.027 4.699,-0.898 L 5.874,-0.984 9.608,-3.553 C 9.355,-4.408 8.937,-5.18 8.601,-5.951 l 0,-1.883 C 7.93,-8.135 7.133,-8.049 6.462,-8.262 6.294,-7.107 6.923,-5.564 5.454,-4.838 L 3.86,-3.297 2.056,-3.125 C 1.343,-3.553 0.63,-4.365 0.042,-5.094 0,-6.078 -0.084,-6.807 -0.084,-7.834 c -0.63,0.043 -1.175,0.299 -1.762,0.6 l 0,3.638 c -0.084,0.514 -0.587,0.856 -0.672,1.369 -0.503,0.129 -1.174,1.372 -1.467,0.301 -0.169,0.514 -0.169,1.285 0,2.012 0.209,0.514 0.671,-0.086 1.089,0.129 0.672,0.086 1.385,0.086 1.973,0.428 0.252,-0.299 0.545,0.343 0.839,0.128 L 0,0 Z"
             style="fill:#ffffff;fill-opacity:1;fill-rule:nonzero;stroke:none"
             id="path3862"
             inkscape:connector-curvature="0" /></g><g
           id="g3864"
           transform="translate(121.46,79.9072)"><path
             d="M 0,0 C 0.588,-0.514 1.427,-0.598 2.181,-0.514 L 3.776,0.387 C 3.944,0.301 4.153,0.215 4.321,0.043 4.363,-0.299 4.111,-1.027 4.699,-0.898 L 5.874,-0.984 9.608,-3.553 C 9.355,-4.408 8.937,-5.18 8.601,-5.951 l 0,-1.883 C 7.93,-8.135 7.133,-8.049 6.462,-8.262 6.294,-7.107 6.923,-5.564 5.454,-4.838 L 3.86,-3.297 2.056,-3.125 C 1.343,-3.553 0.63,-4.365 0.042,-5.094 0,-6.078 -0.084,-6.807 -0.084,-7.834 c -0.63,0.043 -1.175,0.299 -1.762,0.6 l 0,3.638 c -0.084,0.514 -0.587,0.856 -0.672,1.369 -0.503,0.129 -1.174,1.372 -1.467,0.301 -0.169,0.514 -0.169,1.285 0,2.012 0.209,0.514 0.671,-0.086 1.089,0.129 0.672,0.086 1.385,0.086 1.973,0.428 0.252,-0.299 0.545,0.343 0.839,0.128 L 0,0 Z"
             style="fill:none;stroke:#231f20;stroke-width:0.25;stroke-linecap:butt;stroke-linejoin:miter;stroke-miterlimit:4;stroke-dasharray:none;stroke-opacity:1"
             id="path3866"
             inkscape:connector-curvature="0" /></g><g
           id="g3868"
           transform="translate(118.7754,76.0127)"><path
             d="M 0,0 0.041,-30.785 0,-47.355 c 0.125,-1.456 -0.043,-3.125 -0.043,-4.752 -0.587,0.043 -0.923,0.814 -1.049,1.328 0.042,3.982 -0.126,8.947 -0.083,12.8 l -0.084,16.014 C -1.427,-13.787 -1.343,-7.537 -1.343,0.641 -0.84,2.055 -0.379,0.299 0,0"
             style="fill:#ffffff;fill-opacity:1;fill-rule:nonzero;stroke:none"
             id="path3870"
             inkscape:connector-curvature="0" /></g><g
           id="g3872"
           transform="translate(118.7754,76.0127)"><path
             d="M 0,0 0.041,-30.785 0,-47.355 c 0.125,-1.456 -0.043,-3.125 -0.043,-4.752 -0.587,0.043 -0.923,0.814 -1.049,1.328 0.042,3.982 -0.126,8.947 -0.083,12.8 l -0.084,16.014 C -1.427,-13.787 -1.343,-7.537 -1.343,0.641 -0.84,2.055 -0.379,0.299 0,0 Z"
             style="fill:none;stroke:#231f20;stroke-width:0.25;stroke-linecap:butt;stroke-linejoin:miter;stroke-miterlimit:4;stroke-dasharray:none;stroke-opacity:1"
             id="path3874"
             inkscape:connector-curvature="0" /></g><g
           id="g3876"
           transform="translate(123.3066,75.9268)"><path
             d="m 0,0 c -0.211,-0.6 -0.966,-0.986 -1.259,-1.584 0.126,-0.814 0.042,-1.5 0.042,-2.355 0.042,0.212 -0.169,0.171 -0.253,0.3 -0.125,0.643 0.043,1.455 -0.125,2.098 l 1.511,1.627 C -0.084,0.041 -0.043,0 0,0"
             style="fill:#ffffff;fill-opacity:1;fill-rule:nonzero;stroke:none"
             id="path3878"
             inkscape:connector-curvature="0" /></g><g
           id="g3880"
           transform="translate(123.3066,75.9268)"><path
             d="m 0,0 c -0.211,-0.6 -0.966,-0.986 -1.259,-1.584 0.126,-0.814 0.042,-1.5 0.042,-2.355 0.042,0.212 -0.169,0.171 -0.253,0.3 -0.125,0.643 0.043,1.455 -0.125,2.098 l 1.511,1.627 C -0.084,0.041 -0.043,0 0,0 Z"
             style="fill:none;stroke:#231f20;stroke-width:0.25;stroke-linecap:butt;stroke-linejoin:miter;stroke-miterlimit:4;stroke-dasharray:none;stroke-opacity:1"
             id="path3882"
             inkscape:connector-curvature="0" /></g><g
           id="g3884"
           transform="translate(126.7881,74.1279)"><path
             d="M 0,0 0.126,-0.771 0.042,-33.053 -0.126,-52.662 c -1.217,-0.215 -2.686,0 -3.901,0.213 l -0.126,0.172 -0.126,52.449 C -3.817,0.77 -3.188,1.285 -2.685,1.713 -1.384,2.055 -0.797,0.6 0,0"
             style="fill:#ffffff;fill-opacity:1;fill-rule:nonzero;stroke:none"
             id="path3886"
             inkscape:connector-curvature="0" /></g><g
           id="g3888"
           transform="translate(126.7881,74.1279)"><path
             d="M 0,0 0.126,-0.771 0.042,-33.053 -0.126,-52.662 c -1.217,-0.215 -2.686,0 -3.901,0.213 l -0.126,0.172 -0.126,52.449 C -3.817,0.77 -3.188,1.285 -2.685,1.713 -1.384,2.055 -0.797,0.6 0,0 Z"
             style="fill:none;stroke:#231f20;stroke-width:0.25;stroke-linecap:butt;stroke-linejoin:miter;stroke-miterlimit:4;stroke-dasharray:none;stroke-opacity:1"
             id="path3890"
             inkscape:connector-curvature="0" /></g><g
           id="g3892"
           transform="translate(132.6621,75.1553)"><path
             d="m 0,0 c -0.042,-12.074 -0.252,-24.191 -0.377,-35.793 l -0.126,-0.514 -0.042,-11.004 -0.084,-0.47 c 0.084,-1.627 0,-3.168 -0.127,-4.709 -0.335,-0.086 -0.713,-0.43 -1.132,-0.43 l 0.041,19.139 0.085,15.285 c 0,6.08 0,11.133 0.21,16.783 -0.168,0.772 0.419,1.541 0.755,2.184 C -0.503,0.428 -0.252,0.215 0,0"
             style="fill:#ffffff;fill-opacity:1;fill-rule:nonzero;stroke:none"
             id="path3894"
             inkscape:connector-curvature="0" /></g><g
           id="g3896"
           transform="translate(132.6621,75.1553)"><path
             d="m 0,0 c -0.042,-12.074 -0.252,-24.191 -0.377,-35.793 l -0.126,-0.514 -0.042,-11.004 -0.084,-0.47 c 0.084,-1.627 0,-3.168 -0.127,-4.709 -0.335,-0.086 -0.713,-0.43 -1.132,-0.43 l 0.041,19.139 0.085,15.285 c 0,6.08 0,11.133 0.21,16.783 -0.168,0.772 0.419,1.541 0.755,2.184 C -0.503,0.428 -0.252,0.215 0,0 Z"
             style="fill:none;stroke:#231f20;stroke-width:0.25;stroke-linecap:butt;stroke-linejoin:miter;stroke-miterlimit:4;stroke-dasharray:none;stroke-opacity:1"
             id="path3898"
             inkscape:connector-curvature="0" /></g><g
           id="g3900"
           transform="translate(133.376,74.085)"><path
             d="m 0,0 -0.043,-1.412 c -0.125,-0.086 -0.252,0.043 -0.252,0.17 L -0.21,0.643 C 0.041,0.6 -0.126,0.172 0,0"
             style="fill:#ffffff;fill-opacity:1;fill-rule:nonzero;stroke:none"
             id="path3902"
             inkscape:connector-curvature="0" /></g><g
           id="g3904"
           transform="translate(133.376,74.085)"><path
             d="m 0,0 -0.043,-1.412 c -0.125,-0.086 -0.252,0.043 -0.252,0.17 L -0.21,0.643 C 0.041,0.6 -0.126,0.172 0,0 Z"
             style="fill:none;stroke:#231f20;stroke-width:0.25;stroke-linecap:butt;stroke-linejoin:miter;stroke-miterlimit:4;stroke-dasharray:none;stroke-opacity:1"
             id="path3906"
             inkscape:connector-curvature="0" /></g><g
           id="g3908"
           transform="translate(135.0537,73.4424)"><path
             d="m 0,0 c -0.42,-0.342 -0.839,-0.6 -1.259,-0.77 l 0.042,1.584 C -0.755,0.686 -0.335,0.344 0,0"
             style="fill:#ffffff;fill-opacity:1;fill-rule:nonzero;stroke:none"
             id="path3910"
             inkscape:connector-curvature="0" /></g><g
           id="g3912"
           transform="translate(135.0537,73.4424)"><path
             d="m 0,0 c -0.42,-0.342 -0.839,-0.6 -1.259,-0.77 l 0.042,1.584 C -0.755,0.686 -0.335,0.344 0,0 Z"
             style="fill:none;stroke:#231f20;stroke-width:0.25;stroke-linecap:butt;stroke-linejoin:miter;stroke-miterlimit:4;stroke-dasharray:none;stroke-opacity:1"
             id="path3914"
             inkscape:connector-curvature="0" /></g><path
           d="m 127.418,73.101 0.084,0 0,-1.541 -0.084,0 0,1.541 z"
           style="fill:#ffffff;fill-opacity:1;fill-rule:nonzero;stroke:#231f20;stroke-width:0.25;stroke-linecap:butt;stroke-linejoin:miter;stroke-miterlimit:4;stroke-dasharray:none;stroke-opacity:1"
           id="path3916"
           inkscape:connector-curvature="0" /><g
           id="g3918"
           transform="translate(135.1377,71.5166)"><path
             d="m 0,0 c -0.084,-10.232 -0.126,-20.467 -0.251,-30.699 -0.379,-0.6 -0.882,-0.985 -1.47,-1.242 l 0,7.494 0.378,24.49 C -0.881,-0.043 0.21,1.369 0,0"
             style="fill:#ffffff;fill-opacity:1;fill-rule:nonzero;stroke:none"
             id="path3920"
             inkscape:connector-curvature="0" /></g><g
           id="g3922"
           transform="translate(135.1377,71.5166)"><path
             d="m 0,0 c -0.084,-10.232 -0.126,-20.467 -0.251,-30.699 -0.379,-0.6 -0.882,-0.985 -1.47,-1.242 l 0,7.494 0.378,24.49 C -0.881,-0.043 0.21,1.369 0,0 Z"
             style="fill:none;stroke:#231f20;stroke-width:0.25;stroke-linecap:butt;stroke-linejoin:miter;stroke-miterlimit:4;stroke-dasharray:none;stroke-opacity:1"
             id="path3924"
             inkscape:connector-curvature="0" /></g><g
           id="g3926"
           transform="translate(133.292,62.1396)"><path
             d="m 0,0 -0.252,-21.408 -0.126,-1.455 -0.252,0.043 0,5.179 L -0.168,9.42 0,9.42 0,0 Z"
             style="fill:#ffffff;fill-opacity:1;fill-rule:nonzero;stroke:none"
             id="path3928"
             inkscape:connector-curvature="0" /></g><g
           id="g3930"
           transform="translate(133.292,62.1396)"><path
             d="m 0,0 -0.252,-21.408 -0.126,-1.455 -0.252,0.043 0,5.179 L -0.168,9.42 0,9.42 0,0 Z"
             style="fill:none;stroke:#231f20;stroke-width:0.25;stroke-linecap:butt;stroke-linejoin:miter;stroke-miterlimit:4;stroke-dasharray:none;stroke-opacity:1"
             id="path3932"
             inkscape:connector-curvature="0" /></g><g
           id="g3934"
           transform="translate(122.2158,38.8486)"><path
             d="M 0,0 C -0.588,-0.043 -0.168,0.727 -0.379,0.855 L -0.42,25.902 c 0.041,2.184 -0.084,4.41 0.084,6.637 l 0.21,0.129 L 0,19.738 0,0 Z"
             style="fill:#ffffff;fill-opacity:1;fill-rule:nonzero;stroke:none"
             id="path3936"
             inkscape:connector-curvature="0" /></g><g
           id="g3938"
           transform="translate(122.2158,38.8486)"><path
             d="M 0,0 C -0.588,-0.043 -0.168,0.727 -0.379,0.855 L -0.42,25.902 c 0.041,2.184 -0.084,4.41 0.084,6.637 l 0.21,0.129 L 0,19.738 0,0 Z"
             style="fill:none;stroke:#231f20;stroke-width:0.25;stroke-linecap:butt;stroke-linejoin:miter;stroke-miterlimit:4;stroke-dasharray:none;stroke-opacity:1"
             id="path3940"
             inkscape:connector-curvature="0" /></g><g
           id="g3942"
           transform="translate(121.376,70.874)"><path
             d="m 0,0 0.126,-23.506 -0.042,-8.605 c -0.63,0 -1.217,0.341 -1.763,0.599 L -1.762,-10.961 -1.679,0.428 -0.083,0.17 0,0 Z"
             style="fill:#ffffff;fill-opacity:1;fill-rule:nonzero;stroke:none"
             id="path3944"
             inkscape:connector-curvature="0" /></g><g
           id="g3946"
           transform="translate(121.376,70.874)"><path
             d="m 0,0 0.126,-23.506 -0.042,-8.605 c -0.63,0 -1.217,0.341 -1.763,0.599 L -1.762,-10.961 -1.679,0.428 -0.083,0.17 0,0 Z"
             style="fill:none;stroke:#231f20;stroke-width:0.25;stroke-linecap:butt;stroke-linejoin:miter;stroke-miterlimit:4;stroke-dasharray:none;stroke-opacity:1"
             id="path3948"
             inkscape:connector-curvature="0" /></g><g
           id="g3950"
           transform="translate(130.0605,47.1553)"><path
             d="m 0,0 -0.125,-8.822 c -0.546,-0.299 -1.343,-0.041 -1.889,-0.428 -0.168,0.045 -0.209,0.258 -0.252,0.387 l 0.127,32.496 C -1.426,23.762 -0.755,24.02 0,24.061 L 0,0 Z"
             style="fill:#ffffff;fill-opacity:1;fill-rule:nonzero;stroke:none"
             id="path3952"
             inkscape:connector-curvature="0" /></g><g
           id="g3954"
           transform="translate(130.0605,47.1553)"><path
             d="m 0,0 -0.125,-8.822 c -0.546,-0.299 -1.343,-0.041 -1.889,-0.428 -0.168,0.045 -0.209,0.258 -0.252,0.387 l 0.127,32.496 C -1.426,23.762 -0.755,24.02 0,24.061 L 0,0 Z"
             style="fill:none;stroke:#231f20;stroke-width:0.25;stroke-linecap:butt;stroke-linejoin:miter;stroke-miterlimit:4;stroke-dasharray:none;stroke-opacity:1"
             id="path3956"
             inkscape:connector-curvature="0" /></g><g
           id="g3958"
           transform="translate(127.418,38.292)"><path
             d="m 0,0 -0.168,0.041 0,8.223 0.084,22.392 L 0,32.668 0.126,29.07 0,0 Z"
             style="fill:#ffffff;fill-opacity:1;fill-rule:nonzero;stroke:none"
             id="path3960"
             inkscape:connector-curvature="0" /></g><g
           id="g3962"
           transform="translate(127.418,38.292)"><path
             d="m 0,0 -0.168,0.041 0,8.223 0.084,22.392 L 0,32.668 0.126,29.07 0,0 Z"
             style="fill:none;stroke:#231f20;stroke-width:0.25;stroke-linecap:butt;stroke-linejoin:miter;stroke-miterlimit:4;stroke-dasharray:none;stroke-opacity:1"
             id="path3964"
             inkscape:connector-curvature="0" /></g><g
           id="g3966"
           transform="translate(134.6758,25.1475)"><path
             d="m 0,0 c -0.125,-0.771 -0.713,-1.498 -1.384,-1.928 -0.042,5.139 0,9.719 0.125,15.158 0.504,0.342 1.007,0.598 1.386,1.028 C 0.211,9.934 0.127,4.709 0,0"
             style="fill:#ffffff;fill-opacity:1;fill-rule:nonzero;stroke:none"
             id="path3968"
             inkscape:connector-curvature="0" /></g><g
           id="g3970"
           transform="translate(134.6758,25.1475)"><path
             d="m 0,0 c -0.125,-0.771 -0.713,-1.498 -1.384,-1.928 -0.042,5.139 0,9.719 0.125,15.158 0.504,0.342 1.007,0.598 1.386,1.028 C 0.211,9.934 0.127,4.709 0,0 Z"
             style="fill:none;stroke:#231f20;stroke-width:0.25;stroke-linecap:butt;stroke-linejoin:miter;stroke-miterlimit:4;stroke-dasharray:none;stroke-opacity:1"
             id="path3972"
             inkscape:connector-curvature="0" /></g><g
           id="g3974"
           transform="translate(132.9141,38.249)"><path
             d="m 0,0 c 0.042,-4.881 0,-10.447 -0.126,-15.328 l -0.21,-0.215 -0.125,0.215 c 0,5.053 0,10.703 0.209,15.498 C -0.084,0.215 -0.041,0.129 0,0"
             style="fill:#ffffff;fill-opacity:1;fill-rule:nonzero;stroke:none"
             id="path3976"
             inkscape:connector-curvature="0" /></g><g
           id="g3978"
           transform="translate(132.9141,38.249)"><path
             d="m 0,0 c 0.042,-4.881 0,-10.447 -0.126,-15.328 l -0.21,-0.215 -0.125,0.215 c 0,5.053 0,10.703 0.209,15.498 C -0.084,0.215 -0.041,0.129 0,0 Z"
             style="fill:none;stroke:#231f20;stroke-width:0.25;stroke-linecap:butt;stroke-linejoin:miter;stroke-miterlimit:4;stroke-dasharray:none;stroke-opacity:1"
             id="path3980"
             inkscape:connector-curvature="0" /></g><g
           id="g3982"
           transform="translate(122.1318,21.7217)"><path
             d="m 0,0 c 0,0 -0.042,-0.043 -0.084,-0.043 l -0.084,0.129 c -0.084,5.695 -0.127,11.131 0.041,16.441 L 0,16.611 C 0.167,11.047 0.167,5.309 0,0"
             style="fill:#ffffff;fill-opacity:1;fill-rule:nonzero;stroke:none"
             id="path3984"
             inkscape:connector-curvature="0" /></g><g
           id="g3986"
           transform="translate(122.1318,21.7217)"><path
             d="m 0,0 c 0,0 -0.042,-0.043 -0.084,-0.043 l -0.084,0.129 c -0.084,5.695 -0.127,11.131 0.041,16.441 L 0,16.611 C 0.167,11.047 0.167,5.309 0,0 Z"
             style="fill:none;stroke:#231f20;stroke-width:0.25;stroke-linecap:butt;stroke-linejoin:miter;stroke-miterlimit:4;stroke-dasharray:none;stroke-opacity:1"
             id="path3988"
             inkscape:connector-curvature="0" /></g><g
           id="g3990"
           transform="translate(121.46,37.6494)"><path
             d="m 0,0 c 0.042,-5.223 0.042,-10.66 0,-15.67 -0.671,-0.043 -1.217,0.471 -1.763,0.727 -0.083,5.351 -0.083,10.062 0,15.414 L -1.678,0.514 0,0 Z"
             style="fill:#ffffff;fill-opacity:1;fill-rule:nonzero;stroke:none"
             id="path3992"
             inkscape:connector-curvature="0" /></g><g
           id="g3994"
           transform="translate(121.46,37.6494)"><path
             d="m 0,0 c 0.042,-5.223 0.042,-10.66 0,-15.67 -0.671,-0.043 -1.217,0.471 -1.763,0.727 -0.083,5.351 -0.083,10.062 0,15.414 L -1.678,0.514 0,0 Z"
             style="fill:none;stroke:#231f20;stroke-width:0.25;stroke-linecap:butt;stroke-linejoin:miter;stroke-miterlimit:4;stroke-dasharray:none;stroke-opacity:1"
             id="path3996"
             inkscape:connector-curvature="0" /></g><g
           id="g3998"
           transform="translate(127.418,36.9639)"><path
             d="m 0,0 -0.126,-15.842 c -0.126,-0.043 -0.042,-0.129 -0.042,-0.213 l -0.084,0 C -0.294,-11.004 -0.378,-4.838 -0.168,0.514 -0.042,0.387 -0.042,0.172 0,0"
             style="fill:#ffffff;fill-opacity:1;fill-rule:nonzero;stroke:none"
             id="path4000"
             inkscape:connector-curvature="0" /></g><g
           id="g4002"
           transform="translate(127.418,36.9639)"><path
             d="m 0,0 -0.126,-15.842 c -0.126,-0.043 -0.042,-0.129 -0.042,-0.213 l -0.084,0 C -0.294,-11.004 -0.378,-4.838 -0.168,0.514 -0.042,0.387 -0.042,0.172 0,0 Z"
             style="fill:none;stroke:#231f20;stroke-width:0.25;stroke-linecap:butt;stroke-linejoin:miter;stroke-miterlimit:4;stroke-dasharray:none;stroke-opacity:1"
             id="path4004"
             inkscape:connector-curvature="0" /></g><g
           id="g4006"
           transform="translate(129.9355,37.2217)"><path
             d="m 0,0 c 0.041,-5.566 -0.043,-10.191 -0.084,-15.586 -0.63,-0.213 -1.301,-0.428 -2.014,-0.428 -0.168,5.524 -0.127,9.891 0,15.799 C -1.385,-0.215 -0.672,0 0,0"
             style="fill:#ffffff;fill-opacity:1;fill-rule:nonzero;stroke:none"
             id="path4008"
             inkscape:connector-curvature="0" /></g><g
           id="g4010"
           transform="translate(129.9355,37.2217)"><path
             d="m 0,0 c 0.041,-5.566 -0.043,-10.191 -0.084,-15.586 -0.63,-0.213 -1.301,-0.428 -2.014,-0.428 -0.168,5.524 -0.127,9.891 0,15.799 C -1.385,-0.215 -0.672,0 0,0 Z"
             style="fill:none;stroke:#231f20;stroke-width:0.25;stroke-linecap:butt;stroke-linejoin:miter;stroke-miterlimit:4;stroke-dasharray:none;stroke-opacity:1"
             id="path4012"
             inkscape:connector-curvature="0" /></g><g
           id="g4014"
           transform="translate(120.998,34.5244)"><path
             d="m 0,0 c 0.042,-0.258 -0.042,-0.643 -0.293,-0.814 -0.379,-0.041 -0.21,0.384 -0.168,0.556 -0.168,0.043 -0.546,-0.129 -0.546,0.215 -0.125,0.342 0.21,0.514 0.294,0.727 C -0.209,0.855 -0.293,0.213 0,0"
             style="fill:#231f20;fill-opacity:1;fill-rule:nonzero;stroke:none"
             id="path4016"
             inkscape:connector-curvature="0" /></g><g
           id="g4018"
           transform="translate(120.998,34.5244)"><path
             d="m 0,0 c 0.042,-0.258 -0.042,-0.643 -0.293,-0.814 -0.379,-0.041 -0.21,0.384 -0.168,0.556 -0.168,0.043 -0.546,-0.129 -0.546,0.215 -0.125,0.342 0.21,0.514 0.294,0.727 C -0.209,0.855 -0.293,0.213 0,0 Z"
             style="fill:none;stroke:#231f20;stroke-width:0.25;stroke-linecap:butt;stroke-linejoin:miter;stroke-miterlimit:4;stroke-dasharray:none;stroke-opacity:1"
             id="path4020"
             inkscape:connector-curvature="0" /></g><g
           id="g4022"
           transform="translate(132.4102,21.3799)"><path
             d="m 0,0 c 0.168,-1.541 0.126,-3.512 0.043,-5.182 -1.26,-2.312 -4.028,-2.74 -6.588,-2.824 -2.434,0.084 -4.95,0.643 -6.251,2.91 -0.252,1.541 -0.126,3.34 -0.084,4.924 l 0.167,0.215 C -8.979,-1.541 -3.692,-1.885 0,0"
             style="fill:#ffffff;fill-opacity:1;fill-rule:nonzero;stroke:none"
             id="path4024"
             inkscape:connector-curvature="0" /></g><g
           id="g4026"
           transform="translate(132.4102,21.3799)"><path
             d="m 0,0 c 0.168,-1.541 0.126,-3.512 0.043,-5.182 -1.26,-2.312 -4.028,-2.74 -6.588,-2.824 -2.434,0.084 -4.95,0.643 -6.251,2.91 -0.252,1.541 -0.126,3.34 -0.084,4.924 l 0.167,0.215 C -8.979,-1.541 -3.692,-1.885 0,0 Z"
             style="fill:none;stroke:#231f20;stroke-width:0.25;stroke-linecap:butt;stroke-linejoin:miter;stroke-miterlimit:4;stroke-dasharray:none;stroke-opacity:1"
             id="path4028"
             inkscape:connector-curvature="0" /></g><g
           id="g4030"
           transform="translate(126.5791,20.8662)"><path
             d="M 0,0 C -1.091,-0.043 -2.728,-0.172 -3.776,0.299 -2.519,0.17 -1.175,0.127 0,0"
             style="fill:#ffffff;fill-opacity:1;fill-rule:nonzero;stroke:none"
             id="path4032"
             inkscape:connector-curvature="0" /></g><g
           id="g4034"
           transform="translate(126.5791,20.8662)"><path
             d="M 0,0 C -1.091,-0.043 -2.728,-0.172 -3.776,0.299 -2.519,0.17 -1.175,0.127 0,0 Z"
             style="fill:none;stroke:#231f20;stroke-width:0.25;stroke-linecap:butt;stroke-linejoin:miter;stroke-miterlimit:4;stroke-dasharray:none;stroke-opacity:1"
             id="path4036"
             inkscape:connector-curvature="0" /></g><g
           id="g4038"
           transform="translate(129.5576,13.2451)"><path
             d="m 0,0 c -3.021,-1.029 -7.133,-0.855 -9.482,1.455 l -0.378,0.6 C -7.426,-0.387 -3.398,-0.984 0,0"
             style="fill:#ffffff;fill-opacity:1;fill-rule:nonzero;stroke:none"
             id="path4040"
             inkscape:connector-curvature="0" /></g><g
           id="g4042"
           transform="translate(129.5576,13.2451)"><path
             d="m 0,0 c -3.021,-1.029 -7.133,-0.855 -9.482,1.455 l -0.378,0.6 C -7.426,-0.387 -3.398,-0.984 0,0 Z"
             style="fill:none;stroke:#231f20;stroke-width:0.25;stroke-linecap:butt;stroke-linejoin:miter;stroke-miterlimit:4;stroke-dasharray:none;stroke-opacity:1"
             id="path4044"
             inkscape:connector-curvature="0" /></g><g
           id="g4046"
           transform="translate(129.3057,12.1748)"><path
             d="m 0,0 c -2.937,-0.729 -6.587,-0.6 -8.811,1.498 3.146,-1.969 8.098,-2.055 11.119,0.213 L 3.063,2.525 C 2.812,1.113 1.133,0.514 0,0"
             style="fill:#ffffff;fill-opacity:1;fill-rule:nonzero;stroke:none"
             id="path4048"
             inkscape:connector-curvature="0" /></g><g
           id="g4050"
           transform="translate(129.3057,12.1748)"><path
             d="m 0,0 c -2.937,-0.729 -6.587,-0.6 -8.811,1.498 3.146,-1.969 8.098,-2.055 11.119,0.213 L 3.063,2.525 C 2.812,1.113 1.133,0.514 0,0 Z"
             style="fill:none;stroke:#231f20;stroke-width:0.25;stroke-linecap:butt;stroke-linejoin:miter;stroke-miterlimit:4;stroke-dasharray:none;stroke-opacity:1"
             id="path4052"
             inkscape:connector-curvature="0" /></g><g
           id="g4054"
           transform="translate(130.0605,11.917)"><path
             d="M 0,0 C -2.139,-1.283 -5.622,-1.283 -7.762,0 -5.454,-0.855 -2.307,-0.855 0,0"
             style="fill:#ffffff;fill-opacity:1;fill-rule:nonzero;stroke:none"
             id="path4056"
             inkscape:connector-curvature="0" /></g><g
           id="g4058"
           transform="translate(130.0605,11.917)"><path
             d="M 0,0 C -2.139,-1.283 -5.622,-1.283 -7.762,0 -5.454,-0.855 -2.307,-0.855 0,0 Z"
             style="fill:none;stroke:#231f20;stroke-width:0.25;stroke-linecap:butt;stroke-linejoin:miter;stroke-miterlimit:4;stroke-dasharray:none;stroke-opacity:1"
             id="path4060"
             inkscape:connector-curvature="0" /></g></g></g><text
       transform="matrix(1,0,0,-1,4.8501,2.3818)"
       style="font-variant:normal;font-weight:normal;font-stretch:normal;font-size:5px;font-family:Helvetica;-inkscape-font-specification:Helvetica;writing-mode:lr-tb;fill:#231f20;fill-opacity:1;fill-rule:nonzero;stroke:none"
       id="text4062"><tspan
         x="0 2.5 5 7.5"
         y="0"
         sodipodi:role="line"
         id="tspan4064">ccsh</tspan></text>
</g></svg>