<?xml version="1.0" encoding="UTF-8" standalone="no"?>
<!-- Created with Inkscape (http://www.inkscape.org/) -->

<svg
   xmlns:dc="http://purl.org/dc/elements/1.1/"
   xmlns:cc="http://creativecommons.org/ns#"
   xmlns:rdf="http://www.w3.org/1999/02/22-rdf-syntax-ns#"
   xmlns:svg="http://www.w3.org/2000/svg"
   xmlns="http://www.w3.org/2000/svg"
   xmlns:sodipodi="http://sodipodi.sourceforge.net/DTD/sodipodi-0.dtd"
   xmlns:inkscape="http://www.inkscape.org/namespaces/inkscape"
   id="svg3666"
   version="1.1"
   inkscape:version="0.91 r13725"
   xml:space="preserve"
   width="301.18124"
   height="230.315"
   viewBox="0 0 301.18124 230.315"
   sodipodi:docname="cgrj_2.svg"><metadata
     id="metadata3672"><rdf:RDF><cc:Work
         rdf:about=""><dc:format>image/svg+xml</dc:format><dc:type
           rdf:resource="http://purl.org/dc/dcmitype/StillImage" /><dc:title></dc:title></cc:Work></rdf:RDF></metadata><defs
     id="defs3670"><clipPath
       clipPathUnits="userSpaceOnUse"
       id="clipPath3680"><path
         d="m 1.618,1.553 238.19,0 0,179.321 -238.19,0 0,-179.321 z"
         id="path3682"
         inkscape:connector-curvature="0" /></clipPath><clipPath
       clipPathUnits="userSpaceOnUse"
       id="clipPath3948"><path
         d="m 0,184.252 240.945,0 L 240.945,0 0,0 0,184.252 Z"
         id="path3950"
         inkscape:connector-curvature="0" /></clipPath><clipPath
       clipPathUnits="userSpaceOnUse"
       id="clipPath3976"><path
         d="m 0,184.252 240.945,0 L 240.945,0 0,0 0,184.252 Z"
         id="path3978"
         inkscape:connector-curvature="0" /></clipPath></defs><sodipodi:namedview
     pagecolor="#ffffff"
     bordercolor="#666666"
     borderopacity="1"
     objecttolerance="10"
     gridtolerance="10"
     guidetolerance="10"
     inkscape:pageopacity="0"
     inkscape:pageshadow="2"
     inkscape:window-width="640"
     inkscape:window-height="480"
     id="namedview3668"
     showgrid="false"
     inkscape:zoom="1.0060387"
     inkscape:cx="150.59062"
     inkscape:cy="115.1575"
     inkscape:window-x="0"
     inkscape:window-y="0"
     inkscape:window-maximized="0"
     inkscape:current-layer="g3674" /><g
     id="g3674"
     inkscape:groupmode="layer"
     inkscape:label="cgrj_2"
     transform="matrix(1.25,0,0,-1.25,0,230.315)"><g
       id="g3676"><g
         id="g3678"
         clip-path="url(#clipPath3680)"><g
           id="g3684"
           transform="translate(78.4556,188.355)"><path
             d="M 0,0 C -85.598,-26.458 -147.851,-73.146 -166.008,-90.267"
             style="fill:none;stroke:#231f20;stroke-width:0.5;stroke-linecap:round;stroke-linejoin:round;stroke-miterlimit:4;stroke-dasharray:none;stroke-opacity:1"
             id="path3686"
             inkscape:connector-curvature="0" /></g><g
           id="g3688"
           transform="translate(163.5342,187.3179)"><path
             d="M 0,0 C -115.707,-28.699 -178.212,-59.798 -218.075,-86.271"
             style="fill:none;stroke:#231f20;stroke-width:0.5;stroke-linecap:round;stroke-linejoin:round;stroke-miterlimit:4;stroke-dasharray:none;stroke-opacity:1"
             id="path3690"
             inkscape:connector-curvature="0" /></g><g
           id="g3692"
           transform="translate(181.1719,188.874)"><path
             d="M 0,0 C -115.167,-32.164 -195.058,-60.178 -234.485,-87.673"
             style="fill:none;stroke:#231f20;stroke-width:0.5;stroke-linecap:round;stroke-linejoin:round;stroke-miterlimit:4;stroke-dasharray:none;stroke-opacity:1"
             id="path3694"
             inkscape:connector-curvature="0" /></g><g
           id="g3696"
           transform="translate(243.9434,172.792)"><path
             d="M 0,0 C -71.563,-14.942 -187.836,-41.807 -262.519,-82.852"
             style="fill:none;stroke:#231f20;stroke-width:0.5;stroke-linecap:round;stroke-linejoin:round;stroke-miterlimit:4;stroke-dasharray:none;stroke-opacity:1"
             id="path3698"
             inkscape:connector-curvature="0" /></g><g
           id="g3700"
           transform="translate(53.1211,99.5195)"><path
             d="M 0,0 C 7.45,0 13.489,-6.453 13.489,-14.415 13.489,-22.376 7.45,-28.831 0,-28.831"
             style="fill:none;stroke:#231f20;stroke-width:0.5;stroke-linecap:round;stroke-linejoin:round;stroke-miterlimit:4;stroke-dasharray:none;stroke-opacity:1"
             id="path3702"
             inkscape:connector-curvature="0" /></g><g
           id="g3704"
           transform="translate(58.5791,70.6885)"><path
             d="M 0,0 C 7.45,0 13.489,6.455 13.489,14.416 13.489,22.378 7.45,28.831 0,28.831 l -5.458,0 c -7.45,0 -13.489,-6.453 -13.489,-14.415 C -18.947,6.455 -12.908,0 -5.458,0 L 0,0 Z"
             style="fill:none;stroke:#231f20;stroke-width:1.5;stroke-linecap:round;stroke-linejoin:round;stroke-miterlimit:4;stroke-dasharray:none;stroke-opacity:1"
             id="path3706"
             inkscape:connector-curvature="0" /></g><g
           id="g3708"
           transform="translate(53.1211,76.1807)"><path
             d="m 0,0 -7.175,4.461 0,8.924 L 0,17.846"
             style="fill:none;stroke:#231f20;stroke-width:0.5;stroke-linecap:round;stroke-linejoin:round;stroke-miterlimit:4;stroke-dasharray:none;stroke-opacity:1"
             id="path3710"
             inkscape:connector-curvature="0" /></g><g
           id="g3712"
           transform="translate(53.1211,94.0269)"><path
             d="m 0,0 7.175,-4.461 0,-8.924 L 0,-17.846"
             style="fill:none;stroke:#231f20;stroke-width:1;stroke-linecap:round;stroke-linejoin:round;stroke-miterlimit:4;stroke-dasharray:none;stroke-opacity:1"
             id="path3714"
             inkscape:connector-curvature="0" /></g><g
           id="g3716"
           transform="translate(55.4927,77.6885)"><path
             d="m 0,0 -4.752,2.953 0,8.924 4.584,2.849"
             style="fill:none;stroke:#231f20;stroke-width:0.5;stroke-linecap:round;stroke-linejoin:round;stroke-miterlimit:4;stroke-dasharray:none;stroke-opacity:1"
             id="path3718"
             inkscape:connector-curvature="0" /></g><g
           id="g3720"
           transform="translate(45.9458,80.6416)"><path
             d="M 0,0 4.795,0"
             style="fill:none;stroke:#231f20;stroke-width:0.5;stroke-linecap:round;stroke-linejoin:round;stroke-miterlimit:4;stroke-dasharray:none;stroke-opacity:1"
             id="path3722"
             inkscape:connector-curvature="0" /></g><g
           id="g3724"
           transform="translate(45.9458,89.7373)"><path
             d="M 0,0 4.795,0"
             style="fill:none;stroke:#231f20;stroke-width:0.5;stroke-linecap:round;stroke-linejoin:round;stroke-miterlimit:4;stroke-dasharray:none;stroke-opacity:1"
             id="path3726"
             inkscape:connector-curvature="0" /></g><g
           id="g3728"
           transform="translate(43.8535,74.3955)"><path
             d="m 0,0 c 1.545,-7.209 11.061,-11.457 15.755,-10.916 4.694,0.543 7.62,-1.852 7.516,-5.148 -0.103,-3.297 -3.501,-9.885 3.295,-13.387 6.797,-3.5 19.98,-11.082 68.262,-25.613 48.283,-14.532 65.784,-16.407 68.283,-11.563 2.501,4.844 7.969,17.344 8.907,19.688 0.938,2.343 3.906,15.625 5,21.564 1.093,5.938 -2.499,9.219 -10.938,15"
             style="fill:none;stroke:#231f20;stroke-width:1;stroke-linecap:round;stroke-linejoin:round;stroke-miterlimit:4;stroke-dasharray:none;stroke-opacity:1"
             id="path3730"
             inkscape:connector-curvature="0" /></g><g
           id="g3732"
           transform="translate(208.5645,59.1357)"><path
             d="m 0,0 c -1.847,-5.822 -28.539,-2.547 -59.617,7.314 -31.079,9.858 -54.777,22.57 -52.931,28.392"
             style="fill:none;stroke:#231f20;stroke-width:0.25;stroke-linecap:round;stroke-linejoin:round;stroke-miterlimit:4;stroke-dasharray:none;stroke-opacity:1"
             id="path3734"
             inkscape:connector-curvature="0" /></g><g
           id="g3736"
           transform="translate(83.6157,103.5244)"><path
             d="m 0,0 c -1.245,4.963 -2.768,11.009 -3.008,11.851 -0.417,1.458 -2.5,6.459 -9.375,9.375"
             style="fill:none;stroke:#231f20;stroke-width:0.25;stroke-linecap:round;stroke-linejoin:round;stroke-miterlimit:4;stroke-dasharray:none;stroke-opacity:1"
             id="path3738"
             inkscape:connector-curvature="0" /></g><g
           id="g3740"
           transform="translate(218.998,55.2354)"><path
             d="m 0,0 c -3.616,-6.201 -34.674,-2.209 -70.685,9.217 -34.659,10.994 -61.598,24.971 -63.022,32.381 0,0 -0.432,1.731 -1.035,4.139"
             style="fill:none;stroke:#231f20;stroke-width:0.25;stroke-linecap:round;stroke-linejoin:round;stroke-miterlimit:4;stroke-dasharray:none;stroke-opacity:1"
             id="path3742"
             inkscape:connector-curvature="0" /></g><g
           id="g3744"
           transform="translate(78.2026,103.3145)"><path
             d="m 0,0 c -1.456,5.923 -3.095,12.517 -3.429,13.519 -0.625,1.875 -5,6.042 -8.751,7.083"
             style="fill:none;stroke:#231f20;stroke-width:0.25;stroke-linecap:round;stroke-linejoin:round;stroke-miterlimit:4;stroke-dasharray:none;stroke-opacity:1"
             id="path3746"
             inkscape:connector-curvature="0" /></g><g
           id="g3748"
           transform="translate(220.415,49.4268)"><path
             d="m 0,0 c -5.522,-6.143 -37.378,-2.223 -73.99,9.395 -36.171,11.474 -64.213,26.408 -65.829,34.677 0,0 -0.704,2.91 -1.625,6.678"
             style="fill:none;stroke:#231f20;stroke-width:0.25;stroke-linecap:round;stroke-linejoin:round;stroke-miterlimit:4;stroke-dasharray:none;stroke-opacity:1"
             id="path3750"
             inkscape:connector-curvature="0" /></g><g
           id="g3752"
           transform="translate(100.8071,110.6646)"><path
             d="m 0,0 c 0.271,0.937 25.877,-5.664 57.193,-14.744 31.315,-9.08 56.482,-17.201 56.21,-18.138"
             style="fill:none;stroke:#231f20;stroke-width:0.25;stroke-linecap:round;stroke-linejoin:round;stroke-miterlimit:4;stroke-dasharray:none;stroke-opacity:1"
             id="path3754"
             inkscape:connector-curvature="0" /></g><g
           id="g3756"
           transform="translate(185.251,-14.0947)"><path
             d="M 0,0 C -0.834,-2.883 -26.897,2.143 -58.213,11.223 -89.53,20.305 -114.238,30 -113.402,32.881"
             style="fill:none;stroke:#231f20;stroke-width:0.25;stroke-linecap:round;stroke-linejoin:round;stroke-miterlimit:4;stroke-dasharray:none;stroke-opacity:1"
             id="path3758"
             inkscape:connector-curvature="0" /></g><g
           id="g3760"
           transform="translate(189.8135,-1.6689)"><path
             d="m 0,0 c -0.834,-2.881 -26.897,2.145 -58.213,11.223 -31.317,9.082 -56.026,18.779 -55.19,21.66"
             style="fill:none;stroke:#231f20;stroke-width:0.25;stroke-linecap:round;stroke-linejoin:round;stroke-miterlimit:4;stroke-dasharray:none;stroke-opacity:1"
             id="path3762"
             inkscape:connector-curvature="0" /></g><g
           id="g3764"
           transform="translate(190.2852,-0.0967)"><path
             d="m 0,0 c -0.835,-2.883 -26.898,2.145 -58.214,11.223 -31.316,9.082 -56.025,18.779 -55.189,21.66"
             style="fill:none;stroke:#231f20;stroke-width:0.25;stroke-linecap:round;stroke-linejoin:round;stroke-miterlimit:4;stroke-dasharray:none;stroke-opacity:1"
             id="path3766"
             inkscape:connector-curvature="0" /></g><g
           id="g3768"
           transform="translate(214.541,23.8779)"><path
             d="m 0,0 c -1.138,-3.697 -34.118,3.172 -73.664,15.344 -39.55,12.17 -68.908,24.75 -67.77,28.443"
             style="fill:none;stroke:#231f20;stroke-width:0.25;stroke-linecap:round;stroke-linejoin:round;stroke-miterlimit:4;stroke-dasharray:none;stroke-opacity:1"
             id="path3770"
             inkscape:connector-curvature="0" /></g><g
           id="g3772"
           transform="translate(216.623,29.9189)"><path
             d="m 0,0 c -1.138,-3.695 -34.116,3.172 -73.664,15.346 -34.605,10.646 -61.409,21.609 -66.806,26.658"
             style="fill:none;stroke:#231f20;stroke-width:0.25;stroke-linecap:round;stroke-linejoin:round;stroke-miterlimit:4;stroke-dasharray:none;stroke-opacity:1"
             id="path3774"
             inkscape:connector-curvature="0" /></g><g
           id="g3776"
           transform="translate(105.7646,118.3647)"><path
             d="m 0,0 c 0.26,0.896 24.765,-5.421 54.735,-14.112 29.971,-8.689 54.054,-16.461 53.796,-17.357"
             style="fill:none;stroke:#231f20;stroke-width:0.25;stroke-linecap:round;stroke-linejoin:round;stroke-miterlimit:4;stroke-dasharray:none;stroke-opacity:1"
             id="path3778"
             inkscape:connector-curvature="0" /></g><g
           id="g3780"
           transform="translate(59.6084,63.4795)"><path
             d="M 0,0 C 2.086,0.123 7.388,1.135 8.145,-0.213"
             style="fill:none;stroke:#231f20;stroke-width:1;stroke-linecap:round;stroke-linejoin:round;stroke-miterlimit:4;stroke-dasharray:none;stroke-opacity:1"
             id="path3782"
             inkscape:connector-curvature="0" /></g><g
           id="g3784"
           transform="translate(44.188,95.9204)"><path
             d="m 0,0 c 0,0 1.432,5.555 1.852,7.407 0.42,1.852 2.44,5.05 6.48,3.956 4.04,-1.094 16.749,-4.967 19.189,-5.723 2.441,-0.758 3.535,-0.252 3.788,0.673"
             style="fill:none;stroke:#231f20;stroke-width:1;stroke-linecap:round;stroke-linejoin:round;stroke-miterlimit:4;stroke-dasharray:none;stroke-opacity:1"
             id="path3786"
             inkscape:connector-curvature="0" /></g><g
           id="g3788"
           transform="translate(51.0894,107.1987)"><path
             d="m 0,0 c 0,0 11.446,-4.628 18.684,-7.322 7.238,-2.694 10.605,-11.278 9.764,-16.833"
             style="fill:none;stroke:#231f20;stroke-width:0.25;stroke-linecap:round;stroke-linejoin:round;stroke-miterlimit:4;stroke-dasharray:none;stroke-opacity:1"
             id="path3790"
             inkscape:connector-curvature="0" /></g><g
           id="g3792"
           transform="translate(78.7793,92.4707)"><path
             d="m 0,0 c 1.263,-1.853 2.44,-7.575 -0.421,-14.897 -2.861,-7.323 -6.312,-11.53 -7.827,-12.29"
             style="fill:none;stroke:#231f20;stroke-width:0.5;stroke-linecap:round;stroke-linejoin:round;stroke-miterlimit:4;stroke-dasharray:none;stroke-opacity:1"
             id="path3794"
             inkscape:connector-curvature="0" /></g><g
           id="g3796"
           transform="translate(54.0347,106.7783)"><path
             d="m 0,0 c 0,0 19.189,-7.491 20.368,-7.828 1.178,-0.337 2.356,-0.589 3.872,0.926 1.514,1.515 3.954,2.02 5.975,1.347 2.021,-0.674 11.615,-4.124 11.615,-4.124"
             style="fill:none;stroke:#231f20;stroke-width:1;stroke-linecap:round;stroke-linejoin:round;stroke-miterlimit:4;stroke-dasharray:none;stroke-opacity:1"
             id="path3798"
             inkscape:connector-curvature="0" /></g><g
           id="g3800"
           transform="translate(63.1245,103.7485)"><path
             d="m 0,0 c 0,0 9.426,-3.03 10.604,-3.367 1.18,-0.337 2.526,-0.421 3.536,1.01 1.01,1.431 1.683,3.367 4.881,2.273 3.199,-1.095 14.056,-4.714 14.056,-4.714"
             style="fill:none;stroke:#231f20;stroke-width:0.25;stroke-linecap:round;stroke-linejoin:round;stroke-miterlimit:4;stroke-dasharray:none;stroke-opacity:1"
             id="path3802"
             inkscape:connector-curvature="0" /></g><g
           id="g3804"
           transform="translate(95.9194,95.062)"><path
             d="m 0,0 4.897,15.834 4.895,7.708 c 0,0 -0.729,3.23 3.438,3.334 4.168,0.104 32.5,-6.875 51.668,-12.188 19.168,-5.313 49.273,-16.668 52.085,-18.021 2.812,-1.355 1.563,-4.584 1.563,-4.584 l -0.313,-9.583 -5.588,-18.426"
             style="fill:none;stroke:#231f20;stroke-width:1;stroke-linecap:round;stroke-linejoin:round;stroke-miterlimit:4;stroke-dasharray:none;stroke-opacity:1"
             id="path3806"
             inkscape:connector-curvature="0" /></g><g
           id="g3808"
           transform="translate(133.9414,116.9375)"><path
             d="m 0,0 3.125,9.792 1.563,0.417 c 0,0 0.417,1.354 1.042,2.708 0.625,1.354 13.855,-1.458 27.189,-5.416 13.333,-3.959 25.418,-9.168 25.312,-9.897 -0.104,-0.729 -0.729,-2.812 -0.729,-2.812 l 0,-0.729 -2.813,-9.896"
             style="fill:none;stroke:#231f20;stroke-width:1;stroke-linecap:round;stroke-linejoin:round;stroke-miterlimit:4;stroke-dasharray:none;stroke-opacity:1"
             id="path3810"
             inkscape:connector-curvature="0" /></g><g
           id="g3812"
           transform="translate(138.6299,127.1465)"><path
             d="m 0,0 c 0.417,1.354 15.833,-2.083 27.187,-5.625 11.356,-3.542 25.626,-8.542 25.626,-9.792"
             style="fill:none;stroke:#231f20;stroke-width:0.25;stroke-linecap:round;stroke-linejoin:round;stroke-miterlimit:4;stroke-dasharray:none;stroke-opacity:1"
             id="path3814"
             inkscape:connector-curvature="0" /></g><g
           id="g3816"
           transform="translate(145.9219,130.167)"><path
             d="m 0,0 c 0,0 2.708,7.396 3.02,8.75 0.313,1.354 11.251,-0.833 22.293,-3.958 11.041,-3.125 18.959,-8.021 18.75,-8.855 -0.208,-0.833 -2.604,-8.333 -2.604,-8.333"
             style="fill:none;stroke:#231f20;stroke-width:1;stroke-linecap:round;stroke-linejoin:round;stroke-miterlimit:4;stroke-dasharray:none;stroke-opacity:1"
             id="path3818"
             inkscape:connector-curvature="0" /></g><g
           id="g3820"
           transform="translate(162.5889,137.5635)"><path
             d="M 0,0 C 0,0 0.52,1.979 1.041,3.542 1.562,5.104 16.043,0.521 15.521,-1.042 15,-2.604 14.479,-4.271 14.479,-4.271"
             style="fill:none;stroke:#231f20;stroke-width:1;stroke-linecap:round;stroke-linejoin:round;stroke-miterlimit:4;stroke-dasharray:none;stroke-opacity:1"
             id="path3822"
             inkscape:connector-curvature="0" /></g><g
           id="g3824"
           transform="translate(167.1729,124.2295)"><path
             d="m 0,0 2.916,9.48 c 0,0 5.312,0 12.292,-3.022"
             style="fill:none;stroke:#231f20;stroke-width:0.25;stroke-linecap:round;stroke-linejoin:round;stroke-miterlimit:4;stroke-dasharray:none;stroke-opacity:1"
             id="path3826"
             inkscape:connector-curvature="0" /></g><g
           id="g3828"
           transform="translate(159.7764,137.9795)"><path
             d="M 0,0 C 7.084,-1.354 10.104,-3.958 10.104,-3.958"
             style="fill:none;stroke:#231f20;stroke-width:0.25;stroke-linecap:round;stroke-linejoin:round;stroke-miterlimit:4;stroke-dasharray:none;stroke-opacity:1"
             id="path3830"
             inkscape:connector-curvature="0" /></g><g
           id="g3832"
           transform="translate(137.9004,126.7295)"><path
             d="M 0,0 C 4.896,0.417 16.458,-1.875 22.292,-5.208 L 18.959,-15.417"
             style="fill:none;stroke:#231f20;stroke-width:0.25;stroke-linecap:round;stroke-linejoin:round;stroke-miterlimit:4;stroke-dasharray:none;stroke-opacity:1"
             id="path3834"
             inkscape:connector-curvature="0" /></g><g
           id="g3836"
           transform="translate(160.1924,110.3755)"><path
             d="M 0,0 3.23,10.104 C 13.96,8.75 23.854,4.896 27.813,1.875 l -3.02,-9.792"
             style="fill:none;stroke:#231f20;stroke-width:0.25;stroke-linecap:round;stroke-linejoin:round;stroke-miterlimit:4;stroke-dasharray:none;stroke-opacity:1"
             id="path3838"
             inkscape:connector-curvature="0" /></g><g
           id="g3840"
           transform="translate(185.9238,101.9375)"><path
             d="m 0,0 3.124,9.688 c 0,0 0.624,0.833 2.083,-0.313"
             style="fill:none;stroke:#231f20;stroke-width:0.25;stroke-linecap:round;stroke-linejoin:round;stroke-miterlimit:4;stroke-dasharray:none;stroke-opacity:1"
             id="path3842"
             inkscape:connector-curvature="0" /></g><g
           id="g3844"
           transform="translate(160.1924,121.521)"><path
             d="M 0,0 3.23,-1.042"
             style="fill:none;stroke:#231f20;stroke-width:0.25;stroke-linecap:round;stroke-linejoin:round;stroke-miterlimit:4;stroke-dasharray:none;stroke-opacity:1"
             id="path3846"
             inkscape:connector-curvature="0" /></g><g
           id="g3848"
           transform="translate(71.6484,127.251)"><path
             d="M 0,0 15.625,-6.042"
             style="fill:none;stroke:#231f20;stroke-width:0.5;stroke-linecap:round;stroke-linejoin:round;stroke-miterlimit:4;stroke-dasharray:none;stroke-opacity:1"
             id="path3850"
             inkscape:connector-curvature="0" /></g><g
           id="g3852"
           transform="translate(85.1909,116.4165)"><path
             d="M 0,0 C 0,0 1.874,1.042 6.458,8.125"
             style="fill:none;stroke:#231f20;stroke-width:0.5;stroke-linecap:round;stroke-linejoin:round;stroke-miterlimit:4;stroke-dasharray:none;stroke-opacity:1"
             id="path3854"
             inkscape:connector-curvature="0" /></g><g
           id="g3856"
           transform="translate(89.1489,133.5005)"><path
             d="M 0,0 C 0,0 -1.875,-4.375 -2.708,-5.833 -3.541,-7.292 1.459,-9.792 1.459,-9.792"
             style="fill:none;stroke:#231f20;stroke-width:0.5;stroke-linecap:round;stroke-linejoin:round;stroke-miterlimit:4;stroke-dasharray:none;stroke-opacity:1"
             id="path3858"
             inkscape:connector-curvature="0" /></g><g
           id="g3860"
           transform="translate(86.4414,127.667)"><path
             d="M 0,0 C 0.833,2.084 39.792,-9.167 39.792,-9.167"
             style="fill:none;stroke:#231f20;stroke-width:0.25;stroke-linecap:round;stroke-linejoin:round;stroke-miterlimit:4;stroke-dasharray:none;stroke-opacity:1"
             id="path3862"
             inkscape:connector-curvature="0" /></g><g
           id="g3864"
           transform="translate(92.2744,124.7505)"><path
             d="M 0,0 C 0.625,0.833 13.542,-3.125 13.542,-3.125"
             style="fill:none;stroke:#231f20;stroke-width:0.25;stroke-linecap:round;stroke-linejoin:round;stroke-miterlimit:4;stroke-dasharray:none;stroke-opacity:1"
             id="path3866"
             inkscape:connector-curvature="0" /></g><g
           id="g3868"
           transform="translate(112.4834,140.7925)"><path
             d="M 0,0 C 7.709,-1.042 31.459,-10.208 31.459,-10.208"
             style="fill:none;stroke:#231f20;stroke-width:0.5;stroke-linecap:round;stroke-linejoin:round;stroke-miterlimit:4;stroke-dasharray:none;stroke-opacity:1"
             id="path3870"
             inkscape:connector-curvature="0" /></g><g
           id="g3872"
           transform="translate(178.1094,132.8755)"><path
             d="m 0,0 c 0,0 12.502,8.333 13.335,10.417 0.832,2.084 6.458,19.167 6.458,19.167"
             style="fill:none;stroke:#231f20;stroke-width:0.5;stroke-linecap:round;stroke-linejoin:round;stroke-miterlimit:4;stroke-dasharray:none;stroke-opacity:1"
             id="path3874"
             inkscape:connector-curvature="0" /></g><g
           id="g3876"
           transform="translate(85.3989,161.2095)"><path
             d="M 0,0 -0.833,2.708"
             style="fill:none;stroke:#231f20;stroke-width:0.5;stroke-linecap:round;stroke-linejoin:round;stroke-miterlimit:4;stroke-dasharray:none;stroke-opacity:1"
             id="path3878"
             inkscape:connector-curvature="0" /></g><g
           id="g3880"
           transform="translate(79.5654,40.583)"><path
             d="m 0,0 -7.717,-21.797 c 0,0 0.842,-7.582 -2.283,-16.748 -3.125,-9.168 -20.418,-59.793 -20.418,-59.793"
             style="fill:none;stroke:#231f20;stroke-width:1;stroke-linecap:round;stroke-linejoin:round;stroke-miterlimit:4;stroke-dasharray:none;stroke-opacity:1"
             id="path3882"
             inkscape:connector-curvature="0" /></g><g
           id="g3884"
           transform="translate(191.6514,5.5811)"><path
             d="m 0,0 -6.4,-19.676 c 0,0 -4.851,-5.742 -7.559,-13.242 -2.707,-7.5 -13.124,-33.752 -13.124,-33.752"
             style="fill:none;stroke:#231f20;stroke-width:1;stroke-linecap:round;stroke-linejoin:round;stroke-miterlimit:4;stroke-dasharray:none;stroke-opacity:1"
             id="path3886"
             inkscape:connector-curvature="0" /></g><g
           id="g3888"
           transform="translate(12.5903,162.894)"><path
             d="M 0,0 C 0,0 -8.606,16.255 -8.924,20.557"
             style="fill:none;stroke:#231f20;stroke-width:0.5;stroke-linecap:round;stroke-linejoin:round;stroke-miterlimit:4;stroke-dasharray:none;stroke-opacity:1"
             id="path3890"
             inkscape:connector-curvature="0" /></g><g
           id="g3892"
           transform="translate(12.272,184.0884)"><path
             d="M 0,0 C 4.78,-3.347 10.358,-11.474 12.429,-15.617"
             style="fill:none;stroke:#231f20;stroke-width:0.25;stroke-linecap:round;stroke-linejoin:round;stroke-miterlimit:4;stroke-dasharray:none;stroke-opacity:1"
             id="path3894"
             inkscape:connector-curvature="0" /></g><g
           id="g3896"
           transform="translate(-65.0171,156.9976)"><path
             d="M 0,0 C 0,0 5.258,7.331 9.243,11.792 13.227,16.254 40.477,10.359 69.001,1.753"
             style="fill:none;stroke:#231f20;stroke-width:0.5;stroke-linecap:round;stroke-linejoin:round;stroke-miterlimit:4;stroke-dasharray:none;stroke-opacity:1"
             id="path3898"
             inkscape:connector-curvature="0" /></g><g
           id="g3900"
           transform="translate(43.7417,73.6494)"><path
             d="m 0,0 -65.119,16.609 c -12.802,3.24 -46.924,15.083 -59.461,21.031 -1.247,0.591 -2.739,0.059 -3.33,-1.188 -0.591,-1.247 -0.06,-2.739 1.187,-3.33 12.741,-6.044 47.389,-18.073 60.377,-21.358 L 4.882,-6.404"
             style="fill:none;stroke:#231f20;stroke-width:0.5;stroke-linecap:round;stroke-linejoin:round;stroke-miterlimit:4;stroke-dasharray:none;stroke-opacity:1"
             id="path3902"
             inkscape:connector-curvature="0" /></g><g
           id="g3904"
           transform="translate(4.7046,101.7109)"><path
             d="M 0,0 -3.361,-16.888"
             style="fill:none;stroke:#231f20;stroke-width:0.5;stroke-linecap:round;stroke-linejoin:round;stroke-miterlimit:4;stroke-dasharray:none;stroke-opacity:1"
             id="path3906"
             inkscape:connector-curvature="0" /></g><g
           id="g3908"
           transform="translate(21.7949,73.6475)"><path
             d="m 0,0 c 0,0 -0.276,-1.381 -0.46,-3.133 -0.185,-1.752 -1.383,-5.992 12.627,-9.678 14.012,-3.689 15.486,2.026 15.855,2.856 0.369,0.83 0.738,2.213 0.738,2.213"
             style="fill:none;stroke:#231f20;stroke-width:0.5;stroke-linecap:round;stroke-linejoin:round;stroke-miterlimit:4;stroke-dasharray:none;stroke-opacity:1"
             id="path3910"
             inkscape:connector-curvature="0" /></g><g
           id="g3912"
           transform="translate(19.1221,54.1982)"><path
             d="M 0,0 C 0.276,0.277 4.701,11.063 4.701,11.063"
             style="fill:none;stroke:#231f20;stroke-width:0.5;stroke-linecap:round;stroke-linejoin:round;stroke-miterlimit:4;stroke-dasharray:none;stroke-opacity:1"
             id="path3914"
             inkscape:connector-curvature="0" /></g><g
           id="g3916"
           transform="translate(-3.9785,61.3096)"><path
             d="M 0,0 C 0,-0.937 14.271,-6.25 23.959,-7.289"
             style="fill:none;stroke:#231f20;stroke-width:0.5;stroke-linecap:round;stroke-linejoin:round;stroke-miterlimit:4;stroke-dasharray:none;stroke-opacity:1"
             id="path3918"
             inkscape:connector-curvature="0" /></g><g
           id="g3920"
           transform="translate(-46.48,71.415)"><path
             d="m 0,0 c 7.709,-2.291 26.042,-6.041 26.563,-6.145 0.521,-0.105 2.188,-0.835 2.813,-1.148 0.625,-0.312 15.729,-7.082 25.625,-9.269 9.897,-2.188 22.189,-4.168 22.189,-4.168"
             style="fill:none;stroke:#231f20;stroke-width:0.25;stroke-linecap:round;stroke-linejoin:round;stroke-miterlimit:4;stroke-dasharray:none;stroke-opacity:1"
             id="path3922"
             inkscape:connector-curvature="0" /></g><g
           id="g3924"
           transform="translate(-58.355,54.333)"><path
             d="m 0,0 c 9.479,-4.064 29.966,-7.41 32.501,-7.918 0.521,-0.105 2.187,-0.832 2.812,-1.146 0.625,-0.311 15.729,-7.082 25.626,-9.27 9.896,-2.187 22.188,-4.168 22.188,-4.168"
             style="fill:none;stroke:#231f20;stroke-width:0.25;stroke-linecap:round;stroke-linejoin:round;stroke-miterlimit:4;stroke-dasharray:none;stroke-opacity:1"
             id="path3926"
             inkscape:connector-curvature="0" /></g><g
           id="g3928"
           transform="translate(-57.7305,62.8721)"><path
             d="m 0,0 c 0,0 -1.042,-5 -1.562,-7.707 -0.521,-2.707 5.208,-8.125 17.396,-11.668 12.187,-3.541 13.959,-3.854 13.959,-3.854 6.615,-2.341 6.458,-2.031 15.521,-5.312 9.063,-3.281 11.25,-4.688 18.438,-6.563"
             style="fill:none;stroke:#231f20;stroke-width:0.5;stroke-linecap:round;stroke-linejoin:round;stroke-miterlimit:4;stroke-dasharray:none;stroke-opacity:1"
             id="path3930"
             inkscape:connector-curvature="0" /></g><g
           id="g3932"
           transform="translate(-34.1357,-52.7021)"><path
             d="m 0,0 c 0,10.156 -0.156,25.625 5,26.094 5.156,0.47 13.594,2.968 14.688,5.47 1.094,2.499 17.813,48.907 17.813,48.907"
             style="fill:none;stroke:#231f20;stroke-width:0.5;stroke-linecap:round;stroke-linejoin:round;stroke-miterlimit:4;stroke-dasharray:none;stroke-opacity:1"
             id="path3934"
             inkscape:connector-curvature="0" /></g><g
           id="g3936"
           transform="translate(31.335,50.4248)"><path
             d="M 0,0 C 0,0 -5.312,-14.688 -6.406,-17.344 -7.5,-20 -13.75,-24.531 -23.595,-22.812"
             style="fill:none;stroke:#231f20;stroke-width:0.25;stroke-linecap:round;stroke-linejoin:round;stroke-miterlimit:4;stroke-dasharray:none;stroke-opacity:1"
             id="path3938"
             inkscape:connector-curvature="0" /></g></g></g><g
       id="g3940"
       transform="translate(154.1943,132.2529)"><path
         d="M 0,0 -120.881,-30.088"
         style="fill:none;stroke:#ffffff;stroke-width:3;stroke-linecap:round;stroke-linejoin:round;stroke-miterlimit:4;stroke-dasharray:none;stroke-opacity:1"
         id="path3942"
         inkscape:connector-curvature="0" /></g><g
       id="g3944"><g
         id="g3946"
         clip-path="url(#clipPath3948)"><g
           id="g3952"
           transform="translate(154.042,130.708)"><path
             d="M 0,0 C 0.85,0 1.541,0.691 1.541,1.545 1.541,2.396 0.85,3.084 0,3.084 -0.852,3.084 -1.542,2.396 -1.542,1.545 -1.542,0.691 -0.852,0 0,0"
             style="fill:#231f20;fill-opacity:1;fill-rule:nonzero;stroke:none"
             id="path3954"
             inkscape:connector-curvature="0" /></g><g
           id="g3956"
           transform="translate(154.042,130.708)"><path
             d="M 0,0 C 0.85,0 1.541,0.691 1.541,1.545 1.541,2.396 0.85,3.084 0,3.084 -0.852,3.084 -1.542,2.396 -1.542,1.545 -1.542,0.691 -0.852,0 0,0 Z"
             style="fill:none;stroke:#ffffff;stroke-width:1;stroke-linecap:butt;stroke-linejoin:miter;stroke-miterlimit:4;stroke-dasharray:none;stroke-opacity:1"
             id="path3958"
             inkscape:connector-curvature="0" /></g><g
           id="g3960"
           transform="translate(154.1943,132.2529)"><path
             d="M 0,0 -120.881,-30.088"
             style="fill:none;stroke:#231f20;stroke-width:0.5;stroke-linecap:round;stroke-linejoin:round;stroke-miterlimit:4;stroke-dasharray:none;stroke-opacity:1"
             id="path3962"
             inkscape:connector-curvature="0" /></g></g></g><text
       transform="matrix(1,0,0,-1,23.064,97.4619)"
       style="font-variant:normal;font-weight:bold;font-stretch:normal;font-size:12px;font-family:'Swiss 721 SWA';-inkscape-font-specification:Helvetica-Bold;writing-mode:lr-tb;fill:#231f20;fill-opacity:1;fill-rule:nonzero;stroke:none"
       id="text3964"><tspan
         x="0"
         y="0"
         id="tspan3966">1</tspan></text>
<text
       transform="matrix(1,0,0,-1,8.3149,6.3389)"
       style="font-variant:normal;font-weight:normal;font-stretch:normal;font-size:6.25019979px;font-family:'Swiss 721 SWA';-inkscape-font-specification:Helvetica;writing-mode:lr-tb;fill:#231f20;fill-opacity:1;fill-rule:nonzero;stroke:none"
       id="text3968"><tspan
         x="0 3.1250999 6.6002111 8.6815281 10.069072 13.544184"
         y="0"
         sodipodi:role="line"
         id="tspan3970">cgrj_2</tspan></text>
<g
       id="g3972"><g
         id="g3974"
         clip-path="url(#clipPath3976)"><g
           id="g3980"
           transform="translate(173,136.7529)"><path
             d="M 0,0 47.813,7.412"
             style="fill:none;stroke:#ffffff;stroke-width:3;stroke-linecap:round;stroke-linejoin:round;stroke-miterlimit:4;stroke-dasharray:none;stroke-opacity:1"
             id="path3982"
             inkscape:connector-curvature="0" /></g><g
           id="g3984"
           transform="translate(172.8477,135.208)"><path
             d="M 0,0 C 0.85,0 1.541,0.691 1.541,1.545 1.541,2.396 0.85,3.084 0,3.084 -0.852,3.084 -1.542,2.396 -1.542,1.545 -1.542,0.691 -0.852,0 0,0"
             style="fill:#231f20;fill-opacity:1;fill-rule:nonzero;stroke:none"
             id="path3986"
             inkscape:connector-curvature="0" /></g><g
           id="g3988"
           transform="translate(172.8477,135.208)"><path
             d="M 0,0 C 0.85,0 1.541,0.691 1.541,1.545 1.541,2.396 0.85,3.084 0,3.084 -0.852,3.084 -1.542,2.396 -1.542,1.545 -1.542,0.691 -0.852,0 0,0 Z"
             style="fill:none;stroke:#ffffff;stroke-width:1;stroke-linecap:butt;stroke-linejoin:miter;stroke-miterlimit:4;stroke-dasharray:none;stroke-opacity:1"
             id="path3990"
             inkscape:connector-curvature="0" /></g><g
           id="g3992"
           transform="translate(173,136.7529)"><path
             d="M 0,0 47.813,7.412"
             style="fill:none;stroke:#231f20;stroke-width:0.5;stroke-linecap:round;stroke-linejoin:round;stroke-miterlimit:4;stroke-dasharray:none;stroke-opacity:1"
             id="path3994"
             inkscape:connector-curvature="0" /></g></g></g><text
       transform="matrix(1,0,0,-1,223.064,139.4619)"
       style="font-variant:normal;font-weight:bold;font-stretch:normal;font-size:12px;font-family:'Swiss 721 SWA';-inkscape-font-specification:Helvetica-Bold;writing-mode:lr-tb;fill:#231f20;fill-opacity:1;fill-rule:nonzero;stroke:none"
       id="text3996"><tspan
         x="0"
         y="0"
         id="tspan3998">2</tspan></text>
</g></svg>