<?xml version="1.0" encoding="UTF-8" standalone="no"?>
<svg
   xmlns:dc="http://purl.org/dc/elements/1.1/"
   xmlns:cc="http://creativecommons.org/ns#"
   xmlns:rdf="http://www.w3.org/1999/02/22-rdf-syntax-ns#"
   xmlns:svg="http://www.w3.org/2000/svg"
   xmlns="http://www.w3.org/2000/svg"
   xmlns:sodipodi="http://sodipodi.sourceforge.net/DTD/sodipodi-0.dtd"
   xmlns:inkscape="http://www.inkscape.org/namespaces/inkscape"
   xml:space="preserve"
   height="768.0"
   viewBox="0,0 65416,45760"
   width="1024.0"
   id="svg4346"
   version="1.1"
   inkscape:version="0.91 r13725"
   sodipodi:docname="24 - ACCESSORIES CIRCUIT.svg"><metadata
     id="metadata4876"><rdf:RDF><cc:Work
         rdf:about=""><dc:format>image/svg+xml</dc:format><dc:type
           rdf:resource="http://purl.org/dc/dcmitype/StillImage" /></cc:Work></rdf:RDF></metadata><sodipodi:namedview
     pagecolor="#ffffff"
     bordercolor="#666666"
     borderopacity="1"
     objecttolerance="10"
     gridtolerance="10"
     guidetolerance="10"
     inkscape:pageopacity="0"
     inkscape:pageshadow="2"
     inkscape:window-width="2560"
     inkscape:window-height="1378"
     id="namedview4874"
     showgrid="false"
     inkscape:zoom="1.5742188"
     inkscape:cx="512"
     inkscape:cy="384"
     inkscape:window-x="-8"
     inkscape:window-y="-8"
     inkscape:window-maximized="1"
     inkscape:current-layer="g4352" /><defs
     id="defs4348"><style
       type="text/css"
       id="style4350"><![CDATA[
.A{stroke-width:59px;stroke:#808080;}
.A,.F,.H,.M,.K,.B,.E,.W,.S,.X,.Y,.R,.B1,.T,.Z,.A1,.U,.V,.D,.I,.C,.Q,.O,.P,.E1,.D1,.C1{stroke-dasharray:none;}
.B,.E,.W,.S,.X,.Y,.R,.B1,.T,.Z,.A1,.U,.V,.D,.I,.C,.Q,.O,.P,.E1,.D1,.C1{stroke-linecap:square;}
.B,.E,.Y,.R,.B1,.T,.A1,.V,.D,.I,.C{stroke-width:16px;}
.C,.C1{fill:#CCC;}
.E1,.D1,.C1{stroke-width:16.0px;}
.G,.F,.B,.E,.W,.S,.B1,.Z,.U,.D,.C,.Q,.O,.P,.E1,.D1,.C1{stroke:#000;}
.G,.N,.J,.L{stroke-dasharray:117,58;}
.G,.N,.J,.L,.A,.F,.H,.M,.K{stroke-linecap:butt;}
.G,.N,.J,.L,.A,.F,.H,.M,.K,.B,.E{fill-opacity:0.0;fill:none;}
.G,.N,.J,.L,.A,.F,.H,.M,.K,.B,.E,.D,.I,.C,.D1,.C1{font-family:sans-serif;}
.G,.N,.J,.L,.A,.F,.H,.M,.K,.B,.E,.Q,.O,.P,.E1,.D1,.C1{stroke-opacity:1.0;}
.G,.N,.J,.L,.A,.F,.H,.M,.K,.B,.E,.W,.S,.X,.Y,.R,.B1,.T,.Z,.A1,.U,.V,.D,.I,.C,.Q,.O,.P,.E1,.D1,.C1{fill-rule:evenodd;font-style:normal;font-weight:normal;stroke-linejoin:miter;stroke-miterlimit:10;}
.G,.N,.J,.L,.F,.H,.M,.K{stroke-width:85px;}
.I{fill:#0C0;}
.J,.H,.I{stroke:#0C0;}
.L,.K{stroke:#F4F4F4;}
.M{stroke:#F30;}
.N,.Y,.R,.T,.A1,.V{stroke:#03F;}
.O{font-size:662px;}
.P{font-size:771px;}
.S,.B1,.T,.Z,.A1,.E1{font-size:469px;}
.U,.V{font-family:Tahoma;font-size:393px;}
.W,.R,.Q{font-size:390px;}
.W,.S,.X,.Y,.R,.B1,.T,.Q,.O,.P,.E1{font-family:Arial;}
.W,.S,.X,.Y,.R,.B1,.T,.Z,.A1,.U,.V,.D,.I,.C{stroke-opacity:0.0;}
.W,.S,.X,.Y,.R,.B1,.T,.Z,.A1,.U,.V,.D,.I,.C,.Q,.O,.P,.E1,.D1,.C1{fill-opacity:1.0;}
.W,.S,.X,.Z,.U,.Q,.O,.P{stroke-width:0.5px;}
.W,.S,.Z,.U,.D,.Q,.O,.P,.E1,.D1{fill:#000;}
.X{fill:#999;stroke:#999;}
.X,.Y{font-size:312px;}
.Y,.R,.B1,.T,.A1,.V{fill:#FFF;}
.Z,.A1{font-family:Lucida Sans;}
]]></style></defs><g
     id="g4352"><g
       id="g4356"><circle
         class="C1"
         cx="64897"
         cy="41232"
         r="169"
         id="circle4358" /><circle
         class="C1"
         cx="64897"
         cy="41232"
         r="101"
         id="circle4360" /><rect
         class="C1"
         x="62019"
         y="41164"
         width="2708"
         height="135"
         id="rect4362" /><rect
         class="C1"
         x="61681"
         y="41164"
         width="338"
         height="135"
         id="rect4364" /></g><g
       id="g4366"><circle
         class="D1"
         cx="31213"
         cy="41232"
         r="270"
         id="circle4368" /></g><g
       id="g4370"><path
         class="C"
         d="M63035,6702v-338v-2031v-338h-338h-338v338v2031v338 z"
         id="path4372" /><path
         class="E"
         d="M63035,5009v677m-677,-677v677m677,-1354v-338h-677v338m0,2031v338h677v-338"
         id="path4374" /></g><g
       id="g4376"><path
         class="C"
         d="M4130,5348v-338v-677v-338h338h338v338v677v338 z"
         id="path4378" /><path
         class="E"
         d="M4130,4332v-338h677v338m0,677v338h-677v-338"
         id="path4380" /></g><g
       id="g4382"><path
         class="C"
         d="M4130,15504v-338v-2708v-338h338h338v338v2708v338 z"
         id="path4384" /><path
         class="E"
         d="M4130,12457v-338h677v338m0,677v1354m-677,-1354v1354m677,677v338h-677v-338"
         id="path4386" /></g><g
       id="g4388"><circle
         class="D1"
         cx="31213"
         cy="37847"
         r="270"
         id="circle4390" /></g><g
       id="g4392"><path
         class="C"
         d="M40692,15504v-338v-2708v-338h338h338v338v2708v338 z"
         id="path4394" /><path
         class="E"
         d="M40353,14826h677m-677,-2031h677m-338,-338v-338h677v338m0,677v1354m-677,-1354v1354m677,677v338h-677v-338"
         id="path4396" /></g><g
       id="g4398"><path
         class="C"
         d="M40015,15504v-338v-2708v-338h338h338v338v2708v338 z"
         id="path4400" /><path
         class="E"
         d="M40353,14826h677m-677,-2031h677m-1015,-338v-338h677v338m0,677v1354m-677,-1354v1354m677,677v338h-677v-338"
         id="path4402" /></g><g
       id="g4404"><circle
         class="D1"
         cx="54910"
         cy="36493"
         r="270"
         id="circle4406" /></g><g
       id="g4408"><circle
         class="C1"
         cx="64897"
         cy="36493"
         r="169"
         id="circle4410" /><circle
         class="C1"
         cx="64897"
         cy="36493"
         r="101"
         id="circle4412" /><rect
         class="C1"
         x="62019"
         y="36425"
         width="2708"
         height="135"
         id="rect4414" /><rect
         class="C1"
         x="61681"
         y="36425"
         width="338"
         height="135"
         id="rect4416" /></g><g
       id="g4418"><circle
         class="D1"
         cx="54910"
         cy="6025"
         r="270"
         id="circle4420" /></g><g
       id="g4422"><rect
         class="B"
         x="2099"
         y="4467"
         width="1354"
         height="406"
         id="rect4424" /><path
         class="E"
         d="M1422,4670h677m2031,0h-677"
         id="path4426" /></g><g
       id="g4428"><path
         class="E"
         d="M63035,6363v338h2031v-2708h-2031v338m0,1354v-677"
         id="path4430" /></g><g
       id="g4432"><path
         class="E"
         d="M4130,4332v-338h-2708v1354h2708v-338"
         id="path4434" /></g><g
       id="g4436"><path
         class="E"
         d="M4130,15165v338h-2708v-3385h2708v338m0,2031v-1354"
         id="path4438" /></g><g
       id="g4440"><path
         class="E"
         d="M62358,13134v1354m0,677v338h2708v-3385h-2708v338"
         id="path4442" /></g><g
       id="g4444"><circle
         class="D"
         cx="31213"
         cy="37847"
         r="42"
         id="circle4446" /><path
         class="F"
         d="M31213,37847h29791"
         id="path4448" /><circle
         class="D"
         cx="31213"
         cy="37847"
         r="42"
         id="circle4450" /><circle
         class="D"
         cx="61004"
         cy="37847"
         r="42"
         id="circle4452" /><path
         class="G"
         d="M31213,37847h29791"
         id="path4454" /><path
         class="F"
         d="M61004,37847l677,-1354"
         id="path4456" /><circle
         class="D"
         cx="61004"
         cy="37847"
         r="42"
         id="circle4458" /><circle
         class="D"
         cx="61681"
         cy="36493"
         r="42"
         id="circle4460" /><path
         class="G"
         d="M61004,37847l677,-1354"
         id="path4462" /></g><g
       id="g4464"><path
         class="F"
         d="M31213,37847v-23020"
         id="path4466" /><circle
         class="D"
         cx="31213"
         cy="37847"
         r="42"
         id="circle4468" /><circle
         class="D"
         cx="31213"
         cy="14826"
         r="42"
         id="circle4470" /><path
         class="G"
         d="M31213,37847v-23020"
         id="path4472" /><path
         class="F"
         d="M31213,14826h8801"
         id="path4474" /><circle
         class="D"
         cx="31213"
         cy="14826"
         r="42"
         id="circle4476" /><path
         class="G"
         d="M31213,14826h8801"
         id="path4478" /></g><g
       id="g4480"><path
         class="F"
         d="M54910,36493v-27082"
         id="path4482" /><circle
         class="D"
         cx="54910"
         cy="36493"
         r="42"
         id="circle4484" /><circle
         class="D"
         cx="54910"
         cy="9410"
         r="42"
         id="circle4486" /><path
         class="G"
         d="M54910,36493v-27082"
         id="path4488" /><path
         class="F"
         d="M54910,9410v-3385"
         id="path4490" /><circle
         class="D"
         cx="54910"
         cy="9410"
         r="42"
         id="circle4492" /><circle
         class="D"
         cx="54910"
         cy="6025"
         r="42"
         id="circle4494" /><path
         class="G"
         d="M54910,9410v-3385"
         id="path4496" /></g><g
       id="g4498"><circle
         class="D"
         cx="54910"
         cy="36493"
         r="42"
         id="circle4500" /><path
         class="F"
         d="M54910,36493h6770"
         id="path4502" /><circle
         class="D"
         cx="54910"
         cy="36493"
         r="42"
         id="circle4504" /><circle
         class="D"
         cx="61681"
         cy="36493"
         r="42"
         id="circle4506" /><path
         class="G"
         d="M54910,36493h6770"
         id="path4508" /></g><g
       id="g4510"><path
         class="F"
         d="M31213,41232h29791"
         id="path4512" /><circle
         class="D"
         cx="31213"
         cy="41232"
         r="42"
         id="circle4514" /><circle
         class="D"
         cx="61004"
         cy="41232"
         r="42"
         id="circle4516" /><path
         class="G"
         d="M31213,41232h29791"
         id="path4518" /><path
         class="F"
         d="M61004,41232h677"
         id="path4520" /><circle
         class="D"
         cx="61004"
         cy="41232"
         r="42"
         id="circle4522" /><path
         class="G"
         d="M61004,41232h677"
         id="path4524" /></g><g
       id="g4526"><path
         class="F"
         d="M4807,14826h6770"
         id="path4528" /><circle
         class="D"
         cx="11578"
         cy="14826"
         r="42"
         id="circle4530" /><path
         class="G"
         d="M4807,14826h6770"
         id="path4532" /><path
         class="F"
         d="M11578,14826v26405"
         id="path4534" /><circle
         class="D"
         cx="11578"
         cy="14826"
         r="42"
         id="circle4536" /><circle
         class="D"
         cx="11578"
         cy="41232"
         r="42"
         id="circle4538" /><path
         class="G"
         d="M11578,14826v26405"
         id="path4540" /><path
         class="F"
         d="M11578,41232h19635"
         id="path4542" /><circle
         class="D"
         cx="11578"
         cy="41232"
         r="42"
         id="circle4544" /><circle
         class="D"
         cx="31213"
         cy="41232"
         r="42"
         id="circle4546" /><path
         class="G"
         d="M11578,41232h19635"
         id="path4548" /></g><g
       id="g4550"><path
         class="F"
         d="M54910,6025h7447"
         id="path4552" /><circle
         class="D"
         cx="54910"
         cy="6025"
         r="42"
         id="circle4554" /><path
         class="G"
         d="M54910,6025h7447"
         id="path4556" /></g><g
       id="g4558"><path
         class="H"
         d="M17671,12795h-12864"
         id="path4560" /><circle
         class="I"
         cx="17671"
         cy="12795"
         r="42"
         id="circle4562" /><path
         class="J"
         d="M17671,12795h-12864"
         id="path4564" /></g><g
       id="g4566"><path
         class="H"
         d="M17671,12795h13541"
         id="path4568" /><circle
         class="I"
         cx="17671"
         cy="12795"
         r="42"
         id="circle4570" /><circle
         class="I"
         cx="31213"
         cy="12795"
         r="42"
         id="circle4572" /><path
         class="J"
         d="M17671,12795h13541"
         id="path4574" /></g><g
       id="g4576"><path
         class="H"
         d="M31213,12795h8801"
         id="path4578" /><circle
         class="I"
         cx="31213"
         cy="12795"
         r="42"
         id="circle4580" /><path
         class="J"
         d="M31213,12795h8801"
         id="path4582" /></g><g
       id="g4584"><path
         class="K"
         d="M41369,12795h20989"
         id="path4586" /><path
         class="L"
         d="M41369,12795h20989"
         id="path4588" /></g><g
       id="g4590"><path
         class="F"
         d="M41369,14826h20989"
         id="path4592" /><path
         class="G"
         d="M41369,14826h20989"
         id="path4594" /></g><g
       id="g4596"><path
         class="M"
         d="M4807,4670h57550"
         id="path4598" /><path
         class="N"
         d="M4807,4670h57550"
         id="path4600" /></g><g
       id="g4610"><text
         class="Q"
         x="61095"
         y="40590"
         id="text4612">ENGINE GROUND 2</text>
</g><g
       id="g4614"><rect
         class="R"
         x="59833"
         y="40926"
         width="1439"
         height="527"
         id="rect4616" /><text
         class="S"
         x="59906"
         y="41439"
         id="text4618">M99-1</text>
</g><g
       id="g4620"><rect
         class="T"
         x="30687"
         y="41588"
         width="1157"
         height="634"
         id="rect4622" /><text
         class="S"
         x="30830"
         y="42091"
         id="text4624">PG1</text>
</g><g
       id="g4626"><rect
         class="T"
         x="60510"
         y="4364"
         width="1439"
         height="527"
         id="rect4628" /><text
         class="S"
         x="60583"
         y="4877"
         id="text4630">M21-2</text>
</g><g
       id="g4632"><rect
         class="T"
         x="60510"
         y="5719"
         width="1439"
         height="527"
         id="rect4634" /><text
         class="S"
         x="60583"
         y="6231"
         id="text4636">M21-1</text>
</g><g
       id="g4638"><rect
         class="T"
         x="5216"
         y="4364"
         width="1665"
         height="527"
         id="rect4640" /><text
         class="S"
         x="5289"
         y="4877"
         id="text4642">F29-1B</text>
</g><g
       id="g4644"><rect
         class="T"
         x="5216"
         y="14520"
         width="1439"
         height="527"
         id="rect4646" /><text
         class="S"
         x="5289"
         y="15033"
         id="text4648">M01-8</text>
</g><g
       id="g4650"><rect
         class="T"
         x="5216"
         y="12489"
         width="1439"
         height="527"
         id="rect4652" /><text
         class="S"
         x="5289"
         y="13002"
         id="text4654">M01-6</text>
</g><g
       id="g4656"><rect
         class="T"
         x="30690"
         y="38216"
         width="1157"
         height="634"
         id="rect4658" /><text
         class="S"
         x="30834"
         y="38719"
         id="text4660">PG3</text>
</g><g
       id="g4662"><rect
         class="T"
         x="41778"
         y="12489"
         width="1862"
         height="527"
         id="rect4664" /><text
         class="S"
         x="41851"
         y="13002"
         id="text4666">M70M-1</text>
</g><g
       id="g4668"><rect
         class="T"
         x="41778"
         y="14520"
         width="1862"
         height="527"
         id="rect4670" /><text
         class="S"
         x="41851"
         y="15033"
         id="text4672">M70M-2</text>
</g><g
       id="g4674"><text
         class="U"
         x="39709"
         y="11997"
         id="text4676">USB SOCKET</text>
</g><g
       id="g4678"><rect
         class="V"
         x="38166"
         y="12489"
         width="1439"
         height="527"
         id="rect4680" /><text
         class="S"
         x="38239"
         y="13002"
         id="text4682">M70-1</text>
</g><g
       id="g4684"><rect
         class="T"
         x="38166"
         y="14520"
         width="1439"
         height="527"
         id="rect4686" /><text
         class="S"
         x="38239"
         y="15033"
         id="text4688">M70-2</text>
</g><g
       id="g4690"><rect
         class="T"
         x="54385"
         y="36826"
         width="1157"
         height="634"
         id="rect4692" /><text
         class="S"
         x="54529"
         y="37329"
         id="text4694">PG4</text>
</g><g
       id="g4696"><text
         class="W"
         x="61017"
         y="35798"
         id="text4698">ENGINE GROUND 1</text>
</g><g
       id="g4700"><rect
         class="R"
         x="59833"
         y="36187"
         width="1439"
         height="527"
         id="rect4702" /><text
         class="S"
         x="59906"
         y="36699"
         id="text4704">M98-1</text>
</g><g
       id="g4706"><rect
         class="T"
         x="54402"
         y="6482"
         width="1157"
         height="634"
         id="rect4708" /><text
         class="S"
         x="54546"
         y="6985"
         id="text4710">PG2</text>
</g><g
       id="g4712"><text
         class="X"
         x="2495"
         y="4817"
         id="text4714">10.0</text>
</g><g
       id="g4716"><text
         class="X"
         x="2546"
         y="4428"
         id="text4718">F21</text>
</g><g
       id="g4720"><text
         class="X"
         x="2468"
         y="5156"
         id="text4722">ACC</text>
</g><g
       id="g4724"><text
         class="U"
         x="58563"
         y="3872"
         id="text4726">FRONT ACCESSORY SOCKET, LIVE</text>
</g><g
       id="g4728"><rect
         class="V"
         x="63082"
         y="5815"
         width="1504"
         height="351"
         id="rect4730" /><text
         class="X"
         x="63131"
         y="6157"
         id="text4732">GROUND</text>
</g><g
       id="g4734"><rect
         class="Y"
         x="63082"
         y="4461"
         width="1561"
         height="351"
         id="rect4736" /><text
         class="X"
         x="63131"
         y="4803"
         id="text4738">BATTERY</text>
</g><g
       id="g4740"><text
         class="U"
         x="1545"
         y="3872"
         id="text4742">FUSE BOX 2</text>
</g><g
       id="g4744"><text
         class="U"
         x="1545"
         y="11997"
         id="text4746">INSTRUMENTS</text>
</g><g
       id="g4748"><rect
         class="V"
         x="2579"
         y="12585"
         width="1504"
         height="351"
         id="rect4750" /><text
         class="X"
         x="2628"
         y="12928"
         id="text4752">IGNITION</text>
</g><g
       id="g4754"><rect
         class="Y"
         x="2579"
         y="14617"
         width="1504"
         height="351"
         id="rect4756" /><text
         class="X"
         x="2628"
         y="14959"
         id="text4758">GROUND</text>
</g><g
       id="g4760"><text
         class="U"
         x="62640"
         y="11997"
         id="text4762">USB SOCKET</text>
</g><g
       id="g4764"><rect
         class="V"
         x="62405"
         y="12585"
         width="1561"
         height="351"
         id="rect4766" /><text
         class="X"
         x="62454"
         y="12928"
         id="text4768">POSITIVE</text>
</g><g
       id="g4770"><rect
         class="Y"
         x="62405"
         y="14617"
         width="1504"
         height="351"
         id="rect4772" /><text
         class="X"
         x="62454"
         y="14959"
         id="text4774">GROUND</text>
</g><g
       id="g4776"><rect
         class="Y"
         x="50205"
         y="37524"
         width="338"
         height="527"
         id="rect4778" /><text
         class="S"
         x="50278"
         y="38037"
         id="text4780">B</text>
</g><g
       id="g4782"><rect
         class="T"
         x="31062"
         y="25705"
         width="291"
         height="527"
         id="rect4784" /><text
         class="Z"
         x="31139"
         y="26218"
         id="text4786">B</text>
</g><g
       id="g4788"><rect
         class="A1"
         x="54769"
         y="25718"
         width="291"
         height="527"
         id="rect4790" /><text
         class="Z"
         x="54846"
         y="26230"
         id="text4792">B</text>
</g><g
       id="g4794"><rect
         class="A1"
         x="58126"
         y="36170"
         width="338"
         height="527"
         id="rect4796" /><text
         class="S"
         x="58199"
         y="36682"
         id="text4798">B</text>
</g><g
       id="g4800"><rect
         class="T"
         x="50205"
         y="40909"
         width="338"
         height="527"
         id="rect4802" /><text
         class="S"
         x="50278"
         y="41422"
         id="text4804">B</text>
</g><g
       id="g4806"><rect
         class="T"
         x="11432"
         y="25786"
         width="291"
         height="527"
         id="rect4808" /><text
         class="Z"
         x="11509"
         y="26299"
         id="text4810">B</text>
</g><g
       id="g4812"><rect
         class="A1"
         x="58465"
         y="5702"
         width="338"
         height="527"
         id="rect4814" /><text
         class="S"
         x="58538"
         y="6214"
         id="text4816">B</text>
</g><g
       id="g4818"><rect
         class="T"
         x="11042"
         y="12472"
         width="394"
         height="527"
         id="rect4820" /><text
         class="S"
         x="11115"
         y="12985"
         id="text4822">G</text>
</g><g
       id="g4824"><rect
         class="T"
         x="24245"
         y="12472"
         width="394"
         height="527"
         id="rect4826" /><text
         class="S"
         x="24318"
         y="12985"
         id="text4828">G</text>
</g><g
       id="g4830"><rect
         class="T"
         x="35416"
         y="12472"
         width="394"
         height="527"
         id="rect4832" /><text
         class="S"
         x="35489"
         y="12985"
         id="text4834">G</text>
</g><g
       id="g4836"><rect
         class="T"
         x="50134"
         y="12472"
         width="479"
         height="527"
         id="rect4838" /><text
         class="S"
         x="50207"
         y="12985"
         id="text4840">W</text>
</g><g
       id="g4842"><rect
         class="T"
         x="50205"
         y="14503"
         width="338"
         height="527"
         id="rect4844" /><text
         class="S"
         x="50278"
         y="15016"
         id="text4846">B</text>
</g><g
       id="g4848"><rect
         class="T"
         x="23974"
         y="4386"
         width="874"
         height="527"
         id="rect4850" /><text
         class="S"
         x="24047"
         y="4899"
         id="text4852">U/R</text>
</g><g
       id="g4854"><circle
         class="E1"
         cx="17671"
         cy="12795"
         r="270"
         id="circle4856" /></g><g
       id="g4858"><rect
         class="B1"
         x="17083"
         y="13253"
         width="1269"
         height="634"
         id="rect4860" /><text
         class="S"
         x="17227"
         y="13756"
         id="text4862">IGF1</text>
</g><g
       id="g4864"><circle
         class="E1"
         cx="31213"
         cy="12795"
         r="270"
         id="circle4866" /></g><g
       id="g4868"><rect
         class="B1"
         x="30620"
         y="13132"
         width="1325"
         height="634"
         id="rect4870" /><text
         class="S"
         x="30764"
         y="13635"
         id="text4872">IGR1</text>
</g></g></svg>