<?xml version="1.0" encoding="UTF-8" standalone="no"?>
<!-- Created with Inkscape (http://www.inkscape.org/) -->

<svg
   xmlns:dc="http://purl.org/dc/elements/1.1/"
   xmlns:cc="http://creativecommons.org/ns#"
   xmlns:rdf="http://www.w3.org/1999/02/22-rdf-syntax-ns#"
   xmlns:svg="http://www.w3.org/2000/svg"
   xmlns="http://www.w3.org/2000/svg"
   xmlns:sodipodi="http://sodipodi.sourceforge.net/DTD/sodipodi-0.dtd"
   xmlns:inkscape="http://www.inkscape.org/namespaces/inkscape"
   version="1.1"
   id="svg39170"
   xml:space="preserve"
   width="84.998428mm"
   height="65mm"
   viewBox="0 0 321.2539 245.66928"
   sodipodi:docname="TP0104.svg"
   inkscape:version="0.92.4 (5da689c313, 2019-01-14)"><metadata
     id="metadata39176"><rdf:RDF><cc:Work
         rdf:about=""><dc:format>image/svg+xml</dc:format><dc:type
           rdf:resource="http://purl.org/dc/dcmitype/StillImage" /><dc:title></dc:title></cc:Work></rdf:RDF></metadata><defs
     id="defs39174"><clipPath
       clipPathUnits="userSpaceOnUse"
       id="clipPath39186"><path
         d="m 0.59033,-1.48145 c 0,0 240.94043,0 240.94043,0 0,0 0,-184.25 0,-184.25 0,0 -240.94043,0 -240.94043,0 0,0 0,184.25 0,184.25 z"
         id="path39184"
         inkscape:connector-curvature="0" /></clipPath></defs><sodipodi:namedview
     pagecolor="#ffffff"
     bordercolor="#666666"
     borderopacity="1"
     objecttolerance="10"
     gridtolerance="10"
     guidetolerance="10"
     inkscape:pageopacity="0"
     inkscape:pageshadow="2"
     inkscape:window-width="1194"
     inkscape:window-height="801"
     id="namedview39172"
     showgrid="false"
     units="mm"
     inkscape:zoom="2.4434086"
     inkscape:cx="161.28157"
     inkscape:cy="122.22883"
     inkscape:window-x="100"
     inkscape:window-y="66"
     inkscape:window-maximized="0"
     inkscape:current-layer="g39178" /><g
     id="g39178"
     inkscape:groupmode="layer"
     inkscape:label="TP0104"
     transform="matrix(1.3333333,0,0,-1.3333333,-0.78710665,247.64455)"><g
       id="g39180"
       transform="scale(1,-1)"><g
         id="g39182"
         clip-path="url(#clipPath39186)"><path
           d="m 90.93799,-179.31836 c 0,0 9.20117,-0.31299 16.52783,6.19922 3.24902,2.88769 3.62598,2.896 5.48438,4.78271 6.35302,6.45215 13.17919,12.08497 19.91162,16.2334"
           style="fill:none;stroke:#231f20;stroke-width:0.25;stroke-linecap:round;stroke-linejoin:round;stroke-miterlimit:4;stroke-dasharray:none;stroke-opacity:1"
           id="path39188"
           inkscape:connector-curvature="0" /><path
           d="m 54.95947,-120.54004 c 0,0 2.18408,-14.64307 2.18408,-14.64307 0.14795,-0.86425 0.21387,-1.72021 -0.46093,-2.48828"
           style="fill:none;stroke:#231f20;stroke-width:0.5;stroke-linecap:round;stroke-linejoin:round;stroke-miterlimit:4;stroke-dasharray:none;stroke-opacity:1"
           id="path39190"
           inkscape:connector-curvature="0" /><path
           d="m 97.84863,-158.20215 c 0,0 -14.90478,0.18897 -14.90478,0.18897 -1.02783,0 -2.13819,0.008 -2.75879,-0.69922"
           style="fill:none;stroke:#231f20;stroke-width:0.5;stroke-linecap:round;stroke-linejoin:round;stroke-miterlimit:4;stroke-dasharray:none;stroke-opacity:1"
           id="path39192"
           inkscape:connector-curvature="0" /><path
           d="m 127.48193,-135.13037 c -7.41699,-1.49609 -8.35791,-7.79102 -8.35791,-7.79102 0,0 -0.19482,-0.76611 -1.54687,-7.15576 -1.35205,-6.38916 -6.40527,-10.02002 -6.40527,-10.02002 0,0 -4.58106,-0.0893 -8.35987,2.37403"
           style="fill:none;stroke:#231f20;stroke-width:0.5;stroke-linecap:round;stroke-linejoin:round;stroke-miterlimit:4;stroke-dasharray:none;stroke-opacity:1"
           id="path39194"
           inkscape:connector-curvature="0" /><path
           d="m 125.37842,-126.91455 c -1.36328,-1.66406 -3.3418,-2.5293 -5.35303,-2.5332 -2.26807,0 -4.28271,1.09179 -5.55908,2.79785"
           style="fill:none;stroke:#231f20;stroke-width:0.25;stroke-linecap:round;stroke-linejoin:round;stroke-miterlimit:4;stroke-dasharray:none;stroke-opacity:1"
           id="path39196"
           inkscape:connector-curvature="0" /><path
           d="m 122.57959,-125.07813 c -0.70508,-0.70507 -1.62988,-1.05908 -2.55371,-1.05908 -1.06494,0 -2.02197,0.46192 -2.68506,1.19678"
           style="fill:none;stroke:#231f20;stroke-width:0.25;stroke-linecap:round;stroke-linejoin:round;stroke-miterlimit:4;stroke-dasharray:none;stroke-opacity:1"
           id="path39198"
           inkscape:connector-curvature="0" /><path
           d="m 109.28613,-133.48584 c 1.96387,-1.33203 3.02686,-3.49512 3.03614,-5.729 0,-2.80518 -1.66944,-5.22315 -4.11231,-6.32618"
           style="fill:none;stroke:#231f20;stroke-width:0.25;stroke-linecap:round;stroke-linejoin:round;stroke-miterlimit:4;stroke-dasharray:none;stroke-opacity:1"
           id="path39200"
           inkscape:connector-curvature="0" /><path
           d="m 108.18945,-136.92285 c 0.55518,-0.67383 0.82422,-1.49024 0.82227,-2.29297 0,-0.8291 -0.28027,-1.59424 -0.74609,-2.1958"
           style="fill:none;stroke:#231f20;stroke-width:0.25;stroke-linecap:round;stroke-linejoin:round;stroke-miterlimit:4;stroke-dasharray:none;stroke-opacity:1"
           id="path39202"
           inkscape:connector-curvature="0" /><path
           d="m 103.34033,-156.91113 c 2.36231,-1.54004 5.06006,-2.0083 6.59619,-2.15528 0.36621,-0.0342 0.66309,-0.0508 0.87207,-0.0591 0,0 -0.002,-9.7e-4 -0.002,-9.7e-4 0.2168,0.17529 0.58496,0.48291 1.03369,0.91992 1.50733,1.46142 3.91504,4.31836 4.76416,8.33496 0,0 1.54883,7.16015 1.54883,7.16015 0,0 -0.0117,-0.062 -0.0117,-0.062 0,0 0.11279,0.79785 0.58496,1.92285 0.63916,1.52246 1.94287,3.66504 4.53369,5.19141 1.0918,0.64404 2.417,1.17871 4.02539,1.50391"
           style="fill:none;stroke:#231f20;stroke-width:0.25;stroke-linecap:round;stroke-linejoin:round;stroke-miterlimit:4;stroke-dasharray:none;stroke-opacity:1"
           id="path39204"
           inkscape:connector-curvature="0" /><path
           d="m 118.68213,-144.8877 c 0.96533,0.62403 5.77637,3.93897 8.81055,9.74219"
           style="fill:none;stroke:#231f20;stroke-width:0.5;stroke-linecap:round;stroke-linejoin:round;stroke-miterlimit:4;stroke-dasharray:none;stroke-opacity:1"
           id="path39206"
           inkscape:connector-curvature="0" /><path
           d="m 126.021,-137.59717 c -1.09375,-0.18896 -2.16114,0.0439 -3.03321,0.57569"
           style="fill:none;stroke:#231f20;stroke-width:0.5;stroke-linecap:round;stroke-linejoin:round;stroke-miterlimit:4;stroke-dasharray:none;stroke-opacity:1"
           id="path39208"
           inkscape:connector-curvature="0" /><path
           d="m 142.52002,-150.45605 c 0.23047,0 2.5459,1.85107 1.27148,5.67138 -1.27148,3.81885 -5.14453,15.4668 5.06543,21.09863"
           style="fill:none;stroke:#231f20;stroke-width:0.25;stroke-linecap:round;stroke-linejoin:round;stroke-miterlimit:4;stroke-dasharray:none;stroke-opacity:1"
           id="path39210"
           inkscape:connector-curvature="0" /><path
           d="m 106.23486,-55.39063 c 0,-2.74902 -2.22802,-4.97656 -4.97607,-4.97656 -2.74707,0 -4.9751,2.22754 -4.9751,4.97656 0,2.74708 2.22803,4.97461 4.9751,4.97461 2.74805,0 4.97607,-2.22753 4.97607,-4.97461"
           style="fill:none;stroke:#231f20;stroke-width:0.5;stroke-linecap:round;stroke-linejoin:round;stroke-miterlimit:4;stroke-dasharray:none;stroke-opacity:1"
           id="path39212"
           inkscape:connector-curvature="0" /><path
           d="m 104.40527,-48.86914 c 2.57129,-1.24121 4.07715,-3.80176 4.09619,-6.52149 0,-3.99902 -3.24316,-7.24121 -7.24218,-7.24121 -3.99903,0 -7.24073,3.24219 -7.24073,7.24121 0,0.84375 0.14405,1.6543 0.39502,2.35743"
           style="fill:none;stroke:#231f20;stroke-width:0.25;stroke-linecap:round;stroke-linejoin:round;stroke-miterlimit:4;stroke-dasharray:none;stroke-opacity:1"
           id="path39214"
           inkscape:connector-curvature="0" /><path
           d="m 66.80176,-74.61719 c 5.07617,3.51367 10.60205,5.83887 15.83008,7.40528 2.75732,0.82519 3.47119,1.19043 4.3789,1.58496 0.11914,0.05078 2.43018,1.27246 2.43018,4.68457 0,0 0,5.78613 0,5.78613 0,2.89355 -2.76514,3.83691 -2.83399,3.87695 0,0 -0.71093,0.33203 -1.38379,0.6416 -1.35107,0.61915 -2.5791,1.46875 -3.71533,2.40918 -3.30371,2.73145 -5.68603,6.56153 -6.59912,10.96485 -0.87353,2.98535 -5.21973,4.74609 -5.21973,4.74609 -0.94824,0.37793 -5.90087,2.4707 -6.66894,2.89063 0,0 0.03271,-0.01856 0.03271,-0.01856 0,0 -26.86669,14.48242 -26.86669,14.48242 -1.25098,0.59473 -2.20313,0.86231 -3.97217,0.11914 -2.80811,-1.17968 -5.65186,-1.91992 -8.38086,-1.89453 -2.35987,-0.002 -4.66602,0.44336 -6.79297,1.25391 -4.94629,1.88477 -8.93115,5.76367 -10.98486,10.72363 0,0 -1.02442,2.90528 -2.72022,4.17774"
           style="fill:none;stroke:#231f20;stroke-width:0.25;stroke-linecap:round;stroke-linejoin:round;stroke-miterlimit:4;stroke-dasharray:none;stroke-opacity:1"
           id="path39216"
           inkscape:connector-curvature="0" /><path
           d="m 65.76318,-98.16504 c 0,0 2.73731,6.06543 8.87793,10.19629"
           style="fill:none;stroke:#231f20;stroke-width:0.41701001;stroke-linecap:round;stroke-linejoin:round;stroke-miterlimit:4;stroke-dasharray:none;stroke-opacity:1"
           id="path39218"
           inkscape:connector-curvature="0" /><path
           d="m 49.63525,-140.57568 c -9.37402,19.11279 -6.00586,41.16308 7.04688,56.77978"
           style="fill:none;stroke:#231f20;stroke-width:0.25;stroke-linecap:round;stroke-linejoin:round;stroke-miterlimit:4;stroke-dasharray:none;stroke-opacity:1"
           id="path39220"
           inkscape:connector-curvature="0" /><path
           d="m 74.6416,-87.96973 c -0.5,-7.73974 -6.76465,-9.45459 -6.76465,-9.45459 0,0 -0.7373,-0.28222 -6.92236,-2.38183 -6.18408,-2.1001 -9.19092,-7.54737 -9.19092,-7.54737 0,0 0.4541,-4.55761 3.34815,-8.02002"
           style="fill:none;stroke:#231f20;stroke-width:0.5;stroke-linecap:round;stroke-linejoin:round;stroke-miterlimit:4;stroke-dasharray:none;stroke-opacity:1"
           id="path39222"
           inkscape:connector-curvature="0" /><path
           d="m 84.6543,-100.16113 c -2.25977,1.25879 -3.53955,3.59472 -3.55469,6.04687 0,1.91309 0.77588,3.6416 2.02881,4.89649"
           style="fill:none;stroke:#231f20;stroke-width:0.25;stroke-linecap:round;stroke-linejoin:round;stroke-miterlimit:4;stroke-dasharray:none;stroke-opacity:1"
           id="path39224"
           inkscape:connector-curvature="0" /><path
           d="m 86.02344,-97.12012 c -1.04004,0.69092 -1.60694,1.83008 -1.61182,3.00586 0,0.90088 0.32959,1.72363 0.87061,2.35059"
           style="fill:none;stroke:#231f20;stroke-width:0.25;stroke-linecap:round;stroke-linejoin:round;stroke-miterlimit:4;stroke-dasharray:none;stroke-opacity:1"
           id="path39226"
           inkscape:connector-curvature="0" /><path
           d="m 55.67188,-114.57568 c -1.69922,2.12744 -2.44825,4.64599 -2.76612,6.11132 -0.10888,0.50098 -0.16504,0.87793 -0.19189,1.0669 0,0 0,-0.003 0,-0.003 0.15576,0.24512 0.39697,0.60205 0.72412,1.02881 1.28369,1.68506 3.86084,4.43896 7.78662,5.77099 0,0 6.89844,2.375 6.89844,2.375 0,0 0.75488,0.20215 1.81201,0.80616 1.43652,0.81982 3.40674,2.38379 4.58301,5.16943 0.4956,1.17578 0.85156,2.57129 0.95996,4.22559"
           style="fill:none;stroke:#231f20;stroke-width:0.25;stroke-linecap:round;stroke-linejoin:round;stroke-miterlimit:4;stroke-dasharray:none;stroke-opacity:1"
           id="path39228"
           inkscape:connector-curvature="0" /><path
           d="m 73.26465,-92.91309 c -0.75928,0.89063 -1.10205,1.99903 -1.04346,3.08301"
           style="fill:none;stroke:#231f20;stroke-width:0.41701001;stroke-linecap:round;stroke-linejoin:round;stroke-miterlimit:4;stroke-dasharray:none;stroke-opacity:1"
           id="path39230"
           inkscape:connector-curvature="0" /><path
           d="m 67.44971,-121.82617 c -0.46631,1.36572 -1.81592,2.58984 -3.27198,2.54394 0,0 -9.20507,-1.26806 -9.20507,-1.26806 -0.08203,-0.0112 -0.16211,-0.0181 -0.23291,-0.0161 -0.93506,0 -1.69434,0.7583 -1.69434,1.69385 0,0.36621 0.11621,0.7041 0.30908,0.9751 0,0 5.27393,7.49023 5.27393,7.49023 0.29931,0.42578 0.74902,0.67969 1.22803,0.7461 0,0 14.35742,1.91259 14.35595,1.91259 2.13623,0.27637 4.22901,1.24805 5.89307,2.91309 0,0 -0.02295,-0.022 -0.02295,-0.022 0,0 3.79394,3.76904 3.79394,3.76904 0,0 0.01612,0.0171 0.01612,0.0171 1.4331,1.43311 2.31885,3.41309 2.31885,5.59912 0,4.37354 -3.54493,7.92041 -7.91895,7.92041 -0.32861,9.8e-4 -0.70361,-0.02246 -1.08398,-0.07422 -9.8e-4,0 -17.75684,-2.45507 -17.75684,-2.45507 0,0 -1.83691,12.73046 -1.83691,12.73046 0,0 34.38183,4.75293 34.38183,4.75293 2.771,0.37598 5.44824,1.71973 7.46826,3.99024 0,0 26.8628,30.22363 26.8628,30.22363 0,0 -0.003,-0.0039 -0.003,-0.0039 5.87988,6.61817 14.0459,10 22.29394,10.01368 16.46973,0 29.82129,-13.35157 29.82129,-29.82129 0,-2.02637 -0.20215,-4.00489 -0.55566,-5.72657 0,0 0.13476,0.917 0.13476,0.917 -1.47558,-9.33887 1.417,-19.10547 8.61133,-26.125 0,0 -0.37793,0.37695 -0.37793,0.37695 3.35449,-3.02344 5.06445,-7.19043 5.07031,-11.39355 0,-5.53809 -2.93554,-10.38868 -7.40136,-13.12305 0,0 9.7e-4,0 9.7e-4,0 0,0 -5.46679,-3.30664 -5.46679,-3.30664 -1.01563,-0.6211 -1.50391,-1.86035 -1.125,-3.02442 0,0 4.76367,-14.60986 4.76367,-14.60986 0,0 5.1582,1.61914 5.1582,1.61914 0,0 -0.0869,0.0688 -0.0869,0.0688 0,0 -5.77735,17.72021 -5.77735,17.72021"
           style="fill:none;stroke:#ffffff;stroke-width:3;stroke-linecap:round;stroke-linejoin:round;stroke-miterlimit:4;stroke-dasharray:none;stroke-opacity:1"
           id="path39232"
           inkscape:connector-curvature="0" /><path
           d="m 95.02148,-145.979 c 1.45606,-0.29004 2.91895,-1.42676 3.04395,-3.05469 0,0 -0.16992,-9.29004 -0.16992,-9.29004 0,0 0,-0.0322 0,-0.0322 0,-0.93603 0.75781,-1.69384 1.69385,-1.69384 0.40332,-9.8e-4 0.80908,0.14209 1.13232,0.4331 0,0 6.81299,6.12402 6.81299,6.12402 0.35986,0.32276 0.58789,0.78907 0.59472,1.30909 0,0 0.20118,14.47998 0.20118,14.47998 0.0332,2.35156 0.85498,4.50976 2.19384,6.1958 0,0 -0.019,-0.0239 -0.019,-0.0239 0,0 3.43408,4.31006 3.43408,4.31006 1.53418,1.75977 3.68604,2.66406 5.86328,2.66797 4.29346,0 7.77588,-3.48291 7.77588,-7.77832 0,0 -0.004,-0.20068 -0.004,-0.20068 0,0 -0.46192,-17.87012 -0.46192,-17.87012 0,0 13.01856,-0.4668 13.01856,-0.4668 0,0 0.16113,17.04199 0.16113,17.04199 0.0508,5.4419 4.27734,9.8667 9.64551,10.26368 0,0 9.2207,0.66113 9.2207,0.66113 1.54395,0.10986 2.91699,-0.84717 3.40625,-2.26709 0,0 4.62305,-13.72071 4.62305,-13.72071 0,0 -5.1582,-1.61914 -5.1582,-1.61914 0,0 -5.83887,17.39307 -5.83887,17.39307"
           style="fill:none;stroke:#ffffff;stroke-width:3;stroke-linecap:round;stroke-linejoin:round;stroke-miterlimit:4;stroke-dasharray:none;stroke-opacity:1"
           id="path39234"
           inkscape:connector-curvature="0" /><path
           d="m 43.8125,-41.44336 c -5.24609,-10.27637 -14.26074,-14.49805 -14.26074,-14.49805 0,0 0.10888,0.05762 0.10888,0.05762 -3.90429,-2.03223 -6.5249,-6.04785 -6.5249,-10.6748 0,-6.62598 5.37158,-11.99805 11.99658,-11.99805 1.82325,-0.01465 3.75,0.42187 5.54737,1.35937 0,0 0.0088,0.0059 0.0088,0.0059 0,0 14.73193,6.15332 24.31787,24.50098 0.89941,1.64063 1.42724,3.59668 1.42724,5.6748 0,6.625 -5.37109,11.9961 -11.99707,11.9961 -4.4292,-0.0293 -8.61523,-2.4375 -10.71093,-6.59473"
           style="fill:none;stroke:#231f20;stroke-width:0.5;stroke-linecap:round;stroke-linejoin:round;stroke-miterlimit:4;stroke-dasharray:none;stroke-opacity:1"
           id="path39236"
           inkscape:connector-curvature="0" /><path
           d="m 42.78564,-37.5918 c -6.08691,-11.92187 -16.54589,-16.81933 -16.54589,-16.81933 -4.52881,-2.3584 -6.87989,-6.66797 -6.51026,-13.08594 0.45215,-7.86035 7.67041,-14.86426 15.35645,-14.86426 2.11572,-0.01855 4.36181,0.4961 6.44677,1.58203 0,0 17.09083,7.13965 28.2129,28.42676 1.04296,1.9043 1.65625,4.17285 1.65625,6.58399 0,7.68652 -8.25391,14.52148 -15.9419,14.52148 -5.13818,-0.0332 -10.34424,-1.71973 -12.77539,-6.54199"
           style="fill:none;stroke:#231f20;stroke-width:0.25;stroke-linecap:round;stroke-linejoin:round;stroke-miterlimit:4;stroke-dasharray:none;stroke-opacity:1"
           id="path39238"
           inkscape:connector-curvature="0" /><path
           d="m 62.91992,-38.5332 c 0,0 -26.0249,-20.37696 -26.0249,-20.37696 -8.20898,-6.73242 -13.55713,-5.45996 -13.55713,-5.45996"
           style="fill:none;stroke:#231f20;stroke-width:0.5;stroke-linecap:round;stroke-linejoin:round;stroke-miterlimit:4;stroke-dasharray:none;stroke-opacity:1"
           id="path39240"
           inkscape:connector-curvature="0" /><path
           d="m 98.69531,-33.44043 c 0,-2.7627 -2.24023,-5.00293 -5.00195,-5.00293 -2.76123,0 -5.00195,2.24023 -5.00195,5.00293 0,2.7627 2.24072,5.00098 5.00195,5.00098 2.76172,0 5.00195,-2.23828 5.00195,-5.00098"
           style="fill:none;stroke:#231f20;stroke-width:0.25;stroke-linecap:round;stroke-linejoin:round;stroke-miterlimit:4;stroke-dasharray:none;stroke-opacity:1"
           id="path39242"
           inkscape:connector-curvature="0" /><path
           d="m 100.54004,-33.44043 c 0,-3.78125 -3.06592,-6.8457 -6.84668,-6.8457 -3.78027,0 -6.84619,3.06445 -6.84619,6.8457 0,3.78125 3.06592,6.8457 6.84619,6.8457 3.78076,0 6.84668,-3.06445 6.84668,-6.8457"
           style="fill:none;stroke:#231f20;stroke-width:0.25;stroke-linecap:round;stroke-linejoin:round;stroke-miterlimit:4;stroke-dasharray:none;stroke-opacity:1"
           id="path39244"
           inkscape:connector-curvature="0" /><path
           d="m 28.17383,-0.25195 c -0.93115,-1.55567 -2.57617,-2.42383 -4.29004,-2.4336 -1.81787,0 -3.40918,0.96875 -4.29688,2.43946"
           style="fill:none;stroke:#231f20;stroke-width:0.25;stroke-linecap:round;stroke-linejoin:round;stroke-miterlimit:4;stroke-dasharray:none;stroke-opacity:1"
           id="path39246"
           inkscape:connector-curvature="0" /><path
           d="m 30.22168,-0.27051 c -1.07617,-2.63672 -3.60986,-4.24219 -6.33789,-4.25976 -2.85303,0 -5.29932,1.74511 -6.34424,4.2705"
           style="fill:none;stroke:#231f20;stroke-width:0.25;stroke-linecap:round;stroke-linejoin:round;stroke-miterlimit:4;stroke-dasharray:none;stroke-opacity:1"
           id="path39248"
           inkscape:connector-curvature="0" /><path
           d="m 67.69873,-25.70801 c -0.72803,0.28906 -1.42725,0.62012 -2.01807,0.94141"
           style="fill:none;stroke:#231f20;stroke-width:0.25;stroke-linecap:round;stroke-linejoin:round;stroke-miterlimit:4;stroke-dasharray:none;stroke-opacity:1"
           id="path39250"
           inkscape:connector-curvature="0" /><path
           d="m 159.0249,-58.18555 c 0,-5.7539 -4.66504,-10.41894 -10.41894,-10.41894 -5.75586,0 -10.4209,4.66504 -10.4209,10.41894 0,5.75391 4.66504,10.41992 10.4209,10.41992 5.7539,0 10.41894,-4.66601 10.41894,-10.41992"
           style="fill:none;stroke:#231f20;stroke-width:0.25;stroke-linecap:round;stroke-linejoin:round;stroke-miterlimit:4;stroke-dasharray:none;stroke-opacity:1"
           id="path39252"
           inkscape:connector-curvature="0" /><path
           d="m 160.67432,-58.18555 c 0,-6.66504 -5.4043,-12.06836 -12.06836,-12.06836 -6.667,0 -12.07032,5.40332 -12.07032,12.06836 0,6.66602 5.40332,12.06836 12.07032,12.06836 6.66406,0 12.06836,-5.40234 12.06836,-12.06836"
           style="fill:none;stroke:#231f20;stroke-width:0.25;stroke-linecap:round;stroke-linejoin:round;stroke-miterlimit:4;stroke-dasharray:none;stroke-opacity:1"
           id="path39254"
           inkscape:connector-curvature="0" /><path
           d="m 132.95459,-53.51074 c 2.00879,6.74414 8.25781,11.66113 15.6543,11.66113 9.0205,0 16.33105,-7.31152 16.33105,-16.33105 0,-7.28516 -4.76855,-13.45606 -11.35449,-15.56153"
           style="fill:none;stroke:#231f20;stroke-width:0.25;stroke-linecap:round;stroke-linejoin:round;stroke-miterlimit:4;stroke-dasharray:none;stroke-opacity:1"
           id="path39256"
           inkscape:connector-curvature="0" /><path
           d="m 128.89893,-62.63184 c -0.32129,1.43067 -0.49122,2.91895 -0.49122,4.44629 0,11.1543 9.04297,20.19727 20.19825,20.19727 11.15429,0 20.19629,-9.04297 20.19629,-20.19727"
           style="fill:none;stroke:#231f20;stroke-width:0.5;stroke-linecap:round;stroke-linejoin:round;stroke-miterlimit:4;stroke-dasharray:none;stroke-opacity:1"
           id="path39258"
           inkscape:connector-curvature="0" /><path
           d="m 133.32373,-71.3916 c -1.51269,1.74902 -2.73144,3.75976 -3.57617,5.95703"
           style="fill:none;stroke:#231f20;stroke-width:0.5;stroke-linecap:round;stroke-linejoin:round;stroke-miterlimit:4;stroke-dasharray:none;stroke-opacity:1"
           id="path39260"
           inkscape:connector-curvature="0" /><path
           d="m 136.11377,-74.05664 c -0.67676,0.53223 -1.31738,1.10742 -1.91992,1.7207"
           style="fill:none;stroke:#231f20;stroke-width:0.5;stroke-linecap:round;stroke-linejoin:round;stroke-miterlimit:4;stroke-dasharray:none;stroke-opacity:1"
           id="path39262"
           inkscape:connector-curvature="0" /><path
           d="m 144.35596,-77.93457 c -2.58203,0.55273 -4.9795,1.59863 -7.0918,3.03516"
           style="fill:none;stroke:#231f20;stroke-width:0.5;stroke-linecap:round;stroke-linejoin:round;stroke-miterlimit:4;stroke-dasharray:none;stroke-opacity:1"
           id="path39264"
           inkscape:connector-curvature="0" /><path
           d="m 168.80225,-58.18555 c 0,-11.15429 -9.04297,-20.19726 -20.19727,-20.19726 -0.71777,0 -1.42676,0.03808 -2.12598,0.11133"
           style="fill:none;stroke:#231f20;stroke-width:0.5;stroke-linecap:round;stroke-linejoin:round;stroke-miterlimit:4;stroke-dasharray:none;stroke-opacity:1"
           id="path39266"
           inkscape:connector-curvature="0" /><path
           d="m 114.89502,-31.86914 c 0,0 1.67383,0.33594 1.67383,0.33594"
           style="fill:none;stroke:#231f20;stroke-width:0.25;stroke-linecap:round;stroke-linejoin:round;stroke-miterlimit:4;stroke-dasharray:none;stroke-opacity:1"
           id="path39268"
           inkscape:connector-curvature="0" /><path
           d="m 224.88525,-105.14063 c 0,-2.76123 -2.23925,-5.00097 -5.00097,-5.00097 -2.7627,0 -5.00293,2.23974 -5.00293,5.00097 0,2.76319 2.24023,5.00196 5.00293,5.00196 2.76172,0 5.00097,-2.23877 5.00097,-5.00196"
           style="fill:none;stroke:#231f20;stroke-width:0.25;stroke-linecap:round;stroke-linejoin:round;stroke-miterlimit:4;stroke-dasharray:none;stroke-opacity:1"
           id="path39270"
           inkscape:connector-curvature="0" /><path
           d="m 226.72998,-105.14063 c 0,-3.77978 -3.06543,-6.84521 -6.8457,-6.84521 -3.78223,0 -6.84668,3.06543 -6.84668,6.84521 0,3.78077 3.06445,6.84815 6.84668,6.84815 3.78027,0 6.8457,-3.06738 6.8457,-6.84815"
           style="fill:none;stroke:#231f20;stroke-width:0.25;stroke-linecap:round;stroke-linejoin:round;stroke-miterlimit:4;stroke-dasharray:none;stroke-opacity:1"
           id="path39272"
           inkscape:connector-curvature="0" /><path
           d="m 40.08008,-0.25 c 0,0 0.76123,-2.24902 4.60693,-4.4707 0,0 25.86231,-13.87598 25.86231,-13.87598 0,0 4.80957,-2.86328 9.36084,-2.86328 3.91699,0 6.59277,1.89062 6.59277,1.89062 0,0 9.8e-4,0 9.8e-4,0 5.52832,3.0918 12.27929,2.16309 16.91308,-1.79101 4.36035,-3.78613 10.78614,-4.28906 15.67627,-0.90625 0,0 0,0.002 0,0.002 0,0 3.41113,2.36231 3.41113,2.36231 0,0 -1.03222,-0.71485 -1.03222,-0.71485 8.26172,5.9668 17.82812,8.81641 27.13281,8.77344 23.68848,0 43.22559,-17.77539 46.02539,-40.93457 0,0 -0.004,0.04004 -0.004,0.04004 0.44239,-3.84961 2.19727,-7.60742 5.2461,-10.52442 0,-9.7e-4 21.47363,-20.55371 21.47363,-20.55371 0,0 2.35059,-2.56738 4.9541,-5.75683 2.60254,-3.19092 4.70313,-6.04492 5.62598,-7.80908 0.92383,-1.76319 3.39551,-5.70704 3.39551,-5.70704 0,0 7.53125,-10.69677 7.53125,-10.69677"
           style="fill:none;stroke:#231f20;stroke-width:0.5;stroke-linecap:round;stroke-linejoin:round;stroke-miterlimit:4;stroke-dasharray:none;stroke-opacity:1"
           id="path39274"
           inkscape:connector-curvature="0" /><path
           d="m 242.85303,-127.93018 c 0,0 -4.26367,6.17676 -4.26367,6.17579 -2.99512,4.29003 -8.57813,6.06396 -13.54981,4.02929 0,0 0,-0.002 0,-0.002 -1.71973,-0.70313 -3.50098,-1.03027 -5.15527,-1.01416 -7.5127,0 -13.60157,6.08887 -13.60157,13.60107 0,3.12696 1.05469,6.00782 2.80567,8.27295 1.48633,1.96875 2.39648,4.4336 2.39648,7.13086 -0.004,3.22754 -1.29882,6.43067 -3.84961,8.7832 0,0 -0.0117,-0.0068 -0.0117,-0.0068 0,0 -12.08497,11.02832 -12.08497,11.02832 0,0 -0.002,0 -0.002,0 -4.89355,4.46777 -7.73144,10.3457 -8.45117,16.40137 0,0 0.006,-0.0459 0.006,-0.0459 -2.38184,19.33105 -18.70313,34.15234 -38.48633,34.15234 -8.4209,0.02735 -17.00098,-2.73828 -24.17578,-8.46289 0,0 0.0332,0.02637 0.0332,0.02637 -2.41797,-1.92481 -5.16797,-3.14746 -7.89306,-3.67188 0,0 -1.67383,-0.33691 -1.67383,-0.33691 -3.77002,-0.77539 -7.07617,-3.27734 -8.71533,-7.02734 0,0 0.0112,0.02734 0.0112,0.02734 -2.21582,-5.10352 -7.1792,-8.16309 -12.49805,-8.19922 -6.5708,0 -12.05615,4.65137 -13.35693,10.92969 0,0 0.02295,-0.11719 0.02295,-0.11719 -0.78809,3.64648 -3.28516,6.80566 -6.96192,8.27344 0,0 -5.69922,2.27441 -5.69922,2.27441 0,0 -2.01465,0.94141 -2.01465,0.94141 0,0 -26.86816,14.48144 -26.86816,14.48144 -2.729,1.45801 -6.0542,1.64161 -9.02979,0.22364 0,0 0.02979,0.01367 0.02979,0.01367 -1.94482,-0.9336 -4,-1.36621 -5.93213,-1.34961 -5.71484,0 -10.61279,3.49512 -12.70703,8.55664 0,0 -0.80273,1.9375 -1.22363,2.59082"
           style="fill:none;stroke:#231f20;stroke-width:0.25;stroke-linecap:round;stroke-linejoin:round;stroke-miterlimit:4;stroke-dasharray:none;stroke-opacity:1"
           id="path39276"
           inkscape:connector-curvature="0" /><path
           d="m 203.68311,-105.85596 c 0.2998,-5.91113 3.72558,-11.36914 9.37109,-13.99121 0,0 -9.3291,13.90235 -9.3291,13.90235"
           style="fill:none;stroke:#231f20;stroke-width:0.25;stroke-linecap:round;stroke-linejoin:round;stroke-miterlimit:4;stroke-dasharray:none;stroke-opacity:1"
           id="path39278"
           inkscape:connector-curvature="0" /><path
           d="m 234.354,-134.53711 c 0,-4.5459 -3.68554,-8.23193 -8.23046,-8.23193 -4.54786,0 -8.23145,3.68603 -8.23145,8.23193 0,4.54492 3.68359,8.23096 8.23145,8.23096 4.54492,0 8.23046,-3.68604 8.23046,-8.23096 z"
           style="fill:none;stroke:#231f20;stroke-width:0.5;stroke-linecap:round;stroke-linejoin:round;stroke-miterlimit:4;stroke-dasharray:none;stroke-opacity:1"
           id="path39280"
           inkscape:connector-curvature="0" /><path
           d="m 221.94775,-141.45605 c 1.50782,1.70459 3.71192,2.77978 6.16797,2.77978 1.56348,0 3.02637,-0.43701 4.27246,-1.19482"
           style="fill:none;stroke:#231f20;stroke-width:0.5;stroke-linecap:round;stroke-linejoin:round;stroke-miterlimit:4;stroke-dasharray:none;stroke-opacity:1"
           id="path39282"
           inkscape:connector-curvature="0" /><path
           d="m 230.72314,-128.26221 c -1.59277,-3.12207 -4.83789,-5.26025 -8.58203,-5.26025 -1.4375,0 -2.80175,0.31494 -4.02734,0.87988"
           style="fill:none;stroke:#231f20;stroke-width:0.25;stroke-linecap:round;stroke-linejoin:round;stroke-miterlimit:4;stroke-dasharray:none;stroke-opacity:1"
           id="path39284"
           inkscape:connector-curvature="0" /><path
           d="m 145.64404,-156.44385 c -6.69531,-20.44092 -27.85888,-21.6167 -27.85888,-21.6167 0,0 10.49072,13.20459 27.85888,21.6167 z"
           style="fill:none;stroke:#231f20;stroke-width:0.25;stroke-linecap:round;stroke-linejoin:round;stroke-miterlimit:4;stroke-dasharray:none;stroke-opacity:1"
           id="path39286"
           inkscape:connector-curvature="0" /><path
           d="m 162.66943,-186.18115 c 16.23243,11.25586 37.13672,10.70996 52.80664,0.006"
           style="fill:none;stroke:#231f20;stroke-width:0.25;stroke-linecap:round;stroke-linejoin:round;stroke-miterlimit:4;stroke-dasharray:none;stroke-opacity:1"
           id="path39288"
           inkscape:connector-curvature="0" /><path
           d="m 173.00146,-89.19238 c -0.77832,1.94433 -2.00195,3.66797 -3.55761,5.0332 -1.76953,1.55078 -3.96875,2.6416 -6.44922,3.06055 0,0 -16.07715,2.71582 -16.07715,2.71582"
           style="fill:none;stroke:#231f20;stroke-width:0.5;stroke-linecap:round;stroke-linejoin:round;stroke-miterlimit:4;stroke-dasharray:none;stroke-opacity:1"
           id="path39290"
           inkscape:connector-curvature="0" /><path
           d="m 181.06494,-113.83936 c 0,0 -1.74609,5.35889 -1.74609,5.35889"
           style="fill:none;stroke:#231f20;stroke-width:0.5;stroke-linecap:round;stroke-linejoin:round;stroke-miterlimit:4;stroke-dasharray:none;stroke-opacity:1"
           id="path39292"
           inkscape:connector-curvature="0" /><path
           d="m 178.8833,-107.1416 c 0,0 -5.37012,16.46972 -5.37012,16.46972"
           style="fill:none;stroke:#231f20;stroke-width:1;stroke-linecap:round;stroke-linejoin:round;stroke-miterlimit:4;stroke-dasharray:none;stroke-opacity:1"
           id="path39294"
           inkscape:connector-curvature="0" /><path
           d="m 58.86963,-135.18262 c 0,0 -6.10986,-6.95215 -6.10986,-6.95215 0,0 23.38476,-21.17431 23.38476,-21.17431 0,0 6.11084,6.95312 6.11084,6.95312"
           style="fill:none;stroke:#231f20;stroke-width:0.5;stroke-linecap:round;stroke-linejoin:round;stroke-miterlimit:4;stroke-dasharray:none;stroke-opacity:1"
           id="path39296"
           inkscape:connector-curvature="0" /><path
           d="m 100.47461,-132.64014 c 0,-10.02929 -8.12988,-18.1582 -18.1582,-18.1582 -10.02784,0 -18.15772,8.12891 -18.15772,18.1582 0,10.02881 8.12988,18.15772 18.15772,18.15772 10.02832,0 18.1582,-8.12891 18.1582,-18.15772"
           style="fill:none;stroke:#231f20;stroke-width:0.5;stroke-linecap:round;stroke-linejoin:round;stroke-miterlimit:4;stroke-dasharray:none;stroke-opacity:1"
           id="path39298"
           inkscape:connector-curvature="0" /><path
           d="m 95.53906,-132.64014 c 0,-7.30224 -5.91992,-13.22314 -13.22265,-13.22314 -7.30323,0 -13.22315,5.9209 -13.22315,13.22314 0,7.30274 5.91992,13.22266 13.22315,13.22266 7.30273,0 13.22265,-5.91992 13.22265,-13.22266"
           style="fill:none;stroke:#231f20;stroke-width:0.25;stroke-linecap:round;stroke-linejoin:round;stroke-miterlimit:4;stroke-dasharray:none;stroke-opacity:1"
           id="path39300"
           inkscape:connector-curvature="0" /><path
           d="m 28.23291,-118.04346 c 0,-7.09668 -5.75488,-12.85156 -12.85156,-12.85156 -7.09912,0 -12.85303,5.75488 -12.85303,12.85156 0,7.09912 5.75391,12.85401 12.85303,12.85401 7.09668,0 12.85156,-5.75489 12.85156,-12.85401"
           style="fill:none;stroke:#231f20;stroke-width:0.25;stroke-linecap:round;stroke-linejoin:round;stroke-miterlimit:4;stroke-dasharray:none;stroke-opacity:1"
           id="path39302"
           inkscape:connector-curvature="0" /><path
           d="m 30.18066,-118.04346 c 0,-8.17285 -6.62695,-14.79883 -14.7998,-14.79883 -8.17529,0 -14.80029,6.62598 -14.80029,14.79883 0,8.17627 6.625,14.80225 14.80029,14.80225 8.17285,0 14.7998,-6.62598 14.7998,-14.80225"
           style="fill:none;stroke:#231f20;stroke-width:0.5;stroke-linecap:round;stroke-linejoin:round;stroke-miterlimit:4;stroke-dasharray:none;stroke-opacity:1"
           id="path39304"
           inkscape:connector-curvature="0" /><path
           d="m 0.25049,-108.12207 c 3.45508,5.27002 9.19092,8.1416 15.12988,8.17187 9.99121,0 18.09326,-8.10009 18.09326,-18.09326 0,-9.99072 -8.10205,-18.09179 -18.09326,-18.09179 -6.2998,0 -11.84814,3.22021 -15.12988,8.17187"
           style="fill:none;stroke:#231f20;stroke-width:0.5;stroke-linecap:round;stroke-linejoin:round;stroke-miterlimit:4;stroke-dasharray:none;stroke-opacity:1"
           id="path39306"
           inkscape:connector-curvature="0" /><path
           d="m 47.70557,-144.19824 c 0,0 -1.98243,1.89697 -1.98243,1.89697 -1.00976,0.96826 -1.74365,2.11523 -2.17382,3.29102 0,0 -10.40088,27.65185 -10.40088,27.65185 0,0 0,-0.003 0,-0.003 -2.78125,7.24903 -9.68408,12.30225 -17.76807,12.30225 -5.77099,-0.02002 -11.41211,-2.61133 -15.12988,-7.51709"
           style="fill:none;stroke:#231f20;stroke-width:0.5;stroke-linecap:round;stroke-linejoin:round;stroke-miterlimit:4;stroke-dasharray:none;stroke-opacity:1"
           id="path39308"
           inkscape:connector-curvature="0" /><path
           d="m 29.62598,-150.74902 c 0,0 -2.64112,-0.58985 -2.64112,-0.58985 -0.87304,-0.24023 -1.59082,0.39258 -1.59082,0.39258 0,0 -22.10595,18.27149 -22.10595,18.27002 -1.19336,0.98438 -2.2334,2.08545 -3.03711,3.16846"
           style="fill:none;stroke:#231f20;stroke-width:0.5;stroke-linecap:round;stroke-linejoin:round;stroke-miterlimit:4;stroke-dasharray:none;stroke-opacity:1"
           id="path39310"
           inkscape:connector-curvature="0" /><path
           d="m 39.5415,-118.04346 c 0,-0.43359 -0.0122,-0.8667 -0.03173,-1.23486"
           style="fill:none;stroke:#231f20;stroke-width:0.41701001;stroke-linecap:round;stroke-linejoin:round;stroke-miterlimit:4;stroke-dasharray:none;stroke-opacity:1"
           id="path39312"
           inkscape:connector-curvature="0" /><path
           d="m 14.80811,-142.19531 c -5.54493,0.13086 -10.61084,2.11963 -14.55811,5.31689"
           style="fill:none;stroke:#231f20;stroke-width:0.5;stroke-linecap:round;stroke-linejoin:round;stroke-miterlimit:4;stroke-dasharray:none;stroke-opacity:1"
           id="path39314"
           inkscape:connector-curvature="0" /><path
           d="m 39.104,-127.19092 c 0,0 0.40479,7.91113 0.40479,7.91113 0,0 0.0332,1.23682 0.0332,1.23682 0,13.34424 -10.81787,24.16113 -24.16113,24.16113 C 10.10498,-93.86475 4.73291,-95.60596 0.25,-99.20508"
           style="fill:none;stroke:#231f20;stroke-width:0.5;stroke-linecap:round;stroke-linejoin:round;stroke-miterlimit:4;stroke-dasharray:none;stroke-opacity:1"
           id="path39316"
           inkscape:connector-curvature="0" /><path
           d="m 0.25049,-98.78711 c 0,0 0,-40.34277 0,-40.34277 0,0 3.78271,-5.2041 3.78271,-5.2041 0,0 6.9834,-1.8252 6.9834,-1.8252 0,0 -3.94824,5.43018 -3.94824,5.43018"
           style="fill:none;stroke:#231f20;stroke-width:0.5;stroke-linecap:round;stroke-linejoin:round;stroke-miterlimit:4;stroke-dasharray:none;stroke-opacity:1"
           id="path39318"
           inkscape:connector-curvature="0" /><path
           d="m 3.31982,-93.13184 c 3.94922,1.91309 8.12842,2.80079 12.06104,2.76758 15.28613,0 27.67822,-12.39258 27.67822,-27.6792 0,-3.54638 -0.66894,-6.93701 -1.81885,-9.86523"
           style="fill:none;stroke:#231f20;stroke-width:0.25;stroke-linecap:round;stroke-linejoin:round;stroke-miterlimit:4;stroke-dasharray:none;stroke-opacity:1"
           id="path39320"
           inkscape:connector-curvature="0" /><path
           d="m 3.89502,-81.85938 c 14.26514,4.52637 29.2207,0.1875 39.08301,-10.11621"
           style="fill:none;stroke:#231f20;stroke-width:0.25;stroke-linecap:round;stroke-linejoin:round;stroke-miterlimit:4;stroke-dasharray:none;stroke-opacity:1"
           id="path39322"
           inkscape:connector-curvature="0" /><path
           d="m 27.75488,-152.49316 c 0,0 7.29395,6.38525 7.29395,6.38525 0,0 2.8208,-3.18701 2.8208,-3.18701 0,0 -7.20703,-6.30615 -7.20703,-6.30615 -0.41504,-0.41602 -0.95996,-0.62403 -1.50586,-0.62403 -1.17578,0 -2.12891,0.95313 -2.12891,2.13037 0,0.6377 0.28076,1.21192 0.72705,1.60157 z"
           style="fill:none;stroke:#231f20;stroke-width:0.5;stroke-linecap:round;stroke-linejoin:round;stroke-miterlimit:4;stroke-dasharray:none;stroke-opacity:1"
           id="path39324"
           inkscape:connector-curvature="0" /><path
           d="m 32.81299,-153.71973 c 0,0 -0.14014,-2.43506 -0.14014,-2.43506 -9.7e-4,-0.022 -0.0019,-0.0469 -0.0019,-0.0742 9.8e-4,-0.3667 0.15381,-0.72998 0.45117,-0.98682 0,0 0.90186,-0.78125 0.90186,-0.78125 6.97802,-6.01367 11.51709,-6.60889 11.51709,-6.60889"
           style="fill:none;stroke:#231f20;stroke-width:0.5;stroke-linecap:round;stroke-linejoin:round;stroke-miterlimit:4;stroke-dasharray:none;stroke-opacity:1"
           id="path39326"
           inkscape:connector-curvature="0" /><path
           d="m 0.2373,-153.48779 c 0,0 8.10303,-4.21387 10.45215,-6.72608 2.3501,-2.51172 3.16065,-3.72656 3.16065,-3.72656 0,0 1.62011,-2.1084 1.70117,-4.8623 0.08203,-2.75489 0.08203,-8.26514 0.08203,-8.26514 0,0 -0.08203,-2.91797 1.45703,-5.10498 1.54004,-2.18701 2.59424,-3.40381 2.59424,-3.40381"
           style="fill:none;stroke:#231f20;stroke-width:0.25;stroke-linecap:round;stroke-linejoin:round;stroke-miterlimit:4;stroke-dasharray:none;stroke-opacity:1"
           id="path39328"
           inkscape:connector-curvature="0" /><path
           d="m 39.43408,-179.9624 c 0,0 -7.25683,7.66894 -3.83398,18.07568"
           style="fill:none;stroke:#231f20;stroke-width:0.25;stroke-linecap:round;stroke-linejoin:round;stroke-miterlimit:4;stroke-dasharray:none;stroke-opacity:1"
           id="path39330"
           inkscape:connector-curvature="0" /><path
           d="m 26.79932,-155.15576 c 0,0 -1.05371,-0.80908 -1.05371,-0.80908 -0.97217,-0.72998 -2.18799,0.80908 -2.18799,0.80908 0,0 -3.80811,4.94385 -6.56299,8.18359 -2.75635,3.24219 -6.7251,3.56641 -6.7251,3.56641"
           style="fill:none;stroke:#231f20;stroke-width:0.25;stroke-linecap:round;stroke-linejoin:round;stroke-miterlimit:4;stroke-dasharray:none;stroke-opacity:1"
           id="path39332"
           inkscape:connector-curvature="0" /><path
           d="m 169.63916,-91.71484 c -8.85059,-5.42286 -17.51465,-5.92188 -17.51465,-5.92188 -4.41211,-0.62842 -7.76855,-4.38232 -7.76855,-8.91846 0,-4.97265 4.03125,-9.0039 9.0039,-9.0039 0.28809,-0.003 0.61914,0.0151 0.95313,0.0503 0,0 -9.8e-4,0 -9.8e-4,0 0,0 13.36817,1.48291 24.57031,8.36768 2.41504,1.64013 3.98047,4.37402 3.98047,7.47216 0,4.97217 -4.03125,9.00293 -9.0039,9.00293 -1.69434,0.01075 -3.44922,-0.47949 -4.99903,-1.51367"
           style="fill:none;stroke:#231f20;stroke-width:1;stroke-linecap:round;stroke-linejoin:round;stroke-miterlimit:4;stroke-dasharray:none;stroke-opacity:1"
           id="path39334"
           inkscape:connector-curvature="0" /><path
           d="m 162.66943,-186.18115 c 16.23243,11.25586 37.13672,10.70996 52.80664,0.006"
           style="fill:none;stroke:#231f20;stroke-width:0.25;stroke-linecap:round;stroke-linejoin:round;stroke-miterlimit:4;stroke-dasharray:none;stroke-opacity:1"
           id="path39336"
           inkscape:connector-curvature="0" /><path
           d="m 155.80127,-121.98682 c 0,0 -1.8252,5.43457 -1.8252,5.43457"
           style="fill:none;stroke:#231f20;stroke-width:0.5;stroke-linecap:round;stroke-linejoin:round;stroke-miterlimit:4;stroke-dasharray:none;stroke-opacity:1"
           id="path39338"
           inkscape:connector-curvature="0" /><path
           d="m 153.64209,-115.55469 c 0,0 -4.03809,12.02783 -4.03809,12.02783 -0.53222,1.58399 -0.8457,3.19336 -0.94629,4.65137"
           style="fill:none;stroke:#231f20;stroke-width:1;stroke-linecap:round;stroke-linejoin:round;stroke-miterlimit:4;stroke-dasharray:none;stroke-opacity:1"
           id="path39340"
           inkscape:connector-curvature="0" /><path
           d="m 151.94678,-84.65332 c 0,0 -1.51465,-2.23438 -1.51465,-2.23438 -0.87598,-1.27148 -1.44043,-2.83789 -1.5332,-4.54199 0,0 -0.26856,-4.89209 -0.26856,-4.89209 -0.0264,-0.43115 -0.0361,-0.93213 -0.0264,-1.43701"
           style="fill:none;stroke:#231f20;stroke-width:0.5;stroke-linecap:round;stroke-linejoin:round;stroke-miterlimit:4;stroke-dasharray:none;stroke-opacity:1"
           id="path39342"
           inkscape:connector-curvature="0" /><path
           d="m 153.98486,-96.06299 c 0,0 0.24219,4.3999 0.24219,4.3999 0.0342,0.65723 0.24219,1.26368 0.58008,1.75391 0,0 0.0205,0.03125 0.0205,0.03125 0,0 3.03808,4.22461 3.03808,4.22461"
           style="fill:none;stroke:#231f20;stroke-width:0.5;stroke-linecap:round;stroke-linejoin:round;stroke-miterlimit:4;stroke-dasharray:none;stroke-opacity:1"
           id="path39344"
           inkscape:connector-curvature="0" /><path
           d="m 150.11865,-84.33203 c 0,0 11.98535,-2.03711 11.98535,-2.03711 2.75391,-0.46484 4.92579,-2.32715 5.92286,-4.77149"
           style="fill:none;stroke:#231f20;stroke-width:0.5;stroke-linecap:round;stroke-linejoin:round;stroke-miterlimit:4;stroke-dasharray:none;stroke-opacity:1"
           id="path39346"
           inkscape:connector-curvature="0" /><path
           d="m 132.14307,-77.71094 c 3.37597,-2.85937 7.53613,-4.87011 12.208,-5.65918 0,0 0.88965,-0.15136 0.88965,-0.15136"
           style="fill:none;stroke:#231f20;stroke-width:0.5;stroke-linecap:round;stroke-linejoin:round;stroke-miterlimit:4;stroke-dasharray:none;stroke-opacity:1"
           id="path39348"
           inkscape:connector-curvature="0" /><path
           d="m 123.78174,-64.12891 c 1.1582,-4.80566 3.66797,-9.13964 7.16699,-12.50488"
           style="fill:none;stroke:#231f20;stroke-width:0.5;stroke-linecap:round;stroke-linejoin:round;stroke-miterlimit:4;stroke-dasharray:none;stroke-opacity:1"
           id="path39350"
           inkscape:connector-curvature="0" /><path
           d="m 167.14014,-75.75781 c 0,0 -4.93555,-5.20703 -4.93555,-5.20703 0,0 -1.5459,0.26074 -1.5459,0.26074 8.08887,4.39453 13.48731,12.82617 13.48731,22.51855 0,14.10645 -11.43555,25.54004 -25.54102,25.54004 -14.10547,0 -25.54199,-11.43359 -25.54199,-25.54004 0.004,-0.7666 0.041,-1.52734 0.11133,-2.28027"
           style="fill:none;stroke:#231f20;stroke-width:0.5;stroke-linecap:round;stroke-linejoin:round;stroke-miterlimit:4;stroke-dasharray:none;stroke-opacity:1"
           id="path39352"
           inkscape:connector-curvature="0" /><path
           d="m 176.6333,-117.48584 c 0,0 -2.03125,6.229 -2.03125,6.229"
           style="fill:none;stroke:#231f20;stroke-width:0.5;stroke-linecap:round;stroke-linejoin:round;stroke-miterlimit:4;stroke-dasharray:none;stroke-opacity:1"
           id="path39354"
           inkscape:connector-curvature="0" /><path
           d="m 174.10205,-109.72266 c 0,0 -5.64258,17.31055 -5.64258,17.31055"
           style="fill:none;stroke:#231f20;stroke-width:1;stroke-linecap:round;stroke-linejoin:round;stroke-miterlimit:4;stroke-dasharray:none;stroke-opacity:1"
           id="path39356"
           inkscape:connector-curvature="0" /><path
           d="m 161.67041,-122.54395 c 0,0 -2.26953,6.73291 -2.26953,6.73291"
           style="fill:none;stroke:#231f20;stroke-width:0.5;stroke-linecap:round;stroke-linejoin:round;stroke-miterlimit:4;stroke-dasharray:none;stroke-opacity:1"
           id="path39358"
           inkscape:connector-curvature="0" /><path
           d="m 159.02686,-114.69971 c 0,0 -4.37012,12.97022 -4.37012,12.97022 -0.48438,1.44482 -0.72266,2.91308 -0.72754,4.30078"
           style="fill:none;stroke:#231f20;stroke-width:1;stroke-linecap:round;stroke-linejoin:round;stroke-miterlimit:4;stroke-dasharray:none;stroke-opacity:1"
           id="path39360"
           inkscape:connector-curvature="0" /><path
           d="m 127.56592,-132.32178 c 0,-0.0679 -0.002,-0.13769 -0.004,-0.19677"
           style="fill:none;stroke:#231f20;stroke-width:0.41701001;stroke-linecap:round;stroke-linejoin:round;stroke-miterlimit:4;stroke-dasharray:none;stroke-opacity:1"
           id="path39362"
           inkscape:connector-curvature="0" /><path
           d="m 165.25342,-133.17871 c 0,0 14.88965,4.92578 14.88965,4.92578"
           style="fill:none;stroke:#231f20;stroke-width:1;stroke-linecap:round;stroke-linejoin:round;stroke-miterlimit:4;stroke-dasharray:none;stroke-opacity:1"
           id="path39364"
           inkscape:connector-curvature="0" /><path
           d="m 128.9624,-142.04883 c 0,0 9.1543,-0.32715 9.1543,-0.32715"
           style="fill:none;stroke:#231f20;stroke-width:0.25;stroke-linecap:round;stroke-linejoin:round;stroke-miterlimit:4;stroke-dasharray:none;stroke-opacity:1"
           id="path39366"
           inkscape:connector-curvature="0" /><path
           d="m 164.36865,-125.91211 c 0,0 12.21875,4.04199 12.21875,4.04199"
           style="fill:none;stroke:#231f20;stroke-width:0.5;stroke-linecap:round;stroke-linejoin:round;stroke-miterlimit:4;stroke-dasharray:none;stroke-opacity:1"
           id="path39368"
           inkscape:connector-curvature="0" /><path
           d="m 148.99951,-149.06787 c 0,0 12.49707,6.36523 25.80469,8.44922"
           style="fill:none;stroke:#231f20;stroke-width:0.25;stroke-linecap:round;stroke-linejoin:round;stroke-miterlimit:4;stroke-dasharray:none;stroke-opacity:1"
           id="path39370"
           inkscape:connector-curvature="0" /><path
           d="m 149.56104,-155.49854 c 31.18457,14.34717 66.13671,10.28809 93.01562,-7.93896"
           style="fill:none;stroke:#231f20;stroke-width:0.25;stroke-linecap:round;stroke-linejoin:round;stroke-miterlimit:4;stroke-dasharray:none;stroke-opacity:1"
           id="path39372"
           inkscape:connector-curvature="0" /><path
           d="m 242.78662,-150.57227 c -3.90234,2.34668 -8.55762,4.68897 -13.44238,6.70606 0,0 -0.043,0.22998 -0.043,0.22998 3.79297,1.354 6.45898,4.91504 6.45898,9.09912 0,5.32275 -4.31445,9.6377 -9.63671,9.6377 -5.32325,0 -9.63868,-4.31495 -9.63868,-9.6377 -0.0117,-1.73633 0.47266,-3.53906 1.49512,-5.15625 0,0 -0.16016,-0.17676 -0.16016,-0.17676 -10.72851,3.15576 -22.96972,4.58789 -35.58691,3.76758"
           style="fill:none;stroke:#231f20;stroke-width:0.25;stroke-linecap:round;stroke-linejoin:round;stroke-miterlimit:4;stroke-dasharray:none;stroke-opacity:1"
           id="path39374"
           inkscape:connector-curvature="0" /><path
           d="m 142.71631,-167.79541 c 0,0 25.81348,12.2832 32.40039,18.33594"
           style="fill:none;stroke:#231f20;stroke-width:0.25;stroke-linecap:round;stroke-linejoin:round;stroke-miterlimit:4;stroke-dasharray:none;stroke-opacity:1"
           id="path39376"
           inkscape:connector-curvature="0" /><path
           d="m 107.41943,-105.50098 c 0,-0.55615 -0.45117,-1.0083 -1.00683,-1.0083 -0.55615,0 -1.00733,0.45215 -1.00733,1.0083 0,0.55713 0.45118,1.00684 1.00733,1.00684 0.0327,0 0.0659,-0.002 0.0928,-0.004"
           style="fill:none;stroke:#231f20;stroke-width:0.5;stroke-linecap:round;stroke-linejoin:round;stroke-miterlimit:4;stroke-dasharray:none;stroke-opacity:1"
           id="path39378"
           inkscape:connector-curvature="0" /><path
           d="m 107.39941,-105.29346 c 0.0151,-0.0727 0.021,-0.14404 0.02,-0.208"
           style="fill:none;stroke:#231f20;stroke-width:0.41701001;stroke-linecap:round;stroke-linejoin:round;stroke-miterlimit:4;stroke-dasharray:none;stroke-opacity:1"
           id="path39380"
           inkscape:connector-curvature="0" /><path
           d="m 108.47217,-104.09131 c 0.29785,-0.43408 0.43896,-0.93017 0.43799,-1.41015 0,-1.37891 -1.11914,-2.49561 -2.49707,-2.49561 -1.3794,0 -2.49707,1.1167 -2.49707,2.49561 0,1.38037 1.11767,2.49707 2.49707,2.49707 0.42578,0 0.82861,-0.10694 1.16601,-0.28907"
           style="fill:none;stroke:#231f20;stroke-width:0.25;stroke-linecap:round;stroke-linejoin:round;stroke-miterlimit:4;stroke-dasharray:none;stroke-opacity:1"
           id="path39382"
           inkscape:connector-curvature="0" /><path
           d="m 76.30859,-115.50439 c 0.042,0.0249 2.44873,2.90673 7.98291,2.6499 5.53125,-0.25928 7.48389,0.0391 9.55909,2.31494 0,0 7.89111,8.64697 7.89111,8.64697 0,0 -9.8e-4,-9.7e-4 -9.8e-4,-9.7e-4 2.03565,2.23193 5.39258,2.54296 7.81201,0.81005"
           style="fill:none;stroke:#231f20;stroke-width:0.5;stroke-linecap:round;stroke-linejoin:round;stroke-miterlimit:4;stroke-dasharray:none;stroke-opacity:1"
           id="path39384"
           inkscape:connector-curvature="0" /><path
           d="m 100.11523,-135.85889 c 0.02,0.0439 2.64502,2.72998 1.82862,8.20703 -0.81592,5.47901 -0.71582,7.45215 1.3374,9.74707 0,0 7.18457,8.06299 7.18457,8.06299 0.95117,1.04395 1.53516,2.44092 1.53516,3.97315 0.002,1.42187 -0.51172,2.85498 -1.55371,3.98974"
           style="fill:none;stroke:#231f20;stroke-width:0.5;stroke-linecap:round;stroke-linejoin:round;stroke-miterlimit:4;stroke-dasharray:none;stroke-opacity:1"
           id="path39386"
           inkscape:connector-curvature="0" /><path
           d="m 102.56494,-117.58398 c 0,0 -7.74609,7.08105 -7.74609,7.08105"
           style="fill:none;stroke:#231f20;stroke-width:0.25;stroke-linecap:round;stroke-linejoin:round;stroke-miterlimit:4;stroke-dasharray:none;stroke-opacity:1"
           id="path39388"
           inkscape:connector-curvature="0" /><path
           d="m 106.69629,-112.90088 c 0,0 -7.74609,7.08106 -7.74609,7.08106"
           style="fill:none;stroke:#231f20;stroke-width:0.25;stroke-linecap:round;stroke-linejoin:round;stroke-miterlimit:4;stroke-dasharray:none;stroke-opacity:1"
           id="path39390"
           inkscape:connector-curvature="0" /><path
           d="m 67.43701,-121.81641 c -0.46631,1.36573 -1.8164,2.58985 -3.27197,2.54395 0,0 -9.20508,-1.26807 -9.20508,-1.26807 -0.08203,-0.0107 -0.16211,-0.0181 -0.23291,-0.0161 -0.93506,0 -1.69434,0.7583 -1.69434,1.69434 0,0.36572 0.11622,0.70361 0.30909,0.9746 0,0 5.27392,7.49024 5.27392,7.49024 0.29932,0.42578 0.74903,0.68017 1.22803,0.74609 0,0 14.35693,1.91309 14.35596,1.91309 2.13623,0.27588 4.229,1.24805 5.89306,2.9126 0,0 -0.02295,-0.022 -0.02295,-0.022 0,0 3.79395,3.76905 3.79395,3.76905 0,0 0.01611,0.0171 0.01611,0.0171 1.43311,1.4331 2.31885,3.41308 2.31885,5.59912 0,4.37353 -3.54492,7.92138 -7.91894,7.92138 -0.32911,9.8e-4 -0.70411,-0.02343 -1.08399,-0.07519 -9.8e-4,0 -17.75684,-2.45508 -17.75684,-2.45508 0,0 -1.83691,12.73047 -1.83691,12.73047 0,0 34.38184,4.75293 34.38184,4.75293 2.77099,0.37598 5.44775,1.71973 7.46777,3.99023 0,0 26.86328,30.22461 26.86328,30.22461 0,0 -0.003,-0.0049 -0.003,-0.0049 5.87988,6.61816 14.0459,10 22.29395,10.01367 16.46972,0 29.82129,-13.35156 29.82129,-29.82129 0,-2.02636 -0.20215,-4.00488 -0.55567,-5.72656 0,0 0.13379,0.91699 0.13379,0.91699 -1.47461,-9.33789 1.41699,-19.10547 8.61231,-26.125 0,0 -0.37793,0.37696 -0.37793,0.37696 3.35449,-3.02344 5.06445,-7.19043 5.07031,-11.39307 0,-5.53809 -2.93555,-10.38916 -7.40137,-13.12305 0,0 9.8e-4,0 9.8e-4,0 0,0 -5.4668,-3.30713 -5.4668,-3.30713 -1.01562,-0.62109 -1.50391,-1.85986 -1.125,-3.02392 0,0 4.76367,-14.61035 4.76367,-14.61035 0,0 5.15821,1.61914 5.15821,1.61914 0,0 -0.0869,0.0688 -0.0869,0.0688 0,0 -5.77734,17.72022 -5.77734,17.72022"
           style="fill:none;stroke:#231f20;stroke-width:1;stroke-linecap:round;stroke-linejoin:round;stroke-miterlimit:4;stroke-dasharray:none;stroke-opacity:1"
           id="path39392"
           inkscape:connector-curvature="0" /><path
           d="m 95.00879,-145.96875 c 1.45605,-0.29004 2.91894,-1.42725 3.04394,-3.05518 0,0 -0.16992,-9.29003 -0.16992,-9.29003 0,0 0,-0.0317 0,-0.0317 0,-0.93604 0.75782,-1.69434 1.69385,-1.69434 0.40332,-9.8e-4 0.80908,0.14209 1.13232,0.43311 0,0 6.81299,6.12402 6.81299,6.12402 0.35987,0.32324 0.58789,0.78906 0.59473,1.30908 0,0 0.20117,14.47998 0.20117,14.47998 0.0332,2.35205 0.85498,4.51026 2.19385,6.1958 0,0 -0.019,-0.0239 -0.019,-0.0239 0,0 3.43408,4.31006 3.43408,4.31006 1.53418,1.76025 3.68603,2.66406 5.86328,2.66796 4.29346,0 7.77588,-3.48291 7.77588,-7.77783 0,0 -0.004,-0.20117 -0.004,-0.20117 0,0 -0.46191,-17.87012 -0.46191,-17.87012 0,0 13.01855,-0.46679 13.01855,-0.46679 0,0 0.16114,17.04199 0.16114,17.04199 0.0508,5.44189 4.27734,9.86719 9.6455,10.26416 0,0 9.22071,0.66064 9.22071,0.66064 1.54394,0.11036 2.91699,-0.84668 3.40625,-2.2666 0,0 4.62304,-13.72119 4.62304,-13.72119 0,0 -5.1582,-1.61914 -5.1582,-1.61914 0,0 -5.83887,17.39307 -5.83887,17.39307"
           style="fill:none;stroke:#231f20;stroke-width:1;stroke-linecap:round;stroke-linejoin:round;stroke-miterlimit:4;stroke-dasharray:none;stroke-opacity:1"
           id="path39394"
           inkscape:connector-curvature="0" /><path
           d="m 0.31201,-38.4375 c 2.6709,-3.58301 3.95117,-7.77246 3.93506,-11.86133 0,-4.46875 -1.47803,-8.59375 -3.93506,-11.86035"
           style="fill:none;stroke:#231f20;stroke-width:0.25;stroke-linecap:round;stroke-linejoin:round;stroke-miterlimit:4;stroke-dasharray:none;stroke-opacity:1"
           id="path39396"
           inkscape:connector-curvature="0" /><path
           d="m 0.31299,-2.1123 c 2.76904,-2.65625 4.16308,-6.20606 4.16504,-9.77051 0,-3.83594 -1.59717,-7.29981 -4.16504,-9.76758"
           style="fill:none;stroke:#231f20;stroke-width:0.25;stroke-linecap:round;stroke-linejoin:round;stroke-miterlimit:4;stroke-dasharray:none;stroke-opacity:1"
           id="path39398"
           inkscape:connector-curvature="0" /><path
           d="m 29.13818,-56.16602 c 2.93116,-0.65039 5.76905,-1.49414 8.18604,-2.40722"
           style="fill:none;stroke:#231f20;stroke-width:0.5;stroke-linecap:round;stroke-linejoin:round;stroke-miterlimit:4;stroke-dasharray:none;stroke-opacity:1"
           id="path39400"
           inkscape:connector-curvature="0" /><path
           d="m 30.68604,-55.33008 c 2.7622,-0.67383 5.43798,-1.51562 7.71386,-2.40234"
           style="fill:none;stroke:#231f20;stroke-width:0.25;stroke-linecap:round;stroke-linejoin:round;stroke-miterlimit:4;stroke-dasharray:none;stroke-opacity:1"
           id="path39402"
           inkscape:connector-curvature="0" /><path
           d="m 27.35059,-57.42871 c 3.03564,-0.59961 5.97705,-1.41211 8.48681,-2.31543"
           style="fill:none;stroke:#231f20;stroke-width:0.25;stroke-linecap:round;stroke-linejoin:round;stroke-miterlimit:4;stroke-dasharray:none;stroke-opacity:1"
           id="path39404"
           inkscape:connector-curvature="0" /><path
           d="m 24.53027,-60.95215 c 2.47657,-0.39648 4.89356,-0.94629 6.95996,-1.56055"
           style="fill:none;stroke:#231f20;stroke-width:0.5;stroke-linecap:round;stroke-linejoin:round;stroke-miterlimit:4;stroke-dasharray:none;stroke-opacity:1"
           id="path39406"
           inkscape:connector-curvature="0" /><path
           d="m 26.55176,-58.17285 c 3.01318,-0.5625 5.9331,-1.33789 8.42578,-2.20606"
           style="fill:none;stroke:#231f20;stroke-width:0.5;stroke-linecap:round;stroke-linejoin:round;stroke-miterlimit:4;stroke-dasharray:none;stroke-opacity:1"
           id="path39408"
           inkscape:connector-curvature="0" /><path
           d="m 42.19043,-54.75977 c -1.55713,1.82032 -2.8457,3.78028 -3.77295,5.65332"
           style="fill:none;stroke:#231f20;stroke-width:0.25;stroke-linecap:round;stroke-linejoin:round;stroke-miterlimit:4;stroke-dasharray:none;stroke-opacity:1"
           id="path39410"
           inkscape:connector-curvature="0" /><path
           d="m 54.44434,-45.16797 c -2.54834,2.68555 -3.7334,6.17188 -3.57715,9.60449"
           style="fill:none;stroke:#231f20;stroke-width:0.25;stroke-linecap:round;stroke-linejoin:round;stroke-miterlimit:4;stroke-dasharray:none;stroke-opacity:1"
           id="path39412"
           inkscape:connector-curvature="0" /><path
           d="m 61.59619,-39.57031 c -1.125,0.77246 -1.74853,2.00293 -1.79199,3.2832"
           style="fill:none;stroke:#231f20;stroke-width:0.25;stroke-linecap:round;stroke-linejoin:round;stroke-miterlimit:4;stroke-dasharray:none;stroke-opacity:1"
           id="path39414"
           inkscape:connector-curvature="0" /><path
           d="m 58.59766,-41.91504 c -0.70264,0.65332 -1.25977,1.40625 -1.64063,2.16504 0,0 0,0.002 0,0.002 0,0 2.46777,1.25196 2.46777,1.25196 0,0 0,0.002 0,0.002 0.31299,-0.61816 0.78614,-1.20606 1.39795,-1.68066"
           style="fill:none;stroke:#231f20;stroke-width:0.25;stroke-linecap:round;stroke-linejoin:round;stroke-miterlimit:4;stroke-dasharray:none;stroke-opacity:1"
           id="path39416"
           inkscape:connector-curvature="0" /><path
           d="m 55.35156,-44.45996 c -0.86084,0.89258 -1.55713,1.88379 -2.04394,2.85937 0,0 2.69384,1.36817 2.69384,1.36914 0.40918,-0.81738 1.00098,-1.63281 1.74512,-2.35156"
           style="fill:none;stroke:#231f20;stroke-width:0.25;stroke-linecap:round;stroke-linejoin:round;stroke-miterlimit:4;stroke-dasharray:none;stroke-opacity:1"
           id="path39418"
           inkscape:connector-curvature="0" /><path
           d="m 56.15479,-35.14258 c -0.16016,-1.14258 -0.05176,-2.38867 0.37109,-3.60156 0,0 -9.8e-4,0.002 -9.8e-4,0.002 0,0 2.56104,1.29785 2.56104,1.29785 0,0 -0.05713,-0.02832 -0.05713,-0.02832 -0.146,0.55176 -0.1958,1.1045 -0.16211,1.60547"
           style="fill:none;stroke:#231f20;stroke-width:0.25;stroke-linecap:round;stroke-linejoin:round;stroke-miterlimit:4;stroke-dasharray:none;stroke-opacity:1"
           id="path39420"
           inkscape:connector-curvature="0" /><path
           d="m 55.08984,-35.03613 c -0.18066,-1.33594 -0.04199,-2.78809 0.47315,-4.19434 0,-9.8e-4 -2.59473,-1.31933 -2.59473,-1.31933 0,0 -0.14404,0.0205 -0.14404,0.0205 -0.68897,1.75782 -0.93604,3.58008 -0.79297,5.2666"
           style="fill:none;stroke:#231f20;stroke-width:0.25;stroke-linecap:round;stroke-linejoin:round;stroke-miterlimit:4;stroke-dasharray:none;stroke-opacity:1"
           id="path39422"
           inkscape:connector-curvature="0" /><path
           d="m 180.07471,-54.36328 c 0.91211,-7.67383 4.38379,-15.21192 10.58496,-20.87012 0,0 12.08496,-11.02734 12.08496,-11.02734 1.98633,-1.92188 1.52246,-3.48438 1.52246,-3.48438 0,0 -0.74707,-2.39453 -1.33398,-4.03906 -0.15137,-0.42773 -0.64844,-1.65967 -1.26465,-3.07471 -1.06934,-2.45996 -1.79297,-5.28027 -1.79297,-8.28222 0,-11.04883 8.95898,-20.00684 20.00879,-20.00684 0,0 0.0205,0 0.0205,0"
           style="fill:none;stroke:#231f20;stroke-width:0.25;stroke-linecap:round;stroke-linejoin:round;stroke-miterlimit:4;stroke-dasharray:none;stroke-opacity:1"
           id="path39424"
           inkscape:connector-curvature="0" /><path
           d="m 46.25146,-108.14941 c 0,0 2.61719,-1.24707 5.85938,-1.12207"
           style="fill:none;stroke:#231f20;stroke-width:0.25;stroke-linecap:round;stroke-linejoin:round;stroke-miterlimit:4;stroke-dasharray:none;stroke-opacity:1"
           id="path39426"
           inkscape:connector-curvature="0" /><path
           d="m 78.34229,-160.80713 c -2.08985,-7.93799 -9.22999,-13.20215 -17.19092,-13.25 -9.81592,0 -17.77491,7.95996 -17.77491,17.77588 0,7.59912 4.76905,14.08398 11.6001,16.66895"
           style="fill:none;stroke:#231f20;stroke-width:0.5;stroke-linecap:round;stroke-linejoin:round;stroke-miterlimit:4;stroke-dasharray:none;stroke-opacity:1"
           id="path39428"
           inkscape:connector-curvature="0" /><path
           d="m 69.09375,-156.92236 c -0.33594,-4.16065 -3.81201,-7.31592 -7.94189,-7.32666 -4.39991,0 -7.96631,3.56787 -7.96631,7.96777 0,3.896 2.79638,7.13916 6.54101,7.83887"
           style="fill:none;stroke:#231f20;stroke-width:0.5;stroke-linecap:round;stroke-linejoin:round;stroke-miterlimit:4;stroke-dasharray:none;stroke-opacity:1"
           id="path39430"
           inkscape:connector-curvature="0" /><path
           d="m 67.93457,-156.35693 c -0.03906,-3.72022 -3.06787,-6.70703 -6.78271,-6.70899 -3.74512,0 -6.78321,3.03711 -6.78321,6.78369 0,3.48926 2.63477,6.36426 6.05615,6.74414"
           style="fill:none;stroke:#231f20;stroke-width:0.25;stroke-linecap:round;stroke-linejoin:round;stroke-miterlimit:4;stroke-dasharray:none;stroke-opacity:1"
           id="path39432"
           inkscape:connector-curvature="0" /><path
           d="m 61.12793,-175.10352 c -2.20801,-2.37695 -5.20703,-3.58007 -8.22314,-3.58398 -6.19874,0 -11.22364,5.0249 -11.22364,11.22314 0,0.98584 0.12696,1.94288 0.34864,2.77491"
           style="fill:none;stroke:#231f20;stroke-width:0.25;stroke-linecap:round;stroke-linejoin:round;stroke-miterlimit:4;stroke-dasharray:none;stroke-opacity:1"
           id="path39434"
           inkscape:connector-curvature="0" /><path
           d="m 54.25732,-172.66602 c -0.46484,-0.12011 -0.93212,-0.17675 -1.35205,-0.17187 -2.88281,0 -5.23486,2.26904 -5.36865,5.13086"
           style="fill:none;stroke:#231f20;stroke-width:0.5;stroke-linecap:round;stroke-linejoin:round;stroke-miterlimit:4;stroke-dasharray:none;stroke-opacity:1"
           id="path39436"
           inkscape:connector-curvature="0" /><path
           d="m 55.45654,-185.36182 c 0,0 7.86817,1.43018 14.3042,6.11817"
           style="fill:none;stroke:#231f20;stroke-width:0.25;stroke-linecap:round;stroke-linejoin:round;stroke-miterlimit:4;stroke-dasharray:none;stroke-opacity:1"
           id="path39438"
           inkscape:connector-curvature="0" /><path
           d="m 78.25146,-161.13916 c -0.01269,-0.0449 0.73389,-5.00586 2.80323,-5.14697 2.06885,-0.14112 2.729,5.65088 3.29199,8.23291"
           style="fill:none;stroke:#231f20;stroke-width:0.25;stroke-linecap:round;stroke-linejoin:round;stroke-miterlimit:4;stroke-dasharray:none;stroke-opacity:1"
           id="path39440"
           inkscape:connector-curvature="0" /><path
           d="m 87.90625,-174.91846 c 0,-1.65088 -0.56299,-3.17187 -1.49512,-4.36377"
           style="fill:none;stroke:#231f20;stroke-width:0.25;stroke-linecap:round;stroke-linejoin:round;stroke-miterlimit:4;stroke-dasharray:none;stroke-opacity:1"
           id="path39442"
           inkscape:connector-curvature="0" /><path
           d="m 83.38281,-168.2876 c 2.79199,-1.09326 4.50391,-3.75488 4.52295,-6.63086"
           style="fill:none;stroke:#231f20;stroke-width:0.25;stroke-linecap:round;stroke-linejoin:round;stroke-miterlimit:4;stroke-dasharray:none;stroke-opacity:1"
           id="path39444"
           inkscape:connector-curvature="0" /><path
           d="m 154.86084,-52.07422 c 0,-0.45215 -0.36621,-0.81738 -0.81641,-0.81738 -0.45117,0 -0.81543,0.36523 -0.81543,0.81738 0,0.45117 0.36426,0.81445 0.81543,0.81445 0.4502,0 0.81641,-0.36328 0.81641,-0.81445"
           style="fill:none;stroke:#231f20;stroke-width:0.25;stroke-linecap:round;stroke-linejoin:round;stroke-miterlimit:4;stroke-dasharray:none;stroke-opacity:1"
           id="path39446"
           inkscape:connector-curvature="0" /><path
           d="m 66.51172,-108.76025 c 0.84619,3.04882 3.60596,5.05175 6.6709,5.06982 2.11621,0 4.01123,-0.94922 5.28906,-2.45605"
           style="fill:none;stroke:#231f20;stroke-width:0.25;stroke-linecap:round;stroke-linejoin:round;stroke-miterlimit:4;stroke-dasharray:none;stroke-opacity:1"
           id="path39448"
           inkscape:connector-curvature="0" /><path
           d="m 70.4624,-108.23584 c 1.18799,1.35938 3.16992,1.61426 4.66602,0.66504"
           style="fill:none;stroke:#231f20;stroke-width:0.25;stroke-linecap:round;stroke-linejoin:round;stroke-miterlimit:4;stroke-dasharray:none;stroke-opacity:1"
           id="path39450"
           inkscape:connector-curvature="0" /><path
           d="m 110.80859,-159.125 c 0,0 0.3628,-0.97217 0.3628,-0.97217"
           style="fill:none;stroke:#231f20;stroke-width:0.25;stroke-linecap:round;stroke-linejoin:round;stroke-miterlimit:4;stroke-dasharray:none;stroke-opacity:1"
           id="path39452"
           inkscape:connector-curvature="0" /><path
           d="m 52.71436,-107.3999 c 0,0 -0.95118,0.0469 -0.95118,0.0469"
           style="fill:none;stroke:#231f20;stroke-width:0.25;stroke-linecap:round;stroke-linejoin:round;stroke-miterlimit:4;stroke-dasharray:none;stroke-opacity:1"
           id="path39454"
           inkscape:connector-curvature="0" /><path
           d="m 171.74951,-104.49805 c 0,-4.27588 -3.4668,-7.74267 -7.74316,-7.74267 -4.27735,0 -7.74317,3.46679 -7.74317,7.74267 0,4.27637 3.46582,7.74317 7.74317,7.74317 4.27636,0 7.74316,-3.4668 7.74316,-7.74317"
           style="fill:none;stroke:#231f20;stroke-width:1;stroke-linecap:round;stroke-linejoin:round;stroke-miterlimit:4;stroke-dasharray:none;stroke-opacity:1"
           id="path39456"
           inkscape:connector-curvature="0" /><path
           d="m 152.05908,-115.46533 c -4.15039,4.52197 -5.25097,10.7622 -3.375,16.27929"
           style="fill:none;stroke:#231f20;stroke-width:1;stroke-linecap:round;stroke-linejoin:round;stroke-miterlimit:4;stroke-dasharray:none;stroke-opacity:1"
           id="path39458"
           inkscape:connector-curvature="0" /><path
           d="m 173.81006,-91.5791 c 4.18652,-3.17822 6.39551,-7.99317 6.41211,-12.91895 0,-0.57129 -0.0293,-1.1333 -0.0801,-1.61914"
           style="fill:none;stroke:#231f20;stroke-width:1;stroke-linecap:round;stroke-linejoin:round;stroke-miterlimit:4;stroke-dasharray:none;stroke-opacity:1"
           id="path39460"
           inkscape:connector-curvature="0" /><path
           d="m 9.6875,-116.19189 c 0,0 4.44922,4.0039 4.44922,4.0039 0,0 5.69189,-1.84912 5.69189,-1.84912"
           style="fill:none;stroke:#231f20;stroke-width:0.25;stroke-linecap:round;stroke-linejoin:round;stroke-miterlimit:4;stroke-dasharray:none;stroke-opacity:1"
           id="path39462"
           inkscape:connector-curvature="0" /><path
           d="m 16.62549,-123.89746 c 0,0 -5.69336,1.84961 -5.69336,1.84961 0,0 -1.24463,5.85644 -1.24463,5.85644"
           style="fill:none;stroke:#231f20;stroke-width:0.5;stroke-linecap:round;stroke-linejoin:round;stroke-miterlimit:4;stroke-dasharray:none;stroke-opacity:1"
           id="path39464"
           inkscape:connector-curvature="0" /><path
           d="m 19.82861,-114.03662 c 0,0 1.24463,-5.85498 1.24463,-5.85498 0,0 -4.44775,-4.00635 -4.44775,-4.00635"
           style="fill:none;stroke:#231f20;stroke-width:0.25;stroke-linecap:round;stroke-linejoin:round;stroke-miterlimit:4;stroke-dasharray:none;stroke-opacity:1"
           id="path39466"
           inkscape:connector-curvature="0" /><path
           d="m 120.80518,-77.81445 c 0,0 5.67187,-6.04297 5.67187,-6.04297"
           style="fill:none;stroke:#231f20;stroke-width:0.5;stroke-linecap:round;stroke-linejoin:round;stroke-miterlimit:4;stroke-dasharray:none;stroke-opacity:1"
           id="path39468"
           inkscape:connector-curvature="0" /><path
           d="m 132.93799,-86.875 c 0,0 -12.04932,8.98535 -12.04932,8.98535 0,0 -0.0649,0.05664 -0.0649,0.05664 -0.11719,0.11719 -0.17529,0.26953 -0.17529,0.42285 0,0.33008 0.26806,0.59668 0.59814,0.59668 0.16504,0 0.31494,-0.06543 0.42285,-0.17382 0,0 -0.0654,0.05468 -0.0654,0.05468 0,0 12.04883,-8.98437 12.04883,-8.98437 0,0 0.0635,-0.05664 0.0635,-0.05664 0.11719,-0.11621 0.17578,-0.26953 0.17578,-0.42285 0,-0.33008 -0.26758,-0.59864 -0.59863,-0.59864 -0.16504,0 -0.31348,0.06836 -0.42188,0.17578"
           style="fill:none;stroke:#231f20;stroke-width:0.5;stroke-linecap:round;stroke-linejoin:round;stroke-miterlimit:4;stroke-dasharray:none;stroke-opacity:1"
           id="path39470"
           inkscape:connector-curvature="0" /><path
           d="m 131.90381,-87.90332 c 0,0 -12.04834,8.98535 -12.04834,8.98535 0,0 0.0649,-0.05664 0.0649,-0.05664 -0.1084,0.1084 -0.2583,0.17481 -0.42334,0.17481 -0.32861,0 -0.59668,-0.26758 -0.59668,-0.59668 0,-0.1543 0.0566,-0.30665 0.17578,-0.42286 0,0 -0.019,0.01758 -0.019,0.01758 0,0 5.67187,-6.04199 5.67187,-6.04199"
           style="fill:none;stroke:#231f20;stroke-width:0.5;stroke-linecap:round;stroke-linejoin:round;stroke-miterlimit:4;stroke-dasharray:none;stroke-opacity:1"
           id="path39472"
           inkscape:connector-curvature="0" /><path
           d="m 119.14063,-79.87598 c 0,0 12.04833,-8.98632 12.04833,-8.98632 0,0 -0.0654,0.05664 -0.0654,0.05664 0.10839,-0.10743 0.25683,-0.17579 0.42285,-0.17579 0.33007,0 0.59765,0.26758 0.59765,0.59766 0,0.15332 -0.0596,0.30762 -0.17578,0.42383 0,0 0.0176,-0.01953 0.0176,-0.01953 0,0 -5.66992,6.04394 -5.66992,6.04394"
           style="fill:none;stroke:#231f20;stroke-width:0.5;stroke-linecap:round;stroke-linejoin:round;stroke-miterlimit:4;stroke-dasharray:none;stroke-opacity:1"
           id="path39474"
           inkscape:connector-curvature="0" /><path
           d="m 130.15479,-89.88965 c 0,0 -12.04786,8.98438 -12.04786,8.98438 0,0 0.0649,-0.05567 0.0649,-0.05567 -0.10889,0.10742 -0.25684,0.17481 -0.42286,0.17481 -0.3291,0 -0.59716,-0.2666 -0.59716,-0.59668 0,-0.15332 0.0581,-0.30762 0.17529,-0.42285 0,0 -0.0181,0.01757 -0.0181,0.01757 0,0 5.67188,-6.04199 5.67188,-6.04199"
           style="fill:none;stroke:#231f20;stroke-width:0.5;stroke-linecap:round;stroke-linejoin:round;stroke-miterlimit:4;stroke-dasharray:none;stroke-opacity:1"
           id="path39476"
           inkscape:connector-curvature="0" /><path
           d="m 117.39209,-81.8623 c 0,0 12.04883,-8.98633 12.04883,-8.98633 0,0 -0.0654,0.05664 -0.0654,0.05664 0.1084,-0.10742 0.25683,-0.17578 0.42285,-0.17578 0.33008,0 0.59668,0.26855 0.59668,0.59765 0,0.15332 -0.0576,0.30567 -0.17481,0.42383 0,0 0.0186,-0.01855 0.0186,-0.01855 0,0 -5.67188,6.04101 -5.67188,6.04101"
           style="fill:none;stroke:#231f20;stroke-width:0.5;stroke-linecap:round;stroke-linejoin:round;stroke-miterlimit:4;stroke-dasharray:none;stroke-opacity:1"
           id="path39478"
           inkscape:connector-curvature="0" /><path
           d="m 128.40674,-91.87793 c 0,0 -12.04834,8.9873 -12.04834,8.9873 0,0 0.0649,-0.05859 0.0649,-0.05859 -0.10791,0.1084 -0.25684,0.17676 -0.42285,0.17676 -0.33008,0 -0.59717,-0.26856 -0.59717,-0.59863 0,-0.15235 0.0591,-0.30469 0.17529,-0.42286 0,0 -0.0171,0.01954 -0.0171,0.01954 0,0 5.67188,-6.042 5.67188,-6.042"
           style="fill:none;stroke:#231f20;stroke-width:0.5;stroke-linecap:round;stroke-linejoin:round;stroke-miterlimit:4;stroke-dasharray:none;stroke-opacity:1"
           id="path39480"
           inkscape:connector-curvature="0" /><path
           d="m 115.64453,-83.85059 c 0,0 12.04736,-8.98486 12.04736,-8.98486 0,0 -0.0644,0.05615 -0.0644,0.05615 0.10742,-0.10791 0.25684,-0.1748 0.42285,-0.1748 0.33008,0 0.59668,0.2666 0.59668,0.59668 0,0.15332 -0.0576,0.30762 -0.1748,0.42285 0,0 0.0176,-0.01758 0.0176,-0.01758 0,0 -5.67286,6.04297 -5.67286,6.04297"
           style="fill:none;stroke:#231f20;stroke-width:0.5;stroke-linecap:round;stroke-linejoin:round;stroke-miterlimit:4;stroke-dasharray:none;stroke-opacity:1"
           id="path39482"
           inkscape:connector-curvature="0" /><path
           d="m 126.65869,-93.86328 c 0,0 -12.04785,8.98535 -12.04785,8.98535 0,0 0.0649,-0.05664 0.0649,-0.05664 -0.10937,0.1084 -0.25732,0.17578 -0.42334,0.17578 -0.32959,0 -0.59668,-0.26758 -0.59668,-0.59766 0,-0.15234 0.0581,-0.30761 0.17481,-0.42285 0,0 -0.0171,0.01856 -0.0171,0.01856 0,0 5.66992,-6.04199 5.66992,-6.04199"
           style="fill:none;stroke:#231f20;stroke-width:0.5;stroke-linecap:round;stroke-linejoin:round;stroke-miterlimit:4;stroke-dasharray:none;stroke-opacity:1"
           id="path39484"
           inkscape:connector-curvature="0" /><path
           d="m 113.89502,-85.83594 c 0,0 12.04883,-8.98584 12.04883,-8.98584 0,0 -0.0645,0.05713 -0.0645,0.05713 0.10743,-0.1084 0.25782,-0.17627 0.42188,-0.17627 0.33008,0 0.59766,0.26807 0.59766,0.59815 0,0.15283 -0.0576,0.30468 -0.17579,0.42187 0,0 0.0186,-0.01904 0.0186,-0.01904 0,0 -5.67188,6.04346 -5.67188,6.04346"
           style="fill:none;stroke:#231f20;stroke-width:0.5;stroke-linecap:round;stroke-linejoin:round;stroke-miterlimit:4;stroke-dasharray:none;stroke-opacity:1"
           id="path39486"
           inkscape:connector-curvature="0" /><path
           d="m 124.90967,-95.85107 c 0,0 -12.04737,8.98584 -12.04737,8.98584 0,0 0.0649,-0.05665 0.0649,-0.05665 -0.10791,0.1084 -0.25733,0.17579 -0.42334,0.17579 -0.32959,0 -0.59766,-0.26758 -0.59766,-0.59766 0,-0.15332 0.0601,-0.30469 0.17578,-0.42285 0,0 -0.0171,0.01758 -0.0171,0.01758 0,0 5.67236,-6.04102 5.67236,-6.04102"
           style="fill:none;stroke:#231f20;stroke-width:0.5;stroke-linecap:round;stroke-linejoin:round;stroke-miterlimit:4;stroke-dasharray:none;stroke-opacity:1"
           id="path39488"
           inkscape:connector-curvature="0" /><path
           d="m 112.14648,-87.82324 c 0,0 12.04932,-8.98535 12.04932,-8.98535 0,0 -0.0654,0.05615 -0.0654,0.05615 0.1084,-0.10791 0.25781,-0.17529 0.42285,-0.17529 0.33008,0 0.59766,0.26709 0.59766,0.59716 0,0.15284 -0.0576,0.30811 -0.17481,0.42286 0,0 0.0166,-0.01807 0.0166,-0.01807 0,0 -5.67139,6.04297 -5.67139,6.04297"
           style="fill:none;stroke:#231f20;stroke-width:0.5;stroke-linecap:round;stroke-linejoin:round;stroke-miterlimit:4;stroke-dasharray:none;stroke-opacity:1"
           id="path39490"
           inkscape:connector-curvature="0" /><path
           d="m 123.1626,-97.83643 c 0,0 -12.04932,8.98487 -12.04932,8.98487 0,0 0.0659,-0.05567 0.0659,-0.05567 -0.10791,0.10743 -0.25684,0.17481 -0.42285,0.17481 -0.33008,0 -0.59815,-0.26758 -0.59815,-0.59668 0,-0.15528 0.0581,-0.3086 0.17627,-0.42285 0,0 -0.019,0.01757 -0.019,0.01757 0,0 5.67187,-6.04296 5.67187,-6.04296"
           style="fill:none;stroke:#231f20;stroke-width:0.5;stroke-linecap:round;stroke-linejoin:round;stroke-miterlimit:4;stroke-dasharray:none;stroke-opacity:1"
           id="path39492"
           inkscape:connector-curvature="0" /><path
           d="m 110.39893,-89.81055 c 0,0 12.04882,-8.98584 12.04882,-8.98584 0,0 -0.0664,0.05762 -0.0664,0.05762 0.10937,-0.10791 0.25781,-0.17578 0.42383,-0.17578 0.3291,0 0.59765,0.26904 0.59765,0.59717 0,0.15478 -0.0596,0.30664 -0.17578,0.42285 0,0 0.0186,-0.01807 0.0186,-0.01807 0,0 -5.67188,6.04346 -5.67188,6.04346"
           style="fill:none;stroke:#231f20;stroke-width:0.5;stroke-linecap:round;stroke-linejoin:round;stroke-miterlimit:4;stroke-dasharray:none;stroke-opacity:1"
           id="path39494"
           inkscape:connector-curvature="0" /><path
           d="m 121.41455,-99.82422 c 0,0 -12.04883,8.98633 -12.04883,8.98633 0,0 0.0649,-0.05762 0.0649,-0.05762 -0.10791,0.1084 -0.25781,0.17676 -0.42285,0.17676 -0.3291,0 -0.59717,-0.26855 -0.59717,-0.59863 0,-0.15235 0.0571,-0.30469 0.17579,-0.42285 0,0 -0.0186,0.01855 -0.0186,0.01855 0,0 5.37598,-5.72559 5.37598,-5.72559"
           style="fill:none;stroke:#231f20;stroke-width:0.5;stroke-linecap:round;stroke-linejoin:round;stroke-miterlimit:4;stroke-dasharray:none;stroke-opacity:1"
           id="path39496"
           inkscape:connector-curvature="0" /><path
           d="m 108.65088,-91.79688 c 0,0 12.04785,-8.98486 12.04785,-8.98486 0,0 -0.0649,0.0562 -0.0649,0.0562 0.10791,-0.10839 0.2583,-0.17529 0.42334,-0.17529 0.32959,0 0.59766,0.26709 0.59766,0.59717 0,0.15283 -0.0596,0.30615 -0.17579,0.42285 0,0 0.0171,-0.01807 0.0171,-0.01807 0,0 -5.66992,6.042 -5.66992,6.042"
           style="fill:none;stroke:#231f20;stroke-width:0.5;stroke-linecap:round;stroke-linejoin:round;stroke-miterlimit:4;stroke-dasharray:none;stroke-opacity:1"
           id="path39498"
           inkscape:connector-curvature="0" /><path
           d="m 107.36914,-94.04736 c 0.11231,-0.01905 0.28516,-0.11621 0.58496,-0.33838 0,0 -0.008,0.0063 -0.008,0.0063 0,0 11,-8.38624 11,-8.38624 0,0 -0.061,0.0532 -0.061,0.0532 0.10889,-0.10938 0.25782,-0.17432 0.42286,-0.17432 0.33007,0 0.59716,0.26611 0.59716,0.59619 0,0.15479 -0.0581,0.30713 -0.17382,0.42285 0,0 0.0166,-0.0181 0.0166,-0.0181 0,0 -5.6709,6.04199 -5.6709,6.04199 0,0 5.59424,-5.9707 5.59424,-5.9707 0,0 -11.00733,8.39013 -11.00733,8.39013 -0.54883,0.40674 -0.89892,0.52393 -1.104,0.55762 -0.18506,0.03027 -0.3169,0.0093 -0.41065,-0.01709 -0.35107,-0.09961 -0.43212,-0.32666 -0.43212,-0.32666 0,0 0.0327,0.05078 0.0327,0.05078 -0.0586,-0.08301 -0.10156,-0.17969 -0.11865,-0.29199 -0.02,-0.11572 -0.0132,-0.27295 0.063,-0.45703 0.2207,-0.53809 1.64013,-1.97168 3.3081,-3.5669 0.29199,-0.27978 0.48194,-0.56103 0.59277,-0.83691 0.0718,-0.18018 0.10889,-0.35498 0.1211,-0.521 0.0298,-0.4082 -0.084,-0.76806 -0.20313,-1.02783 -0.12011,-0.26123 -0.24609,-0.42236 -0.24609,-0.42236 0,0 0.02,0.022 0.02,0.022 0,0 -4.32178,-4.84082 -4.32178,-4.84082 -0.0933,-0.10498 -0.1499,-0.24609 -0.1499,-0.39795 0,-0.33008 0.2666,-0.59814 0.59668,-0.59814 0.16504,0 0.3291,0.0669 0.44727,0.20019 0,0 4.31982,4.84082 4.31982,4.84082 0,0 0.019,0.0229 0.019,0.0229 0,0 0.20996,0.25391 0.40283,0.67627 0.18604,0.40772 0.35498,0.97461 0.30811,1.61279 -0.021,0.28125 -0.084,0.5752 -0.2041,0.87598 -0.16406,0.41211 -0.43799,0.83887 -0.87598,1.2583 -0.0591,0.05469 -0.1167,0.11182 -0.17578,0.16699"
           style="fill:none;stroke:#231f20;stroke-width:0.5;stroke-linecap:round;stroke-linejoin:round;stroke-miterlimit:4;stroke-dasharray:none;stroke-opacity:1"
           id="path39500"
           inkscape:connector-curvature="0" /><path
           d="m 133.72607,-85.9834 c 0,0 -2.88378,3.07324 -2.88378,3.07324 0,0 0.0195,-0.0098 0.0195,-0.0098 0,0 -0.22364,0.21582 -0.4668,0.57129 -0.23535,0.3457 -0.49219,0.81933 -0.56641,1.3584 -0.0293,0.21191 -0.0293,0.43457 0.0156,0.6621 0.0644,0.33399 0.22558,0.67676 0.51465,1.01758 0,0 -0.0137,-0.0166 -0.0137,-0.0166 0,0 1.61329,1.77149 1.61329,1.77149 0,0 0.21679,0.2373 0.21679,0.2373 0,0 1.55567,1.70898 1.55567,1.70898 0,0 -0.0176,-0.01953 -0.0176,-0.01953 0.10644,0.10645 0.17383,0.25586 0.17383,0.4209 0,0.33008 -0.2666,0.59571 -0.59473,0.59571 -0.15234,0 -0.30664,-0.05762 -0.42187,-0.17481 0,0 -0.0205,-0.01855 -0.0205,-0.01855 0,0 -1.5586,-1.71289 -1.5586,-1.71289 0,0 -0.21972,-0.23926 -0.21972,-0.23926 0,0 -1.6084,-1.76563 -1.6084,-1.76563 0,0 -0.0146,-0.01562 -0.0146,-0.01562 -0.44141,-0.52246 -0.6748,-1.05176 -0.77539,-1.56055 -0.0703,-0.36328 -0.0713,-0.71582 -0.0264,-1.05371 0.0713,-0.50977 0.25391,-0.97949 0.46778,-1.37891"
           style="fill:none;stroke:#231f20;stroke-width:0.5;stroke-linecap:round;stroke-linejoin:round;stroke-miterlimit:4;stroke-dasharray:none;stroke-opacity:1"
           id="path39502"
           inkscape:connector-curvature="0" /><path
           d="m 120.50391,-66.07324 c 0,0 -2.26075,2.08203 -2.26075,2.08203 0,0 3.73389,4.32715 3.73389,4.32715 0,0 0.17383,0.13183 0.17383,0.13183 0,0 1.01367,-0.93457 1.01367,-0.93457 0,0 0.58789,-0.53808 0.58789,-0.53808 0,0 0.65918,-0.60938 0.65918,-0.60938"
           style="fill:none;stroke:#231f20;stroke-width:0.5;stroke-linecap:round;stroke-linejoin:round;stroke-miterlimit:4;stroke-dasharray:none;stroke-opacity:1"
           id="path39504"
           inkscape:connector-curvature="0" /><path
           d="m 131.23291,-78.49805 c 0,0 10.12012,-8.66211 10.12012,-8.66211 0.69238,-0.59179 1.73047,-0.53222 2.34765,0.14453 0,0 -0.005,0.06153 -0.005,0.06153 0,0 2.90332,3.17773 2.90332,3.17773 0,0 0.32422,0.35547 0.32422,0.35547 0,0 1.12207,1.22754 1.12207,1.22754 0.29785,0.3252 0.47949,0.75977 0.47949,1.23828 0,0.51856 -0.21777,1.0332 -0.6416,1.39356 0,0 -10.52637,9.01074 -10.52637,9.01074 0,0 0.0781,-0.06836 0.0781,-0.06836 0,0 -10.19434,9.38574 -10.19434,9.38574 -0.32519,0.30078 -0.76172,0.48438 -1.24316,0.48438 -0.5166,-9.8e-4 -1.02637,-0.21778 -1.38867,-0.63672 0,0 -0.39258,-0.45606 -0.39258,-0.45606 0,0 -0.79199,-0.91894 -0.79199,-0.91894 0,0 -3.02735,-3.50781 -3.02735,-3.50781 0,0 -0.063,-9.8e-4 -0.063,-9.8e-4 -0.59423,-0.69043 -0.53808,-1.72852 0.13477,-2.34863 0,0 9.79932,-9.02247 9.79932,-9.02247"
           style="fill:none;stroke:#231f20;stroke-width:0.5;stroke-linecap:round;stroke-linejoin:round;stroke-miterlimit:4;stroke-dasharray:none;stroke-opacity:1"
           id="path39506"
           inkscape:connector-curvature="0" /><path
           d="m 147.84131,-82.41504 c 0,0 1.78515,-1.52832 1.78515,-1.52832 0,0 0.54688,-0.54199 0.54688,-0.54199 0,0 -3.96191,-4.33789 -3.96191,-4.33789 0,0 -2.33497,1.99804 -2.33497,1.99804"
           style="fill:none;stroke:#231f20;stroke-width:0.5;stroke-linecap:round;stroke-linejoin:round;stroke-miterlimit:4;stroke-dasharray:none;stroke-opacity:1"
           id="path39508"
           inkscape:connector-curvature="0" /><path
           d="m 132.54736,-75.13965 c -0.16211,0.2959 -0.23828,0.61621 -0.23632,0.91992 0,1.04981 0.85058,1.90137 1.90039,1.90137 1.05078,0 1.90234,-0.85156 1.90234,-1.90137 0,-1.0498 -0.85156,-1.90039 -1.90234,-1.90039 -0.28516,0 -0.55664,0.06348 -0.78711,0.17188"
           style="fill:none;stroke:#231f20;stroke-width:0.5;stroke-linecap:round;stroke-linejoin:round;stroke-miterlimit:4;stroke-dasharray:none;stroke-opacity:1"
           id="path39510"
           inkscape:connector-curvature="0" /><path
           d="m 58.75684,-139.61279 c 0,0 18.708,-17.22217 18.708,-17.22217"
           style="fill:none;stroke:#231f20;stroke-width:0.25;stroke-linecap:round;stroke-linejoin:round;stroke-miterlimit:4;stroke-dasharray:none;stroke-opacity:1"
           id="path39512"
           inkscape:connector-curvature="0" /><path
           d="m 132.7417,-53.45313 c 0,0 -2.07715,0.50782 -2.07715,0.50782 2.26465,7.76855 9.44043,13.44629 17.94141,13.44629 10.31836,0 18.68457,-8.36719 18.68457,-18.68653 0,-8.36425 -5.4961,-15.44629 -13.07422,-17.8291 0,0 -0.0361,0.0625 -0.0361,0.0625 0,0 -0.54395,2.02637 -0.54395,2.02637 0,0 0.002,9.8e-4 0.002,9.8e-4 -1.58691,-0.50684 -3.27734,-0.78028 -5.03222,-0.78028 -9.12403,0 -16.52149,7.39649 -16.52149,16.51953 0,1.64063 0.24024,3.22754 0.68653,4.72364"
           style="fill:none;stroke:#231f20;stroke-width:0.5;stroke-linecap:round;stroke-linejoin:round;stroke-miterlimit:4;stroke-dasharray:none;stroke-opacity:1"
           id="path39514"
           inkscape:connector-curvature="0" /></g></g><g
       id="g39516"
       transform="scale(1,-1)"><path
         d="m 25.29883,-2.64844 c 0,0 -23.25,0 -23.25,0 0,0 -0.16699,-6.83301 -0.16699,-6.83301 0,0 23.25,0 23.25,0 0,0 0.16699,6.83301 0.16699,6.83301 z"
         style="fill:#ffffff;fill-opacity:1;fill-rule:nonzero;stroke:none"
         id="path39518"
         inkscape:connector-curvature="0" /><path
         d="m 82.92383,-65.06445 c 0,0 5.08056,-14.37012 5.08056,-14.37012"
         style="fill:none;stroke:#ffffff;stroke-width:3;stroke-linecap:round;stroke-linejoin:miter;stroke-miterlimit:4;stroke-dasharray:none;stroke-opacity:1"
         id="path39520"
         inkscape:connector-curvature="0" /><path
         d="m 88.00635,-79.43359 c 0,0 0,0 0,0"
         style="fill:none;stroke:#ffffff;stroke-width:3.75;stroke-linecap:round;stroke-linejoin:miter;stroke-miterlimit:4;stroke-dasharray:none;stroke-opacity:1"
         id="path39522"
         inkscape:connector-curvature="0" /><path
         d="m 80.92383,-61.73145 c 0,0 7.08056,-17.70312 7.08056,-17.70312"
         style="fill:none;stroke:#201d1c;stroke-width:0.5;stroke-linecap:round;stroke-linejoin:miter;stroke-miterlimit:4;stroke-dasharray:none;stroke-opacity:1"
         id="path39524"
         inkscape:connector-curvature="0" /><path
         d="m 88.00635,-79.43359 c 0,0 0,0 0,0"
         style="fill:none;stroke:#201d1c;stroke-width:1.5;stroke-linecap:round;stroke-linejoin:miter;stroke-miterlimit:4;stroke-dasharray:none;stroke-opacity:1"
         id="path39526"
         inkscape:connector-curvature="0" /><g
         id="g39528"
         transform="scale(1,-1)"><text
           transform="matrix(1,0,0,-1,155.72168,169.15479)"
           style="font-variant:normal;font-weight:bold;font-size:10px;font-family:Arial;-inkscape-font-specification:Arial-BoldMT;writing-mode:lr-tb;fill:#231f20;fill-opacity:1;fill-rule:nonzero;stroke:none"
           id="text39532"><tspan
             x="0"
             y="0"
             id="tspan39530">2</tspan></text>
<text
           transform="matrix(1,0,0,-1,75.28369,54.08154)"
           style="font-variant:normal;font-weight:bold;font-size:10px;font-family:Arial;-inkscape-font-specification:Arial-BoldMT;writing-mode:lr-tb;fill:#231f20;fill-opacity:1;fill-rule:nonzero;stroke:none"
           id="text39536"><tspan
             x="0"
             y="0"
             id="tspan39534">1</tspan></text>
<text
           transform="matrix(1,0,0,-1,3.14502,3.73633)"
           style="font-variant:normal;font-weight:normal;font-size:6px;font-family:Arial;-inkscape-font-specification:ArialMT;writing-mode:lr-tb;fill:#231f20;fill-opacity:1;fill-rule:nonzero;stroke:none"
           id="text39540"><tspan
             x="0 3.6659999 7.6680002 11.004 14.34 17.676001"
             y="0"
             sodipodi:role="line"
             id="tspan39538">TP0104</tspan></text>
<text
           transform="matrix(1,0,0,-1,182.05518,161.15527)"
           style="font-variant:normal;font-weight:bold;font-size:10px;font-family:Arial;-inkscape-font-specification:Arial-BoldMT;writing-mode:lr-tb;fill:#231f20;fill-opacity:1;fill-rule:nonzero;stroke:none"
           id="text39544"><tspan
             x="0"
             y="0"
             id="tspan39542">3</tspan></text>
<g
           id="g39546"
           transform="scale(1,-1)"><path
             d="m 180.92432,-152.73145 c 0,0 -7.38672,25.32959 -7.38672,25.32959"
             style="fill:none;stroke:#ffffff;stroke-width:3;stroke-linecap:round;stroke-linejoin:miter;stroke-miterlimit:4;stroke-dasharray:none;stroke-opacity:1"
             id="path39548"
             inkscape:connector-curvature="0" /><path
             d="m 173.53662,-127.40186 c 0,0 0,0 0,0"
             style="fill:none;stroke:#ffffff;stroke-width:3.75;stroke-linecap:round;stroke-linejoin:miter;stroke-miterlimit:4;stroke-dasharray:none;stroke-opacity:1"
             id="path39550"
             inkscape:connector-curvature="0" /><path
             d="m 182.92432,-159.06494 c 0,0 -9.38672,31.66308 -9.38672,31.66308"
             style="fill:none;stroke:#201d1c;stroke-width:0.5;stroke-linecap:round;stroke-linejoin:miter;stroke-miterlimit:4;stroke-dasharray:none;stroke-opacity:1"
             id="path39552"
             inkscape:connector-curvature="0" /><path
             d="m 173.53662,-127.40186 c 0,0 0,0 0,0"
             style="fill:none;stroke:#201d1c;stroke-width:1.5;stroke-linecap:round;stroke-linejoin:miter;stroke-miterlimit:4;stroke-dasharray:none;stroke-opacity:1"
             id="path39554"
             inkscape:connector-curvature="0" /><path
             d="m 159.92432,-162.06494 c 0,0 3.94726,24.99658 3.94726,24.99658"
             style="fill:none;stroke:#ffffff;stroke-width:3;stroke-linecap:round;stroke-linejoin:miter;stroke-miterlimit:4;stroke-dasharray:none;stroke-opacity:1"
             id="path39556"
             inkscape:connector-curvature="0" /><path
             d="m 163.86963,-137.06836 c 0,0 0,0 0,0"
             style="fill:none;stroke:#ffffff;stroke-width:3.75;stroke-linecap:round;stroke-linejoin:miter;stroke-miterlimit:4;stroke-dasharray:none;stroke-opacity:1"
             id="path39558"
             inkscape:connector-curvature="0" /><path
             d="m 158.92432,-167.73145 c 0,0 4.94726,30.66309 4.94726,30.66309"
             style="fill:none;stroke:#201d1c;stroke-width:0.5;stroke-linecap:round;stroke-linejoin:miter;stroke-miterlimit:4;stroke-dasharray:none;stroke-opacity:1"
             id="path39560"
             inkscape:connector-curvature="0" /><path
             d="m 163.86963,-137.06836 c 0,0 0,0 0,0"
             style="fill:none;stroke:#201d1c;stroke-width:1.5;stroke-linecap:round;stroke-linejoin:miter;stroke-miterlimit:4;stroke-dasharray:none;stroke-opacity:1"
             id="path39562"
             inkscape:connector-curvature="0" /><path
             d="m 213.25732,-70.06445 c 0,0 -46.09082,-33.28565 -46.09082,-33.28565"
             style="fill:none;stroke:#ffffff;stroke-width:3;stroke-linecap:round;stroke-linejoin:miter;stroke-miterlimit:4;stroke-dasharray:none;stroke-opacity:1"
             id="path39564"
             inkscape:connector-curvature="0" /><path
             d="m 167.1665,-103.35107 c 0,0 0,0 0,0"
             style="fill:none;stroke:#ffffff;stroke-width:3.75;stroke-linecap:round;stroke-linejoin:miter;stroke-miterlimit:4;stroke-dasharray:none;stroke-opacity:1"
             id="path39566"
             inkscape:connector-curvature="0" /><path
             d="m 217.59033,-66.73145 c 0,0 -50.42383,-36.61865 -50.42383,-36.61865"
             style="fill:none;stroke:#201d1c;stroke-width:0.5;stroke-linecap:round;stroke-linejoin:miter;stroke-miterlimit:4;stroke-dasharray:none;stroke-opacity:1"
             id="path39568"
             inkscape:connector-curvature="0" /><path
             d="m 167.1665,-103.35107 c 0,0 0,0 0,0"
             style="fill:none;stroke:#201d1c;stroke-width:1.5;stroke-linecap:round;stroke-linejoin:miter;stroke-miterlimit:4;stroke-dasharray:none;stroke-opacity:1"
             id="path39570"
             inkscape:connector-curvature="0" /><g
             id="g39572"
             transform="scale(1,-1)"><text
               transform="matrix(1,0,0,-1,219.05615,61.15527)"
               style="font-variant:normal;font-weight:bold;font-size:10px;font-family:Arial;-inkscape-font-specification:Arial-BoldMT;writing-mode:lr-tb;fill:#231f20;fill-opacity:1;fill-rule:nonzero;stroke:none"
               id="text39576"><tspan
                 x="0"
                 y="0"
                 id="tspan39574">4</tspan></text>
</g></g></g></g></g></svg>