<?xml version="1.0" encoding="UTF-8" standalone="no"?>
<!-- Created with Inkscape (http://www.inkscape.org/) -->

<svg
   xmlns:dc="http://purl.org/dc/elements/1.1/"
   xmlns:cc="http://creativecommons.org/ns#"
   xmlns:rdf="http://www.w3.org/1999/02/22-rdf-syntax-ns#"
   xmlns:svg="http://www.w3.org/2000/svg"
   xmlns="http://www.w3.org/2000/svg"
   xmlns:sodipodi="http://sodipodi.sourceforge.net/DTD/sodipodi-0.dtd"
   xmlns:inkscape="http://www.inkscape.org/namespaces/inkscape"
   version="1.1"
   id="svg2"
   xml:space="preserve"
   width="325.07095"
   height="261.88217"
   viewBox="0 0 325.07095 261.88217"
   sodipodi:docname="TP0321.svg"
   inkscape:version="0.92.4 (5da689c313, 2019-01-14)"><metadata
     id="metadata8"><rdf:RDF><cc:Work
         rdf:about=""><dc:format>image/svg+xml</dc:format><dc:type
           rdf:resource="http://purl.org/dc/dcmitype/StillImage" /><dc:title></dc:title></cc:Work></rdf:RDF></metadata><defs
     id="defs6"><clipPath
       clipPathUnits="userSpaceOnUse"
       id="clipPath18"><path
         d="m 2.86279,-6.12891 c 0,0 240.94043,0 240.94043,0 0,0 0,-184.25 0,-184.25 0,0 -240.94043,0 -240.94043,0 0,0 0,184.25 0,184.25 z"
         id="path16"
         inkscape:connector-curvature="0" /></clipPath></defs><sodipodi:namedview
     pagecolor="#ffffff"
     bordercolor="#666666"
     borderopacity="1"
     objecttolerance="10"
     gridtolerance="10"
     guidetolerance="10"
     inkscape:pageopacity="0"
     inkscape:pageshadow="2"
     inkscape:window-width="640"
     inkscape:window-height="480"
     id="namedview4"
     showgrid="false"
     inkscape:zoom="0.90116864"
     inkscape:cx="162.53548"
     inkscape:cy="130.94109"
     inkscape:window-x="0"
     inkscape:window-y="0"
     inkscape:window-maximized="0"
     inkscape:current-layer="g10" /><g
     id="g10"
     inkscape:groupmode="layer"
     inkscape:label="TP0321"
     transform="matrix(1.3333333,0,0,-1.3333333,0,261.88216)"><g
       id="g12"
       transform="scale(1,-1)"><g
         id="g14"
         clip-path="url(#clipPath18)"><path
           d="m 165.51514,-196.16162 c -0.43555,55.43506 2.72168,113.39014 5.85351,134.98486"
           style="fill:none;stroke:#231f20;stroke-width:0.5;stroke-linecap:round;stroke-linejoin:round;stroke-miterlimit:10;stroke-dasharray:none;stroke-opacity:1"
           id="path20"
           inkscape:connector-curvature="0" /><path
           d="m 172.65186,-51.09277 c 0,0 5.47168,34.06152 5.47168,34.06152 0,0 -2.73633,-1.69238 -2.73633,-1.69238"
           style="fill:none;stroke:#231f20;stroke-width:0.5;stroke-linecap:round;stroke-linejoin:round;stroke-miterlimit:10;stroke-dasharray:none;stroke-opacity:1"
           id="path22"
           inkscape:connector-curvature="0" /><path
           d="m 71.14746,-53.66992 c 6.03565,2.1709 6.65576,5.19433 7.97363,6.58887 1.31836,1.39648 2.01514,6.9873 0.93018,8.57128"
           style="fill:none;stroke:#231f20;stroke-width:0.25;stroke-linecap:round;stroke-linejoin:round;stroke-miterlimit:10;stroke-dasharray:none;stroke-opacity:1"
           id="path24"
           inkscape:connector-curvature="0" /><path
           d="m 66.61279,-70.52148 c 0,0 6.92383,5.05761 6.92383,5.05761 0.2583,0.18848 0.5752,0.2793 0.89307,0.25684 0,0 7.48486,-0.51953 7.48486,-0.51953"
           style="fill:none;stroke:#231f20;stroke-width:0.5;stroke-linecap:round;stroke-linejoin:round;stroke-miterlimit:10;stroke-dasharray:none;stroke-opacity:1"
           id="path26"
           inkscape:connector-curvature="0" /><path
           d="m 67.06494,-68.30664 c 0,0 6.47217,4.72656 6.47217,4.72656 0.25781,0.18945 0.57373,0.28028 0.89258,0.25781 0,0 7.48535,-0.51953 7.48535,-0.51953"
           style="fill:none;stroke:#231f20;stroke-width:0.25;stroke-linecap:round;stroke-linejoin:round;stroke-miterlimit:10;stroke-dasharray:none;stroke-opacity:1"
           id="path28"
           inkscape:connector-curvature="0" /><path
           d="m 65.37793,-76.84277 c 3.76953,-0.9668 8.39893,-0.01758 12.2998,2.8955 1.77002,1.32129 3.19483,2.90137 4.23682,4.59766"
           style="fill:none;stroke:#231f20;stroke-width:0.5;stroke-linecap:round;stroke-linejoin:round;stroke-miterlimit:10;stroke-dasharray:none;stroke-opacity:1"
           id="path30"
           inkscape:connector-curvature="0" /><path
           d="m 64.93457,-122.24268 c 0,0 30.30273,-2.53076 30.30273,-2.53076"
           style="fill:none;stroke:#231f20;stroke-width:0.25;stroke-linecap:round;stroke-linejoin:round;stroke-miterlimit:10;stroke-dasharray:none;stroke-opacity:1"
           id="path32"
           inkscape:connector-curvature="0" /><path
           d="m 64.18555,-131.81885 c 0,0 37.41259,-3.03711 37.41259,-3.03711"
           style="fill:none;stroke:#231f20;stroke-width:0.5;stroke-linecap:round;stroke-linejoin:round;stroke-miterlimit:10;stroke-dasharray:none;stroke-opacity:1"
           id="path34"
           inkscape:connector-curvature="0" /><path
           d="m 101.59863,-133.67285 c 0,0 1.23096,-8.20117 1.70996,-11.82715 0.47901,-3.625 1.36768,-4.65088 2.59912,-7.52393 1.23194,-2.87304 3.35157,-7.11377 2.80469,-15.66406 -0.54687,-8.55078 -0.75195,-10.73974 0.41016,-15.2539 1.16308,-4.51514 0.27392,-7.9668 0.27392,-7.9668"
           style="fill:none;stroke:#231f20;stroke-width:0.5;stroke-linecap:round;stroke-linejoin:round;stroke-miterlimit:10;stroke-dasharray:none;stroke-opacity:1"
           id="path36"
           inkscape:connector-curvature="0" /><path
           d="m 121.60449,-191.90869 c 1.75293,11.25781 -1.08984,20.67383 -0.46191,29.11767 0.62695,8.44434 2.13574,16.01709 1.04101,24.9292 -1.09423,8.91211 -3.36328,20.56104 -3.36328,20.56104"
           style="fill:none;stroke:#231f20;stroke-width:0.5;stroke-linecap:round;stroke-linejoin:round;stroke-miterlimit:10;stroke-dasharray:none;stroke-opacity:1"
           id="path38"
           inkscape:connector-curvature="0" /><path
           d="m 130.80811,-81.59863 c 0,0 4.083,-0.2793 3.66308,-4.62989 -0.41894,-4.35058 -5.3125,-51.05078 -5.3125,-51.05078 0,0 -2.4668,0.27295 -2.4668,0.27295 0,0 0,0.041 0,0.041 0,0 2.86524,27.23584 4.39454,41.94678"
           style="fill:none;stroke:#231f20;stroke-width:0.5;stroke-linecap:round;stroke-linejoin:round;stroke-miterlimit:10;stroke-dasharray:none;stroke-opacity:1"
           id="path40"
           inkscape:connector-curvature="0" /><path
           d="m 127.65479,-95.38867 c -1.54981,-14.88916 -4.32178,-41.2461 -4.32178,-41.2461 0,0 2.47412,-0.27392 2.4751,-0.27392 0,0 2.76367,26.40283 4.31445,41.36474"
           style="fill:none;stroke:#231f20;stroke-width:0.5;stroke-linecap:round;stroke-linejoin:round;stroke-miterlimit:10;stroke-dasharray:none;stroke-opacity:1"
           id="path42"
           inkscape:connector-curvature="0" /><path
           d="m 104.28809,-78.8418 c 0,0 -4.80713,-32.59472 -4.80713,-32.59472 -0.16602,-1.12696 -0.24903,-2.26514 -0.24903,-3.40528 0,0 0,-16.13281 0,-16.13281 -0.04882,-2.54102 2.78711,-2.83594 2.78711,-2.83594 0,0 7.32666,-0.8872 8.62696,-1.06396 1.2998,-0.17725 1.5791,0.2749 1.65088,1.35888 0,0 0.93505,14.417 1.34179,18.84913 0.40821,4.43164 0.95117,9.11767 0.95117,9.11767 0,0 2.78418,23.29102 3.25928,26.58399 0.47559,3.29394 3.59277,41.208 3.59277,41.208 0.23291,4.41797 -2.09277,5.11621 -4.18603,5.58106 -2.09277,0.46484 -4.96289,0.15723 -8.68213,4.10937 -3.61084,3.83594 -2.90967,10.17676 -2.26074,13.34473 0.21191,1.03809 -0.52002,2.02344 -1.5752,2.12598 0,0 -18.33008,1.78222 -18.33008,1.78222 -1.11865,0.1084 -2.1499,-0.61328 -2.43066,-1.70117 0,0 -3.51611,-13.59961 -3.51611,-13.59961 -0.47998,-1.85937 -0.66699,-3.78125 -0.5542,-5.69726 0,0 3.25293,-55.16602 3.25293,-55.16602 0.04101,-0.68848 0.39599,-1.31934 0.96338,-1.71191 0,0 14.45068,-9.99805 14.45068,-9.99805"
           style="fill:none;stroke:#ffffff;stroke-width:3;stroke-linecap:round;stroke-linejoin:round;stroke-miterlimit:10;stroke-dasharray:none;stroke-opacity:1"
           id="path44"
           inkscape:connector-curvature="0" /><path
           d="m 113.11963,-126.2998 c 0,0 3.54492,-0.48291 3.54492,-0.48291 0,0 0.76611,-0.27833 1.07813,1.81689 0.35693,2.40381 1.17675,7.08984 3.71582,30.32617"
           style="fill:none;stroke:#ffffff;stroke-width:3;stroke-linecap:round;stroke-linejoin:round;stroke-miterlimit:10;stroke-dasharray:none;stroke-opacity:1"
           id="path46"
           inkscape:connector-curvature="0" /><path
           d="m 120.55957,-94.36621 c 0,0 7.86084,-0.85059 9.22998,-0.89551 1.36914,-0.04492 2.20801,1.33008 2.25195,1.99219 0.0439,0.66211 0.66211,6.53418 0.75098,7.50488 0.0879,0.97266 -0.64258,2.41602 -1.85547,2.56152 -0.96484,0.11524 -9.06836,0.79981 -9.06836,0.79981"
           style="fill:none;stroke:#ffffff;stroke-width:3;stroke-linecap:round;stroke-linejoin:round;stroke-miterlimit:10;stroke-dasharray:none;stroke-opacity:1"
           id="path48"
           inkscape:connector-curvature="0" /><path
           d="m 130.27588,-82.68457 c 0,0 0.33398,3.36035 0.33398,3.36035 0.11328,1.14453 0.84961,2.14063 1.9209,2.55859 3.19922,1.24317 6.14844,3.01954 8.88184,5.25489 0.71191,0.58301 1.61523,0.8789 2.53125,0.78222 0,0 6.84863,-0.71875 6.84863,-0.71875 1.03906,-0.10937 1.96777,-0.69531 2.51172,-1.58691 1.42969,-2.34668 3.2959,-4.27637 5.56055,-5.82031 0.82421,-0.56153 1.78125,-0.90625 2.77441,-1.00098 0,0 4.4082,-0.41797 4.4082,-0.41797 0,0 6.20215,-1.50879 10.33203,78.77344"
           style="fill:none;stroke:#ffffff;stroke-width:3;stroke-linecap:round;stroke-linejoin:round;stroke-miterlimit:10;stroke-dasharray:none;stroke-opacity:1"
           id="path50"
           inkscape:connector-curvature="0" /><path
           d="m 17.88428,-193.22852 c 0,0 4.73095,33.33301 6.23681,43.22608 1.50537,9.89209 1.29004,14.4082 1.29004,14.4082 -0.10595,6.86572 -0.354,7.67676 -0.83789,13.04883 -0.48486,5.37305 -0.99072,11.6582 -1.49804,21.38916 -0.50684,9.73145 0.70898,18.14453 1.62207,23.82227 0.91211,5.67675 1.75097,12.5039 2.9082,17.93066 1.45068,6.80273 -1.79297,8.93164 -2.60401,20.28516 0,0 -0.20312,3.44628 -0.60839,9.12402 -0.40577,5.67578 -0.60889,11.96094 2.7373,25.24121"
           style="fill:none;stroke:#231f20;stroke-width:0.5;stroke-linecap:round;stroke-linejoin:round;stroke-miterlimit:10;stroke-dasharray:none;stroke-opacity:1"
           id="path52"
           inkscape:connector-curvature="0" /><path
           d="m 54.87354,-193.22852 c 3.65625,18.28028 5.37597,33.11817 6.66699,41.50489 1.29004,8.3872 0.85986,19.57031 0.85986,19.57031 0,0 -1.21094,17.41406 -1.4126,25.625 -0.20312,8.21094 1.11475,20.27344 2.53369,28.28223 1.41895,8.00781 5.19434,24.93652 5.68897,29.39648 0.32031,2.88867 0.05127,5.18164 -0.17871,6.43945"
           style="fill:none;stroke:#231f20;stroke-width:0.25;stroke-linecap:round;stroke-linejoin:round;stroke-miterlimit:10;stroke-dasharray:none;stroke-opacity:1"
           id="path54"
           inkscape:connector-curvature="0" /><path
           d="m 56.58789,-191.90869 c 3.67481,18.20801 5.40381,32.98877 6.70068,41.34277 1.29834,8.35401 0.86524,19.49414 0.86524,19.49414 0,0 -1.21729,17.34473 -1.41992,25.52393 -0.2041,8.17871 1.1206,20.19531 2.54687,28.1709 1.42676,7.97656 5.22217,24.83984 5.71875,29.2832 0.24805,2.2207 0.14307,4.08887 -0.02392,5.40234"
           style="fill:none;stroke:#231f20;stroke-width:0.5;stroke-linecap:round;stroke-linejoin:round;stroke-miterlimit:10;stroke-dasharray:none;stroke-opacity:1"
           id="path56"
           inkscape:connector-curvature="0" /><path
           d="m 19.28613,-183.38232 c -7.42285,21.55175 -9.35888,33.95556 -10.64892,48.57959"
           style="fill:none;stroke:#231f20;stroke-width:0.5;stroke-linecap:round;stroke-linejoin:round;stroke-miterlimit:10;stroke-dasharray:none;stroke-opacity:1"
           id="path58"
           inkscape:connector-curvature="0" /><path
           d="m 0.25,-177.74463 c 0,0 15.6709,-0.0801 18.26611,-3.37305"
           style="fill:none;stroke:#231f20;stroke-width:0.5;stroke-linecap:round;stroke-linejoin:round;stroke-miterlimit:10;stroke-dasharray:none;stroke-opacity:1"
           id="path60"
           inkscape:connector-curvature="0" /><path
           d="m 1.10986,-165.70166 c 0,0 10.22022,-1.50488 12.74512,0"
           style="fill:none;stroke:#231f20;stroke-width:0.5;stroke-linecap:round;stroke-linejoin:round;stroke-miterlimit:10;stroke-dasharray:none;stroke-opacity:1"
           id="path62"
           inkscape:connector-curvature="0" /><path
           d="m 1.10986,-152.36816 c 0,0 3.65625,13.54785 4.51612,17.84912"
           style="fill:none;stroke:#231f20;stroke-width:0.5;stroke-linecap:round;stroke-linejoin:round;stroke-miterlimit:10;stroke-dasharray:none;stroke-opacity:1"
           id="path64"
           inkscape:connector-curvature="0" /><path
           d="m 20.1416,-128.90918 c 1.14209,-0.4668 1.86328,-1.90381 2.06006,-3.24365 0.33301,-2.26416 0.91602,-9.17822 2.37109,-14.66211"
           style="fill:none;stroke:#231f20;stroke-width:0.25;stroke-linecap:round;stroke-linejoin:round;stroke-miterlimit:10;stroke-dasharray:none;stroke-opacity:1"
           id="path66"
           inkscape:connector-curvature="0" /><path
           d="m 0.25,-133.58545 c 0,0 10.80713,-1.41406 10.80713,-1.41406 0,0 3.32666,2.99414 6.15478,5.32324 1.15381,0.95117 2.14209,1.08984 2.93018,0.76709"
           style="fill:none;stroke:#231f20;stroke-width:0.5;stroke-linecap:round;stroke-linejoin:round;stroke-miterlimit:10;stroke-dasharray:none;stroke-opacity:1"
           id="path68"
           inkscape:connector-curvature="0" /><path
           d="m 11.05713,-134.99902 c 0,0 -2.40723,33.17773 -2.41992,54.27441 -0.01319,21.09668 4.68799,21.93164 4.30175,32.81445 -0.38574,10.88379 -0.54003,7.71875 -0.77197,17.75293 -0.23095,10.03418 1.39014,21.61231 3.55078,28.71289"
           style="fill:none;stroke:#231f20;stroke-width:0.25;stroke-linecap:round;stroke-linejoin:round;stroke-miterlimit:10;stroke-dasharray:none;stroke-opacity:1"
           id="path70"
           inkscape:connector-curvature="0" /><path
           d="M 4.19531,-13.31641 C 4.83105,-8.8125 5.7002,-4.66699 6.68115,-1.44434"
           style="fill:none;stroke:#231f20;stroke-width:0.5;stroke-linecap:round;stroke-linejoin:round;stroke-miterlimit:10;stroke-dasharray:none;stroke-opacity:1"
           id="path72"
           inkscape:connector-curvature="0" /><path
           d="m 1.70947,-61.17676 c 1.18701,4.58789 2.396,7.53321 2.19336,13.26758 -0.38623,10.88281 -0.54004,7.71777 -0.77197,17.75195 -0.12598,5.48047 0.2998,11.4209 1.06494,16.84082"
           style="fill:none;stroke:#231f20;stroke-width:0.25;stroke-linecap:round;stroke-linejoin:round;stroke-miterlimit:10;stroke-dasharray:none;stroke-opacity:1"
           id="path74"
           inkscape:connector-curvature="0" /><path
           d="m 1.28418,-14.25684 c 0,0 1.37061,2.03711 3.23291,3.06446"
           style="fill:none;stroke:#231f20;stroke-width:0.5;stroke-linecap:round;stroke-linejoin:round;stroke-miterlimit:10;stroke-dasharray:none;stroke-opacity:1"
           id="path76"
           inkscape:connector-curvature="0" /><path
           d="m 67.96973,-32.50684 c -2.02735,2.12891 -1.51709,4.13477 -1.30616,7.37793 0.4419,6.77051 2.69385,20.917 2.69385,20.917"
           style="fill:none;stroke:#231f20;stroke-width:0.25;stroke-linecap:round;stroke-linejoin:round;stroke-miterlimit:10;stroke-dasharray:none;stroke-opacity:1"
           id="path78"
           inkscape:connector-curvature="0" /><path
           d="m 76.29395,-38.50977 c 0.60791,14.59668 -2.93995,21.86817 -5.47364,25.78516 -2.53418,3.91602 -1.31836,9.38965 -1.31836,9.38965"
           style="fill:none;stroke:#231f20;stroke-width:0.5;stroke-linecap:round;stroke-linejoin:round;stroke-miterlimit:10;stroke-dasharray:none;stroke-opacity:1"
           id="path80"
           inkscape:connector-curvature="0" /><path
           d="m 71.67871,-44.75488 c 3.02295,0.30957 3.33301,2.24804 4.26416,2.79101 0.93018,0.54199 0.99609,2.16992 0.41992,2.71289"
           style="fill:none;stroke:#231f20;stroke-width:0.25;stroke-linecap:round;stroke-linejoin:round;stroke-miterlimit:10;stroke-dasharray:none;stroke-opacity:1"
           id="path82"
           inkscape:connector-curvature="0" /><path
           d="m 81.52393,-29.17285 c 0,0 30.3872,-3.57324 33.41015,-3.96094 3.02295,-0.38769 6.35791,-1.18945 6.20313,-5.37598"
           style="fill:none;stroke:#231f20;stroke-width:0.5;stroke-linecap:round;stroke-linejoin:round;stroke-miterlimit:10;stroke-dasharray:none;stroke-opacity:1"
           id="path84"
           inkscape:connector-curvature="0" /><path
           d="m 82.66748,-78.48633 c 0,0 17.38428,-11.69531 17.38428,-11.69531"
           style="fill:none;stroke:#231f20;stroke-width:1;stroke-linecap:round;stroke-linejoin:round;stroke-miterlimit:10;stroke-dasharray:none;stroke-opacity:1"
           id="path86"
           inkscape:connector-curvature="0" /><path
           d="m 100.67139,-88.70898 c 0,0 -18.11768,12.1621 -18.11768,12.1621 0,0 21.99365,-1.94042 21.99365,-1.94042"
           style="fill:none;stroke:#231f20;stroke-width:0.5;stroke-linecap:round;stroke-linejoin:round;stroke-miterlimit:10;stroke-dasharray:none;stroke-opacity:1"
           id="path88"
           inkscape:connector-curvature="0" /><path
           d="m 98.96631,-97.31348 c 0,0 -15.80127,11.08496 -15.80127,11.08496 0,0 12.80127,-1.20507 12.80127,-1.20507"
           style="fill:none;stroke:#231f20;stroke-width:0.5;stroke-linecap:round;stroke-linejoin:round;stroke-miterlimit:10;stroke-dasharray:none;stroke-opacity:1"
           id="path90"
           inkscape:connector-curvature="0" /><path
           d="m 100.67139,-88.87012 c 0,0 -3.25,-21.23486 -3.25,-21.23486 0,0 1.15722,-3.64307 1.15722,-3.64307 0,0 -1.68213,-10.95117 -1.68213,-10.95117 0,0 2.06983,-5.01172 2.06983,-5.01172"
           style="fill:none;stroke:#231f20;stroke-width:1;stroke-linecap:round;stroke-linejoin:round;stroke-miterlimit:10;stroke-dasharray:none;stroke-opacity:1"
           id="path92"
           inkscape:connector-curvature="0" /><path
           d="m 98.57861,-113.74854 c 0,0 0.65821,-1.72363 0.65821,-1.72363"
           style="fill:none;stroke:#231f20;stroke-width:1;stroke-linecap:round;stroke-linejoin:round;stroke-miterlimit:10;stroke-dasharray:none;stroke-opacity:1"
           id="path94"
           inkscape:connector-curvature="0" /><path
           d="m 105.68262,-12.91699 c -0.25977,0.20605 -0.58106,0.34277 -0.93994,0.37793 0,0 -18.33008,1.78125 -18.33008,1.78125 -1.11865,0.10937 -2.1499,-0.61231 -2.43067,-1.7002 0,0 -3.51611,-13.60058 -3.51611,-13.60058 -0.47998,-1.8584 -0.66699,-3.78125 -0.5542,-5.69727 0,0 3.25293,-55.16602 3.25293,-55.16602 0.04102,-0.6875 0.39649,-1.31835 0.96338,-1.71191 0,0 14.45068,-9.99756 14.45068,-9.99756"
           style="fill:none;stroke:#231f20;stroke-width:1;stroke-linecap:round;stroke-linejoin:round;stroke-miterlimit:10;stroke-dasharray:none;stroke-opacity:1"
           id="path96"
           inkscape:connector-curvature="0" /><path
           d="m 105.80859,-20.37695 c -0.0874,2.20312 0.21631,4.28125 0.50928,5.71191 0.13965,0.68555 -0.13135,1.34668 -0.63525,1.74805"
           style="fill:none;stroke:#231f20;stroke-width:1;stroke-linecap:round;stroke-linejoin:round;stroke-miterlimit:10;stroke-dasharray:none;stroke-opacity:1"
           id="path98"
           inkscape:connector-curvature="0" /><path
           d="m 108.57861,-28.01074 c -1.97998,2.10351 -2.66357,4.95996 -2.77002,7.63379"
           style="fill:none;stroke:#231f20;stroke-width:1;stroke-linecap:round;stroke-linejoin:round;stroke-miterlimit:10;stroke-dasharray:none;stroke-opacity:1"
           id="path100"
           inkscape:connector-curvature="0" /><path
           d="m 104.29297,-78.78516 c 0,0 -4.80713,-32.59521 -4.80713,-32.59521 -0.16602,-1.12695 -0.24902,-2.26514 -0.24902,-3.40527 0,0 0,-16.13282 0,-16.13282 -0.04883,-2.54101 2.78711,-2.83593 2.78711,-2.83593 0,0 7.32666,-0.88721 8.62695,-1.06397 1.2998,-0.17725 1.5791,0.2749 1.65088,1.35889 0,0 0.93506,14.41699 1.34179,18.84912 0.40821,4.43213 0.95118,9.11816 0.95118,9.11816 0,0 2.78418,23.29102 3.25927,26.58399 0.47559,3.29394 3.59278,41.208 3.59278,41.208 0.0483,0.91797 -0.0137,1.67579 -0.16114,2.30372"
           style="fill:none;stroke:#231f20;stroke-width:1;stroke-linecap:round;stroke-linejoin:round;stroke-miterlimit:10;stroke-dasharray:none;stroke-opacity:1"
           id="path102"
           inkscape:connector-curvature="0" /><path
           d="m 100.52832,-113.74854 c 0,0 11.77393,-1.24462 11.77393,-1.24462"
           style="fill:none;stroke:#231f20;stroke-width:0.5;stroke-linecap:round;stroke-linejoin:round;stroke-miterlimit:10;stroke-dasharray:none;stroke-opacity:1"
           id="path104"
           inkscape:connector-curvature="0" /><path
           d="m 107.19287,-86.22852 c 0,0 1.69824,15.70704 1.69824,15.70704"
           style="fill:none;stroke:#231f20;stroke-width:1;stroke-linecap:round;stroke-linejoin:round;stroke-miterlimit:10;stroke-dasharray:none;stroke-opacity:1"
           id="path106"
           inkscape:connector-curvature="0" /><path
           d="m 107.80225,-86.22852 c 0,0 5.43408,-0.58984 5.43408,-0.58984 0,0 1.69824,15.82129 1.69824,15.82129 0,0 -5.3623,0.47559 -5.3623,0.47559"
           style="fill:none;stroke:#231f20;stroke-width:0.5;stroke-linecap:round;stroke-linejoin:round;stroke-miterlimit:10;stroke-dasharray:none;stroke-opacity:1"
           id="path108"
           inkscape:connector-curvature="0" /><path
           d="m 121.29736,-73.69336 c 0.10938,0.44531 0.16602,0.9043 0.16602,1.36816 0,0 0,36.13086 0,36.13086 -0.0669,2.90528 -1.42481,5.14454 -5.02295,5.51075 -3.59668,0.36718 -5.93408,0.92285 -7.38965,2.1914"
           style="fill:none;stroke:#231f20;stroke-width:1;stroke-linecap:round;stroke-linejoin:round;stroke-miterlimit:10;stroke-dasharray:none;stroke-opacity:1"
           id="path110"
           inkscape:connector-curvature="0" /><path
           d="m 117.5835,-80.9502 c 0.21777,1.64844 1.59765,3.7002 2.65088,5.06055 0.50683,0.65527 0.86914,1.40332 1.06298,2.19629"
           style="fill:none;stroke:#231f20;stroke-width:0.5;stroke-linecap:round;stroke-linejoin:round;stroke-miterlimit:10;stroke-dasharray:none;stroke-opacity:1"
           id="path112"
           inkscape:connector-curvature="0" /><path
           d="m 105.99121,-21.21191 c 0.68115,-3.7002 3.78027,-5.57911 8.03906,-6.20313 2.89209,-0.42383 2.31299,-0.33008 3.92823,-0.51367 1.61474,-0.18457 6.68554,-1.80371 6.68554,-6.71777 0,0 0,-37.46094 0,-37.46094 0,-4.29981 -1.85254,-5.79981 -2.73877,-7.00781 -0.88623,-1.20899 -1.04687,-4.35059 -1.04687,-4.35059 -0.94727,-7.50781 -2.38721,-19.81104 -2.96729,-24.79199 -0.1709,-1.4624 -0.28173,-2.9253 -0.33398,-4.396 0,0 -0.8877,-13.58935 -0.8877,-13.58935"
           style="fill:none;stroke:#231f20;stroke-width:1;stroke-linecap:round;stroke-linejoin:round;stroke-miterlimit:10;stroke-dasharray:none;stroke-opacity:1"
           id="path114"
           inkscape:connector-curvature="0" /><path
           d="m 113.12451,-126.24365 c 0,0 3.54492,-0.48291 3.54492,-0.48291 0,0 0.76612,-0.27783 1.07813,1.81689 0.35693,2.4043 1.17676,7.09033 3.71582,30.32569"
           style="fill:none;stroke:#231f20;stroke-width:1;stroke-linecap:round;stroke-linejoin:round;stroke-miterlimit:10;stroke-dasharray:none;stroke-opacity:1"
           id="path116"
           inkscape:connector-curvature="0" /><path
           d="m 121.60449,-82.30859 c -1.00293,0.08886 -1.91113,-11.85938 -1.24804,-11.96387"
           style="fill:none;stroke:#231f20;stroke-width:0.5;stroke-linecap:round;stroke-linejoin:round;stroke-miterlimit:10;stroke-dasharray:none;stroke-opacity:1"
           id="path118"
           inkscape:connector-curvature="0" /><path
           d="m 120.56445,-94.30957 c 0,0 7.86084,-0.85156 9.22998,-0.89648 1.36914,-0.04395 2.20801,1.33105 2.25196,1.99316 0.0439,0.66211 0.66211,6.53418 0.75097,7.50488 0.0879,0.97168 -0.64257,2.41602 -1.85449,2.56153 -0.96582,0.11425 -9.06933,0.7998 -9.06933,0.7998"
           style="fill:none;stroke:#231f20;stroke-width:1;stroke-linecap:round;stroke-linejoin:round;stroke-miterlimit:10;stroke-dasharray:none;stroke-opacity:1"
           id="path120"
           inkscape:connector-curvature="0" /><path
           d="m 129.75439,-94.02441 c 0,0 1.05372,9.69824 1.05372,9.69824"
           style="fill:none;stroke:#231f20;stroke-width:0.5;stroke-linecap:round;stroke-linejoin:round;stroke-miterlimit:10;stroke-dasharray:none;stroke-opacity:1"
           id="path122"
           inkscape:connector-curvature="0" /><path
           d="m 130.28076,-82.62793 c 0,0 0.33399,3.36035 0.33399,3.36035 0.11328,1.14453 0.84961,2.14063 1.92089,2.5586 3.19922,1.24316 6.14844,3.01953 8.88184,5.2539 0.71191,0.58301 1.61523,0.87891 2.53125,0.7832 0,0 6.84863,-0.71875 6.84863,-0.71875 1.03907,-0.10937 1.96778,-0.69531 2.51172,-1.58691 1.42969,-2.34766 3.2959,-4.27637 5.56055,-5.82031 0.82422,-0.5625 1.78125,-0.90723 2.77441,-1.00098 0,0 4.40821,-0.41797 4.40821,-0.41797 0,0 6.20214,-1.50879 10.33203,78.77246"
           style="fill:none;stroke:#231f20;stroke-width:1;stroke-linecap:round;stroke-linejoin:round;stroke-miterlimit:10;stroke-dasharray:none;stroke-opacity:1"
           id="path124"
           inkscape:connector-curvature="0" /><path
           d="m 152.03662,-68.30664 c 0,0 6.08692,64.97266 6.08692,64.97266"
           style="fill:none;stroke:#231f20;stroke-width:0.5;stroke-linecap:round;stroke-linejoin:round;stroke-miterlimit:10;stroke-dasharray:none;stroke-opacity:1"
           id="path126"
           inkscape:connector-curvature="0" /><path
           d="m 180.86279,-185.46533 c 0,0 -1.50879,96.29053 10.77637,172.73974"
           style="fill:none;stroke:#231f20;stroke-width:0.25;stroke-linecap:round;stroke-linejoin:round;stroke-miterlimit:10;stroke-dasharray:none;stroke-opacity:1"
           id="path128"
           inkscape:connector-curvature="0" /><path
           d="m 129.53662,-133.67285 c 0,0 2.82227,0.24902 3.26758,2.58789 0.44434,2.33935 2.3584,19.84521 2.57031,22.68017 0.21387,2.83497 -2.57031,4.25293 -2.57031,4.25293"
           style="fill:none;stroke:#231f20;stroke-width:0.5;stroke-linecap:round;stroke-linejoin:round;stroke-miterlimit:10;stroke-dasharray:none;stroke-opacity:1"
           id="path130"
           inkscape:connector-curvature="0" /><path
           d="m 132.95068,-130.6377 c 0,0 7.45703,-0.86279 7.45703,-0.86279 0.80176,0.50879 1.29102,1.31983 1.55958,2.34522 0,0 1.98339,17.28759 1.98339,17.28759 0.0547,1.16797 -0.21093,2.2544 -0.77832,3.26026 0,0 -7.78515,0.85107 -7.78515,0.85107"
           style="fill:none;stroke:#231f20;stroke-width:0.5;stroke-linecap:round;stroke-linejoin:round;stroke-miterlimit:10;stroke-dasharray:none;stroke-opacity:1"
           id="path132"
           inkscape:connector-curvature="0" /><path
           d="m 133.58545,-125.86084 c 0,0 6.85449,-0.87793 6.85449,-0.87793"
           style="fill:none;stroke:#231f20;stroke-width:0.25;stroke-linecap:round;stroke-linejoin:round;stroke-miterlimit:10;stroke-dasharray:none;stroke-opacity:1"
           id="path134"
           inkscape:connector-curvature="0" /><path
           d="m 134.69678,-115.18213 c 0,0 6.93457,-0.82031 6.93457,-0.82031 0,0 1.2998,-2.02197 0.90332,-5.81299 -0.39746,-3.79102 -2.09473,-4.92383 -2.09473,-4.92383 0,0 1.46777,-1.21582 1.25781,-2.8208"
           style="fill:none;stroke:#231f20;stroke-width:0.25;stroke-linecap:round;stroke-linejoin:round;stroke-miterlimit:10;stroke-dasharray:none;stroke-opacity:1"
           id="path136"
           inkscape:connector-curvature="0" /><path
           d="m 141.63135,-116.00244 c 1.31543,1.28027 1.91211,1.85693 2.15136,3.66992"
           style="fill:none;stroke:#231f20;stroke-width:0.25;stroke-linecap:round;stroke-linejoin:round;stroke-miterlimit:10;stroke-dasharray:none;stroke-opacity:1"
           id="path138"
           inkscape:connector-curvature="0" /><path
           d="m 123.33301,-136.63477 c 0,0 -0.76221,-3.29394 -0.76221,-3.29394"
           style="fill:none;stroke:#231f20;stroke-width:0.5;stroke-linecap:round;stroke-linejoin:round;stroke-miterlimit:10;stroke-dasharray:none;stroke-opacity:1"
           id="path140"
           inkscape:connector-curvature="0" /><path
           d="m 167.82568,-102.16748 c -2.34277,1.4541 -5.10547,2.29297 -8.06445,2.29297 -8.4541,0 -15.30762,-6.85303 -15.30762,-15.30811 0,-8.4541 6.85352,-15.3081 15.30762,-15.3081 2.44141,0 4.74805,0.57226 6.7959,1.58789"
           style="fill:none;stroke:#231f20;stroke-width:0.5;stroke-linecap:round;stroke-linejoin:round;stroke-miterlimit:10;stroke-dasharray:none;stroke-opacity:1"
           id="path142"
           inkscape:connector-curvature="0" /><path
           d="m 130.12354,-136.63477 c 0,0 35.35156,-3.29394 35.35156,-3.29394"
           style="fill:none;stroke:#231f20;stroke-width:0.5;stroke-linecap:round;stroke-linejoin:round;stroke-miterlimit:10;stroke-dasharray:none;stroke-opacity:1"
           id="path144"
           inkscape:connector-curvature="0" /><path
           d="m 124.64502,-72.10645 c 0,0 2.06543,29.29981 3.72754,47.67383 0,0 1.04394,10.74707 0.48926,13.19824 -1.17286,5.17579 -7.72412,4.75293 -6.84424,7.89942"
           style="fill:none;stroke:#231f20;stroke-width:1;stroke-linecap:round;stroke-linejoin:round;stroke-miterlimit:10;stroke-dasharray:none;stroke-opacity:1"
           id="path146"
           inkscape:connector-curvature="0" /><path
           d="m 125.48096,-74.58691 c 0,0 7.19336,0.17285 10.41992,1.30761"
           style="fill:none;stroke:#231f20;stroke-width:0.5;stroke-linecap:round;stroke-linejoin:round;stroke-miterlimit:10;stroke-dasharray:none;stroke-opacity:1"
           id="path148"
           inkscape:connector-curvature="0" /><path
           d="m 61.42627,-163.49854 c 0,0 30.521,-3.66552 30.521,-3.66552 3.29003,-0.38916 3.29003,-7.13233 3.29003,-7.13233"
           style="fill:none;stroke:#231f20;stroke-width:0.5;stroke-linecap:round;stroke-linejoin:round;stroke-miterlimit:10;stroke-dasharray:none;stroke-opacity:1"
           id="path150"
           inkscape:connector-curvature="0" /><path
           d="m 91.26758,-173.86475 c 0,0 17.04004,-1.85302 17.04004,-1.85302"
           style="fill:none;stroke:#231f20;stroke-width:0.5;stroke-linecap:round;stroke-linejoin:round;stroke-miterlimit:10;stroke-dasharray:none;stroke-opacity:1"
           id="path152"
           inkscape:connector-curvature="0" /><path
           d="m 96.896,-193.86816 c 0,0 0.78125,9.61328 0.78125,9.61328 0,0 2.11084,9.46386 2.11084,9.46386"
           style="fill:none;stroke:#231f20;stroke-width:0.5;stroke-linecap:round;stroke-linejoin:round;stroke-miterlimit:10;stroke-dasharray:none;stroke-opacity:1"
           id="path154"
           inkscape:connector-curvature="0" /><path
           d="m 97.67676,-184.25488 c 0,0 7.08887,-0.77686 7.08887,-0.77686 0,0 0.97119,-2.62207 0,-9.2251"
           style="fill:none;stroke:#231f20;stroke-width:0.25;stroke-linecap:round;stroke-linejoin:round;stroke-miterlimit:10;stroke-dasharray:none;stroke-opacity:1"
           id="path156"
           inkscape:connector-curvature="0" /><path
           d="m 104.76514,-185.03174 c 0,0 2.37011,3.87695 3.10693,9.31299"
           style="fill:none;stroke:#231f20;stroke-width:0.25;stroke-linecap:round;stroke-linejoin:round;stroke-miterlimit:10;stroke-dasharray:none;stroke-opacity:1"
           id="path158"
           inkscape:connector-curvature="0" /><path
           d="m 106.31885,-192.60547 c -0.29102,3.39893 1.06494,12.07471 1.98877,13.17383"
           style="fill:none;stroke:#231f20;stroke-width:0.5;stroke-linecap:round;stroke-linejoin:round;stroke-miterlimit:10;stroke-dasharray:none;stroke-opacity:1"
           id="path160"
           inkscape:connector-curvature="0" /><path
           d="m 94.54932,-193.22852 c 0.40771,10.23633 1.80566,18.4961 3.79297,18.43702"
           style="fill:none;stroke:#231f20;stroke-width:0.25;stroke-linecap:round;stroke-linejoin:round;stroke-miterlimit:10;stroke-dasharray:none;stroke-opacity:1"
           id="path162"
           inkscape:connector-curvature="0" /><path
           d="m 80.87793,-194.25635 c 2.32959,10.77783 3.39893,14.74317 4.1748,18.53809 0.77686,3.7959 4.17579,9.23388 6.89502,8.55371"
           style="fill:none;stroke:#231f20;stroke-width:0.25;stroke-linecap:round;stroke-linejoin:round;stroke-miterlimit:10;stroke-dasharray:none;stroke-opacity:1"
           id="path164"
           inkscape:connector-curvature="0" /><path
           d="m 86.4126,-191.74463 c 1.31689,6.66016 2.05713,10.58789 2.62597,13.43408 0.56885,2.84571 1.25489,4.47608 1.87793,4.4458"
           style="fill:none;stroke:#231f20;stroke-width:0.25;stroke-linecap:round;stroke-linejoin:round;stroke-miterlimit:10;stroke-dasharray:none;stroke-opacity:1"
           id="path166"
           inkscape:connector-curvature="0" /></g></g><g
       id="g168"
       transform="scale(1,-1)"><path
         d="m 106.19629,-14.96191 c 0,0 1.6665,8.833 1.6665,8.833"
         style="fill:none;stroke:#231f20;stroke-width:1;stroke-linecap:round;stroke-linejoin:miter;stroke-miterlimit:4;stroke-dasharray:none;stroke-opacity:1"
         id="path170"
         inkscape:connector-curvature="0" /><path
         d="m 108.57861,-28.01074 c 0,0 0.40918,-0.39942 0.40918,-0.39942"
         style="fill:none;stroke:#231f20;stroke-width:1;stroke-linecap:round;stroke-linejoin:miter;stroke-miterlimit:4;stroke-dasharray:none;stroke-opacity:1"
         id="path172"
         inkscape:connector-curvature="0" /><path
         d="m 26.27979,-6.12891 c 0,0 -23.25,0 -23.25,0 0,0 -0.167,-6.83203 -0.167,-6.83203 0,0 23.25,0 23.25,0 0,0 0.167,6.83203 0.167,6.83203 z"
         style="fill:#ffffff;fill-opacity:1;fill-rule:nonzero;stroke:none"
         id="path174"
         inkscape:connector-curvature="0" /><path
         d="m 90.86279,-146.87891 c 0,0 11.11426,18.41846 11.11426,18.41846"
         style="fill:none;stroke:#ffffff;stroke-width:3;stroke-linecap:round;stroke-linejoin:miter;stroke-miterlimit:4;stroke-dasharray:none;stroke-opacity:1"
         id="path176"
         inkscape:connector-curvature="0" /><path
         d="m 101.97559,-128.4585 c 0,0 0,0 0,0"
         style="fill:none;stroke:#ffffff;stroke-width:3.75;stroke-linecap:round;stroke-linejoin:miter;stroke-miterlimit:4;stroke-dasharray:none;stroke-opacity:1"
         id="path178"
         inkscape:connector-curvature="0" /><path
         d="m 88.36279,-151.62891 c 0,0 13.61426,23.16846 13.61426,23.16846"
         style="fill:none;stroke:#201d1c;stroke-width:0.5;stroke-linecap:round;stroke-linejoin:miter;stroke-miterlimit:4;stroke-dasharray:none;stroke-opacity:1"
         id="path180"
         inkscape:connector-curvature="0" /><path
         d="m 101.97559,-128.4585 c 0,0 0,0 0,0"
         style="fill:none;stroke:#201d1c;stroke-width:1.5;stroke-linecap:round;stroke-linejoin:miter;stroke-miterlimit:4;stroke-dasharray:none;stroke-opacity:1"
         id="path182"
         inkscape:connector-curvature="0" /><g
         id="g184"
         transform="scale(1,-1)"><text
           transform="matrix(1,0,0,-1,137.99463,156.13574)"
           style="font-variant:normal;font-weight:bold;font-size:10px;font-family:Arial;-inkscape-font-specification:Arial-BoldMT;writing-mode:lr-tb;fill:#231f20;fill-opacity:1;fill-rule:nonzero;stroke:none"
           id="text188"><tspan
             x="0"
             y="0"
             id="tspan186">2</tspan></text>
<text
           transform="matrix(1,0,0,-1,82.55615,153.0625)"
           style="font-variant:normal;font-weight:bold;font-size:10px;font-family:Arial;-inkscape-font-specification:Arial-BoldMT;writing-mode:lr-tb;fill:#231f20;fill-opacity:1;fill-rule:nonzero;stroke:none"
           id="text192"><tspan
             x="0"
             y="0"
             id="tspan190">1</tspan></text>
<text
           transform="matrix(1,0,0,-1,4.12598,7.21631)"
           style="font-variant:normal;font-weight:normal;font-size:6px;font-family:Arial;-inkscape-font-specification:ArialMT;writing-mode:lr-tb;fill:#231f20;fill-opacity:1;fill-rule:nonzero;stroke:none"
           id="text196"><tspan
             x="0 3.6659999 7.6680002 11.004 14.34 17.676001"
             y="0"
             sodipodi:role="line"
             id="tspan194">TP0321</tspan></text>
<text
           transform="matrix(1,0,0,-1,191.32764,82.13672)"
           style="font-variant:normal;font-weight:bold;font-size:10px;font-family:Arial;-inkscape-font-specification:Arial-BoldMT;writing-mode:lr-tb;fill:#231f20;fill-opacity:1;fill-rule:nonzero;stroke:none"
           id="text200"><tspan
             x="0"
             y="0"
             id="tspan198">3</tspan></text>
<text
           transform="matrix(1,0,0,-1,194.32764,46.13672)"
           style="font-variant:normal;font-weight:bold;font-size:10px;font-family:Arial;-inkscape-font-specification:Arial-BoldMT;writing-mode:lr-tb;fill:#231f20;fill-opacity:1;fill-rule:nonzero;stroke:none"
           id="text204"><tspan
             x="0"
             y="0"
             id="tspan202">4</tspan></text>
<g
           id="g206"
           transform="scale(1,-1)"><path
             d="m 139.90674,-153.07764 c 0,0 -19.95654,39.32032 -19.95654,39.32032"
             style="fill:none;stroke:#ffffff;stroke-width:3;stroke-linecap:round;stroke-linejoin:miter;stroke-miterlimit:4;stroke-dasharray:none;stroke-opacity:1"
             id="path208"
             inkscape:connector-curvature="0" /><path
             d="m 119.94824,-113.75732 c 0,0 0,0 0,0"
             style="fill:none;stroke:#ffffff;stroke-width:3.75;stroke-linecap:round;stroke-linejoin:miter;stroke-miterlimit:4;stroke-dasharray:none;stroke-opacity:1"
             id="path210"
             inkscape:connector-curvature="0" /><path
             d="m 139.90674,-153.07764 c 0,0 -19.95654,39.32032 -19.95654,39.32032"
             style="fill:none;stroke:#201d1c;stroke-width:0.5;stroke-linecap:round;stroke-linejoin:miter;stroke-miterlimit:4;stroke-dasharray:none;stroke-opacity:1"
             id="path212"
             inkscape:connector-curvature="0" /><path
             d="m 119.94824,-113.75732 c 0,0 0,0 0,0"
             style="fill:none;stroke:#201d1c;stroke-width:1.5;stroke-linecap:round;stroke-linejoin:miter;stroke-miterlimit:4;stroke-dasharray:none;stroke-opacity:1"
             id="path214"
             inkscape:connector-curvature="0" /><path
             d="m 186.61279,-85.62891 c 0,0 -57.51953,-3.16699 -57.51953,-3.16699"
             style="fill:none;stroke:#ffffff;stroke-width:3;stroke-linecap:round;stroke-linejoin:miter;stroke-miterlimit:4;stroke-dasharray:none;stroke-opacity:1"
             id="path216"
             inkscape:connector-curvature="0" /><path
             d="m 129.09131,-88.79785 c 0,0 0,0 0,0"
             style="fill:none;stroke:#ffffff;stroke-width:3.75;stroke-linecap:round;stroke-linejoin:miter;stroke-miterlimit:4;stroke-dasharray:none;stroke-opacity:1"
             id="path218"
             inkscape:connector-curvature="0" /><path
             d="m 189.86279,-85.12891 c 0,0 -60.76953,-3.66699 -60.76953,-3.66699"
             style="fill:none;stroke:#201d1c;stroke-width:0.5;stroke-linecap:round;stroke-linejoin:miter;stroke-miterlimit:4;stroke-dasharray:none;stroke-opacity:1"
             id="path220"
             inkscape:connector-curvature="0" /><path
             d="m 129.09131,-88.79785 c 0,0 0,0 0,0"
             style="fill:none;stroke:#201d1c;stroke-width:1.5;stroke-linecap:round;stroke-linejoin:miter;stroke-miterlimit:4;stroke-dasharray:none;stroke-opacity:1"
             id="path222"
             inkscape:connector-curvature="0" /><path
             d="m 188.36279,-49.37891 c 0,0 -64.13281,-1.19531 -64.13281,-1.19531"
             style="fill:none;stroke:#ffffff;stroke-width:3;stroke-linecap:round;stroke-linejoin:miter;stroke-miterlimit:4;stroke-dasharray:none;stroke-opacity:1"
             id="path224"
             inkscape:connector-curvature="0" /><path
             d="m 124.22998,-50.57617 c 0,0 0,0 0,0"
             style="fill:none;stroke:#ffffff;stroke-width:3.75;stroke-linecap:round;stroke-linejoin:miter;stroke-miterlimit:4;stroke-dasharray:none;stroke-opacity:1"
             id="path226"
             inkscape:connector-curvature="0" /><path
             d="m 191.86279,-48.87891 c 0,0 -67.63281,-1.69531 -67.63281,-1.69531"
             style="fill:none;stroke:#201d1c;stroke-width:0.5;stroke-linecap:round;stroke-linejoin:miter;stroke-miterlimit:4;stroke-dasharray:none;stroke-opacity:1"
             id="path228"
             inkscape:connector-curvature="0" /><path
             d="m 124.22998,-50.57617 c 0,0 0,0 0,0"
             style="fill:none;stroke:#201d1c;stroke-width:1.5;stroke-linecap:round;stroke-linejoin:miter;stroke-miterlimit:4;stroke-dasharray:none;stroke-opacity:1"
             id="path230"
             inkscape:connector-curvature="0" /></g></g></g></g></svg>