<?xml version="1.0" encoding="UTF-8" standalone="no"?>
<!-- Created with Inkscape (http://www.inkscape.org/) -->

<svg
   xmlns:dc="http://purl.org/dc/elements/1.1/"
   xmlns:cc="http://creativecommons.org/ns#"
   xmlns:rdf="http://www.w3.org/1999/02/22-rdf-syntax-ns#"
   xmlns:svg="http://www.w3.org/2000/svg"
   xmlns="http://www.w3.org/2000/svg"
   xmlns:sodipodi="http://sodipodi.sourceforge.net/DTD/sodipodi-0.dtd"
   xmlns:inkscape="http://www.inkscape.org/namespaces/inkscape"
   version="1.1"
   id="svg32816"
   xml:space="preserve"
   width="321.25333"
   height="245.66667"
   viewBox="0 0 321.25333 245.66667"
   sodipodi:docname="IASM_00708.svg"
   inkscape:version="0.92.4 (5da689c313, 2019-01-14)"><metadata
     id="metadata32822"><rdf:RDF><cc:Work
         rdf:about=""><dc:format>image/svg+xml</dc:format><dc:type
           rdf:resource="http://purl.org/dc/dcmitype/StillImage" /><dc:title></dc:title></cc:Work></rdf:RDF></metadata><defs
     id="defs32820"><clipPath
       clipPathUnits="userSpaceOnUse"
       id="clipPath32832"><path
         d="M 0,0.016 H 240.83 V 184.25 H 0 Z"
         id="path32830"
         inkscape:connector-curvature="0" /></clipPath></defs><sodipodi:namedview
     pagecolor="#ffffff"
     bordercolor="#666666"
     borderopacity="1"
     objecttolerance="10"
     gridtolerance="10"
     guidetolerance="10"
     inkscape:pageopacity="0"
     inkscape:pageshadow="2"
     inkscape:window-width="640"
     inkscape:window-height="480"
     id="namedview32818"
     showgrid="false"
     inkscape:zoom="1.2618724"
     inkscape:cx="160.62666"
     inkscape:cy="122.83334"
     inkscape:window-x="0"
     inkscape:window-y="0"
     inkscape:window-maximized="1"
     inkscape:current-layer="g32824" /><g
     id="g32824"
     inkscape:groupmode="layer"
     inkscape:label="IASM_00708"
     transform="matrix(1.3333333,0,0,-1.3333333,0,245.66667)"><g
       id="g32826"><g
         id="g32828"
         clip-path="url(#clipPath32832)"><g
           id="g32834"
           transform="translate(200.0557,141.5858)"><path
             d="m 0,0 c -0.053,-2.855 -21.24,-4.777 -47.322,-4.292 -26.082,0.484 -47.616,4.293 -47.563,7.148 0.053,2.855 21.662,4.527 47.744,4.042 C -21.059,6.414 0.053,2.855 0,0 Z"
             style="fill:none;stroke:#231f20;stroke-width:1;stroke-linecap:round;stroke-linejoin:round;stroke-miterlimit:10;stroke-dasharray:none;stroke-opacity:1"
             id="path32836"
             inkscape:connector-curvature="0" /></g><g
           id="g32838"
           transform="translate(162.9899,145.798)"><path
             d="M 0,0 C -0.012,-0.629 -4.683,-1.053 -10.433,-0.946 -16.183,-0.84 -20.931,0 -20.919,0.63 c 0.011,0.629 4.776,0.998 10.526,0.891 C -4.643,1.414 0.012,0.629 0,0 Z"
             style="fill:none;stroke:#231f20;stroke-width:0.25;stroke-linecap:round;stroke-linejoin:round;stroke-miterlimit:10;stroke-dasharray:none;stroke-opacity:1"
             id="path32840"
             inkscape:connector-curvature="0" /></g><g
           id="g32842"
           transform="translate(98.8032,131.5526)"><path
             d="M 0,0 C 0.082,0.421 0.597,0.816 1.496,1.184"
             style="fill:none;stroke:#231f20;stroke-width:0.5;stroke-linecap:round;stroke-linejoin:round;stroke-miterlimit:10;stroke-dasharray:none;stroke-opacity:1"
             id="path32844"
             inkscape:connector-curvature="0" /></g><g
           id="g32846"
           transform="translate(153.7872,123.9439)"><path
             d="m 0,0 c -2.423,0.001 -4.907,0.025 -7.437,0.072 -26.082,0.484 -47.614,4.445 -47.559,7.428 0.001,0.037 0.005,0.073 0.012,0.109"
             style="fill:none;stroke:#231f20;stroke-width:0.25;stroke-linecap:round;stroke-linejoin:round;stroke-miterlimit:10;stroke-dasharray:none;stroke-opacity:1"
             id="path32848"
             inkscape:connector-curvature="0" /></g><g
           id="g32850"
           transform="translate(100.3617,142.484)"><path
             d="m 0,0 c 0,0 8.766,0.766 13.021,-4.723 l 3.596,-0.086 c 0,0 19,2.171 32.021,-3 h 5.873 c 0,0 18.063,4.469 31.851,0.511 l 4.021,0.192 c 0,0 5.681,6 13.596,3.829 l -2.234,2.362 c 0,0 -4.532,2.681 -12.575,3.702"
             style="fill:none;stroke:#231f20;stroke-width:0.25;stroke-linecap:round;stroke-linejoin:round;stroke-miterlimit:10;stroke-dasharray:none;stroke-opacity:1"
             id="path32852"
             inkscape:connector-curvature="0" /></g><g
           id="g32854"
           transform="translate(109.9327,146.5445)"><path
             d="M 0,0 -6.082,-1.55 -9.571,-4.06"
             style="fill:none;stroke:#231f20;stroke-width:0.5;stroke-linecap:round;stroke-linejoin:round;stroke-miterlimit:10;stroke-dasharray:none;stroke-opacity:1"
             id="path32856"
             inkscape:connector-curvature="0" /></g><g
           id="g32858"
           transform="translate(100.3617,142.493)"><path
             d="m 0,0 v -10.903 l 12.809,-4.51 3.765,-0.149 c 0,0 20.235,-1.085 31.894,-2.787 l 6.346,-0.08"
             style="fill:none;stroke:#231f20;stroke-width:0.5;stroke-linecap:round;stroke-linejoin:round;stroke-miterlimit:10;stroke-dasharray:none;stroke-opacity:1"
             id="path32860"
             inkscape:connector-curvature="0" /></g><g
           id="g32862"
           transform="translate(204.3404,139.2074)"><path
             d="M 0,0 V -1.021"
             style="fill:none;stroke:#231f20;stroke-width:0.25;stroke-linecap:round;stroke-linejoin:round;stroke-miterlimit:10;stroke-dasharray:none;stroke-opacity:1"
             id="path32864"
             inkscape:connector-curvature="0" /></g><g
           id="g32866"
           transform="translate(113.383,137.7606)"><path
             d="M 0,0 -0.213,-10.681"
             style="fill:none;stroke:#231f20;stroke-width:0.25;stroke-linecap:round;stroke-linejoin:round;stroke-miterlimit:10;stroke-dasharray:none;stroke-opacity:1"
             id="path32868"
             inkscape:connector-curvature="0" /></g><g
           id="g32870"
           transform="translate(116.9787,137.6755)"><path
             d="M 0,0 -0.043,-10.745"
             style="fill:none;stroke:#231f20;stroke-width:0.25;stroke-linecap:round;stroke-linejoin:round;stroke-miterlimit:10;stroke-dasharray:none;stroke-opacity:1"
             id="path32872"
             inkscape:connector-curvature="0" /></g><g
           id="g32874"
           transform="translate(149,134.6755)"><path
             d="M 0,0 -0.17,-10.532"
             style="fill:none;stroke:#231f20;stroke-width:0.25;stroke-linecap:round;stroke-linejoin:round;stroke-miterlimit:10;stroke-dasharray:none;stroke-opacity:1"
             id="path32876"
             inkscape:connector-curvature="0" /></g><g
           id="g32878"
           transform="translate(154.8723,134.6755)"><path
             d="M 0,0 V -10.372"
             style="fill:none;stroke:#231f20;stroke-width:0.25;stroke-linecap:round;stroke-linejoin:round;stroke-miterlimit:10;stroke-dasharray:none;stroke-opacity:1"
             id="path32880"
             inkscape:connector-curvature="0" /></g><g
           id="g32882"
           transform="translate(226.234,186.4415)"><path
             d="m 0,0 -1.42,-13.969 c -0.109,-1.081 -0.759,-2.033 -1.724,-2.53 l -0.412,-0.211 c -0.182,-0.094 -0.373,-0.17 -0.569,-0.227 l -71.832,-20.937"
             style="fill:none;stroke:#231f20;stroke-width:0.5;stroke-linecap:round;stroke-linejoin:round;stroke-miterlimit:10;stroke-dasharray:none;stroke-opacity:1"
             id="path32884"
             inkscape:connector-curvature="0" /></g><g
           id="g32886"
           transform="translate(221.9362,166.8245)"><path
             d="M 0,0 C 0,0 4.085,-6.979 26.383,-1.872"
             style="fill:none;stroke:#231f20;stroke-width:0.25;stroke-linecap:round;stroke-linejoin:round;stroke-miterlimit:10;stroke-dasharray:none;stroke-opacity:1"
             id="path32888"
             inkscape:connector-curvature="0" /></g><g
           id="g32890"
           transform="translate(179.383,155.8457)"><path
             d="M 0,0 C 32.426,7.064 37.957,1.447 37.957,1.447 50.053,-10.036 9.676,-25.428 1.439,-28.405 0.571,-28.718 0,-29.54 0,-30.463 v -12.431"
             style="fill:none;stroke:#231f20;stroke-width:0.5;stroke-linecap:round;stroke-linejoin:round;stroke-miterlimit:10;stroke-dasharray:none;stroke-opacity:1"
             id="path32892"
             inkscape:connector-curvature="0" /></g><g
           id="g32894"
           transform="translate(190.7447,135.3777)"><path
             d="M 0,0 V -4.04"
             style="fill:none;stroke:#231f20;stroke-width:0.25;stroke-linecap:round;stroke-linejoin:round;stroke-miterlimit:10;stroke-dasharray:none;stroke-opacity:1"
             id="path32896"
             inkscape:connector-curvature="0" /></g><g
           id="g32898"
           transform="translate(186.7234,135.1862)"><path
             d="M 0,0 V -5.468"
             style="fill:none;stroke:#231f20;stroke-width:0.25;stroke-linecap:round;stroke-linejoin:round;stroke-miterlimit:10;stroke-dasharray:none;stroke-opacity:1"
             id="path32900"
             inkscape:connector-curvature="0" /></g><g
           id="g32902"
           transform="translate(98.7916,131.4443)"><path
             d="m 0,0 v -5.928 c 0,0 1.783,-2.437 18.892,-4.665"
             style="fill:none;stroke:#231f20;stroke-width:0.5;stroke-linecap:round;stroke-linejoin:round;stroke-miterlimit:10;stroke-dasharray:none;stroke-opacity:1"
             id="path32904"
             inkscape:connector-curvature="0" /></g><g
           id="g32906"
           transform="translate(98.7916,130.9734)"><path
             d="m 0,0 -4.731,-2.375 c -2.943,-1.478 -5.015,-4.259 -5.589,-7.502 l -3.495,-19.774 c -0.164,-0.932 -0.027,-1.892 0.391,-2.74 l 3.443,-6.974 c 0.567,-1.147 1.6,-1.995 2.837,-2.325 l 11.886,-3.177 c 3.694,-0.988 6.073,-4.572 5.55,-8.359 l -0.358,-2.593 c -0.473,-3.416 -3.865,-5.619 -7.178,-4.659 l -12.228,3.542"
             style="fill:none;stroke:#231f20;stroke-width:0.5;stroke-linecap:round;stroke-linejoin:round;stroke-miterlimit:10;stroke-dasharray:none;stroke-opacity:1"
             id="path32908"
             inkscape:connector-curvature="0" /></g><g
           id="g32910"
           transform="translate(172.4729,30.7597)"><path
             d="m 0,0 2.134,2.464 c 0.155,0.179 0.38,0.282 0.617,0.282 h 2.991 c 0.217,0 0.424,0.086 0.578,0.239 l 0.058,0.059 c 3.35,3.35 5.391,7.787 5.755,12.511 l 0.751,9.771 c 0.017,0.212 -0.005,0.424 -0.069,0.627 -0.644,2.071 -4.212,14.846 1.012,29.107 0.068,0.185 0.104,0.382 0.103,0.579 l -0.065,11.007 c -0.039,6.496 -3.008,12.627 -8.08,16.685 L 4.923,84.02 c -0.438,0.351 -0.694,0.882 -0.694,1.444 v 6.36 c 0,0.627 -0.198,1.237 -0.565,1.744 l -0.507,0.7 C 2.51,95.161 1.428,95.624 0.336,95.467 -10.77,93.876 -70.696,85.675 -77.218,93.065"
             style="fill:none;stroke:#231f20;stroke-width:0.5;stroke-linecap:round;stroke-linejoin:round;stroke-miterlimit:10;stroke-dasharray:none;stroke-opacity:1"
             id="path32912"
             inkscape:connector-curvature="0" /></g><g
           id="g32914"
           transform="translate(91.329,38.4606)"><path
             d="m 0,0 c 2.127,-1.64 4.608,-2.752 7.25,-3.252 9.406,-1.782 34.024,-5.483 73.287,-4.732 0.232,0.005 0.455,0.108 0.607,0.283"
             style="fill:none;stroke:#231f20;stroke-width:1;stroke-linecap:round;stroke-linejoin:round;stroke-miterlimit:10;stroke-dasharray:none;stroke-opacity:1"
             id="path32916"
             inkscape:connector-curvature="0" /></g><g
           id="g32918"
           transform="translate(96.5957,78.5692)"><path
             d="m 0,0 -5.737,-1.469 c -1.429,-0.365 -2.639,-1.313 -3.337,-2.612 l -3.673,-6.834 c -0.178,-0.332 -0.249,-0.712 -0.201,-1.086 l 2.888,-22.64 c 0.148,-1.158 0.739,-2.215 1.649,-2.946 l 2.879,-2.313 c 0.088,-0.07 0.176,-0.14 0.265,-0.209"
             style="fill:none;stroke:#231f20;stroke-width:0.5;stroke-linecap:round;stroke-linejoin:round;stroke-miterlimit:10;stroke-dasharray:none;stroke-opacity:1"
             id="path32920"
             inkscape:connector-curvature="0" /></g><g
           id="g32922"
           transform="translate(85.617,99.25)"><path
             d="m 0,0 c 0,0 0.894,-1.596 3.702,-2.426 l 9.438,-1.925 c 8.864,-1.809 14.694,-10.326 13.171,-19.243 l -0.761,-4.454 c -1.15,-6.739 -7.737,-11.135 -14.394,-9.579 -4.621,1.08 -9.449,2.571 -12.369,4.499"
             style="fill:none;stroke:#231f20;stroke-width:0.25;stroke-linecap:round;stroke-linejoin:round;stroke-miterlimit:10;stroke-dasharray:none;stroke-opacity:1"
             id="path32924"
             inkscape:connector-curvature="0" /></g><g
           id="g32926"
           transform="translate(96.7547,87.9181)"><path
             d="m 0,0 v -13.075 c 0,-0.275 0.117,-0.532 0.325,-0.711 0.818,-0.705 3.339,-2.365 9.304,-2.825"
             style="fill:none;stroke:#231f20;stroke-width:0.5;stroke-linecap:round;stroke-linejoin:round;stroke-miterlimit:10;stroke-dasharray:none;stroke-opacity:1"
             id="path32928"
             inkscape:connector-curvature="0" /></g><g
           id="g32930"
           transform="translate(95.3352,36.162)"><path
             d="M 0,0 V -41.976"
             style="fill:none;stroke:#231f20;stroke-width:0.25;stroke-linecap:round;stroke-linejoin:round;stroke-miterlimit:10;stroke-dasharray:none;stroke-opacity:1"
             id="path32932"
             inkscape:connector-curvature="0" /></g><g
           id="g32934"
           transform="translate(203.1915,33.633)"><path
             d="M 0,0 V -37.532"
             style="fill:none;stroke:#231f20;stroke-width:0.25;stroke-linecap:round;stroke-linejoin:round;stroke-miterlimit:10;stroke-dasharray:none;stroke-opacity:1"
             id="path32936"
             inkscape:connector-curvature="0" /></g><g
           id="g32938"
           transform="translate(180.5745,126.8245)"><path
             d="m 0,0 c 0,0 1.66,-0.043 1.617,-3.447 l 0.215,-6.928 c 0.026,-0.814 0.413,-1.573 1.056,-2.072 l 0.176,-0.137 c 4.993,-3.873 7.915,-9.837 7.915,-16.157 v -11.473 c 0,-0.344 -0.052,-0.686 -0.161,-1.013 -0.793,-2.397 -4.119,-13.892 -0.401,-28.545 0.088,-0.346 0.12,-0.707 0.089,-1.063 L 9.389,-83.522 c -0.418,-4.752 -3.971,-8.632 -8.667,-9.466 -0.74,-0.131 -1.409,-0.523 -1.885,-1.105 l -1.177,-1.439"
             style="fill:none;stroke:#231f20;stroke-width:0.5;stroke-linecap:round;stroke-linejoin:round;stroke-miterlimit:10;stroke-dasharray:none;stroke-opacity:1"
             id="path32940"
             inkscape:connector-curvature="0" /></g><g
           id="g32942"
           transform="translate(176.1064,33.5053)"><path
             d="m 0,0 v -1.449 c 0,-0.969 0.788,-1.745 1.757,-1.726 3.995,0.078 14.059,0.502 22.426,2.743 2.045,0.547 4.13,0.932 6.243,1.055 l 15.49,0.899 c 0.813,0.047 1.568,0.434 2.08,1.066 l 1.41,1.737 c 0.346,0.427 0.564,0.944 0.627,1.49 l 5.207,44.883 c 0.153,1.322 1.032,2.448 2.277,2.918 l 41.625,15.706 c 3.072,1.159 6.435,1.301 9.594,0.404 l 7.732,-2.194"
             style="fill:none;stroke:#231f20;stroke-width:0.5;stroke-linecap:round;stroke-linejoin:round;stroke-miterlimit:10;stroke-dasharray:none;stroke-opacity:1"
             id="path32944"
             inkscape:connector-curvature="0" /></g><g
           id="g32946"
           transform="translate(134.2234,85.7181)"><path
             d="m 0,0 2.713,3.319 v 6.639 l -2.58,3.157"
             style="fill:none;stroke:#231f20;stroke-width:0.5;stroke-linecap:round;stroke-linejoin:round;stroke-miterlimit:10;stroke-dasharray:none;stroke-opacity:1"
             id="path32948"
             inkscape:connector-curvature="0" /></g><g
           id="g32950"
           transform="translate(134.3561,98.8334)"><path
             d="m 0,0 -0.133,0.162 -2.712,-3.319 v -6.639 l 2.712,-3.319"
             style="fill:none;stroke:#231f20;stroke-width:0.25;stroke-linecap:round;stroke-linejoin:round;stroke-miterlimit:10;stroke-dasharray:none;stroke-opacity:1"
             id="path32952"
             inkscape:connector-curvature="0" /></g><g
           id="g32954"
           transform="translate(140.0638,92.144)"><path
             d="m 0,0 c 0,-6.902 -2.472,-12.496 -5.521,-12.496 -3.05,0 -5.522,5.594 -5.522,12.496 0,6.902 2.472,12.496 5.522,12.496 C -2.472,12.496 0,6.902 0,0 Z"
             style="fill:none;stroke:#231f20;stroke-width:0.5;stroke-linecap:round;stroke-linejoin:round;stroke-miterlimit:10;stroke-dasharray:none;stroke-opacity:1"
             id="path32956"
             inkscape:connector-curvature="0" /></g><g
           id="g32958"
           transform="translate(136.226,104.6865)"><path
             d="m 0,0 c 1.539,1.131 3.321,1.712 5.178,1.712 5.341,0 9.192,-6.12 9.192,-13.67 0,-7.55 -5.32,-13.98 -10.661,-13.98 -1.864,0 -3.5,0.111 -4.834,0.81"
             style="fill:none;stroke:#231f20;stroke-width:0.5;stroke-linecap:round;stroke-linejoin:round;stroke-miterlimit:10;stroke-dasharray:none;stroke-opacity:1"
             id="path32960"
             inkscape:connector-curvature="0" /></g><g
           id="g32962"
           transform="translate(134.5426,104.6403)"><path
             d="M 0,0 H 11.394"
             style="fill:none;stroke:#231f20;stroke-width:0.5;stroke-linecap:round;stroke-linejoin:round;stroke-miterlimit:10;stroke-dasharray:none;stroke-opacity:1"
             id="path32964"
             inkscape:connector-curvature="0" /></g><g
           id="g32966"
           transform="translate(134.5426,79.6477)"><path
             d="M 0,0 H 8.649"
             style="fill:none;stroke:#231f20;stroke-width:0.5;stroke-linecap:round;stroke-linejoin:round;stroke-miterlimit:10;stroke-dasharray:none;stroke-opacity:1"
             id="path32968"
             inkscape:connector-curvature="0" /></g><g
           id="g32970"
           transform="translate(131.5107,95.6763)"><path
             d="M 0,0 H 5.319"
             style="fill:none;stroke:#231f20;stroke-width:0.25;stroke-linecap:round;stroke-linejoin:round;stroke-miterlimit:10;stroke-dasharray:none;stroke-opacity:1"
             id="path32972"
             inkscape:connector-curvature="0" /></g><g
           id="g32974"
           transform="translate(131.5107,89.0375)"><path
             d="M 0,0 H 5.255"
             style="fill:none;stroke:#231f20;stroke-width:0.25;stroke-linecap:round;stroke-linejoin:round;stroke-miterlimit:10;stroke-dasharray:none;stroke-opacity:1"
             id="path32976"
             inkscape:connector-curvature="0" /></g><g
           id="g32978"
           transform="translate(132.7341,46.1826)"><path
             d="m 0,0 2.713,3.319 v 6.639 l -2.58,3.157"
             style="fill:none;stroke:#231f20;stroke-width:0.5;stroke-linecap:round;stroke-linejoin:round;stroke-miterlimit:10;stroke-dasharray:none;stroke-opacity:1"
             id="path32980"
             inkscape:connector-curvature="0" /></g><g
           id="g32982"
           transform="translate(132.8667,59.2978)"><path
             d="m 0,0 -0.133,0.162 -2.712,-3.319 v -6.639 l 2.712,-3.319"
             style="fill:none;stroke:#231f20;stroke-width:0.25;stroke-linecap:round;stroke-linejoin:round;stroke-miterlimit:10;stroke-dasharray:none;stroke-opacity:1"
             id="path32984"
             inkscape:connector-curvature="0" /></g><g
           id="g32986"
           transform="translate(138.5745,52.6085)"><path
             d="m 0,0 c 0,-6.902 -2.472,-12.496 -5.521,-12.496 -3.05,0 -5.522,5.594 -5.522,12.496 0,6.902 2.472,12.496 5.522,12.496 C -2.472,12.496 0,6.902 0,0 Z"
             style="fill:none;stroke:#231f20;stroke-width:0.5;stroke-linecap:round;stroke-linejoin:round;stroke-miterlimit:10;stroke-dasharray:none;stroke-opacity:1"
             id="path32988"
             inkscape:connector-curvature="0" /></g><g
           id="g32990"
           transform="translate(133.0532,65.1048)"><path
             d="M 0,0 H 8.767"
             style="fill:none;stroke:#231f20;stroke-width:0.5;stroke-linecap:round;stroke-linejoin:round;stroke-miterlimit:10;stroke-dasharray:none;stroke-opacity:1"
             id="path32992"
             inkscape:connector-curvature="0" /></g><g
           id="g32994"
           transform="translate(133.0532,40.1122)"><path
             d="M 0,0 H 12.372"
             style="fill:none;stroke:#231f20;stroke-width:0.5;stroke-linecap:round;stroke-linejoin:round;stroke-miterlimit:10;stroke-dasharray:none;stroke-opacity:1"
             id="path32996"
             inkscape:connector-curvature="0" /></g><g
           id="g32998"
           transform="translate(130.0213,56.1408)"><path
             d="M 0,0 H 5.319"
             style="fill:none;stroke:#231f20;stroke-width:0.25;stroke-linecap:round;stroke-linejoin:round;stroke-miterlimit:10;stroke-dasharray:none;stroke-opacity:1"
             id="path33000"
             inkscape:connector-curvature="0" /></g><g
           id="g33002"
           transform="translate(130.0213,49.502)"><path
             d="M 0,0 H 5.255"
             style="fill:none;stroke:#231f20;stroke-width:0.25;stroke-linecap:round;stroke-linejoin:round;stroke-miterlimit:10;stroke-dasharray:none;stroke-opacity:1"
             id="path33004"
             inkscape:connector-curvature="0" /></g><g
           id="g33006"
           transform="translate(132.4285,65.0256)"><path
             d="M 0,0 C 0,0 1.763,1.65 4.274,1.884 6.784,2.118 15.689,-1.013 16.635,-15.754 17.529,-29.669 5.657,-24.913 5.657,-24.913"
             style="fill:none;stroke:#231f20;stroke-width:0.5;stroke-linecap:round;stroke-linejoin:round;stroke-miterlimit:10;stroke-dasharray:none;stroke-opacity:1"
             id="path33008"
             inkscape:connector-curvature="0" /></g><g
           id="g33010"
           transform="translate(191.5252,55.9981)"><path
             d="m 0,0 31.546,1.061 c 1.209,0.04 2.354,0.554 3.188,1.43 l 0.169,0.178 c 0.702,0.737 1.141,1.685 1.248,2.697 l 2.405,22.693 c 0.193,1.824 -1.267,3.399 -3.101,3.343 L 1.134,30.358"
             style="fill:none;stroke:#231f20;stroke-width:0.25;stroke-linecap:round;stroke-linejoin:round;stroke-miterlimit:10;stroke-dasharray:none;stroke-opacity:1"
             id="path33012"
             inkscape:connector-curvature="0" /></g><g
           id="g33014"
           transform="translate(185.5106,86.3564)"><path
             d="m 0,0 -27.649,-0.79 c -2.255,-0.064 -4.315,-1.293 -5.444,-3.245 l -1.256,-2.175 c -3.14,-5.432 -3.63,-12.001 -1.33,-17.839 l 0.857,-2.176 c 1.284,-3.258 4.479,-5.356 7.978,-5.238 l 26.318,0.885"
             style="fill:none;stroke:#231f20;stroke-width:0.25;stroke-linecap:round;stroke-linejoin:round;stroke-miterlimit:10;stroke-dasharray:none;stroke-opacity:1"
             id="path33016"
             inkscape:connector-curvature="0" /></g><g
           id="g33018"
           transform="translate(151.4574,147.633)"><path
             d="m 0,0 -8.968,-0.096 -2.872,-1.085 0.622,-1.564 11.74,-0.866 C 0.77,-3.629 1.018,-3.633 1.266,-3.623 l 12.234,0.495 0.638,1.341 -6.478,1.404 z"
             style="fill:none;stroke:#231f20;stroke-width:0.25;stroke-linecap:round;stroke-linejoin:round;stroke-miterlimit:10;stroke-dasharray:none;stroke-opacity:1"
             id="path33020"
             inkscape:connector-curvature="0" /></g><g
           id="g33022"
           transform="translate(139.617,146.4521)"><path
             d="M 0,0 V -8.618"
             style="fill:none;stroke:#231f20;stroke-width:0.25;stroke-linecap:round;stroke-linejoin:round;stroke-miterlimit:10;stroke-dasharray:none;stroke-opacity:1"
             id="path33024"
             inkscape:connector-curvature="0" /></g><g
           id="g33026"
           transform="translate(165.5957,145.8457)"><path
             d="M 0,0 V -8.532"
             style="fill:none;stroke:#231f20;stroke-width:0.25;stroke-linecap:round;stroke-linejoin:round;stroke-miterlimit:10;stroke-dasharray:none;stroke-opacity:1"
             id="path33028"
             inkscape:connector-curvature="0" /></g><g
           id="g33030"
           transform="translate(164.9574,144.5053)"><path
             d="M 0,0 V -7.191"
             style="fill:none;stroke:#231f20;stroke-width:0.25;stroke-linecap:round;stroke-linejoin:round;stroke-miterlimit:10;stroke-dasharray:none;stroke-opacity:1"
             id="path33032"
             inkscape:connector-curvature="0" /></g><g
           id="g33034"
           transform="translate(140.2331,137.7878)"><path
             d="M 0,0 V 7.081"
             style="fill:none;stroke:#231f20;stroke-width:0.25;stroke-linecap:round;stroke-linejoin:round;stroke-miterlimit:10;stroke-dasharray:none;stroke-opacity:1"
             id="path33036"
             inkscape:connector-curvature="0" /></g><g
           id="g33038"
           transform="translate(152.3511,143.8457)"><path
             d="M 0,0 V -6.447"
             style="fill:none;stroke:#231f20;stroke-width:0.25;stroke-linecap:round;stroke-linejoin:round;stroke-miterlimit:10;stroke-dasharray:none;stroke-opacity:1"
             id="path33040"
             inkscape:connector-curvature="0" /></g><g
           id="g33042"
           transform="translate(176.1367,124.3282)"><path
             d="M 0,0 3.204,0.156"
             style="fill:none;stroke:#231f20;stroke-width:0.25;stroke-linecap:round;stroke-linejoin:round;stroke-miterlimit:10;stroke-dasharray:none;stroke-opacity:1"
             id="path33044"
             inkscape:connector-curvature="0" /></g><g
           id="g33046"
           transform="translate(176.7021,118.1011)"><path
             d="M 0,0 H 2.638"
             style="fill:none;stroke:#231f20;stroke-width:0.25;stroke-linecap:round;stroke-linejoin:round;stroke-miterlimit:10;stroke-dasharray:none;stroke-opacity:1"
             id="path33048"
             inkscape:connector-curvature="0" /></g><g
           id="g33050"
           transform="translate(155.7234,52.9521)"><path
             d="m 0,0 v -5.624 c 0,-9.605 -9.124,-16.587 -18.395,-14.078 l -22.456,6.078"
             style="fill:none;stroke:#231f20;stroke-width:0.5;stroke-linecap:round;stroke-linejoin:round;stroke-miterlimit:10;stroke-dasharray:none;stroke-opacity:1"
             id="path33052"
             inkscape:connector-curvature="0" /></g><g
           id="g33054"
           transform="translate(127.8085,113.7181)"><path
             d="m 0,0 15.305,-1.4 c 7.143,-0.653 12.61,-6.643 12.61,-13.816 v -10.486"
             style="fill:none;stroke:#231f20;stroke-width:0.5;stroke-linecap:round;stroke-linejoin:round;stroke-miterlimit:10;stroke-dasharray:none;stroke-opacity:1"
             id="path33056"
             inkscape:connector-curvature="0" /></g><g
           id="g33058"
           transform="translate(144.1489,113.8883)"><path
             d="M 0,0 H 29.787"
             style="fill:none;stroke:#231f20;stroke-width:0.5;stroke-linecap:round;stroke-linejoin:round;stroke-miterlimit:10;stroke-dasharray:none;stroke-opacity:1"
             id="path33060"
             inkscape:connector-curvature="0" /></g><g
           id="g33062"
           transform="translate(185.8511,114.3989)"><path
             d="m 0,0 h 39.254 c 1.568,0 3.071,-0.623 4.179,-1.731 l 0.177,-0.176 c 1.108,-1.109 1.73,-2.612 1.73,-4.179 l 0.155,-24.11"
             style="fill:none;stroke:#231f20;stroke-width:0.5;stroke-linecap:round;stroke-linejoin:round;stroke-miterlimit:10;stroke-dasharray:none;stroke-opacity:1"
             id="path33064"
             inkscape:connector-curvature="0" /></g><g
           id="g33066"
           transform="translate(206.9574,133.8032)"><path
             d="M 0,0 C 0,0 64.17,33.021 82.553,27.234"
             style="fill:none;stroke:#231f20;stroke-width:0.25;stroke-linecap:round;stroke-linejoin:round;stroke-miterlimit:10;stroke-dasharray:none;stroke-opacity:1"
             id="path33068"
             inkscape:connector-curvature="0" /></g><g
           id="g33070"
           transform="translate(185.5106,125.1223)"><path
             d="m 0,0 c 0,0 27.064,5.787 57.702,14.468 30.638,8.681 41.362,8.17 41.362,8.17"
             style="fill:none;stroke:#231f20;stroke-width:0.25;stroke-linecap:round;stroke-linejoin:round;stroke-miterlimit:10;stroke-dasharray:none;stroke-opacity:1"
             id="path33072"
             inkscape:connector-curvature="0" /></g><g
           id="g33074"
           transform="translate(230.8203,78.7606)"><path
             d="m 0,0 c 4.995,-0.489 10.466,-0.807 16.35,-0.83 6.781,-0.026 13.024,0.344 18.635,0.924 0.684,0.07 1.237,0.695 1.237,1.382 v 5.133 c 0,0.232 -0.195,0.413 -0.426,0.389 C 30.097,6.411 23.751,6.053 16.861,6.128 11.207,6.189 5.943,6.533 1.125,7.043"
             style="fill:none;stroke:#231f20;stroke-width:0.5;stroke-linecap:round;stroke-linejoin:round;stroke-miterlimit:10;stroke-dasharray:none;stroke-opacity:1"
             id="path33076"
             inkscape:connector-curvature="0" /></g><g
           id="g33078"
           transform="translate(232.6192,78.594)"><path
             d="m 0,0 v -21.275 c 0,-0.427 0.058,-0.852 0.172,-1.264 l 0.699,-2.514 c 0.526,-1.889 2.163,-3.245 4.114,-3.438 2.617,-0.259 5.453,-0.427 8.481,-0.449 2.869,-0.02 7.323,0.115 10.58,0.326 1.421,0.092 2.678,0.942 3.295,2.226 l 1.757,3.655 c 0.256,0.533 0.389,1.117 0.389,1.708 v 20.681"
             style="fill:none;stroke:#231f20;stroke-width:0.5;stroke-linecap:round;stroke-linejoin:round;stroke-miterlimit:10;stroke-dasharray:none;stroke-opacity:1"
             id="path33080"
             inkscape:connector-curvature="0" /></g><g
           id="g33082"
           transform="translate(237.4043,77.7394)"><path
             d="M 0,0 V -25.021"
             style="fill:none;stroke:#231f20;stroke-width:0.25;stroke-linecap:round;stroke-linejoin:round;stroke-miterlimit:10;stroke-dasharray:none;stroke-opacity:1"
             id="path33084"
             inkscape:connector-curvature="0" /></g><path
           d="M 73.17,115.527 H 7.553 v 13.596 H 73.17 Z"
           style="fill:none;stroke:#231f20;stroke-width:1;stroke-linecap:round;stroke-linejoin:round;stroke-miterlimit:10;stroke-dasharray:none;stroke-opacity:1"
           id="path33086"
           inkscape:connector-curvature="0" /></g></g><text
       transform="matrix(1,0,0,-1,12.4727,119.7578)"
       style="font-variant:normal;font-weight:bold;font-stretch:normal;font-size:8.12479973px;font-family:Helvetica;-inkscape-font-specification:Helvetica-Bold;writing-mode:lr-tb;fill:#231f20;fill-opacity:1;fill-rule:nonzero;stroke:none"
       id="text33090"><tspan
         x="0 4.5173888 9.0347776 11.293472 15.810861 18.069555 22.814438 25.073133 27.77869 30.037386 34.554775 36.813469 41.330856 48.553806"
         y="0"
         sodipodi:role="line"
         id="tspan33088">53.2 +/- 0.5mm</tspan></text>
<path
       d="M 39.174,1.489 H 2.457 v 7.696 h 36.717 z"
       style="fill:#ffffff;fill-opacity:1;fill-rule:nonzero;stroke:none"
       id="path33092"
       inkscape:connector-curvature="0" /><text
       transform="matrix(1,0,0,-1,3.71,3.25)"
       style="font-variant:normal;font-weight:300;font-stretch:normal;font-size:6px;font-family:Helvetica;-inkscape-font-specification:Helvetica-Light;writing-mode:lr-tb;fill:#231f20;fill-opacity:1;fill-rule:nonzero;stroke:none"
       id="text33096"><tspan
         x="0 1.668 5.6700001 9.3360004 14.334 17.334 20.67 24.006001 27.341999 30.677999"
         y="0"
         sodipodi:role="line"
         id="tspan33094">IASM_00708</tspan></text>
<g
       id="g33098"
       transform="translate(146.6037,136.5842)"><path
         d="M 0,0 -2.072,-104.228"
         style="fill:none;stroke:#ffffff;stroke-width:3.07999992;stroke-linecap:round;stroke-linejoin:miter;stroke-miterlimit:4;stroke-dasharray:none;stroke-opacity:1"
         id="path33100"
         inkscape:connector-curvature="0" /></g><g
       id="g33102"
       transform="translate(144.5319,32.3564)"><path
         d="M 0,0 V 0"
         style="fill:none;stroke:#ffffff;stroke-width:3.8499999;stroke-linecap:round;stroke-linejoin:miter;stroke-miterlimit:4;stroke-dasharray:none;stroke-opacity:1"
         id="path33104"
         inkscape:connector-curvature="0" /></g><g
       id="g33106"
       transform="translate(144.5319,32.3564)"><path
         d="M 0,0 V 0"
         style="fill:none;stroke:#231f20;stroke-width:1.53999996;stroke-linecap:round;stroke-linejoin:miter;stroke-miterlimit:4;stroke-dasharray:none;stroke-opacity:1"
         id="path33108"
         inkscape:connector-curvature="0" /></g><g
       id="g33110"
       transform="translate(146.6037,136.5842)"><path
         d="M 0,0 V 0"
         style="fill:none;stroke:#ffffff;stroke-width:3.8499999;stroke-linecap:round;stroke-linejoin:miter;stroke-miterlimit:4;stroke-dasharray:none;stroke-opacity:1"
         id="path33112"
         inkscape:connector-curvature="0" /></g><g
       id="g33114"
       transform="translate(146.6037,136.5842)"><path
         d="M 0,0 V 0"
         style="fill:none;stroke:#231f20;stroke-width:1.53999996;stroke-linecap:round;stroke-linejoin:miter;stroke-miterlimit:4;stroke-dasharray:none;stroke-opacity:1"
         id="path33116"
         inkscape:connector-curvature="0" /></g><g
       id="g33118"
       transform="translate(146.6037,136.5842)"><path
         d="M 0,0 -0.02,-1"
         style="fill:none;stroke:#231f20;stroke-width:0.51300001;stroke-linecap:round;stroke-linejoin:miter;stroke-miterlimit:4;stroke-dasharray:none;stroke-opacity:1"
         id="path33120"
         inkscape:connector-curvature="0" /></g><g
       id="g33122"
       transform="translate(146.544,133.5799)"><path
         d="M 0,0 -1.972,-99.221"
         style="fill:none;stroke:#231f20;stroke-width:0.51300001;stroke-linecap:round;stroke-linejoin:miter;stroke-miterlimit:4;stroke-dasharray:2.005, 2.005;stroke-dashoffset:0;stroke-opacity:1"
         id="path33124"
         inkscape:connector-curvature="0" /></g><g
       id="g33126"
       transform="translate(144.5518,33.3562)"><path
         d="M 0,0 -0.02,-1"
         style="fill:none;stroke:#231f20;stroke-width:0.51300001;stroke-linecap:round;stroke-linejoin:miter;stroke-miterlimit:4;stroke-dasharray:none;stroke-opacity:1"
         id="path33128"
         inkscape:connector-curvature="0" /></g><g
       id="g33130"
       transform="translate(73.1702,113.2926)"><path
         d="M 0,0 70.554,-28.823"
         style="fill:none;stroke:#ffffff;stroke-width:3.07999992;stroke-linecap:round;stroke-linejoin:miter;stroke-miterlimit:4;stroke-dasharray:none;stroke-opacity:1"
         id="path33132"
         inkscape:connector-curvature="0" /></g><g
       id="g33134"
       transform="translate(143.724,84.4696)"><path
         d="M 0,0 V 0"
         style="fill:none;stroke:#ffffff;stroke-width:3.8499999;stroke-linecap:round;stroke-linejoin:miter;stroke-miterlimit:4;stroke-dasharray:none;stroke-opacity:1"
         id="path33136"
         inkscape:connector-curvature="0" /></g><g
       id="g33138"
       transform="translate(73.1702,115.5267)"><path
         d="M 0,0 70.554,-31.057"
         style="fill:none;stroke:#231f20;stroke-width:0.51300001;stroke-linecap:round;stroke-linejoin:miter;stroke-miterlimit:4;stroke-dasharray:none;stroke-opacity:1"
         id="path33140"
         inkscape:connector-curvature="0" /></g><g
       id="g33142"
       transform="translate(143.724,84.4696)"><path
         d="M 0,0 V 0"
         style="fill:none;stroke:#231f20;stroke-width:1.53999996;stroke-linecap:round;stroke-linejoin:miter;stroke-miterlimit:4;stroke-dasharray:none;stroke-opacity:1"
         id="path33144"
         inkscape:connector-curvature="0" /></g></g></svg>