<?xml version="1.0" encoding="UTF-8" standalone="no"?>
<!-- Created with Inkscape (http://www.inkscape.org/) -->

<svg
   xmlns:dc="http://purl.org/dc/elements/1.1/"
   xmlns:cc="http://creativecommons.org/ns#"
   xmlns:rdf="http://www.w3.org/1999/02/22-rdf-syntax-ns#"
   xmlns:svg="http://www.w3.org/2000/svg"
   xmlns="http://www.w3.org/2000/svg"
   xmlns:sodipodi="http://sodipodi.sourceforge.net/DTD/sodipodi-0.dtd"
   xmlns:inkscape="http://www.inkscape.org/namespaces/inkscape"
   version="1.1"
   id="svg10984"
   xml:space="preserve"
   width="321.25333"
   height="245.66667"
   viewBox="0 0 321.25333 245.66667"
   sodipodi:docname="IASM_00779.svg"
   inkscape:version="0.92.4 (5da689c313, 2019-01-14)"><metadata
     id="metadata10990"><rdf:RDF><cc:Work
         rdf:about=""><dc:format>image/svg+xml</dc:format><dc:type
           rdf:resource="http://purl.org/dc/dcmitype/StillImage" /><dc:title></dc:title></cc:Work></rdf:RDF></metadata><defs
     id="defs10988"><clipPath
       clipPathUnits="userSpaceOnUse"
       id="clipPath11000"><path
         d="M 0,0 H 240.94 V 184.25 H 0 Z"
         id="path10998"
         inkscape:connector-curvature="0" /></clipPath></defs><sodipodi:namedview
     pagecolor="#ffffff"
     bordercolor="#666666"
     borderopacity="1"
     objecttolerance="10"
     gridtolerance="10"
     guidetolerance="10"
     inkscape:pageopacity="0"
     inkscape:pageshadow="2"
     inkscape:window-width="640"
     inkscape:window-height="480"
     id="namedview10986"
     showgrid="false"
     inkscape:zoom="1.265943"
     inkscape:cx="160.62666"
     inkscape:cy="122.83334"
     inkscape:window-x="0"
     inkscape:window-y="0"
     inkscape:window-maximized="1"
     inkscape:current-layer="g10992" /><g
     id="g10992"
     inkscape:groupmode="layer"
     inkscape:label="IASM_00779"
     transform="matrix(1.3333333,0,0,-1.3333333,0,245.66667)"><g
       id="g10994"><g
         id="g10996"
         clip-path="url(#clipPath11000)"><g
           id="g11002"
           transform="translate(79.4255,84.8245)"><path
             d="m 0,0 c 0,0 -7.915,-4.34 -7.149,-11.681 -0.095,1.179 0.052,-2.5 2.011,-3.83 0,0 -3.224,-4.021 -2.266,-10.021 0.957,-6 7.915,-10.021 7.915,-10.021 0,0 -8.554,-4.213 -8.554,-11.617 0,-7.404 4.681,-17.979 40.596,-18.319 v -0.213 c 0,0 -29.787,1.404 -39.149,-12.128 0,0 -3.83,-6.808 0.851,-10.127"
             style="fill:none;stroke:#231f20;stroke-width:1;stroke-linecap:round;stroke-linejoin:round;stroke-miterlimit:10;stroke-dasharray:none;stroke-opacity:1"
             id="path11004"
             inkscape:connector-curvature="0" /></g><g
           id="g11006"
           transform="translate(163.8723,83.4202)"><path
             d="m 0,0 c 0,0 5.17,-4.532 5.17,-11.681 0.001,-5.904 -1.979,-8.553 -1.979,-8.553 0,0 5.273,-7.03 2.788,-15.255 -2.341,-7.745 -5.192,-9.617 -5.192,-9.617 0,0 8.085,-6.979 7.404,-17.958 C 7.511,-74.043 0,-79.745 0,-79.745 c 0,0 5.213,-4.595 6.489,-8.425"
             style="fill:none;stroke:#231f20;stroke-width:1;stroke-linecap:round;stroke-linejoin:round;stroke-miterlimit:10;stroke-dasharray:none;stroke-opacity:1"
             id="path11008"
             inkscape:connector-curvature="0" /></g><g
           id="g11010"
           transform="translate(86.2553,62.7394)"><path
             d="m 0,0 c 0,0 -0.766,-0.351 -0.926,-1.021 0,0 5.266,-8.107 38.075,-5.873 11.933,0.813 19.45,3.61 24.184,6.84"
             style="fill:none;stroke:#231f20;stroke-width:1;stroke-linecap:round;stroke-linejoin:round;stroke-miterlimit:10;stroke-dasharray:none;stroke-opacity:1"
             id="path11012"
             inkscape:connector-curvature="0" /></g><g
           id="g11014"
           transform="translate(144.883,71.3245)"><path
             d="M 0,0 0.032,-6.574"
             style="fill:none;stroke:#231f20;stroke-width:1;stroke-linecap:round;stroke-linejoin:round;stroke-miterlimit:10;stroke-dasharray:none;stroke-opacity:1"
             id="path11016"
             inkscape:connector-curvature="0" /></g><g
           id="g11018"
           transform="translate(140.9574,66.9521)"><path
             d="M 0,0 C 0,0 3.191,0.84 3.447,3.532"
             style="fill:none;stroke:#231f20;stroke-width:0.25;stroke-linecap:round;stroke-linejoin:round;stroke-miterlimit:10;stroke-dasharray:none;stroke-opacity:1"
             id="path11020"
             inkscape:connector-curvature="0" /></g><g
           id="g11022"
           transform="translate(145.2021,63.6011)"><path
             d="M 0,0 2.234,-0.862"
             style="fill:none;stroke:#231f20;stroke-width:1;stroke-linecap:round;stroke-linejoin:round;stroke-miterlimit:10;stroke-dasharray:none;stroke-opacity:1"
             id="path11024"
             inkscape:connector-curvature="0" /></g><g
           id="g11026"
           transform="translate(149.9894,64.8138)"><path
             d="M 0,0 C 0,0 -0.891,-1.186 -2.298,-2.074"
             style="fill:none;stroke:#231f20;stroke-width:0.25;stroke-linecap:round;stroke-linejoin:round;stroke-miterlimit:10;stroke-dasharray:none;stroke-opacity:1"
             id="path11028"
             inkscape:connector-curvature="0" /></g><g
           id="g11030"
           transform="translate(96.5957,59.016)"><path
             d="M 0,0 V -2.213"
             style="fill:none;stroke:#231f20;stroke-width:1;stroke-linecap:round;stroke-linejoin:round;stroke-miterlimit:10;stroke-dasharray:none;stroke-opacity:1"
             id="path11032"
             inkscape:connector-curvature="0" /></g><g
           id="g11034"
           transform="translate(72.3404,73.3989)"><path
             d="M 0,0 4.277,-0.032"
             style="fill:none;stroke:#231f20;stroke-width:0.5;stroke-linecap:round;stroke-linejoin:round;stroke-miterlimit:10;stroke-dasharray:none;stroke-opacity:1"
             id="path11036"
             inkscape:connector-curvature="0" /></g><g
           id="g11038"
           transform="translate(74.4255,69.4628)"><path
             d="M 0,0 C 0,0 1.298,-1.84 5.255,-1.649"
             style="fill:none;stroke:#231f20;stroke-width:0.5;stroke-linecap:round;stroke-linejoin:round;stroke-miterlimit:10;stroke-dasharray:none;stroke-opacity:1"
             id="path11040"
             inkscape:connector-curvature="0" /></g><g
           id="g11042"
           transform="translate(79.9362,49.2713)"><path
             d="m 0,0 c 0,0 12.851,-9.334 44.893,-6.525 32.043,2.808 42.235,20.44 42.235,20.44"
             style="fill:none;stroke:#231f20;stroke-width:1;stroke-linecap:round;stroke-linejoin:round;stroke-miterlimit:10;stroke-dasharray:none;stroke-opacity:1"
             id="path11044"
             inkscape:connector-curvature="0" /></g><g
           id="g11046"
           transform="translate(102.7021,41.633)"><path
             d="m 0,0 c 0,0 -14.213,-1.617 -17.021,-4.681 0,0 12.722,-8.215 44.085,-1.872 28.51,5.766 27.304,17.894 27.304,17.894"
             style="fill:none;stroke:#231f20;stroke-width:1;stroke-linecap:round;stroke-linejoin:round;stroke-miterlimit:10;stroke-dasharray:none;stroke-opacity:1"
             id="path11048"
             inkscape:connector-curvature="0" /></g><g
           id="g11050"
           transform="translate(84.8511,40.8457)"><path
             d="M 0,0 C 0,0 -1.612,-2.673 1.005,-4.269"
             style="fill:none;stroke:#231f20;stroke-width:0.5;stroke-linecap:round;stroke-linejoin:round;stroke-miterlimit:10;stroke-dasharray:none;stroke-opacity:1"
             id="path11052"
             inkscape:connector-curvature="0" /></g><g
           id="g11054"
           transform="translate(101.959,42.8067)"><path
             d="m 0,0 3.637,-5.663 c 0,0 2.98,-3.651 14.937,-3.602"
             style="fill:none;stroke:#231f20;stroke-width:1;stroke-linecap:round;stroke-linejoin:round;stroke-miterlimit:10;stroke-dasharray:none;stroke-opacity:1"
             id="path11056"
             inkscape:connector-curvature="0" /></g><g
           id="g11058"
           transform="translate(141.6857,46.0005)"><path
             d="m 0,0 -3.835,-7.219 c 0,0 -1.51,-2.171 -3.755,-2.723"
             style="fill:none;stroke:#231f20;stroke-width:1;stroke-linecap:round;stroke-linejoin:round;stroke-miterlimit:10;stroke-dasharray:none;stroke-opacity:1"
             id="path11060"
             inkscape:connector-curvature="0" /></g><g
           id="g11062"
           transform="translate(112.1277,34.25)"><path
             d="M 0,0 V -1.394"
             style="fill:none;stroke:#231f20;stroke-width:1;stroke-linecap:round;stroke-linejoin:round;stroke-miterlimit:10;stroke-dasharray:none;stroke-opacity:1"
             id="path11064"
             inkscape:connector-curvature="0" /></g><g
           id="g11066"
           transform="translate(112.4255,19.3032)"><path
             d="M 0,0 V -20.266"
             style="fill:none;stroke:#231f20;stroke-width:1;stroke-linecap:round;stroke-linejoin:round;stroke-miterlimit:10;stroke-dasharray:none;stroke-opacity:1"
             id="path11068"
             inkscape:connector-curvature="0" /></g><g
           id="g11070"
           transform="translate(131.1915,21.6968)"><path
             d="M 0,0 V -20.106"
             style="fill:none;stroke:#231f20;stroke-width:1;stroke-linecap:round;stroke-linejoin:round;stroke-miterlimit:10;stroke-dasharray:none;stroke-opacity:1"
             id="path11072"
             inkscape:connector-curvature="0" /></g><g
           id="g11074"
           transform="translate(137.5106,38.2606)"><path
             d="M 0,0 C 0,0 1.613,-0.319 1.876,-0.67"
             style="fill:none;stroke:#231f20;stroke-width:1;stroke-linecap:round;stroke-linejoin:round;stroke-miterlimit:10;stroke-dasharray:none;stroke-opacity:1"
             id="path11076"
             inkscape:connector-curvature="0" /></g><g
           id="g11078"
           transform="translate(148.2707,48.4827)"><path
             d="M 0,0 C 0,0 3.394,-1.302 5.59,-2.574"
             style="fill:none;stroke:#231f20;stroke-width:1;stroke-linecap:round;stroke-linejoin:round;stroke-miterlimit:10;stroke-dasharray:none;stroke-opacity:1"
             id="path11080"
             inkscape:connector-curvature="0" /></g><g
           id="g11082"
           transform="translate(111.9787,19.3351)"><path
             d="M 0,0 C 0,0 33.447,-0.255 52.681,18.979"
             style="fill:none;stroke:#231f20;stroke-width:1;stroke-linecap:round;stroke-linejoin:round;stroke-miterlimit:10;stroke-dasharray:none;stroke-opacity:1"
             id="path11084"
             inkscape:connector-curvature="0" /></g><g
           id="g11086"
           transform="translate(112.4255,5.7181)"><path
             d="m 0,0 c -20.234,0.255 -26.574,-4.34 -26.574,-4.34 0,0 3.021,-1.873 6.17,-2.256"
             style="fill:none;stroke:#231f20;stroke-width:1;stroke-linecap:round;stroke-linejoin:round;stroke-miterlimit:10;stroke-dasharray:none;stroke-opacity:1"
             id="path11088"
             inkscape:connector-curvature="0" /></g><g
           id="g11090"
           transform="translate(84.9149,5.633)"><path
             d="M 0,0 C 0,0 -1.766,-3.282 1.213,-4.729"
             style="fill:none;stroke:#231f20;stroke-width:0.5;stroke-linecap:round;stroke-linejoin:round;stroke-miterlimit:10;stroke-dasharray:none;stroke-opacity:1"
             id="path11092"
             inkscape:connector-curvature="0" /></g><g
           id="g11094"
           transform="translate(153.8345,30.087)"><path
             d="m 0,0 c 0,0 5.378,-3.858 5.165,-9.263 -0.212,-5.404 -10,-16.723 -36.553,-21.404"
             style="fill:none;stroke:#231f20;stroke-width:1;stroke-linecap:round;stroke-linejoin:round;stroke-miterlimit:10;stroke-dasharray:none;stroke-opacity:1"
             id="path11096"
             inkscape:connector-curvature="0" /></g><g
           id="g11098"
           transform="translate(131.1915,17.1649)"><path
             d="M 0,0 C 0,0 13.754,-2.677 20.59,-6.445"
             style="fill:none;stroke:#231f20;stroke-width:1;stroke-linecap:round;stroke-linejoin:round;stroke-miterlimit:10;stroke-dasharray:none;stroke-opacity:1"
             id="path11100"
             inkscape:connector-curvature="0" /></g><g
           id="g11102"
           transform="translate(131.1915,3.7606)"><path
             d="M 0,0 C 0,0 2.637,-0.468 4.159,-1.191"
             style="fill:none;stroke:#231f20;stroke-width:1;stroke-linecap:round;stroke-linejoin:round;stroke-miterlimit:10;stroke-dasharray:none;stroke-opacity:1"
             id="path11104"
             inkscape:connector-curvature="0" /></g><g
           id="g11106"
           transform="translate(163.7048,3.8165)"><path
             d="M 0,0 C 0,0 -3.471,-3.886 -7.513,-5.545"
             style="fill:none;stroke:#231f20;stroke-width:0.5;stroke-linecap:round;stroke-linejoin:round;stroke-miterlimit:10;stroke-dasharray:none;stroke-opacity:1"
             id="path11108"
             inkscape:connector-curvature="0" /></g><g
           id="g11110"
           transform="translate(117.7018,56.9746)"><path
             d="m 0,0 c -22.967,0 -40.531,7.449 -40.855,17.325 l -0.088,3.531 c -0.166,5.072 4.275,9.956 12.507,13.751 8.096,3.732 18.939,5.997 30.53,6.377 1.147,0.038 2.284,0.056 3.411,0.056 22.966,0 40.529,-7.448 40.852,-17.324 l 0.089,-3.531 c 0.113,-3.445 -2.018,-6.816 -6.335,-10.02 -0.029,-0.031 -0.062,-0.059 -0.1,-0.082 -0.012,-0.008 -0.099,-0.053 -0.112,-0.059 -0.11,-0.047 -0.227,-0.072 -0.347,-0.072 -0.094,0 -0.188,0.016 -0.278,0.045 L 36.977,10.763 34.58,8.19 C 34.369,7.964 34.071,7.835 33.763,7.835 c -0.13,0 -0.257,0.021 -0.379,0.065 L 32.118,8.359 C 31.725,8.501 31.446,8.847 31.391,9.26 l -0.528,3.906 c -0.012,0.089 -0.072,0.162 -0.156,0.191 l -9.928,3.484 -6.07,-3.018 11.752,-5.438 C 26.859,8.2 27.117,7.797 27.119,7.357 L 27.124,4.49 c 0,-0.392 -0.25,-0.731 -0.623,-0.843 C 19.633,1.568 11.647,0.326 3.409,0.056 2.263,0.019 1.128,0 0.003,0 Z"
             style="fill:#ffffff;fill-opacity:1;fill-rule:nonzero;stroke:none"
             id="path11112"
             inkscape:connector-curvature="0" /></g><g
           id="g11114"
           transform="translate(123.2052,98.5149)"><path
             d="m 0,0 c -1.133,0 -2.285,-0.019 -3.426,-0.056 -11.656,-0.383 -22.567,-2.663 -30.723,-6.423 -8.426,-3.884 -12.971,-8.936 -12.797,-14.225 l 0.088,-3.52 c 0.333,-10.16 18.111,-17.816 41.354,-17.816 1.132,0 2.285,0.019 3.425,0.056 8.281,0.272 16.311,1.521 23.222,3.612 0.586,0.177 0.978,0.709 0.977,1.322 l -0.005,2.867 c -10e-4,0.634 -0.373,1.215 -0.948,1.481 l -10.806,5.001 4.949,2.46 1.432,-0.5 8.144,-2.86 0.506,-3.747 c 0.081,-0.598 0.484,-1.098 1.052,-1.304 l 1.266,-0.457 c 0.177,-0.064 0.362,-0.097 0.549,-0.097 0.448,0 0.879,0.188 1.184,0.515 l 2.177,2.338 1.993,-0.664 c 0.141,-0.047 0.288,-0.071 0.436,-0.071 0.253,0 0.501,0.07 0.717,0.202 0.064,0.04 0.122,0.085 0.174,0.135 4.433,3.3 6.62,6.803 6.502,10.415 l -0.088,3.52 C 41.021,-7.656 23.243,0 0,0 m 0,-1 c 22.27,0 40.04,-7.271 40.354,-16.841 l 0.088,-3.528 c 0.115,-3.492 -2.295,-6.786 -6.247,-9.689 l 0.049,0.025 c -0.058,-0.035 -0.125,-0.055 -0.195,-0.055 -0.04,0 -0.08,0.006 -0.119,0.019 l -2.603,0.868 -2.616,-2.808 c -0.119,-0.128 -0.283,-0.197 -0.452,-0.197 -0.07,0 -0.141,0.012 -0.209,0.037 l -1.266,0.458 c -0.216,0.078 -0.37,0.27 -0.401,0.497 l -0.528,3.907 c -0.037,0.274 -0.224,0.504 -0.485,0.596 l -8.299,2.914 -1.829,0.638 -7.192,-3.574 12.697,-5.877 c 0.224,-0.103 0.368,-0.328 0.368,-0.574 l 0.005,-2.867 c 0,-0.167 -0.106,-0.315 -0.266,-0.364 -6.612,-2 -14.486,-3.291 -22.965,-3.569 -1.142,-0.038 -2.273,-0.056 -3.393,-0.056 -22.27,0 -40.041,7.271 -40.355,16.841 l -0.088,3.528 c -0.33,10.052 18.722,18.834 42.554,19.615 C -2.251,-1.018 -1.121,-1 0,-1"
             style="fill:#231f20;fill-opacity:1;fill-rule:nonzero;stroke:none"
             id="path11116"
             inkscape:connector-curvature="0" /></g><g
           id="g11118"
           transform="translate(144.1748,64.69)"><path
             d="M 0,0 C -0.148,-0.045 -0.297,-0.09 -0.447,-0.135"
             style="fill:none;stroke:#231f20;stroke-width:0.25;stroke-linecap:round;stroke-linejoin:round;stroke-miterlimit:10;stroke-dasharray:none;stroke-opacity:1"
             id="path11120"
             inkscape:connector-curvature="0" /></g><g
           id="g11122"
           transform="translate(163.6808,80.5479)"><path
             d="M 0,0 C 0.111,-3.391 -2.104,-6.511 -5.844,-9.355"
             style="fill:none;stroke:#231f20;stroke-width:0.5;stroke-linecap:round;stroke-linejoin:round;stroke-miterlimit:10;stroke-dasharray:none;stroke-opacity:1"
             id="path11124"
             inkscape:connector-curvature="0" /></g><g
           id="g11126"
           transform="translate(157.3796,67.4487)"><path
             d="M 0,0 C 0.099,0.061 0.24,0.2 0.248,0.329 L 0.457,3.505 C 0.467,3.657 0.383,3.8 0.246,3.867 l -13.009,6.317"
             style="fill:none;stroke:#231f20;stroke-width:0.5;stroke-linecap:round;stroke-linejoin:round;stroke-miterlimit:10;stroke-dasharray:none;stroke-opacity:1"
             id="path11128"
             inkscape:connector-curvature="0" /></g><g
           id="g11130"
           transform="translate(77.016,77.8032)"><path
             d="m 0,0 c 0.33,-10.052 20.158,-17.526 43.99,-16.745 8.375,0.275 16.161,1.538 22.722,3.497"
             style="fill:none;stroke:#231f20;stroke-width:0.5;stroke-linecap:round;stroke-linejoin:round;stroke-miterlimit:10;stroke-dasharray:none;stroke-opacity:1"
             id="path11132"
             inkscape:connector-curvature="0" /></g><g
           id="g11134"
           transform="translate(154.9574,67.9096)"><path
             d="M 0,0 -3.051,1.417 C -3.221,1.482 -3.404,1.357 -3.404,1.174 V -2.234"
             style="fill:none;stroke:#231f20;stroke-width:0.5;stroke-linecap:round;stroke-linejoin:round;stroke-miterlimit:10;stroke-dasharray:none;stroke-opacity:1"
             id="path11136"
             inkscape:connector-curvature="0" /></g><g
           id="g11138"
           transform="translate(120.2477,69.9844)"><path
             d="m 0,0 c -14.286,0 -25.476,4.762 -25.476,10.84 v 6.218 c 0,0.237 0.022,0.471 0.056,0.704 0.116,0.985 0.437,1.914 0.952,2.748 l 5.467,8.864 c 0.452,0.732 0.69,1.573 0.69,2.433 v 3.737 l -2.539,1.315 c -2.568,1.68 -4.05,6.389 -2.042,11.111 1.025,2.41 3.058,4.463 4.581,5.566 v 4.5 c -2.057,2.055 -3.86,4.515 -5.36,7.314 -0.204,0.37 -0.403,0.753 -0.595,1.142 l -0.105,0.201 c -0.289,0.601 -0.517,1.134 -0.734,1.669 -3.241,7.799 -3.135,16.071 0.27,21.07 2.352,5.327 6.555,9.687 11.791,12.199 3.316,1.592 6.863,2.399 10.543,2.399 9.963,0 19.29,-6.024 23.765,-15.346 C 26.208,78.38 24.323,66.302 16.581,58.557 V 47.685 c 0,-0.206 0.067,-0.408 0.189,-0.572 l 0.205,-0.276 c 0.104,-0.14 0.245,-0.249 0.407,-0.315 l 5.421,-2.203 c 2.122,-0.768 3.65,-2.784 4.284,-5.67 0.616,-2.803 0.315,-6.113 -0.847,-9.322 -0.796,-2.199 -1.954,-4.205 -3.361,-5.827 l 1.651,-2.904 c 0.669,-1.175 1.016,-2.511 1.002,-3.863 L 25.477,10.835 C 25.477,4.762 14.286,0 0,0"
             style="fill:#ffffff;fill-opacity:1;fill-rule:nonzero;stroke:none"
             id="path11140"
             inkscape:connector-curvature="0" /></g><g
           id="g11142"
           transform="translate(117.7471,174.5144)"><path
             d="m 0,0 c -3.756,0 -7.376,-0.824 -10.76,-2.448 -5.316,-2.551 -9.588,-6.968 -12.039,-12.444 -3.448,-5.143 -3.555,-13.556 -0.266,-21.471 0.251,-0.618 0.477,-1.135 0.709,-1.617 0.005,-0.01 0.021,-0.043 0.026,-0.053 0.033,-0.071 0.058,-0.118 0.084,-0.166 l 0.03,-0.056 c 0.197,-0.4 0.4,-0.79 0.61,-1.172 1.483,-2.766 3.265,-5.214 5.296,-7.274 v -4.041 c -1.551,-1.175 -3.523,-3.228 -4.541,-5.623 -2.11,-4.96 -0.509,-9.934 2.184,-11.699 0.028,-0.019 0.058,-0.036 0.088,-0.051 l 2.269,-1.175 v -3.433 c 0,-0.767 -0.213,-1.518 -0.616,-2.171 l -5.467,-8.864 c -0.554,-0.897 -0.898,-1.895 -1.025,-2.964 -0.037,-0.256 -0.057,-0.51 -0.057,-0.75 0,-0.013 0,-0.033 0.001,-0.052 -0.001,-0.019 -0.001,-0.037 -0.001,-0.05 v -6.116 c 0,-6.359 11.41,-11.34 25.976,-11.34 14.566,0 25.976,4.981 25.976,11.34 l 0.056,5.889 c 0.014,1.44 -0.355,2.863 -1.067,4.114 l -1.479,2.601 c 1.343,1.617 2.451,3.577 3.225,5.713 2.563,7.078 0.913,13.948 -3.756,15.639 l -5.384,2.189 c -0.078,0.032 -0.145,0.084 -0.195,0.151 l -0.205,0.275 c -0.058,0.079 -0.09,0.176 -0.09,0.273 v 10.667 c 7.769,7.9 9.639,20.119 4.633,30.549 C 19.658,-6.135 10.153,0 0,0 m 0,-1 c 9.491,0 18.767,-5.59 23.313,-15.062 4.996,-10.41 2.755,-22.338 -4.731,-29.703 v -11.081 c 0,-0.313 0.101,-0.618 0.288,-0.869 l 0.204,-0.276 c 0.159,-0.214 0.374,-0.38 0.621,-0.48 l 5.42,-2.203 c 4.08,-1.478 5.493,-7.906 3.156,-14.359 -0.85,-2.348 -2.083,-4.37 -3.5,-5.929 v -0.009 l 1.826,-3.21 c 0.625,-1.1 0.948,-2.346 0.936,-3.61 l -0.056,-5.899 c 0,-5.711 -11.182,-10.34 -24.976,-10.34 -13.794,0 -24.976,4.629 -24.976,10.34 v 6.116 c 0,0.016 0.003,0.031 0.003,0.047 0,0.019 -0.003,0.037 -0.003,0.055 0,0.212 0.02,0.423 0.05,0.632 0.107,0.904 0.402,1.778 0.883,2.557 l 5.467,8.864 c 0.5,0.811 0.765,1.744 0.765,2.696 v 4.042 l -2.809,1.454 c -2.298,1.505 -3.742,5.934 -1.812,10.471 0.949,2.232 2.93,4.341 4.621,5.503 v 4.967 c -2.039,2.005 -3.891,4.49 -5.42,7.342 -0.204,0.369 -0.399,0.745 -0.587,1.127 -0.033,0.067 -0.07,0.128 -0.102,0.195 -0.005,0.011 -0.009,0.021 -0.014,0.032 -0.007,0.014 -0.015,0.028 -0.022,0.043 -0.249,0.518 -0.473,1.042 -0.686,1.567 -3.262,7.85 -3.038,15.817 0.22,20.601 2.275,5.133 6.241,9.461 11.594,12.03 C -7.005,-1.755 -3.488,-1 0,-1"
             style="fill:#231f20;fill-opacity:1;fill-rule:nonzero;stroke:none"
             id="path11144"
             inkscape:connector-curvature="0" /></g><g
           id="g11146"
           transform="translate(114.5797,145.3315)"><path
             d="m 0,0 c 2.439,-5.444 1.604,-11.118 -1.866,-12.672 -3.47,-1.555 -8.26,1.598 -10.699,7.042 -2.44,5.444 -1.604,11.118 1.866,12.672 C -7.229,8.597 -2.439,5.444 0,0 Z"
             style="fill:none;stroke:#231f20;stroke-width:0.25;stroke-linecap:round;stroke-linejoin:round;stroke-miterlimit:10;stroke-dasharray:none;stroke-opacity:1"
             id="path11148"
             inkscape:connector-curvature="0" /></g><g
           id="g11150"
           transform="translate(130.1472,98.6543)"><path
             d="m 0,0 c -0.004,1.94 0.359,4.058 1.127,6.178 2.337,6.453 7.539,10.486 11.619,9.008 4.08,-1.478 5.493,-7.906 3.157,-14.359"
             style="fill:none;stroke:#231f20;stroke-width:0.25;stroke-linecap:round;stroke-linejoin:round;stroke-miterlimit:10;stroke-dasharray:none;stroke-opacity:1"
             id="path11152"
             inkscape:connector-curvature="0" /></g><g
           id="g11154"
           transform="translate(146.2553,99.4415)"><path
             d="m 0,0 c -2.337,-6.452 -7.744,-10.445 -11.824,-8.968 -2.74,0.992 -4.277,4.216 -4.284,8.181"
             style="fill:none;stroke:#231f20;stroke-width:0.5;stroke-linecap:round;stroke-linejoin:round;stroke-miterlimit:10;stroke-dasharray:none;stroke-opacity:1"
             id="path11156"
             inkscape:connector-curvature="0" /></g><g
           id="g11158"
           transform="translate(102.4231,123.2484)"><path
             d="m 0,0 c -1.801,-1.014 -3.501,-2.962 -4.576,-5.49 -1.929,-4.537 -0.485,-8.966 1.812,-10.471 L 0,-17.392"
             style="fill:none;stroke:#231f20;stroke-width:0.25;stroke-linecap:round;stroke-linejoin:round;stroke-miterlimit:10;stroke-dasharray:none;stroke-opacity:1"
             id="path11160"
             inkscape:connector-curvature="0" /></g><g
           id="g11162"
           transform="translate(145.2554,87.0423)"><path
             d="m 0,0 c 0,-5.711 -11.182,-10.34 -24.976,-10.34 -13.794,0 -24.977,4.629 -24.977,10.34"
             style="fill:none;stroke:#231f20;stroke-width:0.25;stroke-linecap:round;stroke-linejoin:round;stroke-miterlimit:10;stroke-dasharray:none;stroke-opacity:1"
             id="path11164"
             inkscape:connector-curvature="0" /></g><g
           id="g11166"
           transform="translate(118.7409,147.4263)"><path
             d="m 0,0 c 4.021,-8.378 2.995,-17.226 -2.291,-19.763 -5.287,-2.536 -12.831,2.199 -16.852,10.576 -4.02,8.378 -2.994,17.226 2.292,19.763 C -11.565,13.113 -4.021,8.378 0,0 Z"
             style="fill:none;stroke:#231f20;stroke-width:0.25;stroke-linecap:round;stroke-linejoin:round;stroke-miterlimit:10;stroke-dasharray:none;stroke-opacity:1"
             id="path11168"
             inkscape:connector-curvature="0" /></g><g
           id="g11170"
           transform="translate(138.0638,130.25)"><path
             d="m 0,0 c -2.128,-2.535 -4.95,-4.484 -8.1,-5.996 -3.416,-1.639 -7.038,-2.391 -10.623,-2.347"
             style="fill:none;stroke:#231f20;stroke-width:0.5;stroke-linecap:round;stroke-linejoin:round;stroke-miterlimit:10;stroke-dasharray:none;stroke-opacity:1"
             id="path11172"
             inkscape:connector-curvature="0" /></g><g
           id="g11174"
           transform="translate(119.6149,148.1391)"><path
             d="m 0,0 c 4.211,-8.775 2.942,-18.135 -2.834,-20.908 -5.777,-2.772 -13.873,2.094 -18.084,10.869 -4.211,8.775 -2.942,18.136 2.834,20.908 C -12.308,13.641 -4.211,8.775 0,0 Z"
             style="fill:none;stroke:#231f20;stroke-width:0.5;stroke-linecap:round;stroke-linejoin:round;stroke-miterlimit:10;stroke-dasharray:none;stroke-opacity:1"
             id="path11176"
             inkscape:connector-curvature="0" /></g><g
           id="g11178"
           transform="translate(111.6068,134.4956)"><path
             d="m 0,0 c -2.848,-1.276 -6.74,1.225 -8.694,5.586 -1.954,4.361 -1.229,8.93 1.619,10.206"
             style="fill:none;stroke:#231f20;stroke-width:0.25;stroke-linecap:round;stroke-linejoin:round;stroke-miterlimit:10;stroke-dasharray:none;stroke-opacity:1"
             id="path11180"
             inkscape:connector-curvature="0" /></g><g
           id="g11182"
           transform="translate(104.5313,150.2879)"><path
             d="m 0,0 c 2.848,1.276 6.74,-1.225 8.694,-5.586 1.954,-4.361 1.229,-8.93 -1.619,-10.206"
             style="fill:none;stroke:#231f20;stroke-width:0.5;stroke-linecap:round;stroke-linejoin:round;stroke-miterlimit:10;stroke-dasharray:none;stroke-opacity:1"
             id="path11184"
             inkscape:connector-curvature="0" /></g><g
           id="g11186"
           transform="translate(114.0592,137.6924)"><path
             d="m 0,0 c -0.293,-1.123 -1.149,-1.959 -1.856,-2.276 -2.848,-1.276 -6.676,1.084 -8.552,5.27 -1.876,4.186 -1.089,8.592 1.758,9.868"
             style="fill:none;stroke:#231f20;stroke-width:0.25;stroke-linecap:round;stroke-linejoin:round;stroke-miterlimit:10;stroke-dasharray:none;stroke-opacity:1"
             id="path11188"
             inkscape:connector-curvature="0" /></g><g
           id="g11190"
           transform="translate(103.8806,152.374)"><path
             d="m 0,0 1.141,0.541 c 3.47,1.554 8.34,-1.699 10.78,-7.143 2.439,-5.444 1.603,-11.117 -1.867,-12.672 l -1.221,-0.441"
             style="fill:none;stroke:#231f20;stroke-width:0.25;stroke-linecap:round;stroke-linejoin:round;stroke-miterlimit:10;stroke-dasharray:none;stroke-opacity:1"
             id="path11192"
             inkscape:connector-curvature="0" /></g><g
           id="g11194"
           transform="translate(100.7825,157.3351)"><path
             d="M 0,0 C 0,0 1.961,1.916 4.515,2.447"
             style="fill:none;stroke:#231f20;stroke-width:0.25;stroke-linecap:round;stroke-linejoin:round;stroke-miterlimit:10;stroke-dasharray:none;stroke-opacity:1"
             id="path11196"
             inkscape:connector-curvature="0" /></g><g
           id="g11198"
           transform="translate(115.4062,127.2645)"><path
             d="M 0,0 C 0,0 3.635,1.059 5.072,3.554"
             style="fill:none;stroke:#231f20;stroke-width:0.25;stroke-linecap:round;stroke-linejoin:round;stroke-miterlimit:10;stroke-dasharray:none;stroke-opacity:1"
             id="path11200"
             inkscape:connector-curvature="0" /></g><g
           id="g11202"
           transform="translate(102.3245,105.5293)"><path
             d="M 0,0 -0.027,22.476"
             style="fill:none;stroke:#231f20;stroke-width:0.5;stroke-linecap:round;stroke-linejoin:round;stroke-miterlimit:10;stroke-dasharray:none;stroke-opacity:1"
             id="path11204"
             inkscape:connector-curvature="0" /></g><g
           id="g11206"
           transform="translate(95.1596,80.867)"><path
             d="m 0,0 0.143,6.073 c 0,1.162 0.323,2.302 0.934,3.291 l 5.467,8.865 c 0.5,0.81 0.765,1.743 0.765,2.695 l -0.007,3.842"
             style="fill:none;stroke:#231f20;stroke-width:0.25;stroke-linecap:round;stroke-linejoin:round;stroke-miterlimit:10;stroke-dasharray:none;stroke-opacity:1"
             id="path11208"
             inkscape:connector-curvature="0" /></g><g
           id="g11210"
           transform="translate(136.3902,128.6808)"><path
             d="m 0,0 -0.03,-11.012 c 0,-0.313 0.101,-0.618 0.288,-0.87 l 0.204,-0.275 c 0.159,-0.214 0.374,-0.38 0.621,-0.48 l 5.42,-2.204"
             style="fill:none;stroke:#231f20;stroke-width:0.25;stroke-linecap:round;stroke-linejoin:round;stroke-miterlimit:10;stroke-dasharray:none;stroke-opacity:1"
             id="path11212"
             inkscape:connector-curvature="0" /></g><g
           id="g11214"
           transform="translate(142.5491,93.5438)"><path
             d="m 0,0 1.826,-3.211 c 0.625,-1.099 0.948,-2.345 0.936,-3.61 l 0.083,-5.898"
             style="fill:none;stroke:#231f20;stroke-width:0.25;stroke-linecap:round;stroke-linejoin:round;stroke-miterlimit:10;stroke-dasharray:none;stroke-opacity:1"
             id="path11216"
             inkscape:connector-curvature="0" /></g><g
           id="g11218"
           transform="translate(102.4434,116.2287)"><path
             d="m 0,0 c 0,0 0.812,-5.277 5.961,-6.83 4.947,-1.492 8.362,0.447 8.681,1.851 0.283,1.248 0.074,9.493 0.023,11.315 -0.006,0.214 0.131,0.396 0.333,0.463 0.377,0.125 0.747,0.275 1.11,0.449 7.072,3.394 8.602,14.903 3.417,25.706 C 14.34,43.758 4.404,49.765 -2.668,46.371 -4.386,45.546 -5.864,44.358 -6.911,42.702"
             style="fill:none;stroke:#231f20;stroke-width:0.5;stroke-linecap:round;stroke-linejoin:round;stroke-miterlimit:10;stroke-dasharray:none;stroke-opacity:1"
             id="path11220"
             inkscape:connector-curvature="0" /></g><g
           id="g11222"
           transform="translate(134.4309,90.4738)"><path
             d="m 0,0 -10.261,3.293 c 0,0 -4.064,1.611 -4.234,8.1"
             style="fill:none;stroke:#231f20;stroke-width:0.25;stroke-linecap:round;stroke-linejoin:round;stroke-miterlimit:10;stroke-dasharray:none;stroke-opacity:1"
             id="path11224"
             inkscape:connector-curvature="0" /></g><g
           id="g11226"
           transform="translate(124.4255,110.6117)"><path
             d="M 0,0 C 0,0 4.723,6.319 10.532,6.319"
             style="fill:none;stroke:#231f20;stroke-width:0.25;stroke-linecap:round;stroke-linejoin:round;stroke-miterlimit:10;stroke-dasharray:none;stroke-opacity:1"
             id="path11228"
             inkscape:connector-curvature="0" /></g><g
           id="g11230"
           transform="translate(138.7553,96.3138)"><path
             d="m 0,0 c -0.369,0 -0.67,0.302 -0.67,0.67 v 10.149 c 0,0.369 0.301,0.67 0.67,0.67"
             style="fill:none;stroke:#231f20;stroke-width:0.5;stroke-linecap:round;stroke-linejoin:round;stroke-miterlimit:10;stroke-dasharray:none;stroke-opacity:1"
             id="path11232"
             inkscape:connector-curvature="0" /></g><g
           id="g11234"
           transform="translate(138.7553,107.8032)"><path
             d="m 0,0 v 0 c 0.369,0 0.67,-0.302 0.67,-0.67 v -10.149 c 0,-0.369 -0.301,-0.67 -0.67,-0.67"
             style="fill:none;stroke:#231f20;stroke-width:0.25;stroke-linecap:round;stroke-linejoin:round;stroke-miterlimit:10;stroke-dasharray:none;stroke-opacity:1"
             id="path11236"
             inkscape:connector-curvature="0" /></g><g
           id="g11238"
           transform="translate(102.9574,116.3351)"><path
             d="M 0,0 13.362,-4.702"
             style="fill:none;stroke:#231f20;stroke-width:0.25;stroke-linecap:round;stroke-linejoin:round;stroke-miterlimit:10;stroke-dasharray:none;stroke-opacity:1"
             id="path11240"
             inkscape:connector-curvature="0" /></g></g></g><path
       d="M 39.174,1.489 H 2.457 v 7.696 h 36.717 z"
       style="fill:#ffffff;fill-opacity:1;fill-rule:nonzero;stroke:none"
       id="path11242"
       inkscape:connector-curvature="0" /><text
       transform="matrix(1,0,0,-1,3.71,3.25)"
       style="font-variant:normal;font-weight:300;font-stretch:normal;font-size:6px;font-family:Helvetica;-inkscape-font-specification:Helvetica-Light;writing-mode:lr-tb;fill:#231f20;fill-opacity:1;fill-rule:nonzero;stroke:none"
       id="text11246"><tspan
         x="0 1.668 5.6700001 9.3360004 14.334 17.334 20.67 24.006001 27.341999 30.677999"
         y="0"
         sodipodi:role="line"
         id="tspan11244">IASM_00779</tspan></text>
<text
       transform="matrix(1,0,0,-1,200.0605,92.125)"
       style="font-variant:normal;font-weight:bold;font-stretch:normal;font-size:10px;font-family:Helvetica;-inkscape-font-specification:Helvetica-Bold;writing-mode:lr-tb;fill:#231f20;fill-opacity:1;fill-rule:nonzero;stroke:none"
       id="text11254"><tspan
         x="0"
         y="0"
         id="tspan11248">2</tspan><tspan
         x="7.48"
         y="40.18"
         id="tspan11250">3</tspan><tspan
         x="-147.41"
         y="62.32"
         id="tspan11252">4</tspan></text>
<g
       id="g11256"
       transform="translate(185.5106,116.9609)"><path
         d="M 0,0 -45.447,-29.2"
         style="fill:none;stroke:#ffffff;stroke-width:3.07999992;stroke-linecap:round;stroke-linejoin:miter;stroke-miterlimit:4;stroke-dasharray:none;stroke-opacity:1"
         id="path11258"
         inkscape:connector-curvature="0" /></g><g
       id="g11260"
       transform="translate(140.0638,87.7606)"><path
         d="M 0,0 V 0"
         style="fill:none;stroke:#ffffff;stroke-width:3.8499999;stroke-linecap:round;stroke-linejoin:miter;stroke-miterlimit:4;stroke-dasharray:none;stroke-opacity:1"
         id="path11262"
         inkscape:connector-curvature="0" /></g><g
       id="g11264"
       transform="translate(185.5106,116.9609)"><path
         d="M 0,0 -45.447,-29.2"
         style="fill:none;stroke:#231f20;stroke-width:0.51300001;stroke-linecap:round;stroke-linejoin:miter;stroke-miterlimit:4;stroke-dasharray:none;stroke-opacity:1"
         id="path11266"
         inkscape:connector-curvature="0" /></g><g
       id="g11268"
       transform="translate(140.0638,87.7606)"><path
         d="M 0,0 V 0"
         style="fill:none;stroke:#231f20;stroke-width:1.53999996;stroke-linecap:round;stroke-linejoin:miter;stroke-miterlimit:4;stroke-dasharray:none;stroke-opacity:1"
         id="path11270"
         inkscape:connector-curvature="0" /></g><g
       id="g11272"
       transform="translate(197.766,93.7673)"><path
         d="M 0,0 -37.021,-13.156"
         style="fill:none;stroke:#ffffff;stroke-width:3.07999992;stroke-linecap:round;stroke-linejoin:miter;stroke-miterlimit:4;stroke-dasharray:none;stroke-opacity:1"
         id="path11274"
         inkscape:connector-curvature="0" /></g><g
       id="g11276"
       transform="translate(160.7447,80.6117)"><path
         d="M 0,0 V 0"
         style="fill:none;stroke:#ffffff;stroke-width:3.8499999;stroke-linecap:round;stroke-linejoin:miter;stroke-miterlimit:4;stroke-dasharray:none;stroke-opacity:1"
         id="path11278"
         inkscape:connector-curvature="0" /></g><g
       id="g11280"
       transform="translate(197.766,93.7673)"><path
         d="M 0,0 -37.021,-13.156"
         style="fill:none;stroke:#231f20;stroke-width:0.51300001;stroke-linecap:round;stroke-linejoin:miter;stroke-miterlimit:4;stroke-dasharray:none;stroke-opacity:1"
         id="path11282"
         inkscape:connector-curvature="0" /></g><g
       id="g11284"
       transform="translate(160.7447,80.6117)"><path
         d="M 0,0 V 0"
         style="fill:none;stroke:#231f20;stroke-width:1.53999996;stroke-linecap:round;stroke-linejoin:miter;stroke-miterlimit:4;stroke-dasharray:none;stroke-opacity:1"
         id="path11286"
         inkscape:connector-curvature="0" /></g><g
       id="g11288"
       transform="translate(59.2979,34.0585)"><path
         d="M 0,0 48.511,4.255"
         style="fill:none;stroke:#ffffff;stroke-width:3.07999992;stroke-linecap:round;stroke-linejoin:miter;stroke-miterlimit:4;stroke-dasharray:none;stroke-opacity:1"
         id="path11290"
         inkscape:connector-curvature="0" /></g><g
       id="g11292"
       transform="translate(107.8085,38.3138)"><path
         d="M 0,0 V 0"
         style="fill:none;stroke:#ffffff;stroke-width:3.8499999;stroke-linecap:round;stroke-linejoin:miter;stroke-miterlimit:4;stroke-dasharray:none;stroke-opacity:1"
         id="path11294"
         inkscape:connector-curvature="0" /></g><g
       id="g11296"
       transform="translate(59.2979,34.0585)"><path
         d="M 0,0 48.511,4.255"
         style="fill:none;stroke:#231f20;stroke-width:0.51300001;stroke-linecap:round;stroke-linejoin:miter;stroke-miterlimit:4;stroke-dasharray:none;stroke-opacity:1"
         id="path11298"
         inkscape:connector-curvature="0" /></g><g
       id="g11300"
       transform="translate(107.8085,38.3138)"><path
         d="M 0,0 V 0"
         style="fill:none;stroke:#231f20;stroke-width:1.53999996;stroke-linecap:round;stroke-linejoin:miter;stroke-miterlimit:4;stroke-dasharray:none;stroke-opacity:1"
         id="path11302"
         inkscape:connector-curvature="0" /></g><g
       id="g11304"
       transform="translate(204.9149,55.3351)"><path
         d="M 0,0 -38.043,-5.106"
         style="fill:none;stroke:#ffffff;stroke-width:3.07999992;stroke-linecap:round;stroke-linejoin:miter;stroke-miterlimit:4;stroke-dasharray:none;stroke-opacity:1"
         id="path11306"
         inkscape:connector-curvature="0" /></g><g
       id="g11308"
       transform="translate(166.8723,50.2287)"><path
         d="M 0,0 V 0"
         style="fill:none;stroke:#ffffff;stroke-width:3.8499999;stroke-linecap:round;stroke-linejoin:miter;stroke-miterlimit:4;stroke-dasharray:none;stroke-opacity:1"
         id="path11310"
         inkscape:connector-curvature="0" /></g><g
       id="g11312"
       transform="translate(204.9149,55.3351)"><path
         d="M 0,0 -38.043,-5.106"
         style="fill:none;stroke:#231f20;stroke-width:0.51300001;stroke-linecap:round;stroke-linejoin:miter;stroke-miterlimit:4;stroke-dasharray:none;stroke-opacity:1"
         id="path11314"
         inkscape:connector-curvature="0" /></g><g
       id="g11316"
       transform="translate(166.8723,50.2287)"><path
         d="M 0,0 V 0"
         style="fill:none;stroke:#231f20;stroke-width:1.53999996;stroke-linecap:round;stroke-linejoin:miter;stroke-miterlimit:4;stroke-dasharray:none;stroke-opacity:1"
         id="path11318"
         inkscape:connector-curvature="0" /></g><text
       transform="matrix(1,0,0,-1,186.5386,116.9609)"
       style="font-variant:normal;font-weight:bold;font-stretch:normal;font-size:10px;font-family:Helvetica;-inkscape-font-specification:Helvetica-Bold;writing-mode:lr-tb;fill:#231f20;fill-opacity:1;fill-rule:nonzero;stroke:none"
       id="text11322"><tspan
         x="0"
         y="0"
         id="tspan11320">1</tspan></text>
</g></svg>