<?xml version="1.0" encoding="UTF-8" standalone="no"?>
<!-- Created with Inkscape (http://www.inkscape.org/) -->

<svg
   xmlns:dc="http://purl.org/dc/elements/1.1/"
   xmlns:cc="http://creativecommons.org/ns#"
   xmlns:rdf="http://www.w3.org/1999/02/22-rdf-syntax-ns#"
   xmlns:svg="http://www.w3.org/2000/svg"
   xmlns="http://www.w3.org/2000/svg"
   xmlns:sodipodi="http://sodipodi.sourceforge.net/DTD/sodipodi-0.dtd"
   xmlns:inkscape="http://www.inkscape.org/namespaces/inkscape"
   version="1.1"
   id="svg33154"
   xml:space="preserve"
   width="321.25333"
   height="245.66667"
   viewBox="0 0 321.25333 245.66667"
   sodipodi:docname="IASM_00709.svg"
   inkscape:version="0.92.4 (5da689c313, 2019-01-14)"><metadata
     id="metadata33160"><rdf:RDF><cc:Work
         rdf:about=""><dc:format>image/svg+xml</dc:format><dc:type
           rdf:resource="http://purl.org/dc/dcmitype/StillImage" /><dc:title></dc:title></cc:Work></rdf:RDF></metadata><defs
     id="defs33158"><clipPath
       clipPathUnits="userSpaceOnUse"
       id="clipPath33170"><path
         d="M 0,0.016 H 240.83 V 184.25 H 0 Z"
         id="path33168"
         inkscape:connector-curvature="0" /></clipPath></defs><sodipodi:namedview
     pagecolor="#ffffff"
     bordercolor="#666666"
     borderopacity="1"
     objecttolerance="10"
     gridtolerance="10"
     guidetolerance="10"
     inkscape:pageopacity="0"
     inkscape:pageshadow="2"
     inkscape:window-width="640"
     inkscape:window-height="480"
     id="namedview33156"
     showgrid="false"
     inkscape:zoom="1.2618724"
     inkscape:cx="160.62666"
     inkscape:cy="122.83334"
     inkscape:window-x="0"
     inkscape:window-y="0"
     inkscape:window-maximized="1"
     inkscape:current-layer="g33162" /><g
     id="g33162"
     inkscape:groupmode="layer"
     inkscape:label="IASM_00709"
     transform="matrix(1.3333333,0,0,-1.3333333,0,245.66667)"><g
       id="g33164"><g
         id="g33166"
         clip-path="url(#clipPath33170)"><g
           id="g33172"
           transform="translate(82.8723,122.016)"><path
             d="m 0,0 c -0.79,0.191 -1.382,0.602 -1.382,0.809 0,1.215 14.419,2.201 32.205,2.201 C 48.61,3.011 63.03,1.714 63.03,0.499 c 0,-0.233 -0.529,-0.446 -1.511,-0.638"
             style="fill:none;stroke:#231f20;stroke-width:0.25;stroke-linecap:round;stroke-linejoin:round;stroke-miterlimit:10;stroke-dasharray:none;stroke-opacity:1"
             id="path33174"
             inkscape:connector-curvature="0" /></g><g
           id="g33176"
           transform="translate(81.4904,122.8255)"><path
             d="m 0,0 0.004,3.63 c 0,1.214 14.418,2.2 32.205,2.2 17.786,0.001 32.207,-1.296 32.207,-2.511 l -0.004,-3.63"
             style="fill:none;stroke:#231f20;stroke-width:0.5;stroke-linecap:round;stroke-linejoin:round;stroke-miterlimit:10;stroke-dasharray:none;stroke-opacity:1"
             id="path33178"
             inkscape:connector-curvature="0" /></g><g
           id="g33180"
           transform="translate(82.2745,126.9382)"><path
             d="M 0,0 -0.211,5.734 C -0.235,6.412 0.115,7.049 0.702,7.39 l 0.763,0.444 c 2.631,1.531 5.58,2.423 8.617,2.614 9.761,0.615 32.541,1.578 47.521,-1.552 0,0 3.6,-0.634 4.115,-2.467 l -0.03,-6.431"
             style="fill:none;stroke:#231f20;stroke-width:0.25;stroke-linecap:round;stroke-linejoin:round;stroke-miterlimit:10;stroke-dasharray:none;stroke-opacity:1"
             id="path33182"
             inkscape:connector-curvature="0" /></g><g
           id="g33184"
           transform="translate(83.74,134.7725)"><path
             d="m 0,0 c 0,0 4.859,2.5 10.056,0.999 l 2.392,0.088 c 0,0 11.528,3.507 23.433,0.231 l 2.842,-0.001 c 0,0 9.662,2.143 18.403,-1.666 l 1.433,-0.161 c 0,0 0.857,0.432 1.61,-0.667"
             style="fill:none;stroke:#231f20;stroke-width:0.25;stroke-linecap:round;stroke-linejoin:round;stroke-miterlimit:10;stroke-dasharray:none;stroke-opacity:1"
             id="path33186"
             inkscape:connector-curvature="0" /></g><g
           id="g33188"
           transform="translate(93.7958,135.7711)"><path
             d="M 0,0 0.177,-7.51"
             style="fill:none;stroke:#231f20;stroke-width:0.25;stroke-linecap:round;stroke-linejoin:round;stroke-miterlimit:10;stroke-dasharray:none;stroke-opacity:1"
             id="path33190"
             inkscape:connector-curvature="0" /></g><g
           id="g33192"
           transform="translate(96.1878,135.859)"><path
             d="M 0,0 0.263,-7.545"
             style="fill:none;stroke:#231f20;stroke-width:0.25;stroke-linecap:round;stroke-linejoin:round;stroke-miterlimit:10;stroke-dasharray:none;stroke-opacity:1"
             id="path33194"
             inkscape:connector-curvature="0" /></g><g
           id="g33196"
           transform="translate(119.6206,136.09)"><path
             d="M 0,0 -0.102,-7.434"
             style="fill:none;stroke:#231f20;stroke-width:0.25;stroke-linecap:round;stroke-linejoin:round;stroke-miterlimit:10;stroke-dasharray:none;stroke-opacity:1"
             id="path33198"
             inkscape:connector-curvature="0" /></g><g
           id="g33200"
           transform="translate(122.463,136.0893)"><path
             d="M 0,0 -0.034,-7.478"
             style="fill:none;stroke:#231f20;stroke-width:0.25;stroke-linecap:round;stroke-linejoin:round;stroke-miterlimit:10;stroke-dasharray:none;stroke-opacity:1"
             id="path33202"
             inkscape:connector-curvature="0" /></g><g
           id="g33204"
           transform="translate(140.833,134.2954)"><path
             d="M 0,0 -0.01,-6.686"
             style="fill:none;stroke:#231f20;stroke-width:0.25;stroke-linecap:round;stroke-linejoin:round;stroke-miterlimit:10;stroke-dasharray:none;stroke-opacity:1"
             id="path33206"
             inkscape:connector-curvature="0" /></g><g
           id="g33208"
           transform="translate(142.2654,134.1351)"><path
             d="M 0,0 0.01,-6.642"
             style="fill:none;stroke:#231f20;stroke-width:0.25;stroke-linecap:round;stroke-linejoin:round;stroke-miterlimit:10;stroke-dasharray:none;stroke-opacity:1"
             id="path33210"
             inkscape:connector-curvature="0" /></g><g
           id="g33212"
           transform="translate(91.2389,103.6526)"><path
             d="m 0,0 1.489,-1.64 c 0.297,-0.327 0.457,-0.757 0.445,-1.199 l -0.199,-7.467 c -0.01,-0.37 0.14,-0.726 0.411,-0.978 l 0.22,-0.204 c 0.236,-0.22 0.547,-0.343 0.869,-0.345 5.585,-0.224 11.323,-0.37 17.207,-0.422 7.144,-0.063 14.078,0.014 20.788,0.209 0.048,-0.001 0.306,0.003 0.516,0.211 0.132,0.131 0.214,0.313 0.214,0.514 l -10e-4,7.969 c 0,0.375 0.144,0.737 0.401,1.01 0.686,0.729 1.372,1.459 2.059,2.188"
             style="fill:none;stroke:#231f20;stroke-width:0.25;stroke-linecap:round;stroke-linejoin:round;stroke-miterlimit:10;stroke-dasharray:none;stroke-opacity:1"
             id="path33214"
             inkscape:connector-curvature="0" /></g><g
           id="g33216"
           transform="translate(94.4062,101.2983)"><path
             d="m 0,0 c 5.584,-0.225 11.322,-0.37 17.206,-0.422 7.144,-0.063 14.078,0.014 20.789,0.209"
             style="fill:none;stroke:#231f20;stroke-width:0.25;stroke-linecap:round;stroke-linejoin:round;stroke-miterlimit:10;stroke-dasharray:none;stroke-opacity:1"
             id="path33218"
             inkscape:connector-curvature="0" /></g><g
           id="g33220"
           transform="translate(91.611,91.911)"><path
             d="M 0,0 C 0.001,0.162 0.163,0.473 1.251,0.605"
             style="fill:none;stroke:#231f20;stroke-width:1;stroke-linecap:round;stroke-linejoin:round;stroke-miterlimit:10;stroke-dasharray:none;stroke-opacity:1"
             id="path33222"
             inkscape:connector-curvature="0" /></g><g
           id="g33224"
           transform="translate(134.5458,91.5707)"><path
             d="M 0,0 C -0.005,-0.649 -9.621,-1.099 -21.477,-1.005 -33.333,-0.911 -42.94,-0.309 -42.935,0.34"
             style="fill:none;stroke:#231f20;stroke-width:0.25;stroke-linecap:round;stroke-linejoin:round;stroke-miterlimit:10;stroke-dasharray:none;stroke-opacity:1"
             id="path33226"
             inkscape:connector-curvature="0" /></g><g
           id="g33228"
           transform="translate(133.5745,92.1649)"><path
             d="M 0,0 C 0.896,-0.137 0.972,-0.448 0.971,-0.594"
             style="fill:none;stroke:#231f20;stroke-width:1;stroke-linecap:round;stroke-linejoin:round;stroke-miterlimit:10;stroke-dasharray:none;stroke-opacity:1"
             id="path33230"
             inkscape:connector-curvature="0" /></g><g
           id="g33232"
           transform="translate(89.5847,89.6758)"><path
             d="M 0,0 C 0.001,0.162 0.657,0.312 1.841,0.443"
             style="fill:none;stroke:#231f20;stroke-width:1;stroke-linecap:round;stroke-linejoin:round;stroke-miterlimit:10;stroke-dasharray:none;stroke-opacity:1"
             id="path33234"
             inkscape:connector-curvature="0" /></g><g
           id="g33236"
           transform="translate(136.4618,89.1245)"><path
             d="m 0,0 c -0.005,-0.649 -10.585,-0.911 -23.501,-0.809 -12.915,0.102 -23.381,0.711 -23.376,1.36"
             style="fill:none;stroke:#231f20;stroke-width:0.25;stroke-linecap:round;stroke-linejoin:round;stroke-miterlimit:10;stroke-dasharray:none;stroke-opacity:1"
             id="path33238"
             inkscape:connector-curvature="0" /></g><g
           id="g33240"
           transform="translate(134.6923,89.6238)"><path
             d="M 0,0 C 0.976,-0.137 1.771,-0.353 1.77,-0.499"
             style="fill:none;stroke:#231f20;stroke-width:1;stroke-linecap:round;stroke-linejoin:round;stroke-miterlimit:10;stroke-dasharray:none;stroke-opacity:1"
             id="path33242"
             inkscape:connector-curvature="0" /></g><g
           id="g33244"
           transform="translate(89.5532,89.6346)"><path
             d="m 0,0 -0.019,-1.258 c -0.005,-0.649 10.461,-1.258 23.377,-1.36 12.915,-0.103 23.495,0.16 23.5,0.809 l 0.051,1.299"
             style="fill:none;stroke:#231f20;stroke-width:1;stroke-linecap:round;stroke-linejoin:round;stroke-miterlimit:10;stroke-dasharray:none;stroke-opacity:1"
             id="path33246"
             inkscape:connector-curvature="0" /></g><g
           id="g33248"
           transform="translate(96.8327,87.4654)"><path
             d="m 0,0 -0.024,-0.466 c -0.003,-0.449 7.232,-0.869 16.16,-0.94 8.928,-0.071 16.242,0.11 16.245,0.559 l 0.018,0.462"
             style="fill:none;stroke:#231f20;stroke-width:0.5;stroke-linecap:round;stroke-linejoin:round;stroke-miterlimit:10;stroke-dasharray:none;stroke-opacity:1"
             id="path33250"
             inkscape:connector-curvature="0" /></g><g
           id="g33252"
           transform="translate(134.5881,91.5707)"><path
             d="M 0,0 0.087,-1.815"
             style="fill:none;stroke:#231f20;stroke-width:1;stroke-linecap:round;stroke-linejoin:round;stroke-miterlimit:10;stroke-dasharray:none;stroke-opacity:1"
             id="path33254"
             inkscape:connector-curvature="0" /></g><g
           id="g33256"
           transform="translate(91.6535,90.2389)"><path
             d="M 0,0 0.017,-0.662"
             style="fill:none;stroke:#231f20;stroke-width:0.25;stroke-linecap:round;stroke-linejoin:round;stroke-miterlimit:10;stroke-dasharray:none;stroke-opacity:1"
             id="path33258"
             inkscape:connector-curvature="0" /></g><g
           id="g33260"
           transform="translate(91.611,91.911)"><path
             d="M 0,0 0.043,-1.672"
             style="fill:none;stroke:#231f20;stroke-width:1;stroke-linecap:round;stroke-linejoin:round;stroke-miterlimit:10;stroke-dasharray:none;stroke-opacity:1"
             id="path33262"
             inkscape:connector-curvature="0" /></g><g
           id="g33264"
           transform="translate(134.6315,89.2375)"><path
             d="m 0,0 c -0.004,-0.547 -9.619,-0.913 -21.475,-0.819 -11.856,0.094 -21.464,0.613 -21.46,1.159"
             style="fill:none;stroke:#231f20;stroke-width:0.25;stroke-linecap:round;stroke-linejoin:round;stroke-miterlimit:10;stroke-dasharray:none;stroke-opacity:1"
             id="path33266"
             inkscape:connector-curvature="0" /></g><g
           id="g33268"
           transform="translate(100.4412,86.0599)"><path
             d="m 0,0 0.162,-4.421 c 0.014,-0.385 0.181,-0.748 0.463,-1.01 l 0.514,-0.477 c 0.437,-0.406 1.007,-0.638 1.604,-0.652 3.001,-0.348 6.298,-0.597 9.852,-0.667 3.293,-0.066 6.367,0.03 9.191,0.226 0.23,-0.006 0.691,0.014 1.198,0.262 0.368,0.179 0.693,0.445 0.945,0.783 l 0.737,0.989 c 0.186,0.251 0.287,0.555 0.287,0.868 -10e-4,1.405 -10e-4,2.352 -0.002,3.757"
             style="fill:none;stroke:#231f20;stroke-width:1;stroke-linecap:round;stroke-linejoin:round;stroke-miterlimit:10;stroke-dasharray:none;stroke-opacity:1"
             id="path33270"
             inkscape:connector-curvature="0" /></g><g
           id="g33272"
           transform="translate(123.7229,86.1234)"><path
             d="m 0,0 c 0,0 -2.099,-0.237 -2.98,-1.483 0,0 -5.881,2.456 -12.653,0.174 0,0 -0.953,1.019 -6.282,1.558"
             style="fill:none;stroke:#231f20;stroke-width:0.25;stroke-linecap:round;stroke-linejoin:round;stroke-miterlimit:10;stroke-dasharray:none;stroke-opacity:1"
             id="path33274"
             inkscape:connector-curvature="0" /></g><g
           id="g33276"
           transform="translate(103.5263,79.4919)"><path
             d="m 0,0 c 0,0 3.357,-0.364 4.49,0.966 0,0 1.993,-1.738 6.3,-1.643 4.306,0.095 6.468,1.244 6.468,1.244 0,0 0.852,-1.089 2.274,-0.883"
             style="fill:none;stroke:#231f20;stroke-width:0.25;stroke-linecap:round;stroke-linejoin:round;stroke-miterlimit:10;stroke-dasharray:none;stroke-opacity:1"
             id="path33278"
             inkscape:connector-curvature="0" /></g><g
           id="g33280"
           transform="translate(108.0902,84.8146)"><path
             d="M 0,0 -0.074,-4.357"
             style="fill:none;stroke:#231f20;stroke-width:0.25;stroke-linecap:round;stroke-linejoin:round;stroke-miterlimit:10;stroke-dasharray:none;stroke-opacity:1"
             id="path33282"
             inkscape:connector-curvature="0" /></g><g
           id="g33284"
           transform="translate(120.7434,84.6405)"><path
             d="M 0,0 0.04,-4.581"
             style="fill:none;stroke:#231f20;stroke-width:0.25;stroke-linecap:round;stroke-linejoin:round;stroke-miterlimit:10;stroke-dasharray:none;stroke-opacity:1"
             id="path33286"
             inkscape:connector-curvature="0" /></g><g
           id="g33288"
           transform="translate(125.7021,82.1337)"><path
             d="m 0,0 27.267,-0.222 4.055,-0.188 c 0.027,-0.001 0.053,-0.005 0.079,-0.012 l 21.153,-5.425 c 0.177,-0.046 0.299,-0.207 0.295,-0.389 l -0.05,-2.265 c -0.005,-0.187 -0.14,-0.345 -0.324,-0.377 l -2.103,-0.369 c -0.023,-0.004 -0.046,-0.006 -0.07,-0.006 l -110.991,0.605 c -0.033,0 -0.065,0.002 -0.098,0.007 l -3.794,0.601 c -0.306,0.048 -0.534,0.306 -0.545,0.615 l -0.09,2.439 c -0.002,0.06 0.004,0.12 0.018,0.179 l 1.191,4.83 c 0.071,0.291 0.333,0.494 0.633,0.492 L -25.468,0.01"
             style="fill:none;stroke:#231f20;stroke-width:1;stroke-linecap:round;stroke-linejoin:round;stroke-miterlimit:10;stroke-dasharray:none;stroke-opacity:1"
             id="path33290"
             inkscape:connector-curvature="0" /></g><g
           id="g33292"
           transform="translate(178.1595,76.0298)"><path
             d="m 0,0 -2.102,-0.369 c -0.023,-0.004 -0.047,-0.006 -0.07,-0.006 L -113.164,0.23 c -0.032,0 -0.065,0.003 -0.097,0.008 l -3.951,0.487"
             style="fill:none;stroke:#231f20;stroke-width:0.25;stroke-linecap:round;stroke-linejoin:round;stroke-miterlimit:10;stroke-dasharray:none;stroke-opacity:1"
             id="path33294"
             inkscape:connector-curvature="0" /></g><g
           id="g33296"
           transform="translate(65.0655,75.9377)"><path
             d="M 0,0 0.08,-2.19"
             style="fill:none;stroke:#231f20;stroke-width:0.25;stroke-linecap:round;stroke-linejoin:round;stroke-miterlimit:10;stroke-dasharray:none;stroke-opacity:1"
             id="path33298"
             inkscape:connector-curvature="0" /></g><g
           id="g33300"
           transform="translate(175.9893,75.412)"><path
             d="M 0,0 0.039,-2.234"
             style="fill:none;stroke:#231f20;stroke-width:0.25;stroke-linecap:round;stroke-linejoin:round;stroke-miterlimit:10;stroke-dasharray:none;stroke-opacity:1"
             id="path33302"
             inkscape:connector-curvature="0" /></g><g
           id="g33304"
           transform="translate(137.6657,73.0893)"><path
             d="M 0,0 C 0,0 1.917,-3.507 -10.288,-5.104 -22.493,-6.702 -40.386,-8.19 -43.793,-7.612"
             style="fill:none;stroke:#231f20;stroke-width:1;stroke-linecap:round;stroke-linejoin:round;stroke-miterlimit:10;stroke-dasharray:none;stroke-opacity:1"
             id="path33306"
             inkscape:connector-curvature="0" /></g><g
           id="g33308"
           transform="translate(124.5044,73.1611)"><path
             d="M 0,0 C 0,0 -15.183,-2.22 -25.636,-2.817"
             style="fill:none;stroke:#231f20;stroke-width:1;stroke-linecap:round;stroke-linejoin:round;stroke-miterlimit:10;stroke-dasharray:none;stroke-opacity:1"
             id="path33310"
             inkscape:connector-curvature="0" /></g><g
           id="g33312"
           transform="translate(102.1008,71.0168)"><path
             d="M 0,0 -6.627,-0.459 C -7.428,-0.515 -8.214,-0.7 -8.956,-1.008 l -0.825,-0.343 c -1.676,-0.696 -1.814,-3.017 -0.233,-3.908 v 0 c 1.145,-0.645 2.441,-0.973 3.754,-0.952 l 4.282,0.07"
             style="fill:none;stroke:#231f20;stroke-width:1;stroke-linecap:round;stroke-linejoin:round;stroke-miterlimit:10;stroke-dasharray:none;stroke-opacity:1"
             id="path33314"
             inkscape:connector-curvature="0" /></g><g
           id="g33316"
           transform="translate(127.9149,64.25)"><path
             d="m 0,0 c 0,0 11.767,-4.308 9.929,-9.933 -1.837,-5.624 -9.814,-7.578 -9.814,-7.578 0,0 -16.52,-3.949 -30.008,-3.784 -11.758,0.143 -6.809,6.265 -4.584,6.538 2.226,0.273 6.77,-10e-4 6.77,-10e-4"
             style="fill:none;stroke:#231f20;stroke-width:1;stroke-linecap:round;stroke-linejoin:round;stroke-miterlimit:10;stroke-dasharray:none;stroke-opacity:1"
             id="path33318"
             inkscape:connector-curvature="0" /></g><g
           id="g33320"
           transform="translate(95.2451,48.9844)"><path
             d="m 0,0 c 0,0 5.788,-1.065 20.265,1.255 14.478,2.32 18.84,5.291 17.91,8.003"
             style="fill:none;stroke:#231f20;stroke-width:1;stroke-linecap:round;stroke-linejoin:round;stroke-miterlimit:10;stroke-dasharray:none;stroke-opacity:1"
             id="path33322"
             inkscape:connector-curvature="0" /></g><g
           id="g33324"
           transform="translate(127.8511,58.3989)"><path
             d="M 0,0 C 0,0 4.998,-1.167 4.645,-2.841"
             style="fill:none;stroke:#231f20;stroke-width:1;stroke-linecap:round;stroke-linejoin:round;stroke-miterlimit:10;stroke-dasharray:none;stroke-opacity:1"
             id="path33326"
             inkscape:connector-curvature="0" /></g><g
           id="g33328"
           transform="translate(127.6293,44.1862)"><path
             d="m 0,0 c 0,0 11.594,-4.594 9.775,-10.727 -1.818,-6.134 -9.789,-8.239 -9.789,-8.239 0,0 -11.672,-4.155 -30,-4.031 -11.761,0.079 -6.563,7.237 -4.381,7.761 3.292,0.792 6.765,0.728 6.765,0.728"
             style="fill:none;stroke:#231f20;stroke-width:1;stroke-linecap:round;stroke-linejoin:round;stroke-miterlimit:10;stroke-dasharray:none;stroke-opacity:1"
             id="path33330"
             inkscape:connector-curvature="0" /></g><g
           id="g33332"
           transform="translate(94.8185,27.7809)"><path
             d="M 0,0 C 0,0 6.204,-2.207 20.676,0.277 35.148,2.761 39.088,7.014 38.149,9.978"
             style="fill:none;stroke:#231f20;stroke-width:1;stroke-linecap:round;stroke-linejoin:round;stroke-miterlimit:10;stroke-dasharray:none;stroke-opacity:1"
             id="path33334"
             inkscape:connector-curvature="0" /></g><g
           id="g33336"
           transform="translate(127.5532,38.0372)"><path
             d="M 0,0 C 0,0 4.846,-1.38 4.499,-3.206"
             style="fill:none;stroke:#231f20;stroke-width:1;stroke-linecap:round;stroke-linejoin:round;stroke-miterlimit:10;stroke-dasharray:none;stroke-opacity:1"
             id="path33338"
             inkscape:connector-curvature="0" /></g><g
           id="g33340"
           transform="translate(127.032,24.6451)"><path
             d="m 0,0 c 0,0 11.589,-5.39 9.796,-12.223 -1.793,-6.833 -10.086,-9.216 -10.086,-9.216 0,0 -10.547,-3.715 -28.878,-3.499 -11.764,0.138 -7.447,8.562 -4.918,9.272 3.828,1.076 7.039,1.552 7.039,1.552"
             style="fill:none;stroke:#231f20;stroke-width:1;stroke-linecap:round;stroke-linejoin:round;stroke-miterlimit:10;stroke-dasharray:none;stroke-opacity:1"
             id="path33342"
             inkscape:connector-curvature="0" /></g><g
           id="g33344"
           transform="translate(94.5673,6.7908)"><path
             d="M 0,0 C 0,0 6.261,-3.745 20.724,-1.036 35.188,1.673 39.078,7.278 38.127,10.587"
             style="fill:none;stroke:#231f20;stroke-width:1;stroke-linecap:round;stroke-linejoin:round;stroke-miterlimit:10;stroke-dasharray:none;stroke-opacity:1"
             id="path33346"
             inkscape:connector-curvature="0" /></g><g
           id="g33348"
           transform="translate(127.2168,18.7031)"><path
             d="M 0,0 C 0,0 5.023,-3.051 4.684,-5.086"
             style="fill:none;stroke:#231f20;stroke-width:1;stroke-linecap:round;stroke-linejoin:round;stroke-miterlimit:10;stroke-dasharray:none;stroke-opacity:1"
             id="path33350"
             inkscape:connector-curvature="0" /></g><g
           id="g33352"
           transform="translate(102.203,70.5745)"><path
             d="M 0,0 -0.097,2.635"
             style="fill:none;stroke:#231f20;stroke-width:0.5;stroke-linecap:round;stroke-linejoin:round;stroke-miterlimit:10;stroke-dasharray:none;stroke-opacity:1"
             id="path33354"
             inkscape:connector-curvature="0" /></g><g
           id="g33356"
           transform="translate(100.2035,21.1726)"><path
             d="M 0,0 -0.005,-15.993"
             style="fill:none;stroke:#231f20;stroke-width:0.5;stroke-linecap:round;stroke-linejoin:round;stroke-miterlimit:10;stroke-dasharray:none;stroke-opacity:1"
             id="path33358"
             inkscape:connector-curvature="0" /></g><g
           id="g33360"
           transform="translate(100.2109,42.9181)"><path
             d="M 0,0 -0.005,-15.883"
             style="fill:none;stroke:#231f20;stroke-width:0.5;stroke-linecap:round;stroke-linejoin:round;stroke-miterlimit:10;stroke-dasharray:none;stroke-opacity:1"
             id="path33362"
             inkscape:connector-curvature="0" /></g><g
           id="g33364"
           transform="translate(100.2186,65.4516)"><path
             d="M 0,0 -0.006,-16.636"
             style="fill:none;stroke:#231f20;stroke-width:0.5;stroke-linecap:round;stroke-linejoin:round;stroke-miterlimit:10;stroke-dasharray:none;stroke-opacity:1"
             id="path33366"
             inkscape:connector-curvature="0" /></g><g
           id="g33368"
           transform="translate(126.6344,3.1264)"><path
             d="M 0,0 -0.094,-5.4"
             style="fill:none;stroke:#231f20;stroke-width:0.5;stroke-linecap:round;stroke-linejoin:round;stroke-miterlimit:10;stroke-dasharray:none;stroke-opacity:1"
             id="path33370"
             inkscape:connector-curvature="0" /></g><g
           id="g33372"
           transform="translate(127.0121,24.9211)"><path
             d="M 0,0 -0.268,-15.459"
             style="fill:none;stroke:#231f20;stroke-width:0.5;stroke-linecap:round;stroke-linejoin:round;stroke-miterlimit:10;stroke-dasharray:none;stroke-opacity:1"
             id="path33374"
             inkscape:connector-curvature="0" /></g><g
           id="g33376"
           transform="translate(127.3868,46.5397)"><path
             d="M 0,0 -0.266,-15.371"
             style="fill:none;stroke:#231f20;stroke-width:0.5;stroke-linecap:round;stroke-linejoin:round;stroke-miterlimit:10;stroke-dasharray:none;stroke-opacity:1"
             id="path33378"
             inkscape:connector-curvature="0" /></g><g
           id="g33380"
           transform="translate(127.7594,68.0361)"><path
             d="M 0,0 -0.26,-15.001"
             style="fill:none;stroke:#231f20;stroke-width:0.5;stroke-linecap:round;stroke-linejoin:round;stroke-miterlimit:10;stroke-dasharray:none;stroke-opacity:1"
             id="path33382"
             inkscape:connector-curvature="0" /></g><g
           id="g33384"
           transform="translate(129.0394,4.1152)"><path
             d="M 0,0 C 0,0 4.408,-2.271 5.35,-5.303"
             style="fill:none;stroke:#231f20;stroke-width:1;stroke-linecap:round;stroke-linejoin:round;stroke-miterlimit:10;stroke-dasharray:none;stroke-opacity:1"
             id="path33386"
             inkscape:connector-curvature="0" /></g><g
           id="g33388"
           transform="translate(142.5957,118.6117)"><path
             d="M 0,0 V 0.989"
             style="fill:none;stroke:#231f20;stroke-width:0.25;stroke-linecap:round;stroke-linejoin:round;stroke-miterlimit:10;stroke-dasharray:none;stroke-opacity:1"
             id="path33390"
             inkscape:connector-curvature="0" /></g><g
           id="g33392"
           transform="translate(111.9207,139.0234)"><path
             d="m 0,0 c -7.896,0 -15.072,-0.348 -19.702,-0.639 -3.179,-0.201 -6.311,-1.151 -9.056,-2.748 l -0.764,-0.444 c -0.908,-0.528 -1.447,-1.508 -1.409,-2.557 l 0.185,-5.039 c -0.388,-0.218 -0.755,-0.57 -0.755,-1.141 l -0.004,-3.629 c 0,-1.229 1.927,-1.729 2.147,-1.783 l 0.604,-0.123 0.477,-0.218 -0.418,-0.422 c -0.187,-0.189 -0.291,-0.446 -0.289,-0.712 l 0.001,-0.134 c -0.666,-0.202 -1.32,-0.565 -1.32,-1.339 0,-0.39 0.167,-0.672 0.408,-0.88 -0.207,-0.203 -0.346,-0.469 -0.346,-0.82 0,-0.408 0.184,-0.699 0.443,-0.909 -0.224,-0.206 -0.378,-0.481 -0.378,-0.852 0,-0.459 0.232,-0.77 0.543,-0.984 -0.257,-0.211 -0.441,-0.502 -0.441,-0.911 0,-0.411 0.185,-0.701 0.444,-0.91 -0.223,-0.206 -0.379,-0.48 -0.379,-0.851 0,-0.456 0.226,-0.763 0.528,-0.975 -0.331,-0.217 -0.583,-0.535 -0.583,-1.011 0,-0.407 0.183,-0.698 0.442,-0.908 -0.224,-0.205 -0.377,-0.48 -0.377,-0.853 0,-0.701 0.541,-1.054 1.075,-1.25 0.061,-0.247 0.175,-0.482 0.334,-0.682 l 0.648,-0.812 c 0.334,-0.42 0.833,-0.663 1.369,-0.667 l 3.998,-0.032 1.138,-0.874 1.429,-1.574 c 0.125,-0.137 0.191,-0.315 0.186,-0.501 l -0.199,-7.466 c -0.018,-0.657 0.248,-1.29 0.73,-1.738 l 0.219,-0.204 c 0.422,-0.391 0.97,-0.608 1.545,-0.612 5.682,-0.229 11.481,-0.371 17.203,-0.422 1.639,-0.014 3.267,-0.021 4.883,-0.021 5.29,0 10.654,0.077 15.943,0.23 h 0.003 c 0.191,0 0.735,0.051 1.189,0.502 0.328,0.326 0.509,0.761 0.509,1.224 v 7.968 c 0,0.121 0.045,0.237 0.128,0.325 l 1.11,1.179 0.932,0.991 0.638,0.612 4.769,-0.038 c 0.605,0 1.147,0.297 1.465,0.795 l 0.557,0.873 c 0.102,0.16 0.175,0.341 0.219,0.541 0.025,0.082 0.039,0.167 0.042,0.253 0.005,0.047 0.009,0.095 0.009,0.143 0.502,0.195 1.019,0.547 1.019,1.227 0,0.405 -0.185,0.696 -0.446,0.908 0.225,0.204 0.381,0.479 0.381,0.853 0,0.45 -0.227,0.759 -0.532,0.975 0.329,0.213 0.587,0.53 0.587,1.01 0,0.406 -0.182,0.697 -0.444,0.91 0.224,0.204 0.38,0.479 0.38,0.852 0,0.458 -0.231,0.769 -0.548,0.987 0.258,0.209 0.445,0.499 0.445,0.908 0,0.408 -0.182,0.699 -0.442,0.911 0.223,0.204 0.378,0.478 0.378,0.85 0,0.387 -0.169,0.669 -0.411,0.878 0.207,0.201 0.348,0.467 0.348,0.822 0,0.707 -0.558,1.068 -1.137,1.275 l 1.292,1.627 c 0.858,0.184 1.965,0.53 1.965,1.547 l 0.004,3.629 c 0,0.904 -0.85,1.311 -1.94,1.591 l 0.026,5.628 c 0,0.093 -0.012,0.185 -0.037,0.274 -0.025,0.087 -0.056,0.17 -0.091,0.252 -0.025,0.083 -0.061,0.163 -0.108,0.238 -1.003,1.983 -4.324,2.625 -4.704,2.693 C 21.067,-0.744 11.617,0 0,0 m 0,-1 c 9.378,0 19.773,-0.495 27.882,-2.189 0,0 3.264,-0.579 4.016,-2.22 0.005,-0.007 0.011,-0.011 0.016,-0.018 h -0.008 c 0.033,-0.075 0.068,-0.15 0.091,-0.23 l -0.03,-6.43 v 0 c 1.257,-0.258 1.944,-0.527 1.944,-0.792 l -0.004,-3.63 c 0,-0.232 -0.53,-0.445 -1.511,-0.637 l -0.035,-0.034 -1.778,-2.239 0.012,-1.018 c 0.77,-0.165 1.192,-0.339 1.192,-0.521 0,-0.163 -0.328,-0.314 -0.945,-0.454 h -0.09 l 0.02,-0.066 0.018,-0.688 c 0.687,-0.156 1.06,-0.32 1.06,-0.492 0,-0.163 -0.329,-0.314 -0.946,-0.454 h -0.089 l 0.021,-0.811 c 0.698,-0.157 1.078,-0.323 1.078,-0.496 0,-0.163 -0.328,-0.315 -0.945,-0.455 H 30.86 l 0.024,-0.933 c 0.733,-0.16 1.133,-0.33 1.133,-0.507 0,-0.163 -0.329,-0.314 -0.946,-0.454 h -0.162 l 0.021,-0.796 c 0.744,-0.161 1.151,-0.333 1.151,-0.512 0,-0.162 -0.328,-0.314 -0.945,-0.454 h -0.181 l 0.027,-1.042 c 0.678,-0.155 1.044,-0.318 1.044,-0.489 0,-0.163 -0.328,-0.314 -0.945,-0.454 h -0.075 l 0.021,-0.814 c 0.69,-0.156 1.064,-0.321 1.064,-0.493 0,-0.163 -0.328,-0.315 -0.946,-0.454 h -0.093 l 0.02,-0.766 c 0.001,-0.039 -0.009,-0.076 -0.015,-0.115 0.001,-0.002 0.007,-0.004 0.007,-0.006 h -0.007 c -0.015,-0.1 -0.043,-0.199 -0.098,-0.285 l -0.557,-0.873 c -0.133,-0.208 -0.362,-0.333 -0.608,-0.333 -0.002,0 -0.004,0 -0.006,0 l -5.176,0.041 -0.95,-0.912 c -0.686,-0.729 -1.373,-1.458 -2.059,-2.188 -0.257,-0.273 -0.4,-0.634 -0.4,-1.01 v -7.969 c 0,-0.201 -0.082,-0.383 -0.214,-0.514 -0.205,-0.204 -0.457,-0.211 -0.512,-0.211 -0.002,0 -0.003,0 -0.004,0 -5.174,-0.15 -10.48,-0.23 -15.914,-0.23 -1.613,0 -3.238,0.007 -4.874,0.021 -5.884,0.052 -11.622,0.198 -17.206,0.422 -0.323,0.002 -0.633,0.125 -0.87,0.345 l -0.22,0.204 c -0.271,0.252 -0.42,0.608 -0.411,0.978 l 0.199,7.467 c 0.012,0.442 -0.147,0.872 -0.445,1.2 l -1.489,1.639 -1.475,1.133 -4.333,0.035 c -0.232,0.002 -0.451,0.109 -0.595,0.29 l -0.648,0.812 c -0.105,0.133 -0.164,0.296 -0.167,0.465 l -0.007,0.372 c -0.662,0.146 -1.017,0.303 -1.017,0.472 0,0.168 0.349,0.328 0.999,0.479 l -0.015,0.805 h -0.011 c -0.677,0.147 -1.038,0.306 -1.038,0.477 0,0.171 0.362,0.333 1.031,0.486 l -0.019,1.043 c -0.619,0.141 -0.957,0.293 -0.957,0.457 0,0.162 0.327,0.318 0.94,0.465 l -0.016,0.831 c -0.642,0.144 -0.989,0.299 -0.989,0.465 0,0.165 0.338,0.324 0.972,0.473 l -0.018,0.944 h -0.019 c -0.676,0.148 -1.037,0.307 -1.037,0.478 0,0.171 0.364,0.334 1.038,0.487 l -0.014,0.797 h -0.051 c -0.677,0.147 -1.038,0.306 -1.038,0.477 0,0.173 0.377,0.339 1.071,0.495 l -0.014,0.726 0.001,0.002 h -0.083 c -0.677,0.147 -1.037,0.306 -1.037,0.477 0,0.194 0.465,0.378 1.326,0.55 l -0.007,0.931 1.425,1.44 -1.883,0.861 -0.681,0.139 c -0.79,0.19 -1.382,0.601 -1.382,0.809 l 0.004,3.63 c 0,0.166 0.278,0.327 0.788,0.483 h -0.008 l -0.211,5.734 c -0.024,0.678 0.326,1.315 0.913,1.656 l 0.763,0.444 c 2.631,1.53 5.58,2.422 8.617,2.614 C -15.162,-1.355 -7.946,-1 0,-1"
             style="fill:#231f20;fill-opacity:1;fill-rule:nonzero;stroke:none"
             id="path33394"
             inkscape:connector-curvature="0" /></g><g
           id="g33396"
           transform="translate(86.1872,104.6439)"><path
             d="M 0,0 -0.015,-0.243 C -0.039,-0.64 0.276,-0.975 0.673,-0.976 l 52.61,-0.182 c 0.385,-0.002 0.698,0.313 0.693,0.699 l -10e-4,0.068"
             style="fill:#ffffff;fill-opacity:1;fill-rule:nonzero;stroke:#231f20;stroke-width:0.5;stroke-linecap:round;stroke-linejoin:round;stroke-miterlimit:10;stroke-dasharray:none;stroke-opacity:1"
             id="path33398"
             inkscape:connector-curvature="0" /></g><g
           id="g33400"
           transform="translate(142.768,117.5453)"><path
             d="m 0,0 0.299,-11.563 c 0.004,-0.144 -0.035,-0.286 -0.113,-0.407 l -0.556,-0.873 c -0.134,-0.209 -0.366,-0.335 -0.614,-0.333 l -56.353,0.451 c -0.232,0.002 -0.451,0.109 -0.596,0.29 l -0.647,0.812 c -0.105,0.133 -0.164,0.296 -0.167,0.465 l -0.209,11.229"
             style="fill:none;stroke:#231f20;stroke-width:0.25;stroke-linecap:round;stroke-linejoin:round;stroke-miterlimit:10;stroke-dasharray:none;stroke-opacity:1"
             id="path33402"
             inkscape:connector-curvature="0" /></g><g
           id="g33404"
           transform="translate(83.73,117.6181)"><path
             d="m 0,0 c -0.677,0.147 -1.038,0.306 -1.038,0.477 0,1.051 13.59,1.818 30.47,1.818 16.881,10e-4 30.621,-0.797 30.621,-1.848 0,-0.163 -0.328,-0.314 -0.946,-0.454"
             style="fill:#ffffff;fill-opacity:1;fill-rule:nonzero;stroke:#231f20;stroke-width:0.25;stroke-linecap:round;stroke-linejoin:round;stroke-miterlimit:10;stroke-dasharray:none;stroke-opacity:1"
             id="path33406"
             inkscape:connector-curvature="0" /></g><g
           id="g33408"
           transform="translate(83.6975,117.6434)"><path
             d="M 0,0 C 3.398,0.873 15.272,1.323 29.5,1.324 43.575,1.324 55.483,0.869 59.034,0"
             style="fill:none;stroke:#231f20;stroke-width:0.25;stroke-linecap:round;stroke-linejoin:round;stroke-miterlimit:10;stroke-dasharray:none;stroke-opacity:1"
             id="path33410"
             inkscape:connector-curvature="0" /></g><g
           id="g33412"
           transform="translate(83.7924,115.9182)"><path
             d="m 0,0 c -0.677,0.147 -1.038,0.306 -1.038,0.477 0,1.051 13.59,1.818 30.47,1.818 16.881,10e-4 30.621,-0.797 30.621,-1.848 0,-0.163 -0.328,-0.314 -0.946,-0.454"
             style="fill:#ffffff;fill-opacity:1;fill-rule:nonzero;stroke:#231f20;stroke-width:0.25;stroke-linecap:round;stroke-linejoin:round;stroke-miterlimit:10;stroke-dasharray:none;stroke-opacity:1"
             id="path33414"
             inkscape:connector-curvature="0" /></g><g
           id="g33416"
           transform="translate(83.7599,115.9435)"><path
             d="M 0,0 C 3.398,0.873 15.272,1.323 29.5,1.324 43.575,1.324 55.483,0.869 59.034,0"
             style="fill:none;stroke:#231f20;stroke-width:0.25;stroke-linecap:round;stroke-linejoin:round;stroke-miterlimit:10;stroke-dasharray:none;stroke-opacity:1"
             id="path33418"
             inkscape:connector-curvature="0" /></g><g
           id="g33420"
           transform="translate(83.8571,114.1569)"><path
             d="m 0,0 c -0.677,0.147 -1.038,0.306 -1.038,0.477 0,1.051 13.59,1.818 30.47,1.818 16.881,10e-4 30.621,-0.797 30.621,-1.848 0,-0.163 -0.328,-0.314 -0.946,-0.454"
             style="fill:#ffffff;fill-opacity:1;fill-rule:nonzero;stroke:#231f20;stroke-width:0.25;stroke-linecap:round;stroke-linejoin:round;stroke-miterlimit:10;stroke-dasharray:none;stroke-opacity:1"
             id="path33422"
             inkscape:connector-curvature="0" /></g><g
           id="g33424"
           transform="translate(83.8246,114.1822)"><path
             d="M 0,0 C 3.398,0.873 15.272,1.323 29.5,1.324 43.575,1.324 55.483,0.869 59.034,0"
             style="fill:none;stroke:#231f20;stroke-width:0.25;stroke-linecap:round;stroke-linejoin:round;stroke-miterlimit:10;stroke-dasharray:none;stroke-opacity:1"
             id="path33426"
             inkscape:connector-curvature="0" /></g><g
           id="g33428"
           transform="translate(83.9594,112.2621)"><path
             d="m 0,0 c -0.677,0.147 -1.038,0.306 -1.038,0.477 0,1.051 13.59,1.818 30.47,1.818 16.881,10e-4 30.621,-0.797 30.621,-1.848 0,-0.163 -0.328,-0.314 -0.946,-0.454"
             style="fill:#ffffff;fill-opacity:1;fill-rule:nonzero;stroke:#231f20;stroke-width:0.25;stroke-linecap:round;stroke-linejoin:round;stroke-miterlimit:10;stroke-dasharray:none;stroke-opacity:1"
             id="path33430"
             inkscape:connector-curvature="0" /></g><g
           id="g33432"
           transform="translate(83.9269,112.2874)"><path
             d="M 0,0 C 3.398,0.873 15.272,1.323 29.5,1.324 43.575,1.324 55.483,0.869 59.034,0"
             style="fill:none;stroke:#231f20;stroke-width:0.25;stroke-linecap:round;stroke-linejoin:round;stroke-miterlimit:10;stroke-dasharray:none;stroke-opacity:1"
             id="path33434"
             inkscape:connector-curvature="0" /></g><g
           id="g33436"
           transform="translate(84.0241,110.5007)"><path
             d="m 0,0 c -0.677,0.147 -1.038,0.306 -1.038,0.477 0,1.051 13.59,1.818 30.47,1.818 16.881,10e-4 30.621,-0.797 30.621,-1.848 0,-0.163 -0.328,-0.314 -0.946,-0.454"
             style="fill:#ffffff;fill-opacity:1;fill-rule:nonzero;stroke:#231f20;stroke-width:0.25;stroke-linecap:round;stroke-linejoin:round;stroke-miterlimit:10;stroke-dasharray:none;stroke-opacity:1"
             id="path33438"
             inkscape:connector-curvature="0" /></g><g
           id="g33440"
           transform="translate(83.9916,110.526)"><path
             d="M 0,0 C 3.398,0.873 15.272,1.323 29.5,1.324 43.575,1.324 55.483,0.869 59.034,0"
             style="fill:none;stroke:#231f20;stroke-width:0.25;stroke-linecap:round;stroke-linejoin:round;stroke-miterlimit:10;stroke-dasharray:none;stroke-opacity:1"
             id="path33442"
             inkscape:connector-curvature="0" /></g><g
           id="g33444"
           transform="translate(83.9692,108.5154)"><path
             d="m 0,0 c -0.677,0.147 -1.038,0.306 -1.038,0.477 0,1.051 13.59,1.818 30.47,1.818 16.881,10e-4 30.621,-0.797 30.621,-1.848 0,-0.163 -0.328,-0.314 -0.946,-0.454"
             style="fill:#ffffff;fill-opacity:1;fill-rule:nonzero;stroke:#231f20;stroke-width:0.25;stroke-linecap:round;stroke-linejoin:round;stroke-miterlimit:10;stroke-dasharray:none;stroke-opacity:1"
             id="path33446"
             inkscape:connector-curvature="0" /></g><g
           id="g33448"
           transform="translate(83.9367,108.5407)"><path
             d="M 0,0 C 3.398,0.873 15.272,1.323 29.5,1.324 43.575,1.324 55.483,0.869 59.034,0"
             style="fill:none;stroke:#231f20;stroke-width:0.25;stroke-linecap:round;stroke-linejoin:round;stroke-miterlimit:10;stroke-dasharray:none;stroke-opacity:1"
             id="path33450"
             inkscape:connector-curvature="0" /></g><g
           id="g33452"
           transform="translate(84.0339,106.754)"><path
             d="m 0,0 c -0.677,0.147 -1.038,0.306 -1.038,0.477 0,1.051 13.59,1.818 30.47,1.818 16.881,10e-4 30.621,-0.797 30.621,-1.848 0,-0.163 -0.328,-0.314 -0.946,-0.454"
             style="fill:#ffffff;fill-opacity:1;fill-rule:nonzero;stroke:#231f20;stroke-width:0.25;stroke-linecap:round;stroke-linejoin:round;stroke-miterlimit:10;stroke-dasharray:none;stroke-opacity:1"
             id="path33454"
             inkscape:connector-curvature="0" /></g><g
           id="g33456"
           transform="translate(84.0014,106.7793)"><path
             d="M 0,0 C 3.398,0.873 15.272,1.323 29.5,1.324 43.575,1.324 55.483,0.869 59.034,0"
             style="fill:none;stroke:#231f20;stroke-width:0.25;stroke-linecap:round;stroke-linejoin:round;stroke-miterlimit:10;stroke-dasharray:none;stroke-opacity:1"
             id="path33458"
             inkscape:connector-curvature="0" /></g><g
           id="g33460"
           transform="translate(84.1866,106.1007)"><path
             d="M 0,0 C 0.751,0.42 14.939,0.837 29.167,0.837 43.242,0.838 58.687,0.335 58.874,-0.24"
             style="fill:none;stroke:#231f20;stroke-width:0.25;stroke-linecap:round;stroke-linejoin:round;stroke-miterlimit:10;stroke-dasharray:none;stroke-opacity:1"
             id="path33462"
             inkscape:connector-curvature="0" /></g><g
           id="g33464"
           transform="translate(84.0213,118.6862)"><path
             d="M 0,0 V 0.894"
             style="fill:none;stroke:#231f20;stroke-width:0.25;stroke-linecap:round;stroke-linejoin:round;stroke-miterlimit:10;stroke-dasharray:none;stroke-opacity:1"
             id="path33466"
             inkscape:connector-curvature="0" /></g><g
           id="g33468"
           transform="translate(82.6068,120.9488)"><path
             d="m 0,0 0.012,-0.135 c 0.069,-0.785 0.778,-1.346 1.557,-1.23 8.683,1.294 18.804,1.554 30.164,1.502 10.789,-0.049 20.528,-0.304 28.873,-1.567 0.821,-0.124 1.557,0.502 1.568,1.332 v 0 C 62.183,0.607 61.663,1.205 60.963,1.281 52.036,2.257 42.061,2.551 31.329,2.599 20.355,2.648 10.316,2.416 1.215,1.483 0.471,1.407 -0.066,0.745 0,0"
             style="fill:#ffffff;fill-opacity:1;fill-rule:nonzero;stroke:none"
             id="path33470"
             inkscape:connector-curvature="0" /></g><g
           id="g33472"
           transform="translate(82.6068,120.9488)"><path
             d="m 0,0 0.012,-0.135 c 0.069,-0.785 0.778,-1.346 1.557,-1.23 8.683,1.294 18.804,1.554 30.164,1.502 10.789,-0.049 20.528,-0.304 28.873,-1.567 0.821,-0.124 1.557,0.502 1.568,1.332 v 0 C 62.183,0.607 61.663,1.205 60.963,1.281 52.036,2.257 42.061,2.551 31.329,2.599 20.355,2.648 10.316,2.416 1.215,1.483 0.471,1.407 -0.066,0.745 0,0 Z"
             style="fill:none;stroke:#231f20;stroke-width:0.5;stroke-linecap:round;stroke-linejoin:round;stroke-miterlimit:10;stroke-dasharray:none;stroke-opacity:1"
             id="path33474"
             inkscape:connector-curvature="0" /></g></g></g><path
       d="M 39.174,1.489 H 2.457 v 7.696 h 36.717 z"
       style="fill:#ffffff;fill-opacity:1;fill-rule:nonzero;stroke:none"
       id="path33476"
       inkscape:connector-curvature="0" /><text
       transform="matrix(1,0,0,-1,3.71,3.25)"
       style="font-variant:normal;font-weight:300;font-stretch:normal;font-size:6px;font-family:Helvetica;-inkscape-font-specification:Helvetica-Light;writing-mode:lr-tb;fill:#231f20;fill-opacity:1;fill-rule:nonzero;stroke:none"
       id="text33480"><tspan
         x="0 1.668 5.6700001 9.3360004 14.334 17.334 20.67 24.006001 27.341999 30.677999"
         y="0"
         sodipodi:role="line"
         id="tspan33478">IASM_00709</tspan></text>
<g
       id="g33482"
       transform="translate(44.4232,104.1011)"><path
         d="M 0,0 56.577,-20.936"
         style="fill:none;stroke:#ffffff;stroke-width:3.07999992;stroke-linecap:round;stroke-linejoin:miter;stroke-miterlimit:4;stroke-dasharray:none;stroke-opacity:1"
         id="path33484"
         inkscape:connector-curvature="0" /></g><g
       id="g33486"
       transform="translate(101,83.1649)"><path
         d="M 0,0 V 0"
         style="fill:none;stroke:#ffffff;stroke-width:3.8499999;stroke-linecap:round;stroke-linejoin:miter;stroke-miterlimit:4;stroke-dasharray:none;stroke-opacity:1"
         id="path33488"
         inkscape:connector-curvature="0" /></g><g
       id="g33490"
       transform="translate(44.4232,104.1011)"><path
         d="M 0,0 56.577,-20.936"
         style="fill:none;stroke:#231f20;stroke-width:0.51300001;stroke-linecap:round;stroke-linejoin:miter;stroke-miterlimit:4;stroke-dasharray:none;stroke-opacity:1"
         id="path33492"
         inkscape:connector-curvature="0" /></g><g
       id="g33494"
       transform="translate(101,83.1649)"><path
         d="M 0,0 V 0"
         style="fill:none;stroke:#231f20;stroke-width:1.53999996;stroke-linecap:round;stroke-linejoin:miter;stroke-miterlimit:4;stroke-dasharray:none;stroke-opacity:1"
         id="path33496"
         inkscape:connector-curvature="0" /></g><g
       id="g33498"
       transform="translate(177.5957,20.867)"><path
         d="M 0,0 -46.979,19.484"
         style="fill:none;stroke:#ffffff;stroke-width:3.07999992;stroke-linecap:round;stroke-linejoin:miter;stroke-miterlimit:4;stroke-dasharray:none;stroke-opacity:1"
         id="path33500"
         inkscape:connector-curvature="0" /></g><g
       id="g33502"
       transform="translate(130.617,40.3511)"><path
         d="M 0,0 V 0"
         style="fill:none;stroke:#ffffff;stroke-width:3.8499999;stroke-linecap:round;stroke-linejoin:miter;stroke-miterlimit:4;stroke-dasharray:none;stroke-opacity:1"
         id="path33504"
         inkscape:connector-curvature="0" /></g><g
       id="g33506"
       transform="translate(177.5957,20.867)"><path
         d="M 0,0 -46.979,19.484"
         style="fill:none;stroke:#231f20;stroke-width:0.51300001;stroke-linecap:round;stroke-linejoin:miter;stroke-miterlimit:4;stroke-dasharray:none;stroke-opacity:1"
         id="path33508"
         inkscape:connector-curvature="0" /></g><g
       id="g33510"
       transform="translate(130.617,40.3511)"><path
         d="M 0,0 V 0"
         style="fill:none;stroke:#231f20;stroke-width:1.53999996;stroke-linecap:round;stroke-linejoin:miter;stroke-miterlimit:4;stroke-dasharray:none;stroke-opacity:1"
         id="path33512"
         inkscape:connector-curvature="0" /></g><g
       id="g33514"
       transform="translate(191.6383,150.5003)"><path
         d="M 0,0 -51.404,-18.059"
         style="fill:none;stroke:#ffffff;stroke-width:3.07999992;stroke-linecap:round;stroke-linejoin:miter;stroke-miterlimit:4;stroke-dasharray:none;stroke-opacity:1"
         id="path33516"
         inkscape:connector-curvature="0" /></g><g
       id="g33518"
       transform="translate(140.234,132.4415)"><path
         d="M 0,0 V 0"
         style="fill:none;stroke:#ffffff;stroke-width:3.8499999;stroke-linecap:round;stroke-linejoin:miter;stroke-miterlimit:4;stroke-dasharray:none;stroke-opacity:1"
         id="path33520"
         inkscape:connector-curvature="0" /></g><g
       id="g33522"
       transform="translate(191.6383,150.5003)"><path
         d="M 0,0 -51.404,-18.059"
         style="fill:none;stroke:#231f20;stroke-width:0.51300001;stroke-linecap:round;stroke-linejoin:miter;stroke-miterlimit:4;stroke-dasharray:none;stroke-opacity:1"
         id="path33524"
         inkscape:connector-curvature="0" /></g><g
       id="g33526"
       transform="translate(140.234,132.4415)"><path
         d="M 0,0 V 0"
         style="fill:none;stroke:#231f20;stroke-width:1.53999996;stroke-linecap:round;stroke-linejoin:miter;stroke-miterlimit:4;stroke-dasharray:none;stroke-opacity:1"
         id="path33528"
         inkscape:connector-curvature="0" /></g><g
       id="g33530"
       transform="translate(191.1277,121.419)"><path
         d="M 0,0 -55.79,-30.963"
         style="fill:none;stroke:#ffffff;stroke-width:3.07999992;stroke-linecap:round;stroke-linejoin:miter;stroke-miterlimit:4;stroke-dasharray:none;stroke-opacity:1"
         id="path33532"
         inkscape:connector-curvature="0" /></g><g
       id="g33534"
       transform="translate(135.3377,90.4557)"><path
         d="M 0,0 V 0"
         style="fill:none;stroke:#ffffff;stroke-width:3.8499999;stroke-linecap:round;stroke-linejoin:miter;stroke-miterlimit:4;stroke-dasharray:none;stroke-opacity:1"
         id="path33536"
         inkscape:connector-curvature="0" /></g><g
       id="g33538"
       transform="translate(191.1277,121.419)"><path
         d="M 0,0 -55.79,-30.963"
         style="fill:none;stroke:#231f20;stroke-width:0.51300001;stroke-linecap:round;stroke-linejoin:miter;stroke-miterlimit:4;stroke-dasharray:none;stroke-opacity:1"
         id="path33540"
         inkscape:connector-curvature="0" /></g><g
       id="g33542"
       transform="translate(135.3377,90.4557)"><path
         d="M 0,0 V 0"
         style="fill:none;stroke:#231f20;stroke-width:1.53999996;stroke-linecap:round;stroke-linejoin:miter;stroke-miterlimit:4;stroke-dasharray:none;stroke-opacity:1"
         id="path33544"
         inkscape:connector-curvature="0" /></g><g
       id="g33546"
       transform="translate(191.766,93.633)"><path
         d="M 0,0 -42.07,-15.032"
         style="fill:none;stroke:#ffffff;stroke-width:3.07999992;stroke-linecap:round;stroke-linejoin:miter;stroke-miterlimit:4;stroke-dasharray:none;stroke-opacity:1"
         id="path33548"
         inkscape:connector-curvature="0" /></g><g
       id="g33550"
       transform="translate(149.6964,78.6015)"><path
         d="M 0,0 V 0"
         style="fill:none;stroke:#ffffff;stroke-width:3.8499999;stroke-linecap:round;stroke-linejoin:miter;stroke-miterlimit:4;stroke-dasharray:none;stroke-opacity:1"
         id="path33552"
         inkscape:connector-curvature="0" /></g><g
       id="g33554"
       transform="translate(191.766,93.633)"><path
         d="M 0,0 -42.07,-15.032"
         style="fill:none;stroke:#231f20;stroke-width:0.51300001;stroke-linecap:round;stroke-linejoin:miter;stroke-miterlimit:4;stroke-dasharray:none;stroke-opacity:1"
         id="path33556"
         inkscape:connector-curvature="0" /></g><g
       id="g33558"
       transform="translate(149.6964,78.6015)"><path
         d="M 0,0 V 0"
         style="fill:none;stroke:#231f20;stroke-width:1.53999996;stroke-linecap:round;stroke-linejoin:miter;stroke-miterlimit:4;stroke-dasharray:none;stroke-opacity:1"
         id="path33560"
         inkscape:connector-curvature="0" /></g><text
       transform="matrix(1,0,0,-1,192.2222,149.9766)"
       style="font-variant:normal;font-weight:bold;font-stretch:normal;font-size:10px;font-family:Helvetica;-inkscape-font-specification:Helvetica-Bold;writing-mode:lr-tb;fill:#231f20;fill-opacity:1;fill-rule:nonzero;stroke:none"
       id="text33572"><tspan
         x="0 5.5599999"
         y="0"
         sodipodi:role="line"
         id="tspan33562">1 </tspan><tspan
         x="1.39"
         y="28.559999"
         id="tspan33564">2</tspan><tspan
         x="1.39"
         y="57.119999"
         id="tspan33566">4</tspan><tspan
         x="-11.56 -6"
         y="132.75"
         sodipodi:role="line"
         id="tspan33568">5 </tspan><tspan
         x="-155.60001"
         y="46.970001"
         id="tspan33570">3</tspan></text>
</g></svg>