<?xml version="1.0" encoding="UTF-8" standalone="no"?>
<!-- Created with Inkscape (http://www.inkscape.org/) -->

<svg
   xmlns:dc="http://purl.org/dc/elements/1.1/"
   xmlns:cc="http://creativecommons.org/ns#"
   xmlns:rdf="http://www.w3.org/1999/02/22-rdf-syntax-ns#"
   xmlns:svg="http://www.w3.org/2000/svg"
   xmlns="http://www.w3.org/2000/svg"
   xmlns:sodipodi="http://sodipodi.sourceforge.net/DTD/sodipodi-0.dtd"
   xmlns:inkscape="http://www.inkscape.org/namespaces/inkscape"
   version="1.1"
   id="svg2"
   xml:space="preserve"
   width="321.25391"
   height="246.8138"
   viewBox="0 0 321.25391 246.8138"
   sodipodi:docname="60110192 CON-HSG 2-P F SLD SLOT B COMPACT 90 (TP0344).svg"
   inkscape:version="0.92.4 (5da689c313, 2019-01-14)"><metadata
     id="metadata8"><rdf:RDF><cc:Work
         rdf:about=""><dc:format>image/svg+xml</dc:format><dc:type
           rdf:resource="http://purl.org/dc/dcmitype/StillImage" /><dc:title></dc:title></cc:Work></rdf:RDF></metadata><defs
     id="defs6"><clipPath
       clipPathUnits="userSpaceOnUse"
       id="clipPath40"><path
         d="m 0,-185.11035 c 0,0 240.94043,0 240.94043,0 0,0 0,184.25 0,184.25 0,0 -240.94043,0 -240.94043,0 0,0 0,-184.25 0,-184.25 z"
         id="path38"
         inkscape:connector-curvature="0" /></clipPath><clipPath
       clipPathUnits="userSpaceOnUse"
       id="clipPath64"><path
         d="m 0,-185.11035 c 0,0 240.94043,0 240.94043,0 0,0 0,184.25 0,184.25 0,0 -240.94043,0 -240.94043,0 0,0 0,-184.25 0,-184.25 z"
         id="path62"
         inkscape:connector-curvature="0" /></clipPath></defs><sodipodi:namedview
     pagecolor="#ffffff"
     bordercolor="#666666"
     borderopacity="1"
     objecttolerance="10"
     gridtolerance="10"
     guidetolerance="10"
     inkscape:pageopacity="0"
     inkscape:pageshadow="2"
     inkscape:window-width="695"
     inkscape:window-height="480"
     id="namedview4"
     showgrid="false"
     inkscape:zoom="0.95618642"
     inkscape:cx="31.468038"
     inkscape:cy="123.4069"
     inkscape:window-x="0"
     inkscape:window-y="0"
     inkscape:window-maximized="0"
     inkscape:current-layer="g10" /><g
     id="g10"
     inkscape:groupmode="layer"
     inkscape:label="60110192 CON-HSG 2-P F SLD SLOT B COMPACT 90 (TP0344)"
     transform="matrix(1.3333333,0,0,-1.3333333,0,246.8138)"><g
       id="g12"
       transform="scale(1,-1)"><path
         d="m 92.72314,-116.26367 c 0,0 0,-15.71826 0,-15.71826"
         style="fill:none;stroke:#231f20;stroke-width:0.5;stroke-linecap:round;stroke-linejoin:round;stroke-miterlimit:10;stroke-dasharray:none;stroke-opacity:1"
         id="path14"
         inkscape:connector-curvature="0" /><path
         d="m 148.64063,-116.26367 c 0,0 0,-15.71826 0,-15.71826"
         style="fill:none;stroke:#231f20;stroke-width:0.5;stroke-linecap:round;stroke-linejoin:round;stroke-miterlimit:10;stroke-dasharray:none;stroke-opacity:1"
         id="path16"
         inkscape:connector-curvature="0" /><path
         d="m 110.89795,-88.99902 c 0,0 -5.23584,0 -5.23584,0 0,0 0,-5.23438 0,-5.23438 0,0 5.23584,0 5.23584,0 0,0 0,5.23438 0,5.23438 z"
         style="fill:none;stroke:#231f20;stroke-width:1;stroke-linecap:round;stroke-linejoin:round;stroke-miterlimit:10;stroke-dasharray:none;stroke-opacity:1"
         id="path18"
         inkscape:connector-curvature="0" /><path
         d="m 113.9751,-85.76367 c 0,0 -11.38526,0 -11.38526,0 0,0 0,-11.55567 0,-11.55567 0,0 11.38526,0 11.38526,0 0,0 0,11.55567 0,11.55567 z"
         style="fill:none;stroke:#231f20;stroke-width:0.5;stroke-linecap:round;stroke-linejoin:round;stroke-miterlimit:10;stroke-dasharray:none;stroke-opacity:1"
         id="path20"
         inkscape:connector-curvature="0" /><path
         d="m 89.64063,-114.11035 c 0,0 0,-17.8711 0,-17.8711 0,0 62.08984,0 62.08984,0 0,0 0,17.8711 0,17.8711"
         style="fill:none;stroke:#231f20;stroke-width:0.5;stroke-linecap:round;stroke-linejoin:round;stroke-miterlimit:10;stroke-dasharray:none;stroke-opacity:1"
         id="path22"
         inkscape:connector-curvature="0" /><path
         d="m 144.74609,-88.84668 c 0,0 -5.07714,0 -5.07714,0 0,0 0,-5.23389 0,-5.23389 0,0 5.07714,0 5.07714,0 0,0 0,5.23389 0,5.23389 z"
         style="fill:none;stroke:#231f20;stroke-width:1;stroke-linecap:round;stroke-linejoin:round;stroke-miterlimit:10;stroke-dasharray:none;stroke-opacity:1"
         id="path24"
         inkscape:connector-curvature="0" /><path
         d="m 157.28418,-97.46875 c 0,0 -12.9375,0 -12.9375,0 0,0 0,-6.17188 0,-6.17188 0,0 -0.93652,0 -0.93652,0 0,0 0,-10.61718 0,-10.61718"
         style="fill:none;stroke:#231f20;stroke-width:0.5;stroke-linecap:round;stroke-linejoin:round;stroke-miterlimit:10;stroke-dasharray:none;stroke-opacity:1"
         id="path26"
         inkscape:connector-curvature="0" /><path
         d="m 147.98828,-85.61035 c 0,0 -11.55664,0 -11.55664,0 0,0 0,-11.55615 0,-11.55615 0,0 11.55664,0 11.55664,0 0,0 0,11.55615 0,11.55615 z"
         style="fill:none;stroke:#231f20;stroke-width:0.5;stroke-linecap:round;stroke-linejoin:round;stroke-miterlimit:10;stroke-dasharray:none;stroke-opacity:1"
         id="path28"
         inkscape:connector-curvature="0" /><path
         d="m 144.3457,-99.62207 c 0,0 -42.83838,0 -42.83838,0 0,0 0,17.41016 0,17.41016 0,0 42.83838,0 42.83838,0 0,0 0,-3.38575 0,-3.38575 0,0 12.93848,0 12.93848,0"
         style="fill:none;stroke:#231f20;stroke-width:0.5;stroke-linecap:round;stroke-linejoin:round;stroke-miterlimit:10;stroke-dasharray:none;stroke-opacity:1"
         id="path30"
         inkscape:connector-curvature="0" /><path
         d="m 144.3457,-82.21191 c 0,0 0,2.61718 0,2.61718 0,0 -0.93554,0 -0.93554,0 0,0 0,10.62305 0,10.62305"
         style="fill:none;stroke:#231f20;stroke-width:0.5;stroke-linecap:round;stroke-linejoin:round;stroke-miterlimit:10;stroke-dasharray:none;stroke-opacity:1"
         id="path32"
         inkscape:connector-curvature="0" /><g
         id="g34"><g
           id="g36"
           clip-path="url(#clipPath40)"><path
             d="m 144.02832,-50.85742 c 0,0 0,1.68359 0,1.68359 0,2.46778 -2.05762,3.01563 -2.4707,3.0918 -14.08399,2.59668 -28.00635,2.71484 -41.74414,0 -0.35596,-0.07031 -2.30713,-0.72754 -2.30713,-3.0918 0,0 0,-1.68359 0,-1.68359"
             style="fill:none;stroke:#231f20;stroke-width:1;stroke-linecap:round;stroke-linejoin:round;stroke-miterlimit:10;stroke-dasharray:none;stroke-opacity:1"
             id="path42"
             inkscape:connector-curvature="0" /></g></g><g
         id="g44"
         transform="scale(1,-1)"><text
           transform="matrix(1,0,0,-1,131.625,87.04395)"
           style="font-variant:normal;font-weight:bold;font-size:12px;font-family:Arial;-inkscape-font-specification:Arial-BoldMT;writing-mode:lr-tb;fill:#ffffff;fill-opacity:1;fill-rule:nonzero;stroke:none"
           id="text48"><tspan
             x="0"
             y="0"
             id="tspan46">1</tspan></text>
<text
           transform="matrix(1,0,0,-1,128.93066,87.04395)"
           style="font-variant:normal;font-weight:bold;font-size:12px;font-family:Arial;-inkscape-font-specification:Arial-BoldMT;writing-mode:lr-tb;fill:#231f20;fill-opacity:1;fill-rule:nonzero;stroke:none"
           id="text52"><tspan
             x="0"
             y="0"
             id="tspan50">1</tspan></text>
<text
           transform="matrix(1,0,0,-1,92.13574,87.08008)"
           style="font-variant:normal;font-weight:bold;font-size:12px;font-family:Arial;-inkscape-font-specification:Arial-BoldMT;writing-mode:lr-tb;fill:#231f20;fill-opacity:1;fill-rule:nonzero;stroke:none"
           id="text56"><tspan
             x="0"
             y="0"
             id="tspan54">2</tspan></text>
<g
           id="g58"
           transform="scale(1,-1)"><g
             id="g60"
             clip-path="url(#clipPath64)"><path
               d="m 120.60498,-120.82422 c 0,0 12.73584,0 12.73584,0 15.97949,0.2002 28.87109,13.21631 28.87109,29.24219 0,16.02734 -12.8916,29.04199 -28.87109,29.24219 0,0 0,0.002 0,0.002 0,0 -12.44482,0 -12.44482,0 0,0 -0.1709,0 -0.1709,0 0,0 -12.44531,0 -12.44531,0 0,0 0,-0.002 0,-0.002 -15.97999,-0.2002 -28.87159,-13.21485 -28.87159,-29.24219 0,-16.02588 12.8916,-29.04199 28.87061,-29.24219 0,0 9.8e-4,0 9.8e-4,0 0,0 12.73486,0 12.73486,0 0,0 -0.40967,0 -0.40967,0 z"
               style="fill:none;stroke:#231f20;stroke-width:1;stroke-linecap:round;stroke-linejoin:round;stroke-miterlimit:10;stroke-dasharray:none;stroke-opacity:1"
               id="path66"
               inkscape:connector-curvature="0" /><path
               d="m 120.896,-116.49609 c 0,0 12.77295,0.0478 12.77295,0.0478 13.58789,0.16992 24.5498,11.23828 24.5498,24.86621 0,13.6289 -10.96289,24.69726 -24.55078,24.86719 0,0 -12.78613,0.0049 -12.78613,0.0049 0,0 -0.14307,0 -0.14307,0 0,0 -12.78613,-0.0049 -12.78613,-0.0049 -13.58789,-0.16993 -24.55078,-11.23829 -24.55078,-24.86719 0,-13.62793 10.96191,-24.69629 24.5498,-24.86621 0,0 12.77295,-0.0478 12.77295,-0.0478 0,0 0.17139,0 0.17139,0 z"
               style="fill:none;stroke:#231f20;stroke-width:0.5;stroke-linecap:round;stroke-linejoin:round;stroke-miterlimit:10;stroke-dasharray:none;stroke-opacity:1"
               id="path68"
               inkscape:connector-curvature="0" /><path
               d="m 133.75098,-49.67383 c 23.05957,0 41.75097,-18.69336 41.75097,-41.75097 0,-13.21436 -6.13769,-24.99463 -15.71875,-32.64551 0,0 0.006,-0.006 0.006,-0.006 0,0 0,-8.82324 0,-8.82324 0,-6.3628 -6.44336,-6.47168 -6.77832,-6.47168 0,0 -0.61719,0 -0.61719,0 0,0 -29.90039,0 -29.90039,0 0,0 -2.95312,0 -2.95312,0 0,0 -29.8999,0 -29.8999,0 0,0 -0.6167,0 -0.6167,0 -0.33643,0 -6.77832,0.10888 -6.77832,6.47168 0,0 0,8.82324 0,8.82324 0,0 0.0049,0.006 0.0049,0.006 -9.58105,7.65088 -15.71875,19.43115 -15.71875,32.64551 0,23.05761 18.69287,41.75097 41.75098,41.75097 0,0 25.46875,0 25.46875,0 z"
               style="fill:none;stroke:#231f20;stroke-width:1;stroke-linecap:round;stroke-linejoin:round;stroke-miterlimit:10;stroke-dasharray:none;stroke-opacity:1"
               id="path70"
               inkscape:connector-curvature="0" /></g></g><g
           id="g72"
           transform="scale(1,-1)"><path
             d="m 23.41699,-0.86035 c 0,0 -23.25,0 -23.25,0 0,0 -0.16699,-6.83301 -0.16699,-6.83301 0,0 23.25,0 23.25,0 0,0 0.16699,6.83301 0.16699,6.83301 z"
             style="fill:#ffffff;fill-opacity:1;fill-rule:nonzero;stroke:none"
             id="path74"
             inkscape:connector-curvature="0" /><g
             id="g76"
             transform="scale(1,-1)"><text
               transform="matrix(1,0,0,-1,1.26318,1.94824)"
               style="font-variant:normal;font-weight:normal;font-size:6px;font-family:Arial;-inkscape-font-specification:ArialMT;writing-mode:lr-tb;fill:#231f20;fill-opacity:1;fill-rule:nonzero;stroke:none"
               id="text80"><tspan
                 x="0 3.6659999 7.6680002 11.004 14.34 17.676001"
                 y="0"
                 sodipodi:role="line"
                 id="tspan78">TP0344</tspan></text>
</g></g></g></g></g></svg>