<?xml version="1.0" encoding="UTF-8" standalone="no"?>
<!-- Created with Inkscape (http://www.inkscape.org/) -->

<svg
   xmlns:dc="http://purl.org/dc/elements/1.1/"
   xmlns:cc="http://creativecommons.org/ns#"
   xmlns:rdf="http://www.w3.org/1999/02/22-rdf-syntax-ns#"
   xmlns:svg="http://www.w3.org/2000/svg"
   xmlns="http://www.w3.org/2000/svg"
   xmlns:sodipodi="http://sodipodi.sourceforge.net/DTD/sodipodi-0.dtd"
   xmlns:inkscape="http://www.inkscape.org/namespaces/inkscape"
   version="1.1"
   id="svg2"
   xml:space="preserve"
   width="321.25391"
   height="246.8138"
   viewBox="0 0 321.25391 246.8138"
   sodipodi:docname="GL402218 CONNECTOR 2-P M NAT SLD-FIT PROV (TP0337).svg"
   inkscape:version="0.92.4 (5da689c313, 2019-01-14)"><metadata
     id="metadata8"><rdf:RDF><cc:Work
         rdf:about=""><dc:format>image/svg+xml</dc:format><dc:type
           rdf:resource="http://purl.org/dc/dcmitype/StillImage" /><dc:title></dc:title></cc:Work></rdf:RDF></metadata><defs
     id="defs6"><clipPath
       clipPathUnits="userSpaceOnUse"
       id="clipPath18"><path
         d="m 0,-185.11035 c 0,0 240.94043,0 240.94043,0 0,0 0,184.25 0,184.25 0,0 -240.94043,0 -240.94043,0 0,0 0,-184.25 0,-184.25 z"
         id="path16"
         inkscape:connector-curvature="0" /></clipPath></defs><sodipodi:namedview
     pagecolor="#ffffff"
     bordercolor="#666666"
     borderopacity="1"
     objecttolerance="10"
     gridtolerance="10"
     guidetolerance="10"
     inkscape:pageopacity="0"
     inkscape:pageshadow="2"
     inkscape:window-width="696"
     inkscape:window-height="480"
     id="namedview4"
     showgrid="false"
     inkscape:zoom="0.95618642"
     inkscape:cx="31.468038"
     inkscape:cy="123.4069"
     inkscape:window-x="0"
     inkscape:window-y="0"
     inkscape:window-maximized="0"
     inkscape:current-layer="g10" /><g
     id="g10"
     inkscape:groupmode="layer"
     inkscape:label="GL402218 CONNECTOR 2-P M NAT SLD-FIT PROV (TP0337)"
     transform="matrix(1.3333333,0,0,-1.3333333,0,246.8138)"><g
       id="g12"
       transform="scale(1,-1)"><g
         id="g14"
         clip-path="url(#clipPath18)"><path
           d="m 77.84912,-120.39209 c -0.58398,1.26221 -1.07226,2.5791 -1.45508,3.93896 0,0 -1.76416,0 -1.76416,0 -2.57275,0 -4.73584,2.31104 -4.73584,4.56202 0,0 0,5.20996 0,5.20996 0,4.95312 5.16211,5.16211 5.16211,5.16211 0,0 1.48389,0 1.48389,0 0.37695,1.24902 0.83984,2.44433 1.38818,3.60693"
           style="fill:none;stroke:#231f20;stroke-width:0.49899;stroke-linecap:round;stroke-linejoin:round;stroke-miterlimit:10;stroke-dasharray:none;stroke-opacity:1"
           id="path20"
           inkscape:connector-curvature="0" /><path
           d="m 124.73828,-133.76514 c 0,0 0,-9.58496 0,-9.58496 0,0 -15.95459,0 -15.95459,0 0,0 0,9.71387 0,9.71387"
           style="fill:none;stroke:#231f20;stroke-width:0.5;stroke-linecap:round;stroke-linejoin:round;stroke-miterlimit:10;stroke-dasharray:none;stroke-opacity:1"
           id="path22"
           inkscape:connector-curvature="0" /><path
           d="m 108.7832,-135.9126 c 0,0 15.85547,0 15.85547,0"
           style="fill:none;stroke:#231f20;stroke-width:0.5;stroke-linecap:round;stroke-linejoin:round;stroke-miterlimit:10;stroke-dasharray:none;stroke-opacity:1"
           id="path24"
           inkscape:connector-curvature="0" /><path
           d="m 131.39258,-87.95605 c 11.80566,0 21.37695,-9.57129 21.37695,-21.37745 0,-11.80566 -9.57129,-21.37695 -21.37695,-21.37695 0,0 -29.39844,0 -29.39844,0 -11.80566,0 -21.37695,9.57129 -21.37695,21.37695 0,11.80616 9.57129,21.37745 21.37695,21.37745 0,0 29.39844,0 29.39844,0 z"
           style="fill:none;stroke:#231f20;stroke-width:0.5;stroke-linecap:round;stroke-linejoin:round;stroke-miterlimit:10;stroke-dasharray:none;stroke-opacity:1"
           id="path26"
           inkscape:connector-curvature="0" /><path
           d="m 76.25879,-111.26855 c 0,0 0,4.09814 0,4.09814"
           style="fill:none;stroke:#231f20;stroke-width:0.5;stroke-linecap:round;stroke-linejoin:round;stroke-miterlimit:10;stroke-dasharray:none;stroke-opacity:1"
           id="path28"
           inkscape:connector-curvature="0" /><path
           d="m 156.17285,-120.3999 c -4.21875,-9.10938 -13.44238,-15.42823 -24.14062,-15.42823 0,0 -5.02637,0 -5.02637,0 0,0 9.8e-4,-6.38183 9.8e-4,-6.38183 0,0 0.29296,-3.42822 -3.65625,-3.42822 0,0 -13.75782,0 -13.75782,0 0,0 -3.06054,0.0112 -3.06054,3.29394 0,0 0,6.51611 0,6.51611 0,0 -4.53809,0 -4.53809,0 -10.70215,0 -19.92725,6.32325 -24.14502,15.43604 0,0 -1.30615,2.17383 -4.04492,2.17383 -1.91016,0 -5.84717,2.11035 -5.84717,5.84717 0,0 0,7.04004 0,7.04004 0,3.08984 3.32276,5.71923 5.84717,5.71923 3.16797,0 4.12402,1.70069 4.12402,1.70069 4.25293,9.02246 13.42969,15.26562 24.06592,15.26562 0,0 30.03809,0 30.03809,0 10.63183,0 19.80761,-6.24023 24.06152,-15.2583"
           style="fill:none;stroke:#231f20;stroke-width:1;stroke-linecap:round;stroke-linejoin:round;stroke-miterlimit:10;stroke-dasharray:none;stroke-opacity:1"
           id="path30"
           inkscape:connector-curvature="0" /><path
           d="m 157.46582,-101.51904 c 0,0 0,0 0,0 -0.37695,1.24902 -0.83887,2.44433 -1.38769,3.60742"
           style="fill:none;stroke:#231f20;stroke-width:0.49899;stroke-linecap:round;stroke-linejoin:round;stroke-miterlimit:10;stroke-dasharray:none;stroke-opacity:1"
           id="path32"
           inkscape:connector-curvature="0" /><path
           d="m 157.6123,-116.45313 c 0,0 1.76368,0 1.76368,0 2.57324,0 4.73632,2.31104 4.73632,4.56202 0,0 0,5.20996 0,5.20996 0,4.95312 -5.1621,5.16211 -5.1621,5.16211 0,0 -1.4834,0 -1.4834,0"
           style="fill:none;stroke:#231f20;stroke-width:0.49899;stroke-linecap:round;stroke-linejoin:round;stroke-miterlimit:10;stroke-dasharray:none;stroke-opacity:1"
           id="path34"
           inkscape:connector-curvature="0" /><path
           d="m 156.15723,-120.39209 c 0.58398,1.26221 1.07226,2.5791 1.45507,3.93896"
           style="fill:none;stroke:#231f20;stroke-width:0.49899;stroke-linecap:round;stroke-linejoin:round;stroke-miterlimit:10;stroke-dasharray:none;stroke-opacity:1"
           id="path36"
           inkscape:connector-curvature="0" /><path
           d="m 155.31934,-103.93115 c 0,0 3.22558,0 3.22558,0 0,0 3.39356,-0.20899 3.39356,-3.39307 0,0 0,-3.84277 0,-3.84277 0,0 0.0186,-3.16406 -3.16407,-3.16406 0,0 -3.39941,0 -3.39941,0 -2.33398,-11.0293 -12.125,-19.30518 -23.84863,-19.30518 0,0 -29.46826,0 -29.46826,0 -11.72413,0 -21.51514,8.27588 -23.84815,19.30518 0,0 -2.97754,0 -2.97754,0 -3.1831,0 -3.16406,3.16406 -3.16406,3.16406 0,0 0,3.84277 0,3.84277 0,3.18408 3.39307,3.39307 3.39307,3.39307 0,0 2.84082,0 2.84082,0 2.48584,10.82617 12.17675,19.04931 23.75586,19.04931 0,0 29.46826,0 29.46826,0 11.63281,0 21.3623,-8.14843 23.79297,-19.04834 0,0 0,-9.7e-4 0,-9.7e-4 z"
           style="fill:none;stroke:#231f20;stroke-width:0.5;stroke-linecap:round;stroke-linejoin:round;stroke-miterlimit:10;stroke-dasharray:none;stroke-opacity:1"
           id="path38"
           inkscape:connector-curvature="0" /><path
           d="m 156.15723,-120.39209 c 0,0 1.30566,2.17432 4.04492,2.17432 1.91015,0 5.84668,2.10986 5.84668,5.84668 0,0 0,7.04004 0,7.04004 0,3.08886 -3.32227,5.71923 -5.84668,5.71923 -3.16797,0 -4.12402,1.69971 -4.12402,1.69971"
           style="fill:none;stroke:#231f20;stroke-width:1;stroke-linecap:round;stroke-linejoin:round;stroke-miterlimit:10;stroke-dasharray:none;stroke-opacity:1"
           id="path40"
           inkscape:connector-curvature="0" /><path
           d="m 157.66895,-111.47168 c 0,0 0,4.07813 0,4.07813"
           style="fill:none;stroke:#231f20;stroke-width:0.5;stroke-linecap:round;stroke-linejoin:round;stroke-miterlimit:10;stroke-dasharray:none;stroke-opacity:1"
           id="path42"
           inkscape:connector-curvature="0" /><path
           d="m 100.60693,-82.64551 c 0,0 0,4.52149 0,4.52149"
           style="fill:none;stroke:#231f20;stroke-width:1;stroke-linecap:round;stroke-linejoin:round;stroke-miterlimit:10;stroke-dasharray:none;stroke-opacity:1"
           id="path44"
           inkscape:connector-curvature="0" /><path
           d="m 133.5127,-82.64551 c 0,0 0,4.52149 0,4.52149"
           style="fill:none;stroke:#231f20;stroke-width:1;stroke-linecap:round;stroke-linejoin:round;stroke-miterlimit:10;stroke-dasharray:none;stroke-opacity:1"
           id="path46"
           inkscape:connector-curvature="0" /><path
           d="m 117.42627,-67.69922 c 0,0 11.99658,0 11.99658,0 6.72266,-2.83301 9.96192,-0.88574 13.31641,0.41504 3.35351,1.30273 4.68359,1.83984 6.53125,2.24609 1.84668,0.40625 6.35156,1.23438 6.35156,1.23438 0,0 -13.66309,-16.98535 -38.46094,-16.98535 0,0 -0.20312,0 -0.20312,0 -24.79785,0 -38.46094,16.98535 -38.46094,16.98535 0,0 4.50488,-0.82813 6.35205,-1.23438 1.84717,-0.40625 3.17822,-0.94336 6.53125,-2.24609 3.35401,-1.30078 6.59375,-3.24805 13.31592,-0.41504 0,0 11.99707,0 11.99707,0 0,0 0.73291,0 0.73291,0 z"
           style="fill:none;stroke:#231f20;stroke-width:1;stroke-linecap:round;stroke-linejoin:round;stroke-miterlimit:10;stroke-dasharray:none;stroke-opacity:1"
           id="path48"
           inkscape:connector-curvature="0" /><path
           d="m 121.23926,-67.69922 c 0,0 0,9.61426 0,9.61426 0,0 16.52929,0 16.52929,0 0,0 -13.04394,15.96875 -14.07128,16.98047 -1.02832,1.01172 -2.20508,1.4375 -3.17237,1.4375 0,0 -3.09912,0 -3.09912,0 0,0 -0.73291,0 -0.73291,0 0,0 -3.09814,0 -3.09814,0 -0.9668,0 -2.14405,-0.42578 -3.17188,-1.4375 -1.02783,-1.01172 -14.07275,-16.98047 -14.07275,-16.98047 0,0 16.53076,0 16.53076,0 0,0 0,-9.61426 0,-9.61426"
           style="fill:none;stroke:#231f20;stroke-width:1;stroke-linecap:round;stroke-linejoin:round;stroke-miterlimit:10;stroke-dasharray:none;stroke-opacity:1"
           id="path50"
           inkscape:connector-curvature="0" /><path
           d="m 110.00879,-103.30029 c 0,0 -10.22998,0 -10.22998,0 0,0 0,-12.06592 0,-12.06592 0,0 10.22998,0 10.22998,0 0,0 0,12.06592 0,12.06592 z"
           style="fill:none;stroke:#231f20;stroke-width:1;stroke-linecap:round;stroke-linejoin:round;stroke-miterlimit:10;stroke-dasharray:none;stroke-opacity:1"
           id="path52"
           inkscape:connector-curvature="0" /><path
           d="m 120.24023,-103.30029 c 0,0 -6.34033,0 -6.34033,0 0,0 0,-12.06592 0,-12.06592 0,0 6.34033,0 6.34033,0 0,0 0,12.06592 0,12.06592 z"
           style="fill:none;stroke:#231f20;stroke-width:1;stroke-linecap:round;stroke-linejoin:round;stroke-miterlimit:10;stroke-dasharray:none;stroke-opacity:1"
           id="path54"
           inkscape:connector-curvature="0" /><path
           d="m 134.35645,-103.30029 c 0,0 -10.23047,0 -10.23047,0 0,0 0,-12.06592 0,-12.06592 0,0 10.23047,0 10.23047,0 0,0 0,12.06592 0,12.06592 z"
           style="fill:none;stroke:#231f20;stroke-width:1;stroke-linecap:round;stroke-linejoin:round;stroke-miterlimit:10;stroke-dasharray:none;stroke-opacity:1"
           id="path56"
           inkscape:connector-curvature="0" /></g></g><text
       transform="matrix(1,0,0,-1,101.55713,117.61182)"
       style="font-variant:normal;font-weight:bold;font-size:12px;font-family:Arial;-inkscape-font-specification:Arial-BoldMT;writing-mode:lr-tb;fill:#231f20;fill-opacity:1;fill-rule:nonzero;stroke:none"
       id="text60"><tspan
         x="0"
         y="0"
         id="tspan58">1</tspan></text>
<text
       transform="matrix(1,0,0,-1,125.89355,117.61182)"
       style="font-variant:normal;font-weight:bold;font-size:12px;font-family:Arial;-inkscape-font-specification:Arial-BoldMT;writing-mode:lr-tb;fill:#231f20;fill-opacity:1;fill-rule:nonzero;stroke:none"
       id="text64"><tspan
         x="0"
         y="0"
         id="tspan62">2</tspan></text>
<g
       id="g66"
       transform="scale(1,-1)"><path
         d="m 23.41699,-0.86035 c 0,0 -23.25,0 -23.25,0 0,0 -0.16699,-6.83301 -0.16699,-6.83301 0,0 23.25,0 23.25,0 0,0 0.16699,6.83301 0.16699,6.83301 z"
         style="fill:#ffffff;fill-opacity:1;fill-rule:nonzero;stroke:none"
         id="path68"
         inkscape:connector-curvature="0" /><g
         id="g70"
         transform="scale(1,-1)"><text
           transform="matrix(1,0,0,-1,1.26318,1.94824)"
           style="font-variant:normal;font-weight:normal;font-size:6px;font-family:Arial;-inkscape-font-specification:ArialMT;writing-mode:lr-tb;fill:#231f20;fill-opacity:1;fill-rule:nonzero;stroke:none"
           id="text74"><tspan
             x="0 3.6659999 7.6680002 11.004 14.34 17.676001"
             y="0"
             sodipodi:role="line"
             id="tspan72">TP0337</tspan></text>
</g></g></g></svg>