<?xml version="1.0" encoding="UTF-8" standalone="no"?>
<!-- Created with Inkscape (http://www.inkscape.org/) -->

<svg
   xmlns:dc="http://purl.org/dc/elements/1.1/"
   xmlns:cc="http://creativecommons.org/ns#"
   xmlns:rdf="http://www.w3.org/1999/02/22-rdf-syntax-ns#"
   xmlns:svg="http://www.w3.org/2000/svg"
   xmlns="http://www.w3.org/2000/svg"
   xmlns:sodipodi="http://sodipodi.sourceforge.net/DTD/sodipodi-0.dtd"
   xmlns:inkscape="http://www.inkscape.org/namespaces/inkscape"
   version="1.1"
   id="svg2"
   xml:space="preserve"
   width="321.25333"
   height="248.26562"
   viewBox="0 0 321.25333 248.26562"
   sodipodi:docname="60110179 CON-HSG 2-P F NSLD PLANE NAT 350 (TP0365).svg"
   inkscape:version="0.92.4 (5da689c313, 2019-01-14)"><metadata
     id="metadata8"><rdf:RDF><cc:Work
         rdf:about=""><dc:format>image/svg+xml</dc:format><dc:type
           rdf:resource="http://purl.org/dc/dcmitype/StillImage" /><dc:title></dc:title></cc:Work></rdf:RDF></metadata><defs
     id="defs6" /><sodipodi:namedview
     pagecolor="#ffffff"
     bordercolor="#666666"
     borderopacity="1"
     objecttolerance="10"
     gridtolerance="10"
     guidetolerance="10"
     inkscape:pageopacity="0"
     inkscape:pageshadow="2"
     inkscape:window-width="690"
     inkscape:window-height="480"
     id="namedview4"
     showgrid="false"
     inkscape:zoom="0.95059475"
     inkscape:cx="30.707999"
     inkscape:cy="124.13281"
     inkscape:window-x="0"
     inkscape:window-y="0"
     inkscape:window-maximized="0"
     inkscape:current-layer="g10" /><g
     id="g10"
     inkscape:groupmode="layer"
     inkscape:label="60110179 CON-HSG 2-P F NSLD PLANE NAT 350 (TP0365)"
     transform="matrix(1.3333333,0,0,-1.3333333,0,248.26563)"><g
       id="g12"
       transform="scale(1,-1)"><path
         d="m 150.47754,-114.22461 c 0,0 -26.90918,0 -26.90918,0 0,0 0,19.83691 0,19.83691 0,0 3.26953,0 3.26953,0 0,0 0,13.29297 0,13.29297 0,0 -3.26953,0 -3.26953,0 0,0 0,22.76758 0,22.76758 0,0 26.90918,0 26.90918,0 0,0 0,8.62988 0,8.62988 0,0 11.06641,0 11.06641,0 0,0 0,-8.62988 0,-8.62988 0,0 7.74316,0 7.74316,0 0,0 0,-55.89746 0,-55.89746 0,0 -7.74316,0 -7.74316,0 0,0 0,-12.7793 0,-12.7793 0,0 -11.06641,0 -11.06641,0 0,0 0,12.7793 0,12.7793 z"
         style="fill:none;stroke:#231f20;stroke-width:1;stroke-linecap:round;stroke-linejoin:round;stroke-miterlimit:10;stroke-dasharray:none;stroke-opacity:1"
         id="path14"
         inkscape:connector-curvature="0" /><path
         d="m 78.3501,-114.22461 c 0,0 0,-12.7793 0,-12.7793 0,0 11.03906,0 11.03906,0 0,0 0,12.7793 0,12.7793 0,0 26.94189,0 26.94189,0 0,0 0,19.83691 0,19.83691 0,0 -3.29394,0 -3.29394,0 0,0 0,13.29297 0,13.29297 0,0 3.29394,0 3.29394,0 0,0 0,22.76758 0,22.76758 0,0 -26.94189,0 -26.94189,0 0,0 0,8.62988 0,8.62988 0,0 -11.03906,0 -11.03906,0 0,0 0,-8.62988 0,-8.62988 0,0 -7.771,0 -7.771,0 0,0 0,-55.89746 0,-55.89746 0,0 7.771,0 7.771,0 z"
         style="fill:none;stroke:#231f20;stroke-width:1;stroke-linecap:round;stroke-linejoin:round;stroke-miterlimit:10;stroke-dasharray:none;stroke-opacity:1"
         id="path16"
         inkscape:connector-curvature="0" /><path
         d="m 89.38916,-123.90674 c 0,0 -11.03906,0 -11.03906,0"
         style="fill:none;stroke:#231f20;stroke-width:0.5;stroke-linecap:round;stroke-linejoin:round;stroke-miterlimit:10;stroke-dasharray:none;stroke-opacity:1"
         id="path18"
         inkscape:connector-curvature="0" /><path
         d="m 161.54395,-123.90674 c 0,0 -11.06641,0 -11.06641,0"
         style="fill:none;stroke:#231f20;stroke-width:0.5;stroke-linecap:round;stroke-linejoin:round;stroke-miterlimit:10;stroke-dasharray:none;stroke-opacity:1"
         id="path20"
         inkscape:connector-curvature="0" /><path
         d="m 75.41113,-114.22461 c 0,0 0,55.89746 0,55.89746"
         style="fill:none;stroke:#231f20;stroke-width:0.5;stroke-linecap:round;stroke-linejoin:round;stroke-miterlimit:10;stroke-dasharray:none;stroke-opacity:1"
         id="path22"
         inkscape:connector-curvature="0" /><path
         d="m 128.39941,-114.22461 c 0,0 0,55.89746 0,55.89746"
         style="fill:none;stroke:#231f20;stroke-width:0.5;stroke-linecap:round;stroke-linejoin:round;stroke-miterlimit:10;stroke-dasharray:none;stroke-opacity:1"
         id="path24"
         inkscape:connector-curvature="0" /><path
         d="m 111.48828,-58.32715 c 0,0 0,-55.89746 0,-55.89746"
         style="fill:none;stroke:#231f20;stroke-width:0.5;stroke-linecap:round;stroke-linejoin:round;stroke-miterlimit:10;stroke-dasharray:none;stroke-opacity:1"
         id="path26"
         inkscape:connector-curvature="0" /><path
         d="m 164.46973,-58.32715 c 0,0 0,-55.89746 0,-55.89746"
         style="fill:none;stroke:#231f20;stroke-width:0.5;stroke-linecap:round;stroke-linejoin:round;stroke-miterlimit:10;stroke-dasharray:none;stroke-opacity:1"
         id="path28"
         inkscape:connector-curvature="0" /><path
         d="m 78.34668,-52.7002 c 0,0 11.03906,0 11.03906,0"
         style="fill:none;stroke:#231f20;stroke-width:0.5;stroke-linecap:round;stroke-linejoin:round;stroke-miterlimit:10;stroke-dasharray:none;stroke-opacity:1"
         id="path30"
         inkscape:connector-curvature="0" /><path
         d="m 150.4043,-52.7002 c 0,0 11.0664,0 11.0664,0"
         style="fill:none;stroke:#231f20;stroke-width:0.5;stroke-linecap:round;stroke-linejoin:round;stroke-miterlimit:10;stroke-dasharray:none;stroke-opacity:1"
         id="path32"
         inkscape:connector-curvature="0" /><path
         d="m 103.88232,-132.53027 c 0,0 0,-23.98584 0,-23.98584 0,0 34.021,0 34.021,0 0,0 0,23.98584 0,23.98584"
         style="fill:none;stroke:#231f20;stroke-width:1;stroke-linecap:round;stroke-linejoin:round;stroke-miterlimit:10;stroke-dasharray:none;stroke-opacity:1"
         id="path34"
         inkscape:connector-curvature="0" /><path
         d="m 114.58496,-43.31055 c 0,0 -39.17383,0 -39.17383,0 0,0 0,12.77246 0,12.77246 0,0 -23.46289,0 -23.46289,0 0,0 0,-21.23828 0,-21.23828 0,0 14.83496,0 14.83496,0 0,0 0,-72.12988 0,-72.12988 0,0 -14.83496,0 -14.83496,0 0,0 0,-21.40283 0,-21.40283 0,0 23.46289,0 23.46289,0 0,0 0,12.77881 0,12.77881 0,0 89.05762,0 89.05762,0 0,0 0,-12.77881 0,-12.77881 0,0 23.4707,0 23.4707,0 0,0 0,21.40283 0,21.40283 0,0 -14.84277,0 -14.84277,0 0,0 0,72.12988 0,72.12988 0,0 14.84277,0 14.84277,0 0,0 0,21.23828 0,21.23828 0,0 -23.4707,0 -23.4707,0 0,0 0,-12.77246 0,-12.77246 0,0 -49.88379,0 -49.88379,0"
         style="fill:none;stroke:#231f20;stroke-width:1;stroke-linecap:round;stroke-linejoin:round;stroke-miterlimit:10;stroke-dasharray:none;stroke-opacity:1"
         id="path36"
         inkscape:connector-curvature="0" /><g
         id="g38"
         transform="scale(1,-1)"><text
           transform="matrix(1,0,0,-1,140.31641,79.8418)"
           style="font-variant:normal;font-weight:bold;font-size:22px;font-family:Arial;-inkscape-font-specification:Arial-BoldMT;writing-mode:lr-tb;fill:#050606;fill-opacity:1;fill-rule:nonzero;stroke:none"
           id="text42"><tspan
             x="0"
             y="0"
             id="tspan40">1</tspan></text>
<text
           transform="matrix(1,0,0,-1,86.21826,79.8418)"
           style="font-variant:normal;font-weight:bold;font-size:22px;font-family:Arial;-inkscape-font-specification:Arial-BoldMT;writing-mode:lr-tb;fill:#050606;fill-opacity:1;fill-rule:nonzero;stroke:none"
           id="text46"><tspan
             x="0"
             y="0"
             id="tspan44">2</tspan></text>
<g
           id="g48"
           transform="scale(1,-1)"><path
             d="m 114.71045,-43.31055 c 0,0 0,-5.5459 0,-5.5459 0,0 12.76221,0 12.76221,0 0,0 0,5.5459 0,5.5459"
             style="fill:none;stroke:#231f20;stroke-width:0.5;stroke-linecap:round;stroke-linejoin:round;stroke-miterlimit:10;stroke-dasharray:none;stroke-opacity:1"
             id="path50"
             inkscape:connector-curvature="0" /><g
             id="g52"
             transform="scale(1,-1)"><text
               transform="matrix(1,0,0,-1,1,1.94873)"
               style="font-variant:normal;font-weight:normal;font-size:6px;font-family:Arial;-inkscape-font-specification:ArialMT;writing-mode:lr-tb;fill:#231f20;fill-opacity:1;fill-rule:nonzero;stroke:none"
               id="text56"><tspan
                 x="0 3.6659999 7.6680002 11.004 14.34 17.676001"
                 y="0"
                 sodipodi:role="line"
                 id="tspan54">TP0365</tspan></text>
</g></g></g></g></g></svg>