<?xml version="1.0" encoding="UTF-8" standalone="no"?>
<!-- Created with Inkscape (http://www.inkscape.org/) -->

<svg
   xmlns:dc="http://purl.org/dc/elements/1.1/"
   xmlns:cc="http://creativecommons.org/ns#"
   xmlns:rdf="http://www.w3.org/1999/02/22-rdf-syntax-ns#"
   xmlns:svg="http://www.w3.org/2000/svg"
   xmlns="http://www.w3.org/2000/svg"
   xmlns:sodipodi="http://sodipodi.sourceforge.net/DTD/sodipodi-0.dtd"
   xmlns:inkscape="http://www.inkscape.org/namespaces/inkscape"
   version="1.1"
   id="svg2"
   xml:space="preserve"
   width="321.25391"
   height="246.93098"
   viewBox="0 0 321.25391 246.93098"
   sodipodi:docname="TA402237 CONNECTOR 3-P M SLD NAT 90 SRS (TP0361).svg"
   inkscape:version="0.92.4 (5da689c313, 2019-01-14)"><metadata
     id="metadata8"><rdf:RDF><cc:Work
         rdf:about=""><dc:format>image/svg+xml</dc:format><dc:type
           rdf:resource="http://purl.org/dc/dcmitype/StillImage" /><dc:title></dc:title></cc:Work></rdf:RDF></metadata><defs
     id="defs6"><clipPath
       clipPathUnits="userSpaceOnUse"
       id="clipPath22"><path
         d="m 0,-185.19824 c 0,0 240.94043,0 240.94043,0 0,0 0,184.25 0,184.25 0,0 -240.94043,0 -240.94043,0 0,0 0,-184.25 0,-184.25 z"
         id="path20"
         inkscape:connector-curvature="0" /></clipPath><clipPath
       clipPathUnits="userSpaceOnUse"
       id="clipPath80"><path
         d="m 0,-185.19824 c 0,0 240.94043,0 240.94043,0 0,0 0,184.25 0,184.25 0,0 -240.94043,0 -240.94043,0 0,0 0,-184.25 0,-184.25 z"
         id="path78"
         inkscape:connector-curvature="0" /></clipPath></defs><sodipodi:namedview
     pagecolor="#ffffff"
     bordercolor="#666666"
     borderopacity="1"
     objecttolerance="10"
     gridtolerance="10"
     guidetolerance="10"
     inkscape:pageopacity="0"
     inkscape:pageshadow="2"
     inkscape:window-width="685"
     inkscape:window-height="480"
     id="namedview4"
     showgrid="false"
     inkscape:zoom="0.95573263"
     inkscape:cx="160.62695"
     inkscape:cy="123.46549"
     inkscape:window-x="0"
     inkscape:window-y="0"
     inkscape:window-maximized="0"
     inkscape:current-layer="g10" /><g
     id="g10"
     inkscape:groupmode="layer"
     inkscape:label="TA402237 CONNECTOR 3-P M SLD NAT 90 SRS (TP0361)"
     transform="matrix(1.3333333,0,0,-1.3333333,0,246.93099)"><g
       id="g12"
       transform="scale(1,-1)"><path
         d="m 161.79785,-127.2002 c 0,0 1.8584,3.03272 1.8584,3.03272"
         style="fill:none;stroke:#231f20;stroke-width:0.5;stroke-linecap:round;stroke-linejoin:round;stroke-miterlimit:10;stroke-dasharray:none;stroke-opacity:1"
         id="path14"
         inkscape:connector-curvature="0" /><g
         id="g16"><g
           id="g18"
           clip-path="url(#clipPath22)"><path
             d="m 99.10303,-45.89551 c 0,0 -0.31104,-6.38183 -0.31104,-6.38183 -0.04931,-1.38184 0.70606,-2.05274 1.91602,-2.24512 0,0 1.92773,-0.30859 1.92773,-0.30859 0,0 0.30518,0.94824 0.30518,0.94824 0,0 2.87304,7.04199 2.87304,7.04199"
             style="fill:none;stroke:#231f20;stroke-width:1;stroke-linecap:round;stroke-linejoin:round;stroke-miterlimit:10;stroke-dasharray:none;stroke-opacity:1"
             id="path24"
             inkscape:connector-curvature="0" /><path
             d="m 152.46582,-159.32422 c 0,-0.15625 -0.15918,-0.15625 -0.31738,-0.15625"
             style="fill:none;stroke:#231f20;stroke-width:0.39998999;stroke-linecap:round;stroke-linejoin:round;stroke-miterlimit:10;stroke-dasharray:none;stroke-opacity:1"
             id="path26"
             inkscape:connector-curvature="0" /><path
             d="m 172.42969,-124.33838 c 0.17676,-0.16162 0,-0.31396 0,-0.31396"
             style="fill:none;stroke:#231f20;stroke-width:0.39998999;stroke-linecap:round;stroke-linejoin:round;stroke-miterlimit:10;stroke-dasharray:none;stroke-opacity:1"
             id="path28"
             inkscape:connector-curvature="0" /><path
             d="m 68.5835,-124.01514 c 0.33593,-0.79297 0.81201,-1.59277 1.12255,-2.40088 0,0 17.10206,-30.67822 17.10206,-30.67822 0,0 1.43408,-2.22998 1.43408,-2.22998"
             style="fill:none;stroke:#231f20;stroke-width:0.5;stroke-linecap:round;stroke-linejoin:round;stroke-miterlimit:10;stroke-dasharray:none;stroke-opacity:1"
             id="path30"
             inkscape:connector-curvature="0" /><path
             d="m 172.42969,-124.80811 c -0.31153,-0.48486 -19.82129,-34.16699 -19.82129,-34.16699"
             style="fill:none;stroke:#231f20;stroke-width:0.5;stroke-linecap:round;stroke-linejoin:round;stroke-miterlimit:10;stroke-dasharray:none;stroke-opacity:1"
             id="path32"
             inkscape:connector-curvature="0" /><path
             d="m 158.06055,-157.72852 c -0.15137,-0.15918 -0.15137,-0.15918 -0.32227,-0.31689"
             style="fill:none;stroke:#231f20;stroke-width:0.39998999;stroke-linecap:round;stroke-linejoin:round;stroke-miterlimit:10;stroke-dasharray:none;stroke-opacity:1"
             id="path34"
             inkscape:connector-curvature="0" /><path
             d="m 173.8877,-129.92725 c 0,0 0,-0.48242 0,-0.48242"
             style="fill:none;stroke:#231f20;stroke-width:0.39998999;stroke-linecap:round;stroke-linejoin:round;stroke-miterlimit:10;stroke-dasharray:none;stroke-opacity:1"
             id="path36"
             inkscape:connector-curvature="0" /><path
             d="m 121.94727,-113.46582 c 0.16406,0.15625 0.48144,0.30811 0.81152,0.15625 0,0 21.07422,-12.13916 21.07422,-12.13916 0.32324,-0.15869 0.32324,-0.48486 0.16992,-0.7959 0,0 -3.67871,-6.39795 -3.67871,-6.39795 -0.15234,-0.3291 -0.48242,-0.3291 -0.79297,-0.15527 0,0 -21.09814,12.13818 -21.09814,12.13818 -0.31836,0.15283 -0.31836,0.48584 -0.15332,0.79981"
             style="fill:none;stroke:#231f20;stroke-width:0.5;stroke-linecap:round;stroke-linejoin:round;stroke-miterlimit:10;stroke-dasharray:none;stroke-opacity:1"
             id="path38"
             inkscape:connector-curvature="0" /><path
             d="m 157.26758,-119.06689 c 0,0 -19.17578,-32.11475 -19.17578,-32.11475 -7.75293,-13.01318 -27.49414,-14.09619 -36.27979,0.64355 0,0 -18.04199,32.59424 -18.04199,32.59424 -7.17334,13.20215 3.48877,31.1626 18.52978,31.1626 0,0 36.03321,0 36.03321,0 21.58398,0 26.16699,-20.77148 18.93457,-32.28564 z"
             style="fill:none;stroke:#231f20;stroke-width:0.5;stroke-linecap:round;stroke-linejoin:round;stroke-miterlimit:10;stroke-dasharray:none;stroke-opacity:1"
             id="path40"
             inkscape:connector-curvature="0" /><path
             d="m 160.13574,-122.18701 c 0,0 -1.28125,-2.07422 -1.28125,-2.07422 -0.57324,-0.89063 0.23828,-1.43164 0.23828,-1.43164 0,0 3.42578,-1.90918 3.42578,-1.90918"
             style="fill:none;stroke:#231f20;stroke-width:0.5;stroke-linecap:round;stroke-linejoin:round;stroke-miterlimit:10;stroke-dasharray:none;stroke-opacity:1"
             id="path42"
             inkscape:connector-curvature="0" /><path
             d="m 155.10254,-106.94092 c 0,0 -3.58789,2.10303 -3.58789,2.10303 0,0 -1.76367,-3.04492 -1.76367,-3.04492 0,0 -7.66895,4.47802 -7.66895,4.47802 0,0 1.75098,2.8711 1.75098,2.8711 0,0 -7.34668,4.32861 -7.34668,4.32861 0,0 -8.93848,-15.51269 -8.93848,-15.51269 0,0 7.35156,-4.30811 7.35156,-4.30811 0,0 1.75782,3.02686 1.75782,3.02686 0,0 7.66308,-4.45996 7.66308,-4.45996 0,0 -1.76953,-2.88282 -1.76953,-2.88282 0,0 4.6377,-2.71582 4.6377,-2.71582 0.48828,-0.3164 0.90136,-0.32617 1.47656,-0.21045"
             style="fill:none;stroke:#231f20;stroke-width:1;stroke-linecap:round;stroke-linejoin:round;stroke-miterlimit:10;stroke-dasharray:none;stroke-opacity:1"
             id="path44"
             inkscape:connector-curvature="0" /><path
             d="m 102.94092,-53.43164 c 0,0 -1.94092,0.30273 -1.94092,0.30273 -0.14893,0 -0.45703,0.15137 -0.45703,0.44532 0,0 0.3081,6.5791 0.3081,6.5791"
             style="fill:none;stroke:#231f20;stroke-width:0.5;stroke-linecap:round;stroke-linejoin:round;stroke-miterlimit:10;stroke-dasharray:none;stroke-opacity:1"
             id="path46"
             inkscape:connector-curvature="0" /><path
             d="m 140.96484,-69.3916 c 0,0 -40.83886,0 -40.83886,0"
             style="fill:none;stroke:#231f20;stroke-width:0.5;stroke-linecap:round;stroke-linejoin:round;stroke-miterlimit:10;stroke-dasharray:none;stroke-opacity:1"
             id="path48"
             inkscape:connector-curvature="0" /><path
             d="m 129.80664,-152.41846 c 0,0 -4.33301,2.51807 -4.33301,2.51807 0,0 1.75098,3.04199 1.75098,3.04199 0,0 -7.66309,4.31006 -7.66309,4.31006 0,0 -1.60547,-2.86768 -1.60547,-2.86768 0,0 -7.35791,4.30176 -7.35791,4.30176 0,0 8.96338,15.3418 8.96338,15.3418 0,0 7.34571,-4.15479 7.34571,-4.15479 0,0 -1.7627,-3.04492 -1.7627,-3.04492 0,0 7.68067,-4.30224 7.68067,-4.30224 0,0 1.58691,2.86816 1.58691,2.86816 0,0 4.625,-2.62109 4.625,-2.62109 0,0 0.57617,-0.2461 0.72363,-0.83496"
             style="fill:none;stroke:#231f20;stroke-width:1;stroke-linecap:round;stroke-linejoin:round;stroke-miterlimit:10;stroke-dasharray:none;stroke-opacity:1"
             id="path50"
             inkscape:connector-curvature="0" /><path
             d="m 116.99854,-121.94092 c -0.79297,-1.4331 -2.56299,-1.91601 -3.8379,-1.11572 0,0 -4.6372,2.71484 -4.6372,2.71484 0,0 1.60498,3.03809 1.60498,3.03809 0,0 -7.51074,4.30469 -7.51074,4.30469 0,0 -1.75196,-2.87061 -1.75196,-2.87061 0,0 -7.35107,4.15186 -7.35107,4.15186 0,0 8.93799,15.51269 8.93799,15.51269 0,0 7.35205,-4.32861 7.35205,-4.32861 0,0 -1.74512,-2.8711 -1.74512,-2.8711 0,0 7.6582,-4.47802 7.6582,-4.47802 0,0 1.76905,3.04492 1.76905,3.04492 0,0 4.62451,-2.71484 4.62451,-2.71484 1.28125,-0.81202 1.75097,-2.56006 0.95801,-3.84229 0,0 -4.78955,-8.46484 -4.78955,-8.46484 0,0 -1.28125,-2.08106 -1.28125,-2.08106 z"
             style="fill:none;stroke:#231f20;stroke-width:1;stroke-linecap:round;stroke-linejoin:round;stroke-miterlimit:10;stroke-dasharray:none;stroke-opacity:1"
             id="path52"
             inkscape:connector-curvature="0" /><path
             d="m 152.14844,-145.90723 c 0,0 -3.83106,-6.39404 -3.83106,-6.39404 0,0 -4.94336,2.72705 -4.94336,2.72705 0,0 -0.97558,-1.60791 -0.97558,-1.60791 -4.9209,-8.69873 -12.6416,-13.36767 -21.91602,-13.21289 -9.11523,0 -17.40283,4.41797 -22.49023,13.54004 0,0 -0.80469,1.44287 -0.80469,1.44287 0,0 -4.63135,-2.71191 -4.63135,-2.71191 0,0 -15.49756,27.78613 -15.49756,27.78613 0,0 4.63086,2.72363 4.63086,2.72363 0,0 -0.78711,1.44043 -0.78711,1.44043 -4.32617,7.81592 -4.15478,17.4126 0.30518,25.0708 4.47266,7.83057 12.62402,12.62354 21.58105,12.79444 0,0 0.15186,0 0.15186,0 0,0 1.43408,0 1.43408,0 0,0 0.003,5.90234 0.003,5.90234 0,0 31.95557,0 31.95557,0 0,0 0,-6.25 0,-6.25 0,0 1.60547,0 1.60547,0 9.09668,0.1582 18.11718,-4.44727 22.35547,-11.63281 4.69335,-7.95703 4.79589,-17.73975 0.1582,-25.72901 0,0 -0.94434,-1.76416 -0.94434,-1.76416 0,0 4.94141,-2.86963 4.94141,-2.86963 0,0 -3.82617,-6.39502 -3.82617,-6.39502 0,0 1.28222,-0.79931 1.28222,-0.79931 0,0 -8.46875,-14.78906 -8.46875,-14.78906 0,0 -1.28808,0.72802 -1.28808,0.72802 0,0 8.47461,14.86035 8.47461,14.86035"
             style="fill:none;stroke:#231f20;stroke-width:0.5;stroke-linecap:round;stroke-linejoin:round;stroke-miterlimit:10;stroke-dasharray:none;stroke-opacity:1"
             id="path54"
             inkscape:connector-curvature="0" /><path
             d="m 100.88281,-70.96289 c 0,0 39.12403,0 39.12403,0 0,0 6.70703,-6.57324 6.70703,-6.57324 16.15332,-4.57617 25.58886,-21.125 21.6289,-37.41992 0,0 2.34082,-9.85206 2.34082,-9.85206 0,0 -19.00781,-32.95996 -19.00781,-32.95996 0,0 -9.9414,-2.81494 -9.9414,-2.81494 0,0 0.0566,0.023 0.0566,0.023 -12.0752,-11.61084 -31.00342,-11.67822 -43.01709,-0.20312 0,0 -9.67432,2.88427 -9.67432,2.88427 -0.33203,0.47657 -1.10303,1.73487 -1.10303,1.73487 0,0 -16.72461,30.29199 -16.72461,30.29199 -0.31933,0.63281 -0.62011,1.26611 -0.95117,1.89502 0,0 2.52393,9.46191 2.52393,9.46191 -3.30713,15.6211 5.69384,31.24414 20.833,36.12305 0,0 7.20508,7.40918 7.20508,7.40918 z"
             style="fill:none;stroke:#231f20;stroke-width:0.5;stroke-linecap:round;stroke-linejoin:round;stroke-miterlimit:10;stroke-dasharray:none;stroke-opacity:1"
             id="path56"
             inkscape:connector-curvature="0" /><path
             d="m 140.67969,-64.42871 c 0,0 10.7207,3.17676 15.51172,5.41211 4.44922,2.07617 8.17285,3.83301 10.22656,5.0664 0,1.69043 1.37012,3.06055 3.06055,3.06055 1.69043,0 3.06054,-1.37012 3.06054,-3.06055 0,-1.17578 -0.66308,-2.19531 -1.63574,-2.70898 0,0 0,9.8e-4 0,9.8e-4 -5.4043,-3.375 -14.56641,-7.28809 -14.56641,-7.28809 -4.31445,-1.91992 -9.12207,-3.51172 -13.75293,-4.63476 -0.6289,-0.15137 -0.91113,-0.34083 -1.23535,-0.81055 0,0 6.49805,-6.69141 6.49805,-6.69141 16.47754,-5.07715 26.20996,-21.94482 22.28906,-38.76074 0,0 -0.0332,-0.13916 -0.0332,-0.13916 0,0 2.32715,-9.35498 2.32715,-9.35498 0,0 1.45801,-5.58984 1.45801,-5.58984 0,0 0.11035,-0.24122 0,-0.48096 -0.10938,-0.24121 -15.61231,-26.9502 -15.72461,-27.14404 -0.11329,-0.19385 -0.42481,-0.33497 -0.42481,-0.33497 0,0 -5.58984,-1.59179 -5.58984,-1.59179 0,0 -9.42676,-2.7124 -9.42676,-2.7124 0,0 -0.15234,-0.1709 -0.15234,-0.1709 -12.51563,-11.71289 -32.09424,-11.65772 -44.57618,0.1709 0,0 -9.59814,2.7124 -9.59814,2.7124 0,0 -5.67481,1.78076 -5.67481,1.78076 -0.09228,0.0288 -0.24804,0.16211 -0.26513,0.1958 0,0 -15.31104,27.5752 -15.31104,27.5752 -0.04687,0.1582 -0.04492,0.32177 0,0.48584 0,0 1.43897,5.58496 1.43897,5.58496 0,0 2.73388,9.59521 2.73388,9.59521 0,0 0,-0.33008 0,-0.33008 -3.35595,16.13184 5.74219,32.28321 21.4043,37.53907 0,0 0.15772,0.17089 0.15772,0.17089 0,0 7.19384,7.34864 7.19384,7.34864 -0.32275,0.4707 -0.80468,0.80078 -1.43359,0.95215 -4.63135,1.12304 -9.43799,2.71484 -13.75342,4.63476 0,0 -9.16162,3.91309 -14.56592,7.28809 0,0 0,-9.8e-4 0,-9.8e-4 -0.97265,0.51367 -1.63574,1.5332 -1.63574,2.70898 0,1.69043 1.37012,3.06055 3.06006,3.06055 1.69092,0 3.06104,-1.37012 3.06104,-3.06055 2.05371,-1.23339 5.77685,-2.99023 10.22705,-5.0664 4.79052,-2.23535 15.51074,-5.41211 15.51074,-5.41211 0,0 40.13672,0 40.13672,0 z"
             style="fill:none;stroke:#231f20;stroke-width:1;stroke-linecap:round;stroke-linejoin:round;stroke-miterlimit:10;stroke-dasharray:none;stroke-opacity:1"
             id="path58"
             inkscape:connector-curvature="0" /></g></g><g
         id="g60"
         transform="scale(1,-1)"><text
           transform="matrix(0.50002388,-0.86601162,-0.86601162,-0.50002388,120.67915,140.37706)"
           style="font-variant:normal;font-weight:bold;font-size:12.00004673px;font-family:Arial;-inkscape-font-specification:Arial-BoldMT;writing-mode:lr-tb;fill:#050606;fill-opacity:1;fill-rule:nonzero;stroke:none"
           id="text64"><tspan
             x="0"
             y="0"
             id="tspan62">1</tspan></text>
<text
           transform="matrix(0.50002388,-0.86601162,-0.86601162,-0.50002388,137.61478,110.83054)"
           style="font-variant:normal;font-weight:bold;font-size:12.00004673px;font-family:Arial;-inkscape-font-specification:Arial-BoldMT;writing-mode:lr-tb;fill:#050606;fill-opacity:1;fill-rule:nonzero;stroke:none"
           id="text68"><tspan
             x="0"
             y="0"
             id="tspan66">2</tspan></text>
<text
           transform="matrix(0.50002388,-0.86601162,-0.86601162,-0.50002388,103.08279,110.83188)"
           style="font-variant:normal;font-weight:bold;font-size:12.00004673px;font-family:Arial;-inkscape-font-specification:Arial-BoldMT;writing-mode:lr-tb;fill:#050606;fill-opacity:1;fill-rule:nonzero;stroke:none"
           id="text72"><tspan
             x="0"
             y="0"
             id="tspan70">3</tspan></text>
<g
           id="g74"
           transform="scale(1,-1)"><g
             id="g76"
             clip-path="url(#clipPath80)"><path
               d="m 154.38184,-117.30371 c 0,0 -19.1709,-32.10791 -19.1709,-32.10791 -6.70117,-11.31299 -23.56397,-11.3501 -30.1958,0.46582 0,0 -18.20703,32.59717 -18.20703,32.59717 -1.22315,2.41797 -1.8003,5.30273 -1.8003,8.19775 0,9.67334 7.69239,17.54932 17.29199,17.84717 0,0 35.9502,0 35.9502,0 18.25,0 22.25,-17.64502 16.13184,-27 z"
               style="fill:none;stroke:#231f20;stroke-width:0.5;stroke-linecap:round;stroke-linejoin:round;stroke-miterlimit:10;stroke-dasharray:none;stroke-opacity:1"
               id="path82"
               inkscape:connector-curvature="0" /><path
               d="m 153.74121,-115.3877 c 0,0 -16.91308,-27.75878 -20.9873,-34.48584 -4.07422,-6.72705 -18.59473,-10.51709 -26.30469,1.74317 0,0 -18.20703,32.74267 -18.20703,32.74267 0,0 -0.0054,-0.003 -0.0054,-0.003 -1.09082,2.1792 -1.70362,4.63819 -1.70362,7.24024 0,8.80273 7.021,15.96582 15.76758,16.19434 0,0 35.61621,0 35.61621,0 17.42871,-0.24268 19.83301,-15.59766 15.82422,-23.43165 z"
               style="fill:none;stroke:#231f20;stroke-width:0.5;stroke-linecap:round;stroke-linejoin:round;stroke-miterlimit:10;stroke-dasharray:none;stroke-opacity:1"
               id="path84"
               inkscape:connector-curvature="0" /><path
               d="m 114.01514,-33.34375 c -0.36817,1.07031 -1.38282,1.83887 -2.57813,1.83887 -1.50488,0 -2.72461,-1.21973 -2.72461,-2.72461 0,-0.89551 0.43164,-1.68946 1.09766,-2.18653 0,0 -3.9961,-10.4248 -3.9961,-10.4248 0,0 -13.5747,2.07129 -13.5747,2.07129 0,0 11.18994,14.38672 11.18994,14.38672 3.25976,3.92187 7.646,4.15234 8.77978,4.15234 0,0 1.75733,0 1.75733,0"
               style="fill:none;stroke:#231f20;stroke-width:1;stroke-linecap:round;stroke-linejoin:round;stroke-miterlimit:10;stroke-dasharray:none;stroke-opacity:1"
               id="path86"
               inkscape:connector-curvature="0" /><path
               d="m 117.18945,-13.31738 c 0,0 0,-51.11133 0,-51.11133"
               style="fill:none;stroke:#231f20;stroke-width:0.5;stroke-linecap:round;stroke-linejoin:round;stroke-miterlimit:10;stroke-dasharray:none;stroke-opacity:1"
               id="path88"
               inkscape:connector-curvature="0" /><path
               d="m 115.729,-13.31738 c 0,0 0,-51.11133 0,-51.11133"
               style="fill:none;stroke:#231f20;stroke-width:0.5;stroke-linecap:round;stroke-linejoin:round;stroke-miterlimit:10;stroke-dasharray:none;stroke-opacity:1"
               id="path90"
               inkscape:connector-curvature="0" /><path
               d="m 141.46387,-45.89551 c 0,0 0.31054,-6.38183 0.31054,-6.38183 0.0498,-1.38184 -0.70605,-2.05274 -1.91601,-2.24512 0,0 -1.92774,-0.30859 -1.92774,-0.30859 0,0 -0.30468,0.94824 -0.30468,0.94824 0,0 -2.87305,7.04199 -2.87305,7.04199"
               style="fill:none;stroke:#231f20;stroke-width:1;stroke-linecap:round;stroke-linejoin:round;stroke-miterlimit:10;stroke-dasharray:none;stroke-opacity:1"
               id="path92"
               inkscape:connector-curvature="0" /><path
               d="m 126.60059,-64.09863 c 0,0 0,39.94238 0,39.94238 0,0 8.46289,9.8e-4 8.46289,9.8e-4 0,6.22754 -4.94141,11.33789 -11.17774,11.33789 0,0 -7.20508,0 -7.20508,0 -6.23584,0 -11.17773,-5.11035 -11.17773,-11.33789 0,0 8.46289,-9.8e-4 8.46289,-9.8e-4 0,0 0,-39.94238 0,-39.94238"
               style="fill:none;stroke:#231f20;stroke-width:1;stroke-linecap:round;stroke-linejoin:round;stroke-miterlimit:10;stroke-dasharray:none;stroke-opacity:1"
               id="path94"
               inkscape:connector-curvature="0" /><path
               d="m 137.62598,-53.43164 c 0,0 1.94043,0.30273 1.94043,0.30273 0.14941,0 0.45703,0.15137 0.45703,0.44532 0,0 -0.30762,6.5791 -0.30762,6.5791"
               style="fill:none;stroke:#231f20;stroke-width:0.5;stroke-linecap:round;stroke-linejoin:round;stroke-miterlimit:10;stroke-dasharray:none;stroke-opacity:1"
               id="path96"
               inkscape:connector-curvature="0" /><path
               d="m 126.55176,-33.34375 c 0.36816,1.07031 1.38281,1.83887 2.57812,1.83887 1.50489,0 2.72461,-1.21973 2.72461,-2.72461 0,-0.89551 -0.43164,-1.68946 -1.09765,-2.18653 0,0 3.99609,-10.4248 3.99609,-10.4248 0,0 13.57422,2.07129 13.57422,2.07129 0,0 -11.18945,14.38672 -11.18945,14.38672 -3.25977,3.92187 -7.64649,4.15234 -8.78028,4.15234 0,0 -1.75683,0 -1.75683,0"
               style="fill:none;stroke:#231f20;stroke-width:1;stroke-linecap:round;stroke-linejoin:round;stroke-miterlimit:10;stroke-dasharray:none;stroke-opacity:1"
               id="path98"
               inkscape:connector-curvature="0" /><path
               d="m 123.37695,-13.31738 c 0,0 0,-51.11133 0,-51.11133"
               style="fill:none;stroke:#231f20;stroke-width:0.5;stroke-linecap:round;stroke-linejoin:round;stroke-miterlimit:10;stroke-dasharray:none;stroke-opacity:1"
               id="path100"
               inkscape:connector-curvature="0" /><path
               d="m 124.83789,-13.31738 c 0,0 0,-51.11133 0,-51.11133"
               style="fill:none;stroke:#231f20;stroke-width:0.5;stroke-linecap:round;stroke-linejoin:round;stroke-miterlimit:10;stroke-dasharray:none;stroke-opacity:1"
               id="path102"
               inkscape:connector-curvature="0" /></g></g><text
           transform="matrix(1,0,0,-1,1,1.94824)"
           style="font-variant:normal;font-weight:normal;font-size:6px;font-family:Arial;-inkscape-font-specification:ArialMT;writing-mode:lr-tb;fill:#231f20;fill-opacity:1;fill-rule:nonzero;stroke:none"
           id="text106"><tspan
             x="0 3.6659999 7.6680002 11.004 14.34 17.676001"
             y="0"
             sodipodi:role="line"
             id="tspan104">TP0361</tspan></text>
</g></g></g></svg>