<?xml version="1.0" encoding="UTF-8" standalone="no"?>
<!-- Created with Inkscape (http://www.inkscape.org/) -->

<svg
   xmlns:dc="http://purl.org/dc/elements/1.1/"
   xmlns:cc="http://creativecommons.org/ns#"
   xmlns:rdf="http://www.w3.org/1999/02/22-rdf-syntax-ns#"
   xmlns:svg="http://www.w3.org/2000/svg"
   xmlns="http://www.w3.org/2000/svg"
   xmlns:sodipodi="http://sodipodi.sourceforge.net/DTD/sodipodi-0.dtd"
   xmlns:inkscape="http://www.inkscape.org/namespaces/inkscape"
   version="1.1"
   id="svg2"
   xml:space="preserve"
   width="321.26001"
   height="245.66933"
   viewBox="0 0 321.26001 245.66933"
   sodipodi:docname="Spark Plug Removal Tool.svg"
   inkscape:version="0.92.4 (5da689c313, 2019-01-14)"><metadata
     id="metadata8"><rdf:RDF><cc:Work
         rdf:about=""><dc:format>image/svg+xml</dc:format><dc:type
           rdf:resource="http://purl.org/dc/dcmitype/StillImage" /><dc:title></dc:title></cc:Work></rdf:RDF></metadata><defs
     id="defs6"><clipPath
       clipPathUnits="userSpaceOnUse"
       id="clipPath18"><path
         d="M 0,184.252 H 240.945 V 0 H 0 Z"
         id="path16"
         inkscape:connector-curvature="0" /></clipPath></defs><sodipodi:namedview
     pagecolor="#ffffff"
     bordercolor="#666666"
     borderopacity="1"
     objecttolerance="10"
     gridtolerance="10"
     guidetolerance="10"
     inkscape:pageopacity="0"
     inkscape:pageshadow="2"
     inkscape:window-width="640"
     inkscape:window-height="480"
     id="namedview4"
     showgrid="false"
     inkscape:zoom="0.96064089"
     inkscape:cx="160.63"
     inkscape:cy="122.83466"
     inkscape:window-x="0"
     inkscape:window-y="0"
     inkscape:window-maximized="0"
     inkscape:current-layer="g10" /><g
     id="g10"
     inkscape:groupmode="layer"
     inkscape:label="Spark Plug Removal Tool"
     transform="matrix(1.3333333,0,0,-1.3333333,0,245.66933)"><g
       id="g12"><g
         id="g14"
         clip-path="url(#clipPath18)"><g
           id="g20"
           transform="translate(67.6347,79.6988)"><path
             d="m 0,0 c -1.609,0.766 -0.503,6.444 2.469,12.682 2.972,6.238 6.685,10.675 8.294,9.909"
             style="fill:none;stroke:#231f20;stroke-width:0.5;stroke-linecap:round;stroke-linejoin:round;stroke-miterlimit:10;stroke-dasharray:none;stroke-opacity:1"
             id="path22"
             inkscape:connector-curvature="0" /></g><g
           id="g24"
           transform="translate(62.6677,109.8731)"><path
             d="m 0,0 c -1.639,0.781 -5.424,-3.741 -8.453,-10.1 -3.03,-6.359 -4.156,-12.147 -2.517,-12.929 l 15.776,-7.336 c 0.521,-0.247 1.255,0.037 2.112,0.744"
             style="fill:none;stroke:#231f20;stroke-width:1;stroke-linecap:round;stroke-linejoin:round;stroke-miterlimit:10;stroke-dasharray:none;stroke-opacity:1"
             id="path26"
             inkscape:connector-curvature="0" /></g><g
           id="g28"
           transform="translate(79.1964,100.6496)"><path
             d="M 0,0 C -0.026,0.989 -0.266,1.657 -0.751,1.886 L -16.529,9.223"
             style="fill:none;stroke:#231f20;stroke-width:1;stroke-linecap:round;stroke-linejoin:round;stroke-miterlimit:10;stroke-dasharray:none;stroke-opacity:1"
             id="path30"
             inkscape:connector-curvature="0" /></g><g
           id="g32"
           transform="translate(78.8833,100.5729)"><path
             d="m 0,0 c -1.435,0.685 -4.752,-3.277 -7.404,-8.847 -2.655,-5.571 -3.642,-10.641 -2.205,-11.324"
             style="fill:none;stroke:#231f20;stroke-width:0.5;stroke-linecap:round;stroke-linejoin:round;stroke-miterlimit:10;stroke-dasharray:none;stroke-opacity:1"
             id="path34"
             inkscape:connector-curvature="0" /></g><g
           id="g36"
           transform="translate(109.2832,68.226)"><path
             d="m 0,0 13.76,-6.048 8.003,11.881 c 0,0 0.113,0.761 -1.542,1.501 -1.655,0.739 -12.037,5.377 -12.037,5.377 0,0 -0.963,1.734 -2.406,2.408 C 4.333,15.793 -30.4,32.346 -30.4,32.346"
             style="fill:none;stroke:#231f20;stroke-width:1;stroke-linecap:round;stroke-linejoin:round;stroke-miterlimit:10;stroke-dasharray:none;stroke-opacity:1"
             id="path38"
             inkscape:connector-curvature="0" /></g><g
           id="g40"
           transform="translate(69.2747,80.4008)"><path
             d="m 0,0 c 0,0 33.555,-16.027 35.481,-16.99 1.926,-0.963 4.622,-0.192 4.622,-0.192 l 13.867,-6.163 c 2.397,-0.928 7.552,6.07 7.545,10.941 l -2.584,0.973"
             style="fill:none;stroke:#231f20;stroke-width:1;stroke-linecap:round;stroke-linejoin:round;stroke-miterlimit:10;stroke-dasharray:none;stroke-opacity:1"
             id="path42"
             inkscape:connector-curvature="0" /></g><g
           id="g44"
           transform="translate(108.9401,68.3117)"><path
             d="m 0,0 c 0,0 -3.509,0.416 -3.509,-2.126 0,-1.672 3.947,-2.601 3.947,-2.601"
             style="fill:none;stroke:#231f20;stroke-width:0.5;stroke-linecap:round;stroke-linejoin:round;stroke-miterlimit:10;stroke-dasharray:none;stroke-opacity:1"
             id="path46"
             inkscape:connector-curvature="0" /></g><g
           id="g48"
           transform="translate(130.4927,74.5598)"><path
             d="M 0,0 C -4.073,-0.7 -6.83,-8.269 -7.246,-11.634"
             style="fill:none;stroke:#231f20;stroke-width:0.5;stroke-linecap:round;stroke-linejoin:round;stroke-miterlimit:10;stroke-dasharray:none;stroke-opacity:1"
             id="path50"
             inkscape:connector-curvature="0" /></g><g
           id="g52"
           transform="translate(123.2464,57.6219)"><path
             d="M 0,0 6.839,9.946"
             style="fill:none;stroke:#231f20;stroke-width:0.5;stroke-linecap:round;stroke-linejoin:round;stroke-miterlimit:10;stroke-dasharray:none;stroke-opacity:1"
             id="path54"
             inkscape:connector-curvature="0" /></g><g
           id="g56"
           transform="translate(116.0948,80.4008)"><path
             d="M 0,0 C -3.208,-1.532 -6.213,-7.695 -6.413,-10.902"
             style="fill:none;stroke:#231f20;stroke-width:0.5;stroke-linecap:round;stroke-linejoin:round;stroke-miterlimit:10;stroke-dasharray:none;stroke-opacity:1"
             id="path58"
             inkscape:connector-curvature="0" /></g><g
           id="g60"
           transform="translate(123.618,73.3891)"><path
             d="m 0,0 c 0.125,-1.128 -0.957,-2.172 -2.416,-2.332 -1.458,-0.16 -2.74,0.623 -2.865,1.751 -0.125,1.128 0.957,2.173 2.416,2.333 C -1.407,1.912 -0.125,1.128 0,0 Z"
             style="fill:none;stroke:#231f20;stroke-width:0.5;stroke-linecap:round;stroke-linejoin:round;stroke-miterlimit:10;stroke-dasharray:none;stroke-opacity:1"
             id="path62"
             inkscape:connector-curvature="0" /></g><g
           id="g64"
           transform="translate(170.256,119.4344)"><path
             d="M 0,0 -39.21,-45.376"
             style="fill:none;stroke:#231f20;stroke-width:1;stroke-linecap:round;stroke-linejoin:round;stroke-miterlimit:10;stroke-dasharray:none;stroke-opacity:1"
             id="path66"
             inkscape:connector-curvature="0" /></g><g
           id="g68"
           transform="translate(162.5569,125.8931)"><path
             d="M 0,0 C 0.546,0.65 2.711,-0.269 4.839,-2.051 6.965,-3.835 8.245,-5.807 7.698,-6.459"
             style="fill:none;stroke:#231f20;stroke-width:0.5;stroke-linecap:round;stroke-linejoin:round;stroke-miterlimit:10;stroke-dasharray:none;stroke-opacity:1"
             id="path70"
             inkscape:connector-curvature="0" /></g><g
           id="g72"
           transform="translate(122.3917,79.4198)"><path
             d="M 0,0 40.165,46.473"
             style="fill:none;stroke:#231f20;stroke-width:1;stroke-linecap:round;stroke-linejoin:round;stroke-miterlimit:10;stroke-dasharray:none;stroke-opacity:1"
             id="path74"
             inkscape:connector-curvature="0" /></g><g
           id="g76"
           transform="translate(159.2872,129.019)"><path
             d="m 0,0 c 1.037,1.235 5.147,-0.509 9.184,-3.894 4.036,-3.386 6.467,-7.132 5.432,-8.367"
             style="fill:none;stroke:#231f20;stroke-width:0.5;stroke-linecap:round;stroke-linejoin:round;stroke-miterlimit:10;stroke-dasharray:none;stroke-opacity:1"
             id="path78"
             inkscape:connector-curvature="0" /></g><g
           id="g80"
           transform="translate(169.0584,117.6251)"><path
             d="m 0,0 c 2.421,-1.336 4.397,-1.778 5.077,-0.966 l 11.09,12.981 c 1.064,1.268 -1.43,5.109 -5.57,8.582 -4.138,3.471 -8.355,5.26 -9.417,3.993 L -9.911,11.608 c -0.661,-0.787 0.054,-2.573 1.685,-4.644"
             style="fill:none;stroke:#231f20;stroke-width:1;stroke-linecap:round;stroke-linejoin:round;stroke-miterlimit:10;stroke-dasharray:none;stroke-opacity:1"
             id="path82"
             inkscape:connector-curvature="0" /></g><g
           id="g84"
           transform="translate(119.229,63.9016)"><path
             d="M 0,0 C 0.985,-1.154 1.446,-2.174 1.085,-2.614"
             style="fill:none;stroke:#231f20;stroke-width:0.5;stroke-linecap:round;stroke-linejoin:round;stroke-miterlimit:10;stroke-dasharray:none;stroke-opacity:1"
             id="path86"
             inkscape:connector-curvature="0" /></g><g
           id="g88"
           transform="translate(112.9426,66.6107)"><path
             d="M 0,0 C 0.254,-0.912 1.381,-2.329 2.972,-3.636 5.116,-5.399 7.291,-6.295 7.83,-5.639 l 1.142,1.306"
             style="fill:none;stroke:#231f20;stroke-width:1;stroke-linecap:round;stroke-linejoin:round;stroke-miterlimit:10;stroke-dasharray:none;stroke-opacity:1"
             id="path90"
             inkscape:connector-curvature="0" /></g></g></g></g></svg>