<?xml version="1.0" encoding="UTF-8" standalone="no"?>
<!-- Created with Inkscape (http://www.inkscape.org/) -->

<svg
   xmlns:dc="http://purl.org/dc/elements/1.1/"
   xmlns:cc="http://creativecommons.org/ns#"
   xmlns:rdf="http://www.w3.org/1999/02/22-rdf-syntax-ns#"
   xmlns:svg="http://www.w3.org/2000/svg"
   xmlns="http://www.w3.org/2000/svg"
   xmlns:sodipodi="http://sodipodi.sourceforge.net/DTD/sodipodi-0.dtd"
   xmlns:inkscape="http://www.inkscape.org/namespaces/inkscape"
   version="1.1"
   id="svg2"
   xml:space="preserve"
   width="321.26001"
   height="245.66933"
   viewBox="0 0 321.26001 245.66933"
   sodipodi:docname="T3880750 and wrench_1.svg"
   inkscape:version="0.92.4 (5da689c313, 2019-01-14)"><metadata
     id="metadata8"><rdf:RDF><cc:Work
         rdf:about=""><dc:format>image/svg+xml</dc:format><dc:type
           rdf:resource="http://purl.org/dc/dcmitype/StillImage" /><dc:title></dc:title></cc:Work></rdf:RDF></metadata><defs
     id="defs6"><clipPath
       clipPathUnits="userSpaceOnUse"
       id="clipPath18"><path
         d="M 0,0 H 240.945 V 184.252 H 0 Z"
         id="path16"
         inkscape:connector-curvature="0" /></clipPath><clipPath
       clipPathUnits="userSpaceOnUse"
       id="clipPath178"><path
         d="M 0,184.252 H 240.945 V 0 H 0 Z"
         id="path176"
         inkscape:connector-curvature="0" /></clipPath><clipPath
       clipPathUnits="userSpaceOnUse"
       id="clipPath194"><path
         d="M 0,184.252 H 240.945 V 0 H 0 Z"
         id="path192"
         inkscape:connector-curvature="0" /></clipPath><clipPath
       clipPathUnits="userSpaceOnUse"
       id="clipPath250"><path
         d="M 0,184.252 H 240.945 V 0 H 0 Z"
         id="path248"
         inkscape:connector-curvature="0" /></clipPath></defs><sodipodi:namedview
     pagecolor="#ffffff"
     bordercolor="#666666"
     borderopacity="1"
     objecttolerance="10"
     gridtolerance="10"
     guidetolerance="10"
     inkscape:pageopacity="0"
     inkscape:pageshadow="2"
     inkscape:window-width="640"
     inkscape:window-height="480"
     id="namedview4"
     showgrid="false"
     inkscape:zoom="0.96064089"
     inkscape:cx="160.63"
     inkscape:cy="122.83466"
     inkscape:window-x="0"
     inkscape:window-y="0"
     inkscape:window-maximized="0"
     inkscape:current-layer="g10" /><g
     id="g10"
     inkscape:groupmode="layer"
     inkscape:label="T3880750 and wrench_1"
     transform="matrix(1.3333333,0,0,-1.3333333,0,245.66933)"><g
       id="g12"><g
         id="g14"
         clip-path="url(#clipPath18)"><g
           id="g20"
           transform="translate(172.7454,117.1463)"><path
             d="m 0,0 c 0,-21.045 -17.06,-38.105 -38.105,-38.105 -21.045,0 -38.106,17.06 -38.106,38.105 0,21.045 17.061,38.105 38.106,38.105 C -17.06,38.105 0,21.045 0,0 Z"
             style="fill:none;stroke:#231f20;stroke-width:0.70899999;stroke-linecap:butt;stroke-linejoin:miter;stroke-miterlimit:10;stroke-dasharray:none;stroke-opacity:1"
             id="path22"
             inkscape:connector-curvature="0" /></g><g
           id="g24"
           transform="translate(122.116,152.3375)"><path
             d="m 0,0 c 3.915,1.393 8.131,2.152 12.524,2.152 20.624,0 37.343,-16.719 37.343,-37.343 0,-20.624 -16.719,-37.343 -37.343,-37.343 -20.624,0 -37.343,16.719 -37.343,37.343 0,13.821 7.508,25.888 18.668,32.345"
             style="fill:none;stroke:#231f20;stroke-width:0.28299999;stroke-linecap:butt;stroke-linejoin:miter;stroke-miterlimit:10;stroke-dasharray:none;stroke-opacity:1"
             id="path26"
             inkscape:connector-curvature="0" /></g><g
           id="g28"
           transform="translate(170.863,117.1463)"><path
             d="m 0,0 c 0,-20.005 -16.218,-36.223 -36.223,-36.223 -20.005,0 -36.223,16.218 -36.223,36.223 0,20.005 16.218,36.223 36.223,36.223 C -16.218,36.223 0,20.005 0,0 Z"
             style="fill:none;stroke:#231f20;stroke-width:0.28299999;stroke-linecap:butt;stroke-linejoin:miter;stroke-miterlimit:10;stroke-dasharray:none;stroke-opacity:1"
             id="path30"
             inkscape:connector-curvature="0" /></g><g
           id="g32"
           transform="translate(123.8112,149.8196)"><path
             d="m 0,0 c 3.405,1.128 7.046,1.738 10.829,1.738 19.005,0 34.412,-15.406 34.412,-34.411 0,-19.005 -15.407,-34.412 -34.412,-34.412 -19.005,0 -34.412,15.407 -34.412,34.412 0,12.736 6.919,23.856 17.203,29.806"
             style="fill:none;stroke:#231f20;stroke-width:0.28299999;stroke-linecap:butt;stroke-linejoin:miter;stroke-miterlimit:10;stroke-dasharray:none;stroke-opacity:1"
             id="path34"
             inkscape:connector-curvature="0" /></g><path
           d="m 140.568,41.867 h -11.616 v 11.616 h 11.616 z"
           style="fill:none;stroke:#231f20;stroke-width:0.50999999;stroke-linecap:round;stroke-linejoin:miter;stroke-miterlimit:10;stroke-dasharray:2.126, 1.417;stroke-dashoffset:0;stroke-opacity:1"
           id="path36"
           inkscape:connector-curvature="0" /><g
           id="g38"
           transform="translate(153.8872,134.564)"><path
             d="m 0,0 c 0,0 -2.127,-1.32 -2.429,-1.562 -0.303,-0.242 -0.242,-0.665 -0.121,-0.877 0.121,-0.212 3.811,-4.447 3.902,-4.719 0.091,-0.272 0.847,-0.484 1.18,-0.303 0.093,0.051 0.378,0.163 1.41,0.76"
             style="fill:none;stroke:#231f20;stroke-width:0.50999999;stroke-linecap:round;stroke-linejoin:miter;stroke-miterlimit:10;stroke-dasharray:2.126, 1.417;stroke-dashoffset:0;stroke-opacity:1"
             id="path40"
             inkscape:connector-curvature="0" /></g><g
           id="g42"
           transform="translate(136.7912,142.9997)"><path
             d="m 0,0 c 5.292,-0.562 12.787,-3.442 16.979,-8.333 1.279,-1.492 2.667,-3.167 4.354,-6.417 0,0 7.66,4.527 10.425,6.182 3.842,2.299 5.173,8.591 1.666,12.414 -8.449,9.211 -21.22,16.544 -35.455,16.544 -25.549,0 -46.261,-20.712 -46.261,-46.261 0,-28.072 19.883,-66.307 34.705,-83.731 1.992,-2.341 3.751,-3.086 5.022,-3.025 H 7.467 c 3.207,-0.121 5.566,2.904 5.506,5.142 -0.061,2.239 0,24.745 0,24.745 0,1.936 -1.241,3.774 -3.267,4.114 -14.46,2.42 -28.617,11.373 -32.61,26.861 l -5.084,22.816 c -0.118,1.009 -0.179,2.037 -0.179,3.078 0,12.407 8.531,22.697 20.125,25.371 0,0 4.297,0.898 8.042,0.5"
             style="fill:#bcbec0;fill-opacity:1;fill-rule:nonzero;stroke:none"
             id="path44"
             inkscape:connector-curvature="0" /></g><g
           id="g46"
           transform="translate(136.7912,142.9997)"><path
             d="m 0,0 c 5.292,-0.562 12.787,-3.442 16.979,-8.333 1.279,-1.492 2.667,-3.167 4.354,-6.417 0,0 7.66,4.527 10.425,6.182 3.842,2.299 5.173,8.591 1.666,12.414 -8.449,9.211 -21.22,16.544 -35.455,16.544 -25.549,0 -46.261,-20.712 -46.261,-46.261 0,-28.072 19.883,-66.307 34.705,-83.731 1.992,-2.341 3.751,-3.086 5.022,-3.025 H 7.467 c 3.207,-0.121 5.566,2.904 5.506,5.142 -0.061,2.239 0,24.745 0,24.745 0,1.936 -1.241,3.774 -3.267,4.114 -14.46,2.42 -28.617,11.373 -32.61,26.861 l -5.084,22.816 c -0.118,1.009 -0.179,2.037 -0.179,3.078 0,12.407 8.531,22.697 20.125,25.371 0,0 4.297,0.898 8.042,0.5 z"
             style="fill:none;stroke:#231f20;stroke-width:0.50999999;stroke-linecap:round;stroke-linejoin:miter;stroke-miterlimit:10;stroke-dasharray:none;stroke-opacity:1"
             id="path48"
             inkscape:connector-curvature="0" /></g><g
           id="g50"
           transform="translate(136.7807,143.1038)"><path
             d="m 0,0 v -2.737 l -6.891,-1.296 c 0,0 -0.548,0.063 -0.548,0.61 0,0.547 -0.078,2.04 -0.078,2.365"
             style="fill:none;stroke:#231f20;stroke-width:0.50999999;stroke-linecap:round;stroke-linejoin:miter;stroke-miterlimit:10;stroke-dasharray:2.126, 1.417;stroke-dashoffset:0;stroke-opacity:1"
             id="path52"
             inkscape:connector-curvature="0" /></g><g
           id="g54"
           transform="translate(129.7113,42.9978)"><path
             d="m 0,0 h 9.191 c 0.489,0 0.886,0.397 0.886,0.886 v 9.146 c 0,0.49 -0.397,0.886 -0.886,0.886 H 0 c -0.489,0 -0.886,-0.396 -0.886,-0.886 V 0.886 C -0.886,0.397 -0.489,0 0,0"
             style="fill:#d0d2d3;fill-opacity:1;fill-rule:nonzero;stroke:none"
             id="path56"
             inkscape:connector-curvature="0" /></g><g
           id="g58"
           transform="translate(129.7113,42.9978)"><path
             d="m 0,0 h 9.191 c 0.489,0 0.886,0.397 0.886,0.886 v 9.146 c 0,0.49 -0.397,0.886 -0.886,0.886 H 0 c -0.489,0 -0.886,-0.396 -0.886,-0.886 V 0.886 C -0.886,0.397 -0.489,0 0,0 Z"
             style="fill:none;stroke:#231f20;stroke-width:0.70899999;stroke-linecap:butt;stroke-linejoin:miter;stroke-miterlimit:10;stroke-dasharray:none;stroke-opacity:1"
             id="path60"
             inkscape:connector-curvature="0" /></g><g
           id="g62"
           transform="translate(142.9024,117.1463)"><path
             d="m 0,0 c 0,-4.563 -3.699,-8.262 -8.262,-8.262 -4.563,0 -8.263,3.699 -8.263,8.262 0,4.563 3.7,8.262 8.263,8.262 C -3.699,8.262 0,4.563 0,0"
             style="fill:#231f20;fill-opacity:1;fill-rule:nonzero;stroke:none"
             id="path64"
             inkscape:connector-curvature="0" /></g><g
           id="g66"
           transform="translate(142.9024,117.1463)"><path
             d="m 0,0 c 0,-4.563 -3.699,-8.262 -8.262,-8.262 -4.563,0 -8.263,3.699 -8.263,8.262 0,4.563 3.7,8.262 8.263,8.262 C -3.699,8.262 0,4.563 0,0 Z"
             style="fill:none;stroke:#231f20;stroke-width:0.28299999;stroke-linecap:butt;stroke-linejoin:miter;stroke-miterlimit:10;stroke-dasharray:none;stroke-opacity:1"
             id="path68"
             inkscape:connector-curvature="0" /></g><g
           id="g70"
           transform="translate(142.2975,116.8257)"><path
             d="m 0,0 c 0,-4.219 -3.421,-7.64 -7.64,-7.64 -4.219,0 -7.64,3.421 -7.64,7.64 0,4.219 3.421,7.64 7.64,7.64 C -3.421,7.64 0,4.219 0,0"
             style="fill:#ffffff;fill-opacity:1;fill-rule:nonzero;stroke:none"
             id="path72"
             inkscape:connector-curvature="0" /></g><g
           id="g74"
           transform="translate(144.5549,117.1463)"><path
             d="m 0,0 c 0,-5.476 -4.439,-9.915 -9.915,-9.915 -5.475,0 -9.914,4.439 -9.914,9.915 0,5.476 4.439,9.915 9.914,9.915 C -4.439,9.915 0,5.476 0,0 Z"
             style="fill:none;stroke:#231f20;stroke-width:0.28299999;stroke-linecap:butt;stroke-linejoin:miter;stroke-miterlimit:10;stroke-dasharray:none;stroke-opacity:1"
             id="path76"
             inkscape:connector-curvature="0" /></g><g
           id="g78"
           transform="translate(141.0231,128.3465)"><path
             d="m 0,0 c 3.887,-2.22 6.506,-6.404 6.506,-11.2 0,-7.119 -5.77,-12.889 -12.889,-12.889 -7.118,0 -12.889,5.77 -12.889,12.889 0,7.118 5.771,12.889 12.889,12.889 C -4.061,1.689 -1.882,1.075 0,0"
             style="fill:none;stroke:#231f20;stroke-width:0.28299999;stroke-linecap:butt;stroke-linejoin:miter;stroke-miterlimit:10;stroke-dasharray:none;stroke-opacity:1"
             id="path80"
             inkscape:connector-curvature="0" /></g><g
           id="g82"
           transform="translate(160.4838,117.1463)"><path
             d="m 0,0 c 0,-14.273 -11.571,-25.844 -25.844,-25.844 -14.273,0 -25.843,11.571 -25.843,25.844 0,14.273 11.57,25.844 25.843,25.844 C -11.571,25.844 0,14.273 0,0 Z"
             style="fill:none;stroke:#231f20;stroke-width:0.70899999;stroke-linecap:butt;stroke-linejoin:miter;stroke-miterlimit:10;stroke-dasharray:none;stroke-opacity:1"
             id="path84"
             inkscape:connector-curvature="0" /></g><g
           id="g86"
           transform="translate(115.7232,99.5161)"><path
             d="M 0,0 3.765,2.174 C 2.389,3.521 1.183,5.063 0.173,6.813 c -1.011,1.75 -1.749,3.583 -2.228,5.449 h 0.002 l -3.77,-2.176"
             style="fill:none;stroke:#231f20;stroke-width:0.70899999;stroke-linecap:round;stroke-linejoin:round;stroke-miterlimit:10;stroke-dasharray:none;stroke-opacity:1"
             id="path88"
             inkscape:connector-curvature="0" /></g><g
           id="g90"
           transform="translate(153.5166,134.7836)"><path
             d="m 0,0 -3.769,-2.176 v 0 c 1.377,-1.347 2.595,-2.903 3.605,-4.653 1.008,-1.744 1.744,-3.571 2.223,-5.431 l -0.006,-0.002 3.77,2.176"
             style="fill:none;stroke:#231f20;stroke-width:0.70899999;stroke-linecap:round;stroke-linejoin:round;stroke-miterlimit:10;stroke-dasharray:none;stroke-opacity:1"
             id="path92"
             inkscape:connector-curvature="0" /></g><g
           id="g94"
           transform="translate(140.3695,91.9399)"><path
             d="M 0,0 -0.021,4.342 C -3.872,3.282 -7.88,3.336 -11.609,4.387 l -0.035,-4.344"
             style="fill:none;stroke:#231f20;stroke-width:0.70899999;stroke-linecap:butt;stroke-linejoin:miter;stroke-miterlimit:10;stroke-dasharray:none;stroke-opacity:1"
             id="path96"
             inkscape:connector-curvature="0" /></g><g
           id="g98"
           transform="translate(128.8271,142.3341)"><path
             d="m 0,0 v -4.246 c 4.035,1.208 7.589,0.966 11.504,-0.163 l 0.129,4.392"
             style="fill:none;stroke:#231f20;stroke-width:0.70899999;stroke-linecap:round;stroke-linejoin:round;stroke-miterlimit:10;stroke-dasharray:none;stroke-opacity:1"
             id="path100"
             inkscape:connector-curvature="0" /></g><g
           id="g102"
           transform="translate(109.8023,124.5319)"><path
             d="M 0,0 3.83,-2.191 C 4.767,1.588 6.716,5.112 9.561,7.941 l -3.738,2.145"
             style="fill:none;stroke:#231f20;stroke-width:0.70899999;stroke-linecap:round;stroke-linejoin:round;stroke-miterlimit:10;stroke-dasharray:none;stroke-opacity:1"
             id="path104"
             inkscape:connector-curvature="0" /></g><g
           id="g106"
           transform="translate(159.3413,109.594)"><path
             d="m 0,0 -3.776,2.148 c -0.968,-3.752 -2.937,-7.243 -5.791,-10.04 l 3.75,-2.196"
             style="fill:none;stroke:#231f20;stroke-width:0.70899999;stroke-linecap:butt;stroke-linejoin:miter;stroke-miterlimit:10;stroke-dasharray:none;stroke-opacity:1"
             id="path108"
             inkscape:connector-curvature="0" /></g><g
           id="g110"
           transform="translate(151.2988,119.771)"><path
             d="m 0,0 -0.059,-0.009 h -1.808 v -5.99 c 0,0 1.732,0 1.732,0"
             style="fill:none;stroke:#231f20;stroke-width:0.99199998;stroke-linecap:round;stroke-linejoin:miter;stroke-miterlimit:10;stroke-dasharray:none;stroke-opacity:1"
             id="path112"
             inkscape:connector-curvature="0" /></g><g
           id="g114"
           transform="translate(146.8377,128.7885)"><path
             d="m 0,0 c 2.318,-2.428 3.919,-5.547 4.461,-9.018 0,0 0.135,-1.921 0.17,-2.563 0.062,-1.156 -0.304,-3.435 -0.304,-3.435 -1.563,-7.696 -8.367,-13.488 -16.525,-13.488 -3.097,0 -6,0.835 -8.494,2.293"
             style="fill:none;stroke:#231f20;stroke-width:0.99199998;stroke-linecap:round;stroke-linejoin:miter;stroke-miterlimit:10;stroke-dasharray:none;stroke-opacity:1"
             id="path116"
             inkscape:connector-curvature="0" /></g><g
           id="g118"
           transform="translate(126.1454,102.5775)"><path
             d="m 0,0 c -5.005,2.924 -8.367,8.354 -8.367,14.569 0,9.312 7.549,16.862 16.862,16.862 4.797,0 9.127,-2.004 12.197,-5.22"
             style="fill:none;stroke:#231f20;stroke-width:0.70899999;stroke-linecap:butt;stroke-linejoin:miter;stroke-miterlimit:10;stroke-dasharray:none;stroke-opacity:1"
             id="path120"
             inkscape:connector-curvature="0" /></g><g
           id="g122"
           transform="translate(84.2853,117.2368)"><path
             d="M 0,0 H 95.498"
             style="fill:none;stroke:#231f20;stroke-width:0.28299999;stroke-linecap:round;stroke-linejoin:miter;stroke-miterlimit:10;stroke-dasharray:11.339, 2.835, 2.835, 2.835;stroke-dashoffset:0;stroke-opacity:1"
             id="path124"
             inkscape:connector-curvature="0" /></g><g
           id="g126"
           transform="translate(115.4446,39.8145)"><path
             d="m 0,0 c 2.628,0 6.057,-2.193 8.3,-4.551 2.588,-2.718 6.547,-3.924 10.594,-3.924 8.978,0 16.256,7.277 16.256,16.255 0,8.978 -7.278,16.256 -16.256,16.256 -4.019,0 -7.743,-1.403 -10.531,-3.873 C 5.563,17.682 1.823,16.342 0,16.342 Z"
             style="fill:#ffffff;fill-opacity:1;fill-rule:nonzero;stroke:none"
             id="path128"
             inkscape:connector-curvature="0" /></g><g
           id="g130"
           transform="translate(115.4446,39.8145)"><path
             d="m 0,0 c 2.628,0 6.057,-2.193 8.3,-4.551 2.588,-2.718 6.547,-3.924 10.594,-3.924 8.978,0 16.256,7.277 16.256,16.255 0,8.978 -7.278,16.256 -16.256,16.256 -4.019,0 -7.743,-1.403 -10.531,-3.873 C 5.563,17.682 1.823,16.342 0,16.342 Z"
             style="fill:none;stroke:#000000;stroke-width:1;stroke-linecap:round;stroke-linejoin:round;stroke-miterlimit:10;stroke-dasharray:none;stroke-opacity:1"
             id="path132"
             inkscape:connector-curvature="0" /></g><g
           id="g134"
           transform="translate(148.5443,47.5946)"><path
             d="m 0,0 c 0,-7.846 -6.36,-14.206 -14.205,-14.206 -7.847,0 -14.205,6.36 -14.205,14.206 0,7.846 6.358,14.205 14.205,14.205 C -6.36,14.205 0,7.846 0,0 Z"
             style="fill:none;stroke:#000000;stroke-width:0.5;stroke-linecap:round;stroke-linejoin:round;stroke-miterlimit:10;stroke-dasharray:none;stroke-opacity:1"
             id="path136"
             inkscape:connector-curvature="0" /></g><g
           id="g138"
           transform="translate(145.6843,47.5946)"><path
             d="m 0,0 c 0,-6.267 -5.078,-11.347 -11.345,-11.347 -6.266,0 -11.347,5.08 -11.347,11.347 0,6.265 5.081,11.344 11.347,11.344 C -5.078,11.344 0,6.265 0,0 Z"
             style="fill:none;stroke:#000000;stroke-width:0.5;stroke-linecap:round;stroke-linejoin:round;stroke-miterlimit:10;stroke-dasharray:none;stroke-opacity:1"
             id="path140"
             inkscape:connector-curvature="0" /></g><g
           id="g142"
           transform="translate(129.952,42.0137)"><path
             d="m 0,0 h 9.191 c 0.489,0 0.886,0.397 0.886,0.886 v 9.146 c 0,0.49 -0.397,0.886 -0.886,0.886 H 0 c -0.489,0 -0.886,-0.396 -0.886,-0.886 V 0.886 C -0.886,0.397 -0.489,0 0,0"
             style="fill:#ffffff;fill-opacity:1;fill-rule:nonzero;stroke:none"
             id="path144"
             inkscape:connector-curvature="0" /></g><g
           id="g146"
           transform="translate(129.952,42.0137)"><path
             d="m 0,0 h 9.191 c 0.489,0 0.886,0.397 0.886,0.886 v 9.146 c 0,0.49 -0.397,0.886 -0.886,0.886 H 0 c -0.489,0 -0.886,-0.396 -0.886,-0.886 V 0.886 C -0.886,0.397 -0.489,0 0,0 Z"
             style="fill:none;stroke:#231f20;stroke-width:0.70899999;stroke-linecap:butt;stroke-linejoin:miter;stroke-miterlimit:10;stroke-dasharray:none;stroke-opacity:1"
             id="path148"
             inkscape:connector-curvature="0" /></g><path
           d="M 0,39.814 H 115.445 V 56.156 H 0 Z"
           style="fill:#ffffff;fill-opacity:1;fill-rule:nonzero;stroke:#000000;stroke-width:0.75;stroke-linecap:round;stroke-linejoin:round;stroke-miterlimit:10;stroke-dasharray:none;stroke-opacity:1"
           id="path150"
           inkscape:connector-curvature="0" /><g
           id="g152"
           transform="translate(134.7076,168.3643)"><path
             d="M 0,0 V -5.669"
             style="fill:none;stroke:#231f20;stroke-width:0.28299999;stroke-linecap:round;stroke-linejoin:miter;stroke-miterlimit:10;stroke-dasharray:none;stroke-opacity:1"
             id="path154"
             inkscape:connector-curvature="0" /></g><g
           id="g156"
           transform="translate(134.7076,159.8493)"><path
             d="M 0,0 V -4.269"
             style="fill:none;stroke:#231f20;stroke-width:0.28299999;stroke-linecap:round;stroke-linejoin:miter;stroke-miterlimit:10;stroke-dasharray:2.846, 2.846;stroke-dashoffset:0;stroke-opacity:1"
             id="path158"
             inkscape:connector-curvature="0" /></g><g
           id="g160"
           transform="translate(134.7076,154.1579)"><path
             d="M 0,0 V -138.017"
             style="fill:none;stroke:#231f20;stroke-width:0.28299999;stroke-linecap:round;stroke-linejoin:miter;stroke-miterlimit:10;stroke-dasharray:11.383, 2.846, 2.846, 2.846;stroke-dashoffset:0;stroke-opacity:1"
             id="path162"
             inkscape:connector-curvature="0" /></g><g
           id="g164"
           transform="translate(134.7076,14.7184)"><path
             d="M 0,0 V -5.669"
             style="fill:none;stroke:#231f20;stroke-width:0.28299999;stroke-linecap:round;stroke-linejoin:miter;stroke-miterlimit:10;stroke-dasharray:none;stroke-opacity:1"
             id="path166"
             inkscape:connector-curvature="0" /></g><g
           id="g168"
           transform="translate(85.5812,47.4995)"><path
             d="M 0,0 H 98.252"
             style="fill:none;stroke:#231f20;stroke-width:0.28299999;stroke-linecap:round;stroke-linejoin:miter;stroke-miterlimit:10;stroke-dasharray:11.339, 2.835, 2.835, 2.835;stroke-dashoffset:0;stroke-opacity:1"
             id="path170"
             inkscape:connector-curvature="0" /></g></g></g><g
       id="g172"><g
         id="g174"
         clip-path="url(#clipPath178)"><g
           id="g180"
           transform="translate(0,56.1564)"><path
             d="M 0,0 V -16.342"
             style="fill:none;stroke:#000000;stroke-width:0.5;stroke-linecap:round;stroke-linejoin:round;stroke-miterlimit:10;stroke-dasharray:none;stroke-opacity:1"
             id="path182"
             inkscape:connector-curvature="0" /></g></g></g><g
       id="g184"
       transform="translate(44.161,79.6529)"><path
         d="M 0,0 26.468,-31.179"
         style="fill:none;stroke:#ffffff;stroke-width:2;stroke-linecap:butt;stroke-linejoin:miter;stroke-miterlimit:10;stroke-dasharray:none;stroke-opacity:1"
         id="path186"
         inkscape:connector-curvature="0" /></g><g
       id="g188"><g
         id="g190"
         clip-path="url(#clipPath194)"><g
           id="g196"
           transform="translate(68.3362,46.5273)"><path
             d="M 0,0 C 1.075,-1.266 2.973,-1.421 4.24,-0.346 5.506,0.728 5.661,2.627 4.586,3.893 3.511,5.159 1.613,5.314 0.346,4.24 -0.92,3.165 -1.075,1.266 0,0"
             style="fill:#ffffff;fill-opacity:1;fill-rule:nonzero;stroke:none"
             id="path198"
             inkscape:connector-curvature="0" /></g><g
           id="g200"
           transform="translate(44.161,79.6529)"><path
             d="M 0,0 23.49,-27.417"
             style="fill:none;stroke:#000000;stroke-width:0.70899999;stroke-linecap:butt;stroke-linejoin:miter;stroke-miterlimit:10;stroke-dasharray:none;stroke-opacity:1"
             id="path202"
             inkscape:connector-curvature="0" /></g><g
           id="g204"
           transform="translate(66.8418,51.5423)"><path
             d="M 0,0 C 0.383,-0.447 1.056,-0.499 1.503,-0.116 1.95,0.267 2.002,0.94 1.619,1.387 1.236,1.834 0.563,1.886 0.116,1.503 -0.331,1.12 -0.383,0.447 0,0"
             style="fill:#000000;fill-opacity:1;fill-rule:nonzero;stroke:none"
             id="path206"
             inkscape:connector-curvature="0" /></g><g
           id="g208"
           transform="translate(169.0098,41.9977)"><path
             d="M 0,0 C -2.431,-14.636 -13.969,-26.174 -28.605,-28.606"
             style="fill:none;stroke:#000000;stroke-width:0.70899999;stroke-linecap:butt;stroke-linejoin:miter;stroke-miterlimit:10;stroke-dasharray:none;stroke-opacity:1"
             id="path210"
             inkscape:connector-curvature="0" /></g><g
           id="g212"
           transform="translate(168.7918,40.7457)"><path
             d="M 0,0 2.389,-1.796 2.455,-1.715 1.217,2.591 C 1.042,4.066 0.867,5.54 0.691,7.015 0.232,5.603 -0.228,4.191 -0.688,2.779 l -2.054,-3.982 0.035,-0.091 z"
             style="fill:#000000;fill-opacity:1;fill-rule:nonzero;stroke:none"
             id="path214"
             inkscape:connector-curvature="0" /></g><g
           id="g216"
           transform="translate(141.6554,13.6093)"><path
             d="m 0,0 1.796,-2.389 -0.081,-0.066 -4.306,1.238 c -1.475,0.175 -2.949,0.35 -4.424,0.526 1.412,0.459 2.824,0.919 4.236,1.379 L 1.203,2.742 1.294,2.707 Z"
             style="fill:#000000;fill-opacity:1;fill-rule:nonzero;stroke:none"
             id="path218"
             inkscape:connector-curvature="0" /></g><g
           id="g220"
           transform="translate(55.4995,143.4324)"><path
             d="M 0,0 37.167,-16.371"
             style="fill:none;stroke:#ffffff;stroke-width:1.41700006;stroke-linecap:butt;stroke-linejoin:miter;stroke-miterlimit:10;stroke-dasharray:none;stroke-opacity:1"
             id="path222"
             inkscape:connector-curvature="0" /></g><g
           id="g224"
           transform="translate(91.807,125.1104)"><path
             d="M 0,0 C 1.077,-0.474 2.335,0.014 2.81,1.091 3.284,2.169 2.796,3.427 1.718,3.901 0.641,4.376 -0.617,3.887 -1.091,2.81 -1.566,1.733 -1.077,0.474 0,0"
             style="fill:#ffffff;fill-opacity:1;fill-rule:nonzero;stroke:none"
             id="path226"
             inkscape:connector-curvature="0" /></g><g
           id="g228"
           transform="translate(55.4995,143.4324)"><path
             d="M 0,0 37.167,-16.371"
             style="fill:none;stroke:#000000;stroke-width:0.70899999;stroke-linecap:butt;stroke-linejoin:miter;stroke-miterlimit:10;stroke-dasharray:none;stroke-opacity:1"
             id="path230"
             inkscape:connector-curvature="0" /></g><g
           id="g232"
           transform="translate(92.2366,126.0857)"><path
             d="M 0,0 C 0.539,-0.237 1.168,0.007 1.405,0.546 1.642,1.084 1.398,1.713 0.859,1.951 0.321,2.188 -0.308,1.944 -0.546,1.405 -0.783,0.866 -0.539,0.237 0,0"
             style="fill:#000000;fill-opacity:1;fill-rule:nonzero;stroke:none"
             id="path234"
             inkscape:connector-curvature="0" /></g></g></g><text
       transform="matrix(1,0,0,-1,47.4995,142.833)"
       style="font-variant:normal;font-weight:bold;font-stretch:normal;font-size:10px;font-family:Arial;-inkscape-font-specification:Arial-BoldMT;writing-mode:lr-tb;fill:#000000;fill-opacity:1;fill-rule:nonzero;stroke:none"
       id="text242"><tspan
         x="0"
         y="0"
         id="tspan236">1</tspan><tspan
         x="-10.5"
         y="60.5"
         id="tspan238">2</tspan><tspan
         x="117.83 123.39 128.95"
         y="125.5"
         sodipodi:role="line"
         id="tspan240">90°</tspan></text>
<g
       id="g244"><g
         id="g246"
         clip-path="url(#clipPath250)"><g
           id="g252"
           transform="translate(175.2105,64.7402)"><path
             d="m 0,0 -7.572,8.439 c 0.968,0.869 1.924,1.778 2.84,2.703 L 3.32,3.159 C 2.249,2.078 1.132,1.016 0,0"
             style="fill:#000000;fill-opacity:1;fill-rule:nonzero;stroke:none"
             id="path254"
             inkscape:connector-curvature="0" /></g><g
           id="g256"
           transform="translate(179.8052,69.2168)"><path
             d="m 0,0 -8.236,7.791 c 1.194,1.264 2.352,2.587 3.441,3.935 L 4.023,4.599 C 2.751,3.023 1.397,1.476 0,0"
             style="fill:#000000;fill-opacity:1;fill-rule:nonzero;stroke:none"
             id="path258"
             inkscape:connector-curvature="0" /></g><g
           id="g260"
           transform="translate(200.8492,90.7642)"><path
             d="m 0,0 -7.466,14.778 -14.78,-7.46 5.669,-1.865 c -2.174,-4.993 -4.954,-9.71 -8.291,-14.043 l 8.982,-6.918 c 4.12,5.349 7.512,11.203 10.114,17.407 z"
             style="fill:#000000;fill-opacity:1;fill-rule:nonzero;stroke:none"
             id="path262"
             inkscape:connector-curvature="0" /></g><g
           id="g264"
           transform="translate(190.905,138.2803)"><path
             d="M 0,0 -33.802,-18.516"
             style="fill:none;stroke:#ffffff;stroke-width:1.5;stroke-linecap:butt;stroke-linejoin:miter;stroke-miterlimit:10;stroke-dasharray:none;stroke-opacity:1"
             id="path266"
             inkscape:connector-curvature="0" /></g><g
           id="g268"
           transform="translate(156.019,121.7424)"><path
             d="m 0,0 c -1.093,-0.598 -1.493,-1.97 -0.895,-3.062 0.599,-1.093 1.97,-1.493 3.063,-0.895 1.092,0.599 1.493,1.97 0.894,3.062 C 2.464,0.198 1.092,0.598 0,0"
             style="fill:#ffffff;fill-opacity:1;fill-rule:nonzero;stroke:none"
             id="path270"
             inkscape:connector-curvature="0" /></g><g
           id="g272"
           transform="translate(189.027,136.8148)"><path
             d="M 0,0 -31.865,-16.975"
             style="fill:none;stroke:#000000;stroke-width:0.70899999;stroke-linecap:butt;stroke-linejoin:miter;stroke-miterlimit:10;stroke-dasharray:none;stroke-opacity:1"
             id="path274"
             inkscape:connector-curvature="0" /></g><g
           id="g276"
           transform="translate(156.6614,120.7806)"><path
             d="m 0,0 c -0.519,-0.277 -0.716,-0.922 -0.44,-1.442 0.277,-0.519 0.923,-0.716 1.442,-0.439 0.52,0.276 0.716,0.922 0.44,1.441 C 1.165,0.08 0.519,0.277 0,0"
             style="fill:#000000;fill-opacity:1;fill-rule:nonzero;stroke:none"
             id="path278"
             inkscape:connector-curvature="0" /></g></g></g><text
       transform="matrix(1,0,0,-1,190.561,136.0459)"
       style="font-variant:normal;font-weight:bold;font-stretch:normal;font-size:10px;font-family:Arial;-inkscape-font-specification:Arial-BoldMT;writing-mode:lr-tb;fill:#000000;fill-opacity:1;fill-rule:nonzero;stroke:none"
       id="text282"><tspan
         x="0"
         y="0"
         id="tspan280">3</tspan></text>
</g></svg>