<?xml version="1.0" encoding="UTF-8" standalone="no"?>
<!-- Created with Inkscape (http://www.inkscape.org/) -->

<svg
   xmlns:dc="http://purl.org/dc/elements/1.1/"
   xmlns:cc="http://creativecommons.org/ns#"
   xmlns:rdf="http://www.w3.org/1999/02/22-rdf-syntax-ns#"
   xmlns:svg="http://www.w3.org/2000/svg"
   xmlns="http://www.w3.org/2000/svg"
   xmlns:sodipodi="http://sodipodi.sourceforge.net/DTD/sodipodi-0.dtd"
   xmlns:inkscape="http://www.inkscape.org/namespaces/inkscape"
   version="1.1"
   id="svg17728"
   xml:space="preserve"
   width="321.25333"
   height="245.66667"
   viewBox="0 0 321.25333 245.66667"
   sodipodi:docname="TP0476.svg"
   inkscape:version="0.92.4 (5da689c313, 2019-01-14)"><metadata
     id="metadata17734"><rdf:RDF><cc:Work
         rdf:about=""><dc:format>image/svg+xml</dc:format><dc:type
           rdf:resource="http://purl.org/dc/dcmitype/StillImage" /><dc:title></dc:title></cc:Work></rdf:RDF></metadata><defs
     id="defs17732"><clipPath
       clipPathUnits="userSpaceOnUse"
       id="clipPath17772"><path
         d="M 0,0 H 240.94 V 184.25 H 0 Z"
         id="path17770"
         inkscape:connector-curvature="0" /></clipPath><clipPath
       clipPathUnits="userSpaceOnUse"
       id="clipPath17792"><path
         d="M 0,0 H 240.94 V 184.25 H 0 Z"
         id="path17790"
         inkscape:connector-curvature="0" /></clipPath><clipPath
       clipPathUnits="userSpaceOnUse"
       id="clipPath18062"><path
         d="M 0,184.25 H 240.94 V 0 H 0 Z"
         id="path18060"
         inkscape:connector-curvature="0" /></clipPath></defs><sodipodi:namedview
     pagecolor="#ffffff"
     bordercolor="#666666"
     borderopacity="1"
     objecttolerance="10"
     gridtolerance="10"
     guidetolerance="10"
     inkscape:pageopacity="0"
     inkscape:pageshadow="2"
     inkscape:window-width="1147"
     inkscape:window-height="708"
     id="namedview17730"
     showgrid="false"
     inkscape:zoom="2.1940298"
     inkscape:cx="160.62666"
     inkscape:cy="122.83334"
     inkscape:window-x="697"
     inkscape:window-y="317"
     inkscape:window-maximized="0"
     inkscape:current-layer="g17736" /><g
     id="g17736"
     inkscape:groupmode="layer"
     inkscape:label="TP0476"
     transform="matrix(1.3333333,0,0,-1.3333333,0,245.66667)"><g
       id="g17738"
       transform="translate(31.5708,81.8799)"><path
         d="M 0,0 -0.326,-13.008"
         style="fill:none;stroke:#231f20;stroke-width:0.25;stroke-linecap:round;stroke-linejoin:round;stroke-miterlimit:4;stroke-dasharray:none;stroke-opacity:1"
         id="path17740"
         inkscape:connector-curvature="0" /></g><g
       id="g17742"
       transform="translate(30.7764,83.8662)"><path
         d="M 0,0 -0.326,-13.008"
         style="fill:none;stroke:#231f20;stroke-width:0.25;stroke-linecap:round;stroke-linejoin:round;stroke-miterlimit:4;stroke-dasharray:none;stroke-opacity:1"
         id="path17744"
         inkscape:connector-curvature="0" /></g><g
       id="g17746"
       transform="translate(35.7627,82.3496)"><path
         d="M 0,0 -0.325,-13.008"
         style="fill:none;stroke:#231f20;stroke-width:0.25;stroke-linecap:round;stroke-linejoin:round;stroke-miterlimit:4;stroke-dasharray:none;stroke-opacity:1"
         id="path17748"
         inkscape:connector-curvature="0" /></g><g
       id="g17750"
       transform="translate(226.6768,91.9414)"><path
         d="M 0,0 2.924,10.073"
         style="fill:none;stroke:#231f20;stroke-width:0.25;stroke-linecap:round;stroke-linejoin:round;stroke-miterlimit:4;stroke-dasharray:none;stroke-opacity:1"
         id="path17752"
         inkscape:connector-curvature="0" /></g><g
       id="g17754"
       transform="translate(4.5107,78.3076)"><path
         d="M 0,0 20.463,3.675"
         style="fill:none;stroke:#231f20;stroke-width:0.25;stroke-linecap:round;stroke-linejoin:round;stroke-miterlimit:4;stroke-dasharray:none;stroke-opacity:1"
         id="path17756"
         inkscape:connector-curvature="0" /></g><g
       id="g17758"
       transform="translate(24.0132,85.0352)"><path
         d="M 0,0 0.96,-3.054 1.163,-4.19"
         style="fill:none;stroke:#231f20;stroke-width:0.25;stroke-linecap:round;stroke-linejoin:round;stroke-miterlimit:4;stroke-dasharray:none;stroke-opacity:1"
         id="path17760"
         inkscape:connector-curvature="0" /></g><g
       id="g17762"
       transform="translate(4.2476,68.332)"><path
         d="M 0,0 20.68,3.713"
         style="fill:none;stroke:#231f20;stroke-width:0.5;stroke-linecap:round;stroke-linejoin:round;stroke-miterlimit:4;stroke-dasharray:none;stroke-opacity:1"
         id="path17764"
         inkscape:connector-curvature="0" /></g><g
       id="g17766"><g
         id="g17768"
         clip-path="url(#clipPath17772)"><g
           id="g17774"
           transform="translate(-1.1226,78.1416)"><path
             d="M 0,0 5.661,1.017"
             style="fill:none;stroke:#231f20;stroke-width:0.25;stroke-linecap:round;stroke-linejoin:round;stroke-miterlimit:4;stroke-dasharray:none;stroke-opacity:1"
             id="path17776"
             inkscape:connector-curvature="0" /></g></g></g><g
       id="g17778"
       transform="translate(19.0054,84.1777)"><path
         d="M 0,0 -1.546,4.917"
         style="fill:none;stroke:#231f20;stroke-width:0.25;stroke-linecap:round;stroke-linejoin:round;stroke-miterlimit:4;stroke-dasharray:none;stroke-opacity:1"
         id="path17780"
         inkscape:connector-curvature="0" /></g><g
       id="g17782"
       transform="translate(6.9229,81.9678)"><path
         d="M 0,0 -0.774,2.46"
         style="fill:none;stroke:#231f20;stroke-width:0.25;stroke-linecap:round;stroke-linejoin:round;stroke-miterlimit:4;stroke-dasharray:none;stroke-opacity:1"
         id="path17784"
         inkscape:connector-curvature="0" /></g><g
       id="g17786"><g
         id="g17788"
         clip-path="url(#clipPath17792)"><g
           id="g17794"
           transform="translate(2.7593,82.3066)"><path
             d="m 0,0 3.39,2.121 c 0,0 0.769,2.989 5.646,4.461 4.878,1.472 5.664,0.206 5.664,0.206 l -0.002,-0.001 6.988,2.505"
             style="fill:none;stroke:#231f20;stroke-width:0.25;stroke-linecap:round;stroke-linejoin:round;stroke-miterlimit:4;stroke-dasharray:none;stroke-opacity:1"
             id="path17796"
             inkscape:connector-curvature="0" /></g><g
           id="g17798"
           transform="translate(-1.8813,86.6953)"><path
             d="m 0,0 c 0,0 10.734,6.201 24.652,10.952 0,0 1.78,0.782 2.289,-0.822 l 0.715,-2.253"
             style="fill:none;stroke:#231f20;stroke-width:0.25;stroke-linecap:round;stroke-linejoin:round;stroke-miterlimit:4;stroke-dasharray:none;stroke-opacity:1"
             id="path17800"
             inkscape:connector-curvature="0" /></g><g
           id="g17802"
           transform="translate(33.4761,101.4565)"><path
             d="M 0,0 C -2.844,-0.355 -3.43,0.918 -3.43,0.918 -22.132,-4.544 -35.261,-11.731 -35.261,-11.731"
             style="fill:none;stroke:#231f20;stroke-width:0.5;stroke-linecap:round;stroke-linejoin:round;stroke-miterlimit:4;stroke-dasharray:none;stroke-opacity:1"
             id="path17804"
             inkscape:connector-curvature="0" /></g><g
           id="g17806"
           transform="translate(29.7534,102.375)"><path
             d="M 0,0 C 0,0 0.917,-0.575 1.04,-1.837"
             style="fill:none;stroke:#231f20;stroke-width:0.25;stroke-linecap:round;stroke-linejoin:round;stroke-miterlimit:4;stroke-dasharray:none;stroke-opacity:1"
             id="path17808"
             inkscape:connector-curvature="0" /></g><g
           id="g17810"
           transform="translate(28.0928,97.2969)"><path
             d="m 0,0 c -0.229,0.839 0.091,1.504 0.583,2.008 0.821,0.84 2.118,1.233 2.118,1.233 0,0 0.849,-1.125 3.858,-0.736"
             style="fill:none;stroke:#231f20;stroke-width:0.25;stroke-linecap:round;stroke-linejoin:round;stroke-miterlimit:4;stroke-dasharray:none;stroke-opacity:1"
             id="path17812"
             inkscape:connector-curvature="0" /></g><g
           id="g17814"
           transform="translate(34.5537,101.6216)"><path
             d="M 0,0 0.098,-1.82"
             style="fill:none;stroke:#231f20;stroke-width:0.5;stroke-linecap:round;stroke-linejoin:round;stroke-miterlimit:4;stroke-dasharray:none;stroke-opacity:1"
             id="path17816"
             inkscape:connector-curvature="0" /></g><g
           id="g17818"
           transform="translate(33.3779,103.9238)"><path
             d="M 0,0 0.098,-1.82"
             style="fill:none;stroke:#231f20;stroke-width:0.5;stroke-linecap:round;stroke-linejoin:round;stroke-miterlimit:4;stroke-dasharray:none;stroke-opacity:1"
             id="path17820"
             inkscape:connector-curvature="0" /></g><g
           id="g17822"
           transform="translate(49.0674,104.7192)"><path
             d="m 0,0 -14.514,-3.097 -1.126,2.49 c -20.477,-5.424 -35.231,-13.389 -35.231,-13.389"
             style="fill:none;stroke:#231f20;stroke-width:0.5;stroke-linecap:round;stroke-linejoin:round;stroke-miterlimit:4;stroke-dasharray:none;stroke-opacity:1"
             id="path17824"
             inkscape:connector-curvature="0" /></g><g
           id="g17826"
           transform="translate(29.8257,91.4473)"><path
             d="M 0,0 C 0.364,0.313 0.564,0.69 0.606,1.07"
             style="fill:none;stroke:#231f20;stroke-width:0.25;stroke-linecap:round;stroke-linejoin:round;stroke-miterlimit:4;stroke-dasharray:none;stroke-opacity:1"
             id="path17828"
             inkscape:connector-curvature="0" /></g><g
           id="g17830"
           transform="translate(24.1479,87.5732)"><path
             d="M 0,0 0.517,5.596 C 0.585,6.15 0.962,6.663 1.626,6.999"
             style="fill:none;stroke:#231f20;stroke-width:0.5;stroke-linecap:round;stroke-linejoin:round;stroke-miterlimit:4;stroke-dasharray:none;stroke-opacity:1"
             id="path17832"
             inkscape:connector-curvature="0" /></g><g
           id="g17834"
           transform="translate(24.1479,87.5732)"><path
             d="M 0,0 C -0.036,-0.308 0.022,-0.61 0.153,-0.877"
             style="fill:none;stroke:#231f20;stroke-width:0.25;stroke-linecap:round;stroke-linejoin:round;stroke-miterlimit:4;stroke-dasharray:none;stroke-opacity:1"
             id="path17836"
             inkscape:connector-curvature="0" /></g><g
           id="g17838"
           transform="translate(30.3374,90.1367)"><path
             d="M 0,0 0.214,2.32 C 0.32,3.192 -0.348,4.03 -1.403,4.476 l -0.842,2.685"
             style="fill:none;stroke:#231f20;stroke-width:0.5;stroke-linecap:round;stroke-linejoin:round;stroke-miterlimit:4;stroke-dasharray:none;stroke-opacity:1"
             id="path17840"
             inkscape:connector-curvature="0" /></g><g
           id="g17842"
           transform="translate(26.9712,90.7969)"><path
             d="M 0,0 -0.343,-3.703"
             style="fill:none;stroke:#231f20;stroke-width:0.25;stroke-linecap:round;stroke-linejoin:round;stroke-miterlimit:4;stroke-dasharray:none;stroke-opacity:1"
             id="path17844"
             inkscape:connector-curvature="0" /></g><g
           id="g17846"
           transform="translate(24.7764,93.0708)"><path
             d="m 0,0 c -0.121,-1.01 0.831,-1.971 2.195,-2.274 0,-10e-4 0.808,-2.548 0.808,-2.548 0.032,-0.095 0.044,-0.202 0.031,-0.31"
             style="fill:none;stroke:#231f20;stroke-width:0.25;stroke-linecap:round;stroke-linejoin:round;stroke-miterlimit:4;stroke-dasharray:none;stroke-opacity:1"
             id="path17848"
             inkscape:connector-curvature="0" /></g><g
           id="g17850"
           transform="translate(4.0288,81.4482)"><path
             d="m 0,0 19.984,3.587 0.041,1.617 2.792,0.48 c 0.55,0.093 0.913,0.418 0.964,0.806"
             style="fill:none;stroke:#231f20;stroke-width:0.5;stroke-linecap:round;stroke-linejoin:round;stroke-miterlimit:4;stroke-dasharray:none;stroke-opacity:1"
             id="path17852"
             inkscape:connector-curvature="0" /></g><g
           id="g17854"
           transform="translate(4.5024,77.1348)"><path
             d="m 0,0 20.674,3.711 0.052,2.07 -0.052,-2.07 0.052,2.07 5.548,0.95 0.794,-1.987 4.192,0.471 c 0,0 1.128,2.009 7.123,4.462 10.335,4.227 44.495,14.805 97.803,14.199 42.905,-0.486 85.988,-9.069 85.988,-9.069 0,0 1.841,-2.145 4.696,-3.084 2.855,-0.941 7.769,-2.71 10.985,-5.094"
             style="fill:none;stroke:#231f20;stroke-width:0.25;stroke-linecap:round;stroke-linejoin:round;stroke-miterlimit:4;stroke-dasharray:none;stroke-opacity:1"
             id="path17856"
             inkscape:connector-curvature="0" /></g><g
           id="g17858"
           transform="translate(25.0386,72.0107)"><path
             d="M 0,0 -0.051,-2.022"
             style="fill:none;stroke:#231f20;stroke-width:0.25;stroke-linecap:round;stroke-linejoin:round;stroke-miterlimit:4;stroke-dasharray:none;stroke-opacity:1"
             id="path17860"
             inkscape:connector-curvature="0" /></g><g
           id="g17862"
           transform="translate(24.2681,71.9258)"><path
             d="m 0,0 0.635,-2.017 5.547,0.95 0.795,-1.987 4.192,0.469 c 0,0 1.129,2.01 7.122,4.463 10.335,4.228 44.497,14.805 97.805,14.199 42.905,-0.487 85.987,-9.07 85.987,-9.07 0,0 1.544,0.919 4.724,-0.273 3.179,-1.193 8.274,-3.325 11.31,-5.384"
             style="fill:none;stroke:#231f20;stroke-width:0.5;stroke-linecap:round;stroke-linejoin:round;stroke-miterlimit:4;stroke-dasharray:none;stroke-opacity:1"
             id="path17864"
             inkscape:connector-curvature="0" /></g><g
           id="g17866"
           transform="translate(-0.8906,65.2334)"><path
             d="M 0,0 5.104,0.917 5.429,13.925 4.676,17.258 -0.986,16.243"
             style="fill:none;stroke:#231f20;stroke-width:0.5;stroke-linecap:round;stroke-linejoin:round;stroke-miterlimit:4;stroke-dasharray:none;stroke-opacity:1"
             id="path17868"
             inkscape:connector-curvature="0" /></g><g
           id="g17870"
           transform="translate(233.7588,105.5229)"><path
             d="M 0,0 -1.131,-3.494"
             style="fill:none;stroke:#231f20;stroke-width:0.5;stroke-linecap:round;stroke-linejoin:round;stroke-miterlimit:4;stroke-dasharray:none;stroke-opacity:1"
             id="path17872"
             inkscape:connector-curvature="0" /></g><g
           id="g17874"
           transform="translate(242.3389,102.3389)"><path
             d="m 0,0 -4.262,0.914 c -3.533,0.722 -4.317,2.27 -4.317,2.27 -3.946,1.131 -3.235,1.293 -5.888,2.49 -2.65,1.196 -4.718,1.366 -4.718,1.366 -86.504,13.703 -146.261,8.933 -182.223,1.533 C -230.784,2.527 -244.177,-5.4 -244.177,-5.4"
             style="fill:none;stroke:#231f20;stroke-width:1;stroke-linecap:round;stroke-linejoin:round;stroke-miterlimit:4;stroke-dasharray:none;stroke-opacity:1"
             id="path17876"
             inkscape:connector-curvature="0" /></g><g
           id="g17878"
           transform="translate(48.3501,107.0132)"><path
             d="m 0,0 0.619,-2.852 0.099,-1.84 -0.001,0.019 -14.513,-3.096 -1.127,2.49"
             style="fill:none;stroke:#231f20;stroke-width:1;stroke-linecap:round;stroke-linejoin:round;stroke-miterlimit:4;stroke-dasharray:none;stroke-opacity:1"
             id="path17880"
             inkscape:connector-curvature="0" /></g><g
           id="g17882"
           transform="translate(52.4482,107.0132)"><path
             d="M 0,0 C 0,0 -0.267,-1.135 0.281,-2.044"
             style="fill:none;stroke:#231f20;stroke-width:0.25;stroke-linecap:round;stroke-linejoin:round;stroke-miterlimit:4;stroke-dasharray:none;stroke-opacity:1"
             id="path17884"
             inkscape:connector-curvature="0" /></g><g
           id="g17886"
           transform="translate(48.5566,107.0713)"><path
             d="M 0,0 C 0,0 30.172,5.057 66.825,5.746"
             style="fill:none;stroke:#231f20;stroke-width:0.5;stroke-linecap:round;stroke-linejoin:round;stroke-miterlimit:4;stroke-dasharray:none;stroke-opacity:1"
             id="path17888"
             inkscape:connector-curvature="0" /></g><g
           id="g17890"
           transform="translate(115.6104,109.5776)"><path
             d="m 0,0 c -5.614,-0.085 -7.311,2.198 -7.311,2.198 -26.112,-0.505 -55.81,-4.878 -55.81,-4.878 -0.49,-0.586 -1.59,-1.681 -3.381,-2.294"
             style="fill:none;stroke:#231f20;stroke-width:0.5;stroke-linecap:round;stroke-linejoin:round;stroke-miterlimit:4;stroke-dasharray:none;stroke-opacity:1"
             id="path17892"
             inkscape:connector-curvature="0" /></g><g
           id="g17894"
           transform="translate(115.6582,110.6479)"><path
             d="M 0,0 H 15.275"
             style="fill:none;stroke:#231f20;stroke-width:0.5;stroke-linecap:round;stroke-linejoin:round;stroke-miterlimit:4;stroke-dasharray:none;stroke-opacity:1"
             id="path17896"
             inkscape:connector-curvature="0" /></g><g
           id="g17898"
           transform="translate(130.7236,108.6465)"><path
             d="M 0,0 0.098,1.551"
             style="fill:none;stroke:#231f20;stroke-width:0.417;stroke-linecap:round;stroke-linejoin:round;stroke-miterlimit:4;stroke-dasharray:none;stroke-opacity:1"
             id="path17900"
             inkscape:connector-curvature="0" /></g><g
           id="g17902"
           transform="translate(130.9346,112.4829)"><path
             d="m 0,0 -0.112,-2.821 -0.099,-1.55 h -15.081 l -0.281,4.513"
             style="fill:none;stroke:#231f20;stroke-width:1;stroke-linecap:round;stroke-linejoin:round;stroke-miterlimit:4;stroke-dasharray:none;stroke-opacity:1"
             id="path17904"
             inkscape:connector-curvature="0" /></g><g
           id="g17906"
           transform="translate(58.1558,99.9131)"><path
             d="m 0,0 c 0.013,0.248 -0.041,0.508 -0.203,0.778 -0.505,0.84 -0.462,1.26 -1.134,2.942 -0.673,1.683 -4.09,1.336 -4.09,1.336 0,0 -1.034,-1.224 -3.563,-2.09"
             style="fill:none;stroke:#231f20;stroke-width:0.25;stroke-linecap:round;stroke-linejoin:round;stroke-miterlimit:4;stroke-dasharray:none;stroke-opacity:1"
             id="path17908"
             inkscape:connector-curvature="0" /></g><g
           id="g17910"
           transform="translate(58.1558,99.9131)"><path
             d="m 0,0 c -0.027,-0.526 -0.352,-0.996 -0.581,-1.368 -0.336,-0.545 -0.672,-0.798 -0.672,-1.64 0,-0.839 0.186,-2.89 -1.366,-3.352 0,0 -5.075,-1.493 -10.374,-3.185 -5.299,-1.691 -7.588,-3.258 -8.509,-3.857 -0.92,-0.596 -1.493,-1.542 -3.284,-1.218 -1.792,0.324 -2.253,2.356 -2.253,2.356 l -1.171,3.737"
             style="fill:none;stroke:#231f20;stroke-width:0.5;stroke-linecap:round;stroke-linejoin:round;stroke-miterlimit:4;stroke-dasharray:none;stroke-opacity:1"
             id="path17912"
             inkscape:connector-curvature="0" /></g><g
           id="g17914"
           transform="translate(30.064,93.8354)"><path
             d="M 0,0 C 0,0 11.201,3.152 24.488,4.876"
             style="fill:none;stroke:#231f20;stroke-width:0.25;stroke-linecap:round;stroke-linejoin:round;stroke-miterlimit:4;stroke-dasharray:none;stroke-opacity:1"
             id="path17916"
             inkscape:connector-curvature="0" /></g><g
           id="g17918"
           transform="translate(54.5522,98.7119)"><path
             d="M 0,0 C 0,0 1.513,0.379 2.38,-1.412"
             style="fill:none;stroke:#231f20;stroke-width:0.25;stroke-linecap:round;stroke-linejoin:round;stroke-miterlimit:4;stroke-dasharray:none;stroke-opacity:1"
             id="path17920"
             inkscape:connector-curvature="0" /></g><g
           id="g17922"
           transform="translate(100.5815,106.832)"><path
             d="m 0,0 c -0.048,0.411 -0.274,0.897 -0.763,1.472 -0.938,1.1 -2.32,0.957 -2.32,0.957 C -21.951,1.507 -37.4,-0.758 -37.4,-0.758 c 0,0 -1.943,-0.225 -1.782,-1.777"
             style="fill:none;stroke:#231f20;stroke-width:0.25;stroke-linecap:round;stroke-linejoin:round;stroke-miterlimit:4;stroke-dasharray:none;stroke-opacity:1"
             id="path17924"
             inkscape:connector-curvature="0" /></g><g
           id="g17926"
           transform="translate(100.5815,106.832)"><path
             d="m 0,0 c 0.043,-0.376 -0.061,-0.691 -0.247,-0.954 -0.388,-0.55 -1.035,-1.423 -1.066,-2.231 -0.032,-0.81 -0.277,-1.783 -1.701,-1.974 -17.205,-2.264 -29.797,-5.008 -29.797,-5.008 -1.584,-0.163 -2.199,0.355 -2.425,0.743 -0.226,0.389 -0.841,1.261 -1.584,1.973 -0.744,0.711 -1.521,1.068 -1.812,1.65 -0.29,0.582 -0.388,1.713 -0.55,3.266"
             style="fill:none;stroke:#231f20;stroke-width:0.5;stroke-linecap:round;stroke-linejoin:round;stroke-miterlimit:4;stroke-dasharray:none;stroke-opacity:1"
             id="path17928"
             inkscape:connector-curvature="0" /></g><g
           id="g17930"
           transform="translate(130.918,112.6245)"><path
             d="M 0,0 C 0,0 36.058,-0.015 71.374,-5.344"
             style="fill:none;stroke:#231f20;stroke-width:0.5;stroke-linecap:round;stroke-linejoin:round;stroke-miterlimit:4;stroke-dasharray:none;stroke-opacity:1"
             id="path17932"
             inkscape:connector-curvature="0" /></g><g
           id="g17934"
           transform="translate(201.9854,104.7729)"><path
             d="M 0,0 14.32,-2.245"
             style="fill:none;stroke:#231f20;stroke-width:0.5;stroke-linecap:round;stroke-linejoin:round;stroke-miterlimit:4;stroke-dasharray:none;stroke-opacity:1"
             id="path17936"
             inkscape:connector-curvature="0" /></g><g
           id="g17938"
           transform="translate(217.4951,104.9082)"><path
             d="M 0,0 0.019,-1.493"
             style="fill:none;stroke:#231f20;stroke-width:0.5;stroke-linecap:round;stroke-linejoin:round;stroke-miterlimit:4;stroke-dasharray:none;stroke-opacity:1"
             id="path17940"
             inkscape:connector-curvature="0" /></g><g
           id="g17942"
           transform="translate(217.665,102.9463)"><path
             d="m 0,0 -0.908,-2.723 -14.918,2.387 -0.022,1.868 0.308,2.508"
             style="fill:none;stroke:#231f20;stroke-width:1;stroke-linecap:round;stroke-linejoin:round;stroke-miterlimit:4;stroke-dasharray:none;stroke-opacity:1"
             id="path17944"
             inkscape:connector-curvature="0" /></g><g
           id="g17946"
           transform="translate(216.3301,100.5146)"><path
             d="M 0,0 -0.025,2.013 0.881,4.502 16.298,1.514 c 0,0 0.785,-1.547 4.317,-2.269 l 5.449,-1.169"
             style="fill:none;stroke:#231f20;stroke-width:0.5;stroke-linecap:round;stroke-linejoin:round;stroke-miterlimit:4;stroke-dasharray:none;stroke-opacity:1"
             id="path17948"
             inkscape:connector-curvature="0" /></g><g
           id="g17950"
           transform="translate(242.4111,95.2759)"><path
             d="m 0,0 -7.963,1.628 c -1.656,0.363 -3.487,1.333 -4.554,1.657 -1.013,0.308 -1.302,-0.024 -1.302,-0.024"
             style="fill:none;stroke:#231f20;stroke-width:0.25;stroke-linecap:round;stroke-linejoin:round;stroke-miterlimit:4;stroke-dasharray:none;stroke-opacity:1"
             id="path17952"
             inkscape:connector-curvature="0" /></g><g
           id="g17954"
           transform="translate(227.8428,95.9619)"><path
             d="M 0,0 C 0,0 -0.039,-0.238 -0.039,-0.575"
             style="fill:none;stroke:#231f20;stroke-width:0.25;stroke-linecap:round;stroke-linejoin:round;stroke-miterlimit:4;stroke-dasharray:none;stroke-opacity:1"
             id="path17956"
             inkscape:connector-curvature="0" /></g><g
           id="g17958"
           transform="translate(227.8037,95.3867)"><path
             d="m 0,0 c 0,-0.606 0.125,-1.542 0.829,-2.059 0.818,-0.676 2.048,-1.513 3.56,-2.01 2.65,-0.872 7.074,-2.46 10.268,-4.592"
             style="fill:none;stroke:#231f20;stroke-width:0.5;stroke-linecap:round;stroke-linejoin:round;stroke-miterlimit:4;stroke-dasharray:none;stroke-opacity:1"
             id="path17960"
             inkscape:connector-curvature="0" /></g><g
           id="g17962"
           transform="translate(229.085,92.9707)"><path
             d="m 0,0 c 0,0 0.195,0.582 2.003,0.161 1.807,-0.42 8.325,-2.143 11.351,-2.734"
             style="fill:none;stroke:#231f20;stroke-width:0.25;stroke-linecap:round;stroke-linejoin:round;stroke-miterlimit:4;stroke-dasharray:none;stroke-opacity:1"
             id="path17964"
             inkscape:connector-curvature="0" /></g><g
           id="g17966"
           transform="translate(196.7109,107.5322)"><path
             d="M 0,0 C 0,0 0.377,-1.083 -0.005,-2.093"
             style="fill:none;stroke:#231f20;stroke-width:0.25;stroke-linecap:round;stroke-linejoin:round;stroke-miterlimit:4;stroke-dasharray:none;stroke-opacity:1"
             id="path17968"
             inkscape:connector-curvature="0" /></g><g
           id="g17970"
           transform="translate(12.3564,73.6787)"><path
             d="m 0,0 c 0.198,-0.467 0.809,-0.673 1.478,-0.534 l 1.991,0.421 -0.004,-0.001 c 0.145,0.03 0.283,0.075 0.403,0.126 0.799,0.338 1.251,1.07 1.012,1.633"
             style="fill:none;stroke:#231f20;stroke-width:0.25;stroke-linecap:round;stroke-linejoin:round;stroke-miterlimit:4;stroke-dasharray:none;stroke-opacity:1"
             id="path17972"
             inkscape:connector-curvature="0" /></g><g
           id="g17974"
           transform="translate(17.2363,75.3242)"><path
             d="m 0,0 c -0.198,0.468 -0.809,0.675 -1.478,0.536 l -1.99,-0.422 10e-4,0.002 C -3.61,0.085 -3.748,0.041 -3.868,-0.011 -4.667,-0.349 -5.119,-1.082 -4.88,-1.645"
             style="fill:none;stroke:#231f20;stroke-width:0.5;stroke-linecap:round;stroke-linejoin:round;stroke-miterlimit:4;stroke-dasharray:none;stroke-opacity:1"
             id="path17976"
             inkscape:connector-curvature="0" /></g><g
           id="g17978"
           transform="translate(130.8076,109.6953)"><path
             d="M 0,0 C 5.603,0.134 6.729,2.171 6.729,2.171 17.928,1.917 41.646,1.006 65.916,-2.289 h -0.01 c 0,0 1.701,-2.165 5.276,-3.006"
             style="fill:none;stroke:#231f20;stroke-width:0.5;stroke-linecap:round;stroke-linejoin:round;stroke-miterlimit:4;stroke-dasharray:none;stroke-opacity:1"
             id="path17980"
             inkscape:connector-curvature="0" /></g><g
           id="g17982"
           transform="translate(137.543,111.7593)"><path
             d="M 0,0 C 0,0 -0.056,-0.91 0.138,-1.976"
             style="fill:none;stroke:#231f20;stroke-width:0.25;stroke-linecap:round;stroke-linejoin:round;stroke-miterlimit:4;stroke-dasharray:none;stroke-opacity:1"
             id="path17984"
             inkscape:connector-curvature="0" /></g><g
           id="g17986"
           transform="translate(108.2578,111.8911)"><path
             d="M 0,0 C 0,0 0.323,-0.841 0.064,-2.071"
             style="fill:none;stroke:#231f20;stroke-width:0.25;stroke-linecap:round;stroke-linejoin:round;stroke-miterlimit:4;stroke-dasharray:none;stroke-opacity:1"
             id="path17988"
             inkscape:connector-curvature="0" /></g><g
           id="g17990"
           transform="translate(141.3857,107.2969)"><path
             d="m 0,0 c -0.018,0.465 -0.245,1.089 -0.957,1.664 -1.268,1.019 -2.749,0.822 -2.749,0.822 -2.312,-1.619 -7.192,-1.713 -7.192,-1.713 0,0 -8.411,-0.098 -14.556,-0.098 -6.145,0 -7.61,1.848 -7.61,1.848 0,0 -2.212,0.042 -3.052,-1.024 -0.371,-0.471 -0.521,-0.865 -0.522,-1.213"
             style="fill:none;stroke:#231f20;stroke-width:0.25;stroke-linecap:round;stroke-linejoin:round;stroke-miterlimit:4;stroke-dasharray:none;stroke-opacity:1"
             id="path17992"
             inkscape:connector-curvature="0" /></g><g
           id="g17994"
           transform="translate(141.3857,107.2969)"><path
             d="m 0,0 c 0.014,-0.361 -0.161,-0.713 -0.487,-1.095 -0.745,-0.87 -0.995,-1.244 -1.22,-1.791 -0.223,-0.547 -0.643,-0.935 -1.915,-0.918 -14.485,0.218 -28.387,-0.714 -28.387,-0.714 -1.941,-0.032 -2.361,1.326 -2.653,2.006 -0.291,0.678 -0.776,1.035 -1.39,1.65 -0.343,0.343 -0.586,0.707 -0.586,1.148"
             style="fill:none;stroke:#231f20;stroke-width:0.5;stroke-linecap:round;stroke-linejoin:round;stroke-miterlimit:4;stroke-dasharray:none;stroke-opacity:1"
             id="path17996"
             inkscape:connector-curvature="0" /></g><g
           id="g17998"
           transform="translate(62.9736,100.0342)"><path
             d="M 0,0 C 0,0 21.365,2.759 36.295,3.613"
             style="fill:none;stroke:#231f20;stroke-width:0.25;stroke-linecap:round;stroke-linejoin:round;stroke-miterlimit:4;stroke-dasharray:none;stroke-opacity:1"
             id="path18000"
             inkscape:connector-curvature="0" /></g><g
           id="g18002"
           transform="translate(107.0767,104.0151)"><path
             d="M 0,0 C 0,0 21.498,0.836 32.438,0.085"
             style="fill:none;stroke:#231f20;stroke-width:0.25;stroke-linecap:round;stroke-linejoin:round;stroke-miterlimit:4;stroke-dasharray:none;stroke-opacity:1"
             id="path18004"
             inkscape:connector-curvature="0" /></g><g
           id="g18006"
           transform="translate(217.2109,102.0747)"><path
             d="m 0,0 c 3.583,0.075 4.255,0.871 4.628,1.144 0.374,0.274 0.72,0.126 0.72,0.126 l 7.042,-1.33 c 0,0 1.614,-1.622 4.848,-2.33 L 25.2,-4.016"
             style="fill:none;stroke:#231f20;stroke-width:0.5;stroke-linecap:round;stroke-linejoin:round;stroke-miterlimit:4;stroke-dasharray:none;stroke-opacity:1"
             id="path18008"
             inkscape:connector-curvature="0" /></g><g
           id="g18010"
           transform="translate(222.0498,103.3447)"><path
             d="M 0,0 C 0,0 -0.634,-0.324 -0.584,-1.643"
             style="fill:none;stroke:#231f20;stroke-width:0.25;stroke-linecap:round;stroke-linejoin:round;stroke-miterlimit:4;stroke-dasharray:none;stroke-opacity:1"
             id="path18012"
             inkscape:connector-curvature="0" /></g><g
           id="g18014"
           transform="translate(184.2852,104.3164)"><path
             d="m 0,0 c 0.084,2.271 -2.098,2.601 -2.098,2.601 -17.73,2.425 -34.507,2.691 -34.507,2.691 0,0 -1.702,-0.063 -1.922,-1.639"
             style="fill:none;stroke:#231f20;stroke-width:0.25;stroke-linecap:round;stroke-linejoin:round;stroke-miterlimit:4;stroke-dasharray:none;stroke-opacity:1"
             id="path18016"
             inkscape:connector-curvature="0" /></g><g
           id="g18018"
           transform="translate(184.2852,104.3164)"><path
             d="m 0,0 c -0.084,-2.27 -1.662,-3.557 -3.4,-3.364 -17.818,2.023 -31.925,2.262 -31.925,2.262 -1.649,0.097 -1.811,1.197 -2.2,2.103 -0.387,0.906 -1.2,1.229 -1.002,2.652"
             style="fill:none;stroke:#231f20;stroke-width:0.5;stroke-linecap:round;stroke-linejoin:round;stroke-miterlimit:4;stroke-dasharray:none;stroke-opacity:1"
             id="path18020"
             inkscape:connector-curvature="0" /></g><g
           id="g18022"
           transform="translate(225.2148,98.5513)"><path
             d="M 0,0 C 0.371,2.509 -3.749,3.151 -3.749,3.151 -4.885,0.915 -9.822,1.84 -9.822,1.84 c 0,0 -8.788,1.379 -13.16,2.144 -4.373,0.766 -5.528,2.904 -5.528,2.904 l -4.656,0.621 c 0,0 -1.896,0.3 -2.986,-0.63 -0.266,-0.228 -0.567,-0.755 -0.69,-1.326"
             style="fill:none;stroke:#231f20;stroke-width:0.25;stroke-linecap:round;stroke-linejoin:round;stroke-miterlimit:4;stroke-dasharray:none;stroke-opacity:1"
             id="path18024"
             inkscape:connector-curvature="0" /></g><g
           id="g18026"
           transform="translate(225.2148,98.5513)"><path
             d="m 0,0 c -0.505,-3.405 -3.923,-2.929 -3.923,-2.929 -16.889,2.842 -30.387,4.523 -30.387,4.523 -1.223,0.157 -1.211,0.618 -1.422,1.037 -0.21,0.421 -0.336,0.716 -0.924,1.557 -0.27,0.383 -0.289,0.889 -0.186,1.365"
             style="fill:none;stroke:#231f20;stroke-width:0.5;stroke-linecap:round;stroke-linejoin:round;stroke-miterlimit:4;stroke-dasharray:none;stroke-opacity:1"
             id="path18028"
             inkscape:connector-curvature="0" /></g></g></g><g
       id="g18030"
       transform="translate(0,6.8328)"><path
         d="m 0,0 0.167,-6.833 h 23.25 L 23.25,0 Z"
         style="fill:#ffffff;fill-opacity:1;fill-rule:nonzero;stroke:none"
         id="path18032"
         inkscape:connector-curvature="0" /></g><g
       id="g18034"
       transform="translate(83.667,128.9165)"><path
         d="M 0,0 7.638,-14.169"
         style="fill:none;stroke:#ffffff;stroke-width:3;stroke-linecap:round;stroke-linejoin:miter;stroke-miterlimit:4;stroke-dasharray:none;stroke-opacity:1"
         id="path18036"
         inkscape:connector-curvature="0" /></g><g
       id="g18038"
       transform="translate(91.3037,114.7466)"><path
         d="M 0,0 V 0"
         style="fill:none;stroke:#ffffff;stroke-width:3.75;stroke-linecap:round;stroke-linejoin:miter;stroke-miterlimit:4;stroke-dasharray:none;stroke-opacity:1"
         id="path18040"
         inkscape:connector-curvature="0" /></g><g
       id="g18042"
       transform="translate(81,133.25)"><path
         d="M 0,0 10.305,-18.502"
         style="fill:none;stroke:#201d1c;stroke-width:0.5;stroke-linecap:round;stroke-linejoin:miter;stroke-miterlimit:4;stroke-dasharray:none;stroke-opacity:1"
         id="path18044"
         inkscape:connector-curvature="0" /></g><g
       id="g18046"
       transform="translate(91.3037,114.7466)"><path
         d="M 0,0 V 0"
         style="fill:none;stroke:#201d1c;stroke-width:1.5;stroke-linecap:round;stroke-linejoin:miter;stroke-miterlimit:4;stroke-dasharray:none;stroke-opacity:1"
         id="path18048"
         inkscape:connector-curvature="0" /></g><text
       transform="matrix(1,0,0,-1,75.7983,136.0068)"
       style="font-variant:normal;font-weight:bold;font-stretch:normal;font-size:10px;font-family:Arial;-inkscape-font-specification:Arial-BoldMT;writing-mode:lr-tb;fill:#231f20;fill-opacity:1;fill-rule:nonzero;stroke:none"
       id="text18054"><tspan
         x="0"
         y="0"
         id="tspan18050">2</tspan><tspan
         x="44.560001"
         y="93.739998"
         id="tspan18052">1</tspan></text>
<g
       id="g18056"><g
         id="g18058"
         clip-path="url(#clipPath18062)"><text
           transform="matrix(1,0,0,-1,1.2632,1.0879)"
           style="font-variant:normal;font-weight:normal;font-stretch:normal;font-size:6px;font-family:Arial;-inkscape-font-specification:ArialMT;writing-mode:lr-tb;fill:#231f20;fill-opacity:1;fill-rule:nonzero;stroke:none"
           id="text18066"><tspan
             x="0 3.6659999 7.6680002 11.004 14.34 17.676001"
             y="0"
             sodipodi:role="line"
             id="tspan18064">TP0476</tspan></text>
</g></g><g
       id="g18068"
       transform="translate(84,75.25)"><path
         d="M 0,0 -40.637,25.18"
         style="fill:none;stroke:#ffffff;stroke-width:3;stroke-linecap:round;stroke-linejoin:miter;stroke-miterlimit:4;stroke-dasharray:none;stroke-opacity:1"
         id="path18070"
         inkscape:connector-curvature="0" /></g><g
       id="g18072"
       transform="translate(43.3643,100.4316)"><path
         d="M 0,0 V 0"
         style="fill:none;stroke:#ffffff;stroke-width:3.75;stroke-linecap:round;stroke-linejoin:miter;stroke-miterlimit:4;stroke-dasharray:none;stroke-opacity:1"
         id="path18074"
         inkscape:connector-curvature="0" /></g><g
       id="g18076"
       transform="translate(122,52.917)"><path
         d="M 0,0 -78.637,47.513"
         style="fill:none;stroke:#201d1c;stroke-width:0.5;stroke-linecap:round;stroke-linejoin:miter;stroke-miterlimit:4;stroke-dasharray:none;stroke-opacity:1"
         id="path18078"
         inkscape:connector-curvature="0" /></g><g
       id="g18080"
       transform="translate(43.3643,100.4316)"><path
         d="M 0,0 V 0"
         style="fill:none;stroke:#201d1c;stroke-width:1.5;stroke-linecap:round;stroke-linejoin:miter;stroke-miterlimit:4;stroke-dasharray:none;stroke-opacity:1"
         id="path18082"
         inkscape:connector-curvature="0" /></g><g
       id="g18084"
       transform="translate(121.9951,63.5752)"><path
         d="M 0,0 -0.528,44.092"
         style="fill:none;stroke:#ffffff;stroke-width:3;stroke-linecap:round;stroke-linejoin:miter;stroke-miterlimit:4;stroke-dasharray:none;stroke-opacity:1"
         id="path18086"
         inkscape:connector-curvature="0" /></g><g
       id="g18088"
       transform="translate(121.4688,107.668)"><path
         d="M 0,0 V 0"
         style="fill:none;stroke:#ffffff;stroke-width:3.75;stroke-linecap:round;stroke-linejoin:miter;stroke-miterlimit:4;stroke-dasharray:none;stroke-opacity:1"
         id="path18090"
         inkscape:connector-curvature="0" /></g><g
       id="g18092"
       transform="translate(122,52.917)"><path
         d="M 0,0 -0.533,54.75"
         style="fill:none;stroke:#201d1c;stroke-width:0.5;stroke-linecap:round;stroke-linejoin:miter;stroke-miterlimit:4;stroke-dasharray:none;stroke-opacity:1"
         id="path18094"
         inkscape:connector-curvature="0" /></g><g
       id="g18096"
       transform="translate(121.4688,107.668)"><path
         d="M 0,0 V 0"
         style="fill:none;stroke:#201d1c;stroke-width:1.5;stroke-linecap:round;stroke-linejoin:miter;stroke-miterlimit:4;stroke-dasharray:none;stroke-opacity:1"
         id="path18098"
         inkscape:connector-curvature="0" /></g><g
       id="g18100"
       transform="translate(164.667,76.583)"><path
         d="M 0,0 42.415,23.864"
         style="fill:none;stroke:#ffffff;stroke-width:3;stroke-linecap:round;stroke-linejoin:miter;stroke-miterlimit:4;stroke-dasharray:none;stroke-opacity:1"
         id="path18102"
         inkscape:connector-curvature="0" /></g><g
       id="g18104"
       transform="translate(207.084,100.4463)"><path
         d="M 0,0 V 0"
         style="fill:none;stroke:#ffffff;stroke-width:3.75;stroke-linecap:round;stroke-linejoin:miter;stroke-miterlimit:4;stroke-dasharray:none;stroke-opacity:1"
         id="path18106"
         inkscape:connector-curvature="0" /></g><g
       id="g18108"
       transform="translate(122,52.917)"><path
         d="M 0,0 85.082,47.53"
         style="fill:none;stroke:#201d1c;stroke-width:0.5;stroke-linecap:round;stroke-linejoin:miter;stroke-miterlimit:4;stroke-dasharray:none;stroke-opacity:1"
         id="path18110"
         inkscape:connector-curvature="0" /></g><g
       id="g18112"
       transform="translate(207.084,100.4463)"><path
         d="M 0,0 V 0"
         style="fill:none;stroke:#201d1c;stroke-width:1.5;stroke-linecap:round;stroke-linejoin:miter;stroke-miterlimit:4;stroke-dasharray:none;stroke-opacity:1"
         id="path18114"
         inkscape:connector-curvature="0" /></g></g></svg>