<?xml version="1.0" encoding="utf-8"?><!DOCTYPE svg PUBLIC "-//W3C//DTD SVG 1.1//EN" "http://www.w3.org/Graphics/SVG/1.1/DTD/svg11.dtd"><svg xmlns:xlink="http://www.w3.org/1999/xlink" version="1.2" width="210mm" height="297mm" viewBox="0 0 210 297" xmlns="http://www.w3.org/2000/svg"><g><clipPath id="f9157d0c-36dd-4f74-b3cb-89e46043b99eT"><polygon points="39.2248333333333,14.5288333333333 40.2831666666667,15.5871666666667 164.224833333333,15.5871666666667 165.283166666667,14.5288333333333" /></clipPath><clipPath id="f9157d0c-36dd-4f74-b3cb-89e46043b99eR"><polygon points="165.283166666667,14.5288333333333 164.224833333333,15.5871666666667 164.224833333333,29.5288333333333 165.283166666667,30.5871666666667" /></clipPath><clipPath id="f9157d0c-36dd-4f74-b3cb-89e46043b99eB"><polygon points="165.283166666667,30.5871666666667 164.224833333333,29.5288333333333 40.2831666666667,29.5288333333333 39.2248333333333,30.5871666666667" /></clipPath><clipPath id="f9157d0c-36dd-4f74-b3cb-89e46043b99eL"><polygon points="39.2248333333333,30.5871666666667 40.2831666666667,29.5288333333333 40.2831666666667,15.5871666666667 39.2248333333333,14.5288333333333" /></clipPath><rect x="39.754" y="15.058" width="125" height="15" stroke="none" fill="rgb(255,255,255)" /><line clip-path="url(#f9157d0c-36dd-4f74-b3cb-89e46043b99eT)" x1="39.754" y1="15.2343888888889" x2="164.754" y2="15.2343888888889" stroke="rgb(0,0,0)" stroke-width="0.352777777777778" /><line clip-path="url(#f9157d0c-36dd-4f74-b3cb-89e46043b99eR)" x1="164.577611111111" y1="15.058" x2="164.577611111111" y2="30.058" stroke="rgb(0,0,0)" stroke-width="0.352777777777778" /><line clip-path="url(#f9157d0c-36dd-4f74-b3cb-89e46043b99eB)" x1="39.754" y1="29.8816111111111" x2="164.754" y2="29.8816111111111" stroke="rgb(0,0,0)" stroke-width="0.352777777777778" /><line clip-path="url(#f9157d0c-36dd-4f74-b3cb-89e46043b99eL)" x1="39.9303888888889" y1="15.058" x2="39.9303888888889" y2="30.058" stroke="rgb(0,0,0)" stroke-width="0.352777777777778" /><text fill="#000000" font-family="Arial Unicode MS" font-size="3.52777777777778" font-weight="normal" font-style="normal" font-variant="normal" text-decoration="none" kerning="0" y="19.1332034505208" x="79.7032662217882" letter-spacing="0" word-spacing="0"> Install the new ABS module.  </text></g><g><clipPath id="9321a5a6-07d9-421d-9b66-65f6fa9487b8T"><polygon points="39.3038333333333,73.6328333333333 40.3621666666667,74.6911666666667 164.303833333333,74.6911666666667 165.362166666667,73.6328333333333" /></clipPath><clipPath id="9321a5a6-07d9-421d-9b66-65f6fa9487b8R"><polygon points="165.362166666667,73.6328333333333 164.303833333333,74.6911666666667 164.303833333333,88.6328333333334 165.362166666667,89.6911666666667" /></clipPath><clipPath id="9321a5a6-07d9-421d-9b66-65f6fa9487b8B"><polygon points="165.362166666667,89.6911666666667 164.303833333333,88.6328333333334 40.3621666666667,88.6328333333334 39.3038333333333,89.6911666666667" /></clipPath><clipPath id="9321a5a6-07d9-421d-9b66-65f6fa9487b8L"><polygon points="39.3038333333333,89.6911666666667 40.3621666666667,88.6328333333334 40.3621666666667,74.6911666666667 39.3038333333333,73.6328333333333" /></clipPath><rect x="39.833" y="74.162" width="125" height="15" stroke="none" fill="rgb(255,255,255)" /><line clip-path="url(#9321a5a6-07d9-421d-9b66-65f6fa9487b8T)" x1="39.833" y1="74.3383888888889" x2="164.833" y2="74.3383888888889" stroke="rgb(0,0,0)" stroke-width="0.352777777777778" /><line clip-path="url(#9321a5a6-07d9-421d-9b66-65f6fa9487b8R)" x1="164.656611111111" y1="74.162" x2="164.656611111111" y2="89.162" stroke="rgb(0,0,0)" stroke-width="0.352777777777778" /><line clip-path="url(#9321a5a6-07d9-421d-9b66-65f6fa9487b8B)" x1="39.833" y1="88.9856111111111" x2="164.833" y2="88.9856111111111" stroke="rgb(0,0,0)" stroke-width="0.352777777777778" /><line clip-path="url(#9321a5a6-07d9-421d-9b66-65f6fa9487b8L)" x1="40.0093888888889" y1="74.162" x2="40.0093888888889" y2="89.162" stroke="rgb(0,0,0)" stroke-width="0.352777777777778" /><text fill="#000000" font-family="Arial Unicode MS" font-size="3.52777777777778" font-weight="normal" font-style="normal" font-variant="normal" text-decoration="none" kerning="0" y="78.2372034505208" x="50.3249772677951" letter-spacing="0" word-spacing="0">Make sure all of the ECM's have the latest calibration downloaded.</text></g><g><clipPath id="b7ea6b0e-4ada-4539-a50b-32c4ddb610bdT"><polygon points="39.5408333333333,134.404833333333 40.5991666666667,135.463166666667 164.540833333333,135.463166666667 165.599166666667,134.404833333333" /></clipPath><clipPath id="b7ea6b0e-4ada-4539-a50b-32c4ddb610bdR"><polygon points="165.599166666667,134.404833333333 164.540833333333,135.463166666667 164.540833333333,144.404833333333 165.599166666667,145.463166666667" /></clipPath><clipPath id="b7ea6b0e-4ada-4539-a50b-32c4ddb610bdB"><polygon points="165.599166666667,145.463166666667 164.540833333333,144.404833333333 40.5991666666667,144.404833333333 39.5408333333333,145.463166666667" /></clipPath><clipPath id="b7ea6b0e-4ada-4539-a50b-32c4ddb610bdL"><polygon points="39.5408333333333,145.463166666667 40.5991666666667,144.404833333333 40.5991666666667,135.463166666667 39.5408333333333,134.404833333333" /></clipPath><rect x="40.07" y="134.934" width="125" height="10" stroke="none" fill="rgb(255,255,255)" /><line clip-path="url(#b7ea6b0e-4ada-4539-a50b-32c4ddb610bdT)" x1="40.07" y1="135.110388888889" x2="165.07" y2="135.110388888889" stroke="rgb(0,0,0)" stroke-width="0.352777777777778" /><line clip-path="url(#b7ea6b0e-4ada-4539-a50b-32c4ddb610bdR)" x1="164.893611111111" y1="134.934" x2="164.893611111111" y2="144.934" stroke="rgb(0,0,0)" stroke-width="0.352777777777778" /><line clip-path="url(#b7ea6b0e-4ada-4539-a50b-32c4ddb610bdB)" x1="40.07" y1="144.757611111111" x2="165.07" y2="144.757611111111" stroke="rgb(0,0,0)" stroke-width="0.352777777777778" /><line clip-path="url(#b7ea6b0e-4ada-4539-a50b-32c4ddb610bdL)" x1="40.2463888888889" y1="134.934" x2="40.2463888888889" y2="144.934" stroke="rgb(0,0,0)" stroke-width="0.352777777777778" /><text fill="#000000" font-family="Arial Unicode MS" font-size="4.40972222222222" font-weight="normal" font-style="normal" font-variant="normal" text-decoration="none" kerning="0" y="139.939809868707" x="96.6885760498047" letter-spacing="0" word-spacing="0">Finish</text></g><g><polygon points="103.135944444444,41.7558713816868 102.254,43.8850736207242 101.372055555556,41.7558713816868 " fill="#000000" stroke-miterlimit="100" stroke="#000000" stroke-width="0.352777777777778" /><line x1="102.254" y1="30.058" x2="102.254" y2="41.7558713816868" stroke-linecap="butt" stroke="#000000" stroke-width="0.352777777777778" /></g><g><clipPath id="297673c6-d330-43dc-b74b-5e43e7bcd4e2T"><polygon points="39.2248333333333,43.8168333333333 40.2831666666667,44.8751666666667 164.224833333333,44.8751666666667 165.283166666667,43.8168333333333" /></clipPath><clipPath id="297673c6-d330-43dc-b74b-5e43e7bcd4e2R"><polygon points="165.283166666667,43.8168333333333 164.224833333333,44.8751666666667 164.224833333333,58.8168333333333 165.283166666667,59.8751666666667" /></clipPath><clipPath id="297673c6-d330-43dc-b74b-5e43e7bcd4e2B"><polygon points="165.283166666667,59.8751666666667 164.224833333333,58.8168333333333 40.2831666666667,58.8168333333333 39.2248333333333,59.8751666666667" /></clipPath><clipPath id="297673c6-d330-43dc-b74b-5e43e7bcd4e2L"><polygon points="39.2248333333333,59.8751666666667 40.2831666666667,58.8168333333333 40.2831666666667,44.8751666666667 39.2248333333333,43.8168333333333" /></clipPath><rect x="39.754" y="44.346" width="125" height="15" stroke="none" fill="rgb(255,255,255)" /><line clip-path="url(#297673c6-d330-43dc-b74b-5e43e7bcd4e2T)" x1="39.754" y1="44.5223888888889" x2="164.754" y2="44.5223888888889" stroke="rgb(0,0,0)" stroke-width="0.352777777777778" /><line clip-path="url(#297673c6-d330-43dc-b74b-5e43e7bcd4e2R)" x1="164.577611111111" y1="44.346" x2="164.577611111111" y2="59.346" stroke="rgb(0,0,0)" stroke-width="0.352777777777778" /><line clip-path="url(#297673c6-d330-43dc-b74b-5e43e7bcd4e2B)" x1="39.754" y1="59.1696111111111" x2="164.754" y2="59.1696111111111" stroke="rgb(0,0,0)" stroke-width="0.352777777777778" /><line clip-path="url(#297673c6-d330-43dc-b74b-5e43e7bcd4e2L)" x1="39.9303888888889" y1="44.346" x2="39.9303888888889" y2="59.346" stroke="rgb(0,0,0)" stroke-width="0.352777777777778" /><text fill="#000000" font-family="Arial Unicode MS" font-size="3.52777777777778" font-weight="normal" font-style="normal" font-variant="normal" text-decoration="none" kerning="0" y="48.4212034505208" x="79.1193225368924" letter-spacing="0" word-spacing="0">Model variant written to ECM.</text></g><g><polygon points="103.451944444444,71.5718713816868 102.57,73.7010736207242 101.688055555556,71.5718713816868 " fill="#000000" stroke-miterlimit="100" stroke="#000000" stroke-width="0.352777777777778" /><line x1="102.57" y1="59.346" x2="102.57" y2="71.5718713816868" stroke-linecap="butt" stroke="#000000" stroke-width="0.352777777777778" /></g><g><polygon points="103.410404662352,101.374096724917 102.562627863221,103.517132580115 101.646741401283,101.40230867098 " fill="#000000" stroke-miterlimit="100" stroke="#000000" stroke-width="0.352777777777778" /><line x1="102.333" y1="89.162" x2="102.528573031818" y2="101.388202697949" stroke-linecap="butt" stroke="#000000" stroke-width="0.352777777777778" /></g><g><clipPath id="9586e99a-f837-4c29-a36a-db4831c380b3T"><polygon points="39.5408333333333,103.448833333333 40.5991666666667,104.507166666667 164.540833333333,104.507166666667 165.599166666667,103.448833333333" /></clipPath><clipPath id="9586e99a-f837-4c29-a36a-db4831c380b3R"><polygon points="165.599166666667,103.448833333333 164.540833333333,104.507166666667 164.540833333333,118.448833333333 165.599166666667,119.507166666667" /></clipPath><clipPath id="9586e99a-f837-4c29-a36a-db4831c380b3B"><polygon points="165.599166666667,119.507166666667 164.540833333333,118.448833333333 40.5991666666667,118.448833333333 39.5408333333333,119.507166666667" /></clipPath><clipPath id="9586e99a-f837-4c29-a36a-db4831c380b3L"><polygon points="39.5408333333333,119.507166666667 40.5991666666667,118.448833333333 40.5991666666667,104.507166666667 39.5408333333333,103.448833333333" /></clipPath><rect x="40.07" y="103.978" width="125" height="15" stroke="none" fill="rgb(255,255,255)" /><line clip-path="url(#9586e99a-f837-4c29-a36a-db4831c380b3T)" x1="40.07" y1="104.154388888889" x2="165.07" y2="104.154388888889" stroke="rgb(0,0,0)" stroke-width="0.352777777777778" /><line clip-path="url(#9586e99a-f837-4c29-a36a-db4831c380b3R)" x1="164.893611111111" y1="103.978" x2="164.893611111111" y2="118.978" stroke="rgb(0,0,0)" stroke-width="0.352777777777778" /><line clip-path="url(#9586e99a-f837-4c29-a36a-db4831c380b3B)" x1="40.07" y1="118.801611111111" x2="165.07" y2="118.801611111111" stroke="rgb(0,0,0)" stroke-width="0.352777777777778" /><line clip-path="url(#9586e99a-f837-4c29-a36a-db4831c380b3L)" x1="40.2463888888889" y1="103.978" x2="40.2463888888889" y2="118.978" stroke="rgb(0,0,0)" stroke-width="0.352777777777778" /><text fill="#000000" font-family="Arial Unicode MS" font-size="3.52777777777778" font-weight="normal" font-style="normal" font-variant="normal" text-decoration="none" kerning="0" y="108.053203450521" x="57.8681635199653" letter-spacing="0" word-spacing="0">Check all ECMs for stored DTCs and erase as necessary</text></g><g><polygon points="103.451944444444,132.343871381687 102.57,134.473073620724 101.688055555556,132.343871381687 " fill="#000000" stroke-miterlimit="100" stroke="#000000" stroke-width="0.352777777777778" /><line x1="102.57" y1="118.978" x2="102.57" y2="132.343871381687" stroke-linecap="butt" stroke="#000000" stroke-width="0.352777777777778" /></g></svg>