<?xml version="1.0" encoding="UTF-8" standalone="no"?>
<!-- Created with Inkscape (http://www.inkscape.org/) -->

<svg
   xmlns:dc="http://purl.org/dc/elements/1.1/"
   xmlns:cc="http://creativecommons.org/ns#"
   xmlns:rdf="http://www.w3.org/1999/02/22-rdf-syntax-ns#"
   xmlns:svg="http://www.w3.org/2000/svg"
   xmlns="http://www.w3.org/2000/svg"
   xmlns:sodipodi="http://sodipodi.sourceforge.net/DTD/sodipodi-0.dtd"
   xmlns:inkscape="http://www.inkscape.org/namespaces/inkscape"
   id="svg29506"
   version="1.1"
   inkscape:version="0.91 r13725"
   xml:space="preserve"
   width="301.18124"
   height="230.31375"
   viewBox="0 0 301.18124 230.31375"
   sodipodi:docname="Chain cut tool_2.svg"><metadata
     id="metadata29512"><rdf:RDF><cc:Work
         rdf:about=""><dc:format>image/svg+xml</dc:format><dc:type
           rdf:resource="http://purl.org/dc/dcmitype/StillImage" /><dc:title></dc:title></cc:Work></rdf:RDF></metadata><defs
     id="defs29510"><clipPath
       clipPathUnits="userSpaceOnUse"
       id="clipPath29612"><path
         d="m 0,184.251 240.945,0 L 240.945,0 0,0 0,184.251 Z"
         id="path29614"
         inkscape:connector-curvature="0" /></clipPath><clipPath
       clipPathUnits="userSpaceOnUse"
       id="clipPath29920"><path
         d="m 0,184.251 240.945,0 L 240.945,0 0,0 0,184.251 Z"
         id="path29922"
         inkscape:connector-curvature="0" /></clipPath><clipPath
       clipPathUnits="userSpaceOnUse"
       id="clipPath29928"><path
         d="m 223.146,105.025 5.56,0 0,-10.8702 -5.56,0 0,10.8702 z"
         id="path29930"
         inkscape:connector-curvature="0" /></clipPath><clipPath
       clipPathUnits="userSpaceOnUse"
       id="clipPath29960"><path
         d="m 0,184.251 240.945,0 L 240.945,0 0,0 0,184.251 Z"
         id="path29962"
         inkscape:connector-curvature="0" /></clipPath><clipPath
       clipPathUnits="userSpaceOnUse"
       id="clipPath29968"><path
         d="m 80.4775,147.707 5.5601,0 0,-10.871 -5.5601,0 0,10.871 z"
         id="path29970"
         inkscape:connector-curvature="0" /></clipPath></defs><sodipodi:namedview
     pagecolor="#ffffff"
     bordercolor="#666666"
     borderopacity="1"
     objecttolerance="10"
     gridtolerance="10"
     guidetolerance="10"
     inkscape:pageopacity="0"
     inkscape:pageshadow="2"
     inkscape:window-width="640"
     inkscape:window-height="480"
     id="namedview29508"
     showgrid="false"
     inkscape:zoom="3.451813"
     inkscape:cx="150.59062"
     inkscape:cy="115.15688"
     inkscape:window-x="0"
     inkscape:window-y="0"
     inkscape:window-maximized="1"
     inkscape:current-layer="g29514" /><g
     id="g29514"
     inkscape:groupmode="layer"
     inkscape:label="Chain cut tool_2"
     transform="matrix(1.25,0,0,-1.25,0,230.31375)"><g
       id="g29516"
       transform="translate(232.2432,153.9526)"><path
         d="M 0,0 -0.324,0.785"
         style="fill:none;stroke:#231f20;stroke-width:0.5;stroke-linecap:round;stroke-linejoin:round;stroke-miterlimit:10;stroke-dasharray:none;stroke-opacity:1"
         id="path29518"
         inkscape:connector-curvature="0" /></g><g
       id="g29520"
       transform="translate(232.7617,152.7085)"><path
         d="M 0,0 -0.519,1.244"
         style="fill:none;stroke:#231f20;stroke-width:0.5;stroke-linecap:round;stroke-linejoin:round;stroke-miterlimit:10;stroke-dasharray:none;stroke-opacity:1"
         id="path29522"
         inkscape:connector-curvature="0" /></g><g
       id="g29524"
       transform="translate(227.5947,160.8994)"><path
         d="M 0,0 -1.706,1.151"
         style="fill:none;stroke:#231f20;stroke-width:0.5;stroke-linecap:round;stroke-linejoin:round;stroke-miterlimit:10;stroke-dasharray:none;stroke-opacity:1"
         id="path29526"
         inkscape:connector-curvature="0" /></g><g
       id="g29528"
       transform="translate(227.5947,160.8994)"><path
         d="m 0,0 -0.728,0.557 -0.768,0.48"
         style="fill:none;stroke:#231f20;stroke-width:0.5;stroke-linecap:round;stroke-linejoin:round;stroke-miterlimit:10;stroke-dasharray:none;stroke-opacity:1"
         id="path29530"
         inkscape:connector-curvature="0" /></g><g
       id="g29532"
       transform="translate(232.7617,152.7085)"><path
         d="M 0,0 -0.366,1.264 -0.862,2.525 -1.493,3.75"
         style="fill:none;stroke:#231f20;stroke-width:0.5;stroke-linecap:round;stroke-linejoin:round;stroke-miterlimit:10;stroke-dasharray:none;stroke-opacity:1"
         id="path29534"
         inkscape:connector-curvature="0" /></g><g
       id="g29536"
       transform="translate(231.9189,154.7373)"><path
         d="M 0,0 -0.65,1.721"
         style="fill:none;stroke:#231f20;stroke-width:0.5;stroke-linecap:round;stroke-linejoin:round;stroke-miterlimit:10;stroke-dasharray:none;stroke-opacity:1"
         id="path29538"
         inkscape:connector-curvature="0" /></g><g
       id="g29540"
       transform="translate(220.9082,162.2778)"><path
         d="M 0,0 -1.698,-0.4"
         style="fill:none;stroke:#231f20;stroke-width:0.5;stroke-linecap:round;stroke-linejoin:round;stroke-miterlimit:10;stroke-dasharray:none;stroke-opacity:1"
         id="path29542"
         inkscape:connector-curvature="0" /></g><g
       id="g29544"
       transform="translate(225.2568,162.4141)"><path
         d="M 0,0 -0.671,0.17"
         style="fill:none;stroke:#231f20;stroke-width:0.5;stroke-linecap:round;stroke-linejoin:round;stroke-miterlimit:10;stroke-dasharray:none;stroke-opacity:1"
         id="path29546"
         inkscape:connector-curvature="0" /></g><g
       id="g29548"
       transform="translate(225.8887,162.0508)"><path
         d="M 0,0 -0.632,0.363"
         style="fill:none;stroke:#231f20;stroke-width:0.5;stroke-linecap:round;stroke-linejoin:round;stroke-miterlimit:10;stroke-dasharray:none;stroke-opacity:1"
         id="path29550"
         inkscape:connector-curvature="0" /></g><g
       id="g29552"
       transform="translate(231.9189,145.6816)"><path
         d="M 0,0 0.324,0.441"
         style="fill:none;stroke:#231f20;stroke-width:0.5;stroke-linecap:round;stroke-linejoin:round;stroke-miterlimit:10;stroke-dasharray:none;stroke-opacity:1"
         id="path29554"
         inkscape:connector-curvature="0" /></g><g
       id="g29556"
       transform="translate(232.2432,146.1226)"><path
         d="M 0,0 0.519,1.819"
         style="fill:none;stroke:#231f20;stroke-width:0.5;stroke-linecap:round;stroke-linejoin:round;stroke-miterlimit:10;stroke-dasharray:none;stroke-opacity:1"
         id="path29558"
         inkscape:connector-curvature="0" /></g><g
       id="g29560"
       transform="translate(222.9385,148.7261)"><path
         d="M 0,0 -0.324,0.785"
         style="fill:none;stroke:#231f20;stroke-width:0.5;stroke-linecap:round;stroke-linejoin:round;stroke-miterlimit:10;stroke-dasharray:none;stroke-opacity:1"
         id="path29562"
         inkscape:connector-curvature="0" /></g><g
       id="g29564"
       transform="translate(222.9385,148.3242)"><path
         d="M 0,0 -0.61,1.549"
         style="fill:none;stroke:#231f20;stroke-width:0.5;stroke-linecap:round;stroke-linejoin:round;stroke-miterlimit:10;stroke-dasharray:none;stroke-opacity:1"
         id="path29566"
         inkscape:connector-curvature="0" /></g><g
       id="g29568"
       transform="translate(222.9385,141.2783)"><path
         d="m 0,0 0.443,1.132 0.229,1.281 0,1.474 L 0.443,5.437 0,7.046"
         style="fill:none;stroke:#231f20;stroke-width:0.5;stroke-linecap:round;stroke-linejoin:round;stroke-miterlimit:10;stroke-dasharray:none;stroke-opacity:1"
         id="path29570"
         inkscape:connector-curvature="0" /></g><g
       id="g29572"
       transform="translate(221.4668,139.7651)"><path
         d="M 0,0 0.861,0.653"
         style="fill:none;stroke:#231f20;stroke-width:0.5;stroke-linecap:round;stroke-linejoin:round;stroke-miterlimit:10;stroke-dasharray:none;stroke-opacity:1"
         id="path29574"
         inkscape:connector-curvature="0" /></g><g
       id="g29576"
       transform="translate(222.6143,140.457)"><path
         d="M 0,0 0.324,0.421"
         style="fill:none;stroke:#231f20;stroke-width:0.5;stroke-linecap:round;stroke-linejoin:round;stroke-miterlimit:10;stroke-dasharray:none;stroke-opacity:1"
         id="path29578"
         inkscape:connector-curvature="0" /></g><g
       id="g29580"
       transform="translate(222.3281,140.418)"><path
         d="M 0,0 0.61,0.86"
         style="fill:none;stroke:#231f20;stroke-width:0.5;stroke-linecap:round;stroke-linejoin:round;stroke-miterlimit:10;stroke-dasharray:none;stroke-opacity:1"
         id="path29582"
         inkscape:connector-curvature="0" /></g><g
       id="g29584"
       transform="translate(216.583,156.8237)"><path
         d="M 0,0 -0.629,0.345"
         style="fill:none;stroke:#231f20;stroke-width:0.5;stroke-linecap:round;stroke-linejoin:round;stroke-miterlimit:10;stroke-dasharray:none;stroke-opacity:1"
         id="path29586"
         inkscape:connector-curvature="0" /></g><g
       id="g29588"
       transform="translate(216.8896,156.4585)"><path
         d="M 0,0 -1.243,0.692"
         style="fill:none;stroke:#231f20;stroke-width:0.5;stroke-linecap:round;stroke-linejoin:round;stroke-miterlimit:10;stroke-dasharray:none;stroke-opacity:1"
         id="path29590"
         inkscape:connector-curvature="0" /></g><g
       id="g29592"
       transform="translate(215.6465,157.1504)"><path
         d="M 0,0 -1.283,0.458 -2.49,0.65 -3.598,0.553 -4.594,0.191"
         style="fill:none;stroke:#231f20;stroke-width:0.5;stroke-linecap:round;stroke-linejoin:round;stroke-miterlimit:10;stroke-dasharray:none;stroke-opacity:1"
         id="path29594"
         inkscape:connector-curvature="0" /></g><g
       id="g29596"
       transform="translate(164.4697,123.6899)"><path
         d="M 0,0 -0.649,0.268 -1.263,0.383 -1.818,0.345 -2.317,0.153"
         style="fill:none;stroke:#231f20;stroke-width:0.5;stroke-linecap:round;stroke-linejoin:round;stroke-miterlimit:10;stroke-dasharray:none;stroke-opacity:1"
         id="path29598"
         inkscape:connector-curvature="0" /></g><g
       id="g29600"
       transform="translate(167.1123,115.478)"><path
         d="M 0,0 0.421,0.345 0.746,0.784 0.936,1.359 1.035,2.03"
         style="fill:none;stroke:#231f20;stroke-width:0.5;stroke-linecap:round;stroke-linejoin:round;stroke-miterlimit:10;stroke-dasharray:none;stroke-opacity:1"
         id="path29602"
         inkscape:connector-curvature="0" /></g><g
       id="g29604"
       transform="translate(172.165,77.9551)"><path
         d="m 0,0 1.896,-0.461 2.009,-0.266 2.049,-0.04 2.049,0.173 1.934,0.384 1.801,0.592 1.529,0.766 1.283,0.92 0.938,1.033 0.554,1.111 0.192,1.149"
         style="fill:none;stroke:#231f20;stroke-width:0.5;stroke-linecap:round;stroke-linejoin:round;stroke-miterlimit:10;stroke-dasharray:none;stroke-opacity:1"
         id="path29606"
         inkscape:connector-curvature="0" /></g><g
       id="g29608"><g
         id="g29610"
         clip-path="url(#clipPath29612)"><g
           id="g29616"
           transform="translate(160.0557,115.229)"><path
             d="m 0,0 c 0.489,-0.651 1.068,-1.318 1.753,-1.974 l 0.88,-0.687 0.901,-0.573"
             style="fill:none;stroke:#231f20;stroke-width:0.5;stroke-linecap:round;stroke-linejoin:round;stroke-miterlimit:10;stroke-dasharray:none;stroke-opacity:1"
             id="path29618"
             inkscape:connector-curvature="0" /></g><g
           id="g29620"
           transform="translate(163.5898,111.9946)"><path
             d="m 0,0 1.205,-0.557 1.169,-0.268 1.072,0.021 0.937,0.305 0.802,0.593 0.596,0.86 L 6.162,2.046 6.317,3.31 6.243,4.708 5.934,6.182 5.415,7.733 4.689,9.224 3.79,10.623 l -1.033,1.302 -1.148,1.111 -1.211,0.88 -1.184,0.651 -1.188,0.384 -1.127,0.075 -0.976,-0.23 -0.863,-0.497 -0.651,-0.786 -0.481,-0.993 -0.228,-1.208 0,-1.34 0.228,-1.493 c 0,0 0.155,-0.848 0.703,-2.108"
             style="fill:none;stroke:#231f20;stroke-width:0.5;stroke-linecap:round;stroke-linejoin:round;stroke-miterlimit:10;stroke-dasharray:none;stroke-opacity:1"
             id="path29622"
             inkscape:connector-curvature="0" /></g><g
           id="g29624"
           transform="translate(165.6367,114.6548)"><path
             d="M 0,0 0.671,-0.021 1.244,0.153 1.743,0.479 2.127,0.977 2.376,1.607 2.511,2.355 2.492,3.176 2.336,4.058 2.052,4.998 1.628,5.896 1.109,6.797 0.518,7.58 -0.171,8.291 -0.899,8.882 -1.626,9.303 -2.354,9.572 -3.023,9.668 -3.656,9.591 -4.209,9.341 -4.649,8.94 -4.977,8.367"
             style="fill:none;stroke:#231f20;stroke-width:0.5;stroke-linecap:round;stroke-linejoin:round;stroke-miterlimit:10;stroke-dasharray:none;stroke-opacity:1"
             id="path29626"
             inkscape:connector-curvature="0" /></g><g
           id="g29628"
           transform="translate(161.5859,115.9941)"><path
             d="m 0,0 c 0.86,-0.986 2.053,-1.879 3.705,-2.489 l 0.922,-0.192 0.843,0.039 0.725,0.289 0.613,0.498 0.459,0.688 0.267,0.88 L 7.633,0.728 7.534,1.856 7.25,3.063 6.792,4.27 6.178,5.437 5.43,6.547 4.606,7.521 3.67,8.346 2.713,8.98 1.755,9.419 0.855,9.631 -0.007,9.61 -0.751,9.36 -1.366,8.866 -1.824,8.176 -2.095,7.312 -2.208,6.297 c 0,0 -0.074,-1.199 0.348,-2.751"
             style="fill:none;stroke:#231f20;stroke-width:0.5;stroke-linecap:round;stroke-linejoin:round;stroke-miterlimit:10;stroke-dasharray:none;stroke-opacity:1"
             id="path29630"
             inkscape:connector-curvature="0" /></g><g
           id="g29632"
           transform="translate(222.3281,149.873)"><path
             d="M 0,0 -0.843,1.59 -1.838,3.084 -2.949,4.441 -4.177,5.609 -5.438,6.585"
             style="fill:none;stroke:#231f20;stroke-width:0.5;stroke-linecap:round;stroke-linejoin:round;stroke-miterlimit:10;stroke-dasharray:none;stroke-opacity:1"
             id="path29634"
             inkscape:connector-curvature="0" /></g><g
           id="g29636"
           transform="translate(215.8193,138.2534)"><path
             d="M 0,0 0.748,0.592 1.302,1.437 1.664,2.471 1.837,3.675 1.779,4.998 1.514,6.432 1.052,7.888 0.403,9.343 l -0.841,1.398 -0.958,1.264 -1.057,1.127 -1.148,0.958 -1.166,0.689 -1.148,0.48 -1.11,0.21 -1.018,-0.077 -0.916,-0.324"
             style="fill:none;stroke:#231f20;stroke-width:0.5;stroke-linecap:round;stroke-linejoin:round;stroke-miterlimit:10;stroke-dasharray:none;stroke-opacity:1"
             id="path29638"
             inkscape:connector-curvature="0" /></g><g
           id="g29640"
           transform="translate(218.8252,141.0688)"><path
             d="M 0,0 0.668,0.516 1.187,1.264 1.51,2.183 1.624,3.255 1.587,4.442 1.378,5.706 0.957,7.007 0.362,8.289 l -0.746,1.245 -0.862,1.149 -0.938,0.995 -1.014,0.843 -1.034,0.611 -1.033,0.441 -0.976,0.151 -0.904,-0.056 -0.801,-0.287"
             style="fill:none;stroke:#231f20;stroke-width:0.5;stroke-linecap:round;stroke-linejoin:round;stroke-miterlimit:10;stroke-dasharray:none;stroke-opacity:1"
             id="path29642"
             inkscape:connector-curvature="0" /></g><g
           id="g29644"
           transform="translate(216.4893,138.772)"><path
             d="m 0,0 1.34,-0.25 1.264,0.097 1.087,0.421 0.866,0.745 0.668,1.052 0.382,1.343 0.136,1.511 -0.151,1.684 -0.425,1.782 -0.687,1.78 -0.879,1.76 -1.111,1.626 -1.265,1.476 -1.363,1.245 -1.432,0.955 -1.417,0.671 -1.36,0.306 -1.281,-0.018 -1.109,-0.364 -0.943,-0.69 -0.706,-1.014 -0.441,-1.262"
             style="fill:none;stroke:#231f20;stroke-width:0.5;stroke-linecap:round;stroke-linejoin:round;stroke-miterlimit:10;stroke-dasharray:none;stroke-opacity:1"
             id="path29646"
             inkscape:connector-curvature="0" /></g><g
           id="g29648"
           transform="translate(172.1748,146.7354)"><path
             d="M 0,0 25.624,-14.578"
             style="fill:none;stroke:#231f20;stroke-width:0.5;stroke-linecap:round;stroke-linejoin:round;stroke-miterlimit:10;stroke-dasharray:none;stroke-opacity:1"
             id="path29650"
             inkscape:connector-curvature="0" /></g><g
           id="g29652"
           transform="translate(206.8604,153.3213)"><path
             d="M 0,0 -23.398,-13.053"
             style="fill:none;stroke:#231f20;stroke-width:0.5;stroke-linecap:round;stroke-linejoin:round;stroke-miterlimit:10;stroke-dasharray:none;stroke-opacity:1"
             id="path29654"
             inkscape:connector-curvature="0" /></g><g
           id="g29656"
           transform="translate(197.7988,132.1577)"><path
             d="M 0,0 -21.077,-11.831"
             style="fill:none;stroke:#231f20;stroke-width:0.5;stroke-linecap:round;stroke-linejoin:round;stroke-miterlimit:10;stroke-dasharray:none;stroke-opacity:1"
             id="path29658"
             inkscape:connector-curvature="0" /></g><g
           id="g29660"
           transform="translate(127.5488,53.3359)"><path
             d="M 0,0 70.25,39.385"
             style="fill:none;stroke:#231f20;stroke-width:0.5;stroke-linecap:round;stroke-linejoin:round;stroke-miterlimit:10;stroke-dasharray:none;stroke-opacity:1"
             id="path29662"
             inkscape:connector-curvature="0" /></g><g
           id="g29664"
           transform="translate(176.7217,103.7681)"><path
             d="M 0,0 -35.181,-20.047"
             style="fill:none;stroke:#231f20;stroke-width:0.5;stroke-linecap:round;stroke-linejoin:round;stroke-miterlimit:10;stroke-dasharray:none;stroke-opacity:1"
             id="path29666"
             inkscape:connector-curvature="0" /></g><g
           id="g29668"
           transform="translate(141.6104,84.0303)"><path
             d="M 0,0 0,16.578"
             style="fill:none;stroke:#231f20;stroke-width:0.5;stroke-linecap:round;stroke-linejoin:round;stroke-miterlimit:10;stroke-dasharray:none;stroke-opacity:1"
             id="path29670"
             inkscape:connector-curvature="0" /></g><g
           id="g29672"
           transform="translate(141.6104,100.6084)"><path
             d="M 0,0 -14.05,-7.888"
             style="fill:none;stroke:#231f20;stroke-width:0.5;stroke-linecap:round;stroke-linejoin:round;stroke-miterlimit:10;stroke-dasharray:none;stroke-opacity:1"
             id="path29674"
             inkscape:connector-curvature="0" /></g><g
           id="g29676"
           transform="translate(188.3994,87.0879)"><path
             d="M 0,0 0,-3.771"
             style="fill:none;stroke:#231f20;stroke-width:0.5;stroke-linecap:round;stroke-linejoin:round;stroke-miterlimit:10;stroke-dasharray:none;stroke-opacity:1"
             id="path29678"
             inkscape:connector-curvature="0" /></g><g
           id="g29680"
           transform="translate(141.6104,100.6084)"><path
             d="M 0,0 -25.642,14.579"
             style="fill:none;stroke:#231f20;stroke-width:0.5;stroke-linecap:round;stroke-linejoin:round;stroke-miterlimit:10;stroke-dasharray:none;stroke-opacity:1"
             id="path29682"
             inkscape:connector-curvature="0" /></g><g
           id="g29684"
           transform="translate(151.0947,134.9033)"><path
             d="M 0,0 21.08,11.832"
             style="fill:none;stroke:#231f20;stroke-width:0.5;stroke-linecap:round;stroke-linejoin:round;stroke-miterlimit:10;stroke-dasharray:none;stroke-opacity:1"
             id="path29686"
             inkscape:connector-curvature="0" /></g><g
           id="g29688"
           transform="translate(151.0947,134.9033)"><path
             d="M 0,0 25.627,-14.576"
             style="fill:none;stroke:#231f20;stroke-width:0.5;stroke-linecap:round;stroke-linejoin:round;stroke-miterlimit:10;stroke-dasharray:none;stroke-opacity:1"
             id="path29690"
             inkscape:connector-curvature="0" /></g><g
           id="g29692"
           transform="translate(151.2803,118.8066)"><path
             d="M 0,0 -0.186,16.097"
             style="fill:none;stroke:#231f20;stroke-width:0.5;stroke-linecap:round;stroke-linejoin:round;stroke-miterlimit:10;stroke-dasharray:none;stroke-opacity:1"
             id="path29694"
             inkscape:connector-curvature="0" /></g><g
           id="g29696"
           transform="translate(133.0332,108.2617)"><path
             d="M 0,0 18.247,10.545"
             style="fill:none;stroke:#231f20;stroke-width:0.5;stroke-linecap:round;stroke-linejoin:round;stroke-miterlimit:10;stroke-dasharray:none;stroke-opacity:1"
             id="path29698"
             inkscape:connector-curvature="0" /></g><g
           id="g29700"
           transform="translate(176.7217,120.3271)"><path
             d="M 0,0 0,-16.559"
             style="fill:none;stroke:#231f20;stroke-width:0.5;stroke-linecap:round;stroke-linejoin:round;stroke-miterlimit:10;stroke-dasharray:none;stroke-opacity:1"
             id="path29702"
             inkscape:connector-curvature="0" /></g><g
           id="g29704"
           transform="translate(154.7109,116.7788)"><path
             d="M 0,0 -3.431,2.028"
             style="fill:none;stroke:#231f20;stroke-width:0.5;stroke-linecap:round;stroke-linejoin:round;stroke-miterlimit:10;stroke-dasharray:none;stroke-opacity:1"
             id="path29706"
             inkscape:connector-curvature="0" /></g><g
           id="g29708"
           transform="translate(154.915,116.5986)"><path
             d="M 0,0 -3.516,2.068"
             style="fill:none;stroke:#231f20;stroke-width:0.5;stroke-linecap:round;stroke-linejoin:round;stroke-miterlimit:10;stroke-dasharray:none;stroke-opacity:1"
             id="path29710"
             inkscape:connector-curvature="0" /></g><g
           id="g29712"
           transform="translate(176.7217,103.7681)"><path
             d="M 0,0 -17.969,10.572"
             style="fill:none;stroke:#231f20;stroke-width:0.5;stroke-linecap:round;stroke-linejoin:round;stroke-miterlimit:10;stroke-dasharray:none;stroke-opacity:1"
             id="path29714"
             inkscape:connector-curvature="0" /></g><g
           id="g29716"
           transform="translate(197.7988,92.7207)"><path
             d="M 0,0 0,39.437"
             style="fill:none;stroke:#231f20;stroke-width:0.5;stroke-linecap:round;stroke-linejoin:round;stroke-miterlimit:10;stroke-dasharray:none;stroke-opacity:1"
             id="path29718"
             inkscape:connector-curvature="0" /></g><g
           id="g29720"
           transform="translate(222.3281,149.873)"><path
             d="M 0,0 0.286,-0.362"
             style="fill:none;stroke:#231f20;stroke-width:0.5;stroke-linecap:round;stroke-linejoin:round;stroke-miterlimit:10;stroke-dasharray:none;stroke-opacity:1"
             id="path29722"
             inkscape:connector-curvature="0" /></g><g
           id="g29724"
           transform="translate(232.2432,153.9526)"><path
             d="M 0,0 -9.305,-5.227"
             style="fill:none;stroke:#231f20;stroke-width:0.5;stroke-linecap:round;stroke-linejoin:round;stroke-miterlimit:10;stroke-dasharray:none;stroke-opacity:1"
             id="path29726"
             inkscape:connector-curvature="0" /></g><g
           id="g29728"
           transform="translate(222.6143,149.5107)"><path
             d="M 0,0 9.305,5.227"
             style="fill:none;stroke:#231f20;stroke-width:0.5;stroke-linecap:round;stroke-linejoin:round;stroke-miterlimit:10;stroke-dasharray:none;stroke-opacity:1"
             id="path29730"
             inkscape:connector-curvature="0" /></g><g
           id="g29732"
           transform="translate(232.7617,147.9419)"><path
             d="M 0,0 0,4.767"
             style="fill:none;stroke:#231f20;stroke-width:0.5;stroke-linecap:round;stroke-linejoin:round;stroke-miterlimit:10;stroke-dasharray:none;stroke-opacity:1"
             id="path29734"
             inkscape:connector-curvature="0" /></g><g
           id="g29736"
           transform="translate(215.8193,138.2534)"><path
             d="M 0,0 -17.783,-10"
             style="fill:none;stroke:#231f20;stroke-width:0.5;stroke-linecap:round;stroke-linejoin:round;stroke-miterlimit:10;stroke-dasharray:none;stroke-opacity:1"
             id="path29738"
             inkscape:connector-curvature="0" /></g><g
           id="g29740"
           transform="translate(222.9385,140.8779)"><path
             d="M 0,0 9.305,5.245"
             style="fill:none;stroke:#231f20;stroke-width:0.5;stroke-linecap:round;stroke-linejoin:round;stroke-miterlimit:10;stroke-dasharray:none;stroke-opacity:1"
             id="path29742"
             inkscape:connector-curvature="0" /></g><g
           id="g29744"
           transform="translate(231.9189,145.6816)"><path
             d="M 0,0 -9.305,-5.225"
             style="fill:none;stroke:#231f20;stroke-width:0.5;stroke-linecap:round;stroke-linejoin:round;stroke-miterlimit:10;stroke-dasharray:none;stroke-opacity:1"
             id="path29746"
             inkscape:connector-curvature="0" /></g><g
           id="g29748"
           transform="translate(222.9385,141.2783)"><path
             d="M 0,0 0,-0.4"
             style="fill:none;stroke:#231f20;stroke-width:0.5;stroke-linecap:round;stroke-linejoin:round;stroke-miterlimit:10;stroke-dasharray:none;stroke-opacity:1"
             id="path29750"
             inkscape:connector-curvature="0" /></g><g
           id="g29752"
           transform="translate(222.9385,148.7261)"><path
             d="M 0,0 0,-0.402"
             style="fill:none;stroke:#231f20;stroke-width:0.5;stroke-linecap:round;stroke-linejoin:round;stroke-miterlimit:10;stroke-dasharray:none;stroke-opacity:1"
             id="path29754"
             inkscape:connector-curvature="0" /></g><g
           id="g29756"
           transform="translate(222.6143,140.457)"><path
             d="M 0,0 -0.286,-0.039"
             style="fill:none;stroke:#231f20;stroke-width:0.5;stroke-linecap:round;stroke-linejoin:round;stroke-miterlimit:10;stroke-dasharray:none;stroke-opacity:1"
             id="path29758"
             inkscape:connector-curvature="0" /></g><g
           id="g29760"
           transform="translate(221.4668,139.7651)"><path
             d="M 0,0 -1.377,-0.784"
             style="fill:none;stroke:#231f20;stroke-width:0.5;stroke-linecap:round;stroke-linejoin:round;stroke-miterlimit:10;stroke-dasharray:none;stroke-opacity:1"
             id="path29762"
             inkscape:connector-curvature="0" /></g><g
           id="g29764"
           transform="translate(218.8252,141.0688)"><path
             d="M 0,0 -1.476,-0.803"
             style="fill:none;stroke:#231f20;stroke-width:0.5;stroke-linecap:round;stroke-linejoin:round;stroke-miterlimit:10;stroke-dasharray:none;stroke-opacity:1"
             id="path29766"
             inkscape:connector-curvature="0" /></g><g
           id="g29768"
           transform="translate(225.8887,162.0508)"><path
             d="M 0,0 -9.306,-5.227"
             style="fill:none;stroke:#231f20;stroke-width:0.5;stroke-linecap:round;stroke-linejoin:round;stroke-miterlimit:10;stroke-dasharray:none;stroke-opacity:1"
             id="path29770"
             inkscape:connector-curvature="0" /></g><g
           id="g29772"
           transform="translate(215.9541,157.1685)"><path
             d="M 0,0 9.303,5.246"
             style="fill:none;stroke:#231f20;stroke-width:0.5;stroke-linecap:round;stroke-linejoin:round;stroke-miterlimit:10;stroke-dasharray:none;stroke-opacity:1"
             id="path29774"
             inkscape:connector-curvature="0" /></g><g
           id="g29776"
           transform="translate(219.21,161.8779)"><path
             d="M 0,0 -7.699,-4.327"
             style="fill:none;stroke:#231f20;stroke-width:0.5;stroke-linecap:round;stroke-linejoin:round;stroke-miterlimit:10;stroke-dasharray:none;stroke-opacity:1"
             id="path29778"
             inkscape:connector-curvature="0" /></g><g
           id="g29780"
           transform="translate(215.6465,157.1504)"><path
             d="M 0,0 0.308,0.018"
             style="fill:none;stroke:#231f20;stroke-width:0.5;stroke-linecap:round;stroke-linejoin:round;stroke-miterlimit:10;stroke-dasharray:none;stroke-opacity:1"
             id="path29782"
             inkscape:connector-curvature="0" /></g><g
           id="g29784"
           transform="translate(216.583,156.8237)"><path
             d="M 0,0 0.307,-0.365"
             style="fill:none;stroke:#231f20;stroke-width:0.5;stroke-linecap:round;stroke-linejoin:round;stroke-miterlimit:10;stroke-dasharray:none;stroke-opacity:1"
             id="path29786"
             inkscape:connector-curvature="0" /></g><g
           id="g29788"
           transform="translate(210.8789,154.4497)"><path
             d="M 0,0 -1.457,-0.822"
             style="fill:none;stroke:#231f20;stroke-width:0.5;stroke-linecap:round;stroke-linejoin:round;stroke-miterlimit:10;stroke-dasharray:none;stroke-opacity:1"
             id="path29790"
             inkscape:connector-curvature="0" /></g><g
           id="g29792"
           transform="translate(211.0527,157.3413)"><path
             d="M 0,0 -1.4,-0.804"
             style="fill:none;stroke:#231f20;stroke-width:0.5;stroke-linecap:round;stroke-linejoin:round;stroke-miterlimit:10;stroke-dasharray:none;stroke-opacity:1"
             id="path29794"
             inkscape:connector-curvature="0" /></g><g
           id="g29796"
           transform="translate(231.2686,156.4585)"><path
             d="M 0,0 -3.674,4.441"
             style="fill:none;stroke:#231f20;stroke-width:0.5;stroke-linecap:round;stroke-linejoin:round;stroke-miterlimit:10;stroke-dasharray:none;stroke-opacity:1"
             id="path29798"
             inkscape:connector-curvature="0" /></g><g
           id="g29800"
           transform="translate(224.5859,162.5845)"><path
             d="M 0,0 -3.678,-0.307"
             style="fill:none;stroke:#231f20;stroke-width:0.5;stroke-linecap:round;stroke-linejoin:round;stroke-miterlimit:10;stroke-dasharray:none;stroke-opacity:1"
             id="path29802"
             inkscape:connector-curvature="0" /></g><g
           id="g29804"
           transform="translate(226.0986,161.936)"><path
             d="M 0,0 -0.534,0.306"
             style="fill:none;stroke:#231f20;stroke-width:0.5;stroke-linecap:round;stroke-linejoin:round;stroke-miterlimit:10;stroke-dasharray:none;stroke-opacity:1"
             id="path29806"
             inkscape:connector-curvature="0" /></g><g
           id="g29808"
           transform="translate(114.4292,94.0386)"><path
             d="m 0,0 -0.46,0.209 -0.421,0.076 -0.405,0 -0.344,-0.132 -0.284,-0.233 -0.215,-0.323 -0.129,-0.424 -0.039,-0.459 0.039,-0.534 0.129,-0.558 0.215,-0.554 0.284,-0.536 0.344,-0.516 0.405,-0.456 0.421,-0.388 0.46,-0.305 0.419,-0.191 0.439,-0.094 0.385,0.019 0.364,0.132 0.289,0.212 0.209,0.323 0.114,0.422 0.057,0.462 -0.057,0.533 -0.114,0.558 -0.209,0.552 -0.289,0.537 -0.364,0.516 -0.385,0.46 L 0.419,-0.289 0,0 Z"
             style="fill:none;stroke:#231f20;stroke-width:0.5;stroke-linecap:round;stroke-linejoin:round;stroke-miterlimit:10;stroke-dasharray:none;stroke-opacity:1"
             id="path29810"
             inkscape:connector-curvature="0" /></g><g
           id="g29812"
           transform="translate(127.5605,92.7207)"><path
             d="M 0,0 -25.644,14.581"
             style="fill:none;stroke:#231f20;stroke-width:0.5;stroke-linecap:round;stroke-linejoin:round;stroke-miterlimit:10;stroke-dasharray:none;stroke-opacity:1"
             id="path29814"
             inkscape:connector-curvature="0" /></g><g
           id="g29816"
           transform="translate(101.9102,68.042)"><path
             d="M 0,0 0.006,39.259"
             style="fill:none;stroke:#231f20;stroke-width:0.5;stroke-linecap:round;stroke-linejoin:round;stroke-miterlimit:10;stroke-dasharray:none;stroke-opacity:1"
             id="path29818"
             inkscape:connector-curvature="0" /></g><g
           id="g29820"
           transform="translate(127.5488,53.3359)"><path
             d="M 0,0 0.012,39.385"
             style="fill:none;stroke:#231f20;stroke-width:0.5;stroke-linecap:round;stroke-linejoin:round;stroke-miterlimit:10;stroke-dasharray:none;stroke-opacity:1"
             id="path29822"
             inkscape:connector-curvature="0" /></g><g
           id="g29824"
           transform="translate(101.9165,107.3013)"><path
             d="M 0,0 14.052,7.886"
             style="fill:none;stroke:#231f20;stroke-width:0.5;stroke-linecap:round;stroke-linejoin:round;stroke-miterlimit:10;stroke-dasharray:none;stroke-opacity:1"
             id="path29826"
             inkscape:connector-curvature="0" /></g><g
           id="g29828"
           transform="translate(166.4209,44.7393)"><path
             d="m 0,0 3.123,-0.343 3.195,-1.567 3.176,-2.127 2.986,-1.323 1.381,0.021 1.302,0.535 2.448,2.3 2.28,3.403 2.239,3.89"
             style="fill:none;stroke:#231f20;stroke-width:0.5;stroke-linecap:round;stroke-linejoin:round;stroke-miterlimit:10;stroke-dasharray:none;stroke-opacity:1"
             id="path29830"
             inkscape:connector-curvature="0" /></g><g
           id="g29832"
           transform="translate(166.4209,74.7393)"><path
             d="M 0,0 0,-30"
             style="fill:none;stroke:#231f20;stroke-width:0.5;stroke-linecap:round;stroke-linejoin:round;stroke-miterlimit:10;stroke-dasharray:none;stroke-opacity:1"
             id="path29834"
             inkscape:connector-curvature="0" /></g><g
           id="g29836"
           transform="translate(188.5508,83.3164)"><path
             d="M 0,0 0,-33.788"
             style="fill:none;stroke:#231f20;stroke-width:0.5;stroke-linecap:round;stroke-linejoin:round;stroke-miterlimit:10;stroke-dasharray:none;stroke-opacity:1"
             id="path29838"
             inkscape:connector-curvature="0" /></g><g
           id="g29840"
           transform="translate(120.9165,112.3467)"><path
             d="m 0,0 c 1.596,-0.892 3.898,0.61 3.898,0.61 l 9.861,-5.588 c 0,0 -0.752,-2.301 -0.234,-2.63"
             style="fill:none;stroke:#231f20;stroke-width:0.5;stroke-linecap:round;stroke-linejoin:round;stroke-miterlimit:10;stroke-dasharray:none;stroke-opacity:1"
             id="path29842"
             inkscape:connector-curvature="0" /></g><g
           id="g29844"
           transform="translate(134.6758,107.3687)"><path
             d="M 0,0 0.047,-2.582"
             style="fill:none;stroke:#231f20;stroke-width:0.5;stroke-linecap:round;stroke-linejoin:round;stroke-miterlimit:10;stroke-dasharray:none;stroke-opacity:1"
             id="path29846"
             inkscape:connector-curvature="0" /></g><g
           id="g29848"
           transform="translate(127.5547,53.4629)"><path
             d="M 0,0 -25.645,14.579"
             style="fill:none;stroke:#231f20;stroke-width:0.5;stroke-linecap:round;stroke-linejoin:round;stroke-miterlimit:10;stroke-dasharray:none;stroke-opacity:1"
             id="path29850"
             inkscape:connector-curvature="0" /></g></g></g><g
       id="g29852"
       transform="translate(162.7969,115.3364)"><path
         d="m 0,0 0.575,-0.27 0.553,-0.135 0.507,0 L 2.09,-0.27 2.478,0 2.765,0.371 2.983,0.842 3.085,1.43 3.085,2.056 2.983,2.744 2.765,3.47 2.478,4.178 2.09,4.867 1.635,5.491 1.128,6.081 0.575,6.552 0,6.923"
         style="fill:none;stroke:#231f20;stroke-width:0.5;stroke-linecap:round;stroke-linejoin:round;stroke-miterlimit:10;stroke-dasharray:none;stroke-opacity:1"
         id="path29854"
         inkscape:connector-curvature="0" /></g><g
       id="g29856"
       transform="translate(161.8027,116.0249)"><path
         d="M 0,0 0.558,-0.438 1.13,-0.741 1.685,-0.958 2.223,-1.029 2.697,-0.943 3.1,-0.741 3.438,-0.42 3.673,0.019 3.807,0.574 3.842,1.18 3.759,1.853 3.571,2.561 3.302,3.285 2.931,3.958 2.493,4.602 1.989,5.189 1.45,5.661 0.876,6.05"
         style="fill:none;stroke:#231f20;stroke-width:0.5;stroke-linecap:round;stroke-linejoin:round;stroke-miterlimit:10;stroke-dasharray:none;stroke-opacity:1"
         id="path29858"
         inkscape:connector-curvature="0" /></g><g
       id="g29860"
       transform="translate(162.6787,122.0747)"><path
         d="m 0,0 -0.553,0.237 -0.527,0.134 -0.486,0 -0.437,-0.134 -0.371,-0.256 -0.302,-0.37 -0.189,-0.472 -0.102,-0.557 0.021,-0.637 0.116,-0.675"
         style="fill:none;stroke:#231f20;stroke-width:0.5;stroke-linecap:round;stroke-linejoin:round;stroke-miterlimit:10;stroke-dasharray:none;stroke-opacity:1"
         id="path29862"
         inkscape:connector-curvature="0" /></g><g
       id="g29864"
       transform="translate(162.7969,122.2593)"><path
         d="M 0,0 -0.538,0.269 -1.062,0.403 -1.534,0.42 -1.971,0.32 -2.356,0.101 -2.661,-0.218 -2.896,-0.64 -3.031,-1.146 -3.085,-1.719"
         style="fill:none;stroke:#231f20;stroke-width:0.5;stroke-linecap:round;stroke-linejoin:round;stroke-miterlimit:10;stroke-dasharray:none;stroke-opacity:1"
         id="path29866"
         inkscape:connector-curvature="0" /></g><g
       id="g29868"
       transform="translate(147.583,108.0576)"><path
         d="m 0,0 -1.397,0.034 -0.877,0.891 -0.354,1.162 0.674,1.231"
         style="fill:none;stroke:#231f20;stroke-width:0.5;stroke-linecap:round;stroke-linejoin:round;stroke-miterlimit:10;stroke-dasharray:none;stroke-opacity:1"
         id="path29870"
         inkscape:connector-curvature="0" /></g><g
       id="g29872"
       transform="translate(145.6289,111.376)"><path
         d="M 0,0 15.449,8.659"
         style="fill:none;stroke:#231f20;stroke-width:0.5;stroke-linecap:round;stroke-linejoin:round;stroke-miterlimit:10;stroke-dasharray:none;stroke-opacity:1"
         id="path29874"
         inkscape:connector-curvature="0" /></g><g
       id="g29876"
       transform="translate(147.583,108.0576)"><path
         d="M 0,0 15.467,8.675"
         style="fill:none;stroke:#231f20;stroke-width:0.5;stroke-linecap:round;stroke-linejoin:round;stroke-miterlimit:10;stroke-dasharray:none;stroke-opacity:1"
         id="path29878"
         inkscape:connector-curvature="0" /></g><g
       id="g29880"
       transform="translate(147.583,108.0576)"><path
         d="M 0,0 3.877,2.156"
         style="fill:none;stroke:#231f20;stroke-width:0.5;stroke-linecap:round;stroke-linejoin:round;stroke-miterlimit:10;stroke-dasharray:none;stroke-opacity:1"
         id="path29882"
         inkscape:connector-curvature="0" /></g><g
       id="g29884"
       transform="translate(164.9883,115.1157)"><path
         d="M 0,0 2.856,2.008"
         style="fill:none;stroke:#231f20;stroke-width:0.5;stroke-linecap:round;stroke-linejoin:round;stroke-miterlimit:10;stroke-dasharray:none;stroke-opacity:1"
         id="path29886"
         inkscape:connector-curvature="0" /></g><g
       id="g29888"
       transform="translate(159.7119,120.3882)"><path
         d="M 0,0 0,0.152"
         style="fill:none;stroke:#231f20;stroke-width:0.5;stroke-linecap:round;stroke-linejoin:round;stroke-miterlimit:10;stroke-dasharray:none;stroke-opacity:1"
         id="path29890"
         inkscape:connector-curvature="0" /></g><g
       id="g29892"
       transform="translate(162.6787,115.4004)"><path
         d="M 0,0 0.118,-0.064"
         style="fill:none;stroke:#231f20;stroke-width:0.5;stroke-linecap:round;stroke-linejoin:round;stroke-miterlimit:10;stroke-dasharray:none;stroke-opacity:1"
         id="path29894"
         inkscape:connector-curvature="0" /></g><g
       id="g29896"
       transform="translate(160.625,122.4785)"><path
         d="M 0,0 2.651,1.539"
         style="fill:none;stroke:#231f20;stroke-width:0.5;stroke-linecap:round;stroke-linejoin:round;stroke-miterlimit:10;stroke-dasharray:none;stroke-opacity:1"
         id="path29898"
         inkscape:connector-curvature="0" /></g><g
       id="g29900"
       transform="translate(88.6265,140.9229)"><path
         d="M 0,0 60.97,-28.856"
         style="fill:none;stroke:#ffffff;stroke-width:3;stroke-linecap:round;stroke-linejoin:miter;stroke-miterlimit:4;stroke-dasharray:none;stroke-opacity:1"
         id="path29902"
         inkscape:connector-curvature="0" /></g><g
       id="g29904"
       transform="translate(149.5967,112.0664)"><path
         d="M 0,0 0,0"
         style="fill:none;stroke:#ffffff;stroke-width:3.75;stroke-linecap:round;stroke-linejoin:miter;stroke-miterlimit:4;stroke-dasharray:none;stroke-opacity:1"
         id="path29906"
         inkscape:connector-curvature="0" /></g><g
       id="g29908"
       transform="translate(88.6265,140.9229)"><path
         d="M 0,0 60.97,-28.856"
         style="fill:none;stroke:#201d1c;stroke-width:0.5;stroke-linecap:round;stroke-linejoin:miter;stroke-miterlimit:4;stroke-dasharray:none;stroke-opacity:1"
         id="path29910"
         inkscape:connector-curvature="0" /></g><g
       id="g29912"
       transform="translate(149.5967,112.0664)"><path
         d="M 0,0 0,0"
         style="fill:none;stroke:#201d1c;stroke-width:1.5;stroke-linecap:round;stroke-linejoin:miter;stroke-miterlimit:4;stroke-dasharray:none;stroke-opacity:1"
         id="path29914"
         inkscape:connector-curvature="0" /></g><g
       id="g29916"><g
         id="g29918"
         clip-path="url(#clipPath29920)"><g
           id="g29924"><g
             id="g29926" /><g
             id="g29932"><g
               clip-path="url(#clipPath29928)"
               id="g29934"><text
                 transform="matrix(1,0,0,-1,223.146,96.4355)"
                 style="font-variant:normal;font-weight:bold;font-stretch:normal;font-size:10px;font-family:Helvetica;-inkscape-font-specification:Helvetica-Bold;writing-mode:lr-tb;fill:#211d1d;fill-opacity:1;fill-rule:nonzero;stroke:none"
                 id="text29936"><tspan
                   x="0"
                   y="0"
                   id="tspan29938">1</tspan></text>
</g></g></g></g></g><g
       id="g29940"
       transform="translate(220.3857,100.8979)"><path
         d="M 0,0 -52.086,19.851"
         style="fill:none;stroke:#ffffff;stroke-width:3;stroke-linecap:round;stroke-linejoin:miter;stroke-miterlimit:4;stroke-dasharray:none;stroke-opacity:1"
         id="path29942"
         inkscape:connector-curvature="0" /></g><g
       id="g29944"
       transform="translate(168.2998,120.7485)"><path
         d="M 0,0 0,0"
         style="fill:none;stroke:#ffffff;stroke-width:3.75;stroke-linecap:round;stroke-linejoin:miter;stroke-miterlimit:4;stroke-dasharray:none;stroke-opacity:1"
         id="path29946"
         inkscape:connector-curvature="0" /></g><g
       id="g29948"
       transform="translate(220.3857,100.8979)"><path
         d="M 0,0 -52.086,19.851"
         style="fill:none;stroke:#201d1c;stroke-width:0.5;stroke-linecap:round;stroke-linejoin:miter;stroke-miterlimit:4;stroke-dasharray:none;stroke-opacity:1"
         id="path29950"
         inkscape:connector-curvature="0" /></g><g
       id="g29952"
       transform="translate(168.2998,120.7485)"><path
         d="M 0,0 0,0"
         style="fill:none;stroke:#201d1c;stroke-width:1.5;stroke-linecap:round;stroke-linejoin:miter;stroke-miterlimit:4;stroke-dasharray:none;stroke-opacity:1"
         id="path29954"
         inkscape:connector-curvature="0" /></g><g
       id="g29956"><g
         id="g29958"
         clip-path="url(#clipPath29960)"><g
           id="g29964"><g
             id="g29966" /><g
             id="g29972"><g
               clip-path="url(#clipPath29968)"
               id="g29974"><text
                 transform="matrix(1,0,0,-1,80.4775,139.1172)"
                 style="font-variant:normal;font-weight:bold;font-stretch:normal;font-size:10px;font-family:Helvetica;-inkscape-font-specification:Helvetica-Bold;writing-mode:lr-tb;fill:#211d1d;fill-opacity:1;fill-rule:nonzero;stroke:none"
                 id="text29976"><tspan
                   x="0"
                   y="0"
                   id="tspan29978">2</tspan></text>
</g></g></g></g></g></g></svg>